<svg viewBox="0 0 640 480" xmlns="http://www.w3.org/2000/svg" xmlns:xlink="http://www.w3.org/1999/xlink">
<path d="M0 0h640v480H0z" fill="#d0103a"/>
<path d="M0 0h435.2v480H0z" fill="#fedf00"/>
<path d="M0 0h204.8v480H0z" fill="#0018a8"/>
<path d="M300.4 136.63c7.712 0 10.866 6.617 18.578 6.617 4.76 0 7.538-1.555 11.687-3.896 2.895-1.64 4.743-2.51 8.068-2.51 3.404 0 5.49 1.03 7.232 3.95.984 1.65 1.8 4.89 1.368 6.74-.82 3.52-1.325 5.05-2.727 8.29-.668 1.56-1.298 2.5-1.298 4.21 0 4.1 5.57 5.5 9.358 5.56.826.02 7.77.13 12.042-4.2-2.32-.1-4.913-1.89-4.913-4.21 0-2.62 1.844-4.4 4.343-5.15.475-.13 1.284.29 1.714.06.61-.31.323-1 .866-1.43 1.244-.99 2.053-1.61 3.647-1.61 1.04 0 1.65.15 2.487.75.44.32.603.71 1.146.71 1.142 0 1.708-.72 2.85-.72.927 0 1.493.12 2.307.54.678.35.663 1.5 1.432 1.5.385 0 2.42-.83 3.48-.83 2.207 0 3.384.8 4.81 2.48.384.45.63 1.37 1.02 1.37.788 0 2.602.51 3.733 1.64.486.49.702.72 1.075 1.31.26.42.66 1.44 1.12 1.62.538.21.99.17 1.698.63 1.618 1.03 2.86 2.98 2.803 4.87-.02.63-.31 1.51-.48 2.12-1.883 6.58-6.363 8.67-10.886 14.32-1.923 2.41-3.44 4.33-3.44 7.42 0 .75.92 2.11 1.326 2.74-.248-1.45.415-3.23 1.948-3.31 2.1-.11 3.724 1.48 4.007 3.56.06.49-.12 1.33-.33 1.82 1.13-.74 2.62-1.25 3.98-1.41.74-.08 1.16-.1 1.91-.08 3.36.08 7.06 1.97 9.31 3.88 6.88 5.85 7.71 14.4 7.34 16.77-.83 5.28-.31 14.83-13.8 18.64 2.5 1.05 4.2 2.93 4.2 5.23 0 2.51-1.92 4.66-4.43 4.66-1.43 0-2.43-.35-3.44-1.36-2.8 2.81-3.34 5.67-3.34 9.64 0 2.38.45 3.78 1.45 5.93 1.05 2.28 1.81 3.61 3.71 5.25 1.01-1.52 2.07-2.63 3.89-2.63 1.76 0 3.26.57 3.98 2.18.22.49.02.88.27 1.36.32.61.85.75 1.18 1.36.51.94.01 1.74.45 2.71.29.63.91.72 1.18 1.36.43.97.55 1.64.55 2.71 0 3-2.73 5.15-5.74 5.15-.9 0-1.4-.36-2.3-.27 1.72 1.72 3.03 2.46 4.34 4.52 1.9 2.98 2.37 5.09 2.8 8.6.08.65.09 1.05.09 1.72 0 4.5-.7 7.19-2.71 11.22-1.92 3.86-3.56 6-7.06 8.51-5.45 3.93-9.42 5.06-16.01 6.34-4.23.81-6.65 1.17-10.95 1.44-5.5.35-8.63.36-14.11.73-7.19.49-12.18 1.5-17.28 6.6 2.41 1.76 4.07 3.49 4.07 6.47 0 3.05-1.88 5.23-4.79 6.2-.68.22-1.18.02-1.81.36-.76.39-.72 1.26-1.45 1.72-1.28.82-2.27 1-3.8 1-2.69 0-4.52-.63-6.42-2.53-2.2 1.84-2.95 3.49-5.43 4.89-.81.45-1.23 1.09-2.17 1.09-1.48 0-2.16-.94-3.34-1.81-1.89-1.38-2.9-2.29-4.44-4.07-2.25 1.35-3.63 2.44-6.24 2.44-1.61 0-2.62-.23-3.98-1.08-.71-.44-.83-1.09-1.54-1.53-.75-.47-1.37-.3-2.17-.637-3.02-1.3-4.97-3.54-4.97-6.83 0-2.89 1.82-4.72 4.44-5.93-5.01-5.01-9.94-5.88-17.01-6.33-5.46-.35-8.57-.36-14.02-.72-4.33-.294-6.74-.735-11.04-1.45-3.24-.53-5.16-.7-8.14-2.08-10.23-4.77-16.76-11.32-18.09-22.53-.11-.96-.09-1.51-.09-2.48 0-5.832 2.3-9.4 6.43-13.522-1.06-.25-1.78.1-2.81-.27-2.57-.94-4.43-2.73-4.43-5.47 0-1.02.05-1.7.55-2.58.35-.63 1.02-.75 1.18-1.45.21-.93-.07-1.58.36-2.44.29-.58.82-.69 1.09-1.27.9-1.86 2.02-3.35 4.07-3.35 1.77 0 2.9.93 3.8 2.44 1.72-.79 2.2-2.08 3.17-3.71 1.62-2.7 2.36-4.59 2.36-7.73 0-2.2-.22-3.49-.91-5.57-.5-1.49-.7-2.51-1.81-3.62-1.01 1.01-2 1.36-3.44 1.36-2.87 0-5.07-2.47-5.07-5.34 0-2.14 1.05-3.72 2.99-4.615-1.55-1.34-2.89-1.45-4.61-2.53-2.61-1.65-3.53-3.4-5.25-5.97-1.12-1.69-1.41-2.87-1.99-4.8-.69-2.33-1.09-3.72-1.09-6.16 0-.63.01-1.01.09-1.63.65-4.91 1.53-7.98 4.62-11.85 1.84-2.29 3.08-3.71 5.79-4.88 2.31-1 3.69-1.72 6.2-1.72.76 0 1.2 0 1.95.09 1.16.14 1.89.25 2.9.81.39.21 1.09.86 1.09.4 0-.52-.27-.79-.27-1.31 0-2.09 1.49-3.99 3.57-3.99 1.51 0 2.12 1.32 2.85 2.62.48-.79.73-1.34.73-2.26 0-3.44-1.85-5.19-3.98-7.87-4.66-5.83-10.5-8.55-10.5-16.02 0-2.23 1.07-3.75 2.98-4.89.55-.33 1.3 0 1.84-.35.46-.29.41-.89.7-1.37.46-.74.87-1.05 1.52-1.62 1.06-.93 1.99-.65 3.17-1.46.59-.4.73-.93 1.18-1.48 1.31-1.58 2.49-2.34 4.56-2.34 1.04 0 1.62.01 2.58.39.33.13.94.62 1.02.53.21-.25.77-.85 1.44-1.16.87-.42 1.23-.58 2.2-.58 1.11 0 1.83.62 2.94.62.41 0 .5-.41.83-.62.98-.67 1.55-1.05 2.75-1.05 1.15 0 1.79.38 2.76 1 .92.57 1.05 1.35 1.99 1.89.52.3.96.17 1.54.36 2.58.86 4.53 2.58 4.53 5.29 0 1.47-.35 2.52-1.45 3.48-.87.77-1.7.63-2.8.99 3.6 2.876 6.73 3.59 11.32 3.59 4.21 0 9.35-1.72 9.35-5.923 0-1.96-1.08-3.01-1.85-4.81-1.38-3.2-2.13-5.08-2.13-8.563 0-2.76.3-4.43 1.91-6.67 1.65-2.31 3.66-2.85 6.5-2.85z" fill="#c7b37f"/>
<g stroke="#703d29" fill="none">
<path stroke-linejoin="round" stroke-width=".666" d="M272.38 159.01c.276 1.045 1.12 2.023 2.444 2.437.796.25 2.638.15 3.832-1.393.968-1.25.894-2.8.532-4.03-.234-.796-.877-1.565-1.726-2.22l-5.08 5.157-.002.05z"/>
<path stroke-width=".664" stroke-linecap="round" d="M401.03 236.12c-1.194-2.886-4.28-1.593-4.47 0-.436 3.668 2.78 4.776 5.068 4.18 1.133-.296 1.963-1.01 2.493-1.94.6-1.05.78-2.42.39-3.728a4.9 4.9 0 0 0-.84-1.652 4.973 4.973 0 0 0-1.28-1.21c-.88-.56-1.84-.617-3.34-.617-5.57 0-10.45 6.585-12.08 13.425-.54 2.253-1.28 7.278-.25 12.042 1.1 5.075 3.29 8.59 5.87 11.254 1.39 1.443 3.29 2.728 5.75 4.12.76.428 2.77 1.318 4.16 1.716 1.43.41 2.75.35 3.94.09 3.3-.716 4.84-3.787 3.18-6.93-1.36-2.573-5.37-3.98-7.26-.696-.16.278-.41.885-.4 1.542.01.876.37 1.93 1 2.33 1.43.914 3.73.655 3.63-1.882"/>
<path stroke-width=".817" d="M383.8 273.96c1.118-1.316 3.684-3.29 6.62-3.65 2.978-.366 5.566.5 8.21 1.923 5.157 2.774 8.034 5.756 9.95 11.29.487 1.405.89 3.523.835 5.773-.09 3.588-1 7.51-1.98 9.404-.852 1.654-3.084 8.956-15.324 13.996-7.14 2.94-18.11 3.618-25.67 3.917-10.4.41-20 .796-25.57 7.663"/>
<g stroke-width=".717">
<path d="M386.4 285.73c-.298-1.095-.022-2.144.846-3.334 1.16-1.59 3.632-2.14 5.872-.895.75.42 1.688.97 2.537 2.09.32.43.864 1.12 1.145 1.6.677 1.16.956 2.11 1.09 2.49 2.46 7-1.45 14.57-6.564 17.62-3.972 2.36-8.71 3.42-14.38 4.08-2.55.3-4.004.28-6.568.4-2.063.1-3.845.07-5.523.05-1.38-.02-2.69-.01-4.03-.04-2.186-.05-4.448-.1-7.216.1-2.92.21-5.11.29-7.57.7-1.61.27-3.49.53-5.47.97-.6.14-1.2.24-1.8.43l-1.21.37c-3.57 1.09-7.03 2.42-9.77 4.18-.85.55-1.8 1.09-2.48 1.74-.43.4-.95.81-1.36 1.22-1.92 1.88-3.87 3.92-4.33 6.68-.09.51-.09 1.04-.09 1.61 0 1.79 1.45 4.23 5.38 5.03m5.53-170.12c.82 1.49 1.27 2.4.8 3.93-.54 1.75-1.78 2.79-3.54 2.79-3.98 0-6.33-4.71-4.53-7.71 3.18-5.32 9.3-2.33 14.97.31-.28-1.36-.75-1.81-.7-3.5.12-4.2 3.24-6.11 4.48-9.99.74-2.31 1.04-4.32-.66-5.96-1.48-1.43-3.19-1.41-5.12-.65-3.86 1.51-8.48 5.85-16.63 5.97-8.14-.12-12.81-4.46-16.66-5.97-1.93-.75-3.64-.77-5.11.66-1.69 1.65-1.4 3.65-.66 5.97 1.25 3.88 4.36 5.78 4.48 9.99.05 1.69-.43 2.14-.7 3.5 5.67-2.63 12.03-5.89 14.97-.3 1.64 3.12-.55 7.72-4.53 7.72-1.75 0-2.98-1.12-3.53-2.78-.49-1.48 0-2.78.8-3.93"/>
<path stroke-linecap="round" d="M314.56 159.87c1.538 1.176 2.624 2.623 2.443 4.975-.197 2.553-.815 3.168-2.805 4.525m2.4-3.8c-.09 1.538-.723 2.533-2.26 3.166"/>
</g>
<path d="M276.74 153.27l.697.497.746.797.496.996.25.846.05 1.093-.05.74-.25.84-.5.59-.6.64-.85.44-1.1.25-.95.15-1-.45-.9-.65-.55-.8-.4-1v-.4l4.87-4.63z" fill="#c7b37f" stroke="none"/>
<path stroke-width=".666" stroke-linecap="round" d="M275.21 157.16c-.306-1.652-2.237-1.99-2.985-1.015-1.15 1.502-.31 4.004 2.034 4.737.79.25 2.63.15 3.83-1.394.97-1.25.89-2.8.53-4.03-.24-.796-.88-1.49-1.73-2.14-2.72-2.07-7.12-1.592-8.56 1.89-1.86 4.494 2.19 7.863 5.92 10.4 4.7 3.195 10.05 3.776 14.08 3.733 9.15-.1 16.12-4.48 20.65-6.96 1.05-.58 2.14-.46 2.68.2.61.75.6 1.95-.25 2.74"/>
<path stroke-width=".676" d="M248.06 281.18l-2.04.746-2.09 1.593-.896 1.24-1.144 1.99-.498 1.49-.398 1.84-.2 1.39m19.02-10.1l-.15 1.79-.298 1.24-.896 2.14-1.393 1.84-1.492 1.19-1.094.55-1.54.35"/>
<path stroke-width=".766" d="M319.74 329.11c-.37 1.656-1.922 3.55-5.3 4.235l-.655.136"/>
<path stroke-width=".868" d="M404.22 276.2c2.137 1.993 3.638 4.42 4.792 7.75.487 1.404.89 3.523.834 5.773-.09 3.587-1 7.507-1.98 9.403-.852 1.655-3.083 8.957-15.324 13.996-7.143 2.94-18.112 3.62-25.676 3.918-10.254.404-19.726.785-25.332 7.37"/>
<path stroke-width=".595" d="M387.49 282.85c.76-1.038 3.53-2.35 5.77-1.107.737.41 1.61.928 2.377 2.076"/>
<path stroke-width=".868" d="M401.61 273.79c.5.192 1 .366 1.436.49 1.43.41 2.776.44 3.942.09 2.83-.848 4.647-3.492 3.174-6.93-.342-.796-.996-1.56-1.74-2.133"/>
<path stroke-width=".666" stroke-linecap="round" d="M240.28 199.76c-1.9 1.176-3.317 1.455-4.795 3.167-1.472 2.914-2.05 4.48-2.624 6.816m46.1-51.69c0 1.72-1.26 2.805-2.98 3.167"/>
<path stroke-width=".638" d="M397.11 192.02c4.73-.097 18.47 3.608 18.567 19.76.098 15.952-9.844 18.558-13.827 19.62"/>
<path stroke-width=".664" d="M398.36 192.02c8.156-.355 16.57 5.648 16.942 20.63.29 11.705-8.01 17.014-11.995 18.076"/>
<path stroke-width=".564" d="M393.81 248.42l.127-1.6.533-2.544.754-1.978.848-1.633 1.1-1.32m7.78-3.39l-.125 1.566-.45 1.07-.695 1.02-.796.6-1.22.45-1.07.08-.796-.12m-14.31-52.81l.35-1.69.746-1.56.97-1.57 1.667-2.14 1.32-1.47 2.138-2.16 1.85-1.87 1.17-1.34 1.54-1.86 1.37-2.06.82-1.69.45-2.19.14-2.71-.25-.79m-12.28 128.17l1.62-.32 1.22-.64.67-.67.47-.77.33-1.24.03-.87M233.58 274.2l1.19.1 1.54-.12 1.55-.55m5-36.55l-.2 1.39-.32.62-.47.6-.645.495-.72.32-.943.15-.645.05m9.91-15.61l-.35 2.163-.422.947-.87 1.197-1.17.9-1.19.594-2.31.57m15.3-39.76L257.37 193l-.55.94-.745 1.047-1.044.95-1.24.596-1.04.25-.64-.05m.37-6.2l.03.994"/>
<g stroke-width=".632">
<path stroke-linecap="round" d="M254.28 224.06a6.855 6.855 0 0 1-2.09 1.298m150.52 44.82c.085.093.372.14.472.2 1.418.845 4.21-.21 3.39-2.4"/>
<path d="M397.79 239.6c1.006 1.315 2.904 1.657 4.405 1.265 1.134-.296 1.964-1.01 2.494-1.94.59-1.05.78-2.42.39-3.727a4.907 4.907 0 0 0-.85-1.65c-.43-.563-.96-1.16-1.37-1.428-.11-.07-.22-.167-.33-.245m6.42 34.01a3.94 3.94 0 0 0 .06-.72 3.92 3.92 0 0 0-1.29-2.934c-.28-.24-.54-.62-.87-.79m.48.47c-.05-1.86-1.57-3.19-3.46-3.53m-4.17 2.84c-.44-.35-.9-.65-1.31-1.08-2.45-2.56-4.3-6.35-4.32-10.67-.03-4.14 1.64-8.36 3.58-10m-56.51 84.65l1.79-1.64 1.24-.94 2.34-1.44 2.18-1.04 1.54-.4 3.08-.69 3.58-.55m-29.5 19.37c-1.29 1.99-4.38 4.98-7.61 6.17-3.24-1.19-6.32-4.18-7.62-6.17"/>
<path stroke-linecap="round" d="M314.42 332.63c-.406 1.503-1.143 2.96-2.22 4.13"/>
<path d="M314.74 330.54l-.45 2.19m-2.33 4.18l-.945.944-1.692.946-1.94.597m-5.65-177.83c.243-.757.49-1.326.455-2.57-.125-4.2-3.24-6.106-4.484-9.987-.74-2.31-1.036-4.32.656-5.96 1.477-1.434 3.188-1.412 5.116-.657 3.85 1.51 8.517 5.848 16.66 5.97-8.143-.122-12.81-4.46-16.66-5.97-1.928-.755-3.798-.976-5.275.457-1.69 1.642-1.23 3.85-.49 6.16 1.25 3.882 4.2 5.787 4.33 9.99.04 1.242-.29 1.81-.53 2.568m18.63-13.49c8.01-.423 14.88-5.806 17.09-6.245 1.98-.392 3.08-.215 4.53 1.102-1.45-1.317-3.1-1.276-4.97-.54-3.85 1.51-8.47 5.847-16.62 5.968m79.6 112.89c-3.33-2.388-6.19-6.948-6.22-12.335-.02-4.144 1.65-8.36 3.59-10.002m-69.95 97.58c-1.29 1.99-4.38 4.976-7.61 6.17-3.23-1.194-6.32-4.18-7.61-6.17"/>
<path stroke-linecap="round" d="M306.67 163.67c.832-.462 1.605-.9 2.318-1.292 1.055-.58 2.323-.458 2.87.202.615.745.71 2.037-.145 2.826"/>
<path d="M294.71 169.27c5.496-1.147 9.975-3.61 13.36-5.502m32.27 164.19c.454.31.746.955.746.955.125.3.288.584.333.85.25 1.522-.74 2.47-1.98 2.614-1.7.197-2.97-.81-3.51-2.03m-41.51-161.36c5.49-1.147 9.97-3.61 13.36-5.502m97.57 106.9c-1.05.402-1.62.348-2.92-.23-.54-.236-1.15-.603-1.86-1.01-2.55-1.446-5.58-3.727-8.41-9.05a18.812 18.812 0 0 1-1.71-4.476c-.27-1.11-.46-2.21-.5-3.34-.07-1.92.14-3.93.61-6.22.79-3.79 1.74-5.85 4.08-9.06 1.15-1.58 2.14-2.54 4.28-2.59m-143.69-39.3c1.78 1.51 2.64 3.38 2.64 5.72 0 3.1-2.6 8.16-8.97 9.95-2.44.68-4.86.13-6.32-.76"/>
<path d="M256.29 205.62c1.145.795 1.593 1.69 1.593 3.244 0 1.065-.69 2.446-1.86 3.754-1.92 2.142-5.173 3.962-8.78 4.007-1.955.024-3.986-.384-6.03-1.75-2.184-1.46-3.333-3.434-3.83-5.375"/>
<path d="M256.19 212.29c1.297 1.192 1.695 2.684 1.695 4.563 0 2.745-1.115 4.864-3.68 7.108a12.65 12.65 0 0 1-1.94 1.4m129.44-22.08v3.53m-.29-4.4v4.98m.29-15.74v6.52m-.29-7.96v8.91m-1.9 81.96c-1.236 2.46-2.223 3.75-4.18 5.67-1.975 1.95-3.343 2.84-5.822 4.08-2.414 1.21-3.934 1.6-6.568 2.19-2.632.6-4.17.73-6.867.85-2.47.12-3.874.01-6.342-.16-2.64-.18-4.107-.55-6.744-.78-2.178-.19-3.408-.36-5.595-.36-2.248.01-3.536.02-5.75.41-2.062.37-3.232.66-5.174 1.45-2.685 1.09-5.72 2.99-6.368 3.83-.647-.84-3.683-2.74-6.37-3.83-1.94-.79-3.11-1.08-5.174-1.44-2.21-.39-3.5-.4-5.75-.41-2.18 0-3.41.17-5.59.36-2.64.24-4.1.6-6.74.79-2.47.17-3.87.28-6.34.17-2.69-.12-4.23-.25-6.86-.84s-4.15-.98-6.57-2.19c-2.48-1.23-3.84-2.13-5.82-4.08a35.07 35.07 0 0 1-.61-.61m42.17 53.37l1.79-.22m30.28-2.36l1.81-.17 1.72-.69 1.21-.73 1.64-1.94.35-.73.26-1.68.09-.77m46.91-136.69c.78-2.64-.17-5.43-2.73-5.35m-131.95 46.56c-.65 2.19-2.04 3.69-3.59 4.67m3.64-46.72c-.64 1.85-1.81 3.17-3.66 4.01-1.84.83-3.98.05-5.13-.83"/>
<path stroke-linecap="round" d="M243.81 202.37c1.53.802 3.084-.374 2.766-2.365-.15-.933-1.155-2.112-2.517-2.198"/>
<path d="M250.16 286.63c.33.31.4.714.846.796.67.125 1.194.374 1.866-.522.827-1.104.382-2.82-.48-3.902-.922-1.157-3.592-2.18-5.83-.936-.75.416-1.69.964-2.54 2.09-.32.426-.863 1.113-1.143 1.592-.68 1.16-.96 2.107-1.09 2.488-2.05 5.823.38 11.945 4.15 15.676"/>
<path stroke-linecap="round" d="M340.22 327.83c.408.426.646.796.646.796.126.3.23.584.274.85.258 1.522-.74 2.47-1.973 2.614-1.695.197-2.83-.802-3.37-2.02"/>
<path d="M389.44 154.76c3.346.408 6.262 3.602 6.262 7.035 0 4.43-1.492 6.078-3.824 9.246-2.495 3.39-10.648 9.61-10.648 16.67 0 4.28 1.194 7.02 4.28 8.41 1.988.9 4.314-.07 5.373-1.03 2.587-2.34 1.553-6.44-1.144-6.93-3.29-.6-3.91 4.58-.7 4.23m17.83 69.06c-.3-1.77-1.8-3.12-3.62-3.12-2.03 0-3.67 1.68-3.67 3.76a3.79 3.79 0 0 0 1.03 2.62"/>
<path d="M383.87 195.12c-1.78 1.512-2.638 3.384-2.638 5.722 0 3.1 2.592 8.16 8.962 9.952 2.44.686 4.772.62 6.233-.267m-156.04-10.34c-1.522.508-3.423 1.458-4.83 3.453-1.19 1.683-1.882 4.023-2.31 6.07-.19.896-.413 3.733.16 6.663.424 2.163 1.317 4.177 2.306 5.636a7.94 7.94 0 0 0 1.037 1.23c.33.33.802.62 1.135.88m64 92.04c4.85 2.15 8.404 3.76 11.418 8.52.945 1.49 1.194 3.63 1.194 4.87 0 2.68-1.095 5.72-3.334 7.61-2.078 1.75-4.13 2.29-6.667 2.04-1.924-.19-3.73-1.6-4.03-2.59m-46.48-112.5c2.737 2.14 3.88 4.21 3.88 7.51 0 3.78-1.84 6.12-3.98 7.46"/>
<path stroke-linecap="round" d="M251.51 236.42c4.08 5.076 6.245 8.088 6.37 14.132.115 5.672-1.693 9.553-5.077 13.634"/>
<path d="M329.75 169.32c.742-.487 1.286-1.267 1.6-2.23.48-1.49.49-2.757-.305-3.902.982 1.285 1.072 2.37.796 3.93-.17.994-.81 1.517-1.6 2.23m51.46 86.16v16.154h.05c0 .01 0 1.53-.13 2.488a34.413 34.413 0 0 1-.27 1.73"/>
<path d="M381.41 253.96v17.423h.043c0 .013-.005 1.53-.135 2.49-.136 1-.28 1.847-.467 2.64m.56-42.95v14.53m.29-13.38v11.817m0-26.85v8.858m-.29-9.9v10.92m.29-18.94v3.436m-.29-4.13v4.977m-1.84 65.19a20.61 20.61 0 0 1-.33.7c-1.23 2.46-2.22 3.75-4.18 5.67-1.97 1.95-3.34 2.84-5.82 4.08-2.41 1.21-3.93 1.6-6.57 2.19-2.63.6-4.17.73-6.86.85-2.47.11-3.87.01-6.34-.16-2.64-.18-4.1-.55-6.74-.78-2.18-.19-3.41-.36-5.59-.36-2.25.01-3.53.02-5.75.41-2.06.37-3.23.66-5.17 1.45-2.68 1.09-5.72 2.99-6.37 3.83-.64-.84-3.68-2.74-6.36-3.83-1.94-.78-3.11-1.07-5.17-1.44-2.21-.39-3.5-.4-5.75-.41-2.18 0-3.41.17-5.59.36-2.64.24-4.1.6-6.74.79-2.47.17-3.87.28-6.34.17-2.69-.12-4.23-.25-6.87-.84s-4.15-.98-6.57-2.19c-2.48-1.24-3.84-2.13-5.82-4.08-1.03-1.02-1.79-1.86-2.47-2.78m-2.01-3.19c.43 3.17-.9 6.28-2.25 7.71-.84.9-2.69 2.61-4.97 2.64-3.78.05-4.91-2.55-5.14-3.18"/>
<path d="M255.62 278.85c.702.693 1.325 1.54 1.852 2.538.945 1.79.654 4.787-.095 6.17a4.427 4.427 0 0 1-.304.478m-20.25 18.01c2.248 2.36 5.65 4.923 10.873 7.073 7.142 2.94 18.11 3.62 25.675 3.91 10.06.39 19.33.81 24.97 7.04m17.37-4.07c1.66 1.63 3.36 3.39 4.08 5.63m-7.34 11.45a8.22 8.22 0 0 1-.69.66c-2.07 1.75-4.13 2.29-6.66 2.04-1.92-.19-3.78-1.63-4.28-2.58m-5.36-2.91c.1.12.19.25.3.37 1.21 1.4 3.12 2.28 5.11 2.45m26.87-.07c-1.29 1.99-4.38 4.97-7.61 6.17-3.23-1.2-6.32-4.18-7.61-6.17l-.3-.47m15.58.46c.23.25.48.49.74.71 2.08 1.75 4.13 2.29 6.67 2.04 1.93-.19 3.46-1.48 4.07-2.59 0 0 .35-.38.45-.73"/>
<path d="M339.04 336.63l-.743 1.194-1.13.937-1.71.71-1.55.07"/>
<path d="M343.06 325.26c.915.703 1.814 1.767 2.302 2.903.314.73.46 1.533.505 2.366a5.854 5.854 0 0 1-1.423 4.14c-1.278 1.49-3.272 2.39-5.395 2.47a5.482 5.482 0 0 1-.47 0m.17-.28c-2.03.08-3.85-.79-5.18-2.16m63.68-67.86c-1.59-1.46-3.23-3.48-4.81-6.45a18.803 18.803 0 0 1-1.71-4.48c-.27-1.11-.46-2.21-.5-3.34-.07-1.92.14-3.93.62-6.22.79-3.79 2.2-6.73 4.08-9.06.64-.8 1.38-1.79 2.08-2.24m-1.38-75.83c2.54.2 4.89 2.93 4.86 5.61-.05 3.89-1.35 5.5-4.41 9.31-2.64 3.28-10.55 9.05-10.35 14.58.03.98.56 1.99 1.15 2.81m-3.16 3.46c.56.55 1.24 1.01 2.05 1.38 1.44.65 3.07.31 4.26-.29m-21.17-43.22c.85.58 1.71 1.46 2.18 2.6 1.86 4.49-2.19 7.86-5.92 10.4-2.68 1.82-5.57 2.79-8.3 3.28"/>
<path d="M364.6 161.56c-.905-.01-1.98-.267-3.15-1.497-.268-.283-.583-.658-.707-.994m-14.85 4.9c-.473-.24-.98-.59-1.32-.97-.887-1-1.48-2.34-.795-4.39.632-1.9 3.677-7.22 3.827-10.9.228-5.63-1.936-8.95-5.32-10.24"/>
<path stroke-linecap="round" d="M347.32 146.46l-.132 2.115-.573 2.16-1.1 2.95-.84 1.896-.88 1.9-.44 1.33-.177.97.133.93M381.32 287c.18.422.6.835.6.835.65 1.08 3.16 2.98 5.45 3.01 3.78.05 4.68-2.597 4.78-3.185.48-2.886-.51-3.676-1.99-4.49 0 0-.87-.45-1.91-.276"/>
<path d="M236.95 274.35c-1.335.34-2.59.35-3.685.02-2.83-.85-5.124-3.56-3.954-6.93m13.38-31.82c.29.285.38.71.42 1.07.44 3.667-2.77 4.736-5.06 4.14-1.13-.297-2.48-1.35-3.01-2.28a4.707 4.707 0 0 1-.61-2.303m22.05-23.67a4.84 4.84 0 0 1 1.24 1.764m-1.13-8.52c.53.37.92.84 1.17 1.31"/>
<path stroke-linecap="round" d="M257.86 210.52c-.31.762-.843 1.584-1.555 2.38-1.92 2.14-5.173 3.96-8.778 4.005-1.957.025-3.988-.384-6.03-1.75-2.186-1.46-3.61-3.538-4.082-5.578"/>
<path d="M255.43 195.28c1.108.942 1.958 2.142 2.367 3.39"/>
<path stroke-linecap="round" d="M257.83 203.24c-.885 2.928-3.526 6.548-8.622 7.84-2.435.616-5.57-.155-6.64-1.066"/>
<path d="M240.04 202.55c.267 2.637 2.032 4.613 5.377 4.677 4.704.09 7.564-6.767 3.384-11.58"/>
<path stroke-linecap="round" d="M229.45 225.53c.687.862 1.496 1.64 2.323 2.327 1.677 1.396 3.655 2.625 5.934 3.298m5.28.49c4.203-.505 6.573-3.638 6.103-7.302-.358-2.793-2.92-4.94-4.662-5.064"/>
<path d="M249.85 188.11c1.823-.07 2.86 1.588 2.844 2.984"/>
<path stroke-linecap="round" d="M249.42 163.08c1 2.614 2.947 4.657 5.032 5.824m144.18 30.97c1.72 2.354.594 6.996-4.082 7.084-1.827.035-3.475-.978-4.44-2.51"/>
<path d="M381.7 169.12v15.8"/>
<path stroke-linecap="round" d="M243.76 202.33c1.443 1.044 3.296-.72 2.58-2.592-.485-1.264-2.282-2.628-4.77-.937-2.747 1.87-1.99 7.77 3.285 7.87 4.703.09 7.563-6.76 3.383-11.58-4.02-4.63-11.345-3.54-16.12.26-2.034 1.62-5.873 5.86-7.067 11.63-.37 1.8-.61 3.27-.58 5.08a21.1 21.1 0 0 0 .49 4.18c.72 3.35 1.9 5.81 3.08 7.52.45.65.86 1.2 1.31 1.64.82.82 1.07 1.26 1.89 1.94 2.71 2.25 6.19 4.02 10.45 3.83 4.68-.2 7.37-3.48 6.87-7.36-.48-3.76-4.28-5.63-6.77-3.88-1.69 1.2-2.29 4.89.7 5.77 1.69.5 3.19-1.64 1.99-2.88m129.56-71.95c2.7-1.46 4.78-1.19 6.32.94 1.67 2.33 1.91 5.41 1.54 7.22-.54 2.69-1.32 3.81-3.46 5.76"/>
<path stroke-linecap="round" d="M380.53 152.03c3.086-2.04 6.427-1.174 8.26 1.543 1.345 1.99 1.688 3.655 1.593 6.12-.162 4.224-2.805 7.572-5.722 9.205"/>
<path d="M395.06 159.15c2.537.198 4.577 2.495 4.577 5.174 0 3.83-1.07 5.493-4.13 9.305-2.637 3.28-10.55 9.05-10.35 14.57.076 2.09 1.836 4.05 3.355 4.16"/>
<path stroke-linecap="round" d="M395.36 202.33c-1.443 1.044-3.284-.643-2.488-2.434.55-1.237 2.19-2.786 4.677-1.095 2.74 1.87 1.99 7.77-3.29 7.87-4.71.09-7.89-6.59-3.39-11.58 4.1-4.55 11.72-3.66 16.5.14 2.03 1.62 6.12 6.06 7 11.89 1.06 7.06.92 15.73-6.36 21.07-2.93 2.15-6.99 3.13-10.57 2.97-4.68-.2-7.37-3.48-6.87-7.36.48-3.76 4.1-5.35 6.77-3.88 2.76 1.53 2.28 5.42-.7 5.77-1.75.21-3.19-1.64-1.99-2.88"/>
<path d="M392.87 199.9c.776-3.49 3.767-3.816 6.18-3.78 6.59.096 11.148 7.912 11.224 15.473.096 9.552-4.054 15.176-11.035 15.475-1.81.078-4.92-.782-4.98-2.985"/>
<path stroke-linecap="square" d="M396.93 198.34c6.95 1.544 9.39 7.805 9.39 13.78 0 4.875-.484 11.535-9.97 13.877"/>
<path d="M408.39 265.33a3.906 3.906 0 1 0-6.264 2.343"/>
<path stroke-linecap="round" d="M394.45 259.41c1.31 1.942 2.892 4.1 6.235 5.913m-1.25 10.55c-3.276-2.15-9.496-4.967-15.12-2.194-2.085 1.03-3.482 2.3-4.27 4.37-1.422 3.73.166 7.85 1.783 9.56.846.89 2.688 2.6 4.976 2.63 3.78.05 4.68-2.6 4.776-3.19.448-2.74-1.145-3.83-1.99-4.13-.65-.23-2.76-.17-3.208 1.32-.15.49-.176 1.36.222 2.01"/>
<path stroke-linecap="round" d="M340.47 328.42c1.045 2.14-.144 3.215-1.593 3.384-2.138.25-3.283-1.443-3.432-2.986-.242-2.5 1.866-4.767 4.38-4.727 2.26.04 4.104 1.5 4.968 3.51.314.73.46 1.54.504 2.37a5.852 5.852 0 0 1-1.422 4.15c-1.28 1.49-3.273 2.39-5.395 2.48-4.224.17-7.513-3.78-7.513-7.81 0-7.71 11.438-11.92 15.972-13 5.57-1.33 8.96-1.83 17.91-2.32 3.58-.2 6.2-.1 10.15-.5 3.53-.36 5.37-.54 9-1.38 4.53-1.06 8.75-2.94 12.54-6.37 2.91-2.64 4.57-4.53 5.92-8.16 1.16-3.13 1.7-9.34-1.25-13.93-2.61-4.06-6.22-6.17-10.35-6.76-3.74-.54-7.01 1.07-8.96 4.77-.95 1.79-.66 4.79.09 6.17.64 1.2 2.49 2.96 4.78 2.99 3.78.05 4.68-2.59 4.77-3.18.44-2.73-1.15-3.83-1.99-4.13-.65-.23-2.76-.17-3.21 1.32-.15.5-.18 1.37.22 2.01"/>
<path stroke-linecap="round" d="M337.22 316.17c-4.85 2.15-8.403 3.76-11.417 8.518-.946 1.494-1.195 3.634-1.195 4.877 0 2.687 1.094 5.723 3.334 7.613 2.076 1.755 4.13 2.29 6.666 2.04 1.925-.188 3.732-1.592 4.03-2.587"/>
<path d="M385.11 224.13c-2.268.757-3.88 4.215-3.88 7.514 0 3.78 1.84 6.12 3.98 7.463"/>
<path stroke-linecap="round" d="M387.6 236.42c-4.08 5.076-6.245 8.088-6.37 14.132-.116 5.672 1.693 9.553 5.076 13.634"/>
<path d="M365.85 152.05c.105-.155.22-.327.35-.517 1.692-2.488 4.68-3.143 6.866-1.493 2.638 1.99 3.304 5.378 2.588 8.957-.448 2.24-1.967 4.104-4.048 5.453"/>
<path stroke-linecap="round" d="M265.1 150.84c-2.587-1.194-4.717-.964-6.32.94-1.84 2.19-1.91 5.41-1.54 7.22.546 2.687 1.323 3.803 3.46 5.752"/>
<path d="M258.58 152.03c-3.086-2.04-6.427-1.174-8.26 1.543-1.344 1.99-1.688 3.655-1.593 6.12.162 4.224 2.806 7.572 5.722 9.205"/>
<path d="M249.68 154.76c-3.346.408-6.016 3.244-6.016 6.678 0 4.428 1.09 6.22 3.58 9.603 2.492 3.39 10.647 9.61 10.647 16.67 0 4.28-1.19 7.02-4.28 8.41-1.99.9-4.31-.07-5.37-1.03-2.59-2.34-1.55-6.44 1.15-6.93 3.29-.6 3.9 4.58.7 4.23"/>
<path d="M244.05 159.15c-2.537.198-5.033 2.38-5.033 5.06 0 3.83 1.526 5.607 4.586 9.418 2.638 3.284 10.088 8.942 9.89 14.465-.076 2.09-1.48 4.642-2.873 4.344"/>
<path stroke-linecap="round" d="M238.08 236.12c1.194-2.886 4.28-1.593 4.47 0 .436 3.668-2.778 4.776-5.067 4.18-1.134-.296-1.963-1.01-2.493-1.94-.598-1.05-.78-2.42-.39-3.728a4.903 4.903 0 0 1 .848-1.652 4.97 4.97 0 0 1 1.28-1.21c.88-.56 1.838-.617 3.342-.617 5.573 0 10.45 6.585 12.087 13.425.54 2.253 1.28 7.278.254 12.042-1.09 5.075-3.28 8.59-5.86 11.254-1.39 1.443-3.29 2.728-5.75 4.12-.76.428-2.76 1.318-4.16 1.716-1.43.41-2.77.44-3.94.09-2.83-.848-4.65-3.493-3.17-6.93 1.15-2.676 5.38-3.98 7.27-.696.16.278.41.885.4 1.542-.01.876-.37 1.93-1 2.33-1.43.914-3.73.655-3.63-1.882"/>
<path d="M233.75 270.39c1.045.402 1.616.348 2.916-.23.534-.236 1.145-.603 1.86-1.01 2.548-1.446 5.573-3.727 8.41-9.05a18.803 18.803 0 0 0 1.71-4.476c.27-1.11.458-2.208.5-3.335.068-1.92-.14-3.93-.618-6.23-.79-3.79-1.744-5.85-4.08-9.06-1.15-1.58-2.14-2.54-4.28-2.59m-9.44 30.91a3.906 3.906 0 1 1 6.264 2.34"/>
<path d="M232.24 261.45c.294-1.772 1.8-3.122 3.615-3.122 2.025 0 3.666 1.68 3.666 3.756a3.793 3.793 0 0 1-1.03 2.615"/>
<path d="M239.37 261.25c3.334-2.388 6.19-6.948 6.22-12.335.022-4.144-1.643-8.36-3.583-10.002"/>
<path stroke-linecap="round" d="M244.67 259.41c-1.308 1.942-2.89 4.1-6.234 5.913"/>
<path d="M254.6 273.68c-.927-2.18-2.77-3.19-5.772-3.51-2.984-.32-5.567.5-8.21 1.922-5.158 2.775-8.034 5.757-9.952 11.29-.486 1.406-.89 3.524-.834 5.774.09 3.586 1 7.506 1.98 9.402.852 1.654 3.084 8.956 15.324 13.996 7.143 2.94 18.112 3.618 25.676 3.916 10.404.41 20.003.797 25.576 7.663"/>
<path stroke-linecap="round" d="M239.68 275.87c3.277-2.15 9.496-4.967 15.12-2.194 2.085 1.03 3.482 2.302 4.27 4.378 1.422 3.737-.166 7.856-1.783 9.567-.846.9-2.688 2.61-4.976 2.64-3.78.05-4.68-2.59-4.77-3.18-.45-2.73 1.15-3.83 1.99-4.13.65-.23 2.76-.17 3.21 1.32.15.5.18 1.37-.22 2.01"/>
<path d="M252.71 285.73c.3-1.095.145-2.244-.845-3.334-.996-1.094-3.633-2.14-5.872-.895-.75.42-1.688.97-2.538 2.09-.32.43-.864 1.12-1.144 1.6-.67 1.16-.95 2.11-1.09 2.49-2.46 7 1.55 14.42 6.57 17.62 4.38 2.79 8.86 3.58 14.38 4.08 2.56.23 4.01.28 6.57.4 2.07.1 3.85.07 5.53.05 1.38-.02 2.69-.01 4.03-.04 2.19-.05 4.45-.1 7.22.1 2.91.21 5.1.29 7.57.7 1.61.27 3.49.53 5.47.97.59.14 1.19.24 1.8.43.41.12.81.25 1.21.37 3.57 1.09 7.03 2.42 9.77 4.18.85.55 1.82 1.07 2.48 1.74.51.51.94.81 1.36 1.22 1.92 1.88 3.87 3.92 4.33 6.68.08.51.08 1.04.08 1.61 0 1.79-1.45 4.23-5.38 5.03"/>
<path d="M298.64 328.42c-1.045 2.14.143 3.215 1.592 3.384 2.14.25 3.283-1.443 3.432-2.986.242-2.5-1.866-4.767-4.38-4.727-2.26.04-4.104 1.5-4.968 3.51-.314.73-.46 1.54-.504 2.37a5.853 5.853 0 0 0 1.423 4.15c1.278 1.49 3.272 2.39 5.394 2.48 4.22.17 7.51-3.78 7.51-7.81 0-7.71-11.44-11.92-15.97-13-5.58-1.33-8.97-1.83-17.92-2.32-3.58-.2-6.21-.1-10.15-.5-3.53-.36-5.38-.54-9.01-1.38-4.54-1.06-8.76-2.94-12.54-6.37-2.91-2.64-4.58-4.53-5.93-8.16-1.17-3.13-1.7-9.34 1.25-13.93 2.6-4.06 6.22-6.17 10.35-6.76 3.73-.54 7 1.07 8.95 4.77.94 1.79.65 4.79-.1 6.17-.65 1.2-2.5 2.96-4.78 2.99-3.79.05-4.68-2.59-4.78-3.18-.45-2.73 1.14-3.83 1.99-4.13.65-.23 2.76-.17 3.2 1.32.15.5.17 1.37-.22 2.01"/>
<path stroke-linecap="round" d="M273.26 152.05c-.104-.155-.22-.327-.35-.517-1.69-2.488-4.68-3.143-6.866-1.493-2.637 1.99-3.303 5.378-2.588 8.957.448 2.24 1.967 4.104 4.048 5.453"/>
<path d="M366.75 159.6c-4.03 4.378-8.06 5.777-14.082 5.97-1.88.062-5.474-.596-7.564-2.084-1.342-.956-2.836-2.593-1.89-5.43.63-1.895 3.677-7.213 3.826-10.896.228-5.625-1.936-8.708-5.32-9.902-6.255-2.208-12.97 3.975-17.016 5.324-2.116.704-3.194.787-5.126.795-1.93-.008-3.048-.09-5.163-.796-4.046-1.35-10.76-7.53-17.017-5.32-3.383 1.2-5.547 4.28-5.32 9.9.15 3.68 3.196 9 3.827 10.9.946 2.84-.548 4.48-1.89 5.43-2.09 1.49-5.683 2.15-7.564 2.09-6.02-.19-10.05-1.59-14.08-5.97"/>
<path stroke-linecap="round" d="M297.33 314.41c.8.31.195-.19 5.246 2.05 4.85 2.15 8.29 4.032 11.304 8.79.946 1.494 1.194 3.633 1.194 4.877 0 .802-.097 1.635-.293 2.46"/>
<path d="M297.66 336.04a7.98 7.98 0 0 0 3.25.825c4.226.17 7.515-3.78 7.515-7.81 0-2.796-1.52-5.15-3.652-7.04"/>
<path stroke-linecap="round" d="M298.57 328.42c-1.02 2.274.433 3.504 1.88 3.672 2.14.25 3.345-1.443 3.495-2.985.162-1.678-.733-3.31-2.098-4.15"/>
<path d="M390.1 154.8c3.21 0 6.01 3.575 6.01 7.243 0 4.227-2.247 6.814-3.894 8.77-1.326 1.576-2.762 2.985-4.47 4.704"/>
<path stroke-linecap="round" d="M386.29 151.41c1.093.507 2.052 1.363 2.782 2.445 1.344 1.99 1.686 3.656 1.593 6.12-.16 4.225-3.2 7.15-5.918 8.934m-4.78-17.5c.222.19.436.4.64.65 1.842 2.19 1.984 5.42 1.543 7.22-.662 2.69-1.553 3.85-3.742 5.47m-5.06-14.45c2.638 1.99 3.422 5.43 2.548 8.97-.624 2.53-2.217 4.05-4.202 5.26m11.12 41.08c.316.92.837 1.24 1.493 1.93 1.426 1.49 3.517 2.78 6.158 3.52 2.44.69 4.64.17 6.318-.88m-163 54.04c1.24-.03 2.476.81 3.284 2.22.16.28.41.88.403 1.54-.01.87-.394 1.81-1.02 2.21-1.437.91-3.99.52-3.882-2.02"/>
<path d="M241.49 231.3c4.93.92 9.677 6.867 11.23 13.354.54 2.252 1.282 7.277.254 12.04-1.095 5.076-3.288 8.59-5.862 11.256a16.494 16.494 0 0 1-2.127 1.827l-1.05.712m-7.92-12.14c2.025 0 3.798 1.94 3.798 4.01a3.793 3.793 0 0 1-1.034 2.61"/>
<path d="M234.64 260.7c2.11 0 4.117 2.033 4.117 4.19a3.9 3.9 0 0 1-1.482 3.062"/>
<path stroke-linecap="round" d="M253.98 239.49c1.937 2.6 3.216 4.84 3.81 7.725m-.07 8.48a17.27 17.27 0 0 1-1.45 4.045c-.814 1.62-2.234 3.423-3.553 4.642"/>
<path d="M254.28 224.33c1.868 1.46 2.994 2.97 3.52 4.78"/>
<path stroke-linecap="round" d="M257.86 219.47c-.49 1.7-1.604 2.99-3.37 4.602m-9.16-17.18l2.157-.568 1.276-.964.823-1.162.71-1.816.283-1.475"/>
<path d="M240.97 199.3c-.68.17-1.543.422-2.447.853-1.212.578-2.5 1.476-3.525 2.93-1.188 1.682-1.88 4.022-2.31 6.07-.187.895-.41 3.732.162 6.662.423 2.163 1.317 4.177 2.305 5.635.355.523.676.975 1.037 1.336 1.293 1.294 2.487 2.09 4.478 1.692"/>
<path stroke-linecap="round" d="M253.04 189.81c-.35 1.285-1.04 2.877-3.055 2.703"/>
<path d="M245.68 198.53c-1.935-1.892-6.035-2.385-10.11.193-.525.333-1.05.76-1.568 1.19-.56.468-1.01 1.005-1.44 1.59-.47.635-1.048 1.715-1.397 2.432-.48.988-.68 1.637-.943 2.65-.745 2.852-.74 5.5-.654 6.257.113.967.205 1.857.364 2.675.54 2.798 1.368 4.76 2.224 6.18.9 1.493 3.14 4.922 7.717 5.374 1.8.18 4.873-.64 4.972-2.98"/>
<path stroke-linecap="round" d="M363.76 157.07c.306-1.653 2.297-1.972 3.045-.996 1.153 1.502.39 4.084-1.953 4.816-.796.25-2.637.15-3.83-1.393-.97-1.25-.895-2.8-.533-4.03.23-.797.87-1.49 1.72-2.14 2.72-2.07 7.11-1.592 8.56 1.89 1.86 4.494-2.19 7.863-5.92 10.4-4.7 3.195-10.05 3.776-14.09 3.732-9.16-.1-16.12-4.48-20.65-6.97-1.06-.58-2.14-.46-2.69.2-.62.74-.61 1.94.25 2.73"/>
<path stroke-linecap="round" d="M365.61 155.52c.97.045 1.23.423 1.528.81 1.152 1.504.31 4.086-2.033 4.818m17.84 51.54c-3.49 3.798-.28 10.315 2.327 11.79.902.7 1.288.33 2.01.75"/>
<path d="M383.12 205.43c-1.144.796-1.548 1.69-1.592 3.244-.036 1.3.19 2.745 1.41 4.015 1.903 1.97 5.624 3.7 9.23 3.74 1.956.02 3.987-.39 6.03-1.75 2.184-1.46 3.334-3.44 3.83-5.38m-20.86 61.79c0 .01-.005 1.53-.134 2.48-.38 2.79-.823 4.4-2.09 6.91-1.236 2.45-2.223 3.74-4.18 5.67-1.974 1.94-3.343 2.84-5.822 4.08-2.413 1.21-3.934 1.59-6.568 2.19-2.632.59-4.17.72-6.867.84-2.472.11-3.874 0-6.343-.17-2.64-.19-4.106-.55-6.744-.79-2.178-.19-3.41-.37-5.595-.36-2.248 0-3.536.02-5.75.41-2.063.36-3.233.65-5.175 1.44-2.686 1.09-5.722 2.98-6.37 3.83-.646-.85-3.68-2.74-6.368-3.83-1.942-.79-3.112-1.08-5.175-1.44-2.213-.39-3.5-.41-5.75-.41-2.186-.01-3.416.17-5.595.36-2.638.23-4.103.6-6.744.78-2.467.17-3.87.27-6.34.16-2.697-.12-4.236-.25-6.868-.85-2.633-.6-4.154-.98-6.568-2.19-2.48-1.24-3.847-2.14-5.822-4.08-1.957-1.93-2.944-3.22-4.18-5.68-1.266-2.52-1.71-4.13-2.09-6.92-.13-.96-.135-2.48-.135-2.49v-101.7h123.24V271.1h.042z"/>
</g>
<g stroke="#c7b37f" fill="#c7b37f">
<path stroke-width=".328" d="M247.94 285.64a2.5 2.5 0 1 1 5 0 2.5 2.5 0 0 1-5 0zm-15.35-17.67c0-1.236.79-2.24 1.765-2.24.976 0 1.767 1.004 1.767 2.24 0 1.237-.79 2.24-1.767 2.24-.975 0-1.766-1.003-1.766-2.24z"/>
<path d="M241.31 223.59c0-1.015.764-1.84 1.706-1.84.94 0 1.705.825 1.705 1.84 0 1.016-.76 1.84-1.7 1.84s-1.7-.824-1.7-1.84zm30.63-65.63c-.107-1.018.504-1.918 1.367-2.008.86-.09 1.648.663 1.755 1.68.108 1.02-.504 1.92-1.366 2.01-.864.09-1.65-.663-1.758-1.682z" stroke="none"/>
</g>
<g stroke="#c7b37f" stroke-width=".632" stroke-linecap="round">
<path d="M239.31 233.95c-.368.16-.57.292-.847.582-.264.277-.32.378-.523.83-.15.332-.188.716-.243 1.19m4.71 26.75c.347-.42.557-.648.89-1.08.278-.36.443-.557.687-.94.22-.345.318-.555.513-.916.273-.508.41-.804.67-1.318m-1.26 13.93c-.592.27-.942.39-1.517.696-.438.232-.675.38-1.095.642a17.4 17.4 0 0 0-1.244.836c-.49.36-.74.595-1.22.975m14.96-37.9c-.32-.33-.49-.523-.82-.846-.34-.33-.53-.53-.89-.84-.35-.3-.58-.43-.95-.71"/>
<path stroke-linecap="butt" d="M254.19 224.94c-.477.212-.726.38-1.22.543-.567.187-.95.284-1.498.31"/>
<path d="M237.44 208.44c.163.58.2.927.418 1.488.276.705.506 1.076.926 1.707.437.657.71 1.02 1.273 1.572.495.485.81.73 1.39 1.11.55.36.906.485 1.487.796m-.98-5.86c.485.26.735.456 1.244.667.46.19.733.27 1.22.383.656.15 1.04.188 1.715.204.73.017.946 0 1.866-.15m7.16-40.65c-.8-.466-1.29-.67-2.05-1.194-.78-.534-1.2-.86-1.87-1.518-.49-.473-.76-.75-1.16-1.294-.36-.48-.5-.8-.82-1.31m7.5-4.56c.25.67.32 1.08.64 1.72.43.87.77 1.33 1.42 2.04.9 1 1.67 1.28 2.74 2.09m1.45-5.92c.25.61.32.98.64 1.55a6.6 6.6 0 0 0 .83 1.22 7.32 7.32 0 0 0 1.34 1.32c.67.53 1.14.69 1.88 1.12"/>
</g>
<path stroke-width=".177" d="M333.3 151.62c-.052-1.695-1.722-1.87-2.362-1.87-1.847 0-2.346 1.15-4.65 2.388-2.888 1.55-4.13 1.895-6.698 1.918-2.567-.023-3.843-.367-6.73-1.918-2.305-1.237-2.693-2.352-4.54-2.352a2.33 2.33 0 0 0-2.248 2.453s-.02.51.06.86c.03.13.19.09.24.2-.025-.77.132-1.17.51-1.69.488-.67 1.297-.84 1.626-.84 1.847 0 2.53 1.18 4.835 2.42 2.887 1.55 4.13 1.89 6.697 1.91 2.566-.02 3.844-.37 6.732-1.92 2.303-1.24 2.965-2.52 4.812-2.52.64 0 1.092.41 1.3 1.06.13.4.058.67.09.83.017.07.112.07.133.15.064-.3.214-.41.192-1.11z" fill="#703d29"/>
</g>
<g fill="#703d29">
<path d="M264.4 294.03c.518-.56.91-.35 1.006-.607.07-.19-.082-.21-.293-.288-.282-.105-.58-.166-.863-.27-.292-.11-.557-.26-.85-.37-.12-.045-.4-.187-.478.025-.148.392 1.024.358.63 1.41-.066.178-.233.562-.815 1.2l-2.65 2.883c-.06.067-.158.21-.22.186-.06-.03-.05-.2-.052-.29l.038-4.09c.004-.78.07-1.35.196-1.69.17-.47.71-.08.83-.38.07-.19.01-.2-.31-.32-.16-.06-.47-.13-1.12-.37-.35-.13-.67-.3-1-.43-.15-.06-.43-.27-.53 0-.03.08.07.19.1.21.37.26.46.44.47.94l.07 7.44c0 .54.06.68.16.72.11.04.18-.01.4-.26l5.25-5.7z"/>
<path d="M267.49 295.18c.34-1.08.98-.43 1.103-.816.044-.137 0-.176-.308-.272-.584-.185-.967-.255-1.336-.372-.36-.113-.75-.285-1.15-.41-.09-.03-.34-.145-.4.05-.13.397 1.13.444.8 1.48l-1.73 5.466c-.34 1.082-.99.553-1.11.952-.02.057-.03.143.07.172.26.084.72.178 1.16.316.8.253 1.16.418 1.54.537.24.075.34.058.38-.067.11-.365-1.2-.203-.76-1.604l1.71-5.432zm3.7 1.1c.204-.687.523-.592.904-.48 1.042.31 1.368 1.327 1.036 2.45-.2.675-.452 1.298-2.018.834-.31-.093-.69-.206-.606-.492l.685-2.313zm-2.837 4.926c-.428 1.443-1.15.818-1.26 1.185-.067.23.16.26.273.3.515.15 1.044.26 1.6.43.433.13.698.26.873.31.23.07.34.03.37-.08.12-.41-1.04-.24-.68-1.47l.58-1.98c.12-.4.08-.5.62-.34.51.16.67.31.75.89l.33 2.07c.12.76.24 1.58 1.05 1.82.41.12 1.17.07 1.27-.28.02-.09-.02-.18-.11-.2-.1-.03-.23.01-.33-.02-.08-.02-.28-.08-.32-.29-.32-1.66-.7-3.58-.68-3.65.03-.11.36-.13.74-.3.38-.18.81-.52 1.02-1.25.15-.53.43-2.2-1.83-2.87-.69-.2-1.41-.37-2.1-.57-.65-.19-.72-.26-1.19-.4-.13-.03-.25-.01-.28.11-.12.41 1.13.32.75 1.61l-1.49 5.04zm8.42 2.46c-.33 1.382-1.378.54-1.487.994-.06.256.12.287.307.333.418.1.774.136 1.474.304s1.034.298 1.452.398c.3.073.5.158.57-.12.08-.326-1.34-.31-1-1.74l1.26-5.247c.13-.557.25-.59.68-.487l.89.22c1.21.24.57 1.45.98 1.55.27.07.26-.41.27-.56l.14-1.09c.01-.12.05-.28-.1-.32-.98-.23-1.69-.35-3.21-.72-1.53-.36-2.22-.58-3.19-.81-.16-.04-.2.13-.24.24l-.54 1.5c-.06.15-.18.39.04.44.47.11.52-1.48 1.7-1.2l.88.21c.42.11.52.19.38.75l-1.3 5.39zm12.7-3.24c.414-.64.836-.502.886-.772.03-.2-.12-.192-.34-.233-.3-.05-.6-.06-.9-.11-.31-.05-.6-.16-.9-.21-.13-.02-.43-.11-.47.11-.08.41 1.07.18.86 1.28-.04.19-.13.6-.6 1.32l-2.11 3.3c-.05.08-.12.24-.19.23-.07-.01-.09-.19-.1-.27l-.68-4.03c-.14-.76-.17-1.34-.1-1.69.09-.49.69-.2.75-.52.03-.2-.02-.19-.36-.26-.17-.03-.49-.04-1.16-.16-.36-.06-.71-.18-1.06-.24-.16-.03-.47-.19-.52.1-.02.08.11.18.14.2.41.2.53.35.63.85l1.36 7.32c.1.53.18.67.29.69.11.02.18-.04.35-.33l4.18-6.52zm.6 6.73c.006.292-.02.384.233.5.59.255 1.082.628 1.73.736 1.387.234 2.538-.65 2.796-2.194.25-1.496-.365-2.12-1.406-2.862-1.304-.933-1.862-1.184-1.73-1.973.132-.788.684-1.155 1.384-1.038 1.823.305 1.615 2.522 1.86 2.563.232.04.288-.097.31-.36l.147-1.598c.026-.274.087-.445-.072-.472-.138-.023-.435.12-.572.098-.318-.053-.686-.587-1.556-.732-1.24-.207-2.253.64-2.48 1.995-.207 1.23.342 1.8 1.178 2.4 1.567 1.12 2.21 1.38 2.042 2.38-.158.94-.89 1.4-1.716 1.26-1.17-.2-1.65-1.38-1.8-2.57-.01-.16-.02-.27-.19-.3-.26-.05-.21.31-.21.48l.06 1.67zm15.82-4.47c.345-.68.78-.585.8-.86.017-.2-.136-.177-.36-.195-.3-.02-.605 0-.905-.02-.31-.02-.607-.09-.918-.12-.128-.01-.436-.07-.454.16-.032.42 1.085.07.997 1.18-.015.19-.07.61-.453 1.38l-1.753 3.51c-.038.08-.094.25-.158.24-.07-.01-.11-.17-.13-.26l-1.09-3.94c-.22-.74-.31-1.31-.28-1.67.04-.5.67-.27.69-.59.01-.2-.04-.19-.38-.22-.18-.01-.49.01-1.18-.04-.37-.03-.73-.1-1.08-.13-.16-.01-.49-.13-.51.15-.01.09.13.17.16.19.43.15.57.3.71.77l2.12 7.14c.15.52.25.65.36.65.11.01.17-.05.32-.35l3.47-6.93z"/>
<path d="M307.58 308.48c-.01 1.218-1.04.994-1.045 1.472-.002.203.213.145.33.146.292 0 .582-.043.926-.04.38.007.74.055 1.27.06.14 0 .41.014.41-.153.01-.56-1.38.24-1.36-2.053l.04-4.06c0-.108.03-.19.09-.19s.12.06.2.156l5.12 6.255c.08.096.13.168.28.17.13 0 .13-.095.14-.358l.06-6.698c.01-1.254.92-.96.93-1.318 0-.04 0-.16-.2-.16-.09 0-.47.04-1.15.04-.74-.01-1.05-.06-1.22-.06-.14 0-.17.12-.17.2 0 .39 1.31.19 1.3 1.28l-.03 3.97c-.01.3-.03.44-.09.44-.07 0-.19-.15-.33-.32l-4.28-5.31c-.19-.23-.06-.31-.4-.32-.57-.01-.85.04-1.13.04-.2 0-.39-.05-.6-.06-.13 0-.18.09-.18.2 0 .57 1.21-.19 1.19 2.1l-.04 4.54zm10.41-5.38c.01-1.134.813-.697.816-1.103 0-.143-.052-.167-.375-.17-.61-.006-.99.04-1.38.036-.37 0-.79-.055-1.21-.058-.09 0-.36-.04-.36.164 0 .41 1.16.09 1.15 1.18l.01 5.73c-.01 1.13-.78.81-.78 1.23 0 .06.02.14.12.14.28 0 .75-.04 1.21-.04.84 0 1.24.05 1.64.06.25 0 .35-.05.35-.18 0-.38-1.2.15-1.19-1.31l.05-5.7zm4.51 5.55c.013 1.42-1.207.858-1.203 1.324.003.263.185.25.38.247.428 0 .782-.05 1.503-.06.72 0 1.075.04 1.504.04.312 0 .527.03.525-.25-.01-.33-1.38.03-1.39-1.44l-.05-5.39c-.01-.57.1-.63.54-.63h.91c1.23-.06.9 1.27 1.33 1.27.28 0 .15-.46.13-.61l-.13-1.09c-.02-.12-.02-.28-.18-.28-1 .01-1.72.06-3.29.08-1.57.01-2.29-.03-3.29-.02-.16 0-.16.17-.17.29l-.16 1.58c-.02.16-.08.42.14.42.48 0 .15-1.56 1.36-1.57l.9-.01c.44 0 .55.06.55.63l.04 5.54zm6.26-2.26c-.193.015-.342.04-.35-.08-.014-.167.04-.303.082-.45l.66-2.172c.042-.135.084-.15.106-.152.053-.007.02 0 .093.088l1.05 2.086c.07.138.14.264.16.43.01.12-.14.12-.33.135l-1.45.114zm1.84.502c.278-.022.34.093.768.993.143.31.235.52.256.782.056.726-.715.655-.688 1 .013.167.15.132.343.117.31-.026.7-.105 1.17-.142.7-.055 1-.03 1.38-.06.29-.024.38-.008.37-.21-.03-.393-.57.117-.98-.7l-3.47-7.06c-.17-.345-.19-.367-.29-.36-.14.012-.18.24-.24.438l-2.34 7.43c-.22.688-.77.66-.75.933.01.154.18.117.33.105.31-.024.62-.097.94-.122.34-.027.67-.006 1.01-.03.22-.02.56.038.54-.212-.03-.32-1.17-.038-1.24-.896-.02-.286.09-.714.15-.958.18-.805.41-.87.59-.885l2.11-.165zm8.3-4.94c-.11-.817-.068-.835 1.222-1.004 2.056-.27 1.407 1.223 1.908 1.157.245-.033.14-.416.11-.57l-.197-1.165c-.015-.107-.104-.215-.243-.197-.938.123-1.667.267-2.423.367-1.63.214-2.404.268-2.84.326-.15.02-.222.126-.208.233.06.47 1.21-.07 1.35 1l.73 5.54c.19 1.44-.71.91-.64 1.45.01.07.08.12.22.1.58-.08 1.02-.19 1.35-.23.47-.06.87-.07 1.27-.12.27-.04.5-.02.46-.26-.04-.32-1.21.13-1.38-1.18l-.23-1.75c-.09-.69-.15-.83.34-.89l.79-.1c1.11-.15.97 1.14 1.31 1.1.25-.04.13-.45.1-.61l-.36-2.1c-.05-.32-.17-.28-.24-.27-.21.03-.1 1.12-1.02 1.24l-.67.09c-.46.06-.47-.02-.54-.53l-.22-1.66zm3.93 2.71c.44 2.383 2.16 3.703 4.285 3.31 3.37-.625 3.482-3.62 3.177-5.265-.46-2.49-2.316-3.712-4.372-3.306-2.52.49-3.568 2.69-3.09 5.26zm1.174-.91c-.315-1.703-.087-3.422 1.692-3.788 1.36-.276 2.9.847 3.38 3.442.363 1.95.063 3.632-1.748 4.004-1.885.386-3.006-1.945-3.324-3.66zm8.34-4.16c-.168-.696.156-.774.543-.867 1.055-.253 1.847.465 2.12 1.603.164.685.258 1.35-1.33 1.732-.314.075-.7.168-.77-.122l-.564-2.345zm.005 5.685c.35 1.463-.59 1.283-.5 1.654.05.23.26.15.38.12.52-.12 1.03-.29 1.59-.43.44-.1.73-.12.91-.17.24-.05.3-.14.28-.25-.1-.42-1.02.31-1.32-.93l-.48-2.01c-.1-.4-.18-.47.37-.6.52-.12.73-.06 1.1.39l1.32 1.63c.48.6.99 1.25 1.82 1.05.42-.1 1.04-.52.96-.88a.157.157 0 0 0-.2-.12c-.11.03-.19.12-.3.15-.09.02-.29.07-.42-.09-1.11-1.28-2.4-2.75-2.42-2.82-.03-.11.25-.29.49-.63.23-.35.43-.85.25-1.6-.13-.53-.73-2.12-3.02-1.57-.7.17-1.4.39-2.1.56-.66.16-.76.13-1.24.25-.13.03-.22.12-.19.23.1.42 1.13-.28 1.45 1.02l1.23 5.11zm8.63-1.93c.35 1.376-.97 1.125-.85 1.576.06.254.24.197.42.15.41-.11.74-.244 1.44-.424.7-.19 1.05-.23 1.47-.34.3-.08.52-.1.44-.38-.09-.33-1.33.35-1.7-1.07l-1.35-5.23c-.15-.56-.06-.64.37-.75l.88-.23c1.18-.36 1.18 1.01 1.6.9.27-.07.04-.5-.02-.63l-.39-1.04c-.04-.12-.08-.28-.24-.24-.97.25-1.66.48-3.18.87-1.52.39-2.23.52-3.19.77-.16.04-.12.2-.1.32l.23 1.57c.01.15.02.42.24.37.46-.12-.24-1.56.94-1.86l.87-.23c.43-.11.54-.08.69.47l1.38 5.37zm5.49-7.34c-.31-1.093.58-.894.48-1.286-.04-.13-.1-.14-.41-.06-.59.17-.95.32-1.33.42-.37.1-.78.17-1.19.28-.1.03-.36.07-.31.26.11.41 1.19-.24 1.48.81l1.53 5.53c.3 1.1-.53 1-.42 1.41.01.06.06.14.15.11.27-.07.7-.24 1.14-.36.81-.22 1.2-.28 1.59-.39.24-.06.32-.14.28-.26-.1-.36-1.12.49-1.51-.93l-1.52-5.49zm2.3 2.67c.77 2.298 2.65 3.367 4.7 2.68 3.25-1.086 2.94-4.07 2.41-5.654-.81-2.4-2.81-3.353-4.79-2.666-2.43.838-3.16 3.16-2.33 5.64zm1.03-1.065c-.55-1.642-.57-3.375 1.15-3.986 1.31-.46 2.99.436 3.83 2.94.63 1.88.56 3.587-1.18 4.208-1.82.644-3.25-1.508-3.8-3.16zm7.62-5.42c-.26-.666.05-.788.42-.934 1.01-.398 1.89.204 2.32 1.292.26.656.44 1.302-1.08 1.9-.3.12-.67.264-.78-.014l-.89-2.244zm.79 5.63c.55 1.398-.41 1.35-.27 1.706.09.223.28.107.39.063.5-.19.98-.43 1.52-.65.42-.16.71-.22.87-.29.23-.09.28-.19.24-.29-.16-.4-.97.45-1.44-.74l-.76-1.92c-.16-.39-.25-.44.28-.65.5-.19.72-.16 1.14.23l1.53 1.43c.56.53 1.16 1.1 1.95.79.4-.15.96-.66.83-1a.156.156 0 0 0-.21-.09c-.1.04-.18.15-.28.19-.08.03-.27.11-.43-.03-1.27-1.11-2.76-2.39-2.78-2.46-.05-.11.2-.32.39-.69.18-.38.31-.9.03-1.62-.2-.51-1.01-2-3.2-1.13-.67.27-1.34.58-2.01.84-.63.25-.73.24-1.19.42-.12.05-.2.15-.16.26.16.4 1.09-.44 1.58.81l1.93 4.89z"/>
</g>
<g transform="matrix(.64 0 0 .64 0 16)" fill="#fedf00">
<path d="M412.66 249.25h82.18v82.023h-82.18z" fill="#d52b1e"/>
<path id="a" fill="#fff" d="M451.2 313.83s-.048 2.93-.855 5.287c-.933 2.72-.94 2.72-1.796 4.043-1.16 1.78-2.56 3.082-3.81 3.887-1.96 1.258-3.95 1.888-5.95 1.71-5.49-.486-8.04-6.44-9.29-11.273-1.32-5.13-5.08-7.923-7.47-6.064-1.4 1.09-1.48 2.914-.31 4.665 1.24 1.866 4.1 2.8 4.1 2.8l-2.94 3.73s-6.31-.82-7.54-7.392c-.47-2.488.74-7.134 4.89-8.522 5.3-1.77 8.69 2.01 10.32 5.2 2.24 4.39 3.21 12.44 9.43 11.19 3.38-.67 4.97-5.6 4.97-7.85l2.46-2.64 3.65 1.17.1.08z"/>
<use width="100%" xlink:href="#a" transform="matrix(-1 0 0 1 907.52 0)" height="100%"/>
<path d="M461.12 278.95l10.76-11.643s1.624-1.31 1.61-3.4l-2.22.344-.496-1.14-.11-1.14 2.98-.63c.05-.48.008-.85.093-1.38.08-.49.19-.76.31-1.24l-3.264.22c.166-.57.128-.87.31-1.4.155-.44.198-.61.504-1.1.606-.09 1.158-.23 1.907-.3.728-.07 1.143-.04 1.873-.08 1.78-3.32 9.19-6.37 14.454-.9 3.81 3.96 2.99 11.22-1.95 13.14-2.79 1.09-5.05.45-6.86-1.11l1.97-3.86c2.72 1.63 4.98-.39 4.82-2.49-.19-2.65-1.92-4.3-4.35-4.51-2.25-.2-3.87 1.09-4.9 3.11-.62 1.23-.33 2.13-.54 3.5-.22 1.48-.1 2.31-.53 3.81-.32 1.09-1.15 2.43-2.37 3.59l-11.03 11.94-42.94 46.44-3.23-2.98L461.13 279z"/>
<path d="M429.51 283.04s2.7 13.372 11.874 33.43c4.665-1.71 7.42-2.798 12.362-2.798 4.943 0 7.697.933 12.362 2.8 9.174-20.06 11.874-33.432 11.874-33.432l-24.236-31.177-24.236 31.177z" fill="#fff"/>
<path d="M456.12 262.41l16.82 21.637s-2.243 10.52-9.078 26.354c-2.646-.6-4.916-1.12-7.733-1.31l-.01-46.67zm-4.74 0l-16.82 21.637s2.243 10.52 9.078 26.354c2.646-.6 4.916-1.12 7.733-1.31l.01-46.67z"/>
</g>
<g fill="#d52b1e">
<path d="M322.3 175.52h52.6v52.495h-52.596z" fill="#fedf00"/>
<path d="M329.67 175.52h7.842v52.495h-7.842zm15.03 0h7.842v52.495H344.7zm15.02 0h7.842v52.495h-7.842z"/>
</g>
<g stroke="#d52b1e" stroke-width=".328" fill="#d52b1e">
<path d="M264.3 273.54c.15.946.487 2.568 1.385 4.23.945 1.493.597 1.452 2.737 3.84 1.053 1.176 2.696 2.183 3.985 2.877 1.294.696 2.25 1.038 4.38 1.596 4.17 1.095 7.097 1.163 10.606 1.023 2.738-.11 4.828-.447 6.56-.68 2.468-.332 4.307-.53 7.115-.647a40.233 40.233 0 0 1 3.93 0c1.54.08 3.06.32 4.678.64 3.483.69 7.016 2.04 7.016 2.04l.01-54.82-52.605-.02v37.47s.108 1.83.204 2.44z" fill="#fedf00" stroke="none"/>
<path d="M270.41 283.16l2.466 1.435 3.378 1.215-.004-52.177h-5.84zm29.22 2.37l.006-51.904h-5.852v52.734s4.005-.514 5.844-.633zm11.67-51.9h-5.832v52.084c1.9.205 3.855.545 5.844 1.077l-.012-53.16zm-23.35 0v53.332c-.06.006-3.906.202-5.872-.002v-53.32z"/>
</g>
<g transform="matrix(.64 0 0 .64 0 16)">
<path d="M585.48 402.39c-.233 1.477-.76 4.012-2.163 6.608-1.477 2.333-.932 2.27-4.275 6-1.646 1.838-4.214 3.412-6.228 4.496-2.02 1.09-3.516 1.623-6.84 2.495-6.52 1.71-11.092 1.81-16.575 1.59-4.28-.17-7.55-.7-10.25-1.06-3.86-.52-6.73-.83-11.12-1.01-2.14-.09-4.15-.11-6.14 0-2.41.13-4.79.5-7.31 1.01-5.44 1.09-11.04 3.19-11.04 3.19l.05-85.66 82.19-.03v58.54s-.17 2.86-.32 3.81z" fill="#fedf00"/>
<g id="b">
<path d="M524.62 346.91s-.366.175-.594.28c-.298.33-.447.52-.78.814-.444.39-.77.503-1.25.843-.23.164-.42.216-.595.438-.25.32-.07.63-.25 1-.18.405-.36.597-.65.938-.36.434-.65.61-1.06 1-.42.395-.58.726-1.09 1-.13.072-.2.142-.34.187-.21.067-.35-.01-.56.062-.39.134-.51.563-.78.72.11.217.11.37.22.593.16.323.71 1.215.82 1.437.21.305.27.7.54.78.54.17.86.155 1.31.126.79.182 1.28.158 2.03.47.62.253.87.574 1.47.843.48.21.77.34 1.28.44.39.08.61.13 1 .1.25-.02.38-.12.63-.15.05-.01.08 0 .13 0l-.03.38s.01.03 0 .03v.06h.06l2.06.91a1.72 1.72 0 0 0-.18.38c-.09.32-.11.69-.06.85.63 1.89 1.16 3.07 1.47 3.19.62.24.81.87 1.16 1.5-.12.14-.22.2-.34.32-.61.59-1.15 1.01-1.65 1.81-.75 1.19-1.25 1.21-.31 2.78.55.93.82 1.1 1.53 2.41.36.66.56 1.17.78 1.97a7.77 7.77 0 0 1 .31 1.97l.97.38.66-.65.63-1.18.03-.9c-.24-.2-.31-.47-.25-.78.07-.37.51-.29.72-.62.28-.46-.33-.73-.66-1.09-.6-.67-1.43-.84-1.62-1.85-.05-.27.08-.42.38-.72.86-.84 1.13-.97 1.97-1.81.24.14.61.19.97.13.28-.06.53.12 1.41.37.61.18.87.09 1.22.03l.37-.09c.05.21.11.42.13.69.05 1.06-.16 3 .15 3.5.13.22.19.33.28.57.1.24.21.39.22.65.01.7.05 1.14 0 1.88-.04.69-.1 1.04-.22 1.75-.07.45-.16.72-.44 1.06-.28.37-.59.42-.97.69l-.09 1 1.12.47 1.28.31.69-.28c0-.25.04-.4.16-.62.13-.25.23-.44.47-.53.36-.14.76.13.91-.09.16-.24.06-.33.03-.75-.04-.66-.18-.99-.28-1.65-.16-1.11-.21-1.69-.15-2.75.03-.62.04-.96.15-1.56.17-.88.48-1.31.69-2.18.23-.98.27-1.61.38-2.47 3.17.45 5.81.4 9.35-.37.17-.03.75-.25.75-.25.8.69 1.7 1.27 2.72 1.63 0 .1-.01.85 0 .97.04.29-.04.48.13.72.1.15.19.24.37.28.26.06.45.02.66-.16.23-.2.19-.45.25-.75.03-.14.01-.56 0-.68.37.06.49.07.88.07.36 0 .53.02.88-.03.01.08.02.37.03.47.03.24-.07.43.03.65.11.23.25.36.5.41a.66.66 0 0 0 .53-.09c.3-.18.27-.49.32-.84a8.56 8.56 0 0 0 0-.78c.21-.07.83-.29 1.03-.38a5.12 5.12 0 0 1-.09.81c-.07.38-.12.58-.25.94-.2.57-.44.86-.75 1.38-.37.64-.57.99-1.03 1.56-.21.27-.36.39-.56.66-.26.34-.34.57-.59.91-.33.44-.51.73-.94 1.06-.7.55-1.15.11-2.1.85l-.22 1.03 1.44.53 1.28.25.43-.25c-.01-.3.03-.52.22-.75.21-.27.44-.35.78-.41.36-.06.75.04 1.03-.22.35-.31.35-.91.63-1.47.86-1.72 1.62-2.56 3-3.9.62-.6 1.14-.76 1.66-1.44.25-.32.52-.47.53-.87.01-.29-.14-.42-.22-.69-.1-.38-.18-1-.18-1 1.52.74.97.64 1.25 1.4.23.61-.03 1.04.06 1.69.12.75.47 1.11.54 1.87.08.9-.14 1.42-.31 2.31-.15.78-.13 1.28-.47 2-.32.69-.57 1.08-1.16 1.56-.21.18-.37.25-.59.41l-.13 1.03 1.12.38 1.62.44.38-.35c.16-.65-.06-1.62.4-1.69.41-.06.69 0 .78-.31.04-.13.06-.32.09-.62.22-1.89.42-3.65.63-4.5.23-.97.21-1.18.41-1.91.17-.67-.09-.28.4-1.69.74-2.1-.21-2.38-1.06-3.66-.46-.7-.62-.95-.68-1.5-.1-.82.16-1.5.12-2.75a43.38 43.38 0 0 1 0-2.88c.11-.05.22-.12.34-.18 1.17-.64 1.64-.84 2.38-2.47a3.43 3.43 0 0 0 .31-1.47c0-.33-.06-.65-.09-1.03-.03-.4-.19-.63-.31-.93-.13-.32-.32-.56-.56-.84-.78-.92-1.78-1.13-2.72-1.47-1.49-.53-2.51-.43-4.13-.56-1.67-.13-2.61-.16-4.28-.06-2 .12-3.13.52-5.12.75-1.91.23-2.97.37-4.9.41-2.26.04-4.42-.46-5.78-.34-2.45.21-2.5.76-6.19 1.06a66.916 66.916 0 0 1-3.85.19l-2.16-.69c.86-.31 1.07-.49 1.47-1.03.27-.37.23-.68.56-1.06.27-.31.44-.62.78-.97a2.2 2.2 0 0 0-.94-.44c-.37-.07-.58-.04-.94 0-.49.06-.77.13-1.22.35-.36.18-.62.36-.84.59 0 0-1.28-.83-2.182-1.22-1.12-.48-1.6-.71-3-.9zm1.97 11.906h.06c-.01.01-.018.022-.03.03l-.03-.03z" fill="#d52b1e"/>
<g stroke="#fedf00" stroke-width=".987" stroke-linecap="round" fill="none">
<path d="M568.77 359.52l-.763.244c-.867.402-1.578.418-2.6.496-2.644.202-4.272-1.057-6.998-.847-1.41.108-2.03 1.19-3.46 1.548a9.247 9.247 0 0 1-1.71.29l.51-1.03s-1.29.26-2.12.27a7.55 7.55 0 0 1-1.53-.13l1.02-.95s-.82-.13-1.3-.33a3.918 3.918 0 0 1-1.06-.63 20.484 20.484 0 0 0 1.69-.35c1.55-.38 2.04-1.14 3.89-1.32 1.15-.11 3.03-.05 7.64.72 3.03.5 4.38.27 5.53-.26.76-.34 1.01-1.01 1.1-1.79.09-.77-.41-1.4-.88-1.81-.12-.1-.45-.33-1.11-.36"/>
<path stroke-width=".513" stroke-linecap="butt" d="M524.8 350.61c-.53-.066-.884.01-1.34.29-.48.298-.54.7-.888 1.145.445.1.7.36 1.142.253.347-.084.527-.238.76-.507.317-.36.433-.67.43-1.15l-.104-.02z" fill="#fcd900"/>
<path d="M536.04 363.79s.264.48.407.8c.248.554.376.878.524 1.467.2.8.12 1.284.25 2.098.02.143.05.263.08.376l-.05 1.13m6.8-6.95s-.22.82-.35 1.34c-.35 1.36-.67 2.09-.94 3.46a9.84 9.84 0 0 0-.1.65m-10.86-3.97c.79.18.55 3.36 1.79 4.09"/>
<path stroke-linecap="butt" d="M560.12 369.78l.384-.25a8.154 8.154 0 0 0 2.686-1.79"/>
<path d="M552.38 368.02h.007c3.533-.883 5.885-2.648 7.58-2.87"/>
<path d="M555.97 363.61c.3-.01.585-.033.83-.068 1.467-.21 1.703.687 2.725 1.258 1.857 1.04 2.098 2.307 4.3 3.356.116.055.223.107.32.155l.848.43"/>
<path stroke-width=".513" stroke-linecap="butt" d="M517.7 354.53c.268.067.432.08.707.054.332-.03.484-.238.817-.25.27-.01.462-.03.684.126.14.1.2.19.28.342.087.166.163.282.124.466-.06.284-.324.418-.614.42-.237 0-.434-.062-.544-.272a.467.467 0 0 1-.04-.39c-.283.108-.49.112-.776.017a1.04 1.04 0 0 1-.638-.513z" fill="#fcd900"/>
</g>
<path d="M525.13 364.17c-.797-.237-1.966-.826-1.966-.826.323-.25.587-.265.863-.555.39-.41.373-.79.593-1.32.215-.52.184-.96.67-1.35.29-.23.763-.27 1.12-.17.352.11.758.4.847.76.137.56-.16.88-.246 1.45-.08.57-.29.89-.19 1.46.07.37.23.52.36.91 0 0-1.26-.15-2.04-.38zm-.99.95a.628.628 0 1 1 .64.618.627.627 0 0 1-.64-.618zm-1.76-16.51s-.09-.06-.144-.104c-.383-.31-.42-.653-.6-1.11-.173-.434-.258-.69-.316-1.154-.05-.406 0-.64 0-1.048 0-.37.04-.578 0-.944-.04-.375-.03-.612-.21-.944-.097-.18-.394-.337-.314-.42.094-.096.257-.02.42 0 .4.05.63.166.943.42.37.306.52.57.67 1.05.16.547.25.897.4 1.467.08.295.13.47.28.734.16.275.32.383.52.63l-.01.022c-.3.32-.45.53-.78.83-.31.27-.56.4-.85.57l-.03-.01zm3.6 10.64l2.23 1.03c1.15-.634 2.474-1.923 3.497-3.918.88-1.718 1.02-2.65 1.364-4.313l-1.78-.59-.35.07c-.55 1.72-.69 2.7-1.62 4.19-.8 1.29-1.72 2.3-2.65 3.03l-.67.48zm4.94 18.12c.36-.493.513-.81.922-1.264.456-.505.8-.702 1.312-1.15.155.015.335-.012.48.07-.027.546-.055.95-.18 1.542-.1.48-.186.746-.346 1.21-.135.388-.16.64-.39.98-.154.225-.29.315-.476.517-.51-.742-1.33-1.297-1.322-1.906zm33.01 1.85c.573.21.92.27 1.47.538.61.3.894.576 1.466.944.027.154.104.32.063.483-.54.122-.93.207-1.53.25a8.39 8.39 0 0 1-1.26 0c-.41-.022-.66.025-1.05-.104-.26-.08-.39-.19-.63-.31.57-.69.88-1.63 1.47-1.79zm-9.76-2.04c.573.21.92.27 1.468.538.61.3.896.576 1.468.944.027.154.104.32.063.482-.54.123-.93.208-1.54.252-.49.036-.77.027-1.26 0-.41-.023-.66.024-1.05-.105-.26-.08-.39-.19-.63-.31.57-.69.88-1.63 1.47-1.79zm-17.34 2.13c.573.21.92.27 1.47.538.61.3.894.576 1.467.944.026.154.103.32.063.483-.532.122-.928.207-1.53.25-.49.037-.77.028-1.26 0-.41-.02-.658.025-1.048-.104-.26-.08-.384-.19-.63-.31.573-.69.88-1.63 1.468-1.79zm-8.98-29.8c-.613-.278-1.05-1.045-.66-1.594.155-.22.412-.174.565-.395.19-.27.142-.5.136-.83 0-.37-.14-.57-.2-.94-.07-.4-.14-.63-.13-1.05.01-.62-.04-1.07.35-1.57.25-.32.66-.59.83-.61.15.14-.05.5-.03.82.04.46.13.72.29 1.16.2.57.48.81.71 1.37.21.52.4.81.42 1.37.01.46-.03.74-.21 1.16-.17.37-.3.58-.61.84a1.9 1.9 0 0 1-.8.42 1.15 1.15 0 0 1-.62-.11z" fill="#0065bd"/>
</g>
<use y="36.591" width="100%" xlink:href="#b" height="100%"/>
</g>
<path stroke-width=".51" d="M264.1 175.52h52.595v52.495H264.1zm58.2 0h52.6v52.495h-52.596zm-58 98.02c.15.946.487 2.568 1.385 4.23.945 1.493.597 1.452 2.737 3.84 1.053 1.176 2.696 2.183 3.985 2.877 1.294.696 2.25 1.038 4.38 1.596 4.17 1.095 7.097 1.163 10.606 1.023 2.738-.11 4.828-.447 6.56-.68 2.468-.332 4.307-.53 7.115-.647a40.233 40.233 0 0 1 3.93 0c1.54.08 3.06.32 4.678.64 3.483.69 7.016 2.04 7.016 2.04l.01-54.82-52.605-.02v37.47s.108 1.83.204 2.44zm110.41-.01c-.15.945-.486 2.567-1.384 4.23-.945 1.492-.597 1.45-2.736 3.84-1.054 1.175-2.697 2.182-3.986 2.876-1.293.697-2.25 1.04-4.377 1.597-4.172 1.095-7.1 1.163-10.608 1.023-2.74-.11-4.83-.446-6.56-.68-2.47-.33-4.31-.53-7.12-.646-1.37-.057-2.66-.07-3.93 0-1.54.085-3.06.323-4.68.647-3.49.697-7.06 2.04-7.06 2.04l.03-54.82 52.6-.014v37.468s-.11 1.83-.21 2.44z" stroke="#703d29" fill="none"/>
</svg>
