<svg id="andorra_flag" viewBox="0 0 640 480" xmlns="http://www.w3.org/2000/svg" xmlns:xlink="http://www.w3.org/1999/xlink">
<path d="m0 0h640v480h-640z" fill="#d0103a"/>
<path d="m0 0h435.2v480h-435.2z" fill="#fedf00"/>
<path d="m0 0h204.8v480h-204.8z" fill="#0018a8"/>
<path d="m300.4 136.63c7.712 0 10.866 6.617 18.578 6.617 4.76 0 7.538-1.555 11.687-3.896 2.895-1.64 4.743-2.514 8.068-2.514 3.404 0 5.49 1.03 7.232 3.947 0.984 1.652 1.8 4.883 1.368 6.737-0.82 3.516-1.325 5.044-2.727 8.29-0.668 1.56-1.298 2.495-1.298 4.202 0 4.093 5.57 5.5 9.358 5.558 0.826 0.013 7.77 0.127 12.042-4.2-2.32-0.1-4.913-1.896-4.913-4.214 0-2.624 1.844-4.4 4.343-5.157 0.475-0.136 1.284 0.284 1.714 0.057 0.61-0.316 0.323-1.003 0.866-1.433 1.244-0.994 2.053-1.615 3.647-1.615 1.04 0 1.65 0.146 2.487 0.746 0.44 0.317 0.603 0.71 1.146 0.71 1.142 0 1.708-0.725 2.85-0.725 0.927 0 1.493 0.125 2.307 0.543 0.678 0.35 0.663 1.503 1.432 1.503 0.385 0 2.42-0.828 3.48-0.828 2.207 0 3.384 0.8 4.81 2.472 0.384 0.453 0.63 1.368 1.02 1.368 0.788 0 2.602 0.507 3.733 1.638 0.486 0.486 0.702 0.716 1.075 1.304 0.26 0.42 0.66 1.44 1.12 1.617 0.538 0.208 0.99 0.168 1.698 0.623 1.618 1.036 2.86 2.983 2.803 4.87-0.02 0.633-0.31 1.516-0.48 2.12-1.883 6.58-6.363 8.67-10.886 14.323-1.923 2.41-3.44 4.33-3.44 7.418 0 0.747 0.92 2.114 1.326 2.736-0.248-1.45 0.415-3.233 1.948-3.316 2.1-0.113 3.724 1.484 4.007 3.564 0.056 0.487-0.125 1.327-0.332 1.824 1.13-0.746 2.62-1.25 3.978-1.41 0.736-0.078 1.16-0.1 1.907-0.082 3.357 0.083 7.062 1.97 9.31 3.88 6.88 5.844 7.71 14.396 7.336 16.77-0.835 5.278-0.31 14.828-13.8 18.636 2.496 1.05 4.193 2.927 4.193 5.234 0 2.51-1.924 4.66-4.434 4.66-1.436 0-2.432-0.352-3.438-1.358-2.805 2.804-3.347 5.665-3.347 9.634 0 2.375 0.453 3.777 1.448 5.926 1.052 2.273 1.81 3.607 3.71 5.247 1.006-1.516 2.07-2.625 3.89-2.625 1.764 0 3.257 0.566 3.98 2.172 0.215 0.486 0.023 0.882 0.272 1.357 0.316 0.61 0.848 0.746 1.176 1.357 0.51 0.94 0.01 1.742 0.452 2.715 0.283 0.633 0.905 0.724 1.176 1.357 0.43 0.972 0.543 1.64 0.543 2.714 0 3.008-2.737 5.157-5.745 5.157-0.905 0-1.402-0.362-2.307-0.272 1.72 1.72 3.03 2.466 4.343 4.525 1.9 2.974 2.375 5.09 2.804 8.594 0.08 0.655 0.09 1.05 0.09 1.718 0 4.5-0.7 7.193-2.713 11.218-1.924 3.856-3.563 5.994-7.058 8.504-5.45 3.924-9.42 5.055-16.013 6.333-4.23 0.814-6.65 1.176-10.948 1.447-5.496 0.35-8.628 0.362-14.113 0.724-7.193 0.486-12.18 1.504-17.28 6.604 2.408 1.764 4.07 3.494 4.07 6.47 0 3.052-1.888 5.234-4.794 6.196-0.68 0.226-1.176 0.022-1.81 0.362-0.757 0.395-0.723 1.266-1.447 1.718-1.28 0.815-2.274 0.996-3.8 0.996-2.692 0-4.524-0.634-6.424-2.534-2.206 1.832-2.952 3.484-5.43 4.886-0.813 0.452-1.23 1.085-2.17 1.085-1.48 0-2.16-0.938-3.347-1.81-1.89-1.38-2.896-2.295-4.434-4.07-2.25 1.346-3.63 2.443-6.243 2.443-1.606 0-2.623-0.227-3.98-1.086-0.713-0.44-0.826-1.097-1.538-1.538-0.747-0.464-1.37-0.294-2.172-0.633-3.02-1.3-4.976-3.54-4.976-6.83 0-2.884 1.82-4.716 4.433-5.926-5.01-5.01-9.94-5.88-17.008-6.333-5.462-0.35-8.572-0.362-14.023-0.724-4.332-0.294-6.74-0.735-11.04-1.447-3.244-0.532-5.167-0.7-8.14-2.08-10.235-4.773-16.76-11.32-18.095-22.528-0.113-0.96-0.09-1.515-0.09-2.488 0-5.835 2.295-9.397 6.423-13.525-1.063-0.25-1.775 0.102-2.805-0.27-2.578-0.94-4.433-2.727-4.433-5.475 0-1.017 0.046-1.696 0.543-2.578 0.35-0.623 1.018-0.747 1.176-1.448 0.203-0.928-0.07-1.584 0.36-2.443 0.284-0.578 0.815-0.69 1.087-1.268 0.893-1.854 2.013-3.347 4.07-3.347 1.765 0 2.896 0.927 3.8 2.443 1.72-0.792 2.194-2.08 3.167-3.71 1.617-2.702 2.352-4.59 2.352-7.734 0-2.194-0.215-3.484-0.904-5.564-0.498-1.493-0.702-2.51-1.81-3.62-1.006 1.007-2.002 1.358-3.438 1.358-2.872 0-5.066-2.465-5.066-5.338 0-2.137 1.052-3.72 2.986-4.614-1.55-1.334-2.895-1.447-4.614-2.533-2.613-1.65-3.53-3.392-5.248-5.97-1.12-1.686-1.413-2.862-1.99-4.795-0.69-2.33-1.086-3.72-1.086-6.152 0-0.633 0.012-1.007 0.09-1.63 0.645-4.907 1.528-7.983 4.615-11.85 1.833-2.296 3.077-3.71 5.79-4.885 2.308-0.995 3.687-1.72 6.198-1.72 0.758 0 1.2 0 1.945 0.092 1.154 0.147 1.89 0.25 2.895 0.814 0.385 0.215 1.086 0.86 1.086 0.407 0-0.52-0.272-0.79-0.272-1.31 0-2.082 1.493-3.982 3.574-3.982 1.504 0 2.115 1.324 2.85 2.625 0.475-0.792 0.723-1.335 0.723-2.262 0-3.438-1.844-5.19-3.98-7.87-4.66-5.825-10.496-8.55-10.496-16.014 0-2.228 1.075-3.744 2.986-4.886 0.554-0.328 1.3 0 1.842-0.347 0.463-0.294 0.41-0.893 0.704-1.368 0.464-0.736 0.874-1.052 1.52-1.617 1.062-0.927 1.995-0.65 3.17-1.464 0.59-0.408 0.728-0.937 1.18-1.48 1.312-1.583 2.49-2.347 4.56-2.347 1.04 0 1.623 0.006 2.585 0.388 0.328 0.126 0.94 0.62 1.02 0.525 0.208-0.25 0.77-0.844 1.437-1.16 0.87-0.42 1.224-0.58 2.196-0.58 1.108 0 1.835 0.62 2.943 0.62 0.407 0 0.5-0.406 0.83-0.62 0.983-0.668 1.55-1.045 2.748-1.045 1.153 0 1.79 0.38 2.763 1.003 0.916 0.576 1.048 1.35 1.986 1.892 0.52 0.305 0.96 0.17 1.538 0.362 2.58 0.86 4.525 2.578 4.525 5.292 0 1.47-0.35 2.52-1.448 3.482-0.87 0.77-1.696 0.633-2.804 0.995 3.596 2.872 6.725 3.585 11.316 3.585 4.206 0 9.35-1.72 9.35-5.926 0-1.957-1.08-3.008-1.85-4.806-1.38-3.2-2.128-5.083-2.128-8.566 0-2.76 0.3-4.433 1.907-6.672 1.65-2.307 3.667-2.845 6.505-2.845z" fill="#c7b37f"/>
<g stroke="#703d29" fill="none">
<path stroke-linejoin="round" stroke-width=".66624" d="m272.38 159.01c0.276 1.045 1.12 2.023 2.444 2.437 0.796 0.25 2.638 0.15 3.832-1.393 0.968-1.25 0.894-2.8 0.532-4.03-0.234-0.796-0.877-1.565-1.726-2.22l-5.08 5.157-0.002 0.05z"/>
<path stroke-width=".66368" stroke-linecap="round" d="m401.03 236.12c-1.194-2.886-4.28-1.593-4.47 0-0.436 3.668 2.78 4.776 5.068 4.18 1.133-0.296 1.963-1.01 2.493-1.94 0.6-1.05 0.78-2.42 0.39-3.728a4.9 4.9 0 0 0 -0.847 -1.652 4.973 4.973 0 0 0 -1.28 -1.21c-0.88-0.56-1.84-0.617-3.343-0.617-5.573 0-10.45 6.585-12.087 13.425-0.54 2.253-1.28 7.278-0.253 12.042 1.094 5.075 3.288 8.59 5.862 11.254 1.393 1.443 3.293 2.728 5.753 4.12 0.76 0.428 2.765 1.318 4.158 1.716 1.43 0.41 2.752 0.35 3.942 0.09 3.302-0.716 4.837-3.787 3.174-6.93-1.363-2.573-5.375-3.98-7.266-0.696-0.16 0.278-0.41 0.885-0.402 1.542 0.01 0.876 0.374 1.93 1 2.33 1.436 0.914 3.736 0.655 3.63-1.882"/>
<path stroke-width=".81664" d="m383.8 273.96c1.118-1.316 3.684-3.29 6.62-3.65 2.978-0.366 5.566 0.5 8.21 1.923 5.157 2.774 8.034 5.756 9.95 11.29 0.487 1.405 0.89 3.523 0.835 5.773-0.09 3.588-1 7.51-1.98 9.404-0.852 1.654-3.084 8.956-15.324 13.996-7.143 2.94-18.112 3.618-25.676 3.917-10.404 0.41-20.002 0.796-25.576 7.663"/>
<g stroke-width=".71744">
<path d="m386.4 285.73c-0.298-1.095-0.022-2.144 0.846-3.334 1.16-1.59 3.632-2.14 5.872-0.895 0.75 0.415 1.688 0.963 2.537 2.088 0.32 0.426 0.864 1.113 1.145 1.593 0.677 1.16 0.956 2.108 1.09 2.49 2.46 6.993-1.45 14.572-6.564 17.613-3.972 2.362-8.71 3.415-14.38 4.08-2.55 0.3-4.004 0.28-6.568 0.398-2.063 0.097-3.845 0.062-5.523 0.042-1.38-0.017-2.69-0.01-4.03-0.04-2.186-0.052-4.448-0.103-7.216 0.1-2.913 0.21-5.103 0.285-7.564 0.695-1.608 0.268-3.492 0.527-5.467 0.97-0.594 0.133-1.195 0.24-1.8 0.423l-1.203 0.368c-3.566 1.088-7.03 2.413-9.765 4.174-0.844 0.544-1.798 1.088-2.48 1.733-0.426 0.4-0.943 0.804-1.36 1.214-1.914 1.882-3.87 3.92-4.328 6.68-0.084 0.51-0.084 1.042-0.084 1.604 0 1.79 1.457 4.23 5.388 5.026m5.53-170.12c0.822 1.488 1.275 2.393 0.796 3.93-0.542 1.744-1.778 2.788-3.533 2.788-3.98 0-6.322-4.713-4.528-7.713 3.185-5.324 9.305-2.334 14.977 0.303-0.274-1.365-0.752-1.81-0.702-3.5 0.124-4.202 3.24-6.108 4.483-9.988 0.742-2.312 1.037-4.32-0.655-5.962-1.477-1.434-3.188-1.412-5.116-0.656-3.852 1.51-8.478 5.848-16.622 5.968-8.143-0.12-12.808-4.46-16.66-5.968-1.926-0.756-3.638-0.778-5.115 0.656-1.692 1.642-1.397 3.65-0.656 5.962 1.244 3.88 4.36 5.786 4.483 9.987 0.05 1.692-0.428 2.136-0.7 3.5 5.67-2.636 12.03-5.894 14.976-0.302 1.642 3.116-0.547 7.713-4.528 7.713-1.755 0-2.987-1.12-3.533-2.787-0.486-1.485 0-2.785 0.796-3.93"/>
<path stroke-linecap="round" d="m314.56 159.87c1.538 1.176 2.624 2.623 2.443 4.975-0.197 2.553-0.815 3.168-2.805 4.525m2.4-3.8c-0.09 1.538-0.723 2.533-2.26 3.166"/>
</g>
<path stroke="none" stroke-width=".64" d="m276.74 153.27l0.697 0.497 0.746 0.797 0.496 0.996 0.25 0.846 0.05 1.093-0.05 0.746-0.25 0.845-0.497 0.597-0.598 0.647-0.846 0.447-1.095 0.25-0.944 0.148-0.995-0.448-0.895-0.646-0.547-0.796-0.398-0.995v-0.4l4.876-4.626z" fill="#c7b37f"/>
<path stroke-width=".66624" stroke-linecap="round" d="m275.21 157.16c-0.306-1.652-2.237-1.99-2.985-1.015-1.15 1.502-0.31 4.004 2.034 4.737 0.796 0.25 2.637 0.15 3.83-1.394 0.97-1.25 0.895-2.8 0.533-4.03-0.234-0.796-0.873-1.49-1.726-2.14-2.72-2.07-7.115-1.592-8.558 1.89-1.862 4.494 2.19 7.863 5.92 10.4 4.7 3.195 10.052 3.776 14.083 3.733 9.156-0.1 16.122-4.48 20.65-6.966 1.055-0.58 2.14-0.46 2.687 0.2 0.616 0.744 0.606 1.946-0.25 2.735"/>
<path stroke-width=".67648" d="m248.06 281.18l-2.04 0.746-2.09 1.593-0.896 1.244-1.144 1.99-0.498 1.493-0.398 1.84-0.2 1.394m19.02-10.1l-0.15 1.792-0.298 1.244-0.896 2.14-1.393 1.84-1.492 1.195-1.094 0.547-1.543 0.348"/>
<path stroke-width=".76608" d="m319.74 329.11c-0.37 1.656-1.922 3.55-5.3 4.235l-0.655 0.136"/>
<path stroke-width=".86784" d="m404.22 276.2c2.137 1.993 3.638 4.42 4.792 7.75 0.487 1.404 0.89 3.523 0.834 5.773-0.09 3.587-1 7.507-1.98 9.403-0.852 1.655-3.083 8.957-15.324 13.996-7.143 2.94-18.112 3.62-25.676 3.918-10.254 0.404-19.726 0.785-25.332 7.37"/>
<path stroke-width=".59456" d="m387.49 282.85c0.76-1.038 3.53-2.35 5.77-1.107 0.737 0.41 1.61 0.928 2.377 2.076"/>
<path stroke-width=".86784" d="m401.61 273.79c0.5 0.192 1 0.366 1.436 0.49 1.43 0.41 2.776 0.44 3.942 0.09 2.83-0.848 4.647-3.492 3.174-6.93-0.342-0.796-0.996-1.56-1.74-2.133"/>
<path stroke-width=".66624" stroke-linecap="round" d="m240.28 199.76c-1.9 1.176-3.317 1.455-4.795 3.167-1.472 2.914-2.05 4.48-2.624 6.816m46.1-51.69c0 1.72-1.266 2.805-2.985 3.167"/>
<path stroke-width=".63808" d="m397.11 192.02c4.73-0.097 18.47 3.608 18.567 19.76 0.098 15.952-9.844 18.558-13.827 19.62"/>
<path stroke-width=".66368" d="m398.36 192.02c8.156-0.355 16.57 5.648 16.942 20.63 0.29 11.705-8.01 17.014-11.995 18.076"/>
<g stroke-width=".881">
<path stroke-width=".56384" d="m393.81 248.42l0.127-1.6 0.533-2.544 0.754-1.978 0.848-1.633 1.1-1.32m7.78-3.39l-0.125 1.566-0.45 1.07-0.695 1.02-0.796 0.597-1.22 0.448-1.07 0.076-0.796-0.125m-14.31-52.81l0.35-1.693 0.746-1.567 0.97-1.568 1.667-2.14 1.32-1.467 2.138-2.165 1.842-1.866 1.17-1.343 1.542-1.865 1.368-2.065 0.822-1.692 0.447-2.19 0.137-2.714-0.248-0.787m-12.28 128.17l1.617-0.324 1.218-0.647 0.672-0.67 0.472-0.772 0.324-1.244 0.025-0.87m-158.25-12.15l1.194 0.1 1.542-0.125 1.543-0.547m5-36.55l-0.2 1.393-0.323 0.622-0.474 0.597-0.647 0.498-0.722 0.323-0.945 0.15-0.647 0.05m9.91-15.61l-0.348 2.164-0.424 0.946-0.87 1.194-1.17 0.896-1.194 0.597-2.314 0.572m15.3-39.76l-0.447 1.294-0.55 0.946-0.745 1.045-1.045 0.947-1.244 0.597-1.045 0.248-0.646-0.05m0.37-6.2l0.025 0.995"/>
</g>
<g stroke-width=".63168">
<path stroke-linecap="round" d="m254.28 224.06a6.855 6.855 0 0 1 -2.09 1.298m150.52 44.82c0.085 0.093 0.372 0.14 0.472 0.2 1.418 0.845 4.21-0.21 3.39-2.4"/>
<path d="m397.79 239.6c1.006 1.315 2.904 1.657 4.405 1.265 1.134-0.296 1.964-1.01 2.494-1.94 0.598-1.05 0.78-2.42 0.39-3.727a4.907 4.907 0 0 0 -0.848 -1.65c-0.426-0.563-0.955-1.16-1.364-1.428-0.11-0.07-0.217-0.167-0.332-0.245m6.42 34.01a3.94 3.94 0 0 0 0.066 -0.72c0-1.158-0.485-2.22-1.286-2.934-0.274-0.245-0.54-0.624-0.87-0.79m0.48 0.47c-0.046-1.864-1.57-3.197-3.462-3.53m-4.17 2.84c-0.435-0.356-0.9-0.657-1.307-1.082-2.45-2.563-4.292-6.352-4.316-10.674-0.024-4.143 1.642-8.36 3.582-10m-56.51 84.65l1.79-1.643 1.245-0.946 2.34-1.443 2.188-1.044 1.543-0.398 3.086-0.696 3.582-0.548m-29.5 19.37c-1.293 1.99-4.378 4.976-7.613 6.17-3.234-1.194-6.32-4.18-7.613-6.17"/>
<path stroke-linecap="round" d="m314.42 332.63c-0.406 1.503-1.143 2.96-2.22 4.13"/>
<path d="m314.74 330.54l-0.45 2.19m-2.33 4.18l-0.945 0.944-1.692 0.946-1.94 0.597m-5.65-177.83c0.243-0.757 0.49-1.326 0.455-2.57-0.125-4.2-3.24-6.106-4.484-9.987-0.74-2.31-1.036-4.32 0.656-5.96 1.477-1.434 3.188-1.412 5.116-0.657 3.85 1.51 8.517 5.848 16.66 5.97-8.143-0.122-12.81-4.46-16.66-5.97-1.928-0.755-3.798-0.976-5.275 0.457-1.692 1.642-1.238 3.85-0.497 6.16 1.244 3.882 4.2 5.787 4.323 9.99 0.036 1.242-0.292 1.81-0.534 2.568m18.63-13.49c8.01-0.423 14.877-5.806 17.092-6.245 1.975-0.392 3.078-0.215 4.526 1.102-1.45-1.317-3.1-1.276-4.973-0.54-3.85 1.51-8.477 5.847-16.62 5.968m79.6 112.89c-3.334-2.388-6.19-6.948-6.22-12.335-0.023-4.144 1.642-8.36 3.582-10.002m-69.95 97.58c-1.295 1.99-4.38 4.976-7.614 6.17-3.234-1.194-6.32-4.18-7.613-6.17"/>
<path stroke-linecap="round" d="m306.67 163.67c0.832-0.462 1.605-0.9 2.318-1.292 1.055-0.58 2.323-0.458 2.87 0.202 0.615 0.745 0.71 2.037-0.145 2.826"/>
<path d="m294.71 169.27c5.496-1.147 9.975-3.61 13.36-5.502m32.27 164.19c0.454 0.31 0.746 0.955 0.746 0.955 0.125 0.3 0.288 0.584 0.333 0.85 0.257 1.522-0.74 2.47-1.974 2.614-1.695 0.197-2.967-0.81-3.51-2.03m-41.51-161.36c5.496-1.147 9.974-3.61 13.36-5.502m97.57 106.9c-1.045 0.402-1.616 0.348-2.916-0.23-0.534-0.236-1.145-0.603-1.86-1.01-2.548-1.446-5.574-3.727-8.41-9.05a18.812 18.812 0 0 1 -1.71 -4.476c-0.27-1.11-0.458-2.208-0.5-3.335-0.068-1.92 0.14-3.925 0.618-6.222 0.79-3.79 1.744-5.85 4.08-9.055 1.15-1.576 2.14-2.537 4.28-2.587m-143.69-39.3c1.78 1.512 2.64 3.384 2.64 5.722 0 3.1-2.594 8.16-8.963 9.952-2.44 0.686-4.856 0.132-6.317-0.756"/>
<path d="m256.29 205.62c1.145 0.795 1.593 1.69 1.593 3.244 0 1.065-0.69 2.446-1.86 3.754-1.92 2.142-5.173 3.962-8.78 4.007-1.955 0.024-3.986-0.384-6.03-1.75-2.184-1.46-3.333-3.434-3.83-5.375"/>
<path d="m256.19 212.29c1.297 1.192 1.695 2.684 1.695 4.563 0 2.745-1.115 4.864-3.68 7.108-0.573 0.502-1.22 0.972-1.94 1.395m129.44-22.08v3.532m-0.29-4.4v4.975m0.29-15.74v6.518m-0.29-7.96v8.907m-1.9 81.96c-1.236 2.453-2.223 3.742-4.18 5.67-1.975 1.947-3.343 2.84-5.822 4.08-2.414 1.21-3.934 1.596-6.568 2.19-2.632 0.595-4.17 0.725-6.867 0.847-2.47 0.112-3.874 0.008-6.342-0.163-2.64-0.183-4.107-0.55-6.744-0.783-2.178-0.19-3.408-0.366-5.595-0.36-2.248 0.006-3.536 0.02-5.75 0.41-2.062 0.366-3.232 0.657-5.174 1.444-2.685 1.088-5.72 2.985-6.368 3.83-0.647-0.845-3.683-2.742-6.37-3.83-1.94-0.787-3.11-1.078-5.174-1.443-2.214-0.39-3.5-0.405-5.75-0.41-2.186-0.007-3.417 0.17-5.595 0.36-2.638 0.233-4.103 0.6-6.744 0.784-2.47 0.17-3.872 0.275-6.343 0.163-2.696-0.122-4.235-0.25-6.867-0.846-2.633-0.596-4.153-0.98-6.568-2.19-2.48-1.238-3.847-2.133-5.822-4.08-0.213-0.21-0.415-0.412-0.607-0.61m42.17 53.37l1.79-0.223m30.28-2.36l1.808-0.173 1.722-0.69 1.205-0.73 1.637-1.94 0.345-0.73 0.258-1.68 0.086-0.774m46.91-136.69c0.777-2.64-0.17-5.43-2.73-5.354m-131.95 46.56c-0.65 2.194-2.044 3.693-3.597 4.668m3.64-46.72c-0.64 1.85-1.81 3.17-3.663 4.007-1.847 0.833-3.985 0.054-5.13-0.828"/>
<path stroke-linecap="round" d="m243.81 202.37c1.53 0.802 3.084-0.374 2.766-2.365-0.15-0.933-1.155-2.112-2.517-2.198"/>
<path d="m250.16 286.63c0.33 0.31 0.4 0.714 0.846 0.796 0.67 0.125 1.194 0.374 1.866-0.522 0.827-1.104 0.382-2.82-0.48-3.902-0.922-1.157-3.592-2.18-5.83-0.936-0.75 0.416-1.69 0.964-2.54 2.09-0.32 0.426-0.863 1.113-1.143 1.592-0.678 1.16-0.956 2.107-1.09 2.488-2.05 5.823 0.384 11.945 4.152 15.676"/>
<path stroke-linecap="round" d="m340.22 327.83c0.408 0.426 0.646 0.796 0.646 0.796 0.126 0.3 0.23 0.584 0.274 0.85 0.258 1.522-0.74 2.47-1.973 2.614-1.695 0.197-2.83-0.802-3.37-2.02"/>
<path d="m389.44 154.76c3.346 0.408 6.262 3.602 6.262 7.035 0 4.43-1.492 6.078-3.824 9.246-2.495 3.39-10.648 9.602-10.648 16.668 0 4.28 1.194 7.015 4.28 8.408 1.988 0.9 4.314-0.074 5.373-1.03 2.587-2.34 1.553-6.44-1.144-6.93-3.286-0.598-3.903 4.573-0.698 4.23m17.83 69.06c-0.294-1.772-1.8-3.122-3.615-3.122-2.024 0-3.666 1.68-3.666 3.756 0 1.016 0.394 1.938 1.034 2.615"/>
<path d="m383.87 195.12c-1.78 1.512-2.638 3.384-2.638 5.722 0 3.1 2.592 8.16 8.962 9.952 2.44 0.686 4.772 0.62 6.233-0.267m-156.04-10.34c-1.522 0.508-3.423 1.458-4.83 3.453-1.19 1.683-1.882 4.023-2.31 6.07-0.19 0.896-0.413 3.733 0.16 6.663 0.424 2.163 1.317 4.177 2.306 5.636a7.94 7.94 0 0 0 1.037 1.236c0.33 0.33 0.802 0.624 1.135 0.88m64 92.04c4.85 2.15 8.404 3.76 11.418 8.518 0.945 1.494 1.194 3.634 1.194 4.877 0 2.687-1.095 5.723-3.334 7.613-2.078 1.755-4.13 2.29-6.667 2.04-1.924-0.188-3.73-1.592-4.03-2.587m-46.48-112.5c2.737 2.14 3.88 4.215 3.88 7.514 0 3.78-1.84 6.12-3.98 7.463"/>
<path stroke-linecap="round" d="m251.51 236.42c4.08 5.076 6.245 8.088 6.37 14.132 0.115 5.672-1.693 9.553-5.077 13.634"/>
<path d="m329.75 169.32c0.742-0.487 1.286-1.267 1.6-2.23 0.48-1.49 0.49-2.757-0.305-3.902 0.982 1.285 1.072 2.37 0.796 3.93-0.176 0.994-0.81 1.517-1.6 2.23m51.46 86.16v16.154h0.043c0 0.01-0.007 1.53-0.137 2.488-0.085 0.628-0.174 1.197-0.274 1.73"/>
<path d="m381.41 253.96v17.423h0.043c0 0.013-0.005 1.53-0.135 2.49-0.136 1-0.28 1.847-0.467 2.64m0.56-42.95v14.53m0.29-13.38v11.817m0-26.85v8.858m-0.29-9.9v10.92m0.29-18.94v3.436m-0.29-4.13v4.977m-1.84 65.19c-0.105 0.224-0.218 0.455-0.338 0.694-1.235 2.454-2.222 3.743-4.18 5.672-1.974 1.947-3.343 2.838-5.82 4.08-2.415 1.21-3.936 1.595-6.57 2.19-2.63 0.594-4.17 0.724-6.866 0.846-2.472 0.11-3.874 0.007-6.342-0.163-2.642-0.183-4.107-0.55-6.744-0.783-2.18-0.19-3.41-0.367-5.596-0.362-2.248 0.007-3.536 0.02-5.75 0.412-2.062 0.365-3.232 0.656-5.174 1.443-2.687 1.088-5.722 2.985-6.37 3.83-0.646-0.845-3.682-2.742-6.368-3.83-1.942-0.787-3.112-1.078-5.175-1.443-2.214-0.392-3.502-0.406-5.75-0.412-2.186-0.006-3.417 0.17-5.595 0.362-2.638 0.232-4.103 0.6-6.745 0.783-2.468 0.17-3.87 0.274-6.342 0.163-2.695-0.122-4.235-0.25-6.866-0.846-2.635-0.597-4.154-0.982-6.57-2.19-2.48-1.24-3.847-2.133-5.82-4.08-1.035-1.02-1.798-1.86-2.47-2.787m-2.01-3.19c0.425 3.163-0.905 6.272-2.256 7.702-0.846 0.896-2.688 2.607-4.976 2.637-3.78 0.05-4.91-2.55-5.14-3.184"/>
<path d="m255.62 278.85c0.702 0.693 1.325 1.54 1.852 2.538 0.945 1.79 0.654 4.787-0.095 6.17a4.427 4.427 0 0 1 -0.304 0.478m-20.25 18.01c2.248 2.36 5.65 4.923 10.873 7.073 7.142 2.942 18.11 3.62 25.675 3.918 10.057 0.397 19.323 0.81 24.966 7.04m17.37-4.07c1.662 1.636 3.358 3.39 4.074 5.63m-7.34 11.45a8.22 8.22 0 0 1 -0.693 0.66c-2.078 1.753-4.13 2.288-6.668 2.04-1.924-0.19-3.78-1.632-4.278-2.577m-5.36-2.91c0.093 0.127 0.19 0.25 0.293 0.37 1.208 1.406 3.115 2.288 5.106 2.452m26.87-0.07c-1.294 1.99-4.38 4.975-7.613 6.17-3.235-1.195-6.32-4.18-7.614-6.17l-0.302-0.465m15.58 0.46c0.23 0.25 0.478 0.488 0.74 0.71 2.078 1.754 4.13 2.288 6.668 2.04 1.925-0.19 3.453-1.475 4.07-2.588 0 0 0.347-0.373 0.444-0.73"/>
<path d="m339.04 336.63l-0.743 1.194-1.13 0.937-1.71 0.71-1.55 0.065"/>
<path d="m343.06 325.26c0.915 0.703 1.814 1.767 2.302 2.903 0.314 0.73 0.46 1.533 0.505 2.366a5.854 5.854 0 0 1 -1.423 4.142c-1.278 1.49-3.272 2.39-5.395 2.475a5.482 5.482 0 0 1 -0.47 0m0.17-0.28c-2.03 0.08-3.843-0.788-5.18-2.16m63.68-67.86c-1.582-1.46-3.222-3.48-4.804-6.45a18.803 18.803 0 0 1 -1.71 -4.474c-0.27-1.11-0.458-2.208-0.5-3.334-0.068-1.92 0.14-3.925 0.618-6.222 0.79-3.792 2.203-6.726 4.08-9.056 0.64-0.795 1.38-1.786 2.08-2.232m-1.38-75.83c2.538 0.2 4.89 2.932 4.858 5.61-0.045 3.89-1.35 5.497-4.41 9.31-2.637 3.283-10.55 9.055-10.35 14.578 0.036 0.98 0.564 1.994 1.154 2.81m-3.16 3.46c0.562 0.556 1.242 1.014 2.052 1.38 1.447 0.654 3.073 0.317 4.26-0.283m-21.17-43.22c0.85 0.58 1.716 1.466 2.185 2.6 1.862 4.492-2.19 7.86-5.92 10.4-2.677 1.818-5.565 2.79-8.3 3.28"/>
<path d="m364.6 161.56c-0.905-0.01-1.98-0.267-3.15-1.497-0.268-0.283-0.583-0.658-0.707-0.994m-14.85 4.9c-0.473-0.237-0.98-0.582-1.32-0.962-0.887-0.993-1.48-2.336-0.795-4.386 0.632-1.897 3.677-7.216 3.827-10.898 0.228-5.625-1.936-8.945-5.32-10.24"/>
<path stroke-linecap="round" d="m347.32 146.46l-0.132 2.115-0.573 2.16-1.1 2.95-0.84 1.896-0.88 1.895-0.44 1.323-0.177 0.97 0.133 0.925m38.01 126.29c0.175 0.423 0.597 0.836 0.597 0.836 0.647 1.08 3.162 2.98 5.45 3.01 3.78 0.05 4.68-2.598 4.777-3.186 0.477-2.885-0.51-3.675-1.99-4.488 0 0-0.872-0.45-1.917-0.277"/>
<path d="m236.95 274.35c-1.335 0.34-2.59 0.35-3.685 0.02-2.83-0.85-5.124-3.56-3.954-6.93m13.38-31.82c0.284 0.285 0.375 0.71 0.418 1.07 0.437 3.667-2.777 4.736-5.066 4.14-1.134-0.297-2.485-1.35-3.015-2.28a4.707 4.707 0 0 1 -0.614 -2.303m22.05-23.67c0.573 0.527 0.97 1.112 1.236 1.764m-1.13-8.52c0.53 0.37 0.912 0.84 1.168 1.307"/>
<path stroke-linecap="round" d="m257.86 210.52c-0.31 0.762-0.843 1.584-1.555 2.38-1.92 2.14-5.173 3.96-8.778 4.005-1.957 0.025-3.988-0.384-6.03-1.75-2.186-1.46-3.61-3.538-4.082-5.578"/>
<path d="m255.43 195.28c1.108 0.942 1.958 2.142 2.367 3.39"/>
<path stroke-linecap="round" d="m257.83 203.24c-0.885 2.928-3.526 6.548-8.622 7.84-2.435 0.616-5.57-0.155-6.64-1.066"/>
<path d="m240.04 202.55c0.267 2.637 2.032 4.613 5.377 4.677 4.704 0.09 7.564-6.767 3.384-11.58"/>
<path stroke-linecap="round" d="m229.45 225.53c0.687 0.862 1.496 1.64 2.323 2.327 1.677 1.396 3.655 2.625 5.934 3.298m5.28 0.49c4.203-0.505 6.573-3.638 6.103-7.302-0.358-2.793-2.92-4.94-4.662-5.064"/>
<path d="m249.85 188.11c1.823-0.07 2.86 1.588 2.844 2.984"/>
<path stroke-linecap="round" d="m249.42 163.08c1 2.614 2.947 4.657 5.032 5.824m144.18 30.97c1.72 2.354 0.594 6.996-4.082 7.084-1.827 0.035-3.475-0.978-4.44-2.51"/>
<path d="m381.7 169.12v15.8"/>
<path stroke-linecap="round" d="m243.76 202.33c1.443 1.044 3.296-0.72 2.58-2.592-0.485-1.264-2.282-2.628-4.77-0.937-2.747 1.87-1.99 7.764 3.285 7.863 4.703 0.09 7.563-6.767 3.383-11.58-4.02-4.63-11.345-3.546-16.12 0.254-2.034 1.617-5.873 5.853-7.067 11.625-0.372 1.797-0.612 3.272-0.584 5.075 0.02 1.188 0.13 2.52 0.484 4.18 0.72 3.354 1.9 5.81 3.076 7.517 0.45 0.654 0.862 1.197 1.303 1.638 0.82 0.82 1.064 1.253 1.89 1.94 2.704 2.25 6.186 4.014 10.45 3.832 4.677-0.2 7.365-3.483 6.867-7.364-0.483-3.763-4.282-5.636-6.768-3.88-1.692 1.193-2.293 4.89 0.697 5.77 1.692 0.498 3.184-1.64 1.99-2.885m129.56-71.95c2.7-1.466 4.78-1.195 6.32 0.94 1.672 2.322 1.91 5.41 1.542 7.22-0.547 2.687-1.324 3.803-3.46 5.752"/>
<path stroke-linecap="round" d="m380.53 152.03c3.086-2.04 6.427-1.174 8.26 1.543 1.345 1.99 1.688 3.655 1.593 6.12-0.162 4.224-2.805 7.572-5.722 9.205"/>
<path d="m395.06 159.15c2.537 0.198 4.577 2.495 4.577 5.174 0 3.83-1.07 5.493-4.13 9.305-2.637 3.283-10.55 9.055-10.35 14.578 0.076 2.088 1.836 4.056 3.355 4.166"/>
<path stroke-linecap="round" d="m395.36 202.33c-1.443 1.044-3.284-0.643-2.488-2.434 0.55-1.237 2.19-2.786 4.677-1.095 2.747 1.87 1.99 7.764-3.285 7.863-4.704 0.09-7.883-6.59-3.383-11.58 4.106-4.554 11.72-3.662 16.498 0.138 2.032 1.618 6.122 6.06 7 11.887 1.06 7.053 0.924 15.728-6.36 21.07-2.93 2.148-6.988 3.125-10.57 2.968-4.678-0.205-7.365-3.483-6.867-7.365 0.482-3.762 4.105-5.355 6.767-3.88 2.764 1.53 2.28 5.417-0.697 5.77-1.75 0.21-3.184-1.64-1.99-2.885"/>
<path d="m392.87 199.9c0.776-3.49 3.767-3.816 6.18-3.78 6.59 0.096 11.148 7.912 11.224 15.473 0.096 9.552-4.054 15.176-11.035 15.475-1.807 0.078-4.918-0.782-4.972-2.985"/>
<path stroke-linecap="square" d="m396.93 198.34c6.95 1.544 9.39 7.805 9.39 13.78 0 4.875-0.484 11.535-9.97 13.877"/>
<path d="m408.39 265.33a3.906 3.906 0 1 0 -6.264 2.343"/>
<path stroke-linecap="round" d="m394.45 259.41c1.31 1.942 2.892 4.1 6.235 5.913m-1.25 10.55c-3.276-2.15-9.496-4.967-15.12-2.194-2.085 1.03-3.482 2.302-4.27 4.378-1.422 3.737 0.166 7.856 1.783 9.567 0.846 0.896 2.688 2.607 4.976 2.637 3.78 0.05 4.68-2.596 4.776-3.184 0.448-2.737-1.145-3.832-1.99-4.13-0.65-0.23-2.76-0.17-3.208 1.322-0.15 0.497-0.176 1.365 0.222 2.012"/>
<path stroke-linecap="round" d="m340.47 328.42c1.045 2.14-0.144 3.215-1.593 3.384-2.138 0.25-3.283-1.443-3.432-2.986-0.242-2.5 1.866-4.767 4.38-4.727 2.26 0.037 4.104 1.497 4.968 3.505 0.314 0.73 0.46 1.533 0.504 2.367a5.852 5.852 0 0 1 -1.422 4.143c-1.28 1.49-3.273 2.39-5.395 2.475-4.224 0.17-7.513-3.782-7.513-7.812 0-7.712 11.438-11.918 15.972-13 5.573-1.33 8.964-1.828 17.913-2.325 3.583-0.2 6.207-0.098 10.15-0.507 3.53-0.366 5.375-0.538 9.007-1.384 4.533-1.055 8.758-2.936 12.54-6.37 2.91-2.643 4.577-4.527 5.925-8.16 1.164-3.133 1.698-9.34-1.248-13.93-2.605-4.06-6.22-6.166-10.35-6.763-3.732-0.54-7.004 1.07-8.958 4.773-0.945 1.79-0.654 4.787 0.095 6.17 0.647 1.194 2.494 2.955 4.782 2.985 3.78 0.05 4.68-2.596 4.776-3.184 0.447-2.737-1.145-3.832-1.99-4.13-0.65-0.23-2.76-0.17-3.208 1.322-0.15 0.497-0.176 1.365 0.222 2.012"/>
<path stroke-linecap="round" d="m337.22 316.17c-4.85 2.15-8.403 3.76-11.417 8.518-0.946 1.494-1.195 3.634-1.195 4.877 0 2.687 1.094 5.723 3.334 7.613 2.076 1.755 4.13 2.29 6.666 2.04 1.925-0.188 3.732-1.592 4.03-2.587"/>
<path d="m385.11 224.13c-2.268 0.757-3.88 4.215-3.88 7.514 0 3.78 1.84 6.12 3.98 7.463"/>
<path stroke-linecap="round" d="m387.6 236.42c-4.08 5.076-6.245 8.088-6.37 14.132-0.116 5.672 1.693 9.553 5.076 13.634"/>
<path d="m365.85 152.05c0.105-0.155 0.22-0.327 0.35-0.517 1.692-2.488 4.68-3.143 6.866-1.493 2.638 1.99 3.304 5.378 2.588 8.957-0.448 2.24-1.967 4.104-4.048 5.453"/>
<path stroke-linecap="round" d="m265.1 150.84c-2.587-1.194-4.717-0.964-6.32 0.94-1.84 2.19-1.91 5.41-1.54 7.22 0.546 2.687 1.323 3.803 3.46 5.752"/>
<path d="m258.58 152.03c-3.086-2.04-6.427-1.174-8.26 1.543-1.344 1.99-1.688 3.655-1.593 6.12 0.162 4.224 2.806 7.572 5.722 9.205"/>
<path d="m249.68 154.76c-3.346 0.408-6.016 3.244-6.016 6.678 0 4.428 1.09 6.22 3.58 9.603 2.492 3.39 10.647 9.602 10.647 16.668 0 4.28-1.194 7.015-4.28 8.408-1.99 0.9-4.314-0.074-5.373-1.03-2.588-2.34-1.553-6.44 1.144-6.93 3.284-0.598 3.9 4.573 0.697 4.23"/>
<path d="m244.05 159.15c-2.537 0.198-5.033 2.38-5.033 5.06 0 3.83 1.526 5.607 4.586 9.418 2.638 3.284 10.088 8.942 9.89 14.465-0.076 2.09-1.48 4.642-2.873 4.344"/>
<path stroke-linecap="round" d="m238.08 236.12c1.194-2.886 4.28-1.593 4.47 0 0.436 3.668-2.778 4.776-5.067 4.18-1.134-0.296-1.963-1.01-2.493-1.94-0.598-1.05-0.78-2.42-0.39-3.728a4.903 4.903 0 0 1 0.848 -1.652 4.97 4.97 0 0 1 1.28 -1.21c0.88-0.56 1.838-0.617 3.342-0.617 5.573 0 10.45 6.585 12.087 13.425 0.54 2.253 1.28 7.278 0.254 12.042-1.094 5.075-3.288 8.59-5.86 11.254-1.395 1.443-3.295 2.728-5.755 4.12-0.76 0.428-2.764 1.318-4.158 1.716-1.43 0.41-2.775 0.44-3.94 0.09-2.83-0.848-4.648-3.493-3.175-6.93 1.147-2.676 5.374-3.98 7.265-0.696 0.16 0.278 0.41 0.885 0.402 1.542-0.01 0.876-0.375 1.93-1 2.33-1.438 0.914-3.737 0.655-3.63-1.882"/>
<path d="m233.75 270.39c1.045 0.402 1.616 0.348 2.916-0.23 0.534-0.236 1.145-0.603 1.86-1.01 2.548-1.446 5.573-3.727 8.41-9.05a18.803 18.803 0 0 0 1.71 -4.476c0.27-1.11 0.458-2.208 0.5-3.335 0.068-1.92-0.14-3.925-0.618-6.222-0.79-3.79-1.744-5.85-4.08-9.055-1.15-1.576-2.14-2.537-4.28-2.587m-9.44 30.91a3.906 3.906 0 1 1 6.264 2.343"/>
<path d="m232.24 261.45c0.294-1.772 1.8-3.122 3.615-3.122 2.025 0 3.666 1.68 3.666 3.756a3.793 3.793 0 0 1 -1.033 2.615"/>
<path d="m239.37 261.25c3.334-2.388 6.19-6.948 6.22-12.335 0.022-4.144-1.643-8.36-3.583-10.002"/>
<path stroke-linecap="round" d="m244.67 259.41c-1.308 1.942-2.89 4.1-6.234 5.913"/>
<path d="m254.6 273.68c-0.927-2.18-2.77-3.19-5.772-3.51-2.984-0.32-5.567 0.5-8.21 1.922-5.158 2.775-8.034 5.757-9.952 11.29-0.486 1.406-0.89 3.524-0.834 5.774 0.09 3.586 1 7.506 1.98 9.402 0.852 1.654 3.084 8.956 15.324 13.996 7.143 2.94 18.112 3.618 25.676 3.916 10.404 0.41 20.003 0.797 25.576 7.663"/>
<path stroke-linecap="round" d="m239.68 275.87c3.277-2.15 9.496-4.967 15.12-2.194 2.085 1.03 3.482 2.302 4.27 4.378 1.422 3.737-0.166 7.856-1.783 9.567-0.846 0.896-2.688 2.607-4.976 2.637-3.78 0.05-4.68-2.596-4.775-3.184-0.448-2.737 1.144-3.832 1.99-4.13 0.65-0.23 2.76-0.17 3.207 1.322 0.15 0.497 0.176 1.365-0.222 2.012"/>
<path d="m252.71 285.73c0.3-1.095 0.145-2.244-0.845-3.334-0.996-1.094-3.633-2.14-5.872-0.895-0.75 0.415-1.688 0.963-2.538 2.088-0.32 0.426-0.864 1.113-1.144 1.593-0.677 1.16-0.955 2.108-1.09 2.49-2.46 6.993 1.545 14.42 6.565 17.613 4.378 2.786 8.857 3.582 14.38 4.08 2.556 0.23 4.004 0.28 6.568 0.398 2.063 0.097 3.845 0.062 5.523 0.042 1.38-0.017 2.69-0.01 4.03-0.04 2.186-0.052 4.448-0.103 7.216 0.1 2.912 0.21 5.102 0.285 7.563 0.695 1.608 0.268 3.492 0.527 5.467 0.97 0.593 0.133 1.194 0.24 1.798 0.423 0.406 0.123 0.807 0.247 1.204 0.368 3.566 1.088 7.03 2.413 9.764 4.174 0.845 0.544 1.818 1.07 2.482 1.733 0.51 0.51 0.942 0.804 1.36 1.214 1.913 1.882 3.87 3.92 4.327 6.68 0.084 0.51 0.084 1.042 0.084 1.604 0 1.79-1.456 4.23-5.387 5.026"/>
<path d="m298.64 328.42c-1.045 2.14 0.143 3.215 1.592 3.384 2.14 0.25 3.283-1.443 3.432-2.986 0.242-2.5-1.866-4.767-4.38-4.727-2.26 0.037-4.104 1.497-4.968 3.505-0.314 0.73-0.46 1.533-0.504 2.367a5.853 5.853 0 0 0 1.423 4.143c1.278 1.49 3.272 2.39 5.394 2.475 4.224 0.17 7.514-3.782 7.514-7.812 0-7.712-11.438-11.918-15.972-13-5.573-1.33-8.964-1.828-17.913-2.325-3.582-0.2-6.206-0.098-10.15-0.507-3.53-0.366-5.375-0.538-9.008-1.384-4.532-1.055-8.757-2.936-12.538-6.37-2.913-2.643-4.58-4.527-5.927-8.16-1.164-3.133-1.698-9.34 1.248-13.93 2.605-4.06 6.22-6.166 10.35-6.763 3.732-0.54 7.004 1.07 8.958 4.773 0.945 1.79 0.654 4.787-0.095 6.17-0.647 1.194-2.494 2.955-4.78 2.985-3.783 0.05-4.682-2.596-4.778-3.184-0.448-2.737 1.144-3.832 1.99-4.13 0.65-0.23 2.76-0.17 3.208 1.322 0.15 0.497 0.176 1.365-0.222 2.012"/>
<path stroke-linecap="round" d="m273.26 152.05c-0.104-0.155-0.22-0.327-0.35-0.517-1.69-2.488-4.68-3.143-6.866-1.493-2.637 1.99-3.303 5.378-2.588 8.957 0.448 2.24 1.967 4.104 4.048 5.453"/>
<path d="m366.75 159.6c-4.03 4.378-8.06 5.777-14.082 5.97-1.88 0.062-5.474-0.596-7.564-2.084-1.342-0.956-2.836-2.593-1.89-5.43 0.63-1.895 3.677-7.213 3.826-10.896 0.228-5.625-1.936-8.708-5.32-9.902-6.255-2.208-12.97 3.975-17.016 5.324-2.116 0.704-3.194 0.787-5.126 0.795-1.93-0.008-3.048-0.09-5.163-0.796-4.046-1.35-10.76-7.533-17.017-5.325-3.383 1.194-5.547 4.277-5.32 9.902 0.15 3.682 3.196 9 3.827 10.897 0.946 2.836-0.548 4.473-1.89 5.43-2.09 1.487-5.683 2.144-7.564 2.084-6.02-0.194-10.05-1.593-14.082-5.97"/>
<path stroke-linecap="round" d="m297.33 314.41c0.8 0.31 0.195-0.19 5.246 2.05 4.85 2.15 8.29 4.032 11.304 8.79 0.946 1.494 1.194 3.633 1.194 4.877 0 0.802-0.097 1.635-0.293 2.46"/>
<path d="m297.66 336.04c0.983 0.492 2.098 0.78 3.25 0.825 4.226 0.17 7.515-3.78 7.515-7.81 0-2.796-1.52-5.15-3.652-7.04"/>
<path stroke-linecap="round" d="m298.57 328.42c-1.02 2.274 0.433 3.504 1.88 3.672 2.14 0.25 3.345-1.443 3.495-2.985 0.162-1.678-0.733-3.31-2.098-4.15"/>
<path d="m390.1 154.8c3.21 0 6.01 3.575 6.01 7.243 0 4.227-2.247 6.814-3.894 8.77-1.326 1.576-2.762 2.985-4.47 4.704"/>
<path stroke-linecap="round" d="m386.29 151.41c1.093 0.507 2.052 1.363 2.782 2.445 1.344 1.99 1.686 3.656 1.593 6.12-0.16 4.225-3.2 7.15-5.918 8.934m-4.78-17.5c0.222 0.19 0.436 0.407 0.64 0.65 1.842 2.19 1.984 5.426 1.543 7.22-0.662 2.696-1.553 3.858-3.742 5.47m-5.06-14.45c2.638 1.99 3.422 5.433 2.548 8.977-0.624 2.533-2.217 4.05-4.202 5.26m11.12 41.08c0.316 0.925 0.837 1.246 1.493 1.934 1.426 1.494 3.517 2.78 6.158 3.522 2.44 0.687 4.64 0.17 6.318-0.875m-163 54.04c1.24-0.023 2.476 0.815 3.284 2.22 0.16 0.278 0.41 0.885 0.403 1.542-0.01 0.875-0.394 1.81-1.02 2.21-1.437 0.913-3.99 0.52-3.882-2.017"/>
<path d="m241.49 231.3c4.93 0.92 9.677 6.867 11.23 13.354 0.54 2.252 1.282 7.277 0.254 12.04-1.095 5.076-3.288 8.59-5.862 11.256a16.494 16.494 0 0 1 -2.127 1.827l-1.05 0.712m-7.92-12.14c2.025 0 3.798 1.94 3.798 4.014a3.793 3.793 0 0 1 -1.034 2.614"/>
<path d="m234.64 260.7c2.11 0 4.117 2.033 4.117 4.19 0 1.24-0.58 2.347-1.482 3.062"/>
<path stroke-linecap="round" d="m253.98 239.49c1.937 2.6 3.216 4.84 3.81 7.725m-0.07 8.48a17.27 17.27 0 0 1 -1.45 4.045c-0.814 1.62-2.234 3.423-3.553 4.642"/>
<path d="m254.28 224.33c1.868 1.46 2.994 2.97 3.52 4.78"/>
<path stroke-linecap="round" d="m257.86 219.47c-0.49 1.7-1.604 2.99-3.37 4.602m-9.16-17.18l2.157-0.568 1.276-0.964 0.823-1.162 0.71-1.816 0.283-1.475"/>
<path d="m240.97 199.3c-0.68 0.17-1.543 0.422-2.447 0.853-1.212 0.578-2.5 1.476-3.525 2.93-1.188 1.682-1.88 4.022-2.31 6.07-0.187 0.895-0.41 3.732 0.162 6.662 0.423 2.163 1.317 4.177 2.305 5.635 0.355 0.523 0.676 0.975 1.037 1.336 1.293 1.294 2.487 2.09 4.478 1.692"/>
<path stroke-linecap="round" d="m253.04 189.81c-0.35 1.285-1.04 2.877-3.055 2.703"/>
<path d="m245.68 198.53c-1.935-1.892-6.035-2.385-10.11 0.193-0.525 0.333-1.05 0.76-1.568 1.19-0.56 0.468-1.01 1.005-1.44 1.59-0.47 0.635-1.048 1.715-1.397 2.432-0.48 0.988-0.68 1.637-0.943 2.65-0.745 2.852-0.74 5.5-0.654 6.257 0.113 0.967 0.205 1.857 0.364 2.675 0.54 2.798 1.368 4.76 2.224 6.18 0.9 1.493 3.14 4.922 7.717 5.374 1.8 0.177 4.873-0.647 4.972-2.986"/>
<path stroke-linecap="round" d="m363.76 157.07c0.306-1.653 2.297-1.972 3.045-0.996 1.153 1.502 0.39 4.084-1.953 4.816-0.796 0.25-2.637 0.15-3.83-1.393-0.97-1.25-0.895-2.8-0.533-4.03 0.234-0.797 0.873-1.49 1.726-2.14 2.72-2.07 7.116-1.592 8.558 1.89 1.862 4.494-2.19 7.863-5.92 10.4-4.7 3.195-10.052 3.776-14.083 3.732-9.156-0.1-16.12-4.48-20.65-6.967-1.054-0.58-2.14-0.46-2.686 0.2-0.616 0.745-0.607 1.947 0.25 2.736"/>
<path stroke-linecap="round" d="m365.61 155.52c0.97 0.045 1.23 0.423 1.528 0.81 1.152 1.504 0.31 4.086-2.033 4.818m17.84 51.54c-3.49 3.798-0.28 10.315 2.327 11.79 0.902 0.7 1.288 0.33 2.01 0.75"/>
<path d="m383.12 205.43c-1.144 0.796-1.548 1.69-1.592 3.244-0.036 1.3 0.19 2.745 1.41 4.015 1.903 1.978 5.624 3.7 9.23 3.746 1.956 0.024 3.987-0.385 6.03-1.75 2.184-1.462 3.334-3.435 3.83-5.375m-20.86 61.79c0 0.012-0.005 1.53-0.134 2.488-0.38 2.792-0.823 4.4-2.09 6.916-1.236 2.455-2.223 3.744-4.18 5.673-1.974 1.947-3.343 2.84-5.822 4.08-2.413 1.21-3.934 1.595-6.568 2.19-2.632 0.595-4.17 0.724-6.867 0.846-2.472 0.112-3.874 0.007-6.343-0.163-2.64-0.183-4.106-0.55-6.744-0.782-2.178-0.19-3.41-0.367-5.595-0.36-2.248 0.005-3.536 0.02-5.75 0.41-2.063 0.366-3.233 0.657-5.175 1.444-2.686 1.088-5.722 2.985-6.37 3.83-0.646-0.845-3.68-2.742-6.368-3.83-1.942-0.787-3.112-1.078-5.175-1.443-2.213-0.39-3.5-0.406-5.75-0.41-2.186-0.008-3.416 0.17-5.595 0.36-2.638 0.232-4.103 0.6-6.744 0.783-2.467 0.17-3.87 0.275-6.34 0.163-2.697-0.122-4.236-0.25-6.868-0.846-2.633-0.595-4.154-0.98-6.568-2.19-2.48-1.24-3.847-2.133-5.822-4.08-1.957-1.928-2.944-3.217-4.18-5.672-1.266-2.517-1.71-4.123-2.09-6.916-0.13-0.96-0.135-2.476-0.135-2.488v-101.77h123.24v101.77h0.042z"/>
</g>
<g stroke="#c7b37f" fill="#c7b37f">
<path stroke-width=".32832" d="m247.94 285.64a2.5 2.5 0 1 1 5 0 2.5 2.5 0 0 1 -5 0zm-15.35-17.67c0-1.236 0.79-2.24 1.765-2.24 0.976 0 1.767 1.004 1.767 2.24 0 1.237-0.79 2.24-1.767 2.24-0.975 0-1.766-1.003-1.766-2.24z"/>
<path stroke="none" stroke-width=".64" d="m241.31 223.59c0-1.015 0.764-1.84 1.706-1.84 0.94 0 1.705 0.825 1.705 1.84 0 1.016-0.764 1.84-1.705 1.84-0.942 0-1.706-0.824-1.706-1.84zm30.63-65.63c-0.107-1.018 0.504-1.918 1.367-2.008 0.86-0.09 1.648 0.663 1.755 1.68 0.108 1.02-0.504 1.92-1.366 2.01-0.864 0.09-1.65-0.663-1.758-1.682z"/>
</g>
<g stroke="#c7b37f" stroke-width=".63168" stroke-linecap="round">
<path d="m239.31 233.95c-0.368 0.16-0.57 0.292-0.847 0.582-0.264 0.277-0.32 0.378-0.523 0.83-0.15 0.332-0.188 0.716-0.243 1.19m4.71 26.75c0.347-0.42 0.557-0.648 0.89-1.08 0.278-0.36 0.443-0.557 0.687-0.94 0.22-0.345 0.318-0.555 0.513-0.916 0.273-0.508 0.41-0.804 0.67-1.318m-1.26 13.93c-0.592 0.27-0.942 0.39-1.517 0.696-0.438 0.232-0.675 0.38-1.095 0.642a17.4 17.4 0 0 0 -1.244 0.836c-0.49 0.36-0.744 0.595-1.22 0.975m14.96-37.9c-0.32-0.33-0.494-0.523-0.82-0.846-0.343-0.337-0.53-0.536-0.896-0.846-0.357-0.3-0.583-0.437-0.956-0.716"/>
<path stroke-linecap="butt" d="m254.19 224.94c-0.477 0.212-0.726 0.38-1.22 0.543-0.567 0.187-0.95 0.284-1.498 0.31"/>
<path d="m237.44 208.44c0.163 0.58 0.2 0.927 0.418 1.488 0.276 0.705 0.506 1.076 0.926 1.707 0.437 0.657 0.71 1.02 1.273 1.572 0.495 0.485 0.81 0.73 1.39 1.11 0.55 0.36 0.906 0.485 1.487 0.796m-0.98-5.86c0.485 0.26 0.735 0.456 1.244 0.667 0.46 0.19 0.733 0.27 1.22 0.383 0.656 0.15 1.04 0.188 1.715 0.204 0.73 0.017 0.946 0 1.866-0.15m7.16-40.65c-0.798-0.466-1.286-0.67-2.046-1.194-0.773-0.534-1.198-0.86-1.87-1.518-0.485-0.473-0.757-0.75-1.16-1.294-0.36-0.486-0.498-0.804-0.816-1.318m7.5-4.56c0.25 0.67 0.322 1.078 0.642 1.717 0.434 0.868 0.77 1.323 1.423 2.04 0.905 0.994 1.672 1.275 2.742 2.09m1.45-5.92c0.25 0.602 0.324 0.972 0.637 1.543 0.277 0.504 0.467 0.773 0.83 1.22 0.465 0.568 0.767 0.864 1.345 1.317 0.67 0.528 1.146 0.683 1.88 1.12"/>
</g>
<path stroke-width=".17728" d="m333.3 151.62c-0.052-1.695-1.722-1.87-2.362-1.87-1.847 0-2.346 1.15-4.65 2.388-2.888 1.55-4.13 1.895-6.698 1.918-2.567-0.023-3.843-0.367-6.73-1.918-2.305-1.237-2.693-2.352-4.54-2.352a2.33 2.33 0 0 0 -2.248 2.453s-0.02 0.515 0.06 0.863c0.03 0.13 0.19 0.09 0.24 0.204-0.025-0.77 0.132-1.168 0.51-1.685 0.488-0.664 1.297-0.84 1.626-0.84 1.847 0 2.53 1.185 4.835 2.422 2.887 1.55 4.13 1.895 6.697 1.918 2.566-0.023 3.844-0.367 6.732-1.918 2.303-1.237 2.965-2.52 4.812-2.52 0.64 0 1.092 0.414 1.3 1.066 0.13 0.4 0.058 0.67 0.09 0.828 0.017 0.077 0.112 0.07 0.133 0.153 0.064-0.297 0.214-0.404 0.192-1.108z" fill="#703d29"/>
</g>
<g fill="#703d29">
<path d="m264.4 294.03c0.518-0.56 0.91-0.35 1.006-0.607 0.07-0.19-0.082-0.21-0.293-0.288-0.282-0.105-0.58-0.166-0.863-0.27-0.292-0.11-0.557-0.26-0.85-0.37-0.12-0.045-0.4-0.187-0.478 0.025-0.148 0.392 1.024 0.358 0.63 1.41-0.066 0.178-0.233 0.562-0.815 1.2l-2.65 2.883c-0.06 0.067-0.158 0.21-0.22 0.186-0.06-0.023-0.05-0.2-0.052-0.288l0.038-4.09c0.004-0.777 0.07-1.352 0.196-1.688 0.175-0.47 0.716-0.076 0.83-0.378 0.07-0.19 0.016-0.197-0.306-0.318-0.16-0.06-0.47-0.125-1.114-0.365-0.342-0.128-0.668-0.3-1-0.425-0.15-0.057-0.43-0.263-0.53 0.006-0.03 0.08 0.077 0.195 0.103 0.217 0.37 0.267 0.464 0.443 0.472 0.943l0.073 7.446c0.006 0.537 0.064 0.686 0.165 0.724 0.11 0.042 0.186-0.007 0.406-0.256l5.25-5.7z"/>
<path d="m267.49 295.18c0.34-1.08 0.98-0.43 1.103-0.816 0.044-0.137 0-0.176-0.308-0.272-0.584-0.185-0.967-0.255-1.336-0.372-0.36-0.113-0.744-0.285-1.144-0.41-0.092-0.03-0.338-0.145-0.4 0.05-0.125 0.397 1.134 0.444 0.807 1.48l-1.724 5.466c-0.34 1.082-0.986 0.553-1.11 0.952-0.02 0.057-0.024 0.143 0.068 0.172 0.267 0.084 0.722 0.178 1.162 0.316 0.8 0.253 1.165 0.418 1.544 0.537 0.236 0.075 0.342 0.058 0.382-0.067 0.115-0.365-1.198-0.203-0.757-1.604l1.713-5.432zm3.7 1.1c0.204-0.687 0.523-0.592 0.904-0.48 1.042 0.31 1.368 1.327 1.036 2.45-0.2 0.675-0.452 1.298-2.018 0.834-0.31-0.093-0.69-0.206-0.606-0.492l0.685-2.313zm-2.837 4.926c-0.428 1.443-1.15 0.818-1.26 1.185-0.067 0.23 0.16 0.258 0.273 0.292 0.515 0.152 1.044 0.26 1.6 0.424 0.433 0.13 0.698 0.258 0.873 0.31 0.237 0.07 0.34 0.025 0.37-0.078 0.122-0.412-1.037-0.245-0.674-1.47l0.587-1.98c0.118-0.4 0.08-0.5 0.626-0.338 0.515 0.153 0.67 0.31 0.757 0.885l0.33 2.064c0.123 0.76 0.24 1.578 1.053 1.82 0.412 0.12 1.167 0.07 1.272-0.284 0.027-0.092-0.014-0.18-0.107-0.206-0.102-0.03-0.225 0.007-0.33-0.023-0.08-0.024-0.277-0.082-0.315-0.292-0.315-1.663-0.7-3.582-0.68-3.65 0.035-0.116 0.365-0.13 0.74-0.305 0.382-0.186 0.806-0.52 1.023-1.254 0.156-0.528 0.428-2.203-1.828-2.87-0.69-0.206-1.405-0.368-2.095-0.572-0.65-0.192-0.718-0.263-1.192-0.403-0.124-0.037-0.244-0.01-0.278 0.104-0.122 0.41 1.127 0.32 0.747 1.603l-1.492 5.037zm8.42 2.46c-0.33 1.382-1.378 0.54-1.487 0.994-0.06 0.256 0.12 0.287 0.307 0.333 0.418 0.1 0.774 0.136 1.474 0.304s1.034 0.298 1.452 0.398c0.303 0.073 0.504 0.158 0.57-0.12 0.08-0.326-1.34-0.31-0.997-1.74l1.26-5.247c0.134-0.557 0.252-0.59 0.68-0.487l0.89 0.214c1.212 0.242 0.568 1.45 0.986 1.55 0.27 0.066 0.265-0.414 0.277-0.558l0.142-1.096c0.016-0.12 0.055-0.28-0.1-0.32-0.973-0.232-1.685-0.354-3.21-0.72-1.526-0.367-2.215-0.58-3.187-0.814-0.156-0.038-0.195 0.124-0.234 0.238l-0.536 1.493c-0.057 0.145-0.18 0.386 0.038 0.44 0.47 0.11 0.522-1.485 1.703-1.2l0.878 0.21c0.428 0.102 0.52 0.185 0.385 0.743l-1.293 5.387zm12.7-3.24c0.414-0.64 0.836-0.502 0.886-0.772 0.037-0.2-0.117-0.192-0.34-0.233-0.295-0.055-0.6-0.063-0.896-0.117-0.306-0.057-0.593-0.16-0.9-0.216-0.126-0.024-0.426-0.115-0.468 0.108-0.076 0.41 1.072 0.174 0.867 1.278-0.033 0.188-0.13 0.595-0.593 1.322l-2.11 3.3c-0.047 0.078-0.12 0.234-0.183 0.222-0.063-0.01-0.085-0.186-0.102-0.274l-0.673-4.035c-0.133-0.765-0.167-1.342-0.102-1.694 0.09-0.494 0.693-0.2 0.75-0.518 0.038-0.2-0.017-0.198-0.355-0.26-0.17-0.032-0.484-0.04-1.16-0.167-0.36-0.066-0.71-0.18-1.06-0.244-0.157-0.03-0.467-0.184-0.52 0.098-0.015 0.082 0.11 0.178 0.14 0.196 0.41 0.198 0.534 0.354 0.63 0.845l1.364 7.32c0.1 0.53 0.183 0.666 0.288 0.685 0.116 0.022 0.182-0.04 0.355-0.323l4.182-6.523zm0.6 6.73c0.006 0.292-0.02 0.384 0.233 0.5 0.59 0.255 1.082 0.628 1.73 0.736 1.387 0.234 2.538-0.65 2.796-2.194 0.25-1.496-0.365-2.12-1.406-2.862-1.304-0.933-1.862-1.184-1.73-1.973 0.132-0.788 0.684-1.155 1.384-1.038 1.823 0.305 1.615 2.522 1.86 2.563 0.232 0.04 0.288-0.097 0.31-0.36l0.147-1.598c0.026-0.274 0.087-0.445-0.072-0.472-0.138-0.023-0.435 0.12-0.572 0.098-0.318-0.053-0.686-0.587-1.556-0.732-1.24-0.207-2.253 0.64-2.48 1.995-0.207 1.236 0.342 1.8 1.178 2.4 1.567 1.122 2.21 1.387 2.042 2.388-0.158 0.942-0.89 1.4-1.716 1.263-1.176-0.197-1.654-1.38-1.804-2.566-0.016-0.16-0.02-0.27-0.19-0.298-0.265-0.045-0.216 0.315-0.212 0.485l0.06 1.668zm15.82-4.47c0.345-0.68 0.78-0.585 0.8-0.86 0.017-0.2-0.136-0.177-0.36-0.195-0.3-0.025-0.605 0-0.905-0.024-0.31-0.025-0.607-0.096-0.918-0.12-0.128-0.01-0.436-0.07-0.454 0.155-0.032 0.418 1.085 0.063 0.997 1.182-0.015 0.19-0.07 0.605-0.453 1.378l-1.753 3.503c-0.038 0.08-0.094 0.244-0.158 0.24-0.064-0.008-0.105-0.177-0.13-0.263l-1.09-3.943c-0.212-0.747-0.307-1.317-0.28-1.674 0.04-0.5 0.67-0.27 0.694-0.593 0.016-0.202-0.038-0.194-0.38-0.22-0.173-0.014-0.487 0.01-1.173-0.045-0.364-0.03-0.724-0.105-1.078-0.133-0.16-0.013-0.485-0.134-0.508 0.15-0.007 0.085 0.128 0.167 0.16 0.182 0.428 0.153 0.568 0.296 0.714 0.775l2.123 7.136c0.154 0.516 0.25 0.643 0.36 0.65 0.116 0.01 0.176-0.057 0.318-0.357l3.478-6.926z"/>
<path d="m307.58 308.48c-0.01 1.218-1.04 0.994-1.045 1.472-0.002 0.203 0.213 0.145 0.33 0.146 0.292 0 0.582-0.043 0.926-0.04 0.376 0.007 0.74 0.055 1.268 0.06 0.14 0 0.408 0.014 0.41-0.153 0.004-0.56-1.38 0.24-1.36-2.053l0.037-4.06c0-0.108 0.024-0.19 0.088-0.19 0.054 0 0.118 0.06 0.193 0.156l5.115 6.255c0.075 0.096 0.128 0.168 0.278 0.17 0.13 0 0.13-0.095 0.133-0.358l0.058-6.698c0.01-1.254 0.922-0.96 0.925-1.318 0-0.036 0-0.156-0.204-0.158-0.097 0-0.473 0.044-1.15 0.038-0.742-0.007-1.053-0.057-1.225-0.058-0.14 0-0.172 0.118-0.173 0.2-0.003 0.395 1.31 0.192 1.3 1.278l-0.034 3.977c-0.004 0.298-0.026 0.44-0.09 0.44-0.065 0-0.192-0.144-0.33-0.313l-4.275-5.303c-0.19-0.228-0.062-0.31-0.405-0.313-0.57-0.006-0.85 0.04-1.13 0.038-0.203 0-0.396-0.05-0.6-0.053-0.13 0-0.184 0.093-0.185 0.2-0.006 0.574 1.205-0.192 1.185 2.1l-0.04 4.538zm10.41-5.38c0.01-1.134 0.813-0.697 0.816-1.103 0-0.143-0.052-0.167-0.375-0.17-0.61-0.006-0.998 0.04-1.385 0.036-0.376 0-0.795-0.055-1.214-0.058-0.096 0-0.364-0.04-0.366 0.164-0.003 0.418 1.154 0.094 1.144 1.18l0.01 5.732c-0.01 1.134-0.78 0.817-0.784 1.235 0 0.058 0.02 0.142 0.117 0.143 0.28 0.007 0.743-0.04 1.205-0.037 0.838 0.007 1.235 0.058 1.633 0.062 0.247 0 0.344-0.045 0.345-0.176 0.003-0.382-1.205 0.157-1.192-1.312l0.05-5.696zm4.51 5.55c0.013 1.42-1.207 0.858-1.203 1.324 0.003 0.263 0.185 0.25 0.38 0.247 0.428-0.006 0.782-0.054 1.503-0.06 0.72-0.007 1.075 0.038 1.504 0.034 0.312 0 0.527 0.03 0.525-0.255-0.003-0.335-1.375 0.023-1.388-1.445l-0.047-5.397c-0.005-0.572 0.102-0.633 0.542-0.637l0.913-0.007c1.236-0.058 0.904 1.27 1.334 1.266 0.278 0 0.156-0.467 0.133-0.61l-0.128-1.097c-0.012-0.12-0.013-0.287-0.174-0.285-1 0.01-1.718 0.062-3.287 0.076-1.57 0.013-2.29-0.028-3.29-0.02-0.16 0-0.16 0.17-0.17 0.29l-0.157 1.577c-0.02 0.155-0.082 0.418 0.144 0.416 0.483-0.007 0.147-1.566 1.36-1.577l0.904-0.01c0.44-0.005 0.55 0.056 0.554 0.63l0.048 5.54zm6.26-2.26c-0.193 0.015-0.342 0.04-0.35-0.08-0.014-0.167 0.04-0.303 0.082-0.45l0.66-2.172c0.042-0.135 0.084-0.15 0.106-0.152 0.053-0.007 0.02 0 0.093 0.088l1.048 2.086c0.065 0.138 0.14 0.264 0.153 0.43 0.008 0.12-0.142 0.12-0.335 0.135l-1.457 0.114zm1.84 0.502c0.278-0.022 0.34 0.093 0.768 0.993 0.143 0.31 0.235 0.52 0.256 0.782 0.056 0.726-0.715 0.655-0.688 1 0.013 0.167 0.15 0.132 0.343 0.117 0.31-0.026 0.704-0.105 1.175-0.142 0.707-0.055 1-0.03 1.386-0.06 0.29-0.024 0.388-0.008 0.372-0.21-0.03-0.393-0.573 0.117-0.983-0.7l-3.466-7.06c-0.168-0.345-0.19-0.367-0.288-0.36-0.14 0.012-0.175 0.24-0.235 0.438l-2.337 7.43c-0.215 0.688-0.767 0.66-0.745 0.933 0.013 0.154 0.18 0.117 0.33 0.105 0.312-0.024 0.62-0.097 0.94-0.122 0.343-0.027 0.668-0.006 1.01-0.03 0.226-0.02 0.565 0.038 0.545-0.212-0.025-0.32-1.167-0.038-1.235-0.896-0.022-0.286 0.095-0.714 0.15-0.958 0.186-0.805 0.407-0.87 0.59-0.885l2.11-0.165zm8.3-4.94c-0.11-0.817-0.068-0.835 1.222-1.004 2.056-0.27 1.407 1.223 1.908 1.157 0.245-0.033 0.14-0.416 0.11-0.57l-0.197-1.165c-0.015-0.107-0.104-0.215-0.243-0.197-0.938 0.123-1.667 0.267-2.423 0.367-1.63 0.214-2.404 0.268-2.84 0.326-0.15 0.02-0.222 0.126-0.208 0.233 0.06 0.473 1.215-0.064 1.356 1l0.73 5.542c0.19 1.444-0.705 0.912-0.633 1.456 0.01 0.072 0.08 0.123 0.22 0.105 0.585-0.077 1.027-0.184 1.357-0.227 0.47-0.062 0.87-0.066 1.274-0.12 0.266-0.035 0.496-0.017 0.465-0.254-0.043-0.32-1.208 0.135-1.38-1.18l-0.232-1.75c-0.09-0.688-0.15-0.824 0.34-0.89l0.787-0.102c1.108-0.146 0.975 1.148 1.316 1.103 0.257-0.034 0.137-0.45 0.106-0.604l-0.352-2.096c-0.053-0.32-0.167-0.28-0.24-0.27-0.214 0.028-0.103 1.122-1.02 1.242l-0.67 0.09c-0.46 0.06-0.47-0.024-0.537-0.533l-0.218-1.657zm3.93 2.71c0.44 2.383 2.16 3.703 4.285 3.31 3.37-0.625 3.482-3.62 3.177-5.265-0.46-2.49-2.316-3.712-4.372-3.306-2.52 0.49-3.568 2.688-3.09 5.26zm1.174-0.91c-0.315-1.703-0.087-3.422 1.692-3.788 1.36-0.276 2.9 0.847 3.38 3.442 0.363 1.95 0.063 3.632-1.748 4.004-1.885 0.386-3.006-1.945-3.324-3.66zm8.34-4.16c-0.168-0.696 0.156-0.774 0.543-0.867 1.055-0.253 1.847 0.465 2.12 1.603 0.164 0.685 0.258 1.35-1.33 1.732-0.314 0.075-0.7 0.168-0.77-0.122l-0.564-2.345zm0.005 5.685c0.35 1.463-0.587 1.283-0.498 1.654 0.056 0.23 0.267 0.144 0.382 0.116 0.52-0.125 1.033-0.297 1.597-0.432 0.44-0.106 0.732-0.127 0.91-0.17 0.24-0.057 0.307-0.147 0.282-0.252-0.1-0.418-1.022 0.307-1.32-0.936l-0.482-2.008c-0.098-0.407-0.18-0.473 0.374-0.606 0.522-0.125 0.735-0.066 1.098 0.387l1.32 1.623c0.484 0.596 0.994 1.247 1.82 1.05 0.418-0.1 1.046-0.523 0.96-0.883-0.022-0.092-0.102-0.147-0.196-0.124-0.105 0.025-0.192 0.12-0.297 0.145-0.083 0.02-0.282 0.068-0.42-0.095-1.104-1.282-2.397-2.753-2.413-2.822-0.028-0.116 0.25-0.294 0.49-0.634 0.235-0.352 0.435-0.854 0.256-1.597-0.128-0.534-0.73-2.12-3.018-1.572-0.7 0.17-1.4 0.386-2.1 0.554-0.658 0.158-0.753 0.132-1.234 0.247-0.125 0.03-0.216 0.114-0.188 0.23 0.1 0.42 1.136-0.284 1.448 1.016l1.227 5.11zm8.63-1.93c0.356 1.376-0.963 1.125-0.846 1.576 0.065 0.254 0.24 0.197 0.427 0.15 0.416-0.11 0.747-0.244 1.444-0.424 0.698-0.182 1.054-0.224 1.47-0.332 0.3-0.078 0.518-0.097 0.447-0.375-0.084-0.323-1.33 0.357-1.697-1.065l-1.35-5.226c-0.145-0.555-0.056-0.64 0.37-0.75l0.885-0.228c1.185-0.356 1.184 1.013 1.6 0.906 0.27-0.07 0.04-0.492-0.017-0.625l-0.39-1.034c-0.04-0.112-0.082-0.274-0.238-0.233-0.968 0.25-1.653 0.477-3.172 0.87-1.52 0.392-2.228 0.526-3.195 0.776-0.156 0.04-0.115 0.203-0.095 0.32l0.228 1.57c0.018 0.156 0.02 0.426 0.24 0.37 0.468-0.12-0.236-1.555 0.94-1.86l0.874-0.225c0.427-0.11 0.545-0.08 0.69 0.475l1.386 5.364zm5.49-7.34c-0.303-1.093 0.588-0.894 0.48-1.286-0.038-0.138-0.097-0.146-0.407-0.06-0.59 0.163-0.95 0.313-1.323 0.416-0.363 0.1-0.78 0.166-1.183 0.278-0.093 0.027-0.36 0.064-0.307 0.26 0.112 0.403 1.193-0.244 1.483 0.803l1.532 5.523c0.303 1.093-0.526 1-0.414 1.404 0.016 0.058 0.06 0.132 0.152 0.106 0.27-0.074 0.702-0.244 1.147-0.367 0.808-0.225 1.204-0.286 1.587-0.392 0.24-0.066 0.32-0.138 0.284-0.264-0.102-0.368-1.115 0.482-1.508-0.933l-1.522-5.487zm2.3 2.67c0.77 2.298 2.657 3.367 4.705 2.68 3.25-1.086 2.945-4.07 2.414-5.654-0.803-2.4-2.81-3.353-4.79-2.666-2.428 0.838-3.158 3.16-2.33 5.64zm1.038-1.065c-0.55-1.642-0.563-3.375 1.148-3.986 1.308-0.46 2.99 0.436 3.828 2.94 0.63 1.88 0.566 3.587-1.175 4.208-1.813 0.644-3.247-1.508-3.8-3.16zm7.62-5.42c-0.262-0.666 0.048-0.788 0.418-0.934 1.01-0.398 1.894 0.204 2.323 1.292 0.26 0.656 0.444 1.302-1.076 1.9-0.3 0.12-0.67 0.264-0.78-0.014l-0.883-2.244zm0.797 5.63c0.552 1.398-0.403 1.35-0.263 1.706 0.088 0.223 0.285 0.107 0.395 0.063 0.5-0.197 0.98-0.438 1.52-0.65 0.42-0.166 0.71-0.228 0.878-0.295 0.23-0.09 0.284-0.19 0.245-0.29-0.158-0.4-0.968 0.447-1.436-0.742l-0.758-1.922c-0.154-0.39-0.244-0.443 0.286-0.652 0.5-0.197 0.72-0.168 1.14 0.23l1.533 1.425c0.563 0.523 1.158 1.097 1.948 0.786 0.4-0.157 0.964-0.662 0.828-1.006-0.035-0.09-0.12-0.132-0.21-0.097-0.1 0.04-0.175 0.146-0.275 0.185-0.08 0.03-0.27 0.106-0.43-0.036-1.27-1.116-2.755-2.392-2.78-2.46-0.045-0.11 0.206-0.324 0.395-0.694 0.185-0.38 0.313-0.906 0.033-1.617-0.2-0.51-1.018-1.998-3.208-1.135-0.67 0.264-1.332 0.576-2.002 0.84-0.63 0.248-0.728 0.235-1.188 0.416-0.12 0.05-0.198 0.143-0.154 0.254 0.157 0.4 1.086-0.44 1.576 0.804l1.925 4.89z"/>
</g>
<g transform="matrix(.64 0 0 .64 0 16)" fill="#fedf00">
<path d="m412.66 249.25h82.18v82.023h-82.18z" fill="#d52b1e"/>
<path id="a" fill="#fff" d="m451.2 313.83s-0.048 2.93-0.855 5.287c-0.933 2.72-0.94 2.72-1.796 4.043-1.153 1.78-2.558 3.082-3.81 3.887-1.96 1.258-3.95 1.888-5.95 1.71-5.49-0.486-8.037-6.44-9.282-11.273-1.32-5.13-5.073-7.923-7.463-6.064-1.4 1.09-1.48 2.914-0.31 4.665 1.243 1.866 4.098 2.8 4.098 2.8l-2.933 3.73s-6.302-0.82-7.535-7.392c-0.466-2.488 0.742-7.134 4.89-8.522 5.298-1.773 8.687 2.005 10.32 5.192 2.245 4.384 3.21 12.434 9.43 11.19 3.383-0.677 4.975-5.598 4.975-7.852l2.467-2.644 3.654 1.167 0.1 0.078z"/>
<use width="100%" xlink:href="#a" transform="matrix(-1 0 0 1 907.52 0)" height="100%"/>
<path d="m461.12 278.95l10.76-11.643s1.624-1.31 1.61-3.401l-2.22 0.345-0.496-1.14-0.11-1.148 2.98-0.63c0.05-0.484 0.008-0.85 0.093-1.384 0.08-0.494 0.19-0.76 0.31-1.244l-3.264 0.218c0.166-0.57 0.128-0.875 0.31-1.406 0.155-0.447 0.198-0.618 0.504-1.103 0.606-0.09 1.158-0.228 1.907-0.304 0.728-0.074 1.143-0.04 1.873-0.086 1.78-3.32 9.19-6.373 14.454-0.904 3.81 3.958 2.99 11.22-1.95 13.14-2.798 1.087-5.053 0.444-6.86-1.11l1.97-3.867c2.72 1.625 4.975-0.396 4.82-2.495-0.197-2.654-1.92-4.297-4.354-4.51-2.254-0.197-3.872 1.093-4.898 3.11-0.626 1.23-0.336 2.134-0.544 3.5-0.226 1.482-0.1 2.31-0.537 3.81-0.32 1.087-1.155 2.433-2.37 3.59l-11.03 11.936-42.94 46.445-3.228-2.984 43.21-46.737z"/>
<path d="m429.51 283.04s2.7 13.372 11.874 33.43c4.665-1.71 7.42-2.798 12.362-2.798 4.943 0 7.697 0.933 12.362 2.8 9.174-20.06 11.874-33.432 11.874-33.432l-24.236-31.177-24.236 31.177z" fill="#fff"/>
<path d="m456.12 262.41l16.82 21.637s-2.243 10.52-9.078 26.354c-2.646-0.6-4.916-1.127-7.733-1.318l-0.01-46.67zm-4.74 0l-16.82 21.637s2.243 10.52 9.078 26.354c2.646-0.6 4.916-1.127 7.733-1.318l0.01-46.67z"/>
</g>
<g fill="#d52b1e">
<path d="m322.3 175.52h52.6v52.495h-52.596z" fill="#fedf00"/>
<path d="m329.67 175.52h7.842v52.495h-7.842zm15.03 0h7.842v52.495h-7.842zm15.02 0h7.842v52.495h-7.842z"/>
</g>
<g stroke="#d52b1e" stroke-width=".32832" fill="#d52b1e">
<path stroke="none" d="m264.3 273.54c0.15 0.946 0.487 2.568 1.385 4.23 0.945 1.493 0.597 1.452 2.737 3.84 1.053 1.176 2.696 2.183 3.985 2.877 1.294 0.696 2.25 1.038 4.38 1.596 4.17 1.095 7.097 1.163 10.606 1.023 2.738-0.11 4.828-0.447 6.56-0.68 2.468-0.332 4.307-0.53 7.115-0.647 1.365-0.057 2.655-0.07 3.93 0 1.54 0.085 3.06 0.323 4.678 0.647 3.483 0.696 7.016 2.04 7.016 2.04l0.01-54.82-52.605-0.014v37.467s0.108 1.83 0.204 2.44z" fill="#fedf00"/>
<path d="m270.41 283.16l2.466 1.435 3.378 1.215-0.004-52.177h-5.84zm29.22 2.37l0.006-51.904h-5.852v52.734s4.005-0.514 5.844-0.633zm11.67-51.9h-5.832v52.084c1.9 0.205 3.855 0.545 5.844 1.077l-0.012-53.16zm-23.35 0v53.332c-0.06 0.006-3.906 0.202-5.872-0.002v-53.32z"/>
</g>
<g transform="matrix(.64 0 0 .64 0 16)">
<path d="m585.48 402.39c-0.233 1.477-0.76 4.012-2.163 6.608-1.477 2.333-0.932 2.27-4.275 6-1.646 1.838-4.214 3.412-6.228 4.496-2.02 1.09-3.516 1.623-6.84 2.495-6.52 1.71-11.092 1.817-16.575 1.598-4.28-0.17-7.545-0.698-10.25-1.062-3.858-0.518-6.73-0.827-11.118-1.01-2.133-0.09-4.15-0.11-6.142 0-2.406 0.132-4.782 0.505-7.31 1.01-5.44 1.09-11.032 3.188-11.032 3.188l0.057-85.655 82.193-0.024v58.543s-0.168 2.86-0.318 3.81z" fill="#fedf00"/>
<g id="b">
<path d="m524.62 346.91s-0.366 0.175-0.594 0.28c-0.298 0.33-0.447 0.52-0.78 0.814-0.444 0.39-0.77 0.503-1.25 0.843-0.23 0.164-0.42 0.216-0.595 0.438-0.25 0.32-0.078 0.63-0.25 1-0.185 0.405-0.368 0.597-0.655 0.938-0.366 0.434-0.65 0.61-1.063 1-0.418 0.395-0.587 0.726-1.093 1-0.135 0.072-0.2 0.142-0.345 0.187-0.216 0.067-0.35-0.01-0.563 0.062-0.388 0.134-0.51 0.563-0.78 0.72 0.11 0.217 0.106 0.37 0.218 0.593 0.158 0.323 0.705 1.215 0.812 1.437 0.21 0.305 0.27 0.7 0.532 0.78 0.537 0.17 0.858 0.155 1.312 0.126 0.792 0.182 1.28 0.158 2.03 0.47 0.614 0.253 0.864 0.574 1.47 0.843 0.474 0.21 0.772 0.34 1.28 0.438 0.388 0.074 0.61 0.132 1 0.094 0.25-0.024 0.378-0.12 0.626-0.156 0.05-0.01 0.08 0 0.125 0l-0.03 0.375c-0.006 0 0.004 0.03 0 0.032v0.062h0.062l2.06 0.906a1.72 1.72 0 0 0 -0.186 0.375c-0.098 0.32-0.114 0.69-0.063 0.844 0.63 1.887 1.16 3.067 1.47 3.187 0.615 0.236 0.806 0.865 1.156 1.5-0.123 0.132-0.227 0.2-0.344 0.312-0.614 0.59-1.152 1.008-1.656 1.812-0.745 1.188-1.248 1.203-0.312 2.78 0.55 0.926 0.814 1.1 1.53 2.407 0.363 0.658 0.563 1.172 0.782 1.968 0.207 0.752 0.278 1.19 0.313 1.97l0.967 0.374 0.657-0.657 0.625-1.187 0.03-0.906c-0.24-0.203-0.308-0.474-0.25-0.782 0.07-0.368 0.514-0.29 0.72-0.625 0.282-0.46-0.333-0.734-0.658-1.093-0.605-0.67-1.43-0.833-1.625-1.844-0.052-0.273 0.078-0.427 0.375-0.72 0.856-0.84 1.13-0.972 1.97-1.81 0.24 0.14 0.61 0.192 0.968 0.124 0.28-0.053 0.53 0.125 1.406 0.375 0.61 0.173 0.873 0.086 1.22 0.03l0.374-0.093c0.05 0.21 0.11 0.415 0.125 0.687 0.053 1.062-0.155 2.996 0.156 3.5 0.132 0.214 0.187 0.333 0.282 0.564 0.1 0.24 0.214 0.396 0.22 0.656 0.01 0.696 0.046 1.14 0 1.875-0.045 0.69-0.104 1.042-0.22 1.75-0.074 0.45-0.165 0.714-0.437 1.062-0.283 0.364-0.595 0.418-0.97 0.688l-0.092 1 1.125 0.47 1.28 0.31 0.688-0.28c0-0.254 0.04-0.4 0.156-0.625 0.128-0.247 0.232-0.44 0.47-0.53 0.362-0.144 0.76 0.128 0.905-0.095 0.16-0.242 0.06-0.338 0.032-0.75-0.047-0.662-0.185-0.99-0.283-1.657-0.164-1.11-0.21-1.686-0.156-2.75 0.032-0.616 0.04-0.956 0.157-1.562 0.172-0.883 0.486-1.31 0.688-2.188 0.225-0.977 0.265-1.606 0.375-2.468 3.17 0.452 5.807 0.397 9.344-0.375 0.17-0.037 0.75-0.25 0.75-0.25 0.8 0.69 1.706 1.264 2.718 1.625-0.006 0.1-0.015 0.845 0 0.968 0.037 0.288-0.04 0.482 0.125 0.72 0.106 0.15 0.197 0.24 0.375 0.28 0.263 0.06 0.455 0.023 0.657-0.156 0.225-0.2 0.183-0.454 0.25-0.75 0.03-0.14 0.006-0.564 0-0.687 0.365 0.055 0.49 0.062 0.874 0.062 0.357 0 0.53 0.014 0.875-0.03 0.004 0.08 0.02 0.368 0.03 0.467 0.027 0.245-0.076 0.435 0.03 0.657 0.112 0.23 0.25 0.36 0.5 0.407a0.66 0.66 0 0 0 0.532 -0.094c0.296-0.185 0.264-0.498 0.313-0.844 0.015-0.11 0.01-0.693 0-0.782 0.212-0.067 0.827-0.292 1.03-0.375a5.12 5.12 0 0 1 -0.093 0.812c-0.07 0.376-0.12 0.58-0.25 0.938-0.206 0.568-0.44 0.856-0.75 1.375-0.376 0.634-0.572 0.985-1.03 1.562-0.212 0.266-0.358 0.386-0.563 0.657-0.257 0.337-0.343 0.566-0.595 0.906-0.324 0.438-0.51 0.724-0.938 1.062-0.693 0.55-1.15 0.11-2.093 0.844l-0.22 1.03 1.438 0.532 1.282 0.25 0.437-0.25c-0.01-0.3 0.033-0.514 0.22-0.75 0.213-0.27 0.44-0.35 0.78-0.407 0.362-0.06 0.748 0.034 1.032-0.218 0.35-0.31 0.35-0.914 0.625-1.47 0.86-1.723 1.62-2.562 3-3.905 0.613-0.597 1.138-0.758 1.657-1.438 0.246-0.322 0.52-0.47 0.53-0.875 0.01-0.284-0.143-0.416-0.218-0.688-0.104-0.377-0.187-1-0.187-1 1.52 0.744 0.97 0.646 1.25 1.406 0.224 0.615-0.034 1.04 0.06 1.687 0.112 0.756 0.467 1.114 0.532 1.875 0.078 0.905-0.143 1.42-0.312 2.313-0.15 0.785-0.13 1.277-0.47 2-0.32 0.69-0.57 1.077-1.155 1.562-0.21 0.175-0.37 0.25-0.594 0.407l-0.124 1.03 1.125 0.376 1.626 0.437 0.375-0.343c0.165-0.655-0.054-1.617 0.407-1.688 0.406-0.062 0.693 0 0.782-0.312 0.035-0.132 0.057-0.326 0.092-0.625 0.22-1.886 0.422-3.646 0.625-4.5 0.23-0.968 0.215-1.178 0.407-1.907 0.175-0.664-0.086-0.282 0.406-1.687 0.734-2.097-0.208-2.375-1.063-3.656-0.462-0.693-0.622-0.944-0.687-1.5-0.097-0.817 0.164-1.495 0.125-2.75-0.04-1.32-0.023-2.16 0-2.875 0.115-0.053 0.222-0.12 0.344-0.188 1.17-0.642 1.635-0.836 2.374-2.47a3.43 3.43 0 0 0 0.312 -1.467c-0.005-0.332-0.065-0.652-0.094-1.032-0.03-0.4-0.19-0.637-0.312-0.937-0.13-0.318-0.325-0.56-0.563-0.844-0.772-0.924-1.78-1.132-2.718-1.47-1.485-0.53-2.506-0.433-4.126-0.56-1.673-0.133-2.607-0.16-4.282-0.063-2.006 0.115-3.128 0.52-5.125 0.75-1.915 0.223-2.977 0.37-4.906 0.407-2.26 0.042-4.42-0.46-5.78-0.344-2.45 0.21-2.493 0.762-6.188 1.063a66.916 66.916 0 0 1 -3.843 0.187l-2.158-0.687c0.857-0.306 1.067-0.488 1.47-1.03 0.27-0.367 0.232-0.68 0.562-1.064 0.266-0.312 0.443-0.622 0.78-0.97a2.2 2.2 0 0 0 -0.937 -0.436c-0.363-0.076-0.573-0.042-0.937 0-0.494 0.056-0.772 0.124-1.22 0.344-0.358 0.177-0.623 0.357-0.843 0.593 0 0-1.285-0.828-2.187-1.218-1.12-0.485-1.6-0.712-3-0.907zm1.97 11.906h0.06c-0.01 0.01-0.018 0.022-0.03 0.03l-0.03-0.03z" fill="#d52b1e"/>
<g stroke="#fedf00" stroke-width=".987" stroke-linecap="round" fill="none">
<path d="m568.77 359.52l-0.763 0.244c-0.867 0.402-1.578 0.418-2.6 0.496-2.644 0.202-4.272-1.057-6.998-0.847-1.405 0.108-2.026 1.19-3.46 1.548a9.247 9.247 0 0 1 -1.702 0.283l0.512-1.034s-1.284 0.26-2.115 0.263a7.55 7.55 0 0 1 -1.523 -0.13l1.018-0.95s-0.814-0.133-1.294-0.336a3.918 3.918 0 0 1 -1.06 -0.63 20.484 20.484 0 0 0 1.69 -0.353c1.556-0.385 2.04-1.147 3.89-1.325 1.15-0.112 3.032-0.047 7.643 0.716 3.035 0.502 4.38 0.267 5.535-0.258 0.76-0.345 1.01-1.01 1.103-1.788 0.092-0.776-0.404-1.404-0.874-1.81-0.123-0.106-0.444-0.335-1.113-0.363"/>
<path stroke-width=".513" stroke-linecap="butt" d="m524.8 350.61c-0.53-0.066-0.884 0.01-1.34 0.291-0.48 0.297-0.54 0.698-0.888 1.144 0.445 0.1 0.7 0.36 1.142 0.253 0.347-0.084 0.527-0.238 0.76-0.507 0.317-0.363 0.433-0.676 0.43-1.156l-0.104-0.024z" fill="#fcd900"/>
<path d="m536.04 363.79s0.264 0.48 0.407 0.8c0.248 0.554 0.376 0.878 0.524 1.467 0.2 0.8 0.115 1.284 0.242 2.098 0.022 0.143 0.05 0.263 0.076 0.376l-0.05 1.13m6.8-6.95s-0.22 0.812-0.354 1.333c-0.352 1.353-0.676 2.087-0.944 3.46-0.045 0.23-0.078 0.442-0.103 0.644m-10.86-3.97c0.79 0.176 0.544 3.36 1.79 4.09"/>
<path stroke-linecap="butt" d="m560.12 369.78l0.384-0.25a8.154 8.154 0 0 0 2.686 -1.79"/>
<path d="m552.38 368.02h0.007c3.533-0.883 5.885-2.648 7.58-2.87"/>
<path d="m555.97 363.61c0.3-0.01 0.585-0.033 0.83-0.068 1.467-0.21 1.703 0.687 2.725 1.258 1.857 1.04 2.098 2.307 4.3 3.356 0.116 0.055 0.223 0.107 0.32 0.155l0.848 0.43"/>
<path stroke-width=".513" stroke-linecap="butt" d="m517.7 354.53c0.268 0.067 0.432 0.08 0.707 0.054 0.332-0.03 0.484-0.238 0.817-0.25 0.27-0.01 0.462-0.03 0.684 0.126 0.14 0.1 0.2 0.19 0.28 0.342 0.087 0.166 0.163 0.282 0.124 0.466-0.06 0.284-0.324 0.418-0.614 0.42-0.237 0-0.434-0.062-0.544-0.272a0.467 0.467 0 0 1 -0.04 -0.39c-0.283 0.108-0.49 0.112-0.776 0.017a1.04 1.04 0 0 1 -0.638 -0.513z" fill="#fcd900"/>
</g>
<g fill="#0065bd">
<path d="m525.13 364.17c-0.797-0.237-1.966-0.826-1.966-0.826 0.323-0.25 0.587-0.265 0.863-0.555 0.39-0.41 0.373-0.79 0.593-1.32 0.215-0.52 0.184-0.954 0.67-1.343 0.29-0.23 0.763-0.27 1.12-0.165 0.352 0.113 0.758 0.4 0.847 0.766 0.137 0.56-0.16 0.886-0.246 1.454-0.085 0.568-0.292 0.894-0.194 1.46 0.066 0.375 0.227 0.52 0.354 0.907 0 0-1.264-0.15-2.04-0.38zm-0.99 0.95a0.628 0.628 0 1 1 0.64 0.618 0.627 0.627 0 0 1 -0.64 -0.618zm-1.76-16.51s-0.09-0.06-0.144-0.104c-0.383-0.31-0.42-0.653-0.6-1.11-0.173-0.434-0.258-0.69-0.316-1.154-0.05-0.406 0-0.64 0-1.048 0-0.37 0.04-0.578 0-0.944-0.04-0.375-0.03-0.612-0.21-0.944-0.097-0.18-0.394-0.337-0.314-0.42 0.094-0.096 0.257-0.02 0.42 0 0.4 0.05 0.63 0.166 0.943 0.42 0.376 0.306 0.525 0.57 0.67 1.05 0.167 0.547 0.25 0.897 0.408 1.467 0.083 0.295 0.13 0.47 0.284 0.734 0.16 0.275 0.32 0.383 0.524 0.63l-0.01 0.022c-0.3 0.326-0.445 0.538-0.778 0.833-0.305 0.27-0.56 0.403-0.846 0.573l-0.033-0.01zm3.6 10.64l2.23 1.03c1.15-0.634 2.474-1.923 3.497-3.918 0.88-1.718 1.02-2.65 1.364-4.313l-1.788-0.582-0.357 0.073c-0.552 1.724-0.693 2.705-1.618 4.193-0.802 1.29-1.718 2.305-2.65 3.034l-0.677 0.483zm4.94 18.12c0.36-0.493 0.513-0.81 0.922-1.264 0.456-0.505 0.8-0.702 1.312-1.15 0.155 0.015 0.335-0.012 0.48 0.07-0.027 0.546-0.055 0.95-0.18 1.542-0.1 0.48-0.186 0.746-0.346 1.21-0.135 0.388-0.16 0.64-0.39 0.98-0.154 0.225-0.29 0.315-0.476 0.517-0.51-0.742-1.33-1.297-1.322-1.906zm33.01 1.85c0.573 0.21 0.92 0.27 1.47 0.538 0.61 0.3 0.894 0.576 1.466 0.944 0.027 0.154 0.104 0.32 0.063 0.483-0.532 0.122-0.928 0.207-1.53 0.25a8.39 8.39 0 0 1 -1.26 0c-0.41-0.022-0.658 0.025-1.048-0.104-0.26-0.085-0.384-0.19-0.63-0.313 0.573-0.696 0.88-1.637 1.468-1.797zm-9.76-2.04c0.573 0.21 0.92 0.27 1.468 0.538 0.61 0.3 0.896 0.576 1.468 0.944 0.027 0.154 0.104 0.32 0.063 0.482-0.532 0.123-0.928 0.208-1.532 0.252-0.49 0.036-0.768 0.027-1.258 0-0.41-0.023-0.658 0.024-1.048-0.105-0.26-0.085-0.384-0.19-0.63-0.313 0.573-0.696 0.88-1.637 1.468-1.797zm-17.34 2.13c0.573 0.21 0.92 0.27 1.47 0.538 0.61 0.3 0.894 0.576 1.467 0.944 0.026 0.154 0.103 0.32 0.063 0.483-0.532 0.122-0.928 0.207-1.53 0.25-0.49 0.037-0.77 0.028-1.26 0-0.41-0.02-0.658 0.025-1.048-0.104-0.26-0.085-0.384-0.19-0.63-0.313 0.573-0.696 0.88-1.637 1.468-1.797zm-8.98-29.8c-0.613-0.278-1.05-1.045-0.66-1.594 0.155-0.22 0.412-0.174 0.565-0.395 0.19-0.272 0.142-0.507 0.136-0.838-0.006-0.377-0.142-0.573-0.208-0.944-0.072-0.405-0.14-0.636-0.136-1.048 0.005-0.628-0.038-1.076 0.345-1.573 0.246-0.317 0.662-0.592 0.826-0.612 0.147 0.136-0.057 0.502-0.033 0.822 0.036 0.462 0.13 0.717 0.288 1.153 0.203 0.563 0.48 0.81 0.704 1.363 0.208 0.516 0.4 0.808 0.42 1.363 0.015 0.457-0.025 0.736-0.21 1.154-0.165 0.37-0.3 0.58-0.61 0.84-0.27 0.224-0.458 0.324-0.796 0.418a1.15 1.15 0 0 1 -0.628 -0.108z"/>
</g>
</g>
<use y="36.591" width="100%" xlink:href="#b" height="100%"/>
</g>
<g stroke="#703d29" stroke-width=".797" fill="none">
<path stroke-width=".51008" d="m264.1 175.52h52.595v52.495h-52.595zm58.2 0h52.6v52.495h-52.596zm-58 98.02c0.15 0.946 0.487 2.568 1.385 4.23 0.945 1.493 0.597 1.452 2.737 3.84 1.053 1.176 2.696 2.183 3.985 2.877 1.294 0.696 2.25 1.038 4.38 1.596 4.17 1.095 7.097 1.163 10.606 1.023 2.738-0.11 4.828-0.447 6.56-0.68 2.468-0.332 4.307-0.53 7.115-0.647 1.365-0.057 2.655-0.07 3.93 0 1.54 0.085 3.06 0.323 4.678 0.647 3.483 0.696 7.016 2.04 7.016 2.04l0.01-54.82-52.605-0.014v37.467s0.108 1.83 0.204 2.44zm110.41-0.01c-0.15 0.945-0.486 2.567-1.384 4.23-0.945 1.492-0.597 1.45-2.736 3.84-1.054 1.175-2.697 2.182-3.986 2.876-1.293 0.697-2.25 1.04-4.377 1.597-4.172 1.095-7.1 1.163-10.608 1.023-2.738-0.11-4.828-0.446-6.56-0.68-2.468-0.33-4.307-0.53-7.115-0.646-1.365-0.057-2.655-0.07-3.93 0-1.54 0.085-3.06 0.323-4.678 0.647-3.483 0.697-7.06 2.04-7.06 2.04l0.035-54.82 52.604-0.014v37.468s-0.107 1.83-0.203 2.44z"/>
</g>
</svg>
