<svg xmlns="http://www.w3.org/2000/svg" xmlns:xlink="http://www.w3.org/1999/xlink" viewBox="0 0 600 400">
<path fill="#090" d="M0 0h600v400H0z"/>
<path fill="#bf0000" d="M0 0h400v400H0z"/>
<path d="M0 0h200v400H0z"/>
<g stroke="#bd6b00" stroke-width=".5" fill="#fff" fill-rule="evenodd">
<path d="M319.5 225.84h8.354c.03 3.158 1.88 6.55 4.48 8.494h-16.008c2.505-2.27 3.19-4.963 3.174-8.494z"/>
<path d="M266.71 178.53l4.574 5.04 56.934.093 4.668-5.04-14.56-.186-7.094-4.947-22.868-.093-6.627 5.133H266.71z" stroke="none"/>
<path d="M290.02 172.74l19.66-.02c2.662-1.408 3.492-5.902 3.48-8.416-.038-7.43-5.234-10.99-10.448-11.18-.78-.04-1.688-.648-1.895-1.36-.514-1.613-.38-2.64-.944-2.584-.5-.007-.353.94-.8 2.453-.244.752-1.09 1.494-1.933 1.537-6.49.324-10.676 5.062-10.513 11.134.11 4.015.577 6.413 3.393 8.437z"/>
<path d="M257.66 242.83h84.47l-7.562-6.16H265.22l-7.56 6.16z" stroke="none"/>
<path d="M296.39 219.69l1.54 4.62h3.5l-2.8-4.62h-2.24zm-1.96 4.62l.887 4.573 4.106.046-1.493-4.63h-3.5zm6.953.046l2.847 4.527h5.834l-4.573-4.575-4.1.048zm-34.44 10.36c3.095-2.878 5.07-5.335 5.086-8.866h7.56c.01 1.976.73 3.157 1.82 3.08l7.65-.047-.05-4.527h-5.56v-24.688c-.21-8.726 10.61-13.813 15.02-13.767l-26.28-.04v-.79h55.25l.04.8-26.65.05c7.9.02 15.52 7.5 15.58 13.82v7h-1.02l-.05-6.9c0-6.91-8.7-13.36-15.68-13.16-6.04.17-15.4 5.93-15.31 13.12v2.15l14.32.09-.14 2.47 2.25 1.44 4.49 1.43-.07 3.71 3.21.95.03 3.71 3.85 1.66v3.84l2.44 1.51-.11 3.89 3.31 2.33h-7.84l4.9 5.46h-7.23l-3.6-5.46h-4.76l2.14 5.42-5.09-.05-1.21-5.37h-6.2l.04 5.79h-22.2zm22.168-14.98v4.572h5.32l-1.07-4.573h-4.24z"/>
<path fill="none" d="M289.39 211.66h3.313v7.607h-3.313z"/>
<path d="M284.71 219.8h3.234l-.02-5.597c-.042-2.433 2.142-4.885 3.187-4.967 1.16-.044 2.87 2.297 2.93 4.776l.05 5.806 3.43-.007V205.4l-12.8.068V219.8zm25.59 3.34h4.013v3.127H310.3zm-2.38-5.37h4.013v3.127h-4.013zm-3.87-5.37h4.013v3.127h-4.013zm-3.31-4.52h4.013v3.127h-4.013z" fill="none"/>
<path d="M298.08 219.82l4.106.14 7.327 6.487v-3.827l-2.473-1.773v-3.034l-3.594-2.052v-3.26l-3.5-1.16v-4.44l-1.774-1.44-.092 14.38z" fill="none"/>
<path d="M315.43 210.35h.98v7.047h-.98z"/>
<g id="a">
<path d="M257.32 186.53c-1.234-1.982-2.712 2.75-7.788 6.27-2.363 1.61-4.01 5.894-4.025 8.713-.077 1.937.216 3.868 0 5.74-.137 1.187-1.372 3.817-.527 4.49 2.234 1.66 5.126 5.43 6.467 6.73 1.16 1.018 2.165-5.247 3.036-8.05.933-3.005.515-6.596 3.102-9.372 1.834-1.87 6.46-3.71 5.94-4.55l-6.205-9.96z"/>
<path d="M257.06 201.88a10.09 10.09 0 0 0-1.656-2.594c-.7-.792-1.525-1.457-2.438-1.78-.88-.326-1.78-.752-2.406-1.532a3.645 3.645 0 0 1-.72-1.47c-.123-.543-.122-1.21-.03-1.968-.11.08-.168.172-.28.25-2.364 1.608-4.017 5.9-4.032 8.72a27.804 27.804 0 0 0 0 2.31c.175.487.343.957.593 1.25.33.385.72.638 1.13.814.83.352 1.78.425 2.66.75.91.324 1.85 1.058 2.66 1.938a10.51 10.51 0 0 1 1.75 2.656c.07-.243.16-.604.22-.813.85-2.72.7-5.88 2.56-8.53z" fill="#bf0000"/>
<path d="M249.82 192.39c-.484 3.356 1.385 4.473 3.148 5.123 1.825.648 3.322 2.606 4.093 4.378m-11.76 1.55c.77 2.9 2.8 2.53 4.56 3.18 1.83.65 3.75 2.96 4.52 4.73" fill="none"/>
<path d="M255.61 184.48l.925-.594 17.752 29.898-.924.594-17.753-29.898z"/>
<path d="M257.52 183.29a2.046 2.046 0 1 1-4.092 0 2.046 2.046 0 1 1 4.092 0zm15.18-24.02h7.194v1.65H272.7zm0 3.13h7.194v13.784H272.7zm-.44-5.01l7.98.047c.312-2.706-2.39-5.63-3.966-5.6-1.56.076-4.076 2.956-4.014 5.553z"/>
<path stroke="none" d="M292.62 155.76c-1.52.64-2.688 2.377-3.406 4.375-.72 1.998-.992 4.267-.656 6.094v.03c.127.63.3 1.08.5 1.4s.422.51.687.56c.265.05.514-.1.656-.32.15-.22.22-.51.19-.85-.14-1.88-.13-3.74.31-5.41.45-1.68 1.34-3.17 2.97-4.38.3-.22.47-.47.5-.72.04-.26-.1-.48-.28-.63-.36-.3-.94-.41-1.47-.19zm.156.438c.37-.154.842-.064 1.03.093.096.08.107.14.095.22-.01.09-.07.24-.31.41-1.71 1.27-2.65 2.87-3.12 4.63s-.46 3.66-.31 5.57c.02.26-.05.46-.12.56s-.1.14-.18.13c-.08-.01-.25-.11-.4-.37s-.31-.65-.43-1.25c-.31-1.71-.03-3.94.66-5.87.7-1.92 1.81-3.53 3.13-4.09z" fill="#bd6b00"/>
<path stroke="none" d="M295.19 157.73c-1.52.64-2.5 2.292-3.03 4.188-.53 1.895-.615 4.065-.282 5.874.26 1.284.934 1.962 1.593 2.063.33.05.65-.08.85-.344.2-.26.26-.61.16-1.06-.37-1.5-.51-3.36-.25-5.06s.94-3.21 2.22-4.12c.3-.21.47-.46.5-.72.04-.25-.1-.5-.28-.65-.36-.3-.94-.37-1.47-.15zm.188.438c.37-.154.81-.064 1 .093.094.08.137.14.125.22-.012.09-.11.24-.344.41-1.42 1.01-2.13 2.67-2.41 4.44-.28 1.78-.11 3.67.28 5.22.08.36 0 .59-.1.72s-.22.19-.41.16c-.39-.06-.99-.55-1.22-1.72-.32-1.73-.23-3.87.28-5.69s1.45-3.28 2.78-3.84z" fill="#bd6b00"/>
<path d="M272.31 187.39h8.027v11.107h-8.027zm.47 17.46h7.747v2.333h-7.747zm-.19 4.1h7.934v8.68h-7.934zm-.56 10.46h8.68v4.853h-8.68zm1.07-16.65h6.995l1.387-2.31h-9.636l1.254 2.31zm9.43-8.51l.066-6.07h4.818c-1.893 1.56-3.652 3.453-4.884 6.07z"/>
<path d="M273.56 196.74c.048 1.3 1.518.72 1.518.066 0-2.004.027-4.17-.053-5.588-.01-1.045 2.49-.783 2.476-.14.01 1.692.03 4.012.04 5.992-.02.964 1.62.88 1.6 0a825.64 825.64 0 0 1 0-7.052c.02-2.096-5.5-2.05-5.54-.047 0 1.65-.03 4.59-.02 6.77zm.01 13.24h5.694v7.093h-5.694z" fill="none"/>
<path d="M277.21 212.92h2.007v1.167h-2.007zm-3.5 0h1.96v1.167h-1.96z"/>
<path d="M275.67 210.07h1.54v2.893h-1.54zm0 3.97h1.54v3.08h-1.54zm-31.68-75.07c.356 5.567-1.37 8.623-4.32 8.158-.812-3.088 1.036-5.16 4.32-8.158zm-6.47 12.34c-2.62-1.333-.73-11.513.276-15.78.744 5.497 1.99 13.31-.276 15.78z"/>
<path d="M238.45 151.79c4.406 1.533 7.894-3.212 9.073-8.708-3.636 5.02-9.554 5.025-9.073 8.708zm-3.34 5.14c-3.445-.91-1.37-11.71-.744-16.03.757 4.462 3.132 14.552.744 16.03zm1.18-.34c.192-3.725 3.905-2.648 6.468-4.636-.418 1.86-1.994 5.16-6.468 4.636zm-4.22 4.99c-3.414-.92-1.362-12.544-1.555-17.33 1 4.136 4.17 16.21 1.555 17.33zm1.59-.5c2.797.91 6.5-.908 6.793-4.24-2.41 1.636-6.254.386-6.793 4.24z"/>
<path d="M229.52 166.71c-3.265.26-1.804-9.638-1.802-18.857 1.2 8.617 4.467 16.505 1.802 18.857z"/>
<path d="M230.65 166.26c2.205 1.106 6.156-.662 7.284-4.387-3.984 1.733-6.648.04-7.284 4.387zm25.63-22.13c-.58 4.83-2.554 7.638-5.503 7.174-.812-3.088 1.58-5.062 5.503-7.174zm-7.8 12.39c4.898.695 6.662-3.064 9.96-7.87-4.62 3.344-10.146 4.04-9.96 7.87z"/>
<path d="M247.09 155.97c-2.67-3.204-.09-7.228 1.95-10.657-.438 5.102 1.3 7.94-1.95 10.657zm-1.18 5.29c-.3-3.134 5.038-3.83 7.452-5.572-.812 1.81-2.043 6.687-7.452 5.572z"/>
<path d="M244.79 161.33c-3.69-.418-2.16-6.686.487-10.17-1.114 4.807 1.95 8.15-.487 10.17z"/>
<path d="M242.01 166.55c-4.202-1.858-1.51-7.127.07-10.238-.673 4.086 2.693 7.196-.07 10.238z"/>
<path d="M242.84 166.06c2.205 2.88 6.5-.86 7.383-5.224-3.738 3.112-6.5 2.6-7.383 5.224zm-9.6 20.26c-.432-4.287 2.793-12.084.504-16.24-.312-.57.685-2.087 1.33-1.167 1.006 1.468 2.04 5.652 2.473 4.107.46-1.68.53-4.65 2.017-5.228.95-.338 2.29-.56 1.924.934-.363 1.436-1.177 3.42-.275 3.547.523.078 2.03-1.954 3.3-2.893 1.022-.838 2.548.473 1.053 1.726-4.86 4.037-9.57 5.854-12.326 15.214zm-8.73 64.53c-.57-.11-1.352-.303-.64.584 5.678 6.996 7.32 8.924 15.602 7.94 8.365-1.102 10.357-3.364 16.214-6.65 3.13-1.836 7.703-2.243 11.17-1.106 1.614.528 2.59.56 1.434-.6-1.158-1.156-2.525-2.73-3.95-3.814-3.117-2.394-8.406-3.432-12.722-2.662-6.104.958-11.148 4.845-17.176 6.313-3.167.723-6.64.614-9.93-.005zm47.79 12.5c1.056.13 1.725 2.177 2.245.792.88-2.242.264-4.026-.727-3.83-1.17.313-3.147 2.935-1.518 3.038z"/>
<path stroke="none" d="M220.6 182.92c-1.215-1.27-.864-1.754.933-1.774 1.425-.09 4.25.873 5.32.093.983-.72.592-3.74 1.028-5.14.19-.78.74-2 1.96-.1 3.63 5.8 8.15 12.77 10.08 19.6 1.06 3.82.07 9.8-3.45 13.81.13-3.43-1.15-5.73-2.7-8.59-1.92-3.77-9.05-13.95-13.16-17.92z"/>
<path d="M235.53 213.44c3.983.02 4.667-5.32 4.667-6.813-1.96.373-5.414 3.64-4.667 6.813zm34.42 51.82c2.833.645 2.794-6.178-.1-9.07 1.274 4.382-2.128 8.388.1 9.07zm-1.1-.06c.187 3.243-7.96-.424-10.052-2.946 4.813 2.044 9.815.352 10.052 2.946zm-3.57-4.63c.29 3.14-7.064.38-9.238-2.074 4.83 1.56 8.917-.51 9.238 2.074zm1.35.44c2.833.645 2.374-6.412-.38-8.837 1.322 4.71-1.848 8.155.38 8.837zm-2.98-4.29c2.833.645 1.207-5.43-.893-7.857.34 4.43-1.055 7.502.893 7.857zm-1.5-.02c.292 3.235-5.43.75-7.65-2.31 4.782 1.562 7.33-.275 7.65 2.31zm-1.56-2.46c1.856-1.334-.113-4.863-3.645-4.645.346 2.132 1.566 5.88 3.645 4.645zm13.95 14.63c.187 3.243-7.96 1.63-10.52-1.825 5.14.97 10.282-.77 10.52 1.825zm-32.36-5.8c.292 3.235-8.602-.322-10.823-3.383 4.783 1.56 10.502.798 10.823 3.383zm5.45 1.38c1.856-1.334-1.933-4.77-4.95-5.578.345 2.13 2.87 6.813 4.95 5.578zm.57 2.24c.2 2.908-9.537 1.313-12.084-1.374 8.377 1.514 11.81-1.117 12.084 1.374z"/>
<path d="M252.76 268.63c1.08 2.7-8.264 2.042-11.545.47 5.3-.044 10.802-2.35 11.545-.47z"/>
<path d="M257.13 270.6c1.034 2.42-7.61 2.37-11.824 1.03 5.58-.045 10.8-3.426 11.824-1.03zm6.29 1.3c1.53 2.865-7.588 3.143-10.547 1.733 5.273-.725 9.242-3.988 10.547-1.733zm-10.68-4.9c-2.9 1.83-2.746-3.564-5.053-7.3 3.625 3.302 7.02 5.556 5.053 7.3z"/>
<path d="M257.88 268.94c-2.433 2.156-4.38-5.246-6.594-9.4 3.58 3.955 8.84 7.61 6.594 9.4zm6.8 2.06c-2.06 2.39-8.02-7.018-10.187-11.92 3.3 3.816 11.826 9.896 10.187 11.92zm-5.8 7.18c-1.028 3.632-16.192-3.423-17.885-7.08 8.677 4.6 18.092 3.638 17.885 7.08zm-48.73-73.8c-.355-.46-1.374.012-1.12 1.12.237 1.5 2.45 9.204 6.252 11.854 2.712 1.954 16.965 5.102 23.427 6.44 3.55.714 6.53 2.488 8.86 5.32-.97-3.703-1.74-6.446-2.99-9.8-1.21-2.948-4.42-6.174-7.75-6.347-6.18-.222-14.17-.748-19.98-3.268-3-1.26-4.8-2.95-6.72-5.32z"/>
<path d="M245.54 234.87c1.947 1.434 4.096-3.704 1.623-8.588-.078 4.7-3.815 6.28-1.623 8.588z"/>
<path d="M247.41 239.58c2.693.827 3.536-3.937 1.763-7.747.295 4.093-4.234 6.56-1.763 7.747z"/>
<path d="M249.46 243.36c2.6 1.295 3.585-3.518 1.716-7.092.204 4.56-3.72 5.904-1.716 7.092z"/>
<path d="M248.39 243.65c-1.03 3.08-7.007-2.655-8.014-5.775 3.71 3.685 8.757 3.278 8.014 5.775z"/>
<path d="M245.68 238.94c-1.17 3.08-8.687-4.85-10.348-8.668 3.71 3.685 11.184 6.498 10.348 8.668z"/>
<path d="M244.19 234.32c-1.17 3.5-9.34-5.83-11.654-9.135 3.897 3.64 12.537 6.592 11.654 9.135zm-.26-3.46c2.877-.56-.163-2.955-3.69-6.85-.164 4.1.51 6.967 3.69 6.85z"/>
<path d="M239.08 228.53c1.242-1.353-1.19-1.93-4.203-5.31-.444 2.28 2.794 6.454 4.203 5.31zm13.92 15.2c1.574.92 2.652-2.304.69-5.225-.45 3.16-2.133 4.037-.69 5.225zm-34.19-20.35c-3.342 2.004-8.652-5.992-10.068-9.282 2.933 3.776 10.7 7.224 10.068 9.282z"/>
<path d="M221.65 228.04c-1.85 2.05-7.67-3.52-9.694-6.34 3.12 2.7 10.512 3.022 9.694 6.34z"/>
<path d="M224.82 232.22c-.61 2.8-9.106-3.495-11.092-6.476 3.663 3.452 11.65 3.14 11.092 6.476z"/>
<path d="M223.52 235.25c-1.31 2.522-8.22-3.727-9.88-6.987 4.223 3.685 10.95 4.493 9.88 6.987zm-3.55-12.28c2.18-2.3 1.252-3.376-.338-7-.87 3.72-2.18 5.206.338 7zm2.89 4.34c3.954.174.038-4.638-.897-8.68.344 4.607-1.014 8.238.897 8.68z"/>
<path d="M225.38 231.13c2.74-.62 1.95-4.497-.15-9.193.436 5.073-2.32 8.005.15 9.193zm-.93 7.67c-1.03 3.08-8.826-4.056-10.067-6.755 3.943 3.312 10.763 4.445 10.067 6.755z"/>
<path d="M229.12 243.61c-1.17 3.082-9.34-3.167-11.84-6.568 4.923 3.872 12.444 3.513 11.84 6.568z"/>
<path d="M233.88 248.46c-1.31 4.294-9.853-2.56-12.4-5.915 5.437 4.15 13.097 2.86 12.4 5.915zm-8.03-11.03c2.32 1.2 3.258-5.384 1.95-10.033.016 5.074-4.655 8.845-1.95 10.033z"/>
<path d="M229.81 242.66c2.788.828 1.904-6.27-.478-10.873-.31 4.56-2.366 8.892.478 10.873zm4.95 4.9c3.114.174.97-6.084-1.597-9.613.437 4.607-1.013 9.08 1.597 9.613zm-5.46 2.67c-.936 1.586-3.226-1.347-6.986-3.49 3.382.886 7.402 2.02 6.986 3.49zm-1.78-52.74c2.906-2.15.69-6.173 0-9.998-.935 3.628-3.397 8.39 0 9.998zm-.1 5.36c-4.366-.524-3.71-6.17-3.84-9.75 1.312 4.858 4.89 5.68 3.84 9.75zm.69-.73c3.694-.214 3.498-4.417 3.695-8.668-1.872 3.907-4.09 4.514-3.695 8.668z"/>
<path d="M227.96 207.34c-2.873.23-4.366-2.594-5.023-6.993 2.725 4.054 5.203 2.79 5.023 6.993zm1.03-.35c3.694.475 3.104-3.825 2.955-6.995-1.132 3.022-4.136 3.974-2.955 6.995z"/>
<path d="M223.23 205.17c.295 2.807 2.07 7.634 4.926 6.55 1.18-3.448-2.513-4.137-4.926-6.55z"/>
<path d="M229.04 212.02c-1.28-2.462 2.905-3.695 3.792-6.895.51 4.58.082 7.584-3.792 6.895zm-11.91-29.18c2.3-2.477.27-6.406-.42-10.23-.936 3.627-2.557 8.434.42 10.23zm-.07 4.61c-4.04.41-5.016-7.804-5.427-11.337 1.313 4.86 5.965 7.08 5.427 11.337zm.83-.08c2.854-1.474 2.19-4.65 3.088-7.035-1.92 2.928-3.67 3.347-3.088 7.035z"/>
<path d="M217.09 192.75c-4.225.362-6.742-8.74-6.874-12.318 1.313 4.86 7.366 7.5 6.874 12.318zm.81-.14c3.973-.914 3.498-3.483 2.902-7.642-1.265 4.188-3.483 3.3-2.902 7.642z"/>
<path d="M217.04 198c-4.646.788-4.32-6.56-8.01-11.893 3.192 3.96 8.937 8.95 8.01 11.893zm1.05-.25c3.507.102 3.85-5.18 3.656-7.32-.807 2.133-4.93 4.16-3.656 7.32z"/>
<path d="M209.78 192.34c1.742 5.654 4.216 11.32 7.26 10.89 1.46-3.215-2.888-3.624-7.26-10.89z"/>
<path d="M218.14 202.4c-1.28-2.462 2.905-3.695 3.792-6.895.51 4.58.082 7.584-3.792 6.895zm-7.16-3.6c2.487 5.094 3.61 10.948 7.024 10.097 1.275-3.96-3.77-4.79-7.024-10.097z"/>
<path d="M218.71 207.93c-1.467-2.695 2.72-3.648 3.745-7.362.556 4.86.036 8.33-3.745 7.362zm7.16-34.48c2.45.663 5.022-2.09 4.13-6.208-2.8.697-4.086 3.24-4.13 6.208zm-7.84-2.06c.214 1.16 1.623 1.264 1.214-.373-.342-1.328-.4-2.327 0-3.407.548-1.353.365-3.658-.047-4.62-.416-1.015-1.793-.42-1.214.375.638.92.672 2.837.233 3.732-.577 1.32-.42 3.075-.186 4.293zm22.87 15.92c-.947 1.393-2.88.54-1.408-1.372 1.208-1.55 2.928-2.814 3.055-4.414.1-2.03 1.29-5.107 2.373-6.145 1.118-1.11 2.41.45 1.214 1.18-1.342.87-2.214 4.45-2.185 5.83-.05 2-2.05 3.44-3.05 4.9zm-2.98-2.24c-.947 1.393-2.457.585-1.6-1.652.72-1.55.798-3.468 1.603-4.6 1.125-1.717 3.03-3.147 4.112-4.186 1.118-1.106 2.046-.04 1.02.908-1.243 1.245-2.594 2.795-3.344 3.97-1.39 2.28-.78 4.1-1.79 5.56zm-15.74-7.21c-.112 1.967 1.47 2.443 1.4-.41-.072-2.977-2.18-5.7-.886-10.234.68-2.217.69-6.28.28-8.44-.363-2.143-1.887-.744-1.308.924.638 1.935-.12 5.645-.607 7.51-1.47 5.435 1.2 8.08 1.12 10.65zm4.32-10.88c-.232 1.81-1.764 1.974-1.32-.582.372-2.075.436-3.635 0-5.32-.595-2.115-.396-5.715.052-7.217.45-1.58 1.948-.65 1.32.59-.695 1.44-.73 4.43-.255 5.83.627 2.07.457 4.8.203 6.71zM210.94 204c.758.902 2.036.298.87-.923-.95-.987-.638-1.298-1.22-2.5-.573-1.343-.543-2.084-1.236-3.044-.613-.91-1.535.02-.917.785.775.906.56 1.574 1.035 2.45.877 1.5.663 2.288 1.468 3.232zm20.4 24.61c2.44 1.2 4.29 4.196 4.413 6.636.207 2.81.612 5.18 1.873 7.176-2.008-.56-2.97-3.76-3.255-6.825-.28-3.173-1.99-4.55-3.03-6.987zm5.08 5.88c1.688 3.116 4.05 4.304 4.17 6.617.204 2.66.406 2.797 1.127 5.413-1.987-.53-2.487-.703-3.024-4.684-.33-2.798-2.57-4.772-2.273-7.346z"/>
<path stroke="none" d="M288.97 263.32c.95 1.788 2.038 4.51 4.013 4.013.03-1.37-2.13-2.318-4.013-4.013zm2.94.61c3.835 1.572 7.147 1.184 7.56 3.595-3.598.388-4.914-1.09-7.56-3.595zm-16.06-12.69c2.583 2.116 4.26 4.53 5.04 7.653.815 2.908 1.96 5.226 3.64 7.84-2.737-1.867-4.458-4.407-5.32-7.467-.756-3.01-1.648-5.257-3.36-8.026zm3.18-.01c2.77 2.21 5.38 4.72 6.16 7.84.815 2.908 1.308 5.134 3.175 8.027-2.925-1.867-4.086-4.688-4.947-7.748-.756-3.01-2.49-5.26-4.388-8.12zm9.14 7.24c-.076-.546.297-1.023.747-1.166a33.43 33.43 0 0 1 2.612-.84c.98-.233 1.53.47 1.54.933 0 .77.04 1.423 0 2.006-.06.726-.2.78-.66.888-.74.13-1.69.25-2.43.75-.59.36-1.16.08-1.45-.56-.19-.48-.3-1.43-.38-2zm10.63 0c.068-.546-.22-1.07-.62-1.213-.782-.327-1.56-.407-2.38-.374-.913-.014-1.142.192-1.145.654-.004.77-.037 1.516 0 2.1.048.725.032.78.444.887.65.124 1.78.157 2.44.653.52.36 1.12.075 1.15-.606a18.16 18.16 0 0 1 .1-2.1z"/>
</g>
<use x="-600" xlink:href="#a" transform="scale(-1 1)"/>
<g stroke="none">
<path d="M328.54 286.65c.047 1.18.188 2.13.888 3.08-4.076-1.633-9.83-.76-13.767 1.074-1.75.838-3.88-.958-1.82-2.66 2.93-2.374 9.71-1.028 14.7-1.494zm-57.505-.062c.057 1.113-.072 2.133-.48 3.106 4.43-1.835 9.186-.31 13.663 1.494 3.077 1.273 3.325-.93 2.782-1.692-.934-1.353-2.742-2.838-5.028-2.87-1.522-.02-7.382-.074-10.937-.038zm3.74-21.642c-1.236-.533-2.672-.02-3.96 1.335-4.327 4.24-9.404 8.38-13.502 11.59-1.53 1.33-3.09 3.71 3.43 6.1.238.09 4.992 1.85 8.005 1.97 1.23-.03 1.227 1.81 1 2.3-.52.98-.144 1.35-1.194 2.3-1.095.92.117 2.12.977 1.31 3.68-3.18 9.63-1.14 15.37.72 1.36.38 3.84.27 3.82-1.6.03-2.04 1.5-3.48 2.41-3.53 2.35.41 13.92.54 17.49.11 2.08-.27 2.21 2.85 3.32 4.08.77.82 3.72 1.03 5.75.14 4-1.86 10.1-1.86 12.58-.08 1.02.78 1.83.15 1.25-.64-.75-1.08-.73-1.58-1.1-2.43-.93-1.89-.18-2.36.79-2.5 11.06-1.42 14.59-5.19 11.21-8.27-4.37-3.83-9.22-7.67-13.41-12.2-1.13-1.2-1.88-1.68-4.25-.7-7.22 3.29-16.38 5.69-25.35 5.87-8.34.07-19.82-3.79-24.59-5.8z"/>
<path d="M326.62 265.54c-.58.058-1.197.238-1.656.406-8.92 3.134-17.117 5.328-25.656 5.313-8.335-.02-17.066-2.31-24.906-5.54-.446-.19-.96-.16-1.47-.03-.508.13-1.012.36-1.343.69-3.65 3.62-7.59 7.15-11.82 10.34-.64.49-.54 1.73.5 2.15h.03c8.3 2.98 16.41 8.53 39.62 8.31 23.43-.22 31.74-5.64 39.19-8.13.52-.2 1.06-.5 1.31-.97a1.03 1.03 0 0 0 .06-.81c-.1-.29-.28-.56-.63-.85h-.03c-4.23-3.46-8.75-6.21-11.72-10.41-.34-.48-.92-.56-1.5-.5zm.03.438c.508-.05.896.027 1.095.312 3.04 4.3 7.62 7.074 11.812 10.5.3.254.442.48.5.656a.498.498 0 0 1-.03.438c-.15.284-.59.57-1.064.75-7.534 2.515-15.668 7.904-39.03 8.125-23.116.21-31.095-5.31-39.47-8.32-.754-.31-.687-1.16-.406-1.38 4.242-3.21 8.227-6.74 11.875-10.38.25-.25.653-.45 1.094-.56.44-.12.912-.13 1.22 0 7.878 3.24 16.612 5.58 25.03 5.59 8.618.01 16.903-2.21 25.844-5.35.445-.16 1.024-.36 1.53-.41z" fill="#bd6b00"/>
<path d="M269.71 114.56c-.068-1.38 2.07-1.484 1.824.412-.313 2.362 4.46 8.342 4.854 12.03.265 2.472-1.453 4.636-3.154 5.983-2.086 1.616-5.293 1.394-6.794.467-.908-.73-1.735-3.234-1.056-4.224.24-.334 1.328 3.673 3.722 3.657 3.258-.02 5.896-2.468 5.993-4.65.16-3.802-5.33-9.81-5.39-13.676zm9.53 9.39c.54-.385 1.4 1.296.792 1.716-.505.337-1.492-1.25-.792-1.716zm1.45-3.41c-.272.132-.814-.056-.652-.287.762-1.09 2.387-2.728 3.565-3.3.362-.176.995.463.776.776-.71 1-2.42 2.19-3.69 2.81zm12.59-9.99c.302-.63 2.117-1.344 2.58-1.77.427-.44.63.37.448.75-.302.632-1.868 1.697-2.555 1.725-.37.016-.656-.324-.473-.705zm4.31.2c.393-1.107 1.66-2.786 2.533-3.34.448-.282 1.252-.06 1.1.365-.332.94-1.883 2.58-2.926 3.355-.316.282-.798-.123-.707-.38zm-3.69 2.77c-.263.132-.12.69.133.776.538.18 1.52.214 1.964-.03.645-.398.35-2.845-.513-1.538-.58.806-1.002.547-1.584.792zm-7.29 5.62c-1.318-1.026.355-2.464 1.732-1.46 2.683 2.024-4.003 9.778-7.64 13.403-.666.71-1.25-1.078-.397-1.848 2.608-2.212 5.05-4.855 6.747-7.586.327-.53.64-1.66-.442-2.51zm15.27-6.67c.164-.982-1.59.02-1.62-1.28-.018-.69 1.914-1.174 2.72-.38 1.366 1.383.346 3.717-1.923 3.864-1.89.084-5.046 2.685-4.566 3.232.55.675 5.45 1.12 8.31.675 1.77-.24 1.4 1.34-.41 1.55-1.74.2-3.17.02-4.8.53-1.92.55-2.76 3.13-3.83 4.09-.24.17-.88-.84-.63-1.22.77-1.2 2-3.04 3.35-3.57.86-.34-2.34-.45-3.37-.74-.81-.24-.57-1.27-.26-1.85.42-.89 3.43-3.91 4.65-3.86 1.14.05 2.3-.28 2.42-1.01zm5.08.26c.567-.5.858-1.338 1.453-1.848.326-.327.847.065.76.853-.073.62-.907 1.156-1.468 1.623-.456.342-.986-.396-.745-.628zm6.47-2.3c.845-.093 1.055 1.537.13 1.8-.56.188-1.05-1.704-.13-1.8zm-2.13 5.04c-.013 1.404.68 1.275 2.002 1.227 1.283-.05 2.412.033 2.407-1.235-.01-1.314-.73-2.464-.94-1.57-.19.84-.34 2.216-.83 1.617-.46-.52-.28-.63-1.07.21-.44.46-.49-.23-.76-.66-.19-.26-.82.21-.82.4zm-9.22 7.16c-.315 1.858-.026 4.46.925 4.488 1.175.038 3.607-4.06 4.76-6.188.69-1.187 1.876-1.394 1.38-.156-.748 1.91-.68 5.998-.023 7.2.354.646 2.964-.594 3.386-1.516.767-1.675.143-4.762.412-6.647.13-1.23 1.263-1.49 1.203-.34-.112 2.05-.307 5.82-.162 7.53.09.98 2.9 2.43 3.35-.54.24-1.87 1.2-3.72-.04-5.79-.77-1.29 1.14-1.13 2.17.64.72 1.21-.6 3.21-.56 4.75.12 2.38-1.72 3.73-3.06 3.75-1.19.03-1.97-1.44-2.95-1.46-1.09-.07-2.2 1.69-3.1 1.63-3.48-.24-1.64-5.33-2.7-5.39-1.18-.07-2.57 5-4.03 4.81-1.43-.17-2.92-4.12-2.32-5.8.54-1.55 1.56-1.92 1.4-.93z"/>
<path d="M318.96 114.6c-1.7-1.038.108-3.736.94-2.788 1.605 1.923 3.223 6.487 4.355 6.864.716.24.683-3.374 1.188-5.016.326-1.213 1.793-.817 1.513.737-.096.52-1.917 6.422-1.777 6.655 1.26 2.522 2.51 5.08 3.3 7.788.32 1.167-1.08.38-1.25.14-.9-1.34-2.46-6.453-2.46-6.22-.72 3.598-.89 4.66-1.66 7.717-.24.98-1.68.802-1.35-.924.31-1.418 2.37-8.392 2.26-8.594-1.62-2.87-3.11-5.13-5.07-6.36z"/>
<path d="M322.03 131.2c-.474-.054-1.21 1.055 1.152 1.49 3.156.572 6.61-.49 7.67-3.586 1.212-3.687 2.013-7.177 2.646-8.493.79-1.53 1.803-1.41 1.056-3.65-.526-1.61-1.51-1.12-1.716-.26-.552 2.35-2.646 9.95-3.3 11.35-1.233 2.56-3.718 3.57-7.508 3.15z"/>
<path d="M328.35 119.07c-.338-.725-1.127-.164-.986.63a1.197 1.197 0 0 0 1.25 1.086c.692-.024 2.155.023 2.16-1.125 0-.8-.633-1.48-1.104-.59-.45.81-1.03.73-1.32 0zm.79-3.04c-.243.168-.025 1.066.264 1.056 1.03-.035 2.492-.363 3.275-.908.22-.16.13-.702-.2-.69-1 .032-2.58.006-3.35.542zm8.76 2.26c.747-1.167 2.806-1.286 2.066.38-.525 1.148-5.652 11.055-6.352 12.315-.764 1.417-1.39.715-.846-.388.73-1.42 4.898-11.962 5.132-12.307z"/>
<path d="M330.18 133.04c-.22-.788-1.442-1.954-1.304.155.243 3.828 5.503 2.618 7.096 1.257 1.445-1.28.19 4.323 2.112 4.922 1.058.34 3.05-1.105 4.03-2.376 2.717-3.525 4.446-8.578 7.058-12.058.987-1.36-.54-2.332-1.157-1.25-2.272 3.81-5.094 11.586-8.176 13.605-2.52 1.608-1.77-2.07-1.86-3.176-.11-.81-1.1-2.01-2.42-.91-.92.72-2.35 1.3-3.65 1.19-.76-.05-1.39-.03-1.74-1.36z"/>
<path d="M339.57 125.93c.028-.216-1.112-.314-1.056.792.04.82 1.02 1.04 1.188.924 1.54-1.12-.328-.562-.132-1.716zm-2.24 4.49c-.303.07-.582 1.04.133 1.095.653.046 3.213-.23 3.92-.187.458-.017.632-.892-.348-.845-1.19.06-2.754-.24-3.705-.063zm-61.96-16.66c.406.02 1.52 1.462 1.447 1.913-.05.213-1.19-.03-1.54-.326-.258-.22-.154-1.6.093-1.587zM270 124.212c-1.016.555.163 1.65.925 1.188 2.86-1.853 7.154-3.8 8.052-7.468.287-1.243 1.443-3.148 2.54-3.573 1.06-.42 2.598 1.91 3.602.08.58-1.05 2.65.68 3.15-.44.6-1.36.32-2.1.34-3.4-.05-.85-.7-1.11-1.17.27-.25.62.04 1.25-.16 1.57-.15.24-.63.48-.9.28-.26-.19-.08-.72-.69-.96-.24-.12-.62-.22-.78.08-.72 1.28-1.12 2.48-2.13 1.11-.9-1.18-1.35-3.21-2.01-.43-.24.98-1.73 2.4-2.61 2.4-1.1 0-.83-2.89-3.24-2.45-1.24.26-1.16 2.64-.97 3.51.3 1.22 3.93.34 3.75 1.14-.62 2.77-4.47 5.41-7.73 7.03zm-22.7 13.208c-.154.464.462 1.723 1.1 1.816.63.046.95-1.36.747-1.816-.15-.336-1.737-.33-1.847 0zm3.33 4.88c-.403-.434-1.59.73-.63 1.553.54.436 2.513 1.07 3.053.148.73-1.18-.72-5.48-.078-6.05.502-.44 2.828 2.88 3.976 3.12 2.7.38 2.05-4.62 4.96-4.28 1.98.27 2.2-2.21 1.92-3.75-.22-1.48-2.62-3.62-3.72-4.58-1.45-1.21-2.1.9-1.19 1.59 1.18.94 3.24 2.84 3.57 4.1.16.59-1.43 1.77-2.02 1.45-1.35-.73-2.6-3.89-3.79-4.62-.4-.24-1.39.31-.91 1.3.54 1.06 2.91 2.7 3.05 3.82.13 1.03-1.06 3.26-1.83 3.26-.85 0-3.03-2.69-3.7-3.95-.34-.6-1.51-.54-1.63.29-.19 1.26.19 3.91.48 5.56.24 1.56-.87 1.64-1.47 1.09zm-4.07-8.57c-.34.384.792 1.134 1.017.94.436-.378 2.128-2.308 1.802-2.983-.29-.6-2.62-1.918-3-1.266-.7 1.13 2.19 1.64 1.74 1.97-.23.13-1.02.68-1.56 1.35zm4.17-8.46s.728 2.49 1.32 1.452c.48-.72-1.32-1.452-1.32-1.452zm1.19 3.96c-.266.146-1.017.74-.528 1.056.773.457 2.875.82 2.42-.676-.274-.88 3.172.025 2.332-2.36-.22-.66-1.26-1.612-1.77-1.747-.325-.085-1.43.52-.738.854.504.26 2.024 1.154 1.46 1.74-.642.612-1.09-.275-1.887-.132-.41.076-.14 1.218-.37 1.53-.13.172-.71-.383-.93-.265zm5.48-9.46c-.435.217-1.214 1.396-1.242 1.94-.016.292.303.692.552.568.456-.228 1.16-1.344 1.187-1.856.017-.324-.227-.787-.497-.652zm2.84-.31c-.84-1.027.89-2.55 1.67-.496.47 1.29 5.488 7.892 6.514 10.132.727 1.516-.026 2.142-.924 1.056-2.54-3.242-4.626-7.283-7.26-10.692zm5.15.14c.895-.97 2.72-2.95 2.23-4.053-.378-.95-1.488-.856-1.678-.636-1.086 1.3.772.97.504 1.42-.553 1.04-1.104 1.61-1.39 2.61-.066.24.173.85.334.67zm77.78 3.24c-.643-.52.632-3.044 1.494-2.053 2.368 2.74 3.47 11.636 4.153 18.294 0 0-1.064.89-1.073.75 0-3.54-1.425-14.39-4.574-16.98zm-53.1-8.66c-.766-1.76 1.15-2.412 1.436-1.157 1.33 5.783 4.517 10.16 6.942 14.093.73 1.23.145 1.962-1.63.83-1.23-.842-2.478-3.916-3.083-4.037-1.094-.21-3.713 4.99-9.07 3.5-1.385-.39-1.293-4.51-1.32-6.33-.058-.86.885-1.08.917.08.05 1.68-.002 5.16 2.144 5.28 1.75.1 5.627-2.38 6.444-4.31.728-1.99-1.952-5.94-2.78-7.97z"/>
<path d="M344.61 138.38c.428-1.19 6.114-10.735 6.86-12.835.383-1.013 2.015 1.737.42 3.22-1.4 1.26-5.53 8.034-6.3 10.408-.355 1.072-1.432.562-.98-.793z"/>
<path d="M354.28 129.28c1.05-3.935 3.593.607 1.353 2.847-3.458 3.387-4.5 9.854-9.987 10.827-1.48.318-4.082-.666-4.853-1.214-.3-.214.194-1.618 1.12-.933 1.336 1.044 4.097 1.28 5.554.093 3.118-3.06 5.657-7.113 6.813-11.62zm-57.01 12.74c-.247.284-1.004.238-1.072.637-.297 1.48 0 2.23-.326 3.655-.312 1.365-1.26 1.416-1.194.304.086-1.442 1.274-3.478.435-3.618-.56-.13-.99-.88-.413-1.248 1.092-.757 1.68-.64 2.43-.413.26.08.328.464.14.683z"/>
<path d="M296.5 140.09c-1.448 1.266-2.79 1.784-4.123 3.384-.544.656-.53 1.57-.854 2.406-.326.888-1.375 1.062-1.7.877-.543-.357-.465-2.003-1.07-1.117-.516.816-.848 1.94-1.61 1.926-.688-.014-1.986-1.422-1.328-1.49 2.252-.23 2.225-2.033 3.068-2.15.946-.128 1.008 1.487 1.592 1.164.46-.236.675-2.117 1.173-2.625 1.527-1.56 2.735-2.385 4.293-3.53.79-.63 1.36.504.56 1.155zm5.28 4.85c-1.16.234-.962 1.724-.62 1.91.56.26 1.43.37 1.754-1.343.15-.703.29 3.498 1.83 1.88.89-.98 3.088.178 4.01-1.056.66-.82.862-1.39.348-2.61-.15-.36-1.053-.18-1 .71.044.76-.536 1.69-1.29 1.53-.368-.06.205-1.84-.163-2.33-.21-.26-.52-.23-.72.04-.29.39.28 2.09-.65 2.32-1.18.27-.56-1.14-1.06-1.4-1.6-.8-1.76.21-2.46.36zm9.05-2.86c.85-.24.584-.24 1.92-1.334.522-.395.625.76.57 1.216-.097.775-1.018.228-1.304.91-.418.886-.248 2.948-.388 3.788-.096.43-.787.394-.853.054-.198-1.024.14-2.026.108-3.307-.01-.435-.634-1.117-.053-1.327zm-5-2.62c-.205.927-.19 1.69-.19 2.325.047.514.986.183.982.118-.047-.814.14-1.94-.102-2.253-.13-.17-.642-.365-.69-.19z"/>
<path d="M299.54 130.19l-1.458 5.594-2.03-3.75v3.844l-4.374-5.188 1.52 5.563-3.93-3.344 2.093 3.78-6.97-4.5 4.44 5.18-5.58-2.75 3.99 3.37-9.13-3.44 8.82 4.34c3.23-1.59 7.64-2.57 12.56-2.57 4.9 0 9.34.98 12.56 2.56.02 0 .06-.01.07 0l8.75-4.35-9 3.47 3.93-3.41-5.51 2.72 4.38-5.16-6.97 4.5 2.09-3.78-3.93 3.34 1.52-5.56-4.37 5.22.07-3.88-2.03 3.75-1.45-5.59z"/>
</g>
</g>
<path d="M291.82 251.63c0 .593-.09 1.45-.267 2.568h-.415c0-.762-.036-1.35-.107-1.76-.06-.41-.2-.897-.4-1.463a6.826 6.826 0 0 0-.54-1.217c-.19-.34-.51-.79-.94-1.35l.83-2.048c.39.49.66.868.82 1.13.19.304.36.685.52 1.144a8.804 8.804 0 0 1 .52 2.996m6.5-3.96c0 .624-.12 1.092-.35 1.404-.23.312-.64.535-1.21.67.17.58.28 1.03.33 1.357.06.33.09.69.09 1.09 0 .26-.01.54-.04.83-.02.3-.07.69-.15 1.19h-.37a7.8 7.8 0 0 0-.07-1.15 5.198 5.198 0 0 0-.2-.91 34.04 34.04 0 0 0-.35-.94 9.897 9.897 0 0 0-.63-1.39c-.2-.37-.54-.89-1.01-1.54l.65-1.92c.34.49.64.82.89 1.01.26.18.56.27.9.27.76 0 1.14-.41 1.14-1.23h.39c0 .27.01.49.02.67.01.18.02.38.02.62m5.97 4.52l-.48 2.01c-.3-.08-.55-.32-.74-.71-.16-.32-.28-.73-.35-1.23-.07-.5-.1-1.01-.1-1.55-.41.11-.73.16-.96.16-.47 0-.86-.12-1.17-.37a1.17 1.17 0 0 1-.45-.94 4 4 0 0 1 .63-2.2c.43-.65.9-.98 1.43-.98.41 0 .7.12.86.35a1.9 1.9 0 0 1 .33.87c.04.33.06.96.06 1.89 0 .83.07 1.42.2 1.77.11.27.36.59.75.96m-1.8-3.33c-.08-.51-.35-.76-.81-.76-.19 0-.37.06-.54.16s-.24.2-.24.28c0 .27.32.4.96.4.2 0 .41-.02.63-.08m8.13 2.83l-.24 2.44c-.47-.33-.92-.94-1.32-1.81-.42-.91-.85-2.21-1.28-3.88-.37 1.61-.67 2.8-.91 3.55s-.47 1.28-.7 1.59c-.15.21-.4.42-.75.64l.06-2.33c.45-.6.76-1.06.93-1.38a7.2 7.2 0 0 0 .65-1.64c.18-.63.33-1.47.47-2.52h.44c.27 1.06.54 1.9.79 2.52a7.66 7.66 0 0 0 .83 1.56c.22.32.58.74 1.06 1.27" fill="#fff"/>
<path d="M328.98 274.65c.325.38.553.755.685 1.12.128.363.22.88.277 1.554l-.725.06c-.31-.606-.61-1.08-.902-1.422-.222-.26-.582-.632-1.08-1.114a43.29 43.29 0 0 0-1.523-1.407 32.333 32.333 0 0 0-1.996-1.59c-.284-.21-.464-.36-.54-.45-.114-.13-.203-.39-.27-.78a10.81 10.81 0 0 1-.13-1.47l2.533 2.06a41.69 41.69 0 0 1 2.37 2.08c.48.47.91.92 1.3 1.37m-8.99-5.41l-.15 1.86-2.98-.08.22-1.9 2.91.12m7.84 8.34l-7.11 2.17-1.31-1.81 6.14-1.87a7.848 7.848 0 0 0-.65-.81 2.665 2.665 0 0 0-.82-.55c-.02.35-.16.64-.43.9s-.61.45-1.02.58a3.177 3.177 0 0 1-1.64.07c-.55-.12-.95-.36-1.2-.71-.38-.52-.58-1.21-.61-2.08-.03-.95.23-1.51.78-1.68.72-.22 1.69-.02 2.91.6 1.22.62 2.16 1.38 2.81 2.28l2.12 2.93m-5.46-3.79a4.02 4.02 0 0 0-.81-.28 1.067 1.067 0 0 0-.54.01.64.64 0 0 0-.43.35.463.463 0 0 0 .05.49c.07.1.2.17.37.2.18.03.36.01.56-.05a1.05 1.05 0 0 0 .4-.23c.12-.11.24-.27.37-.49m-7.61-1.45l-.44 1.85-2.96-.27.45-1.86 2.94.29m7.01 7.2l-1.57.36a4.974 4.974 0 0 1-1.6.12 3.347 3.347 0 0 1-1.42-.47c-.26.48-.72.87-1.38 1.2a7.06 7.06 0 0 1-1.52.52l-1.12.26-1.03-1.88 1.12-.26c.59-.13.99-.24 1.21-.34.22-.09.49-.26.82-.49a5.522 5.522 0 0 0-.88-.46c-.27-.1-.51-.12-.72-.07a.378.378 0 0 0-.2.11.573.573 0 0 0-.12.24l-.49.07c-.46-.83-.56-1.48-.31-1.94.25-.46.86-.8 1.81-1.02.99-.22 1.83-.28 2.53-.15.71.12 1.18.4 1.42.84.13.24.18.48.15.73s-.15.6-.36 1.07a1.5 1.5 0 0 0 .52.12c.19.01.37 0 .53-.04l1.58-.36 1.02 1.89m-7.54 1.75l-1.54.24c-.86.13-1.56 0-2.12-.4-.62-.43-1.14-1.25-1.59-2.44l-.76-2.04c-.17-.46-.41-.8-.7-1.03-.14-.11-.43-.25-.86-.43l.52-1.97c.57.32 1 .64 1.31.99.36.4.66.94.91 1.61l.52 1.41c.37.99.73 1.66 1.08 2.02.28.28.59.4.94.34l1.54-.24.72 1.94m-6.58-7.07l-.99 1.75-2.82-.65 1-1.76 2.8.67m1.63 7.92l-7.01.64-.43-1.98 5.89-.53a2.183 2.183 0 0 0-.625-.8c-.14-.11-.45-.31-.92-.58l.523-1.81c.65.36 1.12.76 1.42 1.19.304.43.55 1.09.743 1.98l.41 1.9m-5.63.9a15.38 15.38 0 0 1-2.09-.18 9.864 9.864 0 0 1-1.62-.43 5.278 5.278 0 0 1-1.21.36c-.34.05-.86.07-1.54.05l-1.84-.06c-.51-.02-.9-.12-1.18-.3-.28-.18-.52-.48-.73-.88a3.872 3.872 0 0 1-1.46.83c-.45.14-.98.2-1.59.18l-1.62-.05.16-1.99 1.618.05c.797.03 1.467-.09 2.017-.36.72-.35 1.1-.91 1.16-1.68l.74.1a23.63 23.63 0 0 0-.08.53c-.03.2-.05.42-.07.67-.02.25.1.47.35.64a1.6 1.6 0 0 0 .88.28l1.39.05c.92.03 1.58-.03 1.98-.18.49-.183.76-.55.8-1.1a.43.43 0 0 1 .19-.31c.07-.05.22-.123.44-.223l.44-.206c.01.09.01.22.01.38a8.34 8.34 0 0 1-.01.31c-.02.27-.11.62-.26 1.06a9.645 9.645 0 0 0 2 .44c.01-.16-.07-.38-.238-.65s-.24-.45-.24-.55a.49.49 0 0 1 .1-.29 2.36 2.36 0 0 1 .27-.22l1.03-.81c.18.313.3.6.37.855.07.25.09.57.06.943l-.22 2.77m-10.65-8.19l-1.77 1.256-1.34-.83-1.32.98-1.76-1.06 1.67-1.2 1.42.79 1.37-1 1.72 1.05m-2.78 7.63l-6.87-1.12.75-1.93 5.77.95c.04-.34 0-.637-.12-.89-.07-.14-.24-.4-.52-.77l1.53-1.55c.39.49.6.974.62 1.45.03.47-.12 1.143-.46 2.01l-.72 1.86m-5.78-.89l-1.48-.36c-.83-.2-1.3-.564-1.41-1.09-.13-.59.13-1.456.79-2.607l1.12-1.96c.25-.44.36-.81.31-1.11-.03-.14-.14-.36-.34-.66l2.12-1.44c.2.47.28.9.24 1.295-.05.46-.26 1.01-.63 1.66l-.77 1.36c-.55.96-.83 1.646-.84 2.06-.02.338.15.547.49.63l1.49.36-1.07 1.87m-3.51-7.43l-2.41 1.02-1.66-1.61 2.43-1.02 1.64 1.62m-1.028 6.225c-.5.59-.99 1.04-1.48 1.33a3.988 3.988 0 0 1-1.62.55c-.59.08-1.34.04-2.24-.1a13.82 13.82 0 0 1-2.6-.65c-1.61-.57-2.69-1.2-3.24-1.892-.54-.69-.52-1.38.07-2.08a6.604 6.604 0 0 1 1.8-1.48c.77-.44 1.96-.93 3.58-1.49l.37.48c-1.264.49-2.14.87-2.62 1.12a3.92 3.92 0 0 0-1.15.9c-.38.45-.33.95.17 1.5.51.55 1.37 1.04 2.577 1.47 1.19.42 2.31.63 3.38.63 1.06-.01 1.77-.23 2.14-.655a2.08 2.08 0 0 0 .45-.87c.08-.31.13-.83.15-1.58l2.35-1.42c0 .71-.04 1.19-.1 1.43-.12.45-.42.956-.91 1.53l-1.09 1.29" fill="#bf0000"/>
</svg>
