<svg id="antigua_and_barbuda_flag" xmlns="http://www.w3.org/2000/svg" viewBox="0 0 640 480">
<defs>
<clipPath id="a">
<path d="m-79.698 0h682.67v512h-682.67z" fill-opacity=".67"/>
</clipPath>
</defs>
<g fill-rule="evenodd" transform="translate(74.717) scale(.9375)" clip-path="url(#a)">
<path d="m-120 0h763.27v511.49h-763.27z" fill="#fff"/>
<path d="m-118.31 0.617h760.88v216.09h-760.88z"/>
<path d="m21.3 203.23h505.01v113.82h-505.01z" fill="#0061ff"/>
<path d="m642.75 1.753v510.25h-380.72l380.72-510.25z" fill="#e20000"/>
<path d="m-118.69 1.753v510.25h380.72l-380.72-510.25z" fill="#e20000"/>
<path d="m440.37 203.34l-76.31-19.363 64.92-48.98-79.726 11.39 41.003-69.475-70.616 41.003 12.53-80.867-47.837 63.783-19.36-74.03-21.64 76.31-47.837-64.92 13.667 83.145-70.615-43.282 41.003 69.476-77.45-12.53 63.783 47.838-79.727 20.5h354.22z" fill="#ffd600"/>
</g>
</svg>
