<svg viewBox="0 0 1200 600" xmlns="http://www.w3.org/2000/svg">
<clipPath id="a">
<path d="M0 0v150h700v150H600zm600 0H300v350H0v-50z"/>
</clipPath>
<path fill="#00247d" d="M0 0h1200v600H0z"/>
<path stroke="#fff" stroke-width="60" d="M0 0l600 300m0-300L0 300"/>
<path stroke="#cf142b" stroke-width="40" d="M0 0l600 300m0-300L0 300" clip-path="url(#a)"/>
<path stroke="#fff" stroke-width="100" d="M300 0v350M0 150h700"/>
<path stroke="#cf142b" stroke-width="60" d="M300 0v350M0 150h700"/>
<path d="M0 300h600V0h200v400H0z" fill="#00247d"/>
<path d="M780.58 154.04c0 148.83 11.873 201.68 52.606 242.48 40.733 40.804 56.166 47.23 67.523 53.483 13.1-7.212 28.19-15.134 65.11-52.052 36.51-36.51 54.17-89.15 54.17-246.45-26.56 11.38-39.79 15.12-63.01 15.06-17.2 1.69-43.74-9.34-59.61-16.55-10.37 6.6-25.42 14.48-52.45 15.36-31.23 1.31-41.12-3.73-64.35-11.32z" fill="#cc3"/>
<path d="M787.78 163.44c0 46.043-2.722 108.79 7.006 145.1 9.77 36.462 12.013 41.803 19.36 54.528l171.21-1.27c10.576-18.32 11.11-29.666 18.953-58.936 7.81-29.165 9.78-94.177 10.01-142.6-17.22 8.724-39.76 14.908-61.65 12.195-17.54-1.275-33.75-5.093-52.63-15.264-16.38 9.353-22.08 13.622-49.12 14.714-21.05.99-38.11 2.615-63.16-8.468z" fill="#fff"/>
<path d="M814.51 362.06c12.185 24.448 69.632 71.303 86.433 81.003 19.168-11.067 69.848-57.368 83.973-81.003h-170.41z" fill="#9cf"/>
<path d="M904.22 231.61c5.414 12.14 22.77 25.545 27.54 32.114-6.072 6.57-7.286 5.854-6.49 18.06 10.56-10.535 10.75-11.633 17.542-10.036 14.88 14.156 2.663 44.557-9.634 51.167-12.294 7.05-10.062-.244-28.49 8.593 8.45 6.887 18.238-1.01 26.237 1.1 4.347 4.917-2.066 13.878 1.312 22.317 7.07-.648 6.22-14.256 7.866-19.19 5.165-18.076 36.214-30.683 37.793-47.263 6.547-2.93 13.09-.916 21.05 3.345-3.963-15.534-17.078-15.366-20.594-20.218-8.367-12.2-15.784-26.1-33.657-29.71-13.567-2.74-12.553.82-21.247-4.83-5.413-4.02-21.86-11.62-19.23-5.46z" fill="#f90"/>
<path d="M860.84 283.11c8.73-10.234 13.053-31.127 16.917-38.218 8.93 2.05 8.833 3.408 19.78-2.965-14.703-3.98-15.81-3.628-17.5-10.1 6.176-19.154 40.078-23.06 51.952-15.78 12.28 7.068 4.47 8.595 21.27 20 2.44-10.34-9.46-14.902-11.24-22.63 2.53-5.962 13.83-4.742 20.08-11.533-3.91-5.656-16.13 1.416-21.47 2.334-19.18 4.09-45.38-16.193-61.49-9.778-5.78-4.15-6.97-10.606-6.73-19.307-12.56 10.598-6.28 21.575-9.13 26.805-7.4 12.748-16.83 25.497-11.83 42.248 3.79 12.716 6.62 10.197 5.44 20.167-1.2 6.44-.57 23.855 3.92 18.758z" fill="#f90"/>
<path d="M931.76 290.3c-13.703-1.828-34.694 5.45-43.058 5.967-2.78-8.347-1.51-8.97-12.893-14.605 4.03 14.055 4.92 14.776-.02 19.504-20.39 4.87-41.43-20.772-41.04-34.226-.01-13.678 5.4-8.097 6.94-27.707-10.55 3.357-8.49 15.424-14.5 20.874-6.66 1.02-11.42-8.837-20.74-10.422-3.06 6.11 9.61 12.426 13.2 16.31 13.59 13.53 8.93 45.398 23.03 55.228-.74 6.86-5.92 11.17-13.85 15.48 16.01 4.76 22.61-6.043 28.78-6.417 15.27-.56 31.59.542 44.04-12.205 9.45-9.67 5.72-10.68 15.28-14.87 6.4-2.35 21.7-11.88 14.81-12.9z" fill="#f90"/>
<circle cy="122.1" cx="266.24" r=".806" transform="matrix(3.5085 0 0 3.345 6.33 -163.01)" fill="#fff"/>
<circle cy="122.1" cx="266.24" r=".806" transform="matrix(-1.639 -2.9574 3.102 -1.5626 914.32 1224.3)" fill="#fff"/>
<circle cy="122.1" cx="266.24" r=".806" transform="matrix(-1.807 2.867 -3.0073 -1.7227 1749 -240.21)" fill="#fff"/>
</svg>
