<svg id="anguilla_flag" viewBox="0 0 1200 600" xmlns="http://www.w3.org/2000/svg">
<clipPath id="c">
<path d="m0 0v150h700v150h-100zm600 0h-300v350h-300v-50z"/>
</clipPath>
<rect width="1200" fill="#00247d" height="600"/>
<path stroke="#fff" stroke-width="60" d="m0 0 600 300m0-300-600 300"/>
<path stroke="#cf142b" stroke-width="40" d="m0 0 600 300m0-300-600 300" clip-path="url(#c)"/>
<path stroke="#fff" stroke-width="100" d="m300 0v350m-300-200h700"/>
<path stroke="#cf142b" stroke-width="60" d="m300 0v350m-300-200h700"/>
<path d="m0 300h600v-300h200v400h-800z" fill="#00247d"/>
<path d="m780.58 154.04c0 148.83 11.873 201.68 52.606 242.48 40.733 40.804 56.166 47.231 67.523 53.483 13.102-7.2115 28.197-15.134 65.115-52.052 36.513-36.515 54.173-89.15 54.173-246.45-26.559 11.371-39.786 15.118-63.012 15.051-17.202 1.6855-43.74-9.3379-59.609-16.548-10.371 6.6025-25.415 14.476-52.451 15.36-31.225 1.3095-41.119-3.7352-64.345-11.322z" fill="#cc3"/>
<path d="m787.78 163.44c0 46.043-2.7218 108.79 7.0064 145.1 9.77 36.462 12.013 41.803 19.36 54.528l171.21-1.271c10.576-18.318 11.11-29.665 18.953-58.935 7.8148-29.165 9.7886-94.177 10.017-142.6-17.216 8.7244-39.761 14.908-61.644 12.195-17.542-1.2754-33.751-5.0926-52.627-15.264-16.374 9.3526-22.082 13.622-49.118 14.714-21.051 0.98975-38.102 2.615-63.152-8.4679z" fill="#fff"/>
<path d="m814.51 362.06c12.185 24.448 69.632 71.303 86.433 81.003 19.168-11.067 69.848-57.368 83.973-81.003h-170.41z" fill="#9cf"/>
<path d="m904.22 231.61c5.4136 12.14 22.77 25.545 27.541 32.114-6.0731 6.5693-7.2871 5.8539-6.4906 18.059 10.56-10.534 10.75-11.632 17.542-10.035 14.879 14.156 2.6629 44.557-9.6342 51.167-12.294 7.051-10.062-0.24417-28.489 8.593 8.4484 6.8871 18.237-1.0102 26.236 1.1005 4.347 4.917-2.0665 13.878 1.3122 22.317 7.0695-0.6489 6.2205-14.256 7.866-19.19 5.1644-18.076 36.214-30.683 37.793-47.263 6.5468-2.9301 13.09-0.9165 21.051 3.3449-3.9646-15.534-17.079-15.366-20.595-20.218-8.3677-12.191-15.784-26.098-33.657-29.706-13.567-2.7388-12.553 0.82385-21.247-4.83-5.4136-4.0185-21.861-11.618-19.23-5.4542z" fill="#f90"/>
<path d="m860.84 283.11c8.7294-10.234 13.053-31.127 16.917-38.218 8.9296 2.0504 8.8331 3.4079 19.78-2.965-14.703-3.9808-15.81-3.6276-17.501-10.099 6.177-19.155 40.079-23.06 51.953-15.782 12.282 7.0689 4.4742 8.596 21.278 20 2.4404-10.339-9.4563-14.901-11.236-22.63 2.5293-5.9613 13.836-4.7412 20.084-11.532-3.9044-5.6561-16.127 1.4162-21.471 2.334-19.176 4.0908-45.373-16.193-61.488-9.7782-5.7758-4.1498-6.9651-10.606-6.7319-19.307-12.554 10.598-6.2722 21.575-9.1292 26.805-7.3968 12.748-16.83 25.497-11.826 42.248 3.798 12.716 6.6284 10.197 5.4464 20.167-1.1978 6.4406-0.56211 23.855 3.9251 18.758z" fill="#f90"/>
<path d="m931.76 290.3c-13.703-1.8284-34.694 5.4511-43.058 5.9667-2.7785-8.3464-1.51-8.97-12.893-14.605 4.032 14.055 4.9217 14.776-0.0129 19.504-20.39 4.8688-41.432-20.772-41.041-34.226-0.008-13.678 5.402-8.0971 6.9468-27.707-10.543 3.3569-8.4845 15.424-14.502 20.874-6.6596 1.0199-11.413-8.8364-20.741-10.422-3.0576 6.1114 9.6134 12.426 13.202 16.311 13.592 13.53 8.9346 45.397 23.029 55.227-0.7374 6.8592-5.9178 11.169-13.849 15.48 16.008 4.7605 22.612-6.0429 28.784-6.4171 15.27-0.5594 31.594 0.5423 44.042-12.205 9.45-9.6766 5.7247-10.683 15.286-14.876 6.4012-2.3543 21.705-11.881 14.808-12.906z" fill="#f90"/>
<circle cy="122.1" cx="266.24" r=".806" transform="matrix(3.5085 0 0 3.3449 6.3307 -163.01)" fill="#fff"/>
<circle cy="122.1" cx="266.24" r=".806" transform="matrix(-1.639 -2.9574 3.1021 -1.5626 914.32 1224.3)" fill="#fff"/>
<circle cy="122.1" cx="266.24" r=".806" transform="matrix(-1.807 2.8671 -3.0073 -1.7227 1749 -240.21)" fill="#fff"/>
</svg>
