<svg id="angola_flag" xmlns="http://www.w3.org/2000/svg" xmlns:xlink="http://www.w3.org/1999/xlink" viewBox="0 0 450 300">
<rect width="450" height="300"/>
<rect width="450" fill="#ce1126" height="150"/>
<g fill="#f9d616">
<path d="m231.12 91.82a58.5 58.5 0 1 1 -43.2 103.42l-8.56 10.44a72 72 0 1 0 53.17 -127.29z"/>
<g id="s3">
<path id="s" d="m302.62 142.35c0.51 5.09 0.51 10.21 0 15.3l-14.92-1.47c0.4-4.11 0.4-8.25 0-12.35z"/>
<use xlink:href="#s" transform="rotate(22.5,225,150)"/>
<use xlink:href="#s" transform="rotate(45,225,150)"/>
</g>
<use xlink:href="#s3" transform="rotate(-67.5,225,150)"/>
<use xlink:href="#s3" transform="rotate(67.5,225,150)"/>
<path d="m199.32 114.66h51.36l-41.55 30.18 15.87-48.84 15.87 48.84z"/>
<path d="m287.88 216.31c3.84 3.72 9.01 7.38 12.75 10.71 3.75 3.32 6.62 6.09 8.95 9.87 3.41 5.54-0.42 11.81-5.73 8.13-2.86-1.99-4.67-7.37-9.06-11.82-3.26-2.77-5.82-5.67-14-7.07-0.4-0.07-0.51-0.9-0.2-1.26z"/>
<path d="m231.36 197.85 20.25 11.97 4.4 17.08 23.24-1.77 10.21-11.97-37.85-26.23-20.25 10.92z" fill="#000"/>
<path d="m279.66 223.69c-26.03-17.31-42.59-26.66-67.54-40.85-9.8-5.57-25.02-19.58-13.01-43.02 0.75 15.39 61.56 57.62 87.26 75.99z"/>
<path stroke="#000" stroke-width="1.5" stroke-linecap="round" d="m216.09 167.52c20.04 18.89 45.29 34.3 67.81 51.33" fill="none"/>
<circle id="c" cy="222.3" cx="290.4" r="1.008" fill="#000"/>
<use y="6.4655991" x="7.41957" xlink:href="#c"/>
<use y="13.090317" x="13.93812" xlink:href="#c"/>
</g>
</svg>
