<svg id="angola_flag" xmlns="http://www.w3.org/2000/svg" viewBox="0 0 640 480">
<g stroke-width="1pt" fill-rule="evenodd">
<path d="m0 0h640v243.57h-640z" fill="red"/>
<path d="m0 236.43h640v243.57h-640z"/>
</g>
<path fill="#ffec00" d="m228.67 148.17c165.22 43.304 58.99 255.64-71.216 167.26l-8.817 13.545c76.628 54.658 152.57 10.66 173.9-46.358 22.297-58.788-7.52-141.48-92.51-150.03l-1.356 15.576z" fill-rule="evenodd"/>
<path fill="#ffec00" d="m169.96 330.83l21.73 10.125-10.142 21.696-21.73-10.125zm148.98-99.48h23.98v23.942h-23.98zm-11.68-38.89l22.342-8.694 8.707 22.31-22.342 8.693zm-25.9-29.19l17.035-16.85 16.877 17.01-17.035 16.85zm-26.28-39.79l22.434 8.455-8.468 22.4-22.434-8.455zm61.02 146.53l22.265 8.888-8.902 22.23-22.265-8.887zm-69.88 70.05l22.06-9.388 9.402 22.025-22.058 9.39zm-39.5 2.77h23.98v23.94h-23.98zm41.29-115.94l-20.35-15.006-20.245 14.47 8.034-22.92-20.348-14.956 24.447-0.17 8.567-22.55 7.782 22.702 24.7-0.242-19.586 15.232 6.996 23.44z" fill-rule="evenodd"/>
<path fill="#fe0" d="m336.03 346.38c-1.21 0.418-6.23 12.39-9.675 18.248 1.797 0.51 2.56 0.596 3.625 1.025 13.655 4.8 20.384 9.18 26.186 17.504 2.888 2.79 7.032 2.93 10.198 0.697 0 0 2.795-1.114 6.43-5.02 2.968-4.52 2.194-8.11-1.384-11.16-10.944-7.952-22.9-13.902-35.38-21.295z" fill-rule="evenodd"/>
<path d="m365.25 372.84c0 2.388-1.94 4.324-4.33 4.324s-4.333-1.936-4.333-4.324 1.94-4.325 4.332-4.325 4.33 1.936 4.33 4.325zm-21.38-13.67c0 2.388-1.94 4.324-4.33 4.324s-4.333-1.936-4.333-4.324 1.94-4.325 4.332-4.325 4.33 1.936 4.33 4.325zm10.9 6.97c0 2.39-1.94 4.325-4.33 4.325s-4.333-1.936-4.333-4.325 1.94-4.324 4.332-4.324 4.33 1.937 4.33 4.325z" fill-rule="evenodd"/>
<path fill="#fe0" d="m324.47 363.67c-42.57-24.273-87.31-50.52-129.88-74.796-18.75-11.635-19.683-33.384-7.17-49.875 1.302-2.337 2.836-1.758 3.514-0.524 1.463 8.03 5.97 16.325 11.37 21.496 44.693 28.383 87.732 55.804 131.71 85.613-3.448 5.767-6.104 12.32-9.55 18.086z" fill-rule="evenodd"/>
<path fill="#ffec00" d="m297.17 305.46l17.85 15.986-16.01 17.824-17.85-15.986z" fill-rule="evenodd"/>
<path stroke="#000" stroke-width="3.05" d="m331.54 348.82l-124.96-75.52m109.53 58.09l-42.24-27.28m18.21 42.69l-42.75-24.755" fill="none"/>
</svg>
