<svg id="antarctica_flag" xmlns="http://www.w3.org/2000/svg" viewBox="0 0 512 512">
<path fill="#3a7dce" d="m-85.333 0h682.67v512h-682.67z" fill-rule="evenodd"/>
<path d="m111.82 240.35c-3.08-6.3-3.08-6.3-3.08-12.596-1.54 0-1.828 0.296-2.72 0.048-0.89-0.245-1.226 5.808-4.113 4.626-0.48-0.59 2.07-4.968-0.698-6.788-0.89-0.593 0.216-4.184-0.17-5.76 0 0-3.512 1.87-6.16-4.722-1.3-1.723-3.08 1.574-3.08 1.574s0.77 2.017-0.624 2.51c-1.973-1.477-3.418-0.703-5.92-2.732-2.502-2.03 0.53-4.354-4.235-6.076 3.082-7.873 3.082-6.3 10.78-9.447-4.62-3.15-4.62-3.15-7.698-7.874-4.62-1.574-6.16-3.148-10.78-6.297-6.16-7.874-9.24-23.618-9.24-34.64 3.9-3.69 9.24 12.596 16.94 17.32l10.78 4.723c6.16 3.148 7.7 6.296 12.32 9.446l13.86 4.724c6.16 4.723 9.24 11.022 13.86 12.596 5.005 0 5.97-2.948 7.574-3.13 9.053-0.476 13.674-1.668 15.478-4.448 1.828-2.214 6.207 1.28 18.527-3.444l-1.538-6.3s3.272-2.754 7.7-1.573c-0.12-2.878-0.41-10.553 3.95-14.016-2.648-2.84-0.87-4.877-0.87-4.877s2.454-2.412 2.742-3.69c-1.298-6.94 1.127-7.046 1.67-9.088 0.544-2.04-2.094-1.342-1.35-4.156 0.742-2.814 5.203-3.482 5.8-5.8 0.6-2.32-1.27-3.482-1.163-4.035 0.963-2.215 0.146-7.43 0-9.448 8.278-2.264 10.974-9.152 13.86-6.298 1.54-9.448 3.08-12.596 12.32-12.596 1.3-2.903-3.37-5.364-1.54-6.298 3.08-0.394 5.438-0.197 9.05 4.576 1.14 1.512 1.346-2.215 2.5-2.608 1.155-0.394 3.92-0.4 4.33-2.264 0.435-1.92 1.06-4.428 2.6-7.577 1.3-2.56 2.31 0.984 3.465 6.003 6.497 0.246 21.175 1.722 27.334 3.444 4.62 1.23 7.7-1.23 12.126-1.722 3.272 3.346 6.352 0.836 8.085 7.97 2.446 3.85 6.45 0.346 7.316 1.477 5.15 14.514 22.86 4.723 24.206 4.97 2.26 0 5.023 6.49 6.803 6.328 2.894-0.498 2.075-2.516 4.6-1.704-0.673 5.462 4.96 11.76 4.96 15.844 0 0 1.37 0.69 2.64-0.523 1.27-1.21 2.436-4.323 3.566-4.25 2.696 0.394 3.788 0.748 6.894 1.303 8.35 2.917 12.603 3.575 15.846 5.07 1.51 2.823 2.97 4.268 6.03 3.74 2.526 1.736 0.683 4.01 2.175 4.157 3.08-1.575 4.09-3.297 7.17-1.722 3.08 1.574 6.16 4.724 7.7 7.873 0 1.574-1.54 7.872 0 17.32 0.77 3.148 1.143 5.645 4.45 11.046-0.878 5.548 4.164 14.884 4.164 17.246 0 3.148-2.456 4.773-3.996 7.92 6.16 4.725 0 12.597-3.08 17.32 23.1 4.725 12.32 14.172 30.8 9.448-4.62 11.022-2.984 10.137 1.636 21.16-9.24 6.298-0.192 8.216-6.35 16.088-0.386 0.493 3.655 6.84 9.334 6.84-1.54 12.596-6.16 7.873-4.62 26.767-12.127-0.244-7.22 14.123-15.4 12.597 0.48 9.005 4.668 9.792 3.08 18.894-6.16 1.576-6.16 1.576-9.24 6.3l-4.62-1.575c-1.54 7.873-4.62 9.447 0 17.32 0 0-5.967 0.197-7.7 0-0.144 2.707 2.648 3.445 3.08 6.298-0.24 1.132-8.758 6.1-15.4 6.3-1.73 3.886 4.62 8.02 4.236 9.987-7.22 1.427-10.395 10.48-10.395 10.48s3.705 1.526 3.08 3.15c-1.972-1.477-3.08-1.575-6.16-1.575-1.54 0.394-5.293-0.096-8.892 6.114-3.95 1.33-5.814 0.85-8.81 4.9-1.327-3.86-3.235 0.037-5.568 1.534-2.33 1.5-5.47 5.226-5.893 5.067 0.097-1.082 1.444-5.02 1.444-5.02l-7.7 1.576-0.948 0.097c-0.606 0.06-0.444-4.596-1.903-4.427-1.46 0.17-5.634 5.857-7.057 6.035-1.42 0.18-1.87-1.808-3.095-1.635-1.224 0.173-3.61 6-4.478 6.153-0.867 0.155-4.306-3.54-7.253-3.025-15.16 5.463-17.567-10.775-19.924-1.622-3.176-1.722-2.626-0.723-5.853 0.142-2.06 0.543-2.247-2.783-4.078-2.732-3.664 0.106-3.47 3.65-5.47 2.59-1.634-7.38-11.5-6.053-12.463-9.2-0.782-3.285 4.275-3.27 5.91-5.495 1.25-3.21-1.306-4.43 3.77-7.527 6.613-4.574 2.81-6.3 3.97-9.736 2.074-4.964 2.086-6.175 0.354-10.554 0 0-5.15-14.17-6.16-14.17-3.08-0.886-3.08 5.214-7.604 6.888-9.24 3.148-25.552-7.972-28.392-7.972-2.597 0.05-14.632 2.914-14.178-3.222-1.8 5.966-8.416 1.402-8.824 1.402-6.16 0-3.802 4.87-7.94 4.674-1.88-0.64-20.838-1.77-20.838-1.77v3.148l-12.32-6.3-10.78-3.147c-9.24-3.15-4.62-11.023-20.02-6.3v-9.447h-7.7c3.08-18.895 0-9.447-1.54-26.767l-6.16 1.575c-6.16-8.512 8.566-6.888-4.62-12.595 0 0 0.242-9.4-3.08-6.3-0.673 0.395 1.54 4.725 1.54 4.725-12.32-1.574-15.4-4.724-15.4-17.32 0 0 10.155 1.477 9.24 0-1.443-2.36-3.32-17.713-2.983-18.747-0.145-2.067 9.432-7.282 7.58-12.253 1.178-0.443 4.642-0.49 4.642-0.49" fill="#fff"/>
<path stroke-linejoin="round" d="m527.55 303.26c-0.493 1.108-0.405 2.215 0.104 3.005 0.914-1.37 0.142-2.003-0.104-3.005z" stroke="#fff" stroke-linecap="round" stroke-width="2.249" fill="none"/>
<path stroke-linejoin="round" stroke="#fff" stroke-width="2.108" d="m131.51 178.94s-2.583-0.316-2.003 1.95c0.844-1.74 1.95-1.844 2.003-1.95zm0.58-5.27c-1.423 0.053-3.163-0.21-2.583 2.055 0.844-1.74 2.53-1.95 2.583-2.055zm9.72 30.2s2.214-0.158 1.634 2.108c-0.844-1.74-1.58-2.002-1.634-2.108z" fill="none"/>
</svg>
