<svg xmlns="http://www.w3.org/2000/svg" viewBox="0 0 744 496">
<path fill="#3a7dce" d="M0 0h744v496H0z"/>
<path d="M183.3 238.54c-4.06-8.11-4.06-8.11-4.06-16.22-2.02 0-2.4.38-3.58.07-1.17-.32-1.61 7.47-5.41 5.95-.64-.76 2.72-6.4-.92-8.74-1.17-.76.28-5.38-.22-7.41 0 0-4.63 2.41-8.11-6.08-1.71-2.22-4.05 2.03-4.05 2.03s1.01 2.59-.83 3.23c-2.59-1.91-4.5-.91-7.79-3.52s.7-5.61-5.57-7.82c4.05-10.14 4.05-8.11 14.19-12.16-6.09-4.06-6.09-4.06-10.14-10.14-6.08-2.03-8.11-4.05-14.19-8.11-8.1-10.13-12.16-30.4-12.16-44.59 5.13-4.75 12.16 16.22 22.3 22.3l14.19 6.08c8.1 4.05 10.13 8.11 16.21 12.16l18.24 6.08c8.11 6.08 12.16 14.19 18.24 16.22 6.59 0 7.86-3.8 9.97-4.03 11.92-.61 18-2.15 20.37-5.73 2.41-2.85 8.18 1.65 24.39-4.43l-2.03-8.11s4.31-3.55 10.14-2.03c-.16-3.7-.54-13.58 5.2-18.04-3.49-3.66-1.15-6.28-1.15-6.28s3.23-3.1 3.61-4.75c-1.71-8.93 1.48-9.07 2.2-11.7.72-2.62-2.76-1.72-1.78-5.35.98-3.62 6.85-4.48 7.64-7.46.79-2.99-1.68-4.48-1.53-5.2 1.26-2.84.19-9.56 0-12.156 10.89-2.914 14.44-11.782 18.24-8.108 2.03-12.16 4.05-16.215 16.21-16.215 1.71-3.73-4.43-6.9-2.02-8.1 4.05-.5 7.15-.25 11.91 5.89 1.5 1.95 1.77-2.85 3.29-3.35s5.16-.51 5.7-2.91c.57-2.47 1.39-5.7 3.42-9.75 1.71-3.29 3.04 1.27 4.56 7.73 8.55.32 27.87 2.22 35.98 4.44 6.08 1.59 10.13-1.58 15.96-2.21 4.3 4.31 8.36 1.08 10.64 10.26 3.22 4.96 8.49.45 9.63 1.91 6.77 18.69 30.08 6.08 31.86 6.4 2.97 0 6.61 8.36 8.95 8.15 3.81-.64 2.73-3.24 6.06-2.19-.89 7.03 6.52 15.14 6.52 20.39 0 0 1.81.89 3.48-.67s3.2-5.57 4.69-5.47c3.55.51 4.99.96 9.07 1.67 11 3.76 16.59 4.61 20.86 6.53 1.99 3.63 3.91 5.49 7.94 4.82 3.32 2.23.9 5.16 2.86 5.35 4.06-2.03 5.38-4.25 9.44-2.22 4.05 2.03 8.11 6.08 10.13 10.13 0 2.03-2.02 10.14 0 22.3 1.02 4.05 1.51 7.27 5.86 14.22-1.15 7.14 5.48 19.16 5.48 22.2 0 4.05-3.23 6.14-5.26 10.2 8.11 6.08 0 16.21-4.05 22.29 30.4 6.08 16.22 18.24 40.54 12.16-6.08 14.19-3.93 13.05 2.15 27.24-12.16 8.11-.25 10.58-8.36 20.71-.51.64 4.81 8.81 12.29 8.81-2.03 16.21-8.11 10.13-6.08 34.45-15.96-.31-9.5 18.18-20.27 16.22.63 11.59 6.14 12.6 4.05 24.32-8.1 2.03-8.1 2.03-12.16 8.11l-6.08-2.03c-2.03 10.14-6.08 12.16 0 22.3 0 0-7.85.25-10.13 0-.19 3.48 3.48 4.43 4.05 8.11-.32 1.45-11.53 7.85-20.27 8.1-2.28 5.01 6.08 10.33 5.57 12.86-9.5 1.84-13.68 13.49-13.68 13.49s4.88 1.97 4.06 4.06c-2.6-1.91-4.06-2.03-8.11-2.03-2.03.51-6.97-.12-11.7 7.87-5.2 1.71-7.66 1.09-11.6 6.31-1.75-4.97-4.26.05-7.33 1.97-3.07 1.93-7.2 6.73-7.76 6.53.13-1.4 1.91-6.47 1.91-6.47l-10.14 2.03s-.45.04-1.25.13c-.79.07-.58-5.92-2.5-5.7s-7.42 7.54-9.29 7.77c-1.87.22-2.46-2.33-4.07-2.11-1.62.22-4.76 7.72-5.9 7.92s-5.66-4.56-9.54-3.89c-19.96 7.03-23.12-13.87-26.23-2.09-4.18-2.22-3.45-.93-7.7.18-2.71.7-2.96-3.58-5.37-3.52-4.82.14-4.57 4.7-7.2 3.34-2.15-9.5-15.14-7.79-16.4-11.85-1.03-4.22 5.62-4.2 7.78-7.07 1.64-4.13-1.72-5.7 4.96-9.69 8.7-5.89 3.7-8.11 5.22-12.53 2.73-6.39 2.75-7.95.47-13.59 0 0-6.78-18.24-8.11-18.24-4.05-1.14-4.05 6.71-10.01 8.87-12.16 4.05-33.63-10.26-37.37-10.26-3.42.06-19.26 3.75-18.66-4.15-2.36 7.68-11.07 1.8-11.61 1.8-8.11 0-5.01 6.27-10.45 6.02-2.48-.82-27.43-2.28-27.43-2.28v4.05l-16.21-8.1-14.19-4.06c-12.16-4.05-6.08-14.19-26.35-8.11v-12.16h-10.14c4.06-24.32 0-12.16-2.02-34.45l-8.11 2.02c-8.11-10.95 11.27-8.86-6.08-16.21 0 0 .31-12.1-4.05-8.11-.89.51 2.02 6.08 2.02 6.08-16.21-2.03-20.27-6.08-20.27-22.29 0 0 13.37 1.9 12.16 0-1.9-3.04-4.37-22.81-3.92-24.14-.19-2.66 12.41-9.37 9.97-15.77 1.56-.57 6.12-.63 6.12-.63" fill="#fff"/>
<path d="M595.51 297.57c-.59 1.33-.49 2.66.13 3.61 1.1-1.64.17-2.4-.13-3.61zm-476-149.42s-3.1-.38-2.41 2.35c1.02-2.09 2.35-2.22 2.41-2.35zm.7-6.33c-1.71.06-3.8-.25-3.11 2.47 1.02-2.09 3.05-2.34 3.11-2.47zm11.68 36.29s2.66-.19 1.96 2.54c-1.01-2.09-1.9-2.41-1.96-2.54z" stroke-linejoin="round" stroke-width="2.5" stroke="#fff" fill="none"/>
</svg>
