<svg id="american_samoa_flag" xmlns="http://www.w3.org/2000/svg" viewBox="0 0 1000 500">
<g>
<rect width="1e3" height="500" fill="#006"/>
<path d="m0 250l1e3 -250v500l-1e3 -250z" fill="#BD1021"/>
<path d="m107.14 250l892.86-223.21v446.42" fill="#fff"/>
<g stroke="#000">
<path stroke-linejoin="round" stroke-width="1.72" d="m907.45 766.23s-6.243-5.108 1.135-13.337c-3.973-3.405-0.283-9.931-0.283-9.931s-6.811-2.555 0.283-13.054c-5.108-3.405-2.838-11.068-2.838-11.068s-16.742-6.243-0.85-12.201c-13.054 5.675-25.257-7.663-25.257-7.663l-19.012 0.568c-3.216-15.797-28.283-2.081-9.648-47.39-4.824-0.851-10.216-2.27-15.607 1.703-5.392 3.973-20.715 12.486-29.796 3.973s5.959-20.715 6.243-20.999 20.148-10.5 22.986-17.31c-0.284-5.108-6.527-9.081-0.851-20.148 6.527-10.5 46.538-20.432 64.701-23.837 8.796-3.973 12.769-11.635 12.769-11.635l1.987 7.378s40.296-11.918 42.282-17.594c1.987-5.675 0.852 5.108 0.852 5.108 15.891-1.419 36.038-15.04 38.876-8.797 13.337-2.554 38.877-13.905 38.877-13.905s8.796-0.284 2.553 9.365c3.973 6.243-1.135 11.635-1.418 11.635-0.285 0 1.702 6.243-3.406 9.648 1.705 5.392-3.121 9.648-3.121 9.648s2.271 6.527-6.81 9.932c0.852 5.676-5.108 6.811-5.108 6.811s0.852 5.959-3.122 8.513c0 4.54-4.54 6.811-4.54 6.811s2.837 1.703-1.136 4.54c-3.972 2.838-45.119 28.093-45.119 27.81 0-0.284 30.08 5.392 32.066 6.527 1.987 1.135 24.688 16.175 24.688 16.175l-22.987 28.377s-25.539-2.837-26.673-1.418c-1.135 1.418 5.391 1.986 6.81 4.256 1.42 2.27 3.69 7.663 8.229 7.095 4.541-0.568-8.513 8.229-17.026 9.081 0 3.121 10.783 3.405 13.621 0.852 2.838-2.555-6.811 7.378-7.946 8.796s12.771-1.987 12.771-1.987-2.271 9.364-14.472 12.202c4.823 7.946 2.837 13.054 2.553 13.054s-7.946-7.946-15.324-6.528c1.987 7.663 7.946 14.756 9.649 15.892 1.702 1.135-13.337 0.85-15.324-3.406s-3.69 10.216 1.702 14.757c-6.242 0.283-11.634-3.406-11.634-3.406s-3.688 8.513-1.135 12.771c2.555 4.256-8.796-8.514-8.796-8.514l-21.567 9.081-5-8.24z" fill="#AA5323"/>
<g stroke-width="1.72" fill="#FFC221">
<path d="m740.77 749.34c0.505 0 31.331-0.506 45.48-8.591 7.075 11.117 16.676 18.697 16.676 18.697l4.548-16.17s11.117 0.505 12.128 3.032c-1.516 3.031-2.021 7.074-2.021 7.074s7.58 0.506 8.085 1.516c0.505 1.011-2.021 9.601-2.021 9.601l32.342 7.58s2.527-12.633 5.053-11.117c2.527 1.516 13.644 17.181 29.31 18.192 15.665 1.011 16.676-13.139 16.676-13.139l3.537 2.022s6.569-14.149 7.58-14.149 2.527 2.021 11.117 2.021c2.527 3.032 3.538 10.106 3.538 10.106s-9.602 9.602-6.57 17.183c3.032 7.58 3.538 5.558 3.538 5.558l69.736 16.676s3.538 5.559-2.526 8.591c0 0.505-70.242-16.171-70.242-16.171s-6.57 7.58-11.623 6.064c-5.053-1.516-1.516 3.032-1.516 3.032l75.8 6.064s5.559 7.075 1.516 9.096c-5.053 0.505-81.864-5.053-81.864-5.053s-4.548 9.601-9.601 1.516c-3.537 5.558-7.58-1.516-7.58-1.516s-6.569 5.053-7.58-0.506c-5.559 4.043-9.096-2.526-9.096-2.526l-32.341-2.022-2.021 3.032s5.559 1.516-3.032 5.054c-8.591 3.537 51.544 2.021 53.06 2.526 1.516 0.506-4.042 5.054-4.042 5.054s30.825 2.021 36.383-4.548c5.559-6.57-2.021 8.59-2.021 8.59s24.256-1.01 24.256-2.021-0.506 7.58-17.181 6.569c10.106 6.57 22.739 10.612 22.739 10.612s-12.633 3.032-27.287-0.505c2.526 6.569 13.644 12.633 13.644 12.633s-8.086 7.075-26.279-10.107c5.054 9.096 1.011 12.634 0.506 11.623-0.506-1.011-9.096-13.644-29.309-18.192 12.633 8.085 7.074 11.623 7.074 11.623s-6.569-11.623-17.181 0c-4.043-10.612-19.708-16.676-38.911-17.687-6.064-7.074-9.601-5.053-23.751-9.096-8.085-9.095-19.708-19.202-19.708-19.202s0.505-13.644 14.149-12.128c1.516 4.548 1.516 3.032 1.516 3.032s15.16-5.559 19.708 2.021c6.569-11.623 15.665-1.737 17.181 2.304 4.354 0.638 26.278 1.233 26.278 1.233s-2.527-4.548-1.011-4.042c1.516 0.505 13.644-4.548 13.139-6.064-0.506-1.516-1.011-6.569 1.01-6.064 2.022 0.505-17.181-2.527-27.793 5.559-3.537-3.538-1.011-13.139-1.011-13.139l-31.331-6.569-1.516 8.085s-9.096 1.516-8.591-0.505c0.505-2.022-2.021 7.074-2.021 7.074s-12.128-3.032-12.128-3.537c0-0.505 3.537-18.192 3.537-17.687 0 0.506-10.107 1.011-24.256 11.623-4.043-12.633-35.879-29.309-35.879-29.814l-0.04 0.05z"/>
<path d="m780.19 707.9s-21.224 18.191 0 28.803c1.011-7.075 2.527-8.085 2.527-8.085s17.687 6.569 28.299-9.096c-4.548-6.569-12.633-4.042-12.633-4.042s-16.68 0-18.2-7.58z"/>
</g>
<path stroke-width="1.72" d="m797.88 715.99l-14.655 12.633" fill="none"/>
<g stroke-width="1.72" fill="#fff">
<path stroke-linejoin="round" d="m780.89 708.05s2.838-2.838 3.689-6.243-1.135-7.094 2.27-10.216 48.241-22.134 51.93-25.823 10.499-11.634 11.351-13.337c0.851-1.703 3.405 8.513-4.257 13.054 8.229-2.271 13.621-4.824 17.026-3.689-3.406 4.824-12.486 12.77-16.743 12.77 9.932-3.69 19.012-6.811 21.567-4.825 2.553 1.987-12.202 11.919-18.162 12.486 9.932-2.553 23.27-6.526 24.971-2.27-5.391 1.703-3.69 3.12-14.756 9.364-1.419 1.136-8.513 1.418-8.513 1.418 8.513-0.852 20.147-4.256 21.282 1.987-6.81 2.553-9.364 5.959-15.039 7.378-5.675 1.42-18.729 3.973-26.675 7.095-7.945 3.121-19.58 12.202-19.58 12.202s-25.256 0.852-25.256 0.567c0-0.283-4.824-11.634-5.108-11.918z"/>
<path d="m997.4 690.74l49.092 9.364s5.393-6.243 2.555-9.648c7.378-1.702 5.391-11.351 5.391-11.351s8.513-3.688 1.418-12.202c4.826-4.824-1.135-8.513-1.135-8.513s1.987-8.513-4.256-9.364c1.703-6.81-10.783-9.081-10.783-9.081s-25.823 7.094-43.985 7.662c5.959 5.959-2.27 9.648-2.27 9.648s4.825 3.405 3.405 6.243c-1.418 2.838 0.852 5.96-5.391 7.946 8.229 3.69-0.852 9.931-0.852 9.931s9.05 6.24 6.78 9.36z"/>
</g>
<g fill="none">
<path stroke-width="1.72" d="m817.58 753.89l-6.569 29.309"/>
<path stroke-width="1.72" d="m823.65 765l-2.021 9.601"/>
<path stroke-width="1.72" d="m855.99 772.58l-3.032 9.096"/>
<path stroke-width="1.72" d="m912.08 834.23c-0.505 0-16.17 2.021-18.192 1.516-2.021-0.505 24.761 8.085 24.761 11.622"/>
<path stroke-width="1.72" d="m883.78 837.77s-15.666-10.106-18.192-9.096c-2.527 1.011 15.665-0.505 17.181-2.021"/>
<path stroke-width="1.72" d="m851.44 826.15s-16.171 0.505-17.687-1.011 15.665 11.117 18.697 10.107"/>
<path stroke-width="1.72" d="m820.11 819.07c-0.505 0-11.117-4.042-15.665-5.054 4.043 4.043 7.075 9.602 17.181 11.623"/>
<path stroke-width="1.72" d="m824.15 812.51c-0.505-1.011-20.213-7.075-20.213-10.107 4.548 1.516 11.117 3.537 17.181 2.021"/>
<path stroke-width="1.72" d="m928.76 789.26l-2.021 9.095"/>
<path stroke-width="1.72" d="m843.01 803.73s3.378 3.724 0.346 8.272"/>
<path stroke-width="1.72" d="m914.1 807.45l-5.558 0.506"/>
<path stroke-width="1.72" d="m868.62 804.42l10.106 1.516"/>
<path stroke-width="1.72" d="m895.81 778.43s0.283 10.216-8.229 9.933c-8.513-0.285-5.676 0.283-5.676 0.283"/>
<path stroke-width="1.72" d="m902.34 776.72s3.405 1.135 2.555 3.69c-0.852 2.553 0.85 9.931-9.081 17.026-10.501 2.27-9.364-8.796-9.364-8.796"/>
<path stroke-width="1.72" d="m906.03 779.85s6.243-3.688 7.094 2.271c0.85 5.958-5.108 17.026-9.364 18.729-4.258 1.702-9.081-0.285-8.514-3.122"/>
<path stroke-width="1.72" d="m913.69 782.4s5.676-4.541 7.378 1.418c1.703 5.96-4.54 19.297-7.094 19.58"/>
<path stroke-width="1.72" d="m921.64 783.82s2.838-1.418 4.823 0.283"/>
<path stroke-width="1.72" d="m912.56 804.25c-1.135 0.283-5.959 0.567-7.661-3.121"/>
<path stroke-width="1.72" d="m887.02 794.32c-0.283 0-5.958 0.285-5.958 0.285"/>
<path stroke-width="1.72" d="m908.87 816.74l-0.567-9.364-2.27-3.121-3.973 3.973s-0.568 9.364-2.27 10.216"/>
<path stroke-width="1.72" d="m902.06 807.94c-0.283-0.567-3.122-5.958-3.122-5.958l-4.825 5.958s-0.567 8.514-2.27 9.366"/>
<path stroke-width="1.72" d="m894.11 807.66c0-0.283-1.987-5.675-1.987-5.675s-5.675 3.121-6.243 5.391c-0.567 2.27-0.852 8.513-2.27 9.081"/>
<path stroke-width="1.72" d="m885.88 806.24s0.568-5.108-1.135-5.108c-1.702 0-9.364 7.095-9.648 13.337"/>
<path stroke-width="1.72" d="m792.8 706.07s0.284-5.675 2.838-7.661c2.554-1.987 15.324-6.811 18.161-11.068 2.838-4.256-4.257 7.378-3.122 10.499"/>
<path stroke-width="1.72" d="m797.91 697.55s6.243 2.271 4.824 7.094"/>
<path d="m805.29 700.82c0 2.586-2.096 4.682-4.682 4.682s-4.682-2.096-4.682-4.682 2.096-4.682 4.682-4.682 4.68 2.09 4.68 4.68z"/>
<path stroke-width="1.72" d="m992.58 680.24s43.417 5.108 45.404 5.108c1.986 0 9.648 2.555 11.068 5.108"/>
<path stroke-width="1.72" d="m994.85 677.69l60.443 1.418"/>
<path stroke-width="1.72" d="m995.13 676.27s57.321-3.405 61.294-9.364"/>
<path stroke-width="1.72" d="m996.84 663.78s57.606-6.243 58.174-5.392"/>
<path stroke-width="1.72" d="m994.85 656.69s55.903-8.797 56.47-7.378"/>
<path stroke-width="1.72" d="m835.37 620.65s17.594 19.296 15.891 32.35"/>
<path stroke-width="1.72" d="m850.13 642.78s5.675 8.229 7.945 9.081c2.27 0.851 22.134 1.986 23.269 10.5 1.135 5.392-4.256 3.688-3.405 7.662 1.418 5.108 14.756 11.634 29.228 3.973"/>
<path stroke-width="1.72" d="m893.83 677.97s11.918 17.594 29.512-1.418"/>
<path stroke-width="1.72" d="m914.26 684.22s14.472 7.661 26.39-12.202"/>
<path stroke-width="1.72" d="m925.33 685.92s7.094 5.96 21.852-1.985"/>
<path stroke-width="1.72" d="m967.61 675.99s21.85 4.54 23.27 5.96"/>
<path stroke-width="1.72" d="m975.84 671.16c0.283 0 15.324 0.568 15.324 0.568"/>
<path stroke-width="1.72" d="m966.47 662.65s26.107-1.703 29.513 3.69"/>
<path stroke-width="1.72" d="m955.12 654.42s36.607 1.419 38.309 3.405"/>
<path stroke-width="1.72" d="m963.35 691.88s6.243-1.702 7.094-0.85"/>
<path stroke-width="1.72" d="m949.16 707.2s8.229 7.095 18.73 3.973"/>
<path stroke-width="1.72" d="m953.7 719.12s9.364 4.256 20.432 1.702"/>
<path stroke-width="1.72" d="m956.82 726.21s9.364 6.243 15.607 5.107"/>
<path stroke-width="1.72" d="m952.57 729.9s6.526 4.825 6.81 7.378"/>
<path stroke-width="1.72" d="m943.49 735.58s1.987 10.215 9.081 13.904"/>
<path stroke-width="1.72" d="m938.66 740.12s-3.122 13.337 4.825 21.567"/>
<path stroke-width="1.72" d="m930.43 750.62c0 0.283-0.567 6.243-0.283 6.811"/>
<path stroke-width="1.72" d="m879.35 698.97l15.324-0.852s5.675-2.27 1.702-5.958"/>
<path stroke-width="1.72" d="m898.37 695.57c0.285 0 14.472 1.135 18.162 5.391 3.688 4.256 8.229 12.769 10.783 14.189 2.555 1.418 3.122-0.568 3.122-0.568"/>
<path stroke-width="1.72" d="m924.19 712.31s-7.661 13.054-1.702 17.027"/>
<path stroke-width="1.72" d="m919.93 726.78s-6.81 9.081-1.418 13.621"/>
<path stroke-width="1.72" d="m917.1 739.27s-5.391 8.798 1.136 14.756"/>
<path stroke-width="1.72" d="m914.71 715.93c-0.366 0.366-6.591 4.76-8.788 3.662"/>
<path stroke-width="1.72" d="m908.12 729.85s2.563 2.563 4.76 2.197"/>
<path stroke-width="1.72" d="m908.42 743.15l4.09 2.805"/>
<path stroke-width="1.72" d="m908.97 753.34l3.538 2.135"/>
<path stroke-width="1.72" d="m844.88 614.18s7.46 3.879 13.428 0c5.969-3.879 34.615-18.501 42.075-20.888 7.459-2.387 11.637-16.114 13.13-22.082"/>
<path stroke-width="1.72" d="m907.85 587.32l41.777-12.235s6.863-5.67 7.162-16.114"/>
<path stroke-width="1.72" d="m953.8 570.31s41.776-4.178 41.776-19.695"/>
<path stroke-width="1.72" d="m989.01 561.36s43.866-11.936 48.044-16.412"/>
<path stroke-width="1.72" d="m866.67 623.72s26.558-13.727 30.736-15.219c4.177-1.492 13.725-13.428-0.597-13.428"/>
<path stroke-width="1.72" d="m879.5 629.1c0.299 0 21.783-14.025 28.945-15.815 3.88-5.371 1.791-11.041-4.774-9.847"/>
<path stroke-width="1.72" d="m910.23 609.7c0.597-0.298 11.638-0.597 7.759 8.057-5.668 4.178-30.139 16.412-30.139 16.412"/>
<path stroke-width="1.72" d="m904.56 600.45l46.551-15.517s3.88-8.057-1.79-9.25"/>
<path stroke-width="1.72" d="m988.12 561.66c0 0.298 5.969 3.581 2.388 8.952-6.565 3.879-37.599 11.339-37.599 11.339"/>
<path stroke-width="1.72" d="m1035.3 556.88l-43.86 12.238"/>
<path stroke-width="1.72" d="m1032 566.73l-38.195 11.638"/>
<path stroke-width="1.72" d="m1028.7 576.28l-33.72 10.14"/>
<path stroke-width="1.72" d="m1022.4 585.83c-0.896 0-25.065 7.46-25.065 7.46"/>
<path stroke-width="1.72" d="m1017.1 593.29l-15.518 6.266"/>
<path stroke-width="1.72" d="m1013.2 601.64c-0.597 0-13.428 5.67-13.428 5.67"/>
<path stroke-width="1.72" d="m1009.3 608.51l-11.936 5.669"/>
<path stroke-width="1.72" d="m988.71 621.34s1.493 0.597 1.194 2.387"/>
<path stroke-width="1.72" d="m958.57 637.75s5.074 1.79 0.299 6.565c-2.387 3.282-9.25 2.387-13.428 8.355"/>
<path stroke-width="1.72" d="m991.1 570.91s6.268 1.492 1.493 9.549c-12.534 4.774-37.898 12.533-37.898 12.533s-1.193 2.089-4.475 3.879c-3.282 1.79-39.389 11.936-39.389 11.936"/>
<path stroke-width="1.72" d="m993.19 580.16s6.863 2.984 0 8.057c-7.759 4.476-34.914 12.831-34.914 12.831s-0.299 2.387-1.491 3.282c-1.194 0.895-37.002 12.831-37.002 12.831"/>
<path stroke-width="1.72" d="m994.98 588.21s7.162 2.089 0.896 8.057c-7.46 4.476-31.333 12.533-31.333 12.533s-2.387 2.984-6.266 4.178c-3.88 1.194-28.646 11.339-28.646 11.339"/>
<path stroke-width="1.72" d="m996.77 596.27c2.09 0.895 7.759 1.791 0.896 7.162-8.056 3.581-27.751 11.339-27.751 11.339l-1.791 3.282-31.332 13.428"/>
<path stroke-width="1.72" d="m998.56 604.33s2.984 3.581-3.581 7.759c-7.162 3.879-22.678 9.847-22.678 9.847"/>
<path stroke-width="1.72" d="m994.98 612.68s3.282 2.089-0.894 5.073c-4.775 2.387-23.574 12.235-23.574 12.235l-12.236 8.057"/>
<path stroke-width="1.72" d="m952.01 585.23c0 0.298 5.074 4.476 3.282 9.25 4.477 3.282 3.581 6.863 3.581 6.863s6.266 3.581 5.372 8.654c6.266 1.492 5.968 5.073 5.968 5.073l-2.09 3.282s6.266-0.298 0.896 7.759c3.282 1.79 1.791 3.879 1.791 3.879"/>
<path stroke-width="1.72" d="m969.02 626.41c-0.896 0-21.783 7.759-27.155 12.533"/>
<path stroke-width="1.72" d="m918.59 617.16s6.266-0.298 5.372 6.565c7.162-2.387 5.669 4.476 5.669 4.476s8.355-3.282 6.863 7.162c5.371-1.194 4.475 4.178 4.475 4.178s4.775-0.298 4.775 2.387c3.282-2.984 6.863-1.492 6.863-1.492s2.387-3.283 5.669-2.387"/>
<path stroke-width="1.72" d="m924.26 623.43c0 0.597-28.051 16.114-28.051 16.114"/>
<path stroke-width="1.72" d="m929.63 628.5l-21.187 13.13"/>
<path stroke-width="1.72" d="m936.79 635.06c0 0.298-18.502 11.041-18.502 11.041"/>
<path stroke-width="1.72" d="m940.97 639.24s-13.13 10.743-16.114 10.146"/>
<path stroke-width="1.72" d="m945.45 642.52s-7.46 5.67-13.727 8.355"/>
<path stroke-width="1.72" d="m953.2 640.14s2.387 2.984-12.533 10.742"/>
</g>
</g>
<path d="m766.47 277.93c6.665 0.512 6.437 7.12 6.437 7.12l23.602 0.526c3.019-8.229 6.152-7.276 11.886-3.212 5.448 3.861 11.393 5.585 11.393 5.585 2.279-11.81 19.026-9.422 19.026-9.422 7.14-17.054 7.747-16.827 3.494-18.987s-5.988-5.814-5.988-5.814c-4.037-4.873-6.164-11.922-6.62-16.246s-5.469 2.164-6.38 0.799c-0.911-1.364-8.355-0.568-8.355-0.568 1.823 1.933-4.405 0.796-4.405 0.796 0.608 0.455 0 2.274 0 2.274-0.608-0.796-5.317-1.592-5.317-1.592-0.456 1.023-1.519 2.16-1.519 2.16-2.582-1.137-7.747-0.91-7.747-0.91-7.595-0.114-12.152 2.274-14.279 3.525s-9.722 5.116-15.95 11.142c-6.228 6.026-9.722 5.344-9.722 5.344-1.823 6.708-16.709 14.894-16.709 14.894-2.43 2.16-9.874 3.183-13.671 0s0-8.868 0-8.868c1.405-2.658 2.798-2.548 2.953-11.77 0.105-6.236 6.542-11.182 13.149-18.43 8.078-8.861 19.368-23.449 19.368-23.449 0.057 4.477 2.506 5.202 2.506 5.202 2.222-4.562 5.412-8.229 5.412-8.229 0.171 0.384 0.627 0.64 0.627 0.64 2.506-3.411 4.044-4.775 4.044-4.775-0.854-0.341-7.861 0-14.412 5.713s-11.051 3.795-11.051 3.795c-4.557-1.45-4.956-4.946-4.956-4.946-3.327-14.317 9.741-24.558 9.741-24.558-17.545-4.178-4.899-26.434 16.861-35.899s21.532-13.729 21.532-13.729c1.253 1.45 2.279 4.008 2.279 4.008 0.228-0.171 1.823-2.558 14.355-8.101s18.57-10.318 18.57-10.318c1.595 3.07 1.253 5.287 1.253 5.287 34.292-12.023 68.072-39.608 68.072-39.608 0.968 2.302 0.456 5.798 0.456 5.798 5.582-5.159 25.748-17.182 25.748-17.182 0.342 7.674-5.981 10.616-5.981 10.616 0.684 1.109 1.082 3.112 1.082 3.112 3.304-1.791 18.684-12.535 18.684-12.535 5.639 4.86 0.513 12.833 0.513 12.833 1.994-0.298 3.475-2.046 3.475-2.046 1.424 8.271-7.747 15.562-7.747 15.562 1.595 0.043 4.272-1.535 4.272-1.535-1.709 9.039-18.855 19.058-18.855 19.058 2.506 2.217 0.114 5.159-1.937 6.481s-5.696 4.221-4.557 5.415 8.716-4.136 8.716-4.136c1.31 3.795-8.431 11.256-8.431 11.256 6.779 0.895 25.634-7.674 25.634-7.674-1.538 7.291-8.659 12.961-17.431 16.244-8.773 3.283-8.317 3.795-8.317 3.795 1.538 1.236 13.671-2.302 13.671-2.302-3.646 8.143-16.292 13.729-16.292 13.729 3.475 2.942 8.203-0.469 12.931-3.709s11.165-6.012 18.285-8.399c7.121-2.388 12.133-0.597 12.133-0.597 5.924-1.876 10.937 0.767 10.937 0.767 11.393 0.938 12.532 5.074 12.532 5.074 1.253 0.298 2.222 0.81 5.127 2.942s2.734 8.74 2.62 11.981c-0.114 3.24-1.025 3.24-1.595 4.136s-0.627 1.919-0.627 3.155-2.848 8.911-20.45 8.996c-17.602 0.085-26.678 0-26.678 0-1.453 0-3.19 0.853-3.19 0.853-7.405 3.667-3.494-2.501-12.304 4.747s-13.292 5.997-13.292 5.997c-1.443 1.734-10.671 10.318-15.95 13.729s-4.329 3.098 0.266 5.088 11.545 0 11.545 0c-4.443 2.956-1.367 4.32-1.367 4.32 5.848-3.553 9.38-2.245 9.38-2.245 1.861 5.088-4.823 13.132-4.823 13.132 2.582 0.341 7.443 0 7.443 0-1.177 3.439-6.038 7.22-9.608 8.385s-2.924 1.62-1.861 3.78 0.152 4.349 0.152 4.349c-6.228-4.32-6.456-0.455-6.456-0.455-0.719 5.12-0.608 12.45-0.608 12.45-4.405-2.217-4.633 0.739-4.633 0.739-1.139 4.661-6.532 10.062-6.532 10.062-0.228-2.899-2.886-3.638-2.886-3.638-2.81 5.4-7.975 8.641-7.975 8.641-0.684 4.661 0.608 11.199 0.608 11.199-3.342-0.682-4.557-0.625-5.089 0.171s0.76 1.194 0.76 1.194l43.521 1.08c0.608 0.057 3.19 0.341 3.266 5.059s-3.798 4.946-3.798 4.946l-47.622-1.137s0.228 1.307-2.279 2.615-1.671-1.478-2.355 4.377c-0.684 5.855-10.178-0.455-10.178-0.455-1.519 2.274-5.241 5.23-5.241 5.23-2.127-6.424-4.329-8.413-7.747-2.842s6.152 4.605 6.152 4.605 55.901-8.243 58.939-8.527 6.38-0.114 7.747 4.15c1.367 4.264-6.76 4.946-6.76 4.946l-57.344 6.253c-1.215 3.411-6 3.127-6 3.127 0.38 3.24-3.038 5.287-4.785 6.481s-7.215 0.625-7.215 0.625c-6.684 4.548-9.95 0.966-9.95 0.966-4.329 1.876-7.064 1.08-10.633-0.455-3.57-1.535-3.266-5.855-3.266-5.855l-36.191 3.752c-1.709 0.597-2.886 1.734-2.886 1.734 1.291 1.649-2.592 5.479-2.592 5.479 1.082 0.746 3.161 2.835 3.446 7.355 0.301 4.781-5.839 5.585-2.763 8.911s8.687 0.576 14.953-2.43 12.418-2.622 15.095-2.601c2.677 0.021 10.14 1.897 14.782 3.539 4.643 1.641 6.238 0.661 6.551-1.727s2.393-3.07 2.393-3.07c-0.57 2.345 0.684 3.39 0.684 3.39 1.794 0.128 4.927-1.62 4.927-1.62-0.285 1.727-2.563 2.814-2.563 2.814-4.557 3.048 1.709 1.919 1.709 1.919 12.475-2.558 16.918-2.302 20.165-1.961s18.57 6.864 18.57 6.864c0.57-1.535 0.171-5.329 0.171-5.329 3.931 1.066 5.526 3.326 5.526 3.326 1.481-1.62 0.513-4.349 0.513-4.349 12.646 7.077-2.62 10.275-6.665 11.639-4.044 1.364-3.987 3.027-3.987 3.027 3.361-1.066 5.696-1.45 8.488-1.663 2.791-0.213 1.823-0.043 8.488-1.364 6.665-1.322 10.083 1.492 10.083 1.492-5.582 0.298-7.234 1.961-7.234 1.961 3.532 2.43 0.171 4.477 0.171 4.477-5.07-6.395-9.399 0.256-9.399 0.256 1.737-0.256 6.836 0.81 8.288 1.727 1.124 0.709 3.76 2.004 7.035 3.517 4.625 2.137 3.76 0.767 7.348 2.132s2.222 4.818 2.222 4.818c-1.538-2.814-4.842-3.795-4.842-3.795-0.285 3.795-4.101 4.434-4.101 4.434 4.671-5.202-5.412-7.461-10.14-7.376s-8.26 3.112-8.26 3.112c9.513 8.911 16.121 6.012 16.121 6.012-1.196 3.24-9.057 1.961-9.057 1.961 3.646 2.771 3.247 4.733 3.247 4.733-1.937-1.876-5.127-0.938-11.962-5.372s-12.931-2.984-12.931-2.984c6.665 7.12-2.449 11.341-2.449 11.341-3.361 1.919 1.424 4.519 1.424 4.519-4.215 0.767-4.785-3.453-4.785-3.453-2.222-0.426-5.412 2.26-5.412 2.26 0.228-4.349 5.924-2.174 6.095-6.694s-5.298-8.015-21.419-5.798-20.849-2.942-20.849-2.942c-1.367 0.043-1.652 1.407-1.652 1.407 2.677 2.558 3.874 3.624 3.418 5.415s0.854 2.388 0.854 2.388c-2.962-0.171-3.19-3.709-3.19-3.709-0.057 1.45-0.684 1.578-1.652 3.112-0.968 1.535-0.057 3.496-0.057 3.496-1.253-1.109-3.532-2.43-1.367-5.585 1.667-2.43-3.475-5.543-3.475-5.543-1.994-2.046-7.291-0.128-7.291-0.128-10.994 2.174-17.431-4.775-17.431-4.775-1.253 0-3.646-0.682-3.646-0.682-11.621 5.202-21.817-6.054-21.817-6.054-8.772 1.663-12.76-2.558-15.437-6.694s-3.19-4.477-6.722-6.608c-3.532-2.132-6.833-8.163-3.589-11.341 2.829-2.771 1.994-3.411 1.994-3.411-4.557-7.66 8.127-10.13 8.355-11.963 0.332-2.675 2.981-4.366 5.829-4.537s2.848 0.085 4.728-1.833c1.88-1.919 5.469 0.469 5.469 0.469 0.741-0.554 7.007-5.415 12.589-2.899 5.583 2.516 10.197 0.725 10.197 0.725 3.931-0.853 36.571-5.287 36.571-5.287 2.108-3.155 3.589-6.95 12.589-8.996s15.836-7.632 15.836-7.632c-1.595-1.705-4.272-1.62-5.639-1.791s-4.215-2.601-4.215-2.601c-1.652 0.725-2.499 0.37-14.298 7.546-10.538 6.41-10.842-6.309-10.842-6.309l-22.994 0.042c-0.399 4.86-4.101 6.779-4.101 6.779l-8.374 0.426c-4.671-2.473-4.728-10.701-4.728-10.701-25.292 0.384-39.362 9.422-39.362 9.422-28.653-14.667-51.097-17.992-51.097-17.992 34.805-3.795 53.204-13.473 53.204-13.473 19.197 11.512 37.255 11.81 37.255 11.81 0.684-6.95 5.355-8.655 5.355-8.655l5.35 0.21z" fill="#312E2A"/>
<path d="m725.09 335.68c-7.273 4.265-5.958 6.594-5.325 7.904 0.646 1.336 0.721 2.615-1.253 4.605-1.975 1.99-1.785 2.681-1.785 2.681 0.304 7.069 5.311 8.57 7.399 10.304 1.749 1.452 4.715 6.002 4.715 6.002 3.722 5.344 7.671 5.4 10.595 5.4s2.664-0.248 1.177-1.563c-1.398-1.237-4.329-3.638-4.329-3.638 3.911 1.364 7.633 5.457 7.633 5.457 7.39 8.086 14.203 7.021 17.203 6.623s2.468-2.132 2.468-2.132c-0.158-0.288-3.076-0.512-3.076-0.512-11.089-1.052-14.431-8.328-14.431-8.328 6.684 6.566 17.165 7.902 20.393 7.781s3.038 0.803 2.354 0.974-1.671 0-3.152-0.114-1.481 0.256-1.139 0.881 1.737 0.689 3.503 0.625 0.342 0.128 4.927 3.688c4.586 3.56 16.007 0.682 16.007 0.682-7.377-1.833-8.402-5.159-8.402-5.159-10.026 1.172-14.099-4.839-14.099-4.839-1.794-1.791-7.151-4.56-7.151-4.56-5.666-2.432-6.549-7.56-6.549-7.56 1.595 2.27 4.7 4.872 8.63 5.959s5.041 1.663 5.041 1.663c-1.88 0.277-2.991-0.341-2.991-0.341-3.931-1.151-1.709 0.448-1.709 0.448 4.329 3.453 5.526 3.198 5.526 3.198 11.364 1.172 5.725-3.368 5.725-3.368 8.089 1.919 9.428-1.109 9.428-1.109 1.68 3.56 7.804 2.281 7.804 2.281-8.146 3.922-1.965 2.802-1.965 2.802 8.231-1.544 9.845 0.552 9.845 0.552 2.228 2.072 4.481 1.784 4.481 1.784s1.481 0.043 4.614 0.67c3.133 0.627 7.918 3.295 12.475 2.731s5.298 0.866 5.298 0.866c-0.854-0.295-2.848-0.6-6.38 0.978s-9.627 2.089-18.513 0c-8.886-2.089-9.57-1.833-9.57-1.833 2.108 1.577 3.987 3.795 4.386 5.329s1.937 1.62 1.937 1.62c0.627-1.961 3.304-2.814 3.304-2.814 1.753 1.62 6.437 3.752 6.437 3.752 0.513-1.066 0-1.812 0-1.812 3.418 3.262 7.405 2.281 7.405 2.281 1.081-0.765 0.741-2.601 0.741-2.601 1.367-0.043 1.595 0.81 2.563 1.45s4.044 0.213 4.044 0.213c-1.139-0.469-1.937-2.217-1.937-2.217 4.5-3.112 14.241-1.748 14.241-1.748 7.035 1.236 6.152 5.841 6.152 5.841 1.424 0.682 3.304 2.814 3.304 2.814 0.598-1.62 0.057-3.262 0.057-3.262 3.219 1.535 3.902 5.287 3.902 5.287 3.731-4.264-3.56-9.06-3.56-9.06 3.532-0.448 7.434-0.128 9.798 0.213s5.753 1.578 8.516 3.88 7.719 3.368 7.719 3.368c-0.152-0.951-2.791-2.558-3.389-2.899s-0.854-1.172-0.854-1.172c2.421 0.426 4.101 0.213 4.101 0.213-8.516-5.202-10.652-7.674-10.652-7.674 3.19 0.405 4.956-1.578 4.956-1.578-6.722 0.149-6.95-1.599-6.95-1.599 0.826 0.234 3.874 0.981 7.89 0.192s9.598 0.021 9.598 0.021c-2.905-4.669-14.156-3.88-17.744-3.688s-4.984-0.277-4.984-0.277c0.57-0.277 1.168-0.874 3.987-0.895 2.82-0.021 5.582 0.213 8.772-1.983s7.567-1.471 7.567-1.471c-1.063-2.103-6.114-2.842-10.557 0s-8.469 1.933-8.469 1.933c7.026-0.995 9.076-3.468 9.076-3.468-2.127-0.512-3.304 0.171-7.519 0.995s-5.355-0.625-5.355-0.625c4.633-2.757 7.861-3.866 7.861-3.866-3.949-0.824-7.595-2.51-7.595-2.51-4.101 3.857-7.291 6.034-15.152 1.913s-11.962-3.638-11.962-3.638c6.912-4.093 14.013-2.331 19.178 0.767s6.646 0.568 6.646 0.568c-1.633-1.023-1.405-1.904-1.405-1.904 12.532 6.395 17.963 2.416 20.735 0.54s-1.253-4.377-1.253-4.377c-0.266 4.065-5.393 5.912-9.418 4.548s-7.747-3.098-13.538-5.514-13.045-1.165-19.805 0.256-7.633 0.739-8.241 0.199-0.949-2.189-4.405-0.767c-3.456 1.421-11.507-2.359-16.52-3.553s-13.219-0.541-20.317 3.354-10.595 2.928-12.722 1.961-3.456-3.638-1.177-6.026 2.468-3.041 2.279-6.481c-0.19-3.439-3.57-5.486-3.57-5.486 3.114-3.212 3.874-3.922 2.81-5.315-1.063-1.393 0.608-1.364 2.393-2.16s0.987-0.91 0.57-1.961c-0.418-1.052-1.443-0.881-1.443-0.881-4.139 0.171-6.418-0.966-6.418-0.966-6.855-3.155-13.216 2.984-13.216 2.984-3.894-2.983-4.785-1.052-5.469-0.313s-2.051 1.251-3.874 1.421c-1.658 0.155-4.164 0.804-5.033 2.353 0 0-0.768 1.245 0.19 2.608 0 0 1.064 1.605-0.872 3.544-1.937 1.94-2.62 2.409-2.022 4.242s0.427 3.24-0.313 4.434c0 0-0.883-1.023-0.655-2.281s0.228-1.983-0.057-2.665c0 0-1.908 1.876-2.25 3.219 0 0-0.797-2.068 1.965-4.839s4.021-4.151 3.247-5.223c-0.6-0.74-2.62 0.54-3.1 0.82z" fill="#FFC221"/>
<path d="m732.94 366.24s-3.456-2.643-3.038-6.31 0.348-4.121-0.035-4.889c0 0-0.63 0.365-0.611 1.791 0.018 1.338-0.172 2.729-0.304 2.984 0 0-1.785-3.041-2.506-3.61 0 0 0.608-3.183-0.38-4.548-0.987-1.364-1.943-1.45-3.076-1.023-1.568 0.59-2.752 2.047 2.517 6.367 0 0 1.964 1.563 3.332 5.031 1.37 3.47 3.65 4.01 4.11 4.21z" fill="#312E2A"/>
<path d="m750.07 356.09s-0.266-2.075 1.595-5.742 0.745-6.391 0.327-7.301-0.669-0.572 1.208-2.148c2.31-1.939-0.89-4.387 2.908-7.787 0 0 2.506-2.149 3.076-3.03 0 0-4.025 2.16-6.646 3.24-2.62 1.08-12.646 5.997-10.443 9.294s1.975 3.468 1.633 4.832c0 0-5.962-3.155-3.874-8.271 0 0 0.947-2.061 3.456-4.377 2.279-2.103 0.911 0.455 5.544-2.189 0 0 3.684-2.189 5.62-5.145 0 0-2.43 1.535-3.304 1.791 0 0-5.355 0.966-7.519 3.24-2.165 2.274-6.76 6.225-5.203 10.63 0 0-5.355-0.654-6.57-6.225 0 0-9.912 12.222 10.899 17.907-0.02 0 3.78 1.01 7.28 1.28z" fill="#312E2A"/>
<path d="m841.61 315.23c7.772-1.175 52.815-7.982 56.908-8.397 4.481-0.455 6.197-1.053 7.671 2.558 1.671 4.093-6.152 4.15-6.152 4.15l-53.699 6.088c-2.634 0.304-3.223-0.701-3.223-0.701-0.465-0.858-1.363-2-1.982-2.748-0.01 0-0.72-0.77 0.47-0.95z" fill="#FFC221"/>
<path d="m731.61 339.66s-5.81 12.236 17.032 15.263c0 0 0.057-1.364 0.968-3.283s2.905-5.798 1.025-8.314 1.538-1.194 2.051-4.477-0.342-2.814 1.253-4.946-7.177 2.601-9.912 5.756c-2.734 3.155 3.703 5.543-0.114 8.996 0 0-3.19-1.151-5.07-4.605-0.01-0.01-4.45 0.08-7.24-4.4z" fill="#5A3719"/>
<path d="m753.94 354.69s5.639 4.882 12.361 4.669 9.57-2.004 11.279-4.669c0 0 1.307 2.065 1.31 3.432 0 0 5.81-4.818 15.836-0.64s6.95 3.03 9.171 3.327c0 0-4.262-0.758-14.013 3.708-10.03 4.59-36.18 3.02-35.95-9.83z" fill="#312E2A"/>
<path d="m744.6 333.1s2.535 0.384 5.07-2.473c0-0.01-3.42 0.63-5.07 2.47z" fill="#5A3719"/>
<path d="m725.44 355.82s-4.713-3.709-1.694-4.434c0 0 2.15-0.34 1.69 4.43z" fill="#5A3719"/>
<path d="m828.05 379.02s2.506-4.48 9.741-4.48 8.089 3.326 17.203 3.965-10.944 3.084-18.57 0.256c-3.98-1.48-7.57-0.25-8.37 0.26z" fill="#312E2A"/>
<path d="m756.45 357.95s10.823 6.566 20.45-0.554c0 0 0.798 0.767 1.481 2.515 0 0 7.291-7.036 20.336 0.554 0 0-1.603-0.178-7.747 2.473-8.01 3.45-28.03 5.71-34.52-4.99z" fill="#5A3719"/>
<path d="m798.2 364.6s10.367 1.202 19.14 0.682c5.39-0.319 11.222-1.306 8.317 0.52-2.905 1.825-1.481 1.996 10.937 0.845s-0.114 2.345 8.431 3.453c-0.01 0.01-20.71 10.59-46.83-5.49z" fill="#312E2A"/>
<path d="m825.43 358s6.095-2.217 11.735 0.426c5.639 2.643 4.785 2.857 8.545 3.24 0 0-2.62 3.752-8.829 0.725-6.2-3.04-7.85-3.62-11.44-4.4z" fill="#5A3719"/>
<path d="m832.21 376.71s5.98-2.983 12.591 0.118c0.827 0.388 2.631 1.137 4.327 1.502 0 0-5.065 1.57-10.254-0.043-2.16-0.67-3.88-1.19-6.67-1.58z" fill="#5A3719"/>
<path d="m802.64 366.01s13.33 1.236 20.564-0.205c0 0-8.374 4.042 12.646 2.166 0 0 4.671-0.512 4.101 0.213s-0.911 1.279 1.367 1.961c0 0.01-15.61 7-38.68-4.13z" fill="#5A3719"/>
<path d="m736.05 354.69s0.114 1.023 3.076 2.345 4.557 3.688 5.184 4.967 2.136 3.193 4.586 3.803-10.45 2.181-15.133-3.255c0 0-3.551-3.916 2.174-7.86" fill="#312E2A"/>
<path d="m818.31 378.8s-4.158-0.256-9.798-2.217c-5.639-1.961-7.121-0.298-10.31-2.686-3.19-2.388-9.627-0.895-10.823-0.725-1.196 0.171-4.614 0-0.342-2.771 0 0-3.418-0.085-4.728-1.791 0 0-1.538 1.492-7.291 0.938 0 0 2.563 4.026-7.747 2.866 0 0 3.076 3.572 6.779 4.297s5.247 0.485 7.633-0.213c0 0-0.684 3.112 4.101 4.306s5.753 2.132 8.203 3.112 0.342-2.004-6.038-6.651c0 0 3.418-0.171 8.317 1.023 4.9 1.19 16.01 4.05 22.05 0.51z" fill="#5A3719"/>
<path d="m820.89 383.58s1.025 2.388 4.177 1.848 8.336-1.464 13.349 1.094 0.854-4.264-9.209-4.562c0 0-6.31 0.34-8.32 1.62z" fill="#5A3719"/>
<path d="m735.67 356.2s-3.874 3.183-0.361 6.495c3.209 3.025 8.165 2.757 10.538 2.672 0 0-1.424-0.81-2.677-2.686s-1.296-3.144-3.931-4.349c-2.73-1.24-3.06-1.57-3.57-2.13z" fill="#5A3719"/>
<path d="m731.61 339.66s-5.81 12.236 17.032 15.263c0 0 0.057-1.364 0.968-3.283s2.905-5.798 1.025-8.314 1.538-1.194 2.051-4.477-0.342-2.814 1.253-4.946-7.177 2.601-9.912 5.756c-2.734 3.155 3.703 5.543-0.114 8.996 0 0-3.19-1.151-5.07-4.605-0.01-0.01-4.45 0.08-7.24-4.4z" fill="#5A3719"/>
<path d="m791.65 367.89s4.785-0.767 16.975 3.795 17.26 3.411 19.083 3.283c0 0-6.876 3.592-17.526-1.097-9.41-4.14-10.03-2.56-18.52-5.97z" fill="#312E2A"/>
<path d="m867.96 365.16s2.783-0.095 4.405 0.668c0 0 1.063-0.91 3.608-1.18 0.01 0-1.67-1.68-8.01 0.51z" fill="#FFC221"/>
<path d="m859.63 358.41s2.791-0.128 3.627-1.464c0 0-1.405-1.791-3.551-2.643-0.01-0.01 0.43 1.89-0.08 4.1z" fill="#FFC221"/>
<path d="m857.14 355.91" fill="#FFC221"/>
<path d="m765.96 327.26s-0.513-1.364 2.392-1.791c2.905-0.426 40.881-5.841 40.881-5.841s2.013-0.003 2.298 1.322c0.308 1.432-0.228 2.503-9.399 3.575s-33.381 4.099-33.381 4.099-2.56 0.43-2.79-1.36z" fill="#FFC221"/>
<path d="m803 325.62s0 5.372 5.469 6.168c5.306 0.772 7.13-0.331 8.545-3.125 0.371-0.734 1.999-6.343-0.357-6.771-0.926-0.168-2.569-0.072-3.744 0.43-1.83 0.782-3.528 1.698-2.924 2.615 1.291 1.961 1.543 2.416 1.063 2.558-1.312 0.389-2.277-0.764-2.544-1.563-0.333-0.996 0.723-1.637-2.848-1.109-1.47 0.21-2.67 0.17-2.67 0.79z" fill="#FFC221"/>
<path d="m825.75 321.49c2.794 0.322 2.582 6.233-0.76 8.905-3.599 2.877-7.033 1.848-7.033 1.848-1.816-0.767-1.588-0.512-0.183-2.643 1.33-2.018 1.957-4.734 1.215-6.623-0.237-0.604 0.418-1.094 1.345-1.293 0-0.02 2.53-0.54 5.41-0.21z" fill="#FFC221"/>
<path d="m828.18 322.01s1.994 2.509-0.495 7.134c0 0-1.1 1.364 1.368 1.165s7.975-2.842 7.405-6.225-0.19-0.824-1.633-0.739-0.266-0.796 0.342-0.966 2.487-0.867-2.392-4.008-0.805-0.725-1.747-0.426c-0.744 0.236-3.343 1.302-3.343 2.814 0 0.64 0.49 1.27 0.49 1.27z" fill="#FFC221"/>
<path d="m833.52 317.76s3.893 2.79 3.874 3.619-0.361 1.952 0.665 1.853c1.025-0.099 5.241-0.995 4.082-3.78-1.158-2.786-2.317-3.766-4.272-4.448-1.956-0.682-2.449 0.242-4.12 1.506 0 0-1.22 0.74-0.23 1.25z" fill="#FFC221"/>
<path d="m831.64 315.22" fill="#FFC221"/>
<path d="m812.46 321.7s0.646-2.075-2.848-2.842c0 0 1.481-1.222 4.443-0.568 2.942 0.649 2.628 2.587 2.605 2.842 0 0-2.3-0.09-4.2 0.57z" fill="#FFC221"/>
<path d="m820.06 321.22s4.048-0.709 5.848-0.483c0 0-1.994-4.462-7.386-2.942 0-0.01 1.93 2.18 1.54 3.42z" fill="#FFC221"/>
<path d="m826.99 320.11s0-1.364 3.437-2.729c0 0-1.668-1.57-3.987-1.421-2.658 0.171-3.19 1.137-3.19 1.137s2.88 1 3.74 3.01z" fill="#FFC221"/>
<path d="m828.33 315.44s2.127 0.54 3.456 1.677c0 0 2.016-2.2 3.722-2.672 0 0-3.34-1.79-7.18 0.99z" fill="#FFC221"/>
<path d="m716.51 304.7s9.383-7.95 14.64-6.992c5.256 0.957 2.62 0.298 8.374-0.597 5.753-0.895 11.678-1.492 14.07-1.194 0 0-6.95-4.988-19.368-4.903 0 0-8.772 3.027-14.811 7.035 0 0-11.621-6.481-23.64-2.601 0.01-0.01 13.05 4.72 20.74 9.24z" fill="#5A3719"/>
<path d="m816.29 318.47l1.566-0.263s2.644 3.274 0.723 3.311c-1.501 0.03-0.894-0.462-1.178-1.414-0.29-0.96-0.8-1.38-1.11-1.64z" fill="#FFC221"/>
<path d="m804.5 318.73s-0.94 1.169 0.826 0.895c2.151-0.333 1.737 0.072 4.101-1.528 0 0 1.453-1.542 4.158-0.582 0 0 2.279 0.746 4.13-0.149s2.279-0.831 3.275-0.746c0.997 0.085 0.93 0.3 2.26-0.671 1.329-0.971 3.636-0.225 5.089-1.44s3.275-0.192 0-2.537c0 0-0.684-0.682-0.627-1.258 0 0 1.253 0.362 2.25 1.258 0.997 0.895 2.649 0.618 2.934 0.469 0 0 0.171-2.921 3.076-5.607s2.934-2.899 1.225-2.921c-1.709-0.021-4.586-0.682-5.554 0s-9.485 6.267-14.44 7.205c-4.97 0.96-9.53 2.36-12.71 7.63z" fill="#FFC221"/>
<path d="m672.25 288.17s15.209 3.922 18.627 5.571c0 0 0.816-2.544-6.095-4.534 0 0 16.785-0.512 34.558 7.561 0 0 8.567-7.346 36.137-5.072 0 0 0.054-2.435 0.244-4.308 0 0-19.368-0.568-37.141-11.369 0 0-15.91 7.83-46.33 12.15z" fill="#FFC221"/>
<path d="m739.41 302.27" fill="#5A3719"/>
<path d="m756.79 295.52c-1.063-15.548 4.899-16.94 4.899-16.94s2.808 0.016 5.848 0.483-4.709 5.599-3.456 16.713c0 0 0.494 1.791-3.494 1.791-3.93 0.01-3.8-2.04-3.8-2.04z" fill="#FFC221"/>
<path d="m760.85 305.81s-2.886-2.956-3.19-6.367c0 0-0.076-0.881 2.848-0.796s3.306-0.281 4.025 1.421c0.7 1.655 2.544 5.145 3 5.543l-6.69 0.21z" fill="#5A3719"/>
<path d="m767.1 298.05c-0.265-2.034-0.367-3.77-0.321-5.91 0.19-8.669 1.629-7.899 2.199-6.818l2.966 0.054s-2.165-9.778-4.709-4.065c-2.5 5.612-2.317 9.266-2.013 13.7 0.175 2.554 0.512 4.144 0.797 5.1l1.07-2.05z" fill="#FFC221"/>
<path d="m800.59 298.07s5.725 0.874-3.048 2.963c0 0 0.427 10.6 10.795 3.176 0 0 6.124-3.915 10.367-5.507 0 0 2.136-0.739 1.88-2.338 0 0 0.171-1.883-2.051-1.514 0 0-1.75 0.041-2.877-0.37 0 0-1.225-1.442-2.051-0.888s-2.763 0.234-1.253 2.068c1.51 1.833 1.965 1.364 2.706 0.831s4.016-1.833 0.997 0.874-5.383-1.492-6.352-2.26l-9.13 2.97z" fill="#5A3719"/>
<path d="m771.94 299.27l-2.544-0.057s-1.367 2.047-2.3-1.167l-1.08 2.06c0 0.01 3.15 11.39 5.92-0.83z" fill="#5A3719"/>
<path d="m768.33 286.14s-1.291 7.447 0.342 12.052l27.533 0.512s-0.342-5.344 0.076-12.563h-3.911s-0.532 5.997-0.038 9.692l-0.645 0.013s-0.494-5.186 0.037-9.705h-3.228s-0.532 5.543-0.114 9.749h-0.608s-0.456-4.86 0.076-9.749h-3.19s-0.586 5.02 0.041 9.68l-0.762-0.016s-0.646-5.088 0.038-9.664h-3.532s-0.873 4.69-0.038 9.721h-0.722s-0.797-4.804 0.076-9.721h-3.532s-0.835 5.315-0.114 9.721h-0.684s-0.57-5.145 0.19-9.721h-3.304s-0.873 4.491-0.152 9.721h-0.722s-0.532-3.894 0.152-9.721h-3.29z" fill="#FFC221"/>
<path d="m797.42 299.73s-0.762-13.474 1.823-16.94 3.114-2.786 7.519 0c4.405 2.785 10.102 5.798 11.013 6.139s2.203 0.682 2.203 3.127 0.456 3.183-3.342 0.114c-0.569-0.46-2.345-2.085-3.627-2.494-3.403-1.086 0.818 0.762 2.032 2.494 1.029 1.468 1.823 1.307-0.835 1.99s-11.84 3.75-16.78 5.57z" fill="#FFC221"/>
<path d="m807.06 290.08s-1.994-2.519 0.541-3.095 2.734 3.986 3.161 6.736c0.43 2.75-3.19-2.78-3.7-3.64z" fill="#312E2A"/>
<path d="m803.36 301.82s-2.962 1.087-1.025 2.046 7.405-3.581 5.526-3.283c-1.89 0.29-4.51 1.23-4.51 1.23z" fill="#312E2A"/>
<path d="m807.37 297.67s2.62-0.256 2.108 0.874c-0.513 1.13-1.453 0.412-1.851 0.163-0.4-0.24-2.25-0.88-0.26-1.03z" fill="#312E2A"/>
<path d="m821.33 294.14s0.703 5.13 5.108 6.431c0 0 2.544 0.632 2.013-1.613 0 0-0.437-1.876-0.797-2.658-0.361-0.782-2.127-1.279-2.317-1.364s-0.418-0.625 0.798-0.227c1.215 0.398 1.405 0.441 1.31-0.412s-0.81-0.51-1.926-1.055c-0.429-0.21 0.046-0.494 0.502-0.394 0.456 0.099 1.538 0.426 1.557-1.336 0 0 0.241-0.98-1.101-1.052-1.462-0.078-1.348-0.732-0.892-0.831s1.986 0.961 2.411-0.782c0.437-1.791-2.108-0.76-1.766-1.684s2.145 0.528 2.295-0.568c0.145-1.066 1.602-1.53-0.879-1.874-1.177-0.163-0.089-0.685 1.233-0.499 1.415 0.199 2.269-1.549 3.086-2.118 0.817-0.568 5.431-3.325-0.721-2.416-6.153 0.909-7.956 3.894-8.355 4.491-0.39 0.6-2.1 4.12-1.55 9.96z" fill="#FFC221"/>
<path d="m835.66 298.12c0.791-0.152 1.538 0.063 1.807 0.614 1.013 2.078-1.31 1.336-2.601 2.871s-1.329 1.222-3.152 0.685-2.506-3.3-2.506-3.3c-0.204-0.848 0.584-0.92 1.528-0.812 0 0.01 3.02 0.31 4.92-0.05z" fill="#FFC221"/>
<path d="m829 297.01s0.128 0.622 1.172 0.707 4.078 0.348 5.882-0.234c0 0 0.665-0.131 0.366-1.306 0 0-0.024-0.762-1.648-0.453s-3.973 0-4.756-0.171c-0.78-0.18-1.41 0.01-1.01 1.45z" fill="#FFC221"/>
<path d="m828.75 293.29s-0.057 1.62 1.576 1.833 3.666 0.205 4.513 0.038c0.646-0.128 1.81-0.364 1.905-1.317 0.095-0.952 0.361-1.663-1.652-1.165-2.013 0.497-4.443 0.171-4.69 0.114-0.24-0.05-1.61-0.47-1.65 0.5z" fill="#FFC221"/>
<path d="m829.49 290.02s-0.399 0.739-0.342 1.45 1.234 0.952 3.361 0.981 4.025-0.284 4.158-0.995c0.133-0.711 0.646-1.535-1.025-1.279s-3.779 0.327-4.614-0.014c-0.83-0.35-1.4-0.47-1.54-0.15z" fill="#FFC221"/>
<path d="m907.57 298.26s-0.028 1.482 1.139 2.942l-59.029-1.695s0.862-0.533 1.082-2.832l56.81 1.59z" fill="#5A3719"/>
<path d="m829.97 287.58s-0.513 1.492 0.551 1.791c1.063 0.298 2.886 0.625 5.298 0.242 0 0 1.215 0.085 1.633-1.208s0.375-0.568-3.059-1.251-1.081-0.315 2.053-0.327c0 0 1.747 0.057 2.013-0.242 0.266-0.298 2.582-2.132-0.418-2.018s-1.519-0.526 0-0.526 1.994 0.313 2.487-0.171c0.494-0.483 0.038-0.156-0.779-0.981-0.816-0.824-0.247-0.583 0.342-0.128s0.949 0.597 1.614 0.014c0.665-0.583-0.513-1.435 0-1.336s0.76 1.073 2.696 0.135 4.557-0.448 5.269 0.085c0.712 0.533 2.734 1.215 3.959-0.043s-1.453-2.281-0.313-2.452 1.937 0.234 2.393-0.682c0.456-0.917-1.766-1.791 0.37-2.366 2.136-0.576 0.342-6.566-0.399-7.12 0 0-2.392 1.407-5.013 5.649s-4.158 6.715-7.719 5.415c-5.136-1.876-7.761 0.821-8.556 1.307-1.232 0.753 2.575 1.123 0.354 1.165-2.222 0.043-2.222 0.234-2.449 0.576-0.228 0.341-0.029 0.64 0.37 0.661s1.253 0.874-0.114 0.831-2.336-0.256-1.934 1.197c0 0 0.025 0.317 0.823 0.402 0.797 0.085 1.082 0.917-0.399 0.917-0.94 0-1.03 0.37-1.06 0.47z" fill="#FFC221"/>
<path d="m835.43 302.38s-1.054 0.746 0.399 0.831 2.222 0.362 2.677-0.416c0.456-0.778 2.421-0.458 1.111-1.546-1.32-1.08-2.2-0.46-4.19 1.14z" fill="#FFC221"/>
<path d="m841.52 284.62s4.915-4.626 9.023-1.492 4.506 3.603 4.563 3.667c0.057 0.064 0.484 0.405-0.627 1.386s-0.029 0.959 1.196 0.362 1.31-0.043 1.908 0.618c0.598 0.661 1.398 1.045-0.497 1.066s-5.968 0-5.968 0-2.763 0.234-1.367-0.895c1.396-1.13 1.196-2.473 0.484-2.558s-0.057 0.682-0.484 1.215c-0.427 0.533-1.396 1.023-2.364 1.002s-1.823 0.701-0.285 1.257c1.538 0.555-0.171 0.919-0.968 0.897s-4.643 0.298-0.74 0.767c3.902 0.469-0.352 0.356 2.506 1.989 3.161 1.806 0.883 5.643-0.313 5.984 0 0-1.31 0.713 0.342 0.516 1.652-0.196 2.563-0.431 1.396 0.464-1.168 0.895-3.503 3.88-6.75 1.599 0 0-1.481-0.703 1.168-0.831s-2.165-0.694-2.962-1.232-3.845-3.65-1.937-3.266 1.225-0.725 0.085-1.13-1.367-2.153-0.085-1.769c1.282 0.384 2.791 1.098 3.817 1.05 1.025-0.048 0.741-0.475-1.453-1.157-2.193-0.682-3.105-0.789-2.592-2.643s2.905 0.725 2.336-0.661-2.649-0.703-1.538-2.537c1.111-1.833 1.367-1.045 1.88-0.81s1.333 0.06-0.114-1.023c-0.94-0.7 0.05-1.62 0.31-1.85z" fill="#FFC221"/>
<path d="m845.05 285.9s-0.029-0.618 0.854-0.512c0.883 0.107 0.655-0.32 0.911-0.448s2.466 0.658 0.399 1.407c-0.76 0.27-1.96 0.07-2.16-0.45z" fill="#312E2A"/>
<path d="m849.75 291.14s-1.661 0.846-0.157 2.589c1.282 1.486 1.275 1.957 1.168 2.945-0.108 0.988 56.807 1.585 56.807 1.585s-0.1-3.656 2.336-5.713-31.11-0.73-60.16-1.41z" fill="#FFC221"/>
<path d="m908.54 297.26s0.231-3.084 1.937-4.106c0.94-0.563 2.18-0.235 2.721 2.251 0.77 3.536-2.227 6.544-3.618 5.201-1.32-1.27-1.04-3.34-1.04-3.34z" fill="#5A3719"/>
<path d="m843.32 310.56s3.788-3.219 4.358-4.669c0 0 10.254 7.264 9.627 0.594 0 0 0.029-1.788 0.313-3.493 0 0 3.707 0.364 4.272-2.596l-9.57-0.282s-0.997-0.213-2.478 1.386-4.529 3.349-7.377 1.823c0 0-1.192-1.035-2.405-0.161s-1.27 1.13-0.273 2.068c0.99 0.94 3.13 3.82 3.53 5.33z" fill="#7B3C20"/>
<path d="m865.33 290.5l-5.611-0.213s-2.051-2.878-6.038-6.076c0 0-1.168-0.512 1.082-2.302 2.25-1.791 2.905-3.709 2.991-4.583s-0.142-2.238 0.712-1.194c0.854 1.045 6.665 6.289 7.491 4.733s0.968-2.281 1.111-2.75 0.342-1.919 1.168-0.405c0.826 1.514 1.393 1.127 1.424 5.052 0 0 0.142 3.88 0.741 5.287 0.01-0.01-7.34-2.36-5.06 2.44z" fill="#7B3C20"/>
<path d="m840.98 278.56s4.272 2.388 6.38-0.853c2.108-3.24 3.532-3.752 1.937-6.864s0.044-4.562 1.247-5.841 2.228-1.066 2.399-6.012c0.171-4.946 3.589-6.608 5.127-8.143s5.412-3.88-0.456-4.86c-5.867-0.981-17.488-4.008-20.507-8.527s-4.386-1.833-4.443-1.663c-0.057 0.171-1.025 3.496 1.994 9.508s5.582 9.877 8.488 11.824c2.905 1.947 5.526 3.013 4.044 7.021-1.48 4-4.05 11.16-6.21 14.4z" fill="#7B3C20"/>
<path d="m856.76 265.78s0.741 10.275 8.26 13.942c0 0 1.709-4.008 1.025-7.973 0 0 2.449 0.213 3.133 1.322 0 0 0.114-2.984-3.418-4.072-3.532-1.087-1.823-7.781-0.57-8.548s0.854-2.103 0-3.311-1.082-3.041 1.88-2.274 2.506-0.81 0.741-2.26-1.709-3.24 0.797-3.24 6.665-2.43 4.158-3.198c-2.506-0.767-3.304-1.577 0.114-2.558s5.07-2.217 2.506-2.515c-2.563-0.298-4.272-1.194-1.766-1.62s-0.456-2.984-3.361-3.112-9.171 1.066-4.215-2.899-7.121-1.066-2.165-3.667c4.956-2.601-1.652-1.45-2.563-1.492s-0.901 0-0.565-1.322c0.337-1.322-0.689-1.919-2.113-1.109s-1.424 0.81-1.367-1.023-1.709-0.469-2.791 0-3.817 2.515-4.899 1.407-1.709-2.26-5.07-0.213c-3.361 2.046-2.563 0.213-2.506-0.682s1.31-4.434-3.304-0.64c-4.614 3.795-0.854-4.093-4.5-1.407s-4.044 3.155-4.614 1.961-1.26-2.174-5.273 0.384-1.05-1.535-0.481-2.43 2.279-6.694-1.253-2.174-1.709 3.155-5.526-2.473c0 0-4.044 5.591-5.07 3.115-1.025-2.475-2.051-2.731-3.361-1.111s-0.342-0.085-0.911-1.45-0.911-3.88-7.633 1.023c-6.722 4.903 2.336 1.322-2.791 3.539s-17.488 9.209-6.152 7.589c11.336-1.62-5.526 4.434-1.595 5.543s2.677 4.519 17.431 0.469c14.754-4.05 12.361-0.64 19.88-3.88s-1.709 1.109 8.374 0.895c10.083-0.213 1.709 0.043 3.646 2.132s10.481 7.035 18.456 7.845 9.912-2.174 7.633 1.279c-2.279 3.453-3.076 4.775-4.443 5.969s-5.127 3.922-5.184 8.698c-0.057 4.775-6.266 5.543-3.987 10.829-0.02-0.04 3.51-3.45 5.39-5.32z" fill="#5A3719"/>
<path d="m869.88 277.27s-1.823-1.279-1.785-3.553c0 0 1.291 0.227 1.785 1.052 0 0 4.595-5.202-0.893-7.077-5.487-1.876-2.754-6.85-0.893-6.879s2.185-0.54 0.618-2.615c-1.567-2.075-1.453-2.16 1.661-2.7s2.691-1.194 1.307-1.961c-1.383-0.767-2.444-2.018-2.444-2.018s8.808-3.837 5.959-5.599 0-1.307 2.544-3.127c2.544-1.819 2.886-2.16 3.266-2.871 0 0-2.515 0.256-4.371-0.114 0 0 2.198-1.08 0-2.871-2.199-1.791-3.11-3.411-6.604-2.587s-2.355-0.341-0.987-1.791c1.367-1.45 0.721-2.274-1.747-2.643 0 0 0.304-1.478 2.165-3.326 0 0-4.747 0.341-6.342-0.483 0 0 1.899-1.307 2.051-2.871 0 0-2.62 0.853-5.924 0.54 0 0 1.937-1.677 1.937-3.155 0 0-5.734 1.279-8.393 3.297 0 0-0.57-0.114-1.025-0.739-0.456-0.625-0.798-1.251-7.14 0.767 0 0 0.722-2.814 2.241-3.951s1.291-3.411-8.583 2.757-1.329-0.796-2.43-3.752c0 0-2.127 3.013-3.76 4.036 0 0-1.367 0.574-1.196-1.347s-0.968-0.552-1.994 0c-1.025 0.552-1.709 1.916-1.196-1.964s-1.367-4.69-1.367-4.69-3.076 4.349-4.842 4.818-3.247-3.155-4.386-5.244-1.139-2.857-2.279 0.767c-1.139 3.624-2.563 3.922-2.563 3.922s-1.937-1.663-2.165-2.558-0.342 0.981-0.968 1.407c0 0-1.709-2.004-1.652-4.903 0 0-10.595 5.841-11.905 9.38 0 0-10.026-0.597-14.184 0.171 0 0 1.025-3.24 3.646-4.86 0 0-2.62-0.298-2.734-2.984 0 0 2.108 0.298 3.418-0.043s-1.823-4.136 1.481-4.221c3.304-0.085 5.412 1.577 3.93-2.814-1.481-4.391-0.797-4.391-0.797-4.391s5.753 3.411 6.665 2.558-0.741-2.686 4.386-1.833 3.703-2.089 5.696-2.217c1.994-0.128 3.076 1.279 1.823-8.015s6.209 4.605 1.139-9.422-1.282-4.242-4.329-6.054c0 0-0.684 3.07-4.13 0.362s-10.225-3.667-7.377-5.798c2.848-2.132 4.187-4.988 3.361-6.779 0 0-3.359 3.511-9.2 1.002-4.614-1.983-5.582 1.663-10.31 0.597 0 0 0.085-1.215 4.073-4.349s-2.307 1.045-4.785 1.599c-2.478 0.554-3.19 0.107 2.051-3.944 5.241-4.05 15.608-11.213 14.184-17.097 0 0 2.449 3.112 8.886 0.853s11.222-3.07 13.159-6.395c1.937-3.326 7.007-6.694 8.317-7.419s3.076-1.236 1.082 1.919c-1.994 3.155-5.241 8.57-14.127 12.236-8.886 3.667-12.304 6.353-13.899 8.271-1.595 1.919-9.684 6.225-4.443 5.5s14.355 0.128 10.083-1.109c-4.272-1.236-9.114 0.767-5.184-2.814s4.614-4.775 10.31-7.163 12.019-7.845 11.393-2.047c-0.627 5.798-11.222 11.981-13.842 13.856-2.62 1.876-1.652 1.578-1.595 2.345s-0.399 2.345-1.481 3.07-0.741 1.535-0.456 3.155-0.285 2.26 0.513 2.515 1.595 0.384 1.823 1.535 0.826 1.3 2.364 1.172c1.538-0.128 2.506 0.021 2.62 0.917 0.114 0.895 1.566 2.11 1.737-0.618 0.171-2.729 1.168-3.262-1.623-2.004s-3.389 0.81-3.332-0.49-0.256-1.002-1.424-1.109-1.567-1.748 0.513-2.835c2.079-1.087 2.051 0.021 4.643-2.132s2.592-2.75 2.991-3.752c0.399-1.002-3.703 2.921-5.668 3.816s-1.453-0.618-1.111-2.857 5.241-5.159 7.491-5.202c2.25-0.043 7.32 1.279 5.127 4.349s-8.402 6.715-5.725 6.992 3.105-0.767 4.643 0.597 0.114 4.136-0.598 5.607c-0.712 1.471-2.193 3.326-2.848 3.667 0 0-2.82-5.031-2.734-1.045s-0.598 5.415 0 5.564c0.598 0.149 3.731 2.238 4.728 2.281s-5.412 3.006-2.734 3.198c2.677 0.192 6.921-1.172 8.402-3.944 0 0-5.44-1.322-7.633-3.368 0 0 6.352-1.492 4.586-7.61 0 0 6.323 1.727 3.589 4.583-2.734 2.857-4.386 2.43-2.022 3.24s3.532 1.492 3.532 1.492 1.617 0.81 0.68 2.132-0.965 3.326-0.168 3.283c0.797-0.043 3.475-1.279 1.225-2.643s2.563-1.13 0.513-2.281c-2.051-1.151-2.592-1.428-3.133-1.983-0.541-0.554 25.748-15.967 12.475-10.19 0 0 2.763-5.99 6.636-6.012s4.158 3.048 1.965 5.372-3.617 5.948-8.772 6.8 7.367 3.61-1.339 9.508c0 0-1.889 0.895-1.206 1.549 0.684 0.654 5.848-2.274 6.57-3.922 0.722-1.649 1.823-2.928 3.798-3.894s11.697-7.589 14.621-12.592 3.722-5.173 9.418-9.749 4.709-3.667 5.431-4.775 1.025-2.928 3.646-4.406 12.798-7.134 15.988-9.437c3.19-2.302 9.722-6.537 12.532-10.119 2.81-3.581 10.378-8.156 12.266-7.305 1.889 0.851-0.19 3.525-4.633 6.907s-15.456 12.279-17.241 13.643-11.127 8.186-14.621 8.641-3.114 1.677-5.203 3.951-6.912 7.049-8.545 8.357c-1.633 1.307-5.507 3.979-5.734 5.855-0.228 1.876 0.684 2.103-2.43 5.031s-12.228 9.55-15.532 10.602c0 0 5.848 1.933 2.354 5.884s-3.266 3.382-3.532 3.638c0 0 8.88-1.307 2.582 5.599 0 0-1.215 1.99 1.595-0.085 3.004-2.218 1.709-5.258 1.367-5.685 0 0 4.709-2.928 10.14-3.013s5.241-0.455 0.38-1.848c0 0 3.456-4.207 6.38-2.132s1.975 3.269-1.101 4.917c-3.076 1.649-7.633 2.331-11.013 4.207 0 0 6.418 1.251 9.874-1.364s3.608-1.307 4.063-0.853c0.456 0.455 0.836 1.307-0.684 3.496s-1.671 2.302-1.595 2.786c0.076 0.483-0.114 1.99-3.228 2.501-3.114 0.512-4.519 1.819-3.456 3.297s1.101 5.145-1.557 4.804c-2.658-0.341-1.937-2.444-2.962-3.269-1.025-0.824-2.468-2.103-7.102 0.313-4.633 2.416-5.013-0.455-4.785-1.961 0 0-3 2.615-5.507 0.199-2.506-2.416-0.228-3.354 1.215-4.576s7.329-3.78 3.798-3.326-8.81 0.682-10.026-2.046c-1.215-2.729 2.62-2.416 3.228-2.16s3.114 2.274 3.19-0.37c0.076-2.643 3.987-2.928 2.658-3.468s-3.19 1.137-3.722 1.791c0 0-2.734-3.809-7.139-2.558s1.405 0.739 2.582 0.938c1.177 0.199 0.494 2.388-3.456 5.941s-2.165 2.473 0.76 2.473c2.924 0 10.102 0.028 5.924 3.439s-5.848 5.116-8.013 4.519c-2.165-0.597 0.266-2.018 1.215-2.615s1.519-1.649-0.532-0.881-2.772 0.91-4.405-1.99c-1.633-2.899-0.949-2.046-0.266-3.951 0.684-1.904 2.279-3.922 0.38-3.212s-1.709 0.767-1.557-1.421c0.152-2.189-2.165-2.672-2.165-2.672s0.911 2.189 0.076 3.581-0.873 1.876 0.494 2.245c1.367 0.37 2.658 1.535 0.797 2.814s-1.633 1.109-0.456 1.876 2.886 1.649 1.063 3.439-0.304 1.251 0.608 1.251 2.974 0.767 3.006 2.53c0.032 1.762-0.12 2.189 2.842 0.54s8.886-1.45 8.81 0.853c-0.076 2.302-0.76 2.871 2.393 0.91s4.557 1.848 6.722 0c2.165-1.848 3.532-3.638 6.038-0.483s1.725 4.109-1.329 6.338c-3.054 2.229 1.481 0.512 3.798-0.682s8.81-1.99 12.532-0.341c3.722 1.649 4.785 1.279 7.519 0.142s4.139-1.393 8.279 1.364c4.139 2.757 7.367 3.269 9.532 3.212 0 0-4.595 1.791-9.76 2.132s-7.747 1.307-8.772 2.103 3.106 1.876 3.718 4.178c0 0 3.384-0.455 5.055 0.227 0 0-0.873 2.444 1.215 3.752 2.089 1.307 3.532 1.791 1.975 3.581-1.557 1.791 2.393 1.023 0.152 3.553s-2.848 3.809-2.924 5.855c-0.076 2.047 0.494 2.359-1.519 2.558s0.342 2.444-0.57 5.116c-0.911 2.672-6.532 2.388-6.304 9.55 0 0 1.557-3.496 4.899-6.566s3.456-3.354 3.38-5.202-0.228-1.421 1.557-2.814-0.797-2.7 0.987-4.69c1.785-1.99 0.228-1.592 2.317-3.61s-1.823-2.274 0.304-4.349-5.127-4.434-3.038-5.77c2.089-1.336 5.696-3.183-6.456-2.984 0 0 2.924-4.832 13.178-3.78 0 0-2.696 1.904-2.924 3.78 0 0 1.177 0.597 1.899 0.767 0 0-0.397 1.375-2.354 3.041 0 0 5.431 3.041 6.304 4.832 0 0-3.304 1.023-4.139 2.473 0 0 1.443 1.649 1.937 3.78 0 0-3.684-0.455-4.177 2.302-0.494 2.757-1.595 0.881-1.595 2.501s0.114 2.274-1.177 2.53-0.228 1.62 0 2.53 0.646 2.984 0.456 3.638c0 0-1.861 0.028-2.734 0.284 0 0 0.57 3.951-1.633 4.519s1.177 1.364-1.177 1.791c-2.355 0.426-2.051 0.568-4.937 5.742 0 0 2.468-1.393 5.013-3.07 2.544-1.677-0.19-1.165 4.025-5.315s3.456-4.463 3.114-6.566-0.418-3.809 1.101-5.798c1.519-1.99 2.013-4.264 7.405-3.979 0 0-1.595-3.588-3.57-4.522 0 0 2.582-1.788 5.317-2.043 0 0-2.393-2.871-7.291-5.656 0 0 4.025-3.468 4.975-5.116 0 0-1.861 0.284-3.342-0.057 0 0 0.698-1.659 4.329-4.036 0 0 1.937 1.876 1.861 3.837 0 0 6.228-3.581 9.76-3.183 0 0 1.785 4.491-6.874 12.904 0 0 5.355 0.512 7.633 0.199 0 0-1.291 4.15-7.785 6.594s1.404 5.301-5.241 4.804c-6.645-0.497-4.595 1.791-4.405 5.173s0.418 6.85 0.266 7.788-5.317-1.734-5.203 3.411-2.734 6.225-3.304 6.708c0 0-1.543-1.379-3.874-2.189-0.1-0.04-3.4 6.22-8.72 9.88z" fill="#5A3719"/>
<path d="m862.28 212.78s1.823-0.298 4.899 1.62 6.095-2.046 2.677-3.07 0.057-2.217 3.133 0.256c3.076 2.473 4.272 1.236 5.412 0.384s2.506-1.322 0.399-2.771c-2.108-1.45 1.424-0.767 3.019 0.256s0.968 2.089 0.741 2.388-0.399 3.624 2.734 0.512c3.133-3.112 4.671-6.225 4.614-7.76 0 0 1.709 1.066 1.937 3.027s2.62-1.066 3.418-2.132c0.797-1.066 2.165-3.756 1.994-5.779 0 0 2.108 3.26 5.241 0s1.766-1.213 5.526-2.194 8.488-3.752 11.051-6.864 2.734-1.023 6.038-1.791c3.304-0.767 9.969-5.372 10.595-7.888 0.627-2.515 0.513-4.05-0.456-3.198s-0.57 0.171-1.994-0.725c-1.424-0.895-3.532 1.151-3.532 1.151s2.108 1.62 0.513 2.302c-1.595 0.682-3.133 2.942-6.152 2.089s-6.152 2.771-6.152 2.771 2.62 2.174-0.911 3.539c-3.532 1.364-2.962 1.833-5.127 0.341 0 0-3.76 4.775-5.924 5.756 0 0-1.025-0.085-1.709-0.981 0 0-2.449 2.771-3.703 3.326 0 0-1.538-1.492-2.962-1.961 0 0-2.962 3.667-5.469 4.818 0 0-0.741-1.364-2.336-2.302 0 0-0.788 4.796-6.038 7.632 0 0 0.342-1.279-2.279-3.027 0 0-6.494 5.628-9.057 6.182s-0.171-1.194 0.171-1.919 1.937-3.112-1.196-4.093-2.62 0.682-3.304 0.981c-0.684 0.298-0.741-0.554-2.848-0.256-2.108 0.298-1.766 1.236-2.677 1.578-0.911 0.341-4.557-0.597-4.386 1.833s1.88 4.093-1.31 5.5c-3.17 1.4 1.22 1.1 5.43 0.46z" fill="#7B3C20"/>
<path d="m875.44 205.92s0.741-3.07-1.937-4.562c0 0 17.203-2.643 4.215-9.209 0 0 15.437-3.198 11.792-8.143-3.646-4.946-7.19-3.837-7.725-3.752s3.282-2.857 4.307-2.473 13.444 5.159 10.254 1.066-2.905-3.837-3.418-5.031c0 0 4.101 0 10.311 6.054 0 0 1.31-1.364 1.139-3.837 0 0 4.443 1.236 5.81 2.558 0 0 0.741-1.535 0.456-2.388 0 0 3.817 2.046 5.127 4.221 0 0 1.766-1.535 2.051-3.283 0 0 3.817 1.578 4.785 2.771 0 0 1.253-1.663 0.797-4.05 0 0 6.323 1.876 7.177-2.046 0 0 6.361 1.379 2.227 3.855-5.313 3.183-0.537-0.785-5.987 3.009-4.226 2.942-6.589 6.395-8.621 5.685-1.493-0.522-3.285 3.823-5.336 1.691s-2.051-1.151-3.475 1.066-3.646 4.477-3.646 4.477-1.109-0.64-1.95-1.492-1.24 2.046-2.835 3.581c0 0-1.253-1.663-3.247-2.686 0 0-3.133 3.624-5.07 4.86 0 0-1.823-1.791-3.76-2.388 0 0-0.285 4.903-4.101 7.419 0 0-0.797-1.62-3.247-2.601 0.03-0.02-1.91 3.08-6.07 5.61z" fill="#5A3719"/>
<path d="m866.39 198.41s-2.09 1.606-0.741 3.326c1.349 1.719 1.424-0.298 3.133-0.469s22.786-3.795 3.703-9.508c0 0 0.797-0.725 4.101-1.023s15.266-3.539 9.684-7.802c-5.582-4.264-10.225 1.449-5.526-3.667 3.76-4.093 0.741-6.097 0.741-6.097s-11.108 7.419-13.557 8.783-5.981 3.965-1.823 5.329 7.007-4.519 7.405-3.198c0.399 1.322-8.374 6.182-7.12 8.442 1.253 2.26 0.968 4.136 3.133 3.709 2.165-0.426 8.032 1.109 3.247 0.938s-6.37 1.24-6.37 1.24z" fill="#5A3719"/>
<path d="m874.02 187.8s-1.937 1.361 0.627 0.679c2.563-0.682 7.69-1.791 6.722-3.112-0.97-1.33-4.39 0.26-7.35 2.43z" fill="#312E2A"/>
<path d="m907.86 165.8s9.798-0.256 13.842 2.473 5.981 4.519 7.177 4.903c0 0-0.171 3.709-6.437 1.066 0 0 0.342 1.791-0.342 3.539 0 0-2.336-1.535-5.013-2.217 0 0-0.456 1.407-1.31 2.217 0 0-2.791-2.814-5.924-3.667 0 0-0.627 1.407-1.196 1.919 0 0-3.361-1.919-5.924-1.876 0 0 0.513 2.047 0 2.857 0 0-7.121-5.585-13.444-4.86 0 0 3.076 4.477 5.07 6.694 0 0-12.817-1.023-10.709-7.93s-0.171-5.172 8.203-5.123 16 0.01 16 0.01z" fill="#7B3C20"/>
<path d="m847.76 184.88s-1.481 1.207 0 2.231c1.481 1.023 6.551-2.643 7.234-3.155 0.684-0.512 2.506-0.426 0 1.45s-5.07 3.922-6.665 5.969c0 0 8.488-2.302 14.013-7.077s-0.257-1.682 9.171-6.225c9.428-4.543 14.355-11.853 9.285-11.085-5.07 0.767-9.627 6.566-13.557 8.783s-6.152 2.515-5.526 1.236c0.627-1.279 3.532-0.767 8.943-5.116 5.412-4.349 4.215-4.05 4.272-5.585s-2.051-5.329 6.095-9.593 33.495-19.101 35.659-24.174c0 0-7.405 0.81-17.146 8.015s-14.956 10.574-17.646 11.469-2.348 0.298-4.114 2.388c-1.766 2.089-11.393 11.384-13.159 12.748s-2.279 2.26-2.43 5.041c-0.04 1.24-11.04 9.53-14.4 12.65z" fill="#5A3719"/>
<path d="m881.25 165.56s-1.88 0.873-3.703 0-1.253-4.796 3.133-7.141 12.361-5.841 16.406-6.353c0 0-0.57 5.074-13.159 9.337 0-0.01 0.8 2.63-2.68 4.15z" fill="#5A3719"/>
<path d="m885.7 162.26s0.366 1.248 0 2.388c0 0 23.412 2.26 35.489-11.981 0 0-16.577 1.535-23.184 5.5 0 0 4.158-5.202 16.577-9.508 12.418-4.306 17.488-9.636 18.57-12.577 0 0-15.705 5.5-23.184 5.5 0 0-1.481-0.043-2.905 0.767s-11.45 8.101-14.127 9.337c0 0 5.639-0.469 7.633-2.302-0.02-0.01-3.93 10.53-14.88 12.87z" fill="#AA5323"/>
<path d="m840.87 175.64s-3.019 2.132-1.766 3.198 3.411 1.279 8-2.558c4.589-3.837 15.697-13.388 8.678-13.771 0 0-8.988-0.554-8.678 4.946 0.31 5.55-5.78 7.84-6.23 8.18z" fill="#5A3719"/>
<path d="m820.13 172.4s5.924 3.453 3.703 6.31c0 0 18.172-15.434 13.045-18.76s-9.171 2.942-7.918 3.581c1.253 0.64 3.93-0.554 2.962 0.64s-10.65 7.72-11.79 8.23z" fill="#5A3719"/>
<path d="m815.4 167.42s3.987 1.194 4.158 2.899 12.019-8.357 8.886-12.577c-1.437-1.935-8.032-2.729-8.317 1.066s5.924-0.384 3.76 2.345c-2.84 3.57-7.63 5.66-8.49 6.26z" fill="#5A3719"/>
<path d="m858.04 159.01s-2.539 1.842-0.26 2.951 3.76-0.64 4.899-1.663c1.139-1.023 6.779-5.159 8.089-7.802s3.247-3.453 5.298-4.818c2.051-1.364 16.52-8.57 25.406-16.543s5.184-5.926 14.412-11.043c9.228-5.116 15.266-9.806 17.203-15.349 0 0-4.272 1.407-8.032 3.837s-12.247 7.76-13.956 8.484-4.101 0.853-5.355 2.174c-1.253 1.322-1.139 2.899-5.583 6.566-4.443 3.667-27.4 19.868-30.191 22.17-2.79 2.3-11.93 11.03-11.93 11.03z" fill="#5A3719"/>
<path d="m839.58 164.37s2.506-1.382 7.215-1.06c4.709 0.321 23.317-17.699 28.71-21.337s22.254-15.804 24.533-18.021 2.658-4.605 4.633-5.912 3.798-1.137 8.355-3.752 26.431-15.69 25.14-23.307c0 0-32.583 19.555-40.103 25.922-7.519 6.367-28.406 20.806-32.128 23.137s-6.684 6.367-12.912 11.426-12.38 9.32-13.44 12.9z" fill="#AA5323"/>
<path d="m832.74 157.44s6.03-0.617 6.836 2.331c0 0 12.912-8.868 15.874-12.506s-0.987-1.535 6.38-6.367 31.824-21.943 35.318-25.013 10.102-7.106 15.418-10.687c5.317-3.581 26.128-13.757 23.773-22.114 0 0-15.266 10.232-18.684 12.45-3.418 2.217-4.861 0.966-8.355 3.695s-11.165 8.186-12.532 9.891-13.064 10.687-18.76 14.496-18.456 11.199-24.609 16.543c-6.15 5.35-18.08 15.24-20.66 17.29z" fill="#AA5323"/>
<path d="m813.95 155.69s3.051 0.044 3.962 1.238c0 0 5.64-4.947 11.64-0.058 0 0 22.026-14.894 24.229-18.646s5.772-3.809 14.355-10.062 13.975-8.868 19.672-13.302c5.696-4.434 10.481-9.437 14.583-12.108 4.101-2.672 14.431-9.437 12.684-15.292 0 0-8.355 4.775-13.823 10.744s-5.013 0.853-10.557 5.855c-5.545 5.003-14.127 11.824-21.267 15.349s-2.81 3.127-7.975 6.424-4.785 2.786-6.684 3.24c-1.899 0.455-4.785 1.819-6.684 4.036s-6.988 5.23-12.532 8.357c-5.55 3.12-19.18 11.24-21.6 14.22z" fill="#AA5323"/>
<path d="m820.59 144.26s-1.196-2.473 0.911-4.221c2.108-1.748 5.924-6.353 6.551-9.252s0.171-2.43 6.266-4.946c6.095-2.515 19.937-8.996 27.742-13.814 7.804-4.818 19.653-12.577 22.102-14.453s8.393-6.054 10.804-8.015 1.158 3.283-1.462 5.543-12.703 9.337-14.355 10.446-10.937 7.333-13.785 8.911-9.912 5.159-12.418 7.248-2.184 2.729-13.368 8.186c-11.184 5.457-11.697 6.012-11.355 6.438s5.355-1.748 7.747-3.155c2.393-1.407 11.564-5.585 14.298-7.76 2.734-2.174 7.348-5.585 9.342-6.694s18.513-11 23.241-14.496 6.038-4.647 7.064-4.05c1.025 0.597 2.677 0.64 0.57 2.643-2.108 2.004-8.829 7.888-11.393 9.593-2.563 1.705-10.595 6.481-12.817 7.632s-3.076 3.283-4.329 4.178-4.899 3.496-9.342 4.519-5.241 4.349-8.146 6.225-23.579 13.004-24.206 13.558c0.01 0.01 1.26-1.27 0.35-4.26z" fill="#AA5323"/>
<path d="m892.13 97.834s-1.139 1.009-0.513 1.578c0.827 0.75 3.703 2.771 7.291-0.789 3.589-3.56 13.23-11.32 16.356-13.153s4.607-3.581 4.493-6.097-14.81 7.888-27.63 18.461z" fill="#AA5323"/>
<path d="m912.53 96.47s2.279-3.795 7.861-7.376 13.963-8.795 15.095-10.062c0 0 1.994 2.26-2.392 5.031s-12.931 8.442-13.956 9.252c-1.02 0.81-2.73 2.046-6.6 3.155z" fill="#AA5323"/>
<path d="m799 137.78s-6.209 3.326-3.987 5.415 5.526 1.45 6.893 0.853 3.987-1.236 4.386-1.364c0.399-0.128 5.81-1.663 7.177-4.178s5.013-5.415 7.918-7.504c2.905-2.089 3.93-4.178 3.532-5.67 0-0.01-24.46 11.54-25.92 12.44z" fill="#7B3C20"/>
<path d="m762.08 166.48s4.29-2.551 10.311-0.938c0 0-0.285-1.467-1.196-2.226 0 0 7.291-1.91 8.886-5.15s1.937-2.558 3.361-3.496 11.279-8.868 10.14-10.574-1.367-3.922-2.222-4.818-2.051 2.814-11.621 7.461-20.222 8.143-27.969 18.589-6.95 16.5 2.506 19.143 6.665-4.178 22.9-2.729c16.235 1.45 21.76 7.546 22.786 8.655 1.025 1.109 4.329 5.116 1.139 11.895 0 0 3.247 1.407 3.532-1.705s0.456-2.388 1.196-1.919c0.741 0.469 1.652 0.554 1.31-1.833-0.342-2.388-1.481-7.717-2.962-9.55s0.171-1.023 1.139-0.64c0.968 0.384 4.386 3.155 2.336-1.961-2.051-5.116-2.563-2.601-2.62-2.345s-0.456 1.535-4.899-1.791-8.488-4.946-11.507-5.798-0.911-0.853 0.854-1.492c1.766-0.64 4.158-1.023 4.956-2.984 0 0-1.766 0.426-5.013-0.725s-9.741-1.279-14.982 2.643 1.652-6.054-3.133-5.713-8.146 0.213-13.216 4.221-0.285-6.097 4.5-9.252 4.158-1.236 6.836-2.046 2.905-3.496 1.766-4.349 6.266 1.066 16.804-7.674c0 0-5.662 7.419-12.544 8.911 0 0-1.09 3.949-7.337 4.818-6.26 0.85-6.11 4.46-6.06 5.36z" fill="#7B3C20"/>
<path d="m744.1 202.61s3.074-18.372 20.279-19.702c15.076-1.165 19.861 0.711 22.862 1.677s10.329 3.127 7.481 5.486-4.481 1.933-4.481 1.933 3.304-3.667 0.304-4.292c-3-0.625-3.266 1.194-3.684 2.729s-0.608 3.382-2.089 4.576-1.519-1.762-3.684-0.227-0.304 1.592 0.57 1.336c0.873-0.256 2.013-0.711 1.785 0.625s-1.443 3.638-5.013 5.514c-3.57 1.876-3.38 1.762-7.633 2.444s-8.203 2.359-13.633 7.021c-5.431 4.661-11.374 3.106-12.57-2.103-1.03-4.47-0.5-7.02-0.5-7.02z" fill="#5A3719"/>
<path d="m763.79 202.04s1.652-3.624-1.31-5.287c0 0-9.058 1.553-11.735-1.194 0 0 9.855-0.512 15.95-2.899 6.095-2.388 4.272-4.05 2.165-4.434-2.108-0.384-5.981 0.554-6.38 2.473 0 0-1.196-2.046 0.342-3.411s3.931-1.62 6.095-0.981c2.165 0.64 4.101 1.578 11.222-2.132 0 0 4.101 0.938 4.215 3.709s-0.285 3.922-0.627 4.349c-0.342 0.426-0.854 1.236-1.709 1.151-0.854-0.085-1.937-0.298-3.019 1.62-1.082 1.919-1.732 3.581-3.543 4.86 0 0 2.119-5.969-3.122-7.376 0 0-4.329 2.558-7.633 2.686-0.01-0.01 4.21 3.91-0.92 6.86z" fill="#312E2A"/>
<path d="m773.25 191.08s-1.994-2.196 0.627-2.43c2.62-0.234 6.095 1.684 5.412 3.304-0.69 1.62-3.76 1.56-6.04-0.87z" fill="#5A3719"/>
<path d="m921.3 161.96s-4.785 1.364-0.342 4.306 6.608 5.5 9.855 6.353 6.608 2.046 6.551 5.287c-0.057 3.24-0.684 4.519-2.449 6.736-1.766 2.217 0.968 3.198 3.304 1.919s4.329-1.961 5.867-2.857 4.101-0.767 1.766 0.426c-2.336 1.194-4.785 1.919-1.766 2.004s21.191 0.426 25.007-0.81 8.772-1.62 9.228-6.566 0.171-2.196 1.595-3.112c1.424-0.917 2.393-3.027 0.313-1.599-2.079 1.428-3.674 2.153-4.073 1.727s-0.513-0.725 0.997-1.428 2.364-0.043 3.76-2.11c1.396-2.068 1.259-1.727 0.516-2.515-0.744-0.789-2.31-1.364-1.541-2.366s1.538-3.986-1.794-2.238-9.893 6.253-12.931 6.964-5.355 1.635-9.456 2.466-6.646 1.712-11.013 4.128-4.063-1.334-3.304-1.847c0 0 1.671 2.927 6.114-0.882s2.997-0.238 13.861-3.809 8.203-4.15 12.456-6.367 8.279-2.302 5.317-5.258-3.304-3.212-7.139 0c-3.836 3.212-14.431 8.385-20.773 8.527 0 0 24.495-10.574 21.988-12.108-2.506-1.535-5.203-2.899-6.912-3.269s-2.165-0.796-6.114 0.966c-3.949 1.762-4.595 2.189-5.734 2.302s-4.443 0.767-9.114 3.183c-4.671 2.416-7.177 3.382-10.292 5.287 0 0 2.165-4.377 11.811-7.276s14.583-5.571 13.519-6.054c-1.063-0.483-3.456-0.881-5.279-0.597s-1.291-0.142-7.177 2.189-3.38 1.819-8.127 2.842c-4.747 1.023-6.684 2.075-9.038 3.07 0 0 0.96-1.28 4.158-2.452 1.643-0.601-1.798-1.221 2.763-1.406 0.372-0.015 0.828 0.093 1.281-0.036 5.896-1.691 12.342-4.008 11.355-4.178-0.987-0.171-6.722-0.767-12.532 1.904-5.81 2.672-3.152 1.762-5.203 2.189-2.051 0.426-6.38 3.155-7.823 4.32-1.48 1.19-3.49 2.07-3.49 2.07z" fill="#fff"/>
<path d="m777.84 188.43s2.279 0.682 2.848 2.281 1.994-0.703 1.937-1.428-1.453-3.922-3.931-2.43c-2.49 1.5-1.24 1.45-0.86 1.58z" fill="#5A3719"/>
<path d="m771.48 220.03s4.863-2.287 8.943-2.004c0 0-1.595-5.756 1.253-4.775s2.051 0.597 2.62 0.554c0 0 0.171-3.795-0.57-5.287 0 0 2.905 0.682 5.867 0.725 0 0-2.791-5.457 0.285-9.209 0 0 1.689 3.581 5.487 4.477 0 0 0.018-1.535 0-3.155 0 0 2.26-0.256 4.026 0.682s3.247-9.891-1.994-12.279-1.253 2.046-6.152 3.07c-4.899 1.023-4.859 2.007-6.873 5.694s-3.779 3.729-7.881 6.372c-4.101 2.643-6.594 8.015-6.829 8.484-0.01 0.01 2.15 2.65 1.8 6.66z" fill="#7B3C20"/>
<path d="m934.91 157.12c1.781-0.312-1.798-1.221 2.763-1.406 0.372-0.015 0.828 0.093 1.281-0.036 5.896-1.691 12.342-4.008 11.355-4.178-0.987-0.171-6.722-0.767-12.532 1.904-5.81 2.672-3.152 1.762-5.203 2.189-2.051 0.426-6.38 3.155-7.823 4.32s-3.456 2.046-3.456 2.046-4.785 1.364-0.342 4.306c4.443 2.942 6.608 5.5 9.855 6.353s6.608 2.046 6.551 5.287c-0.057 3.24-0.684 4.519-2.449 6.736-1.766 2.217 0.968 3.198 3.304 1.919s4.329-1.961 5.867-2.857 4.101-0.767 1.766 0.426c-2.336 1.194-4.785 1.919-1.766 2.004s21.191 0.426 25.007-0.81 8.772-1.62 9.228-6.566 0.171-2.196 1.595-3.112c1.424-0.917 2.393-3.027 0.313-1.599-2.079 1.428-3.674 2.153-4.073 1.727s-0.513-0.725 0.997-1.428 2.364-0.043 3.76-2.11c1.396-2.068 1.259-1.727 0.516-2.515-0.382-0.405-0.98-0.753-1.368-1.132 0 0-1.094-0.957-2.366-0.147s-6.855 3.169-9.095 3.439c-2.241 0.27-4.557 1.222-8.583 3.183s-10.709 5.955-11.773 2.245c0 0-2.915 1.04-3.551 1.364-4.489 2.288-4.097-0.959-3.304-1.847 0 0-2.354 2.643-2.26 0.241 0.095-2.402 1.614-1.99 4.234-2.757s6.76-2.473 5.051-3.894-3.513 1.411-5.412 2.276-5.696 1.632-6.285-1.125c-0.589-2.757-0.57-4.676-5.715-4.974s-4.956-3.51-3.551-4.889 2.66-3.74 7.48-4.58z" fill="#999"/>
<path d="m951.26 182.05s8.013-3.695 15.38-5.429 1.595 0.227 0.342 0.625-12.722 4.178-15.418 5.429c-2.69 1.26-2.13 0.19-0.3-0.62z" fill="#312E2A"/>
<path d="m953.12 183.67s9-2.984 10.671-1.734c1.671 1.251 0.304 0.625-1.671 0.91-1.975 0.284-7.405 1.194-8.848 1.165-1.44-0.03-0.15-0.35-0.15-0.35z" fill="#312E2A"/>
<path d="m967.56 180.55s1.709-0.313 1.899 0.313c0.19 0.625-0.76 0.711-1.709 0.597-0.95-0.12-1.79-0.66-0.19-0.91z" fill="#312E2A"/>
<path d="m729.84 258.97s-0.336-7.902 3.651-11.91 23.355-24.163 26.317-29.797 2.506 1.742 2.62 4.94c0 0 3.247-5.592 5.81-7.699 0 0 2.279 2.327 1.88 6.974 0 0 4.671-2.473 11.906-2.515 0 0-2.677 3.155-2.791 4.988 0 0 10.026-1.109 15.266-0.256 0 0-13.785 7.717-9.912 8.399s7.918-0.043 7.918-0.043-4.386 4.477-11.393 5.372 8.886-0.128 10.652 1.876c0 0-8.659 1.322-15.608 6.608 0 0-0.649-0.298-0.695-2.26 0 0-0.216 1.748-2.21 3.411s-6.779 5.202-8.545 6.992c-1.766 1.791-5.07 5.329-8.602 5.159 0 0 0.797-2.729-1.823-3.581-2.62-0.853-5.639-0.256-7.747 2.004 0 0-9.342 0.128-12.304 0.554 0 0 2.108-3.368 4.044-3.283 1.937 0.085 9.741 1.151 10.424-4.178 0.684-5.329-5.013-3.922-2.848-7.077s1.652-3.027 1.709-3.326c0 0-1.766 0.981-2.791 3.795s-1.766 4.988-5.469 7.802-5.236 4.518-6.261 6.479c-0.01 0.02-1.7 0.25-3.21 0.59z" fill="#fff"/>
<path d="m1013.4 613.22s0.754-1.401 1.546-0.841 0.339 1.016-0.264 1.331c-0.5 0.32-3 1.93-1.2-0.49z" fill="#312E2A"/>
<path d="m938.73 179.92s1.177 1.592 0.456 2.331-1.747 1.45-1.253 2.587 0.532-1.876 3.152-2.189 9.038-2.217 13.064-3.837c4.025-1.62 13.406-6.196 16.558-6.083 0 0-2.321-0.642-10.69 3.189s-15.437 5.65-18.134 5.992-0.35-0.48-3.16-1.99z" fill="#312E2A"/>
<path d="m932.5 169.82s0.152 0.497 0.835 0.526c0.684 0.028 1.443-0.64 1.595-0.739s0.171-0.327-0.513-0.725-1.044-0.455-1.576-0.071c-0.54 0.38-0.79 0.56-0.35 1.01z" fill="#312E2A"/>
<path d="m738.82 254.19s0.304-1.08 3.038-1.535 2.848-1.762 2.506-2.331-1.975-0.568 0.684-3.581 0.949 0.256 1.595 0.995 3.65 7.16-7.82 6.45z" fill="#fff"/>
<path d="m732.26 248.61c0.142 5.265 7.042 3.309 7.042 3.309-2.458 1.868-3.961 3.247-4.993 4.537 0.456-2.558-3.891-3.198-3.891-3.198 0.35-1.57 0.92-3.22 1.84-4.65z" fill="#999"/>
<path d="m757.63 220.47c0.999-1.307 1.756-2.406 2.179-3.211 0 0 2.506 1.742 2.62 4.94 0 0 3.247-5.592 5.81-7.699 0 0 2.279 2.327 1.88 6.974 0 0 4.671-2.473 11.905-2.515 0 0-2.677 3.155-2.791 4.988 0 0 10.026-1.109 15.266-0.256 0 0-13.785 7.717-9.912 8.399 3.874 0.682 7.918-0.043 7.918-0.043s-4.386 4.477-11.393 5.372 8.886-0.128 10.652 1.876c0 0-2.53 0.386-5.952 1.576 0 0-2.555-2.4-9.96-2.059 0 0 5.76-3.223 10.329-4.264 0 0-2.013-2.643-5.165-0.227 0 0-6.266-4.32-1.101-7.987 0 0-3.646-0.767-6.038 0.938 0 0 0.114-2.956 2.772-4.292 0 0-7.026-1.137-8.772 4.036 0 0-1.329-2.132-0.722-4.548 0 0-4.253 2.446-6.19 5.217-0.01-0.01-0.65-5.27-3.34-7.23" fill="#999"/>
<path d="m744.01 253.89c-1.261 0.31-2.949 0.443-5.187 0.304 0 0 0.192-0.681 1.639-1.189 0 0 0.42 0.87 3.55 0.89" fill="#999"/>
<path d="m756.79 233.97s3.19 2.515 4.329 4.05c0 0 2.905-2.047 3.987-3.709 0 0 2.279 1.492 3.076 3.709 0 0 1.595-1.109 1.937-2.643 0 0 4.022 0.853 5.343 2.174 0 0 0.615-3.88 0-6.31 0 0 2.803 0.213 4.512 0.938 0 0-1.589-2.558 6.525-5.841 0 0-6.136 1.317-8.462 4.008 0 0-2.62 0.128-3.76-0.682 0 0 0.171 3.922 0.057 5.798 0 0-1.581-0.64-4.664-1.364 0 0-0.747 1.279-1.26 1.577 0 0-1.937-1.535-2.791-3.496 0 0-2.963 2.691-4.101 3.837-0.01-0.01-2.81-1.98-4.74-2.06z" fill="#312E2A"/>
<path d="m738.44 273.88s1.253 0.597 4.215-1.791 11.336-7.717 12.133-11.981-2.677-4.519-5.412-3.283c-2.734 1.236-1.595 3.624-1.481 4.391s0.171 3.752-4.272 7.888c-4.45 4.13-5.19 4.77-5.19 4.77z" fill="#FFC221"/>
<path d="m737.48 275.24s-6.722-2.814-0.684-5.841 8.716-3.837 9.399-6.353c0.684-2.516 0.285-2.089-1.937-1.023s-10.766 4.903-12.076 1.322c0 0 3.532 1.364 7.918-0.767s7.975-2.771 5.184-3.667c-2.791-0.895-12.874 0.213-14.526 0.682s-1.253 0.384-1.538 2.046c-0.285 1.663-2.165 5.159-2.848 6.182-0.684 1.023-2.336 5.287 0.741 7.163 3.08 1.88 7.96 1.75 10.38 0.26z" fill="#FFC221"/>
<path d="m734.86 260.57s-1.54 0.213-1.255 0.81 0.687 0.512 1.255 0.554 1.423-0.298 1.536-0.682c0.11-0.38-0.97-0.8-1.54-0.68z" fill="#312E2A"/>
<path d="m737.08 273.75s-3.19-1.535 0.399-3.496 7.462-3.837 7.975-4.647c-0.01 0-1.72 2.43-8.38 8.15z" fill="#fff"/>
</g>
</svg>