<svg xmlns="http://www.w3.org/2000/svg" viewBox="0 0 1000 500">
<path fill="#006" d="M0 0h1000v500H0z"/>
<path d="M0 250L1000 0v500L0 250z" fill="#BD1021"/>
<path d="M107.14 250L1000 26.79v446.42" fill="#fff"/>
<g stroke="#000">
<path stroke-linejoin="round" stroke-width="1.72" d="M907.45 766.23s-6.243-5.108 1.135-13.337c-3.973-3.405-.283-9.93-.283-9.93s-6.81-2.556.283-13.055c-5.108-3.405-2.838-11.068-2.838-11.068s-16.742-6.243-.85-12.2c-13.054 5.674-25.257-7.664-25.257-7.664l-19.012.568c-3.216-15.797-28.283-2.08-9.648-47.39-4.824-.85-10.216-2.27-15.607 1.703-5.392 3.973-20.715 12.486-29.796 3.973s5.96-20.715 6.243-21 20.148-10.5 22.986-17.31c-.284-5.107-6.527-9.08-.85-20.147 6.526-10.5 46.537-20.432 64.7-23.837 8.796-3.973 12.77-11.635 12.77-11.635l1.986 7.38s40.296-11.92 42.282-17.59c1.987-5.67.852 5.11.852 5.11 15.89-1.42 36.038-15.04 38.876-8.79 13.337-2.55 38.877-13.9 38.877-13.9s8.79-.28 2.55 9.37c3.97 6.25-1.14 11.64-1.42 11.64-.29 0 1.7 6.25-3.41 9.65 1.7 5.39-3.12 9.65-3.12 9.65s2.27 6.53-6.81 9.94c.85 5.68-5.11 6.81-5.11 6.81s.85 5.96-3.12 8.52c0 4.54-4.54 6.81-4.54 6.81s2.83 1.71-1.14 4.54c-3.97 2.84-45.12 28.1-45.12 27.81 0-.28 30.08 5.39 32.06 6.53 1.98 1.14 24.69 16.18 24.69 16.18l-22.98 28.36s-25.54-2.84-26.68-1.42c-1.14 1.42 5.39 1.99 6.81 4.26s3.69 7.67 8.23 7.1c4.54-.56-8.52 8.23-17.03 9.08 0 3.13 10.78 3.41 13.62.86 2.83-2.56-6.81 7.37-7.95 8.79s12.77-1.99 12.77-1.99-2.27 9.36-14.47 12.2c4.82 7.94 2.83 13.05 2.55 13.05s-7.95-7.95-15.33-6.53c1.99 7.66 7.95 14.76 9.65 15.89 1.7 1.14-13.34.85-15.33-3.4s-3.69 10.22 1.7 14.76c-6.24.28-11.64-3.41-11.64-3.41s-3.69 8.52-1.14 12.77c2.55 4.26-8.8-8.51-8.8-8.51l-21.56 9.08-5-8.24z" fill="#AA5323"/>
<path d="M740.77 749.34c.505 0 31.33-.506 45.48-8.59 7.075 11.116 16.676 18.696 16.676 18.696l4.548-16.17s11.117.505 12.128 3.032c-1.516 3.03-2.02 7.074-2.02 7.074s7.58.506 8.084 1.516c.505 1.01-2.02 9.6-2.02 9.6l32.34 7.58s2.528-12.632 5.054-11.116c2.527 1.516 13.644 17.18 29.31 18.192 15.665 1.01 16.676-13.14 16.676-13.14l3.537 2.023s6.57-14.15 7.58-14.15 2.527 2.022 11.117 2.022c2.527 3.03 3.538 10.1 3.538 10.1s-9.602 9.6-6.57 17.18 3.538 5.56 3.538 5.56l69.736 16.67s3.538 5.56-2.526 8.59c0 .5-70.242-16.17-70.242-16.17s-6.57 7.58-11.623 6.06c-5.05-1.52-1.51 3.03-1.51 3.03l75.8 6.07s5.56 7.07 1.52 9.1c-5.05.5-81.86-5.06-81.86-5.06s-4.55 9.6-9.6 1.51c-3.54 5.56-7.58-1.51-7.58-1.51s-6.57 5.05-7.58-.51c-5.56 4.04-9.09-2.53-9.09-2.53l-32.36-2-2.02 3.03s5.56 1.51-3.03 5.05c-8.59 3.53 51.55 2.02 53.06 2.52 1.52.5-4.04 5.05-4.04 5.05s30.83 2.02 36.39-4.55c5.56-6.57-2.02 8.59-2.02 8.59s24.26-1.01 24.26-2.03-.5 7.58-17.18 6.57c10.1 6.58 22.73 10.62 22.73 10.62s-12.63 3.03-27.28-.51c2.53 6.57 13.65 12.63 13.65 12.63s-8.09 7.07-26.28-10.11c5.05 9.09 1.01 12.63.5 11.62-.5-1.01-9.09-13.65-29.31-18.2 12.64 8.08 7.08 11.62 7.08 11.62s-6.57-11.62-17.19 0c-4.05-10.61-19.71-16.68-38.91-17.69-6.07-7.08-9.6-5.06-23.75-9.1-8.09-9.1-19.71-19.2-19.71-19.2s.5-13.65 14.15-12.13c1.51 4.55 1.51 3.03 1.51 3.03s15.16-5.56 19.71 2.02c6.57-11.62 15.66-1.74 17.18 2.3 4.35.64 26.28 1.23 26.28 1.23s-2.53-4.55-1.01-4.04c1.51.51 13.64-4.55 13.13-6.06-.51-1.52-1.01-6.57 1.01-6.07s-17.18-2.53-27.8 5.56c-3.54-3.54-1.01-13.14-1.01-13.14l-31.33-6.57-1.52 8.08s-9.1 1.51-8.59-.51c.5-2.02-2.02 7.07-2.02 7.07s-12.13-3.04-12.13-3.54c0-.51 3.54-18.2 3.54-17.69 0 .5-10.11 1.01-24.25 11.62-4.04-12.64-35.88-29.31-35.88-29.82l-.04.05zm39.42-41.44s-21.224 18.19 0 28.803c1.01-7.075 2.527-8.085 2.527-8.085s17.687 6.57 28.3-9.096c-4.55-6.57-12.634-4.042-12.634-4.042s-16.68 0-18.2-7.58z" stroke-width="1.72" fill="#FFC221"/>
<path stroke-width="1.72" d="M797.88 715.99l-14.655 12.633" fill="none"/>
<g stroke-width="1.72" fill="#fff">
<path stroke-linejoin="round" d="M780.89 708.05s2.838-2.838 3.69-6.243-1.136-7.094 2.27-10.216 48.24-22.13 51.93-25.82 10.498-11.63 11.35-13.33c.85-1.7 3.405 8.52-4.257 13.06 8.23-2.27 13.62-4.82 17.026-3.69-3.41 4.83-12.49 12.77-16.75 12.77 9.93-3.69 19.01-6.81 21.56-4.82 2.55 1.99-12.2 11.92-18.16 12.49 9.93-2.55 23.27-6.52 24.97-2.27-5.39 1.71-3.69 3.12-14.76 9.37-1.42 1.14-8.52 1.42-8.52 1.42 8.51-.85 20.14-4.25 21.28 1.99-6.81 2.56-9.37 5.96-15.04 7.38-5.68 1.42-18.73 3.98-26.68 7.1-7.95 3.12-19.58 12.2-19.58 12.2s-25.26.86-25.26.57c0-.28-4.83-11.63-5.11-11.92z"/>
<path d="M997.4 690.74l49.092 9.364s5.393-6.243 2.555-9.648c7.378-1.702 5.39-11.35 5.39-11.35s8.514-3.69 1.42-12.203c4.825-4.824-1.136-8.513-1.136-8.513s1.99-8.513-4.25-9.364c1.71-6.81-10.78-9.08-10.78-9.08s-25.82 7.093-43.98 7.66c5.96 5.96-2.27 9.65-2.27 9.65s4.83 3.404 3.41 6.242.85 5.96-5.39 7.946c8.23 3.69-.85 9.93-.85 9.93s9.05 6.24 6.78 9.36z"/>
</g>
<g fill="none">
<path stroke-width="1.72" d="M817.58 753.89l-6.57 29.31m12.64-18.2l-2.02 9.6m34.36-2.02l-3.032 9.096m59.122 52.554c-.505 0-16.17 2.02-18.192 1.516-2.02-.505 24.76 8.085 24.76 11.622m-34.868-9.598s-15.666-10.106-18.192-9.096c-2.527 1.01 15.665-.505 17.18-2.02m-31.328-.504s-16.17.505-17.687-1.01 15.665 11.116 18.697 10.106m-32.34-16.176c-.505 0-11.117-4.042-15.665-5.054 4.043 4.043 7.075 9.602 17.18 11.623m2.525-13.13c-.505-1.01-20.213-7.08-20.213-10.11 4.548 1.51 11.117 3.53 17.18 2.02m107.643-15.16l-2.02 9.09m-83.73 5.37s3.378 3.72.346 8.27m70.744-4.55l-5.558.5m-39.922-3.54l10.106 1.51m17.084-27.51s.283 10.21-8.23 9.93c-8.512-.29-5.675.28-5.675.28"/>
<path stroke-width="1.72" d="M902.34 776.72s3.405 1.135 2.555 3.69c-.852 2.553.85 9.93-9.08 17.026-10.502 2.27-9.365-8.796-9.365-8.796"/>
<path stroke-width="1.72" d="M906.03 779.85s6.243-3.688 7.094 2.27c.85 5.96-5.108 17.027-9.364 18.73-4.258 1.702-9.08-.285-8.514-3.122M913.69 782.4s5.676-4.54 7.378 1.418c1.703 5.96-4.54 19.297-7.094 19.58m7.666-19.578s2.838-1.418 4.823.283M912.56 804.25c-1.135.283-5.96.567-7.66-3.12m-17.88-6.81c-.283 0-5.958.285-5.958.285m27.808 22.135l-.567-9.364-2.27-3.12-3.973 3.972s-.568 9.364-2.27 10.216m2.27-10.504c-.283-.567-3.122-5.958-3.122-5.958l-4.825 5.958s-.567 8.514-2.27 9.366m2.267-9.646c0-.283-1.987-5.675-1.987-5.675s-5.675 3.12-6.243 5.39c-.567 2.27-.852 8.514-2.27 9.082m2.27-10.217s.568-5.108-1.135-5.108c-1.702 0-9.364 7.095-9.648 13.337M792.8 706.07s.284-5.675 2.838-7.66c2.554-1.988 15.324-6.812 18.16-11.07 2.84-4.255-4.256 7.38-3.12 10.5m-12.768-.29s6.243 2.27 4.824 7.094"/>
<path d="M805.29 700.82a4.682 4.682 0 1 1-9.36.005 4.682 4.682 0 0 1 9.358-.007z"/>
<path stroke-width="1.72" d="M992.58 680.24s43.417 5.108 45.404 5.108c1.986 0 9.648 2.555 11.068 5.108M994.85 677.69l60.443 1.418m-60.163-2.838s57.32-3.405 61.294-9.364m-59.584-3.126s57.606-6.243 58.174-5.392m-60.164-1.698s55.903-8.797 56.47-7.378M835.37 620.65s17.594 19.296 15.89 32.35"/>
<path stroke-width="1.72" d="M850.13 642.78s5.675 8.23 7.945 9.08c2.27.852 22.134 1.987 23.27 10.5 1.134 5.393-4.257 3.69-3.406 7.663 1.41 5.108 14.75 11.634 29.22 3.973m-13.34 3.974s11.91 17.594 29.51-1.418m-9.08 7.668s14.47 7.66 26.39-12.202m-15.32 13.902s7.09 5.96 21.85-1.985m20.43-7.945s21.85 4.54 23.27 5.96m-15.04-10.79c.28 0 15.32.568 15.32.568m-24.7-9.078s26.1-1.703 29.51 3.69m-40.86-11.92s36.6 1.42 38.31 3.405m-30.08 34.055s6.24-1.702 7.09-.85m-21.28 16.17s8.23 7.095 18.73 3.973m-14.19 7.947s9.36 4.256 20.43 1.702m-17.31 5.388s9.36 6.243 15.6 5.107m-19.85-1.417s6.52 4.825 6.81 7.378m-15.89-1.698s1.99 10.215 9.08 13.904m-13.91-9.364s-3.12 13.337 4.82 21.567m-13.05-11.067c0 .283-.57 6.243-.29 6.81m-50.8-58.46l15.32-.852s5.67-2.27 1.7-5.958m1.99 3.41c.28 0 14.47 1.135 18.16 5.39 3.69 4.257 8.23 12.77 10.78 14.19 2.55 1.418 3.12-.568 3.12-.568m-6.25-2.272s-7.66 13.054-1.71 17.027m-2.56-2.557s-6.81 9.08-1.42 13.62m-1.41-1.13s-5.39 8.798 1.13 14.756m-3.52-38.096c-.37.366-6.59 4.76-8.79 3.662m2.2 10.258s2.56 2.563 4.76 2.197m-4.46 11.103l4.09 2.805m-3.54 7.385l3.54 2.135m-67.6-141.295s7.46 3.88 13.42 0c5.97-3.88 34.61-18.5 42.07-20.888 7.46-2.387 11.64-16.114 13.13-22.082m-5.66 16.11l41.78-12.235s6.86-5.67 7.16-16.114m-2.99 11.34s41.77-4.17 41.77-19.69M989 561.37s43.865-11.935 48.043-16.41"/>
<path stroke-width="1.72" d="M866.67 623.72s26.558-13.727 30.736-15.22c4.177-1.49 13.725-13.427-.597-13.427"/>
<path stroke-width="1.72" d="M879.5 629.1c.3 0 21.783-14.025 28.945-15.815 3.88-5.37 1.79-11.04-4.774-9.847"/>
<path stroke-width="1.72" d="M910.23 609.7c.597-.298 11.638-.597 7.76 8.057-5.67 4.178-30.14 16.412-30.14 16.412m16.71-33.72l46.55-15.52s3.88-8.06-1.79-9.25m38.8-14.03c0 .29 5.97 3.58 2.388 8.95-6.565 3.88-37.6 11.34-37.6 11.34m82.392-25.07l-43.86 12.23m40.56-2.39l-38.195 11.63m34.895-2.09l-33.72 10.14m27.42-.59c-.896 0-25.065 7.46-25.065 7.46m19.765 0l-15.518 6.26m11.618 2.08c-.597 0-13.428 5.67-13.428 5.67m9.528 1.2l-11.936 5.67m-8.654 7.16s1.493.6 1.194 2.39m-31.334 14.03s5.074 1.79.3 6.56c-2.388 3.28-9.25 2.38-13.43 8.35m45.66-81.76s6.268 1.49 1.493 9.55c-12.534 4.77-37.898 12.53-37.898 12.53s-1.193 2.09-4.475 3.88c-3.282 1.79-39.39 11.93-39.39 11.93m82.36-28.65s6.863 2.98 0 8.06c-7.76 4.47-34.914 12.83-34.914 12.83s-.3 2.39-1.49 3.28c-1.195.89-37.003 12.83-37.003 12.83"/>
<path stroke-width="1.72" d="M994.98 588.21s7.162 2.09.896 8.057c-7.46 4.476-31.333 12.533-31.333 12.533s-2.387 2.984-6.266 4.178c-3.88 1.194-28.646 11.34-28.646 11.34m67.14-28.048c2.09.895 7.76 1.79.9 7.162-8.05 3.58-27.75 11.34-27.75 11.34l-1.79 3.28-31.33 13.43m61.77-27.152s2.99 3.58-3.58 7.76c-7.16 3.878-22.68 9.846-22.68 9.846m22.68-9.256s3.29 2.09-.89 5.073c-4.77 2.387-23.57 12.235-23.57 12.235l-12.23 8.057"/>
<path stroke-width="1.72" d="M952.01 585.23c0 .298 5.074 4.476 3.282 9.25 4.477 3.282 3.58 6.863 3.58 6.863s6.267 3.58 5.373 8.654c6.266 1.492 5.968 5.073 5.968 5.073l-2.09 3.282s6.266-.298.896 7.76c3.28 1.79 1.79 3.878 1.79 3.878m-1.79-3.58c-.9 0-21.79 7.76-27.16 12.533"/>
<path stroke-width="1.72" d="M918.59 617.16s6.266-.298 5.372 6.565c7.162-2.387 5.67 4.476 5.67 4.476s8.354-3.28 6.862 7.17c5.37-1.19 4.475 4.18 4.475 4.18s4.77-.29 4.77 2.39c3.28-2.98 6.86-1.49 6.86-1.49s2.38-3.28 5.67-2.39m-34.02-14.62c0 .6-28.05 16.12-28.05 16.12m33.42-11.04l-21.19 13.13m28.34-6.57c0 .3-18.51 11.04-18.51 11.04m22.68-6.86s-13.13 10.74-16.12 10.15m20.59-6.86s-7.46 5.67-13.73 8.36m21.48-10.74s2.38 2.99-12.54 10.75"/>
</g>
</g>
<path d="M766.47 277.93c6.665.512 6.437 7.12 6.437 7.12l23.602.526c3.01-8.23 6.15-7.276 11.88-3.212 5.45 3.86 11.39 5.585 11.39 5.585 2.28-11.81 19.02-9.43 19.02-9.43 7.14-17.06 7.74-16.83 3.49-18.99s-5.99-5.82-5.99-5.82c-4.04-4.88-6.17-11.92-6.62-16.25s-5.47 2.16-6.38.8c-.91-1.37-8.36-.57-8.36-.57 1.82 1.93-4.41.79-4.41.79.61.45 0 2.27 0 2.27-.61-.8-5.32-1.59-5.32-1.59-.46 1.02-1.52 2.16-1.52 2.16-2.58-1.14-7.75-.91-7.75-.91-7.59-.12-12.15 2.27-14.28 3.52s-9.72 5.11-15.95 11.14c-6.23 6.02-9.72 5.34-9.72 5.34-1.82 6.71-16.71 14.89-16.71 14.89-2.43 2.16-9.87 3.18-13.67 0s0-8.87 0-8.87c1.41-2.66 2.8-2.55 2.95-11.77.1-6.24 6.54-11.18 13.15-18.43 8.08-8.86 19.37-23.45 19.37-23.45.05 4.48 2.5 5.2 2.5 5.2 2.22-4.57 5.41-8.23 5.41-8.23.17.38.63.64.63.64 2.5-3.41 4.04-4.78 4.04-4.78-.86-.34-7.86 0-14.41 5.72s-11.05 3.79-11.05 3.79c-4.56-1.45-4.96-4.95-4.96-4.95-3.33-14.32 9.74-24.56 9.74-24.56-17.55-4.18-4.9-26.44 16.86-35.9s21.53-13.73 21.53-13.73c1.25 1.45 2.28 4.01 2.28 4.01.22-.17 1.82-2.56 14.35-8.1s18.58-10.31 18.58-10.31c1.59 3.07 1.25 5.28 1.25 5.28 34.29-12.02 68.07-39.61 68.07-39.61.97 2.3.45 5.8.45 5.8 5.58-5.16 25.75-17.18 25.75-17.18.34 7.67-5.98 10.61-5.98 10.61.68 1.11 1.08 3.12 1.08 3.12 3.3-1.79 18.68-12.54 18.68-12.54 5.64 4.86.51 12.83.51 12.83 2-.3 3.48-2.04 3.48-2.04 1.42 8.27-7.75 15.56-7.75 15.56 1.59.04 4.27-1.54 4.27-1.54-1.71 9.04-18.86 19.05-18.86 19.05 2.51 2.21.11 5.16-1.94 6.48s-5.7 4.22-4.56 5.41 8.72-4.14 8.72-4.14c1.31 3.8-8.43 11.26-8.43 11.26 6.78.9 25.64-7.67 25.64-7.67-1.54 7.29-8.66 12.96-17.43 16.24-8.77 3.28-8.32 3.79-8.32 3.79 1.54 1.23 13.67-2.3 13.67-2.3-3.64 8.14-16.29 13.72-16.29 13.72 3.48 2.94 8.2-.47 12.93-3.71s11.17-6.01 18.29-8.4c7.12-2.39 12.13-.59 12.13-.59 5.93-1.88 10.94.77 10.94.77 11.39.93 12.53 5.07 12.53 5.07 1.25.3 2.22.81 5.13 2.94s2.73 8.74 2.62 11.98c-.12 3.24-1.03 3.24-1.6 4.13s-.63 1.92-.63 3.15-2.85 8.91-20.45 9c-17.6.09-26.68 0-26.68 0-1.45 0-3.19.85-3.19.85-7.4 3.67-3.49-2.5-12.3 4.75s-13.3 5.99-13.3 5.99c-1.45 1.74-10.67 10.32-15.95 13.73s-4.33 3.1.26 5.09 11.54 0 11.54 0c-4.44 2.96-1.36 4.32-1.36 4.32 5.85-3.55 9.38-2.25 9.38-2.25 1.86 5.09-4.82 13.13-4.82 13.13 2.58.34 7.44 0 7.44 0-1.18 3.44-6.04 7.22-9.61 8.39s-2.93 1.62-1.86 3.78.15 4.35.15 4.35c-6.23-4.32-6.46-.46-6.46-.46-.72 5.12-.61 12.45-.61 12.45-4.41-2.21-4.63.74-4.63.74-1.14 4.66-6.53 10.06-6.53 10.06-.23-2.89-2.89-3.63-2.89-3.63-2.81 5.4-7.98 8.64-7.98 8.64-.68 4.66.61 11.2.61 11.2-3.34-.68-4.56-.62-5.09.17s.76 1.2.76 1.2l43.52 1.08c.61.06 3.19.34 3.27 5.06s-3.8 4.94-3.8 4.94l-47.63-1.13s.23 1.31-2.28 2.62-1.67-1.48-2.36 4.38c-.69 5.85-10.18-.46-10.18-.46-1.52 2.27-5.24 5.23-5.24 5.23-2.13-6.43-4.33-8.41-7.75-2.84s6.15 4.6 6.15 4.6 55.9-8.24 58.94-8.53 6.38-.11 7.74 4.15c1.36 4.27-6.76 4.95-6.76 4.95l-57.35 6.25c-1.22 3.41-6 3.13-6 3.13.38 3.24-3.04 5.28-4.79 6.48s-7.21.62-7.21.62c-6.68 4.55-9.95.97-9.95.97-4.33 1.88-7.06 1.08-10.63-.45-3.57-1.53-3.27-5.85-3.27-5.85l-36.17 3.76a8.752 8.752 0 0 0-2.89 1.73c1.29 1.65-2.6 5.48-2.6 5.48 1.08.75 3.16 2.84 3.44 7.36.3 4.78-5.84 5.58-2.77 8.91s8.68.57 14.95-2.43 12.42-2.62 15.09-2.6c2.68.02 10.14 1.89 14.79 3.54 4.65 1.64 6.24.66 6.55-1.73s2.4-3.07 2.4-3.07c-.57 2.34.68 3.39.68 3.39 1.79.13 4.93-1.62 4.93-1.62-.28 1.72-2.56 2.81-2.56 2.81-4.55 3.04 1.71 1.92 1.71 1.92 12.48-2.56 16.92-2.31 20.17-1.97s18.57 6.86 18.57 6.86c.57-1.53.17-5.33.17-5.33 3.93 1.07 5.53 3.33 5.53 3.33 1.48-1.62.51-4.35.51-4.35 12.65 7.08-2.62 10.28-6.66 11.64-4.05 1.37-3.99 3.03-3.99 3.03 3.36-1.07 5.69-1.45 8.49-1.66 2.79-.21 1.82-.04 8.49-1.37 6.66-1.32 10.08 1.49 10.08 1.49-5.58.3-7.24 1.96-7.24 1.96 3.53 2.43.17 4.48.17 4.48-5.07-6.39-9.4.26-9.4.26 1.74-.25 6.84.81 8.29 1.73 1.12.71 3.76 2 7.04 3.52 4.63 2.14 3.76.77 7.35 2.13s2.22 4.82 2.22 4.82c-1.54-2.81-4.85-3.8-4.85-3.8-.29 3.8-4.1 4.44-4.1 4.44 4.67-5.2-5.42-7.46-10.14-7.38s-8.26 3.11-8.26 3.11c9.51 8.91 16.12 6.01 16.12 6.01-1.2 3.24-9.06 1.96-9.06 1.96 3.64 2.77 3.25 4.73 3.25 4.73-1.94-1.87-5.13-.94-11.97-5.37s-12.93-2.98-12.93-2.98c6.67 7.12-2.45 11.34-2.45 11.34-3.36 1.92 1.43 4.52 1.43 4.52-4.22.77-4.79-3.45-4.79-3.45-2.22-.43-5.41 2.26-5.41 2.26.23-4.35 5.93-2.18 6.1-6.7s-5.3-8.01-21.42-5.8-20.85-2.94-20.85-2.94c-1.37.05-1.65 1.41-1.65 1.41 2.67 2.56 3.87 3.63 3.41 5.42s.86 2.39.86 2.39c-2.97-.17-3.19-3.71-3.19-3.71-.06 1.45-.69 1.58-1.66 3.11-.97 1.53-.05 3.49-.05 3.49-1.26-1.11-3.54-2.43-1.37-5.58 1.67-2.43-3.48-5.55-3.48-5.55-1.99-2.05-7.29-.13-7.29-.13-10.99 2.18-17.43-4.77-17.43-4.77-1.25 0-3.64-.68-3.64-.68-11.62 5.2-21.82-6.06-21.82-6.06-8.77 1.66-12.76-2.56-15.44-6.7s-3.19-4.48-6.72-6.61-6.83-8.16-3.59-11.34c2.83-2.77 1.99-3.41 1.99-3.41-4.55-7.66 8.13-10.13 8.36-11.96.33-2.68 2.98-4.37 5.83-4.54s2.85.08 4.73-1.84c1.88-1.92 5.47.47 5.47.47.74-.55 7-5.41 12.59-2.9 5.58 2.52 10.19.73 10.19.73 3.93-.85 36.57-5.28 36.57-5.28 2.11-3.16 3.59-6.95 12.59-9s15.83-7.64 15.83-7.64c-1.6-1.7-4.27-1.62-5.64-1.79s-4.22-2.6-4.22-2.6c-1.65.73-2.5.37-14.3 7.55-10.54 6.41-10.84-6.31-10.84-6.31l-23 .04c-.4 4.86-4.1 6.78-4.1 6.78l-8.37.42c-4.67-2.47-4.73-10.7-4.73-10.7-25.29.39-39.36 9.42-39.36 9.42-28.65-14.66-51.09-17.99-51.09-17.99 34.8-3.79 53.2-13.47 53.2-13.47 19.24 11.55 37.3 11.85 37.3 11.85.68-6.95 5.35-8.65 5.35-8.65l5.35.21z" fill="#312E2A"/>
<path d="M725.09 335.68c-7.273 4.265-5.958 6.594-5.325 7.904.646 1.336.72 2.615-1.253 4.605-1.975 1.99-1.785 2.68-1.785 2.68.304 7.07 5.31 8.57 7.4 10.3 1.748 1.45 4.714 6 4.714 6 3.73 5.34 7.68 5.4 10.6 5.4s2.67-.25 1.18-1.57c-1.4-1.24-4.33-3.64-4.33-3.64 3.91 1.36 7.64 5.45 7.64 5.45 7.39 8.08 14.21 7.02 17.21 6.62s2.47-2.14 2.47-2.14c-.16-.29-3.07-.51-3.07-.51-11.09-1.05-14.43-8.33-14.43-8.33 6.69 6.56 17.17 7.9 20.39 7.78s3.04.8 2.36.97-1.67 0-3.15-.12-1.48.26-1.14.88 1.74.69 3.51.63.35.12 4.93 3.68c4.59 3.56 16.01.68 16.01.68-7.38-1.84-8.4-5.16-8.4-5.16-10.03 1.17-14.1-4.84-14.1-4.84-1.79-1.79-7.15-4.56-7.15-4.56-5.67-2.43-6.55-7.56-6.55-7.56 1.59 2.27 4.7 4.87 8.63 5.96s5.04 1.66 5.04 1.66c-1.88.27-2.99-.34-2.99-.34-3.93-1.16-1.71.44-1.71.44 4.33 3.45 5.53 3.2 5.53 3.2 11.37 1.17 5.73-3.37 5.73-3.37 8.09 1.92 9.43-1.11 9.43-1.11 1.68 3.56 7.81 2.28 7.81 2.28-8.14 3.92-1.96 2.8-1.96 2.8 8.23-1.54 9.85.55 9.85.55 2.23 2.07 4.48 1.79 4.48 1.79s1.49.04 4.62.67c3.13.62 7.92 3.29 12.48 2.73s5.3.86 5.3.86c-.85-.29-2.85-.6-6.38.98s-9.62 2.09-18.51 0-9.57-1.83-9.57-1.83c2.11 1.57 3.99 3.79 4.39 5.33s1.93 1.62 1.93 1.62c.63-1.96 3.31-2.82 3.31-2.82 1.75 1.62 6.44 3.75 6.44 3.75.52-1.07 0-1.82 0-1.82 3.42 3.26 7.41 2.28 7.41 2.28 1.08-.76.74-2.6.74-2.6 1.37-.04 1.6.81 2.57 1.45s4.04.21 4.04.21c-1.14-.47-1.94-2.22-1.94-2.22 4.5-3.11 14.24-1.75 14.24-1.75 7.04 1.23 6.15 5.84 6.15 5.84 1.43.68 3.31 2.81 3.31 2.81.6-1.62.06-3.26.06-3.26 3.22 1.53 3.9 5.28 3.9 5.28 3.73-4.26-3.56-9.06-3.56-9.06 3.53-.44 7.44-.12 9.8.22s5.75 1.57 8.51 3.88 7.72 3.36 7.72 3.36c-.15-.95-2.79-2.56-3.39-2.9s-.85-1.17-.85-1.17c2.42.42 4.1.21 4.1.21-8.51-5.2-10.65-7.68-10.65-7.68 3.19.4 4.96-1.58 4.96-1.58-6.72.15-6.95-1.6-6.95-1.6.82.23 3.87.98 7.89.19s9.6.02 9.6.02c-2.91-4.67-14.16-3.88-17.75-3.69s-4.98-.28-4.98-.28c.57-.28 1.16-.88 3.98-.9 2.82-.02 5.58.21 8.77-1.99s7.57-1.47 7.57-1.47c-1.06-2.1-6.11-2.84-10.56 0s-8.47 1.93-8.47 1.93c7.03-.99 9.08-3.47 9.08-3.47-2.13-.51-3.3.17-7.52 1s-5.35-.62-5.35-.62c4.64-2.76 7.86-3.87 7.86-3.87-3.95-.83-7.59-2.51-7.59-2.51-4.1 3.85-7.29 6.03-15.15 1.91s-11.96-3.64-11.96-3.64c6.91-4.09 14.01-2.33 19.18.77s6.65.57 6.65.57c-1.63-1.03-1.4-1.91-1.4-1.91 12.53 6.4 17.96 2.42 20.74.54s-1.25-4.37-1.25-4.37c-.27 4.06-5.4 5.91-9.42 4.55s-7.75-3.1-13.54-5.52-13.05-1.16-19.81.26-7.63.74-8.24.2-.95-2.19-4.4-.77c-3.46 1.42-11.51-2.36-16.52-3.55s-13.22-.54-20.32 3.35-10.6 2.92-12.72 1.96-3.46-3.64-1.18-6.03 2.47-3.04 2.28-6.48c-.19-3.44-3.57-5.49-3.57-5.49 3.11-3.22 3.87-3.93 2.81-5.32-1.06-1.39.61-1.36 2.39-2.16s.99-.91.57-1.96c-.42-1.05-1.44-.88-1.44-.88-4.14.17-6.42-.97-6.42-.97-6.85-3.16-13.21 2.98-13.21 2.98-3.9-2.99-4.79-1.06-5.47-.32s-2.05 1.25-3.87 1.42c-1.66.15-4.16.8-5.03 2.35 0 0-.76 1.24.19 2.6 0 0 1.07 1.6-.87 3.54-1.93 1.94-2.62 2.41-2.02 4.24s.43 3.24-.31 4.43c0 0-.89-1.03-.66-2.28s.23-1.99-.06-2.67c0 0-1.91 1.87-2.25 3.22 0 0-.8-2.07 1.97-4.84s4.02-4.15 3.25-5.23c-.6-.74-2.62.54-3.1.82z" fill="#FFC221"/>
<path d="M732.94 366.24s-3.456-2.643-3.038-6.31.348-4.12-.035-4.89c0 0-.63.366-.61 1.792.017 1.338-.173 2.73-.305 2.984 0 0-1.785-3.04-2.506-3.61 0 0 .608-3.183-.38-4.548-.987-1.364-1.943-1.45-3.076-1.023-1.568.59-2.752 2.047 2.517 6.367 0 0 1.964 1.563 3.332 5.03 1.37 3.47 3.65 4.01 4.11 4.21zm17.13-10.15s-.266-2.075 1.595-5.742.745-6.39.327-7.3-.67-.573 1.208-2.15c2.31-1.938-.89-4.386 2.908-7.786 0 0 2.506-2.15 3.076-3.03 0 0-4.025 2.16-6.646 3.24-2.62 1.08-12.646 5.997-10.443 9.294s1.975 3.468 1.633 4.832c0 0-5.962-3.155-3.874-8.27 0 0 .947-2.062 3.456-4.378 2.28-2.103.91.455 5.544-2.19 0 0 3.684-2.188 5.62-5.144 0 0-2.43 1.535-3.304 1.79 0 0-5.355.967-7.52 3.24-2.164 2.275-6.76 6.226-5.202 10.63 0 0-5.355-.653-6.57-6.224 0 0-9.912 12.222 10.9 17.907-.02 0 3.78 1.01 7.28 1.28z" fill="#312E2A"/>
<path d="M841.61 315.23c7.772-1.175 52.815-7.982 56.908-8.397 4.48-.455 6.197-1.053 7.67 2.558 1.672 4.1-6.15 4.15-6.15 4.15l-53.7 6.09c-2.634.31-3.223-.7-3.223-.7-.465-.86-1.363-2-1.982-2.75-.01 0-.72-.77.47-.95z" fill="#FFC221"/>
<path d="M731.61 339.66s-5.81 12.236 17.032 15.263c0 0 .057-1.364.968-3.283s2.905-5.798 1.025-8.314 1.538-1.194 2.05-4.477-.34-2.82 1.254-4.95-7.18 2.6-9.92 5.75 3.7 5.54-.12 8.99c0 0-3.19-1.15-5.07-4.61-.01-.01-4.45.08-7.24-4.4z" fill="#5A3719"/>
<path d="M753.94 354.69s5.64 4.882 12.36 4.67 9.57-2.005 11.28-4.67c0 0 1.307 2.065 1.31 3.432 0 0 5.81-4.818 15.836-.64s6.95 3.03 9.17 3.327c0 0-4.26-.76-14.012 3.7-10.03 4.59-36.18 3.02-35.95-9.83z" fill="#312E2A"/>
<path d="M744.6 333.1s2.535.384 5.07-2.473c0-.01-3.42.63-5.07 2.47zm-19.16 22.72s-4.713-3.71-1.694-4.434c0 0 2.15-.34 1.69 4.43z" fill="#5A3719"/>
<path d="M828.05 379.02s2.506-4.48 9.74-4.48 8.09 3.326 17.204 3.965-10.944 3.084-18.57.256c-3.98-1.48-7.57-.25-8.37.26z" fill="#312E2A"/>
<path d="M756.45 357.95s10.823 6.566 20.45-.554c0 0 .798.767 1.48 2.515 0 0 7.292-7.03 20.337.56 0 0-1.603-.18-7.747 2.48-8.01 3.45-28.03 5.71-34.52-4.99z" fill="#5A3719"/>
<path d="M798.2 364.6s10.367 1.202 19.14.682c5.39-.32 11.222-1.306 8.317.52-2.905 1.825-1.48 1.996 10.937.845s-.114 2.345 8.43 3.453c-.01.01-20.71 10.59-46.83-5.49z" fill="#312E2A"/>
<path d="M825.43 358s6.095-2.217 11.735.426c5.64 2.643 4.785 2.857 8.545 3.24 0 0-2.62 3.752-8.83.725-6.2-3.04-7.85-3.62-11.44-4.4zm6.78 18.71s5.98-2.983 12.59.118c.828.388 2.632 1.137 4.328 1.502 0 0-5.065 1.57-10.254-.043-2.16-.67-3.88-1.19-6.67-1.58zm-29.57-10.7s13.33 1.236 20.564-.205c0 0-8.374 4.042 12.646 2.166 0 0 4.67-.51 4.1.22s-.91 1.28 1.368 1.96c0 .01-15.61 7-38.68-4.13z" fill="#5A3719"/>
<path d="M736.05 354.69s.114 1.023 3.076 2.345 4.557 3.688 5.184 4.967 2.136 3.193 4.586 3.803-10.45 2.18-15.133-3.255c0 0-3.55-3.916 2.174-7.86" fill="#312E2A"/>
<path d="M818.31 378.8s-4.158-.256-9.798-2.217c-5.64-1.96-7.12-.298-10.31-2.686-3.19-2.388-9.627-.895-10.823-.725-1.2.17-4.62 0-.35-2.77 0 0-3.42-.086-4.73-1.792 0 0-1.54 1.492-7.29.938 0 0 2.56 4.026-7.75 2.866 0 0 3.07 3.572 6.78 4.297s5.24.49 7.63-.21c0 0-.69 3.11 4.1 4.31s5.75 2.13 8.2 3.11.34-2-6.04-6.65c0 0 3.42-.17 8.31 1.02 4.9 1.19 16.01 4.05 22.05.51zm2.58 4.78s1.025 2.388 4.177 1.848 8.336-1.464 13.35 1.094.853-4.264-9.21-4.562c0 0-6.31.34-8.32 1.62zm-85.22-27.38s-3.874 3.183-.36 6.495c3.208 3.025 8.164 2.757 10.537 2.672 0 0-1.424-.81-2.677-2.686s-1.296-3.14-3.93-4.34c-2.73-1.24-3.06-1.57-3.57-2.13zm-4.06-16.54s-5.81 12.236 17.032 15.263c0 0 .057-1.364.968-3.283s2.905-5.798 1.025-8.314 1.538-1.194 2.05-4.477-.34-2.82 1.254-4.95-7.18 2.6-9.92 5.75 3.7 5.54-.12 8.99c0 0-3.19-1.15-5.07-4.61-.01-.01-4.45.08-7.24-4.4z" fill="#5A3719"/>
<path d="M791.65 367.89s4.785-.767 16.975 3.795 17.26 3.41 19.083 3.283c0 0-6.876 3.592-17.526-1.097-9.41-4.14-10.03-2.56-18.52-5.97z" fill="#312E2A"/>
<path d="M867.96 365.16s2.783-.095 4.405.668c0 0 1.063-.91 3.608-1.18.01 0-1.67-1.68-8.01.51zm-8.33-6.75s2.79-.128 3.627-1.464c0 0-1.405-1.79-3.55-2.643-.01-.01.43 1.89-.08 4.1zm-93.67-31.15s-.513-1.364 2.392-1.79c2.905-.427 40.88-5.842 40.88-5.842s2.014-.003 2.3 1.322c.307 1.432-.23 2.503-9.4 3.575s-33.38 4.1-33.38 4.1-2.56.43-2.79-1.36z" fill="#FFC221"/>
<path d="M803 325.62s0 5.372 5.47 6.168c5.305.772 7.13-.33 8.544-3.125.37-.734 2-6.343-.357-6.77-.926-.17-2.57-.073-3.744.43-1.83.78-3.528 1.697-2.924 2.614 1.29 1.96 1.54 2.416 1.06 2.558-1.31.39-2.28-.764-2.55-1.563-.34-.996.72-1.637-2.85-1.11-1.47.21-2.67.17-2.67.79z" fill="#FFC221"/>
<path d="M825.75 321.49c2.794.322 2.582 6.233-.76 8.905-3.6 2.877-7.033 1.848-7.033 1.848-1.816-.767-1.588-.512-.183-2.643 1.33-2.018 1.957-4.734 1.215-6.623-.24-.604.41-1.094 1.34-1.293 0-.02 2.53-.54 5.41-.21z" fill="#FFC221"/>
<path d="M828.18 322.01s1.994 2.51-.495 7.134c0 0-1.1 1.364 1.368 1.165s7.975-2.85 7.405-6.23-.19-.83-1.633-.74-.266-.8.342-.97 2.487-.87-2.392-4.01-.805-.73-1.747-.43c-.744.23-3.343 1.3-3.343 2.81 0 .64.49 1.27.49 1.27z" fill="#FFC221"/>
<path d="M833.52 317.76s3.893 2.79 3.874 3.62-.36 1.95.665 1.852c1.02-.1 5.24-.995 4.08-3.78-1.16-2.786-2.32-3.766-4.27-4.448-1.96-.682-2.45.242-4.12 1.506 0 0-1.22.74-.23 1.25zm-21.06 3.94s.646-2.075-2.848-2.842c0 0 1.48-1.222 4.443-.568 2.942.65 2.628 2.587 2.605 2.842 0 0-2.3-.09-4.2.57zm7.6-.48s4.048-.71 5.848-.483c0 0-1.994-4.462-7.386-2.942 0-.01 1.93 2.18 1.54 3.42zm6.93-1.11s0-1.364 3.437-2.73c0 0-1.668-1.57-3.987-1.42-2.658.17-3.19 1.137-3.19 1.137s2.88 1 3.74 3.01zm1.34-4.67s2.127.54 3.456 1.677c0 0 2.016-2.2 3.722-2.672 0 0-3.34-1.79-7.18.99z" fill="#FFC221"/>
<path d="M716.51 304.7s9.383-7.95 14.64-6.992c5.256.957 2.62.298 8.374-.597 5.753-.89 11.678-1.49 14.07-1.19 0 0-6.95-4.99-19.368-4.9 0 0-8.772 3.03-14.81 7.04 0 0-11.622-6.48-23.64-2.6.01-.01 13.05 4.72 20.74 9.24z" fill="#5A3719"/>
<path d="M816.29 318.47l1.566-.263s2.644 3.274.723 3.31c-1.51.03-.9-.46-1.18-1.413-.29-.96-.8-1.38-1.11-1.64zm-11.79.26s-.94 1.17.826.895c2.15-.333 1.737.072 4.1-1.528 0 0 1.454-1.542 4.16-.582 0 0 2.278.746 4.13-.15s2.278-.83 3.274-.745c.997.085.93.3 2.26-.67 1.33-.972 3.636-.226 5.09-1.44s3.274-.193 0-2.538c0 0-.685-.682-.628-1.258 0 0 1.253.362 2.25 1.258.997.895 2.65.618 2.934.47 0 0 .17-2.922 3.076-5.608s2.934-2.9 1.225-2.92c-1.71-.022-4.586-.683-5.554 0s-9.485 6.266-14.44 7.204c-4.97.96-9.53 2.36-12.71 7.63zm-132.25-30.56s15.21 3.922 18.627 5.57c0 0 .816-2.543-6.095-4.533 0 0 16.785-.512 34.558 7.56 0 0 8.567-7.345 36.137-5.07 0 0 .054-2.436.244-4.31 0 0-19.36-.567-37.14-11.368 0 0-15.91 7.83-46.33 12.15zm84.54 7.35c-1.063-15.548 4.9-16.94 4.9-16.94s2.807.016 5.847.483-4.71 5.6-3.456 16.713c0 0 .5 1.79-3.49 1.79-3.93.01-3.8-2.04-3.8-2.04z" fill="#FFC221"/>
<path d="M760.85 305.81s-2.886-2.956-3.19-6.367c0 0-.076-.88 2.848-.796s3.306-.28 4.025 1.42c.7 1.656 2.544 5.146 3 5.544l-6.69.21z" fill="#5A3719"/>
<path d="M767.1 298.05a36.973 36.973 0 0 1-.32-5.91c.19-8.67 1.628-7.9 2.198-6.818l2.966.054s-2.165-9.778-4.71-4.065c-2.5 5.62-2.316 9.27-2.012 13.7.175 2.56.512 4.15.797 5.1l1.07-2.05z" fill="#FFC221"/>
<path d="M800.59 298.07s5.725.874-3.048 2.963c0 0 .427 10.6 10.795 3.176 0 0 6.124-3.92 10.367-5.51 0 0 2.136-.74 1.88-2.34 0 0 .17-1.89-2.05-1.52 0 0-1.75.04-2.878-.37 0 0-1.225-1.45-2.05-.89s-2.764.23-1.254 2.07c1.51 1.83 1.965 1.36 2.706.83s4.016-1.84.997.87-5.383-1.49-6.352-2.26l-9.13 2.97zm-28.65 1.2l-2.544-.057s-1.367 2.047-2.3-1.167l-1.08 2.06c0 .01 3.15 11.39 5.92-.83z" fill="#5A3719"/>
<path d="M768.33 286.14s-1.29 7.447.342 12.052l27.533.512s-.342-5.344.076-12.563h-3.91s-.53 6-.03 9.7l-.64.02s-.49-5.18.04-9.7h-3.23s-.53 5.55-.11 9.75h-.61s-.45-4.86.08-9.75h-3.19s-.58 5.02.04 9.68l-.76-.01s-.64-5.09.04-9.66h-3.53s-.87 4.69-.04 9.72h-.72s-.79-4.8.08-9.72h-3.53s-.83 5.32-.11 9.72h-.68s-.57-5.14.19-9.72h-3.3s-.87 4.49-.15 9.72h-.72s-.53-3.89.15-9.72h-3.29zm29.09 13.59s-.762-13.474 1.823-16.94 3.114-2.786 7.52 0c4.404 2.785 10.1 5.798 11.012 6.14s2.203.68 2.203 3.126.456 3.183-3.342.114c-.57-.46-2.345-2.085-3.627-2.494-3.41-1.086.81.762 2.03 2.494 1.03 1.468 1.82 1.307-.84 1.99s-11.84 3.75-16.78 5.57z" fill="#FFC221"/>
<path d="M807.06 290.08s-1.994-2.52.54-3.095 2.735 3.986 3.162 6.736c.43 2.75-3.19-2.78-3.7-3.64zm-3.7 11.74s-2.962 1.087-1.025 2.046 7.405-3.58 5.526-3.283c-1.89.29-4.51 1.23-4.51 1.23zm4.01-4.15s2.62-.256 2.108.874c-.513 1.13-1.453.412-1.85.163-.4-.24-2.25-.88-.26-1.03z" fill="#312E2A"/>
<path d="M821.33 294.14s.703 5.13 5.108 6.43c0 0 2.544.633 2.013-1.612 0 0-.43-1.876-.79-2.658-.36-.782-2.12-1.28-2.31-1.364s-.42-.625.8-.227c1.22.39 1.41.44 1.31-.42s-.81-.51-1.92-1.06c-.43-.21.05-.5.5-.4.46.1 1.54.42 1.56-1.34 0 0 .24-.98-1.1-1.05-1.46-.08-1.35-.73-.89-.83s1.99.96 2.41-.79c.44-1.79-2.1-.76-1.76-1.69s2.15.53 2.3-.57c.15-1.07 1.61-1.53-.88-1.88-1.17-.16-.08-.68 1.24-.5 1.42.2 2.27-1.55 3.09-2.12.82-.57 5.43-3.33-.72-2.42-6.15.91-7.96 3.89-8.35 4.49-.39.6-2.1 4.12-1.55 9.96z" fill="#FFC221"/>
<path d="M835.66 298.12c.79-.152 1.538.063 1.807.614 1.013 2.078-1.31 1.336-2.6 2.87s-1.33 1.223-3.153.686-2.506-3.3-2.506-3.3c-.204-.848.584-.92 1.528-.812 0 .01 3.02.31 4.92-.05zm-6.66-1.11s.128.622 1.172.707 4.078.348 5.882-.234c0 0 .665-.13.366-1.306 0 0-.024-.762-1.648-.453s-3.973 0-4.756-.17c-.78-.18-1.41.01-1.01 1.45zm-.25-3.72s-.057 1.62 1.576 1.833 3.666.205 4.513.038c.64-.12 1.81-.36 1.9-1.31.09-.95.36-1.66-1.65-1.16-2.02.5-4.45.17-4.69.12-.24-.05-1.61-.47-1.65.5zm.74-3.27s-.4.74-.342 1.45 1.234.952 3.36.98 4.026-.283 4.16-.994c.132-.71.645-1.535-1.026-1.28s-3.78.328-4.614-.013c-.83-.35-1.4-.47-1.54-.15z" fill="#FFC221"/>
<path d="M907.57 298.26s-.028 1.482 1.14 2.942l-59.03-1.695s.862-.533 1.082-2.832l56.81 1.59z" fill="#5A3719"/>
<path d="M829.97 287.58s-.513 1.492.55 1.79c1.064.3 2.887.626 5.3.243 0 0 1.214.085 1.632-1.208s.375-.568-3.06-1.25-1.08-.316 2.054-.328c0 0 1.747.057 2.013-.242.26-.298 2.58-2.132-.42-2.018s-1.52-.526 0-.526 1.99.32 2.48-.17c.49-.48.04-.15-.78-.98-.82-.82-.25-.58.34-.13s.95.6 1.61.02-.52-1.43 0-1.33.76 1.08 2.69.14 4.56-.45 5.27.09c.71.53 2.73 1.22 3.96-.04s-1.46-2.28-.32-2.45 1.93.24 2.39-.68c.45-.91-1.77-1.79.37-2.36 2.13-.57.34-6.56-.4-7.12 0 0-2.39 1.41-5.01 5.65s-4.16 6.72-7.72 5.42c-5.14-1.87-7.76.82-8.56 1.31-1.24.75 2.57 1.12.35 1.17-2.23.05-2.23.24-2.45.58-.23.34-.03.64.37.66s1.25.88-.12.84-2.34-.25-1.94 1.2c0 0 .02.32.82.4.8.09 1.08.92-.4.92-.94 0-1.03.37-1.06.47zm5.46 14.8s-1.054.746.4.83 2.22.363 2.676-.415c.456-.778 2.42-.458 1.11-1.546-1.32-1.08-2.2-.46-4.19 1.14z" fill="#FFC221"/>
<path d="M841.52 284.62s4.915-4.626 9.023-1.492 4.506 3.603 4.563 3.667c.057.064.484.405-.627 1.386s-.03.96 1.19.37 1.31-.04 1.91.62c.6.66 1.4 1.05-.5 1.07s-5.97 0-5.97 0-2.77.24-1.37-.89c1.39-1.13 1.19-2.47.48-2.56s-.06.68-.49 1.22c-.43.54-1.4 1.03-2.37 1s-1.83.71-.29 1.26c1.53.56-.17.92-.97.9s-4.65.3-.74.77c3.9.47-.35.36 2.5 1.99 3.16 1.81.88 5.65-.31 5.99 0 0-1.31.72.34.52 1.65-.19 2.56-.43 1.39.47s-3.51 3.88-6.75 1.6c0 0-1.48-.7 1.17-.83s-2.17-.7-2.96-1.23-3.85-3.65-1.94-3.26 1.23-.72.09-1.13-1.37-2.15-.09-1.77c1.28.39 2.79 1.1 3.81 1.05 1.02-.05.74-.47-1.45-1.15-2.2-.68-3.11-.79-2.6-2.64s2.9.73 2.33-.66-2.65-.7-1.54-2.54c1.11-1.83 1.36-1.04 1.88-.81s1.33.06-.12-1.02c-.94-.7.05-1.62.31-1.85z" fill="#FFC221"/>
<path d="M845.05 285.9s-.03-.618.854-.512c.883.107.655-.32.91-.448s2.467.658.4 1.407c-.76.27-1.96.07-2.16-.45z" fill="#312E2A"/>
<path d="M849.75 291.14s-1.66.846-.157 2.59c1.282 1.485 1.275 1.956 1.168 2.944-.1.988 56.81 1.585 56.81 1.585s-.1-3.66 2.34-5.72-31.11-.73-60.16-1.41z" fill="#FFC221"/>
<path d="M908.54 297.26s.23-3.084 1.937-4.106c.94-.563 2.18-.235 2.72 2.25.77 3.537-2.226 6.545-3.617 5.202-1.32-1.27-1.04-3.34-1.04-3.34z" fill="#5A3719"/>
<path d="M843.32 310.56s3.788-3.22 4.358-4.67c0 0 10.254 7.265 9.627.595 0 0 .03-1.788.313-3.493 0 0 3.707.364 4.272-2.596l-9.57-.282s-.997-.213-2.478 1.386-4.53 3.35-7.377 1.823c0 0-1.192-1.035-2.405-.16s-1.27 1.13-.273 2.067c.99.94 3.13 3.82 3.53 5.33zm22.01-20.06l-5.61-.213s-2.052-2.878-6.04-6.076c0 0-1.167-.51 1.083-2.3 2.25-1.79 2.905-3.71 2.99-4.58s-.14-2.24.713-1.19c.854 1.05 6.665 6.29 7.49 4.74s.97-2.28 1.112-2.75.342-1.92 1.168-.4c.826 1.52 1.393 1.13 1.424 5.06 0 0 .142 3.88.74 5.29.01-.01-7.34-2.36-5.06 2.44zm-24.35-11.94s4.272 2.388 6.38-.853c2.108-3.24 3.532-3.752 1.937-6.864s.044-4.562 1.247-5.84 2.228-1.067 2.4-6.013c.17-4.946 3.588-6.608 5.126-8.143s5.412-3.88-.456-4.86c-5.867-.98-17.488-4.008-20.507-8.527s-4.386-1.833-4.443-1.663c-.057.17-1.025 3.496 1.994 9.508s5.582 9.877 8.488 11.824c2.905 1.94 5.526 3.01 4.044 7.02-1.48 4-4.05 11.16-6.21 14.4z" fill="#7B3C20"/>
<path d="M856.76 265.78s.74 10.275 8.26 13.942c0 0 1.71-4.008 1.025-7.973 0 0 2.45.21 3.133 1.32 0 0 .114-2.99-3.418-4.07-3.532-1.09-1.823-7.79-.57-8.55s.854-2.11 0-3.31-1.082-3.04 1.88-2.28 2.506-.81.74-2.26-1.708-3.24.798-3.24 6.665-2.43 4.158-3.2c-2.506-.77-3.304-1.58.114-2.56s5.07-2.22 2.506-2.52c-2.563-.3-4.272-1.2-1.766-1.62s-.456-2.99-3.36-3.11-9.172 1.06-4.216-2.9-7.12-1.07-2.165-3.67c4.95-2.6-1.66-1.45-2.57-1.5s-.9 0-.57-1.32c.33-1.32-.69-1.92-2.12-1.11s-1.43.81-1.37-1.02-1.71-.47-2.79 0-3.82 2.51-4.9 1.41-1.71-2.26-5.07-.22c-3.36 2.04-2.56.21-2.51-.68s1.31-4.43-3.31-.64c-4.62 3.79-.86-4.09-4.5-1.41s-4.05 3.15-4.62 1.96-1.26-2.17-5.28.38-1.05-1.54-.48-2.43 2.28-6.7-1.26-2.18-1.71 3.15-5.53-2.48c0 0-4.05 5.59-5.07 3.12-1.03-2.48-2.05-2.74-3.36-1.12s-.35-.08-.91-1.45-.91-3.88-7.64 1.02c-6.72 4.9 2.34 1.32-2.79 3.54s-17.49 9.21-6.15 7.59c11.33-1.62-5.53 4.43-1.6 5.54s2.68 4.52 17.43.47 12.36-.64 19.88-3.88-1.71 1.11 8.37.9c10.08-.21 1.71.04 3.65 2.13s10.48 7.03 18.45 7.84 9.91-2.17 7.63 1.28-3.08 4.77-4.44 5.97-5.13 3.92-5.18 8.7c-.06 4.77-6.27 5.54-3.99 10.83-.02-.04 3.51-3.45 5.39-5.32z" fill="#5A3719"/>
<path d="M869.88 277.27s-1.823-1.28-1.785-3.553c0 0 1.29.227 1.785 1.052 0 0 4.595-5.21-.893-7.08-5.487-1.88-2.754-6.85-.893-6.88s2.185-.54.618-2.62c-1.567-2.08-1.453-2.16 1.66-2.7s2.692-1.2 1.308-1.96c-1.383-.77-2.444-2.02-2.444-2.02s8.808-3.84 5.96-5.6 0-1.31 2.543-3.13c2.54-1.82 2.88-2.16 3.26-2.87 0 0-2.52.25-4.37-.12 0 0 2.19-1.08 0-2.87-2.2-1.79-3.11-3.41-6.61-2.59s-2.36-.34-.99-1.79c1.36-1.45.72-2.28-1.75-2.65 0 0 .3-1.48 2.16-3.33 0 0-4.75.34-6.34-.49 0 0 1.9-1.31 2.05-2.87 0 0-2.62.85-5.93.54 0 0 1.94-1.68 1.94-3.16 0 0-5.74 1.28-8.39 3.3 0 0-.57-.12-1.03-.74-.46-.63-.8-1.25-7.14.77 0 0 .72-2.82 2.24-3.95s1.29-3.41-8.58 2.75-1.33-.8-2.43-3.75c0 0-2.13 3.01-3.76 4.04 0 0-1.37.57-1.2-1.35s-.97-.56-2 0c-1.03.55-1.71 1.91-1.2-1.97S826.3 215 826.3 215s-3.08 4.35-4.846 4.816-3.247-3.155-4.386-5.244-1.14-2.85-2.28.77c-1.137 3.63-2.56 3.92-2.56 3.92s-1.94-1.66-2.166-2.55-.34.98-.97 1.405c0 0-1.71-2.006-1.653-4.905 0 0-10.59 5.84-11.9 9.38 0 0-10.03-.59-14.19.17 0 0 1.02-3.24 3.64-4.86 0 0-2.62-.29-2.73-2.98 0 0 2.1.3 3.41-.04s-1.82-4.13 1.48-4.22c3.31-.08 5.41 1.58 3.93-2.81-1.48-4.39-.79-4.39-.79-4.39s5.75 3.41 6.66 2.558-.74-2.687 4.39-1.834 3.7-2.09 5.7-2.218c1.99-.13 3.07 1.28 1.82-8.016s6.21 4.61 1.14-9.42-1.28-4.24-4.33-6.05c0 0-.68 3.07-4.13.36s-10.22-3.664-7.37-5.795c2.85-2.13 4.19-4.986 3.36-6.78 0 0-3.36 3.514-9.2 1.005-4.61-1.98-5.58 1.663-10.31.6 0 0 .09-1.216 4.07-4.35s-2.31 1.045-4.79 1.6-3.19.11 2.05-3.945c5.24-4.05 15.61-11.21 14.18-17.092 0 0 2.45 3.11 8.89.85s11.22-3.07 13.16-6.393c1.93-3.33 7-6.697 8.31-7.42s3.08-1.238 1.08 1.92c-1.99 3.152-5.24 8.57-14.12 12.233-8.89 3.665-12.3 6.35-13.9 8.27-1.59 1.92-9.68 6.224-4.44 5.5s14.35.13 10.08-1.11c-4.27-1.237-9.11.77-5.18-2.815s4.61-4.774 10.31-7.162 12.02-7.84 11.39-2.04c-.63 5.8-11.23 11.98-13.85 13.853-2.62 1.88-1.65 1.58-1.6 2.35s-.4 2.34-1.48 3.07-.74 1.53-.45 3.15-.29 2.26.51 2.51 1.6.39 1.83 1.54.82 1.3 2.36 1.17c1.54-.13 2.51.02 2.62.92.12.89 1.57 2.11 1.74-.62.17-2.73 1.17-3.26-1.62-2s-3.39.81-3.33-.49-.26-1-1.43-1.11-1.57-1.74.51-2.83 2.05.02 4.64-2.13 2.59-2.75 2.99-3.75c.4-1-3.7 2.92-5.67 3.82s-1.46-.62-1.11-2.85 5.24-5.16 7.49-5.2c2.25-.05 7.32 1.28 5.12 4.35s-8.4 6.71-5.73 6.99 3.1-.77 4.64.59.11 4.14-.6 5.61c-.72 1.47-2.2 3.32-2.85 3.67 0 0-2.82-5.03-2.74-1.05s-.6 5.42 0 5.57c.6.15 3.73 2.24 4.73 2.28s-5.41 3.01-2.73 3.2c2.68.19 6.92-1.17 8.4-3.94 0 0-5.44-1.32-7.64-3.36 0 0 6.35-1.49 4.58-7.61 0 0 6.33 1.73 3.59 4.58s-4.38 2.43-2.02 3.24 3.53 1.49 3.53 1.49 1.62.81.68 2.13-.96 3.33-.16 3.29c.8-.04 3.47-1.28 1.22-2.64s2.56-1.13.51-2.28-2.59-1.43-3.13-1.98 25.75-15.97 12.47-10.19c0 0 2.76-5.99 6.64-6.01s4.16 3.05 1.96 5.38-3.61 5.95-8.77 6.8 7.37 3.61-1.34 9.51c0 0-1.89.89-1.2 1.55.69.65 5.85-2.28 6.57-3.93.72-1.65 1.82-2.92 3.8-3.89s11.7-7.59 14.62-12.59 3.72-5.17 9.42-9.75 4.71-3.66 5.43-4.77 1.03-2.93 3.65-4.4 12.8-7.13 15.99-9.43c3.19-2.3 9.72-6.54 12.53-10.12 2.81-3.58 10.38-8.15 12.26-7.3 1.89.85-.19 3.53-4.63 6.91s-15.46 12.28-17.24 13.65-11.13 8.19-14.63 8.64-3.11 1.68-5.2 3.95-6.91 7.05-8.54 8.36c-1.64 1.31-5.51 3.98-5.74 5.86-.23 1.88.68 2.1-2.43 5.03s-12.23 9.55-15.53 10.6c0 0 5.85 1.93 2.35 5.89s-3.26 3.38-3.53 3.64c0 0 8.88-1.3 2.58 5.6 0 0-1.21 1.99 1.6-.08 3-2.22 1.71-5.26 1.37-5.68 0 0 4.71-2.93 10.14-3.02s5.24-.46.38-1.85c0 0 3.46-4.21 6.38-2.13s1.97 3.27-1.1 4.92-7.63 2.33-11.01 4.21c0 0 6.42 1.25 9.87-1.36s3.61-1.3 4.06-.85c.45.46.83 1.31-.69 3.5s-1.67 2.3-1.6 2.79c.08.49-.11 1.99-3.23 2.5-3.11.52-4.52 1.82-3.45 3.3s1.1 5.15-1.56 4.81c-2.66-.34-1.94-2.44-2.97-3.26-1.02-.82-2.46-2.1-7.1.31-4.63 2.42-5.01-.45-4.78-1.96 0 0-3 2.62-5.51.2-2.5-2.41-.23-3.35 1.22-4.57s7.33-3.78 3.8-3.32-8.81.69-10.03-2.04c-1.21-2.73 2.62-2.41 3.23-2.16s3.11 2.28 3.19-.37c.08-2.64 3.99-2.93 2.66-3.47s-3.19 1.14-3.72 1.79c0 0-2.74-3.81-7.14-2.55s1.4.74 2.58.94c1.18.2.49 2.39-3.46 5.94s-2.16 2.48.76 2.48c2.93 0 10.1.03 5.93 3.44s-5.85 5.11-8.01 4.52c-2.16-.6.27-2.02 1.22-2.62s1.52-1.65-.53-.88-2.77.91-4.4-1.99-.95-2.05-.27-3.95c.68-1.9 2.28-3.92.38-3.21s-1.71.77-1.56-1.42c.15-2.19-2.16-2.67-2.16-2.67s.91 2.19.07 3.58-.87 1.87.5 2.24c1.37.37 2.66 1.53.8 2.81s-1.64 1.11-.46 1.88 2.88 1.65 1.06 3.44-.31 1.25.6 1.25 2.97.77 3.01 2.53c.03 1.76-.12 2.19 2.84.54s8.88-1.45 8.81.85c-.08 2.3-.76 2.87 2.39.91s4.55 1.85 6.72 0 3.53-3.64 6.03-.48 1.72 4.11-1.33 6.34c-3.05 2.23 1.48.51 3.8-.68s8.81-1.99 12.53-.34c3.72 1.65 4.79 1.28 7.52.14s4.14-1.39 8.28 1.36c4.14 2.76 7.37 3.27 9.53 3.21 0 0-4.59 1.79-9.76 2.13s-7.75 1.31-8.77 2.11 3.1 1.88 3.72 4.18c0 0 3.38-.46 5.05.23 0 0-.87 2.44 1.22 3.75 2.09 1.3 3.53 1.79 1.97 3.58-1.56 1.79 2.39 1.02.15 3.55s-2.85 3.81-2.92 5.85c-.08 2.05.49 2.36-1.52 2.56s.34 2.44-.57 5.12c-.91 2.67-6.53 2.39-6.3 9.55 0 0 1.55-3.5 4.89-6.57s3.46-3.35 3.38-5.2-.22-1.42 1.56-2.81-.8-2.7.99-4.69c1.78-1.99.23-1.59 2.32-3.61s-1.83-2.27.3-4.35-5.13-4.43-3.04-5.77c2.09-1.33 5.69-3.18-6.46-2.98 0 0 2.92-4.83 13.17-3.78 0 0-2.7 1.91-2.92 3.78 0 0 1.17.6 1.9.77 0 0-.4 1.37-2.36 3.04 0 0 5.43 3.04 6.3 4.83 0 0-3.3 1.03-4.14 2.48 0 0 1.45 1.65 1.94 3.78 0 0-3.68-.45-4.18 2.3-.49 2.76-1.59.88-1.59 2.5s.12 2.28-1.17 2.53-.23 1.62 0 2.53.644 2.99.454 3.64c0 0-1.86.03-2.74.28 0 0 .57 3.95-1.63 4.52s1.17 1.37-1.18 1.79c-2.36.43-2.05.57-4.94 5.74 0 0 2.47-1.39 5.01-3.07 2.55-1.67-.19-1.16 4.03-5.31s3.45-4.46 3.11-6.57-.42-3.81 1.1-5.8c1.52-1.99 2.02-4.26 7.41-3.98 0 0-1.6-3.58-3.57-4.52 0 0 2.58-1.79 5.31-2.04 0 0-2.39-2.87-7.29-5.65 0 0 4.03-3.47 4.98-5.11 0 0-1.86.28-3.34-.06 0 0 .7-1.66 4.33-4.04 0 0 1.932 1.88 1.86 3.84 0 0 6.23-3.58 9.76-3.19 0 0 1.78 4.49-6.878 12.9 0 0 5.35.51 7.63.2 0 0-1.29 4.15-7.78 6.59s1.4 5.3-5.24 4.81c-6.65-.49-4.6 1.79-4.41 5.18s.42 6.85.27 7.78-5.32-1.73-5.2 3.41-2.74 6.23-3.31 6.71c0 0-1.54-1.38-3.87-2.19-.1-.04-3.4 6.22-8.72 9.88z" fill="#5A3719"/>
<path d="M862.28 212.78s1.823-.298 4.9 1.62 6.094-2.046 2.676-3.07.057-2.217 3.133.256c3.07 2.473 4.27 1.236 5.41.384s2.5-1.322.4-2.77c-2.11-1.45 1.42-.768 3.02.255s.96 2.09.74 2.388-.4 3.624 2.73.512 4.67-6.225 4.61-7.76c0 0 1.71 1.066 1.93 3.027s2.62-1.066 3.42-2.132 2.16-3.756 1.99-5.78c0 0 2.11 3.26 5.24 0s1.76-1.212 5.52-2.193 8.49-3.752 11.05-6.864 2.73-1.023 6.04-1.79c3.3-.768 9.97-5.373 10.59-7.89.62-2.514.51-4.05-.46-3.197s-.57.17-1.99-.725c-1.43-.89-3.53 1.16-3.53 1.16s2.11 1.62.51 2.3c-1.6.68-3.14 2.94-6.16 2.09s-6.15 2.77-6.15 2.77 2.62 2.18-.91 3.54c-3.54 1.37-2.97 1.83-5.13.34 0 0-3.76 4.78-5.92 5.76 0 0-1.03-.08-1.71-.98 0 0-2.45 2.77-3.7 3.33 0 0-1.54-1.49-2.96-1.96 0 0-2.97 3.67-5.47 4.82 0 0-.74-1.36-2.34-2.3 0 0-.79 4.8-6.04 7.63 0 0 .34-1.28-2.28-3.02 0 0-6.49 5.63-9.06 6.18s-.17-1.19.17-1.92 1.94-3.11-1.2-4.09-2.62.68-3.31.98c-.68.3-.74-.55-2.85-.25-2.11.3-1.77 1.24-2.68 1.58-.91.34-4.56-.6-4.39 1.83s1.88 4.09-1.31 5.5c-3.17 1.4 1.22 1.1 5.43.46z" fill="#7B3C20"/>
<path d="M875.44 205.92s.74-3.07-1.937-4.562c0 0 17.203-2.643 4.215-9.21 0 0 15.437-3.197 11.792-8.142-3.646-4.946-7.19-3.837-7.725-3.752s3.282-2.857 4.307-2.473 13.444 5.16 10.254 1.07-2.905-3.83-3.418-5.03c0 0 4.1 0 10.31 6.06 0 0 1.31-1.36 1.14-3.83 0 0 4.443 1.24 5.81 2.56 0 0 .74-1.53.456-2.38 0 0 3.817 2.05 5.127 4.22 0 0 1.77-1.53 2.06-3.28 0 0 3.82 1.58 4.79 2.78 0 0 1.26-1.66.8-4.05 0 0 6.33 1.88 7.18-2.05 0 0 6.36 1.38 2.23 3.86-5.31 3.19-.53-.78-5.98 3.01-4.22 2.94-6.59 6.4-8.62 5.69-1.49-.52-3.28 3.82-5.34 1.69s-2.05-1.15-3.47 1.07-3.65 4.48-3.65 4.48-1.11-.64-1.95-1.49-1.24 2.04-2.83 3.58c0 0-1.25-1.66-3.24-2.69 0 0-3.13 3.63-5.07 4.86 0 0-1.82-1.79-3.76-2.39 0 0-.28 4.9-4.1 7.42 0 0-.79-1.62-3.24-2.6.03-.02-1.91 3.08-6.07 5.61z" fill="#5A3719"/>
<path d="M866.39 198.41s-2.09 1.606-.74 3.326c1.348 1.72 1.423-.298 3.132-.47s22.786-3.794 3.703-9.507c0 0 .797-.73 4.1-1.03s15.267-3.54 9.685-7.8c-5.582-4.27-10.225 1.45-5.526-3.67 3.76-4.1.74-6.1.74-6.1s-11.107 7.42-13.556 8.78-5.98 3.96-1.823 5.33 7.007-4.52 7.405-3.2c.4 1.32-8.374 6.18-7.12 8.44 1.253 2.26.968 4.13 3.133 3.71 2.165-.43 8.032 1.11 3.247.94s-6.37 1.24-6.37 1.24z" fill="#5A3719"/>
<path d="M874.02 187.8s-1.937 1.36.627.68c2.563-.683 7.69-1.792 6.722-3.113-.97-1.33-4.39.26-7.35 2.43z" fill="#312E2A"/>
<path d="M907.86 165.8s9.798-.256 13.842 2.473 5.98 4.52 7.177 4.903c0 0-.18 3.71-6.44 1.066 0 0 .34 1.79-.34 3.54 0 0-2.34-1.536-5.02-2.218 0 0-.46 1.407-1.31 2.217 0 0-2.79-2.81-5.93-3.66 0 0-.63 1.41-1.2 1.92 0 0-3.36-1.92-5.93-1.87 0 0 .51 2.05 0 2.86 0 0-7.12-5.58-13.44-4.86 0 0 3.07 4.48 5.07 6.7 0 0-12.82-1.02-10.71-7.93s-.17-5.17 8.2-5.12 16 .01 16 .01z" fill="#7B3C20"/>
<path d="M847.76 184.88s-1.48 1.207 0 2.23c1.48 1.024 6.55-2.642 7.234-3.154.684-.512 2.506-.426 0 1.45s-5.07 3.922-6.665 5.97c0 0 8.48-2.303 14.01-7.078s-.26-1.682 9.17-6.225c9.43-4.543 14.35-11.853 9.28-11.085-5.07.767-9.63 6.566-13.56 8.783s-6.15 2.52-5.53 1.24c.62-1.28 3.53-.76 8.94-5.11 5.41-4.35 4.21-4.05 4.27-5.58s-2.05-5.33 6.09-9.59 33.49-19.1 35.66-24.17c0 0-7.41.81-17.15 8.02s-14.96 10.58-17.65 11.47-2.35.3-4.12 2.39-11.39 11.39-13.16 12.75-2.28 2.26-2.43 5.04c-.04 1.24-11.04 9.53-14.4 12.65z" fill="#5A3719"/>
<path d="M881.25 165.56s-1.88.873-3.703 0-1.253-4.796 3.133-7.14 12.36-5.842 16.406-6.354c0 0-.57 5.074-13.16 9.337 0-.01.8 2.63-2.68 4.15z" fill="#5A3719"/>
<path d="M885.7 162.26s.366 1.248 0 2.388c0 0 23.412 2.26 35.49-11.98 0 0-16.578 1.534-23.185 5.5 0 0 4.158-5.203 16.577-9.51 12.418-4.305 17.488-9.635 18.57-12.576 0 0-15.705 5.5-23.184 5.5 0 0-1.48-.043-2.905.767s-11.45 8.1-14.127 9.33c0 0 5.64-.47 7.633-2.3-.02-.01-3.93 10.53-14.88 12.87z" fill="#AA5323"/>
<path d="M840.87 175.64s-3.02 2.132-1.766 3.198 3.41 1.28 8-2.558c4.59-3.837 15.697-13.388 8.678-13.77 0 0-8.988-.555-8.678 4.945.31 5.55-5.78 7.84-6.23 8.18zm-20.74-3.24s5.924 3.453 3.703 6.31c0 0 18.172-15.434 13.045-18.76s-9.17 2.942-7.918 3.58c1.253.64 3.93-.553 2.962.64s-10.65 7.72-11.79 8.23zm-4.73-4.98s3.987 1.194 4.158 2.9 12.02-8.358 8.886-12.578c-1.437-1.935-8.032-2.73-8.317 1.066s5.924-.384 3.76 2.345c-2.84 3.57-7.63 5.66-8.49 6.26zm42.64-8.41s-2.54 1.842-.26 2.95 3.76-.64 4.9-1.662c1.138-1.023 6.778-5.16 8.088-7.802s3.247-3.453 5.298-4.818c2.05-1.364 16.52-8.57 25.406-16.543s5.184-5.926 14.412-11.043c9.228-5.116 15.266-9.806 17.203-15.35 0 0-4.272 1.408-8.032 3.838s-12.247 7.76-13.956 8.484-4.11.853-5.36 2.174c-1.26 1.322-1.14 2.9-5.59 6.566-4.45 3.667-27.4 19.868-30.19 22.17-2.79 2.3-11.93 11.03-11.93 11.03z" fill="#5A3719"/>
<path d="M839.58 164.37s2.506-1.382 7.215-1.06c4.71.32 23.317-17.7 28.71-21.337s22.254-15.804 24.533-18.02 2.658-4.606 4.633-5.913 3.8-1.137 8.36-3.752 26.43-15.69 25.14-23.307c0 0-32.58 19.56-40.1 25.93-7.52 6.37-28.4 20.81-32.13 23.14s-6.68 6.37-12.91 11.43-12.38 9.32-13.44 12.9z" fill="#AA5323"/>
<path d="M832.74 157.44s6.03-.617 6.836 2.33c0 0 12.912-8.867 15.874-12.505s-.987-1.535 6.38-6.367 31.824-21.943 35.318-25.013 10.102-7.106 15.418-10.687c5.317-3.58 26.128-13.757 23.773-22.114 0 0-15.27 10.232-18.69 12.45-3.42 2.217-4.86.966-8.36 3.695s-11.17 8.18-12.54 9.89-13.07 10.68-18.76 14.49-18.46 11.2-24.61 16.54c-6.15 5.35-18.08 15.24-20.66 17.29z" fill="#AA5323"/>
<path d="M813.95 155.69s3.05.044 3.962 1.238c0 0 5.64-4.947 11.64-.058 0 0 22.026-14.894 24.23-18.646s5.77-3.81 14.354-10.062 13.975-8.868 19.672-13.302c5.696-4.434 10.48-9.437 14.583-12.108 4.11-2.672 14.44-9.437 12.69-15.292 0 0-8.35 4.775-13.82 10.744s-5.01.853-10.55 5.855c-5.54 5-14.12 11.82-21.26 15.34s-2.81 3.12-7.97 6.42-4.78 2.78-6.68 3.24c-1.9.45-4.78 1.82-6.68 4.03s-6.99 5.23-12.53 8.35c-5.55 3.12-19.18 11.24-21.6 14.22z" fill="#AA5323"/>
<path d="M820.59 144.26s-1.196-2.473.91-4.22c2.11-1.75 5.925-6.354 6.552-9.253s.17-2.43 6.266-4.946c6.095-2.51 19.937-8.99 27.742-13.81 7.804-4.82 19.653-12.57 22.102-14.45s8.393-6.05 10.804-8.01 1.158 3.29-1.462 5.55-12.703 9.34-14.355 10.45-10.94 7.34-13.79 8.91-9.91 5.16-12.42 7.25-2.19 2.73-13.37 8.19c-11.19 5.46-11.7 6.01-11.36 6.44s5.35-1.74 7.74-3.15c2.39-1.41 11.56-5.58 14.29-7.76 2.73-2.17 7.35-5.58 9.34-6.69s18.51-11 23.24-14.5 6.04-4.65 7.06-4.05c1.02.6 2.68.64.57 2.64-2.11 2.01-8.83 7.89-11.39 9.6-2.57 1.71-10.6 6.48-12.82 7.64s-3.08 3.28-4.33 4.18-4.9 3.5-9.34 4.52-5.24 4.35-8.15 6.23-23.58 13.01-24.21 13.56c.01.01 1.26-1.27.35-4.26z" fill="#AA5323"/>
<path d="M892.13 97.834s-1.14 1.01-.513 1.578c.827.75 3.703 2.77 7.29-.79 3.59-3.56 13.23-11.32 16.357-13.152s4.607-3.58 4.493-6.097-14.81 7.888-27.63 18.46zm20.4-1.364s2.28-3.795 7.86-7.376 13.964-8.795 15.096-10.062c0 0 1.994 2.26-2.392 5.03s-12.93 8.443-13.956 9.253c-1.02.81-2.73 2.046-6.6 3.155z" fill="#AA5323"/>
<path d="M799 137.78s-6.21 3.326-3.987 5.415 5.526 1.45 6.893.853 3.987-1.236 4.386-1.364c.4-.128 5.81-1.663 7.177-4.178s5.01-5.415 7.91-7.504c2.9-2.09 3.93-4.178 3.53-5.67 0-.01-24.46 11.54-25.92 12.44zm-36.92 28.7s4.29-2.55 10.31-.938c0 0-.284-1.467-1.195-2.226 0 0 7.29-1.91 8.886-5.15s1.94-2.558 3.37-3.496 11.28-8.868 10.14-10.574-1.36-3.922-2.22-4.818-2.05 2.814-11.62 7.46-20.22 8.144-27.97 18.59-6.95 16.5 2.51 19.143 6.67-4.17 22.9-2.72c16.24 1.45 21.76 7.55 22.79 8.66 1.03 1.11 4.33 5.12 1.14 11.9 0 0 3.25 1.41 3.53-1.7s.46-2.39 1.2-1.92c.74.47 1.65.56 1.31-1.83-.34-2.39-1.48-7.71-2.96-9.55s.17-1.02 1.14-.64c.97.39 4.39 3.16 2.34-1.96s-2.56-2.6-2.62-2.34-.46 1.54-4.9-1.79-8.49-4.95-11.51-5.8-.91-.85.86-1.49 4.16-1.02 4.96-2.98c0 0-1.76.43-5.01-.72s-9.74-1.28-14.98 2.64 1.66-6.05-3.13-5.71-8.14.22-13.21 4.22-.28-6.09 4.5-9.25 4.16-1.23 6.84-2.04 2.91-3.49 1.77-4.35 6.27 1.07 16.81-7.67c0 0-5.66 7.42-12.54 8.91 0 0-1.09 3.95-7.33 4.82-6.26.85-6.11 4.46-6.06 5.36z" fill="#7B3C20"/>
<path d="M744.1 202.61s3.074-18.372 20.28-19.702c15.075-1.165 19.86.71 22.86 1.677s10.33 3.127 7.482 5.486-4.48 1.94-4.48 1.94 3.303-3.66.303-4.29-3.266 1.2-3.684 2.73-.6 3.38-2.08 4.58-1.52-1.76-3.68-.22-.3 1.6.57 1.34c.88-.26 2.02-.71 1.79.63s-1.44 3.64-5.01 5.52-3.38 1.76-7.63 2.45-8.2 2.36-13.63 7.02-11.37 3.11-12.57-2.1c-1.03-4.47-.5-7.02-.5-7.02z" fill="#5A3719"/>
<path d="M763.79 202.04s1.652-3.624-1.31-5.287c0 0-9.058 1.553-11.735-1.194 0 0 9.855-.52 15.95-2.9 6.095-2.39 4.272-4.05 2.165-4.44-2.108-.39-5.98.55-6.38 2.47 0 0-1.196-2.05.342-3.41s3.93-1.62 6.095-.98c2.165.64 4.1 1.57 11.222-2.14 0 0 4.1.94 4.21 3.71s-.29 3.92-.63 4.35c-.34.42-.86 1.23-1.71 1.15-.86-.09-1.94-.3-3.02 1.62-1.09 1.92-1.74 3.58-3.55 4.86 0 0 2.12-5.97-3.12-7.38 0 0-4.33 2.56-7.64 2.68-.01-.01 4.21 3.91-.92 6.86z" fill="#312E2A"/>
<path d="M773.25 191.08s-1.994-2.196.627-2.43c2.62-.234 6.095 1.684 5.412 3.304-.69 1.62-3.76 1.56-6.04-.87z" fill="#5A3719"/>
<path d="M921.3 161.96s-4.785 1.364-.342 4.306 6.608 5.5 9.855 6.353 6.608 2.04 6.55 5.28c-.056 3.24-.683 4.52-2.448 6.73-1.766 2.21.968 3.2 3.304 1.92s4.32-1.96 5.86-2.86 4.1-.77 1.76.42-4.79 1.92-1.77 2 21.19.42 25-.81 8.77-1.62 9.23-6.57.17-2.2 1.59-3.11c1.42-.92 2.39-3.03.31-1.6-2.08 1.43-3.68 2.15-4.08 1.72s-.52-.73.99-1.43 2.37-.05 3.76-2.11c1.4-2.07 1.26-1.73.52-2.52-.75-.79-2.31-1.37-1.54-2.37s1.54-3.99-1.8-2.24-9.89 6.25-12.93 6.96-5.36 1.63-9.46 2.46-6.65 1.71-11.01 4.13-4.06-1.34-3.31-1.85c0 0 1.67 2.92 6.11-.89s3-.24 13.86-3.81 8.2-4.15 12.46-6.37 8.28-2.3 5.31-5.26-3.31-3.22-7.14 0c-3.84 3.21-14.43 8.38-20.77 8.52 0 0 24.49-10.57 21.98-12.11-2.51-1.53-5.2-2.9-6.91-3.27s-2.17-.8-6.11.96c-3.95 1.76-4.6 2.19-5.74 2.3s-4.45.77-9.12 3.18c-4.67 2.41-7.18 3.38-10.3 5.29 0 0 2.17-4.37 11.81-7.27s14.58-5.57 13.52-6.06c-1.06-.48-3.46-.88-5.28-.6s-1.29-.14-7.18 2.19-3.38 1.82-8.13 2.84c-4.75 1.02-6.69 2.07-9.04 3.07 0 0 .96-1.28 4.15-2.45 1.64-.6-1.8-1.22 2.76-1.41.37-.01.82.09 1.28-.03 5.89-1.69 12.34-4.01 11.35-4.18-.99-.17-6.72-.77-12.53 1.9s-3.15 1.76-5.2 2.19c-2.06.42-6.38 3.15-7.83 4.32-1.48 1.19-3.49 2.07-3.49 2.07z" fill="#fff"/>
<path d="M777.84 188.43s2.28.682 2.848 2.28 1.994-.702 1.937-1.427-1.453-3.922-3.93-2.43c-2.49 1.5-1.24 1.45-.86 1.58z" fill="#5A3719"/>
<path d="M771.48 220.03s4.863-2.287 8.943-2.004c0 0-1.595-5.756 1.253-4.775s2.05.6 2.62.56c0 0 .17-3.79-.57-5.28 0 0 2.905.68 5.867.73 0 0-2.79-5.45.285-9.21 0 0 1.69 3.58 5.487 4.48 0 0 .018-1.53 0-3.15 0 0 2.26-.25 4.026.68s3.25-9.89-1.99-12.28-1.25 2.05-6.15 3.07c-4.9 1.03-4.86 2.01-6.87 5.7s-3.78 3.73-7.88 6.37c-4.1 2.65-6.59 8.02-6.83 8.49-.01.01 2.15 2.65 1.8 6.66z" fill="#7B3C20"/>
<path d="M934.91 157.12c1.78-.312-1.798-1.22 2.763-1.406.372-.015.828.093 1.28-.036 5.897-1.69 12.343-4.008 11.356-4.178-.99-.17-6.73-.767-12.54 1.904-5.81 2.672-3.15 1.762-5.21 2.19-2.05.425-6.38 3.154-7.83 4.32s-3.46 2.045-3.46 2.045-4.79 1.36-.34 4.3c4.44 2.94 6.6 5.5 9.85 6.35s6.61 2.04 6.55 5.28c-.06 3.24-.69 4.52-2.45 6.73-1.77 2.21.96 3.2 3.3 1.92s4.33-1.96 5.86-2.86 4.1-.77 1.77.42c-2.34 1.19-4.79 1.91-1.77 2s21.19.42 25-.81 8.77-1.62 9.22-6.57.17-2.2 1.59-3.11c1.42-.92 2.39-3.03.31-1.6-2.08 1.43-3.68 2.15-4.08 1.72s-.51-.73 1-1.43 2.36-.05 3.76-2.11c1.39-2.07 1.26-1.73.51-2.52-.38-.41-.98-.76-1.37-1.14 0 0-1.1-.96-2.37-.15s-6.85 3.17-9.09 3.44-4.56 1.22-8.59 3.18-10.71 5.95-11.77 2.24c0 0-2.92 1.04-3.55 1.36-4.49 2.28-4.1-.96-3.3-1.85 0 0-2.36 2.64-2.26.24.09-2.4 1.61-1.99 4.23-2.76s6.76-2.47 5.05-3.89-3.51 1.41-5.41 2.27-5.7 1.63-6.29-1.12c-.59-2.76-.57-4.68-5.72-4.98s-4.96-3.51-3.55-4.89 2.66-3.74 7.48-4.58z" fill="#999"/>
<path d="M951.26 182.05s8.013-3.695 15.38-5.43 1.595.228.342.626-12.722 4.178-15.418 5.43c-2.69 1.26-2.13.19-.3-.62zm1.86 1.62s9-2.984 10.67-1.734c1.672 1.25.305.625-1.67.91-1.975.284-7.405 1.194-8.848 1.165-1.44-.03-.15-.35-.15-.35zm14.44-3.12s1.71-.313 1.9.313c.19.625-.76.71-1.71.597-.95-.12-1.79-.66-.19-.91z" fill="#312E2A"/>
<path d="M729.84 258.97s-.336-7.902 3.65-11.91 23.356-24.163 26.318-29.797 2.506 1.742 2.62 4.94c0 0 3.247-5.592 5.81-7.7 0 0 2.28 2.328 1.88 6.975 0 0 4.67-2.473 11.906-2.515 0 0-2.677 3.155-2.79 4.988 0 0 10.025-1.1 15.265-.25 0 0-13.79 7.72-9.92 8.4s7.92-.04 7.92-.04-4.39 4.48-11.4 5.38 8.88-.13 10.65 1.88c0 0-8.66 1.32-15.61 6.61 0 0-.65-.29-.7-2.26 0 0-.22 1.75-2.21 3.41s-6.78 5.21-8.55 7c-1.77 1.79-5.07 5.33-8.6 5.16 0 0 .79-2.73-1.83-3.58-2.62-.85-5.64-.25-7.74 2.01 0 0-9.34.13-12.31.56 0 0 2.11-3.36 4.04-3.28 1.93.09 9.74 1.15 10.42-4.17.68-5.33-5.01-3.92-2.85-7.07s1.65-3.03 1.71-3.33c0 0-1.76.98-2.79 3.79s-1.77 4.99-5.47 7.8-5.23 4.52-6.26 6.48c-.01.02-1.7.25-3.21.59z" fill="#fff"/>
<path d="M1013.4 613.22s.754-1.4 1.546-.84.34 1.015-.264 1.33c-.5.32-3 1.93-1.2-.49zm-74.67-433.3s1.177 1.592.456 2.33-1.747 1.45-1.253 2.588.532-1.876 3.152-2.19 9.038-2.216 13.064-3.836c4.02-1.62 13.4-6.196 16.55-6.083 0 0-2.32-.65-10.69 3.18s-15.44 5.65-18.14 5.99-.35-.48-3.16-1.99zm-6.23-10.1s.152.497.835.526c.684.028 1.443-.64 1.595-.74s.17-.326-.513-.724-1.044-.455-1.576-.07c-.54.38-.79.56-.35 1.01z" fill="#312E2A"/>
<path d="M738.82 254.19s.304-1.08 3.038-1.535 2.848-1.762 2.506-2.33-1.975-.57.684-3.582.95.256 1.595.995 3.65 7.16-7.82 6.45z" fill="#fff"/>
<path d="M732.26 248.61c.142 5.265 7.042 3.31 7.042 3.31-2.458 1.867-3.96 3.246-4.993 4.536.45-2.558-3.9-3.198-3.9-3.198.35-1.57.92-3.22 1.84-4.65zm25.37-28.14c1-1.307 1.756-2.406 2.18-3.21 0 0 2.505 1.74 2.62 4.94 0 0 3.246-5.593 5.81-7.7 0 0 2.278 2.327 1.88 6.974 0 0 4.67-2.473 11.904-2.515 0 0-2.677 3.15-2.79 4.98 0 0 10.025-1.11 15.265-.26 0 0-13.79 7.71-9.92 8.4 3.87.68 7.92-.05 7.92-.05s-4.39 4.47-11.4 5.37 8.88-.13 10.65 1.87c0 0-2.53.38-5.96 1.57 0 0-2.56-2.4-9.96-2.06 0 0 5.76-3.23 10.33-4.27 0 0-2.01-2.65-5.17-.23 0 0-6.27-4.32-1.1-7.99 0 0-3.65-.77-6.04.94 0 0 .11-2.96 2.77-4.29 0 0-7.03-1.14-8.78 4.03 0 0-1.33-2.13-.72-4.55 0 0-4.26 2.44-6.19 5.21-.01-.01-.65-5.27-3.34-7.23M744 253.88c-1.26.31-2.95.44-5.187.304 0 0 .19-.68 1.64-1.19 0 0 .42.87 3.55.89" fill="#999"/>
<path d="M756.79 233.97s3.19 2.515 4.33 4.05c0 0 2.904-2.047 3.986-3.71 0 0 2.28 1.493 3.076 3.71 0 0 1.595-1.11 1.937-2.643 0 0 4.02.853 5.34 2.174 0 0 .61-3.88 0-6.31 0 0 2.8.22 4.51.94 0 0-1.59-2.56 6.52-5.84 0 0-6.14 1.32-8.47 4.01 0 0-2.62.13-3.76-.68 0 0 .17 3.92.05 5.8 0 0-1.58-.64-4.67-1.36 0 0-.75 1.28-1.26 1.58 0 0-1.94-1.53-2.79-3.49 0 0-2.97 2.69-4.1 3.84-.01-.01-2.81-1.98-4.74-2.06z" fill="#312E2A"/>
<path d="M738.44 273.88s1.253.597 4.215-1.79 11.336-7.718 12.133-11.982-2.677-4.52-5.412-3.283c-2.734 1.236-1.595 3.624-1.48 4.39s.17 3.753-4.273 7.89c-4.45 4.13-5.19 4.77-5.19 4.77z" fill="#FFC221"/>
<path d="M737.48 275.24s-6.722-2.814-.684-5.84 8.716-3.838 9.4-6.354c.683-2.516.284-2.09-1.938-1.023s-10.766 4.903-12.076 1.322c0 0 3.532 1.364 7.918-.767s7.975-2.77 5.184-3.667c-2.79-.89-12.874.22-14.526.69s-1.253.39-1.538 2.05c-.285 1.67-2.165 5.16-2.848 6.18-.684 1.03-2.336 5.29.74 7.17 3.08 1.88 7.96 1.75 10.38.26z" fill="#FFC221"/>
<path d="M734.86 260.57s-1.54.213-1.255.81.687.512 1.255.554 1.423-.298 1.536-.682c.11-.38-.97-.8-1.54-.68z" fill="#312E2A"/>
<path d="M737.08 273.75s-3.19-1.535.4-3.496 7.46-3.837 7.974-4.647c-.01 0-1.72 2.43-8.38 8.15z" fill="#fff"/>
</svg>
