<svg id="australia_flag" viewBox="0 0 30240 15120" xmlns="http://www.w3.org/2000/svg" xmlns:xlink="http://www.w3.org/1999/xlink">
<defs id="defs6">
<polygon id="Star7" points="0 -9 1.7355 -3.6039 7.0365 -5.6114 3.8997 -0.89008 8.7744 2.0027 3.1273 2.494 3.905 8.1087 0 4 -3.905 8.1087 -3.1273 2.494 -8.7744 2.0027 -3.8997 -0.89008 -7.0365 -5.6114 -1.7355 -3.6039"/>
<polygon id="Star5" points="0 -9 2.3511 -3.2361 8.5595 -2.7812 3.8042 1.2361 5.2901 7.2812 0 4 -5.2901 7.2812 -3.8042 1.2361 -8.5595 -2.7812 -2.3511 -3.2361"/>
</defs>
<path d="m0 0h30240v15120h-30240v-15120z" fill="#00008b"/>
<use xlink:href="#Star7" fill="#fff" transform="matrix(252,0,0,252,7560,11340)"/>
<use xlink:href="#Star7" fill="#fff" transform="matrix(120,0,0,120,22680,12600)"/>
<use xlink:href="#Star7" fill="#fff" transform="matrix(120,0,0,120,18900,6615)"/>
<use xlink:href="#Star7" fill="#fff" transform="matrix(120,0,0,120,22680,2520)"/>
<use xlink:href="#Star7" fill="#fff" transform="matrix(120,0,0,120,26040,5607)"/>
<use xlink:href="#Star5" fill="#fff" transform="matrix(70,0,0,70,24192,8190)"/>
<path fill="#fff" d="m6300 0h2520v2520h6300v2520h-6300v2520h-2520v-2520h-6300v-2520h6300v-2520z"/>
<path id="White_Diagonal" fill="#fff" d="m0 0h1690.5l13430 6714.8v845.2h-1690l-13430-6714.8v-845.2z"/>
<use xlink:href="#White_Diagonal" fill="#fff" transform="matrix(-1,0,0,1,15120,0)"/>
<path fill="red" d="m6804 0h1512v3024h6804v1512h-6804v3024h-1512v-3024h-6804v-1512h6804v-3024z"/>
<path id="Red_Diagonals" fill="red" d="m0 0l5040 2520h-1127l-3913-1956.5v-563.5zm15120 0h-1127l-5040 2520h1127l5040-2520z"/>
<use xlink:href="#Red_Diagonals" fill="red" transform="matrix(-1,0,0,-1,15120,7560)"/>
</svg>
