<svg id="aruba_flag" xmlns="http://www.w3.org/2000/svg" viewBox="0 0 640 480">
<defs>
<clipPath id="a">
<path d="m0 0h288v216h-288z" fill-opacity=".67"/>
</clipPath>
</defs>
<g transform="scale(2.2222)" clip-path="url(#a)">
<path d="m0 0v216h324v-216h-324z" fill="#39c"/>
<path d="m0 144v12h324v-12h-324zm0 24v12h324v-12h-324z" fill="#ff0"/>
</g>
<path d="m142.65 28.067l2.952 2.952-2.953-2.953zm-2.95 5.903l2.952 2.953-2.952-2.952m5.904 0l2.95 2.953-2.95-2.952z" fill="#9cc"/>
<path d="m139.7 36.923l2.952 2.952-2.952-2.952m5.904 0l2.95 2.952-2.95-2.952z" fill="#ccf"/>
<path d="m136.74 42.827l2.952 2.952-2.952-2.953z" fill="#6cc"/>
<path d="m142.65 42.827l2.952 2.952-2.953-2.953z" fill="#c66"/>
<path d="m148.55 42.827l2.953 2.952-2.952-2.953z" fill="#6cc"/>
<path d="m136.74 45.78l2.952 2.95-2.952-2.95zm11.81 0l2.953 2.95-2.952-2.95z" fill="#ccf"/>
<path d="m139.7 48.73l2.952 2.954-2.952-2.953m5.904 0l2.95 2.954-2.95-2.953z" fill="#fcc"/>
<path d="m133.79 51.684l2.953 2.952-2.952-2.952z" fill="#6cc"/>
<path stroke="#fff" stroke-width="3.6901" d="m142.16 34.065l-20.695 78.45-78.68 21.367 78.453 20.476 20.922 78.45 20.918-78.45 78.452-20.922-78.452-20.922-20.918-78.45z" fill="#c00"/>
<path d="m151.5 51.684l2.952 2.952-2.952-2.952z" fill="#6cc"/>
<path d="m133.79 54.636l2.953 2.952-2.952-2.952m17.713 0l2.952 2.952-2.952-2.952z" fill="#9cf"/>
<path d="m136.74 57.588l2.952 2.952-2.952-2.952m11.808 0l2.953 2.952-2.952-2.952z" fill="#fcc"/>
<path d="m130.84 60.54l2.953 2.952-2.952-2.952z" fill="#69c"/>
<path d="m137.73 62.51l0.984 1.967-0.984-1.968m11.808 0l0.984 1.967-0.984-1.968z" fill="#c33"/>
<path d="m154.46 60.54l2.952 2.952-2.952-2.952z" fill="#69c"/>
<path d="m130.84 63.492l2.953 2.952-2.952-2.952m23.617 0l2.952 2.952-2.952-2.952z" fill="#9cf"/>
<path d="m133.79 66.444l2.953 2.952-2.952-2.952m17.713 0l2.952 2.952-2.952-2.952z" fill="#fcc"/>
<path d="m127.89 69.396l2.952 2.952-2.952-2.952zm29.52 0l2.952 2.952-2.953-2.952z" fill="#69c"/>
<path d="m127.89 72.348l2.952 2.952-2.952-2.952m29.52 0l2.953 2.952-2.953-2.952z" fill="#9cc"/>
<path d="m127.89 75.3l2.952 2.952-2.952-2.952m29.52 0l2.953 2.952-2.953-2.952z" fill="#cff"/>
<path d="m124.93 78.252l2.952 2.952-2.952-2.952z" fill="#69c"/>
<path d="m130.84 78.252l2.953 2.952-2.952-2.952m23.617 0l2.952 2.952-2.952-2.952z" fill="#fcc"/>
<path d="m160.36 78.252l2.95 2.952-2.95-2.952z" fill="#69c"/>
<path d="m124.93 81.204l2.952 2.953-2.952-2.952z" fill="#9cc"/>
<path d="m131.82 83.174l0.986 1.967-0.985-1.966m23.618 0l0.984 1.967-0.984-1.966z" fill="#c33"/>
<path d="m160.36 81.204l2.95 2.953-2.95-2.952z" fill="#9cc"/>
<path d="m124.93 84.157l2.952 2.952-2.952-2.953m35.425 0l2.95 2.952-2.95-2.953z" fill="#cff"/>
<path d="m127.89 87.11l2.952 2.95-2.952-2.95m29.52 0l2.953 2.95-2.953-2.95z" fill="#fcc"/>
<path d="m121.98 90.06l2.952 2.953-2.952-2.952z" fill="#9cc"/>
<path d="m128.87 92.03l0.984 1.968-0.985-1.968m29.52 0l0.985 1.968-0.985-1.968z" fill="#c33"/>
<path d="m163.31 90.06l2.954 2.953-2.953-2.952z" fill="#9cc"/>
<path d="m121.98 93.013l2.952 2.952-2.952-2.952m41.33 0l2.952 2.952-2.953-2.952z" fill="#ccf"/>
<path d="m124.93 95.965l2.952 2.952-2.952-2.952m35.425 0l2.95 2.952-2.95-2.952z" fill="#fcc"/>
<path d="m119.03 98.917l2.952 2.952-2.952-2.953z" fill="#9cc"/>
<path d="m125.92 100.89l0.984 1.968-0.983-1.968m35.425 0l0.985 1.968-0.985-1.968z" fill="#c33"/>
<path d="m166.26 98.917l2.952 2.952-2.952-2.953z" fill="#9cc"/>
<path d="m119.03 101.87l2.952 2.95-2.952-2.95m47.234 0l2.952 2.95-2.952-2.95z" fill="#ccf"/>
<path d="m121.98 104.82l2.952 2.953-2.952-2.952m41.33 0l2.952 2.953-2.953-2.952z" fill="#fcc"/>
<path d="m116.08 107.77l2.952 2.952-2.952-2.952z" fill="#9cc"/>
<path d="m121.98 107.77l2.952 2.952-2.952-2.952m41.33 0l2.952 2.952-2.953-2.952z" fill="#c33"/>
<path d="m169.22 107.77l2.952 2.952-2.952-2.952m-61.994 2.952l2.952 2.953-2.952-2.952z" fill="#9cc"/>
<path d="m110.17 110.72l2.952 2.953-2.952-2.952m64.946 0l2.952 2.952-2.952-2.952z" fill="#ccf"/>
<path d="m178.07 110.72l2.952 2.953-2.952-2.952m-79.707 2.952l2.952 2.952-2.952-2.952z" fill="#9cc"/>
<path d="m101.32 113.68l2.953 2.952-2.953-2.952z" fill="#ccf"/>
<path d="m113.13 113.68l2.952 2.952-2.952-2.952z" fill="#fcc"/>
<path d="m116.08 113.68l2.952 2.952-2.952-2.952m53.138 0l2.952 2.952-2.952-2.952z" fill="#c33"/>
<path d="m172.17 113.68l2.952 2.952-2.952-2.952z" fill="#fcc"/>
<path d="m183.98 113.68l2.952 2.952-2.952-2.952z" fill="#ccf"/>
<path d="m186.93 113.68l2.952 2.952-2.952-2.952z" fill="#9cc"/>
<path d="m86.557 116.63l2.952 2.952-2.953-2.952z" fill="#69c"/>
<path d="m89.51 116.63l2.95 2.952-2.95-2.952z" fill="#9cc"/>
<path d="m92.46 116.63l2.953 2.952-2.952-2.952z" fill="#cff"/>
<path d="m104.27 116.63l2.952 2.952-2.952-2.952z" fill="#fcc"/>
<path d="m109.19 117.61l1.97 0.984-1.97-0.984m67.9 0l1.967 0.984-1.968-0.984z" fill="#c33"/>
<path d="m181.02 116.63l2.952 2.952-2.952-2.952z" fill="#fcc"/>
<path d="m192.83 116.63l2.952 2.952-2.952-2.952z" fill="#cff"/>
<path d="m195.78 116.63l2.952 2.952-2.952-2.952z" fill="#9cc"/>
<path d="m198.74 116.63l2.952 2.952-2.953-2.952m-121.04 2.95l2.953 2.952-2.952-2.952z" fill="#69c"/>
<path d="m80.653 119.58l2.952 2.952-2.952-2.952z" fill="#9cc"/>
<path d="m83.605 119.58l2.952 2.952-2.952-2.952z" fill="#cff"/>
<path d="m95.413 119.58l2.952 2.952-2.952-2.952z" fill="#fcc"/>
<path d="m100.33 120.56l1.968 0.984-1.968-0.985m85.61 0l1.97 0.984-1.97-0.985z" fill="#c33"/>
<path d="m189.88 119.58l2.953 2.952-2.953-2.952z" fill="#fcc"/>
<path d="m201.69 119.58l2.95 2.952-2.95-2.952z" fill="#cff"/>
<path d="m204.64 119.58l2.953 2.952-2.952-2.952z" fill="#9cc"/>
<path d="m207.59 119.58l2.952 2.952-2.952-2.952m-138.75 2.952l2.953 2.952-2.952-2.952z" fill="#69c"/>
<path d="m71.796 122.53l2.952 2.952-2.952-2.952z" fill="#9cf"/>
<path d="m86.557 122.53l2.952 2.952-2.953-2.952z" fill="#fcc"/>
<path d="m91.478 123.52l1.968 0.984-1.968-0.983m103.32 0l1.967 0.984-1.968-0.983z" fill="#c33"/>
<path d="m198.74 122.53l2.952 2.952-2.953-2.952z" fill="#fcc"/>
<path d="m213.5 122.53l2.952 2.952-2.953-2.952z" fill="#9cf"/>
<path d="m216.45 122.53l2.95 2.952-2.95-2.952z" fill="#69c"/>
<path d="m59.988 125.49l2.952 2.952-2.952-2.952z" fill="#6cc"/>
<path d="m62.94 125.49l2.952 2.952-2.952-2.952z" fill="#9cf"/>
<path d="m74.75 125.49l2.95 2.952-2.95-2.952zm135.79 0l2.952 2.952-2.952-2.952z" fill="#fcc"/>
<path d="m222.35 125.49l2.953 2.952-2.953-2.952z" fill="#9cf"/>
<path d="m225.31 125.49l2.952 2.952-2.952-2.952m-174.17 2.952l2.952 2.952-2.952-2.952z" fill="#6cc"/>
<path d="m54.084 128.44l2.952 2.952-2.952-2.952z" fill="#ccf"/>
<path d="m65.892 128.44l2.952 2.952-2.952-2.952z" fill="#fcc"/>
<path d="m70.813 129.42l1.968 0.985-1.967-0.984m144.65 0l1.968 0.985-1.968-0.984z" fill="#c33"/>
<path d="m219.4 128.44l2.954 2.952-2.953-2.952z" fill="#fcc"/>
<path d="m231.21 128.44l2.952 2.952-2.952-2.952z" fill="#ccf"/>
<path d="m234.16 128.44l2.952 2.952-2.952-2.952z" fill="#6cc"/>
<path d="m42.275 131.39l2.952 2.952-2.952-2.952z" fill="#9cc"/>
<path d="m45.227 131.39l2.953 2.952-2.952-2.952z" fill="#ccf"/>
<path d="m57.036 131.39l2.952 2.952-2.952-2.952zm171.22 0l2.952 2.952-2.952-2.952z" fill="#fcc"/>
<path d="m240.07 131.39l2.952 2.952-2.952-2.952z" fill="#ccf"/>
<path d="m243.02 131.39l2.952 2.952-2.952-2.952m-206.65 2.95l2.953 2.952-2.952-2.952z" fill="#9cc"/>
<path d="m51.132 134.34l2.952 2.952-2.952-2.952zm183.03 0l2.952 2.952-2.952-2.952z" fill="#c66"/>
<path d="m248.92 134.34l2.953 2.952-2.953-2.952m-206.65 2.952l2.952 2.953-2.952-2.953z" fill="#9cc"/>
<path d="m45.227 137.29l2.953 2.953-2.952-2.953z" fill="#ccf"/>
<path d="m57.036 137.29l2.952 2.953-2.952-2.953m171.22 0l2.952 2.953-2.952-2.953z" fill="#fcc"/>
<path d="m240.07 137.29l2.952 2.953-2.952-2.953z" fill="#ccf"/>
<path d="m243.02 137.29l2.952 2.953-2.952-2.953z" fill="#9cc"/>
<path d="m51.132 140.25l2.952 2.952-2.952-2.953z" fill="#6cc"/>
<path d="m54.084 140.25l2.952 2.952-2.952-2.953z" fill="#ccf"/>
<path d="m65.892 140.25l2.952 2.952-2.952-2.953z" fill="#fcc"/>
<path d="m70.813 141.23l1.968 0.984-1.967-0.984m144.65 0l1.968 0.984-1.968-0.984z" fill="#c33"/>
<path d="m219.4 140.25l2.954 2.952-2.953-2.953z" fill="#fcc"/>
<path d="m231.21 140.25l2.952 2.952-2.952-2.953z" fill="#ccf"/>
<path d="m234.16 140.25l2.952 2.952-2.952-2.953m-174.17 2.95l2.952 2.95-2.952-2.95z" fill="#6cc"/>
<path d="m62.94 143.2l2.952 2.95-2.952-2.95z" fill="#9cf"/>
<path d="m74.75 143.2l2.95 2.95-2.95-2.95zm135.79 0l2.952 2.95-2.952-2.95z" fill="#fcc"/>
<path d="m222.35 143.2l2.953 2.95-2.953-2.95z" fill="#9cf"/>
<path d="m225.31 143.2l2.952 2.95-2.952-2.95z" fill="#6cc"/>
<path d="m68.844 146.15l2.952 2.953-2.952-2.952z" fill="#69c"/>
<path d="m71.796 146.15l2.952 2.953-2.952-2.952z" fill="#9cf"/>
<path d="m86.557 146.15l2.952 2.953-2.953-2.952z" fill="#fcc"/>
<path d="m91.478 147.13l1.968 0.984-1.968-0.984m103.32 0l1.967 0.984-1.968-0.984z" fill="#c33"/>
<path d="m198.74 146.15l2.952 2.953-2.953-2.952z" fill="#fcc"/>
<path d="m213.5 146.15l2.952 2.953-2.953-2.952z" fill="#9cf"/>
<path d="m216.45 146.15l2.95 2.953-2.95-2.952m-138.75 2.95l2.953 2.952-2.952-2.952z" fill="#69c"/>
<path d="m80.653 149.1l2.952 2.952-2.952-2.952z" fill="#9cc"/>
<path d="m83.605 149.1l2.952 2.952-2.952-2.952z" fill="#cff"/>
<path d="m95.413 149.1l2.952 2.952-2.952-2.952z" fill="#fcc"/>
<path d="m100.33 150.09l1.968 0.984-1.968-0.984m85.61 0l1.97 0.984-1.97-0.984z" fill="#c33"/>
<path d="m189.88 149.1l2.953 2.952-2.953-2.952z" fill="#fcc"/>
<path d="m201.69 149.1l2.95 2.952-2.95-2.952z" fill="#cff"/>
<path d="m204.64 149.1l2.953 2.952-2.952-2.952z" fill="#9cc"/>
<path d="m207.59 149.1l2.952 2.952-2.952-2.952m-121.04 2.952l2.952 2.952-2.953-2.952z" fill="#69c"/>
<path d="m89.51 152.06l2.95 2.952-2.95-2.952z" fill="#9cc"/>
<path d="m92.46 152.06l2.953 2.952-2.952-2.952z" fill="#cff"/>
<path d="m104.27 152.06l2.952 2.952-2.952-2.952z" fill="#fcc"/>
<path d="m109.19 153.04l1.97 0.984-1.97-0.984m67.9 0l1.967 0.984-1.968-0.984z" fill="#c33"/>
<path d="m181.02 152.06l2.952 2.952-2.952-2.952z" fill="#fcc"/>
<path d="m192.83 152.06l2.952 2.952-2.952-2.952z" fill="#cff"/>
<path d="m195.78 152.06l2.952 2.952-2.952-2.952z" fill="#9cc"/>
<path d="m198.74 152.06l2.952 2.952-2.953-2.952z" fill="#69c"/>
<path d="m98.365 155.01l2.952 2.952-2.952-2.953z" fill="#9cc"/>
<path d="m101.32 155.01l2.953 2.952-2.953-2.953z" fill="#ccf"/>
<path d="m113.13 155.01l2.952 2.952-2.952-2.953z" fill="#fcc"/>
<path d="m116.08 155.01l2.952 2.952-2.952-2.953m53.138 0l2.952 2.952-2.952-2.953z" fill="#c33"/>
<path d="m172.17 155.01l2.952 2.952-2.952-2.953z" fill="#fcc"/>
<path d="m183.98 155.01l2.952 2.952-2.952-2.953z" fill="#ccf"/>
<path d="m186.93 155.01l2.952 2.952-2.952-2.953m-79.706 2.952l2.952 2.95-2.952-2.95z" fill="#9cc"/>
<path d="m110.17 157.96l2.952 2.95-2.952-2.95m64.946 0l2.952 2.95-2.952-2.95z" fill="#ccf"/>
<path d="m178.07 157.96l2.952 2.95-2.952-2.95m-61.994 2.95l2.952 2.953-2.952-2.952z" fill="#9cc"/>
<path d="m121.98 160.91l2.952 2.953-2.952-2.952m41.33 0l2.952 2.953-2.953-2.952z" fill="#c33"/>
<path d="m169.22 160.91l2.952 2.953-2.952-2.952z" fill="#9cc"/>
<path d="m121.98 163.86l2.952 2.952-2.952-2.952m41.33 0l2.952 2.952-2.953-2.952z" fill="#fcc"/>
<path d="m119.03 166.82l2.952 2.953-2.952-2.953z" fill="#ccf"/>
<path d="m125.92 168.78l0.984 1.968-0.983-1.968m35.425 0l0.985 1.968-0.985-1.968z" fill="#c33"/>
<path d="m166.26 166.82l2.952 2.953-2.952-2.953z" fill="#ccf"/>
<path d="m119.03 169.77l2.952 2.952-2.952-2.952m47.234 0l2.952 2.952-2.952-2.952z" fill="#9cc"/>
<path d="m124.93 172.72l2.952 2.952-2.952-2.952m35.425 0l2.95 2.952-2.95-2.952z" fill="#fcc"/>
<path d="m121.98 175.67l2.952 2.952-2.952-2.952z" fill="#ccf"/>
<path d="m128.87 177.64l0.984 1.97-0.985-1.97m29.52 0l0.985 1.97-0.985-1.97z" fill="#c33"/>
<path d="m163.31 175.67l2.954 2.952-2.953-2.952z" fill="#ccf"/>
<path d="m121.98 178.62l2.952 2.952-2.952-2.952m41.33 0l2.952 2.952-2.953-2.952z" fill="#9cc"/>
<path d="m127.89 181.58l2.952 2.952-2.952-2.952m29.52 0l2.953 2.952-2.953-2.952z" fill="#fcc"/>
<path d="m124.93 184.53l2.952 2.952-2.952-2.952z" fill="#cff"/>
<path d="m131.82 186.5l0.986 1.968-0.985-1.968m23.618 0l0.984 1.968-0.984-1.968z" fill="#c33"/>
<path d="m160.36 184.53l2.95 2.952-2.95-2.952z" fill="#cff"/>
<path d="m124.93 187.48l2.952 2.952-2.952-2.952m35.425 0l2.95 2.952-2.95-2.952z" fill="#9cc"/>
<path d="m124.93 190.43l2.952 2.952-2.952-2.952z" fill="#69c"/>
<path d="m130.84 190.43l2.953 2.952-2.952-2.952m23.617 0l2.952 2.952-2.952-2.952z" fill="#fcc"/>
<path d="m160.36 190.43l2.95 2.952-2.95-2.952z" fill="#69c"/>
<path d="m127.89 193.38l2.952 2.952-2.952-2.952zm29.52 0l2.952 2.952-2.953-2.952z" fill="#cff"/>
<path d="m127.89 196.34l2.952 2.953-2.952-2.954m29.52 0l2.953 2.953-2.953-2.954z" fill="#9cc"/>
<path d="m127.89 199.29l2.952 2.95-2.952-2.95m29.52 0l2.953 2.95-2.953-2.95z" fill="#69c"/>
<path d="m133.79 202.24l2.953 2.953-2.952-2.952m17.713 0l2.952 2.953-2.952-2.952z" fill="#fcc"/>
<path d="m130.84 205.19l2.953 2.952-2.952-2.952z" fill="#9cf"/>
<path d="m137.73 207.16l0.984 1.968-0.984-1.968m11.808 0l0.984 1.968-0.984-1.968z" fill="#c33"/>
<path d="m154.46 205.19l2.952 2.952-2.952-2.952z" fill="#9cf"/>
<path d="m130.84 208.14l2.953 2.952-2.952-2.952m23.617 0l2.952 2.952-2.952-2.952z" fill="#69c"/>
<path d="m136.74 211.1l2.952 2.952-2.952-2.953m11.808 0l2.953 2.952-2.952-2.953z" fill="#fcc"/>
<path d="m133.79 214.05l2.953 2.95-2.952-2.95zm17.71 0l2.952 2.95-2.952-2.95z" fill="#9cf"/>
<path d="m133.79 217l2.953 2.953-2.95-2.95m17.713 0l2.952 2.953-2.952-2.952z" fill="#6cc"/>
<path d="m139.7 219.95l2.952 2.952-2.952-2.952m5.904 0l2.95 2.952-2.95-2.952z" fill="#fcc"/>
<path d="m136.74 222.9l2.952 2.952-2.952-2.952m11.808 0l2.953 2.952-2.952-2.952z" fill="#ccf"/>
<path d="m136.74 225.86l2.952 2.953-2.952-2.953z" fill="#6cc"/>
<path d="m142.65 225.86l2.952 2.953-2.953-2.953z" fill="#c66"/>
<path d="m148.55 225.86l2.953 2.953-2.952-2.953z" fill="#6cc"/>
<path d="m139.7 231.76l2.952 2.952-2.952-2.952m5.904 0l2.95 2.952-2.95-2.952z" fill="#ccf"/>
<path d="m139.7 234.71l2.952 2.952-2.952-2.952m5.904 0l2.95 2.952-2.95-2.952m-2.953 5.904l2.952 2.952-2.953-2.952z" fill="#9cc"/>
</svg>
