<svg id="barbados_flag" xmlns="http://www.w3.org/2000/svg" viewBox="0 0 24000 16000" xmlns:xlink="http://www.w3.org/1999/xlink">
<rect width="24000" fill="#00267f" height="16000"/>
<rect width="8e3" fill="#ffc726" x="8e3" height="16000"/>
<path id="h" d="m12000 4124c-260 709-525 1447-1092 2012 176-58 484-110 682-105v2982l-842 125c-30-3-40-50-40-114-81-926-300-1704-552-2509-18-110-337-530-91-456 30 4 359 138 307 74-448-464-1103-798-1739-897-56-14-89 14-39 79 844 1299 1550 2832 1544 4651 328 0 1123-194 1452-194v2104h415l95-5876z"/>
<use xlink:href="#h" transform="translate(24000) scale(-1 1)"/>
</svg>
