<svg id="bermuda_flag" viewBox="0 0 640 480" xmlns="http://www.w3.org/2000/svg" version="1">
<path d="m0 0h640v480h-640z" fill="#c00"/>
<g stroke-width="1pt">
<path d="m0 0h512v256h-512z" fill="#006"/>
<path d="m0 0v28.622l454.76 227.38h57.24v-28.62l-454.76-227.38h-57.24zm512 0v28.62l-454.76 227.38h-57.24v-28.622l454.76-227.38h57.24z" fill="#fff"/>
<path d="m213.33 0v256h85.333v-256h-85.333zm-213.33 85.333v85.333h512v-85.337h-512z" fill="#fff"/>
<path d="m0 102.4v51.2h512v-51.2h-512zm230.4-102.4v256h51.2v-256h-51.2zm-230.4 256l170.67-85.334h38.16l-170.67 85.33h-38.16zm0-256l170.67 85.333h-38.16l-132.51-66.253v-19.08zm303.17 85.333l170.67-85.333h38.16l-170.67 85.333h-38.16zm208.83 170.67l-170.67-85.334h38.16l132.51 66.25v19.08z" fill="#c00"/>
</g>
<path fill="#fff" d="m481.69 463.15c3.368 0.464 128.21-32.03 127.97-82.726v-248.18h-255.95v248.18c-0.232 50.695 127.97 82.726 127.97 82.726z" fill-rule="evenodd"/>
<path d="m-903.54 822.05c1.22 325.7-655.51 534.47-673.23 531.49 0 0-674.45-205.79-673.23-531.49 7.16-10.536 9.96-14.595 10.43-27.844 2.29-6.875 1.64-15.152 1.64-23.02v-23.02c-1.73-5.203-1.64-13.796-1.64-21.377-0.22-5.805-1.64-15.455-1.64-16.444 1.28 9.47 3.02 14.092 6.57 1.644 2.51-6.278 3.92-11.44 6.58-19.732 0.29-8.094 1.64-14.587 1.64-23.02 0-7.972 0.38-15.56 1.65-21.377 2.53-2.072 4.74-5.72 8.22-3.287-0.31 8.37-2.27 12.79-3.29 21.376v46.04c0.16 5.44 0.91 9.983 3.29 13.155 0.29-8.095 1.64-14.587 1.64-23.02 1.9-5.69 3.07-13.14 6.58-18.09 1.99-7.393 5.22-13.5 8.22-21.375 2.51-7.807 5.04-13.192 6.58-19.732 3.63-4.077 7.64-11.014 11.51-14.8 8.45-5.43 5.95 2.76 3.29 9.867v23.02c5.8 1.658 2.09-2.334 6.58-6.576 1.58-6.084 5.31-14.347 8.22-19.733 2.92-4.74 6.7-9.218 9.86-14.8 3.42-2.1 12.53-8.07 13.16-8.22-3.65 3.823-6.79 9.364-9.87 14.798-1.26 5.818-1.64 13.405-1.64 21.376 0.6 15.794 3.82 3.08 6.58-3.287 3.35-2.744 1.82-4.597 8.22-4.933 9.69-6.53 6.58 0.646 4.93 8.22-1.31 7.352-1.64 14.842-1.64 23.022 0 8.924 1.54 12.746 1.64 21.376 0 7.582-0.09 16.175 1.65 21.376 1.17 8.88 3.58 12.586 6.57 19.732 2.51 7.252 5.42 11.873 8.22 18.088 6.44 7.893 3.29 0.717 3.29-8.222v-46.04c3.02-5.158 3.89-11.446 8.22-16.444 1.65-6.02 4.65-10.675 8.23-14.8 2.45-3.908 6.16-8.806 8.22-13.154v23.02c0 8.18 0.33 15.67 1.64 23.02 2.26 7.62 3.93 12.287 4.94 19.733 4.29 2.78 5.91 6.903 9.86 9.866 1.99-7.598 3.29-14.388 3.29-23.02v-23.02c1.37-7.685 2.92-14.074 4.93-19.733 2.22-6.977 3.68 1.805 4.94 4.933 2.84 6.012 5.79 9.158 9.86 16.443 4.83 3.45 6.08 8.786 9.87 13.155 0.87 4.035 1.29 13.116 3.29 16.444 1.77-8.002 4.74-12.822 6.57-21.376 4.93-4.83 7.83-8.23 13.16-11.51 8.36-1.61 12.2-3.916 19.73-4.933 10.41 0 8.54 1.064 1.64 6.577-2.61 4.246-6.36 10.867-9.86 14.8-1.02 7.513-2.97 11.21-3.29 19.73 0.6 8.43 3.02 15.09 4.93 21.377 4.12-4.612 8.7-14.516 11.51-19.733 4.41-5.036 6.44-12.48 9.87-16.443 3.54-4.29 8.13-7 14.8-8.222 4.08-3.065 8.89-3.288 16.44-3.288 15.09 4.827 31.93 3.435 47.69 4.933 12.19 0 19.9-2.238 31.24-4.933 12.34-2.54 25.39-2.794 37.82-4.933 12.52 0 26.39-1.113 37.82 1.645h32.88c11.89 0 23.53-0.245 34.53-1.644 13.27 0 26.77 0.606 39.47-1.644 14.64 0 28.33-1.158 42.75-1.644 19.75 0 38.05-2.356 57.55-3.288 14.92-0.634 26.89-5.416 41.11-8.222 9.53-2.17 20.71-1.644 31.24-1.644 12.48 0 22.46 2.218 34.53 3.288 10.27 0 19.68 0.85 29.6 1.645h101.9c12.08 0 23.18 0.744 34.53 1.645 10.31 0 19.66 0.83 29.6 1.644h26.31c7.22 0.86 16.21 1.02 23.02 3.288 9.55 0 17.27 1.32 26.31 1.644 8.51 0.516 15.72 1.644 24.66 1.644 8.26 0.295 15.31 1.91 23.02 3.29 6.98 0.942 12.59 2.732 18.09 4.932 4.64 2.197 12.24 5.28 16.44 8.222 9.13 0 13.09-1.725 19.74-3.29 4.58-3.536 9.64-3.653 9.86-6.576-5.07 4.52-9.44 5.577-11.51 13.154-1.03 2.565-4.34 12.035 0 9.866 6.04-3.525 10.35-7.542 13.16-13.154 4.7-6.623 6.86-10.678 11.51-16.444 3.44-6.616 9.21-10.764 13.15-14.798 4.6-6.76 7.28-10.17 3.29 1.644-1.41 7.913-2.72 14.015-3.29 21.376-0.94 6.975-2.73 12.587-4.93 18.088 0 5.08-0.42 10.4 1.64 13.154 7.59-2.167 15-6.207 19.73-9.866 6.51-1.774 11.97-5.252 18.09-9.866 8.1-2.025 13.33-2.29 14.8-4.933-4.43 4.523-8.65 8.448-13.15 11.51-2.19 4.613-5.98 7.346-4.94 11.51 5.11-1.11 14.94-1.69 19.73-3.288 7.71-2.667 11.16-4.304 19.74-6.577 14.765 0.192 2.498 2.24-4.94 6.577-4.46 3.036-9.07 7.542-14.8 11.51-3.67 6.82-6.16 12.17-9.86 16.444-1.93 7.158-4.59 12.248-8.22 16.444-1.46 6.188-3.54 11.66-4.94 18.088-1.42 10.552-5.32 13.11 6.58 8.22 5.1-5.56 10.03-10.195 13.16-14.798 3.03-4.728 7.17-10.545 11.51-14.8 2.26-6.385 5.81-8.91 9.86-16.442 3.66-3.837 8.797-9.617 13.157-14.8 3.764-3.59 8.946-7.382 14.798-9.865 9.013-3.004 7.87-8.78 4.933 1.645-3.466 4.196-5.575 9.794-6.577 16.443-3.57 14.82 0.356 9.164 6.578 4.933 5.34-4.412 3.347-7.48 11.51-9.866 1.802-1.517 10.547-6.293 8.222-1.644-1.116 7.408-3.903 10.798-6.577 16.443-3.615 6.525-6.483 11.715-8.222 18.088-2.908 3.88-5.026 8.337 0 6.578 8.472-1.883 11.08-4.92 16.445-8.222 3.2-7.303 6.352-9.63 9.866-14.8-2.012 8.053-4.9 13.58-6.577 19.733-3.786 4.37-5.75 9.307-8.22 16.443-3.604 7.016-4.822 10.37-4.934 19.732-2.216 7.477-5.064 12.895-1.646 19.732 5.21-5.417 9.865-8.835 13.155-16.443 3.385-4.098 5.153-10.394 6.576-16.442 1.567-6.658 3.942-10.753 4.933-18.088 2.29-6.875 1.644-15.153 1.644-23.02v-23.02c-0.094-7.86-2.588-14.366 0-19.733 5.006 5.11 6.258 9.69 9.866 16.443 2.11 8.442 5.844 13.214 6.577 21.376 3.342 4.915 3.84 10.934 6.577 18.088 0.577 8.072 2.097 15.085 0 21.376-0.496 5.29-3.066 9.066 0 13.155 5.308-4.385 5.538-10.92 6.577 3.29 0 7.197 0.253 14.07 0.837 21.265z" fill-opacity=".996" fill-rule="evenodd" transform="matrix(.19 0 0 .1557 781.42 252.48)" stroke="#002b00" stroke-width="11.125" fill="#007a0f"/>
<path stroke="#002b00" stroke-width="11.125" fill="none" d="m-2178.7 685.68c-0.62 4.245-1.64 17.06-1.64 26.31 0 8.38 0.75 14.815 1.64 21.375 0.55 5.92 1.88 6.805 0 11.51m24.6-72.36c0.63 4.245 1.65 17.062 1.65 26.31 0 8.735-1.08 14.022-1.65 21.376-0.29 8.08-1.64 12.433-1.64 21.376v6.577m-16.5 11.51c1.55 0 0.93 4.205 1.64 9.866 0.95 6.998 2.51 12.974 4.93 18.088 0.35 9.41 2.15 11.425 8.23 14.8 5.87 5.787 8.03 9.684 11.51 14.798 4.19 0.74 4.91 1.85 6.57 4.933m-90.4-13.16h1.64c8.48 1.413 20.16 1.238 26.31 3.29 6.33 1.468 13.95 4.537 18.09 8.22 6.65 7.382 9.26 12.74 18.08 16.444 7.4 4.315 14.86 5.888 23.03 8.22 7.59 3.203 12.6 5.625 18.08 8.223 7.81 3.994 14.04 8.476 23.02 9.866h23.02c7.7 0 12.64 0.26 16.45-3.29l-16.45 3.29c7.7 0 12.64 0.26 16.45-3.29m-138.1 67.42h52.6c3.39 7.075 6.48 9.284 13.16 11.51 5.33 3.905 12.28 6.004 19.73 6.577h3.29m-74 9.87c4.47-0.92 17.27-4.287 26.31-4.933 9.62 0 14.8 2.073 19.73 6.577 5.04 3.425 7.99 6.602 14.8 9.866 7.27 2.51 14.62 3.29 23.02 3.29 0.78 2.318 0.48 1.643 3.29 1.643m-65.7 16.44h29.6c5.9 2.794 10.77 3.15 13.15 9.865 6.82 5.74 9.83 9.5 19.73 9.87 3.81 1.97 11.83 1.64 18.09 1.64m-1.7 36.2h29.59c9.66 0.98 16.51 0.28 21.38 6.58 5.42 7.8 9.97 6.08 16.44 9.87 5.7 0 9.45 1.18 14.8 1.64m-11.5 27.9c4.25 0.62 17.06 1.64 26.31 1.64 9.08 1.23 9.76 3.39 14.8 9.87 2.74 9.6 7.48 8.92 18.09 9.86 7.2 0 12.97-0.53 18.09-1.64m-212.1-348.54c0.55 0.548 1.09 1.096 1.64 1.644-3.73-3.73-1.93-2.363 1.65 6.578 0.62 8.063 2.05 12.855 4.93 19.732 3.91 5.61 7.18 10.98 9.87 16.443 2.92 6.68 6.81 11.845 11.51 16.443 0.69 2.087 1.2 2.593 3.28 3.29m1.6-57.55c0.84 0 5.23 5.086 8.22 9.866 5.7 4.074 10.23 9.203 14.8 14.8 5.13 3.385 11.11 7.55 18.09 11.51 7.98 2.763 10.74 5.002 18.08 8.22 3.87 3.35 10.82 5.813 16.45 8.223 2.42 0 1.25-0.39 3.29 1.643m-41.1-70.7c-1.8 0 0 4.24 0 9.866 2.75 6.088 7.01 12.12 11.51 18.088 5.21 3.442 10.49 10.505 14.8 16.443 2.65 4.223 5.7 7.31 11.51 9.866m1.7-67.42c0.06 5.876 1.62 16.938 3.29 26.31 2.86 6.823 4.98 11.276 6.58 18.087 1.03 6.853 3.62 12.832 8.22 18.088 3.77 4.78 10.23 9.5 16.44 11.51 6.35 2.72 10.81 4.826 19.73 4.933 6.56-0.886 13-1.644 21.38-1.644h13.16" transform="matrix(.19 0 0 .1557 781.42 252.48)"/>
<path stroke="#002b00" stroke-width="11.125" fill="none" d="m-1999.5 753.1c0.14 5.28-1.4 10.768 4.93 14.8 2.13 6.658 6.84 14.363 11.51 21.375 4.17 5.286 9.96 9.137 18.09 9.866 5.77 1.34 14.5 2.64 21.38 4.934 6.24 4.06 12.78 10.903 21.37 13.155l-21.37-13.156c6.24 4.06 12.78 10.903 21.37 13.155m-62.5-64.12c4.35 5.55 16.15 17.8 24.67 26.31 5.88 4.86 11.94 8.735 18.08 11.51 7.52 1.163 15.81 4.454 21.38 6.577 3.59 1.537 4.61 3.012 9.86 3.29m-51-67.43l1.65 1.645c-4.68-4.672-2.25-2.142 8.22 6.577 6.14 4.954 8.58 6.28 9.86 14.8 3.02 2.853 3.99 7.923 8.22 4.932-0.52-9.732-5.03-13.12 3.29-8.222 3.03 6.332 6.75 11.464 11.51 14.8 3 3.172 6.52 4.742 13.16 4.932m115 182.53c4.13 0.516 21.43 0.566 29.6 3.29 7.35 1.31 14.84 1.643 23.02 1.643 8.32-0.308 13.02-2.784 21.38 0 9.59 0.738 10.67 3.03 18.08 9.866 6.11 4.14 8.73 8.81 13.16 16.442 1.94 1.254 14.26 8.828 4.93 3.29m-118.4-74c5.51 2.905 18.24 10.32 24.66 14.8 8.63 1.916 11.11 4.66 19.74 6.576 8.8-0.104 14.34-2.338 21.37-3.288 5.52-1.84 14.39-2.33 21.38 0 7.45 2.58 12.13 4.848 18.09 8.22 3.26 4.08 13.55 11.504 3.28 3.29-2.74-3.837-3.83-4.385-8.22-6.577m-65.8-26.3c6.03 0.172 21.04 2.167 31.24 3.288 6.88 2.293 15.55 2.755 23.02 3.29 8.66 1.545 15.09 2.11 21.38 6.576 4.43 2.98 10.56 8.747 14.8 13.155 9.3 4.03 3.64 2.988-3.29-3.29m-62.5-37.82c6.48 0 16.65 1.448 26.31 3.288 3.82 4.62 9.98 5.905 18.09 8.222 5.73 1.4 9.92 4.725 16.44 8.222m62.5 103.57l1.64-1.64c-3.62 3.62-2.4 1.79 6.58 0 9.97-2.69 19.28-3.77 29.6-1.65 8.04 0 15.89 0.14 23.02-1.64 3.3-2.48 7.45-1.31 9.86-4.94 4.74-0.83 4.58-4.61 4.94 0m-70.6 36.1c8.69-0.44 26.41-1.55 36.18-8.22 6.37-1.94 12.67-5.53 19.73-6.58 8.38 0 15.17-1.08 23.02-1.64 9.47-0.51 17.94-1.65 27.95-1.65h24.67c8.29 0 15.43 0.74 23.02 1.65 6.47 1.13 14.19 4.91 18.09 8.22 5.84 1.27 12.44 1.88 18.08 0m-21.5 154.6c0.55-0.54 1.09-1.09 1.64-1.64-3.38 3.38-2.34 1.99 4.93-1.64 9.8 0 18.97-0.48 27.96-1.65 8.59 0.28 17.5 1.19 23.02 4.93 7.66 2.47 15.09 3.36 21.37 6.58 8.01 2.96 13.02 4.97 21.38 6.58 4.48 2.24 15.13 1.73 21.38 3.29 8.04 0 15.89 0.13 23.02-1.65 8.55-1.83 13.37-4.8 21.37-6.57 5.35-5.16 12-8.15 19.74-9.87 3.18-3.85 7.65-8.33 11.51-11.51l-11.51 11.51c3.18-3.85 7.65-8.33 11.51-11.51m24.7-392.97c6.1-0.42 18.58-2.76 26.31-6.577 6.46-1.82 14.22-5.025 18.09-8.222 6.51-1.776 10.7-4.02 18.09-6.576 6.89-4.925 14.68-9.035 18.08-13.155 9.14-4.186 11.31-6.837 14.8-14.8 1.86-2.48 0.95-4.152 3.29-4.933m37.8-0.01c-0.84 0-5.23 5.086-8.22 9.866-5.65 5.273-11.05 12.922-14.8 19.732-4.39 2.986-8.99 7.95-14.8 11.51-7.43 6.356-13 10.315-21.38 14.8-6.2 4.133-11.79 6.456-19.73 8.22-7.7 2.668-11.15 4.305-19.73 6.578m133.2-65.77c-0.55 0.548-1.1 1.096-1.64 1.644 4.12-4.126 2.12-2.248-4.94 6.578-5.63 5.145-11.9 12.18-14.8 16.443-4.66 3.108-12.7 11.297-18.08 14.8-7.3 6.077-14.09 8.025-19.73 13.154-8.1 3.12-13.17 6.54-21.38 9.865-4.69 2.222-11.82 3.87-16.44 6.577h-4.94m92-9.87c-0.54 0.548-1.09 1.096-1.64 1.644 3.9-3.904 2.04-2.31-3.29 6.577-5.89 4.087-8.52 7.958-14.8 11.512 0 2.192 0.55 1.644-1.64 1.644m92.16-49.33c0 0.482-3.036 4.807-4.933 9.866-4.54 4.633-6.777 11.236-11.508 16.444-3.62 7.555-6.47 9.195-13.16 16.443-4.38 2.814-11.43 7.306-14.8 11.51-6.74 2.956-11 6.373-18.08 8.222m6.5 13.16c6.05-2.192 16.37-7.738 23.02-11.51 5.59-3.013 12.12-7.204 16.45-9.866 2.19-6.174 7.13-9.368 14.797-13.155 3.3-4.855 8.09-7.803 13.154-13.155 5.01-2.754 6.665-6.426 9.867-9.866m-80.49 65.77c6.91-0.06 19.93-0.15 27.95-4.933 8.64-2.708 11.64-6.043 19.73-8.222 4.513-3.16 11.572-6.276 16.444-9.866l-16.443 9.865c4.513-3.16 11.572-6.276 16.444-9.866m64.1-18.08c-3.606 5.99-11.343 19.205-19.732 24.665-3.205 3.88-11.49 7.53-16.444 11.51-5.166 2.447-12.76 5.717-19.732 9.866-7.788 1.67-13.168 3.717-19.73 6.578m-55.88 32.89c5.66-2.39 16.06-8.195 24.66-11.51 4.1-2.048 8.2-1.645 13.16-1.645m0 23.02c0.57 0 4.97-4.13 9.86-6.578 6.454-4.053 13.696-8.155 19.734-11.51 6.845-1.786 14.33-6.823 23.02-8.222 4.438 2.22 14.728 2.814 21.377 3.29h9.867m-62.49 36.18c7.102-0.182 17.88-0.32 24.665-4.933 5.422-0.93 10.272-2.506 13.155-4.933m-154.59 87.15c1.36 0.072 9.17 1.584 13.15 3.29 5.72 2.86 8.51 6.15 14.8 9.86 5.45 4.78 12.54 6.27 21.37 6.58h23.03c9.67-0.55 14.08-2.96 23.02-3.29 7.71 0 13.062-1.08 18.084-3.29m-131.5 6.6c6.77 0.18 10.95 1.22 18.09 4.93 8.07 7.02 13.64 11.21 23.02 13.16 7.35 0.56 12.64 1.64 21.37 1.64 8.05 0 15.9-0.13 23.02 1.65 6.36 0.18 8.03 1.64 14.8 1.64" transform="matrix(.19 0 0 .1557 781.42 252.48)"/>
<path d="m74.995 82.955c-1.044 0-2.29 0.08-2.907-0.29-1.18-0.217-1.99-0.696-2.616-1.454-1.078-0.747-1.423-1.44-2.325-2.324-0.29-1.064-0.822-1.887-1.454-2.616 0.02-1.647 0.31-2.236 0.872-3.198 1.375-0.476 1.918-0.86 3.488-1.163 0.757-0.515 1.958-1.026 2.907-1.454-0.436-0.738-0.894-1.183 0-2.035 0.736-0.7 1.575-1.254 2.907-1.452 1.48 0.134 1.822 0.696 2.616 1.453 1.423 0 2.81-0.023 4.07 0.292 1.17 0.32 1.91 0.72 3.197 1.453 1.18 0.394 1.727 0.784 2.326 2.035 0.935 0.91 0.316 1.513 0.29 2.907-0.162 1.92-0.79 1.79-1.744 2.616 1.316 0.673 2.317 0.818 3.78 0.872h8.138c1.364-0.372 1.547-0.817 2.034-2.035 0.368-0.92 0.88-2.116 1.163-3.197 0.644-0.744 0.98-1.694 1.744-2.326 0.525-1.095 1.198-1.946 2.036-2.616 0.818-1.185 1.522-1.704 2.616-2.324 0.903-1.06 1.703-1.403 0-1.454-1.39 0.244-1.977 0.92-3.488 1.163-0.292-0.73-0.235-1.67 0.29-2.325 0.383-1.445 1.13-2.247 1.454-3.49 0.678-0.78 0.905-1.843 1.453-3.196-0.096-1.267-0.338-2.374-0.58-3.488-0.406-1.014-0.582-1.907-0.582-3.488 0.292-1.238 0.568-1.984 1.454-2.616 0.537-0.966 1.133-1.464 2.325-2.035 0.583-0.817 1.396-1.28 2.326-1.744 0.653-0.79 1.42-1.24 2.034-2.325 0.362-1.02 0.71-1.997 0.872-3.198 0.406-0.813 0.537-2.54 0.58-3.78-0.018-1.542-0.194-2.377-0.87-3.196-0.362-0.903-0.643-2.14-1.164-2.907 0-1.58 0.176-2.474 0.58-3.488 0.31-1.55 0.292-1.948 0.292-1.164v-0.29c1.662 0.978 2.116 1.38 4.07 1.453 0.815 0 1.34-0.083 2.034-0.292 1.652 0.18 2.27 0.185 2.326-1.744 0.258-1.035 0.49 0.355 0.58 0.872 0.644 1.286 0.695 0.47 1.454-0.29 0.477-1.43 1.01-0.6 2.035-0.29 0.116-0.35 0.493-0.494 0.872-0.873 0.217 1.09 0.538 2 1.453 2.325 1.467-0.268 1.544-0.85 1.744-2.325 1.04-0.215 1.12-0.544 1.162 0.872 0.766 0.158 1.377 0.492 2.034 0 0.258-0.646 0.555-1.207 0.872-1.744 0.378 1.703 0.513 1.968 2.326 2.036 0.586-0.555 0.837-0.872 0.872-2.035 0.658 0.798 1.49 1.327 2.906 1.454 1.17 0.11 1.016 0.543 2.326 0.582 0.332 0.702 0.483 1.955 1.162 2.616 1 0.642 2.352 0.868 2.907 0.58 0-0.808-0.11-1.634 0.29-2.034 1.14-0.38 2.13-0.088 3.198 0.29 1.474 0.403 1.454 0.753 1.454 2.617-0.1 1.404-0.272 2.762-0.872 3.488-0.236 1.086-0.265 2.593-0.872 3.78-0.502 1.623 0.43 1.712 0.58 3.487 0.235 0.982-0.272 2.28-0.29 3.78 0.02 1.61-0.006 2.41 1.163 2.906 0.67 0.988 1.494 1.477 2.325 2.325 0.987 1.13 1.43 1.633 2.036 2.617 1.053 1.206 1.206 1.717 2.035 2.907 0.486 0.97 0.937 1.673 1.454 2.907 0.35 1.05 0.235 2.41 0 3.49-0.93 0.733-1.396 1.59-1.453 3.196-0.41 0.82-0.498 2.416-0.58 3.488 0.284 1.21 0.875 2.006 1.453 2.907 0.606 0.758 1.603 1.544 2.325 2.036 0.636 0.733 1.08 1.628 1.744 2.325 0.383 1.26 0.852 1.825 0.872 3.49 0.243 1.113 0.484 2.22 0.582 3.488 0.676 0.638 0.594 0.872 2.035 0.872 0.895 0.523 1.993 0.58 3.49 0.58 1.3 0.1 2.233 0.292 3.777 0.292 1.184 0 2.42-0.007 3.198-0.29 0.607-0.953 0.95-2.58 1.453-3.49 0.098-1.266 0.34-2.374 0.582-3.487 0.685-0.72 1.19-1.462 2.034-2.035 1.202-0.617 1.964-0.816 3.49-0.872 1.407 0.4 2.374 0.777 3.196-0.29 1.128-0.31 1.833-0.582 3.488-0.582 1.722-0.43 2.18-0.198 2.907 0.872 0.238 1.094 0.47 2.35 0.872 3.197 0.66 0.45 1.693 1.18 2.325 1.744 0.408 0.86 0.582 1.473 0.582 2.906 0.523 0.873 0.122 1.89 0 2.907-0.684 0.717-1.21 1.517-2.035 2.325-0.355 0.432-0.777 0.753-1.454 0.872l0.58 0.582-10.17 10.172-106.09-0.872-4.944-12.208z" fill-opacity=".996" fill-rule="evenodd" transform="matrix(1.4523 0 0 1.399 292.48 115.16)" stroke="#2b2b2b" stroke-width="1pt" fill="#d40f0f"/>
<path stroke="#2b2b2b" stroke-width="1pt" fill="none" d="m129.93 29.47l0.29 0.29c-0.73-0.73-0.373-0.393 0.872 1.163v4.07c0 1.655 0.274 2.36 0.582 3.488 0.397 0.326 0.474 0.838 0.872 1.164m6.11-9.885v0.292c0-0.856 0.05-0.374-0.872 1.162-0.586 1.345-0.58 2.153-0.29 3.49 0.306 0.918 0.29 2.437 0.29 3.777-0.155 0.467-0.136 0.118-0.29 0.583m7.27-1.746h-0.29c0.855 0 0.373-0.05-1.163 0.872-1.293 0.813-1.79 1.24-3.198 1.454-0.948 0.928-1.504 1.142-3.198 1.162-0.137 0.41-0.085 0.29-0.582 0.29m1.45 1.454v0.292c0.383-0.144 1.727-0.515 2.325-0.582 0.728-0.6 1.907-0.838 2.616-1.453 1.117-0.144 0.76-0.544 2.036-0.582l-2.035 0.582c1.117-0.144 0.76-0.544 2.036-0.582m-2.62 3.488c0.496 0 2.54 0.085 3.488 0.29h1.453m-38.66 6.397h0.29c-0.784 0-0.38 0.017 1.164-0.292 1.3-0.1 2.38-0.33 3.78-0.58 1.552-0.39 2.17-0.393 3.196-1.455 1.164-0.776 1.548-1.454 1.744-2.906 0.202-0.93 0.326-2.03 0.872-2.616m1.74 3.779v1.453c0 1.496 0.058 2.594 0.582 3.488 0.597 1.25 0.973 1.796 2.034 2.327l2.907 1.163h0.872m0.87-1.455h1.454c2.154 0 4.02 0.232 6.104 0.29h4.07c1.43-0.05 2.578-0.29 4.07-0.29h2.905m-25.29-9.883h1.453c1.203-0.4 2.817-0.357 4.07-0.58 0.516 0.277 0.874 0.622 1.453 0.87m-5.8-4.36h0.29c-0.783 0-0.386-0.02 1.164 0.29 0.718 0.623 1.426 0.984 2.616 1.163m-3.2-4.36h0.29c-0.783 0-0.386-0.02 1.164 0.29 0.748 0.764 1.947 1.478 2.616 2.326 0.636 0.376 1.017 0.83 1.744 1.163m-13.95 13.662v0.29c0-0.855-0.05-0.373 0.872 1.163 0.097 1.356 0.21 2.918 0.872 3.78 0.192 1.413 0.234 1.8-0.29 2.906-0.452 1.016-1.033 2.32-1.744 2.907-0.58 0.853-1.443 1.206-2.035 2.034-0.758 0.53-1.53 1.583-2.035 2.326-1.113 1.24-1.36 1.96-2.325 2.616-0.374 1.12-0.91 1.663-1.454 2.906-0.87 1.028-1.512 2.024-2.033 3.197-0.408 0.95-0.465 2.557-0.872 3.78v0.87m7.84-2.614v-1.453c0-1.466 0.13-2.728 0.29-4.07 0.446-1.04 0.878-2.202 1.163-3.488 0.598-0.88 0.852-1.78 1.454-2.907 0.31-1.136 0.89-2.017 1.744-2.616 0.365-1.092 0.828-1.734 1.454-2.907 0.457-0.93 1.373-2.07 1.744-3.488 0.444-0.528 0.606-1.394 0.872-2.326m2.62 1.454v0.29c0-0.812 0.036-0.38-0.58 1.163-0.448 1.246-1.14 2.286-1.454 3.488-0.605 1.302-1.014 2.702-1.454 4.07-0.232 1.3-0.29 2.623-0.29 4.07v4.07c0 1.486-0.274 2.602-0.29 4.07-0.372 0.74-0.51 1.523-0.292 1.742m7.56-21.8c-0.275 0-0.166 0.743-0.29 1.744-0.106 1.37-0.292 2.417-0.292 4.07-0.295 1.378-0.704 2.54-0.872 3.778-0.41 1.382-0.813 2.142-0.872 3.78 0.595 0.874 1.348 1.5 1.744 2.906 0.47 0.957 1.018 1.938 1.454 3.197 0 1.578 0.272 2.254 0.29 3.78 0 0.716-0.056 1.165 0.29 1.743m4.36-22.963v0.29c0-0.812 0.036-0.38-0.58 1.163-0.92 1.246-1.504 2.334-2.036 3.198-0.442 1.376-0.943 2.69-0.58 4.07 0.094 1.33 0.344 2.91 0.87 3.778 0.054 1.428 0.292 2.198 0.292 3.78 0.1 1.3 0.29 2.234 0.29 3.778 0 1.183-0.006 2.42-0.29 3.197-0.547 0.233-0.407 0.497-1.163 0.58m-0.58-30.811c-0.366 0 0.17 0.778 0.29 1.744 0.402 0.67 0.29 2.09 0.29 3.198m4.65-4.07h0.29c-0.91 0-0.366-0.06 1.163 1.163 0.217 1 0.436 2.12 0.58 3.197m4.08-5.232v1.453c0.3 1.396 0.58 2.484 0.58 4.07l-0.58-4.07c0.3 1.396 0.58 2.484 0.58 4.07m2.9-5.231h0.29c-0.855 0-0.373-0.05 1.163 0.87v0.873m-3.19 5.232h-0.29c0.91 0 0.35-0.076-0.873 1.453-0.46 0.92-1.003 1.666-1.453 2.616-0.533 0.987-0.737 1.488-0.872 2.617m-1.45-6.104c-0.168 0-0.508 0.908-1.162 1.453-0.26 1.19-0.563 1.956-0.582 3.488 0 1.885 0.35 2.204 1.163 3.49 0.68 0.786 1.054 1.505 1.162 2.905v8.14c-0.2 1.335-0.573 1.987-1.454 2.615-1.115 0.727-1.256 0.185-2.034-0.872-0.272-0.897-0.653-1.315-0.872-2.325m11.34-19.476v0.29c0-0.784 0.02-0.385-0.29 1.163-0.53 1.31-1.3 2.583-1.745 3.488-0.405 1.014-0.58 1.907-0.58 3.49 0.243 1.363 0.528 2.61 0.58 4.068 0 1.595-0.395 2.53-0.58 3.78-0.57 1.08-1.07 2.44-1.745 3.196-0.155 0.465-0.136 0.117-0.29 0.582m8.13-23.254v0.29c0-0.812 0.036-0.38-0.58 1.163-0.104 1.448-0.42 2.575-0.583 3.78-0.384 0.898-1.056 2.596-1.453 3.488-0.6 0.978-0.872 1.447-0.872 3.198 0.6 1.03 1.523 1.944 2.616 2.325 0.447 0.945 0.64 2.002 1.163 3.2 0.103 1.43 0.416 2.668 0.582 4.068v1.163m2.33-20.35l-0.29 0.29c0.64-0.64 0.316-0.424 0 1.163 0 1.483-0.193 2.683-0.292 4.07-0.518 1.037-0.995 2.247-1.162 3.488 0.252 1.38 0.907 1.687 2.034 2.325 0.676 0.644 1.656 1.2 2.616 1.743 1.086 0.634 1.83 1.35 2.617 2.326 0.866 1.073 1.41 1.31 2.034 2.615 0.167 1.235 0.555 2.402 0.29 3.488 0 0.388 0.098 0.29-0.29 0.29m-5.52-28.483h0.29c-0.91 0-0.35-0.074 0.873 1.453 0.315 1.26 0.29 2.65 0.29 4.07 0.557 0.82 0.774 1.908 0.873 3.198 0.306 0.92 0.29 2.44 0.29 3.78-0.097 1.133-0.46 1.834 0 2.906 1.263 0.764 2.14 1.608 2.907 2.325 1.07 0.534 1.492 1 2.326 2.034 0.528 0.934 1.14 1.92 1.743 2.616 0.232 1.3 0.29 2.624 0.29 4.07 0 1.707 0.053 2.545-0.872 3.488-0.44 0-0.926 0.078-0.29 0.29m-12.79-42.148v1.453c0.205 1.38 0.858 2.296 1.744 3.198 0.543 0.8 1.236 1.492 2.035 2.036 1.12 0.38 1.53 0.58 2.905 0.58m-3.19 1.453h0.29c-0.784 0-0.387-0.02 1.163 0.29 0.983 0.492 1.475 1.166 2.326 1.745 0.245 0.903 0.597 2.365 1.162 3.197 0.207 1.162 0.38 2.25 0.872 2.907m-30.81-14.824v1.453c0.835 0.725 1.55 0.872 3.197 0.872 1.3 0.1 2.235 0.29 3.78 0.29h4.07c1.552 0 1.868 0.024 2.324-1.452 0.597-0.81-0.193-1.09-0.58-1.744l0.58 1.744c0.597-0.81-0.193-1.09-0.58-1.744m25.87 40.986h0.29c-0.91 0-0.366-0.06 1.163 1.162 0.18 0.87 0.548 1.327 0.872 2.034" transform="matrix(1.4523 0 0 1.399 292.48 115.16)"/>
<path stroke-width="1pt" stroke="#000" transform="matrix(1.4523 0 0 1.399 292.48 115.16)" d="m83.424 73.072h-0.29c0.855 0 0.373-0.05-1.163 0.872-0.855 0.6-1.434 1.48-1.743 2.616-1.015 0.676-0.442 1.125 0.87 1.163 1.74-0.02 2.196-0.195 3.2-1.163 0.704-0.528 1.15-1.377 0.58-2.325l-0.58 2.325c0.704-0.53 1.15-1.378-0.873-3.488z" fill-rule="evenodd"/>
<path stroke="#2b2b2b" stroke-width="1pt" fill="none" d="m171.21 85.57v0.292c0-0.785-0.02-0.386 0.29 1.162 0.155 0.36 0.263 0.66 0.582 0.872m2.04-2.616v1.453c0.51 0.69 0.963 1.508 1.454 2.035m1.45-2.616v0.29c0-0.855-0.05-0.373 0.872 1.163 0.123 0.37 0.213 0.46 0.582 0.582m-91.558-3.197v1.453c-0.217 1.084-0.898 1.828-1.453 2.326l1.452-2.327c-0.217 1.084-0.898 1.828-1.453 2.326m4.652-2.906v1.453c-0.418 0.597-0.657 0.947-1.163 1.163m3.779-3.198v1.453c-0.07 0.713-0.389 1.1-0.58 1.744m4.359-3.777h0.29c-0.077 0.192 0 1.296 0 2.034-0.314 0.583-0.775 0.69-1.162 1.162" transform="matrix(1.4523 0 0 1.399 292.48 115.16)"/>
<path fill="#2b2b2b" d="m461.77 151.51h-0.422c0.147 0.38 0.59 2.276 0.844 2.846 1.167 0.803 1.78 2.074 2.533 3.252 1.05-1.168 1.266-2.167 1.266-4.472-0.56-1.562-2.263-1.405-4.22-1.627zm49.39 1.63c-0.123 0-1.234 0.75-2.533 1.22-0.313 2.23-0.174 2.472 0.844 4.066 2.016-0.15 2.06-0.586 2.533-2.44 0.933-1.198 0.278-0.925-0.844-2.846z" fill-rule="evenodd"/>
<path stroke="#2b2b2b" stroke-width="1pt" fill="none" d="m144.18 31.505h-1.163c-1.55-0.277-2.404-0.367-3.488 0.58-0.335 1.25-0.516 2.258 0.29 2.908 0.99 0.242 1.575 0.646 2.616 0.872 0.56-0.91 1.018-1.574 1.744-2.616 0.67-0.225 0.192-0.722 0-1.745v1.744c0.67-0.225 0.192-0.722 0-1.745m-14.83 0.002l-0.29-0.29c0.66 0.66 0.42 0.34-1.163-0.29-1.34 0-2.86-0.017-3.78 0.29-0.364 0.73 0.442 1.277 1.164 1.743 0.8 0.544 1.492 1.236 2.035 2.035 0.808 0.594 0.984 1.426 2.035 1.744 0.47-0.992 0.877-1.712 1.163-3.197-0.183-0.548-0.664-1.148-1.163-2.035z" transform="matrix(1.4523 0 0 1.399 292.48 115.16)"/>
<path stroke-width="1pt" stroke="#000" transform="matrix(1.4523 0 0 1.399 292.48 115.16)" d="m78.192 71.618c-0.336 0-2.424-0.02-3.197 0.29-0.803 1.25-0.635 1.936 0.29 2.617 0.243 1.61 0.778 1.678 2.616 1.744 0.773 0.578 1.507 0.37 1.745-0.583 0.498-0.828 0.257-1.737-0.29-2.325 0-0.91 0.06-0.215-1.163-1.744zm-6.104 5.522h-0.29c0.812 0 0.326-0.088-0.29 1.454 0 0.9-0.076 1.84 0.29 2.326 1.043 0 2.29 0.08 2.906-0.29 0.48-1.28 0.553-2.24-0.58-2.617-0.386-0.576-0.99-0.568-2.036-0.872zm11.046 3.49h-1.454c-0.613 0.53-1.365 1.17-1.744 2.034 1.217 0.332 1.576 0.994 2.326 1.744 1.896-0.023 2.163-0.113 2.325-2.035 0-1.135 0.043-0.447-1.453-1.744zm99.116 1.453h-1.453c-1.363 0.44-1.622 0.91-1.744 2.616 0.853 0.514 1.938 1.113 3.197 1.452 0.91 0.533 2.122 0.747 3.49 0.29 0.565-0.92 1.03-1.168 1.16-2.615-0.995-0.303-2.544-0.9-3.196-1.453l3.197 1.453c-0.995-0.303-2.544-0.9-4.65-1.744zm2.91-6.976h-0.29c0.91 0 0.35-0.076-0.873 1.453-0.308 1.42-0.06 1.957 0.582 3.198 1.286 0.634 1.415 1.61 2.615 2.035 0.558 0.558 0.29-0.752 0.29-1.454 0.248-1.54 0.754-1.95 0.873-3.49-0.267-1.088-0.616-1.683-1.744-2.034l1.744 2.035c-0.267-1.088-0.616-1.683-3.198-1.743zm6.69 0.873h-0.29c0.91 0 0.35-0.077-0.873 1.452-0.562 0.927-0.58 2.33-0.58 3.78 0.48 1.295 1.186 0.495 1.743-0.29 0.985-0.672 1.39-0.942 1.453-2.618 0-1.372 0.016-0.758-1.453-2.325zm4.07 4.068h-0.29c0.784 0 0.387-0.02-1.163 0.29-0.965 1.106-1.697 1.676-2.035 3.198 1.363 0.296 2.25 0.092 3.78-0.29 0.623-1.363 0.69-1.098-0.292-3.198z" fill-rule="evenodd"/>
<path d="m477.71 160.03h-0.988c-0.387 0.492-0.17 1.018 0.2 1.5 0.202 0.645 0.118 0.892 0.788 1.126 0.478 0.542 1.135 0.817 1.974 0.937 1.36-0.117 0.84-0.448 0.59-1.313-0.458-0.503-0.444-1.032-1.184-1.313-0.213-0.305-0.833-0.585-1.38-0.937zm20.64 0.11c-0.166 0.038-1.08 0.456-1.477 0.69-0.677 0.878-0.926 1.16-0.634 2.072 0.7 0.305 1.49 0.555 2.535 0.69 1.035-0.217 1-0.76 1.058-1.842-0.224-0.57-0.75-0.92-1.48-1.61zm-22.82 22.26v2.329c0.533 2.255 0.592 3.02 3.276 3.263h19.652c2.058-0.193 1.87-0.653 1.87-2.797 0.31-0.478-0.235-1.97-0.935-2.796-1.85 0.654-2.307 2.35-4.68 2.796-2.695 0-3.962 0.03-5.146-1.398-1.345-0.867-1.48-2.585-2.807-0.933-1.51 0.91-2.92 1.398-5.615 1.398-2.86 0-2.9-0.314-5.615-1.863z" fill-rule="evenodd"/>
<path stroke="#2b2b2b" stroke-width="1.109" fill="none" d="m42.73-676.01h0.29c-0.91 0-0.367-0.062 1.163 1.163 0.123 0.696 0.29 0.847 0.29 1.744" transform="matrix(1.6097 0 0 1.6034 413.02 1254.8)"/>
<path d="m481.1 174.02h-1.215c0.352 0.447 0.616 2.798 1.215 3.713 6.072 0 3.23-0.52 0-3.714zm9.12 1.08h-0.293c0.82 0 0.383-0.045-1.174 0.722-0.563 0.977-1.39 1.45-0.294 2.53 1.217 0.084 1.83 0.36 3.227 0.36v-2.53 2.53c0-0.843 0-1.686-1.467-3.612z" fill-rule="evenodd"/>
<path stroke="#2b2b2b" stroke-width="1.109" fill="none" d="m48.834-675.72h-0.29c0.784 0 0.387-0.02-1.163 0.29-0.303 0.514-0.736 1.05-1.162 1.454" transform="matrix(1.6097 0 0 1.6034 412.88 1254.8)"/>
<g stroke="#2b2b2b" stroke-width="1pt">
<path fill-opacity=".996" fill="#d40f0f" d="m81.97 123.07c-0.637 0-3.022 0.044-4.36-0.29-1.634 0.06-1.955 0.533-3.197 0.872-1.428-0.053-2.198-0.29-3.778-0.29-1.137-0.614-1.932-1.106-3.49-1.164-1.158-0.156-2.296-0.29-3.777-0.29-1.695 0.02-2.308 0.525-3.49 1.162-0.54 0.796-1.234 1.542-2.033 2.326-0.64 0.94-1.2 1.342-2.326 2.325-0.618 0.908-1.26 1.362-1.745 2.908 0 1.34-0.016 2.86 0.29 3.78 0.19 1.408 0.537 2.116 0.582 3.777 0 1.527-0.1 2.77-0.58 4.07-0.322 1.443-0.874 2.345-1.454 3.78-0.305 0.914-0.49 2.51-0.582 3.778 0.215 1.214 0.8 2.39 1.164 3.778 0.35 1.407 0.636 2.618 1.163 3.49 0.338 1.12 0.843 1.016 0.872 2.615 0 1.578 0.27 2.254 0.29 3.78 0.433 0.867 0.64 2.288 0.87 3.487 0.693 0.84 0.866 1.73 2.036 2.326 0.25-1.4 0.48-2.477 0.58-3.78 0.17-0.94 0.22-2.594 0.583-3.196 0.316 1.163 0.844 1.743 1.162 2.906 0.555 0.673 1.034 1.98 1.453 2.907 0.597 0.163 0.58-0.055 0.58-1.163 0.343-1.026 0.536-2.213 0.873-3.488v-1.162c0.72 0.828 1.21 1.966 1.744 2.906 0.547 0.804 1.107 1.63 2.035 2.326 1.398 0.33 1.163 0.002 1.163-1.454v-4.07c0.06 1.636 0.533 1.957 0.872 3.198 0.682 0.682 1.005 1.27 2.325 1.454 0.575-0.933 1.174-1.425 1.744-2.616 0-1.603 0.127-2.526 0.583-3.488 0.865-1.074 1.252-1.46 2.325-2.326 1.133-1.01 2.21-2.012 3.488-2.616 0.715-1.03 1.562-1.705 2.616-2.616 1.182-1.095 2.178-2.384 2.907-3.78 0.846-0.846 1.62-2.282 2.034-3.778 0.774-1.214 1.026-2.623 1.163-4.36 0.62-1.418 1.156-2.802 1.453-4.36 0-1.563-0.125-2.846-0.29-4.07-0.72-1.21-1.198-2.683-1.745-3.488-0.343-1.076-1.164-2.38-1.453-3.488-0.746-1.395-0.672-1.87-2.616-2.034-0.914 0-0.784-0.113-2.035-0.582z" transform="matrix(1.3937 0 0 1.436 301.24 111.57)" fill-rule="evenodd"/>
<path fill="none" d="m55.52 129.46v0.29c0-0.784-0.02-0.385 0.29 1.163 0.156 1.16 0.29 2.298 0.29 3.78 0 1.48 0.134 2.618 0.29 3.778 0.146 1.207 0.404 1.858 1.454 2.617m0.582-4.65c0.205 0 0.313 0.895 0.872 1.454 0.294 1.078 0.82 2.19 1.453 3.488 0.288 1.485 0.694 2.205 1.164 3.197 0.273 0.68 0.377 1.566 0.872 2.034v-8.14c-0.266-1.487-0.57-2.418-0.872-3.778v-1.744m2.035 4.36c0.053 0.6 0.447 2.522 0.87 3.49 0.39 1.017 0.853 2.21 1.454 2.905 0.123 0.696 0.417 1.044 0.872 1.744 1.004-0.81 1.76-1.456 2.035-2.907 0.44-1.027 0.773-2.192 0.873-3.49 0.104-1.445 0.42-2.572 0.582-3.777 0-1.524-0.002-2.636-0.582-3.488l0.582 3.488c0-1.524-0.002-2.636-0.582-3.488m1.452 7.56v0.29c0-0.784-0.02-0.385 0.29 1.164 0.21 0.962 0.29 2.156 0.29 3.488-0.314 0.21-0.433 0.82-0.58 1.162m2.617-10.46v1.453c0 1.27 0.12 2.957-0.29 3.78 0 1.48-0.135 2.618-0.29 3.778 0.382 1.92 0.705-0.11 0.87-0.87 0.35-0.917 0.717-2.435 1.163-3.2 0.18-1.516 0.527-2.298 0.582-3.777 0.294-1.178 0.29-2.443 0.29-3.78m1.744-3.49c0.1 0 0.88 0.73 1.744 1.163 0.202 1.34 0.685 1.81 0.872 3.197v1.453m-2.908-7.84c0.374 0.156 1.73 1.1 2.326 1.453 0.798 0.08 1.08 0.116 1.163 0.872m-3.779-4.08h1.454c0.697 0.077 0.635 0.29 1.454 0.29" transform="matrix(1.3937 0 0 1.436 301.24 111.57)"/>
</g>
<g stroke-width="1pt" stroke="#2b2b2b" fill-rule="evenodd" fill="#d30f0f" fill-opacity=".996">
<path d="m186.32 126.27h-1.454c-1.3 0.238-1.723 0.858-2.325 1.744l2.326-1.744c-1.3 0.238-1.723 0.858-2.325 1.744m4.36-3.49l-0.29-0.29c0.64 0.64 0.424 0.316-1.163 0-0.972-0.202-1.063-0.202-2.035 0" transform="matrix(1.3937 0 0 1.436 301.01 112.55)"/>
<path d="m184.29 122.49h1.454c1.76 0.14 3.182 0.56 4.94 0.58 1.467 0 2.73-0.13 4.07-0.29 0.823-0.41 2.51-0.29 3.78-0.29 1.654 0 2.412 0.177 3.778 0.58 0.994 0.26 2.576 0.773 3.488 1.164 0.958 0.453 1.866 0.78 2.907 1.453 1.113 0.755 1.392 1.24 1.453 2.907-0.155 1.15-0.344 2.453-0.58 3.78 0.1 1.432 0.414 2.668 0.58 4.068 0.315 1.26 0.29 2.648 0.29 4.07-0.222 1.077-0.693 0.997-1.162 2.035 0.82 0.54 1.822 1.584 2.326 2.325 0.243 1.364 0.53 2.61 0.58 4.07 0 1.63-0.037 2.53-0.58 3.778-0.38 1.406-0.832 2-1.163 3.488-0.248 1.145-0.728 2.315-1.162 3.198-0.48 0.707-0.812 2.278-1.162 3.197-0.182 1.384-0.627 2.7-1.163 3.488-0.296 1.086-0.443 1.9-1.453 2.327-0.865-0.216-0.582-0.776-0.582-1.744 0.207-1.16 0.326-2.016 0-2.907-0.95-0.224-1.015 0.454-1.453 1.744-0.617 0.663-0.654 1.518-1.454 2.035-0.99 1.2-1.34 0.777-2.033-0.872 0-1.545-0.19-2.48-0.29-3.78-0.157-1.875-0.338 1.048-0.582 1.454-0.33 1.48-0.835 1.993-1.163 3.198-1.195 0.437-1.654 0.426-1.744-1.163 0.232-1.3 0.29-2.623 0.29-4.07-0.73-0.84-0.782-0.178-1.162 0.582-0.064 1.72-0.497 1.928-1.163 2.907-0.97 0.575-0.747 0.583-1.163-0.87-0.462-1.103-0.803-1.52-1.744-2.036-0.835-0.724-1.55-0.872-3.197-0.872-1.52-0.056-2.26-0.552-3.49-0.872-1.16-0.332-2.287-0.587-2.906-1.163-0.552-0.812-1.348-1.857-2.035-3.197-0.75-1.368-1.106-2.227-1.163-3.78-0.25-1.395-0.414-2.934-0.582-4.36-0.33-1.976-0.816-4.128-1.162-6.103-0.5-1.557-0.988-2.93-1.163-4.65-0.578-1.278-0.896-2.667-1.163-4.07 0-1.34-0.016-2.86 0.29-3.78 0.555-1.074 1.19-1.8 1.745-2.616 0.818-1.013 1.358-1.753 2.616-2.615 0.65-0.775 1.93-1.303 2.907-1.744 0.657-0.28 1.104-0.365 2.325-0.58z" transform="matrix(1.3937 0 0 1.436 301.01 112.55)"/>
<path d="m187.2 129.46v0.29c0-0.855 0.083-0.34-1.453 0.582-0.794 0.756-1.504 1.015-2.326 2.035-0.185 0.435-0.556 0.79 0 1.163m3.48-0.87v0.29c0-0.784-0.02-0.386 0.29 1.163 0.052 1.377 0.292 2 0.292 3.488-0.535 0.892-0.22 2.138 0.29 3.2 0.456 1.268 1.035 2.15 1.454 3.196 0.62 0.207 0.29-0.223 0.29-1.163-0.376-1.13-0.224-2.592 0-4.07v-3.487m5.23-3.19h-0.29c0.812 0 0.326-0.09-0.29 1.454v4.07c-0.307 0.92-0.292 2.438-0.292 3.778-0.31 1.425-0.515 1.846 1.163 2.325 0.44 0.677 1.017 1.068 1.455 1.744 0.552-1.362 1.137-2.595 1.453-4.068 0.465-0.84 0.654-2.56 0.872-3.78 0.48-0.58 1.085-1.655 1.453-2.324m2.04-2.91v0.29c0-0.784-0.02-0.385 0.29 1.163 0.023 1.27 0.29 2.194 0.29 3.488-0.57 0.844-0.652 2.03-1.16 3.2-0.51 1.378-0.854 2.445-0.873 4.068 0 0.976-0.26 2.032 0.58 1.454 0.6-1.287 1.108-2.683 1.454-4.07 0.64-1.262 0.994-2.224 1.455-3.197 0.152-1.278 0.18-2.867 0.58-4.07l-0.58 4.07c0.152-1.278 0.18-2.867 0.58-4.07m4.36-4.36l-0.29 0.29c0.573-0.572 0.324-0.423 0 0.873 0 1.336 0.15 3.187-0.29 4.07-0.207 1.73-0.457 2.274-1.454 3.487-0.202 0.505-0.58 1.26-0.872 1.454m-13.66-0.29v0.29c0-0.784 0.02-0.385-0.29 1.164-0.556 0.64-1.385 1.872-1.745 2.906-0.24 0.08-0.79 0.29-0.29 0.29m1.45-1.45h0.29c-0.812 0-0.327-0.09 0.29 1.453 0.234 0.932 0.64 0.812 0.873 1.744" transform="matrix(1.3937 0 0 1.436 301.01 112.55)"/>
</g>
<path d="m77.32 201.26c-0.275 0-0.166 0.743-0.29 1.744v4.07c0.188 1.44 0.683 2.802 1.453 3.488 0.463 0.463 1.443 1.204 2.034 1.744 0-1.544 0.19-2.48 0.29-3.78 0.488-0.83 0.638-2.132 1.164-2.906 0.13-1.667 0.73-1.68 1.164-3.197 0.497-0.723-0.534-0.786-1.454-0.872-1.085-0.254-2.104-0.616-2.907-1.162l2.907 1.163c-1.085-0.254-2.104-0.616-4.36-0.29zm15.115-0.58h-0.29c0.855 0 0.34-0.084-0.582 1.453 0 1.41 0.067 2.75 0.29 3.78 0.6 0.725 0.813 1.918 1.163 2.906 0.52 0.32 0.844-0.468 1.163-1.164 0.588-1.454 1.25-2.135 1.452-3.488 0.32-1.17 0.868-1.652 1.163-2.907-0.617-1.29-0.944-1.848-2.616-2.033-0.73 0.73-0.18 0.202-1.745 1.453zm76.155-0.29h0.29c-0.157 0.42-0.29 1.73-0.29 2.616-0.217 1.216-0.45 2.29 0 3.49 0.834 0.366 1.373 0.643 1.744 1.452 0.68 0.572 0.83 0.87 0.872-0.58 0.63-1.39 0.928-1.737 1.744-2.908 0.577-0.987 0.8-1.656 0.58-3.198-0.75-1.522-1.175-1.7-2.906-2.034-1.823 0-1.797 1.36-2.325 2.616m14.54 0.29h-0.29c0.232 0.608 0.58 1.864 0.58 2.907 0.232 1.3 0.29 2.624 0.29 4.07-0.172 1.155-0.464 1.162 0.873 1.162 0.544-1.296 0.973-2.27 1.744-2.907 0.372-1.222 0.815-1.956 0.872-3.49 0-1.2 0.09-2.726-0.29-3.487-2.11 0-2.042 0.29-3.78 1.744zm12.79-6.39h-0.29c0.81 0 0.38-0.035-1.164 0.582-0.72 0.943-1.826 1.415-1.453 2.907 1.453 0.49 2.267 0.847 2.907 1.743 0.925 0.508 1.596 0.89 2.034 1.744 0.53 0.353 0.84 0.906 1.163 1.453-0.174-1.463-0.48-2.444-0.58-3.78-0.02-1.645-0.31-2.234-0.873-3.196-0.118-1.055-0.425-0.815-1.744-1.454zm2.03-5.82h-0.29c0.855 0 0.373-0.05-1.163 0.872-0.65 1.176-0.667 2.17-0.29 3.197 1.423 0.21 1.994 0.83 2.615 1.743 0.867 0.867 1.468 1.452 2.326 2.035-0.622-1.06-1.178-2.025-1.454-3.197-0.048-1.292-0.26-2.232-0.58-3.197l0.58 3.198c-0.048-1.292-0.26-2.232-1.744-4.65zm-128.19 5.82c-0.098 0-0.93 0.537-1.453 1.163-1.415 0.78-2.176 1.23-2.327 2.907-0.05 1.377-0.29 2-0.29 3.488 0.41 0.412 0.074 1.67 0.58 1.163 0.887-0.974 1.343-1.86 2.326-2.615 0.658-0.628 1.88-1.288 2.906-1.744 1.626-0.472 1.5-0.312 0.58-1.743-0.516-0.876-1.198-1.35-2.324-2.617zm-2.035-5.52h-0.29c0.855 0 0.373-0.05-1.163 0.872-0.728 0.91-1.626 1.173-2.035 2.325-0.678 0.82-0.855 1.654-0.873 3.197 0.027 0.94 0.18 1.826 0.58 2.326 0.39-1.094 0.862-1.74 2.036-2.326 0.722-0.467 0.92-1.093 1.744-1.453 0.6-0.255 1.26-0.1 1.453-0.87-0.19-1.783-0.728-2.305-1.453-4.07z" fill-opacity=".996" fill-rule="evenodd" transform="matrix(1.3937 0 0 1.436 301.01 110.05)" stroke="#000" stroke-width="1pt" fill="#000f0f"/>
<path d="m89.82 181.2v0.29c0-0.855 0.05-0.374-0.873 1.163-1.014 0.405-1.907 0.58-3.488 0.58-0.882 0.662-1.458 0.458-2.036 1.745-0.78 0.817-1.136 1.27-2.325 1.745-1.342 0-2.86 0.015-3.78-0.29-0.976-0.528-2.37-0.92-3.488-1.164-1.578 0.018-2.367 0.39-3.488 0.87-1.2 0.284-1.955 0.654-2.617 1.455-0.78 0.312-0.78 0.78-0.872 1.744 0.415 0.69 0.037 1.068 0.872 1.16 0.465 0.57 0.582 0.59 0.582 1.745 0.31 1.25 0.268 2.82 0.58 4.07 0.67 1.595 1.176 1.722 2.326 2.616 0.997 0.473 1.71 0.93 2.906 1.454 1.07 0.55 2.358 0.627 3.488 0.872 0.93 1.097 1.525 1.532 2.907 2.035 1.426-0.214 1.65-0.82 2.907-1.162 0.49-0.49 1.255-0.09 1.744-0.872 0.427-0.823 0.616-2.682 1.163-3.488 0.64-1.294 1.513-1.95 2.908-2.325 0.765-0.574 1.65-0.645 2.616-0.29-0.064 1.725-0.616 1.796-0.872 3.197-0.5 0.922-0.818 1.737-0.29 2.616 1.214 0.405 2.678 0.29 4.07 0.29 1.875-0.316 2.01-0.745 2.033-2.616-0.277-1.177-0.697-1.9-0.872-3.197 0-0.898-0.074-1.84 0.29-2.326 0.608 0.223 2.01 0.36 2.617 0.582 0.497 0.993 0.92 1.25 2.035 0.87 0.353-0.55 0.893-0.952 1.163-1.453 0.294 0.8 0.865 1.516 1.453 1.163 0.614-1.28 1.04-1.684 2.326-2.035 1.23-0.267 2.04-0.63 2.907-1.162 0.88-0.542 1.427-1.245 2.326-1.744 0.615-0.963 1.24-1.602 1.452-3.2 0-1.71-0.346-2.84-0.58-4.36-0.65-1.016-0.968-2.113-2.036-2.906-0.847-0.508-2.038-0.124-3.198 0-1.3-0.1-2.234-0.29-3.778-0.29-1.49 0-2.64 0.24-4.07 0.29h-4.07c-1.686 0-2.57 0.236-3.778 0.872-0.856 0-0.24-0.083-1.163 1.454zm67.73 10.47c0.5 0.125 1.824 0.77 2.907 0.872 1.127 0.06 0.872 0.365 0.872 1.453 0.416 0.24 0.82 0.91 1.452 1.163 0.232-0.43 0.702-1.1 1.163-1.453 0.27 0.627 0.575 1.305 1.453 1.744 0.737-1.4 0.674-1.722 2.616-1.745 1.222 1.16 0.858 2.235 0 3.197-0.428 1.24-0.61 2.314-0.872 3.78 0.57 0.704 1.325 0.58 2.616 0.58 0.872-0.522 2.01-0.274 2.616 0.29 1.745-0.086 1.68-0.316 1.744-2.034v-4.07c0.643-0.642 1.335-0.815 2.035-0.29 0.726 0.6 1.075 1.992 1.744 2.907 0.1 1.278 0.257 2.453 0.872 3.197 0.655 1.37 0.87 1.68 2.615 1.744 1.522-0.018 2.365-0.228 3.78-0.58 1.3-0.24 1.723-0.86 2.325-1.745 1.44-0.386 1.842-0.81 3.488-0.87 1.497-0.334 1.958-0.87 2.906-1.454 0.626-0.723 0.904-1.807 1.454-2.617 0.435-1.087 0.963-1.586 1.163-2.907 0.12-1.548 0.747-1.91 1.163-3.198 0.258-1.03-0.256-1.678-1.162-2.325-0.745-0.647-1.833-0.805-2.906-1.163h-8.14c-1.482 0-2.682-0.19-4.07-0.29-1.17-0.677-1.723-1.125-2.615-2.035-1.262-0.188-2.46-0.898-3.49-1.454-0.82-1.018-1.63-1.195-2.324-2.034-1.183-0.502-1.79-1.153-3.198-1.744-1.2-0.64-1.873-0.97-3.488-1.163-1.387-0.1-2.587-0.29-4.07-0.29-1.674 0-2.582 0.49-3.778 0.87-1.01 1.067-1.767 1.155-2.035 2.617-0.41 0.823-0.29 2.508-0.29 3.78 0.29 1.362 0.873 2.668 1.162 3.778 0.114 1.224 0.29 1.87 0.29 3.488z" fill-opacity=".996" fill-rule="evenodd" transform="matrix(1.3937 0 0 1.436 301.01 110.05)" stroke="#2b2b2b" stroke-width="1pt" fill="#d40f0f"/>
<path stroke="#2b2b2b" stroke-width="1pt" fill="none" d="m82.843 189.92c-0.633-0.093-2.847-0.29-4.36-0.29-1.166 0.253-2.077 0.528-3.488 0.58-1.07 0.252-2.182 0.565-2.907 1.163-0.976 0.092-1.28 0.403-2.325 0.582m13.371 0.58h-0.29c0.855 0 0.373-0.05-1.163 0.872-1.153 1.008-1.957 1.514-2.616 2.907-0.788 0.656-1.01 1.24-2.034 1.452-0.608 0.646-1.217 1.217-1.744 1.744m105.8-6.11h0.29c-0.812 0-0.38-0.036 1.163 0.58 1.216 1.063 1.267 1.596 2.907 1.745 1.532 0.558 1.696 0.89 2.325 2.326 0.212 0.494 0.29 0.916 0.29 1.745m-6.39-10.18c0.468 0.18 2.12 1.062 3.197 1.163 1.16 0.157 2.298 0.29 3.78 0.29 1.368 0.186 2.075 0.62 3.487 1.163h2.326" transform="matrix(1.3937 0 0 1.436 301.01 110.05)"/>
<path fill="#0068bd" d="m480.25 243.06c-0.214 4.673-1.547 7.426-6.033 7.426-3.015 0-6.087-2.19-6.03-4.95 0.056-2.76 3.84-2.928 6.444-2.7 0.924-2.25-3.43-4.724-15.493-4.724-11.944-0.13-21.224 10.236-36.9 9.9-15.676-0.337-22.634-15.93-19.653-19.8-1.168 3.445-3.8 5.585-4.968 9.03-1.17 3.445 4.183 8.244 3.015 11.69-1.168 3.443-8.856 5.535-10.024 8.98s-0.87 8.195-2.04 11.64c0-2.475 5.347-8.344 12.5-8.344 6.03 0 25.953-3.776 27.144 37.125 0 32.203-23.93 33.474-31.582 31.19-0.018 3.88 2.654 15.95 14.884 28.3 13.133 12.375 28.303 14.103 31.28 13.93-1.4-3.444-7.152-7.424-1.717-7.47 3.613 0.046 4.758 6.434 4.758 6.434s5.88-3.665 7.838-1.838c1.89 2.874-5.967 5.35-5.967 5.35s3.988 7.79 9.047 12.374c6.033 6.54 14.768 8.716 18.097 8.804 1.618 0.043 4.745 1.09 4.633 3.572-0.224 4.942-0.217 7.33-3.136 7.424h21.702c-2.92-0.095-2.912-2.482-3.136-7.424-0.112-2.483 3.016-3.53 4.633-3.572 3.328-0.088 12.064-2.263 18.096-8.804 5.06-4.584 9.05-12.375 9.05-12.375s-7.86-2.476-5.97-5.35c1.96-1.828 7.84 1.837 7.84 1.837s1.145-6.388 4.758-6.433c5.435 0.045-0.317 4.025-1.717 7.47 2.978 0.172 18.148-1.556 31.283-13.93 12.228-12.35 14.9-24.42 14.882-28.302-7.652 2.285-31.583 1.014-31.583-31.19 1.19-40.9 21.112-37.124 27.144-37.124 7.152 0 12.5 5.87 12.5 8.344 0 0.617 0.69-3.515-0.625-7.275-1.316-3.76-7.885-6.47-9.637-11.79-1.752-5.322 1.314-13.257 0-17.326-1.315-4.067-3.756-4.95-3.756-4.95 2.98 3.87-3.978 19.464-19.655 19.8-15.676 0.337-24.956-10.028-36.9-9.9-12.065 0-16.417 2.476-15.494 4.724 2.603-0.227 6.39-0.058 6.446 2.702s-3.017 4.95-6.033 4.95c-4.484 0-5.817-2.754-6.03-7.425h-13.893z" fill-rule="evenodd"/>
<g stroke="#000">
<path stroke-width="1.25" fill="#e8e1cb" d="m215.15 278.72c0 230.52-140.57 239.62-185.51 223.26-0.11 27.793 15.59 114.18 87.422 202.59 77.143 88.58 166.25 100.95 183.74 99.72-8.22-24.66-42.01-53.15-10.087-53.47 21.226 0.32 27.953 46.05 27.953 46.05s34.536-26.24 46.04-13.16c11.11 20.58-35.05 38.3-35.05 38.3s23.432 55.77 53.15 88.58c35.434 46.82 86.746 62.39 106.3 63.02 9.5 0.31 27.872 7.8 27.21 25.57-1.314 35.376-1.272 52.466-18.418 53.146h127.47c-17.146-0.68-17.104-17.77-18.42-53.146-0.66-17.77 17.71-25.26 27.212-25.57 19.554-0.63 70.866-16.2 106.3-63.02 29.718-32.81 53.15-88.58 53.15-88.58s-46.16-17.72-35.05-38.3c11.504-13.08 46.04 13.16 46.04 13.16s6.727-45.73 27.953-46.05c31.923 0.32-1.866 28.81-10.087 53.47 17.494 1.23 106.6-11.14 183.75-99.72 71.83-88.41 87.53-174.8 87.42-202.59-44.95 16.356-176.21 16.558-176.21-213.96-2.107-9.15-2.776-27.288-4.275-35.824-1.5-8.535-35.472 26.766-38.855 26.587-11.423-0.36-46.732-32.686-71.856-37.07-11.852-1.894-50.628 33.304-60.175 33.993-12.495 0.726-28.51-35.973-55.13-32.205-19.595 3.104-35.643 36.54-40.445 31.76-12.35-12.3-25.95-20.023-41.7-22.943-23.548-2.04-36.935 16.41-49.59 31.592-0.443-12.396-17.165-24.792-36.213-23.235-13.7-139.99-122.91-282.93-131.79-287.41-6.594-2.637-4.08 13.602-6.118 20.403-16.62-4.56-33.238-9.123-49.858-13.684-3.18 8.084-1.712 16.17-9.545 24.254-19.862-14.947-30.422-43.847-45.632-44.842-5.423 17.81-1.544 54.223-2.316 81.335l-37.724-25.094-3.03 26.54c-1.215 10.632-51.205-28.6-61.017-28.855-9.81-0.254-21.478 27.454-30.294 27.305-8.817-0.15 56.995 42.98 73.293 238.09z" transform="matrix(.1702 0 0 .1397 391.58 259.4)" fill-rule="evenodd"/>
<path stroke-width="1pt" d="m199.99 175.68s23.255-32.556 51.16-27.905c27.905 4.65 58.135 106.97 58.135 106.97m-30.23-213.95c0 4.65 18.603 79.065 34.88 102.32 16.28 23.254 53.486 41.857 72.09 69.762 18.603 27.906 27.904 104.64 27.904 104.64m-93.01-311.6s6.977 37.207 18.604 65.112 39.532 37.206 53.484 60.46c13.953 23.255 23.255 69.763 23.255 69.763m-204.65 134.88s32.555-4.65 60.46 32.556c27.906 37.207 32.556 86.04 32.556 86.04m509.27-169.76s20.93-2.326 34.88 13.952c13.954 16.278 11.628 27.905 9.303 27.905m-46.51-18.59s18.603 0 25.58 4.65c6.976 4.652 9.3 27.906 9.3 27.906" transform="matrix(.1702 0 0 .1397 391.58 259.4)" fill="none"/>
<path stroke-width="1pt" d="m799.95 331.48c2.325 0 16.278-13.952 25.58-9.302 9.3 4.65 11.626 30.23 11.626 30.23m-48.84-9.3s16.278-2.325 25.58 4.65 6.976 18.604 6.976 18.604m-79.07-23.25c2.325 0 30.23 9.302 41.858 20.93 11.627 11.626 9.3 37.206 9.3 37.206m81.39-44.19s6.976-4.65 23.254 9.3c16.278 13.954 18.604 30.232 18.604 30.232m-44.18-13.95s18.603 2.326 27.905 9.302c9.3 6.976 23.254 23.254 23.254 23.254m-58.13-2.32s23.255-9.302 32.556-4.65c9.302 4.65 25.58 18.602 25.58 18.602" transform="matrix(.1702 0 0 .1397 391.58 259.4)" fill="none"/>
</g>
<g stroke-width="1pt">
<path stroke="#000" transform="matrix(.0928 -.0335 .0396 .074 487.06 299.89)" fill="#b03f00" d="m-301.18-134.65v442.91h17.716v-442.91l-8.858-35.433-8.858 35.433z" fill-rule="evenodd"/>
<path stroke="#000" transform="matrix(.0928 -.0335 .0396 .074 513.36 290.4)" fill="#b03f00" d="m-301.18-134.65v407.48h17.716v-407.48l-8.858-35.433-8.858 35.433z" fill-rule="evenodd"/>
<g stroke="#000" fill="none">
<path d="m-283.46-99.213l17.717 336.61" transform="matrix(.0928 -.0335 .0472 .088 514.11 291.79)"/>
<path d="m-318.9-99.212l53.15 336.61" transform="matrix(.0928 -.0335 .0472 .088 517.39 290.61)"/>
<path d="m-354.33-99.212l88.584 336.61" transform="matrix(.0928 -.0335 .0472 .088 520.68 289.42)"/>
<path d="m-389.76-99.212l124.01 336.61" transform="matrix(.0928 -.0335 .0472 .088 523.97 288.23)"/>
<path d="m-283.46-99.213l17.717 336.61" transform="matrix(-.0928 .0335 .0472 .088 459.88 311.37)"/>
<path d="m-318.9-99.212l53.15 336.61" transform="matrix(-.0928 .0335 .0472 .088 456.59 312.56)"/>
<path d="m-354.33-99.212l88.584 336.61" transform="matrix(-.0928 .0335 .0472 .088 453.3 313.75)"/>
<path d="m-389.76-99.212l124.01 336.61" transform="matrix(-.0928 .0335 .0472 .088 450.02 314.93)"/>
<path d="m-407.48-99.212l177.16 354.33" transform="matrix(-.0928 .0335 .0472 .088 448.38 315.53)"/>
<path d="m-407.48-99.212l177.16 354.33" transform="matrix(.0928 -.0335 .0472 .088 525.61 287.64)"/>
<path d="m-407.48 184.25h301.18m-17.72-35.43h-265.75m17.72-35.43h230.32m-17.72-35.437h-194.88m17.72-35.433c0 0.58 159.45 0 159.45 0m-17.72-35.433h-124.02m17.72-35.433c0.58 0 89.343 0.034 88.583 0m-70.86-35.434h53.15" transform="matrix(.0928 -.0335 .0472 .088 510.82 292.98)"/>
<path d="m-283.46-99.213l17.717 336.61" transform="matrix(.0928 -.0335 .0472 .088 488.65 302.85)"/>
<path d="m-318.9-99.212l53.15 336.61" transform="matrix(.0928 -.0335 .0472 .088 491.94 301.66)"/>
<path d="m-354.33-99.212l88.584 336.61" transform="matrix(.0928 -.0335 .0472 .088 495.22 300.47)"/>
<path d="m-389.76-99.212l124.01 336.61" transform="matrix(.0928 -.0335 .0472 .088 498.51 299.29)"/>
<path d="m-283.46-99.213l17.717 336.61" transform="matrix(-.0928 .0335 .0472 .088 434.42 322.43)"/>
<path d="m-318.9-99.212l53.15 336.61" transform="matrix(-.0928 .0335 .0472 .088 431.14 323.61)"/>
<path d="m-354.33-99.212l88.584 336.61" transform="matrix(-.0928 .0335 .0472 .088 427.85 324.8)"/>
<path d="m-389.76-99.212l124.01 336.61" transform="matrix(-.0928 .0335 .0472 .088 424.56 325.99)"/>
<path d="m-407.48-99.212l177.16 354.33" transform="matrix(-.0928 .0335 .0472 .088 422.92 326.58)"/>
<path d="m-407.48-99.212l177.16 354.33" transform="matrix(.0928 -.0335 .0472 .088 500.15 298.69)"/>
<path d="m-407.48 184.25h301.18m-17.72-35.43h-265.75m17.72-35.43h230.32m-17.72-35.437h-194.88m17.72-35.433c0 0.58 159.45 0 159.45 0m-17.72-35.433h-124.02m17.72-35.433c0.58 0 89.343 0.034 88.583 0m-70.86-35.434h53.15" transform="matrix(.0928 -.0335 .0472 .088 485.36 304.03)"/>
</g>
<g stroke="#000" fill="#b03f00" fill-rule="evenodd">
<path d="m-407.48 237.4h372.05v53.15l17.717 17.716h-17.717v35.43h17.717l-17.717 17.715 53.15 70.866-106.3 212.6h-566.93v-283.46h88.583v-70.865h53.15l106.3-53.15zm-159.45 124.02h531.5" transform="matrix(.0928 -.0335 .0396 .074 510.07 291.58)"/>
<path d="m-566.93 361.42h531.5" transform="matrix(.0928 -.0335 .0396 .074 509.37 290.27)"/>
<path d="m-566.93 361.42h531.5" transform="matrix(.0928 -.0335 .0396 .074 507.96 287.65)"/>
<path d="m-566.93 361.42h531.5" transform="matrix(.0835 -.03 .0396 .074 506.93 286.46)"/>
<path d="m-35.433 361.42l-141.73 283.46m-230.32-372.04h230.32m-265.75-17.72c34.35 1.54 407.48 0 407.48 0m-17.72 0l-17.716 35.433m0 17.72l-17.717 35.433m-141.74-35.43l-17.716 35.433m35.44-35.43l-17.717 35.433m177.17 53.15h-88.582l17.716-35.433" transform="matrix(.0928 -.0335 .0396 .074 510.07 291.58)"/>
<path d="m-70.866 432.28h-88.583l18.762-36.853-1.044 1.42m53.147 70.87h-88.582l17.716-35.434" transform="matrix(.0928 -.0335 .0396 .074 510.07 291.58)"/>
<path d="m-106.3 503.15h-88.583l17.717-35.433" transform="matrix(.0928 -.0335 .0396 .074 510.07 291.58)"/>
<path d="m-124.02 538.58h-88.582l17.716-35.433" transform="matrix(.0928 -.0335 .0396 .074 510.07 291.58)"/>
<path d="m-124.02 538.58h-88.582l17.716-35.433" transform="matrix(.0928 -.0335 .0396 .074 509.83 294.8)"/>
<path d="m-53.15 396.85l70.866 35.433m-106.3 35.44l70.866 35.433m-142.73-69.35l-495.32-1.16m480.2 36.04c-1.162 1.162-480.2-2.326-480.2-2.326m443.17 72.23c-35.433 0-442.91 0-442.01 1.023" transform="matrix(.0928 -.0335 .0396 .074 510.07 291.58)"/>
<path d="m-212.6 539.61s-442.91-1.023-442.01 0" transform="matrix(.0892 -.0322 .0396 .074 509.04 294.99)"/>
<path d="m-124.02 538.58h-88.582l17.716-35.433" transform="matrix(.0928 -.0335 .0396 .074 509.59 298.01)"/>
<path d="m-124.02 538.58h-88.582l17.716-35.433" transform="matrix(.0928 -.0335 .0396 .074 509.36 301.22)"/>
<path d="m-442.91 379.13l-17.717 17.716v35.433h70.866l17.716-17.717" transform="matrix(.0928 -.0335 .0264 .0493 510.15 302.71)"/>
<path d="m-442.91 379.13l-17.717 17.716v35.433h70.866l17.716-17.717" transform="matrix(.0928 -.0335 .0264 .0493 521.65 298.55)"/>
<path d="m-442.91 379.13l-17.717 17.716v35.433h70.866l17.716-17.717" transform="matrix(.0928 -.0335 .0264 .0493 514.37 310.57)"/>
<path d="m-442.91 379.13l-17.717 17.716v35.433h70.866l17.716-17.717" transform="matrix(.0928 -.0335 .0264 .0493 525.87 306.41)"/>
</g>
<path d="m479.05 336.26l6.576-2.374 0.935 1.748-6.575 2.375zm11.51-4.16l6.577-2.374 0.935 1.748-6.577 2.374zm-7.3 12.02l6.575-2.374 0.935 1.747-6.576 2.374zm11.51-4.15l6.576-2.374 0.936 1.75-6.578 2.373z" fill-rule="evenodd"/>
<path stroke="#000" fill="#b03f00" d="m-301.18-99.213h88.583v17.717h-88.583zm-283.47 0h88.583v17.717h-88.583z" transform="matrix(.0928 -.0335 .0396 .074 510.07 291.58)" fill-rule="evenodd"/>
<g stroke="#000" fill="none">
<path d="m-407.48 237.4v-17.717h372.05v17.72m-354.33-17.72v17.717" transform="matrix(.0928 -.0335 .0396 .074 510.07 291.58)"/>
<path d="m-389.76 219.68v17.717" transform="matrix(.0928 -.0335 .0396 .074 511.71 290.99)"/>
<path d="m-389.76 219.68v17.717" transform="matrix(.0928 -.0335 .0396 .074 513.36 290.4)"/>
<path d="m-389.76 219.68v17.717" transform="matrix(.0928 -.0335 .0396 .074 515 289.8)"/>
<path d="m-389.76 219.68v17.717" transform="matrix(.0928 -.0335 .0396 .074 516.64 289.21)"/>
<path d="m-389.76 219.68v17.717" transform="matrix(.0928 -.0335 .0396 .074 518.29 288.62)"/>
<path d="m-389.76 219.68v17.717" transform="matrix(.0928 -.0335 .0396 .074 519.93 288.02)"/>
<path d="m-389.76 219.68v17.717" transform="matrix(.0928 -.0335 .0396 .074 521.57 287.43)"/>
<path d="m-389.76 219.68v17.717" transform="matrix(.0928 -.0335 .0396 .074 523.22 286.84)"/>
<path d="m-389.76 219.68v17.717" transform="matrix(.0928 -.0335 .0396 .074 524.86 286.24)"/>
<path d="m-389.76 219.68v17.717" transform="matrix(.0928 -.0335 .0396 .074 526.5 285.65)"/>
<path d="m-389.76 219.68v17.717" transform="matrix(.0928 -.0335 .0396 .074 528.15 285.06)"/>
<path d="m-389.76 219.68v17.717" transform="matrix(.0928 -.0335 .0396 .074 529.79 284.46)"/>
<path d="m-389.76 219.68v17.717" transform="matrix(.0928 -.0335 .0396 .074 531.43 283.87)"/>
<path d="m-389.76 219.68v17.717" transform="matrix(.0928 -.0335 .0396 .074 533.08 283.28)"/>
<path d="m-389.76 219.68v17.717" transform="matrix(.0928 -.0335 .0396 .074 534.72 282.68)"/>
<path d="m-389.76 219.68v17.717" transform="matrix(.0928 -.0335 .0396 .074 536.36 282.09)"/>
<path d="m-389.76 219.68v17.717" transform="matrix(.0928 -.0335 .0396 .074 538.01 281.5)"/>
<path d="m-389.76 219.68v17.717" transform="matrix(.0928 -.0335 .0396 .074 539.65 280.9)"/>
<path d="m-389.76 219.68v17.717" transform="matrix(.0928 -.0335 .0396 .074 541.29 280.31)"/>
</g>
</g>
<g stroke="#000">
<path stroke-width="1.25" fill="#00c8ff" d="m32.92 551.31c-0.11 27.793 12.3 64.848 84.133 153.26 77.143 88.58 166.25 100.95 183.74 99.72-8.22-24.66-42.01-53.15-10.087-53.47 21.226 0.32 27.953 46.05 27.953 46.05s34.535-26.24 46.04-13.16c11.11 20.58-35.05 38.3-35.05 38.3s23.43 55.77 53.15 88.58c35.433 46.82 86.745 62.39 106.3 63.02 9.5 0.31 27.87 7.8 27.21 25.57-1.315 35.376-1.273 52.466-18.42 53.146h127.47c-17.145-0.68-17.103-17.77-18.418-53.146-0.66-17.77 17.71-25.26 27.21-25.57 19.555-0.63 70.867-16.2 106.3-63.02 29.72-32.81 53.15-88.58 53.15-88.58s-46.16-17.72-35.05-38.3c11.505-13.08 46.04 13.16 46.04 13.16s6.728-45.73 27.954-46.05c31.923 0.32-1.866 28.81-10.087 53.47 17.493 1.23 106.6-11.14 183.75-99.72 71.83-88.41 87.53-151.78 87.42-179.57-2.81 1.02-59.78-13.78-69.48-4.288-12.98-10.24-38.09-20.59-57.602-20.965-22.8-0.377-43.29 9.22-50.318 25.712-13.606-19.683-53.266-29.56-61.64-28.273-27.334 4.704-44.375 41.317-35.42 87.337-20.64-19.754-27.997-21.696-51.11-21.76-50.423-0.12-55.38 89.82-129.14 89.282-58.4-0.444-83.08-31.417-100.29-53.8 22.25-19.09 20.85-26.543 6.13-45.764-16.69-18.06-42.763-16.443-60.66 1.805-17.896-17.717-18.058-28.043-35.775-53.15-17.315-24.538-29.608-26.967-61-26.84-31.39 0.128-55.464 1.804-67.577 34.69-15.402 8.594-37.213 26.566-54.09 23.02-10.297-28.04-43.227-60.616-70.99-61s-72.79 56.44-82.746 82.924c-17.683-37.06-36.276-42.13-51.79-42.9-15.51-0.77-21.082 24.88-27.18 40.31z" transform="matrix(.1702 0 0 .1397 391.58 259.4)" fill-rule="evenodd"/>
<path stroke-width="1pt" d="m167.72 490s16.443 9.866 36.175 39.464 3.29 42.752 3.29 42.752" transform="matrix(.1702 0 0 .1397 391.58 259.4)" fill="none"/>
<path stroke-width="1pt" d="m184.16 506.45s32.886 3.29 46.04 26.31c13.156 23.02 6.578 49.33 6.578 49.33m-16.44 49.33s23.02-55.907 65.773-32.887c42.752 23.02 39.464 59.196 36.175 59.196h-3.29v3.288m-55.9 26.3s23.02-9.866 49.33 0 9.866 32.886 9.866 32.886" transform="matrix(.1702 0 0 .1397 391.58 259.4)" fill="none"/>
<path stroke-width="1pt" d="m259.8 700.48s26.31-6.577 42.752 3.29 3.29 26.308 3.29 26.308m-105.23-19.74s3.29 26.31 19.732 42.753c16.443 16.443 46.04 23.02 46.04 23.02m95.37-52.61c32.886 16.443 39.463 46.04 39.463 46.04m-26.31-59.2c49.33 0 46.04 29.598 46.04 29.598m-118.38-187.45s29.598-23.02 69.062 0c39.463 23.02 16.443 52.62 16.443 52.62m-65.77-92.09s39.464-26.31 72.35 0c32.887 26.31 23.02 46.04 23.02 46.04m19.73-29.59l19.73 32.886c9.867 16.444 26.31 13.155 26.31 13.155m42.75 72.34s23.02 32.887 75.64 39.464c52.617 6.577 98.658-13.155 98.658-13.155m-174.3 16.45s29.598 29.598 69.06 29.598c39.465 0 95.372-16.443 95.372-16.443m-164.43 16.44s16.443 26.31 75.64 26.31c59.194 0 85.503-13.155 85.503-13.155m-164.43 26.31s6.578 13.155 36.175 19.732c29.598 6.577 59.196-9.866 59.196-9.866m0 16.45s19.732 26.31 46.04 26.31 0-39.464 19.733-46.042c19.732-6.577 49.33 0 49.33 0" transform="matrix(.1702 0 0 .1397 391.58 259.4)" fill="none"/>
<path stroke-width="1pt" d="m605.11 825.45s19.732 26.31 49.33 19.732c29.598-6.578 65.773-55.907 65.773-55.907l23.02-16.443m-355.17 115.1s3.288-16.443 39.464-9.866c36.175 6.577 0 55.907 39.463 55.907 39.464 0 75.64-23.02 98.66-26.308 23.02-3.29 65.772 23.02 88.793 29.598 23.02 6.577 65.773-26.31 65.773-26.31m-151.26 46.04c3.29 0 13.155-6.578 36.175-3.29 23.02 3.29 49.33 3.29 49.33 3.29m-95.37 32.89s16.444-6.577 29.598-6.577c13.155 0 9.866 19.73 9.866 19.73m-115.11-378.16c-3.29 0 16.443 0 26.31 3.288 9.865 3.29 13.153 26.31 13.153 26.31m-42.75-6.58s13.154-6.577 26.31 0 6.576 29.598 6.576 29.598m-42.75-3.29c0-3.288 19.732-9.866 26.31-6.577s6.576 32.886 6.576 32.886m-39.47 9.86s16.443-13.154 26.31-13.154 6.576 23.02 6.576 23.02m-36.18 19.73l23.02-13.154 9.866 19.73m253.22-157.86s13.155-3.29 32.886 0c19.732 3.288 26.31 26.31 26.31 26.31m-52.62 0c0-3.29 19.732-3.29 26.31 0 6.577 3.288 16.443 19.732 16.443 19.732m-6.58 49.33c-3.288 0 3.29 13.155 6.578 29.598s-13.155 32.886-13.155 32.886m72.36-75.63c-3.288 0 19.732 23.02 23.02 42.752 3.29 19.732-16.443 39.464-16.443 39.464" transform="matrix(.1702 0 0 .1397 391.58 259.4)" fill="none"/>
<path stroke-width="1pt" d="m871.49 661.01s23.02 32.886 23.02 49.33c0 16.443-16.442 42.752-16.442 42.752m16.44-115.1s9.866 13.155 13.154 29.598c3.29 16.443-6.577 42.752-6.577 42.752m23.03-32.88s16.443 19.732 9.866 36.175c-6.578 16.443-19.732 29.598-19.732 29.598m36.17-55.92c-3.29 3.288 6.577 23.02 3.288 32.886-3.288 9.866-19.73 26.31-19.73 26.31m23.02-111.82c0 3.288 23.02 23.02 23.02 46.04s-13.154 46.042-13.154 46.042" transform="matrix(.1702 0 0 .1397 391.58 259.4)" fill="none"/>
<path stroke-width="1pt" fill="none" d="m920.82 598.53s16.443 3.29 19.732 19.732c3.29 16.444-9.866 32.887-9.866 32.887m-3.28-82.22s26.31 29.597 32.887 39.463c6.577 9.866-3.29 32.887-3.29 32.887" transform="matrix(.1702 0 0 .1397 382.21 254)"/>
<path stroke-width="1pt" fill="none" d="m920.82 565.64c3.29 3.29 32.886 3.29 46.04 19.732s6.578 46.04 6.578 46.04" transform="matrix(.1702 0 0 .1397 382.21 254)"/>
</g>
<path d="m503.45 7.085c5.813-4.65 24.417-15.115 59.298-13.953 34.88 1.162 59.3 17.44 59.3 17.44l-2.327-45.345s-23.25-11.627-54.64-11.627-58.136 6.976-58.136 6.976l-3.488 46.51z" fill-rule="evenodd" transform="matrix(.1702 0 0 .1507 391.58 247.79)" stroke="#000" stroke-width="1pt" fill="#ffd400"/>
<g stroke="#000" stroke-width="1.25" fill="#ffd400" fill-rule="evenodd">
<path d="m148.7 515.65c0 17.668 2.547 28.856 20.264 28.856 17.716 0 24.24-17.836 24.664-30.5 0.538-15.992 3.49-40.366 38.92-40.366 17.718 0 128.01-11.77 131.3 248.03s-184.24 206.72-184.24 206.72-20.174 88.58 90.068 232.5c84.663 104.07 205.54 106.88 205.54 106.88s18.724 41.77 56.29 95.64c54.317 77.9 124.02 61 124.02 78.72 0 17.71-17.546 9.92-17.718 25.93 0.172 19.42 9.363 27.9 26.51 27.22s17.103-17.77 18.418-53.15c0.66-17.77-17.71-25.26-27.21-25.57-19.555-0.63-70.867-16.2-106.3-63.02-29.72-32.81-53.15-88.58-53.15-88.58s46.16-17.72 35.05-38.3c-11.505-13.08-46.04 13.16-46.04 13.16s-6.728-45.73-27.954-46.05c-31.923 0.32 1.866 28.81 10.087 53.47-17.495 1.23-106.6-11.14-183.74-99.72-71.833-88.41-87.532-174.8-87.422-202.59 44.945 16.356 185.51 7.256 185.51-223.26-7.02-292.78-124.04-265.75-159.47-265.75-42.01 0-73.414 42.01-73.414 59.727z" transform="matrix(.1702 0 0 .1397 363.26 197.52)"/>
<path d="m148.7 515.65c0 17.668 2.547 28.856 20.264 28.856 17.716 0 24.24-17.836 24.664-30.5 0.538-15.992 3.49-40.366 38.92-40.366 17.718 0 128.01-11.77 131.3 248.03s-184.24 206.72-184.24 206.72-20.174 88.58 90.068 232.5c84.663 104.07 205.54 106.88 205.54 106.88s18.724 41.77 56.29 95.64c54.317 77.9 124.02 61 124.02 78.72 0 17.71-17.546 9.92-17.718 25.93 0.172 19.42 9.363 27.9 26.51 27.22s17.103-17.77 18.418-53.15c0.66-17.77-17.71-25.26-27.21-25.57-19.555-0.63-70.867-16.2-106.3-63.02-29.72-32.81-53.15-88.58-53.15-88.58s46.16-17.72 35.05-38.3c-11.505-13.08-46.04 13.16-46.04 13.16s-6.728-45.73-27.954-46.05c-31.923 0.32 1.866 28.81 10.087 53.47-17.495 1.23-106.6-11.14-183.74-99.72-71.833-88.41-87.532-174.8-87.422-202.59 44.945 16.356 185.51 7.256 185.51-223.26-7.02-292.78-124.04-265.75-159.47-265.75-42.01 0-73.414 42.01-73.414 59.727z" transform="matrix(-.1702 0 0 .1397 611.15 197.52)"/>
<path d="m238.56-187.8c26.42 0 22.65 26.716 17.717 42.978-4.933 16.26-35.433 27.888-63.117 10.172 7.642 26.836 27.684 106.3 109.4 108.34 95.37-2.037 103.64-71.797 209.37-72.35s124.84 15.498 123.44 52.597c-1.257 33.442-9.085 53.15-35.434 53.15-17.716 0-35.764-15.68-35.433-35.433 0.332-19.753 22.568-20.962 37.86-19.34 5.424-16.094-20.143-33.81-91.01-33.81-70.163-0.924-124.67 73.274-216.75 70.866-92.08-2.407-132.95-114.04-115.45-141.73 18.526-33.81 31.257-35.433 59.402-35.433z" transform="matrix(-.1702 0 0 .1397 602.31 249.5)"/>
<path d="m238.56-187.8c26.42 0 22.65 26.716 17.717 42.978-4.933 16.26-35.433 27.888-63.117 10.172 7.642 26.836 27.684 106.3 109.4 108.34 95.37-2.037 103.64-71.797 209.37-72.35s124.84 15.498 123.44 52.597c-1.257 33.442-9.085 53.15-35.434 53.15-17.716 0-35.764-15.68-35.433-35.433 0.332-19.753 22.568-20.962 37.86-19.34 5.424-16.094-20.143-33.81-91.01-33.81-70.163-0.924-124.67 73.274-216.75 70.866-92.08-2.407-132.95-114.04-115.45-141.73 18.526-33.81 31.257-35.433 59.402-35.433z" transform="matrix(.1702 0 0 .1397 372.09 249.5)"/>
</g>
<path stroke="#000" stroke-width="11.125" fill="none" d="m-1576.8 1353.5c17.72 2.98 674.45-205.79 673.23-531.49v-1594.5h-1346.5v1594.5c-1.22 325.7 673.23 531.49 673.23 531.49z" transform="matrix(.19 0 0 .1557 781.42 252.48)"/>
</svg>
