<svg id="bermuda_flag" xmlns="http://www.w3.org/2000/svg" viewBox="0 0 1000 500">
<rect id="rect2414" width="1e3" height="500" fill="#CF142B"/>
<rect id="rect124" width="500" height="250" fill="#00247D"/>
<g id="g584" transform="scale(8.3333)">
	<path id="path146" d="m0 0v3.354l53.292 26.646h6.708v-3.354l-53.292-26.646h-6.708zm60 0v3.354l-53.292 26.646h-6.708v-3.354l53.292-26.646h6.708z" fill="#fff"/>
	<path id="path136" d="m25 0v30h10v-30h-10zm-25 10v10h60v-10h-60z" fill="#fff"/>
	<path id="path141" d="m0 12v6h60v-6h-60zm27-12v30h6v-30h-6z" fill="#CF142B"/>
	<path id="path150" d="m0 30l20-10h4.472l-20 10h-4.472zm0-30l20 10h-4.472l-15.528-7.764v-2.236zm35.528 10l20-10h4.472l-20 10h-4.472zm24.472 20l-20-10h4.472l15.528 7.764v2.236z" fill="#CF142B"/>
</g>
<path d="m865.36 106.66v211.74c0 56.557-113.06 74.933-113.06 74.933s-113.06-18.376-113.06-74.933v-211.74h226.12z" fill="#fff"/>
<path d="m865.36 318.4c0 56.557-113.06 74.933-113.06 74.933s-113.06-18.376-113.06-74.933 0-4.555 2.301-7.145c0 0-1.246 9.407 5.981 16.522 0 0-5.669-10.037-0.125-19.901 0 0-2.056 12.691 5.856 19.979 0 0-4.361-10.367 0.561-21.927 0 0-2.43 18.911 6.168 22.681 0 0 2.367-10.869-1.059-17.843 0 0 5.919 2.387 5.607 18.157 0 0 1.869-2.325 2.367-13.697 0 0 0.249 13.005 4.735 16.021 0 0 1.371-1.319-0.498-7.225s0.81-7.979 1.246-7.854c0 0-0.983 6.534 4.493 11.435 0 0-2.374-10.241 0.928-11.623 0 0-0.685 8.67 6.168 10.618 0 0 0.498-2.513-0.997-5.34 0 0-1.308-3.353-0.312-5.918 0 0 2.181 7.865 5.171 9.185 0 0-1.807-4.61-0.125-9.185 0 0 0.374 6.546 6.23 9.247 0 0-3.858-5.067-2.334-10.639l37.659 1.843 19.501 0.93 58.502-4.134 10.093-8.67s3.987 5.529-2.305 14.262c0 0 6.23-1.131 8.224-10.869 0 0 2.554 5.403-0.935 11.372 0 0 6.916-6.911 7.912-14.765 0 0 2.679 7.602-3.863 15.77 0 0 5.856-1.948 8.349-10.618 0 0 1.994 5.222-3.676 12.601 0 0 10.591-5.627 10.28-17.25 0 0 4.423 6.408-0.623 15.204 0 0 5.42-4.838 5.919-12.063 0 0 2.991 3.267-0.249 12.251 0 0 6.604-6.22 7.601-12.943 0 0 1.433 6.22-4.237 14.073 0 0 3.863-0.942 7.539-8.607 0 0 0.997 3.016-2.367 8.545 0 0 3.614-0.628 6.043-7.539 0 0 0.436 4.147-0.623 7.854 0 0 2.804-1.822 3.427-9.676 0 0 1.566 2.576 1.593 5.78 0.03 3.21 0 1.11 0 1.11z" fill="#2F8F22"/>
<path stroke-linejoin="round" stroke="#000" stroke-width=".831" d="m807.14 196s-3.929 0.668-8.975-0.87c-5.046-1.537-7.086-0.913-8.652 0 0 0 2.048-4.055-2.936-7.257 0 0 1.62 4.094-0.623 6.006 0 0-0.997 0.938-2.181-0.475 0 0-1.744-1.791-3.582-3.173 0 0 4.237-1.476 3.458-5.78s-3.084-4.869-4.33-5.403c0 0 0.436 1.948 0 3.267 0 0-4.61-2.576 1.651-6.22s5.109-5.78 3.987-7.634c-1.121-1.853-3.52-3.895-4.704-4.618 0 0 1.246 1.948 1.028 3.613s-3.053 2.733-2.492-0.188c0.561-2.922-0.031-2.419-0.094-5.529 0 0 5.576 1.885 7.757-3.55 0 0 2.149-5.623-4.891-8.419 0 0 1.713 2.293 0.872 4.021 0 0-1.495 2.827-3.271 0.534s-2.897-2.733-2.71-5.435 6.386 0.88 4.642-6.063c0 0-1.028 4.618-9.314-1.602 0 0 5.389-5.529 3.302-9.99 0 0-0.654-2.042-6.511-0.848 0 0 5.078-3.204 2.928-5.937 0 0-1.09-1.822-5.825 0.565 0 0 1.838-3.173-2.804-6.597 0 0-3.115 1.634-4.766 3.141 0 0-3.177-4.021-5.202-5.623 0 0-3.676 1.414-4.61 5.623 0 0-1.713-2.042-5.607-2.984 0 0-1.869 3.456 0.561 6.471 0 0-1.807-0.063-5.109-1.508 0 0-3.769-1.791-3.209 1.445s0.841 3.958 1.589 5.466-8.458-1.964-8.099 2.607c0.249 3.173 1.433 5.906 4.05 8.199 0 0-4.735 6.189-8.785 1.539 0 0-1.402 1.508 1.62 5.466 0 0 3.022 3.33 0.53 5.435 0 0-3.333 2.67-4.953-2.513 0 0-5.389 5.372 0.966 9.487 0 0 4.081 2.325 8.255-1.257 0 0-1.277 10.304-5.265 8.325 0 0-2.399-1.759 1.9-3.864 0 0-6.199-0.785-7.196 5.215 0 0-0.765 4.774 4.641 6.503 0 0 4.174 1.508-0.156 4.744 0 0-3.053 2.325-1.059 5.78 0 0 2.399 3.801-3.676 4.178 0 0-3.302-0.031-4.486-0.471 0 0-1.332 2.477-0.401 5.307 0 0-3.025-2.254-9.91 0.24-6.884 2.495-6.355 0.736-6.916 1.49s-1.9 3.298-1.9 3.298 3.614 4.398 3.676 4.304c0.062-0.094-0.685 5.026-0.685 5.026l1.776 0.848 14.174-6.314 14.392-7.5 11.571 0.709 7.338 1.747 9.639 0.702 6.903-3.682h9.999l10.998 5.48 12.552 7.489 6.542 1.147 5.04-0.269v-10.166l-2.46-3.68z" fill="#D40000"/>
<path stroke-linejoin="round" stroke="#000" stroke-width=".831" d="m692.97 207.89s5.483 2.796 7.772-0.597c0 0 2.991-5.702-3.575-7.681 0 0 3.575-4.288-0.257-8.246 0 0-2.009-2.12-5.514-0.565 0 0-1.449-3.016-4.86-2.922 0 0-2.99-0.047-4.018 3.251 0 0-4.112-1.696-6.402 0.754 0 0-3.785 4.241 1.495 7.587l3.8 0.346 3.738-1.728 4.174 1.194c0.02 0-1.05 4.22 3.66 8.61z" fill="#D40000"/>
<path stroke="#000" stroke-width=".623" d="m815.36 197.86c6.605-0.622 8.937 4.952 8.937 4.952 3.462 8.122-3.89 12.458-3.89 12.458 0.561 1.822 0.623 4.209 0.623 4.209 10.342 1.257 8.534 12.88 8.534 12.88l-3.425-2.827c-5.981-2.325-12.149 2.764-16.572 11.309s-2.305 12.566-1.558 22.681c0.748 10.115 17.195 16.147 17.195 16.147s-7.788 20.042-12.834 32.922c-5.046 12.88-15.576 7.539-18.628 4.826-3.053-2.713-3.816-1.206-5.358 0s6.916 7.802-8.473 14.022c-15.389 6.22-18.068 10.995-20.622 12.566s-13.208 0.503-14.267-0.817c-1.059-1.319-0.436-1.319-4.423-3.77-3.987-2.45-10.716-4.586-18.068-8.168-7.352-3.581-7.165-8.168-7.102-9.11 0.062-0.942 2.554-8.607-6.056-2.513s-15.937-2.902-15.937-2.902c-1.682-2.211-8.847-21.412-8.847-21.412-1.931-7.162-5.732-15.519-5.732-15.519 0.187-0.063-0.374 0.88 5.981-2.764s9.201-9.707 11.401-15.707c2.2-6 0.062-16.272-0.748-18.346-0.81-2.073-5.545-11.579-11.408-13.571s-9.795 2.953-9.795 2.953-1.809-11.623 8.534-12.88 0.062-2.387 0.623-4.209c0 0-7.352-4.335-3.89-12.458 0 0 2.332-5.574 8.937-4.952l-1.598 3.022s-1.663 16.587 22.616 5.466 23.55-13.194 37.381-6.22l10.093-0.188s14.579-6.744 19.251-3.843c4.673 2.901 21.494 12.325 21.494 12.325s16.261 6.098 19.438-5.15l-1.79-5.41z" fill="#64B4D1"/>
<path stroke="#00247D" stroke-width=".8307" stroke-miterlimit="10" d="m742.31 269.77s-0.844-5.091-1.731-8.388c0 0-1.802-5.174 1.272-8.806l3.812-4.387s2.369-3.187 5.302-3.62c0 0 2.933-0.087 3.213-0.684s3.489-5.877 11.121 0c0 0 2.43-3.895 6.168-4.555 0 0 4.038-1.225 5.991 1.791 0 0 4.538-3.441 8.432 2.097 0 0 5.389-3.031 9.314 2.996 0 0 5.327-2.598 8.598 2.94s2.617 7.8 2.617 7.8l2.428 8.796 8.6 10.618-19.999 7.539h-8.971l-17.943 4.806-31.867 2.45-8.878-10.461 12.53-10.94z" fill="#fff"/>
<path stroke-linejoin="round" stroke="#000" stroke-width=".831" d="m715.37 322.74s-4.766 0.283-7.196 1.508-4.299 2.545-7.102 4.335c0 0-1.308 1.743-6.822 0.683 0 0-9.532-2.285-9.532 5.16 0 0-11.401 0.942-6.729 10.932 0 0 3.177 7.822 9.719 2.262 0 0-4.205 6.031 3.925 8.388 0 0 5.794 1.414 7.476-4.524 0 0 0.935-2.356-1.308-5.278 0 0 2.804-0.565 4.766-3.581 0 0-5.981 7.559 0.561 10.282 0 0 8.221 2.063 8.69-6.513 0 0-0.671-3.958 2.515-5.372 0 0 6.551-1.508 9.541-8.812 0 0-9.42-5.02-8.51-9.47z" fill="#D40000"/>
<path stroke-linejoin="round" stroke="#000" stroke-width=".831" d="m696.13 247.57s-7.352-3.386-10.841 0c0 0-4.86-3.009-9.968 0 0 0-4.86 3.176-8.224 6.674 0 0-2.367 2.027-1.495 8.417 0 0 1.246 4.505 0.498 6.767 0 0-1.62-0.321-4.86 3.518 0 0-4.112 4.762-7.725 0.559 0 0 1.121 5.85 7.912 4.907 0 0-3.302 2.576-0.436 9.236 0 0 2.118 4.712-1.246 10.618 0 0 5.919-2.387 5.669-9.361 0 0-0.498-4.712 1.246-8.042 0 0-1.744 3.028 2.305 9.487 0 0 3.115 4.649 0.561 9.487 0 0 5.856-2.136 5.296-9.236s-4.112-4.147-1.807-10.681 0.561 3.347 2.305 5.035 3.987 4.515 3.053 9.227 3.489-4.335 2.679-8.796-1.682-5.81-1.682-5.81l11.027-6.253 5.483-9.927 0.25-15.85z" fill="#D40000"/>
<path stroke="#000" stroke-width=".8307" stroke-miterlimit="10" d="m679.37 275.58s-4.548-0.314-5.296-3.833" fill="none"/>
<path stroke="#000" stroke-width=".8307" stroke-miterlimit="10" d="m666.1 269.43s1.585-0.063 3.018 1.382c0 0 1.094 1.634 2.652 1.445" fill="none"/>
<path d="m686.1 262.2s-2.367 0-3.676-1.131c0 0-1.371-0.942-2.181 0.565 0 0-1.246 2.136 1.059 3.079 0 0 2.866 1.445-1.682 4.335 0 0 5.42-1.948 3.24-4.586 0 0-2.367-1.696-1.495-2.325 0 0 0.249-0.503 1.184 0.126 0.94 0.62 2.81 0.37 3.56-0.07z"/>
<polygon stroke="#000" stroke-width=".623" points="760.41 274.2 742.19 211.29 741.52 211.47 757.62 275.15" fill="#784421"/>
<path d="m696.96 344.78s-4.299-2.415-7.85 0.412c0 0 0.363-1.571 3.079-2.262 0 0 1.47-4.147 5.581-3.77 0 0-1.682 2.01-3.925 3.707 0.01 0 2.38 0.25 3.12 1.91z"/>
<path stroke="#00247D" stroke-width=".623" stroke-miterlimit="2.613" d="m681.82 354.78s-6.822-4.288-3.131-11.498c0 0 1.075-2.073 3.131-1.649 0 0 4.252 1.319 0.935 7.21 0 0-1.68 3.82-0.94 5.94z" fill="#64B4D1"/>
<path stroke="#00247D" stroke-width=".623" stroke-miterlimit="2.613" d="m695.66 361.56s-9.719-4.429-6.729-11.969c0 0 0.924-2.545 3.079-2.356 0 0 3.748 0.188 2.998 5.183-0.01 0.01-1.13 4.91 0.65 9.15z" fill="#64B4D1"/>
<path d="m693.6 333.43s-2.92 2.157-4.108 3.602c0 0-1.188-1.476-2.745-2.372 0 0 1.793-0.236 2.745 0.571 0.01 0 1.5-1.45 4.12-1.8z"/>
<path stroke="#00247D" stroke-width=".623" stroke-miterlimit="2.613" d="m702.24 359.68s7.616-1.932 6.215-9.801c0 0-0.748-3.44-3.972-2.969 0 0-3.885 0.992-1.355 5.994-0.01 0 1.49 3.58-0.9 6.78z" fill="#64B4D1"/>
<path stroke="#000" stroke-width=".8307" stroke-miterlimit="2.613" d="m736.66 193.2s4.906 1.504 7.57 2.59c0 0 7.102 3.204 16.121 0 0 0 6.099-2.415 6.912-2.59l-4.67 7.114-0.234 3.675 2.922 4.288s-1.753 0.707-6.987-2.498c0 0-5.794-4.476-12.71 0 0 0-3.785 2.564-6.962 2.498l4.486-5.009-1.729-4.51-4.72-5.55z" fill="#F5CE00"/>
<path d="m705.19 350.28s0.28-0.377-0.047-0.542c0 0-0.327-0.141-0.561 0.318 0 0-0.794 1.26-0.122 2.986 0 0 0.636 1.196 0.327 2.445 0 0-0.042 0.353 0.239 0.401 0 0 0.269-0.094 0.321-0.353 0 0 0.38-1.219-0.274-2.412-0.01-0.02-0.8-1.87 0.11-2.86z" fill="#fff"/>
<path stroke-linejoin="round" stroke="#000" stroke-width=".831" d="m810.69 207.89s-5.483 2.796-7.772-0.597c0 0-2.99-5.702 3.575-7.681 0 0-3.575-4.288 0.257-8.246 0 0 2.009-2.12 5.514-0.565 0 0 1.449-3.016 4.86-2.922 0 0 2.99-0.047 4.018 3.251 0 0 4.112-1.696 6.401 0.754 0 0 3.785 4.241-1.495 7.587l-3.8 0.346-3.738-1.728-4.174 1.194c-0.02 0 1.06 4.22-3.66 8.61z" fill="#D40000"/>
<path stroke="#000" stroke-width=".8307" stroke-miterlimit="2.613" d="m767.26 203.46s-0.138 1.131-1.26 1.257c0 0-1.17 0.377-1.852-1.08 0 0-0.079-0.33-0.097-0.491-0.078-0.681-0.311-2.639 1.807-4.241 0 0 3.458-2.827 10.062 0.597 0 0 5.233 2.513 8.847 4.649 0 0 9.345 5.026 10.467 5.403 0 0 4.112 2.073 10.404 2.325 0 0 8.598 0.628 12.242-5.403 0 0 2.772-4.586 0-7.508 0 0-1.121-1.319-2.965-1.076-0.774 0.102-1.629 0.458-2.455 1.422 0 0-1.339 1.948 0.218 3.393 0 0 2.025 1.241 2.741-1.382 0 0 0.031-0.188 0.093 0.047 0.04 0.152 0.498 2.152-0.576 3.848 0 0-5.187 7.849-19.454-0.285l-18.815-10.553s-9.439-4.838-15.077 2.733c0 0-4.548 6.283 1.308 10.398 0 0 4.361 2.607 7.102-1.539 0 0 2.274-4.084-1.308-5.874 0 0-3.146-1.476-4.392 1.665s2.43 3.958 2.772 1.728c0.02-0.02 0.11-0.56 0.2-0.05z" fill="#F5CE00"/>
<path stroke="#000" stroke-width=".623" stroke-miterlimit="2.613" d="m692.68 235.84v-11.78c0-0.925 0.007-1.696 1.408-2.827s2.897-2.922 5.046 2.168 4.205-4.429 5.607-5.089c0 0 2.43-2.073 4.112 0.942 0 0 2.243-3.393 4.018-4.241 0 0 4.205-2.733 4.392 5.466l3.271-3.016s2.523-2.073 5.327 0.754c0 0 4.766 4.618 5.42 5.937 0 0 1.052 1.429 1.133 3.683 0 0-0.012 2.537 1.296 3.95 0 0 1.494 1.319 2.943 1.602 0 0 3.411 0.094 4.626 3.298 0 0 0.561-0.555 2.243 14.801v27.985l-18.878 22.524-30.279-8.67-12.055-4.995-2.71-8.859 11.682-7.539 6.355-17.152-2.056-12.063-2.9-6.87z" fill="#E4CB5E"/>
<path stroke="#000" stroke-width=".623" d="m776.11 250.7l1.433-2.136 3.427-2.639s5.233 13.734 5.483 16.731v4.262s7.85 2.003 9.221 14.066l-6.479 11.937-10.155-5.655-2.928-2.136v-34.42z" fill="#784421"/>
<path d="m679.93 345s0.374-0.495 0.117-0.707c0 0-0.164-0.236-0.607 0.33 0 0-2.064 2.307-0.421 5.855 0 0 0.187 0.506 0.514 0.341 0 0 0.28-0.141 0.023-0.565 0.01 0-1.46-2.93 0.38-5.26z" fill="#fff"/>
<path stroke="#000" stroke-width=".8307" stroke-miterlimit="10" d="m710.55 342.68s0.311-1.068-0.436-2.199c0 0-0.498-0.817-0.312-1.885" fill="none"/>
<path stroke="#000" stroke-width=".623" stroke-miterlimit="10" d="m717.26 220.48s0.028 2.946 0.869 5.114 3.681 5.917 3.868 7.943" fill="none"/>
<path stroke-linejoin="round" stroke="#000" stroke-width=".831" d="m788.48 322.74s4.766 0.283 7.196 1.508 4.299 2.545 7.102 4.335c0 0 1.308 1.743 6.822 0.683 0 0 9.532-2.285 9.532 5.16 0 0 11.401 0.942 6.729 10.932 0 0-3.177 7.822-9.719 2.262 0 0 4.205 6.031-3.925 8.388 0 0-5.794 1.414-7.476-4.524 0 0-0.935-2.356 1.308-5.278 0 0-2.804-0.565-4.766-3.581 0 0 5.981 7.559-0.561 10.282 0 0-8.221 2.063-8.69-6.513 0 0 0.671-3.958-2.515-5.372 0 0-6.551-1.508-9.541-8.812-0.01 0 9.41-5.02 8.5-9.47z" fill="#D40000"/>
<line y2="296.32" x1="713.5" x2="721.28" stroke="#000" stroke-miterlimit="10" y1="233.54" stroke-width=".623" fill="none"/>
<line y2="291.92" x1="715.3" x2="724.02" stroke="#000" stroke-miterlimit="10" y1="233.4" stroke-width=".623" fill="none"/>
<line y2="291.16" x1="716.94" x2="726.98" stroke="#000" stroke-miterlimit="10" y1="233.13" stroke-width=".623" fill="none"/>
<polygon stroke="#000" stroke-width=".623" points="735.61 285.23 717.39 222.31 716.73 222.49 732.83 286.17" fill="#784421"/>
<line y2="277.31" x1="722.51" x2="740.91" stroke="#000" stroke-miterlimit="10" y1="230.82" stroke-width=".623" fill="none"/>
<line y2="280.14" x1="721.28" x2="739.04" stroke="#000" stroke-miterlimit="10" y1="231.58" stroke-width=".623" fill="none"/>
<path d="m692.14 357.1s-2.135-2.047-1.838-5.717c0 0 0.125-0.785-0.267-0.894 0 0-0.418-0.174-0.48 0.737 0 0-0.592 3.833 1.994 6.031 0 0 0.176 0.22 0.462 0.157 0.01 0 0.31-0.07 0.14-0.32z" fill="#fff"/>
<line y2="272.6" x1="723.34" x2="742.31" stroke="#000" stroke-miterlimit="10" y1="230.19" stroke-width=".623" fill="none"/>
<line y2="289.94" x1="718.15" x2="729.79" stroke="#000" stroke-miterlimit="10" y1="232.83" stroke-width=".623" fill="none"/>
<path stroke="#000" stroke-width=".8307" stroke-miterlimit="2.613" d="m813.33 275.15c-8.31-4.715-10.132-15.176-10.132-15.176-2.009-10.414 2.056-18.66 2.056-18.66 5.374-11.356 14.582-13.469 14.582-13.469s-9.021 6.259-11.544 14.694-1.963 7.115-0.841 14.136c1.121 7.021 0.701 5.23 2.43 10.649l3.44 7.83z" fill="#F5CE00"/>
<path stroke="#000" stroke-width=".3804" d="m777.54 248.57l-34.917 11.025-1.904 15.554c-8.286 12.003-25.124 14.133-25.124 14.133l13.1 13.948 25.17 5.278 13.208-10.178 11.962-11.058c-1.246-5.906-0.561-14.67-0.561-14.67 0-1.476 0.561-4.932 0.561-4.932s-2.06-14.2-1.5-19.1z" fill="#784421"/>
<path stroke="#000" stroke-width=".623" stroke-miterlimit="10" d="m741.2 271.24s22.997-7.181 36.71-12.947" fill="none"/>
<path stroke="#000" stroke-width=".623" stroke-miterlimit="10" d="m730.16 284.35s28.69-5.183 48.876-16.68l7.414-5.008" fill="none"/>
<path stroke="#000" stroke-width=".2077" stroke-miterlimit="2.613" d="m764.07 203.27" fill="none"/>
<path stroke="#000" stroke-width=".623" stroke-miterlimit="10" d="m786.45 266.92l-7.975 5.678s-32.086 14.796-56.516 15.191" fill="none"/>
<path stroke="#000" stroke-width=".623" stroke-miterlimit="10" d="m778.47 283.11s-24.665 12.701-38.808 12.89" fill="none"/>
<path stroke-linejoin="round" stroke="#000" stroke-width=".831" d="m807.88 247.57s7.352-3.386 10.841 0c0 0 4.86-3.009 9.968 0 0 0 4.86 3.176 8.224 6.674 0 0 2.367 2.027 1.495 8.417 0 0-1.246 4.505-0.498 6.767 0 0 1.62-0.321 4.86 3.518 0 0 4.112 4.762 7.725 0.559 0 0-1.121 5.85-7.912 4.907 0 0 3.302 2.576 0.436 9.236 0 0-2.118 4.712 1.246 10.618 0 0-5.919-2.387-5.669-9.361 0 0 0.498-4.712-1.246-8.042 0 0 1.744 3.028-2.305 9.487 0 0-3.115 4.649-0.561 9.487 0 0-5.856-2.136-5.296-9.236 0.561-7.1 4.112-4.147 1.807-10.681 0 0-0.561 3.346-2.305 5.035-1.744 1.688-3.987 4.515-3.053 9.227 0 0-3.489-4.335-2.679-8.796s1.682-5.81 1.682-5.81l-11.027-6.253-5.483-9.927-0.24-15.85z" fill="#D40000"/>
<path stroke="#00247D" stroke-width=".8307" stroke-miterlimit="10" d="m682.97 287.3s1.028-4.87 5.701-2.954c0 0 1.589-7.979 10.093-8.261 8.504-0.283 8.971 8.293 8.971 8.859 0 0 2.498-3.682 6.669-3.255 0 0 7.191-0.424 4.513 11.122l1.36 1.448s5.494-12.897 16.802-9.504c0 0 11.027 3.361 3.832 14.042 0 0 5.442 7.068 10.057 6.408s8.727-2.073 13.306-10.178c4.579-8.105 15.233-9.33 17.943-8.859s4.851 2.231 5.293 4.147c0 0 5.641-18.827 25.92-15.869l8.13 4.089 3.084 1.414-4.597 12.974-11.199 25.314-8.502 2.614-8.878-5.089-3.084 1.653-0.252 7.582-11.71 8.429-8.13 3.351-8.971 6.126-2.087 5.476s-4.955-2.087-10.547 0l-1.851-4.533-5.233-4.995-20.33-9.59-3.673-11.846-3.711-1.653-4.154 4.758-6.074 0.708-9.065-6.126-9.63-27.81z" fill="#fff"/>
<path stroke="#000" stroke-width=".8307" stroke-miterlimit="2.613" d="m771.5 195.13s-7.759-0.345-7.478 7.697" fill="none"/>
<path stroke="#000" stroke-width=".8307" stroke-miterlimit="2.613" d="m822.54 280.56c-13.504-4.147-17.195-18.66-17.195-18.66-2.757-10.885 1.682-20.403 1.682-20.403 6.168-14.485 16.604-14.482 16.604-14.482 5.233-0.141 5.861 4.335 5.861 4.335 0.494 3.173-1.733 4.319-1.733 4.319-3.582 1.948-5.841-0.691-5.841-0.691-1.495-1.948-0.343-3.675-0.343-3.675 0.919-1.288 2.679-0.723 2.679-0.723 1.394 0.432 1.246 2.175 1.246 2.175 0.008 0.047 0.039 0.047 0.039 0.047 0.062-0.016 0.039-0.039 0.039-0.039s0.311-2.136-1.776-2.356-4.065-0.88-8.831 5.058c0 0-6.276 8.011-6.261 18.377 0 0-0.794 19.461 19.485 24.503 0 0-2.196 3.157-6.074 14.56 0 0-4.392 14.655-8.585 22.578 0 0-5.574 11.302-18.003 6.684 0 0-7.401-3.251-7.383-8.623 0 0-0.514-4.901 3.925-5.278 0 0 4.346-0.33 4.299 3.393 0 0 0.117 4.029-4.626 3.11 0 0-1.659-0.353-1.355-1.979 0 0 0.265-1.461 2.266-0.825 0 0 0.062 0.008 0.07-0.024 0 0 0.023-0.035-0.047-0.055 0 0-0.774-0.346-1.592-0.06 0 0-0.733 0.244-0.791 1.387 0 0-0.047 0.919 0.935 1.437 0 0 1.192 0.424 2.126 0.33 0 0 1.257 2.537 4.101 3.397 3.959 1.197 7.22 0.044 9.216-1.548 2.171-1.732 3.575-4.759 3.995-5.501s4.065-8.906 6.806-17.686 2.399-7.571 4.314-11.529l0.74-1.57z" fill="#F5CE00"/>
<path stroke="#000" stroke-width=".8307" stroke-miterlimit="2.613" d="m784.43 317.46s2.523-0.342 2.523 1.908c0 0-0.154 3.287-4.159 2.568 0 0-3.948-0.864-2.547-5.278 0 0 0.935-3.11 4.673-2.662 0 0 3.621 0.165 5.21 5.113 0 0 1.215 4.171-0.864 7.751-2.321 3.996-8.193 6.621-11.027 7.783 0 0-11.355 4.461-14.742 7.013 0 0-5.194 3.856-2.897 7.445 0 0 0.888 1.367 2.22 1.367 0 0 1.519 0.071 1.776-1.484 0 0 0.008-0.031-0.016-0.071 0 0-0.023 0-0.031 0.039 0 0-0.109 0.95-0.935 1.304 0 0-1.106 0.558-2.266-0.424 0 0-1.23-1.178-0.202-3.008 0 0 1.347-2.254 4.486-0.919 0 0 2.765 1.367 1.628 4.304 0 0-1.012 2.703-4.346 2.696 0 0-2.51-0.083-4.115-1.766-2.505-2.626-2.641-7.741-0.433-10.386 0 0 2.087-2.812 6.277-4.524 2.427-0.992 7.009-2.984 11.775-4.853 3.35-1.314 6.418-2.887 8.411-5.246 0 0 1.776-1.979 2.29-5.372 0 0 0.491-2.545-1.059-3.102 0 0-0.787-0.353-1.651-0.236 0 0-0.023 0.001-0.029 0.016 0.02 0-0.01 0.03 0.07 0.02z" fill="#F5CE00"/>
<path stroke="#000" stroke-width=".8307" stroke-miterlimit="2.613" d="m784.64 317.44s2.788-0.503 4.532 2.812c0 0 1.028 2.136 1.194 3.372" fill="none"/>
<path stroke="#000" stroke-width=".8307" stroke-miterlimit="2.613" d="m791.28 311.78s-2.792 0.484-1.354 4.434c1.355 3.723 3.872 4.944 4.619 5.462" fill="none"/>
<path stroke="#000" stroke-width=".8307" stroke-miterlimit="2.613" d="m736.65 203.46s0.138 1.131 1.26 1.257c0 0 1.17 0.377 1.852-1.08 0 0 0.079-0.33 0.097-0.491 0.078-0.681 0.311-2.639-1.807-4.241 0 0-3.458-2.827-10.062 0.597 0 0-5.233 2.513-8.847 4.649 0 0-9.345 5.026-10.467 5.403 0 0-4.112 2.073-10.404 2.325 0 0-8.598 0.628-12.242-5.403 0 0-2.772-4.586 0-7.508 0 0 1.121-1.319 2.965-1.076 0.774 0.102 1.629 0.458 2.455 1.422 0 0 1.339 1.948-0.218 3.393 0 0-2.025 1.241-2.741-1.382 0 0-0.031-0.188-0.094 0.047-0.04 0.152-0.498 2.152 0.576 3.848 0 0 5.187 7.849 19.454-0.285l18.815-10.553s9.439-4.838 15.077 2.733c0 0 4.548 6.283-1.308 10.398 0 0-4.361 2.607-7.102-1.539 0 0-2.274-4.084 1.308-5.874 0 0 3.146-1.476 4.392 1.665s-2.43 3.958-2.772 1.728c-0.02-0.02-0.11-0.56-0.21-0.05z" fill="#F5CE00"/>
<path stroke="#000" stroke-width=".8307" stroke-miterlimit="2.613" d="m690.59 275.15c8.31-4.715 10.132-15.176 10.132-15.176 2.009-10.414-2.056-18.66-2.056-18.66-5.374-11.356-14.582-13.469-14.582-13.469s9.021 6.259 11.544 14.694 1.963 7.115 0.841 14.136c-1.121 7.021-0.701 5.23-2.43 10.649l-3.44 7.83z" fill="#F5CE00"/>
<path stroke="#000" stroke-width=".2077" stroke-miterlimit="2.613" d="m738.35 203.27" fill="none"/>
<path stroke="#000" stroke-width=".8307" stroke-miterlimit="2.613" d="m732.42 195.13s7.759-0.345 7.478 7.697" fill="none"/>
<path stroke="#000" stroke-width=".8307" stroke-miterlimit="2.613" d="m681.38 280.56c13.504-4.147 17.195-18.66 17.195-18.66 2.757-10.885-1.682-20.403-1.682-20.403-6.168-14.485-16.604-14.482-16.604-14.482-5.233-0.141-5.861 4.335-5.861 4.335-0.494 3.173 1.733 4.319 1.733 4.319 3.582 1.948 5.841-0.691 5.841-0.691 1.495-1.948 0.343-3.675 0.343-3.675-0.919-1.288-2.679-0.723-2.679-0.723-1.394 0.432-1.246 2.175-1.246 2.175-0.008 0.047-0.039 0.047-0.039 0.047-0.062-0.016-0.039-0.039-0.039-0.039s-0.312-2.136 1.776-2.356 4.065-0.88 8.831 5.058c0 0 6.276 8.011 6.261 18.377 0 0 0.794 19.461-19.485 24.503 0 0 2.196 3.157 6.074 14.56 0 0 4.392 14.655 8.585 22.578 0 0 5.574 11.302 18.003 6.684 0 0 7.401-3.251 7.383-8.623 0 0 0.514-4.901-3.925-5.278 0 0-4.346-0.33-4.299 3.393 0 0-0.117 4.029 4.626 3.11 0 0 1.659-0.353 1.355-1.979 0 0-0.265-1.461-2.266-0.825 0 0-0.062 0.008-0.07-0.024 0 0-0.023-0.035 0.047-0.055 0 0 0.774-0.346 1.592-0.06 0 0 0.733 0.244 0.791 1.387 0 0 0.047 0.919-0.935 1.437 0 0-1.192 0.424-2.126 0.33 0 0-1.257 2.537-4.101 3.397-3.959 1.197-7.22 0.044-9.216-1.548-2.171-1.732-3.575-4.759-3.995-5.501s-4.065-8.906-6.806-17.686-2.399-7.571-4.314-11.529l-0.74-1.57z" fill="#F5CE00"/>
<path stroke="#000" stroke-width=".8307" stroke-miterlimit="2.613" d="m719.48 317.46s-2.523-0.342-2.523 1.908c0 0 0.154 3.287 4.159 2.568 0 0 3.948-0.864 2.547-5.278 0 0-0.935-3.11-4.673-2.662 0 0-3.621 0.165-5.21 5.113 0 0-1.215 4.172 0.864 7.751 2.321 3.996 8.193 6.621 11.027 7.783 0 0 11.355 4.461 14.742 7.013 0 0 5.194 3.856 2.897 7.445 0 0-0.888 1.367-2.22 1.367 0 0-1.519 0.071-1.776-1.484 0 0-0.008-0.031 0.016-0.071 0 0 0.023 0 0.031 0.039 0 0 0.109 0.95 0.935 1.304 0 0 1.106 0.558 2.266-0.424 0 0 1.23-1.178 0.202-3.008 0 0-1.347-2.254-4.486-0.919 0 0-2.765 1.367-1.628 4.304 0 0 1.012 2.703 4.346 2.696 0 0 2.51-0.083 4.115-1.766 2.505-2.626 2.641-7.741 0.433-10.386 0 0-2.087-2.812-6.277-4.524-2.427-0.992-7.009-2.984-11.775-4.853-3.35-1.314-6.418-2.887-8.411-5.246 0 0-1.776-1.979-2.29-5.372 0 0-0.491-2.545 1.059-3.102 0 0 0.787-0.353 1.651-0.236 0 0 0.023 0.001 0.029 0.016-0.01-0.01 0.03 0.03-0.06 0.02z" fill="#F5CE00"/>
<path stroke="#000" stroke-width=".8307" stroke-miterlimit="2.613" d="m719.27 317.44s-2.788-0.503-4.532 2.812c0 0-1.028 2.136-1.194 3.372" fill="none"/>
<path stroke="#000" stroke-width=".8307" stroke-miterlimit="2.613" d="m712.64 311.78s2.792 0.484 1.354 4.434c-1.355 3.723-3.872 4.944-4.619 5.462" fill="none"/>
<path stroke="#000" stroke-width=".8307" stroke-miterlimit="2.613" d="m745.21 202.38s6.75-4.227 13.644 0.454" fill="none"/>
<path stroke="#000" stroke-width=".623" stroke-miterlimit="2.613" d="m706.8 243.67s0.935-3.77-3.364-10.367c0 0-2.804-6.031-4.299-9.895" fill="none"/>
<path stroke="#000" stroke-width=".623" stroke-miterlimit="2.613" d="m708.85 219.26s2.434 5.929 3.271 8.584c0 0 3.019 7.437 3.659 8.945" fill="none"/>
<path stroke="#000" stroke-width=".623" stroke-miterlimit="10" d="m710.07 247.81s2.538 2.733 2.25 7.351" fill="none"/>
<path stroke="#000" stroke-width=".623" stroke-miterlimit="10" d="m701.66 244.89s2.804 1.351 2.619 8.796c0 0-0.282 5.435 3.923 8.168" fill="none"/>
<path stroke="#000" stroke-width=".623" stroke-miterlimit="10" d="m701.28 263.77s8.775-0.958 9.258 4.445c0 0 0.187 5.183 3.177 5.749 0 0 4.479 0.424 5.367 4.571" fill="none"/>
<path stroke="#000" stroke-width=".623" stroke-miterlimit="10" d="m704.04 269.77s1.542 2.309 3.037 3.298" fill="none"/>
<path stroke="#000" stroke-width=".623" stroke-miterlimit="10" d="m715.3 264.07s2.229 3.377 2.649 5.356" fill="none"/>
<path stroke="#000" stroke-width=".623" stroke-miterlimit="10" d="m724.96 223.4s2.056 2.796 4.05 4.115" fill="none"/>
<path stroke="#000" stroke-width=".623" stroke-miterlimit="10" d="m733.18 239.96s4.361 2.136 3.614 13.131c0 0-0.561 6.448 1.246 9.967" fill="none"/>
<path stroke="#000" stroke-width=".623" d="m712.64 232.5l0.28 1.037s7.819 0.33 12.04-4.995l-0.452-1.021s-6.83-0.35-11.87 4.98z" fill="#784421"/>
<path stroke="#000" stroke-width=".623" stroke-miterlimit="10" d="m740.81 274.45s27.042-8.062 37.464-12.762" fill="none"/>
<polygon stroke="#000" stroke-width=".3804" points="737.59 223.69 750.97 218.6 751.28 219.49 737.9 224.57" fill="#784421"/>
<line y2="267.67" x1="739.04" x2="747.92" stroke="#000" stroke-miterlimit="10" y1="224.14" stroke-width=".623" fill="none"/>
<line y2="266.88" x1="740.58" x2="750.75" stroke="#000" stroke-miterlimit="10" y1="223.56" stroke-width=".623" fill="none"/>
<line y2="265.91" x1="742.31" x2="753.43" stroke="#000" stroke-miterlimit="10" y1="222.9" stroke-width=".623" fill="none"/>
<line y2="253.53" x1="746.67" x2="761.83" stroke="#000" stroke-miterlimit="10" y1="221.24" stroke-width=".623" fill="none"/>
<line y2="252.58" x1="748.68" x2="764.84" stroke="#000" stroke-miterlimit="10" y1="220.48" stroke-width=".623" fill="none"/>
<line y2="251.69" x1="750.16" x2="767.65" stroke="#000" stroke-miterlimit="10" y1="219.92" stroke-width=".623" fill="none"/>
<line y2="265.75" x1="747.32" x2="754.18" stroke="#000" stroke-miterlimit="10" y1="268.01" stroke-width=".623" fill="none"/>
<path stroke="#000" stroke-width=".623" stroke-miterlimit="10" d="m742.12 263.71s20.114-5.875 35.337-12.015" fill="none"/>
<path stroke="#000" stroke-width=".623" stroke-miterlimit="10" d="m741.85 265.91s25.492-6.745 35.606-11.666" fill="none"/>
<polyline stroke="#000" stroke-width=".623" stroke-miterlimit="10" points="749.63 286.64 750.97 290.72 754.62 289.56 753.37 285.51" fill="none"/>
<polyline stroke="#000" stroke-width=".623" stroke-miterlimit="10" points="759.93 283.71 761.26 287.79 764.91 286.62 763.66 282.58" fill="none"/>
<polyline stroke="#000" stroke-width=".623" stroke-miterlimit="10" points="742.62 259.59 742.31 254.07 775.74 243.92 777.54 248.57" fill="none"/>
<line y2="254.64" x1="756.48" x2="758.31" stroke="#000" stroke-miterlimit="10" y1="249.76" stroke-width=".623" fill="none"/>
<line y2="250.85" x1="768.17" x2="770.3" stroke="#000" stroke-miterlimit="10" y1="246.22" stroke-width=".623" fill="none"/>
<line y2="249.76" x1="770.94" x2="772.93" stroke="#000" stroke-miterlimit="10" y1="245.37" stroke-width=".623" fill="none"/>
<line y2="249.16" x1="773.59" x2="775.68" stroke="#000" stroke-miterlimit="10" y1="244.57" stroke-width=".623" fill="none"/>
<polyline stroke="#000" stroke-width=".623" stroke-miterlimit="10" points="775.74 243.92 779.41 241.84 780.97 245.93" fill="none"/>
<line y2="247.13" x1="777.54" x2="779.41" stroke="#000" stroke-miterlimit="10" y1="242.9" stroke-width=".623" fill="none"/>
<path stroke="#00247D" stroke-width=".8307" stroke-miterlimit="10" d="m694.65 306.53s-6.542-6.625 0-13.114c0 0-7.102-3.473-5.981-9.065" fill="none"/>
<path stroke="#00247D" stroke-width=".8307" stroke-miterlimit="10" d="m706.33 311.78s-6.775 0.923-4.766-12.27c0 0-2.804 5.23-3.77 7.918-0.723 2.012-0.245 5.26 2.623 7.016 1.146 0.702 7.221 2.284 9.183-1.74" fill="none"/>
<path stroke="#00247D" stroke-width=".8307" stroke-miterlimit="10" d="m698.76 291.59s-2.757 2.545-0.794 7.21" fill="none"/>
<path stroke="#00247D" stroke-width=".8307" stroke-miterlimit="10" d="m701.61 292.2s0.327 4.524 2.57 7.068" fill="none"/>
<path stroke="#00247D" stroke-width=".8307" stroke-miterlimit="10" d="m703.55 290.41s-0.021 5.325 3.81 8.623" fill="none"/>
<path stroke="#00247D" stroke-width=".8307" stroke-miterlimit="10" d="m705.45 288.57s0.036 5.984 4.475 9.66" fill="none"/>
<path stroke="#00247D" stroke-width=".8307" stroke-miterlimit="10" d="m727.5 297.34s2.243-4.901 6.962-4.665c0 0-2.29 1.037-2.243 3.33 0 0-0.28 3.785 3.785 4.162 0 0 3.271 0.424 4.906-1.367" fill="none"/>
<path stroke="#00247D" stroke-width=".8307" stroke-miterlimit="10" d="m738.67 319.72s-11.635-5.466-10.42-13.335c0 0 0.467-4.806 5.166-7.068" fill="none"/>
<path stroke="#00247D" stroke-width=".8307" stroke-miterlimit="10" d="m730.96 304.31s-1.028 3.393 1.262 5.749" fill="none"/>
<path stroke="#00247D" stroke-width=".8307" stroke-miterlimit="10" d="m733.57 302s-1.402 3.723 0.935 6.503" fill="none"/>
<path stroke="#00247D" stroke-width=".8307" stroke-miterlimit="10" d="m736.37 300.2s-1.68 3.079 0.329 5.859" fill="none"/>
<path stroke="#00247D" stroke-width=".8307" stroke-miterlimit="10" d="m725.77 320.52s6.355 5.514 11.308 5.561" fill="none"/>
<path stroke="#00247D" stroke-width=".8307" stroke-miterlimit="10" d="m723.76 322.26s5.939 4.806 9.651 5.513" fill="none"/>
<path stroke="#00247D" stroke-width=".8307" stroke-miterlimit="10" d="m721.52 323.62s7.341 6.461 11.894 6.932" fill="none"/>
<path stroke="#00247D" stroke-width=".8307" stroke-miterlimit="10" d="m751.38 336.5s-7.216 3.888-1.622 7.999" fill="none"/>
<path stroke="#00247D" stroke-width=".8307" stroke-miterlimit="10" d="m746.8 332.21s8.177-4.288 11.728-5.89" fill="none"/>
<path stroke="#00247D" stroke-width=".8307" stroke-miterlimit="10" d="m749.74 334.42s11.822-7.21 15.326-8.764" fill="none"/>
<path stroke="#00247D" stroke-width=".8307" stroke-miterlimit="10" d="m755.81 334.89s10.093-6.738 15.513-9.66" fill="none"/>
<path stroke="#00247D" stroke-width=".8307" stroke-miterlimit="10" d="m762.5 334.66s6.962-5.466 13.691-9.424" fill="none"/>
<path stroke="#00247D" stroke-width=".8307" stroke-miterlimit="10" d="m778.57 318.4s-3.411-4.995-14.625 0c0 0 4.112-3.732 12.242-6.625" fill="none"/>
<path stroke="#00247D" stroke-width=".8307" stroke-miterlimit="10" d="m787.51 290.32s0.919 4.052-0.062 6.503" fill="none"/>
<path stroke="#00247D" stroke-width=".8307" stroke-miterlimit="10" d="m769.32 309.97s2.336-3.44 8.271-5.136c0 0 1.6 4.005 6.215 3.11 0 0 6.962-1.367 4.86-9 0 0-1.448-5.702-9.4-6.267" fill="none"/>
<path stroke="#00247D" stroke-width=".8307" stroke-miterlimit="10" d="m802.92 283.11s8.084 1.455 7.944 8.052c0 0 0.654 9.895-9.766 11.827" fill="none"/>
<path stroke="#00247D" stroke-width=".8307" stroke-miterlimit="10" d="m809.71 287.18s2.221-4.823 7.174-6.803" fill="none"/>
<path stroke="#00247D" stroke-width=".8307" stroke-miterlimit="10" d="m810.87 277.55s2.208 3.54 3.717 4.055" fill="none"/>
<path stroke="#00247D" stroke-width=".8307" stroke-miterlimit="10" d="m809.71 280.37s2.081 2.543 2.782 2.968" fill="none"/>
<path stroke="#00247D" stroke-width=".8307" stroke-miterlimit="10" d="m809.04 282.82s1.096 1.619 2.067 2.129" fill="none"/>
<path stroke="#00247D" stroke-width=".8307" stroke-miterlimit="10" d="m767.45 244.57s1.573-2.553 5.483-1.469" fill="none"/>
<path stroke="#00247D" stroke-width=".8307" stroke-miterlimit="10" d="m788.9 263.71s2.477-10.332 11.121-6.516" fill="none"/>
<path stroke="#00247D" stroke-width=".8307" stroke-miterlimit="10" d="m796.51 256.34s0.888-4.763-1.262-7.189" fill="none"/>
<path stroke="#00247D" stroke-width=".8307" stroke-miterlimit="10" d="m790.62 256.01s1.101 1.97 0.159 3.58" fill="none"/>
<path stroke="#00247D" stroke-width=".623" stroke-miterlimit="2.613" d="m808.2 361.56s9.719-4.429 6.729-11.969c0 0-0.924-2.545-3.079-2.356 0 0-3.748 0.188-2.998 5.183 0 0.01 1.12 4.91-0.65 9.15z" fill="#64B4D1"/>
<path d="m811.72 357.1s2.136-2.047 1.838-5.717c0 0-0.125-0.785 0.267-0.894 0 0 0.418-0.175 0.48 0.736 0 0 0.592 3.833-1.994 6.031 0 0-0.176 0.22-0.462 0.157-0.02 0-0.32-0.07-0.14-0.32z" fill="#fff"/>
<path stroke="#00247D" stroke-width=".623" stroke-miterlimit="2.613" d="m822.03 354.78s6.822-4.288 3.131-11.498c0 0-1.075-2.073-3.131-1.649 0 0-4.252 1.319-0.935 7.21-0.01 0 1.67 3.82 0.93 5.94z" fill="#64B4D1"/>
<path d="m823.73 345s-0.374-0.495-0.117-0.707c0 0 0.164-0.236 0.607 0.33 0 0 2.064 2.307 0.421 5.855 0 0-0.187 0.506-0.514 0.341 0 0-0.28-0.141-0.023-0.565-0.01-0.01 1.47-2.93-0.38-5.26z" fill="#fff"/>
<path stroke="#00247D" stroke-width=".623" stroke-miterlimit="2.613" d="m801.61 359.68s-7.616-1.932-6.215-9.801c0 0 0.748-3.44 3.972-2.969 0 0 3.885 0.992 1.355 5.994 0 0-1.5 3.57 0.89 6.78z" fill="#64B4D1"/>
<path d="m798.66 350.28s-0.28-0.377 0.047-0.542c0 0 0.327-0.141 0.561 0.318 0 0 0.794 1.26 0.122 2.986 0 0-0.636 1.196-0.327 2.445 0 0 0.042 0.353-0.239 0.401 0 0-0.269-0.094-0.321-0.353 0 0-0.38-1.219 0.274-2.412 0.01-0.02 0.8-1.87-0.11-2.86z" fill="#fff"/>
<path d="m807.07 344.78s4.299-2.415 7.85 0.412c0 0-0.363-1.571-3.079-2.262 0 0-1.469-4.147-5.581-3.77 0 0 1.682 2.01 3.925 3.707 0.01 0-2.36 0.25-3.11 1.91z"/>
<path d="m810.25 333.43s2.92 2.157 4.108 3.602c0 0 1.188-1.476 2.745-2.372 0 0-1.793-0.236-2.745 0.571 0 0-1.49-1.45-4.11-1.8z"/>
<path stroke="#000" stroke-width=".8307" stroke-miterlimit="10" d="m793.3 342.68s-0.312-1.068 0.436-2.199c0 0 0.498-0.817 0.312-1.885" fill="none"/>
<path stroke="#000" stroke-width=".8307" stroke-miterlimit="10" d="m824.64 275.58s4.548-0.314 5.296-3.833" fill="none"/>
<path stroke="#000" stroke-width=".8307" stroke-miterlimit="10" d="m837.91 269.43s-1.585-0.063-3.018 1.382c0 0-1.094 1.634-2.652 1.445" fill="none"/>
<path d="m817.91 262.2s2.367 0 3.676-1.131c0 0 1.371-0.942 2.181 0.565 0 0 1.246 2.136-1.059 3.079 0 0-2.866 1.445 1.682 4.335 0 0-5.42-1.948-3.24-4.586 0 0 2.367-1.696 1.495-2.325 0 0-0.249-0.503-1.184 0.126-0.93 0.62-2.8 0.37-3.55-0.07z"/>
<path stroke="#00247D" stroke-width=".623" stroke-miterlimit="2.613" d="m821.13 204.99s1.069-1.455 0.632-5.821 3.354-4.868 4.812-3.613 1.507 1.305 0.121 4.074c-0.79 1.59-2.07 3.66-5.56 5.36z" fill="#64B4D1"/>
<path d="m822.56 201.73s1.421-1.528 0.743-4.845c0 0-0.005-0.327 0.183-0.349 0 0 0.345-0.087 0.403 0.24 0 0 0.763 3.536-0.841 5.457 0 0-0.293 0.284-0.489 0 0.01 0-0.21-0.2 0.01-0.5z" fill="#fff"/>
<path stroke="#00247D" stroke-width=".623" stroke-miterlimit="2.613" d="m819.92 203.4s-0.112-1.76-3.154-4.751-0.541-5.747 1.322-5.724 1.93 0.03 2.625 2.971c0.4 1.69 0.74 4.04-0.8 7.5z" fill="#64B4D1"/>
<path d="m819.45 199.57s0.054-2.156-2.7-4.406c0 0-0.224-0.262-0.096-0.401 0 0 0.204-0.293 0.47-0.066 0 0 2.966 2.373 3.038 4.965 0 0-0.033 0.419-0.373 0.316 0 0-0.3-0.03-0.34-0.41z" fill="#fff"/>
<path stroke="#00247D" stroke-width=".623" stroke-miterlimit="2.613" d="m815.79 202.08s-0.795-1.434-4.552-2.767-2.742-4.615-1.161-5.317 1.641-0.722 3.397 1.477c1.01 1.27 2.23 3.11 2.31 6.61z" fill="#64B4D1"/>
<path d="m814.15 199.44s-0.854-1.977-4.294-2.843c0 0-0.313-0.142-0.255-0.323 0 0 0.062-0.353 0.398-0.26 0 0 3.683 0.886 4.834 3.205 0 0 0.146 0.394-0.206 0.445 0 0-0.28 0.11-0.47-0.22z" fill="#fff"/>
<path stroke="#00247D" stroke-width=".623" stroke-miterlimit="2.613" d="m818.15 203.51s-1.752 0.492-5.775-1.449-5.785 1.437-5.08 3.244c0 0 0.737 1.87 3.851 1.542 1.79-0.18 4.2-0.65 7-3.33z" fill="#64B4D1"/>
<path d="m808.79 204.79s1.824 1.125 5.134-0.155c0 0 0.337-0.065 0.392 0.117 0 0 0.15 0.325-0.178 0.443 0 0-3.521 1.404-5.783 0.171 0 0-0.344-0.238-0.085-0.484 0.01 0 0.18-0.26 0.53-0.1z" fill="#fff"/>
<path stroke="#000" stroke-width=".8307" stroke-miterlimit="2.613" d="m812.26 190.8s2.009 0.974 1.542 3.33" fill="none"/>
<path stroke="#000" stroke-width=".8307" stroke-miterlimit="10" d="m821.14 191.13s0.786 2.488-0.082 3.828" fill="none"/>
<path stroke="#00247D" stroke-width=".623" stroke-miterlimit="2.613" d="m682.53 204.99s-1.069-1.455-0.632-5.821-3.354-4.868-4.812-3.613c0 0-1.507 1.305-0.121 4.074 0.79 1.59 2.07 3.66 5.56 5.36z" fill="#64B4D1"/>
<path d="m681.1 201.73s-1.421-1.528-0.743-4.845c0 0 0.005-0.327-0.183-0.349 0 0-0.345-0.087-0.403 0.24 0 0-0.763 3.536 0.841 5.457 0 0 0.293 0.284 0.489 0-0.01 0 0.21-0.2-0.01-0.5z" fill="#fff"/>
<path stroke="#00247D" stroke-width=".623" stroke-miterlimit="2.613" d="m683.74 203.4s0.112-1.76 3.154-4.751 0.541-5.747-1.322-5.724-1.93 0.03-2.625 2.971c-0.4 1.69-0.74 4.04 0.8 7.5z" fill="#64B4D1"/>
<path d="m684.21 199.57s-0.054-2.156 2.7-4.406c0 0 0.224-0.262 0.096-0.401 0 0-0.204-0.293-0.47-0.066 0 0-2.966 2.373-3.038 4.965 0 0 0.033 0.419 0.373 0.316 0 0 0.31-0.03 0.34-0.41z" fill="#fff"/>
<path stroke="#00247D" stroke-width=".623" stroke-miterlimit="2.613" d="m687.87 202.08s0.795-1.434 4.552-2.767 2.742-4.615 1.161-5.317-1.641-0.722-3.397 1.477c-1.01 1.27-2.23 3.11-2.31 6.61z" fill="#64B4D1"/>
<path d="m689.52 199.44s0.854-1.977 4.294-2.843c0 0 0.313-0.142 0.255-0.323 0 0-0.062-0.353-0.398-0.26 0 0-3.683 0.886-4.834 3.205 0 0-0.146 0.394 0.206 0.445 0 0 0.28 0.11 0.48-0.22z" fill="#fff"/>
<path stroke="#00247D" stroke-width=".623" stroke-miterlimit="2.613" d="m685.52 203.51s1.752 0.492 5.775-1.449 5.785 1.437 5.08 3.244c0 0-0.737 1.87-3.851 1.542-1.81-0.18-4.22-0.65-7.01-3.33z" fill="#64B4D1"/>
<path d="m694.87 204.79s-1.824 1.125-5.134-0.155c0 0-0.337-0.065-0.392 0.117 0 0-0.15 0.325 0.178 0.443 0 0 3.521 1.404 5.783 0.171 0 0 0.344-0.238 0.085-0.484-0.01 0-0.18-0.26-0.53-0.1z" fill="#fff"/>
<path stroke="#000" stroke-width=".8307" stroke-miterlimit="2.613" d="m691.4 190.8s-2.009 0.974-1.542 3.33" fill="none"/>
<path stroke="#000" stroke-width=".8307" stroke-miterlimit="10" d="m682.52 191.13s-0.786 2.488 0.082 3.828" fill="none"/>
<path d="m769.74 168.27s1.273 3.634 0.724 6.927c-0.491 2.945 0.179 3.706 1.243 4.289 0.921 0.504 3.055-0.378 3.312-2.687 0 0 2.523 4.924-2.383 8.246 0 0-3.528 2.168-6.518-0.73-1.054-1.021-1.519-3.84-1.005-6.456 0 0 0.772-3.546-0.514-7.186 0 0 2.009 2.144 1.495 6.419 0 0-1.028 7.67 4.649 7.293 0 0 3.925-0.047 4.042-4.806 0 0-1.472 1.696-3.294 1.131-1.291-0.4-2.477-1.649-2.266-3.618 0.23-2.05 0.81-5.65 0.53-8.81z"/>
<path d="m763.31 180.87s-0.312 6.063-5.856 7.539c0 0 0.779-1.099-0.467-4.115 0 0-1.215-1.759-1.121-4.492 0 0-1.765 1.381 0.249 5.026 1.215 2.199 0.156 4.838-0.218 4.932-0.37 0.08 9.16-1.27 7.42-8.9z"/>
<path d="m756.11 174.84s-1.339-1.508-1.433-4.995c-0.093-3.487-0.748-4.335-1.215-4.744 0 0 0.685 3.016 0.498 4.869s0.125 2.922 0.374 3.801c0 0-3.022 0.471-4.922-3.927-1.816-4.204-3.645-3.864-4.548-3.833 0 0 1.053 0.117 3.177 3.958 2.12 3.83 2.71 4.62 8.07 4.87z"/>
<path d="m741.97 165.73s1.745 4.178 1.807 6.377c0 0-4.05-1.351-5.14-4.869 0 0-4.33 1.476-2.741 6.471 0 0-3.738-1.319-5.42-4.367 0 0 2.087 1.571 4.018 2.262 0 0-0.218-4.021 4.828-5.529 0 0 0.751 3.602 3.271 4.461-0.01 0.01-0.2-2.26-0.63-4.8z"/>
<path d="m748.63 158.57s1.402 2.042 4.268 2.136c1.37 0.045 2.844-0.264 4.268-2.136 0 0-0.187 3.55-4.268 3.581 0 0-4.27 0.15-4.27-3.58z"/>
<path d="m730.98 182.83s2.126 1.932 2.57 2.568c0 0 1.495 1.461 2.779-0.428 0 0 1.637-3.021 3.646-2.941 0 0-1.425 0.99-3.027 3.846 0 0-0.431 1.054-1.623 1.172-0.558 0.055-1.262 0.236-2.327-0.877 0 0-0.92-1.12-2.02-3.34z"/>
<path d="m752.9 144.34c-4.268-0.002-0.67 3.298-0.67 3.298 0.093 5.23-4.104 6.84-6.962 5.325-2.858-1.516-0.623-5.325-0.623-5.325s-3.224 2.12-1.168 5.183 7.445 1.696 9.423-1.131c1.978 2.827 7.367 4.194 9.423 1.131s-1.168-5.183-1.168-5.183 2.235 3.809-0.623 5.325c-2.858 1.515-7.056-0.094-6.962-5.325 0-0.01 3.6-3.31-0.67-3.3z"/>
<path d="m755.49 138.68s1.495 2.545 1.168 6.408c0 0 1.35-3.87-1.17-6.41z"/>
<path d="m742.4 144.66s-0.327-2.78-3.037-3.016c0.01 0.01 2.3 1.66 3.04 3.02z"/>
<path d="m763.43 144.66s0.327-2.78 3.037-3.016c0 0.01-2.29 1.66-3.04 3.02z"/>
<path d="m738.1 148.91s2.149 0.66 3.458-0.942c0-0.01-2.47 0.65-3.46 0.94z"/>
<path d="m731.14 131.85s2.5-0.283 5 3.44c0 0-2.477 1.319-3.084 2.12 0 0 0-1.225 1.215-2.309-0.01 0-0.47-1.88-3.14-3.25z"/>
<path d="m773.01 131.85s-2.5-0.283-5 3.44c0 0 2.477 1.319 3.084 2.12 0 0 0-1.225-1.215-2.309 0 0 0.47-1.88 3.13-3.25z"/>
<path d="m753.71 134.63s2.243 0.615 5.046-0.94c0 0 3.458-1.838 5.654 0 0 0-1.916-0.853-5.607 0.94 0 0-3.69 2.02-5.09 0z"/>
<path d="m756.05 136.89s1.916-3.36 7.757-2.693c-0.01 0-1.59 4.67-7.76 2.69z" fill="#fff"/>
<ellipse cy="135.85" cx="760.08" rx="1.155" ry="1.464" fill="#784421"/>
<ellipse cy="135.85" cx="760.08" rx=".686" ry=".898"/>
<path d="m743.52 129.73s3.691 0.236 5.934 1.649c0 0 2.383 1.414 5.093-0.613 0 0 2.947-1.696 4.838-4.052 0 0-4.511 3.11-6.193 3.581 0 0-1.542-1.178-2.149-2.874 0 0 0.234-1.272 2.663-3.628 0 0-3.271 0.99-3.925 3.77 0 0 0.607 1.696 1.869 3.016 0 0-0.607 0.283-2.196-0.707 0.01-0.01-3.45-1.19-5.93-0.15z"/>
<path d="m752.9 151.9c-3.193 2.757 0 2.474 0 2.474s3.2 0.29 0-2.47z"/>
<path d="m751.05 134.63s-2.243 0.615-5.047-0.94c0 0-3.458-1.838-5.654 0 0 0 1.916-0.853 5.607 0.94 0 0 3.69 2.02 5.09 0z"/>
<path d="m748.72 136.89s-1.916-3.36-7.757-2.693c0 0 1.59 4.67 7.76 2.69z" fill="#fff"/>
<ellipse cy="135.85" cx="744.69" rx="1.155" ry="1.464" fill="#784421"/>
<ellipse cy="135.85" cx="744.69" rx=".686" ry=".898"/>
<path stroke="#000" stroke-width="2" d="m865.72 106.66v211.74c0 56.557-113.06 74.933-113.06 74.933s-113.06-18.376-113.06-74.933v-211.74h226.12z" fill="none"/>
</svg>
