<svg xmlns="http://www.w3.org/2000/svg" viewBox="0 0 1000 500">
<path fill="#CF142B" d="M0 0h1000v500H0z"/>
<path fill="#00247D" d="M0 0h500v250H0z"/>
<path d="M0 0v27.95L444.098 250h55.9v-27.95L55.9 0H0zm499.998 0v27.95L55.9 250H0v-27.95L444.098 0h55.9z" fill="#fff"/>
<path d="M208.332 0v250h83.333V0h-83.333zM0 83.333v83.333h499.998V83.333H0z" fill="#fff"/>
<path d="M0 100v50h499.998v-50H0zM225 0v250h50V0h-50zM0 250l166.666-83.334h37.267L37.267 250H0zM0 0l166.666 83.333H129.4L0 18.633V0zm296.065 83.333L462.73 0H500L333.332 83.333h-37.267zM499.998 250l-166.666-83.334H370.6l129.398 64.7V250z" fill="#CF142B"/>
<path d="M865.36 106.66V318.4c0 56.557-113.06 74.933-113.06 74.933S639.24 374.957 639.24 318.4V106.66h226.12z" fill="#fff"/>
<path d="M865.36 318.4c0 56.557-113.06 74.933-113.06 74.933S639.24 374.957 639.24 318.4s0-4.555 2.3-7.145c0 0-1.245 9.407 5.982 16.522 0 0-5.67-10.037-.125-19.9 0 0-2.056 12.69 5.856 19.978 0 0-4.36-10.367.56-21.927 0 0-2.43 18.91 6.17 22.68 0 0 2.366-10.868-1.06-17.842 0 0 5.92 2.387 5.607 18.157 0 0 1.87-2.325 2.367-13.697 0 0 .25 13.005 4.735 16.02 0 0 1.37-1.318-.498-7.224s.81-7.98 1.246-7.854c0 0-.983 6.534 4.493 11.435 0 0-2.374-10.24.928-11.623 0 0-.68 8.67 6.17 10.618 0 0 .5-2.513-.99-5.34 0 0-1.31-3.353-.31-5.918 0 0 2.18 7.865 5.17 9.185 0 0-1.8-4.61-.12-9.185 0 0 .38 6.546 6.23 9.247 0 0-3.86-5.067-2.33-10.64l37.66 1.844 19.5.93 58.5-4.13 10.1-8.67s3.99 5.53-2.3 14.26c0 0 6.23-1.13 8.23-10.87 0 0 2.55 5.41-.94 11.38 0 0 6.92-6.91 7.92-14.76 0 0 2.68 7.6-3.86 15.77 0 0 5.86-1.95 8.35-10.62 0 0 1.99 5.22-3.68 12.6 0 0 10.59-5.62 10.28-17.25 0 0 4.43 6.41-.62 15.21 0 0 5.42-4.84 5.92-12.06 0 0 2.99 3.27-.25 12.26 0 0 6.6-6.22 7.6-12.94 0 0 1.43 6.22-4.24 14.07 0 0 3.87-.94 7.54-8.6 0 0 1 3.02-2.36 8.55 0 0 3.61-.63 6.04-7.54 0 0 .44 4.15-.62 7.85 0 0 2.8-1.82 3.42-9.67 0 0 1.57 2.58 1.59 5.78.03 3.21 0 1.11 0 1.11z" fill="#2F8F22"/>
<path stroke-linejoin="round" stroke="#000" stroke-width=".831" d="M807.14 196s-3.93.668-8.975-.87c-5.046-1.537-7.086-.913-8.652 0 0 0 2.048-4.055-2.936-7.257 0 0 1.62 4.094-.623 6.006 0 0-.997.93-2.18-.48 0 0-1.745-1.79-3.583-3.18 0 0 4.24-1.48 3.46-5.78s-3.08-4.87-4.33-5.41c0 0 .44 1.95 0 3.26 0 0-4.61-2.58 1.65-6.22s5.11-5.78 3.99-7.64c-1.12-1.85-3.52-3.9-4.7-4.62 0 0 1.25 1.95 1.03 3.61s-3.05 2.73-2.49-.19c.56-2.93-.03-2.42-.09-5.53 0 0 5.58 1.88 7.76-3.55 0 0 2.15-5.63-4.89-8.42 0 0 1.71 2.29.87 4.02 0 0-1.49 2.83-3.27.53s-2.89-2.74-2.71-5.44 6.39.88 4.64-6.06c0 0-1.03 4.61-9.31-1.61 0 0 5.39-5.53 3.3-9.99 0 0-.65-2.04-6.51-.85 0 0 5.08-3.21 2.93-5.94 0 0-1.09-1.82-5.82.56 0 0 1.84-3.17-2.8-6.6 0 0-3.11 1.63-4.76 3.14 0 0-3.18-4.02-5.2-5.62 0 0-3.67 1.41-4.61 5.62 0 0-1.71-2.05-5.6-2.99 0 0-1.87 3.45.56 6.47 0 0-1.81-.06-5.11-1.51 0 0-3.77-1.79-3.21 1.44s.84 3.96 1.59 5.47-8.46-1.97-8.1 2.6c.25 3.17 1.43 5.9 4.05 8.2 0 0-4.73 6.19-8.78 1.54 0 0-1.4 1.5 1.62 5.46 0 0 3.02 3.33.53 5.43 0 0-3.33 2.67-4.95-2.52 0 0-5.39 5.37.97 9.49 0 0 4.08 2.32 8.26-1.26 0 0-1.27 10.3-5.26 8.32 0 0-2.4-1.76 1.9-3.87 0 0-6.2-.788-7.2 5.212 0 0-.76 4.77 4.64 6.5 0 0 4.18 1.51-.15 4.74 0 0-3.05 2.32-1.06 5.78 0 0 2.4 3.8-3.67 4.173 0 0-3.3-.03-4.48-.47 0 0-1.33 2.48-.4 5.31 0 0-3.02-2.258-9.91.24-6.88 2.49-6.35.732-6.91 1.49s-1.9 3.3-1.9 3.3 3.62 4.4 3.68 4.3c.06-.09-.69 5.03-.69 5.03l1.78.84 14.17-6.3 14.39-7.5 11.57.71 7.34 1.747 9.64.71 6.91-3.682h10l11 5.48 12.55 7.49 6.54 1.15 5.04-.27V199.6l-2.46-3.68z" fill="#D40000"/>
<path stroke-linejoin="round" stroke="#000" stroke-width=".831" d="M692.97 207.89s5.483 2.796 7.772-.597c0 0 2.99-5.702-3.575-7.68 0 0 3.575-4.29-.257-8.247 0 0-2.01-2.12-5.514-.565 0 0-1.45-3.01-4.86-2.92 0 0-2.99-.04-4.018 3.25 0 0-4.112-1.69-6.402.76 0 0-3.785 4.24 1.495 7.59l3.8.35 3.74-1.73 4.18 1.2c.02 0-1.05 4.22 3.66 8.61z" fill="#D40000"/>
<path stroke="#000" stroke-width=".623" d="M815.36 197.86c6.605-.622 8.937 4.952 8.937 4.952 3.462 8.122-3.89 12.458-3.89 12.458.56 1.822.623 4.21.623 4.21 10.342 1.256 8.534 12.88 8.534 12.88l-3.425-2.828c-5.99-2.325-12.15 2.764-16.58 11.31s-2.31 12.565-1.56 22.68c.74 10.115 17.19 16.147 17.19 16.147s-7.79 20.04-12.84 32.92c-5.05 12.88-15.58 7.54-18.63 4.82-3.06-2.72-3.82-1.21-5.36 0s6.91 7.8-8.48 14.02-18.07 10.99-20.62 12.56-13.21.5-14.27-.82c-1.06-1.32-.44-1.32-4.42-3.77-3.99-2.45-10.72-4.59-18.07-8.17s-7.17-8.17-7.1-9.11c.06-.95 2.55-8.61-6.06-2.52s-15.94-2.91-15.94-2.91c-1.68-2.21-8.85-21.41-8.85-21.41-1.94-7.16-5.74-15.52-5.74-15.52.18-.06-.38.88 5.98-2.76s9.2-9.71 11.4-15.71c2.2-6 .06-16.27-.75-18.35-.81-2.08-5.55-11.58-11.41-13.57s-9.8 2.95-9.8 2.95-1.81-11.63 8.54-12.88.06-2.39.62-4.21c0 0-7.35-4.34-3.89-12.46 0 0 2.33-5.58 8.94-4.95l-1.6 3.02s-1.67 16.58 22.61 5.46 23.55-13.2 37.38-6.22l10.1-.19s14.58-6.74 19.25-3.84c4.67 2.9 21.49 12.32 21.49 12.32s16.26 6.1 19.43-5.15l-1.79-5.41z" fill="#64B4D1"/>
<path stroke="#00247D" stroke-width=".831" stroke-miterlimit="10" d="M742.31 269.77s-.844-5.09-1.73-8.388c0 0-1.803-5.174 1.27-8.806l3.813-4.387s2.37-3.19 5.302-3.62c0 0 2.933-.09 3.213-.69s3.49-5.88 11.12 0c0 0 2.43-3.9 6.17-4.56 0 0 4.037-1.23 5.99 1.79 0 0 4.538-3.44 8.432 2.09 0 0 5.39-3.03 9.314 2.99 0 0 5.327-2.6 8.598 2.94s2.617 7.8 2.617 7.8l2.42 8.79 8.6 10.61-20 7.54h-8.97l-17.95 4.8-31.87 2.45-8.88-10.46 12.53-10.94z" fill="#fff"/>
<path stroke-linejoin="round" stroke="#000" stroke-width=".831" d="M715.37 322.74s-4.766.283-7.196 1.508-4.3 2.545-7.102 4.335c0 0-1.308 1.743-6.822.683 0 0-9.532-2.285-9.532 5.16 0 0-11.4.942-6.73 10.932 0 0 3.178 7.822 9.72 2.262 0 0-4.205 6.03 3.925 8.388 0 0 5.794 1.414 7.476-4.524 0 0 .93-2.356-1.31-5.278 0 0 2.8-.565 4.76-3.58 0 0-5.98 7.558.56 10.28 0 0 8.22 2.064 8.69-6.512 0 0-.67-3.958 2.51-5.372 0 0 6.55-1.508 9.54-8.812 0 0-9.42-5.02-8.51-9.47zm-19.24-75.17s-7.352-3.386-10.84 0c0 0-4.86-3.01-9.97 0 0 0-4.86 3.176-8.223 6.674 0 0-2.367 2.027-1.495 8.417 0 0 1.246 4.51.498 6.77 0 0-1.62-.32-4.86 3.52 0 0-4.112 4.76-7.725.56 0 0 1.12 5.85 7.912 4.91 0 0-3.302 2.58-.436 9.24 0 0 2.12 4.71-1.24 10.62 0 0 5.92-2.38 5.67-9.36 0 0-.5-4.71 1.25-8.04 0 0-1.74 3.03 2.31 9.49 0 0 3.12 4.65.56 9.49 0 0 5.86-2.13 5.3-9.23s-4.11-4.14-1.8-10.68.56 3.35 2.31 5.04 3.99 4.52 3.06 9.23 3.49-4.33 2.68-8.79-1.68-5.81-1.68-5.81l11.03-6.25 5.48-9.92.25-15.85z" fill="#D40000"/>
<path stroke="#000" stroke-width=".831" stroke-miterlimit="10" d="M679.37 275.58s-4.548-.314-5.296-3.833m-7.974-2.317s1.585-.063 3.018 1.382c0 0 1.094 1.634 2.652 1.445" fill="none"/>
<path d="M686.1 262.2s-2.367 0-3.676-1.13c0 0-1.37-.943-2.18.564 0 0-1.247 2.136 1.058 3.08 0 0 2.866 1.444-1.682 4.334 0 0 5.42-1.948 3.24-4.586 0 0-2.367-1.696-1.495-2.325 0 0 .25-.503 1.184.126.94.62 2.81.37 3.56-.07z"/>
<path stroke="#000" stroke-width=".623" fill="#784421" d="M760.41 274.2l-18.22-62.91-.67.18 16.1 63.68z"/>
<path d="M696.96 344.78s-4.3-2.415-7.85.412c0 0 .363-1.57 3.08-2.262 0 0 1.47-4.147 5.58-3.77 0 0-1.682 2.01-3.925 3.707.01 0 2.38.25 3.12 1.91z"/>
<path stroke="#00247D" stroke-width=".623" stroke-miterlimit="2.613" d="M681.82 354.78s-6.822-4.288-3.13-11.498c0 0 1.074-2.073 3.13-1.65 0 0 4.252 1.32.935 7.21 0 0-1.68 3.82-.94 5.94zm13.84 6.78s-9.72-4.43-6.73-11.97c0 0 .925-2.544 3.08-2.355 0 0 3.748.188 2.998 5.183-.01.01-1.13 4.91.65 9.15z" fill="#64B4D1"/>
<path d="M693.6 333.43s-2.92 2.157-4.108 3.602c0 0-1.188-1.476-2.745-2.372 0 0 1.793-.236 2.745.57.01 0 1.5-1.45 4.12-1.8z"/>
<path stroke="#00247D" stroke-width=".623" stroke-miterlimit="2.613" d="M702.24 359.68s7.616-1.932 6.215-9.8c0 0-.748-3.44-3.972-2.97 0 0-3.885.992-1.355 5.994-.01 0 1.49 3.58-.9 6.78z" fill="#64B4D1"/>
<path stroke="#000" stroke-width=".831" stroke-miterlimit="2.613" d="M736.66 193.2s4.906 1.504 7.57 2.59c0 0 7.102 3.204 16.12 0 0 0 6.1-2.415 6.913-2.59l-4.67 7.114-.234 3.675 2.92 4.28s-1.76.7-6.99-2.5c0 0-5.8-4.48-12.71 0 0 0-3.79 2.56-6.96 2.49l4.48-5.01-1.73-4.51-4.72-5.55z" fill="#F5CE00"/>
<path d="M705.19 350.28s.28-.377-.047-.542c0 0-.327-.14-.56.318 0 0-.795 1.26-.123 2.986 0 0 .636 1.196.327 2.445 0 0-.042.353.24.4 0 0 .268-.093.32-.352 0 0 .38-1.22-.274-2.412-.01-.02-.8-1.87.11-2.86z" fill="#fff"/>
<path stroke-linejoin="round" stroke="#000" stroke-width=".831" d="M810.69 207.89s-5.483 2.796-7.772-.597c0 0-2.99-5.702 3.575-7.68 0 0-3.575-4.29.257-8.247 0 0 2.01-2.12 5.514-.565 0 0 1.45-3.01 4.86-2.92 0 0 2.99-.04 4.018 3.25 0 0 4.112-1.69 6.4.76 0 0 3.786 4.24-1.494 7.59l-3.8.35-3.738-1.73-4.174 1.2c-.02 0 1.06 4.22-3.66 8.61z" fill="#D40000"/>
<path stroke="#000" stroke-width=".831" stroke-miterlimit="2.613" d="M767.26 203.46s-.138 1.13-1.26 1.257c0 0-1.17.377-1.852-1.08 0 0-.08-.33-.097-.49-.07-.682-.31-2.64 1.81-4.242 0 0 3.46-2.827 10.06.597 0 0 5.24 2.513 8.85 4.65 0 0 9.35 5.025 10.47 5.402 0 0 4.11 2.073 10.41 2.325 0 0 8.6.62 12.24-5.41 0 0 2.78-4.59 0-7.51 0 0-1.12-1.32-2.96-1.08-.77.1-1.63.46-2.45 1.42 0 0-1.34 1.94.22 3.39 0 0 2.03 1.24 2.74-1.39 0 0 .03-.19.1.05.04.15.5 2.15-.57 3.85 0 0-5.18 7.85-19.45-.29l-18.82-10.55s-9.44-4.84-15.07 2.73c0 0-4.54 6.28 1.31 10.39 0 0 4.36 2.6 7.1-1.54 0 0 2.28-4.09-1.3-5.88 0 0-3.14-1.48-4.39 1.66s2.43 3.96 2.77 1.73c.02-.02.11-.56.2-.05z" fill="#F5CE00"/>
<path stroke="#000" stroke-width=".623" stroke-miterlimit="2.613" d="M692.68 235.84v-11.78c0-.925.007-1.696 1.408-2.827s2.897-2.922 5.046 2.168 4.205-4.42 5.607-5.08c0 0 2.43-2.07 4.12.94 0 0 2.25-3.39 4.02-4.24 0 0 4.21-2.73 4.4 5.47l3.27-3.01s2.53-2.07 5.33.76c0 0 4.77 4.62 5.42 5.94 0 0 1.06 1.43 1.14 3.69 0 0-.01 2.54 1.3 3.95 0 0 1.5 1.32 2.95 1.61 0 0 3.41.09 4.63 3.3 0 0 .56-.55 2.24 14.8v27.98l-18.9 22.5-30.28-8.67-12.05-4.99-2.71-8.86 11.68-7.53 6.36-17.15-2.05-12.06-2.9-6.87z" fill="#E4CB5E"/>
<path stroke="#000" stroke-width=".623" d="M776.11 250.7l1.433-2.136 3.427-2.64s5.233 13.735 5.483 16.732v4.262s7.85 2.003 9.22 14.066l-6.478 11.937-10.155-5.65-2.928-2.13v-34.42z" fill="#784421"/>
<path d="M679.93 345s.374-.495.117-.707c0 0-.164-.236-.607.33 0 0-2.064 2.307-.42 5.855 0 0 .186.506.513.34 0 0 .28-.14.023-.564.01 0-1.46-2.93.38-5.26z" fill="#fff"/>
<path stroke="#000" stroke-width=".831" stroke-miterlimit="10" d="M710.55 342.68s.31-1.068-.436-2.2c0 0-.498-.816-.312-1.884" fill="none"/>
<path stroke="#000" stroke-width=".623" stroke-miterlimit="10" d="M717.26 220.48s.028 2.946.87 5.114 3.68 5.917 3.867 7.943" fill="none"/>
<path stroke-linejoin="round" stroke="#000" stroke-width=".831" d="M788.48 322.74s4.766.283 7.196 1.508 4.3 2.545 7.102 4.335c0 0 1.308 1.743 6.822.683 0 0 9.532-2.285 9.532 5.16 0 0 11.4.942 6.73 10.932 0 0-3.178 7.822-9.72 2.262 0 0 4.205 6.03-3.925 8.388 0 0-5.794 1.414-7.476-4.524 0 0-.93-2.356 1.31-5.278 0 0-2.8-.565-4.76-3.58 0 0 5.98 7.558-.56 10.28 0 0-8.22 2.064-8.69-6.512 0 0 .67-3.958-2.51-5.372 0 0-6.55-1.508-9.54-8.812-.01 0 9.41-5.02 8.5-9.47z" fill="#D40000"/>
<path stroke="#000" stroke-miterlimit="10" stroke-width=".623" fill="none" d="M713.5 233.54l7.78 62.78m-5.98-62.92l8.72 58.52m-7.08-58.79l10.04 58.03"/>
<path stroke="#000" stroke-width=".623" fill="#784421" d="M735.61 285.23l-18.22-62.92-.66.18 16.1 63.68z"/>
<path stroke="#000" stroke-miterlimit="10" stroke-width=".623" fill="none" d="M722.51 230.82l18.4 46.49m-19.63-45.73l17.76 48.56"/>
<path d="M692.14 357.1s-2.135-2.047-1.838-5.717c0 0 .125-.785-.267-.894 0 0-.418-.18-.48.73 0 0-.592 3.83 1.994 6.03 0 0 .17.22.46.16.01 0 .31-.07.14-.32z" fill="#fff"/>
<path stroke="#000" stroke-miterlimit="10" stroke-width=".623" fill="none" d="M723.34 230.19l18.97 42.41m-24.16-39.77l11.64 57.11"/>
<path stroke="#000" stroke-width=".831" stroke-miterlimit="2.613" d="M813.33 275.15c-8.31-4.715-10.132-15.176-10.132-15.176-2.01-10.414 2.056-18.66 2.056-18.66 5.374-11.356 14.582-13.47 14.582-13.47s-9.02 6.26-11.544 14.695-1.963 7.11-.84 14.13c1.12 7.02.7 5.23 2.43 10.65l3.44 7.83z" fill="#F5CE00"/>
<path stroke="#000" stroke-width=".38" d="M777.54 248.57l-34.917 11.025-1.904 15.554c-8.29 12-25.13 14.13-25.13 14.13l13.1 13.95 25.17 5.27 13.21-10.18 11.96-11.06c-1.25-5.91-.56-14.67-.56-14.67 0-1.48.56-4.93.56-4.93s-2.06-14.2-1.5-19.1z" fill="#784421"/>
<path stroke="#000" stroke-width=".623" stroke-miterlimit="10" d="M741.2 271.24s22.997-7.18 36.71-12.947m-47.75 26.057s28.69-5.183 48.876-16.68l7.414-5.008" fill="none"/>
<path stroke="#000" stroke-width=".623" stroke-miterlimit="10" d="M786.45 266.92l-7.975 5.678s-32.086 14.796-56.516 15.19m56.51-4.678s-24.67 12.7-38.81 12.89" fill="none"/>
<path stroke-linejoin="round" stroke="#000" stroke-width=".831" d="M807.88 247.57s7.352-3.386 10.84 0c0 0 4.86-3.01 9.97 0 0 0 4.86 3.176 8.223 6.674 0 0 2.367 2.027 1.495 8.417 0 0-1.246 4.51-.498 6.77 0 0 1.62-.32 4.86 3.52 0 0 4.112 4.76 7.725.56 0 0-1.12 5.85-7.912 4.91 0 0 3.302 2.58.436 9.24 0 0-2.12 4.71 1.24 10.62 0 0-5.92-2.38-5.67-9.36 0 0 .5-4.71-1.25-8.04 0 0 1.74 3.03-2.31 9.49 0 0-3.12 4.65-.56 9.49 0 0-5.86-2.13-5.3-9.23.56-7.1 4.11-4.14 1.8-10.68 0 0-.56 3.35-2.31 5.04s-3.99 4.52-3.06 9.23c0 0-3.49-4.33-2.68-8.79s1.68-5.81 1.68-5.81l-11.03-6.25-5.49-9.92-.24-15.85z" fill="#D40000"/>
<path stroke="#00247D" stroke-width=".831" stroke-miterlimit="10" d="M682.97 287.3s1.028-4.87 5.7-2.954c0 0 1.59-7.98 10.094-8.26 8.504-.284 8.97 8.292 8.97 8.858 0 0 2.5-3.682 6.67-3.255 0 0 7.19-.43 4.513 11.12l1.36 1.45s5.494-12.9 16.802-9.51c0 0 11.02 3.36 3.83 14.04 0 0 5.44 7.07 10.05 6.41s8.72-2.08 13.3-10.18c4.58-8.11 15.23-9.33 17.94-8.86s4.85 2.23 5.29 4.15c0 0 5.64-18.83 25.92-15.87l8.13 4.09 3.08 1.41-4.6 12.97-11.2 25.31-8.5 2.61-8.88-5.09-3.09 1.65-.25 7.58-11.71 8.43-8.13 3.35-8.97 6.12-2.09 5.48s-4.96-2.09-10.55 0l-1.85-4.54-5.24-5-20.33-9.59-3.67-11.85-3.71-1.66-4.16 4.76-6.07.7-9.07-6.13-9.63-27.81z" fill="#fff"/>
<path stroke="#000" stroke-width=".831" stroke-miterlimit="2.613" d="M771.5 195.13s-7.76-.345-7.478 7.697" fill="none"/>
<path stroke="#000" stroke-width=".831" stroke-miterlimit="2.613" d="M822.54 280.56c-13.504-4.147-17.195-18.66-17.195-18.66-2.757-10.885 1.682-20.403 1.682-20.403 6.168-14.485 16.604-14.482 16.604-14.482 5.24-.14 5.87 4.335 5.87 4.335.5 3.173-1.73 4.32-1.73 4.32-3.58 1.947-5.84-.692-5.84-.692-1.49-1.948-.34-3.675-.34-3.675.92-1.288 2.68-.723 2.68-.723 1.4.432 1.25 2.175 1.25 2.175.01.047.04.047.04.047.06-.016.04-.04.04-.04s.31-2.135-1.77-2.355-4.06-.88-8.83 5.058c0 0-6.27 8.01-6.26 18.377 0 0-.79 19.46 19.49 24.503 0 0-2.19 3.157-6.07 14.56 0 0-4.39 14.655-8.58 22.578 0 0-5.57 11.302-18 6.684 0 0-7.4-3.25-7.38-8.623 0 0-.51-4.9 3.93-5.278 0 0 4.35-.33 4.3 3.393 0 0 .12 4.02-4.63 3.11 0 0-1.66-.36-1.35-1.98 0 0 .27-1.46 2.27-.83 0 0 .06.01.07-.03 0 0 .02-.04-.05-.06 0 0-.77-.35-1.59-.06 0 0-.73.24-.79 1.38 0 0-.05.92.93 1.43 0 0 1.19.42 2.13.33 0 0 1.26 2.53 4.1 3.39 3.96 1.19 7.22.04 9.22-1.55 2.17-1.74 3.58-4.76 4-5.51s4.06-8.91 6.81-17.69 2.4-7.57 4.32-11.53l.74-1.57z" fill="#F5CE00"/>
<path stroke="#000" stroke-width=".831" stroke-miterlimit="2.613" d="M784.43 317.46s2.523-.342 2.523 1.908c0 0-.154 3.287-4.16 2.568 0 0-3.947-.864-2.546-5.278 0 0 .935-3.11 4.673-2.662 0 0 3.62.165 5.21 5.113 0 0 1.215 4.17-.864 7.75-2.32 3.99-8.193 6.62-11.027 7.78 0 0-11.36 4.46-14.75 7.01 0 0-5.2 3.85-2.9 7.44 0 0 .88 1.36 2.22 1.36 0 0 1.52.07 1.77-1.49 0 0 .01-.03-.02-.07 0 0-.03 0-.03.04 0 0-.11.95-.94 1.3 0 0-1.11.56-2.27-.43 0 0-1.23-1.18-.2-3.01 0 0 1.35-2.26 4.48-.92 0 0 2.77 1.36 1.63 4.3 0 0-1.01 2.7-4.35 2.69 0 0-2.51-.08-4.12-1.77-2.51-2.63-2.64-7.74-.44-10.39 0 0 2.09-2.81 6.28-4.53 2.43-1 7.01-2.99 11.77-4.86 3.35-1.32 6.42-2.89 8.41-5.25 0 0 1.78-1.98 2.29-5.37 0 0 .49-2.55-1.06-3.1 0 0-.79-.35-1.65-.24 0 0-.02 0-.03.01.02 0-.01.03.07.02z" fill="#F5CE00"/>
<path stroke="#000" stroke-width=".831" stroke-miterlimit="2.613" d="M784.64 317.44s2.788-.503 4.532 2.812c0 0 1.028 2.136 1.194 3.372m.914-11.844s-2.792.484-1.354 4.434c1.355 3.723 3.872 4.944 4.62 5.462" fill="none"/>
<path stroke="#000" stroke-width=".831" stroke-miterlimit="2.613" d="M736.65 203.46s.138 1.13 1.26 1.257c0 0 1.17.377 1.852-1.08 0 0 .08-.33.097-.49.07-.682.31-2.64-1.81-4.242 0 0-3.46-2.827-10.06.597 0 0-5.24 2.513-8.85 4.65 0 0-9.35 5.025-10.47 5.402 0 0-4.11 2.073-10.41 2.325 0 0-8.6.62-12.24-5.41 0 0-2.78-4.59 0-7.51 0 0 1.12-1.32 2.96-1.08.77.1 1.63.46 2.45 1.42 0 0 1.34 1.94-.22 3.39 0 0-2.03 1.24-2.74-1.39 0 0-.03-.19-.1.05-.04.15-.5 2.15.58 3.85 0 0 5.18 7.85 19.45-.29l18.81-10.55s9.44-4.84 15.07 2.73c0 0 4.55 6.28-1.31 10.39 0 0-4.36 2.6-7.1-1.54 0 0-2.28-4.09 1.31-5.88 0 0 3.14-1.48 4.39 1.66s-2.43 3.96-2.77 1.73c-.02-.02-.11-.56-.21-.05zm-46.06 71.69c8.31-4.715 10.132-15.176 10.132-15.176 2.01-10.414-2.056-18.66-2.056-18.66-5.374-11.356-14.582-13.47-14.582-13.47s9.02 6.26 11.544 14.695 1.963 7.11.84 14.13c-1.12 7.02-.7 5.23-2.43 10.65l-3.44 7.83z" fill="#F5CE00"/>
<path stroke="#000" stroke-width=".831" stroke-miterlimit="2.613" d="M732.42 195.13s7.76-.345 7.478 7.697" fill="none"/>
<path stroke="#000" stroke-width=".831" stroke-miterlimit="2.613" d="M681.38 280.56c13.504-4.147 17.195-18.66 17.195-18.66 2.757-10.885-1.682-20.403-1.682-20.403-6.168-14.485-16.604-14.482-16.604-14.482-5.24-.14-5.87 4.335-5.87 4.335-.5 3.173 1.73 4.32 1.73 4.32 3.58 1.947 5.84-.692 5.84-.692 1.49-1.948.34-3.675.34-3.675-.92-1.288-2.68-.723-2.68-.723-1.4.432-1.25 2.175-1.25 2.175-.01.047-.04.047-.04.047-.06-.016-.04-.04-.04-.04s-.31-2.135 1.77-2.355 4.06-.88 8.83 5.058c0 0 6.27 8.01 6.26 18.377 0 0 .79 19.46-19.49 24.503 0 0 2.19 3.157 6.07 14.56 0 0 4.39 14.655 8.58 22.578 0 0 5.57 11.302 18 6.684 0 0 7.4-3.25 7.38-8.623 0 0 .51-4.9-3.93-5.278 0 0-4.35-.33-4.3 3.393 0 0-.12 4.02 4.63 3.11 0 0 1.66-.36 1.35-1.98 0 0-.27-1.46-2.27-.83 0 0-.06.01-.07-.03 0 0-.02-.04.05-.06 0 0 .77-.35 1.59-.06 0 0 .73.24.79 1.38 0 0 .05.92-.93 1.43 0 0-1.19.42-2.13.33 0 0-1.26 2.53-4.1 3.39-3.96 1.19-7.22.04-9.22-1.55-2.17-1.74-3.58-4.76-4-5.51s-4.06-8.91-6.81-17.69-2.4-7.57-4.32-11.53l-.74-1.57z" fill="#F5CE00"/>
<path stroke="#000" stroke-width=".831" stroke-miterlimit="2.613" d="M719.48 317.46s-2.523-.342-2.523 1.908c0 0 .154 3.287 4.16 2.568 0 0 3.947-.864 2.546-5.278 0 0-.935-3.11-4.673-2.662 0 0-3.62.165-5.21 5.113 0 0-1.215 4.17.864 7.75 2.32 3.99 8.193 6.62 11.027 7.78 0 0 11.36 4.46 14.75 7.01 0 0 5.2 3.85 2.9 7.44 0 0-.88 1.36-2.22 1.36 0 0-1.52.07-1.77-1.49 0 0-.01-.03.02-.07 0 0 .03 0 .03.04 0 0 .11.95.94 1.3 0 0 1.11.56 2.27-.43 0 0 1.23-1.18.2-3.01 0 0-1.35-2.26-4.48-.92 0 0-2.77 1.36-1.63 4.3 0 0 1.01 2.7 4.35 2.69 0 0 2.51-.08 4.12-1.77 2.51-2.63 2.64-7.74.44-10.39 0 0-2.09-2.81-6.28-4.53-2.43-1-7.01-2.99-11.77-4.86-3.35-1.32-6.42-2.89-8.41-5.25 0 0-1.78-1.98-2.29-5.37 0 0-.49-2.55 1.06-3.1 0 0 .79-.35 1.65-.24 0 0 .02 0 .03.01-.01-.01.03.03-.06.02z" fill="#F5CE00"/>
<path stroke="#000" stroke-width=".831" stroke-miterlimit="2.613" d="M719.27 317.44s-2.788-.503-4.532 2.812c0 0-1.028 2.136-1.194 3.372m-.904-11.844s2.792.484 1.354 4.434c-1.355 3.723-3.872 4.944-4.62 5.462M745.21 202.38s6.75-4.227 13.644.454" fill="none"/>
<path stroke="#000" stroke-width=".623" stroke-miterlimit="2.613" d="M706.8 243.67s.935-3.77-3.364-10.367c0 0-2.804-6.03-4.3-9.895m9.714-4.148s2.434 5.93 3.27 8.584c0 0 3.02 7.437 3.66 8.945" fill="none"/>
<path stroke="#000" stroke-width=".623" stroke-miterlimit="10" d="M710.07 247.81s2.538 2.733 2.25 7.35m-10.66-10.27s2.804 1.35 2.62 8.796c0 0-.283 5.435 3.922 8.168m-6.922 1.916s8.775-.958 9.258 4.445c0 0 .187 5.183 3.177 5.75 0 0 4.48.423 5.367 4.57m-15.042-8.765s1.542 2.31 3.037 3.298m8.223-8.998s2.23 3.377 2.65 5.356m7.01-46.026s2.056 2.796 4.05 4.115m4.17 12.445s4.36 2.136 3.614 13.13c0 0-.56 6.45 1.246 9.968" fill="none"/>
<path stroke="#000" stroke-width=".623" d="M712.64 232.5l.28 1.037s7.82.33 12.04-4.995l-.452-1.02s-6.83-.35-11.87 4.98z" fill="#784421"/>
<path stroke="#000" stroke-width=".623" stroke-miterlimit="10" d="M740.81 274.45s27.042-8.062 37.464-12.762" fill="none"/>
<path stroke="#000" stroke-width=".38" fill="#784421" d="M737.59 223.69l13.38-5.09.31.89-13.38 5.08z"/>
<path stroke="#000" stroke-miterlimit="10" stroke-width=".623" fill="none" d="M739.04 224.14l8.88 43.53m-7.34-44.11l10.17 43.32m-8.44-43.98l11.12 43.01m-6.76-44.67l15.16 32.29m-13.15-33.05l16.16 32.1m-14.68-32.66l17.49 31.77m-20.33 16.32l6.86-2.26m-12.06-2.04s20.114-5.875 35.337-12.015M741.85 265.91s25.492-6.745 35.606-11.666M749.63 286.64l1.34 4.08 3.65-1.16-1.25-4.05m6.56-1.8l1.33 4.08 3.65-1.17-1.25-4.04m-21.04-22.99l-.31-5.52 33.43-10.15 1.8 4.65m-21.06 1.19l1.83 4.88m9.86-8.42l2.13 4.63m.64-5.48l1.99 4.39m.66-5.19l2.09 4.59"/>
<path stroke="#000" stroke-width=".623" stroke-miterlimit="10" fill="none" d="M775.74 243.92l3.67-2.08 1.56 4.09m-3.43-3.03l1.87 4.23"/>
<path stroke="#00247D" stroke-width=".831" stroke-miterlimit="10" d="M694.65 306.53s-6.542-6.625 0-13.114c0 0-7.102-3.473-5.98-9.065m17.66 27.43s-6.775.93-4.766-12.27c0 0-2.804 5.23-3.77 7.92-.723 2.01-.245 5.26 2.623 7.02 1.146.7 7.22 2.29 9.183-1.74m-10.84-21.11s-2.757 2.55-.794 7.21m3.644-6.6s.327 4.53 2.57 7.07m-.63-8.86s-.02 5.33 3.81 8.63m-1.91-10.46s.036 5.99 4.475 9.66m17.575-.89s2.243-4.9 6.962-4.66c0 0-2.29 1.04-2.243 3.33 0 0-.28 3.79 3.78 4.16 0 0 3.27.43 4.9-1.36" fill="none"/>
<path stroke="#00247D" stroke-width=".831" stroke-miterlimit="10" d="M738.67 319.72s-11.635-5.466-10.42-13.335c0 0 .467-4.806 5.166-7.068m-2.456 4.993s-1.028 3.393 1.262 5.75m1.348-8.06s-1.402 3.723.935 6.503m1.865-8.303s-1.68 3.08.33 5.86m-10.93 14.46s6.355 5.514 11.308 5.56m-13.318-3.82s5.94 4.806 9.65 5.513m-11.89-4.153s7.34 6.46 11.894 6.932m17.966 5.948s-7.216 3.888-1.622 8m-2.958-12.29s8.177-4.288 11.728-5.89m-8.788 8.1s11.822-7.21 15.326-8.764m-9.256 9.234s10.093-6.738 15.513-9.66m-8.823 9.43s6.962-5.466 13.69-9.424m2.38-6.836s-3.41-4.995-14.625 0c0 0 4.112-3.732 12.242-6.625m11.323-21.455s.92 4.052-.062 6.503" fill="none"/>
<path stroke="#00247D" stroke-width=".831" stroke-miterlimit="10" d="M769.32 309.97s2.336-3.44 8.27-5.136c0 0 1.6 4.005 6.216 3.11 0 0 6.962-1.367 4.86-9 0 0-1.448-5.702-9.4-6.267m23.654-9.567s8.084 1.455 7.944 8.052c0 0 .654 9.895-9.766 11.827m8.612-15.81s2.22-4.83 7.174-6.81m-6.014-2.83s2.208 3.54 3.717 4.05m-4.877-1.24s2.08 2.54 2.782 2.96m-3.452-.52s1.096 1.62 2.067 2.13m-43.657-40.38s1.573-2.56 5.483-1.47M788.9 263.7s2.477-10.332 11.12-6.516m-3.51-.855s.888-4.77-1.262-7.19M790.62 256s1.1 1.97.16 3.58" fill="none"/>
<path stroke="#00247D" stroke-width=".623" stroke-miterlimit="2.613" d="M808.2 361.56s9.72-4.43 6.73-11.97c0 0-.925-2.544-3.08-2.355 0 0-3.748.188-2.998 5.183 0 .01 1.12 4.91-.65 9.15z" fill="#64B4D1"/>
<path d="M811.72 357.1s2.136-2.047 1.838-5.717c0 0-.125-.785.267-.894 0 0 .418-.18.48.73 0 0 .592 3.83-1.994 6.03 0 0-.17.22-.46.16-.02 0-.32-.07-.14-.32z" fill="#fff"/>
<path stroke="#00247D" stroke-width=".623" stroke-miterlimit="2.613" d="M822.03 354.78s6.822-4.288 3.13-11.498c0 0-1.074-2.073-3.13-1.65 0 0-4.252 1.32-.935 7.21-.01 0 1.67 3.82.93 5.94z" fill="#64B4D1"/>
<path d="M823.73 345s-.374-.495-.117-.707c0 0 .164-.236.607.33 0 0 2.064 2.307.42 5.855 0 0-.186.506-.513.34 0 0-.28-.14-.023-.564-.01-.01 1.47-2.93-.38-5.26z" fill="#fff"/>
<path stroke="#00247D" stroke-width=".623" stroke-miterlimit="2.613" d="M801.61 359.68s-7.616-1.932-6.215-9.8c0 0 .748-3.44 3.972-2.97 0 0 3.885.992 1.355 5.994 0 0-1.5 3.57.89 6.78z" fill="#64B4D1"/>
<path d="M798.66 350.28s-.28-.377.047-.542c0 0 .327-.14.56.318 0 0 .795 1.26.123 2.986 0 0-.636 1.196-.327 2.445 0 0 .042.353-.24.4 0 0-.268-.093-.32-.352 0 0-.38-1.22.274-2.412.01-.02.8-1.87-.11-2.86z" fill="#fff"/>
<path d="M807.07 344.78s4.3-2.415 7.85.412c0 0-.363-1.57-3.08-2.262 0 0-1.468-4.147-5.58-3.77 0 0 1.682 2.01 3.925 3.707.01 0-2.36.25-3.11 1.91zm3.18-11.35s2.92 2.157 4.108 3.602c0 0 1.188-1.476 2.745-2.372 0 0-1.793-.236-2.745.57 0 0-1.49-1.45-4.11-1.8z"/>
<path stroke="#000" stroke-width=".831" stroke-miterlimit="10" d="M793.3 342.68s-.312-1.068.436-2.2c0 0 .498-.816.312-1.884m30.592-63.016s4.548-.314 5.296-3.833m7.974-2.317s-1.585-.063-3.018 1.382c0 0-1.094 1.634-2.652 1.445" fill="none"/>
<path d="M817.91 262.2s2.367 0 3.676-1.13c0 0 1.37-.943 2.18.564 0 0 1.247 2.136-1.058 3.08 0 0-2.866 1.444 1.682 4.334 0 0-5.42-1.948-3.24-4.586 0 0 2.367-1.696 1.495-2.325 0 0-.25-.503-1.184.126-.93.62-2.8.37-3.55-.07z"/>
<path stroke="#00247D" stroke-width=".623" stroke-miterlimit="2.613" d="M821.13 204.99s1.07-1.455.632-5.82 3.354-4.87 4.812-3.614 1.507 1.305.12 4.074c-.79 1.59-2.07 3.66-5.56 5.36z" fill="#64B4D1"/>
<path d="M822.56 201.73s1.42-1.528.743-4.845c0 0-.005-.327.183-.35 0 0 .345-.086.403.24 0 0 .76 3.537-.85 5.458 0 0-.3.284-.49 0 .01 0-.21-.2.01-.5z" fill="#fff"/>
<path stroke="#00247D" stroke-width=".623" stroke-miterlimit="2.613" d="M819.92 203.4s-.112-1.76-3.154-4.75-.54-5.748 1.322-5.725 1.93.03 2.625 2.97c.4 1.69.74 4.04-.8 7.5z" fill="#64B4D1"/>
<path d="M819.45 199.57s.054-2.156-2.7-4.406c0 0-.224-.262-.096-.4 0 0 .204-.294.47-.067 0 0 2.966 2.373 3.038 4.965 0 0-.033.42-.373.316 0 0-.3-.03-.34-.41z" fill="#fff"/>
<path stroke="#00247D" stroke-width=".623" stroke-miterlimit="2.613" d="M815.79 202.08s-.795-1.434-4.552-2.767-2.742-4.615-1.16-5.317 1.64-.722 3.396 1.477c1.01 1.27 2.23 3.11 2.31 6.61z" fill="#64B4D1"/>
<path d="M814.15 199.44s-.854-1.977-4.294-2.843c0 0-.313-.142-.255-.323 0 0 .07-.353.4-.26 0 0 3.69.886 4.84 3.205 0 0 .15.39-.2.44 0 0-.28.11-.47-.22z" fill="#fff"/>
<path stroke="#00247D" stroke-width=".623" stroke-miterlimit="2.613" d="M818.15 203.51s-1.752.492-5.775-1.45-5.785 1.438-5.08 3.245c0 0 .737 1.87 3.85 1.542 1.79-.18 4.2-.65 7-3.33z" fill="#64B4D1"/>
<path d="M808.79 204.79s1.824 1.125 5.134-.155c0 0 .337-.065.392.117 0 0 .15.325-.178.443 0 0-3.52 1.404-5.783.17 0 0-.344-.237-.085-.483.01 0 .18-.26.53-.1z" fill="#fff"/>
<path stroke="#000" stroke-width=".831" stroke-miterlimit="2.613" d="M812.26 190.8s2.01.974 1.542 3.33" fill="none"/>
<path stroke="#000" stroke-width=".831" stroke-miterlimit="10" d="M821.14 191.13s.786 2.488-.082 3.828" fill="none"/>
<path stroke="#00247D" stroke-width=".623" stroke-miterlimit="2.613" d="M682.53 204.99s-1.07-1.455-.632-5.82-3.354-4.87-4.812-3.614c0 0-1.507 1.305-.12 4.074.79 1.59 2.07 3.66 5.56 5.36z" fill="#64B4D1"/>
<path d="M681.1 201.73s-1.42-1.528-.743-4.845c0 0 .005-.327-.183-.35 0 0-.345-.086-.403.24 0 0-.76 3.537.85 5.458 0 0 .3.284.49 0-.01 0 .21-.2-.01-.5z" fill="#fff"/>
<path stroke="#00247D" stroke-width=".623" stroke-miterlimit="2.613" d="M683.74 203.4s.112-1.76 3.154-4.75.54-5.748-1.322-5.725-1.93.03-2.625 2.97c-.4 1.69-.74 4.04.8 7.5z" fill="#64B4D1"/>
<path d="M684.21 199.57s-.054-2.156 2.7-4.406c0 0 .224-.262.096-.4 0 0-.204-.294-.47-.067 0 0-2.966 2.373-3.038 4.965 0 0 .033.42.373.316 0 0 .31-.03.34-.41z" fill="#fff"/>
<path stroke="#00247D" stroke-width=".623" stroke-miterlimit="2.613" d="M687.87 202.08s.795-1.434 4.552-2.767 2.742-4.615 1.16-5.317-1.64-.722-3.396 1.477c-1.01 1.27-2.23 3.11-2.31 6.61z" fill="#64B4D1"/>
<path d="M689.52 199.44s.854-1.977 4.294-2.843c0 0 .313-.142.255-.323 0 0-.07-.353-.4-.26 0 0-3.69.886-4.84 3.205 0 0-.15.39.2.44 0 0 .28.11.48-.22z" fill="#fff"/>
<path stroke="#00247D" stroke-width=".623" stroke-miterlimit="2.613" d="M685.52 203.51s1.752.492 5.775-1.45 5.785 1.438 5.08 3.245c0 0-.737 1.87-3.85 1.542-1.81-.18-4.22-.65-7.01-3.33z" fill="#64B4D1"/>
<path d="M694.87 204.79s-1.824 1.125-5.134-.155c0 0-.337-.065-.392.117 0 0-.15.325.178.443 0 0 3.52 1.404 5.783.17 0 0 .344-.237.085-.483-.01 0-.18-.26-.53-.1z" fill="#fff"/>
<path stroke="#000" stroke-width=".831" stroke-miterlimit="2.613" d="M691.4 190.8s-2.01.974-1.542 3.33" fill="none"/>
<path stroke="#000" stroke-width=".831" stroke-miterlimit="10" d="M682.52 191.13s-.786 2.488.082 3.828" fill="none"/>
<path d="M769.74 168.27s1.273 3.634.724 6.927c-.49 2.945.18 3.706 1.243 4.29.92.503 3.055-.38 3.312-2.688 0 0 2.52 4.92-2.39 8.24 0 0-3.53 2.17-6.52-.73-1.06-1.02-1.52-3.84-1.01-6.46 0 0 .77-3.55-.52-7.19 0 0 2.01 2.14 1.49 6.42 0 0-1.03 7.67 4.65 7.29 0 0 3.92-.05 4.04-4.81 0 0-1.47 1.69-3.29 1.13-1.29-.4-2.48-1.65-2.27-3.62.23-2.05.81-5.65.53-8.81zm-6.43 12.6s-.312 6.063-5.856 7.54c0 0 .78-1.1-.467-4.116 0 0-1.215-1.76-1.12-4.492 0 0-1.766 1.38.248 5.026 1.215 2.2.156 4.838-.218 4.932-.37.08 9.16-1.27 7.42-8.9zm-7.2-6.03s-1.34-1.508-1.433-4.995c-.093-3.487-.748-4.335-1.215-4.744 0 0 .685 3.02.498 4.87s.125 2.93.374 3.8c0 0-3.022.48-4.922-3.92-1.816-4.2-3.645-3.86-4.548-3.83 0 0 1.053.12 3.177 3.96 2.12 3.83 2.71 4.62 8.07 4.87zm-14.14-9.11s1.745 4.178 1.807 6.377c0 0-4.05-1.35-5.14-4.87 0 0-4.33 1.477-2.74 6.472 0 0-3.74-1.32-5.42-4.37 0 0 2.086 1.57 4.017 2.26 0 0-.218-4.02 4.828-5.53 0 0 .75 3.6 3.27 4.46-.01.01-.2-2.26-.63-4.8zm6.66-7.16s1.402 2.042 4.268 2.136c1.37.045 2.844-.264 4.268-2.136 0 0-.187 3.55-4.268 3.58 0 0-4.27.15-4.27-3.58zm-17.65 24.26s2.126 1.932 2.57 2.568c0 0 1.495 1.46 2.78-.428 0 0 1.636-3.02 3.645-2.94 0 0-1.425.99-3.027 3.845 0 0-.43 1.054-1.623 1.172-.558.055-1.262.236-2.327-.877 0 0-.92-1.12-2.02-3.34zm21.92-38.49c-4.268-.002-.67 3.298-.67 3.298.093 5.23-4.104 6.84-6.962 5.325-2.858-1.516-.623-5.325-.623-5.325s-3.224 2.12-1.168 5.183 7.445 1.7 9.423-1.13c1.978 2.83 7.367 4.2 9.423 1.13s-1.168-5.18-1.168-5.18 2.235 3.81-.623 5.33c-2.858 1.52-7.056-.09-6.962-5.32 0-.01 3.6-3.31-.67-3.3zm2.59-5.66s1.495 2.545 1.168 6.408c0 0 1.35-3.87-1.17-6.41zm-13.09 5.98s-.327-2.78-3.037-3.016c.01.01 2.3 1.66 3.04 3.02zm21.03 0s.327-2.78 3.037-3.016c0 .01-2.29 1.66-3.04 3.02zm-25.33 4.25s2.15.66 3.458-.942c0-.01-2.47.65-3.46.94zm-6.96-17.06s2.5-.283 5 3.44c0 0-2.477 1.32-3.084 2.12 0 0 0-1.225 1.215-2.31-.01 0-.47-1.88-3.14-3.25zm41.87 0s-2.5-.283-5 3.44c0 0 2.477 1.32 3.084 2.12 0 0 0-1.225-1.215-2.31 0 0 .47-1.88 3.13-3.25zm-19.3 2.78s2.243.615 5.046-.94c0 0 3.458-1.838 5.654 0 0 0-1.916-.853-5.607.94 0 0-3.69 2.02-5.09 0z"/>
<path d="M756.05 136.89s1.916-3.36 7.757-2.693c-.01 0-1.59 4.67-7.76 2.69z" fill="#fff"/>
<ellipse cy="135.85" cx="760.08" rx="1.155" ry="1.464" fill="#784421"/>
<ellipse cy="135.85" cx="760.08" rx=".686" ry=".898"/>
<path d="M743.52 129.73s3.69.236 5.934 1.65c0 0 2.383 1.413 5.093-.614 0 0 2.947-1.696 4.838-4.052 0 0-4.51 3.11-6.193 3.58 0 0-1.542-1.177-2.15-2.873 0 0 .235-1.27 2.664-3.62 0 0-3.27.99-3.925 3.77 0 0 .61 1.7 1.87 3.02 0 0-.6.29-2.19-.7.01-.01-3.45-1.19-5.93-.15zm9.38 22.17c-3.193 2.757 0 2.474 0 2.474s3.2.29 0-2.47zm-1.85-17.27s-2.243.615-5.047-.94c0 0-3.458-1.838-5.654 0 0 0 1.91-.853 5.6.94 0 0 3.69 2.02 5.09 0z"/>
<path d="M748.72 136.89s-1.916-3.36-7.757-2.693c0 0 1.59 4.67 7.76 2.69z" fill="#fff"/>
<ellipse cy="135.85" cx="744.69" rx="1.155" ry="1.464" fill="#784421"/>
<ellipse cy="135.85" cx="744.69" rx=".686" ry=".898"/>
<path stroke="#000" stroke-width="2" d="M865.72 106.66V318.4c0 56.557-113.06 74.933-113.06 74.933S639.6 374.957 639.6 318.4V106.66h226.12z" fill="none"/>
</svg>
