<svg viewBox="0 0 1440 720" xmlns="http://www.w3.org/2000/svg" xmlns:xlink="http://www.w3.org/1999/xlink">
<path fill="#f7e017" d="M0 0h1440v720H0z"/>
<path d="M0 50v320l1440 150V350z" fill="#fff"/>
<path d="M0 220v150l1440 300V520z"/>
<g fill="#cf1126">
<path d="M695.74 569.72c-19.36-2.57-37.11-8.73-49.44-17.17-2.39-1.64-4.64-2.98-4.99-2.98-.36 0-.65 1.82-.65 4.07 0 6.37-2.56 9.58-9 11.25-6.16 1.6-15.56-1.63-23.18-7.95-7.89-6.55-17-11.55-24.71-13.55-6.35-1.66-14.78-1.39-20.87.65-2.83.95-6.05 2.29-7.17 2.98-1.11.69-2.36 1.25-2.76 1.25-1.08 0-.93-6.85.2-9.04 1.49-2.87 5.16-5.7 9.44-7.26 2.16-.79 3.93-1.8 3.93-2.25s-.73-2.1-1.62-3.65c-2.9-5.08-1.71-10 3.35-13.87 5.18-3.96 13.95-4.64 21.7-1.69 1.95.74 3.77 1.35 4.04 1.35 1.02 0 .4-1.43-2.41-5.52-3.24-4.74-3.88-7.08-3.48-12.72.52-7.14 6.34-12.98 13.47-13.5 5.82-.42 9.44 1.54 18.03 9.72 25.65 24.46 53.54 37.94 86.07 41.59 8.21.92 24.73.43 34.42-1.03 29.27-4.41 58.76-19.13 81.79-40.82 6.38-6.01 9.45-7.6 14.68-7.62 4.55-.02 7.74 1.45 11 5.05 2.97 3.3 3.98 6.43 3.66 11.44-.21 3.21-.73 4.79-2.64 7.9-2.82 4.59-2.34 5.01 3.24 2.85 7.54-2.94 16.83-1.58 21.84 3.18 4.41 4.19 4.83 8.38 1.4 14.06-1.25 2.08-2.27 4.03-2.27 4.34 0 .57.95.84 5.53 1.58 5.99.96 9.42 5.41 9.42 12.21 0 2.04-.25 3.7-.56 3.7-.3 0-2.57-.83-5.04-1.85-6.98-2.88-10.95-3.62-19.11-3.57-6.21.04-8.35.33-12.68 1.74-6.63 2.17-13.72 6.35-19.5 11.5-6.37 5.68-10.38 7.47-16.58 7.42-5.76-.06-9.7-1.73-11.78-5.02-1.11-1.76-1.27-2.83-1-6.81.18-2.59.14-4.71-.07-4.71-.22 0-2.46 1.42-4.99 3.17-6.64 4.56-10.87 6.82-18.47 9.83-23.18 9.17-56.63 13.14-82.24 9.75z"/>
<path d="M706.34 525.17c-38.58-3.703-75.494-23.798-97.94-55.657-24.37-33.235-32.05-77.117-24.61-117.24 3.954-18.267 11.93-36.546 25.544-49.554-10.85 23-14.516 49.36-8.73 74.29 8.99 49.75 51.036 91.87 101.34 99.15 19.9 5.76 40.487-.33 59.496-6.5 41.935-14.78 73.88-54.59 77.777-99.08 3.336-24.08-.36-49.12-11.207-70.92 6.183 3.27 13.987 16.08 18.59 24.7 16.002 31 16.733 68.15 7.312 101.24-12.78 42.09-44.965 78.97-87.51 92.38-19.31 6.31-39.843 8.23-60.06 7.17z"/>
<g id="a">
<path d="M512.02 469.9c-2.528-.396-5.316 2.092-4.363 4.697 1.823 2.633 4.964 3.92 7.798 5.18 6.792 2.722 14.18 3.782 21.47 3.605-2.512-.006.864.026 1.803 0 5.774.017 11.516-1.024 16.944-2.98 3.018-1.062 6.864-2.025 8.1-5.363 1.207-2.18-.98-4.35-3.185-3.92-3.072.67-5.944 2.06-8.99 2.85-6.572 1.85-13.494 2.57-20.303 2.01-4.98-.61-9.804-2.2-14.41-4.15-1.597-.71-3.096-1.74-4.865-1.96z"/>
<path d="M514.83 459.52c-2.556-.38-4.758 2.56-3.692 4.908 1.965 2.848 5.267 4.365 8.356 5.7 5.37 2.147 11.204 3.046 16.975 2.874-2.2-.006.75.026 1.56 0a37.592 37.592 0 0 0 14.32-2.832c2.77-1.078 6.17-2.124 7.32-5.177.89-1.677.21-4.116-1.9-4.247-1.93-.096-3.6 1.132-5.38 1.683-6.49 2.68-13.63 3.81-20.62 3.21-4.36-.56-8.52-2.17-12.47-4.03-1.49-.72-2.82-1.84-4.49-2.1z"/>
<path d="M518.28 449.57c-2.19-.263-3.698 2.21-3.33 4.182.328 1.733 1.884 2.898 3.17 3.96 5.33 3.898 12.083 5.558 18.626 5.34-2.54-.01 3.41.042 1.595-.007 4.15-.017 8.24-1.03 11.97-2.825 2.49-1.082 5.41-2.336 6.25-5.177.4-1.324.65-3.227-.84-3.97-1.56-.874-3.12.47-4.54 1.016-4.79 2.43-10.12 3.79-15.5 3.76-4.65.15-9.03-1.8-13.06-3.91-1.46-.75-2.67-2.05-4.32-2.38z"/>
<path d="M481.53 302.7c-3.257 3.26-.77 9.27-.946 13.543 1.688 13.158 3.785 26.484 8.697 38.87 6.02 12.102 18.8 18.573 26.54 29.268 2.77 5.16 1.79 11.36 2.37 17 .46 15.37.32 30.75.05 46.11 6.94 3.49 14.48 6.99 22.46 5.65 4.73-1.13 13.51-1.83 14.5-6.54-.38-26.5-.63-53.01-.98-79.5-2.69-8.12-10.95-12.32-17.13-17.51a155.468 155.468 0 0 1-14.19-16.1c-2.62-4.41-12.86-6.01-9.16 1.68 2.18 6.66 7.72 11.61 9.11 18.6.31 3.83 4.88 10.88.98 13.12-2.48-4.22-6.08-7.81-10.68-9.96-4.43-3.3-11.76-4.68-13.36-10.51-1.17-8.28-5.41-15.78-10.89-21.99 1.41-7.43.01-16.73-6.42-21.49l-.92-.21z"/>
<path d="M491.44 304.19c-2.963.478-2.862 4.254-1.49 6.24 1.457 4.287 1.854 8.944 1.065 13.408 5.267 6.166 9.347 13.543 10.576 21.64.03 3.044 3.24 4.05 5.31 5.555 4.87 3.102 10.35 5.35 14.69 9.233.92.976 1.6 2.027.96.035-.67-2.54-1.02-5.35-3.02-7.28-2.73-2.94-6.15-5.56-10.13-6.46-.33-4.11-2.29-7.89-4.1-11.53-2-3.48-4.1-7.2-7.54-9.46.14-6.1.04-12.49-2.58-18.12-.77-1.44-1.9-3.16-3.72-3.25z"/>
<path d="M499.73 306.62c-2.064.613-1.67 3.16-1.016 4.716.99 4.316 1.144 8.774 1.063 13.184 3.79 3 6.163 7.35 8.322 11.587 1.35 2.83 2.63 5.75 3.15 8.865 3.07 1.018 5.77 2.946 8.17 5.077-.95-2.89-3.08-5.12-4.51-7.75-1.55-2.74-3.04-5.59-3.69-8.7-2.96-3.16-4.59-7.63-3.94-11.95.13-4.78-1.41-9.71-4.61-13.31-.81-.8-1.77-1.67-2.96-1.73z"/>
<path d="M509.16 307.97c-1.122.198-1.805 1.266-2.406 2.137-.233.873.837 1.812 1.008 2.76a21.77 21.77 0 0 1 1.416 10.426c-.086 2.502.81 4.946 2.084 7.065.368-1.563 1.816-2.687 3.386-2.84.57-.1 1.41.188 1.078-.683-.4-4.786-1.128-9.598-2.8-14.12-.65-1.614-1.385-3.314-2.784-4.42-.284-.2-.623-.374-.982-.325z"/>
</g>
<use xlink:href="#a" transform="matrix(-1 0 0 1 1440 0)"/>
<path d="M715.67 475.98c-13.493-1.285-25.667-11.12-29.83-24 .225-2.22 2.988 1.24 4.293 1.474 2.45 1.36 5.1 2.48 7.92 2.654 3.558 1.53 5.757 5.035 9.152 6.863 1.577 1.23 7.155 3.65 6.12-.26-1.308-2.04-2.207-4.62-1.082-6.96 1.892-4.15 4.802-7.76 7.73-11.22 2.153-.72 3.595 3.53 5.134 4.96 2.13 3.28 4.7 7.28 3.447 11.35-1.22 1.51-2.02 6.05 1.24 4.52 4.023-1.77 7.317-4.74 10.652-7.51 2.92-2.04 6.654-2.18 9.713-3.97 1.41-.36 4.37-3.19 4.98-1.62-1.68 4.49-4.48 8.51-7.48 12.21-4.86 5.55-11.43 9.73-18.79 10.91-4.35.8-8.81.97-13.21.63z"/>
<path d="M731.53 460.22c.297-2.708-.32-5.473-1.703-7.935-2.123-4.326-5.12-8.166-8.046-11.96-2.75-1.616-4.28 3.657-6.12 5.17-2.85 4.277-6.44 8.657-6.61 14.036-1.6 2.51-4.6-2.04-5.89-3.53-2.47-3.49-4.33-7.62-4.03-11.98-.29-7.03 1.06-14.04 3.62-20.58 1.94-5.58 5.08-11 4.76-17.1.23-4.59-.71-9.66-4.42-12.74-3.54-2.77 2.29-3.37 4.15-1.93 3.17.22 4.88 5.45 7.78 4.16 1.15-2.73 1.38-5.99 3.76-8.13 2.33-3.19 4.77 1.36 5.57 3.49 1.65 1.88-.09 6.51 2.58 6.63 3.21-2.24 5.5-6.02 9.59-6.84 1.67-.95 4.51-.12 2.32 1.79-3.03 2.84-5.62 6.4-6.18 10.63-.92 5.31.4 10.69 2.72 15.47 4.45 9.39 7.89 20 5.64 30.45-1.04 4.65-4.19 8.65-8.03 11.34-.48.29-1.25.27-1.41-.39z"/>
<path d="M726.73 389.63c-1.456-2.624-3.224-5.21-5.673-6.995-2.38-.005-3.85 3-5.468 4.573-1.14 2.11-2.52 5.638-5.31 2.88-4.45-2.594-5.23-8.276-5.2-12.96-.28-7.59 2.77-14.673 5.49-21.586 1.73-4.328 1.3-9.2.25-13.634-1.33-5.092-5.42-8.623-8.56-12.595.21-1.536 4.23-.697 5.75-.405 3.36.852 5.36 3.825 7.87 5.926 1.78-.54 1.05-4.14 1.88-5.833.06-2.38 3.23-5.52 4.54-2.11 1.96 2.17-.06 6.47 2.47 7.82 2.41-.89 3.6-3.53 5.86-4.72 2.23-1.52 5.37-1.69 7.77-.49.84 2.22-2.64 4.06-3.65 5.98-4.05 5.01-5.48 11.91-3.74 18.11 1.37 4.87 3.81 9.41 4.65 14.44 1.01 5.66.98 11.59-.49 17.16-.88 3.38-3.81 5.64-6.83 7.05-.75-.69-1.14-1.71-1.64-2.58z"/>
<path d="M711.61 326.89c-3.36-2.46-4.47-4.81-4.47-9.46 0-2.38.44-3.67 2.01-5.83 2.31-3.2 1.89-4.21-1.38-3.27-5.26 1.51-7.77.13-7.95-4.35-.08-2.19.38-3.12 3.33-6.66 2.36-2.84 3.22-4.33 2.75-4.8-.46-.46-3.25 1.96-8.98 7.79-4.57 4.65-9.71 9.4-11.42 10.56-9.84 6.64-19.24 7.67-23.53 2.56-2.2-2.61-2.08-4.08.46-5.66 1.17-.72 3.14-2.38 4.39-3.69 2.95-3.07 11.74-9.41 16.1-11.61 3.54-1.79 4.38-3 2.08-3-2.98 0-12.54 6.22-19.79 12.88-2.13 1.97-5.2 4.16-6.81 4.87-3.62 1.6-10.73 2.19-13.89 1.15-2.23-.74-6.3-4.58-6.3-5.95 0-.36.93-1.16 2.06-1.77 1.13-.6 3.16-2.07 4.5-3.24 5.8-5.09 16.79-10.33 25.51-12.16 2.77-.58 1.75-1.98-1.34-1.84-5.99.26-17.88 5.83-24.98 11.69-8.32 6.86-20.87 6.21-24.91-1.29-.7-1.29-1.11-2.5-.91-2.69.19-.19 2.66-.93 5.49-1.65 3.06-.77 9.12-3.28 14.91-6.17 9.11-4.54 11.81-5.51 18.08-6.52 2.82-.45 2.97-1.83.23-2.15-3.53-.42-8.94 1.35-18.5 6.05-12.28 6.04-15.72 7.08-22.19 6.7-5.9-.36-9.23-1.87-14.02-6.4-3.13-2.97-7.57-10.51-6.7-11.38.21-.21 1.65 0 3.2.45 1.72.51 6.65.85 12.59.86 8.31.02 10.52-.2 14.95-1.48 7.41-2.14 17.26-7.15 24-12.18 12.89-9.64 23.4-13.51 36.8-13.57 12.37-.05 20.24 2.81 27.21 9.88 2.36 2.39 4.37 3.94 4.7 3.61.31-.31.65-4.49.75-9.29 0 0 3.64-.35 4.41.67 0 7.79.09 8.4 1.22 8.4.74 0 1.53-.76 2.02-1.94 1.06-2.55 4.98-6.04 9.17-8.16 9.05-4.59 24.71-4.73 37.29-.34 5.3 1.86 11.18 5.18 16.78 9.5 5.62 4.32 17.11 10.1 23.9 12.03 6.87 1.95 18.98 2.44 25.19 1.03 2.56-.58 4.96-1.06 5.34-1.06 2.29 0-1.61 7.63-6.19 12.1-8.37 8.18-19.26 8.14-34.58-.12-9.55-5.14-20.97-7.95-20.97-5.15 0 .58.6.97 1.49.97 3.32 0 9.73 2.23 18.67 6.47 9.67 4.6 15.1 6.54 18.32 6.54 2.34 0 2.41 1.45.23 4.65-2.31 3.41-6.23 5.1-11.77 5.09-5.29-.02-8.23-1.18-12.96-5.11-7.91-6.58-27.62-13.92-26.86-10 .15.78 1.1 1.26 3.13 1.57 6.86 1.05 14.91 4.89 23.15 11.06 2.54 1.91 5.18 3.79 5.85 4.19 1.13.66 1.15.86.26 2.53-1.48 2.76-5.21 4.9-9.25 5.32-5.23.54-9.78-1.02-14.49-4.96-9.94-8.32-19.31-14.34-22.31-14.34-2.45 0-1.35 1.35 2.97 3.64 5.68 3.01 11.52 7.08 15.82 11.03 2.03 1.88 4.32 3.74 5.08 4.15 1.8.96 1.73 2.37-.25 4.96-2.02 2.64-5.36 3.8-9.69 3.34-8.64-.91-15.38-5.08-25.97-16.07-4.14-4.29-7.83-7.8-8.21-7.8-1.41 0-.58 1.91 2.15 4.97 3.38 3.78 4.03 5.91 2.75 8.98-1.13 2.72-3.01 3.35-6.87 2.31-3.95-1.07-4.57-.1-1.98 3.12 3.86 4.81 3.29 10.7-1.44 14.75-1.47 1.25-3.01 2.28-3.43 2.28-.41 0-1.45-1.07-2.32-2.38-3.04-4.62-5.71-4.59-8.67.08-1.03 1.63-1.9 2.95-1.93 2.94-.04-.01-1.43-1.01-3.08-2.23z"/>
<path d="M726.67 233.03l-5.13 4.06-4.6-3.47v27.74l9.73.12z"/>
<path d="M694.89 204.25c-1.02 13.11-4.35 22.26-8.98 32.35l11.1-10.29 7.72 9.17 8.36-9.33 8.53 7.88 8.2-8.2 8.52 9.97 7.4-8.2 12.54 9c-4.55-10.09-10.71-18.64-9.94-32.84-12.15 9.03-41.02 10.66-53.45.49z"/>
<path d="M716.95 197.56c-4.46.08-9.16.14-13.39.97-2.93.58-5.59 1.53-7.81 3.1.36 8.53 41 12.09 51.9.16-2.29-1.67-5.09-2.66-8.17-3.26-4.07-.79-8.57-.87-12.84-.94 0 2.34.02 4.69.02 7.04l-9.71-.03v-7.04z"/>
<path d="M724.9 153.97l-6.31.05v49.38l6.44.03z"/>
<path d="M724.89 155.24l-2.41 23.64 24.32 11.88-12.31-16.46 16.81-5.45zm-2.71-6.16c-3.69 0-6.42 1.38-6.42 3.02s2.73 3.03 6.42 3.03 6.4-1.39 6.4-3.03-2.71-3.02-6.4-3.02z"/>
</g>
<g fill="#f7e017">
<path d="M711.05 563.82c3.99-1.32 6.26-3.74 7.89-8.4.81-2.32 1.36-4.73 1.22-5.36-.34-1.49-2.06-1.41-3.96.17-1.3 1.09-1.46 1.64-1.09 3.86.95 5.6-1.04 6.99-11.64 8.13-1.05.11-4.09-.07-6.77-.4-5.04-.63-6.84-.13-5.01 1.39.55.46 1.95 1.08 3.11 1.37 2.83.73 13.22.24 16.25-.76zm21.97-.93c.6-.55 2.66-1.5 4.58-2.12 2.56-.82 3.88-1.7 4.96-3.31 3.11-4.63 2.53-8.62-2.04-14-2.48-2.92-3.58-2.84-5.56.4-1.71 2.8-1.67 2.98.79 3.62 1.29.33 2.53 1.28 3.21 2.45 2.68 4.64 1.89 7.51-2.08 7.54-3.6.03-4.59.54-5.56 2.87-.51 1.21-.92 2.5-.92 2.87 0 .98 1.36.81 2.62-.32zm-7.21-5.24c.68-1.84.92-5.15.84-11.9-.05-5.14-.25-9.5-.45-9.7-.6-.6-3.56 1.31-3.95 2.54-.2.64.13 2.12.73 3.28.92 1.79 1.04 3.46.76 10.47-.36 8.86.22 10.35 2.07 5.31z"/>
<path d="M708.89 553.43c.36-1.65.82-5.03 1.03-7.5s.72-5.59 1.12-6.94c1.02-3.46-.01-4.37-2.74-2.43l-2.03 1.45.42 4.97c.39 4.48-.32 12.83-1.35 16.07-.28.86.12.64 1.25-.68.91-1.06 1.95-3.29 2.3-4.94zm-15.01 2.41c3.65-3.055 3.232-8.27 4.04-12.52-.084-2.825 1.804-6.212.586-8.683-3.412.624-5.515 3.856-3.77 7.075.147 3.738.014 7.807-1.907 11.113-1.57 2.162-6.55 1.623-6.32-1.44 1.25-4.607-4.27-2.366-6.43-1.158-1.67 1.16-5.19 1.245-3.96-1.657-.81-3.866-5.78-1.448-8.49-1.465-2.55-.046-.21-5.17-3.88-4.27-6.81-.538-14.32.06-20.21-4.052-3.45-1.658-2.94-5.806-1.14-8.49 2.14-3.664 2.75-8.248 6.16-11.092 3.36-3.23-3.18-1.86-4.66-.77-3.29 1.8-.24 6.43-2.92 8.99-1.57 2.66-3.64 6.34-7.27 5.83-5.24-.99-8.26-5.86-12.02-9.13-3.22-.64-1.41 5.22.25 6.46 3.29 2.46 7.13 4.26 11.09 5.32 3.94-.63 4.07 4.54 7.44 5.35 6.18 2.89 13.08 3.75 19.83 4.1 2.65.22 1.16 4.94 4.64 4.01 1.95.51 6.35-.72 6.57 1.54-2.96 3.51 2.83 3.43 4.97 2.8 2.74-.42 6.24-1.46 6.97 2.3 2.29 2.41 6.49 2.06 9.28.68a6.2 6.2 0 0 0 1.09-.8z"/>
<path d="M634.12 525.57c1.11-1.41 2.77-4.26 3.69-6.34.91-2.09 2.28-4.46 3.03-5.27 1.76-1.9.78-3.07-2.06-2.44-1.5.33-2.11.88-2.36 2.18-.85 4.24-2.39 8.58-3.76 10.6-2.48 3.66-2.54 3.81-1.52 3.81.53 0 1.87-1.14 2.98-2.54zm-37.46-23.48c-2.8 0-2.92 1.77-.19 2.72 1.32.46 2.44 1.57 3.34 3.38 2.66 5.29 4.22 6.23 11.28 6.84l4.53.41.22 2.75c.11 1.52.47 2.78.82 2.78s2.1-.76 3.87-1.66c3.32-1.68 6.47-5.6 6.47-8.03 0-1.59-2.65-3.31-5.06-3.31-1.07 0-3.11.86-4.72 2.03-5.04 3.65-10.43 2.91-13.38-1.84-2.42-3.92-4.95-6.07-7.18-6.07zm24.46 9.75c1.34 0 1.67.99.94 2.88-.5 1.3-2.13 1.34-2.62.06-.58-1.51.23-2.94 1.68-2.94zm189.72-6.15c-1.83.07-2.37.47-3.53 2.19-1.9 2.82-2.09 8.93-.34 11.09 1.09 1.34 1.25 1.37 3.56.41 3.22-1.35 3.76-1.3 3.75.43-.02 4.42-6.36 12.94-13 17.47-1.79 1.22-3.39 2.58-3.56 3.03-.48 1.26 1.98.98 5-.56 4.12-2.1 9.53-7.62 11.75-11.97 1.76-3.47 2.01-4.65 2.22-10.72.19-5.59.04-7.23-.91-9.09-1.06-2.09-1.4-2.28-4.06-2.28-.32 0-.61-.01-.88 0zm.22 3.9c1.38 0 1.62.31 1.78 2.29.14 1.64-.15 2.64-1.06 3.46-1.24 1.12-1.34 1.11-2.44-.56-1.54-2.36-.59-5.19 1.72-5.19zm-30.36 42.68c5.85-2.88 9.3-6.12 11.52-10.81 1.05-2.23 1.91-4.33 1.91-4.69 0-.81-2.88-2.15-4.61-2.15-1.72 0-2.07-1.19-1.33-4.48.72-3.21-.15-7.23-1.56-7.23-.51 0-1.41.75-2.01 1.66-.92 1.41-.97 2.01-.29 4.06 1 3.04.21 5.31-2.51 7.25-1.29.92-2 1.98-2 3.01 0 .87.11 1.58.24 1.58.14 0 1.56-.74 3.16-1.63l2.92-1.63 1.72 1.35c.94.74 1.72 1.95 1.72 2.69 0 3.56-10.15 9.54-17.12 10.1-3.71.3-4.34.17-5.63-1.11-1.05-1.05-1.35-1.93-1.09-3.17.2-.95.56-2.68.8-3.84.64-3.1-.69-2.68-2.99.94-1.89 2.99-2.45 6.18-1.39 7.86.87 1.37 6.65 2.68 10.74 2.43 2.57-.15 5.11-.87 7.8-2.19zm39.04-21.78c3.68-3.67 5.24-8.14 5.26-15.05l.01-5.19 3.04-1.44c3.95-1.88 7.69-5.62 7.69-7.7 0-2.14-.95-2.03-2.67.3-1.25 1.69-2.92 2.71-9.03 5.52-1.54.71-1.64 1.09-1.99 7.55-.41 7.45-1.42 10.24-5.58 15.33-2.55 3.1-2.64 3.51-.87 3.51.73 0 2.59-1.27 4.14-2.83zm-40.08-4.16c.35-1.07-1.68-1.83-2.56-.96-.37.37-.47 1.01-.22 1.42.58.93 2.42.62 2.78-.46zm55.27-14.31c.36-1.07-1.68-1.83-2.55-.96-.38.38-.48 1.02-.23 1.43.58.93 2.42.62 2.78-.47zm-66.52-38.74c-1.43.68-2.17 2.224-3.165 3.403-.715.486-.142.94.27 1.4 2.522 2.716 3.59 6.385 4.788 9.807 1.177 4.04 2.66 8.38 1.428 12.588-.48 1.613-1.75 3.282-3.64 2.746-3.03-.19-6.01-.993-9.05-.96-2.7.14-4.79 2.6-7.56 2.333-1.76.116-1.69-3.618-3.33-2.62-.81 1.948-.41 4.12-.51 6.18.31.294 1.17.037 1.68.123h5.45c.39 1.88.34 4.036 1.69 5.532 1.89.672 4.02.09 5.82-.643 1.93-.9 2.18-3.22 2.73-5.02.58-1.94 3.12-1.43 4.62-2.19 3.67-1.07 6.07-4.88 5.86-8.63-.24-5.72-2.42-11.11-4.08-16.52-.83-2.39-1.41-4.88-2.37-7.21-.11-.2-.34-.37-.58-.33zM759.34 506c2.036-.133 2.92 2.37 2.49 4.03-.762 2.255-3.535.81-4.096-.817-1.03-1.45-.393-3.404 1.606-3.213z"/>
<path d="M683.94 487.22c-.91-.02-1.93.32-2.94 1.03-5.31 3.72-6.67 8.12-3.06 9.84 2.65 1.27 1.98 2.76-2.19 4.85-5.97 2.98-11.24 2.61-21.25-1.53-2.46-1.02-3.1-.63-2.53 1.62.55 2.21 2.57 3.42 7.59 4.56 5.4 1.24 11.93.84 16.13-.97 2.05-.88 4.48-2.73 6.53-4.96l3.25-3.57 3.78.47c4.66.57 4.75.62 4.75 2.85 0 1.77.1 1.81 4.38 2.21 2.41.23 5.58.44 7.06.44 1.89.01 2.96.34 3.59 1.22.84 1.17 1.34 1.23 8.38.6 6.58-.6 7.87-.55 10.84.46 2.11.72 4.43 1.01 6.19.82 5.04-.57 11.99-4.69 13-7.72.12-.37 1.95-1.02 4.06-1.44 5.09-1.02 5.31-2.13.56-2.72-2.06-.26-5.15-1.01-6.87-1.69-1.73-.68-4.09-1.25-5.25-1.25-2.56 0-4.97 1.6-4.97 3.25 0 1.08.38 1.19 3.41.88 2.85-.29 3.68-.13 5.18 1.06.99.78 1.65 1.7 1.44 2.03-.67 1.09-6.62 3.8-9.25 4.22-1.76.28-3.18.09-4.56-.62-2.31-1.2-5.71-1.38-6.35-.35-.27.45-1 .16-2-.78l-1.56-1.47-3.53 1.47c-3.59 1.49-4.91 1.43-4.91-.28 0-.78-1.05-.87-6.34-.53-5.83.38-6.44.28-7.53-.94-1.01-1.12-1.03-1.51-.31-2.66.66-1.06.66-1.52.03-2.15s-1.45-.62-3.75 0c-5.8 1.55-7.44.68-7.44-3.85 0-2.72-1.56-4.37-3.56-4.4zm-1.44 4.16c.31 0 .57.19.97.59.51.51.78 1.4.56 1.97-.52 1.35-2.98 1.3-3.5-.06-.25-.66.07-1.4.81-1.94.52-.38.85-.57 1.16-.56z"/>
<path d="M672.1 495.6c3.53-2.24 3.45-2.07 3.96-8.29.35-4.39.29-4.72-.9-4.72-1.73 0-2.63 1.9-2.63 5.52 0 2.32-.36 3.36-1.6 4.59-2.94 2.94-10.24 1.6-11.16-2.05-.31-1.25.09-2.38 1.62-4.55 3.19-4.53 2.47-5.64-1.44-2.2-2.69 2.35-3.17 2.42-2.66.39.47-1.87-.51-2.61-2.7-2.06-1.12.28-1.73.98-2 2.34-.26 1.33-.87 2.07-1.93 2.33-1.77.45-4.79-1.23-4.79-2.66 0-1.06 4.52-6.58 10.32-12.6 2.19-2.28 3.98-4.4 3.98-4.72s-1.17-.58-2.6-.58c-2.09 0-2.6.23-2.6 1.2 0 .66-2.92 4.49-6.5 8.52-7.46 8.4-8.08 10.15-4.39 12.39 2.97 1.82 6.78 1.68 9.77-.35l2.42-1.65v2.99c0 3.82.76 5.19 3.76 6.78 3.77 1.99 8.33 1.75 12.07-.62zm156.56-51.91c-2.767 1.652-.602 5.124-.183 7.43-1.13 3.145-5.17 3.992-8.118 4.576-4.18.692-7.14 4.183-8.72 7.892-.86 2.41-2.94 6.145-5.2 2.477-1.97-1.993-5.58-3.573-7.91-1.246-1.77 1.68-2.22 4.15-2.88 6.4-1.05-1.73-1.51-4.3-3.72-4.84-3.53.49-2.26 4.94-.6 6.77 1.5 2.14 2.95 4.96 1.48 7.49-1.31 3.05-5.81 5.11-8.46 2.5-2.48-1.31-.82-5.97-3.26-6.22-1.21.87-1.31 5.74-3.23 3.1-1.39-2.26-.66-5.36-2.36-7.39-2.01.25-3.63 3.71-2.96 5.57 2.68 3.62 3.78 8.15 4.83 12.46.65 1.73-.1 5.23 1.52 5.91 1.12-2.78.08-5.93.96-8.74 2.62-.33 5.53.86 8.27.23 3.92-.51 6.96-3.83 8.34-7.36.41-2.66-.08-5.35-.16-8.02 3.1.48 6.33.47 9.31 1.48 1.48 2.27-.47 5.45-.88 7.93-1.56 5.05-5.51 8.72-9.36 12.09-1.61.95-1.83 3.48.55 2.12 5.18-2.21 9.03-6.9 11.25-11.97 1.62-3.9.32-8.25 1.38-12.24 1.56-3 5.32-2.37 8.1-2.36 2.88-.11 5.34-3.47 4.37-6.26-.91-3.25 2.52-4.81 4.87-5.98 3.11-1.57 5.5-4.76 5.25-8.36-.13-1.84-.04-5.33-2.53-5.5zm-11.03 18.75c3.333.886-.604 7.252-2.376 3.22-.545-1.54.75-3.275 2.375-3.22zM802.16 467c4.338-.253 2.78 6.08-.886 3.205-1.9-.955-1.272-3.323.885-3.205zM645.1 491.48c.12-.63-.2-1.08-.77-1.08-1.21 0-1.94 1.06-1.37 1.98.59.95 1.89.41 2.14-.9zm50.84-5.68c0-.93-.35-1.28-1.13-1.13-1.7.32-1.89 2.48-.22 2.48.93 0 1.35-.42 1.35-1.35zm-62.91-30.52c-2.03-.417-3.305 1.3-4 2.938-1.517 2.55-3.37 5.158-6.093 6.51-1.958.543-4.094-.202-5.782-1.212-2.015-1.003-1.557-3.426-2.42-5.1-1.457-1.144-4.04.492-3.984 2.27-.16 2.387 2.08 3.765 3.93 4.688 1.58.965 3.86 1.5 4.49 3.453-.04 1.66.63 3.557 2.65 2.917 2.26-.038 2.85 2.715 1.94 4.367-.93 1.87-1.55 4.05-1.11 6.12 1.08.91 2.19-1.53 2.97-2.22.53-.71 1.07-1.41 1.6-2.12 4 .22 7.99.73 12 .59 2.85-.05 5.28-1.81 7.09-3.87 2.57-2.68 4.67-5.83 7.6-8.14 2.09-.5.97-4.43-1.21-3.3-1.96.74-2.58 2.96-3.93 4.37-2.32 2.8-4.68 5.65-7.6 7.84-2.12.88-4.57.5-6.75 0-.91-.79 1.81-1.44 2.19-2.33 1.25-1.25 2.74-2.44 3.46-4.08-.69-1.51-2.81-1.63-4.31-1.66-3.68.44-6.5 3.54-10.22 3.83-2.82.1-1.35-2.96-.08-4 2.49-2.96 5.19-5.74 7.79-8.6.74-.89 3.41-1.73 1.7-2.98-.6-.22-1.24-.22-1.87-.22zm1.813 14.97c1.858 1.044-1.186 2.756-2.47 2.522-1.68.504-1.71-1.212-.217-1.553.84-.44 1.727-.9 2.686-.97zm-5.72 3.905c1.06-.02 3.275.996 1.194 1.647-1.45 1.123-3.087-1.143-1.193-1.647z"/>
<path d="M674.15 476.74c0-1.41-2.53-1.21-2.81.22-.18.92.11 1.14 1.29.97.84-.12 1.52-.65 1.52-1.19zm112.05-9.92c.26-1.35-1.62-2.25-2.61-1.26s-.08 2.87 1.26 2.61c.62-.12 1.23-.73 1.35-1.35zm-174.38-13.73c1.76-1.51 1.78-1.61 1.02-4.93-1.08-4.65-1.01-5.15.76-5.59 2.24-.57 7.93 2.48 9.19 4.92.98 1.89.95 2.02-.71 3.56-1.79 1.65-1.78 3.58.01 3.58 1.48 0 5.57-3.87 5.57-5.26 0-1.93-4.54-6.49-8.13-8.16-2.22-1.04-4.44-1.52-7.01-1.53-4.6 0-5.22.99-3.98 6.34 1.46 6.27-.52 7.12-5.57 2.39-3.75-3.51-5.23-7.16-5.21-12.91.01-6.17 2.37-9.22 7.69-9.94 3.53-.47 3.44-1.3-.19-1.84-5.3-.8-9.78 2.74-11.48 9.06-1.89 7.01 2.44 15.55 10.1 19.95 4.01 2.3 5.61 2.37 7.94.36zm208.84-7.69c.43-.43.78-1.4.78-2.15s.73-2.36 1.62-3.57c.9-1.21 1.63-2.45 1.63-2.75 0-1.23-2.03-1.19-3.63.08-1.64 1.28-2.87 1.31-2.87.06 0-.31.78-.95 1.74-1.42 2.38-1.16 2.58-2.31.57-3.23-2.58-1.17-5.17.97-5.44 4.5-.17 2.36.02 2.77 1.84 3.84 1.66.98 1.97 1.5 1.69 2.9-.48 2.43.53 3.28 2.07 1.74zm19.63-2.22c1.44-1.29 2.61-2.76 2.61-3.25s1.24-1.79 2.76-2.88c4.31-3.1 5.26-6.23 3.33-11.04-.75-1.89-3.11-4.5-8.24-9.12-3.94-3.56-7.57-6.47-8.04-6.47-1.4 0-1.15 5.15.27 5.6 2.56.82 4.11 1.87 8.14 5.5 4.68 4.23 6.84 8.18 5.66 10.38-1.13 2.13-2.63 1.47-6.76-2.96-2.17-2.33-4.32-4.23-4.76-4.23-.48.01-.82.85-.82 2.03 0 1.48.79 2.89 2.93 5.27 3.49 3.88 3.83 6.21 1.21 8.27-.94.74-1.91 1.35-2.15 1.35-.23 0-1-1.16-1.7-2.57-1.46-2.96-10.39-12.39-11.73-12.39-.61 0-.91.76-.91 2.26 0 1.81.36 2.45 1.8 3.19 1.77.92 6.15 5.33 10.55 10.65 1.26 1.52 2.5 2.75 2.77 2.76.26 0 1.65-1.06 3.08-2.35zm8.76-25.07c-.58-1.87-12.56-14.2-13.79-14.2-.64 0-.84.76-.69 2.72.17 2.38.43 2.79 2.07 3.22 1.02.27 4.18 2.75 7.01 5.5 2.82 2.75 5.3 4.84 5.5 4.63.2-.2.16-1.04-.1-1.87zM777.5 556.89a1.78 1.632 0 1 1-3.56 0 1.78 1.632 0 1 1 3.56 0zm6.29-2.1a1.78 1.632 0 1 1-3.56 0 1.78 1.632 0 1 1 3.56 0z"/>
</g>
</svg>
