<svg xmlns="http://www.w3.org/2000/svg" viewBox="0 0 640 480">
<path fill="#ffca00" d="M0 0v480L640 0H0z" fill-rule="evenodd"/>
<path fill="#ff6500" d="M0 480h640V0L0 480z" fill-rule="evenodd"/>
<g stroke="#000" stroke-width=".993">
<path stroke-linejoin="round" d="M222.39 340.58s-18.31-.63-25.887 8.63c-7.576 9.26-36.75 35.224-39.145 37.044-1.085.728-24.415 5.47-24.415 5.47 11.455-11.434 24.267-15.61 34.777-35.636-5.245 10.048-9.256 14.446-15.39 19.972-5.333-2.482-19.168 8.28-30.75 13.35.21-.423 12.7-10.52 19.473-23.41-3.858 3.368-12.67 11.835-16.528 15.202-9.175.874-13.332 11.04-16.837 12.416-21.492 6.986-15.125 2.73-19.995 7.367-1.964 3.844-6.16 6.91-8.72 7.163-20.165 1.995-20.748 8.618-31.06 12.41-6.587 1.927-10.773.065-14.52-2.526 5.05-1.822 11.34-1.388 15.153-5.47 0 0 18.468-22.004 35.357-24.414 9.682-1.685 11.155-7.367 11.155-7.367s-28.623 8-33.463 12.21c-4.55 1.3-12.3 2.42-19.153 1.69 12.664-4.66 20.5-11.06 23.994-14.94 2.002-2.22 13.89-2.31 13.89-2.31s19.995-8.63 20.416-8.63 15.154-8.63 15.154-8.63-17.68 4.63-18.1 4.63-20.65.84-20.65.63c5.388-6.9 24.808-7.38 27.595-9.05 6.51-6.5 26.73-4 27.58-4.84.84-.84-21.26-7.58-30.52-5.68-9.26 1.9-23.36-9.68-23.36-9.68s19.37-2.95 25.68-.21 29.05 8.63 30.31 7.58c1.26-1.05 26.19-9.89 29.05-6.73-2.45-5.25-5.55-5.11-5.47-9.68 4.63.22 9.26.42 13.9.64 0 0 7.16-9.47 6.94-9.89-6.49-2.38-7.96-8.97-7.96-8.97 8.33 1.39 11.12.34 11.12.56 0 .21 7.37-8.21 7.37-8.21l5.05-8 3.79-17.26c-7.65 4.14-22.31-.2-22.1-.42 15.93-5.58 20.75-13.68 27.99-14.1-3.1-15.72 6.11-21.04 6.11-20.83 0 .21 6.32-13.68 6.32-13.68s-6.74-2.27-19.36 0c11.96-14.19 30.94-9.05 30.94-9.05 3.92-12.58 16-7.99 16-8.41-3.07-6.85 6.16-10.33 12.15-10.12-.86-5.1-6.33-10.5-8.43-14.78 10.03 6.45 20.48 3.95 25.75 13.33l9.47 1.06s10.52 1.9 10.74 1.9c.21 0 10.94 1.05 10.94 1.05 1.88-5.33-4.76-4.65-3.16-17.68 12.82 6.37 11.94 19.03 22.1 26.24 8.01-.55 10.43 2.26 14.38 5.9 4.62-.98 10.25 1.07 13.19 5.75-.14-4.96 1.29-11.97 7.58-3.16l11.57-.42s-15.21-22.15-28.62-9.68c3.92-13.54 17.68-12.21 17.68-12.21s-3.58-6.2-3.37-13.05c-7.34-2.93-9.68-15.36-9.89-15.15-.21.21-12.51 2.44-18.1 17.05-10.48-11.4 3.73-25.55 4.56-28.07l4.34-16.17c-1.13-5.31-.69-7.95 4.16-12.16-3.23-3.35-1.74-6.54 2.11-8.63-1.3-2.29-.24-4.58.35-6.87l51.41-2.95 11.58 15.91 1.9 8.63-4.42 11.37 13.26 15.79 4.84 5.05 10.11 5.9s9.48 4 9.68 4.21c.22.21 11.37 2.94 11.79 3.15s9.26 5.26 10.73 5.68 28.62 0 28.62 0l15.16-1.26-.21 24.83-8 1.9c-3.44 2.96-4.44 4.69-10.34 8.89-8.16 2.28-14.07 1.85-14.28 1.85-.21 0-8.21-2.11-8.42-2.32-.21-.21-9.05-2.95-9.05-2.95l-13.89-3.36c-5.71-.9-8 2.94-8.42 3.57-.42.63-2.73 28-2.73 28s-4.84 12.41-4.84 12.63c0 .21-4.49 8.3-8 11.15-.65 3.34-1.17 6.91-9.26 12.84-1.71 5.35-.33 10.51 5.47 11.57l8.42 3.37c4.21.98 8.42 1.96 12.63 2.95l13.89 2.95-9.89 21.68-24.41-4s-16.21-4.21-16.42-4.21c-.21 0-17.89-9.47-17.89-9.47s-5.68-12.83-5.68-13.05c0-.21-5.05-10.73-4.84-11.36.21-.63.21-6.73.21-6.94 0-.21-17.05-3.57-17.05-3.57l-17.89-1.89-19.58-5.26-14.94-4.41-9.68-3.36-10.73-.85s-14.1 2.11-14.1 2.32c0 .21-12.41 3.58-12.41 3.79 0 .21-8 18.73-8 18.73l-3.79 14.31 5.88 10.93 2.11 30.52-5.47 11.37 3.79 8.42 7.57 12.41 4.42 8.63-27.58 8.74-3.57-14.21s-9.47-23.36-9.26-23.57c.21-.21.42-7.79.42-7.99z" fill-rule="evenodd" stroke-linecap="round" fill="#fff"/>
<path stroke-linejoin="round" d="M250.29 306.99c5.733 1.72 5.84-9.547 10.414-13.746 3.632-15.193 23.278-14.663 29.506-4.47-20.83-1.568-12.814 10.136-19.222 15.2 16.385-7.74 31.47-6.394 34.87 4.47-6.586 12.52-12.74 24.173-19.325 36.69-10.492 5.24-15.218-1.928-26.723-8.522l-8.046-1.343c-.295-9.09-1.172-19.19-1.472-28.28zm12.82 70.47s28.028-.877 28.128 12.612c2.562 7.752 10.68 7.156-1.75 27.625.497-26.33-16.39-26.97-28.235-26.36 14.774 2.068 17.405 24.18 10.925 32.628-16.734-.598-30.732-4.232-47.467-4.83-5.84-6.462-12.75-21.575 9.79-32.286l28.62-9.39zm187.61-74.66l8.045-3.128s24.732-30.04 43.813-13.413c-13.097 1.97-23.768 17.78-23.768 17.78 7.1-5.29 33.77-3.62 30.9 19.79-28.555 8.45-29.36 23.43-27.697 41.26-19.007-.32-39.977-10.16-40.857-40.69 2.533-7.3 7.03-14.31 9.563-21.61zm102.31-127.22c0 10.345-8.387 18.732-18.732 18.732s-18.732-8.387-18.732-18.732 8.387-18.732 18.732-18.732 18.732 8.387 18.732 18.732z" fill-rule="evenodd" stroke-linecap="round" fill="#fff"/>
<path stroke-linejoin="round" d="M508.12 209.68c6.896 5.317 15.106 7.26 30.25 9.012 7.977-4.683 22.7-4.493 23.834-14.896 7.952-2.84 9.72-12.427 3.14-15.078-.28-2.813.168-13.73-12.06-13.982 1.642 4.06 3.107 15.2 3.107 15.2-6.37-.75-10.73 10.283-10.73 9.836 0-.223 3.52-17.49-13.5-18.015 5.86 9.787-1.69 17.568-1.69 17.568-1.79-2.235-1.8-6.158-5.08-7.362-8.45-3.556-10.06-13.863-9.7-19.39-4.43 3.743-7.73 7.486-7.57 12.447.07 8.158-.33 16.034.02 24.66z" fill-rule="evenodd" stroke-linecap="round" fill="#fff"/>
<path stroke-linecap="round" fill="#fff" d="M533 110.03c14.414-2.008 27.32-5.774 35.816-12.097 2.742-2.042 25.88 1.828 37.792-5.287-18.056-1.04-30.017-3.608-33.233-2.544-10.114 2.952-33.675 9.496-35.52 8.663-.163 1.67-3.03 8.942-4.855 11.264z" fill-rule="evenodd"/>
<path stroke-linejoin="round" d="M537.9 98.633c10.312-2.413 12.672-7.418 18.762-11.073 9.322-3.73 14.5-3.865 23.797-13.474-24.18 3.293-26.89 4.142-26.89 4.142-5.01 3.05-11.91 7.732-17.34 14.837 1.64 1.747 1.54 3.55 1.66 5.568z" fill-rule="evenodd" stroke-linecap="round" fill="#fff"/>
<path stroke-linejoin="round" d="M536.18 93c0-.1 9.433-10.585 9.515-15.072.413-1.507 4.816-3.995 6.472-9.89 1.075-16.077 2.57-16.43 2.57-16.43 7.573-4.253 5.96-13.474 9.478-20.378 0 0-11.116 12.412-17.325 19.217-1.656 3.576-2.09 12.745-2.19 12.745-1.755 4.14-6.282 4.68-9.758 11.55-1.957 5.212-.326 9.983-3.277 16.767 2.014.03 3.1.53 4.514 1.49zm-20.81 247.39c0 13.95-11.307 25.257-25.256 25.257s-25.25-11.31-25.25-25.26 11.307-25.256 25.256-25.256 25.256 11.31 25.256 25.26zM270.79 425.8c0 12.67-10.27 22.94-22.94 22.94s-22.94-10.27-22.94-22.94 10.27-22.94 22.94-22.94 22.94 10.27 22.94 22.94zm41.46-100.16c0 10.926-8.857 19.784-19.783 19.784s-19.784-8.858-19.784-19.784 8.857-19.784 19.784-19.784 19.784 8.857 19.784 19.784zm-90.36 22.99c-7.158.42-14.443 2.903-14.23 3.115.208.208 7.788 4.208 6.733 5.472-1.052 1.26-11.216 12.578-10.583 12.578 7.632 2.2 17.74-2.477 17.74-2.477s-4.124 6.64-4.807 8.68c6.803-3.665 13.184 1.122 14.732-2.542l-9.585-24.826zm150.2-65.72c-4.326 2.665-18.875-.332-18.875-.332 4.285 4.44 7 7.61 16.887 8.61-7.062 3.203-11.66 7.75-19.924 10.498 12.925 5.53 21.58-3.544 21.58-3.213s2.51 5.918.543 13.876c5.12-1.35 6.32-6.57 10.14-5.47-3.2-7.62-7.14-16.36-10.35-23.97zm81.07-66.7c-.366 2.4-.832 6.703-10.684 11.692 6.445 2.797 17.22-3.312 17.22-2.98s-8.76 15.602 6.29 22.185c-.4-11.785 1.656-21.192 1.656-21.192s5.533 7.61 9.602 16.557c6.5-6.99-2.318-20.2-2.318-20.2-7.176-1.656-14.837-4.406-21.767-6.06zm9.27-69.23s19.485 13.242 19.57 15.014c.08 1.77-1.773 9.11-8.096 12.398 15.18 1.77 16.782-7.76 16.782-7.76s-3.12 10.796-.59 14c8.35-5.144 8.097-13.325 8.097-13.325s5.567 8.434 4.303 12.99c1.77-.93 11.386-10.966 2.697-15.858 2.024-6.58 2.784-10.71-4.554-13.67-.79-3.97 1.29-5.23 1.94-7.85 0 0-7.26-2.2-8.1 4.05-.68 1.26-23.32-13.31-23.57-13.4-.08.38-8.48 13.48-8.48 13.39z" fill-rule="evenodd" stroke-linecap="round" fill="#fff"/>
<path stroke-linejoin="round" d="M467.65 139s18.043 9.58 19.225 11.857" fill-opacity=".3" fill-rule="evenodd" stroke-linecap="round" fill="#fff"/>
<path stroke-linejoin="round" d="M530.72 91.472c-2.392 0-11.92-2.98-18.212 1.656-2.875-4.618-5.96-8.237-15.074-6.292.082-4.125-1.552-3.595-3.732-4.892-2.297-5.004-5.974-7.22-13.08-4.048-6.187-6.366-16.188-6.646-23.21-1.72-10.615-3.15-24.666.523-50.953.23-1.82-.06-10.89 3.194-5.22 10.762-10.92-6.75-15.49 5.665-4.64 7.616 2.65 2.65 5.63 8.278 5.63 8.278s-18.98-13.57-29.41 1.606c-3.38 15.35 12.91 4.36 21.01 10.15 4.85 4.304 9.49 8.775 14.35 13.08 8.06-1.656 14.94-1.707 23-2.128-7.29 2.097-13.4 1.355-20.68 3.452 1.75 2.413 4.67 3.222 10.99 2.98l-13.44 4.698c8.23 6.372 18.63 2.187 26.56 3.31-5.03 7.535-15.37 15.5-28.42 11.86 5.62 8.952 16.79 7.807 28.18-3.805 9.53 1.66 15.71 2.83 27.89-1.29.58-.77 9.55-14.115 9.17-15.258 1.64.49 26.31 9.332 27.81 12.075.19-3.403 4.91-6.903-23.84-14.9-5.42-4.41 13.91-9.935 13.91-9.935l-.33 7.947c5.43-3.318 5.72-4.645 6.95-6.623 1.98-1.32 6.29 2.65 6.29 2.65l.24 7.01c2.39-.87 3.73-1.04 5.39-3.36s4.83 2.77 4.83 2.77c4.95.49 13.31-1.84 17.47-8.76-1.89-7.02-.99-8.98 2.75-10.39 6.13-9.99 7.54-18.66-2.21-18.71z" fill-rule="evenodd" stroke-linecap="round" fill="#fff"/>
<path stroke-linejoin="round" d="M494.46 147.15s-3.038 3.795-2.448 11.133" fill-opacity=".3" fill-rule="evenodd" stroke-linecap="round" fill="#fff"/>
<path stroke-linejoin="round" d="M406.64 139.7s7.778 11.852 10.433 12.593c2.655.74 20.99 19.384 21.977 20.186 1.174.49 11.42.24 11.42.24-7.53-6.5-13.828-13.38-20.742-20.06 0 0-10.617-5.25-10.678-5.37s-5.68-7.66-5.68-7.66c-1.79-.58-3.703-1.46-5.37-2.84l-1.36 2.9z" fill-rule="evenodd" stroke-linecap="round" fill="#fff"/>
<path stroke-linejoin="round" d="M481.98 162.07c3.456-.844 8.264 2.024 8.6 4.47 1.857-1.097 5.99-1.097 7.508.337.675-1.01 3.71-3.71 6.832-2.53m-10.36-17.2s2.527 2.024 5.902 1.012" fill-opacity=".3" fill-rule="evenodd" stroke-linecap="round" fill="#fff"/>
<path stroke-linejoin="round" d="M535.81 156.75c4.186-.597 38.452-20.62 46.815 4.682C579.738 140.016 564 140.414 564 140.414s-.697-10.26-15.14-8.566c9.465 6.973 1.494 12.55.797 13.547-2.458-6.607-3.52-10.026-11.057-12.948 3.023 11.62-3.32 13.18-4.98 18.726-3.35-2.39-5.91-6.773-7.868-10.06-2.657 7.703-.33 12.318 2.69 16.335a24.24 24.24 0 0 1 7.368-.697z" fill-rule="evenodd" stroke-linecap="round" fill="#fff"/>
<path stroke-linejoin="round" d="M530.24 120.66c1.32 2.417 6.88 9.362-2.877 22.604-3.078-4.282-4.734-6.914-4.734-6.914s-8.32 5.41-7.37 23.984c-3.11-7.46-7.74-16.866 1.85-30.997-6.93 11.145-9.18 12.378-14.48 12.223 8.11-5.785 9.89-12.046 10.04-12.046 1.48.497 10.63.024 17.55-8.855z" fill-rule="evenodd" stroke-linecap="round" fill="#fff"/>
<path stroke-linecap="round" fill="#fff" d="M524.02 90.52c1.82 6.79-3.182 11.495-7.028 15.12 8.35 16.368-18.454 15.05-8.787-.22" fill-rule="evenodd"/>
<path d="M497.87 107.84s-1.976 2.527-.328 6.042m-11.03-5.87c2.394.59 4.386 3.686.515 6.01-1.55.92-9.327-2.692-13.343 4.9" fill-opacity=".3" fill-rule="evenodd" stroke-linecap="round" fill="#fff"/>
<path stroke-linecap="round" fill="#fff" d="M413.31 92.784c-3.144-.258-4.69 1.34-.927 5m3.93-15.774c-3.66-1.598-5.36 2.216-.98 5.257m11.49-4.947c-3.194-2.887-5.98 2.32-.874 4.278m16.8-4.278c-3.35-2.835-4.49 1.288-3.46 2.68" fill-rule="evenodd"/>
<path d="M462.51 125.58c0 8.595-6.968 15.563-15.564 15.563s-15.563-6.968-15.563-15.564 6.97-15.57 15.564-15.57 15.564 6.97 15.564 15.56z" fill-opacity=".3" fill-rule="evenodd" stroke-linecap="round" fill="#fff"/>
<path stroke-linejoin="round" d="M461.61 130.68c-.424-.9-9.987-10.366-13.007-9.078-2.472.107-10.035 16.604-9.704 17.267 7.83 5.52 19.89.65 22.7-8.19z" fill-opacity=".3" fill-rule="evenodd" stroke-linecap="round" fill="#fff"/>
<path stroke-linejoin="round" d="M456.52 125.71c-1.178-.764-2.08-1.458-3.122.07-1.04 1.526-6.732 15.34-6.732 15.34m27.57-46.612c-10.41-5.83-29.733 2.813-16.89 8.852-10.968-3.332-10.483 6.108-10.483 6.108m5.07-24.74c4.127-6.13 9.825-8.228 13.555-.544 4.967 6.623 14.306 1.67 14.306 1.67" fill-opacity=".3" fill-rule="evenodd" stroke-linecap="round" fill="#fff"/>
<path stroke-linecap="round" fill="#fff" d="M423.59 89.817s-4.636 2.152-.33 5.463m23.86-8.277s-4.472.663-2.983 5.464" fill-rule="evenodd"/>
<path d="M442.14 95.28c-.164 0-4.636.165-3.144 4.966m-2 3.14c-.167.166-5.63-2.318-2.816 4.636" fill-opacity=".3" fill-rule="evenodd" stroke-linecap="round" fill="#fff"/>
<path stroke-linejoin="round" d="M457.61 76.237c-19.42-11.836-40.01-35.675-68.267-26.59 28.674 5.086 46.18 21.006 46.762 25.924 10.585-.83 13.502-.58 21.505.67z" fill-rule="evenodd" stroke-linecap="round" fill="#fff"/>
<path stroke-linejoin="round" d="M429.34 75.74c-2.582-3.168-12.336-20.756-32.172-20.422 15.17 7.752 24.255 18.338 25.09 21.005 2.83-.167 4.83-.417 7.083-.584z" fill-rule="evenodd" stroke-linecap="round" fill="#fff"/>
<path stroke-linecap="round" fill="#fff" d="M412.33 76.49s2.252-16.505 5.502-18.505-10.83-4.502-10.66 10.002c-11.84-9.67-23.005-8.002-24.84-7.335-1.834.667-27.84-.584-30.923 5.25 19.17-.415 24.67.835 26.42 2.752 11.75-3 18.42-1.25 26.26 8.085 3.58-.67 8.25 0 8.25-.25z" fill-rule="evenodd"/>
<path stroke-linejoin="round" d="M393.84 85.157c-4.75-4.668-8.702-7.57-22.962-8.764-2.08-.265-7.573-1.425-10.96-2.572 9.067-6.28 36.59 2.59 39.674 6.67-.916 2.84.202 4.73 1.7 6.57-2.542-1.52-4.775-2.13-7.45-1.89z" fill-rule="evenodd" stroke-linecap="round" fill="#fff"/>
<path stroke-linecap="round" fill="#fff" d="M403.67 77.008s-7.098-6.5-12.56-6.39c3.168 1.91 6.773 7.373 8.956 9.34 1.53-1.748 1.147-1.64 3.605-2.95z" fill-rule="evenodd"/>
<path stroke-linejoin="round" d="M389.23 70.944c-.273.11-11.96 7.32 1.202 16.932-.874 6.172 6.443 7.046 6.443 7.046s5.41 8.193 5.41 8.14c-11.626-7.737-21.427-5.855-25.04-2.687-7.047-10.323-18.984-12.007-23.353-13.263-5.462-1.202-20.594-2.458-21.63 11.25-14.53-14.254 8.467-20.37 12.398-19.935 3.932-.71 26 3.55 27.418 6.336-1.255-13.054 10.597-19.99 17.15-13.82zm43.5 47.496s-38.783-7.23-51.432 1.39c-12.65 8.618-14.316 21.407-32.666 23.353-18.348 1.946-20.295 5.42-27.106 14.874 10.15-3.197 32.112-10.148 47.263-7.09 6.25-7.012 9.73-10.286 9.17-10.425 4.72-15.57 37.67-21.546 53.24-15.986.28-3.893 1.94-5.7 1.53-6.117zm-58.65-5.84l-57.967 1.668c-5.282 1.668-11.674 5.978-12.65 7.228-.97 1.252 2.504-13.622 10.15-12.927 9.867.97 36.835-.14 36.835-.14 8.202-3.06 17.1-6.12 22.52-4.03-1.947 4.86 1.113 8.2 1.113 8.2z" fill-rule="evenodd" stroke-linecap="round" fill="#fff"/>
<path d="M479.83 95.626s-16.024-4.872-11.82 11.567c6.453 8.193 15.73-3.963 15.6-5.19" fill-opacity=".3" fill-rule="evenodd" stroke-linecap="round" fill="#fff"/>
<path stroke-linejoin="round" d="M436.15 114.19c-3.54-5.798-25.655-13.662-33.226-11.008 12.14 5.7 29.49 11.45 30.52 14.597 1.426-2.56 2.607-3.54 2.705-3.59z" fill-opacity=".3" fill-rule="evenodd" stroke-linecap="round" fill="#fff"/>
<path d="M510.64 94.11s-13.367 3.653-18.334.673-17.286-7.395-11.852-16.91" fill-opacity=".3" fill-rule="evenodd" stroke-linecap="round" fill="#fff"/>
<path stroke-linejoin="round" d="M375.19 97.992s-33.917-.84-39.522 9.32c22.072-5.116 38.33-4.415 38.33-4.415l3.083-2.803-1.89-2.102z" fill-rule="evenodd" stroke-linecap="round" fill="#fff"/>
<path stroke-linecap="round" fill="#fff" d="M437.05 90.084s-7.84.238-4.037 5.702" fill-rule="evenodd"/>
<path stroke-linejoin="round" d="M508.28 191.48s11.344-.377 12.658-1.877m35.42.47s4.78 3.375 9-1.406m-30.93 2.16s3.188 6 11.344 3.374m-29.51 9.38s-2.437 6.1 9.563 5.53c3.096 1.88.936 7.88.936 7.88m5.52-42s6.75-.37 7.97 2.63m-5.45-11.15s2.26.19 3 2.91c.75 2.72 3.47 1.32 5.07.1m-39.11 170.79c-5.89-5.59-18.58-5.74-12.54 8.16 2.12-6.34 6.05-8.76 12.54-8.16zm-2.41 8.29c-1.66-1.2-2.57 1.21-2.11 1.66m6.34-42.46s-9.06-1.05-5.44 9.52m-21.45-33.36s-1.21 10.73 7.25 11.94m-19.62 54.22c0-.15-7.85-3.47-10.27 7.25m2.85-57.4s0 9.07 4.08 12.39m-7.39 10.13c-.15 0-13.14 5.14-13.14 11.93m-196.72 92.26c0-.15 8.35-8.8 10.17.91-.15 3.65-1.97 7.14-1.97 7.14m-.79-5.93s-4.71-.3-5.31 2.58m25.82-28.7c0-.15-10.63-3.34-12.15 4.86m-42.5.78s8.81-5.16 13.67.46m58.71-18.34c0-.15-8.14-.06-9.36 5.41" fill-rule="evenodd" stroke-linecap="round" fill="#fff"/>
<path stroke-linejoin="round" stroke-linecap="round" fill="none" d="M409.34 155.95c-.966.955-.837 1.008-1.835 1.243-.97.357-1.926.408-3.068.408-.784-.26-1.682-.86-2.453-1.63-.73-.87-1.09-1.55-1.43-2.45 0-.63-.268-1.55-.43-1.93.323.65.93 1.68 1.248 2.35.347 1.09.69 2.35 1.02 3.48a17.67 17.67 0 0 1 .41 3.89c-.206 1.57-.627 2.95-1.226 3.89-.845.45-1.317.68-2.453.81-1.232 0-1.627-.21-2.66-.61-.477-.62-1.462-1.68-2.042-2.45-.29-1.15-.54-2.06-.61-3.27-.5-.72-.73-1.35-1.22-2.05-.22-.81-.59-1.22-.82-2.04-.25-.64-.81-1.31-1.09-1.89"/>
<path stroke-linejoin="round" d="M261.42 391.28s-5.924 4.68-4.936 8.73m37.07-79.4s-9.52 2.31-4.76 10.676m4.63-6.34s-2.02 6.78 1.298 9.233m4.02-8.8c.146.43-1.298 7.21-3.316 8.36m-7.49-34.5s-.432 5.77 2.164 6.78m-19.48-23.94s-2.307 6.78 6.347 9.09m-22.22 13.27c0 .28 2.306 10.96 6.924 10.67m10.96 10.39s-11.82-6.64-12.98 10.82" fill-rule="evenodd" stroke-linecap="round" fill="#fff"/>
<path stroke-linecap="round" d="M477.4 96.993c1.157-1.097 5.18-2.408 6.278 3.656 1.097 6.06-7.07 5.34-7.134 4.37-2.193-.91-2.305-5.65.856-8.04zm17.22-13.97s-10.485-1.277-9.516 7.496c6.127 5.41 10.787.06 11.817-2.91.52-2.13.35-3.94-2.3-4.59z" fill-rule="evenodd"/>
<path stroke-linejoin="round" stroke-linecap="round" fill="none" d="M350.37 113.37s1.262 9.448-6.295 7.243c-7.558-2.204 11.65 4.724-3.15 7.558-3.07 4.3-2.52 5.04-2.52 5.04s8.07-.81 3.052 9.81c-1.89 5.67 2.837-12.4 17.972-3.17-6.93-6.76-1.95-6.67 7.63-6.32-13.28-2.17-12.6-14.49 6.93-8.5-.03-1.83-3.61-7.32 2.83-10.39 12.59-3.46-26.14-.63-26.46-1.26z"/>
<path stroke-linejoin="round" d="M347.32 121c2.05.977 10.165 16.422 15.736-7.918-2.442-.588-12.61.292-12.61.292.23 3.714-.423 6.158-3.125 7.625z" fill="none"/>
<path stroke-linejoin="round" d="M344.6 127.25c-.463 1.123-1.16 2.984-1.515 4.142 0 .78.004 1.624.14 2.21.105.965.415 1.66.825 2.484.392.555.453.694 1.105.83.527.302 2.747.31 3.452.413h2.347c1.104 0 2.08.01 3.037-.42.68-.2 1.22-.38 1.52-.97.68-.34.66-.68 1.11-1.38.2-.39.59-1.08.83-1.52.32-.49.42-.61.42-1.24.2-.39.14-1.19.14-1.8-.02-.87-.14-1.67-.28-2.49-.13-.45-.34-.73-.69-.56-1.41.55-2.96-.55-4.56-.55-1.52-.23-2.35-.63-3.86-.83-.63 0-3.56.93-4 1.65zm146.31 59.17h.204c-.6 0-.262-.035.82.613.722.258 1.413.52 2.04.818.372.55.777 1.17 1.23 1.64.244.61.56 1.58.816 2.25 0 .95.112 1.63-.408 2.05-.37.94-.932 1.03-1.43 1.64-.737.25-1.314.58-2.25 1.02-.987.27-1.406.59-2.452.82-1.09.49-1.807.58-3.068.61-.75 0-3.796-.17-4.546-.17 1-.03 4.196-.07 4.954-.24 1.123 0 1.756.12 2.453.62.918.32 1.44.6 2.248.82.56.22 1.68.32 2.25.61.33.55.95.83.62 1.43-.43.52-1.24.82-2.04 1.03-.53.37-4.59 1.07-5.13 1.44-1.92.17 3.88-.46 4.52-.61 1.17-.01 1.9-.15 2.86 0 .87.13 1.67.52 2.46.82.52.7 1.14 1.03 1.64 1.84.63.52.81.87.82 2.05-.26.51.22 1.96.16 2.74l-.9 2.69" fill="none"/>
<path stroke-linejoin="round" d="M474.35 186.63h.203c-.553 0-.27-.013.82.205.688.482 1.898.667 3.064 1.022.652.308 1.258.664 1.84 1.022.6.3 1.38.84 1.84 1.43.837.28 1.01.78 1.637 1.22.217.98.484 1.51.612 2.45-.083 1.09-.448 1.3-.816 2.04-.602.41-.97.94-1.84 1.22-.815.32-1.843.59-3.07.82-1.734.33-3.416.69-5.11.82-.842 0-1.048.18-1.84.2 1.025.01 2.38.08 3.067.4 1.28.01 2.737.11 3.68.41 1.862.23 3.648.54 5.52.61.377.61.68.93.82 1.84-.496.36-.84 1.04-1.227 1.43-.612.37-1.22.76-2.25 1.02-1.13.4-2.39.41-3.68.41h-6.542c-.2-.08-1.635-.21-.82-.21.85.39 2.542.8 3.68 1.02.782.22 1.225.64 1.638 1.22.495.37 1.248 1.06 1.634 1.43.32.54.41.87.41 1.84-.097 1.25-.505 1.27-1.432 2.05-.988.64-1.762.78-2.86 1.02h-3.07c-.82-.22-5.557-3.01-6.163-3.19.84.3 5.36 3.3 5.756 4.21.22.65.21 1.72.21 2.66-.03.99-.16 1.7-.61 2.25-.04.79-.25.61-1.02.61l1.03-.62c-.04.79-.25.61-1.02.61m16.16-17.38h1.03c.67.45.67 1.03 1.64 1.22.74.28 1.49.68 2.04 1.02.3.51.41.73.41 1.64 0 1 .23 2.36-.2 2.86-.35.41-1.64.4-2.25.61-.87.3-1.62.76-2.37.91-.95.19-2.49.09-3.14.52-.91.07-1.57.2-2.65.2-.63 0-1.05-.04-1.43-.2.92.32 2.4.69 3.47 1.22.97.27 1.51.71 2.25 1.22.8.59 1.26.91 1.43 1.84.41.6.41 1.38.41 2.45-.22.67-.37 1.65-.61 2.25-.44.66-.98.78-1.63 1.22-.48.06-.34.16-.82.21" fill="none"/>
<path stroke-linejoin="round" d="M466.38 186.42c.34.14 1.382.65 2.045 1.022 1.203.29 1.993.786 2.862 1.022.453.56.983.79 1.226 1.636.71.926.882 1.412 1.023 2.453-.087 1.144-.27 1.375-1.226 1.636-.712.23-1.53.37-2.453.41-.844.11-1.61.29-2.452.4-.577.29-1.764.2-2.657.2-.88.07-2.32.26-3.353.26 1.15.04 2.875.15 4.17.15 1.248.13 2.477.2 3.068.81.9.34 1.41 1.07 2.25 1.43.404.6.878.94 1.225 1.63-.283.79-.728 1.06-1.637 1.22-.57.29-1.76.2-2.65.2-.62-.32-1.91-.21-2.86-.21h-2.25c.84.29 2.2.61 3.27.82.76.43 1.93.79 2.46 1.22.33.51.88.79 1.23 1.43.46.37.55 1.06.21 1.63-.08 1.02-.37 1.53-.81 2.04a31.4 31.4 0 0 1-2.25 1.43c-1.44.63-2.81.81-4.5.82-1.11 0-1.65-.17-2.66-.21-.91-.32-2.06-.44-2.86-.62-.87-.24-2.05-2.09-3.2-2.13.79.1 1.72 1.97 1.98 2.53.29.58.21 1.76.21 2.66-.32.55-.39 1.59-.61 2.25-.04.71-.11 1.65-.4 2.04l.41-2.04c-.04.71-.11 1.65-.4 2.04" fill="none"/>
<path stroke-linejoin="round" d="M454.96 181.33c0 .082.71.455 1.19 1.003.466.733.956 1.566 1.43 2.25.323.93.612 1.372.818 2.248.382.63.55 1.61.615 2.46-.036.96-.118 1.81-.614 2.46-.24.83-.65 1.16-1.43 1.43-.68.32-1.33.41-2.46.41-.75 0-2.4-.11-3.15-.11 1.29 0 3.49.12 4.78.12 1.42.09 2.36.21 3.07.82.89.26 1.61.7 2.04 1.23.69.52 1.35.64 1.63 1.43.21.65.2 1.72.2 2.66-.11 1.17-.45 1.2-1.44 1.43h-2.86c-.63-.21-1.81-.3-2.66-.41-.7-.09-1.48-.71-2.09-.91.53.51.43 1.7.45 2.76.15.72.2 1.67.2 2.66-.09 1.09-.35 1.38-1.03 1.84-1.09.24-2.69.21-4.09.21-1.15-.05-2.09-.2-3.27-.2-1.42 0-2.68-.15-3.99-.3.5.33.49 1.08.51 1.94.36.62.08 1.33 0 2.05-.07.88-.24 1.49-.62 2.04-.21 0-.36 1.12-.56 1.12" fill="none"/>
<path stroke-linejoin="round" d="M445.1 178.66c0 .068-.053-.043 1.023.818.622.5.932 1.127 1.43 1.84.18.77.44 1.45.612 2.25 0 1.19-.143 1.665-.612 2.452-.78.52-1.716.928-2.86 1.022-.68.225-1.633.345-2.456.408-.583.194-.512.313-1.32.41 1.31-.047 1.375-.206 2.753-.206.893 0 2.08-.084 2.657.205.916.12 1.576.25 2.045.81.842.23 1.208.6 1.634 1.22.627.42.995.79 1.226 1.63 0 1.11-.125 1.74-.408 2.45-.358.71-.694 1.12-1.43 1.63-.528.45-1.29.56-2.046.81h-2.863c-.754 0 2.462.08 3.885.2.84.15 1.364.49 2.042.82.602.4 1.383.46 1.842 1.02.746.26 1.095.8 1.84 1.22.177.41.092.31.408.2" fill="none"/>
<path stroke-linejoin="round" d="M436.65 175.16c1.004.496 1.555 2.255 1.71 3.297.284 1.036-.08 1.798-.407 2.862-.99.91-1.105 1.2-2.453 1.43-1.16.35-2.424.26-3.476.61-.7.28-1.353.55-2.25.81h-2.862c-.883.52.704.08 1.022 0 1.592 0 3.232.02 4.702-.21h5.927c1.047.16 1.198.51 1.638 1.43.44.53.58 1.42.62 2.45-.04 1.17-.23 1.52-.81 2.45-.58.72-1.1 1.04-1.84 1.63-.95.41-2.36.66-3.68.81-1.57 0-3.26-.09-4.7.2-1.08 0-5.42.29-5.04.67.72-.57 3.9-.47 5.05-.47 1.56-.32 2.95-.59 4.5-.61.98-.3 2.17-.4 3.27-.41 1.08.01 1.91.16 2.46.61.64.53 1.45 1.16 1.84 1.63.79.27 1.02.8 1.64 1.22.18.84.4 1.38.41 2.45-.25.72-.48 1.46-.82 2.04-.95.68-1.97 1.42-3.27 1.84-1.13.44-2.06.57-3.27.61-1.04 0-1.84.09-2.66.2-.75 0-6.88.11-7.63.11 1.85-.34 7.84-.11 9.07-.11 1.34 0 2.57.16 3.88.2.65.3 1.35.55 1.84 1.02.7.27 1.29 1.47 1.3 2.71" fill="none"/>
<path stroke-linejoin="round" d="M427.33 170.28c.18.364.906 1.8 1.226 2.658.22.886.204 1.862.204 2.862 0 1.28-.288 1.83-.818 2.862-1.116.75-1.98 1.47-3.272 1.84-1.08.194-1.966.127-3.065 0-.726-.29-1.33-.534-1.84-1.022-.777 0 .45.17.818.204.613.416 1.526.66 2.454 1.022 1.176.475 1.62.85 2.453 1.84.747.603.937.727 1.022 1.84.518.585.447 1.38.203 2.044-.63.42-1.31 1.098-1.838 1.636-.922.385-1.256.598-2.453.613-1.113-.04-1.688-.34-2.66-.41-.42-.4-.236-.31.41 0 .663.37 1.813 1.08 2.25 1.63.704.48.906.99 1.226 2.04.392 1.05.697 1.69 1.227 2.25.037 1 .204 1.54.204 2.65-.28.71-.47 1.39-1.02 1.84-.23.84-.74 1.17-1.02 2.04-.8.47-1.83 1.45-2.45 2.04-.83.28-2.86.49-4.1.5" fill="none"/>
<path stroke-linejoin="round" stroke-linecap="round" fill="none" d="M436.52 300.5c.302.71.64 1.494.816 2.25.09.74.204 1.313.204 2.248-.323.617-.395 1.353-.816 1.84-.267.75-.845 1.03-1.43 1.43-.79.34-1.346.6-2.456.616-1.076 0-2.032-.066-2.86-.207-.907-.424-2.984-1.16-2.356-.715.79.254 1.91.816 2.56 1.126.855.57 1.5.898 2.248 1.838.652.45.906.822 1.023 1.638-.81.28-1.94.688-3.068.815-.99 0-1.934-.05-2.657-.21-.662-.32-1.224-.63-2.045-.82l2.045.82c-.662-.32-1.224-.63-2.045-.82l-2.782-1.13c.55.52 3.66 1.81 4.01 2.56.29.71.47 1.59.62 2.65-.01 1.21-.11 2.59-.41 3.47-.23.84-.6 1.22-1.02 1.83h-.41m7.98-9h.21c-.57 0-.27-.03.82.41 1.14.71 1.42 1 2.25 2.25.4.86.71 1.12.82 2.04.35.58.13 1.42 0 2.04-.54.44-.83 1.02-1.43 1.43-.4.59-.92.95-1.43 1.43-.7.15-.98.36-1.84.41"/>
<path stroke-linejoin="round" d="M436.73 307.04v.204c0-.602-.034-.262.612.818.845.586 1.012 1.203 1.227 2.453.24.965.17 1.855 0 2.658-.63.368-1.46.993-2.36 1.128" fill="none"/>
<path stroke-linejoin="round" fill="#fff" d="M446.53 311.76h-.204c.55 0 .27-.013-.82.204-.852.286-1.882.204-2.86.204-.757-.267-1.457-.41-2.25-.816-.674-.14-.78-.384-1.636-.41m3.48 9.19h-.204c.554 0 .273.013-.816-.205-.882-.572-2.363-1.573-3.18-1.843" fill-rule="evenodd"/>
<path stroke-linejoin="round" d="M507.89 192.58c-.355.106-3.566.322-4.51.39h-2.86c-.996-.223-1.976-.397-3.067-.41-.816 0-.57-.504-1.39-.504" fill-rule="evenodd" stroke-linecap="round" fill="#fff"/>
<path stroke-linejoin="round" fill="#fff" d="M505 200.73c-.07 0 2.83-.224 2.765-.224.34 0-3.653.224-3.992.224-.914.164-1.847.205-2.864.205-.64.12-2.1.127-2.66.408h-2.86c-.62-.033-.62-.172-1.23-.205" fill-rule="evenodd"/>
<path stroke-linejoin="round" stroke-linecap="round" fill="none" d="M425.47 297.43c.136.336 1.023 1.928 1.023 2.87-.013 1.074-.135 1.493-.612 2.044-.79.427-1.47.803-2.66.82h-3.68c-1.11 0-6.34-1.198-6.66-1.442.96.13 4.42 1.44 5.64 1.44 1.12.04 1.74.28 2.87.613 1.09.332 1.81.618 2.66.82.59.342 1.54.4 2.05.818.95.334.83.795 1.23 1.84-.08 1.035-.32 1.522-1.02 2.044-.45.554-1.29 1.044-2.25 1.43-.97.45-2.08.615-3.47.615h-2.86c-.67-.225-1.65-.373-2.25-.615l2.25.615c-.67-.225-1.65-.373-2.25-.615h-.2c.79.313.93.877 1.23 1.635.07.956.21 1.717.21 2.864-.19.822-.5 1.38-.82 2.046a9.08 9.08 0 0 1-1.22 2.042c-.18.408-.41.742-.61.41"/>
<path stroke-linejoin="round" d="M414.64 293.14c0 .07-.028-.064.407 1.023.423.51.572 1.348.818 2.045 0 .99-.048 1.934-.204 2.657-.41.667-.7 1.065-1.43 1.43-.48.578-1.04.742-2.04.82-.59.293-1.65.198-2.25 0-.75-.18-1.53-.398-2.04-.82-.84-.198-1.37-.458-1.83-1.022-.75-.188-.6-.612-.2 0 .63.516.65 1.073 1.03 2.045.02 1.073.21 1.547.21 2.657.19.86.31 1.626-.2 2.25-.28.783-.8 1.016-1.22 1.636-1.09.24-2.03.41-3.27.41-.63-.46-2-.88-2.45-1.43a6.52 6.52 0 0 1-1.84-1.22c-.56-.27-2.75-2.06-3.08-2.56.51.48 2.89 2.38 3.29 2.98.55.38 1.07.87 1.43 1.23.56.4.99 1.12 1.64 1.64.46.8.78 1.08.82 2.25V314c-.01 1.277-.2 1.45-.81 2.247-.13.38-.28.028-.41.41" fill="none"/>
<path stroke-linejoin="round" d="M406.88 307.04v.204c0-.64-.043-.257.818.818.708.382 1.52.824 2.25 1.023.527.456 1.364.45 1.944 1.02.93.124 2.01.575 3.07.614" fill-rule="evenodd" stroke-linecap="round" fill="#fff"/>
<path stroke-linejoin="round" stroke-linecap="round" fill="none" d="M406.16 287.81c.312.297 1.75 2.1 1.944 3.073-.013 1.2-.132 1.555-.816 2.045-.678.32-1.327.408-2.453.408-1.094-.24-1.767-.93-2.864-1.43-.58-.567-1.31-.77-1.83-1.227-1.03-.35-1.2-.57-.2.2a51.52 51.52 0 0 1 2.46 1.43c.87.6 1.16.7 1.64 1.84.23 1.17.54 2.22.62 3.47.45.66.52 1.41 0 2.04-.5.29-.72.41-1.63.41a17.71 17.71 0 0 0-1.63-1.23c-.4-.3-.95-.86-1.23-1.23-.54-.48-1.24-.85-1.63-1.43-.88-.39-1.28-.8-2.04-1.23-.7-1.09-.03-.06.41.41.51.8.89 1.68 1.23 2.45v3.06a7.21 7.21 0 0 1-.41 2.25c-1.05 0-1.85-.1-2.66-.21-.61-.25-1.58-.54-2.25-.82-.95-.53-1.55-1.03-1.84-1.85-.48-.56-.91-1.37-1.22-1.84-.4-.51-.56-.75-1.02-1.02.5.53.97 1.58 1.84 2.25.61.92 1.14 1.21 1.44 2.25.45.55.52 1.54.61 2.45 0 .89.08 2.08-.21 2.65-.13.96-.42 1.4-.82 2.04a17.94 17.94 0 0 1-1.02 1.84c-.27 0-.2-.07-.2.2"/>
<path stroke-linejoin="round" d="M410.35 284.55v.204c0-.273-.765 1.746-1.634 2.25-1.03.198-1.502.407-2.657.407h-3.07c-.74-.25-1.65-.53-2.46-.81-.68-.59-1.32-.79-2.05-1.43-.61-.59-.79-.93-1.53-1.73-.3-.39-.08-.03.92.71.91.84 1.16 1.07 1.43 2.05.29.58.2 1.77.2 2.66-.04 1.16-.14 1.53-1.02 1.84-.63.37-1.4.41-2.46.41-.53-.45-1.37-.76-2.05-1.43-.59-.39-1.29-1.3-1.84-1.83-.32-.5-1.76-2.25-2.26-2.56.53.36 2.24 2.35 2.87 2.77.42.75.94 1.12 1.43 1.64.42.72.69 1.4 1.22 1.84.11.85.29 1.61.41 2.46-.04 1.09-.22 1.55-.82 2.05-.79.78-1 .81-1.84.41-.71-.49-1.45-.91-2.05-1.43-.77-.21-1.4-.49-1.84-1.02-.75-.26-1.27-.84-1.84-1.22a4.677 4.677 0 0 0-1.43-1.64l1.43 1.64a4.668 4.668 0 0 0-1.43-1.64l-3.51-4.32c.46.54 4.46 5.01 4.73 5.76.62.49.97 1.22 1.22 2.25.08.83.2 1.55.2 2.45-.55.57-.72.98-1.64 1.23h-2.86c-1.13-.04-1.49-.28-2.46-.61-.83-.48-1.19-.77-1.64-1.43-.6-.41-.95-.88-1.64-1.23-.28-.41-.59-.53-.82-1.02-.37-.16-.31-.41-.61-.61" fill="none"/>
<path stroke-linejoin="round" stroke-linecap="round" fill="none" d="M412.1 280.76c-.067 0-1.476.116-2.565-.1-1.39-.088-2.926-.197-3.68-.82-1.082-.373-1.296-.86-1.84-1.43-.598-.72-1.36-1.444-1.84-2.456-.393-.898-.6-1.67-.613-2.86v-3.272c0-.567.387-3.725.106-4.006-.013 1.12-.516 4.24-.516 5.436 0 1.044-.093 1.844-.204 2.66-.477.763-.975 1.63-1.84 2.453-1.188 1.024-2.208 1.75-3.678 2.044-1.166.34-1.44.21-2.045-.82-.747-.56-1.13-1.48-1.227-2.66-.307-1.15-.164-2.33 0-3.48 0-1.03-.103-2.77-.103-3.79 0-.48.103 1.35.103 1.54 0 1.2.008 1.91-.615 2.86-.47 1.04-1.16 1.82-1.838 2.65-.694.72-1.314 1.01-2.25 1.22-.985 0-1.835.01-2.452-.41-.755-1.05-2.1-2.2-2.66-3.48v-8.08c.337.71.41 3.33.41 4.4-.08 1.05-.516 1.6-.818 2.66-.75.71-1.263 1.33-2.25 2.04-1.093.56-2.033.98-3.27 1.23-1.325-.02-1.307-.12-1.84-1.23-.65-.73-.916-1.64-1.022-2.66a20.42 20.42 0 0 1-.614-2.87c-.2-.81-.2-2.65-.41-3.28v2.25c.12.92.39 1.73.41 2.86 0 1-.07 1.81-.41 2.45-.11.81-.36 3.11-.41 3.07"/>
<path stroke-linejoin="round" d="M397.08 277.8c.088.442.408 1.804.408 2.863 0 1.2-.053 1.56-.612 2.454-.595.858-.953.815-2.248.815-1.118 0-1.878-.125-2.453-.612-.76-.27-1.145-.72-1.638-1.43-.56-.68-1.216-1.757-1.635-2.25-.204-.75-.614-2.633-.922-3.28-.214-.972.55 1.66.922 2.257.52.946 1.057 1.818 1.43 2.657.15.68.205 1.516.205 2.453-.41.578-.843 1.073-1.227 1.638a7.6 7.6 0 0 1-2.453.408c-.895-.135-1.414-.45-2.042-.818-.758-.252-1.166-.683-1.84-1.023-.385-.583-1.236-1.468-1.636-2.25-.5-.7-.66-1.782-1.03-2.453-.14-.98-.27-2.01-.62-2.66-.13-1.04-.33-1.77-1.03-2.25-.06-.53-.25-.44-.41-.82m3.47 9.22c.06.44.3 2.06.41 2.86-.02 1.17-.27 1.51-.62 2.25a4.73 4.73 0 0 0-.82 2.04c-.54.45-.83 1.02-1.43 1.43-.32.47-.64.41-1.43.41-.28.08-1.45-.08-2.05-.21m4.71-11.04c-.23 1.04-.64 1.9-1.03 2.86a16.25 16.25 0 0 0-1.43 1.84c-.72.28-1.34.41-2.46.41-.56-.38-1.29-.68-1.84-1.03-.31-.13-.73-.28-1.03-.41m34.74-146.79v.2c0-.51.03-.27-.41.61-.88.99-1.31 1.29-2.46 1.63-1.23.69-3.02.92-4.7 1.02-1.39.23-2.9.21-4.29.41-.46-.66-1.37-1.23-1.85-1.84-.48-.56-.72-1.12-1.22-1.84-.34-1.01-.95-1.82-1.23-2.86-.34-.98-.58-2.06-.82-3.07-.12-.9-.34-1.5-.41-2.46-.74-.21-.06.26.2.82.57.85.74 1.78.82 3.06.14 1.05.2 2.12.2 3.27 0 1.18-.11 1.9-.41 2.66-.71.72-1.18.86-2.25 1.02-1.23.31-2.72.2-4.09.2-.98-.13-1.31-.47-2.25-.62-.49-.44-1.31-.9-1.84-1.23-.37-.45-.81-.63-1.02-1.02" fill="none"/>
<path stroke-linejoin="round" d="M391.14 138.62c0 .07.618.92.618.99 0-.572-.023-.27.41.817.404 1.21.165 1.717-.614 2.658-.83.912-1.782 1.7-2.657 2.453-.927.426-1.69.997-2.86 1.227-1.354.17-2.793.238-3.887 0-.787-.447-1.76-1.158-2.25-1.84-.59-.58-.9-1.154-1.226-1.84-.182-.674-.418-1.56-.815-2.044-.06-.58.01.16.12 1.05.25.74.01.28.07 1.2v2.87c-.39 1.3-.92 2.95-1.23 4.09-.43.63-.79 1-1.64 1.23-.94.56-1.84 1.09-2.86 1.43-.56.46-1.39.41-2.46.41-.91-.36-1.09-.57-1.84-1.43-.53-.41-.65-.67-1.03-1.02m-3.88-.41v.21c0-.64.04-.25-.82.82-.39.64-.91 1.22-1.64 1.84-.47.85-1.48 1.8-1.84 2.66-.87.44-2.16.74-3.27 1.02-1.18.12-2.36.26-3.48.41-1.64.1-3.22.21-4.91.21-.98-.01-1.97-.18-2.66-.41-.66-.54-.78-1.03-.82-2.24-.3-.87-.19-1.73-.62-2.25-.08-.47-.31-.77-.61-1.02" fill="none"/>
<path stroke-linejoin="round" d="M404.02 145.95v.204c0-.57.024-.266-.408.818-.47.75-1.163 1.622-1.637 2.25-.712.633-1.74 1.628-2.452 2.248-1.208 1.007-2.18 1.365-3.68 1.635-1.335.174-2.262-.18-3.476-.817-.96-1.007-1.096-1.305-1.634-2.453-.098-1-.18-1.813-.615-2.658-.18-.763-.434-1.48-.818-2.044.045-.702.328.423.41.818.223.56.323 1.67.612 2.25v2.86c.28 1.12.127 1.94 0 2.87-.347 1.17-.535 2.17-1.226 2.66-.797.28-1.923.41-3.064.41-1.396 0-2.933-.05-3.887-.61-.655-.44-1.203-1.07-2.043-2.04-.686-.89-1.19-1.35-1.433-2.25-.49-.72-.78-1.52-1.23-2.04-.11-.87.07-.11.41.21.27.57.72 1.59 1.02 2.25.38.74.8 1.43 1.02 2.46.54.67.93 1.44 1.02 2.46.28.63.2 1.91.2 2.86-.18.99-.41 1.28-1.43 1.43-.84.21-1.91-.12-2.86-.61-.72-.35-1.13-.69-1.64-1.43-.84-.67-1.34-1.35-2.04-2.24-.48-.5-.95-1-1.44-1.64-.56-.69-1.13-1.19-1.43-2.25-.32-.3-.5-.72-.82-1.02.49.57.73 1.08 1.02 2.05.31 1.13.6 1.67.62 2.87v2.86c-.2.98-.67.89-1.64 1.03-1.12 0-2.07.07-2.66-.41-.9-.12-1.51-.36-2.05-.82-.85-.22-1.4-.7-2.04-1.02a21.197 21.197 0 0 0-1.43-1.84c-.29-.87-.82-1.24-1.23-1.84-.29-.29-.31-.92-.41-.82.4.47.75 1.48 1.02 2.05.16.91.2 1.84.2 2.86-.23 1.07-.62 1.6-.82 2.66-.45.86-.84 1.95-1.23 2.66-.75.5-1.33 1.06-2.25 1.43-1.21.54-2.43.77-3.89.82-.98.32-1.8.11-2.66 0-.67-.32-1.43-.64-1.84-1.23-.53-.24-.7-.51-1.03-1.22-.74-.55-1.01-1.38-1.43-2.45-.3-.86-.63-1.62-.82-2.45-.35-.8-.57-1.8-1.02-2.45-.05-.48-.15-.34-.2-.82" fill="none"/>
<path stroke-linejoin="round" d="M395.01 163.73v.204c0-.55.012-.273-.205.818-.673 1.046-1.46 1.932-2.453 2.25-.588.293-1.653.197-2.25 0-.927-.477-1.554-1.06-2.248-1.84-.54-.99-1.465-1.89-2.046-2.863-.513-.78-.882-1.33-1.02-2.25-.442-.52-.76-1.6-1.022-2.25-.06-.64-.053-.29-.244-.76.265.96.61 1.41.856 2.6.405 1.25.75 1.91.41 3.27-.166 1.24-.373 2.3-.818 3.47-.27 1.2-.65 2.1-1.023 2.86-.188.8-.54 1.5-1.022 2.04-.464.51-1.248.64-2.045.82h-2.86c-.873-.12-1.69-.41-2.658-.61-.95-.51-1.142-.75-1.84-1.43-.547-.68-1.074-1.17-1.432-2.05-.522-.36-1.264-.9-1.637-1.43-.625-.62-1.017-1.06-1.43-2.05-.19-.88-.395-1.51-.41-2.66-.03-.62.288.98.613 2.04.297.69.517 1.78.82 2.66v3.27c0 1 .018 1.97-.205 2.86-.13.92-.48 1.34-.81 2.04-.58.36-1.21.8-2.04 1.02-.69.48-2.06.81-3.06 1.02-1.01.26-1.91.41-3.06.41-1.17 0-1.73.01-2.25-.62-.49-.54-1.3-1.63-1.84-2.05-.28-.8-.69-1.12-1.43-1.84-.29-.82-.76-1.82-1.22-2.46-.15-.99-.63-1.85-.82-2.66l-.4-1.03" fill="none"/>
<path stroke-linejoin="round" stroke-linecap="round" fill="none" d="M416.81 162.04c.04.28-.187 1.3-.336 1.895-.447 1.217-1.133 2.257-2.045 3.067-.99.59-1.38.94-2.46 1.022-.5.373-1.09.16-1.44-.205-1.06-.39-1.68-1.02-2.66-1.44-.92-.59-1.4-.94-2.25-1.43-.48-.7-1.08-1.49-1.64-2.05-.13-.22-1.31-2.18-1.08-1.57.43.64 1.5 1.88 1.9 2.79.49.68 1.07 2.02 1.63 2.65.56.72 1.29 1.51 2.04 2.45.46 1.13.94 1.94 1.02 3.06.31.61.4 1.69.4 2.65 0 1.11-.17 1.65-.21 2.66-.27.66-.53 1.42-.82 2.04-1.24 0-2.23-.21-3.07-.61-.66-.47-1.06-1.13-1.64-2.05-.4-1.13-1.09-1.92-1.63-3.07-.68-1.14-1.23-2.89-1.84-3.89-.14-.99-.54-1.88-.62-3.07-.23-.37-.29-.49-.41-.89.13.95.2 1.71.2 2.93 0 1.25.07 2.36-.41 3.07-.37 1.1-.95 1.82-1.63 2.66-.83.52-1.57 1.22-2.66 1.63-1.22.42-2.16.61-3.48.61-1.32-.27-2.61-.4-3.83-.73-1.29-.12-2.2-.2-2.71-.91-.75-.85-1.61-1.78-2.25-2.86-.59-.39-.39-.45-.78-.87.43.67.37.6.58 1.69.39.8.41 1.48.41 2.45-.49.82-.99 1.69-1.64 2.45-.67.81-1.01 1.07-2.05 1.43h-3.07c-.99 0-1.94-.05-2.66-.21-.88-.2-1.91-.6-2.86-1.03-.45-.36-3.23-2.66-3.57-3.11"/>
<path stroke-linejoin="round" d="M366.8 175.79h.2c-.64 0-.246-.053.614 1.022.618 1.244 1.018 2.35 1.635 3.476.15 1.262.38 2.303.41 3.68 0 1.45.1 2.814-.41 4.09-1.36 1.317-1.89 1.895-3.68 2.044-1.77.36-2.16.03-2.87-1.635-.51-1.047-.9-2.212-1.43-3.273-.28-.78-1.06-1.847-1.64-2.862-.32-.634-.76-1.585-1.23-2.453-.37-.95-.58-1.92-1.02-2.46-.16-1.51-.29-.66.2 0-.13 1.29.71 4.95-.28 5.44-.68.32-1.38.13-2.51.13" fill="none"/>
<path stroke-linejoin="round" stroke-linecap="round" fill="none" d="M419.86 165.01c0 .067.112 1.312.112 1.38 0-.62-.012-.272.205 1.022.074 1.356.398 2.72.816 3.68v2.863c-.32 1.08-.492 1.578-1.225 2.453-.43.632-.673.818-1.635.818-.657.328-2.08.204-3.068.204-1.094-.3-2.498-.39-3.268-1.022-.676-.52-1.322-.83-1.714-1.467.286.1.204.59.204.26m-5.23 3.66v.41-.41.41-.41c-.18 1.93-.714 2.78-1.842 4.3-.758.89-1.505 1.69-2.657 2.25-1.626.85-3.255 1.1-5.11 1.23-1.398 0-1.946.06-2.66-.81-.892-.71-1.853-1.71-2.248-2.86-.747-.9-1.142-2.09-1.635-3.06-.23-1.16-.657-2.17-1.022-3.27-.247-.96.196.66.204 1.43 0 1.62-.258 2.88-.613 4.3-.435 1.3-.845 2.22-1.637 3.28-.8 1.27-1.783 1.74-3.065 2.66-1.955.44-3.722.39-5.725.21-1.288-.39-2.22-.68-3.272-1.43-.964-.3-2.17-.88-2.657-1.43-.995-.41-.648-.17-1.294-.5.148.94-.774 4.19-.954 5.2-.315 1.11-.448 1.72-1.226 2.25-.82.74-1.574 2.45-2.692 2.91-.842.19-1.89.78-2.954.86-.74.34-1.568.23-2.267.43"/>
<path stroke-linejoin="round" stroke-linecap="round" fill="none" d="M419.14 177.84c.074.453.408 2.154.408 3.27v3.477c-.064 1.152-.28 2.12-.408 3.066-.28.985-.71 1.43-1.43 2.046-1.08.56-1.783.98-2.864 1.22-1.282 0-1.643-.21-2.657-.82-1.23-.97-2.07-1.74-3.07-2.86-.84-.91-1.4-1.62-2.05-2.25-.14-1.07-.5-1.79-.82-2.86-.37-.52-.61-1.16-1.02-1.64.37.75.87 1.16 1.43 2.25.64 1.11.98 2.33 1.43 3.47.36.94.83 1.96 1.43 2.45.43 1.02.7 1.39 1.02 2.45.09 1.24.2 2.37.2 3.68-.41 1.18-.86 1.99-1.84 2.66-1.32.78-2.48 1-4.09 1.22-1.74-.01-3.38-.1-4.7-.61-.57-.69-1.86-1.8-2.66-2.66-.68-1.12-1.35-2.16-2.05-3.27-.36-.95-.7-1.76-.82-2.66-.22-.66-.3-1.7-.62-2.25-.28-1.53-.21.84-.21 1.43v3.68c-.43 1.76-1.47 3.23-2.66 4.7-1.46 1.17-2.65 2.1-4.5 2.25-1.8 0-3.06.05-4.5-.82-.68-.8-1.7-1.86-2.46-2.86-.69-1.17-1.25-1.93-1.64-3.07-.16-.71-.25-1.78-.41-2.66 0-.83-.09-.15-.15-.83 0 .95-.06.89-.06 1.85a36.62 36.62 0 0 1 .2 4.09c-.48 1.56-.51 2.18-2.25 2.24-1.24-.09-1.61-.33-2.46-1.02a22.978 22.978 0 0 1-2.86-2.04c-.79-.74-1.14-1.12-1.86-1.71"/>
<path stroke-linejoin="round" d="M410.96 193.58h.204c-.6 0-.262-.036.82.613.38.574 1.112 1.464 1.633 2.248.538.75 1.155 2.1 1.635 2.66.41.72.805 1.24 1.022 2.05 0 1.25.165 2.29.207 3.48 0 1.25-.19 1.79-.61 2.66-.65.44-1.6 1.05-2.66 1.43-1.06.14-2.12.21-3.27.21-1.1 0-2.06-.08-3.07-.2-.69-.31-1.8-.76-2.45-1.22-.74-.65-1.53-1.77-2.25-2.65-.45-.73-.63-1.45-.81-2.25-.26-1.01-.38-2.1-.82-2.86-.15-.68-.33-1.51-.41-.2-.27.54-.2 1.61-.2 2.46-.23 1.08-.5 2.11-1.02 3.07-.78.72-1.3 1.67-2.45 2.05-1.36.86-2.92 1.04-4.49 1.23-1.21 0-2.61.16-3.68-.2a24.59 24.59 0 0 1-2.24-1.22 9.284 9.284 0 0 1-2.46-2.25c-.76-.96-.76-1.63-1.22-2.86-.07-1.16-.33-1.85-.41-2.86-.15-.28-.38-.79-.61-1.02 0 1.44.19 2.62.61 3.89.07.98.21 1.82.21 2.86-.03 1.03-.24 1.7-.61 2.46-.74.55-1.07.87-2.04 1.23-.97.18-1.99.2-3.07.2-.91-.24-1.61-.79-2.46-1.02-.49-.6-1.03-.85-1.63-1.84-.68-1.03-.82-1.18-.82-2.45.19-1.1.41-2.06.41-3.27 0-1.15.02-1.78.41-2.66.05-.84.09-.49.09-1.46" fill="none"/>
<path stroke-linejoin="round" d="M371.51 204.21h-.203c.602 0 .24-.058-.408 1.022-.5.945-.75 1.902-1.23 2.454-.23.844-.6 1.21-1.23 1.635-.27.75-.85 1.04-1.44 1.44-.63.3-1.32.56-2.04.82l2.04-.81c-.63.3-1.32.56-2.04.82" fill="none"/>
<path stroke-linejoin="round" stroke-linecap="round" fill="none" d="M435.91 216.27c-.068 0 1.156-.616 1.087-.616.6 0-1.028.58-2.11 1.23-.616.31-1.925.204-2.86.204-.818-.19-2.153-.495-2.66-1.022-.278-1.105-.683-2.182-1.02-3.272-.328-.95-.492-2.037-.614-3.066-.29-.986-.493-1.812-.818-2.862a51.87 51.87 0 0 1-1.02-3.476c-.302-1.014-.54-1.89-.615-2.862-.432-.35-.477-1.006-.615-1.635"/>
<path stroke-linejoin="round" d="M428.55 214.02c-.148 0-.484.97-.818 1.636-1.335 1.566-2.853 2.81-4.294 4.09-1.272.6-2.255 1.48-3.68 1.635-.59-.53-.82-1.97-1.023-3.06-.573-1.93-.867-3.9-1.43-5.72-.508-.91-1.008-2.02-1.226-2.86-.35-.74-.48-1.59-.61-2.25.16 1.6.91 3.09 1.22 4.7.25 1.36.4 2.67.4 4.09v3.48c-.23 1.27-.63 2.46-1.43 3.27-.21.13-1.04-.44-1.84-.81-1.17-.63-2.53-1.36-3.27-1.84-.79-1.13-1.99-2.41-2.87-3.68-.38-1.27-.66-2.34-.82-3.68-.27-1.18-.6-2.84-1.02-3.68-.06-.67-.35-.72-.67-1.07-.2 1.33-.72 2.12-1.17 3.33-.53.55-1.17 1.13-2.05 1.84-1.28 1.16-2.7 2.36-4.09 3.27-1.3.82-2.36 1.15-3.89 1.23-1.46-.04-2.04-.17-3.07-1.02-1.69-1.05-2.82-2.54-4.3-4.09-1.1-1.21-1.52-1.65-1.64-3.27-.07-.89-.24-1.51-.41-2.45 0 .27-.07.2.2.2" fill="none"/>
<path stroke-linejoin="round" stroke-linecap="round" fill="none" d="M390.11 216.68c-.06.416-.244 2.313-.408 3.068-.23.845-.54 1.253-1.227 1.634-.498.42-1.464.684-2.045 1.023-1.057.1-1.976.29-2.863.408h-3.07c-1.068 0-1.767.018-2.25-.612-.61-.5-1.242-1.54-1.634-2.25-.342-1.15-.42-1.87-.207-2.86 0-1.41.18-2.67.206-4.09 0-1.02-.103-3.17-.103-4.2"/>
<path stroke-linejoin="round" d="M376.84 220.36v.204c0-.55.013-.27-.204.82-.276.823-.683 1.114-1.227 1.633-1.03.227-1.34-.03-2.46-.407-.72-.577-.9-1.078-1.43-1.634a3.36 3.36 0 0 0-1.23-1.638c0-.44-.1-.305-.21-.612" fill="none"/>
<path stroke-linejoin="round" d="M370.4 218.62c0 .066.094.78.507 1.33.41.898.88 1.785 1.227 2.86v3.272c-.1 1.24-.28 2.66-.82 3.476-.454.652-1.6 1.17-2.656 1.635-1.046.518-2.233.573-3.475.613-1.465-.323-2.695-.834-4.09-1.634-1.235-.632-2.475-1.408-3.68-2.046-.564-.49-1.1-.737-1.635-1.43-.593-.435-1.08-1.055-1.637-1.434-.39-.575-1.1-.988-1.63-1.635-.51-.368-.87-.91-1.22-1.43" fill="none"/>
<path stroke-linejoin="round" stroke-linecap="round" fill="none" d="M433.98 230.22c0 .118-1.936 1.673-2.572 1.99-.795.584-2.135 1.132-3.272 1.638-1.595.488-2.84.816-4.495.816-.46-.683-1.72-1.528-2.45-2.453a36.83 36.83 0 0 0-1.64-2.86c-.37-1.18-.8-2.38-1.22-3.47-.35-1.05-.68-1.67-.82-2.86-.33-.46-.61-1.86-.71-1.23.68.69.76 1.81 1.13 2.87 0 1.28.17 2.42.21 3.68-.29.82-.38 1.38-1.02 1.84-.45.52-.76.62-1.63.62-.6.36-1.17.02-2.04 0-1.07-.31-1.36-.53-1.84-1.22-.6-.42-1.02-1.24-1.84-1.84-.52-.96-.82-1.32-1.22-2.24a11.75 11.75 0 0 1-.61-2.66c0-1.07-.17-2.01-.2-3.06 0-.73.06-2.43-.2-2.87-.15 1.25-.41 2.69-.41 4.1-.18.97-.23 2.1-.41 3.07-.45 1.04-1.09 2.12-2.04 3.07-1.28.73-2.41 1.02-3.88 1.23-1.55 0-2.96-.18-4.5-.2-.94-.53-1.99-1.26-3.06-2.04-1-.9-2.27-2.04-3.07-2.65-.25-.71-.75-1.14-1.22-1.63-.29-.54-.41-.47.21-.2.53.54 1.4 1.28 1.84 2.05.34.66.82 2.08 1.23 2.66 0 1.11.19 1.59.21 2.66-.19 1.05-.82 1.31-2.04 1.64-1.17 0-2.24-.11-3.06-.41-.98-.41-1.71-.72-2.25-1.23-.52-.35-1.26-.9-1.64-1.43-.77-.81-1.59-1.68-2.25-2.45-.41-.45-1.03-1.59-1.43-2.04.2.3.34.36.62.82a26.9 26.9 0 0 1 1.64 2.25c.39 1.01.74 1.5.82 2.66 0 .99-.05 1.94-.2 2.66-.23.85-.61 1.35-1.43 1.64-.61.31-1.92.2-2.86.2-.68-.3-1.91-.83-2.65-1.02-.47-.57-1.45-1.27-2.04-2.04-.52-.67-.82-1.35-1.43-1.84.53.44.85 1.21 1.43 1.85.32.64.78 1.64 1.02 2.45.41.91.57 1.89.82 2.86a22.2 22.2 0 0 1-.2 3.07c0 1.07 0 1.86-.41 2.46-.25.92-.72 1.34-1.63 2.04-.98.19-1.39.4-2.45.41-.41-.5-1.01-1.05-1.64-1.64-.28-.59-.69-1.5-1.02-2.04-.4-.65-.82-1-1.23-1.84a8.872 8.872 0 0 1-1.83-2.66c-.52-.77-1.04-3.01-1.23-3.87-.28-.18.33.53.41 1.83 0 1.09-.06 2.08-.2 3.07.03 1.2.2 2.27.2 3.48-.11.82-.24 1.7-.62 2.25-.5.89-1.47 1.61-2.66 2.04-.45-.62-.97-.81-1.84-1.02-.85-.43-1.46-.64-2.45-1.02-.94-.68-1.34-.81-2.04-1.84-.66-.63-1.28-1.66-1.63-2.45-.16-.72-.2-1.66-.2-2.65.02-1.28.2-2.1.62-3.07.23-.83.76-1.4 1.43-1.83.58-.58 1.2-1.08 2.04-1.23.1-.59.57-.57 0-.62v.61c.1-.59.57-.57 0-.62"/>
<path stroke-linejoin="round" stroke-linecap="round" fill="none" d="M432.23 245.29c0 .122-.595.5-1.228.82-1.298.412-2.744.097-4.09 0-1.327-.332-2.286-.406-2.86-1.228-.666-.476-1.69-1.53-2.25-2.25-.302-.635-.496-1.376-.612-2.248-.133-1.062-.225-2.228-.41-3.27v-3.27c0-1.11-.19-1.587-.205-2.66.09-.088.154.514.408 1.022 0 1.28-.045 2.506-.204 3.68-.12 1.15-.52 1.89-.82 2.66-.6.74-.93.977-1.84 1.226-.67.398-1.84.575-2.87.612-1.26-.07-1.97-.334-2.66-1.022-1.01-.798-1.65-1.672-2.25-2.86-.36-1.148-.62-2.18-.62-3.477-.14-.91-.08-2.6-.41-3.272-.03-.596.17-1.85-.1-2.148.13 1.052-.1 2.993.09 4.193 0 1.346-.04 2.644-.21 3.884-.55 1.245-.81 1.915-1.84 2.453-.62.623-1.42.93-2.46 1.227-1.58 0-3.21.116-4.7-.204-.75-.202-1.44-.607-2.25-.82-.56-.47-1.4-.76-2.05-1.43-.76-.823-1.3-1.597-1.64-2.656-1-1.28-1.73-2.507-2.25-3.884"/>
<path stroke-linejoin="round" d="M427.51 256.76h-.204c.55 0 .27-.013-.82.204-1.064.355-2.03.106-3.067-.204-.69-.305-1.42-.784-1.84-1.227-.72-.874-.99-1.107-1.43-2.25-.35-1.405-.41-2.58-.41-4.086.01-1.192.33-1.958.61-3.068.36-1.13.85-2.92.85-4.17-.05 1.35-.78 3.41-.86 4.78v3.27c-.33.98-.33 1.88-.82 2.66-.66.93-1.25 1.25-2.45 1.43-1.2-.11-1.21-.46-1.84-1.43-1.08-1.31-1.69-3.05-2.05-4.7v-3.27c0-1.37.1-2.6.2-3.89.08-.85.15-.97.15.13.07 1.57.26 2.75.26 4.36-.29 1.19-.76 2.2-1.23 3.06-.88.12-1.57.39-2.66.41-1.09 0-1.93-.05-2.66-.41-.51-.86-1.53-2-2.05-3.07-.24-1.12-.57-2.06-.62-3.27-.26-.51-.32-1.61-.41-2.25.22 1.28.2 2.69.2 4.09-.01 1.3-.05 2.57-.61 3.27-.57.76-1.3.8-2.25 1.02-1.04 0-2.16.1-3.07-.21-1.02 0-2.2-.06-2.86-.41-.93-.41-1.27-.71-2.05-1.23-.42-.62-1.23-1.42-1.63-2.46 0-1.09.14-1.98.61-2.66.19-.89.38-1.44.82-2.25.41-.99.8-1.42 1.22-2.05.36-.2-1 .92-1.64 2.04-.91.88-1.68 1.71-2.46 2.45-1.04.65-1.58 1.13-2.86 1.22-1.28 0-1.8-.22-2.66-.61-.56-.61-1.1-.71-1.23-1.64-.37-.92-.54-2.29-.82-3.06-.02-1.15-.2-2.15-.41-3.27-.11-.82-.21-2.43-.21-1.64 0 1.77-.08 2.8.21 4.49v3.48c0 1.08-.15 1.72-.41 2.45-.95.13-1.32.4-2.46.41-1.01-.27-1.55-.48-2.25-.82-.48-.46-.89-1.04-1.43-1.43l1.43 1.43c-.48-.46-1.71-1.55-2.26-1.94" fill="none"/>
<path stroke-linejoin="round" stroke-linecap="round" fill="none" d="M420.47 268.52c-1.77 0-4.056-.927-5.828-.927-1.1-.273-2.354-.368-2.862-1.023-.437-.678-.76-1.51-1.023-2.657 0-1.45.11-2.278.816-3.475.536-1.057 1.397-1.897 1.842-2.658a14.5 14.5 0 0 0 1.635-2.657c.41-.64.397-.712.87-1.393.62-.11-1.896 1.372-3.73 2.62-1.42.633-2.62.805-4.296.816-1.26-.275-3.056-.683-4.086-1.02-.82-.72-.82-1.853-.82-3.27v-3.68c0-.782.036-.872-.147-1.372-.08 1.162-.31 1.655-.46 2.802-.11 1.338-.33 2.477-.81 3.68-.53 1.004-1.18 2.358-1.84 3.068-.64.826-1.51 1.284-2.25 1.838-1.37.244-2.52.098-3.88-.204-1.45-.49-1.73-1.06-2.25-2.453-.45-1.527-.41-3.21-.41-4.907.05-1.264.32-2.445.62-3.68v-3.475c0-.342.39-1.187.39-1.526"/>
<path stroke-linejoin="round" stroke-linecap="round" fill="none" d="M411.99 267.39c-.498.066-2.17.39-3.272.41-.8.265-2.162.204-3.272.204-1.19-.28-1.775-.29-2.25-1.022-.727-.506-1.008-1.004-1.633-1.43-.302-.605-.64-1.278-1.023-1.842-.103-1.155-.395-2.063-.408-3.27 0-1.072-.002-1.853-.41-2.454v-.408m-.002.402v3.27c0 1.074-.16 1.92-.408 2.862-.114.962-.38 2.03-.818 2.66-.488.935-1.174 1.248-2.045 1.634-1 .135-1.27.165-2.05-.204-.71-.193-1.64-.678-2.25-1.226-1.07-.443-1.94-.967-2.66-1.637-.9-.63-1.52-1.27-2.05-1.84-.42-.83-.7-2.02-1.03-2.66 0-1.13.09-1.78.41-2.46.32-.66.75-1.14 1.22-1.64.49-.47 1.75-1.39 2.46-1.64"/>
<path stroke-linejoin="round" d="M386.43 261.05h-.204c.694 0 .262-.04-1.023.816-.907.697-1.527 1.03-2.454 1.434-1.31.307-2.15.408-3.68.408-1.35 0-2.67.013-3.89-.204-.89 0-1.86-.006-2.46-.204a5.71 5.71 0 0 0-1.03-1.842c-.16-.723-.21-1.666-.21-2.657.36-.58.65-1.79 1.02-2.25.52-.93.86-1.24 1.63-1.84.72-.5 1.28-.74 1.84-1.22.85-.28 1.18-.64 2.04-1.43.82-.74 1.15-1.26 1.84-1.84.46-.43 1.07-1.02 1.64-1.43.27-.85.74-1.43.81-2.45v-3.88" fill="none"/>
<path stroke-linejoin="round" stroke-linecap="round" fill="none" d="M363.83 273.21c-.242-.122-.883-1.3-1.53-1.947-1.427-1.436-2.633-2.114-2.657-4.088.46-.682 1.264-1.214 2.25-1.635.556-.546 1.16-.986 1.84-1.227.774-.17 1.807-.206 2.862-.206 1.112 0 1.653-.167 2.657-.204 1.072-.014 1.55-.204 2.66-.204.375-.38.8-.21-.207-.21-.726.33-1.547.41-2.657.41-.904-.4-1.447-.6-2.453-.82-.544-.47-1.206-.63-1.635-1.23-.91-.51-1.192-.97-1.433-2.04-.133-1-.167-1.44.41-2.25.3-1.15.867-1.83 1.43-2.66.677-.7.986-.82 2.25-.82h3.068c.726.13 1.544.2 2.246.41-.97-.28-1.95-1.29-2.86-2.25-.87-.95-.91-1.25-1.43-2.25-.34-1.28-.77-2.01-.82-3.27v-3.07c.2-1.1.47-1.55.82-2.25"/>
<path stroke-linejoin="round" d="M360.46 244.07c-.12.243-1.007 1.565-1.227 2.045-.262.733-.41 1.38-.41 2.452-.18.882.007 1.338.206 2.25.59.407 1.08.84 1.63 1.633.88.427 1.18.838 1.63 1.638.55.376 1.39 1.27 1.74 1.84-1.01-.073-2.17-.892-3.17-1.228-.59-.273-1.83-.642-2.46-1.02h-3.48c-1.09.082-1.31.445-2.05.816-.42.66-.74 1.22-.82 2.25-.23.683-.23 1.77 0 2.453.46.49 1.05 1.24 1.63 1.63.75.43 1.35.81 2.25 1.43.95.56 2.15 1.1 2.86 1.63.69.19 1.5.45 2.04.82.5.08 1.13.2.2.2-.55-.32-1.59-.4-2.25-.61-.97-.17-1.91-.5-3.07-.62-1.07 0-1.43-.03-1.84.61-.84.24-1.08.74-1.64 1.22-.37.77-.58 1.25-.62 2.45.22.82.43 1.23.62 1.84.15.35.53 1.1.81 1.33l-.82-1.33" fill="none"/>
<path stroke-linejoin="round" d="M351.67 223.01c-.55.14-2.403.713-3.476 1.023-.73.244-1.24.654-1.84 1.023-.592.4-.95.926-1.43 1.43-.243.73-.653 1.24-1.022 1.84-.32.676-.537 1.272-.614 2.25.016 1.374.477 1.904 1.022 3.27.702 1.19 1.26 2.58 2.25 3.27.84.516 1.496.898 2.452 1.433.652.17 1.648.64 2.25 1.02 1 .13 1.658.41 2.25.81h-1.636c-.956.04-1.8.17-2.456.61-.7.28-1.004.83-1.634 1.22-.23.84-.586 1.2-.82 2.25-.338.67-.155 1.78 0 2.65.428.61.812 2.05 1.228 2.65.44 1.5.856 2.72 1.84 3.88.176.5 1.43 1.28 1.847 1.53-.63-.43-2.19-1.99-3.07-2.77-.51-.66-1.16-1.11-2.04-1.43-1.08-.42-2.09-.74-3.27-.82-1.11 0-1.74.12-2.45.41-.52.45-1.19.69-1.63 1.23-.58.41-.88 1.08-1.22 1.84.04 1.1.29 1.65.82 2.45.48.71.83 1.22 1.43 1.63.61.7 1.29 1.12 2.25 1.63.81.57 1.53.7 2.46 1.23.91.29 1.66.71 2.86 1.22 1.03.56 3.77 2.55 4.61 2.87.18.27-2.72-1.74-3.59-2.26-1.04-.23-1.4-.59-2.25-.82-1.06-.49-1.62-.88-2.65-1.02-.89-.41-2.05-.64-2.86-.82-1.23 0-2.22-.2-3.47-.2-.88 0-.95.02-1.22.61-.68.53-1.07 1.13-1.63 1.84-.38.68-.82 1.28-1.22 1.84-.3.69-.63 1.56-.82 2.25-.18.84-.4 1.37-.41 2.45" fill="none"/>
<path stroke-linejoin="round" d="M334.11 261.85c0-.067.207.275.207.206 0 .575-.18-.143-.615-1.227-.675-.81-1.534-1.99-2.453-2.87-1.31-.93-2.66-1.88-4.09-2.46-1.25-.59-2.56-1.22-3.89-1.64-1.19-.23-2.43-.21-3.68-.21-1.24.01-1.42.33-2.25.61-.48.54-.93 1.09-1.23 1.84-.24.6-.39 1.57-.61 2.25 0 1.04-.2 1.83-.21 2.86 0 .83.2 2.23-.31 2.56.21-.9.41-2.62.71-3.79-.02-1.23-.39-1.59-.82-2.66-.88-.98-1.7-2.02-2.46-2.87-.71-.9-1.61-1.96-2.45-2.66-.71-.43-1.41-.92-2.05-1.22-1.04-.42-1.52-.78-2.66-.82a9.794 9.794 0 0 1-1.64 1.22c-.6.41-.97.87-1.23 1.64-.38.55-.5 1.49-.61 2.45-.33.94-.41 1.56-.41 2.66-.26.34-.36.87-.41 1.43.12-.92.39-1.73.41-2.86-.16-1.06-.57-2.09-.82-3.48-.04-1.41-.31-2.27-.82-3.07-.88-.79-1.69-1.93-2.86-2.66-1.02-.49-1.83-.81-3.07-.82-1.11.01-1.67.27-2.46.61-.29.71-.41 1.34-.41 2.45.01 1.16.22 1.57.61 2.25.12.9.52 1.59.61 2.66.28.47.2 1.47.2 2.25-.1-1.11-.77-1.89-1.02-2.86-.26-1.17-.57-2.16-.82-3.07-.45-1.2-1.13-2.25-1.84-3.47-.72-.58-1.1-1.18-2.05-1.84-.93-.8-1.63-1.28-2.66-1.43h-2.86c-.84.33-1.09.65-1.64 1.23-.26.97-.75 1.76-1.02 2.45 0 1.01.04 1.95.2 2.86.48.51.8 1.05 1.02 1.84.34.59.82 2.6.82 3.59-.32-.84-1.11-3.57-1.43-4.61-.3-.83-.78-1.84-1.23-2.66-.32-1.17-.8-1.78-1.43-2.66-.52-.8-1.34-1.5-2.25-2.04-.88-.74-1.24-.98-2.45-1.02-1.05.31-1.25.67-2.25.82-.38.34-1.07.6-1.43 1.02-.19.82-.5 1.38-.82 2.04-.15.72-.2 1.66-.2 2.65.36.54.79 1.32 1.02 2.05.63.69.89 1.39 1.43 2.25.3.9 1.67 3.04 2.05 3.68-.12.12-1.2-1.56-1.64-2.05-.8-1.11-1.19-1.78-1.64-3.07-.52-.69-1.15-1.65-1.63-2.04a11.016 11.016 0 0 0-2.66-2.25c-.92-.65-1.4-.62-2.66-.62-1.29-.27-2.22 0-3.07.4-.61.62-1.9 1.63-2.45 2.05-.62.78-.92 1.3-1.44 1.84-.27.68-.5 1.38-.61 2.25.09 1.13.53 1.38 1.02 2.45.54.42 1.35 1.5 1.84 1.84.39.48 2.91 2.76 2.05 2.76-.37-.55-1.62-1.86-2.26-2.36-.6-.73-1.34-1.37-1.84-1.84-.84-.37-1.52-.7-2.46-.82-1.18-.24-1.93-.37-3.07-.41-1.03.09-1.6.6-2.25 1.02-.37.6-.78 1.11-1.02 1.84-.46.55-.41 1.38-.41 2.45.36.53.75 1.32 1.02 2.04.62.6 1.07 1.57 1.84 2.25.81.68 1.51 1.01 2.45 1.22 1 .03 1.55.2 2.66.2.71.05-.34.18-.62.41" fill="none"/>
<path stroke-linejoin="round" d="M247.82 264.74l-.204-.204c.512.51.282.265-.818-.615-1.245-.58-2.61-.77-4.087-.81a64.17 64.17 0 0 1-3.47.82c-.65.67-1.08.95-1.84 1.84-.31.78-.47 1.37-.2 2.46.55 1.13.79 1.53 1.64 2.46.6.41 1.09.72 1.84 1.03 1.55.24 3.07.76 4.7.82 1.18 0 4.12.38 5.23.41 1.39 0-3.5-.2-4-.2-1.48 0-2.93.01-4.29.21-1.3.27-2.55.56-3.68 1.23-.93.53-.82.99-.82 2.25.3.73.65 1.24 1.02 1.84.64.59 1.17 1.15 2.05 1.44 1.07.59 2.18 1.12 3.48 1.22.85.29 4.45-.03 3.19-.1-.65.56-5.07.67-6.26.92-1.26.54-2.61 1.28-3.68 1.64-.23.89-.4 1.53-.2 2.46.44.72.79 1.38 1.43 2.05.51.51.8.79 1.64 1.02.88.43 2.31.67 3.48 1.02.91 0 .93-.13 1.44-.41m93.85-37.83c0-.07-.41-.67-.82-1.22-1.08-1.26-2.91-2.66-4.29-3.88-1.49-.6-2.58-1.32-4.08-1.43-1.27 0-1.67.01-2.04 1.02-.44.54-.63 1.28-.82 2.25-.42 1.01-.41 1.96-.41 3.27-.3.61-.26 1.73-.61 2.25-.03.54-.13.89-.2.82-.34-.68.22-2.09.41-3.06 0-1.24.17-2.28.21-3.47-.48-1.86-.64-2.34-2.04-3.88-1.39-1.46-2.38-2.34-4.09-3.47-.9-.23-2.07-.6-3.27-.61-.74.4-1.74 1.05-2.46 1.64-.72.97-1 1.59-1.02 2.86.15 1.12.49 1.85 1.02 2.86.29.72.6 1.64.82 2.66.37.96.53 2.35 1.02 3.07.14 1.09.13.7-.2 0-.1-1.38-.54-2.67-1.02-3.68-.4-1.49-.84-2.03-1.64-3.27-.79-1.22-1.14-1.72-2.45-1.84a4.826 4.826 0 0 0-2.86 0c-.75.42-.97.67-1.02 1.84-.23.7-.31 2.38-.31 3.38 0 .31 1.04-4.24.72-5.42-.76-1.41-1.62-2.51-2.86-3.68-1.2-1.45-2.29-2.77-3.88-3.68-1.11-.33-1.72.16-2.45.82-.95.64-1.69 1.54-2.04 2.25-.23.85-.53 1.34-1.02 2.25-.77.96-1.4 4.47-1.53 3.8-.17-1.1.23-3.92.51-5.02.11-1.4.24-2.62-.21-3.68-.85-1.12-1.59-1.95-2.66-2.45-.71-.78-1.24-.82-2.45-.82-.91.29-2.1.98-3.07 1.64-.6.56-.85.94-1.02 1.64-.37.63-.66 1.95-.82 2.65-.21.88-.6 1.7-.61 2.86-.42 1.39-.2-.94-.2-1.63-.32-.98-.16-2.32-.61-3.06-.55-1.02-.81-1.26-1.84-2.04-1.05-.47-1.58-.82-2.86-.82-.57.4-1.26.66-1.84 1.23-.65.84-1.2 1.66-1.84 2.66-.22.89-.2 1.86-.2 2.87.03.83.17 1.32.21.2V239c-.22-1.143-.43-1.673-1.43-2.044-.71-.387-1.67-.41-2.86-.41-.83.293-1.08.65-1.22 1.634-.51.714-.61.95-.61 2.044-.29.58-.2 1.766-.2 2.66-.33.436-.37 1.32-.41 0-.07-1.026-.33-2.14-.61-2.86-.68-.53-1.62-1.125-2.25-1.433-1 0-1.98-.01-2.86.21-.79.41-.79 1.03-1.43 1.64-.21.88-.54 1.23-.62 2.25-.18.86-.12 1.56 0 2.46.23.64.57 1.42.41 1.84a34.58 34.58 0 0 1-2.04-2.65c-.76-.61-.97-.87-2.05-1.02-.88-.07-1.42-.21-2.45-.21-.5.43-1.1.86-1.64 1.23-.48.7-.87.86-1.02 1.84-.31.62-.21 1.83 0 2.46.5.33.67.74 1.23 1.03.42.53 1.06 1.04 1.43 1.64.24.49.33.25-.41.21-.64-.77-1.475-1.06-2.66-1.64-1.273-.23-2.19-.02-3.475.2-.58.84-.98 1.63-1.02 2.87.04 1.09.73 2.68 1.33 3.18" fill="none"/>
<path stroke-linejoin="round" d="M346.77 237.32h-1.025c-1.617-.152-3.072-.396-4.7-.412-1.5 0-2.65.016-3.885.615-1.2.418-1.435.866-2.25 1.634-.52.975-1.146 1.783-1.43 2.864-.367.91-.775 1.73-.818 2.87.262 1.57 0-1.12 0-1.84.326-1.84.207-3.63-.204-5.52a22.25 22.25 0 0 0-1.43-3.68c-.46-.81-.983-1.51-2.045-1.84-.737-.21-1.932-.24-2.657 0-.517.37-1.37 1.34-1.842 2.05a34.14 34.14 0 0 0-1.634 2.46c-.51.86-.91 1.93-1.227 2.66-.103.6-.25 1.25-.41 1.64-.408-.82-.9-1.09-2.043-1.63-1.062-.91-2.25-1.74-3.27-2.25-.817-.5-1.983-1.23-2.865-1.63-.628-.43-1.695-.7-2.657-.81-.993 0-2.4-.13-3.065.21-.795.28-1.078.73-1.433 1.43-.36.59-2.122 2.63-2.053 2.46 0-1.13 1.004-3.44.622-4.5-.55-1.08-.99-1.59-1.23-2.45-.65-.71-.88-1.48-1.64-2.04-.28-.78-.81-1.02-1.23-1.64-.91-.38-1.02-.77-2.25-.81-1.02 0-1.96.16-2.66.41-.76.21-1.4.49-1.84 1.02-.92.44-1.09.82-1.84 1.43-.53.37-1.17 1.16-1.43 1.84-.6.73-.09.93 0 2.05" fill="none"/>
<path stroke-linejoin="round" d="M343.3 227.94v-.206c0 .604.037.265-.612-.816-.413-.67-.845-1.2-1.637-2.045-.7-.83-1.19-.82-2.45-.82-.89 0-2.08-.083-2.65.205-.79.305-1.26 1.076-1.84 1.842-.64.898-1.29 1.547-1.63 2.25-.41.976-.79 1.395-1.02 2.248-.51.387-.49.8-1.22 1.022-.37-.667-1.04-1.065-1.43-1.637-.91-.315-2.12-1.208-3.07-1.838-1-.665-1.91-1.04-2.86-1.637-.91-.316-1.48-.408-2.66-.408-1.28.058-1.88.355-2.86 1.022-.89.42-1.51 1.054-2.25 1.635-.72.5-3.67 4.837-4.41 5.446-.75.71 2.57-3.293 3.19-4.424.48-1.21.82-1.95.82-3.28-.23-1.67-.38-3.21-1.63-4.29-.98-.39-2.14-.61-3.47-.62-.93.13-1.41.41-2.45.61-.78.42-1.56.63-2.25 1.23-.65.4-1 .82-1.84 1.22-.41.59-1.01.84-1.43 1.43-.3.13-1.41 1.24-1.54 1.54" fill="none"/>
<path stroke-linejoin="round" d="M336.54 223.22h-.204c.6 0 .264.035-.817-.614-.56-.38-1.09-.868-1.64-1.43-1.15-.29-2.07-.83-3.27-1.022-1.03-.42-2.18-.816-3.07-1.023-.89 0-1.87 0-2.46.21-.41.6-.88.95-1.23 1.64-.28.58-.47 1.52-.82 2.05-.03.82-.43 2.24-.93 2.57.45-.8 1.28-3 1.53-4.4-.32-1.5-.91-2.88-1.64-4.29-.8-.97-1.72-1.92-2.66-2.86-.95-.23-2.01-.2-3.07-.2-1.25 0-1.65.02-2.25.82-.59.46-1.1 1.27-1.64 1.64-.59.78-1.13 1.12-1.43 2.25a8.986 8.986 0 0 0-.82 2.25l.82-2.25a8.986 8.986 0 0 0-.82 2.25v.2c.25-.85.8-1.66.82-2.86 0-1.06.04-2.32-.21-3.06-.33-.81-.65-1.3-1.43-1.84-.96-.94-1.74-1.58-2.86-2.04-.92-.46-1.86-.54-2.87-.2-1 .42-1.4.78-1.84 1.43-.89.31-.98.69-1.03 1.84-.04 1.11-.19 2.01 0 2.86.14 1.17.47 1.91.82 2.87.44.69.96 1.1 1.22 1.84.27 0 1.23 1.48 1.23 1.75" fill="none"/>
<path stroke-linejoin="round" d="M335.54 222.4c0-.458-.414-2.808-.414-3.886 0-1.11-.19-1.586-.204-2.66 0-.742.195-2.36-.305-2.05.037 1.005.1 2.37.1 3.482-.29.818-.38 1.38-1.022 1.84-.663.442-1.696.408-2.86.408-.98-.106-2.213-.17-2.865-.612-1.05-.225-1.7-.535-2.453-1.022-.7-.398-1.28-.846-1.84-1.227-.237-.872-.663-1.094-.817-2.25-.464-1.066.615-3.587.32-3.88-.08 1.046-3.92 2.673-5.022 3.063-1.12.38-2.02.41-3.272.41-.832 0-1.7-.005-2.25-.205-.87-.63-1.31-1.04-2.044-1.63-.956-.73-1.677-1.13-2.657-2.04-.85-.8-1.298-1.54-1.84-2.25-.348-.75-.968-2-1.432-2.65-.107-.81-.203-1.61-.203-2.66v2.86c-.408.9-1.067 1.83-1.838 2.66-1.122.52-2 1.07-3.273 1.23-.71-.39-1.62-.72-2.25-1.02-1.07-.16-1.44-.48-2.05-1.22-.7-1.13-1.32-1.93-1.43-3.27-.32-.56.11-1.05.2-1.84 0-.44.1-.3.2-.61m-20.43-3.46c-.07 1.24-1.85 2.76-2.26 3.69-.33 1.05-1.04 1.67-1.44 2.45-.98.55-1.78.78-2.87 1.23-1.5.06-2.71.37-4.3.41-1.28 0-3.16.36-3.78-.4-.86-.93-2.47-2.18-3.17-3.07-.7-.68.51-2.41.32-2.76M228 218c-.42 1.273-.88 5.45-2.46 7.903-.71.93-1.68 1.285-2.66 1.635-1.16.302-2.07.7-3.47.818-.986.377-1.53.406-2.453.204-.58-.116.07-1.218-.51-1.335.76.38.08 1.988.7 2.974.08 1.04.37 1.33.41 2.45 0 1.2-.05 2.32-.21 3.47-.11 1.05-.29 1.97-.41 2.86-.62.93.01.14-.81.61-.85.25-1.77.67-2.87.81a26.35 26.35 0 0 1-2.66.51c-1.11.66-.63.52 0 1.43.74.59.98.8 1.23 1.94.29.57-.31 2.99-.83 3.89-.09 1.06-.49 1.81-.61 2.86-.34 1.19-.49 2.5-.82 3.68-.203.78-.61 1.7-.815 2.66-.364.65-1.275 1.8-1.64 2.45-.58.35-2.01 1.12-2.66 1.43-.173.68 1.196.6 1.64 1.22.664.66.984 1.11 1.23 2.25.17 1.14.413 1.82.61 2.66-.13.89-.45 2-1.025 2.66-.31 1.17-.743 1.78-1.43 2.24-.654.61-1.55 1.09-2.45 1.23-.63.44-1.693.7-2.655.82-.34.29-2.03 1.58-2.464 1.75m102.84-58.99c-.23 0-1.482-.06-2.04-.2-.98-.57-2.06-.41-3.27-.41-1.08.2-1.8.38-2.25 1.02-.48.9-.81 1.58-.82 2.86.01 1.15.36 1.99.61 2.86.43.52.48 1.4.82 2.04 0 .41.51 1.95.51 2.36-.44-.99-1.35-3.5-1.74-4.82-.22-1.47-.38-2.14-1.43-2.86-1.39-1.13-2.09-1.75-3.68-2.05-1.11.18-1.97.91-2.87 1.43-.59.69-1.7 1.32-2.454 1.84-1.01.88-1.693 1.51-2.04 2.86 0 1.05.096 1.85.21 2.66.162.75.374 1.57.612 2.25.27 1.19.524 2.26.612 3.47.204.21.202 1.24.202 1.02-.49-.67-.76-1.56-1.022-2.45-.31-.9-.74-1.76-1.224-2.66-.935-.82-1.17-.89-2.45-1.23-.99 0-1.936.05-2.66.2-.45.37-1.184.72-1.64 1.23-.55.71-1.134 1.34-1.43 2.45 0 1.04.1 1.84.21 2.66v2.46-2.46 2.45" fill="none"/>
<path stroke-linejoin="round" d="M299.35 208.3h-.204c.57 0 .267.025-.82-.41-.542-.37-1.458-.474-2.044-.817-1.18-.043-2.116-.204-3.475-.204-1.198.1-1.444.59-1.635 1.84-.286.85-.204 1.88-.204 2.86-.07 1.09-.286 2.01-.41 3.06-.12.55.14 3.93-.1 4.41-.176-1.2-.934-4.51-1.33-5.44-.7-1.54-1.58-2.7-2.862-4.09-.946-.82-1.44-.62-2.66 0-1.176.15-1.42.41-2.042.82-.617.45-1.248 1.05-1.637 1.84-.652.51-1.028 1.2-1.227 2.04.07.89.34 1.73.615 2.45.19.37 2.07 4.29 2.26 4.62.214.35-1.783-3.21-2.464-3.8-.7-.69-1.38-.62-2.66-.62-1.62.2-2.98.44-4.29 1.22-.7.67-.94 1.27-1.43 1.84-.11.85-.33 1.64-.41 2.65.16 1.01.48 1.44 1.03 2.25.19.42 1.53 2.27 1.65 2.77-.78-.44-3.12-1.75-4.3-1.75-1.19.16-1.64.53-2.25 1.43-.42 1.05-.41 2.06-.41 3.27-.03 1-.2 1.81-.2 2.86 0 .41.42 4.94.42 5.34-.18-.76-.84-5.6-1.23-6.16-.42-.99-1.13-2.23-2.04-2.87-.65-.4-1.38-.16-2.04.2-.27.56-.96 1.67-1.43 2.25-.27 1.02-.6 1.3-.61 2.45.12.84 1.53 4.59 1.65 5.44 0 .3-1.37-3.44-1.44-3.6-.34-.83-.99-2.09-1.43-3.07-.7-.48-1.05-.97-1.83-1.43-.75-.55-1.35-.9-2.04-1.23-1.01-.29-1.9-.41-3.07-.41-.81.4-1.23.7-1.83 1.63-.29 1.03-.41 1.87-.41 3.07v3.06c.22.81.55 1.41 1.23 2.04.43.63 1.9 2.58 2.46 3.28.83.83-1.38-2.03-1.85-2.26-.84-.45-1.27-.69-2.25-.82-.58-.29-1.76-.21-2.66-.21-.97.33-2.35.54-3.07 1.02-1.14.43-2.12.49-2.45 1.43.04 1.23.28 1.9.61 2.86.51.93.84 1.64 1.43 2.24.41.61.87.98 1.64 1.23.36.54 2.35 1.61 2.87 2.25-.63-.38-2.69-.64-3.48-.41-.56.38-1.37 1.01-2.25 1.64-.88.7-.81 1.19-.81 2.45.08.97.3 1.57.62 2.25.33.7.65 1.2 1.02 2.04-.14.31 4.84 3.53 4.84 3.81m47.29-57.16h-.2c.6 0 .26-.04-.82.61-.92.31-1.82.46-2.66.2a30.945 30.945 0 0 0-3.68-.21c-.41-.31-.93-.16-1.22-.62-.84-.37-1.24-.61-1.44-1.43-.47-.79-.91-1.96-1.23-2.86-.44-.84-.78-1.44-1.22-2.45 0 1.25.22 2.34.41 3.48v3.06c-.51.97-.47 1.46-1.63 1.63-1.02 0-1.96-.17-2.66-.41-1.61-.39-3.33-.78-4.91-1.02-.67-.96-1.43-1.28-2.65-2.44" fill="none"/>
<path stroke-linejoin="round" d="M271.96 205.03c-1.012.275-1.98.114-2.657.816-.455.685-1.048.94-1.225 1.84-.63 1.225-.82 2.82-.82 4.498.234 1.178.928 2.294 1.638 3.067.368.6 1.25 1.88 1.844 2.77.596 1.18-.466-.35-1.232-.72-.99-1.13-2.244-2.21-3.68-2.45-1.565-.38-2.81-.52-4.29 0-1.045.52-1.27 1-1.434 2.25-.288.58-.203 1.76-.203 2.66.02 1.13.21 2.13.21 3.27.3.92.18 2.13.41 3.07.37.52.67 2.76.92 3.19-.25-1.27-.86-4.57-1.53-5.63-.5-.73-1.25-1.2-2.04-1.63a9.19 9.19 0 0 0-2.45-.61c-.99-.25-2.1-.25-2.86 0-1.19.42-1.6.74-2.04 1.63-.17.81-.47 1.77-.82 2.66-.07.92.01 3.94.01 5.03m9.19-25.47c0-.29-2.23.89-2.45 1.64-1.13.72-1.55 1.46-2.96 1.54-1.39.22-2.58.72-4.09.72h-5.32" fill="none"/>
<path stroke-linejoin="round" d="M252.12 208.71v.205c0-.602.035-.262-.614.818-.84 1.096-1.118 1.624-.82 3.067 0 1.183.168 2.132.208 3.27.59 1.405 1.35 3.348 1.838 4.498.506.922.342.437-.612.41-.993-.38-1.9-.41-3.067-.41-1.085 0-2.09.032-3.07.207-.767.51-1.522.837-2.452 1.226-.57.45-1.58.88-2.04 1.43-.22.65-.2 1.72-.2 2.66.12.84.29 1.49.62 2.05.61.91 1.18 1.53 2.05 2.46.47.44 1.21.92 1.84 1.43.64.19 2.05 1.03 2.46 1.44-.73-.5-3.43-2.24-4.29-3.07-1.92-.85-3.96-1.56-6.13-1.84-1.29.05-2.24.69-3.06 1.43-.55.8-.83 1.24-1.63 1.64-.63.78-1.28.65-1.43 1.84-.31.93-.03 1.6.21 2.66.39.98.81 2.08 1.23 2.86.62.61 1.01 1.1 1.64 1.84.77.67 1.23 1.15 2.05 1.43.5.48 1.85.98 2.56 1.23-.49.43-2.14.73-2.77 1.03-.9.77-1.52 1.3-2.04 1.84-.11.82-.2 1.62-.2 2.66-.05.85-.2 1.28-.2 2.25.42.6.98 1.71 1.64 2.25.57.66 1.27.92 1.84 1.44.41.17.66.42 1.02.61l-1.02-.61c.41.17 2.2.52 2.57.72" fill="none"/>
<path stroke-linejoin="round" d="M243.72 208.91c-.097 0-.682.682-1.228 1.227-.863.835-.932 1.388-1.43 2.657 0 1.262.008 2.107.818 2.862.488.882 1.245 1.677 1.84 2.452.706.686 1.016 1.242 1.432 2.045-.408-.6-1.216-1.26-1.84-2.25-.693-.496-1.358-1.398-2.25-2.044-1.216-.44-1.75-.58-2.86-.41-.944.63-1.933 1.08-2.66 1.84-.838.71-1.61.92-2.044 1.84-.656.47-.776.93-.818 2.04 0 1.3.29 1.86.614 3.06.554.96 1.034 1.87 1.43 2.45.322.26 1.38 1.7 1.54 1.54-.564-.34-1.836-1.56-2.766-1.75-.77.35-2.376.2-3.475.2-1.21 0-1.942 0-2.864.41-.83.31-1.78.73-2.66 1.43-1.1.38-1.73.8-1.84 2.04.18.99.62 1.16 1.43 2.04.89.94 1.72 1.94 2.86 2.65.51.73 1.77 1.67 2.25 2.25.58.26 3.6.2 2.47.2-.9.23-4.82.91-5.54 1.43-.91.86-1.11 1.66-1.23 3.07.07 1.27.4 2.31.61 3.47.51 1.06.67 1.86 1.22 2.66.44.68 1.49 1.68 2.04 2.04.88.35 2.24 1.02 3.27 1.43.54.2 1.47.41 2.24.61h-3.68c-.96.25-1.69.36-2.25.82-.85.28-1.05.74-1.64 1.22 0 1.12.12 1.76.61 2.45.13.89.63 1.76 1.22 2.25.48.76 1.2 1.42 1.84 1.84.82.71 1.19.88 2.04 1.22.92.12 1.74.48 2.65.61.46.38 1.66.61 2.25 1.02l-2.25-1.03c.46.38 1.66.61 2.25 1.02l1.02.31c-.96.14-2.41.19-3.48.71-1.46.44-2.9.74-3.48 1.63-.92.46-1 .89-1.22 1.84-.09 1.18-.13 1.61.2 2.45a6.125 6.125 0 0 0 1.64 1.64c.6.51 1.77 1.47 2.66 1.84 1.01.59 1.72.88 2.45 1.23-.97.16-1.99.2-3.07.2-.67.39-1.19.4-1.64 1.02-.69.5-1.13.98-1.23 2.05-.29.88-.1 1.49.41 2.45.64.48 1.34 1.15 2.04 1.64.74.34 1.9.78 2.86 1.02.34.13 1.51.2.42.2-.52.27-1.62.2-2.45.2-1.07.1-1.49.49-2.25 1.02-.66.65-.98.79-1.03 2.04 0 1.16.1 1.66.61 2.25.54 1.13 1.03 1.48 1.84 2.04.69.42 1.8.58 2.86.61 1.26 0 2.49-.03 3.68.2.52 0 4.55.67 4.62.62" fill="none"/>
<path stroke-linejoin="round" d="M224.91 241.21c0 .06-.376.596-.612 1.226-1.02.77-1.038 1.45-2.25 1.634-.86.188-1.554.122-2.452 0-.366-.512-1.078-1.055-1.634-1.43-.464-.668-1.222-2.03-1.744-2.46m10.44 8.18c-.052.31-.992 2.014-1.127 2.66-.77.78-1.91 1.976-3.06 2.66-.86.204-1.5.508-2.65.612-.97.312-2.17.204-3.27.204-.89-.206-1.53-.58-2.45-1.022-.39-.487-2.82-2.52-3.48-2.972" fill="none"/>
<path stroke-linejoin="round" d="M225.55 251.09c0 .312-.458 4.707-1.025 6.678-.495.874-1.223 1.873-1.838 2.86-.657 1.103-1.04 1.705-2.25 2.25-1.358.512-2.706.615-4.293.615-1.016-.244-2.285-.885-3.477-1.227-.74-.503-1.72-1.104-2.453-1.637-.742-.62-1.626-1.17-2.048-2.05" fill="none"/>
<path stroke-linejoin="round" d="M229.41 269.03h-.204c.553 0 .27-.013-.82.204-1.382.204-2.256.08-3.475-.41-.88-.308-1.93-1.108-2.86-1.84-.85-.82-1.62-1.588-2.25-2.044a2.468 2.468 0 0 0-.81-1.634c0 1.03.09 1.918.21 2.86 0 1.153-.15 2.054-.41 3.068-.32 1.137-.77 1.558-1.63 2.453-1.22.255-2.3.408-3.68.408-1.47-.01-2.74-.25-4.09-.408-.74-.336-1.41-.683-2.04-1.022m21.79-1.45c-.73 2.283-3.31 3.467-3.79 4.095-1.16.28-2.15.6-3.48.614-1.19 0-1.33-.05-2.04-.615-1.18-.4-1.56-.72-2.04-1.43 0-.28.07-.21-.2-.21m14.1 9.62l-.2.2c.47-.47.24-.3-.2.82-.63 1.19-1.48 1.39-2.66 1.84-1.08-.17-1.5-.56-2.66-1.23-1.07-.61-1.89-1.64-2.65-2.66-.62-1.37-1.02-2.53-1.02-4.09-.28-.64-.38-1.43-.82-1.84v4.29c-.31.95-.36 1.7-.61 2.65-.17 1.24-.43 2.15-.82 3.07-.75 1.04-1.92 1.3-3.47 1.43-1.25.27-2.71.2-4.09.2-1.07-.13-1.71-.33-2.65-.61-1.08-.62-1.38-.8-2.25-1.84-.95-1.08-2.09-2.45-2.66-3.48-.32-1.15-.88-4.6-1.12-5.85 0-1.21.11 2.81.11 3.39-.3 1.83-.41 3.59-.41 5.52v3.27c-.21 1.35-.38 2.05-1.23 2.86-.59.66-1.69 1.48-2.25 1.84-.43.53-1 .93-1.83 1.22-.9.49-1.76.69-2.66.82-.49.08-.84.39-1.23 0" fill="none"/>
<path stroke-linejoin="round" d="M232.3 290.06c-.484.705-1.41 2.286-2.253 2.46-.896.473-2.286.41-3.68.41-.983-.226-2.016-.173-2.453-.82-1.584-1.062-3.036-2.278-4.294-3.68a14.333 14.333 0 0 1-1.433-2.248c-.472-.162.058.47.206.818.745 1.094 1.235 2.197 1.43 3.476.263.978.263 2.28 0 3.065-.24 1.09-.56 1.86-1.43 2.66-.418.52-1.1.41-2.045.41-1.322-.16-2.38-.71-3.68-1.22-1.417-.83-2.01-1.08-2.656-2.45-.268-1.55-.427-3.17-.615-4.7-.027-.56-.04-2.81-.305-3.08-.29.76-.747 3.6-1.126 4.51-.24 1.32-.376 1.73-1.634 1.84-.668.33-1.59 0-2.66 0-.74-.25-1.216-.43-1.634-.81-.188-.34-.427-.47-.615-.82m33.53 2.67h-.204c.6 0 .24-.06-.41 1.02-.49.73-.64 1.63-.82 2.46.08 1.11.37 1.39.81 2.05 1.19.72 1.39 1.02 2.86 1.23 1.6.31 6.5-.11 8.1.2 1.25.18-3.55.93-4.02 1.03-.79.43-1.65.56-2.46 1.23-1.11.85-1.94 1.56-2.66 2.05-.21.79-.41 1.56-.41 2.66.27.7.65 1.33 1.02 2.05.75.8.99 1.26 2.04 1.64 1.62.06 3.22.19 4.9.2 1.64-.42 4.59-1.16 5.63-1.74.3 0-1.17.44-1.34.51-.69.34-1.37.87-2.25 1.64-.84.42-1.13.9-1.64 1.63-.53.69-.75 1.29-1.23 1.84-.14 1.06-.15 1.36.41 2.25.75 1.04.94 1.47 2.05 1.64a11.6 11.6 0 0 0 1.84 1.43c.49.22 3.51.24 3.29.61-1 .07-4.69.38-5.34.82-.83.29-1.08.65-1.22 1.63.04 1.17.26 1.45.81 2.25a4.332 4.332 0 0 0 1.63 1.43c.5.48 4.05 1.19 4.72 1.74.86.3-2.99-.31-3.7-.31-.58.29-1.77.2-2.66.2-.37.59-.83 1.15-1.23 1.84-.37.62-.09 1.33 0 2.05.53.58 1.27 1.8 1.64 2.46.67.46.83.87 1.84 1.23.41.46 4.15 1.89 4.83 1.96m-8.52-5.23v.21c0-.6.06-.24-1.02.41-.5.62-1.28 1.3-1.64 1.84-.19.92.03 1.37.41 2.25.54.44 1.27 1.32 1.63 2.04.95.87 1.59 1.39 2.04 2.05.61.19 2.84 1.14 3.49 1.54-1.16-.02-4.02-1.05-5.13-1.13-1.36 0-1.97.15-2.87.61-.37.6-.78 1.11-1.02 1.84-.26.72-.5 1.41-.62 2.25-.29.88.01 1.36.41 2.05.71.57 1.01.95 1.84 1.22.59.53 1.3.8 2.45.82.51.26 2.67.1 3.28.1-.71.46-2.88.91-3.69 1.13-.64.33-1.43.57-1.84 1.02-.44.69-.78 1.11-.82 2.25.34.86.86 1.65 1.84 2.46.91 1.03 1 1.23 2.25 1.64 1.06.49 5.41.05 6.57.1-1.02.16-5.51 1.41-6.57 2.15-.74.53-.78 1.13 0 1.84.51.9 1.08 1.36 2.05 1.64 1.11 0 1.58-.19 2.65-.21.94.11 4.41-.11 5.44-.11-.79.45-4.87.99-6.05 1.13-1.02.35-1.44.38-1.63 1.43 0 .94-.11 1.62.41 2.05.53.94.84 1.01 2.04 1.02.59.36 1.4.05 2.25 0h7.07m-1.58 9.38c.62 0-6.32-8.86-9.16-7.93-1.31.23-2.16.25-2.66 1.23-.74.73-1.46 1.97-1.84 3.07-.1 1.11-.27 2 0 3.07.19.81.66 1.67.82 2.66.22.44.5 1.4.2 1.84-.15-.69-.35-1.13-.61-2.04-.24-1.55-.39-3.22-.61-4.7-.64-.48-1.4-1.24-2.25-1.84-1.15-.16-2.16-.19-3.07 0-.75.66-1.04 1.19-1.84 1.64-.66.22-2.33.36-3.27.41" fill="none"/>
<path stroke-linejoin="round" d="M218.79 294.99c.07 0-.042-.056.82 1.022.5.374.67.736 1.43 1.227.874.66 1.804 1.02 3.067 1.22 1.248.42 2.578.6 3.884.81 1.13 0 2.27.02 3.28-.21 1.17 0 1.78-.17 2.86-.21l.83-.31m.83 7.87v.2c0-.56-.01-.27.21.81 0 1.23-.19 1.56-.61 2.25-.89.65-1.89.85-3.06 1.23-1.5-.07-2.8-.34-4.09-.82-.99-.82-1.4-1.39-2.04-2.66-.66-2.03-1.2-3.58-1.22-5.73 0-1.18.03-2.08-.61-2.66-.31-.31-.34.53-.61 1.02-.09 1.23-.62 1.95-1.22 3.07-.74.71-1.61 1.55-2.65 2.25-1.08.23-1.45.42-2.45.2a53.095 53.095 0 0 0-2.04-2.25c-.25-.96-.96-2.12-1.43-3.27-.44-1.1-.93-2.04-1.02-3.28-.41-1.13-.33-.98-.61.2-.6 1.29-.77 2.14-1.43 3.27-.85.66-1.64 1.25-2.86 1.63-1.42.21-2.36.11-3.68-.21-.99-.35-1.47-.79-2.04-1.63-.63-.62-.88-1.06-1.02-2.04-.41-.68-.86-2.15-1.22-3.07-.41-.49-.7-1.44-.82-2.25-.28-.23-.46-.67-.61-1.02" fill="none"/>
<path stroke-linejoin="round" d="M242.82 310.3c-.03.396-.453 3.117-.922 3.898-.556 1.168-.765 1.59-2.045 1.635-1.268-.204-2.26-.843-3.27-1.635-.846-1.068-1.68-1.873-2.247-3.065-.615-.506-.548-.797-.408 0 .652.668.596.646.612 1.84v3.066a7.507 7.507 0 0 1-.41 2.45c-.387 1.08-.835 1.62-1.84 2.45-1.165.26-1.358-.17-2.248-.82-1.093-.45-1.52-.85-2.25-1.43-.58-.58-1.18-1.29-1.637-2.05-.11-.82-.204-1.62-.204-2.66 0-1.02.83-3.49.83-4.51-.15-1.25-.99 1.06-1.64 1.85-.52 1.01-1.19 1.79-1.84 2.25-.86.79-2.19 1.16-3.47 1.43-1.21 0-2.18-.19-3.27-.41-.71-.99-.96-1.54-1.43-2.46 0-1.28.19-2.15.41-3.27.22-1.07.5-2.9.52-4 0-1.11-.19 1.2-.51 1.74-.27 1.21-.55 1.27-1.43 2.04a24.09 24.09 0 0 1-3.27.21c-1.24 0-2.37.11-3.47.41-.76-.27-1.16-1.35-1.63-2.25-.26-.8-.4-1.55-.41-2.66 0-1.06-.24-1.68-.41-2.46-.46 1.04-.88 1.12-2.04 1.22-.67 0-1.47.07-1.84-.21-.4-.66-.94-1.26-1.22-1.84l1.23 1.84c-.4-.66-1.86-2.7-2.15-3.28" fill="none"/>
<path stroke-linejoin="round" d="M244.35 318.09c0 .196-.108 1.303-.203 1.84-.368.846-.49 1.61-.614 2.658a7.466 7.466 0 0 1-.408 2.453c-.474.65-1.038 1.01-1.635 1.43-1.382 0-1.79-.12-2.863-.81a38.632 38.632 0 0 0-2.453-1.84c-.586-.98-1.195-1.75-1.84-2.66l-.722-.72c-.416-.87.46.48.72 1.54.31 1.08.41 2.03.41 3.27-.036 1.31-.272 2.4-.41 3.68-.553 1.1-.574 1.33-1.838 1.43-1.335 0-2.61-.02-3.883-.2-1.26-.19-2.2-.54-3.27-1.22-.27-.71-.41-1.61-.41-2.66.02-1.24.31-2.29.41-3.47.44-1.19.61-1.94 1.02-3.06.34-.45.53-.93.62-1.64-.18 1.27-.86 2.17-1.22 3.27-.65 1.22-1.67 2.47-2.25 3.68-.78.75-1.06 1.05-1.84 1.43-.92-.13-1.34-.48-2.04-.81-.4-.59-.87-.93-1.22-1.84-.65-.91-.8-1.32-.82-2.66 0-.82.07-2.25 0-2.45-.08-.26-1.07-3.82-1.33-3.91m-.09 0c-.32.21-1.66.59-2.65.61h-3.68c-1.19-.11-1.08-.56-1.43-1.43a10.856 10.856 0 0 1-.61-3.07c-.18-.99-.69-1.08-.82-1.93-.59.38-.62-.12-1.63.1-1.4.21-2.53.51-3.88.82-1.26.18-2.4.4-3.68.41-1.19 0-2.12.12-2.66-.61-.34-.68-.39-1.63-.41-2.65 0-1.15.13-2.26.41-3.07.42-.78.96-1.6 1.64-2.25a5.478 5.478 0 0 1 1.44-1.43c.42-.62.95-.85 1.23-1.63.49-.41.74-1.03 1.03-1.64" fill="none"/>
<path stroke-linejoin="round" d="M188.51 302.25c.367.085 3.085.69 3.692 1.128 1.004.56 1.396 1.195 2.042 1.84.323.682.538 1.305.82 2.248.155.78.203 1.817.203 2.864-.382.628-.742 1.674-1.023 2.453-.42.623-.797 1.03-1.634 1.43-.986.76-2.69 1.442-4.09 2.046-.944.11-1.83.2-2.862.2-1.022 0-2.148.62-3.17.62-.99 0-2.403-.13-3.066.2-.302 0-.156.04-.41-.21m38.56 5.91c-.082 0-.644.66-1.226 1.02-.483.81-.684 1.29-1.227 2.25-.36.95-.54 1.69-.62 2.66v2.86c.01 1.07.2 1.55.2 2.66v5.72-2.86 2.86m5.31-14.32c0 .41-.25 3.78-.01 4.51.06 1.24.41 1.93.82 2.86.64.49 1.48 1.63 2.25 2.45.61.61 1.23 1 2.25 1.22 1.18.23 2.12.41 3.06.2.77-.34 1.94-1 2.86-1.44.42-.91 1.02-1.94 1.43-3.07.35-1.08.37-2.2.41-1.85.43.36 1.24 1.33 1.63 1.84.86.53 1.71 1.14 2.45 2.05.76.85 2 .57 3.17.61" fill="none"/>
<path stroke-linejoin="round" stroke-linecap="round" fill="none" d="M222.47 340.77c0-.07 2.408 3.086 3.277 3.086a15.08 15.08 0 0 0 3.068.41c1.255-.015 2.22-.328 3.27-.818.852-.9.613-2.24.613-3.68V336.7c-.023-.836-.28-1.493-.407-2.25.19 1.33.83 2.434 1.23 3.68.46.987 1.89 4.598 3.27 4.81.63.76 1.23.368 1.84-.514 1.11-.726 1.39-4.13 1.84-4.703 0-.575.15-.533.21-1.023"/>
<path stroke-linejoin="round" d="M222.05 348.53c0 .07 1.59 1.406 2.67 2.055 1.117.843 1.295 1.023 2.66 1.023.924-.175 1.294-.887 2.042-1.637 1.043-1.01 1.284-1.83 1.022-3.27-.04-1.11-.344-2.89-.612-2.45.472.62.91 1.52 1.227 2.04.42.63.72 1.06 1.63 1.23.54.46 1.31.75 2.25.82.49.37 1.13.25 1.43-.2.69-.31 1.2-.62 1.63-1.02.19-.65.53-1.05.81-1.63" fill="none"/>
<path stroke-linejoin="round" stroke-linecap="round" fill="none" d="M237.6 347.73v.204c0-.55-.014-.273.203.816.07 1.184.207 2.223.207 3.476-.297 1.225-.49 2.11-1.227 2.862-.694.347-1.92.188-2.863 0-1.235-.556-4.46-2.87-4.906-3.883-.302-.176 2.667 2.068 3.067 2.656.47.71.8 1.24 1.02 2.05.2.6.35 1.9.21 2.25-.17 1.12-.56 1.09-1.43 1.44-.88.22-1.86.21-2.86.21-.91-.12-1.42-.41-2.25-.61l-.31-.2"/>
<path stroke-linejoin="round" d="M241.49 356.71v1.024c-.238.942-.347 1.787-.614 2.452-.202 1.15-.698 1.202-1.432 1.84-.906.225-1.936.24-2.657 0-1.29-.773-1.964-1.187-2.862-2.25-.898-.897.384.515.818 1.228.708.625 1.126 1.07 1.227 2.25.243 1.22.29 1.737-.41 2.452-.507.726-1.272 1.094-2.454 1.43h-2.862c-1.08-.24-.975-.556-1.43-1.226m15.64-3.04c.05.39-.015 2.113-.103 3.067-.79 1.317-.79 1.375-2.25 1.84-1.17.16-2.39.205-3.68.205-.86-.302-1.49-.882-2.04-1.84-.8-.605-.25.237 0 .818.43 1.107.79 1.827 1.03 3.067.07.845.52 1.105-.4 1.227-1.03.29-2.11.408-3.27.408-.89-.122-1.89-.096-2.66-.305" fill="none"/>
<path stroke-linejoin="round" d="M237.39 369.72c.075.353.467 1.044 1.026 1.534.408.85.953 1.198 1.634 1.635.72.4 1.242.8 2.045 1.02 1.134 0 1.627-.22 2.453-.41 1.232-.42 1.272-.64 1.84-1.44.393-.64.687-1.08.817-2.05.294-.59.2-1.66 0-2.25-.082-1.08-.537-1.45-.816-2.25-.29-.1-.39-.82-.62-1.13m-36.38-48.77c-.07.07-.14.13-.21.2.48-.49.28-.26-.82.41-1 .26-1.41.58-1.84 1.22-.93.51-1.58.97-1.84 2.04v2.86c-.23.74-.21 2.01-.21 3.07 0 1.11-.13 2.03-.21 3.06.14.67.54 1.62.31 2.25-.08-.9-.52-2.1-.52-3.07-.38-.55-.79-1.76-1.23-2.25-.59-.51-1.2-.74-2.25-1.03-1.09-.36-1.81-.22-2.45.41-.47.49-1.04 1.3-1.44 2.25-.22 1.12-.57 1.74-.61 2.86-.23 1.07-.41 1.72-.21 2.66v3.06c0 .95.21 2.22.21 3.17-.13 1.51-.49-.24-.82-.72-.22-1.03-.44-1.86-1.03-2.46-.52-.62-1.37-.82-2.45-.82-1.04 0-1.63-.25-1.84.61-.3.6-.36 1.97-.41 2.86V344c-.18-1.084-.6-1.58-1.23-2.45-.72-.82-1.28-1.04-2.66-1.22-1.34-.32-2-.2-3.07.41-1.03 1.006-1.71 1.35-1.84 2.455-.41.5-.5 1.435-.61 2.25v3.06c0 .57-.85-.62-1.43-1.43-.69-.94-1.1-1.18-2.25-1.227-.79.4-2.35 1-3.07 1.633-.52.43-.41 1.11-.41 2.05v2.86c-.06.71-1.12.71-1.64.21-.76-.37-1.76-.89-2.66-1.02-.78-.37-1.43-.45-2.05-.2-.32 1.04-.62 1.85-.62 3.07-.31.84-.41 1.46-.41 2.46" fill="none"/>
<path stroke-linejoin="round" d="M214.5 322.38c-.07 0 2.744-.926 2.675-.926.572 0-2.612.9-3.698 1.335-.827.3-1.72 1.19-2.453 2.04-1.683 1.5-3.72 3.76-5.317 5.52-1.478 1.48-2.53 2.5-3.476 4.09-2.04 1.62-3.55 3.17-5.31 5.11-1.88 1.4-3.73 2.75-5.52 4.29-1.79.89-3.37 1.7-5.31 2.45-1.73.58-3.23 1.35-4.9 2.04-.88.69-1.39.99-2.45 1.43-1.61.92-3.45 1.63-4.7 2.45-.61.41-1.03.97-2.04 1.43-.64.75-1.49 1.06-2.45 1.63a88.382 88.382 0 0 1-3.68 1.22c-1.41.48-2.29.89-3.68 1.43-3.75 1.32-7.6 2.83-11.44 3.47-1.1.4-2.21.73-3.27.81-1.55.56-3.48.59-5.11.82a108.1 108.1 0 0 1-3.27.81c-1.05.29-2.08.53-2.86.82-1.05.12-2.22.42-3.06.61-.99.29-1.42.59-2.25.81-.46.4-2.4 1.96-2.87 2.36m57.06-51.65c.12.39.41 1.63.41 2.66-.16.97-.36 2.19-.82 2.86-.36.91-1.54 1.78-2.25 2.45a32.1 32.1 0 0 0-2.45.61c-1.05.07-3.44 2.38-4.61 2.47-.68.13-1.52.2-2.45.2-.29-.31-.39-.13-.81-.3.68.49.47.66.61 1.73 0 1.09.76 2.17.62 3.17-.25 1.21-1.3 2.67-2.14 3.15-1.03.64-1.94 1.04-3.07 1.43-1.01.03-1.81.2-2.86.2-.68 0-1.22-.04-1.64-.21m32.3-26.78v1.23c.27 1.34.47 2.28 1.43 3.27.69.92 1.78 1.64 2.86 2.25h3.07c.74-.13 2.38.13 3.18.1m-8.1-.09c-.07.07.48-.17.42-.11.51-.52-.34.04-1.44.92-1.23 1.04-1.76 1.51-2.05 3.07.02 1.17.27 1.51.62 2.25.26.91.75 1.75 1.43 2.25.27 0 .2.07.2-.21M185 322.12c0 .1.96.5 1.33 1.023 1.044.66 2.37 1.85 3.68 2.653 1.274.42 2.458.12 3.68-.41.81-.215 1.414-.51 2.044-1.227l.205-.21" fill="none"/>
<path stroke-linejoin="round" d="M188.75 325.45c-.538.95-1.35 1.52-1.433 2.657 0 1.048.137 1.946.41 2.658.382.707.83 1.82 1.43 2.453.374.613.758 1.13 1.227 1.432-.363-1.004-1.282-1.783-2.25-2.657-.375-.43-.817-.612-1.225-.204-1.05.07-1.77.33-2.46.61-1.15.4-2.12.93-2.86 1.43-.75.77-.82 1.2-.82 2.45-.1 1.29-.21 2.54-.21 3.88.31.26.38.45.41 1.02-.23-.86-.68-2.2-1.23-2.86-.49-.69-.85-.81-2.05-.82-1.04.19-1 .7-1.64 1.22-.62.89-1.05 1.18-1.43 2.25-.5 1.16-.62 2.15-.62 3.47.27 0 .61 2.13.61 1.85" fill="none"/>
<path stroke-linejoin="round" d="M179.53 325.45v.204c0-.546.04-.26-.614.612-.283.962-.408 1.494-.408 2.66.154 1.18.59 1.796.82 2.86.8.954 1.117 1.397 2.04 1.842.282.28.645.38.82.204m-8.38-1.04h-.205c.053.135 0 .91 0 1.43 0 .978-.082 2.01.204 2.864.203.832 1.355 1.147 1.845 1.637m-12.46-.82c0 .07.41-.48.41-.413 0-.57-.386.35-.818 1.435-.964 1.147-1.67 2.05-2.864 3.272-1.255.39-2.05 1.15-3.27 2.044-1.334.76-2.632 1.2-3.885 1.84-1.37.58-2.955.99-4.498 1.43-1.373.51-2.97.88-4.498 1.03-1.04.36-2.19.61-3.27.82-1.28.45-2.68.98-3.89 1.43-.94.33-1.47.52-2.25 1.03-1.23.43-2.43 1.25-3.68 1.84-.45.54-1.67 1.29-2.45 2.05-1.28.69-2.58 1.85-3.89 2.46-1.51.96-3.02 1.76-4.7 2.25-1.35.64-2.67 1.12-3.89 1.84-.92.63-1.86 1.53-2.87 2.25-.63.92-1.41 1.6-2.25 2.25-.66 1.23-1.75 2.17-2.66 3.07-.55.37-1.18.97-1.64 1.44-.63.65-1.23 1.22-1.84 1.64-.6.75-.94 1-1.84 1.43-.56.58-1.26.75 0 .82 1.17-.37 2.59-.38 3.88-.41 1.27-.27 2.74-.42 4.09-.61 1.14-.14 2.48-.37 3.88-.41 1.49.25 3.68-.4 5.32-1.02a288.895 288.895 0 0 1 3.88-2.25c.74-.52 1.39-.75 2.24-1.22.74-.2 1.44-.6 2.25-.82m40.47-31.89c0 .25.08 1.47.2 2.05.39 1.26.92 2.23 1.84 3.06.71.42 2.18.31 3.37.31m-9.72-4.38c-.16 0-.1.48-.41 1.02 0 1.06.14 2.13.4 2.86 1.36.64 2.29.95 3.89 1.03.97-.08 1.52-.33 2.25-.61.63-.14-.22.49-.82 1.02-.86.85-1.25 1.58-.82 2.86.43.89 3.74 2.02 4.31 2.56" fill="none"/>
<path stroke-linejoin="round" d="M160.11 341.8c-.207.953-.236 1.504.41 2.245.557.46 1.384.41 2.454.41 1.822-.097 3.486-.41 5.314-.41.862 0-.706.117-1.022.207-1.028.36-1.557.474-2.25 1.02-1.09.448-1.64.96-2.656 1.84-.41.61-.59 1.403-.204 2.046.403.594.912 1.02 1.635 1.43.77.594.95.923 2.05 1.023h.41" fill="none"/>
<path stroke-linejoin="round" stroke-linecap="round" fill="none" d="M157.36 343.65c-.095.387-.514 1.02-.514 2.04.085 1.09.35 1.38 1.023 1.84.56.46 1.38.41 2.45.41h1.22c-.59.34-1.5.447-2.04.815-.65.44-.96.845-1.23 1.84-.02 1.143-.2 1.562 0 2.658.44.835.69 1.45 1.22 2.25.4.588 2.43 1.782 3.18 2.047m-10.96-10.64c-.19.86-.12 1.555 0 2.453.48.54.85 1.24 1.43 1.634.57.476 2.4.187 3.48.2.86.025 1.34.205.2.205-.55.522-2.17 1.163-2.46 2.254-.3.587-.2 1.652 0 2.248.08 1.04.38 1.415.61 2.247.55.58.8.9 1.63 1.23l-1.64-1.23c.55.58.8.9 1.63 1.23v.21c-.11-.25-.19-.46-.41-.61"/>
<path stroke-linejoin="round" stroke-linecap="round" fill="none" d="M145.09 348.45c-.49.73-.77.98-.514 1.94.534.746 1.093 1.536 1.84 2.045 1.186 1.078 7.618-.456 8.533-.318.27.28-7.8 1.592-8.33 3.383-.22.73-.31 1.952 0 2.863.01 1.175.26 1.51.61 2.25.28.594.49.996 1.22 1.227-.28 0-.21.066-.21-.207"/>
<path stroke-linejoin="round" stroke-linecap="round" fill="none" d="M137.22 350.99c-.29.897.057 1.305.408 2.047.49.733 1.338 1.68 2.045 2.145.413.24 7.118-.312 6.995-.312-.752.262-6.887 1.843-8.017 2.46-.42.822-.4 1.52-.4 2.658.08 1.073.16 1.534 1.02 1.84.58.287 1.7.35 2.46.41l1.44.31"/>
<path stroke-linejoin="round" stroke-linecap="round" fill="none" d="M131.5 353.35c0 .224-.334 1.204-.208 1.938.287.67.137 1.113.613 1.43.174.986.46 1.65 1.432 1.842 1.07 0 1.895.05 2.453-.41.842-.37 1.343-.69 2.044-1.02l-2.044 1.02c.842-.37 1.343-.69 2.044-1.02l3.81-1.134c-.63.458-4.675 2.103-5.445 2.36-.58.548-1.05.638-1.23 1.634-.12.898-.19 1.593 0 2.453.53.504.97.95 1.43 1.43"/>
<path stroke-linejoin="round" d="M127.2 356.1c-.105.236-.613 1.147-.613 2.043.1 1.096.428 1.282 1.023 2.045h2.862c.796.143 3.106-.827 3.998-.827-.897.2-3.135 1.41-3.59 2.06-.55.22-.55.55-.613 1.23-.316.53-.195 1.51 0 2.05.386.57.842 1.07 1.227 1.64" fill="none"/>
<path stroke-linejoin="round" d="M122.09 358.96c0 .302.077 1.63.205 2.25.79.61 1.286 1.017 2.25 1.634 1.003.04 5.15-1.853 6.26-1.853.793 0-4.012 2.18-4.217 2.27-.412.67-.735.98-.818 2.05-.372.62-.113 1.55 0 2.25.328.51.66.76 1.227 1.03-.272 0-.204.07-.204-.2" fill="none"/>
<path stroke-linejoin="round" d="M116.77 361.64c0 .07.013-.065-.205 1.023-.402.535-.05 1.036.408 1.434.587.79 1.527.98 2.453 1.226.915.162 1.847.204 2.864.204.773 0 3.703-1.923 4.107-2.265-.676.273-3.98 2.403-4.924 2.673-1.145.525-1.452.964-1.84 2.045.043 1.166.363 1.447.818 2.25.42.765 2.19-.062 2.87.394" fill="none"/>
<path stroke-linejoin="round" d="M112.89 364.9v.203c0-.6.035-.262-.613.82-.207.95-.27 1.482.41 2.044.5.74.85 1.078 1.84 1.226.32.138 5.325-2.678 5.86-2.678-.805.55-6.442 3.802-6.883 4.723-.387.8-.41 1.476-.41 2.454m-5.51-3.47c0 1.07-.05 1.894.41 2.453.112.935 2.08 1 2.772 1.327" fill="none"/>
</g>
</svg>
