<svg id="bhutan_flag" xmlns="http://www.w3.org/2000/svg" viewBox="0 0 640 480">
<path fill="#ffca00" d="m0 0v480l640-480h-640z" fill-rule="evenodd"/>
<path fill="#ff6500" d="m0 480h640v-480l-640 480z" fill-rule="evenodd"/>
<g stroke="#000">
<path stroke-linejoin="round" d="m222.39 340.58s-18.31-0.63-25.887 8.63c-7.576 9.26-36.75 35.224-39.145 37.044-1.085 0.728-24.415 5.47-24.415 5.47 11.455-11.434 24.267-15.61 34.777-35.636-5.245 10.048-9.256 14.446-15.39 19.972-5.333-2.482-19.168 8.28-30.75 13.35 0.21-0.423 12.7-10.52 19.473-23.41-3.858 3.368-12.67 11.835-16.528 15.202-9.175 0.874-13.332 11.04-16.837 12.416-21.492 6.986-15.125 2.73-19.995 7.367-1.964 3.844-6.16 6.91-8.72 7.163-20.165 1.995-20.748 8.618-31.06 12.41-6.587 1.927-10.773 0.065-14.52-2.526 5.05-1.822 11.34-1.388 15.153-5.47 0 0 18.468-22.004 35.357-24.414 9.682-1.685 11.155-7.367 11.155-7.367s-28.623 7.998-33.463 12.208c-4.55 1.295-12.3 2.413-19.153 1.684 12.664-4.66 20.5-11.062 23.994-14.943 2.002-2.224 13.89-2.316 13.89-2.316s19.995-8.63 20.416-8.63 15.154-8.63 15.154-8.63-17.68 4.63-18.1 4.63-20.65 0.84-20.65 0.632c5.388-6.898 24.808-7.378 27.595-9.05 6.503-6.503 26.73-4 27.572-4.842 0.84-0.84-21.258-7.577-30.518-5.682-9.26 1.894-23.362-9.68-23.362-9.68s19.363-2.95 25.677-0.212 29.045 8.63 30.31 7.576c1.26-1.05 26.19-9.89 29.043-6.734-2.455-5.25-5.555-5.11-5.473-9.682 4.63 0.212 9.26 0.42 13.892 0.633 0 0 7.155-9.473 6.943-9.892-6.495-2.38-7.963-8.97-7.963-8.97 8.326 1.39 11.12 0.34 11.12 0.552 0 0.21 7.368-8.21 7.368-8.21l5.052-7.997 3.788-17.26c-7.653 4.14-22.31-0.208-22.098-0.42 15.93-5.587 20.75-13.683 27.99-14.1-3.102-15.726 6.103-21.048 6.103-20.836 0 0.208 6.316-13.684 6.316-13.684s-6.747-2.27-19.365 0c11.958-14.193 30.94-9.05 30.94-9.05 3.917-12.584 15.997-7.997 15.997-8.418-3.076-6.853 6.154-10.33 12.15-10.124-0.86-5.107-6.333-10.5-8.436-14.78 10.028 6.448 20.476 3.945 25.75 13.328 3.158 0.35 6.313 0.702 9.47 1.053 0 0 10.523 1.894 10.735 1.894 0.21 0 10.944 1.05 10.944 1.05 1.882-5.333-4.764-4.653-3.16-17.678 12.82 6.37 11.938 19.03 22.1 26.238 8.01-0.552 10.43 2.253 14.384 5.896 4.615-0.98 10.252 1.068 13.188 5.75-0.14-4.963 1.287-11.967 7.58-3.158l11.573-0.42s-15.206-22.152-28.624-9.68c3.924-13.54 17.68-12.208 17.68-12.208s-3.575-6.198-3.366-13.05c-7.343-2.936-9.682-15.364-9.89-15.153-0.213 0.21-12.51 2.437-18.103 17.048-10.487-11.4 3.723-25.555 4.56-28.073 1.444-5.392 2.888-10.784 4.334-16.176-1.134-5.313-0.694-7.948 4.157-12.158-3.234-3.35-1.745-6.54 2.104-8.63-1.3-2.29-0.238-4.58 0.352-6.87l51.42-2.938 11.58 15.912 1.895 8.63-4.42 11.365 13.26 15.785 4.84 5.05 10.102 5.895s9.474 3.998 9.683 4.21c0.212 0.21 11.364 2.946 11.786 3.156s9.262 5.262 10.735 5.683 28.623 0 28.623 0l15.156-1.263-0.212 24.835-7.998 1.894c-3.446 2.962-4.445 4.693-10.34 8.886-8.16 2.286-14.074 1.85-14.283 1.85-0.21 0-8.21-2.107-8.418-2.317-0.212-0.208-9.052-2.945-9.052-2.945l-13.89-3.368c-5.713-0.898-7.997 2.947-8.418 3.578-0.42 0.632-2.736 27.993-2.736 27.993s-4.843 12.417-4.843 12.63c0 0.208-4.488 8.298-7.998 11.154-0.65 3.346-1.176 6.914-9.258 12.838-1.714 5.353-0.326 10.514 5.47 11.576l8.42 3.367c4.208 0.983 8.418 1.963 12.627 2.946l13.892 2.947-9.892 21.678-24.414-4s-16.207-4.21-16.416-4.21c-0.212 0-17.892-9.47-17.892-9.47s-5.683-12.838-5.683-13.05c0-0.21-5.052-10.734-4.84-11.364 0.21-0.63 0.21-6.733 0.21-6.945 0-0.21-17.048-3.576-17.048-3.576l-17.89-1.896-19.574-5.263-14.943-4.418-9.683-3.367-10.734-0.842s-14.1 2.103-14.1 2.315c0 0.21-12.417 3.576-12.417 3.788 0 0.21-7.997 18.732-7.997 18.732l-3.788 14.31 5.89 10.946 2.107 30.518-5.473 11.365 3.788 8.418 7.576 12.42 4.42 8.628-27.578 8.742-3.57-14.215s-9.472-23.36-9.26-23.572c0.21-0.21 0.42-7.79 0.42-7.998z" fill-rule="evenodd" stroke-linecap="round" stroke-width=".99341" fill="#fff"/>
<path stroke-linejoin="round" d="m250.29 306.99c5.733 1.72 5.84-9.547 10.414-13.746 3.632-15.193 23.278-14.663 29.506-4.47-20.83-1.568-12.814 10.136-19.222 15.2 16.385-7.74 31.47-6.394 34.87 4.47-6.586 12.52-12.74 24.173-19.325 36.69-10.492 5.24-15.218-1.928-26.723-8.522l-8.046-1.343c-0.295-9.09-1.172-19.188-1.472-28.28zm12.82 70.47s28.028-0.877 28.128 12.612c2.562 7.752 10.68 7.156-1.75 27.625 0.497-26.33-16.39-26.97-28.235-26.36 14.774 2.068 17.405 24.18 10.925 32.628-16.734-0.598-30.732-4.232-47.467-4.83-5.845-6.462-12.757-21.575 9.787-32.286 9.54-3.13 19.076-6.26 28.613-9.388zm187.61-74.66l8.045-3.128s24.732-30.04 43.813-13.413c-13.097 1.97-23.768 17.786-23.768 17.786 7.1-5.288 33.77-3.62 30.9 19.79-28.555 8.454-29.36 23.432-27.697 41.258-19.007-0.32-39.977-10.157-40.857-40.69 2.533-7.3 7.03-14.303 9.563-21.604zm102.31-127.22c0 10.345-8.387 18.732-18.732 18.732s-18.732-8.387-18.732-18.732 8.387-18.732 18.732-18.732 18.732 8.387 18.732 18.732z" fill-rule="evenodd" stroke-linecap="round" stroke-width=".99341" fill="#fff"/>
<path stroke-linejoin="round" d="m508.12 209.68c6.896 5.317 15.106 7.26 30.25 9.012 7.977-4.683 22.7-4.493 23.834-14.896 7.952-2.84 9.72-12.427 3.14-15.078-0.28-2.813 0.168-13.73-12.06-13.982 1.642 4.06 3.107 15.2 3.107 15.2-6.373-0.75-10.73 10.283-10.73 9.836 0-0.223 3.514-17.49-13.504-18.015 5.855 9.787-1.695 17.568-1.695 17.568-1.79-2.235-1.8-6.158-5.086-7.362-8.45-3.556-10.06-13.863-9.7-19.39-4.43 3.743-7.734 7.486-7.57 12.447 0.066 8.158-0.334 16.034 0.013 24.66z" fill-rule="evenodd" stroke-linecap="round" stroke-width=".99341" fill="#fff"/>
<path stroke-width=".99341" stroke-linecap="round" fill="#fff" d="m533 110.03c14.414-2.008 27.32-5.774 35.816-12.097 2.742-2.042 25.88 1.828 37.792-5.287-18.056-1.04-30.017-3.608-33.233-2.544-10.114 2.952-33.675 9.496-35.52 8.663-0.163 1.67-3.03 8.942-4.855 11.264z" fill-rule="evenodd"/>
<path stroke-linejoin="round" d="m537.9 98.633c10.312-2.413 12.672-7.418 18.762-11.073 9.322-3.73 14.5-3.865 23.797-13.474-24.174 3.293-26.887 4.142-26.887 4.142-5.012 3.05-11.91 7.732-17.335 14.837 1.642 1.747 1.544 3.55 1.663 5.568z" fill-rule="evenodd" stroke-linecap="round" stroke-width=".99341" fill="#fff"/>
<path stroke-linejoin="round" d="m536.18 93c0-0.1 9.433-10.585 9.515-15.072 0.413-1.507 4.816-3.995 6.472-9.89 1.075-16.077 2.57-16.43 2.57-16.43 7.573-4.253 5.96-13.474 9.478-20.378 0 0-11.116 12.412-17.325 19.217-1.656 3.576-2.09 12.745-2.19 12.745-1.755 4.14-6.282 4.68-9.758 11.55-1.957 5.212-0.326 9.983-3.277 16.767 2.014 0.035 3.1 0.53 4.514 1.49zm-20.81 247.39c0 13.95-11.307 25.257-25.256 25.257s-25.25-11.31-25.25-25.26 11.307-25.256 25.256-25.256 25.256 11.308 25.256 25.257z" fill-rule="evenodd" stroke-linecap="round" stroke-width=".99341" fill="#fff"/>
<path stroke-linejoin="round" d="m270.79 425.8c0 12.67-10.27 22.94-22.94 22.94s-22.94-10.27-22.94-22.94 10.27-22.94 22.94-22.94 22.94 10.27 22.94 22.94z" fill-rule="evenodd" stroke-linecap="round" stroke-width=".99333" fill="#fff"/>
<path stroke-linejoin="round" d="m312.25 325.64c0 10.926-8.857 19.784-19.783 19.784s-19.784-8.858-19.784-19.784 8.857-19.784 19.784-19.784 19.784 8.857 19.784 19.784zm-90.36 22.99c-7.158 0.42-14.443 2.903-14.23 3.115 0.208 0.208 7.788 4.208 6.733 5.472-1.052 1.26-11.216 12.578-10.583 12.578 7.632 2.2 17.74-2.477 17.74-2.477s-4.124 6.64-4.807 8.68c6.803-3.665 13.184 1.122 14.732-2.542l-9.585-24.826zm150.2-65.72c-4.326 2.665-18.875-0.332-18.875-0.332 4.285 4.44 7 7.61 16.887 8.61-7.062 3.203-11.66 7.75-19.924 10.498 12.925 5.53 21.58-3.544 21.58-3.213s2.51 5.918 0.543 13.876c5.113-1.347 6.315-6.563 10.138-5.47-3.2-7.618-7.147-16.354-10.35-23.97zm81.07-66.7c-0.366 2.4-0.832 6.703-10.684 11.692 6.445 2.797 17.22-3.312 17.22-2.98s-8.76 15.602 6.29 22.185c-0.4-11.785 1.656-21.192 1.656-21.192s5.533 7.61 9.602 16.557c6.5-6.99-2.318-20.2-2.318-20.2-7.176-1.656-14.837-4.406-21.767-6.06zm9.27-69.23s19.485 13.242 19.57 15.014c0.08 1.77-1.773 9.11-8.096 12.398 15.18 1.77 16.782-7.76 16.782-7.76s-3.12 10.796-0.59 14c8.35-5.144 8.097-13.325 8.097-13.325s5.567 8.434 4.303 12.99c1.77-0.93 11.386-10.966 2.697-15.858 2.024-6.578 2.784-10.71-4.554-13.663-0.786-3.964 1.293-5.23 1.94-7.844 0 0-7.254-2.193-8.096 4.048-0.676 1.265-23.318-13.31-23.57-13.394-0.076 0.383-8.482 13.48-8.482 13.394z" fill-rule="evenodd" stroke-linecap="round" stroke-width=".99341" fill="#fff"/>
<path stroke-linejoin="round" d="m467.65 139s18.043 9.58 19.225 11.857" fill-opacity=".3" fill-rule="evenodd" stroke-linecap="round" stroke-width=".99341" fill="#fff"/>
<path stroke-linejoin="round" d="m530.72 91.472c-2.392 0-11.92-2.98-18.212 1.656-2.875-4.618-5.96-8.237-15.074-6.292 0.082-4.125-1.552-3.595-3.732-4.892-2.297-5.004-5.974-7.22-13.08-4.048-6.187-6.366-16.188-6.646-23.21-1.72-10.615-3.15-24.666 0.523-50.953 0.23-1.816-0.06-10.884 3.194-5.213 10.762-10.917-6.75-15.49 5.665-4.635 7.616 2.65 2.65 5.63 8.278 5.63 8.278s-18.98-13.57-29.406 1.606c-3.38 15.35 12.912 4.36 21.015 10.15 4.857 4.304 9.496 8.775 14.35 13.08 8.06-1.656 14.945-1.707 23-2.128-7.284 2.097-13.396 1.355-20.68 3.452 1.753 2.413 4.678 3.222 10.998 2.98l-13.446 4.698c8.236 6.372 18.63 2.187 26.56 3.31-5.03 7.535-15.365 15.5-28.418 11.86 5.62 8.952 16.793 7.807 28.182-3.805 9.534 1.66 15.714 2.83 27.892-1.29 0.588-0.77 9.555-14.115 9.174-15.258 1.632 0.49 26.31 9.332 27.802 12.075 0.188-3.403 4.914-6.903-23.842-14.9-5.42-4.41 13.908-9.935 13.908-9.935l-0.33 7.947c5.437-3.318 5.726-4.645 6.953-6.623 1.987-1.323 6.29 2.65 6.29 2.65l0.242 7.004c2.395-0.87 3.733-1.043 5.39-3.36s4.83 2.766 4.83 2.766c4.95 0.49 13.312-1.847 17.47-8.766-1.882-7.027-0.99-8.985 2.75-10.388 6.137-9.997 7.543-18.66-2.203-18.714z" fill-rule="evenodd" stroke-linecap="round" stroke-width=".99341" fill="#fff"/>
<path stroke-linejoin="round" d="m494.46 147.15s-3.038 3.795-2.448 11.133" fill-opacity=".3" fill-rule="evenodd" stroke-linecap="round" stroke-width=".99341" fill="#fff"/>
<path stroke-linejoin="round" d="m406.64 139.7s7.778 11.852 10.433 12.593c2.655 0.74 20.99 19.384 21.977 20.186 1.174 0.494 11.42 0.247 11.42 0.247-7.53-6.5-13.828-13.374-20.742-20.062 0 0-10.617-5.247-10.678-5.37s-5.68-7.655-5.68-7.655c-1.79-0.576-3.703-1.46-5.37-2.84l-1.36 2.902z" fill-rule="evenodd" stroke-linecap="round" stroke-width=".99341" fill="#fff"/>
<path stroke-linejoin="round" d="m481.98 162.07c3.456-0.844 8.264 2.024 8.6 4.47 1.857-1.097 5.99-1.097 7.508 0.337 0.675-1.01 3.71-3.71 6.832-2.53m-10.36-17.2s2.527 2.024 5.902 1.012" fill-opacity=".3" fill-rule="evenodd" stroke-linecap="round" stroke-width=".99341" fill="#fff"/>
<path stroke-linejoin="round" d="m535.81 156.75c4.186-0.597 38.452-20.62 46.815 4.682-2.887-21.416-18.625-21.018-18.625-21.018s-0.697-10.26-15.14-8.566c9.465 6.973 1.494 12.55 0.797 13.547-2.458-6.607-3.52-10.026-11.057-12.948 3.023 11.62-3.32 13.18-4.98 18.726-3.35-2.39-5.91-6.773-7.868-10.06-2.657 7.703-0.33 12.318 2.69 16.335 2.656-0.664 5.11-0.83 7.368-0.697z" fill-rule="evenodd" stroke-linecap="round" stroke-width=".99341" fill="#fff"/>
<path stroke-linejoin="round" d="m530.24 120.66c1.32 2.417 6.88 9.362-2.877 22.604-3.078-4.282-4.734-6.914-4.734-6.914s-8.315 5.41-7.367 23.984c-3.112-7.46-7.735-16.866 1.857-30.997-6.924 11.145-9.18 12.378-14.477 12.223 8.112-5.785 9.89-12.046 10.045-12.046 1.48 0.497 10.634 0.024 17.553-8.855z" fill-rule="evenodd" stroke-linecap="round" stroke-width=".99341" fill="#fff"/>
<path stroke-width=".99341" stroke-linecap="round" fill="#fff" d="m524.02 90.52c1.82 6.79-3.182 11.495-7.028 15.12 8.35 16.368-18.454 15.05-8.787-0.22" fill-rule="evenodd"/>
<path d="m497.87 107.84s-1.976 2.527-0.328 6.042m-11.03-5.87c2.394 0.59 4.386 3.686 0.515 6.01-1.55 0.92-9.327-2.692-13.343 4.9" fill-opacity=".3" fill-rule="evenodd" stroke-linecap="round" stroke-width=".99341" fill="#fff"/>
<path stroke-width=".99341" stroke-linecap="round" fill="#fff" d="m413.31 92.784c-3.144-0.258-4.69 1.34-0.927 5m3.93-15.774c-3.66-1.598-5.36 2.216-0.98 5.257m11.49-4.947c-3.194-2.887-5.98 2.32-0.874 4.278m16.8-4.278c-3.35-2.835-4.485 1.288-3.452 2.68" fill-rule="evenodd"/>
<path d="m462.51 125.58c0 8.595-6.968 15.563-15.564 15.563s-15.563-6.968-15.563-15.564 6.97-15.564 15.564-15.564 15.564 6.968 15.564 15.563z" fill-opacity=".3" fill-rule="evenodd" stroke-linecap="round" stroke-width=".99341" fill="#fff"/>
<path stroke-linejoin="round" d="m461.61 130.68c-0.424-0.9-9.987-10.366-13.007-9.078-2.472 0.107-10.035 16.604-9.704 17.267 7.83 5.52 19.895 0.65 22.703-8.188z" fill-opacity=".3" fill-rule="evenodd" stroke-linecap="round" stroke-width=".99341" fill="#fff"/>
<path stroke-linejoin="round" d="m456.52 125.71c-1.178-0.764-2.08-1.458-3.122 0.07-1.04 1.526-6.732 15.34-6.732 15.34m27.57-46.612c-10.41-5.83-29.733 2.813-16.89 8.852-10.968-3.332-10.483 6.108-10.483 6.108m5.07-24.74c4.127-6.13 9.825-8.228 13.555-0.544 4.967 6.623 14.306 1.67 14.306 1.67" fill-opacity=".3" fill-rule="evenodd" stroke-linecap="round" stroke-width=".99341" fill="#fff"/>
<path stroke-width=".99341" stroke-linecap="round" fill="#fff" d="m423.59 89.817s-4.636 2.152-0.33 5.463m23.86-8.277s-4.472 0.663-2.983 5.464" fill-rule="evenodd"/>
<path d="m442.14 95.28c-0.164 0-4.636 0.165-3.144 4.966m-2 3.14c-0.167 0.166-5.63-2.318-2.816 4.636" fill-opacity=".3" fill-rule="evenodd" stroke-linecap="round" stroke-width=".99341" fill="#fff"/>
<path stroke-linejoin="round" d="m457.61 76.237c-19.42-11.836-40.01-35.675-68.267-26.59 28.674 5.086 46.18 21.006 46.762 25.924 10.585-0.832 13.502-0.582 21.505 0.668z" fill-rule="evenodd" stroke-linecap="round" stroke-width=".99341" fill="#fff"/>
<path stroke-linejoin="round" d="m429.34 75.74c-2.582-3.168-12.336-20.756-32.172-20.422 15.17 7.752 24.255 18.338 25.09 21.005 2.83-0.167 4.83-0.417 7.083-0.584z" fill-rule="evenodd" stroke-linecap="round" stroke-width=".99341" fill="#fff"/>
<path stroke-width=".99341" stroke-linecap="round" fill="#fff" d="m412.33 76.49s2.252-16.505 5.502-18.505-10.83-4.502-10.66 10.002c-11.84-9.67-23.005-8.002-24.84-7.335-1.834 0.667-27.84-0.584-30.923 5.25 19.17-0.415 24.67 0.835 26.422 2.752 11.754-3 18.422-1.25 26.258 8.085 3.584-0.668 8.25 0 8.25-0.25z" fill-rule="evenodd"/>
<path stroke-linejoin="round" d="m393.84 85.157c-4.75-4.668-8.702-7.57-22.962-8.764-2.08-0.265-7.573-1.425-10.96-2.572 9.067-6.28 36.59 2.585 39.674 6.67-0.916 2.833 0.202 4.73 1.7 6.564-2.542-1.52-4.775-2.134-7.45-1.897z" fill-rule="evenodd" stroke-linecap="round" stroke-width=".99341" fill="#fff"/>
<path stroke-width=".99341" stroke-linecap="round" fill="#fff" d="m403.67 77.008s-7.098-6.5-12.56-6.39c3.168 1.91 6.773 7.373 8.956 9.34 1.53-1.748 1.147-1.64 3.605-2.95z" fill-rule="evenodd"/>
<path stroke-linejoin="round" d="m389.23 70.944c-0.273 0.11-11.96 7.32 1.202 16.932-0.874 6.172 6.443 7.046 6.443 7.046s5.41 8.193 5.41 8.14c-11.626-7.737-21.427-5.855-25.04-2.687-7.047-10.323-18.984-12.007-23.353-13.263-5.462-1.202-20.594-2.458-21.63 11.25-14.53-14.254 8.467-20.37 12.398-19.935 3.932-0.71 26 3.55 27.418 6.336-1.255-13.054 10.597-19.99 17.15-13.82zm43.5 47.496s-38.783-7.23-51.432 1.39c-12.65 8.618-14.316 21.407-32.666 23.353-18.348 1.946-20.295 5.42-27.106 14.874 10.15-3.197 32.112-10.148 47.263-7.09 6.255-7.012 9.73-10.286 9.174-10.425 4.726-15.57 37.67-21.546 53.24-15.986 0.278-3.893 1.947-5.7 1.528-6.117zm-58.65-5.84l-57.967 1.668c-5.282 1.668-11.674 5.978-12.65 7.228-0.97 1.252 2.504-13.622 10.15-12.927 9.867 0.973 36.835-0.14 36.835-0.14 8.202-3.057 17.1-6.116 22.52-4.03-1.947 4.865 1.113 8.2 1.113 8.2z" fill-rule="evenodd" stroke-linecap="round" stroke-width=".99341" fill="#fff"/>
<path d="m479.83 95.626s-16.024-4.872-11.82 11.567c6.453 8.193 15.73-3.963 15.6-5.19" fill-opacity=".3" fill-rule="evenodd" stroke-linecap="round" stroke-width=".99341" fill="#fff"/>
<path stroke-linejoin="round" d="m436.15 114.19c-3.54-5.798-25.655-13.662-33.226-11.008 12.14 5.7 29.49 11.45 30.52 14.597 1.426-2.557 2.607-3.54 2.705-3.59z" fill-opacity=".3" fill-rule="evenodd" stroke-linecap="round" stroke-width=".99341" fill="#fff"/>
<path d="m510.64 94.11s-13.367 3.653-18.334 0.673-17.286-7.395-11.852-16.91" fill-opacity=".3" fill-rule="evenodd" stroke-linecap="round" stroke-width=".99341" fill="#fff"/>
<path stroke-linejoin="round" d="m375.19 97.992s-33.917-0.84-39.522 9.32c22.072-5.116 38.33-4.415 38.33-4.415l3.083-2.803-1.89-2.102z" fill-rule="evenodd" stroke-linecap="round" stroke-width=".99341" fill="#fff"/>
<path stroke-width=".99341" stroke-linecap="round" fill="#fff" d="m437.05 90.084s-7.84 0.238-4.037 5.702" fill-rule="evenodd"/>
<path stroke-linejoin="round" d="m508.28 191.48s11.344-0.377 12.658-1.877m35.42 0.47s4.78 3.375 9-1.406m-30.93 2.16s3.188 6 11.344 3.374m-29.51 9.38s-2.437 6.093 9.563 5.53c3.096 1.876 0.936 7.875 0.936 7.875m5.52-42s6.75-0.375 7.97 2.625m-5.45-11.15s2.252 0.188 3 2.906c0.75 2.72 3.47 1.313 5.064 0.094m-39.11 170.79c-5.89-5.59-18.58-5.74-12.538 8.16 2.114-6.348 6.043-8.764 12.538-8.16zm-2.41 8.29c-1.66-1.208-2.57 1.208-2.117 1.66m6.34-42.46s-9.065-1.057-5.44 9.518m-21.45-33.36s-1.21 10.726 7.25 11.934m-19.62 54.22c0-0.15-7.854-3.476-10.273 7.25m2.85-57.4s0 9.063 4.078 12.387m-7.39 10.13c-0.15 0-13.142 5.136-13.142 11.934m-196.72 92.26c0-0.15 8.35-8.806 10.172 0.91-0.154 3.644-1.976 7.138-1.976 7.138m-0.79-5.93s-4.707-0.305-5.314 2.58m25.82-28.7c0-0.15-10.63-3.34-12.15 4.858m-42.5 0.78s8.806-5.163 13.664 0.456m58.71-18.34c0-0.15-8.146-0.056-9.36 5.41" fill-rule="evenodd" stroke-linecap="round" stroke-width=".99341" fill="#fff"/>
<path stroke-linejoin="round" stroke-linecap="round" fill="none" d="m409.34 155.95c-0.966 0.955-0.837 1.008-1.835 1.243-0.97 0.357-1.926 0.408-3.068 0.408-0.784-0.26-1.682-0.864-2.453-1.635-0.73-0.872-1.09-1.554-1.43-2.454 0-0.63-0.268-1.557-0.43-1.936 0.323 0.646 0.93 1.676 1.248 2.344 0.347 1.087 0.69 2.346 1.02 3.476 0.273 1.267 0.41 2.458 0.41 3.884-0.206 1.564-0.627 2.95-1.226 3.885-0.845 0.45-1.317 0.682-2.453 0.817-1.232 0-1.627-0.215-2.66-0.613-0.477-0.62-1.462-1.678-2.042-2.453-0.296-1.148-0.545-2.065-0.614-3.27-0.498-0.718-0.734-1.35-1.226-2.046-0.223-0.818-0.594-1.226-0.82-2.044-0.253-0.642-0.818-1.307-1.096-1.896" stroke-width=".99341"/>
<path stroke-linejoin="round" d="m261.42 391.28s-5.924 4.68-4.936 8.73m37.07-79.4s-9.52 2.31-4.76 10.676m4.63-6.34s-2.02 6.78 1.298 9.233m4.02-8.8c0.146 0.434-1.298 7.213-3.316 8.368m-7.49-34.5s-0.432 5.77 2.164 6.782m-19.48-23.94s-2.307 6.782 6.347 9.09m-22.22 13.27c0 0.288 2.306 10.962 6.924 10.673m10.96 10.39s-11.828-6.636-12.983 10.82" fill-rule="evenodd" stroke-linecap="round" stroke-width=".99341" fill="#fff"/>
<path stroke-width=".99341" stroke-linecap="round" d="m477.4 96.993c1.157-1.097 5.18-2.408 6.278 3.656 1.097 6.063-7.07 5.346-7.134 4.378-2.193-0.903-2.305-5.648 0.856-8.035zm17.22-13.969s-10.485-1.278-9.516 7.495c6.127 5.418 10.787 0.06 11.817-2.908 0.514-2.128 0.344-3.942-2.302-4.588z" fill-rule="evenodd"/>
<path stroke-linejoin="round" stroke-linecap="round" fill="none" d="m350.37 113.37s1.262 9.448-6.295 7.243c-7.558-2.204 11.65 4.724-3.15 7.558-3.07 4.3-2.52 5.04-2.52 5.04s8.07-0.815 3.052 9.805c-1.89 5.668 2.837-12.398 17.972-3.17-6.93-6.764-1.943-6.675 7.633-6.32-13.282-2.172-12.596-14.488 6.928-8.504-0.026-1.837-3.602-7.32 2.835-10.393 12.597-3.464-26.138-0.63-26.454-1.26z" stroke-width=".99341"/>
<path stroke-linejoin="round" stroke-width=".99341" d="m347.32 121c2.05 0.977 10.165 16.422 15.736-7.918-2.442-0.588-12.61 0.292-12.61 0.292 0.23 3.714-0.423 6.158-3.125 7.625z" fill="none"/>
<path stroke-linejoin="round" stroke-width=".99341" d="m344.6 127.25c-0.463 1.123-1.16 2.984-1.515 4.142 0 0.78 0.004 1.624 0.14 2.21 0.105 0.965 0.415 1.66 0.825 2.484 0.392 0.555 0.453 0.694 1.105 0.83 0.527 0.302 2.747 0.31 3.452 0.413h2.347c1.104 0 2.08 0.01 3.037-0.414 0.68-0.195 1.22-0.38 1.518-0.968 0.676-0.337 0.657-0.676 1.105-1.38 0.193-0.39 0.588-1.074 0.83-1.52 0.317-0.49 0.413-0.61 0.413-1.242 0.196-0.39 0.14-1.19 0.14-1.795-0.027-0.87-0.143-1.666-0.278-2.485-0.133-0.443-0.345-0.725-0.69-0.553-1.41 0.557-2.96-0.552-4.558-0.552-1.523-0.228-2.352-0.622-3.865-0.828-0.63 0-3.566 0.928-4.006 1.657zm146.31 59.17h0.204c-0.6 0-0.262-0.035 0.82 0.613 0.722 0.258 1.413 0.52 2.04 0.818 0.372 0.542 0.777 1.163 1.23 1.636 0.244 0.612 0.56 1.575 0.816 2.25 0 0.944 0.112 1.624-0.408 2.044-0.37 0.94-0.932 1.03-1.43 1.635-0.737 0.245-1.314 0.582-2.25 1.022-0.987 0.266-1.406 0.585-2.452 0.817-1.09 0.492-1.807 0.58-3.068 0.613-0.75 0-3.796-0.17-4.546-0.17 1-0.034 4.196-0.075 4.954-0.24 1.123 0 1.756 0.12 2.453 0.614 0.918 0.318 1.44 0.597 2.248 0.818 0.56 0.223 1.672 0.323 2.25 0.613 0.325 0.544 0.942 0.832 0.614 1.43-0.43 0.52-1.24 0.814-2.045 1.024-0.535 0.364-4.59 1.07-5.13 1.434-1.927 0.165 3.874-0.46 4.518-0.617 1.17-0.015 1.9-0.15 2.86 0 0.872 0.13 1.664 0.52 2.454 0.817 0.52 0.694 1.138 1.03 1.633 1.84 0.628 0.517 0.806 0.865 0.82 2.044-0.258 0.514 0.22 1.964 0.153 2.735l-0.898 2.69" fill="none"/>
<path stroke-linejoin="round" stroke-width=".99341" d="m474.35 186.63h0.203c-0.553 0-0.27-0.013 0.82 0.205 0.688 0.482 1.898 0.667 3.064 1.022 0.652 0.308 1.258 0.664 1.84 1.022 0.6 0.3 1.38 0.844 1.84 1.43 0.837 0.28 1.01 0.782 1.637 1.228 0.217 0.986 0.484 1.508 0.612 2.453-0.083 1.09-0.448 1.304-0.816 2.044-0.602 0.408-0.97 0.945-1.84 1.227-0.815 0.325-1.843 0.593-3.07 0.817-1.734 0.33-3.416 0.697-5.11 0.818-0.842 0-1.048 0.18-1.84 0.204 1.025 0.01 2.38 0.088 3.067 0.408 1.28 0.013 2.737 0.113 3.68 0.41 1.862 0.23 3.648 0.54 5.52 0.612 0.377 0.61 0.68 0.935 0.82 1.84-0.496 0.363-0.84 1.042-1.227 1.43-0.612 0.377-1.22 0.765-2.25 1.023-1.13 0.404-2.39 0.41-3.68 0.41h-6.542c-0.2-0.08-1.635-0.205-0.82-0.205 0.85 0.39 2.542 0.8 3.68 1.022 0.782 0.228 1.225 0.648 1.638 1.227 0.495 0.374 1.248 1.06 1.634 1.43 0.32 0.535 0.41 0.873 0.41 1.84-0.097 1.254-0.505 1.27-1.432 2.045-0.988 0.647-1.762 0.78-2.86 1.022h-3.07c-0.82-0.22-5.557-3.004-6.163-3.188 0.84 0.3 5.36 3.303 5.756 4.21 0.216 0.647 0.205 1.716 0.205 2.658-0.037 0.993-0.16 1.7-0.612 2.248-0.042 0.795-0.257 0.615-1.022 0.615l1.023-0.615c-0.042 0.795-0.257 0.615-1.022 0.615m16.16-17.38h1.022c0.673 0.457 0.668 1.032 1.638 1.226 0.74 0.283 1.483 0.678 2.042 1.022 0.3 0.504 0.41 0.726 0.41 1.636 0 1 0.23 2.356-0.203 2.862-0.355 0.415-1.643 0.403-2.25 0.614-0.876 0.303-1.626 0.765-2.378 0.913-0.95 0.187-2.49 0.087-3.142 0.518-0.914 0.07-1.57 0.205-2.657 0.205-0.63 0-1.052-0.042-1.43-0.204 0.92 0.32 2.407 0.69 3.472 1.227 0.974 0.275 1.507 0.71 2.248 1.227 0.798 0.59 1.26 0.91 1.434 1.84 0.407 0.6 0.407 1.382 0.407 2.452-0.226 0.676-0.374 1.65-0.615 2.25-0.445 0.66-0.98 0.783-1.635 1.226-0.476 0.053-0.34 0.153-0.818 0.206" fill="none"/>
<path stroke-linejoin="round" stroke-width=".99341" d="m466.38 186.42c0.34 0.14 1.382 0.65 2.045 1.022 1.203 0.29 1.993 0.786 2.862 1.022 0.453 0.56 0.983 0.79 1.226 1.636 0.71 0.926 0.882 1.412 1.023 2.453-0.087 1.144-0.27 1.375-1.226 1.636-0.712 0.237-1.53 0.374-2.453 0.41-0.844 0.113-1.61 0.293-2.452 0.408-0.577 0.29-1.764 0.205-2.657 0.205-0.88 0.068-2.32 0.26-3.353 0.26 1.15 0.043 2.875 0.15 4.17 0.15 1.248 0.132 2.477 0.198 3.068 0.817 0.9 0.34 1.41 1.072 2.25 1.43 0.404 0.6 0.878 0.945 1.225 1.636-0.283 0.795-0.728 1.06-1.637 1.227-0.577 0.29-1.762 0.204-2.657 0.204-0.622-0.313-1.91-0.205-2.86-0.205h-2.25c0.842 0.29 2.2 0.617 3.272 0.818 0.755 0.43 1.925 0.792 2.453 1.226 0.332 0.51 0.878 0.794 1.227 1.43 0.458 0.37 0.55 1.06 0.204 1.636-0.084 1.018-0.37 1.528-0.817 2.044-0.647 0.44-1.222 0.832-2.25 1.432-1.443 0.627-2.815 0.805-4.498 0.817-1.11 0-1.653-0.168-2.657-0.205-0.91-0.314-2.063-0.44-2.86-0.613-0.875-0.24-2.054-2.085-3.203-2.127 0.784 0.1 1.716 1.972 1.976 2.535 0.29 0.58 0.205 1.764 0.205 2.658-0.32 0.548-0.395 1.59-0.615 2.25-0.04 0.71-0.114 1.65-0.408 2.043l0.408-2.043c-0.04 0.71-0.114 1.652-0.408 2.044" fill="none"/>
<path stroke-linejoin="round" stroke-width=".99341" d="m454.96 181.33c0 0.082 0.71 0.455 1.19 1.003 0.466 0.733 0.956 1.566 1.43 2.25 0.323 0.93 0.612 1.372 0.818 2.248 0.382 0.626 0.55 1.605 0.615 2.453-0.036 0.954-0.118 1.808-0.614 2.453-0.24 0.827-0.65 1.154-1.43 1.43-0.678 0.32-1.327 0.41-2.453 0.41-0.75 0-2.398-0.113-3.147-0.113 1.295 0 3.49 0.113 4.78 0.113 1.424 0.09 2.367 0.21 3.07 0.817 0.892 0.252 1.61 0.7 2.044 1.227 0.694 0.512 1.35 0.633 1.635 1.43 0.214 0.648 0.204 1.716 0.204 2.66-0.107 1.17-0.444 1.197-1.432 1.43h-2.86c-0.63-0.21-1.808-0.308-2.66-0.41-0.695-0.093-1.48-0.713-2.083-0.912 0.535 0.508 0.435 1.7 0.448 2.753 0.156 0.723 0.204 1.666 0.204 2.658-0.085 1.09-0.347 1.38-1.023 1.84-1.086 0.236-2.686 0.204-4.087 0.204-1.145-0.054-2.09-0.205-3.272-0.205-1.417 0-2.678-0.157-3.987-0.307 0.498 0.332 0.488 1.078 0.512 1.943 0.368 0.614 0.084 1.33 0 2.045-0.07 0.887-0.236 1.488-0.615 2.044-0.204 0-0.352 1.12-0.556 1.12" fill="none"/>
<path stroke-linejoin="round" stroke-width=".99341" d="m445.1 178.66c0 0.068-0.053-0.043 1.023 0.818 0.622 0.5 0.932 1.127 1.43 1.84 0.18 0.77 0.44 1.45 0.612 2.25 0 1.19-0.143 1.665-0.612 2.452-0.78 0.52-1.716 0.928-2.86 1.022-0.68 0.225-1.633 0.345-2.456 0.408-0.583 0.194-0.512 0.313-1.32 0.41 1.31-0.047 1.375-0.206 2.753-0.206 0.893 0 2.08-0.084 2.657 0.205 0.916 0.124 1.576 0.252 2.045 0.818 0.842 0.23 1.208 0.6 1.634 1.226 0.627 0.427 0.995 0.792 1.226 1.637 0 1.112-0.125 1.74-0.408 2.453-0.358 0.71-0.694 1.125-1.43 1.636-0.528 0.454-1.29 0.566-2.046 0.817h-2.863c-0.754 0 2.462 0.077 3.885 0.205 0.84 0.154 1.364 0.496 2.042 0.818 0.602 0.407 1.383 0.467 1.842 1.022 0.746 0.265 1.095 0.806 1.84 1.227 0.177 0.414 0.092 0.31 0.408 0.204" fill="none"/>
<path stroke-linejoin="round" stroke-width=".99341" d="m436.65 175.16c1.004 0.496 1.555 2.255 1.71 3.297 0.284 1.036-0.08 1.798-0.407 2.862-0.99 0.914-1.105 1.208-2.453 1.43-1.16 0.35-2.424 0.263-3.476 0.615-0.7 0.287-1.353 0.55-2.25 0.817h-2.862c-0.883 0.52 0.704 0.08 1.022 0 1.592 0 3.232 0.02 4.702-0.205h5.927c1.047 0.158 1.198 0.515 1.638 1.43 0.435 0.528 0.575 1.425 0.612 2.454-0.042 1.174-0.23 1.52-0.816 2.454-0.587 0.728-1.098 1.046-1.84 1.635-0.956 0.41-2.363 0.665-3.68 0.818-1.573 0-3.263-0.092-4.702 0.204-1.086 0-5.422 0.29-5.044 0.67 0.716-0.573 3.897-0.465 5.044-0.465 1.56-0.32 2.95-0.587 4.498-0.613 0.978-0.293 2.167-0.397 3.27-0.41 1.075 0.013 1.904 0.158 2.455 0.613 0.634 0.527 1.448 1.16 1.84 1.636 0.784 0.276 1.017 0.804 1.634 1.225 0.183 0.837 0.397 1.376 0.41 2.453-0.254 0.72-0.48 1.467-0.818 2.045-0.948 0.678-1.968 1.42-3.272 1.84-1.13 0.44-2.058 0.573-3.268 0.613-1.044 0-1.844 0.094-2.66 0.205-0.75 0-6.88 0.113-7.63 0.113 1.844-0.336 7.834-0.112 9.063-0.112 1.34 0 2.566 0.163 3.883 0.205 0.65 0.308 1.35 0.556 1.838 1.022 0.692 0.277 1.283 1.47 1.296 2.71" fill="none"/>
<path stroke-linejoin="round" stroke-width=".99341" d="m427.33 170.28c0.18 0.364 0.906 1.8 1.226 2.658 0.22 0.886 0.204 1.862 0.204 2.862 0 1.28-0.288 1.83-0.818 2.862-1.116 0.75-1.98 1.47-3.272 1.84-1.08 0.194-1.966 0.127-3.065 0-0.726-0.29-1.33-0.534-1.84-1.022-0.777 0 0.45 0.17 0.818 0.204 0.613 0.416 1.526 0.66 2.454 1.022 1.176 0.475 1.62 0.85 2.453 1.84 0.747 0.603 0.937 0.727 1.022 1.84 0.518 0.585 0.447 1.38 0.203 2.044-0.63 0.42-1.31 1.098-1.838 1.636-0.922 0.385-1.256 0.598-2.453 0.613-1.113-0.04-1.688-0.334-2.66-0.41-0.42-0.393-0.236-0.305 0.41 0 0.663 0.37 1.813 1.085 2.25 1.637 0.704 0.48 0.906 0.995 1.226 2.044 0.392 1.054 0.697 1.693 1.227 2.25 0.037 1.003 0.204 1.545 0.204 2.656-0.287 0.713-0.478 1.39-1.024 1.84-0.228 0.838-0.742 1.175-1.022 2.045-0.803 0.473-1.83 1.454-2.453 2.044-0.834 0.28-2.86 0.488-4.098 0.503" fill="none"/>
<path stroke-linejoin="round" stroke-linecap="round" fill="none" d="m436.52 300.5c0.302 0.71 0.64 1.494 0.816 2.25 0.09 0.74 0.204 1.313 0.204 2.248-0.323 0.617-0.395 1.353-0.816 1.84-0.267 0.75-0.845 1.03-1.43 1.43-0.79 0.34-1.346 0.6-2.456 0.616-1.076 0-2.032-0.066-2.86-0.207-0.907-0.424-2.984-1.16-2.356-0.715 0.79 0.254 1.91 0.816 2.56 1.126 0.855 0.57 1.5 0.898 2.248 1.838 0.652 0.45 0.906 0.822 1.023 1.638-0.81 0.28-1.94 0.688-3.068 0.815-0.99 0-1.934-0.046-2.657-0.204-0.662-0.316-1.224-0.626-2.045-0.82l2.045 0.82c-0.662-0.316-1.224-0.626-2.045-0.82l-2.782-1.13c0.55 0.524 3.657 1.814 4.01 2.564 0.288 0.718 0.47 1.592 0.614 2.657-0.01 1.213-0.117 2.596-0.408 3.476-0.233 0.847-0.607 1.226-1.023 1.838h-0.41m7.98-9h0.203c-0.57 0-0.267-0.027 0.82 0.408 1.135 0.712 1.416 1.007 2.248 2.25 0.393 0.865 0.708 1.122 0.82 2.044 0.344 0.578 0.132 1.425 0 2.045-0.544 0.445-0.835 1.023-1.434 1.43-0.402 0.594-0.924 0.95-1.43 1.43-0.7 0.152-0.986 0.36-1.84 0.41" stroke-width=".99341"/>
<path stroke-linejoin="round" stroke-width=".99341" d="m436.73 307.04v0.204c0-0.602-0.034-0.262 0.612 0.818 0.845 0.586 1.012 1.203 1.227 2.453 0.242 0.965 0.175 1.855 0 2.658-0.63 0.368-1.456 0.993-2.352 1.128" fill="none"/>
<path stroke-linejoin="round" stroke-width=".99341" fill="#fff" d="m446.53 311.76h-0.204c0.55 0 0.27-0.013-0.82 0.204-0.852 0.286-1.882 0.204-2.86 0.204-0.757-0.267-1.457-0.41-2.25-0.816-0.674-0.14-0.78-0.384-1.636-0.41m3.48 9.19h-0.204c0.554 0 0.273 0.013-0.816-0.205-0.882-0.572-2.363-1.573-3.18-1.843" fill-rule="evenodd"/>
<path stroke-linejoin="round" d="m507.89 192.58c-0.355 0.106-3.566 0.322-4.51 0.39h-2.86c-0.996-0.223-1.976-0.397-3.067-0.41-0.816 0-0.57-0.504-1.39-0.504" fill-rule="evenodd" stroke-linecap="round" stroke-width=".99341" fill="#fff"/>
<path stroke-linejoin="round" stroke-width=".99341" fill="#fff" d="m505 200.73c-0.07 0 2.83-0.224 2.765-0.224 0.34 0-3.653 0.224-3.992 0.224-0.914 0.164-1.847 0.205-2.864 0.205-0.64 0.12-2.096 0.127-2.658 0.408h-2.86c-0.618-0.033-0.613-0.172-1.227-0.205" fill-rule="evenodd"/>
<path stroke-linejoin="round" stroke-linecap="round" fill="none" d="m425.47 297.43c0.136 0.336 1.023 1.928 1.023 2.87-0.013 1.074-0.135 1.493-0.612 2.044-0.792 0.427-1.475 0.803-2.66 0.82h-3.68c-1.11 0-6.34-1.198-6.662-1.442 0.957 0.13 4.416 1.44 5.64 1.44 1.115 0.04 1.735 0.28 2.864 0.613 1.086 0.332 1.807 0.618 2.657 0.82 0.585 0.342 1.54 0.4 2.045 0.818 0.946 0.334 0.827 0.795 1.227 1.84-0.08 1.035-0.318 1.522-1.023 2.044-0.45 0.554-1.293 1.044-2.25 1.43-0.97 0.45-2.084 0.615-3.475 0.615h-2.86c-0.676-0.225-1.65-0.373-2.25-0.615l2.25 0.615c-0.676-0.225-1.65-0.373-2.25-0.615h-0.206c0.782 0.313 0.925 0.877 1.23 1.635 0.07 0.956 0.204 1.717 0.204 2.864-0.194 0.822-0.504 1.38-0.82 2.046-0.36 0.8-0.688 1.353-1.225 2.042-0.182 0.408-0.415 0.742-0.616 0.41" stroke-width=".99341"/>
<path stroke-linejoin="round" stroke-width=".99341" d="m414.64 293.14c0 0.07-0.028-0.064 0.407 1.023 0.423 0.51 0.572 1.348 0.818 2.045 0 0.99-0.048 1.934-0.204 2.657-0.41 0.667-0.7 1.065-1.43 1.43-0.48 0.578-1.046 0.742-2.044 0.82-0.59 0.293-1.656 0.198-2.25 0-0.752-0.18-1.533-0.398-2.045-0.82-0.844-0.198-1.374-0.458-1.837-1.022-0.755-0.188-0.604-0.612-0.207 0 0.625 0.516 0.652 1.073 1.023 2.045 0.012 1.073 0.203 1.547 0.203 2.657 0.188 0.86 0.312 1.626-0.204 2.25-0.28 0.783-0.806 1.016-1.228 1.636-1.094 0.236-2.032 0.408-3.27 0.408-0.632-0.466-1.996-0.885-2.454-1.43-0.745-0.337-1.35-0.758-1.84-1.227-0.566-0.27-2.754-2.06-3.08-2.567 0.506 0.482 2.882 2.382 3.285 2.975 0.55 0.376 1.068 0.864 1.43 1.227 0.554 0.394 0.983 1.12 1.638 1.637 0.454 0.8 0.774 1.08 0.817 2.245v2.864c-0.014 1.278-0.2 1.45-0.816 2.248-0.126 0.38-0.283 0.026-0.41 0.408" fill="none"/>
<path stroke-linejoin="round" d="m406.88 307.04v0.204c0-0.64-0.043-0.257 0.818 0.818 0.708 0.382 1.52 0.824 2.25 1.023 0.527 0.456 1.364 0.45 1.944 1.02 0.93 0.124 2.01 0.575 3.07 0.614" fill-rule="evenodd" stroke-linecap="round" stroke-width=".99341" fill="#fff"/>
<path stroke-linejoin="round" stroke-linecap="round" fill="none" d="m406.16 287.81c0.312 0.297 1.75 2.1 1.944 3.073-0.013 1.2-0.132 1.555-0.816 2.045-0.678 0.32-1.327 0.408-2.453 0.408-1.094-0.24-1.767-0.93-2.864-1.43-0.58-0.567-1.31-0.77-1.838-1.227-1.028-0.35-1.206-0.568-0.207 0.203 0.986 0.535 1.82 1.04 2.453 1.43 0.868 0.605 1.16 0.7 1.638 1.842 0.23 1.17 0.533 2.223 0.612 3.476 0.453 0.666 0.52 1.418 0 2.046-0.503 0.296-0.723 0.408-1.634 0.408-0.554-0.48-1.13-0.882-1.635-1.227-0.4-0.294-0.95-0.858-1.225-1.226-0.543-0.482-1.24-0.847-1.637-1.43-0.877-0.384-1.28-0.795-2.045-1.226-0.705-1.084-0.032-0.056 0.41 0.408 0.504 0.805 0.885 1.684 1.227 2.453v3.067c-0.016 0.86-0.2 1.674-0.41 2.25-1.042 0-1.842-0.096-2.658-0.207-0.612-0.244-1.58-0.533-2.25-0.816-0.953-0.53-1.55-1.024-1.838-1.842-0.487-0.557-0.908-1.373-1.226-1.84-0.405-0.513-0.564-0.75-1.023-1.02 0.498 0.53 0.962 1.583 1.84 2.248 0.61 0.922 1.133 1.208 1.432 2.25 0.45 0.545 0.517 1.543 0.612 2.452 0 0.893 0.084 2.08-0.205 2.657-0.13 0.962-0.424 1.407-0.82 2.045-0.306 0.652-0.66 1.258-1.02 1.838-0.274 0-0.205-0.066-0.205 0.204" stroke-width=".99341"/>
<path stroke-linejoin="round" stroke-width=".99341" d="m410.35 284.55v0.204c0-0.273-0.765 1.746-1.634 2.25-1.03 0.198-1.502 0.407-2.657 0.407h-3.068c-0.734-0.254-1.643-0.535-2.453-0.816-0.673-0.59-1.314-0.795-2.045-1.433-0.607-0.593-0.792-0.933-1.53-1.733-0.3-0.393-0.08-0.028 0.918 0.71 0.908 0.84 1.163 1.066 1.43 2.046 0.29 0.58 0.204 1.765 0.204 2.658-0.042 1.155-0.14 1.528-1.022 1.84-0.625 0.366-1.402 0.41-2.453 0.41-0.525-0.454-1.367-0.764-2.045-1.432-0.59-0.39-1.283-1.306-1.84-1.838-0.32-0.496-1.76-2.247-2.256-2.565 0.533 0.36 2.24 2.35 2.87 2.768 0.426 0.75 0.94 1.12 1.432 1.634 0.424 0.718 0.692 1.4 1.227 1.84 0.114 0.844 0.294 1.61 0.408 2.454-0.04 1.09-0.22 1.55-0.82 2.045-0.79 0.778-0.992 0.81-1.837 0.41-0.702-0.488-1.45-0.915-2.045-1.43-0.762-0.21-1.4-0.494-1.84-1.024-0.745-0.262-1.27-0.84-1.84-1.226-0.322-0.647-0.855-1.232-1.43-1.637l1.43 1.637c-0.322-0.647-0.855-1.232-1.43-1.637l-3.502-4.324c0.46 0.534 4.464 5.01 4.73 5.756 0.616 0.493 0.97 1.22 1.225 2.25 0.088 0.825 0.204 1.546 0.204 2.452-0.543 0.57-0.72 0.977-1.637 1.226h-2.86c-1.132-0.042-1.484-0.278-2.454-0.614-0.83-0.48-1.19-0.774-1.634-1.43-0.6-0.41-0.946-0.883-1.637-1.227-0.276-0.413-0.59-0.527-0.82-1.023-0.37-0.16-0.31-0.41-0.61-0.614" fill="none"/>
<path stroke-linejoin="round" stroke-linecap="round" fill="none" d="m412.1 280.76c-0.067 0-1.476 0.116-2.565-0.1-1.39-0.088-2.926-0.197-3.68-0.82-1.082-0.373-1.296-0.86-1.84-1.43-0.598-0.72-1.36-1.444-1.84-2.456-0.393-0.898-0.6-1.67-0.613-2.86v-3.272c0-0.567 0.387-3.725 0.106-4.006-0.013 1.12-0.516 4.24-0.516 5.436 0 1.044-0.093 1.844-0.204 2.66-0.477 0.763-0.975 1.63-1.84 2.453-1.188 1.024-2.208 1.75-3.678 2.044-1.166 0.344-1.44 0.217-2.045-0.82-0.747-0.558-1.13-1.474-1.227-2.656-0.307-1.152-0.164-2.323 0-3.475 0-1.023-0.103-2.766-0.103-3.788 0-0.477 0.103 1.353 0.103 1.54 0 1.204 0.008 1.91-0.615 2.86-0.47 1.046-1.16 1.82-1.838 2.657-0.694 0.718-1.314 1.012-2.25 1.226-0.985 0-1.835 0.01-2.452-0.408-0.755-1.05-2.1-2.198-2.66-3.475v-8.08c0.337 0.715 0.41 3.338 0.41 4.405-0.08 1.054-0.516 1.603-0.818 2.657-0.75 0.715-1.263 1.335-2.25 2.045-1.093 0.56-2.033 0.983-3.27 1.227-1.325-0.016-1.307-0.12-1.84-1.227-0.65-0.728-0.916-1.64-1.022-2.657-0.283-0.983-0.492-1.963-0.614-2.863-0.2-0.81-0.2-2.65-0.408-3.275v2.252c0.12 0.925 0.395 1.727 0.408 2.864 0 1.006-0.07 1.812-0.408 2.453-0.11 0.817-0.36 3.11-0.403 3.068" stroke-width=".99341"/>
<path stroke-linejoin="round" stroke-width=".99341" d="m397.08 277.8c0.088 0.442 0.408 1.804 0.408 2.863 0 1.2-0.053 1.56-0.612 2.454-0.595 0.858-0.953 0.815-2.248 0.815-1.118 0-1.878-0.125-2.453-0.612-0.76-0.27-1.145-0.72-1.638-1.43-0.56-0.68-1.216-1.757-1.635-2.25-0.204-0.75-0.614-2.633-0.922-3.28-0.214-0.972 0.55 1.66 0.922 2.257 0.52 0.946 1.057 1.818 1.43 2.657 0.15 0.68 0.205 1.516 0.205 2.453-0.41 0.578-0.843 1.073-1.227 1.638-0.734 0.243-1.44 0.394-2.453 0.408-0.895-0.135-1.414-0.45-2.042-0.818-0.758-0.252-1.166-0.683-1.84-1.023-0.385-0.583-1.236-1.468-1.636-2.25-0.498-0.7-0.654-1.782-1.022-2.453-0.14-0.977-0.27-2.005-0.615-2.657-0.132-1.033-0.33-1.764-1.023-2.25-0.058-0.53-0.243-0.433-0.408-0.817m3.47 9.22c0.066 0.445 0.3 2.058 0.408 2.864-0.013 1.173-0.262 1.51-0.612 2.25-0.398 0.582-0.692 1.2-0.82 2.04-0.54 0.45-0.83 1.027-1.43 1.434-0.317 0.475-0.635 0.408-1.43 0.408-0.273 0.085-1.446-0.074-2.045-0.204m4.71-11.04c-0.222 1.04-0.633 1.905-1.022 2.864-0.594 0.657-1.052 1.28-1.43 1.84-0.713 0.285-1.34 0.41-2.454 0.41-0.56-0.382-1.285-0.682-1.84-1.023-0.303-0.13-0.722-0.28-1.024-0.41m34.74-146.79v0.205c0-0.51 0.03-0.266-0.41 0.613-0.872 0.99-1.31 1.297-2.454 1.636-1.226 0.692-3.02 0.92-4.702 1.023-1.385 0.235-2.898 0.212-4.29 0.41-0.454-0.655-1.366-1.224-1.842-1.84-0.483-0.557-0.724-1.12-1.227-1.84-0.335-1.008-0.953-1.823-1.225-2.863-0.34-0.982-0.575-2.06-0.82-3.067-0.118-0.898-0.333-1.497-0.407-2.453-0.734-0.21-0.06 0.26 0.204 0.817 0.572 0.857 0.744 1.787 0.82 3.067 0.147 1.05 0.203 2.122 0.203 3.27 0 1.184-0.106 1.902-0.408 2.66-0.708 0.72-1.18 0.868-2.25 1.02-1.23 0.315-2.72 0.205-4.09 0.205-0.975-0.132-1.306-0.472-2.25-0.614-0.486-0.436-1.31-0.902-1.837-1.226-0.37-0.45-0.81-0.628-1.023-1.023" fill="none"/>
<path stroke-linejoin="round" stroke-width=".99341" d="m391.14 138.62c0 0.07 0.618 0.92 0.618 0.99 0-0.572-0.023-0.27 0.41 0.817 0.404 1.21 0.165 1.717-0.614 2.658-0.83 0.912-1.782 1.7-2.657 2.453-0.927 0.426-1.69 0.997-2.86 1.227-1.354 0.17-2.793 0.238-3.887 0-0.787-0.447-1.76-1.158-2.25-1.84-0.59-0.58-0.9-1.154-1.226-1.84-0.182-0.674-0.418-1.56-0.815-2.044-0.057-0.588 0.017 0.158 0.128 1.047 0.25 0.742 0.014 0.28 0.075 1.2v2.863c-0.387 1.3-0.92 2.947-1.227 4.09-0.427 0.625-0.792 0.995-1.637 1.225-0.934 0.555-1.84 1.09-2.862 1.43-0.56 0.462-1.383 0.41-2.453 0.41-0.904-0.36-1.09-0.57-1.84-1.43-0.526-0.413-0.648-0.668-1.024-1.023m-3.88-0.41v0.204c0-0.64 0.043-0.257-0.818 0.818-0.39 0.637-0.91 1.213-1.635 1.84-0.47 0.846-1.48 1.794-1.84 2.658-0.87 0.442-2.155 0.74-3.27 1.022-1.174 0.12-2.36 0.26-3.476 0.41-1.636 0.1-3.223 0.203-4.907 0.203-0.978-0.012-1.974-0.182-2.657-0.41-0.655-0.54-0.782-1.037-0.816-2.248-0.292-0.87-0.19-1.733-0.615-2.25-0.085-0.476-0.31-0.772-0.612-1.02" fill="none"/>
<path stroke-linejoin="round" stroke-width=".99341" d="m404.02 145.95v0.204c0-0.57 0.024-0.266-0.408 0.818-0.47 0.75-1.163 1.622-1.637 2.25-0.712 0.633-1.74 1.628-2.452 2.248-1.208 1.007-2.18 1.365-3.68 1.635-1.335 0.174-2.262-0.18-3.476-0.817-0.96-1.007-1.096-1.305-1.634-2.453-0.098-1-0.18-1.813-0.615-2.658-0.18-0.763-0.434-1.48-0.818-2.044 0.045-0.702 0.328 0.423 0.41 0.818 0.223 0.558 0.323 1.67 0.612 2.25v2.86c0.28 1.12 0.127 1.936 0 2.863-0.347 1.17-0.535 2.163-1.226 2.657-0.797 0.28-1.923 0.41-3.064 0.41-1.396 0-2.933-0.05-3.887-0.615-0.655-0.445-1.203-1.07-2.043-2.044-0.686-0.89-1.19-1.354-1.433-2.25-0.482-0.724-0.776-1.526-1.227-2.043-0.108-0.87 0.072-0.115 0.41 0.204 0.268 0.564 0.727 1.586 1.02 2.248 0.382 0.74 0.804 1.426 1.023 2.453 0.543 0.664 0.933 1.44 1.023 2.455 0.286 0.63 0.204 1.91 0.204 2.862-0.18 0.988-0.405 1.276-1.43 1.43-0.84 0.205-1.903-0.122-2.862-0.612-0.712-0.356-1.125-0.695-1.637-1.432-0.837-0.675-1.343-1.35-2.042-2.248-0.474-0.498-0.943-0.998-1.433-1.636-0.562-0.692-1.126-1.19-1.43-2.25-0.32-0.3-0.502-0.722-0.82-1.022 0.493 0.567 0.737 1.076 1.023 2.044 0.307 1.122 0.6 1.664 0.615 2.863v2.862c-0.195 0.98-0.67 0.89-1.636 1.022-1.12 0-2.072 0.073-2.658-0.41-0.895-0.12-1.51-0.355-2.045-0.818-0.85-0.222-1.395-0.698-2.04-1.022-0.324-0.475-1.008-1.374-1.432-1.84-0.283-0.873-0.82-1.24-1.23-1.84-0.288-0.29-0.306-0.917-0.407-0.818 0.4 0.47 0.756 1.48 1.024 2.045 0.164 0.914 0.204 1.845 0.204 2.862-0.228 1.067-0.612 1.597-0.82 2.657-0.45 0.86-0.84 1.946-1.225 2.657-0.745 0.507-1.333 1.06-2.247 1.43-1.208 0.545-2.43 0.777-3.886 0.82-0.98 0.326-1.8 0.115-2.657 0-0.665-0.316-1.425-0.634-1.84-1.227-0.528-0.242-0.693-0.508-1.024-1.227-0.742-0.557-1.013-1.385-1.43-2.453-0.298-0.86-0.626-1.62-0.817-2.454-0.35-0.797-0.567-1.797-1.023-2.453-0.053-0.476-0.15-0.342-0.204-0.818" fill="none"/>
<path stroke-linejoin="round" stroke-width=".99341" d="m395.01 163.73v0.204c0-0.55 0.012-0.273-0.205 0.818-0.673 1.046-1.46 1.932-2.453 2.25-0.588 0.293-1.653 0.197-2.25 0-0.927-0.477-1.554-1.06-2.248-1.84-0.54-0.99-1.465-1.89-2.046-2.863-0.513-0.774-0.882-1.33-1.02-2.248-0.442-0.52-0.76-1.597-1.022-2.25-0.06-0.64-0.053-0.284-0.244-0.757 0.265 0.962 0.61 1.412 0.856 2.598 0.405 1.252 0.75 1.908 0.41 3.27-0.166 1.245-0.373 2.298-0.818 3.477-0.27 1.2-0.65 2.1-1.023 2.862-0.188 0.8-0.54 1.505-1.022 2.044-0.464 0.51-1.248 0.645-2.045 0.818h-2.86c-0.873-0.117-1.69-0.405-2.658-0.613-0.95-0.507-1.142-0.744-1.84-1.43-0.547-0.677-1.074-1.165-1.432-2.045-0.522-0.355-1.264-0.898-1.637-1.43-0.625-0.616-1.017-1.06-1.43-2.045-0.19-0.88-0.395-1.502-0.41-2.658-0.03-0.616 0.288 0.985 0.613 2.044 0.297 0.69 0.517 1.78 0.82 2.658v3.27c0 1.002 0.018 1.977-0.205 2.863-0.137 0.92-0.484 1.343-0.818 2.045-0.582 0.36-1.21 0.804-2.042 1.022-0.694 0.48-2.064 0.815-3.068 1.022-1.014 0.266-1.91 0.41-3.067 0.41-1.177 0-1.73 0.012-2.25-0.614-0.49-0.54-1.305-1.625-1.838-2.045-0.283-0.796-0.697-1.116-1.43-1.84-0.294-0.814-0.76-1.813-1.227-2.453-0.156-0.994-0.63-1.848-0.82-2.658-0.128-0.302-0.28-0.72-0.406-1.022" fill="none"/>
<path stroke-linejoin="round" stroke-linecap="round" fill="none" d="m416.81 162.04c0.04 0.28-0.187 1.3-0.336 1.895-0.447 1.217-1.133 2.257-2.045 3.067-0.983 0.59-1.373 0.94-2.454 1.022-0.498 0.373-1.086 0.16-1.433-0.205-1.054-0.39-1.68-1.02-2.657-1.432-0.92-0.59-1.4-0.94-2.25-1.43-0.476-0.702-1.08-1.492-1.633-2.045-0.133-0.222-1.307-2.18-1.08-1.566 0.433 0.642 1.498 1.884 1.898 2.793 0.494 0.68 1.07 2.022 1.636 2.657 0.566 0.718 1.292 1.516 2.045 2.453 0.46 1.133 0.936 1.946 1.023 3.067 0.318 0.618 0.408 1.698 0.408 2.658 0 1.112-0.166 1.653-0.203 2.658-0.267 0.665-0.527 1.427-0.818 2.044-1.236 0-2.227-0.206-3.07-0.613-0.66-0.465-1.06-1.126-1.634-2.045-0.402-1.13-1.094-1.917-1.634-3.067-0.678-1.14-1.224-2.885-1.84-3.885-0.142-0.992-0.534-1.88-0.613-3.066-0.224-0.37-0.29-0.483-0.412-0.89 0.13 0.954 0.204 1.717 0.204 2.934 0 1.25 0.072 2.36-0.408 3.067-0.365 1.097-0.953 1.818-1.634 2.658-0.83 0.523-1.563 1.223-2.66 1.636-1.216 0.422-2.16 0.613-3.475 0.613-1.317-0.272-2.607-0.4-3.828-0.726-1.288-0.116-2.204-0.196-2.713-0.91-0.755-0.848-1.608-1.785-2.25-2.862-0.595-0.39-0.394-0.445-0.778-0.87 0.434 0.676 0.366 0.598 0.575 1.687 0.388 0.8 0.41 1.477 0.41 2.453-0.486 0.82-0.992 1.693-1.636 2.453-0.667 0.816-1.012 1.073-2.045 1.43h-3.07c-0.99 0-1.934-0.046-2.658-0.203-0.882-0.192-1.91-0.597-2.86-1.022-0.446-0.357-3.227-2.66-3.566-3.112" stroke-width=".99341"/>
<path stroke-linejoin="round" stroke-width=".99341" d="m366.8 175.79h0.2c-0.64 0-0.246-0.053 0.614 1.022 0.618 1.244 1.018 2.35 1.635 3.476 0.15 1.262 0.383 2.303 0.41 3.68 0 1.45 0.108 2.814-0.41 4.09-1.357 1.317-1.887 1.895-3.68 2.044-1.768 0.36-2.16 0.03-2.862-1.635-0.51-1.047-0.9-2.212-1.43-3.273-0.273-0.78-1.062-1.847-1.637-2.862-0.312-0.634-0.752-1.585-1.226-2.453-0.363-0.95-0.577-1.915-1.022-2.453-0.154-1.504-0.287-0.657 0.204 0-0.128 1.294 0.715 4.95-0.273 5.442-0.676 0.32-1.383 0.13-2.512 0.13" fill="none"/>
<path stroke-linejoin="round" stroke-linecap="round" fill="none" d="m419.86 165.01c0 0.067 0.112 1.312 0.112 1.38 0-0.62-0.012-0.272 0.205 1.022 0.074 1.356 0.398 2.72 0.816 3.68v2.863c-0.32 1.08-0.492 1.578-1.225 2.453-0.43 0.632-0.673 0.818-1.635 0.818-0.657 0.328-2.08 0.204-3.068 0.204-1.094-0.3-2.498-0.39-3.268-1.022-0.676-0.52-1.322-0.83-1.714-1.467 0.286 0.096 0.204 0.583 0.204 0.26m-5.23 3.66v0.41-0.41 0.41-0.41c-0.18 1.924-0.714 2.78-1.842 4.294-0.758 0.89-1.505 1.683-2.657 2.25-1.626 0.847-3.255 1.093-5.11 1.226-1.398 0-1.946 0.055-2.66-0.818-0.892-0.714-1.853-1.71-2.248-2.862-0.747-0.908-1.142-2.092-1.635-3.067-0.23-1.163-0.657-2.176-1.022-3.27-0.247-0.96 0.196 0.658 0.204 1.43 0 1.617-0.258 2.876-0.613 4.293-0.435 1.292-0.845 2.216-1.637 3.272-0.8 1.268-1.783 1.74-3.065 2.657-1.955 0.435-3.722 0.39-5.725 0.205-1.288-0.395-2.22-0.68-3.272-1.43-0.964-0.303-2.17-0.885-2.657-1.432-0.995-0.407-0.648-0.175-1.294-0.5 0.148 0.94-0.774 4.186-0.954 5.202-0.315 1.106-0.448 1.72-1.226 2.25-0.82 0.74-1.574 2.443-2.692 2.904-0.842 0.183-1.89 0.773-2.954 0.857-0.74 0.335-1.568 0.228-2.267 0.426" stroke-width=".99341"/>
<path stroke-linejoin="round" stroke-linecap="round" fill="none" d="m419.14 177.84c0.074 0.453 0.408 2.154 0.408 3.27v3.477c-0.064 1.152-0.28 2.12-0.408 3.066-0.28 0.985-0.71 1.43-1.43 2.046-1.08 0.56-1.783 0.986-2.864 1.226-1.282 0-1.643-0.206-2.657-0.817-1.226-0.97-2.07-1.742-3.067-2.862-0.842-0.906-1.4-1.62-2.045-2.25-0.14-1.072-0.495-1.79-0.816-2.862-0.37-0.517-0.612-1.16-1.022-1.634 0.376 0.752 0.876 1.164 1.43 2.25 0.64 1.11 0.986 2.33 1.43 3.474 0.36 0.94 0.83 1.96 1.434 2.454 0.43 1.022 0.707 1.393 1.02 2.453 0.095 1.237 0.206 2.37 0.206 3.68-0.41 1.185-0.86 1.995-1.84 2.658-1.312 0.78-2.472 1.008-4.088 1.226-1.738-0.008-3.375-0.094-4.702-0.612-0.562-0.688-1.855-1.795-2.66-2.658-0.678-1.12-1.343-2.155-2.043-3.27-0.36-0.944-0.696-1.757-0.818-2.66-0.22-0.656-0.295-1.7-0.616-2.247-0.28-1.527-0.204 0.844-0.204 1.43v3.68c-0.43 1.763-1.465 3.228-2.657 4.703-1.462 1.172-2.652 2.095-4.498 2.248-1.793 0-3.054 0.052-4.498-0.817-0.673-0.8-1.698-1.855-2.453-2.862-0.69-1.165-1.253-1.933-1.635-3.067-0.154-0.71-0.252-1.78-0.41-2.658 0-0.83-0.086-0.147-0.15-0.83 0 0.953-0.055 0.898-0.055 1.852 0.15 1.348 0.204 2.685 0.204 4.09-0.48 1.564-0.507 2.186-2.248 2.248-1.242-0.09-1.605-0.324-2.455-1.022-0.98-0.578-2.085-1.392-2.862-2.044-0.792-0.74-1.136-1.12-1.857-1.71" stroke-width=".99341"/>
<path stroke-linejoin="round" stroke-width=".99341" d="m410.96 193.58h0.204c-0.6 0-0.262-0.036 0.82 0.613 0.38 0.574 1.112 1.464 1.633 2.248 0.538 0.745 1.155 2.097 1.635 2.66 0.41 0.72 0.805 1.24 1.022 2.043 0 1.246 0.165 2.287 0.207 3.476 0 1.25-0.193 1.788-0.614 2.657-0.655 0.432-1.606 1.05-2.658 1.43-1.06 0.14-2.12 0.205-3.27 0.205-1.1 0-2.062-0.085-3.07-0.204-0.696-0.315-1.803-0.76-2.452-1.227-0.742-0.655-1.53-1.775-2.25-2.657-0.455-0.73-0.63-1.453-0.815-2.248-0.26-1.013-0.38-2.104-0.818-2.863-0.15-0.684-0.332-1.512-0.408-0.204-0.273 0.542-0.207 1.605-0.207 2.453-0.228 1.077-0.498 2.11-1.02 3.068-0.78 0.72-1.303 1.67-2.456 2.044-1.36 0.86-2.923 1.04-4.496 1.227-1.21 0-2.607 0.152-3.682-0.206-0.687-0.326-1.34-0.68-2.247-1.226-1.017-0.64-1.793-1.39-2.456-2.25-0.764-0.958-0.764-1.628-1.227-2.86-0.066-1.162-0.33-1.852-0.408-2.863-0.154-0.284-0.382-0.79-0.612-1.023 0 1.436 0.19 2.613 0.612 3.885 0.07 0.975 0.204 1.82 0.204 2.862-0.038 1.022-0.242 1.696-0.613 2.452-0.74 0.544-1.07 0.872-2.045 1.227-0.97 0.18-1.99 0.203-3.068 0.203-0.908-0.245-1.605-0.79-2.453-1.022-0.49-0.594-1.035-0.85-1.633-1.84-0.68-1.025-0.82-1.18-0.82-2.452 0.19-1.103 0.412-2.058 0.412-3.27 0-1.148 0.025-1.782 0.407-2.66 0.047-0.847 0.092-0.49 0.092-1.463" fill="none"/>
<path stroke-linejoin="round" stroke-width=".99341" d="m371.51 204.21h-0.203c0.602 0 0.24-0.058-0.408 1.022-0.5 0.945-0.75 1.902-1.227 2.454-0.23 0.844-0.602 1.21-1.227 1.635-0.267 0.75-0.845 1.033-1.433 1.432-0.628 0.298-1.32 0.56-2.042 0.818l2.043-0.818c-0.628 0.298-1.32 0.56-2.042 0.818" fill="none"/>
<path stroke-linejoin="round" stroke-linecap="round" fill="none" d="m435.91 216.27c-0.068 0 1.156-0.616 1.087-0.616 0.6 0-1.028 0.58-2.11 1.23-0.616 0.31-1.925 0.204-2.86 0.204-0.818-0.19-2.153-0.495-2.66-1.022-0.278-1.105-0.683-2.182-1.02-3.272-0.328-0.95-0.492-2.037-0.614-3.066-0.29-0.986-0.493-1.812-0.818-2.862-0.382-1.16-0.713-2.272-1.02-3.476-0.302-1.014-0.54-1.89-0.615-2.862-0.432-0.35-0.477-1.006-0.615-1.635" stroke-width=".99341"/>
<path stroke-linejoin="round" stroke-width=".99341" d="m428.55 214.02c-0.148 0-0.484 0.97-0.818 1.636-1.335 1.566-2.853 2.81-4.294 4.09-1.272 0.6-2.255 1.48-3.68 1.635-0.59-0.535-0.82-1.974-1.023-3.068-0.573-1.932-0.867-3.902-1.43-5.723-0.508-0.917-1.008-2.028-1.226-2.862-0.35-0.737-0.474-1.59-0.61-2.25 0.16 1.594 0.918 3.088 1.225 4.703 0.248 1.352 0.407 2.667 0.407 4.09v3.475c-0.23 1.267-0.623 2.46-1.43 3.27-0.21 0.13-1.036-0.44-1.842-0.817-1.168-0.635-2.527-1.364-3.27-1.84-0.783-1.132-1.985-2.415-2.862-3.68-0.374-1.274-0.655-2.342-0.82-3.68-0.27-1.18-0.6-2.84-1.02-3.68-0.057-0.672-0.346-0.718-0.67-1.075-0.195 1.326-0.72 2.115-1.17 3.324-0.524 0.55-1.166 1.127-2.045 1.84-1.277 1.16-2.702 2.358-4.088 3.27-1.295 0.82-2.36 1.148-3.886 1.227-1.457-0.046-2.042-0.175-3.065-1.023-1.688-1.05-2.817-2.543-4.295-4.09-1.102-1.21-1.52-1.65-1.634-3.27-0.068-0.887-0.24-1.512-0.41-2.453 0 0.273-0.066 0.204 0.207 0.204" fill="none"/>
<path stroke-linejoin="round" stroke-linecap="round" fill="none" d="m390.11 216.68c-0.06 0.416-0.244 2.313-0.408 3.068-0.23 0.845-0.54 1.253-1.227 1.634-0.498 0.42-1.464 0.684-2.045 1.023-1.057 0.1-1.976 0.29-2.863 0.408h-3.07c-1.068 0-1.767 0.018-2.25-0.612-0.61-0.5-1.242-1.542-1.634-2.25-0.342-1.157-0.42-1.872-0.207-2.862 0-1.414 0.18-2.674 0.206-4.088 0-1.022-0.103-3.177-0.103-4.2" stroke-width=".99341"/>
<path stroke-linejoin="round" stroke-width=".99341" d="m376.84 220.36v0.204c0-0.55 0.013-0.27-0.204 0.82-0.276 0.823-0.683 1.114-1.227 1.633-1.03 0.227-1.337-0.03-2.455-0.407-0.716-0.577-0.898-1.078-1.43-1.634-0.25-0.703-0.674-1.24-1.227-1.638 0-0.44-0.1-0.305-0.204-0.612" fill="none"/>
<path stroke-linejoin="round" stroke-width=".99341" d="m370.4 218.62c0 0.066 0.094 0.78 0.507 1.33 0.41 0.898 0.88 1.785 1.227 2.86v3.272c-0.1 1.24-0.28 2.66-0.82 3.476-0.454 0.652-1.6 1.17-2.656 1.635-1.046 0.518-2.233 0.573-3.475 0.613-1.465-0.323-2.695-0.834-4.09-1.634-1.235-0.632-2.475-1.408-3.68-2.046-0.564-0.49-1.1-0.737-1.635-1.43-0.593-0.435-1.08-1.055-1.637-1.434-0.39-0.575-1.104-0.988-1.633-1.635-0.514-0.368-0.872-0.91-1.227-1.43" fill="none"/>
<path stroke-linejoin="round" stroke-linecap="round" fill="none" d="m433.98 230.22c0 0.118-1.936 1.673-2.572 1.99-0.795 0.584-2.135 1.132-3.272 1.638-1.595 0.488-2.84 0.816-4.495 0.816-0.467-0.683-1.728-1.528-2.453-2.453-0.374-0.746-1.04-1.92-1.638-2.86-0.37-1.18-0.808-2.38-1.226-3.476-0.357-1.057-0.68-1.67-0.818-2.863-0.336-0.465-0.61-1.867-0.715-1.228 0.673 0.686 0.758 1.812 1.126 2.866 0 1.277 0.172 2.416 0.204 3.68-0.29 0.818-0.38 1.38-1.023 1.84-0.45 0.52-0.763 0.613-1.634 0.613-0.6 0.36-1.174 0.016-2.045 0-1.07-0.315-1.365-0.527-1.84-1.226-0.603-0.42-1.02-1.242-1.84-1.84-0.52-0.963-0.82-1.32-1.226-2.248-0.27-0.75-0.494-1.613-0.616-2.66 0-1.075-0.167-2.013-0.204-3.064 0-0.737 0.056-2.436-0.204-2.87-0.154 1.246-0.41 2.69-0.41 4.096-0.18 0.965-0.236 2.098-0.41 3.065-0.45 1.036-1.09 2.114-2.044 3.068-1.282 0.727-2.41 1.013-3.883 1.227-1.55 0-2.968-0.188-4.5-0.203-0.94-0.536-1.99-1.26-3.064-2.046-1.002-0.906-2.276-2.045-3.068-2.657-0.252-0.71-0.755-1.14-1.227-1.636-0.29-0.54-0.414-0.47 0.205-0.204 0.533 0.533 1.402 1.274 1.842 2.045 0.336 0.652 0.818 2.072 1.226 2.657 0 1.11 0.19 1.585 0.204 2.657-0.193 1.054-0.824 1.31-2.045 1.637-1.166 0-2.244-0.117-3.065-0.408-0.98-0.412-1.714-0.72-2.25-1.23-0.524-0.356-1.263-0.9-1.636-1.43-0.773-0.817-1.597-1.68-2.248-2.454-0.414-0.453-1.03-1.595-1.43-2.045 0.198 0.3 0.34 0.353 0.614 0.82 0.73 0.92 1.144 1.496 1.634 2.248 0.39 1.01 0.734 1.494 0.82 2.657 0 0.99-0.05 1.937-0.205 2.66-0.233 0.853-0.61 1.346-1.433 1.635-0.618 0.31-1.926 0.204-2.86 0.204-0.688-0.3-1.914-0.827-2.658-1.023-0.475-0.576-1.455-1.276-2.046-2.04-0.52-0.67-0.82-1.355-1.43-1.843 0.527 0.435 0.853 1.206 1.43 1.842 0.316 0.642 0.782 1.638 1.023 2.452 0.41 0.903 0.565 1.89 0.82 2.86 0 1.095-0.072 2.067-0.207 3.068 0 1.07 0 1.852-0.408 2.453-0.252 0.917-0.72 1.34-1.635 2.043-0.98 0.19-1.388 0.397-2.453 0.41-0.413-0.5-1.014-1.05-1.637-1.637-0.278-0.59-0.694-1.503-1.022-2.043-0.403-0.657-0.824-1.004-1.227-1.84-0.637-0.616-1.382-1.612-1.837-2.658-0.517-0.775-1.04-3.013-1.227-3.877-0.28-0.188 0.33 0.525 0.408 1.83 0 1.09-0.063 2.075-0.204 3.068 0.032 1.2 0.204 2.266 0.204 3.477-0.11 0.813-0.24 1.7-0.614 2.25-0.504 0.884-1.473 1.61-2.657 2.04-0.446-0.62-0.97-0.814-1.84-1.02-0.85-0.436-1.46-0.64-2.452-1.02-0.94-0.684-1.34-0.817-2.044-1.842-0.668-0.63-1.285-1.66-1.637-2.453-0.158-0.723-0.205-1.666-0.205-2.657 0.013-1.285 0.198-2.098 0.614-3.068 0.227-0.832 0.765-1.4 1.43-1.838 0.58-0.582 1.197-1.074 2.045-1.23 0.103-0.59 0.572-0.567 0-0.613v0.612c0.103-0.59 0.572-0.567 0-0.613" stroke-width=".99341"/>
<path stroke-linejoin="round" stroke-linecap="round" fill="none" d="m432.23 245.29c0 0.122-0.595 0.5-1.228 0.82-1.298 0.412-2.744 0.097-4.09 0-1.327-0.332-2.286-0.406-2.86-1.228-0.666-0.476-1.69-1.53-2.25-2.25-0.302-0.635-0.496-1.376-0.612-2.248-0.133-1.062-0.225-2.228-0.41-3.27v-3.27c0-1.11-0.19-1.587-0.205-2.66 0.09-0.088 0.154 0.514 0.408 1.022 0 1.28-0.045 2.506-0.204 3.68-0.112 1.15-0.512 1.89-0.82 2.66-0.595 0.74-0.93 0.977-1.838 1.226-0.667 0.398-1.833 0.575-2.863 0.612-1.26-0.07-1.97-0.334-2.66-1.022-1.003-0.798-1.646-1.672-2.248-2.86-0.352-1.148-0.612-2.18-0.612-3.477-0.14-0.91-0.074-2.6-0.41-3.272-0.03-0.596 0.172-1.85-0.098-2.148 0.138 1.052-0.096 2.993 0.098 4.193 0 1.346-0.037 2.644-0.204 3.884-0.55 1.245-0.805 1.915-1.84 2.453-0.62 0.623-1.413 0.93-2.452 1.227-1.573 0-3.205 0.116-4.702-0.204-0.742-0.202-1.438-0.607-2.25-0.82-0.558-0.47-1.395-0.76-2.044-1.43-0.752-0.823-1.3-1.597-1.635-2.656-0.996-1.28-1.732-2.507-2.25-3.884" stroke-width=".99341"/>
<path stroke-linejoin="round" stroke-width=".99341" d="m427.51 256.76h-0.204c0.55 0 0.27-0.013-0.82 0.204-1.064 0.355-2.03 0.106-3.067-0.204-0.69-0.305-1.412-0.784-1.838-1.227-0.713-0.874-0.99-1.107-1.43-2.25-0.345-1.405-0.412-2.58-0.412-4.086 0.016-1.192 0.33-1.958 0.615-3.068 0.363-1.123 0.856-2.92 0.856-4.167-0.045 1.354-0.78 3.41-0.856 4.782v3.27c-0.328 0.98-0.328 1.887-0.82 2.658-0.656 0.933-1.246 1.25-2.452 1.43-1.194-0.108-1.205-0.455-1.84-1.43-1.082-1.303-1.686-3.05-2.043-4.702v-3.27c0-1.368 0.103-2.598 0.204-3.885 0.085-0.845 0.148-0.964 0.148 0.13 0.077 1.576 0.26 2.752 0.26 4.366-0.292 1.197-0.76 2.2-1.227 3.067-0.874 0.12-1.563 0.396-2.657 0.41-1.088 0-1.925-0.05-2.656-0.41-0.51-0.857-1.526-2.002-2.045-3.066-0.24-1.12-0.57-2.06-0.616-3.27-0.254-0.51-0.32-1.61-0.408-2.25 0.218 1.278 0.204 2.693 0.204 4.09-0.01 1.3-0.047 2.57-0.61 3.27-0.566 0.76-1.294 0.8-2.25 1.023-1.04 0-2.157 0.098-3.068-0.204-1.023 0-2.194-0.063-2.86-0.41-0.928-0.406-1.265-0.705-2.046-1.227-0.42-0.62-1.23-1.415-1.635-2.453 0-1.083 0.14-1.976 0.613-2.657 0.193-0.887 0.384-1.436 0.82-2.25 0.412-0.985 0.8-1.42 1.225-2.044 0.366-0.196-1 0.92-1.637 2.045-0.91 0.882-1.673 1.71-2.452 2.453-1.036 0.654-1.576 1.134-2.86 1.226-1.278 0-1.802-0.225-2.658-0.61-0.554-0.608-1.097-0.714-1.227-1.64-0.373-0.918-0.54-2.287-0.818-3.064-0.013-1.152-0.196-2.15-0.408-3.27-0.11-0.817-0.204-2.428-0.204-1.633 0 1.766-0.085 2.802 0.204 4.492v3.475c0 1.076-0.15 1.72-0.41 2.453-0.946 0.13-1.312 0.395-2.454 0.41-1.012-0.27-1.552-0.486-2.25-0.818-0.48-0.458-0.886-1.043-1.43-1.43l1.43 1.43c-0.48-0.458-1.71-1.557-2.253-1.944" fill="none"/>
<path stroke-linejoin="round" stroke-linecap="round" fill="none" d="m420.47 268.52c-1.77 0-4.056-0.927-5.828-0.927-1.1-0.273-2.354-0.368-2.862-1.023-0.437-0.678-0.76-1.51-1.023-2.657 0-1.45 0.11-2.278 0.816-3.475 0.536-1.057 1.397-1.897 1.842-2.658 0.59-0.744 1.21-1.753 1.635-2.657 0.41-0.64 0.397-0.712 0.87-1.393 0.62-0.11-1.896 1.372-3.73 2.62-1.42 0.633-2.62 0.805-4.296 0.816-1.26-0.275-3.056-0.683-4.086-1.02-0.82-0.72-0.82-1.853-0.82-3.27v-3.68c0-0.782 0.036-0.872-0.147-1.372-0.085 1.162-0.318 1.655-0.466 2.802-0.108 1.338-0.333 2.477-0.815 3.68-0.53 1.004-1.182 2.358-1.84 3.068-0.645 0.826-1.51 1.284-2.25 1.838-1.378 0.244-2.525 0.098-3.884-0.204-1.456-0.49-1.734-1.06-2.248-2.453-0.448-1.527-0.408-3.21-0.408-4.907 0.045-1.264 0.318-2.445 0.612-3.68v-3.475c0-0.342 0.392-1.187 0.392-1.526" stroke-width=".99341"/>
<path stroke-linejoin="round" stroke-linecap="round" fill="none" d="m411.99 267.39c-0.498 0.066-2.17 0.39-3.272 0.41-0.8 0.265-2.162 0.204-3.272 0.204-1.19-0.28-1.775-0.29-2.25-1.022-0.727-0.506-1.008-1.004-1.633-1.43-0.302-0.605-0.64-1.278-1.023-1.842-0.103-1.155-0.395-2.063-0.408-3.27 0-1.072-0.002-1.853-0.41-2.454v-0.408" stroke-width=".99341"/>
<path stroke-linejoin="round" stroke-linecap="round" fill="none" d="m399.72 257.98v3.27c0 1.074-0.16 1.92-0.408 2.862-0.114 0.962-0.38 2.03-0.818 2.66-0.488 0.935-1.174 1.248-2.045 1.634-0.994 0.135-1.264 0.165-2.043-0.204-0.712-0.193-1.634-0.678-2.25-1.226-1.067-0.443-1.935-0.967-2.656-1.637-0.895-0.627-1.513-1.268-2.045-1.838-0.414-0.826-0.693-2.018-1.024-2.657 0-1.128 0.088-1.777 0.408-2.453 0.326-0.654 0.753-1.14 1.227-1.637 0.496-0.472 1.75-1.385 2.462-1.637" stroke-width=".99341"/>
<path stroke-linejoin="round" stroke-width=".99341" d="m386.43 261.05h-0.204c0.694 0 0.262-0.04-1.023 0.816-0.907 0.697-1.527 1.03-2.454 1.434-1.31 0.307-2.143 0.408-3.68 0.408-1.343 0-2.664 0.013-3.886-0.204-0.887 0-1.854-0.006-2.453-0.204-0.222-0.67-0.598-1.35-1.022-1.842-0.157-0.723-0.204-1.666-0.204-2.657 0.366-0.582 0.65-1.796 1.023-2.25 0.52-0.934 0.864-1.246 1.635-1.84 0.72-0.5 1.285-0.744 1.84-1.226 0.85-0.285 1.185-0.64 2.046-1.432 0.82-0.744 1.15-1.266 1.838-1.838 0.46-0.437 1.07-1.018 1.638-1.434 0.27-0.853 0.74-1.433 0.816-2.453v-3.883" fill="none"/>
<path stroke-linejoin="round" stroke-linecap="round" fill="none" d="m363.83 273.21c-0.242-0.122-0.883-1.3-1.53-1.947-1.427-1.436-2.633-2.114-2.657-4.088 0.46-0.682 1.264-1.214 2.25-1.635 0.556-0.546 1.16-0.986 1.84-1.227 0.774-0.17 1.807-0.206 2.862-0.206 1.112 0 1.653-0.167 2.657-0.204 1.072-0.014 1.55-0.204 2.66-0.204 0.375-0.38 0.8-0.204-0.207-0.204-0.726 0.33-1.547 0.408-2.657 0.408-0.904-0.393-1.447-0.594-2.453-0.816-0.544-0.472-1.206-0.628-1.635-1.23-0.91-0.51-1.192-0.966-1.433-2.042-0.133-0.996-0.167-1.436 0.41-2.25 0.3-1.15 0.867-1.832 1.43-2.656 0.677-0.692 0.986-0.82 2.25-0.82h3.068c0.726 0.13 1.544 0.208 2.246 0.41-0.97-0.28-1.95-1.29-2.86-2.25-0.87-0.946-0.916-1.248-1.43-2.25-0.34-1.278-0.77-2.01-0.82-3.268v-3.068c0.197-1.102 0.47-1.55 0.82-2.25" stroke-width=".99341"/>
<path stroke-linejoin="round" stroke-width=".99341" d="m360.46 244.07c-0.12 0.243-1.007 1.565-1.227 2.045-0.262 0.733-0.41 1.38-0.41 2.452-0.18 0.882 0.007 1.338 0.206 2.25 0.596 0.407 1.084 0.84 1.635 1.633 0.886 0.427 1.18 0.838 1.633 1.638 0.556 0.376 1.388 1.27 1.74 1.84-1.01-0.073-2.164-0.892-3.17-1.228-0.586-0.273-1.826-0.642-2.454-1.02h-3.476c-1.09 0.082-1.304 0.445-2.045 0.816-0.422 0.66-0.738 1.22-0.817 2.25-0.228 0.683-0.228 1.77 0 2.453 0.46 0.495 1.054 1.245 1.634 1.637 0.758 0.43 1.35 0.808 2.25 1.43 0.95 0.562 2.156 1.105 2.86 1.635 0.69 0.188 1.505 0.45 2.046 0.818 0.498 0.088 1.128 0.204 0.203 0.204-0.548-0.32-1.59-0.394-2.25-0.61-0.966-0.163-1.906-0.5-3.064-0.616-1.072 0-1.427-0.023-1.84 0.616-0.833 0.24-1.076 0.74-1.635 1.226-0.366 0.77-0.58 1.256-0.615 2.453 0.22 0.82 0.432 1.232 0.615 1.84 0.15 0.354 0.535 1.098 0.818 1.33l-0.818-1.33" fill="none"/>
<path stroke-linejoin="round" stroke-width=".99341" d="m351.67 223.01c-0.55 0.14-2.403 0.713-3.476 1.023-0.73 0.244-1.24 0.654-1.84 1.023-0.592 0.4-0.95 0.926-1.43 1.43-0.243 0.73-0.653 1.24-1.022 1.84-0.32 0.676-0.537 1.272-0.614 2.25 0.016 1.374 0.477 1.904 1.022 3.27 0.702 1.19 1.26 2.58 2.25 3.27 0.84 0.516 1.496 0.898 2.452 1.433 0.652 0.178 1.648 0.646 2.25 1.023 1 0.132 1.658 0.415 2.25 0.815h-1.636c-0.956 0.04-1.8 0.17-2.456 0.616-0.7 0.28-1.004 0.837-1.634 1.227-0.23 0.847-0.586 1.208-0.82 2.25-0.338 0.677-0.155 1.78 0 2.656 0.428 0.613 0.812 2.057 1.228 2.656 0.44 1.504 0.856 2.72 1.84 3.886 0.176 0.506 1.43 1.287 1.847 1.534-0.63-0.43-2.197-1.99-3.07-2.763-0.518-0.654-1.16-1.107-2.047-1.43-1.08-0.414-2.09-0.734-3.27-0.817-1.114 0-1.742 0.122-2.454 0.408-0.523 0.453-1.19 0.69-1.636 1.227-0.583 0.417-0.885 1.084-1.226 1.842 0.04 1.1 0.283 1.65 0.818 2.453 0.477 0.715 0.827 1.224 1.43 1.635 0.61 0.704 1.283 1.118 2.25 1.634 0.805 0.575 1.53 0.705 2.453 1.227 0.908 0.292 1.657 0.713 2.86 1.227 1.025 0.562 3.77 2.554 4.612 2.874 0.18 0.272-2.723-1.736-3.59-2.258-1.04-0.23-1.4-0.586-2.25-0.82-1.06-0.49-1.623-0.88-2.656-1.02-0.89-0.41-2.055-0.642-2.863-0.817-1.23 0-2.226-0.196-3.476-0.204-0.882 0-0.954 0.022-1.226 0.613-0.686 0.53-1.075 1.136-1.634 1.84-0.384 0.68-0.826 1.28-1.227 1.84-0.297 0.693-0.63 1.562-0.82 2.248-0.18 0.838-0.394 1.376-0.407 2.454" fill="none"/>
<path stroke-linejoin="round" stroke-width=".99341" d="m334.11 261.85c0-0.067 0.207 0.275 0.207 0.206 0 0.575-0.18-0.143-0.615-1.227-0.675-0.803-1.534-1.985-2.453-2.864-1.306-0.93-2.66-1.873-4.09-2.453-1.243-0.59-2.56-1.222-3.884-1.635-1.19-0.23-2.423-0.204-3.678-0.204-1.235 0.013-1.415 0.334-2.25 0.612-0.48 0.54-0.924 1.09-1.226 1.84-0.24 0.6-0.39 1.575-0.612 2.25 0 1.044-0.193 1.83-0.207 2.86 0 0.838 0.2 2.23-0.304 2.563 0.212-0.896 0.413-2.618 0.715-3.79-0.016-1.23-0.384-1.586-0.82-2.656-0.875-0.983-1.697-2.022-2.452-2.864-0.707-0.898-1.605-1.955-2.453-2.657-0.707-0.432-1.404-0.922-2.045-1.227-1.038-0.42-1.523-0.776-2.657-0.818-0.484 0.463-1.05 0.866-1.636 1.226-0.6 0.41-0.972 0.875-1.227 1.638-0.373 0.548-0.498 1.494-0.61 2.453-0.33 0.94-0.41 1.56-0.41 2.657-0.262 0.347-0.357 0.87-0.41 1.43 0.122-0.914 0.395-1.724 0.41-2.86-0.16-1.058-0.572-2.09-0.818-3.476-0.038-1.41-0.306-2.268-0.82-3.068-0.882-0.787-1.692-1.93-2.86-2.657-1.02-0.49-1.828-0.802-3.068-0.818-1.11 0.013-1.664 0.276-2.453 0.615-0.287 0.712-0.41 1.34-0.41 2.453 0.014 1.158 0.218 1.57 0.613 2.25 0.122 0.902 0.524 1.586 0.614 2.656 0.28 0.472 0.204 1.47 0.204 2.25-0.094-1.103-0.764-1.892-1.02-2.862-0.256-1.173-0.57-2.16-0.82-3.068-0.448-1.2-1.128-2.254-1.838-3.475-0.72-0.58-1.102-1.175-2.045-1.84-0.925-0.803-1.624-1.277-2.658-1.43h-2.864c-0.837 0.333-1.086 0.65-1.635 1.226-0.253 0.975-0.743 1.76-1.02 2.453 0 1.016 0.04 1.95 0.203 2.862 0.485 0.506 0.808 1.052 1.022 1.84 0.345 0.587 0.82 2.603 0.82 3.586-0.314-0.837-1.103-3.57-1.432-4.61-0.3-0.83-0.776-1.84-1.226-2.657-0.323-1.17-0.795-1.78-1.433-2.656-0.52-0.8-1.343-1.496-2.25-2.045-0.876-0.735-1.245-0.978-2.453-1.023-1.05 0.312-1.252 0.667-2.248 0.818-0.384 0.347-1.067 0.602-1.43 1.023-0.194 0.82-0.503 1.38-0.82 2.045-0.155 0.723-0.203 1.666-0.203 2.657 0.362 0.535 0.79 1.322 1.022 2.045 0.628 0.69 0.893 1.393 1.43 2.25 0.302 0.902 1.667 3.048 2.05 3.687-0.12 0.12-1.197-1.558-1.64-2.053-0.796-1.103-1.19-1.782-1.636-3.07-0.527-0.688-1.152-1.644-1.635-2.042-0.672-0.79-1.61-1.626-2.656-2.25-0.914-0.642-1.4-0.613-2.66-0.613-1.29-0.268-2.217 0.008-3.064 0.408-0.61 0.62-1.897 1.626-2.453 2.045-0.615 0.78-0.917 1.3-1.434 1.84-0.272 0.684-0.495 1.38-0.612 2.25 0.09 1.13 0.534 1.383 1.024 2.453 0.543 0.42 1.35 1.5 1.838 1.84 0.393 0.484 2.91 2.765 2.05 2.765-0.37-0.545-1.62-1.857-2.254-2.355-0.598-0.73-1.34-1.364-1.838-1.84-0.84-0.364-1.518-0.692-2.453-0.82-1.182-0.235-1.93-0.37-3.068-0.407-1.034 0.092-1.595 0.604-2.25 1.022-0.368 0.6-0.78 1.11-1.022 1.84-0.46 0.558-0.408 1.384-0.408 2.454 0.365 0.537 0.747 1.324 1.022 2.042 0.623 0.598 1.076 1.57 1.84 2.25 0.81 0.68 1.517 1.008 2.452 1.225 1.006 0.037 1.547 0.204 2.66 0.204 0.707 0.046-0.342 0.18-0.615 0.412" fill="none"/>
<path stroke-linejoin="round" stroke-width=".99341" d="m247.82 264.74l-0.204-0.204c0.512 0.51 0.282 0.265-0.818-0.615-1.245-0.585-2.61-0.77-4.087-0.816-1.126 0.29-2.35 0.594-3.476 0.816-0.655 0.668-1.08 0.95-1.842 1.84-0.31 0.777-0.477 1.368-0.204 2.454 0.55 1.13 0.784 1.53 1.634 2.453 0.594 0.403 1.084 0.72 1.842 1.023 1.547 0.233 3.065 0.76 4.702 0.82 1.18 0 4.116 0.375 5.23 0.41 1.382 0-3.5-0.207-4.004-0.207-1.48 0-2.932 0.01-4.294 0.204-1.303 0.265-2.55 0.562-3.68 1.227-0.932 0.53-0.818 0.984-0.818 2.25 0.294 0.73 0.65 1.232 1.022 1.84 0.64 0.59 1.17 1.148 2.046 1.432 1.07 0.588 2.182 1.126 3.475 1.226 0.847 0.286 4.447-0.03 3.19-0.1-0.656 0.553-5.07 0.67-6.258 0.916-1.26 0.533-2.612 1.28-3.68 1.637-0.23 0.886-0.405 1.53-0.204 2.454 0.44 0.718 0.79 1.373 1.43 2.046 0.512 0.508 0.8 0.792 1.638 1.02 0.874 0.43 2.304 0.667 3.475 1.022 0.91 0 0.926-0.135 1.432-0.408m93.85-37.83c0-0.07-0.41-0.678-0.82-1.226-1.08-1.267-2.91-2.663-4.294-3.887-1.49-0.6-2.58-1.32-4.088-1.43-1.268 0-1.676 0.01-2.045 1.022-0.445 0.537-0.63 1.282-0.818 2.25-0.42 1.008-0.408 1.956-0.408 3.27-0.307 0.612-0.26 1.727-0.612 2.25-0.03 0.542-0.133 0.89-0.207 0.815-0.34-0.68 0.217-2.087 0.41-3.065 0-1.242 0.165-2.28 0.205-3.475-0.477-1.863-0.644-2.337-2.045-3.884-1.388-1.46-2.382-2.338-4.088-3.475-0.895-0.23-2.07-0.6-3.27-0.614-0.74 0.4-1.742 1.047-2.455 1.635-0.717 0.972-1.006 1.592-1.022 2.864 0.148 1.122 0.49 1.843 1.022 2.86 0.284 0.72 0.6 1.642 0.82 2.66 0.373 0.956 0.526 2.344 1.02 3.065 0.137 1.09 0.13 0.702-0.205 0-0.106-1.386-0.546-2.673-1.023-3.68-0.397-1.49-0.837-2.037-1.634-3.272-0.79-1.226-1.137-1.72-2.453-1.838-0.874-0.29-1.99-0.29-2.864 0-0.755 0.42-0.977 0.67-1.02 1.838-0.233 0.697-0.31 2.382-0.31 3.378 0 0.303 1.04-4.243 0.718-5.42-0.765-1.41-1.626-2.513-2.863-3.68-1.205-1.448-2.296-2.775-3.883-3.68-1.11-0.33-1.722 0.158-2.453 0.818-0.954 0.635-1.696 1.54-2.045 2.25-0.232 0.85-0.534 1.34-1.024 2.248-0.768 0.96-1.396 4.47-1.53 3.796-0.165-1.1 0.235-3.926 0.51-5.023 0.114-1.407 0.24-2.626-0.206-3.68-0.848-1.123-1.59-1.95-2.657-2.453-0.71-0.777-1.245-0.82-2.453-0.82-0.91 0.29-2.096 0.976-3.068 1.636-0.596 0.56-0.853 0.943-1.02 1.637-0.368 0.636-0.657 1.952-0.82 2.657-0.21 0.877-0.597 1.698-0.613 2.86-0.425 1.39-0.205-0.945-0.205-1.634-0.326-0.983-0.164-2.32-0.612-3.067-0.554-1.026-0.81-1.264-1.84-2.043-1.048-0.474-1.58-0.818-2.862-0.818-0.57 0.4-1.26 0.657-1.84 1.226-0.65 0.833-1.2 1.66-1.84 2.658-0.22 0.888-0.205 1.863-0.205 2.864 0.023 0.832 0.172 1.32 0.206 0.204v-3.272c-0.22-1.144-0.423-1.674-1.432-2.045-0.71-0.385-1.67-0.41-2.86-0.41-0.833 0.295-1.08 0.65-1.228 1.636-0.508 0.715-0.614 0.953-0.614 2.045-0.29 0.578-0.204 1.765-0.204 2.658-0.326 0.437-0.37 1.32-0.408 0-0.07-1.025-0.33-2.138-0.615-2.86-0.68-0.53-1.62-1.124-2.25-1.432-0.998 0-1.976-0.018-2.86 0.204-0.79 0.403-0.788 1.025-1.43 1.635-0.208 0.88-0.536 1.224-0.616 2.25-0.185 0.86-0.122 1.554 0 2.452 0.228 0.64 0.57 1.42 0.41 1.84-0.508-0.582-1.345-1.65-2.044-2.656-0.758-0.61-0.967-0.876-2.045-1.022-0.88-0.068-1.423-0.206-2.454-0.206-0.494 0.432-1.1 0.863-1.633 1.23-0.48 0.704-0.874 0.855-1.023 1.837-0.31 0.617-0.21 1.83 0 2.453 0.498 0.323 0.665 0.733 1.227 1.022 0.425 0.527 1.063 1.04 1.43 1.635 0.245 0.49 0.333 0.243-0.407 0.206-0.64-0.768-1.475-1.06-2.66-1.637-1.273-0.23-2.187-0.02-3.475 0.203-0.58 0.84-0.977 1.627-1.02 2.864 0.04 1.088 0.73 2.683 1.33 3.18" fill="none"/>
<path stroke-linejoin="round" stroke-width=".99341" d="m346.77 237.32h-1.025c-1.617-0.152-3.072-0.396-4.7-0.412-1.5 0-2.65 0.016-3.885 0.615-1.2 0.418-1.435 0.866-2.25 1.634-0.52 0.975-1.146 1.783-1.43 2.864-0.367 0.91-0.775 1.723-0.818 2.862 0.262 1.565 0-1.126 0-1.84 0.326-1.845 0.207-3.628-0.204-5.52-0.392-1.335-0.82-2.43-1.43-3.68-0.46-0.812-0.983-1.512-2.045-1.84-0.737-0.212-1.932-0.24-2.657 0-0.517 0.363-1.37 1.34-1.842 2.045-0.52 0.694-1.21 1.748-1.634 2.453-0.51 0.853-0.91 1.923-1.227 2.657-0.103 0.593-0.25 1.245-0.41 1.637-0.408-0.818-0.9-1.09-2.043-1.637-1.062-0.91-2.25-1.738-3.27-2.25-0.817-0.505-1.983-1.234-2.865-1.634-0.628-0.437-1.695-0.704-2.657-0.818-0.993 0-2.4-0.127-3.065 0.204-0.795 0.282-1.078 0.725-1.433 1.432-0.36 0.585-2.122 2.625-2.053 2.46 0-1.138 1.004-3.44 0.622-4.505-0.544-1.078-0.99-1.592-1.227-2.453-0.644-0.713-0.877-1.484-1.635-2.045-0.278-0.783-0.805-1.016-1.226-1.636-0.91-0.387-1.017-0.773-2.25-0.818-1.017 0-1.96 0.164-2.66 0.408-0.76 0.21-1.398 0.49-1.837 1.022-0.92 0.44-1.087 0.82-1.842 1.43-0.524 0.37-1.17 1.164-1.43 1.842-0.596 0.726-0.085 0.93 0 2.045" fill="none"/>
<path stroke-linejoin="round" stroke-width=".99341" d="m343.3 227.94v-0.206c0 0.604 0.037 0.265-0.612-0.816-0.413-0.67-0.845-1.2-1.637-2.045-0.708-0.83-1.19-0.82-2.454-0.82-0.893 0-2.08-0.083-2.657 0.205-0.798 0.305-1.264 1.076-1.842 1.842-0.646 0.898-1.29 1.547-1.634 2.25-0.41 0.976-0.79 1.395-1.023 2.248-0.516 0.387-0.492 0.8-1.226 1.022-0.368-0.667-1.043-1.065-1.43-1.637-0.914-0.315-2.127-1.208-3.068-1.838-0.998-0.665-1.912-1.04-2.86-1.637-0.912-0.316-1.487-0.408-2.658-0.408-1.285 0.058-1.88 0.355-2.863 1.022-0.893 0.42-1.51 1.054-2.25 1.635-0.72 0.5-3.67 4.837-4.41 5.446-0.755 0.71 2.564-3.293 3.184-4.424 0.476-1.21 0.817-1.943 0.817-3.272-0.233-1.672-0.384-3.21-1.637-4.292-0.98-0.384-2.14-0.604-3.475-0.615-0.935 0.13-1.412 0.415-2.453 0.616-0.784 0.42-1.566 0.628-2.25 1.227-0.654 0.402-1 0.823-1.838 1.226-0.408 0.598-1.014 0.847-1.43 1.43-0.302 0.13-1.412 1.24-1.542 1.54" fill="none"/>
<path stroke-linejoin="round" stroke-width=".99341" d="m336.54 223.22h-0.204c0.6 0 0.264 0.035-0.817-0.614-0.56-0.38-1.086-0.868-1.637-1.43-1.15-0.29-2.066-0.83-3.272-1.022-1.022-0.42-2.172-0.816-3.065-1.023-0.883 0-1.868-0.005-2.454 0.204-0.408 0.598-0.882 0.945-1.226 1.636-0.273 0.575-0.464 1.52-0.82 2.043-0.023 0.817-0.43 2.237-0.923 2.566 0.455-0.806 1.287-3 1.536-4.406-0.315-1.5-0.91-2.882-1.634-4.293-0.8-0.97-1.718-1.922-2.658-2.863-0.946-0.236-2.003-0.204-3.068-0.204-1.245 0-1.648 0.015-2.25 0.818-0.582 0.46-1.096 1.27-1.634 1.635-0.585 0.782-1.13 1.116-1.43 2.25-0.416 0.81-0.623 1.417-0.82 2.25l0.82-2.25c-0.416 0.81-0.623 1.417-0.82 2.25v0.203c0.256-0.853 0.8-1.666 0.82-2.863 0-1.058 0.045-2.32-0.204-3.067-0.326-0.808-0.652-1.306-1.433-1.84-0.954-0.942-1.74-1.577-2.86-2.044-0.915-0.467-1.86-0.538-2.865-0.204-1 0.42-1.396 0.78-1.838 1.43-0.883 0.313-0.98 0.687-1.023 1.84-0.037 1.11-0.185 2.008 0 2.863 0.138 1.17 0.474 1.907 0.82 2.864 0.444 0.688 0.96 1.096 1.225 1.838 0.273 0 1.235 1.478 1.235 1.75" fill="none"/>
<path stroke-linejoin="round" stroke-width=".99341" d="m335.54 222.4c0-0.458-0.414-2.808-0.414-3.886 0-1.11-0.19-1.586-0.204-2.66 0-0.742 0.195-2.36-0.305-2.05 0.037 1.005 0.1 2.37 0.1 3.482-0.29 0.818-0.38 1.38-1.022 1.84-0.663 0.442-1.696 0.408-2.86 0.408-0.98-0.106-2.213-0.17-2.865-0.612-1.05-0.225-1.7-0.535-2.453-1.022-0.7-0.398-1.28-0.846-1.84-1.227-0.237-0.872-0.663-1.094-0.817-2.25-0.464-1.066 0.615-3.587 0.32-3.88-0.08 1.046-3.92 2.673-5.022 3.063-1.12 0.38-2.02 0.41-3.272 0.41-0.832 0-1.7-0.005-2.25-0.205-0.87-0.636-1.31-1.045-2.044-1.636-0.956-0.733-1.677-1.137-2.657-2.045-0.85-0.807-1.298-1.548-1.84-2.25-0.348-0.757-0.968-2.008-1.432-2.657-0.107-0.816-0.203-1.616-0.203-2.658v2.862c-0.408 0.9-1.067 1.83-1.838 2.658-1.122 0.514-2 1.066-3.273 1.227-0.707-0.393-1.616-0.723-2.25-1.022-1.064-0.158-1.44-0.48-2.044-1.227-0.7-1.128-1.32-1.934-1.43-3.27-0.313-0.56 0.108-1.05 0.203-1.84 0-0.44 0.1-0.305 0.204-0.614m-20.43-3.46c-0.063 1.234-1.85 2.754-2.256 3.685-0.332 1.05-1.034 1.67-1.436 2.452-0.973 0.55-1.773 0.775-2.864 1.227-1.497 0.053-2.707 0.363-4.292 0.408-1.282 0-3.163 0.358-3.78-0.408-0.86-0.932-2.466-2.175-3.17-3.067-0.703-0.68 0.513-2.414 0.325-2.762m-28.12 18.58c-0.424 1.274-0.885 5.45-2.46 7.904-0.714 0.93-1.684 1.286-2.66 1.636-1.16 0.302-2.067 0.7-3.474 0.818-0.986 0.377-1.53 0.406-2.453 0.204-0.572-0.116 0.07-1.218-0.504-1.335 0.76 0.38 0.084 1.987 0.707 2.973 0.08 1.046 0.368 1.337 0.408 2.453 0 1.204-0.045 2.322-0.204 3.474-0.105 1.052-0.288 1.976-0.407 2.86-0.617 0.928 0.01 0.142-0.81 0.608-0.843 0.254-1.768 0.675-2.862 0.816-0.892 0.222-1.87 0.402-2.66 0.51-1.114 0.663-0.63 0.52 0 1.432 0.738 0.593 0.984 0.805 1.228 1.944 0.29 0.575-0.31 2.996-0.824 3.892-0.09 1.062-0.49 1.81-0.614 2.86-0.34 1.195-0.49 2.5-0.82 3.68-0.203 0.782-0.61 1.7-0.815 2.66-0.363 0.652-1.274 1.8-1.637 2.453-0.58 0.357-2.01 1.122-2.662 1.435-0.175 0.675 1.194 0.598 1.64 1.22 0.662 0.663 0.982 1.106 1.226 2.25 0.172 1.137 0.418 1.82 0.614 2.657-0.13 0.888-0.45 2.005-1.022 2.657-0.313 1.175-0.747 1.785-1.43 2.248-0.658 0.612-1.55 1.094-2.454 1.227-0.63 0.44-1.695 0.704-2.657 0.818-0.34 0.286-2.03 1.574-2.463 1.75m102.84-58.99c-0.23 0-1.488-0.065-2.045-0.205-0.977-0.57-2.055-0.408-3.27-0.408-1.08 0.205-1.792 0.384-2.248 1.022-0.482 0.906-0.803 1.586-0.818 2.86 0.012 1.15 0.367 1.99 0.61 2.864 0.432 0.52 0.48 1.402 0.82 2.043 0 0.41 0.513 1.952 0.513 2.36-0.44-0.985-1.35-3.5-1.74-4.813-0.22-1.463-0.38-2.136-1.43-2.86-1.386-1.13-2.088-1.743-3.68-2.046-1.108 0.178-1.964 0.906-2.864 1.43-0.59 0.69-1.697 1.325-2.454 1.84-1.012 0.88-1.696 1.51-2.045 2.862 0 1.044 0.096 1.844 0.207 2.66 0.162 0.747 0.374 1.573 0.612 2.246 0.272 1.192 0.526 2.263 0.614 3.476 0.206 0.21 0.204 1.242 0.204 1.022-0.49-0.67-0.758-1.56-1.023-2.453-0.315-0.894-0.742-1.755-1.226-2.656-0.936-0.816-1.172-0.887-2.454-1.226-0.99 0-1.934 0.048-2.657 0.204-0.452 0.37-1.188 0.723-1.64 1.226-0.555 0.708-1.138 1.346-1.43 2.453 0 1.045 0.096 1.845 0.205 2.658v2.456-2.456 2.456" fill="none"/>
<path stroke-linejoin="round" stroke-width=".99341" d="m299.35 208.3h-0.204c0.57 0 0.267 0.025-0.82-0.41-0.542-0.37-1.458-0.474-2.044-0.817-1.18-0.043-2.116-0.204-3.475-0.204-1.198 0.107-1.444 0.598-1.635 1.84-0.286 0.854-0.204 1.883-0.204 2.86-0.07 1.09-0.286 2.018-0.41 3.068-0.12 0.552 0.14 3.933-0.1 4.413-0.176-1.195-0.934-4.502-1.33-5.434-0.7-1.54-1.58-2.695-2.862-4.09-0.946-0.82-1.44-0.615-2.66 0-1.176 0.152-1.42 0.415-2.042 0.82-0.617 0.45-1.248 1.05-1.637 1.84-0.652 0.514-1.028 1.202-1.227 2.043 0.07 0.897 0.34 1.73 0.615 2.452 0.19 0.37 2.07 4.292 2.26 4.62 0.214 0.355-1.783-3.206-2.464-3.802-0.7-0.686-1.387-0.613-2.66-0.613-1.628 0.203-2.98 0.446-4.29 1.226-0.7 0.675-0.944 1.277-1.434 1.84-0.114 0.85-0.336 1.64-0.408 2.658 0.154 1.013 0.477 1.437 1.023 2.25 0.186 0.424 1.524 2.268 1.643 2.768-0.786-0.434-3.12-1.745-4.3-1.745-1.197 0.16-1.642 0.532-2.248 1.43-0.427 1.052-0.41 2.064-0.41 3.272-0.035 1.006-0.205 1.812-0.205 2.86 0 0.41 0.413 4.94 0.413 5.347-0.18-0.763-0.845-5.598-1.23-6.162-0.425-0.99-1.135-2.228-2.044-2.864-0.655-0.392-1.38-0.153-2.046 0.204-0.275 0.562-0.964 1.67-1.43 2.25-0.273 1.024-0.6 1.303-0.615 2.452 0.113 0.845 1.53 4.597 1.644 5.44 0 0.3-1.37-3.437-1.44-3.6-0.345-0.825-0.987-2.083-1.432-3.066-0.707-0.48-1.05-0.964-1.838-1.43-0.747-0.55-1.354-0.9-2.045-1.227-1.008-0.287-1.903-0.41-3.07-0.41-0.815 0.4-1.233 0.703-1.837 1.635-0.286 1.03-0.41 1.873-0.41 3.068v3.065c0.222 0.813 0.553 1.407 1.226 2.045 0.428 0.63 1.898 2.586 2.462 3.282 0.83 0.83-1.38-2.026-1.85-2.26-0.84-0.447-1.273-0.685-2.248-0.818-0.577-0.29-1.764-0.204-2.657-0.204-0.97 0.334-2.355 0.54-3.068 1.023-1.145 0.43-2.12 0.49-2.454 1.43 0.043 1.232 0.28 1.9 0.615 2.864 0.507 0.935 0.838 1.642 1.43 2.246 0.41 0.602 0.873 0.975 1.636 1.23 0.363 0.532 2.347 1.607 2.872 2.25-0.634-0.38-2.69-0.643-3.484-0.412-0.562 0.38-1.372 1.01-2.25 1.634-0.887 0.702-0.818 1.19-0.818 2.456 0.074 0.975 0.294 1.57 0.615 2.247 0.332 0.703 0.653 1.203 1.023 2.046-0.14 0.31 4.838 3.536 4.838 3.81m47.29-57.16h-0.204c0.6 0 0.262-0.035-0.82 0.613-0.923 0.31-1.824 0.462-2.656 0.205-1.216-0.144-2.416-0.205-3.68-0.205-0.41-0.307-0.927-0.162-1.226-0.613-0.832-0.366-1.232-0.607-1.433-1.43-0.473-0.788-0.915-1.96-1.228-2.863-0.445-0.834-0.78-1.44-1.226-2.453 0 1.25 0.212 2.338 0.41 3.476v3.067c-0.51 0.967-0.476 1.46-1.637 1.635-1.015 0-1.96-0.165-2.658-0.408-1.602-0.39-3.324-0.783-4.906-1.023-0.67-0.957-1.425-1.276-2.65-2.444" fill="none"/>
<path stroke-linejoin="round" stroke-width=".99341" d="m271.96 205.03c-1.012 0.275-1.98 0.114-2.657 0.816-0.455 0.685-1.048 0.94-1.225 1.84-0.63 1.225-0.82 2.82-0.82 4.498 0.234 1.178 0.928 2.294 1.638 3.067 0.368 0.6 1.25 1.873 1.844 2.765 0.596 1.175-0.466-0.354-1.232-0.72-0.99-1.13-2.244-2.216-3.68-2.453-1.565-0.38-2.81-0.522-4.29 0-1.045 0.514-1.27 0.998-1.434 2.25-0.288 0.577-0.203 1.762-0.203 2.657 0.013 1.128 0.204 2.127 0.204 3.268 0.297 0.92 0.176 2.13 0.41 3.068 0.372 0.514 0.67 2.755 0.92 3.184-0.256-1.274-0.858-4.575-1.533-5.637-0.498-0.73-1.248-1.205-2.045-1.634-0.68-0.274-1.44-0.497-2.453-0.616-0.997-0.25-2.107-0.252-2.862 0-1.198 0.424-1.603 0.74-2.046 1.634-0.174 0.803-0.476 1.762-0.818 2.66-0.07 0.914 0.003 3.94 0.003 5.025m9.19-25.47c0-0.29-2.228 0.892-2.454 1.635-1.128 0.712-1.552 1.46-2.96 1.536-1.387 0.22-2.576 0.72-4.09 0.72h-5.32" fill="none"/>
<path stroke-linejoin="round" stroke-width=".99341" d="m252.12 208.71v0.205c0-0.602 0.035-0.262-0.614 0.818-0.84 1.096-1.118 1.624-0.82 3.067 0 1.183 0.168 2.132 0.208 3.27 0.59 1.405 1.35 3.348 1.838 4.498 0.506 0.922 0.342 0.437-0.612 0.41-0.993-0.38-1.9-0.41-3.067-0.41-1.085 0-2.09 0.032-3.07 0.207-0.767 0.51-1.522 0.837-2.452 1.226-0.575 0.443-1.587 0.874-2.042 1.43-0.218 0.647-0.207 1.715-0.207 2.658 0.113 0.837 0.285 1.483 0.613 2.045 0.604 0.912 1.174 1.527 2.046 2.454 0.462 0.442 1.21 0.917 1.837 1.43 0.633 0.19 2.05 1.026 2.46 1.436-0.733-0.503-3.432-2.246-4.298-3.07-1.922-0.85-3.962-1.566-6.137-1.84-1.295 0.047-2.24 0.69-3.065 1.43-0.553 0.794-0.832 1.242-1.637 1.637-0.632 0.776-1.278 0.65-1.43 1.838-0.31 0.93-0.03 1.597 0.205 2.66 0.386 0.977 0.805 2.08 1.226 2.86 0.62 0.607 1.005 1.095 1.638 1.842 0.766 0.667 1.23 1.144 2.045 1.43 0.493 0.472 1.85 0.973 2.562 1.227-0.495 0.43-2.146 0.728-2.768 1.022-0.9 0.763-1.524 1.293-2.043 1.84-0.11 0.815-0.206 1.615-0.206 2.66-0.048 0.846-0.204 1.273-0.204 2.245 0.416 0.594 0.975 1.704 1.637 2.25 0.568 0.654 1.264 0.92 1.84 1.433 0.407 0.173 0.66 0.416 1.022 0.612l-1.023-0.612c0.407 0.173 2.203 0.52 2.566 0.716" fill="none"/>
<path stroke-linejoin="round" stroke-width=".99341" d="m243.72 208.91c-0.097 0-0.682 0.682-1.228 1.227-0.863 0.835-0.932 1.388-1.43 2.657 0 1.262 0.008 2.107 0.818 2.862 0.488 0.882 1.245 1.677 1.84 2.452 0.706 0.686 1.016 1.242 1.432 2.045-0.408-0.6-1.216-1.26-1.84-2.25-0.693-0.496-1.358-1.398-2.25-2.044-1.216-0.44-1.75-0.58-2.86-0.41-0.944 0.63-1.933 1.08-2.66 1.84-0.838 0.712-1.61 0.92-2.044 1.84-0.656 0.47-0.776 0.934-0.818 2.046 0 1.305 0.29 1.867 0.614 3.064 0.554 0.962 1.034 1.87 1.43 2.456 0.322 0.262 1.38 1.703 1.54 1.54-0.564-0.34-1.836-1.56-2.766-1.747-0.77 0.353-2.376 0.207-3.475 0.207-1.21 0-1.942 0.005-2.864 0.408-0.822 0.312-1.776 0.736-2.658 1.43-1.1 0.38-1.727 0.798-1.838 2.045 0.18 0.994 0.62 1.166 1.43 2.046 0.896 0.942 1.722 1.94 2.86 2.656 0.51 0.736 1.776 1.67 2.25 2.25 0.58 0.264 3.6 0.2 2.472 0.2-0.898 0.233-4.816 0.914-5.54 1.433-0.905 0.865-1.11 1.66-1.226 3.067 0.074 1.27 0.408 2.31 0.615 3.475 0.516 1.057 0.67 1.86 1.226 2.658 0.44 0.678 1.493 1.68 2.046 2.045 0.882 0.357 2.24 1.025 3.272 1.43 0.546 0.2 1.468 0.416 2.246 0.612h-3.68c-0.956 0.254-1.692 0.36-2.248 0.82-0.845 0.282-1.047 0.74-1.635 1.225 0 1.12 0.12 1.757 0.616 2.453 0.132 0.896 0.633 1.765 1.226 2.25 0.48 0.76 1.206 1.422 1.84 1.84 0.823 0.718 1.188 0.885 2.044 1.227 0.927 0.125 1.746 0.477 2.657 0.612 0.464 0.384 1.664 0.615 2.25 1.022l-2.25-1.022c0.464 0.384 1.664 0.615 2.25 1.022l1.027 0.31c-0.954 0.146-2.413 0.19-3.48 0.713-1.458 0.447-2.9 0.74-3.477 1.634-0.92 0.46-1.004 0.892-1.226 1.84-0.085 1.185-0.133 1.61 0.204 2.454 0.515 0.74 1.045 1.234 1.638 1.637 0.604 0.506 1.772 1.47 2.657 1.838 1.017 0.588 1.725 0.883 2.453 1.227-0.975 0.16-1.99 0.204-3.068 0.204-0.665 0.39-1.192 0.405-1.634 1.022-0.684 0.498-1.13 0.978-1.227 2.046-0.297 0.884-0.1 1.494 0.407 2.453 0.636 0.48 1.336 1.144 2.045 1.634 0.737 0.343 1.892 0.78 2.86 1.022 0.333 0.132 1.51 0.204 0.412 0.204-0.524 0.27-1.62 0.206-2.453 0.206-1.07 0.096-1.485 0.488-2.248 1.023-0.654 0.65-0.978 0.792-1.023 2.042 0 1.16 0.103 1.66 0.61 2.25 0.54 1.128 1.032 1.48 1.842 2.044 0.69 0.42 1.802 0.582 2.86 0.613 1.26 0 2.486-0.03 3.68 0.207 0.518 0 4.547 0.673 4.624 0.617" fill="none"/>
<path stroke-linejoin="round" stroke-width=".99341" d="m224.91 241.21c0 0.06-0.376 0.596-0.612 1.226-1.02 0.77-1.038 1.45-2.25 1.634-0.86 0.188-1.554 0.122-2.452 0-0.366-0.512-1.078-1.055-1.634-1.43-0.464-0.668-1.222-2.03-1.744-2.46m10.44 8.18c-0.052 0.31-0.992 2.014-1.127 2.66-0.777 0.78-1.916 1.976-3.068 2.66-0.866 0.204-1.502 0.508-2.657 0.612-0.97 0.312-2.17 0.204-3.272 0.204-0.895-0.206-1.534-0.58-2.453-1.022-0.394-0.487-2.82-2.52-3.486-2.972" fill="none"/>
<path stroke-linejoin="round" stroke-width=".99341" d="m225.55 251.09c0 0.312-0.458 4.707-1.025 6.678-0.495 0.874-1.223 1.873-1.838 2.86-0.657 1.103-1.04 1.705-2.25 2.25-1.358 0.512-2.706 0.615-4.293 0.615-1.016-0.244-2.285-0.885-3.477-1.227-0.74-0.503-1.72-1.104-2.453-1.637-0.742-0.612-1.626-1.168-2.048-2.045" fill="none"/>
<path stroke-linejoin="round" stroke-width=".99341" d="m229.41 269.03h-0.204c0.553 0 0.27-0.013-0.82 0.204-1.382 0.204-2.256 0.08-3.475-0.41-0.882-0.308-1.933-1.108-2.86-1.84-0.85-0.82-1.627-1.588-2.25-2.044-0.063-0.675-0.365-1.224-0.818-1.634 0 1.03 0.092 1.918 0.206 2.86 0 1.153-0.15 2.054-0.41 3.068-0.323 1.137-0.774 1.558-1.635 2.453-1.224 0.255-2.307 0.408-3.68 0.408-1.475-0.01-2.744-0.25-4.09-0.408-0.74-0.336-1.41-0.683-2.045-1.022m21.79-1.45c-0.73 2.283-3.306 3.467-3.79 4.095-1.158 0.28-2.146 0.6-3.476 0.614-1.195 0-1.328-0.05-2.045-0.615-1.184-0.396-1.56-0.72-2.045-1.43 0-0.274 0.07-0.205-0.204-0.205m14.1 9.62l-0.204 0.204c0.465-0.464 0.242-0.294-0.203 0.818-0.635 1.195-1.478 1.39-2.657 1.84-1.08-0.163-1.502-0.558-2.66-1.228-1.078-0.604-1.894-1.64-2.656-2.657-0.618-1.37-1.023-2.526-1.023-4.087-0.282-0.64-0.38-1.425-0.818-1.84v4.294c-0.317 0.956-0.36 1.703-0.612 2.657-0.17 1.245-0.426 2.153-0.818 3.067-0.752 1.045-1.92 1.305-3.476 1.432-1.247 0.267-2.71 0.204-4.087 0.204-1.074-0.127-1.718-0.334-2.658-0.612-1.084-0.615-1.378-0.803-2.25-1.84-0.956-1.082-2.095-2.45-2.66-3.477-0.322-1.144-0.88-4.593-1.125-5.844 0-1.208 0.114 2.808 0.106 3.39-0.297 1.832-0.41 3.593-0.41 5.522v3.27c-0.213 1.352-0.382 2.046-1.227 2.862-0.59 0.663-1.698 1.487-2.25 1.84-0.436 0.53-1.006 0.93-1.838 1.225-0.898 0.493-1.756 0.697-2.66 0.82-0.492 0.086-0.837 0.388-1.226 0" fill="none"/>
<path stroke-linejoin="round" stroke-width=".99341" d="m232.3 290.06c-0.484 0.705-1.41 2.286-2.253 2.46-0.896 0.473-2.286 0.41-3.68 0.41-0.983-0.226-2.016-0.173-2.453-0.82-1.584-1.062-3.036-2.278-4.294-3.68-0.55-0.706-1.078-1.54-1.433-2.248-0.472-0.162 0.058 0.47 0.206 0.818 0.745 1.094 1.235 2.197 1.43 3.476 0.263 0.978 0.263 2.28 0 3.065-0.24 1.086-0.56 1.857-1.43 2.66-0.418 0.52-1.1 0.408-2.045 0.408-1.322-0.166-2.38-0.717-3.68-1.226-1.417-0.837-2.01-1.08-2.656-2.453-0.268-1.55-0.427-3.175-0.615-4.7-0.027-0.56-0.04-2.814-0.305-3.08-0.29 0.76-0.747 3.596-1.126 4.51-0.24 1.313-0.376 1.724-1.634 1.84-0.668 0.326-1.59 0-2.66 0-0.74-0.25-1.216-0.43-1.634-0.818-0.188-0.347-0.427-0.47-0.615-0.82m33.53 2.67h-0.204c0.602 0 0.24-0.058-0.41 1.02-0.485 0.728-0.636 1.624-0.816 2.455 0.084 1.11 0.368 1.384 0.816 2.044 1.192 0.72 1.39 1.022 2.863 1.226 1.6 0.305 6.503-0.106 8.1 0.202 1.256 0.18-3.547 0.924-4.013 1.025-0.79 0.424-1.65 0.556-2.453 1.226-1.105 0.853-1.937 1.555-2.657 2.046-0.207 0.788-0.408 1.564-0.408 2.656 0.277 0.696 0.65 1.327 1.02 2.045 0.756 0.795 0.99 1.254 2.044 1.638 1.62 0.058 3.22 0.19 4.906 0.204 1.637-0.424 4.593-1.158 5.63-1.74 0.3 0-1.172 0.442-1.336 0.513-0.686 0.342-1.364 0.867-2.25 1.635-0.84 0.42-1.122 0.898-1.633 1.634-0.532 0.684-0.747 1.288-1.226 1.84-0.143 1.053-0.148 1.358 0.408 2.25 0.75 1.036 0.935 1.468 2.045 1.635 0.458 0.44 1.142 1.003 1.84 1.432 0.49 0.223 3.514 0.244 3.29 0.61-0.997 0.07-4.685 0.386-5.334 0.82-0.834 0.295-1.078 0.65-1.226 1.635 0.042 1.168 0.26 1.45 0.815 2.25 0.374 0.548 0.933 1.083 1.638 1.43 0.498 0.477 4.055 1.192 4.72 1.743 0.86 0.3-2.983-0.31-3.698-0.31-0.58 0.29-1.764 0.204-2.66 0.204-0.362 0.588-0.83 1.144-1.226 1.838-0.368 0.615-0.085 1.33 0 2.045 0.535 0.575 1.274 1.8 1.637 2.454 0.673 0.46 0.835 0.862 1.84 1.227 0.412 0.453 4.152 1.89 4.828 1.952m-8.52-5.23v0.206c0-0.605 0.06-0.242-1.02 0.407-0.5 0.618-1.273 1.306-1.636 1.84-0.19 0.918 0.035 1.376 0.408 2.248 0.546 0.44 1.27 1.322 1.637 2.045 0.95 0.87 1.597 1.388 2.042 2.045 0.617 0.186 2.842 1.137 3.49 1.54-1.154-0.017-4.015-1.055-5.125-1.132-1.356 0-1.97 0.154-2.863 0.615-0.37 0.598-0.777 1.11-1.02 1.838-0.255 0.718-0.5 1.404-0.615 2.25-0.284 0.88 0.01 1.36 0.407 2.044 0.713 0.575 1.015 0.95 1.84 1.227 0.592 0.527 1.3 0.803 2.454 0.818 0.51 0.255 2.67 0.1 3.284 0.1-0.708 0.462-2.885 0.907-3.69 1.127-0.642 0.33-1.428 0.567-1.842 1.023-0.442 0.69-0.776 1.112-0.818 2.246 0.34 0.857 0.86 1.65 1.84 2.457 0.91 1.025 1 1.23 2.25 1.634 1.06 0.49 5.412 0.05 6.57 0.1-1.026 0.153-5.516 1.403-6.57 2.15-0.745 0.53-0.784 1.13 0 1.84 0.503 0.897 1.08 1.36 2.045 1.636 1.11 0 1.583-0.19 2.656-0.204 0.943 0.11 4.405-0.106 5.436-0.106-0.792 0.448-4.874 0.993-6.05 1.13-1.023 0.35-1.444 0.383-1.635 1.43 0 0.942-0.11 1.623 0.408 2.044 0.53 0.935 0.842 1.007 2.045 1.02 0.593 0.358 1.404 0.045 2.25 0h7.07m-1.58 9.38c0.618 0-6.32-8.867-9.157-7.93-1.306 0.224-2.154 0.242-2.657 1.228-0.734 0.73-1.463 1.968-1.84 3.065-0.1 1.108-0.27 1.995 0 3.068 0.187 0.808 0.664 1.664 0.817 2.657 0.225 0.44 0.5 1.396 0.204 1.84-0.146-0.698-0.352-1.132-0.614-2.044-0.242-1.554-0.385-3.22-0.612-4.7-0.638-0.483-1.4-1.243-2.248-1.842-1.153-0.164-2.157-0.196-3.068 0-0.755 0.662-1.04 1.184-1.84 1.637-0.656 0.217-2.335 0.363-3.273 0.408" fill="none"/>
<path stroke-linejoin="round" stroke-width=".99341" d="m218.79 294.99c0.07 0-0.042-0.056 0.82 1.022 0.5 0.374 0.67 0.736 1.43 1.227 0.874 0.66 1.804 1.02 3.067 1.225 1.248 0.42 2.578 0.6 3.884 0.816 1.127 0 2.263 0.02 3.273-0.203 1.17 0 1.775-0.167 2.86-0.204l0.825-0.31m0.83 7.87v0.206c0-0.553-0.012-0.27 0.205 0.816 0 1.232-0.19 1.563-0.614 2.25-0.892 0.646-1.89 0.85-3.064 1.226-1.505-0.066-2.806-0.334-4.09-0.816-0.99-0.82-1.407-1.386-2.046-2.66-0.664-2.024-1.205-3.58-1.226-5.725 0-1.18 0.032-2.08-0.612-2.656-0.313-0.31-0.344 0.533-0.615 1.023-0.09 1.23-0.622 1.952-1.226 3.068-0.744 0.717-1.615 1.55-2.656 2.25-1.076 0.237-1.452 0.42-2.453 0.203-0.667-0.792-1.59-1.778-2.044-2.25-0.25-0.956-0.96-2.113-1.43-3.27-0.44-1.1-0.936-2.04-1.023-3.273-0.41-1.13-0.33-0.975-0.612 0.204-0.598 1.295-0.773 2.145-1.433 3.27-0.855 0.666-1.64 1.254-2.86 1.638-1.428 0.215-2.36 0.11-3.68-0.207-0.996-0.356-1.476-0.796-2.045-1.633-0.633-0.623-0.888-1.057-1.023-2.045-0.417-0.678-0.867-2.146-1.227-3.065-0.406-0.493-0.697-1.44-0.82-2.25-0.282-0.232-0.46-0.667-0.61-1.022" fill="none"/>
<path stroke-linejoin="round" stroke-width=".99341" d="m242.82 310.3c-0.03 0.396-0.453 3.117-0.922 3.898-0.556 1.168-0.765 1.59-2.045 1.635-1.268-0.204-2.26-0.843-3.27-1.635-0.846-1.068-1.68-1.873-2.247-3.065-0.615-0.506-0.548-0.797-0.408 0 0.652 0.668 0.596 0.646 0.612 1.84v3.066c-0.013 1.01-0.164 1.716-0.41 2.452-0.387 1.08-0.835 1.62-1.84 2.453-1.165 0.26-1.358-0.164-2.248-0.818-1.093-0.443-1.52-0.843-2.25-1.43-0.58-0.58-1.18-1.288-1.637-2.046-0.11-0.815-0.204-1.615-0.204-2.656 0-1.022 0.822-3.486 0.822-4.51-0.156-1.25-0.99 1.06-1.64 1.853-0.527 1.01-1.197 1.796-1.84 2.25-0.86 0.797-2.19 1.16-3.476 1.43-1.21 0-2.186-0.186-3.272-0.41-0.712-0.986-0.96-1.54-1.43-2.454 0-1.274 0.185-2.146 0.408-3.27 0.214-1.064 0.5-2.894 0.514-3.994 0-1.11-0.19 1.207-0.514 1.745-0.268 1.21-0.55 1.274-1.43 2.042-1.06 0.143-2.115 0.207-3.272 0.207-1.24 0-2.37 0.11-3.476 0.408-0.763-0.268-1.166-1.343-1.635-2.25-0.265-0.794-0.4-1.55-0.41-2.656 0-1.055-0.242-1.674-0.41-2.453-0.465 1.038-0.887 1.12-2.042 1.226-0.672 0-1.47 0.073-1.84-0.207-0.4-0.655-0.94-1.26-1.227-1.84l1.227 1.84c-0.4-0.655-1.865-2.7-2.153-3.28" fill="none"/>
<path stroke-linejoin="round" stroke-width=".99341" d="m244.35 318.09c0 0.196-0.108 1.303-0.203 1.84-0.368 0.846-0.49 1.61-0.614 2.658-0.01 1.012-0.164 1.72-0.408 2.453-0.474 0.65-1.038 1.007-1.635 1.43-1.382 0-1.79-0.126-2.863-0.815-0.896-0.725-1.733-1.348-2.453-1.84-0.586-0.986-1.195-1.757-1.84-2.658l-0.722-0.72c-0.416-0.87 0.46 0.482 0.72 1.54 0.31 1.077 0.41 2.028 0.41 3.268-0.036 1.306-0.272 2.395-0.41 3.682-0.553 1.094-0.574 1.333-1.838 1.43-1.335 0-2.61-0.018-3.883-0.203-1.26-0.194-2.205-0.54-3.272-1.227-0.273-0.713-0.41-1.613-0.41-2.66 0.015-1.245 0.304-2.29 0.41-3.475 0.437-1.192 0.604-1.947 1.022-3.065 0.334-0.448 0.528-0.933 0.612-1.637-0.182 1.27-0.858 2.164-1.226 3.27-0.65 1.22-1.674 2.47-2.25 3.68-0.778 0.748-1.06 1.045-1.838 1.43-0.922-0.136-1.343-0.483-2.045-0.815-0.4-0.588-0.877-0.93-1.226-1.84-0.646-0.912-0.805-1.32-0.818-2.658 0-0.824 0.066-2.25 0-2.453-0.085-0.26-1.075-3.825-1.335-3.91m-0.09 0c-0.318 0.204-1.66 0.588-2.657 0.612h-3.68c-1.195-0.11-1.084-0.56-1.433-1.43-0.37-1.082-0.546-1.966-0.612-3.07-0.178-0.987-0.694-1.082-0.82-1.935-0.59 0.38-0.62-0.117-1.633 0.098-1.407 0.215-2.535 0.514-3.886 0.816-1.263 0.175-2.405 0.395-3.68 0.41-1.19 0-2.12 0.114-2.656-0.614-0.342-0.686-0.397-1.637-0.408-2.657 0-1.15 0.127-2.262 0.408-3.068 0.418-0.776 0.96-1.602 1.634-2.25 0.384-0.56 0.872-1.048 1.434-1.43 0.42-0.62 0.948-0.852 1.226-1.634 0.49-0.405 0.737-1.033 1.023-1.637" fill="none"/>
<path stroke-linejoin="round" stroke-width=".99341" d="m188.51 302.25c0.367 0.085 3.085 0.69 3.692 1.128 1.004 0.56 1.396 1.195 2.042 1.84 0.323 0.682 0.538 1.305 0.82 2.248 0.155 0.78 0.203 1.817 0.203 2.864-0.382 0.628-0.742 1.674-1.023 2.453-0.42 0.623-0.797 1.03-1.634 1.43-0.986 0.76-2.69 1.442-4.09 2.046-0.944 0.112-1.83 0.204-2.862 0.204-1.022 0-2.148 0.618-3.17 0.618-0.99 0-2.403-0.128-3.066 0.204-0.302 0-0.156 0.047-0.41-0.204m38.56 5.91c-0.082 0-0.644 0.657-1.226 1.02-0.483 0.816-0.684 1.293-1.227 2.25-0.353 0.956-0.54 1.692-0.613 2.66v2.86c0.01 1.073 0.204 1.547 0.204 2.657v5.726-2.86 2.86m5.31-14.32c0 0.412-0.247 3.78-0.003 4.51 0.066 1.24 0.416 1.934 0.818 2.86 0.64 0.497 1.486 1.633 2.25 2.454 0.614 0.618 1.236 1.002 2.248 1.227 1.185 0.237 2.125 0.41 3.065 0.207 0.77-0.336 1.945-0.996 2.864-1.433 0.42-0.91 1.025-1.94 1.43-3.065 0.35-1.08 0.377-2.194 0.41-1.842 0.433 0.353 1.246 1.325 1.636 1.84 0.866 0.523 1.716 1.138 2.453 2.044 0.766 0.853 2.003 0.57 3.174 0.61" fill="none"/>
<path stroke-linejoin="round" stroke-linecap="round" fill="none" d="m222.47 340.77c0-0.07 2.408 3.086 3.277 3.086 0.946 0.236 2.016 0.374 3.068 0.41 1.255-0.015 2.22-0.328 3.27-0.818 0.852-0.9 0.613-2.24 0.613-3.68v-3.067c-0.023-0.837-0.28-1.494-0.407-2.25 0.188 1.328 0.827 2.433 1.227 3.68 0.455 0.986 1.886 4.597 3.27 4.81 0.626 0.76 1.228 0.367 1.84-0.515 1.107-0.726 1.39-4.13 1.84-4.703 0-0.575 0.15-0.533 0.205-1.023" stroke-width=".99341"/>
<path stroke-linejoin="round" stroke-width=".99341" d="m222.05 348.53c0 0.07 1.59 1.406 2.67 2.055 1.117 0.843 1.295 1.023 2.66 1.023 0.924-0.175 1.294-0.887 2.042-1.637 1.043-1.018 1.284-1.832 1.022-3.27-0.04-1.115-0.344-2.896-0.612-2.45 0.472 0.617 0.91 1.517 1.227 2.04 0.42 0.622 0.72 1.06 1.633 1.226 0.538 0.455 1.314 0.747 2.25 0.818 0.495 0.37 1.13 0.244 1.43-0.204 0.69-0.31 1.202-0.62 1.637-1.022 0.196-0.65 0.538-1.05 0.816-1.635" fill="none"/>
<path stroke-linejoin="round" stroke-linecap="round" fill="none" d="m237.6 347.73v0.204c0-0.55-0.014-0.273 0.203 0.816 0.07 1.184 0.207 2.223 0.207 3.476-0.297 1.225-0.49 2.11-1.227 2.862-0.694 0.347-1.92 0.188-2.863 0-1.235-0.556-4.46-2.87-4.906-3.883-0.302-0.176 2.667 2.068 3.067 2.656 0.462 0.71 0.8 1.237 1.02 2.045 0.2 0.594 0.343 1.9 0.208 2.247-0.17 1.116-0.56 1.084-1.433 1.433-0.885 0.22-1.86 0.204-2.86 0.204-0.913-0.124-1.424-0.418-2.25-0.614l-0.31-0.207" stroke-width=".99341"/>
<path stroke-linejoin="round" stroke-width=".99341" d="m241.49 356.71v1.024c-0.238 0.942-0.347 1.787-0.614 2.452-0.202 1.15-0.698 1.202-1.432 1.84-0.906 0.225-1.936 0.24-2.657 0-1.29-0.773-1.964-1.187-2.862-2.25-0.898-0.897 0.384 0.515 0.818 1.228 0.708 0.625 1.126 1.07 1.227 2.25 0.243 1.22 0.29 1.737-0.41 2.452-0.507 0.726-1.272 1.094-2.454 1.43h-2.862c-1.08-0.24-0.975-0.556-1.43-1.226m15.64-3.04c0.05 0.39-0.015 2.113-0.103 3.067-0.792 1.317-0.79 1.375-2.25 1.84-1.178 0.16-2.394 0.205-3.68 0.205-0.862-0.302-1.493-0.882-2.044-1.84-0.805-0.605-0.254 0.237 0 0.818 0.427 1.107 0.787 1.827 1.023 3.067 0.07 0.845 0.52 1.105-0.408 1.227-1.033 0.29-2.114 0.408-3.272 0.408-0.892-0.122-1.896-0.096-2.662-0.305" fill="none"/>
<path stroke-linejoin="round" stroke-width=".99341" d="m237.39 369.72c0.075 0.353 0.467 1.044 1.026 1.534 0.408 0.85 0.953 1.198 1.634 1.635 0.72 0.407 1.242 0.802 2.045 1.02 1.134 0 1.627-0.213 2.453-0.407 1.232-0.42 1.272-0.635 1.84-1.433 0.393-0.638 0.687-1.08 0.817-2.042 0.294-0.588 0.2-1.656 0-2.25-0.082-1.08-0.537-1.448-0.816-2.248-0.29-0.098-0.384-0.82-0.617-1.13m-36.38-48.77c-0.07 0.07-0.135 0.138-0.204 0.204 0.485-0.485 0.286-0.252-0.818 0.41-0.996 0.268-1.402 0.583-1.84 1.227-0.93 0.514-1.578 0.972-1.84 2.045v2.86c-0.222 0.746-0.204 2.015-0.204 3.07 0 1.11-0.13 2.03-0.204 3.064 0.143 0.667 0.54 1.624 0.31 2.254-0.077-0.893-0.514-2.093-0.514-3.07-0.373-0.543-0.784-1.754-1.226-2.25-0.59-0.51-1.195-0.736-2.25-1.022-1.088-0.363-1.81-0.225-2.452 0.408-0.47 0.49-1.036 1.3-1.434 2.25-0.222 1.123-0.572 1.745-0.612 2.86-0.23 1.073-0.407 1.722-0.203 2.66v3.065c0 0.955 0.206 2.22 0.206 3.175-0.13 1.512-0.49-0.236-0.82-0.72-0.22-1.026-0.442-1.86-1.023-2.454-0.514-0.62-1.364-0.815-2.453-0.815-1.043 0-1.626-0.244-1.838 0.612-0.302 0.604-0.355 1.976-0.41 2.864v5.723c-0.176-1.086-0.6-1.58-1.227-2.453-0.714-0.82-1.283-1.04-2.658-1.227-1.336-0.323-1.995-0.198-3.068 0.41-1.028 1.005-1.706 1.347-1.84 2.454-0.414 0.5-0.502 1.438-0.613 2.25v3.064c0 0.57-0.842-0.62-1.43-1.43-0.686-0.943-1.094-1.184-2.25-1.226-0.783 0.403-2.343 1-3.064 1.634-0.522 0.422-0.41 1.102-0.41 2.046v2.863c-0.056 0.71-1.118 0.71-1.635 0.204-0.756-0.372-1.753-0.886-2.656-1.02-0.78-0.37-1.428-0.454-2.045-0.205-0.32 1.033-0.616 1.85-0.616 3.065-0.312 0.84-0.408 1.454-0.408 2.453" fill="none"/>
<path stroke-linejoin="round" stroke-width=".99341" d="m214.5 322.38c-0.07 0 2.744-0.926 2.675-0.926 0.572 0-2.612 0.9-3.698 1.335-0.827 0.3-1.72 1.196-2.453 2.044-1.683 1.502-3.72 3.765-5.317 5.52-1.478 1.484-2.53 2.5-3.476 4.088-2.04 1.62-3.554 3.17-5.313 5.113-1.878 1.404-3.733 2.753-5.52 4.292-1.79 0.895-3.373 1.698-5.317 2.453-1.738 0.58-3.238 1.35-4.907 2.045-0.887 0.69-1.396 0.99-2.453 1.43-1.61 0.925-3.45 1.635-4.702 2.454-0.612 0.414-1.036 0.968-2.045 1.432-0.644 0.752-1.49 1.06-2.453 1.634-1.118 0.403-2.305 0.798-3.68 1.227-1.417 0.485-2.296 0.89-3.68 1.43-3.758 1.317-7.602 2.827-11.448 3.476-1.102 0.402-2.213 0.735-3.27 0.817-1.553 0.562-3.48 0.59-5.112 0.82-1.047 0.275-2.36 0.608-3.27 0.815-1.053 0.29-2.08 0.535-2.863 0.82-1.05 0.12-2.226 0.42-3.067 0.613-0.996 0.294-1.42 0.59-2.25 0.816-0.465 0.406-2.404 1.96-2.87 2.36m57.06-51.65c0.12 0.392 0.41 1.63 0.41 2.66-0.167 0.974-0.365 2.193-0.818 2.86-0.366 0.917-1.54 1.78-2.25 2.453-0.82 0.18-1.554 0.347-2.452 0.615-1.055 0.077-3.444 2.384-4.61 2.47-0.68 0.134-1.523 0.2-2.456 0.2-0.29-0.307-0.39-0.132-0.816-0.302 0.687 0.49 0.477 0.658 0.612 1.734 0 1.09 0.763 2.177 0.62 3.17-0.25 1.21-1.295 2.676-2.14 3.153-1.033 0.64-1.942 1.036-3.068 1.433-1.007 0.035-1.814 0.204-2.86 0.204-0.682 0-1.22-0.037-1.638-0.204m32.3-26.78v1.23c0.268 1.34 0.464 2.275 1.43 3.27 0.684 0.918 1.776 1.636 2.862 2.25h3.068c0.736-0.127 2.376 0.128 3.18 0.104m-8.1-0.09c-0.07 0.067 0.48-0.174 0.413-0.106 0.51-0.514-0.34 0.045-1.436 0.922-1.232 1.047-1.762 1.508-2.045 3.068 0.016 1.174 0.265 1.51 0.615 2.25 0.257 0.91 0.755 1.753 1.43 2.248 0.273 0 0.204 0.07 0.204-0.204m-12.56-3.28c0 0.097 0.96 0.5 1.332 1.022 1.044 0.665 2.37 1.85 3.68 2.657 1.274 0.423 2.458 0.118 3.68-0.41 0.813-0.214 1.414-0.508 2.044-1.226l0.207-0.206" fill="none"/>
<path stroke-linejoin="round" stroke-width=".99341" d="m188.75 325.45c-0.538 0.95-1.35 1.52-1.433 2.657 0 1.048 0.137 1.946 0.41 2.658 0.382 0.707 0.83 1.82 1.43 2.453 0.374 0.613 0.758 1.13 1.227 1.432-0.363-1.004-1.282-1.783-2.25-2.657-0.375-0.43-0.817-0.612-1.225-0.204-1.05 0.075-1.763 0.337-2.454 0.615-1.15 0.4-2.114 0.933-2.86 1.43-0.75 0.774-0.82 1.2-0.82 2.454-0.098 1.297-0.204 2.545-0.204 3.882 0.315 0.26 0.38 0.453 0.408 1.023-0.222-0.858-0.675-2.193-1.226-2.86-0.49-0.687-0.846-0.806-2.046-0.82-1.038 0.19-1 0.702-1.634 1.227-0.62 0.898-1.05 1.18-1.43 2.25-0.5 1.165-0.615 2.15-0.615 3.475 0.272 0 0.613 2.127 0.613 1.854" fill="none"/>
<path stroke-linejoin="round" stroke-width=".99341" d="m179.53 325.45v0.204c0-0.546 0.04-0.26-0.614 0.612-0.283 0.962-0.408 1.494-0.408 2.66 0.154 1.18 0.59 1.796 0.82 2.86 0.8 0.954 1.117 1.397 2.04 1.842 0.282 0.28 0.645 0.38 0.82 0.204m-8.38-1.04h-0.205c0.053 0.135 0 0.91 0 1.43 0 0.978-0.082 2.01 0.204 2.864 0.203 0.832 1.355 1.147 1.845 1.637m-12.46-0.82c0 0.07 0.41-0.48 0.41-0.413 0-0.57-0.386 0.35-0.818 1.435-0.964 1.147-1.67 2.05-2.864 3.272-1.255 0.39-2.05 1.15-3.27 2.044-1.334 0.755-2.632 1.192-3.885 1.84-1.37 0.573-2.955 0.99-4.498 1.43-1.373 0.505-2.97 0.88-4.498 1.022-1.038 0.357-2.185 0.61-3.27 0.818-1.274 0.443-2.675 0.972-3.886 1.43-0.942 0.327-1.464 0.515-2.25 1.023-1.23 0.424-2.428 1.243-3.68 1.84-0.447 0.542-1.67 1.29-2.452 2.044-1.275 0.684-2.577 1.845-3.884 2.454-1.507 0.962-3.013 1.754-4.702 2.25-1.348 0.64-2.67 1.117-3.885 1.84-0.92 0.625-1.86 1.523-2.862 2.25-0.623 0.916-1.41 1.6-2.25 2.248-0.66 1.224-1.743 2.165-2.656 3.065-0.545 0.37-1.176 0.962-1.636 1.434-0.627 0.647-1.23 1.224-1.84 1.635-0.6 0.744-0.937 1-1.84 1.43-0.56 0.578-1.258 0.745 0 0.82 1.17-0.374 2.595-0.377 3.885-0.41 1.27-0.274 2.746-0.417 4.09-0.613 1.14-0.146 2.486-0.37 3.883-0.408 1.488 0.25 3.678-0.4 5.316-1.023 1.342-0.794 2.583-1.504 3.885-2.248 0.745-0.52 1.39-0.752 2.247-1.227 0.742-0.2 1.438-0.606 2.25-0.818m40.47-31.89c0 0.252 0.085 1.465 0.204 2.045 0.395 1.263 0.92 2.233 1.84 3.064 0.71 0.42 2.184 0.308 3.376 0.308m-9.72-4.38c-0.162 0-0.1 0.483-0.408 1.023 0 1.054 0.143 2.133 0.408 2.86 1.353 0.634 2.286 0.944 3.883 1.024 0.975-0.075 1.523-0.324 2.25-0.612 0.638-0.133-0.215 0.492-0.82 1.02-0.855 0.858-1.242 1.584-0.815 2.863 0.43 0.896 3.743 2.02 4.313 2.562" fill="none"/>
<path stroke-linejoin="round" stroke-width=".99341" d="m160.11 341.8c-0.207 0.953-0.236 1.504 0.41 2.245 0.557 0.46 1.384 0.41 2.454 0.41 1.822-0.097 3.486-0.41 5.314-0.41 0.862 0-0.706 0.117-1.022 0.207-1.028 0.36-1.557 0.474-2.25 1.02-1.09 0.448-1.64 0.96-2.656 1.84-0.41 0.61-0.59 1.403-0.204 2.046 0.403 0.594 0.912 1.02 1.635 1.43 0.765 0.594 0.948 0.923 2.045 1.023h0.408" fill="none"/>
<path stroke-linejoin="round" stroke-linecap="round" fill="none" d="m157.36 343.65c-0.095 0.387-0.514 1.02-0.514 2.04 0.085 1.09 0.35 1.38 1.023 1.84 0.56 0.46 1.385 0.41 2.453 0.41h1.226c-0.583 0.34-1.5 0.447-2.042 0.815-0.644 0.44-0.96 0.845-1.227 1.84-0.016 1.143-0.196 1.562 0 2.658 0.445 0.835 0.694 1.45 1.227 2.25 0.4 0.588 2.432 1.782 3.18 2.047m-10.96-10.64c-0.187 0.86-0.12 1.555 0 2.453 0.483 0.54 0.85 1.24 1.43 1.634 0.577 0.476 2.4 0.187 3.484 0.2 0.86 0.025 1.338 0.205 0.204 0.205-0.546 0.522-2.17 1.163-2.46 2.254-0.294 0.587-0.2 1.652 0 2.248 0.08 1.04 0.386 1.415 0.613 2.247 0.55 0.574 0.8 0.892 1.635 1.23l-1.635-1.23c0.55 0.574 0.8 0.892 1.635 1.23v0.203c-0.11-0.255-0.183-0.464-0.408-0.615" stroke-width=".99341"/>
<path stroke-linejoin="round" stroke-linecap="round" fill="none" d="m145.09 348.45c-0.49 0.73-0.77 0.98-0.514 1.94 0.534 0.746 1.093 1.536 1.84 2.045 1.186 1.078 7.618-0.456 8.533-0.318 0.278 0.28-7.793 1.592-8.33 3.383-0.22 0.73-0.303 1.952 0 2.863 0.015 1.175 0.264 1.51 0.614 2.25 0.282 0.594 0.49 0.996 1.227 1.227-0.273 0-0.205 0.066-0.205-0.207" stroke-width=".99341"/>
<path stroke-linejoin="round" stroke-linecap="round" fill="none" d="m137.22 350.99c-0.29 0.897 0.057 1.305 0.408 2.047 0.49 0.733 1.338 1.68 2.045 2.145 0.413 0.24 7.118-0.312 6.995-0.312-0.752 0.262-6.887 1.843-8.017 2.46-0.422 0.822-0.408 1.52-0.408 2.658 0.082 1.073 0.158 1.534 1.022 1.84 0.577 0.287 1.7 0.35 2.453 0.41l1.442 0.31" stroke-width=".99341"/>
<path stroke-linejoin="round" stroke-linecap="round" fill="none" d="m131.5 353.35c0 0.224-0.334 1.204-0.208 1.938 0.287 0.67 0.137 1.113 0.613 1.43 0.174 0.986 0.46 1.65 1.432 1.842 1.07 0 1.895 0.05 2.453-0.41 0.842-0.37 1.343-0.69 2.044-1.02l-2.044 1.02c0.842-0.37 1.343-0.69 2.044-1.02l3.81-1.134c-0.63 0.458-4.675 2.103-5.445 2.36-0.576 0.548-1.044 0.638-1.227 1.634-0.12 0.898-0.187 1.593 0 2.453 0.528 0.504 0.972 0.95 1.43 1.43" stroke-width=".99341"/>
<path stroke-linejoin="round" stroke-width=".99341" d="m127.2 356.1c-0.105 0.236-0.613 1.147-0.613 2.043 0.1 1.096 0.428 1.282 1.023 2.045h2.862c0.796 0.143 3.106-0.827 3.998-0.827-0.897 0.196-3.135 1.404-3.59 2.053-0.55 0.22-0.55 0.55-0.613 1.227-0.316 0.53-0.195 1.51 0 2.045 0.386 0.567 0.842 1.068 1.227 1.634" fill="none"/>
<path stroke-linejoin="round" stroke-width=".99341" d="m122.09 358.96c0 0.302 0.077 1.63 0.205 2.25 0.79 0.61 1.286 1.017 2.25 1.634 1.003 0.04 5.15-1.853 6.26-1.853 0.793 0-4.012 2.175-4.217 2.262-0.412 0.67-0.735 0.977-0.818 2.045-0.372 0.62-0.113 1.552 0 2.246 0.328 0.507 0.66 0.756 1.227 1.023-0.272 0-0.204 0.07-0.204-0.203" fill="none"/>
<path stroke-linejoin="round" stroke-width=".99341" d="m116.77 361.64c0 0.07 0.013-0.065-0.205 1.023-0.402 0.535-0.05 1.036 0.408 1.434 0.587 0.79 1.527 0.98 2.453 1.226 0.915 0.162 1.847 0.204 2.864 0.204 0.773 0 3.703-1.923 4.107-2.265-0.676 0.273-3.98 2.403-4.924 2.673-1.145 0.525-1.452 0.964-1.84 2.045 0.043 1.166 0.363 1.447 0.818 2.25 0.413 0.765 2.185-0.062 2.87 0.394" fill="none"/>
<path stroke-linejoin="round" stroke-width=".99341" d="m112.89 364.9v0.203c0-0.6 0.035-0.262-0.613 0.82-0.207 0.95-0.27 1.482 0.41 2.044 0.5 0.74 0.85 1.078 1.84 1.226 0.32 0.138 5.325-2.678 5.86-2.678-0.805 0.55-6.442 3.802-6.883 4.723-0.387 0.8-0.41 1.476-0.41 2.454m-5.51-3.47c0 1.07-0.05 1.894 0.41 2.453 0.112 0.935 2.08 1 2.772 1.327" fill="none"/>
</g>
</svg>
