<svg id="belarus_flag" viewBox="0 0 1098 549" xmlns="http://www.w3.org/2000/svg" xmlns:xlink="http://www.w3.org/1999/xlink">
<rect width="1098" height="549" fill="#C8313E"/>
<rect y="366" width="1098" height="183" fill="#4AA657"/>
<rect width="122" height="549" fill="#FFF"/>
<g id="h">
<g id="q" fill-rule="evenodd" transform="scale(5.3043 9)" fill="#C8313E">
<path d="m4 0h3v1h1v1h1v1h1v1h1v1h-1v1h-1v1h-1v1h-1v1h-1v1h-1v-1h-1v-1h-1v-1h-1v-1h-1v-1h-1v-1h1v-1h1v-1h1v-1h1zm1 2h1v1h1v1h1v1h-1v1h-1v1h-1v-1h-1v-1h-1v-1h1v-1h1zm0 2h1v1h-1zm-5-3h1v1h-1zm0 6h1v1h-1zm11-7h0.6v2h-0.6zm0 7h0.6v2h-0.6zm-9 2h1v1h1v1h1v1h-1v1h-1v1h-1v-1h-1v-1h-1v-1h1v-1h1zm0 2h1v1h-1zm6-2h1v1h1v1h1v1h-1v1h-1v1h-1v-1h-1v-1h-1v-1h1v-1h1zm0 2h1v1h-1zm-8 4h1v1h-1zm11-1h0.6v2h-0.6z"/>
<path d="m0 18h1v-1h1v-1h1v-1h1v-1h1v-1h1v1h1v1h1v1h1v1h1v1h1v1h0.6v4h-0.6v1h-1v1h-1v1h-1v1h-1v1h-1v2.6h-2v-0.6h-1v-1h-1v-1h-1v-1h-1v-3h1v1h1v1h1v1h1v-1h1v-1h1v-1h1v-1h1v-1h1v-1h-1v-1h-1v-1h-3v1h2v1h-1v1h-1v1h-1v-1h-1v-1h-1v-1h-1zm0 4h1v1h-1zm11 3h0.6v1h-0.6zm-2 2h1v1h1v1h0.6v1.6h-0.6v-0.6h-1v-1h-1zm-2 3h1v0.6h-1z"/>
</g>
<use xlink:href="#q" transform="translate(122) scale(-1 1)"/>
</g>
<use xlink:href="#h" transform="translate(0,549) scale(1,-1)"/>
</svg>
