<svg id="belize_flag" xmlns="http://www.w3.org/2000/svg" viewBox="0 0 640 480">
<defs>
<clipPath id="a">
<path d="m0 0h640v480h-640z" fill-opacity=".67"/>
</clipPath>
</defs>
<g clip-path="url(#a)">
<path fill="#c60000" d="m-40 0h720v480h-720z" fill-rule="evenodd"/>
<path fill="#003bb2" d="m-40 68.57h720v342.86h-720z" fill-rule="evenodd"/>
<path fill="#fff" d="m457.14 240c0 75.743-61.403 137.14-137.14 137.14-75.743 0-137.14-61.402-137.14-137.14 0-75.743 61.402-137.14 137.14-137.14 75.743 0 137.14 61.403 137.14 137.14z" fill-rule="evenodd"/>
<g stroke="#000" fill-rule="evenodd">
<path stroke-width="3.75" fill="#030" d="m0 318.04c6.927 1.02 14.39 1.206 23.312 0 7.405 1.994 12.863 5.647 18.317 8.326 3.056 5.665 7.338 14 11.655 18.316 1.874 6.872 4.64 9.755 8.326 16.652 0.92 6.795 3.183 13.617 0 19.98-3.795 4.746-9.757 7.516-14.985 9.992-6.902 3.688-10.937 5.046-19.982 6.66-7.444 1.33-15.03 1.666-23.312 1.666-8.012-1.43-14.19-2.757-21.646-3.33-7.414-1.324-15.898-2.007-23.312-3.33-4.813-2.816-11.026-5.127-16.65-6.66-3.908-3.726-9.56-7.954-14.987-11.657-4.19-7.502-8.004-10.206-11.656-16.652-3.318-4.876-4.892-11.17-4.997-19.98 2.625-5.345 6.96-10.53 9.99-14.987 5.198-3.433 11.073-7.99 18.317-11.656 9.784-0.346 13.604-3.214 23.312-3.33h24.977c5.65 0.565 8.44 5.583 13.32 9.99z" transform="matrix(.199 0 0 .1704 345.24 141.57)"/>
<path stroke-width="1pt" fill="#520900" d="m273.08 659.39c-6.66-38.298-16.652-133.21-16.652-174.84 1.665-31.64 121.56-139.87 124.89-151.53 3.33-11.656 64.94-99.91 74.93-126.55-24.976 18.316-66.605 98.243-74.93 106.57-8.326 8.326 18.316-83.257 9.99-111.56-8.325 33.303-21.646 118.22-31.637 126.55-4.994 4.996-91.582 104.9-101.57 101.57-9.99-3.33-36.632-19.98-31.636-29.972 4.995-9.99 71.6-71.6 74.93-93.248s8.327-73.266 14.987-78.26c6.662-4.997 16.653-29.974 24.978-49.956-21.646 9.99-24.977 39.964-33.302 41.63-8.326 1.664-28.308-33.304-28.308-33.304s13.32 38.298 14.986 46.624c1.666 8.326-6.66 63.275-11.656 69.936-4.995 6.66-41.628 53.284-48.29 54.95-6.66 1.665-24.976-76.597-24.976-91.583s13.32-73.266 0-76.597c-8.326 0-9.99 68.27-14.986 68.27s-16.652-68.27-16.652-68.27-6.66 31.638-3.33 53.284c-9.99 1.666-36.633-39.962-36.633-39.962s49.955 86.587 59.947 89.917c9.99 4.994 19.98 68.27 18.316 71.6s-49.954-16.65-59.945-23.312c-9.99-6.66-29.973-79.927-29.973-79.927s9.99 71.602-1.665 61.612c-11.656-9.99-29.972-18.317-39.963-33.303-9.99-14.987-4.995-76.598-4.995-76.598s-16.65 54.95-23.312 54.95c-6.66 0-28.307-73.266-28.307-73.266s3.33 79.927 13.32 84.922c9.99 4.995 159.85 104.9 161.52 114.9 1.666 9.99 19.983 48.288 29.974 59.944-1.666 21.647 6.66 161.52 9.99 194.82l29.973 9.99z" transform="matrix(.199 0 0 .1704 278.92 126.25)"/>
<path stroke-width="3.75" fill="#030" d="m-338.02 133.21c1.85 6.416 2.528 12.146 11.656 14.986 5.054 1.925 15.007 4.53 19.982 6.66 5.242 2.484 11.14 5.594 18.316 6.66 5.394 1.8 14.58 3.65 21.647 4.997 7.444 1.33 15.03 1.665 23.313 1.665 9.557-1.707 13.81-3.43 19.98-8.326 1.852-6.786 4.344-9.832 4.997-18.317 0.567-7.944 1.665-14.82 1.665-23.31-1.54-4.624-1.79-15.36-3.33-19.983-5.577-5.466-7.05-8.65-16.652-11.656-7.476-3.382-14.307-3.33-23.312-3.33-6.96 2.32-15.343 1.665-23.31 1.665h-23.312c-6.973 1.517-12.292 2.763-18.317 6.66-8.132 3.674-9.337 6.318-13.32 14.988-2.934 8.8-3.036 15.415 0 26.642z" transform="matrix(.199 0 0 .1704 343.25 135.9)"/>
<path stroke-width="3.75" fill="#030" d="m-329.7 191.49c0-2.78-6.02 2.69-8.326 4.995-5.392 3.774-7.647 8.815-8.326 18.317-2.502 5.19 0 13.714 0 21.646 0 9.18 0.062 15.585 4.996 19.982 5.598 3.445 8.29 4.995 18.316 4.995h46.624c5.896-1.965 13.09-2.953 19.982-4.995 7.705-4.085 13.07-4.517 21.646-6.66 4.883-4.238 11.635-8.6 19.982-9.99 9.547-0.456 15.257-3.79 21.647-8.327 8.217-2.054 15.636-6.365 21.648-9.99 4.837-3.29 8.31-7.416 11.656-13.322 3.396-7.924 4.482-12.894-1.665-21.646-12.144-4.415-6.11-9.19-14.988-13.32-4.062-2.454-13.524-5.674-18.316-8.327-8.293 0.615-14.192 2.68-23.312 3.33-4.71 2.356-14.368 1.666-21.647 1.666h-26.642c-7.968 0-16.35-0.656-23.312 1.665-6.667 1.818-9.985 4.842-16.65 6.66-4.394 2.987-11.508 5.41-16.653 8.326l16.652-8.326c-4.393 2.987-11.507 5.41-23.312 13.322z" transform="matrix(.199 0 0 .1704 342.26 137.6)"/>
<path stroke-width="3.75" fill="#030" d="m-186.5 49.95c3.314 0-5.2 3.98-8.326 6.66-4.01 7.063-4.474 13.422-6.66 19.98-2.566 5.773-5.727 13.067-6.66 19.983-3.14 7.494-4.88 10.226-4.997 19.982 0 7.677-0.09 16.38 1.665 21.646 5.05 6.363 9.9 9.977 18.317 14.987 7.206 2.495 12.49 3.984 19.98 4.996h23.313c5.267 1.756 13.97 1.665 21.646 1.665 8.492-3.172 11.708-7.208 19.98-8.326 9.116-0.828 10.688-4.642 14.987-11.656 3.998-5.168 5.674-11.013 6.66-18.316 0-8.4-0.75-15.628-1.665-23.312-4.006-4.494-7.052-10.696-9.99-18.316-5.146-8.82-5.152-12.74-13.32-16.65-3.977-5.43-10.85-8.07-14.988-11.657-8.65-0.618-15.218-1.694-21.646-4.995-7.678 0-16.38-0.09-21.647 1.665-6.03 0-10.446 0.57-16.65 1.665z" transform="matrix(.199 0 0 .1453 343.92 141.04)"/>
<path stroke-width="3.75" fill="#030" d="m-58.28 64.935c-0.987 0-4.077 4.824-6.66 9.99-4.344 6.916-4.925 13.316-8.326 18.317-1.33 7.443-1.665 15.028-1.665 23.312 0.754 8.314 3.195 11.323 8.324 14.987 7.713 4.38 11.367 6.412 19.982 8.326 7.447 0.573 12.8 1.665 21.647 1.665 7.968 0 16.35 0.657 23.312-1.664 8.283 0 15.87-0.336 23.312-1.665 3.823-3.24 12.04-6.14 16.65-8.324 5.483-6.642 8.107-13.245 11.657-18.317 0-9.823 0.078-15.565-4.995-23.313-3.622-6.388-7.962-9.32-13.323-14.986-6.718-2.336-12.38-7.195-19.982-8.325h-69.935z" transform="matrix(.199 0 0 .1704 342.59 135.33)"/>
<path stroke-width="3.75" fill="#030" d="m76.596 76.59c-6.286 2.62-8.59 3.3-11.656 9.992-4.62 7.115-7.342 10.462-11.656 14.986-0.99 6.664-3.643 13.88-6.66 18.317-0.915 7.684-1.666 14.913-1.666 23.312 4.222 6.486 10.085 12.603 16.65 16.65 6.792 2.352 13.95 5.933 19.983 8.327 7.767 2.033 14.952 4.398 23.313 4.995 7.217 1.804 15.164 1.664 23.312 1.664 7.404-1.61 13.75-3.478 19.98-8.325 3.334-5.197 7.157-11.046 8.327-19.983 2.754-8.263 0.54-19.06-3.33-26.642-2.04-7.477-5.016-10.373-13.32-14.987-4.596-4.854-10.703-10.322-14.988-13.32-5.28-4.585-12.142-5.154-19.98-8.327-8.493-1.886-11.338-4.33-19.983-4.994l19.983 4.995c-8.488-1.885-11.333-4.33-28.304-6.66z" transform="matrix(.199 0 0 .1704 340.6 141.85)"/>
<path stroke-width="3.75" fill="#030" d="m-51.62 146.53c-7.617 3.463-11.16 7.635-16.65 13.32 0 8.847 1.092 14.2 1.665 21.648 3.466 4.734 7.144 14.25 9.99 18.316 2.173 6.812 6.922 12.137 9.992 16.652 7.69 3.112 15.495 5.44 23.312 8.325 9.197 0 15.097 2.06 23.31 3.332 6.963 2.32 15.345 1.665 23.313 1.665 8.147 0 16.094-0.14 23.312 1.665 7.703 1.37 13.396 4.36 21.647 4.995 4.74-0.45 13.136-1.138 19.982-1.665 7.667-3.485 10.982-5.707 14.987-11.656 3.753-4.542 3.33-11.267 3.33-19.98 1.603-8.973 2.093-15.008-1.664-23.313-0.108-8.96-1.817-13.172-3.33-21.647-3.006-6.01-5.647-8.65-11.657-11.656-5.465-3.808-12.864-5.998-18.317-9.99-7.433-0.886-15.76-2.05-21.647-3.33-6.51-4.342-11.933-6.546-21.647-6.662-9.515-1.132-13.997-2.263-21.648 1.665-7.99 0.57-15.15 2.17-19.982 4.996-6.144 0.47-15.283 0.98-19.982 3.33-7.414 0-9.987 1.287-16.65 1.664l16.65-1.665c-7.414 0-9.987 1.287-18.316 9.99z" transform="matrix(.252 0 0 .132 337.9 146.95)"/>
<path stroke-width="3.75" fill="#030" d="m-123.22 278.07c-4.3-0.632-17.278-1.665-26.642-1.665-8.747 0-15.86 0.58-23.312 3.33-7.975 1.537-13.883 4.047-19.982 6.66-5.053 2.394-10.953 4.83-14.986 8.326-4.955 3.37-9.13 6.336-13.32 13.322-4.477 6.422-4.945 10.56-8.327 18.317v23.31c0.588 7.634 1.64 14.23 4.996 21.648 5.022 4.017 11.977 5.282 18.317 6.66 6.03 1.31 13.875 2.775 21.647 3.33 9.24 0 14.16 0.466 21.646 3.33 9.747-0.36 11.606-2.627 19.982-6.66 9.314-3.692 14.86-5.06 23.312-9.99 5.173-4.08 8.578-10.985 11.656-18.317 4.69-7.574 7.91-14.885 11.656-21.646 1.804-7.218 1.665-15.164 1.665-23.312-2.22-6.258-5.752-8.905-9.99-14.986-4.617-5.05-6.673-8.946-9.992-13.32l9.99 13.32c-4.615-5.05-6.67-8.946-18.315-11.656z" transform="matrix(.199 0 0 .1704 344.25 138.73)"/>
<path stroke-width="3.75" fill="#030" d="m0 318.04c6.927 1.02 14.39 1.206 23.312 0 7.405 1.994 12.863 5.647 18.317 8.326 3.056 5.665 7.338 14 11.655 18.316 1.874 6.872 4.64 9.755 8.326 16.652 0.92 6.795 3.183 13.617 0 19.98-3.795 4.746-9.757 7.516-14.985 9.992-6.902 3.688-10.937 5.046-19.982 6.66-7.444 1.33-15.03 1.666-23.312 1.666-8.012-1.43-14.19-2.757-21.646-3.33-7.414-1.324-15.898-2.007-23.312-3.33-4.813-2.816-11.026-5.127-16.65-6.66-3.908-3.726-9.56-7.954-14.987-11.657-4.19-7.502-8.004-10.206-11.656-16.652-3.318-4.876-4.892-11.17-4.997-19.98 2.625-5.345 6.96-10.53 9.99-14.987 5.198-3.433 11.073-7.99 18.317-11.656 9.784-0.346 13.604-3.214 23.312-3.33h24.977c5.65 0.565 8.44 5.583 13.32 9.99z" transform="matrix(.2554 0 0 .1425 350.64 136.54)"/>
</g>
<g stroke="#000" stroke-width="3.711" fill="#006a00" fill-rule="evenodd">
<path d="m200.16 613.18l4.71-7.064-12.952-2.355 9.42-9.418-12.952-4.71 12.952-9.42-12.952-7.064 14.13-5.887-7.065-11.773 14.13 2.355-5.887-14.13 16.484 7.065v-18.84l11.774 12.953 9.42-16.484 7.065 15.306 14.13-16.484 4.71 12.952 21.192-10.597-5.887 16.484 22.37-9.42-4.71 18.84 21.195-9.42-8.242 17.662 21.194 1.176-17.662 10.597 17.662 7.064-16.484 9.42 14.13 11.774c-45.136 20.802-79.674 27.474-131.87 9.42z" transform="matrix(.1647 -.0123 .0082 .1518 294.24 194.23)"/>
<path d="m200.16 613.18l4.71-7.064-12.952-2.355 9.42-9.418-12.952-4.71 12.952-9.42-12.952-7.064 14.13-5.887-7.065-11.773 14.13 2.355-5.887-14.13 16.484 7.065v-18.84l11.774 12.953 9.42-16.484 7.065 15.306 14.13-16.484 4.71 12.952 21.192-10.597-5.887 16.484 22.37-9.42-4.71 18.84 21.195-9.42-8.242 17.662 21.194 1.176-17.662 10.597 17.662 7.064-16.484 9.42 14.13 11.774c-45.136 20.802-79.674 27.474-131.87 9.42z" transform="matrix(.1647 -.0123 .0082 .1518 255.21 193.09)"/>
<path d="m200.16 613.18l4.71-7.064-12.952-2.355 9.42-9.418-12.952-4.71 12.952-9.42-12.952-7.064 14.13-5.887-7.065-11.773 14.13 2.355-5.887-14.13 16.484 7.065v-18.84l11.774 12.953 9.42-16.484 7.065 15.306 14.13-16.484 4.71 12.952 21.192-10.597-5.887 16.484 22.37-9.42-4.71 18.84 21.195-9.42-8.242 17.662 21.194 1.176-17.662 10.597 17.662 7.064-16.484 9.42 14.13 11.774c-45.136 20.802-79.674 27.474-131.87 9.42z" transform="matrix(.1647 -.0123 .0082 .1518 315.93 193.66)"/>
<path d="m200.16 613.18l4.71-7.064-12.952-2.355 9.42-9.418-12.952-4.71 12.952-9.42-12.952-7.064 14.13-5.887-7.065-11.773 14.13 2.355-5.887-14.13 16.484 7.065v-18.84l11.774 12.953 9.42-16.484 7.065 15.306 14.13-16.484 4.71 12.952 21.192-10.597-5.887 16.484 22.37-9.42-4.71 18.84 21.195-9.42-8.242 17.662 21.194 1.176-17.662 10.597 17.662 7.064-16.484 9.42 14.13 11.774c-45.136 20.802-79.674 27.474-131.87 9.42z" transform="matrix(.1602 -.0466 .031 .1476 288.98 212.41)"/>
<path d="m200.16 613.18l4.71-7.064-12.952-2.355 9.42-9.418-12.952-4.71 12.952-9.42-12.952-7.064 14.13-5.887-7.065-11.773 14.13 2.355-5.887-14.13 16.484 7.065v-18.84l11.774 12.953 9.42-16.484 7.065 15.306 14.13-16.484 4.71 12.952 21.192-10.597-5.887 16.484 22.37-9.42-4.71 18.84 21.195-9.42-8.242 17.662 21.194 1.176-17.662 10.597 17.662 7.064-16.484 9.42 14.13 11.774c-45.136 20.802-79.674 27.474-131.87 9.42z" transform="matrix(.1647 -.0123 .0082 .1518 330.39 202.72)"/>
<path d="m200.16 613.18l4.71-7.064-12.952-2.355 9.42-9.418-12.952-4.71 12.952-9.42-12.952-7.064 14.13-5.887-7.065-11.773 14.13 2.355-5.887-14.13 16.484 7.065v-18.84l11.774 12.953 9.42-16.484 7.065 15.306 14.13-16.484 4.71 12.952 21.192-10.597-5.887 16.484 22.37-9.42-4.71 18.84 21.195-9.42-8.242 17.662 21.194 1.176-17.662 10.597 17.662 7.064-16.484 9.42 14.13 11.774c-45.136 20.802-79.674 27.474-131.87 9.42z" transform="matrix(.1647 -.0123 .0082 .1518 314.01 204.42)"/>
<path d="m200.16 613.18l4.71-7.064-12.952-2.355 9.42-9.418-12.952-4.71 12.952-9.42-12.952-7.064 14.13-5.887-7.065-11.773 14.13 2.355-5.887-14.13 16.484 7.065v-18.84l11.774 12.953 9.42-16.484 7.065 15.306 14.13-16.484 4.71 12.952 21.192-10.597-5.887 16.484 22.37-9.42-4.71 18.84 21.195-9.42-8.242 17.662 21.194 1.176-17.662 10.597 17.662 7.064-16.484 9.42 14.13 11.774c-45.136 20.802-79.674 27.474-131.87 9.42z" transform="matrix(.1647 -.0123 .0082 .1518 238.82 193.09)"/>
<path d="m200.16 613.18l4.71-7.064-12.952-2.355 9.42-9.418-12.952-4.71 12.952-9.42-12.952-7.064 14.13-5.887-7.065-11.773 14.13 2.355-5.887-14.13 16.484 7.065v-18.84l11.774 12.953 9.42-16.484 7.065 15.306 14.13-16.484 4.71 12.952 21.192-10.597-5.887 16.484 22.37-9.42-4.71 18.84 21.195-9.42-8.242 17.662 21.194 1.176-17.662 10.597 17.662 7.064-16.484 9.42 14.13 11.774c-45.136 20.802-79.674 27.474-131.87 9.42z" transform="matrix(.1602 -.0466 .031 .1476 211.86 211.85)"/>
<path d="m200.16 613.18l4.71-7.064-12.952-2.355 9.42-9.418-12.952-4.71 12.952-9.42-12.952-7.064 14.13-5.887-7.065-11.773 14.13 2.355-5.887-14.13 16.484 7.065v-18.84l11.774 12.953 9.42-16.484 7.065 15.306 14.13-16.484 4.71 12.952 21.192-10.597-5.887 16.484 22.37-9.42-4.71 18.84 21.195-9.42-8.242 17.662 21.194 1.176-17.662 10.597 17.662 7.064-16.484 9.42 14.13 11.774c-45.136 20.802-79.674 27.474-131.87 9.42z" transform="matrix(.1647 -.0123 .0082 .1518 253.28 202.16)"/>
<path d="m200.16 613.18l4.71-7.064-12.952-2.355 9.42-9.418-12.952-4.71 12.952-9.42-12.952-7.064 14.13-5.887-7.065-11.773 14.13 2.355-5.887-14.13 16.484 7.065v-18.84l11.774 12.953 9.42-16.484 7.065 15.306 14.13-16.484 4.71 12.952 21.192-10.597-5.887 16.484 22.37-9.42-4.71 18.84 21.195-9.42-8.242 17.662 21.194 1.176-17.662 10.597 17.662 7.064-16.484 9.42 14.13 11.774c-45.136 20.802-79.674 27.474-131.87 9.42z" transform="matrix(.1647 -.0123 .0082 .1518 236.89 203.85)"/>
<path d="m200.16 613.18l4.71-7.064-12.952-2.355 9.42-9.418-12.952-4.71 12.952-9.42-12.952-7.064 14.13-5.887-7.065-11.773 14.13 2.355-5.887-14.13 16.484 7.065v-18.84l11.774 12.953 9.42-16.484 7.065 15.306 14.13-16.484 4.71 12.952 21.192-10.597-5.887 16.484 22.37-9.42-4.71 18.84 21.195-9.42-8.242 17.662 21.194 1.176-17.662 10.597 17.662 7.064-16.484 9.42 14.13 11.774c-45.136 20.802-79.674 27.474-131.87 9.42z" transform="matrix(-.3346 -.014 .019 -.1517 399.81 380.19)"/>
</g>
<path d="m356.34 196.48c0 22.512-18.995 6.66-38.298 6.66-19.302 0-36.632 17.517-39.962 0 0-9.19 25.655-23.312 44.957-23.312 14.308 1.666 36.634-4.196 33.303 16.652z" fill-rule="evenodd" transform="matrix(.273 0 0 .3008 278.56 210.98)" stroke="#000" stroke-width="2.5" fill="#510800"/>
<path d="m356.34 196.48c0 22.512-18.995 6.66-38.298 6.66-19.302 0-36.632 17.517-39.962 0 0-9.19 25.655-23.312 44.957-23.312 14.308 1.666 36.634-4.196 33.303 16.652z" fill-rule="evenodd" transform="matrix(-.273 0 0 .3008 369.71 209.61)" stroke="#000" stroke-width="2.5" fill="#ffc600"/>
<path d="m349.68 188.16c0 13.794-7.082 24.977-15.82 24.977-8.736 0-15.818-11.183-15.818-24.977s7.082-24.977 15.82-24.977c8.735 0 15.818 11.183 15.818 24.977z" fill-rule="evenodd" transform="matrix(.3368 0 0 .3286 277.83 205.29)" stroke="#000" stroke-width="2.5" fill="#520900"/>
<g stroke="#000" stroke-width="1pt" transform="matrix(-.6243 -.1173 -.3707 .6237 523.74 93.658)" fill-rule="evenodd">
<path fill="#af8000" d="m273.75 383.58c-2.737 4.56 42.976 12.952 57.694 22.37 14.72 9.42 14.718 10.01 21.194 14.72l1.765-2.945c-3.53-3.53-38.49-26.35-62.4-34.14-6.805-2.273-10.3-13.248-12.95-8.83l-5.3 8.83z" transform="matrix(-.7233 -.545 .52 -.758 322.39 677.92)"/>
<path fill="gray" d="m319.08 369.45l-25.315-5.887s-5.887 2.354-6.475 11.185c-0.59 8.83 4.71 14.13 4.71 14.13l27.08-9.42v-10z" transform="matrix(.8444 -.2975 .2838 .885 -89.238 -64.18)"/>
<rect transform="matrix(.8444 -.2975 .2838 .885 -19.207 -255.61)" rx="3.532" ry="3.532" height="19.428" width="7.064" y="534.62" x="175.71" fill="gray"/>
</g>
<path d="m244.77 87.42c7.322-5.948 11.157-3.72 17.65 3.1 9.322 9.815 41.317 58.855 46.312 63.019s4.24-6.418 10.344-1.388c3.032 3.727-10.437 17.026-13.737 14.57-6.412-5.022 3.914-5.376-0.355-9.645-4.925-5.133-51.215-40.497-60.282-50.57-5.92-6.578-6.314-13.97 0.067-19.088z" fill-rule="evenodd" transform="matrix(.7148 .1604 .3327 .529 132.42 68.156)" stroke="#000" stroke-width="1.25" fill="#923d09"/>
<g stroke="#000">
<path stroke-width="4.702" transform="matrix(-.1285 0 0 .2044 282 186.26)" fill="#ffc600" d="m193.63 88.25c15.546 4.423 43.275 46.12 53.766 45.79 16.652-0.48 83.233-77.56 72.564-88.252-7.4-8.246-67.94 41.192-71.852 44.126-0.67-8.6-15.95-51.042-28.31-59.945-14.62-9.31-32.21-4.158-47.82-6.662-7.3-2.843-18.84-14.056-23.78-24.976 8.182-3.544 15.323-2.48 23.31-10.65 5.68-6.643 2.382-46.914 0.37-51.06-13.29-14.268 5.43-7.327-39.023-9.082-64.268-2.446-75.878 49.582-31.653 70.792-3.462 15.928-14.22 19.594-22.94 21.646-8.776 0.106-38.825-0.763-55.545 12.49-33.403 24.55-8.925 30.903-15.352 35.8-7.168 5.642-17.863 19.825-21.883 28.305-10.472 4.996-99.485-4.995-116.5-1.664-16.42 0.965-56.467 15.818-73.15 26.64 3.565 14.143 241.51-7.602 249.27-2.496 5.946 3.345-2.705 51.237 2.01 54.95 1.66 9.062 116.54 5.828 125.6 5.828 7.558-18.86 15.39-81.558 20.926-91.583z" fill-rule="evenodd"/>
<path stroke-width="5.125" transform="matrix(-.1542 0 0 .1434 285.62 187.12)" d="m174.9-96.568c1.543 25.457-7.118 3.304-38.37 3.304-60.56-5.036-39.284 99.196-39.284 67.024-26.228-13.71-44.836-100.29 29.614-96.93 23.54 0 44.96 7.858 48.045 26.603z" fill-rule="evenodd"/>
<path stroke-width="3.75" fill="none" d="m387.98 96.574c0 1.68-0.172 7.957-0.833 11.656-0.445 3.74-1.54 8.077-2.498 10.823-0.343 4.452-2.092 5.174-2.498 9.99-1.544 2.27-2.21 5.945-2.498 9.992 0 4.27 0.686 7.558 0.833 11.656 0.48 3.56 1.612 6.367 1.665 10.824 0 4.365-0.005 7.55-1.665 9.99v5.83" transform="matrix(-.202 0 0 .2044 353.21 179.88)"/>
<path stroke-width="3.75" fill="none" d="m383.81 76.592c0.58 0 1.03 20.13 5.828 24.978 1.04 3.212 4.574 7.343 5.828 9.99 1.672 2.46 3.98 5.368 8.326 6.66h11.656c4.634 0 7.473 0.056 10.823-1.664 1.486-0.8 2.532-1.846 3.33-3.33m12.49 2.49h0.832c-2.327 0-1.092-0.104 3.33 1.665 1.726 2.537 3.77 3.625 6.66 4.996 2.983 1.468 6.392 1.666 10.824 1.666 4.198-0.354 6.74-1.686 9.16-3.33 4.042-1.31 4.814-2.936 5.827-7.494v-11.656c-0.478-3.53-1.384-6.372-2.498-9.158-0.42-1.258-0.833-0.705-0.833-2.497m34.97 31.645c-0.425 0-2.65 2.575-4.163 4.995-2.568 0.918-3.233 3.716-4.162 5.828-0.67 2.675-1.666 2.86-1.666 6.66-1.678 3.71-2.205 7.008-2.498 10.824l2.497-10.823c-1.678 3.708-2.205 7.007-2.498 10.823m-36.63-94.914h-0.833c2.25 0 1.1-0.053-3.33 0.833-1.817 2.27-4.807 4.304-7.493 5.826-2.977 1.825-5.367 4.01-8.326 4.996l8.326-4.996c-2.977 1.825-5.367 4.01-8.326 4.996m-39.13-14.986h0.833c-2.248 0-1.105-0.054 3.33 0.833 2.936 1.39 4.752 2.89 7.493 4.995 1.29 1.935 3.257 2.305 4.163 5.828 1.573 0.848 2.123 1.67 2.497 4.164m6.67-37.467h4.163c4.53 0 6.733 0.68 10.824 0.833 3.538-0.424 4.382-1.737 7.493-2.497m-6.66 104.91c0.14 0.66 1.652 4.256 2.498 5.828 1.517 2.512 3.538 4.914 4.163 8.326 0.97 2.905 1.527 6.23 1.666 9.99 0.76 3.503 1.264 6.62-0.833 9.16-0.898 3.29-2.57 5.69-4.162 9.157-1.11 0-0.832-0.277-0.832 0.834m-29.15-41.63v0.833c0-2.248 0.055-1.105-0.832 3.33-1.147 4.013-2.15 7.388-4.163 9.99-1.098 3.295-2.326 4.505-2.498 9.16 0.662 1.543 0.833 3.262 0.833 5.827m2.5 5v4.163c0.908 1.21 0.55 1.294 1.665 1.665m-70.76-46.63v0.832c0-2.327-0.258-0.936 4.163 0.833 3.572 0.638 7.937 1.037 10.823 1.665 2.672 1.312 5.265 3.48 7.493 4.995 1.993 1.728 4.818 3.48 7.493 4.996 3.004 1.503 4.325 2.824 5.828 5.83 0.908 1.21 0.55 1.292 1.666 1.664" transform="matrix(-.202 0 0 .2044 353.21 179.88)"/>
<path stroke-width="3" fill="none" d="m423.78-16.655c0.123-0.184 2.467-1.914 4.996-2.498 1.805-1.354 4.812-0.74 6.66 0" transform="matrix(-.3155 0 0 .2044 403.23 180.6)"/>
<path stroke-width="3.402" fill="none" d="m445.42-19.153h0.833c-2.248 0-1.106 0.054 3.33-0.833 3.48-1.16 7.672-0.832 11.656-0.832 1.173 0.39 0.83 0.242 0.83 1.665m-17.48 11.656v0.833c0-2.327-0.103-1.09 1.666 3.33 0.643 2.962 1.76 7.05 0.832 9.158-2.184 0-2.86-0.274-4.163-0.833" transform="matrix(-.2454 0 0 .2044 373.51 180.6)"/>
<path stroke-width="4.501" transform="matrix(-.2418 -.035 -.024 .115 350.64 199.07)" d="m371.33-24.98c0 3.218-4.1 5.827-9.158 5.827s-9.158-2.61-9.158-5.828 4.1-5.83 9.158-5.83 9.158 2.61 9.158 5.83z" fill-rule="evenodd"/>
<path stroke-width="6.528" transform="matrix(-.175 -.023 -.0174 .0756 330.5 187.51)" d="m371.33-24.98c0 3.218-4.1 5.827-9.158 5.827s-9.158-2.61-9.158-5.828 4.1-5.83 9.158-5.83 9.158 2.61 9.158 5.83z" fill-rule="evenodd"/>
<path stroke-width="6.528" transform="matrix(-.175 -.023 -.0174 .0756 325.19 187)" d="m371.33-24.98c0 3.218-4.1 5.827-9.158 5.827s-9.158-2.61-9.158-5.828 4.1-5.83 9.158-5.83 9.158 2.61 9.158 5.83z" fill-rule="evenodd"/>
<path stroke-width="3.75" transform="matrix(-.202 0 0 .2044 353.21 179.88)" d="m412.95 113.64c0 2.07-1.864 3.747-4.163 3.747-2.3 0-4.163-1.678-4.163-3.747s1.864-3.747 4.163-3.747c2.3 0 4.163 1.678 4.163 3.747zm56.62 6.25c0 1.38-1.305 2.498-2.914 2.498-1.61 0-2.914-1.12-2.914-2.498s1.305-2.498 2.914-2.498c1.61 0 2.914 1.12 2.914 2.498z" fill-rule="evenodd"/>
<path stroke-width="3.75" fill="none" d="m447.09 31.634v0.833c0-2.796 0.197-1.03-4.163 3.33-3.724 1.785-5.164 3.667-6.66 6.66-1.742 3.85-2.342 6.613-2.498 10.824v6.662m-14.16-29.143c0.577 0 1.477 2.274 2.498 4.996 1.856 2.19 3.037 5.35 3.33 9.16 0 4.517 0.78 6.452 0.833 10.823v3.33m78.27 69.931c0 0.48-2.6 1.455-4.163 3.33-3.16 0.428-5.964 0.833-9.99 0.833-0.61-0.916-1.836-1.217-3.33-1.665" transform="matrix(-.202 0 0 .2044 353.21 179.88)"/>
</g>
<g stroke="#000" stroke-width="3.75" fill="#fff" fill-rule="evenodd">
<path d="m276.41 36.63l88.253 1.665v11.655s8.325 14.987 13.32 48.29c4.996 33.303 9.992 158.19 9.992 158.19l21.646 141.54s-13.32 21.647-23.31 19.982c-9.99-1.666-39.964-13.32-39.964-14.987 0-1.665-1.665-79.926-4.995-133.21-3.33-53.285-9.99-81.592-24.976-104.9-19.982 48.288-21.647 98.243-19.982 98.243s1.665 39.963 3.33 69.936c1.666 29.972-1.665 71.6-1.665 71.6l-58.28-3.33s1.665-36.633 3.33-64.94c1.666-28.307 6.745-41.625 8.327-73.266 1.748-34.963 4.202-53.32 6.66-109.9 3.238-45.74 14.687-75.258 17.9-103.24 0.87-7.133-0.416-12.488 0.416-13.32z" transform="matrix(-.209 0 0 .1326 334.44 211.38)"/>
<path d="m316.38 166.51s-8.326-13.32-11.656-36.633-3.33-28.307-3.33-28.307m-3.33 131.55l-9.99 39.963" transform="matrix(-.209 0 0 .1326 334.44 211.38)"/>
<path d="m276.41 223.12l11.657 54.95" transform="matrix(-.209 0 0 .1326 321.91 211.6)"/>
<path d="m387.98 417.95l-11.66-81.6m-99.91-291.4l88.253 1.665m-46.62 118.22c0-1.665 4.995-29.972 4.995-29.972m-38.3-89.915l-8.326 84.922" transform="matrix(-.209 0 0 .1326 334.44 211.38)"/>
</g>
<path stroke="#006a00" stroke-width="6.25" d="m549.21 538.58c0 136.98-111.05 248.03-248.03 248.03s-248.03-111.05-248.03-248.03 111.05-248.03 248.03-248.03 248.03 111.05 248.03 248.03z" transform="matrix(.4628 0 0 .4634 181.15 -9.53)" fill="none"/>
<g stroke-width="1pt">
<path fill="#006a00" d="m446.17 215.43c14.442 12.315-2.86 24.63-10.832 24.63s-25.275-12.316-10.832-24.63c-3.61 12.315 10.832 15.394 10.832 21.552 0-6.158 14.443-9.236 10.832-21.552z" fill-rule="evenodd"/>
<path stroke="#000" transform="matrix(.2038 0 0 .1738 377.57 140.3)" d="m336.61 432.28c35.433 124.02-53.15 106.3-53.15 141.73 0-35.433-88.582-17.717-53.15-141.73" fill="none"/>
</g>
<g stroke-width="1pt">
<path fill="#006a00" d="m310.32 112.04c13.822-13.01 24.133 5.57 23.25 13.502-0.88 7.933-15.017 23.79-25.644 8.056 11.825 4.955 16.478-9.077 22.59-8.396-6.112-0.68-7.57-15.394-20.195-13.162z" fill-rule="evenodd"/>
<path stroke="#000" transform="matrix(.0225 -.2028 .1725 .0192 228.17 172.01)" d="m336.61 432.28c35.433 124.02-53.15 106.3-53.15 141.73 0-35.433-88.582-17.717-53.15-141.73" fill="none"/>
</g>
<g stroke-width="1pt">
<path fill="#006a00" d="m347.04 361.82c-10.01 16.134-24.75 0.84-25.938-7.054-1.188-7.893 8.395-26.86 22.71-14.395-12.7-1.74-13.59 13.018-19.67 13.936 6.08-0.92 11.274 12.922 22.898 7.512z" fill-rule="evenodd"/>
<path stroke="#000" transform="matrix(.0304 .2018 -.1716 .026 411.01 282.71)" d="m336.61 432.28c35.433 124.02-53.15 106.3-53.15 141.73 0-35.433-88.582-17.717-53.15-141.73" fill="none"/>
</g>
<g stroke-width="1pt">
<path fill="#006a00" d="m194.1 247.07c-13.647-13.193 4.388-24.403 12.345-23.905s24.46 13.87 9.277 25.258c4.37-12.066-9.852-16.04-9.47-22.187-0.382 6.146-14.988 8.317-12.152 20.834z" fill-rule="evenodd"/>
<path stroke="#000" transform="matrix(-.2034 -.0127 .0108 -.1734 257.89 326.33)" d="m336.61 432.28c35.433 124.02-53.15 106.3-53.15 141.73 0-35.433-88.582-17.717-53.15-141.73" fill="none"/>
</g>
<g stroke-width="1pt">
<path fill="#006a00" d="m435.47 184.24c16.876 8.673 2.853 24.63-4.908 26.458-7.76 1.83-27.42-6.188-16.18-21.49-0.697 12.817 14.066 12.5 15.475 18.495-1.41-5.994 11.945-12.304 5.612-23.464z" fill-rule="evenodd"/>
<path stroke="#000" transform="matrix(.1984 -.0468 .0398 .1692 351.5 126.86)" d="m336.61 432.28c35.433 124.02-53.15 106.3-53.15 141.73 0-35.433-88.582-17.717-53.15-141.73" fill="none"/>
</g>
<g stroke-width="1pt">
<path fill="#006a00" d="m275.64 120.38c8.96-16.74 24.645-2.42 26.335 5.382 1.69 7.8-6.665 27.342-21.745 15.818 12.785 0.924 12.73-13.86 18.74-15.166-6.01 1.305-12.074-12.175-23.33-6.033z" fill-rule="evenodd"/>
<path stroke="#000" transform="matrix(-.0432 -.1994 .1696 -.0368 216.85 203.43)" d="m336.61 432.28c35.433 124.02-53.15 106.3-53.15 141.73 0-35.433-88.582-17.717-53.15-141.73" fill="none"/>
</g>
<g stroke-width="1pt">
<path fill="#006a00" d="m383.86 347.56c-3.944 18.58-22.995 9.205-26.79 2.184-3.793-7.02-1.21-28.118 16.48-21.26-12.536 2.682-8.367 16.865-13.776 19.796 5.41-2.93 14.986 8.322 24.086-0.72z" fill-rule="evenodd"/>
<path stroke="#000" transform="matrix(.097 .1795 -.1526 .0827 417.2 251.4)" d="m336.61 432.28c35.433 124.02-53.15 106.3-53.15 141.73 0-35.433-88.582-17.717-53.15-141.73" fill="none"/>
</g>
<g stroke-width="1pt">
<path fill="#006a00" d="m201.03 279.35c-17.135-8.152-3.607-24.532 4.093-26.598 7.7-2.067 27.597 5.343 16.83 20.982 0.304-12.83-14.442-12.06-16.034-18.01 1.59 5.948-11.563 12.666-4.89 23.626z" fill-rule="evenodd"/>
<path stroke="#000" transform="matrix(-.1968 .0528 -.045 -.168 286.71 334.13)" d="m336.61 432.28c35.433 124.02-53.15 106.3-53.15 141.73 0-35.433-88.582-17.717-53.15-141.73" fill="none"/>
</g>
<g stroke-width="1pt">
<path fill="#006a00" d="m418.28 160.33c18.784 2.654 10.76 22.333 4.03 26.608-6.733 4.276-27.932 3.156-22.323-14.99 3.54 12.337 17.38 7.19 20.676 12.39-3.294-5.198 7.255-15.544-2.383-24.008z" fill-rule="evenodd"/>
<path stroke="#000" transform="matrix(.172 -.1093 .093 .1467 320.16 133.68)" d="m336.61 432.28c35.433 124.02-53.15 106.3-53.15 141.73 0-35.433-88.582-17.717-53.15-141.73" fill="none"/>
</g>
<g stroke-width="1pt">
<path fill="#006a00" d="m245.94 137.4c4.71-18.4 23.357-8.24 26.856-1.068 3.5 7.172 0.044 28.145-17.347 20.557 12.636-2.16 9.06-16.503 14.585-19.207-5.526 2.703-14.628-8.938-24.095-0.283z" fill-rule="evenodd"/>
<path stroke="#000" transform="matrix(-.0895 -.1833 .156 -.0763 208.65 232.09)" d="m336.61 432.28c35.433 124.02-53.15 106.3-53.15 141.73 0-35.433-88.582-17.717-53.15-141.73" fill="none"/>
</g>
<g stroke-width="1pt">
<path fill="#006a00" d="m410.2 327.94c1.517 18.934-19.414 15.395-25.052 9.75-5.638-5.642-9.178-26.6 9.732-25.085-11.25 6.154-3.21 18.555-7.558 22.91 4.347-4.355 16.735 3.692 22.878-7.574z" fill-rule="evenodd"/>
<path stroke="#000" transform="matrix(.144 .1443 -.1227 .123 414.73 226.25)" d="m336.61 432.28c35.433 124.02-53.15 106.3-53.15 141.73 0-35.433-88.582-17.717-53.15-141.73" fill="none"/>
</g>
<g stroke-width="1pt">
<path fill="#006a00" d="m213.82 306.27c-18.582-3.82-9.35-22.96-2.364-26.806 6.986-3.847 28.074-1.406 21.346 16.354-2.764-12.533-16.9-8.262-19.864-13.657 2.963 5.396-8.21 15.062 0.882 24.11z" fill-rule="evenodd"/>
<path stroke="#000" transform="matrix(-.1786 .0983 -.0836 -.1523 310.09 338.99)" d="m336.61 432.28c35.433 124.02-53.15 106.3-53.15 141.73 0-35.433-88.582-17.717-53.15-141.73" fill="none"/>
</g>
<g stroke-width="1pt">
<path fill="#006a00" d="m393.35 138.19c18.82-2.372 16.233 18.724 10.857 24.618-5.377 5.894-26.128 10.38-25.468-8.603 6.646 10.975 18.657 2.374 23.198 6.527-4.54-4.153 2.93-16.907-8.587-22.543z" fill-rule="evenodd"/>
<path stroke="#000" transform="matrix(.1375 -.1507 .128 .1172 291.68 138.24)" d="m336.61 432.28c35.433 124.02-53.15 106.3-53.15 141.73 0-35.433-88.582-17.717-53.15-141.73" fill="none"/>
</g>
<g stroke-width="1pt">
<path fill="#006a00" d="m221.63 159.64c-0.273-18.992 20.38-14.084 25.637-8.082s7.415 27.147-11.354 24.392c11.628-5.4 4.42-18.303 9.044-22.363-4.624 4.06-16.457-4.785-23.326 6.053z" fill-rule="evenodd"/>
<path stroke="#000" transform="matrix(-.1344 -.1534 .1305 -.1146 210.44 260.81)" d="m336.61 432.28c35.433 124.02-53.15 106.3-53.15 141.73 0-35.433-88.582-17.717-53.15-141.73" fill="none"/>
</g>
<g stroke-width="1pt">
<path fill="#006a00" d="m428.03 301.19c5.935 18.04-15.24 19.545-22.048 15.393-6.808-4.153-15.186-23.684 3.548-26.677-9.483 8.637 1.25 18.79-1.95 24.048 3.2-5.26 17.134-0.365 20.45-12.764z" fill-rule="evenodd"/>
<path stroke="#000" transform="matrix(.174 .1062 -.0903 .1484 408.48 201.3)" d="m336.61 432.28c35.433 124.02-53.15 106.3-53.15 141.73 0-35.433-88.582-17.717-53.15-141.73" fill="none"/>
</g>
<g stroke-width="1pt">
<path fill="#006a00" d="m234.75 330.18c-18.932 1.19-15.035-19.702-9.3-25.25 5.732-5.545 26.722-8.726 24.88 10.18-5.95-11.37-18.472-3.537-22.746-7.965 4.273 4.43-3.977 16.69 7.166 23.036z" fill-rule="evenodd"/>
<path stroke="#000" transform="matrix(-.1466 .1418 -.1206 -.125 336.22 336.48)" d="m336.61 432.28c35.433 124.02-53.15 106.3-53.15 141.73 0-35.433-88.582-17.717-53.15-141.73" fill="none"/>
</g>
<g stroke-width="1pt">
<path fill="#006a00" d="m367.44 121.3c18-5.994 19.564 15.202 15.435 22.03-4.127 6.83-23.61 15.274-26.652-3.474 8.653 9.47 18.762-1.306 24.024 1.882-5.26-3.188-0.413-17.153-12.806-20.437z" fill-rule="evenodd"/>
<path stroke="#000" transform="matrix(.1055 -.1746 .1485 .09 267.73 141.17)" d="m336.61 432.28c35.433 124.02-53.15 106.3-53.15 141.73 0-35.433-88.582-17.717-53.15-141.73" fill="none"/>
</g>
<g stroke-width="1pt">
<path fill="#006a00" d="m204.46 190.39c-6.63-17.796 14.47-20.122 21.435-16.238 6.964 3.884 16.094 23.074-2.51 26.793 9.14-8.998-1.98-18.725 1.014-24.105-2.994 5.38-17.107 1.03-19.94 13.55z" fill-rule="evenodd"/>
<path stroke="#000" transform="matrix(-.178 -.0993 .0845 -.1518 227.87 289.44)" d="m336.61 432.28c35.433 124.02-53.15 106.3-53.15 141.73 0-35.433-88.582-17.717-53.15-141.73" fill="none"/>
</g>
<g stroke-width="1pt">
<path fill="#006a00" d="m440.56 278.11c7.952 17.244-12.913 21.157-20.15 17.81-7.237-3.35-17.786-21.795 0.484-26.908-8.436 9.662 3.385 18.522 0.805 24.112 2.58-5.59 16.98-2.32 18.86-15.015z" fill-rule="evenodd"/>
<path stroke="#000" transform="matrix(.185 .0856 -.0728 .1578 409.75 181.1)" d="m336.61 432.28c35.433 124.02-53.15 106.3-53.15 141.73 0-35.433-88.582-17.717-53.15-141.73" fill="none"/>
</g>
<g stroke-width="1pt">
<path fill="#006a00" d="m270.06 353.98c-17.433 7.492-20.774-13.498-17.235-20.65 3.54-7.153 22.24-17.21 26.85 1.213-9.418-8.707-18.584 2.885-24.096 0.152 5.51 2.733 1.854 17.057 14.48 19.284z" fill-rule="evenodd"/>
<path stroke="#000" transform="matrix(-.0905 .183 -.1555 -.077 367.74 325.77)" d="m336.61 432.28c35.433 124.02-53.15 106.3-53.15 141.73 0-35.433-88.582-17.717-53.15-141.73" fill="none"/>
</g>
<g stroke-width="1pt">
<path fill="#006a00" d="m447.84 249.54c11.412 15.173-8.157 23.412-15.937 21.67-7.78-1.74-21.983-17.54-5.204-26.402-6.207 11.23 7.216 17.39 5.875 23.4 1.34-6.01 16.107-5.86 15.266-18.667z" fill-rule="evenodd"/>
<path stroke="#000" transform="matrix(.199 .0445 -.038 .1696 397.26 161.25)" d="m336.61 432.28c35.433 124.02-53.15 106.3-53.15 141.73 0-35.433-88.582-17.717-53.15-141.73" fill="none"/>
</g>
<g stroke-width="1pt">
<path fill="#006a00" d="m339.33 114.35c16.322-9.678 22.337 10.705 19.748 18.255-2.588 7.55-19.84 19.936-26.783 2.26 10.46 7.418 18.06-5.26 23.876-3.26-5.816-2-4.035-16.676-16.84-17.256z" fill-rule="evenodd"/>
<path stroke="#000" transform="matrix(.0662 -.193 .1642 .0564 246.1 154.92)" d="m336.61 432.28c35.433 124.02-53.15 106.3-53.15 141.73 0-35.433-88.582-17.717-53.15-141.73" fill="none"/>
</g>
<g stroke-width="1pt">
<path fill="#006a00" d="m305.89 364.5c-15.547 10.883-23.08-8.99-21.066-16.712 2.013-7.724 18.282-21.378 26.536-4.276-10.99-6.608-17.61 6.607-23.562 5.053 5.95 1.554 5.28 16.324 18.093 15.935z" fill-rule="evenodd"/>
<path stroke="#000" transform="matrix(-.0515 .1974 -.168 -.044 395.81 317)" d="m336.61 432.28c35.433 124.02-53.15 106.3-53.15 141.73 0-35.433-88.582-17.717-53.15-141.73" fill="none"/>
</g>
<g stroke-width="1pt">
<path fill="#006a00" d="m196.06 216.92c-10.444-15.856 9.6-22.857 17.256-20.633 7.658 2.224 20.85 18.878 3.55 26.676 6.895-10.82-6.118-17.806-4.405-23.72-1.713 5.914-16.44 4.842-16.4 17.677z" fill-rule="evenodd"/>
<path stroke="#000" transform="matrix(-.1957 -.057 .0484 -.167 241.05 308.2)" d="m336.61 432.28c35.433 124.02-53.15 106.3-53.15 141.73 0-35.433-88.582-17.717-53.15-141.73" fill="none"/>
</g>
<g stroke="#000">
<path stroke-width="4.702" transform="matrix(.1285 0 0 .2044 363.59 187.47)" fill="#520900" d="m193.63 88.25c15.546 4.423 43.275 46.12 53.766 45.79 16.652-0.48 83.233-77.56 72.564-88.252-7.4-8.246-67.94 41.192-71.852 44.126-0.67-8.6-15.95-51.042-28.31-59.945-14.62-9.31-32.21-4.158-47.82-6.662-7.3-2.843-18.84-14.056-23.78-24.976 8.182-3.544 15.323-2.48 23.31-10.65 5.68-6.643 2.382-46.914 0.37-51.06-13.29-14.268 5.43-7.327-39.023-9.082-64.268-2.446-75.878 49.582-31.653 70.792-3.462 15.928-14.22 19.594-22.94 21.646-8.776 0.106-38.825-0.763-55.545 12.49-33.403 24.55-8.925 30.903-15.352 35.8-7.168 5.642-17.863 19.825-21.883 28.305-10.472 4.996-99.485-4.995-116.5-1.664-16.42 0.965-56.467 15.818-73.15 26.64 3.565 14.143 241.51-7.602 249.27-2.496 5.946 3.345-2.705 51.237 2.01 54.95 1.66 9.062 116.54 5.828 125.6 5.828 7.558-18.86 15.39-81.558 20.926-91.583z" fill-rule="evenodd"/>
<path stroke-width="5.125" transform="matrix(.1542 0 0 .1434 359.98 188.33)" d="m174.9-96.568c1.543 25.457-7.118 3.304-38.37 3.304-60.56-5.036-39.284 99.196-39.284 67.024-26.228-13.71-44.836-100.29 29.614-96.93 23.54 0 44.96 7.858 48.045 26.603z" fill-rule="evenodd"/>
<path stroke-width="3.75" fill="none" d="m387.98 96.574c0 1.68-0.172 7.957-0.833 11.656-0.445 3.74-1.54 8.077-2.498 10.823-0.343 4.452-2.092 5.174-2.498 9.99-1.544 2.27-2.21 5.945-2.498 9.992 0 4.27 0.686 7.558 0.833 11.656 0.48 3.56 1.612 6.367 1.665 10.824 0 4.365-0.005 7.55-1.665 9.99v5.83" transform="matrix(.202 0 0 .2044 292.39 181.09)"/>
<path stroke-width="3.75" fill="none" d="m383.81 76.592c0.58 0 1.03 20.13 5.828 24.978 1.04 3.212 4.574 7.343 5.828 9.99 1.672 2.46 3.98 5.368 8.326 6.66h11.656c4.634 0 7.473 0.056 10.823-1.664 1.486-0.8 2.532-1.846 3.33-3.33m12.49 2.49h0.832c-2.327 0-1.092-0.104 3.33 1.665 1.726 2.537 3.77 3.625 6.66 4.996 2.983 1.468 6.392 1.666 10.824 1.666 4.198-0.354 6.74-1.686 9.16-3.33 4.042-1.31 4.814-2.936 5.827-7.494v-11.656c-0.478-3.53-1.384-6.372-2.498-9.158-0.42-1.258-0.833-0.705-0.833-2.497m34.97 31.645c-0.425 0-2.65 2.575-4.163 4.995-2.568 0.918-3.233 3.716-4.162 5.828-0.67 2.675-1.666 2.86-1.666 6.66-1.678 3.71-2.205 7.008-2.498 10.824l2.497-10.823c-1.678 3.708-2.205 7.007-2.498 10.823m-36.63-94.914h-0.833c2.25 0 1.1-0.053-3.33 0.833-1.817 2.27-4.807 4.304-7.493 5.826-2.977 1.825-5.367 4.01-8.326 4.996l8.326-4.996c-2.977 1.825-5.367 4.01-8.326 4.996m-39.13-14.986h0.833c-2.248 0-1.105-0.054 3.33 0.833 2.936 1.39 4.752 2.89 7.493 4.995 1.29 1.935 3.257 2.305 4.163 5.828 1.573 0.848 2.123 1.67 2.497 4.164m6.67-37.467h4.163c4.53 0 6.733 0.68 10.824 0.833 3.538-0.424 4.382-1.737 7.493-2.497m-6.66 104.91c0.14 0.66 1.652 4.256 2.498 5.828 1.517 2.512 3.538 4.914 4.163 8.326 0.97 2.905 1.527 6.23 1.666 9.99 0.76 3.503 1.264 6.62-0.833 9.16-0.898 3.29-2.57 5.69-4.162 9.157-1.11 0-0.832-0.277-0.832 0.834m-29.15-41.63v0.833c0-2.248 0.055-1.105-0.832 3.33-1.147 4.013-2.15 7.388-4.163 9.99-1.098 3.295-2.326 4.505-2.498 9.16 0.662 1.543 0.833 3.262 0.833 5.827m2.5 5v4.163c0.908 1.21 0.55 1.294 1.665 1.665m-70.76-46.63v0.832c0-2.327-0.258-0.936 4.163 0.833 3.572 0.638 7.937 1.037 10.823 1.665 2.672 1.312 5.265 3.48 7.493 4.995 1.993 1.728 4.818 3.48 7.493 4.996 3.004 1.503 4.325 2.824 5.828 5.83 0.908 1.21 0.55 1.292 1.666 1.664" transform="matrix(.202 0 0 .2044 292.39 181.09)"/>
<path stroke-width="3" fill="none" d="m423.78-16.655c0.123-0.184 2.467-1.914 4.996-2.498 1.805-1.354 4.812-0.74 6.66 0" transform="matrix(.3155 0 0 .2044 242.37 181.81)"/>
<path stroke-width="3.402" fill="none" d="m445.42-19.153h0.833c-2.248 0-1.106 0.054 3.33-0.833 3.48-1.16 7.672-0.832 11.656-0.832 1.173 0.39 0.83 0.242 0.83 1.665m-17.48 11.656v0.833c0-2.327-0.103-1.09 1.666 3.33 0.643 2.962 1.76 7.05 0.832 9.158-2.184 0-2.86-0.274-4.163-0.833" transform="matrix(.2454 0 0 .2044 272.09 181.81)"/>
<path stroke-width="4.501" transform="matrix(.2418 -.035 .024 .115 294.96 200.28)" d="m371.33-24.98c0 3.218-4.1 5.827-9.158 5.827s-9.158-2.61-9.158-5.828 4.1-5.83 9.158-5.83 9.158 2.61 9.158 5.83z" fill-rule="evenodd"/>
<path stroke-width="6.528" transform="matrix(.175 -.023 .0174 .0756 315.1 188.72)" d="m371.33-24.98c0 3.218-4.1 5.827-9.158 5.827s-9.158-2.61-9.158-5.828 4.1-5.83 9.158-5.83 9.158 2.61 9.158 5.83z" fill-rule="evenodd"/>
<path stroke-width="6.528" transform="matrix(.175 -.023 .0174 .0756 320.41 188.21)" d="m371.33-24.98c0 3.218-4.1 5.827-9.158 5.827s-9.158-2.61-9.158-5.828 4.1-5.83 9.158-5.83 9.158 2.61 9.158 5.83z" fill-rule="evenodd"/>
<path stroke-width="3.75" transform="matrix(.202 0 0 .2044 292.39 181.09)" d="m412.95 113.64c0 2.07-1.864 3.747-4.163 3.747-2.3 0-4.163-1.678-4.163-3.747s1.864-3.747 4.163-3.747c2.3 0 4.163 1.678 4.163 3.747zm56.62 6.25c0 1.38-1.305 2.498-2.914 2.498-1.61 0-2.914-1.12-2.914-2.498s1.305-2.498 2.914-2.498c1.61 0 2.914 1.12 2.914 2.498z" fill-rule="evenodd"/>
<path stroke-width="3.75" fill="none" d="m447.09 31.634v0.833c0-2.796 0.197-1.03-4.163 3.33-3.724 1.785-5.164 3.667-6.66 6.66-1.742 3.85-2.342 6.613-2.498 10.824v6.662m-14.16-29.143c0.577 0 1.477 2.274 2.498 4.996 1.856 2.19 3.037 5.35 3.33 9.16 0 4.517 0.78 6.452 0.833 10.823v3.33m78.27 69.931c0 0.48-2.6 1.455-4.163 3.33-3.16 0.428-5.964 0.833-9.99 0.833-0.61-0.916-1.836-1.217-3.33-1.665" transform="matrix(.202 0 0 .2044 292.39 181.09)"/>
</g>
<g stroke="#000" stroke-width="3.75" fill="#fff" fill-rule="evenodd">
<path d="m276.41 36.63l88.253 1.665v11.655s8.325 14.987 13.32 48.29c4.996 33.303 9.992 158.19 9.992 158.19l21.646 141.54s-13.32 21.647-23.31 19.982c-9.99-1.666-39.964-13.32-39.964-14.987 0-1.665-1.665-79.926-4.995-133.21-3.33-53.285-9.99-81.592-24.976-104.9-19.982 48.288-21.647 98.243-19.982 98.243s1.665 39.963 3.33 69.936c1.666 29.972-1.665 71.6-1.665 71.6l-58.28-3.33s1.665-36.633 3.33-64.94c1.666-28.307 6.745-41.625 8.327-73.266 1.748-34.963 4.202-53.32 6.66-109.9 3.238-45.74 14.687-75.258 17.9-103.24 0.87-7.133-0.416-12.488 0.416-13.32z" transform="matrix(.209 0 0 .1326 311.16 212.59)"/>
<path d="m316.38 166.51s-8.326-13.32-11.656-36.633-3.33-28.307-3.33-28.307m-3.33 131.55l-9.99 39.963" transform="matrix(.209 0 0 .1326 311.16 212.59)"/>
<path d="m276.41 223.12l11.657 54.95" transform="matrix(.209 0 0 .1326 323.69 212.81)"/>
<path d="m387.98 417.95l-11.66-81.6m-99.91-291.4l88.253 1.665m-46.62 118.22c0-1.665 4.995-29.972 4.995-29.972m-38.3-89.915l-8.326 84.922" transform="matrix(.209 0 0 .1326 311.16 212.59)"/>
</g>
<path d="m349.68 188.16c0 13.794-7.082 24.977-15.82 24.977-8.736 0-15.818-11.183-15.818-24.977s7.082-24.977 15.82-24.977c8.735 0 15.818 11.183 15.818 24.977z" fill-rule="evenodd" transform="matrix(.3368 0 0 .3286 143.1 205.98)" stroke="#000" stroke-width="2.5" fill="#ffc600"/>
<g stroke-width="1pt">
<g stroke="#000" fill-rule="evenodd">
<path fill="#00cfe6" d="m212.6 892.91s53.15-17.716 70.867-17.716c17.716 0 17.716 17.716 19.135 18.212l-1.42 34.937h-88.58v-35.43z" transform="matrix(.2036 0 0 .241 240.01 90.375)"/>
<path fill="#00cfe6" d="m265.75 892.91s0-17.716 17.717-17.716c17.716 0 35.433-0.496 53.15 0v53.15h-70.87v-35.43z" transform="matrix(.2036 0 0 -.241 247.22 541.99)"/>
<path fill="#00cfe6" d="m212.6 892.91s53.15-17.716 70.867-17.716c17.716 0 17.716 17.716 19.135 18.212l-1.42 34.937h-88.58v-35.43z" transform="matrix(-.2036 0 0 .241 413.14 90.428)"/>
<path fill="#00cfe6" d="m265.75 892.91s0-17.716 17.717-17.716c17.716 0 35.433-0.496 53.15 0v53.15h-70.87v-35.43z" transform="matrix(-.2036 0 0 -.241 405.92 542.04)"/>
<path fill="#fff" d="m249.45 875.2s0-17.717-17.716-17.717h53.15l-35.43 17.72z" transform="matrix(-.2036 0 0 -.241 395.39 537.77)"/>
<path fill="#00cfe6" d="m159.45 892.91l106.3 53.15s-36.04 33.3-70.866 35.433c-17.717 0-35.433-35.433-35.433-35.433v-53.15z" transform="matrix(-.2375 0 0 .241 418.55 90.427)"/>
<path fill="#fff" d="m249.45 892.91c0.71-8.858-2.214-35.434-19.93-35.434h55.363c17.717 0 35.434 17.717 35.434 35.434l-1.42 35.432h-69.44v-35.43z" transform="matrix(-.2036 0 0 .241 402.61 94.697)"/>
<path fill="#fff" d="m249.45 875.2s0-17.717-17.716-17.717h53.15l-35.43 17.72z" transform="matrix(.2036 0 0 -.241 257.76 537.72)"/>
<path fill="#00cfe6" d="m159.45 892.91l106.3 53.15s-36.04 33.3-70.866 35.433c-17.717 0-35.433-35.433-35.433-35.433v-53.15z" transform="matrix(.2375 0 0 .241 234.6 90.373)"/>
<path fill="#fff" d="m249.45 892.91c0.71-8.858-2.214-35.434-19.93-35.434h55.363c17.717 0 35.434 17.717 35.434 35.434l-1.42 35.432h-69.44v-35.43z" transform="matrix(.2036 0 0 .241 250.54 94.643)"/>
<path fill="#fff" d="m88.802 891.9c-0.11 1.012 17.607-34.42 53.04-34.42s177.16 70.865 247.92 70.865c70.975 0 196.65-72.56 230.42-70.866 33.773 1.693 53.52 37.16 53.15 35.432-0.374-1.728-17.717 53.15-17.717 53.15 0-17.716-17.717-35.433-35.433-35.433-17.717 0-106.3 70.865-230.42 70.865-123.91 0-212.49-70.866-230.21-70.866-17.717 0-35.433 17.715-35.433 35.432l-35.32-54.16z" transform="matrix(.2036 0 0 .241 247.2 90.428)"/>
</g>
<path d="m362.46 313.76l-3.153-9.625 3.228-1.48 0.373 1.135-2.638 1.21 0.966 2.948 2.47-1.133 0.37 1.128-2.47 1.133 1.072 3.276 2.74-1.258 0.374 1.137-3.333 1.53zm-13.54 6.3l-3.153-9.625 0.59-0.27 2.78 8.487 2.2-1.01 0.373 1.138-2.79 1.28zm-4.1 1.93l-3.153-9.625 3.012-1.38 0.372 1.136-2.42 1.11 0.975 2.98 2.094-0.962 0.373 1.137-2.095 0.962 1.432 4.372-0.59 0.272zm-36.27 0.12l2.08-9.925 1.215 0.356-0.027 7.453c-0.003 0.692-0.008 1.212-0.015 1.554 0.144-0.34 0.365-0.84 0.658-1.494l2.908-6.478 1.088 0.32-2.08 9.925-0.778-0.228 1.74-8.31-3.514 7.79-0.73-0.215 0.006-8.968-1.77 8.45-0.78-0.23zm-0.35-10.88l0.77 0.377-1.915 5.457c-0.332 0.948-0.663 1.67-0.99 2.165-0.33 0.493-0.727 0.83-1.197 1.012-0.465 0.18-0.978 0.13-1.538-0.146-0.544-0.267-0.936-0.635-1.175-1.112-0.24-0.474-0.33-1.037-0.278-1.685 0.056-0.652 0.26-1.478 0.61-2.48l1.913-5.456 0.77 0.38-1.912 5.45c-0.288 0.82-0.454 1.448-0.5 1.884-0.04 0.432 0.018 0.81 0.17 1.133 0.158 0.322 0.4 0.565 0.73 0.727 0.566 0.278 1.04 0.27 1.427-0.03s0.788-1.04 1.204-2.226l1.91-5.45zm-15.47-6.58l0.575 0.315-2.115 5.413c-0.367 0.94-0.71 1.662-1.025 2.163-0.315 0.5-0.67 0.852-1.066 1.06-0.392 0.205-0.797 0.19-1.216-0.038-0.407-0.223-0.682-0.554-0.822-1-0.14-0.444-0.155-0.982-0.042-1.613 0.114-0.636 0.364-1.45 0.752-2.442l2.115-5.413 0.575 0.315-2.112 5.406c-0.318 0.814-0.518 1.435-0.6 1.86-0.08 0.42-0.074 0.783 0.014 1.086 0.09 0.302 0.26 0.52 0.506 0.656 0.423 0.232 0.805 0.19 1.146-0.124 0.342-0.314 0.742-1.06 1.2-2.236l2.114-5.406zm-10.27 1.68l0.583 0.195c-0.158 0.484-0.25 0.9-0.275 1.256-0.022 0.35 0.03 0.672 0.154 0.97 0.126 0.288 0.313 0.502 0.56 0.637 0.22 0.12 0.44 0.156 0.663 0.108s0.422-0.172 0.598-0.37c0.18-0.202 0.327-0.45 0.44-0.737 0.115-0.296 0.175-0.573 0.18-0.833 0.008-0.264-0.05-0.52-0.174-0.77-0.078-0.162-0.276-0.454-0.596-0.876-0.317-0.428-0.52-0.776-0.61-1.047-0.115-0.348-0.157-0.724-0.125-1.126 0.035-0.403 0.138-0.822 0.306-1.25 0.184-0.474 0.418-0.88 0.703-1.22 0.286-0.346 0.59-0.56 0.912-0.642 0.323-0.083 0.63-0.043 0.922 0.117 0.322 0.175 0.562 0.443 0.72 0.803 0.16 0.357 0.22 0.79 0.184 1.295-0.037 0.508-0.158 1.04-0.363 1.594l-0.586-0.213c0.202-0.61 0.276-1.112 0.223-1.508-0.052-0.396-0.245-0.684-0.58-0.867-0.347-0.19-0.655-0.192-0.923-0.003-0.265 0.186-0.472 0.473-0.625 0.862-0.13 0.335-0.182 0.643-0.154 0.922 0.026 0.28 0.227 0.66 0.603 1.147 0.38 0.48 0.625 0.854 0.732 1.12 0.154 0.39 0.216 0.81 0.186 1.265-0.03 0.45-0.142 0.925-0.338 1.428-0.195 0.5-0.445 0.933-0.75 1.304-0.304 0.365-0.63 0.604-0.975 0.715-0.342 0.108-0.667 0.075-0.978-0.094-0.394-0.215-0.676-0.518-0.846-0.91-0.17-0.393-0.233-0.877-0.192-1.454 0.045-0.58 0.186-1.186 0.423-1.82zm83.1 0.11c-0.523-1.594-0.733-2.937-0.63-4.02 0.1-1.088 0.466-1.777 1.095-2.066 0.412-0.19 0.852-0.147 1.322 0.126s0.916 0.75 1.34 1.433c0.42 0.677 0.79 1.495 1.105 2.46 0.32 0.974 0.515 1.89 0.585 2.744 0.068 0.853 0.002 1.558-0.203 2.11-0.207 0.546-0.504 0.907-0.892 1.085-0.42 0.193-0.867 0.147-1.342-0.14-0.474-0.283-0.92-0.766-1.338-1.444s-0.767-1.442-1.044-2.287zm0.616-0.258c0.38 1.16 0.823 2.007 1.33 2.545 0.51 0.534 0.982 0.7 1.42 0.5 0.444-0.205 0.698-0.71 0.763-1.517 0.068-0.804-0.1-1.827-0.507-3.065-0.257-0.784-0.542-1.44-0.857-1.964-0.314-0.53-0.642-0.9-0.985-1.11-0.34-0.215-0.66-0.256-0.954-0.12-0.417 0.19-0.675 0.667-0.774 1.427-0.1 0.755 0.09 1.858 0.564 3.305zm-8.91 9.85l-3.152-9.625 1.98-0.908c0.397-0.182 0.728-0.234 0.993-0.154 0.264 0.078 0.53 0.305 0.796 0.686 0.268 0.382 0.487 0.836 0.66 1.366 0.225 0.683 0.31 1.305 0.26 1.87-0.052 0.56-0.272 1.002-0.658 1.326 0.21 0.09 0.38 0.196 0.513 0.315 0.285 0.263 0.59 0.615 0.91 1.056l1.635 2.263-0.743 0.34-1.246-1.73c-0.363-0.5-0.65-0.876-0.862-1.132-0.21-0.254-0.383-0.423-0.512-0.504-0.127-0.08-0.244-0.128-0.35-0.133-0.08 0-0.193 0.034-0.346 0.104l-0.685 0.314 1.402 4.277-0.59 0.27zm-1.17-5.648l1.27-0.582c0.27-0.124 0.462-0.282 0.576-0.47 0.112-0.192 0.164-0.436 0.158-0.735-0.01-0.304-0.064-0.612-0.166-0.922-0.15-0.453-0.348-0.792-0.6-1.015-0.247-0.224-0.537-0.26-0.868-0.108l-1.413 0.65 1.044 3.183zm-5.58 3.26c-0.522-1.595-0.734-2.937-0.63-4.02 0.1-1.09 0.466-1.777 1.095-2.066 0.412-0.19 0.853-0.148 1.323 0.125s0.916 0.75 1.34 1.433c0.42 0.677 0.79 1.496 1.105 2.46 0.32 0.975 0.515 1.89 0.585 2.745 0.07 0.853 0 1.558-0.203 2.11-0.206 0.547-0.504 0.908-0.89 1.086-0.422 0.193-0.868 0.147-1.343-0.14-0.474-0.283-0.92-0.766-1.338-1.445-0.42-0.678-0.767-1.44-1.044-2.286zm0.615-0.26c0.38 1.16 0.824 2.01 1.332 2.546 0.508 0.534 0.98 0.7 1.416 0.5 0.445-0.204 0.7-0.71 0.765-1.517 0.07-0.804-0.1-1.827-0.506-3.065-0.256-0.784-0.543-1.44-0.857-1.964-0.314-0.53-0.642-0.9-0.984-1.11-0.34-0.216-0.66-0.257-0.954-0.122-0.42 0.192-0.677 0.67-0.776 1.428-0.098 0.756 0.09 1.858 0.563 3.305zm-34.22 10.91l1.186-10.13 2.336 0.384c0.477 0.078 0.846 0.244 1.108 0.5 0.265 0.25 0.452 0.6 0.564 1.055 0.115 0.452 0.145 0.91 0.09 1.375-0.05 0.432-0.17 0.827-0.36 1.187-0.19 0.358-0.443 0.63-0.762 0.818 0.355 0.242 0.61 0.594 0.76 1.06 0.152 0.466 0.194 0.996 0.125 1.585-0.054 0.473-0.168 0.905-0.34 1.296-0.17 0.383-0.36 0.673-0.566 0.863-0.207 0.193-0.455 0.323-0.743 0.392-0.284 0.066-0.625 0.068-1.022 0.003l-2.374-0.39zm1.51-5.74l1.35 0.222c0.364 0.06 0.63 0.063 0.798 0.014 0.222-0.068 0.4-0.212 0.53-0.43 0.137-0.216 0.225-0.502 0.266-0.857 0.04-0.336 0.025-0.64-0.045-0.908-0.07-0.276-0.19-0.474-0.363-0.596-0.173-0.127-0.484-0.227-0.93-0.3l-1.246-0.205-0.36 3.06zm-0.546 4.68l1.55 0.253c0.267 0.045 0.456 0.06 0.568 0.046 0.196-0.026 0.365-0.092 0.508-0.198 0.143-0.11 0.27-0.28 0.38-0.51 0.11-0.234 0.185-0.514 0.223-0.835 0.044-0.38 0.023-0.715-0.063-1.01-0.086-0.302-0.23-0.525-0.43-0.67-0.195-0.15-0.49-0.256-0.888-0.32l-1.44-0.237-0.408 3.48zm6.37 2.29v-10.227h2.79c0.558 0 0.985 0.093 1.277 0.28 0.29 0.18 0.525 0.503 0.7 0.97 0.174 0.464 0.26 0.977 0.26 1.54 0 0.726-0.144 1.337-0.433 1.836-0.29 0.496-0.734 0.812-1.338 0.948 0.22 0.172 0.388 0.34 0.502 0.508 0.243 0.363 0.473 0.817 0.69 1.36l1.094 2.785h-1.046l-0.833-2.128c-0.243-0.615-0.443-1.083-0.6-1.41-0.158-0.325-0.3-0.554-0.425-0.683-0.122-0.13-0.248-0.222-0.377-0.272-0.094-0.034-0.248-0.05-0.463-0.05h-0.965v4.543h-0.832zm0.832-5.713h1.79c0.38 0 0.677-0.065 0.89-0.19 0.216-0.13 0.378-0.333 0.49-0.612 0.112-0.285 0.167-0.593 0.167-0.922 0-0.482-0.11-0.88-0.326-1.192-0.215-0.312-0.556-0.468-1.02-0.468h-1.992v3.384zm6.46 5.44l0.87-10.568 0.884-0.186 4.04 9.538-0.933 0.196-1.18-2.9-2.588 0.543-0.225 3.194-0.87 0.183zm1.168-4.51l2.1-0.44-1.065-2.652c-0.323-0.807-0.574-1.472-0.75-1.997 0.017 0.663 0 1.328-0.047 1.993l-0.237 3.097zm-40.43-5.5l3.66-9.37 1.63 0.893c0.333 0.182 0.56 0.424 0.686 0.725 0.128 0.298 0.17 0.675 0.13 1.132-0.04 0.456-0.142 0.897-0.31 1.328-0.157 0.4-0.355 0.75-0.594 1.048s-0.503 0.5-0.79 0.608c0.196 0.31 0.288 0.702 0.272 1.18-0.015 0.477-0.13 0.99-0.342 1.535-0.17 0.437-0.374 0.822-0.61 1.155-0.23 0.328-0.45 0.56-0.656 0.695-0.207 0.136-0.427 0.204-0.66 0.204-0.23 0-0.483-0.076-0.76-0.227l-1.656-0.907zm2.697-5.118l0.94 0.514c0.255 0.14 0.452 0.203 0.59 0.193 0.183-0.015 0.355-0.112 0.512-0.29 0.16-0.174 0.305-0.427 0.433-0.755 0.12-0.31 0.193-0.603 0.216-0.874 0.024-0.276-0.012-0.492-0.107-0.647-0.094-0.16-0.297-0.325-0.61-0.496l-0.868-0.475-1.107 2.83zm-1.69 4.326l1.082 0.592c0.186 0.102 0.322 0.158 0.408 0.17 0.153 0.02 0.297-0.004 0.432-0.074 0.136-0.07 0.277-0.204 0.422-0.398 0.147-0.198 0.28-0.447 0.395-0.745 0.137-0.35 0.214-0.674 0.23-0.975 0.02-0.306-0.025-0.55-0.134-0.733-0.104-0.187-0.295-0.355-0.572-0.506l-1.005-0.552-1.257 3.22z"/>
</g>
<path d="m212.6 432.28v106.3c0 70.866 88.583 106.3 88.583 106.3s88.583-35.433 88.583-106.3v-106.3h-177.17z" fill-rule="evenodd" transform="matrix(.4072 0 0 .3835 201.1 45.176)" stroke="#000" stroke-width="1pt" fill="#00daec"/>
<path d="m212.6 432.28v106.3c0 8.858 1.384 17.163 3.806 24.914l84.777-42.63v-88.58h-88.59z" fill-rule="evenodd" transform="matrix(.4072 0 0 .3835 201.1 45.176)" stroke="#000" stroke-width="1pt" fill="#fff"/>
<path d="m212.6 432.28v106.3c0 8.858 1.384 17.163 3.806 24.914l84.777-42.63v-88.58h-88.59z" fill-rule="evenodd" transform="matrix(-.4072 0 0 .3835 446.39 45.176)" stroke="#000" stroke-width="1pt" fill="#fff300"/>
<g stroke="#000" stroke-width="1.25" transform="matrix(.4072 0 0 .3835 201.1 45.176)" fill-rule="evenodd">
<path fill="#923d09" d="m244.77 87.42c7.322-5.948 11.157-3.72 17.65 3.1 9.322 9.815 41.317 58.855 46.312 63.019s4.24-6.418 10.344-1.388c3.032 3.727-10.437 17.026-13.737 14.57-6.412-5.022 3.914-5.376-0.355-9.645-4.925-5.133-51.215-40.497-60.282-50.57-5.92-6.578-6.314-13.97 0.067-19.088z" transform="matrix(.6394 .2374 .1423 .7022 58.9 338.88)"/>
<rect transform="matrix(.7556 .655 -.586 .8104 0 0)" rx="2.606" ry="1.293" height="66.045" width="5.212" y="181.35" x="495.52" fill="#af8000"/>
<path d="m497.3 228.63h29.375v18.868h-29.38z" transform="matrix(.8312 .556 -.641 .7675 0 0)" fill="#b0b0d4"/>
</g>
<g stroke="#000" transform="matrix(.4072 0 0 .3835 201.1 45.176)" fill-rule="evenodd">
<path stroke-width="1pt" d="m385.11 528.57c4.885-2.105-27.333-35.603-33.785-51.842-6.452-16.24-6.108-16.717-8.617-24.322l-3.15 1.36c0.805 4.93 15.87 43.87 30.735 64.15 4.198 5.82 0.63 16.77 5.36 14.73l9.457-4.076z" fill="#af8000"/>
<path stroke-width="1pt" d="m341.55 453.55l-25.872 2.485s-4.83 4.107-2.573 12.665c2.255 8.558 8.965 11.892 8.965 11.892l22.668-17.557-3.188-9.486z" fill="gray"/>
<rect transform="rotate(-18.58)" rx="3.532" ry="3.532" height="19.428" width="7.064" y="534.62" x="175.71" stroke-width="1pt" fill="gray"/>
<path stroke-width="1pt" fill="#cf0000" d="m239.61 381.52c0 7.316-1.58 13.246-3.532 13.246-1.95 0-3.533-5.93-3.533-13.246s1.582-13.246 3.533-13.246 3.532 5.93 3.532 13.246z" transform="matrix(.7447 -.716 .6347 .3935 -105.9 523.83)"/>
<path stroke-width="1pt" fill="#cf0000" d="m239.61 381.52c0 7.316-1.58 13.246-3.532 13.246-1.95 0-3.533-5.93-3.533-13.246s1.582-13.246 3.533-13.246 3.532 5.93 3.532 13.246z" transform="matrix(-.978 .311 .0275 .7554 595.47 104.78)"/>
<path d="m15.073 596.25h78.867v17.796h-78.866z" stroke-width="1.153" transform="matrix(.859 -.512 .4994 .8664 0 0)" fill="#b0b0d4"/>
</g>
<path stroke="#0072ff" stroke-width="1pt" fill="none" d="m231.36 591.4l8.83-7.065s1.767 8.83 7.065 8.83 8.83-7.652 8.83-7.652 0 7.653 5.888 7.653 10.597-7.653 10.597-7.064c0 0.588 0.588 7.064 5.298 7.064s10.597-6.476 10.597-6.476 0.59 7.654 5.887 7.065c5.3-0.59 7.065-8.242 7.653-7.653 0.59 0.588 4.12 7.653 8.242 7.064s10.01-6.476 10.01-6.476 1.176 7.065 5.886 7.065 6.476-6.476 6.476-6.476 2.353 5.297 6.474 5.297 10.597-5.887 10.597-5.887" transform="matrix(.389 0 0 .3835 211.31 51.724)"/>
<path stroke="#0072ff" stroke-width="1pt" fill="none" d="m231.95 591.4c3.14-1.374 5.69 0.196 9.418-7.654 0 4.12 2.945 9.42 8.243 9.42s8.832-7.653 8.832-7.653 0 7.653 5.887 7.653 10.596-7.653 10.596-7.064c0 0.588 0.588 7.064 5.298 7.064s10.597-6.476 10.597-6.476 0.59 7.654 5.888 7.065c5.3-0.59 7.065-8.242 7.653-7.653 0.59 0.588 4.122 7.653 8.243 7.064 2.943-0.59 10.01-7.065 10.01-7.065" transform="matrix(.4072 0 0 .3835 212.13 55.788)"/>
<g fill-rule="evenodd">
<path stroke="#000" stroke-width="1pt" fill="#fff" d="m305.54 350.62v18.84h14.717l-5.298-18.84h-9.42z" transform="matrix(.3216 0 0 .286 236.64 162.27)"/>
<path d="m341.35 265.41c-0.19 0.17-7.574 3.705-17.23 3.705s-13.445-1.01-14.39-1.684c-0.948-0.673-2.084-2.02-3.22-2.02-1.137 0-2.083 0.842-2.083 0.842s1.893 0.84 3.22 1.85c1.324 1.012 1.703 2.864 1.703 2.864l31.243 0.337s-0.188-1.853-0.188-2.863 1.136-2.525 0.946-3.03z"/>
<path d="m314.08 253.46h0.758v15.66h-0.757zm10.23-2.02h0.758v17.848h-0.758zm10.03 3.03h0.758v14.65h-0.757z"/>
<path stroke="#000" stroke-width="1.024" d="m299.07 342.37h18.84v8.83h-18.84z" transform="matrix(.3216 0 0 .286 235.31 157.56)" fill="#fff"/>
<path stroke="#000" stroke-width="1.101" d="m297.89 350.61h21.782v8.83h-21.78z" transform="matrix(.3216 0 0 .286 235.31 157.56)" fill="#fff"/>
<path stroke="#000" stroke-width="1.159" d="m296.71 358.86h24.137v8.83h-24.14z" transform="matrix(.3216 0 0 .286 235.31 157.56)" fill="#fff"/>
<path stroke="#000" stroke-width="1.372" d="m266.17 334.72h23.837v12.527h-23.84z" transform="matrix(.3216 0 0 .286 235.31 157.56)" fill="#fff"/>
<path stroke="#000" stroke-width="1.475" d="m264.68 346.41h27.56v12.527h-27.56z" transform="matrix(.3216 0 0 .286 235.31 157.56)" fill="#fff"/>
<path stroke="#000" stroke-width="1.553" d="m263.19 358.1h30.54v12.527h-30.54z" transform="matrix(.3216 0 0 .286 235.31 157.56)" fill="#fff"/>
<path stroke="#000" stroke-width="1.312" d="m260.21 368.28h36.5v15.307h-36.5z" transform="matrix(.3216 0 0 .286 235.31 157.56)" fill="#fff"/>
<path stroke="#000" stroke-width="1.017" d="m238.25 342.37h15.763v10.414h-15.76z" transform="matrix(.3216 0 0 .286 235.31 157.56)" fill="#fff"/>
<path stroke="#000" stroke-width="1.094" d="m237.26 352.09h18.226v10.414h-18.23z" transform="matrix(.3216 0 0 .286 235.31 157.56)" fill="#fff"/>
<path stroke="#000" stroke-width="1.151" d="m236.28 361.81h20.197v10.414h-20.2z" transform="matrix(.3216 0 0 .286 235.31 157.56)" fill="#fff"/>
<path stroke="#000" stroke-width=".973" d="m234.31 370.27h24.137v12.725h-24.14z" transform="matrix(.3216 0 0 .286 235.31 157.56)" fill="#fff"/>
<path stroke="#000" stroke-width="1.017" d="m220 377.51h9.876l10.597-33.374-20.48 33.37z" transform="matrix(.3216 0 0 .286 235.31 157.56)" fill="#fff"/>
<path d="m314.25 253.63l0.7 0.308-9.188 12.648-0.7-0.307z"/>
</g>
<path stroke="#0072ff" stroke-width="1pt" fill="none" d="m231.36 591.4l8.83-7.065s1.767 8.83 7.065 8.83 8.83-7.652 8.83-7.652 0 7.653 5.888 7.653 10.597-7.653 10.597-7.064c0 0.588 0.588 7.064 5.298 7.064s10.597-6.476 10.597-6.476 0.59 7.654 5.887 7.065c5.3-0.59 7.065-8.242 7.653-7.653 0.59 0.588 4.12 7.653 8.242 7.064s10.01-6.476 10.01-6.476 1.176 7.065 5.886 7.065 6.476-6.476 6.476-6.476 2.353 5.297 6.474 5.297 7.065-7.064 7.065-7.064 1.176 6.476 4.12 6.476c2.943 0 6.476-6.477 6.476-6.477s1.177 8.242 4.12 7.653c2.944-0.59 4.122-8.242 4.71-7.653 0.59 0.59 4.71 7.064 4.12 7.064" transform="matrix(.3847 0 0 .3835 207.99 46.983)"/>
</g>
</svg>
