<svg viewBox="0 0 750 500" xmlns="http://www.w3.org/2000/svg" xmlns:xlink="http://www.w3.org/1999/xlink">
<defs>
<radialGradient id="a">
<stop stop-color="#ffef5d" offset="0"/>
<stop stop-color="#ea5700" offset="1"/>
</radialGradient>
<radialGradient id="b">
<stop stop-color="#952d1a" offset="0"/>
<stop stop-color="#570a00" offset="1"/>
</radialGradient>
</defs>
<path fill="#ce1126" d="M0 0h750v500H0z"/>
<path fill="#003f87" d="M0 35.714h750v428.57H0z"/>
<circle cy="250" cx="375" r="196.43" fill="#fff"/>
<circle r="162.81" stroke="#552300" cy="249" cx="375" stroke-width="4.103" fill="none"/>
<path d="M356.19 76.24c14.725-15.797 28.04 2.452 27.684 11.003-.355 8.55-15.207 27.416-28.646 12.234 13.922 3.565 18.083-12.003 25.125-12.157-7.04.155-9.92-15.26-24.163-11.078zM202.92 200.12c-7.742-20.102 14.644-23.856 22.208-19.75 7.567 4.104 18.02 25.68-1.648 30.907 9.39-10.806-2.824-21.41.157-27.74-2.98 6.33-18.18 2.06-20.717 16.584zm330.36-19.88c20.168 7.905 7.847 26.827-.314 29.594-8.16 2.767-31.256-4.144-21.86-22.074 1.69 14.17 17.82 12.387 20.514 18.846-2.696-6.46 10.74-14.7 1.66-26.366zm-263.7 212.9c-21.576-2.145-14.92-23.685-7.832-28.556 7.09-4.872 31.21-4.475 27.1 15.318-5.523-13.174-20.55-7.092-24.916-12.576 4.365 5.484-6.295 17.05 5.648 25.814zm218.06-15.59c.308 21.517-22.013 17.408-27.698 10.973-5.684-6.436-8.03-30.262 12.25-28.463-12.558 6.945-4.76 21.07-9.753 25.998 4.99-4.93 17.78 4.266 25.2-8.507zm-269-218.31c-1.968-21.43 20.606-19.03 26.768-13.044 6.163 5.985 10.342 29.564-10.02 29.31 11.99-7.878 3.123-21.37 7.722-26.663-4.6 5.295-18.063-2.9-24.47 10.398zm23.12 201.05c-21.382-3.587-13.276-24.63-5.87-29.018 7.404-4.384 31.443-2.372 25.993 17.1-4.613-13.517-20.02-8.453-24.003-14.218 3.984 5.766-7.44 16.593 3.88 26.135zM410.72 77.127c19.418-9.578 25.333 12.174 21.94 20.043-3.39 7.868-24.026 20.27-31.157 1.337 11.738 8.24 21.2-4.845 27.84-2.507-6.64-2.338-3.813-17.762-18.623-18.873zm41.32 327.363c-9.626 19.283-27.594 5.512-29.69-2.79-2.094-8.302 6.78-30.564 23.997-19.77-14.37.486-13.93 16.587-20.64 18.71 6.71-2.123 13.86 11.853 26.333 3.85zm94.29-186.11c16.316 14.177-1.705 27.883-10.325 27.764-8.623-.118-28.03-14.337-13.104-28.086-3.21 13.91 12.59 17.614 12.94 24.595-.35-6.98 15.1-10.257 10.5-24.273zM272.4 105.04c4.87-20.97 25.56-11.7 29.535-4.103 3.974 7.596.53 31.29-18.735 24.743 13.866-3.772 9.686-19.334 15.718-22.94-6.033 3.606-16.25-8.352-26.517 2.3zm-64.13 179.69c-19-10.373-4.365-27.596 4.082-29.318 8.445-1.722 30.477 8.033 18.87 24.64.13-14.266-16.098-14.523-17.947-21.267 1.85 6.745-12.528 13.235-5.006 25.945zM482.8 118.48c21.462-3.086 20.24 19.412 14.544 25.837-5.696 6.425-29.2 11.816-30.023-8.377 8.57 11.464 21.67 1.962 27.24 6.24-5.57-4.278 1.97-18.056-11.76-23.7zM360.73 425.12c-19.798 8.78-24.808-13.195-21.094-20.92 3.713-7.722 24.846-19.272 31.186-.066-11.388-8.71-21.384 3.977-27.92 1.37 6.536 2.606 3.076 17.9 17.828 19.616zm177.64-120.04c8.94 19.606-13.18 24.682-20.98 21.034-7.8-3.648-19.537-24.565-.215-30.95-8.723 11.343 4.11 21.202 1.514 27.7 2.59-6.5 18.02-3.135 19.68-17.783zm-338.71-63.15c-12.438-17.63 8.355-26.675 16.7-24.52 8.345 2.156 23.778 20.56 5.978 30.378 6.46-12.748-7.988-20.083-6.647-26.945-1.34 6.86-17.12 6.387-16.03 21.087zm116.97 170.15c-20.35 7.433-23.854-14.83-19.622-22.286 4.232-7.457 26.1-17.562 31.12 2.024-10.77-9.455-21.604 2.535-27.95-.504 6.344 3.037 1.85 18.064 16.452 20.765zm-5.87-327.14c12.058-17.888 28.08-1.927 29.076 6.574.996 8.5-10.703 29.437-26.37 16.525 14.313 1.36 15.974-14.66 22.904-15.91-6.93 1.24-12.2-13.54-25.61-7.2zm208.51 262.68c1.302 21.482-21.187 18.39-27.16 12.218-5.975-6.17-9.42-29.868 10.927-28.99-12.23 7.507-3.786 21.263-8.547 26.413 4.76-5.14 17.965 3.46 24.78-9.64zm-5.53-202.54c21.257 4.26 12.48 25.038 4.938 29.187-7.54 4.15-31.503 1.38-25.433-17.913 4.176 13.655 19.738 9.08 23.535 14.97-3.795-5.887 7.97-16.348-3.04-26.244zm-269.2-15.14c.205-21.52 22.423-16.885 27.95-10.317 5.528 6.57 7.306 30.445-12.93 28.166 12.724-6.65 5.265-20.95 10.375-25.77-5.11 4.81-17.68-4.69-25.395 7.91zm-26.88 193.97c-19.346-9.723-5.31-27.43 3.072-29.438 8.383-2.006 30.735 6.997 19.708 23.987-.364-14.27-16.59-13.97-18.67-20.65 2.08 6.68-12.065 13.65-4.11 26.1zM450 94.806c20.287-7.6 23.976 14.632 19.81 22.124-4.17 7.492-25.953 17.778-31.137-1.767 10.848 9.366 21.584-2.713 27.952.274-6.37-2.987-2-18.05-16.625-20.63zM406.94 422.71c-15.777 14.795-27.803-4.296-26.862-12.805.942-8.51 17.054-26.357 29.418-10.32-13.645-4.475-18.865 10.787-25.902 10.475 7.037.31 8.85 15.882 23.345 12.65zm138.24-164.58c14.802 15.728-4.51 27.572-13.077 26.598-8.567-.973-26.442-17.053-10.202-29.248-4.59 13.52 10.75 18.778 10.39 25.758.36-6.98 16.06-8.706 12.9-23.108z" fill="#007f00"/>
<path d="M355.23 99.477c13.92 3.563 17.41-11.815 24.45-11.97-4.11 4.91-14.83 17.423-24.45 11.97zm.96-23.237c14.725-15.797 28.04 2.452 27.684 11.003-11.95-20.833-15.69-17.62-27.68-11.002zM223.48 211.27c9.39-10.806-2.952-20.727.028-27.06 2.614 5.832 9.16 20.92-.028 27.06zm-20.56-11.15c-7.742-20.102 14.644-23.856 22.208-19.75-24.115 1.4-22.87 6.15-22.208 19.75zm308.19-12.36c1.69 14.17 17.4 11.833 20.094 18.29-6.1-2.025-21.734-7.42-20.094-18.29zm22.17-7.52c20.168 7.905 7.847 26.827-.314 29.594 15.24-18.6 10.87-20.896.314-29.594zM288.85 379.91c-5.52-13.175-19.992-6.674-24.358-12.158 6.424.298 22.948 1.256 24.358 12.158zm-19.27 13.23c-21.576-2.145-14.92-23.685-7.832-28.556-9.55 22.02-4.713 23.044 7.832 28.556zm202.61-33.08c-12.56 6.945-4.404 20.473-9.397 25.402-.434-6.37-1.357-22.77 9.397-25.402zm15.45 17.49c.308 21.517-22.013 17.408-27.698 10.973 23.133 6.91 23.61 2.023 27.698-10.973zM235.39 175.5c11.99-7.878 2.812-20.747 7.412-26.04.924 6.317 3.108 22.6-7.412 26.04zm-16.75-16.26c-1.968-21.43 20.606-19.03 26.768-13.044-23.597-5.133-23.694-.225-26.768 13.044zm43.24 189.13c-4.612-13.515-19.492-7.998-23.476-13.762 6.388.727 22.81 2.79 23.476 13.762zm-20.12 11.92c-21.382-3.587-13.276-24.63-5.87-29.018-11.027 21.332-6.273 22.678 5.87 29.018zM401.51 98.508c11.738 8.24 20.506-4.906 27.143-2.568-5.6 3.14-20.103 11.055-27.143 2.568zm9.21-21.38c19.418-9.58 25.333 12.173 21.94 20.042-3.72-23.688-8.364-22.003-21.94-20.043zm35.63 304.802c-14.37.484-13.34 16.217-20.048 18.338 2.544-5.86 9.27-20.87 20.048-18.338zm5.69 22.56c-9.626 19.283-27.594 5.512-29.69-2.79 17.402 16.63 20.073 12.5 29.69 2.79zm70.86-186.43c-3.21 13.91 12.375 16.952 12.723 23.933-5.056-3.944-17.952-14.243-12.723-23.933zm23.43.32c16.316 14.177-1.705 27.883-10.325 27.764 20.656-12.427 17.317-16.05 10.325-27.764zm-263.13-92.7c13.866-3.772 9.197-18.84 15.23-22.445-1.11 6.287-4.154 22.434-15.23 22.445zm-10.8-20.64c4.87-20.97 25.56-11.7 29.535-4.103-20.806-12.184-22.44-7.553-29.535 4.103zm-41.18 175.01c.13-14.267-15.753-13.92-17.6-20.664 5.792 2.773 20.614 10.085 17.6 20.664zm-22.95 4.68c-19-10.373-4.365-27.596 4.082-29.318-17.488 16.54-13.445 19.366-4.082 29.318zm259.05-148.79c8.56 11.464 21.025 1.69 26.596 5.965-6.307 1.25-22.577 4.278-26.596-5.965zm15.48-17.46c21.462-3.086 20.24 19.412 14.544 25.837 3.915-23.657-1.028-23.493-14.544-25.837zM370.82 404.14c-11.388-8.71-20.692 4.067-27.226 1.46 5.725-2.91 20.544-10.227 27.226-1.46zm-10.09 20.98c-19.798 8.78-24.808-13.195-21.094-20.92 2.737 23.82 7.45 22.324 21.094 20.92zm156.44-129.95c-8.722 11.344 4.197 20.516 1.602 27.014-2.96-5.668-10.404-20.34-1.602-27.014zm21.2 9.91c8.94 19.606-13.18 24.682-20.98 21.034 23.99-2.83 22.46-7.498 20.98-21.034zm-316.03-57.29c6.46-12.748-7.945-19.392-6.604-26.253 3.96 5.027 14.01 18.08 6.604 26.253zm-22.68-5.86c-12.438-17.63 8.355-26.675 16.7-24.52-23.048 7.182-20.675 11.488-16.7 24.52zm128.46 149.89c-10.77-9.455-20.92 2.67-27.263-.367 5.91-2.52 21.192-8.828 27.263.367zm-11.49 20.26c-20.35 7.433-23.854-14.83-19.622-22.286 1.11 23.948 5.91 22.773 19.622 22.286zm-3.16-304.04c14.312 1.363 15.338-14.37 22.268-15.613-3.286 5.487-11.91 19.508-22.268 15.613zm-2.71-23.1c12.058-17.888 28.08-1.927 29.076 6.574-15.09-18.723-18.276-14.97-29.076-6.575zm192.27 245.91c-12.23 7.505-3.457 20.65-8.22 25.8-.725-6.34-2.404-22.683 8.22-25.8zm16.24 16.77c1.302 21.482-21.187 18.39-27.16 12.218 23.427 5.853 23.677.952 27.16-12.218zm-26.03-191.27c4.176 13.654 19.227 8.61 23.023 14.497-6.362-.928-22.71-3.508-23.023-14.497zm20.5-11.27c21.257 4.26 12.48 25.038 4.938 29.187 11.708-20.97 6.997-22.467-4.938-29.187zm-254.17 2.7c12.723-6.646 4.894-20.363 10.002-25.173.28 6.377.812 22.795-10.002 25.173zm-15.03-17.84c.205-21.52 22.423-16.885 27.95-10.317-22.96-7.454-23.552-2.58-27.95 10.317zm-4.1 188.52c-.364-14.264-16.222-13.38-18.303-20.056 5.884 2.576 20.95 9.383 18.303 20.056zm-22.78 5.45c-19.346-9.723-5.31-27.43 3.072-29.438-16.91 17.12-12.77 19.808-3.072 29.438zm221.01-208.75c10.848 9.366 20.896-2.842 27.266.144-5.888 2.568-21.12 9.002-27.266-.144zM450 94.806c20.287-7.6 23.976 14.632 19.81 22.124-1.313-23.94-6.103-22.724-19.81-22.124zM409.5 399.59c-13.645-4.475-18.182 10.643-25.216 10.33 4.436-4.627 15.994-16.406 25.216-10.33zm-2.56 23.12c-15.777 14.795-27.803-4.296-26.862-12.805 10.497 21.576 14.446 18.617 26.862 12.805zM521.9 255.48c-4.597 13.52 10.602 18.098 10.242 25.078-4.633-4.426-16.424-15.956-10.242-25.078zm23.28 2.65c14.802 15.728-4.51 27.572-13.077 26.598 21.81-10.312 18.852-14.247 13.077-26.598z" fill="#005800"/>
<g stroke-width=".509">
<g stroke="#000" fill="#730000">
<path d="M405.26 125.34s.61-1.426 1.73-.61c1.018.812 1.32 4.375 1.32 4.375l-1.627.812s.917-1.32-1.423-4.577zm-9.25 31.95s.813-1.118-.305-3.563l1.628-.508s.61 1.93-.204 4.07h-1.12m28.18-5.6l-3.87 2.34 1.93.91 4.67-2.75-2.75-.51m-51.79 15.16c-1.02.81-1.12 2.24-1.73 3.05-.51.81-2.04 1.93-2.14 3.15-.21 1.22-.31 2.03.2 3.66.6 1.62 3.15 8.85 2.13 14.34-1.12 5.49-.71 7.83-.31 8.65.4.81 1.63 3.05 2.34 3.05 1.63-.2.91-.71 1.52-1.73 1.52-2.65 0-23.1-.71-28.8-.51-4.38-2.55-8.35-2.75-8.75-.21-.51-.61-1.83-.92-2.65-1.53-3.66-3.36-6.82-3.36-14.45 0 0-4.99 1.12-9.26-8.55-2.24-4.89-5.5-4.38-9.36-6l1.73-1.13s3.25 1.63 4.88 1.63 1.12-3.26 1.12-3.26l1.63-1.63v7.13c0 3.25 4.47 7.73 7.12 9.05 1.63.81 3.76-2.55 3.26-5.8-.51-3.26 0-7.63 0-7.63l2.23 1.32s-.81 1.42-.61 2.24c.31.81 1.42-.82 2.24-1.63 0 0 .2.2 1.02.2 0 0-1.63 2.75-2.44 4.17-.81 1.33-.81 6.52-.81 8.45 0 1.93.71 6.41.71 7.83 0 1.02 1.93 5.19 3.46 7.74a240.64 240.64 0 0 1 1.72 3.66c1.22 1.93 1.32 3.25 2.04 4.88.4.81 1.12 3.15 1.62 7.22.2 1.01.41 4.88.71 7.42.3 2.44 2.34.51 4.78-1.22 2.44-1.83 2.44-6.21 2.44-6.21s1.93-1.63 1.63-.71c-.21 1.02 1.02 2.03 1.02 2.03-1.53 3.46-.61 3.05.91 2.95 1.53-.21 6.81-4.17 6.81-4.17.72-.21 3.87-.21 3.36 0-.61.3-1.42 1.83-1.42 1.83l3.46-.41c-1.22.91-5.8 3.56-6.81 4.17-1.12.71-6.61 3.36-8.95 4.27-2.34 1.01-6.92 3.25-7.13 5.59-.11 2.34.3 8.65 0 10.68-.21 2.03-1.02 11.09-1.02 11.09H367.9s2.14-7.94-.1-10.08c-2.14-2.24-7.124-8.75-10.38-10.99-3.25-2.14 2.14-.51 2.14-.51v-2.24l4.988 6s8.65-7.63 0-18.01c-2.743-3.25-5.49-8.24-7.626-8.75-2.24-.61-3.36-1.12-7.12 0-3.865 1.12-13.123 1.12-16.99-4.99l3.26-.51 2.742-1.12s-1.12 3.87 6.612 3.87c7.63 0 8.75 0 8.14-7.12L355.8 158l1.63 1.63s-1.12 3.867-.51 5.49c.51 1.63 3.26 2.75 5.4 4.38.92.71 1.63.817 2.24.817.92-.1 1.12-.1 2.34-1.325 1.83-2.04 1.42-1.94 3.26-3.56 0 0 .91-1.43 1.12-1.63l1.12 2.95h-.01z"/>
<path d="M374.03 161.46c.405-.404 1.22-1.934 1.933-3.256 1.22-2.035 2.646-3.256 4.272-5.8 1.525-2.34 2.137-5.8 1.525-8.24l1.424.814.104 3.866s1.934-1.63 2.748-2.035l.812.4s-6.104 6.31-11.802 16.48l-1.018-2.24.002-.01zm-53.51-21.16c.814 1.42 1.63 4.172 4.07 6.307l1.628-.508s-3.764-4.38-3.764-6.31l-1.934.51m9.56-2.45s.508 5.19-.812 7.12l1.627-.81s1.12-3.56.813-5.5l-1.628-.81v-.01zm53.62-16.38s-.307 7.32 1.12 11.8l1.93-.61s-.303-1.33 1.323-1.94c1.63-.51 5.494-2.14 7.426-3.77l-.61-1.63s-2.95 2.34-4.38 2.95c-1.32.51-2.14 1.12-3.26.81-1.12-.31-2.44-2.14-1.63-6.31l-1.93-1.32m21.56 34.19s-.51 5.19-.2 7.43l1.73.4s-.41-6.21.71-6.72l-2.24-1.12m7.74 3.87s-1.94 3.35-4.17 3.66l3.56-.72s1.02-.51 2.54-2.14l-1.93-.82"/>
</g>
<g stroke="#030" fill="#289400">
<path d="M381.87 144.16l1.32.81 1.425.207s1.525 1.424 3.256 2.745c1.33 1.122 1.33-.202 1.33-.202l.81 3.256h1.12s-.3 2.136-.3 3.256l1.94-1.63 2.24 1.935s1.63-1.424 2.44-1.424c.82 0 1.12-.812 1.12-.812h.11c-5.39-2.54-7.73-5.19-6.1-7.93 2.65-4.58 7.02-1.63 8.45-1.01l19.74 10.58s1.32-.81.41-1.63c-1.02-.81-1.42-2.84-1.12-3.66.31-.81 2.54 2.54 3.66 2.85 1.12.31 3.66.72 3.66.72l-.1-1.02s3.26 2.24 3.26 3.36 2.34-1.22 1.53-1.93c-.81-.71 3.57 1.73 3.87 3.06l.92-1.02c-.1 0 .31-3.25 1.43-4.78 1.02-1.52 2.14-1.93 2.14-1.93s1.02-1.73 2.04-1.73-1.02-.71-1.42-1.52c-.51-.82-1.73-1.22-1.73-1.22s1.53-1.12 1.94-1.63c.4-.61.81-.71.81-.71s-2.34-1.93-3.97-2.23-.1-2.65-2.14-2.85h.92s-1.53-2.85-2.95-2.95.91-1.02 1.73-1.12c0 0-1.73-2.24-4.07-1.43l1.52-.61s-1.12-1.22-4.57-.61.3-1.42-1.22-2.54c0 0-1.33.1-1.33 1.12 0 0-1.22-1.12-2.75-1.12s.51 1.63.51 1.63-2.03-1.32-3.25-.92.51-2.34-.82-3.56c0 0-1.52.82-1.93 1.84l-.4-1.02s-2.03 2.44-2.44 1.73c-.3-.41-.61-2.14-.61-2.14l-1.23 1.83.2-2.54s-1.42.81-2.54 3.46-1.42 1.33-1.42 2.54c0 0-1.12-1.32-2.14 0-.92 1.43 0 1.12 0 1.12s-.41.51-1.43.71l.21.82s-1.32-.71-2.34-.4l.5 1.22s-2.65.21-2.75-1.93-2.24-1.12-2.54.1l-1.63 1.02s-.51-1.02-1.43-1.22c-1.01-.31-.2 1.32-.2 1.32s-.3-1.22-1.52-1.83c-1.22-.5-.2 1.12-.2 1.12s-1.63-1.32-.81-2.34-1.53 1.42-.81 2.75l-1.02.71s-.51-.5-.41-.91c.11-.41-1.73 1.22-1.73 1.22s-1.12-2.64 0-2.64c.1 0-1.93-.1-2.23 2.24 0 0-1.32.1-2.54.51-1.32.41.92 1.32.92 1.32s-1.93-.41-3.05.2l.72.92s-.71-.71-2.44-.11c-1.83.51.41.81.41.81s-1.83-.4-2.75 0c-.92.41.3 1.12.3 1.12s-3.36-1.01-3.87-.71c-.5.31 1.12 1.94 1.12 1.94s-2.03.51-2.44 2.03l1.83.71s-.81.41-1.22 1.23c-.4.82 1.22.41 1.22.41s-2.23 1.63-2.23 2.85 1.63.51 2.85-.71.41-.81.41-.81l.1.81s2.34-1.01 2.34-1.62c0-.51-.4.81-.4.81l2.34-1.22 1.52 1.02z"/>
<path d="M379.93 112.42l-.51-2.238 5.19.608.914-2.135s2.44 1.118 3.256 1.93 4.78-1.22 6.207-.71l-.61 2.24s4.373.302 5.8.81c1.32.51-.61 1.63-.61 1.63s4.984.61 7.122 1.933c2.23 1.32 2.23 2.442 1.12 2.745l2.74 4.375s-4.38.508-5.19 1.626c-.82 1.12-1.63-1.118-1.63-1.118l-.82 3.052s-2.75-1.426-3.87-2.442-1.32 1.63-.51 2.442l-4.99-3.256s-2.14-.304-2.14 1.63-2.44-2.748-3.05-3.563l-2.75.81s-.81-1.12-1.83-1.43c-1.12-.2-.31 1.42-.31 1.42l-1.63-1.94-1.63-1.93s-1.43 1.93-2.55 1.93c-1.02 0-1.02-1.32-.81-2.24.3-.82-3.26-1.02-3.56 0 0 0-1.02-4.07 2.74-5.19l3.86-1.02zm-19.73 13.94l-1.73 1.63-1.018-.51-2.034 2.238-.407-1.223-1.11 1.832-1.73-.61-.81 1.323-1.52-.306s-1.32 1.222-2.13 1.526c-.81.206 0-1.83 0-1.83s-1.22 2.035-2.13 2.035c-.81 0-.5-.916-.5-.916s-.5 1.31-1.52 1.52c-.92.1-.51-1.02-.51-1.02l-1.63 1.22v-1.02l-.71-.31s.4-1.83 1.12-2.24c.71-.41-.71-1.63-.71-1.63l.71-.82s-2.03-.51-2.03-.1 1.02-2.75 2.45-3.26l.1-3.05s1.43-1.22 2.75-1.33c1.42-.21-.41-2.34-.41-2.34l3.26-1.93.41-2.34 4.98.4 1.02-2.13 3.97 1.01 3.36-1.73 2.44 2.85 3.66.3s-.1 2.54-.1 3.25 4.38 1.32 4.89 1.73c0 0-.81 2.64-.81 3.15 0 0 3.05-.82 3.97-.61 0 0 .31 2.85.41 3.56 0 0 5.19 1.63 5.5 2.54 0 0-1.12.71-1.73 1.63 0 0 .61 3.16.61 4.17l-.41.61s-1.52-1.42-2.74-1.63l-1.02 2.23-1.83-1.22-1.12.1s-.91-1.12-1.63-1.12l-.1-1.02-1.42.91s-2.23-1.12-2.23-1.83c0-.61.1-1.63.1-1.63l-2.34 1.63s-.51-1.22-.4-1.73c.11-.51-.91 1.22-.91 1.22s-1.22-2.14-1.12-2.55l-.3 1.73s-2.44-.81-2.75-2.44z"/>
<path d="M327.64 136.33s4.274 2.14 4.274 3.156 1.12-2.24.508-3.054l1.63 1.122s.505-2.034-.104-2.647c-.51-.508 3.66-2.235 4.576.51 0 0 2.545-2.645-2.34-4.885 0 0-.404-1.626 2.545-1.22 0 0-.21-1.017-.92-1.423h2.85s-1.73-1.43-4.28-1.84c-2.44-.41-.92-.71-1.02-1.23-.21-.51 0-2.34 0-2.34s-1.43-.51-2.55.1l.4-.51s-2.65-.71-3.66-.1-1.53-.61-1.33-2.24c0 0-1.53-.1-2.24 1.52 0 0-1.43 1.63-3.36 1.63-.41 0-1.83-.82-1.83-.82l-1.22 2.85-1.93-.1.61 1.12s-2.95-.81-3.87 0 1.12 1.73.81 2.95c0 0-2.34.41-2.85.81-.61.4.81.71.81.71s-2.65.81-3.26 1.63l1.02.81-1.23 1.63 1.02.2s-1.73.51-2.65.81c-.92.3 1.63.51 1.63.51l-1.22 1.12 1.93.3s-1.52 4.07-1.63 6 2.34-2.85 2.95-3.06l-1.83 3.05s3.46-1.12 3.77-1.63c.3-.61.61-1.12.61-1.12l.1 1.73s1.32-1.83 1.52-2.54c.1-.71 2.13.72 2.13.72v-1.02s1.83.61 2.44.71c.71.1.81-.31.81-.31l1.73-.21-.31 1.42s1.22-.81 1.52-1.63c.21-.82.81 0 .81 0l.81-3.26h1.73v.01zm-13.94 14.45l1.628 3.358c-1.322.1-3.256 1.626-3.256 1.626.304 5.597-1.118 5.29-1.118 5.29.403 1.02-.26 2.906-.26 2.906l8.093-4.837.102-.508 9.56-4.48.3.508 2.75-1.524 1.93 5.08-1.94 1.12c.1 1.73 2.14 4.78 2.14 4.78l2.54-.61 2.74-1.02s.1 1.52.1 1.02c0-.41 2.95-1.43 2.95-1.43l1.32 1.32c1.02-.1 2.85-2.55 2.85-2.55l2.13.81s.71-1.22.71-2.14c0-.82 2.64-.82 2.64-.82l1.83 1.32 2.34-1.93s.71 1.42 1.63 1.63c1.02.1 3.56 2.03 3.56 1.63 0-.41 1.12-2.65 1.12-2.65l4.27 1.73c-.61-1.94-2.03-4.28-2.03-4.28s2.03-1.63 1.62-2.03-1.63 0-1.63 0l1.22-2.44h-1.63l.51-.61-2.65-1.12 1.42-2.85c-.61-.72-7.63-2.14-7.63-2.14l1.63-1.53s-.82-1.22-1.63-1.22-5.09.1-5.29-.3c-.1-.41-1.83-1.94-1.83-1.94l-2.65 1.93-1.32-.41-2.34.92s0 1.32-.31.4c-.3-.82-2.44-2.95-2.44-2.95-.41.71-3.15 3.97-3.15 3.97s-.41 1.73-1.32.51c-1.02-1.22-3.15-2.54-3.46-1.53-.31 1.12-2.24 2.13-2.65 1.83-.41-.31-2.65-.1-2.85.51-.1.71-2.55 2.54-2.55 2.54-1.53-.71-3.97-.3-3.97-.3s-.71 1.12-.81 2.03l-4.99 1.32v-.01zm45.99 41.21v-2.138l2.44 1.63 1.425-1.63 1.832 1.83 1.12-1.83v2.952l2.746-2.44 1.626.71v-2.34s1.93-3.258 1.12-3.866l1.62-.508s-2.75-2.748-3.56-3.258c-.81-.608-1.93-.608-1.93-.608s-2.14-2.14-3.56-2.748c-1.33-.508-2.14.608-2.14.608s-.81-1.626-2.24-1.933c-1.32-.3-1.32 1.12-1.32 1.12s-1.02-1.01-2.34-1.52c-1.33-.61-.41 1.22-.41 1.22l-4.68-1.42.61 1.42-4.38-1.11.5 1.63-3.05-.51-.21 1.33-4.38.82.81 1.43-2.75-1.12v1.94l-3.06 1.12 1.12 1.02s-4.07 1.94-4.89 2.55c-.81.51 1.63 1.63 1.63 1.63l-4.38-.61 1.63 1.43-3.87 3.57 2.74 1.94-1.63 2.44 4.07.81 1.62 2.75 3.35-.61v3.05l4.88-3.86s3.56 3.16 3.87 2.24c.2-.81.2-3.56.2-3.56h1.73v-2.75l1.32 1.12 2.24-3.26 2.95 4.07 2.24-5.19 3.25.51zm19.94-12.31l-.508-4.68-1.423 1.424.6-4.375-2.24-.41.81-4.27-1.63-.82.4-2.04 1.63-1.22 2.95-2.85 6.81.1.81-2.24 4.88.81c.81.91 3.35-1.83 3.35-1.83h1.02l1.12 2.13s3.56-.51 5.18.61l-1.94 2.64 3.56.3 2.44.51 2.54-.82 3.26-.21.82 1.32h3.05l-1.02 1.22 3.97 1.83-.81.81s2.23.81 3.86.81h.81s.81 1.93-.31 2.74 1.12 2.75 3.57 3.26c2.44.5 2.44.5 2.74 1.11.31.51 0 3.26-2.74 3.26v2.75s-2.14 1.93-2.44 2.74l-1.63-1.12s-1.43 1.63-1.43 2.75-3.56-4.68-4.89-4.89c-1.43-.31-1.12 2.64-1.12 2.64l-3.87-3.26-.51 2.23-3.25-2.75-1.93 1.32-3.46-3.56-3.36.4 1.32-1.73h-4.07l-.81-3.56-.61 2.95-2.44-1.63-3.15 3.46s-.41-.41-.92-2.04c-.51-1.63-1.93 1.93-1.93 1.93l-1.12-2.54-1.32 2.54s-1.12-1.93-2.24-2.54c-1.02-.51-2.14 3.05-2.44 4.68zm.61 10.68l.203-1.626 5.798-2.24 4.89-1.832 2.44-1.118 1.12 1.932 1.43-2.745 2.24 2.85 1.22-1.52 1.94 1.43h1.63l.31 2.14s4.07.31 4.38-.51c.31-.81.82 2.75.82 2.75l3.87.51.82 4.38s1.93 4.07 1.32 5.7c-.51 1.73-2.14-2.14-2.14-2.14s-.3 3.05-.61 3.87c-.2.81-5.18-.81-5.18-.81l-2.14 4.07s-2.24-3.25-3.25-3.25c-1.12 0-1.12 3.26-1.12 3.26s-3.25-3.86-4.68-5.49c-1.32-1.62-1.63 1.63-1.63 1.63s-2.13-3.56-2.13-4.58c0-1.12-1.93-2.24-1.93-2.24s-3.35 3.87-5.8 4.89.31-2.44-.5-3.25-3.25 1.63-3.25 1.63-1.73-3.76 0-7.63h.01z"/>
</g>
<g stroke="#004b00" fill="none">
<path d="M407.1 129.71l.51 2.035s1.83-.408 3.052-.305-.305 1.627-.712 2.34c0 0 2.44-.406 3.56.304l-.508 1.22 2.85 1.22-2.646 2.137s4.27 1.53 5.087 2.75-2.746 1.93-3.154 1.83c-.41-.2-.11.82.61 1.73l-2.35-.1s.91 2.14.81 2.95c-.1.82-3.87.61-3.87.61m14.65-5.49s.71-4.07-.41-5.08 2.64 2.24 4.37 2.34c1.83.11-.11-3.35-.11-3.35s2.54 1.32 3.76 1.63c1.22.21-.92-2.54-.92-2.54s.71-1.33 2.75-.1m-47.3-16.17s.1-.91-.31-1.42c-2.44-3.36 2.54 2.55 3.56 2.75m4.67 0s1.63 1.22 2.44 1.22-.51-3.25-.92-3.66c-.41-.41 2.95 1.32 4.17 1.53 1.22.31 1.42-2.03 1.42-2.03s3.76.61 4.58 1.12m-26.15-.71s-.31-2.13-.41-3.05M355 128.6c-.203-.41 1.02-2.24.51-3.056 0 0 .71.612 1.424.714.61.1.404-2.343.404-2.343l.812.304s2.14-1.02 1.73-1.84c-.4-.81 1.43 1.22 1.43 1.22s1.22-1.22 1.22-1.73c0-.52 1.42 1.22 1.42 1.22s1.53-.31 1.53-1.22c0-.92 1.94.3 1.94.3s.81-1.12.71-1.83m-20.55 10.17s.914-2.14-.103-3.56m-24.616 10.27c.11-1.02.61-3.77.11-4.17-.51-.41 1.02.41 2.24.71m9.66-.4c-1.22-1.22-1.93-1.83-3.86-1.83m-16.79 8.64c.31-.71.82-2.44.51-3.45m26.04 53.93l1.33-2.75 1.63 3.86 1.12-2.44.41.81 2.44-2.65 2.65 3.97m42.43-17.2l1.73-3.46 2.34 1.22 1.12-3.36 2.44 1.53 1.42-3.15 2.75.71.21-2.24s1.94 1.12 2.44 1.93c.61.81 0-2.75 0-2.75l2.24 1.01s1.63-1.63-.61-2.54"/>
<path d="M399.57 169.91l2.44 3.562 2.034-2.34 1.832 3.967 2.34-1.43 3.356 1.93 1.525-1.22 3.662 2.64 1.52-3.16 3.25 1.01 2.13-3.66m-87.9-9.57s1.42-2.45.91-3.57c-.61-1.12 2.95 1.93 2.95 1.93s.81-2.45.3-3.56c-.61-1.12 4.07 3.25 4.07 3.25s.81-3.77 0-4.58c-.82-.82 4.47 1.12 4.47 1.12s2.14-.61 1.32-1.73c-.82-1.12 3.56 1.63 3.56 1.63s1.02-2.75 0-3.77c-1.12-1.12 3.25 1.32 3.25 1.32l-1.62-2.94 3.56.2-.31-3.26m31.54 47l2.34-1.12 2.03 2.03 2.24-3.56 2.74 2.64.4-2.65 2.95 1.22.61-1.64 3.26 1.73.31-2.44 1.63.51.3-1.63"/>
</g>
</g>
<path d="M336.59 310.53a72.746 72.746 0 0 1-6.207-13.53l44.052-38.77 44.055 38.665c-1.526 4.475-3.562 9.26-6.41 13.84l-.35.563c-.813-.303-3.313-1.276-3.313-1.276s-1.425 1.324-2.54 1.424c-1.527.205-2.85-1.32-2.85-1.32s-1.934 1.627-3.866 1.32c-1.93-.2-2.74-1.424-2.74-1.424s-2.03 1.63-3.46 1.324c-1.32-.31-2.23-1.225-2.23-1.225s-1.22 1.53-2.95 1.23c-1.62-.31-3.15-1.22-3.15-1.22s-2.54 1.12-4.17 1.33c-1.62.31-3.05-1.42-3.05-1.42s-2.13 1.43-2.95 1.43c-.81 0-3.86-1.42-3.86-1.42s-3.15 1.02-4.27 1.02c-1.02 0-4.17-1.32-4.17-1.32s-2.95.81-4.27.81c-1.42 0-3.46-.81-3.46-.81s-2.44 1.12-3.76.81a13.78 13.78 0 0 1-2.54-.81s-2.64 1.12-4.37.81c-1.63-.3-3.56-1.42-3.56-1.42s-.31.82-3.46 1.42h-.1" fill="#9dd7ff"/>
<path stroke="#000" stroke-width=".712" d="M374.44 213.66v44.566L330.387 297.2c-4.272-12.414-4.577-23.504-4.577-28.285V213.66h48.63" fill="#fff"/>
<path stroke="#000" stroke-width=".712" d="M374.44 213.66v44.566l43.95 38.974c4.272-12.414 4.578-23.504 4.578-28.285V213.66H374.44" fill="#ffd83c"/>
<g stroke="#000" stroke-width=".509">
<path d="M346.02 301.27c3.312 1.795 2.19 1.23 9.055 3.66 5.597 1.937 12.106 2.85 21.567 2.85 8.278 0 12.938-.657 15.56-1.38 2.72-.78 3.363-1.878 3.363-1.878l-6.814 6.92s-27.39 1.48-32.35-1.73c-1.93-1.018-6.1-4.374-10.37-8.443z" fill="#730000"/>
<path d="M386.21 288.35s8.75 4.984 0 14.55m-39.37-1.12l12.615-12.01-1.424 16.078m6.61 1.422v-26.86m21.57 26.86v-28.49m-10.89 29v-30.625" fill="none"/>
<path d="M364.64 281.84l-5.698 1.832 5.698.61v-2.442m10.68-4.18l-6 2.24 6 .203v-2.443m10.89 1.63l-6.002 2.24 6.002.303v-2.546.003zm3.56 12.93c-.305-1.222 3.562-1.118 3.562-1.118s1.12 4.068 0 6.61l-3.255-.608s.305-2.746-.307-4.884z" fill="#ff0018"/>
<g fill="#fff">
<path d="M348.77 300.15l10.683-10.38-.51 6.208s-5.492 3.56-5.492 6.104l-4.68-1.932m5.69 2.14s1.12-3.256 4.17-4.883l-.3 6.512-3.86-1.63zm15.37-18.01s4.38-.61 7.63 0-.51 4.375 0 5.188c0 0-6-1.425-8.44.812 0 0-.81-4.07.82-6zm-9.26 1.12s4.38-.61 7.63 0-.81 4.886-.3 5.7c0 0-4.88-2.75-7.32-.513 0 0-1.63-3.355 0-5.187z"/>
<path d="M360.26 291.09s4.374-.508 7.63 0-.508 4.375 0 5.19c0 0-5.697-1.323-8.14.813 0 0-1.12-4.07.51-6.003zm8.75-.81s6.308-.81 9.562-.303-1.322 3.56.307 6.002c0 0-6.82-1.84-9.37.3 0 0-2.14-4.07-.51-6zm-9.25 6.82l8.442.61s-.812 6.206-.305 7.02-6.815-1.63-8.14.608c0 0-2.24-5.696 0-8.24h.002v.002zm9.56 0s7.322-.51 10.682 0-1.936 4.683.204 8.75c0 0-9.565-2.744-10.89-.51 0 0-2.234-5.697 0-8.24h.004zm11.19-12.82s4.373-.61 7.63 0-.507 4.375 0 5.188c0 0-6.002-1.425-8.442.812-.002 0-.816-4.07.812-6zm0 6s4.373-.508 7.63 0-.507 4.375 0 5.19c0 0-6.002-1.323-8.442.814-.002 0-.816-4.07.812-6.004zm.51 6.31s4.373-.607 7.73 0-1.12 6.817-.61 7.63c0 0-4.98-2.34-7.323-.302 0 0-1.423-5.392.203-7.328z"/>
<path d="M390.07 297.1s1.422 5.187 3.254 5.8l-2.44 2.95s-2.95-2.137-3.256-4.576 1.932-2.24 2.442-4.174z"/>
</g>
</g>
<g stroke="#000" stroke-width=".61">
<path d="M411.88 311.14c-7.02 11.703-18.516 22.69-37.438 29.506-19.23-6.916-30.928-18.414-37.847-30.016l.103-.102c3.153-.613 3.46-1.424 3.46-1.424s1.932 1.12 3.56 1.424c1.73.303 4.374-.814 4.374-.814s1.12.51 2.543.814c1.322.303 3.765-.814 3.765-.814s2.034.814 3.458.814c1.322 0 4.273-.814 4.273-.814s3.16 1.32 4.17 1.32c1.12 0 4.28-1.018 4.28-1.018s3.06 1.426 3.87 1.426 2.95-1.426 2.95-1.426 1.43 1.73 3.05 1.426c1.63-.203 4.17-1.32 4.17-1.32s1.53.915 3.16 1.22c1.73.306 2.95-1.22 2.95-1.22s.92.915 2.24 1.22c1.43.306 3.46-1.323 3.46-1.323s.82 1.22 2.75 1.42c1.93.3 3.87-1.32 3.87-1.32s1.32 1.52 2.85 1.32c1.12-.1 2.54-1.43 2.54-1.43s2.55.81 3.46 1.12" fill="#006ac8" stroke="none"/>
<path stroke-width=".509" d="M410.15 313.79c-1.525.104-1.73-.916-1.73-.916s-2.03 1.73-3.966 1.425c-2.034-.31-2.95-1.63-2.95-1.63s-2.137 1.73-3.562 1.42c-1.423-.21-2.44-1.22-2.44-1.22s-1.32 1.53-3.052 1.22c-1.73-.21-3.257-1.22-3.257-1.22s-2.746 1.12-4.477 1.42c-1.73.3-3.153-1.63-3.153-1.63s-3.968 1.32-4.78 1.32c-.917 0-3.767-1.32-3.767-1.32s-1.932 1.22-3.05 1.22c-1.22 0-4.477-1.43-4.477-1.43s-3.06.81-4.48.81c-1.43 0-3.56-.82-3.56-.82s-2.65 1.12-4.07.81c-1.43-.31-2.55-.82-2.55-.82s-2.85 1.11-4.58.81c-1.73-.31-3.77-1.43-3.77-1.43s-.31.71-3.66 1.42h-.11" fill="none"/>
<path d="M346.97 317.94s-.284.665-2.938 1.25c-.056-.004-.718.156-.718.156.244-.044.443-.08.656-.125a12.33 12.33 0 0 1-.75.25c3 4.34 7.494 8.27 12.177 11.43s10.065 6.92 19.23 9.61c9.634-3.76 12.205-5.19 18.502-9.41 6.29-4.6 9.57-7.46 13.09-12.18-2.75 1.56-2.36 1.58-3.79 1.38-1.43-.3-2.47-1.34-2.47-1.34s-1.3 1.55-3.03 1.35c-1.73-.3-3.25-1.34-3.25-1.34s-2.26 1.54-4.5 1.44c-1.73-.1-3.16-1.62-3.16-1.62s-3.97 1.31-4.78 1.31c-.92 0-3.75-1.31-3.75-1.31s-1.95 1.22-3.07 1.22c-1.22 0-4.47-1.44-4.47-1.44s-3.05.81-4.47.81c-1.43 0-3.57-.81-3.57-.81s-2.54 1.12-4.07.81c-1.43-.3-2.56-.81-2.56-.81s-2.84 1.12-4.57.81c-1.73-.3-3.78-1.4-3.78-1.4z" fill="#5ac800"/>
<path d="M374.63 340.51c9.953-4.143 11.75-5.27 17.77-8.95-1.05.028-4.103-.958-2.998-1.273 0 0-1.224 1.103-2.444 1.103-1.12 0-4.375-1.42-4.375-1.42s-3.05.81-4.476.81-3.56-.81-3.56-.81-2.647 1.116-4.07.81c-1.426-.302-2.545-.81-2.545-.81s-2.95 1.116-4.577.81c-1.73-.302-3.765-1.423-3.765-1.423s-2.504 1.328-4.076 1.48c4.81 3.523 9.872 6.962 19.116 9.673z" fill="#ffd800"/>
</g>
<g stroke="#000" stroke-width=".509">
<path d="M367.88 259.34c1.977-1.61 3.112-3.16 2.452-4.362-.743-1.033-1.905.646-3.214.252 0 0-1.976-1.222-2.515-2.098-1.153-1.28-2.636-2.434-3.49-3.535-.905-1.02-4.31-5.522-9.492-10.704-1.49-.972-1.14-4.65-2.21-5.792-.09-.79-10.36-10.96-14.02-14.63-1.48-1.09-2.26-1.79-4.86.57-2.05 1.86-2.79 3.77-.1 6.08l13.36 12.15c1.95 1.9 4.68 2.24 5.82 3.23l13.58 13.89c1.71 1.48 2.53 2.53 1.57 3.79-1.07 2.08.08 2.36.32 2.42.16.09 1.11.09 1.75-.41l1.08-.81z" fill="#b34b00"/>
<path stroke-width=".5" d="M334.02 222.92l13.958 13.792" fill="none"/>
<path stroke-width=".571" d="M352.92 229.22c.216-.415.688-1.473 1.187-2.627.196-.456 3.95-6.444 5.823-6.62 0 0 11.677 8.495 11.686 8.607.04.458-5.065 8.093-5.51 7.513 0 0-13.68-5.743-13.186-6.873z" fill="#fff"/>
<path d="M360.36 231.22c-1.6-1.242-4.242-2.453-6.375-3.875l-.958 2c.77.863 10.487 5.38 12.083 6.25 0 0-1.85-2.122-4.75-4.375z" fill="#ccb8c8" stroke="none"/>
<path stroke-width=".4" d="M353.98 227.09c1.25.875 3.625 2.375 5.125 3.25 2.875 2 4.695 4.203 6.75 5.375" fill="none"/>
<path d="M330.32 263.48l26.587-32.904c.498-.456 2.963-.48 3.297 2.068l-25.18 34.315c.002 0-2.867-.29-4.704-3.48z" fill="#782121"/>
<path d="M419.44 263.84c-.916.715-2.473.9-2.473.9-1.73-2.035-3.156-4.172-5.597-6.816l-26.555-32.663 2.747-2.64 23.907 27.98c.71.71 4.88 5.09 8.85 10.28 0 .01.35 2.04-.89 2.97z" fill="#730000"/>
<path d="M393.87 229.43l-4.274-5.088s-3.255.406-3.864 2.138-2.34 3.867-8.547 4.274c0 0 1.73 7.223 8.953 11.09 0 0 2.646-7.43 5.188-8.753 0 .01 2.644-1.93 2.544-3.66z" fill="#fff"/>
<path d="M383.19 252.02c-.61-.205-1.22 0-2.137.51-.812.51-1.83.303-1.73-.715.103-.916 0-.812 1.12-1.524 1.63-.91 3.765-1.01 5.087-.51l-2.34 2.24m28.99-28.9c-.204-.71-.405-1.42.305-2.33.713-.81.713-2.24-1.02-1.53-1.728.72-2.338 2.65-.913 5.6l1.626-1.73h.002z" fill="#730000"/>
<path d="M382.58 252.63l30.114-29.915 7.425 7.937s-1.53-.612-2.14-.206c-.51.408.61 1.934.61 1.934s-1.43-.508-2.04-.102c-.72.405 0 2.136 0 2.136s-1.22-.916-1.84-.51c-.51.408 0 2.34 0 2.34s-1.63-.508-2.04-.103c-.41.41 0 2.14 0 2.14s-1.63-.81-2.44 0c-.82.81.4 1.94.4 1.94s-2.04-.81-2.85.41c-.82 1.22.1 2.34.1 2.34s-1.63-.81-2.04-.41c-.41.41 0 2.34 0 2.34s-1.43-.81-2.34.21c-.92 1.12.1 2.04.1 2.04s-1.32-.81-2.04-.41c-.71.41.2 2.34.2 2.34s-1.32-.91-2.24 0c-.92 1.02 0 2.04 0 2.04s-1.12-1.01-2.24 0c-1.02 1.12 0 2.24 0 2.24s-1.63-.81-2.24 0c-.72.81.2 1.94.2 1.94s-1.22-.71-2.04-.31c-.81.41 0 2.24 0 2.24s-1.22-1.32-1.73-.61c-.61.71.1 2.44.1 2.44s-1.12-1.32-1.73-.61c-.72.61.4 2.14.4 2.14s-2.03-.91-1.52-.91z" fill="#fff"/>
<path d="M410.96 225.16l-2.34 2.34.508 8.04s.51-2.34 1.22-.715.205-1.932.713-1.626c-.4-.21-.1-8.04-.1-8.04m-4.37 4.37l-1.73 1.62.61 8.04s.51-3.05 1.22-.61-.1-2.04-.1-2.75v-6.31m-18.21 18.02l-1.62 1.72.41 4.88s.51-3.16 1.22-.72-.2-2.04-.2-2.75c0 .51.21-3.16.21-3.16" fill="#7e4b7e" stroke="none"/>
<g stroke="#7e4b7e" stroke-width=".916" fill="none">
<path d="M386.34 227.4c1.12 1.12 4.274 5.187 4.274 5.187m-2.844-2.947c-.202.612-.607 2.34-1.523 3.256m2.023-2.856c-.102.406-.102 1.73-1.523 3.054m2.033-2.434c-.204.71-.305 1.22-.812 1.73m1.122-1.12c0 .508-.303.61-.405.916m-3.355-2.856c-.406.405-3.358 2.338-4.985 2.95m4.165-1.83c-.406.408-2.238 1.832-3.256 2.24m2.956-1.02c-.61.41-1.628 1.424-2.44 1.73m1.83-.51c-.406.508-1.018.916-1.525 1.222"/>
<path stroke-linecap="square" d="M365.94 234.01c.332-.613.91-1.816 1.667-2.917.96-1.397 1.372-1.633 1.875-2.125"/>
</g>
</g>
<path stroke="#060" stroke-width=".509" d="M267.72 316.03c1.526.71 0-4.987.507-7.123.61-2.238 4.984 5.494 7.123 6.514 2.238 1.12 15.87-5.39 15.87-5.39l3.256-6.1 1.73 4.99s3.763-4.37 4.883-6c1.11-1.62 0 3.26-1.12 4.89s3.25 2.24 2.74 5.5c-.51 3.26 4.37-2.24 4.37-2.24l12.61 1.12s2.13-7.63 5.49-12l1.02 4.89 5.19-5.29c5.8 15.27 18.01 31.85 43.03 40.91 23.5-8.55 35.6-23.71 41.91-38.16l7.02 7.23s5.49-1.63 6.51-2.24c1.12-.51 12.92 4.17 12.92 4.17s2.13.82 3.25 1.63c1.11.82.3-3.56.3-3.56s6 1.12 5.49 4.38 1.32-3.05 2.44-3.56 3.76 2.75 4.37 3.87c.51 1.02 13.43 2.65 15.26 3.77 0 0 1.42 1.63 1.42 2.75 0 0 2.75-.3 4.88-.3 0 0-1.63.81-1.63 2.54 0 1.63-.82 2.95-2.44 3.77-1.63.82 0 1.42 2.13 1.63 2.24.3 0 3.05-4.38 4.68 0 0-1.02 2.44.81 3.25 0 0-3.77.3-4.38-.82 0 0-1.32 2.55-1.32 3.87 0 0-4.07-1.32-5.19-1.93 0 0-1.63 1.63-.51 2.44 0 0-7.43-.81-8.85-3.56 0 0-2.65.81-2.14 1.73 0 0-5.19-3.56-6.82-3.56l-1.12 1.83s-3.56-2.14-4.68-2.14c-1.02 0-.2 1.63-.2 1.63l-4.99-3.05-1.94 3.05s-4.07-1.93-5.19-2.74c-1.02-.81-1.32 1.63-2.14 1.93 0 0-1.63-2.23-3.87-1.93 0 0-.81 2.75-.51 3.56 0 0-6.31-1.32-7.43-1.63-1.12-.3-.51 1.32 0 2.45 0 0-4.68-1.32-5.7-2.14l-.3 2.14s-3.86-.31-4.68-1.12l-2.44 3.36h-3.56l-.81 2.95s-6.81-1.93-7.43-.81c-.5 1.12.31 2.74.31 2.74l-6-.81-.51 2.44s-6.92-2.14-8.55-1.12-2.14 2.24-3.56 2.75c-1.32.61 0-.81 0-.81l-2.14-2.95s-2.45 1.32-3.87.81c-1.32-.61-5.7 2.14-7.13 1.32 0 0 0-1.93-1.11-2.44-1.02-.51-2.95-.51-3.77.82 0 0-.81-1.12-2.24-3.26-1.32-2.24-3.26.2-3.26.2l-.31-2.64-3.76-.31a3.26 3.26 0 0 1-2.75-2.24s-5.8.61-6.61.31l1.42-1.32s-7.94 1.63-9.56 1.02c-1.73-.51 1.83-2.75 1.83-2.75s-7.33-1.83-8.75-2.13c-1.32-.31-9.26 1.32-10.38 1.32-1.12 0-1.63-1.83-1.63-1.83s-1.93 1.63-3.56 2.14-1.32-3.26-.51-3.57c0 0-5.19 1.43-5.5 2.75 0 0-1.32-2.14-1.12-3.05 0 0-2.44 3.87-3.56 4.68-1.12.82-.2-1.93-.2-1.93s-3.05 3.87-4.17 4.17v-2.75s-8.75 4.68-11.19 4.07 0-1.94.81-2.44l-5.5-.3c-1.32-.2-2.95-.81-4.37-1.12-1.32-.2 1.93-1.63 4.17-1.02 0 0-6.1-2.24-7.93-1.12 0 0-.81-2.24 2.44-3.06 0 0-4.17-4.07-6.61-3.76 0 0 2.74-1.63 4.98-.81 0 0-2.55-6.92-4.17-7.73 0 0 5.8-1.02 7.42-.2v-.01z" fill="#289400"/>
<path stroke="#000" stroke-width=".509" d="M259.27 196.67l74.064-38.36c.355-1.983-.77-3.54-1.932-5.09-21.18 10.388-40.456 22.993-63.992 30.63-1.322.51-13.022 5.392-19.025 12.618-1.903 1.908-2.043 4.724-2.043 4.724s.146 3.23.825 4.104.176.887 1.282 1.596c-.02 0 .68.34 1.16.17.54.1 1.41.093 2.63-2.046 1.22-2.037 5.19-6.716 7.02-8.346z" fill="#730000"/>
<path stroke="#000" stroke-width=".509" d="M318.89 158.72l9.562-4.58s3.257 2.442 2.95 5.19.713 6.307 8.548 10.682c0 0-6.615 8.24-18.21 8.955 0 0 1.33-10.876-1.11-14.032 0 0-.407.39-.23-.15.346-1.058-.236-4.688-1.72-5.487-.182-.1.117-.396.21-.578z" fill="#FFF"/>
<path d="M330.08 160.04c-2.034.814-8.647 4.272-8.647 4.272m5.497-2.242c-.103 1.017-.713 3.46 0 5.19m-.92-4.88c0 .508-.813 2.34.103 4.783M325 162.89c-.204 1.02-.406 1.63 0 2.75m-.82-2.14c-.203.61 0 .916 0 1.32m6-1.63c.304.812 3.052 5.086 4.68 6.816m-4.27-4.886c.307.814 1.832 3.765 2.95 4.886m-3.15-3.156c.406 1.018 1.22 2.85 2.034 3.866m-2.034-1.826c.204.815.61 1.832 1.22 2.546" stroke="#7e4b7e" stroke-width=".814" fill="none"/>
<g stroke="#000" stroke-width=".509">
<path d="M398.22 154.46l27.207 13.322c5.45 2.65 7.41.202 10.487 1.54l53.694 27.35c4.606 2.012 7.185 2.656 6.523 5.04-.11 3.785 1.79 3.842 2.31 3.882.38.1 2.2-.165 2.95-1.172.57-.656.59-.724.59-.724.61-.608.5-.663.69-.934 2.26-3.25 3.51-6.065 1.15-7.905-2.7-1.27-3.01 1.6-5.86 1.3 0 0-5.08-1.94-6.92-3.26-3.37-1.84-8.08-4.02-9.15-5.21-3.42-.65-29.23-15.16-43.85-22.45-1.57-1.32-2.42-6.17-5.5-7.79-.9-1.31-20.69-10.35-31.04-15.52-3.81-1.43-5.95-2.4-8.69 2.28-2.4 4.59-1.81 7.09 5.44 10.23z" fill="#b34b00"/>
<path d="M400.52 148.76l30.458 15.208" fill="none"/>
</g>
<g stroke="#000" stroke-width=".509" fill="#ffa54b">
<path d="M309.73 165.12c-.203.61-.712.203-.712.408-.405 2.135-.305 3.253-.813 4.475-.712 1.424-3.256 2.748-3.154 2.645-2.03.61-4.47 3.054-8.44.814-.2-.1-.4-.306-.61-.508 0 0 1.12 4.17-2.95 6.204-1.42.713-15.77 8.244-15.77 8.244s-1.52 2.748-.51 6.512c.11.61.31 1.118-.3 1.526-.91.71-2.64 2.748-3.66 6.004 0 0-3.05-1.324-3.05-3.256 0-1.934 1.22-2.95 1.53-4.378.31-1.32 1.12-4.68.71-5.698-.4-1.12-2.24-1.526-2.95-1.933-.61-.41-1.42.4-1.32 1.32.1 1.02.81.81 1.63 1.02 0 0-.91 1.93-.81 3.35l-9.25 4.78s1.22 1.62 1.63 2.34c.41.71 1.32 10.17 4.07 14.65 2.75 4.47 3.67 3.25 4.28 3.86.51.51 1.32 1.32 2.04 1.93.71.51 3.87.81 4.48-.92.71-1.63 1.22-2.65 3.16-4.17 1.93-1.53 5.9-5.39 5.9-7.13 0 0 2.34 6.71 2.03 12.31 0 0 8.55 1.73 16.18 1.93 7.63.1 11.5-1.53 11.5-1.53s1.02-6.41.61-7.63 1.22 4.17 2.14 5.59c1.02 1.73 2.14 5.29 4.38 5.49 2.14.1 3.97-2.14 4.17-3.05v-6.72h8.65c0-.1 3.87 1.42 5.09 1.22 1.22-.1 1.93-1.22.81-1.63l-.4-.31c1.12 0 2.54.71 2.54.71h4.27c.11-.1 0-.41-.1-.51-.3-1.22-2.54-2.24-4.17-2.95-1.63-.61-3.46-1.33-4.68-1.43-1.93-.2-3.25-.1-6.2.41-.81.1-3.86.41-5.8 1.32-.51.31-1.02.41-.81-.91.31-1.43.21-7.84-1.32-10.58-1.12-1.94-1.01-3.57-.81-5.19.11-1.63.21-7.23 0-8.86-.3-1.63-2.54-3.87-6.61-4.38-3.87-.51-7.12-3.67-7.32-6.21-.3-2.55.41-7.23.82-9.26" fill="url(#a)"/>
<g fill="none">
<path d="M292.44 153.63c-.712 3.253-.712 6.104-.61 9.257.103 2.135 1.12 4.577 2.035 6.715.61 1.426 1.425 3.052 2.746 3.867 3.57 2.34 6.92-.21 8.86-1.02.92-.31 2.34-1.63 2.75-2.44.51-1.22.31-2.14.82-4.48-.1.1.82-.41.71-.41.92-1.53.71-2.04 1.22-3.06s-.61-2.14-1.83-1.93c.61-1.94 1.02-4.08.41-5.91-.2-.61.51-2.24-.61-1.83-4.58 1.83-9.97 1.42-14.85 1.42-.4 0-.71-.82-1.32-.71-.1 0-.2.3-.3.5" fill="url(#a)"/>
<path d="M292.03 155.35c-.508-.406-.61-1.32 0-3.256.712-1.93 0-2.034 1.12-3.153 1.12-1.12.813-1.62 1.525-1.93.712-.2 2.85-.2 3.562-.51a9.158 9.158 0 0 1 2.947-.91c1.526-.31 4.58-.2 6.003.61 1.526.81 2.544 2.85 3.46 3.56 1.02.71 1.63 3.66 1.426 7.94-.307 4.27-1.12 3.46-1.12 3.46s-1.222-2.03-2.238-.3 0-1.62.204-2.85c.1-1.22-.61-3.46.1-4.98 0 0-5.8 1.83-8.75 1.73-3.05-.2-7.33-.91-7.53-1.62l-.72 2.24" fill="#000"/>
<path stroke="#fff" d="M294.98 151.8c-.305-.61-1.832-2.85-.61-3.56 1.12-.613.407 2.744 1.936 3.457 0 0-.51 1.526-1.32.102h-.006z" fill="#fff"/>
<path d="M298.34 160.14c-.508 1.732-.712 2.138-.916 3.156m10.586 1.624c.204.61.404.303.914.405m.406-3.965c.51-.61 1.22-.303.813 1.223"/>
<path d="M292.44 157.7c.916.303 1.832.608 2.748 1.02 1.526.61.61 2.845.204 4.27-.204.715-1.02 1.934-.61 2.547.51.81 1.12.303 2.036.403 0-.303.61-.508.813-.508.72-.1 1.12.508 1.63.308.61-.308.51-1.224.31-1.73m-.1-4.48c.11-.403 1.02-.81 1.53-.915 2.14-.405 3.66-.712 5.4.51m-5.7 11.085c-1.73.408-3.56.71-5.19-.206m0-.804c.81-.408 1.12-.816 2.14-.308 0-.1 1.12-.405 1.12-.405.81 0 1.32.304 2.14.812m-5.49.3c.92-.31 3.36-.31 5.4.1"/>
<path stroke-width=".305" d="M292.34 160.14c.713-.1 1.526-.916 3.154.306 1.12.712-1.832 1.426-1.322 1.324-1.32.202-1.73-.508-1.828-1.122 0-.202-.204-.508 0-.508h-.004zm8.34.81c.712-1.426 1.832-1.12 2.85-.816 1.018.306.712.105 1.628.613-1.12.203-.814.303-1.63.71-.915.408-1.728.61-2.34.206-.204-.206-.712-.508-.712-.916 0 .1.102.203.204.203z" fill="#fff"/>
<path stroke-width=".305" d="M293.76 161.36c.406 0 .712-.406.712-.814 0-.508-.306-.916-.712-.916-.507 0-.812.408-.812.916 0 .408.303.814.812.814zm8.65.2c.405 0 .712-.403.712-.916 0-.508-.407-.81-.813-.81-.41 0-.72.302-.72.81 0 .514.4.916.81.916z" fill="#000"/>
</g>
<g id="c">
<g fill="none">
<path d="M345.85 213.66c-.608-.714-1.018-1.02-1.83-1.324-.61-.303-1.424-.71-2.036-1.016-.712-.408-1.73-.508-2.34-.916m.406 2.646c-.306-.203-.508-.304-.812-.51-.306-.1-.712-.1-1.02-.203-.102 0-.102-.204-.203-.204-.915-.102-1.83-.51-2.44-1.32M272.8 201.45c.914.71 3.152 2.24 3.356 5.19.204 1.525 1.02 3.05 1.02 3.05m-13.126-7.83c.51 1.727.61 7.425 6.003 13.43m-4.983-21.37c-.408 1.12-.916 2.137.202 2.95m14.448 10.69c1.12-2.545 4.578-2.342 4.578-4.782"/>
<path d="M284.81 207.25c-.306-2.85-.916-4.475-.405-8.647.203-1.223.405-5.9 0-8.14 0 0 1.63 7.832-3.662 9.362m34.387 12.515c0-3.97.916-6.21.916-6.21 1.22-5.592-1.12-7.73-.203-9.154.812-1.22 2.035-3.766.407-8.854 0 0 2.847 10.484-4.478 10.484-7.425 0-7.12-2.748-7.12-2.748"/>
<path d="M284.4 190.46c0 2.135 0 8.447 9.055 8.447 2.746 0 5.698-1.933 7.324-3.256m2.24-2.75c-.31-1.93-.31-4.37-.31-6.92m-13.64-3.45c2.44-.3 4.37-.61 8.95-.61m.3-6.32c.51 2.24-.31 5.8 3.86 6.31m4.37-7.12c-.61 1.63-.61 3.26-.82 4.38m.2 2.76c1.73 0 4.98-1.12 9.05-.3m1.42 22.79c.81 1.63 1.01 3.77 3.56 6.21m-31.74-11.39c.2 1.33-1.73 5.7-.31 9.27 1.32 3.56 1.12 7.63-1.12 11.09m6.61-19.02c-.82 1.63-2.24 3.26-2.55 4.68m6.6-1.63c0 1.02-2.75 8.75-4.68 10.89 0 0 3.56 1.43 3.05 6.62m7.33-21.06c0 1.33-.21 1.63.91 2.44m2.44 0c1.32 1.63 5.49 6.52 4.58 9.26m-7.33-6.51c.3 1.02.3 6.31-.61 8.96m-2.13-.2a3.17 3.17 0 0 0-3.05 2.75m8.74-3.06c1.12-.3 3.35 1.63 3.35 7.13m15.67-10.27c-2.13.61-3.05 1.74-2.44 1.12-1.12.92-2.14 1.53-2.14 1.53"/>
</g>
<path stroke-width=".305" d="M289.79 197.99c.608 0 1.118-.408 1.118-.916 0-.41-.507-.816-1.118-.816-.51 0-1.02.405-1.02.816 0 .505.508.916 1.02.916zm23.1.31c.51 0 1.02-.405 1.02-.916 0-.505-.508-.81-1.02-.81-.607 0-1.118.305-1.118.81 0 .51.51.916 1.118.916z" fill="#000"/>
<path d="M280.54 239.81c1.22-7.937 4.985-14.55 5.086-15.162 0 0 3.865.816 10.58 1.424 6.612.71 8.444.408 11.496.202 2.95-.303 6.815-.81 6.815-.81s1.22 2.44 1.322 4.882c.3 5.188 2.23 27.677 2.43 33.68 0 0 .81 3.56.81 12.31 0 9.568 2.64 29 2.64 39.382l-2.65.51s-14.45 1.12-14.45-.814c0-2.135-.82-27.066 1.32-42.126 0 0-.51-2.95-1.33-5.496-.81-2.442-4.38-10.073-4.38-11.698 0 0-5.69 16.072-6 18.824-.3 2.543-1.12 38.357-1.63 41.312 0 0-8.24 6.308-9.36 6.92-1.12.51-9.06-3.36-9.26-4.375-.31-1.118.81-13.23 4.58-33.176 1.42-7.13.61-8.44.61-10.38 0-1.94.1-27.48 1.32-35.41z" fill="#fff"/>
<path d="M294.27 274.92c-.61 2.24-1.628 4.375-3.56 5.803m-2.75-53.633c-.304 1.322-2.238 7.325-7.122 10.887m14.242-9.767c-1.12 3.562-5.493 22.693-6.31 45.383m-.3 7.127c-.204 2.135-1.322 18.012-1.628 20.756m-.812 3.054c-.51 1.117-2.746 10.375-2.746 18.62m32.246-35.92c-.204 1.933-1.02 15.668 3.56 27.98m-18.51-85.98c-.305 2.237-.813 16.688-.813 17.806 0 1.117 1.628 2.747 2.44 3.054 0 0-1.627.51-1.932 6.003M296.2 243.17c-.308 1.727-1.934 8.547-3.054 11.295m13.124-25.435s4.884 1.018 5.188 0 1.628 29.512 3.866 45.89m-11.184-42.13c0 1.934-.61 16.485-.61 16.485m2.44 2.135s1.93 2.745 1.425 4.066M289.59 227.4c1.63.508 3.053.812 3.053.812m5.187 1.628c-.307.814-.61 4.58-.61 4.58m8.75 38.87c.61.814 1.425 1.936.814 4.377" fill="none"/>
<path d="M284.91 224.45s0-3.256 1.22-4.886 3.457.714 8.342 1.222c4.984.508 8.95.916 12.615.508 3.663-.406 7.428-1.322 7.428-1.322s1.017 4.784.506 5.496-3.96.814-8.34 1.016c-4.47.303-11.9-.408-14.44-.812-3.36-.408-6.31-1.02-7.32-1.222z" fill="#9b5f00"/>
<path d="M288.06 224.85l.608-4.883 1.02.1-.204 5.088-1.424-.305m22.08-4.07l.103 5.496 1.22-.206-.1-5.597-1.223.307m-15.67 0l-.406 5.29h.713l.712-5.29h-1.02" fill="#fff"/>
<path d="M276.77 320.81c-.305 1.322-.812 3.154-1.018 5.496 0 .508-.507 3.256 1.018 3.356 1.12.103 1.425-2.85 1.425-2.85s-1.02 3.257.305 3.665c1.832.403 2.034-3.562 2.034-3.562-.204 1.12-1.425 3.97.306 4.27 1.83.308 2.34-3.866 2.34-3.866s-1.526 4.17.304 4.27c1.73.1 1.73-4.07 1.73-4.07s-.917 4.99 1.525 4.58c1.32-.21 1.62-1.94 1.93-2.95.4-1.53 1.32-3.46.2-6.62-.81-2.34-.51-2.95-.51-2.95s-2.85 2.14-5.09 3.56c-1.02.61-6.52-2.34-6.52-2.34zm29.71-4.38c-.508-.307-.406 1.832-.61 2.846-.102 1.02.205 3.257 3.664 3.055 3.355-.3 6.715-1.01 8.85-.5 2.138.61 5.29.71 7.022.71 1.73 0 2.85-.2 3.66-.51.714-.3 2.24.41 2.95.41.714 0 1.832-1.12 1.73-1.83-.102-1.32-1.32-1.32-3.053-1.42-1.628-.2-3.865-.51-4.983-.91-1.12-.4-3.154-1.52-5.698-2.03 0 0-4.883.21-5.898.21-1.02 0-7.022.31-7.634 0z"/>
</g>
<g fill="none">
<path d="M255.71 189.85c-.507.306-1.12-2.035.406-2.95 0 0 .406-1.932 2.035-2.137 0 0 1.33-1.832 3.26-1.626 0 0 2.24-1.525 3.05-1.324.82.102 2.85 2.136 2.95 2.85.21.71 0 1.933-.51 2.442-.61.608-1.02-.102-1.12-.916 0 0 .41 1.52-.81 2.13-1.22.71-1.12.2-1.22-.61 0 0-.3 1.63-1.12 1.83-.81.3-1.32-.41-1.93-.41 0 0 1.02.81.31 1.42-.71.51-1.52.3-2.03-.1-.51-.51-1.12-1.83-3.25-.61h.01z" fill="#ffb366"/>
<path d="M265.68 186.09c-.51-1.63-2.137-3.054-4.07-2.848m2.24 4.368c-.306-.408-.408-.816-.712-1.22-.916-1.528-2.85-1.424-4.477-1.832m2.44 4.582c-.61-.406-.81-1.222-1.42-1.524-1.02-.408-2.03-.916-3.25-.714"/>
</g>
</g>
<g stroke="#000" stroke-width=".509">
<path d="M439.14 165.12c.712-.306.51.61.61.916.306 1.32.306 2.748.813 3.967.608 1.12.812 1.526 1.83 2.035 1.627.916 6.407 3.562 9.767 1.424.204-.1.508-.306.712-.508 0 0-1.22 4.172 2.95 6.207 1.32.71 15.668 8.25 15.668 8.25s1.525 2.75.61 6.51c-.205.61-.406 1.12.203 1.53 1.02.71 2.644 2.75 3.766 6.01 0 0 2.94-1.32 2.94-3.25s-1.22-2.95-1.53-4.37c-.2-1.32-1.02-4.68-.61-5.7.4-1.12 2.13-1.52 2.84-1.93.71-.41 1.52.41 1.32 1.32-.1 1.02-.81.82-1.63 1.02 0 0 1.02 1.93.81 3.36l9.35 4.78s-1.22 1.63-1.63 2.34c-.51.72-1.43 10.18-4.17 14.65-2.75 4.48-3.67 3.26-4.17 3.87-.61.51-1.43 1.33-2.14 1.94-.61.51-3.77.82-4.48-.91-.72-1.63-1.22-2.65-3.16-4.17-1.94-1.52-5.9-5.39-5.9-7.12 0 0-2.34 6.72-2.04 12.32 0 0-8.45 1.73-16.18 1.94-7.63.1-11.5-1.53-11.5-1.53s-1.02-6.41-.61-7.63-1.22 4.18-2.03 5.6c-1.12 1.73-2.24 5.29-4.38 5.5-2.24.11-3.97-2.13-4.27-3.05v-6.72h-8.64c0-.1-3.77 1.42-5.09 1.22-1.22-.1-1.83-1.22-.81-1.63l.4-.3c-1.12 0-2.54.71-2.54.71H402c0-.1.104-.41.104-.51.308-1.22 2.546-2.24 4.273-2.95 1.63-.61 3.357-1.32 4.58-1.42 1.933-.2 3.256-.1 6.206.41.812.1 3.967.41 5.798 1.33.51.3 1.12.4.82-.92-.3-1.43-1.22-5.6.31-8.35 1.02-1.93.92-3.56.82-5.19-.2-1.72-1.12-5.59-1.12-7.32 0-5.7 4.38-8.04 8.24-9.26 4.27-1.32 7.12-2.75 6.92-5.29-.1-2.64.61-7.02.2-9.06" fill="url(#b)"/>
<g fill="none">
<path d="M456.34 153.63c.916 3.356 1.12 4.17 1.12 5.29 0 1.22-.51 1.425-.104 2.75.713 2.44-.712 5.087-2.44 7.936-.814 1.32-1.425 3.052-2.747 3.866-3.36 2.135-7.43-.408-9.57-1.327-1.12-.505-1.73-1.32-2.04-2.135-.41-1.22-.51-2.34-.82-3.967 0-.306.1-1.22-.61-.916-1.22-1.424-1.02-2.034-1.53-3.05-.51-1.022.91-2.14 2.03-1.935-.61-1.933-.92-4.072-.31-5.904.2-.608-.51-2.235.51-1.832 4.57 1.832 9.97 1.426 14.85 1.426.4 0 .71-.812 1.32-.71.09 0 .2.305.3.508" fill="url(#b)"/>
<path d="M456.75 155.35c.508-.406.204-2.34-.306-4.375-.203-1.017-1.018-1.424-2.136-2.542-1.12-1.122-1.525-1.122-2.236-1.424-.61-.21-2.034-.21-2.746-.51-.61-.31-2.238-.11-3.766.1-2.036.3-3.153.2-4.68 1.02-1.525.81-2.745 1.73-3.255 3.25-.406 1.12-1.12 2.54-.814 6.81.21 4.27 1.02 3.46 1.02 3.46s1.12-1.63 1.84-.61-.1-2.24-.3-3.56c-.1-1.23 0-2.75.51-4.58 0 0 4.68 1.73 9.06 1.73 3.06 0 7.02-.31 7.13-1.02l.71 2.23z" fill="#000"/>
<path d="M450.44 160.14c.61 1.732.104 1.222.408 2.34m-10.278 2.03c0 .812-.61.61-1.02.61"/>
<path d="M456.85 158.82c-.916-.713-2.645-.204-3.46.102-1.525.71-.712 2.24-.204 3.664.204.71 1.02 1.727.51 2.44-.406.813-.712.41-1.628.51.104-.307-.812 0-1.117 0-.61-.1-.91.404-1.42.203-.61-.31-.51-1.22-.3-1.73m.1-4.48c0-.41-1.32-.81-2.74-.92-2.24-.1-2.44.1-4.17 1.32m11.5 8.95c-.4-.61-1.01-.92-2.13-.41 0-.21-1.52-.41-1.52-.41-.81 0-1.32.3-2.13.71m5.59.61c-.91-.61-3.25-.2-5.59-.2m.21.81c1.73.51 3.46.81 5.19 0"/>
<path stroke-width=".305" d="M456.44 160.14c-.712-.1-1.018-.916-3.153.306-1.12.61 1.832 1.426 1.425 1.324 1.22.202 1.628-.508 1.73-1.122-.002-.203.202-.508-.002-.508zm-8.34.81c0-.816-1.83-1.12-2.847-.816-1.02.306-.61.105-1.526.613 1.02.203.712.303 1.526.71.914.408 1.12.814 2.34.206.305-.105.71-.508.812-.916-.1.1-.202.203-.305.203z" fill="#fff"/>
<path stroke-width=".305" d="M455.12 161.36a.802.802 0 0 1-.813-.814c0-.508.307-.916.813-.916.405 0 .712.408.712.916 0 .408-.307.814-.712.814zm-8.75.2c-.406 0-.712-.403-.712-.916 0-.508.403-.81.812-.81s.712.302.712.81c0 .514-.303.916-.812.916z" fill="#000"/>
</g>
<use xlink:href="#c" transform="matrix(-1 0 0 1 748.82 0)" fill="#730000"/>
<g fill="none">
<path d="M491.64 193.51c.508.206 1.934-2.033.508-3.05 0 0-.508-1.933-2.136-2.035 0 0-1.322-1.933-3.257-1.63 0 0-2.136-1.524-2.948-1.42-.916.2-2.95 2.236-3.053 2.95-.102.608 0 1.83.508 2.44.61.51 1.02-.104 1.12-1.02 0 0-.406 1.53.812 2.24 1.22.71 1.12.1 1.22-.71 0 0 .307 1.626 1.12 1.932.813.303 1.322-.408 1.935-.408 0 0-1.02.81-.31 1.32.71.61 1.52.3 2.03-.11.61-.41.3-1.73 2.44-.51z" fill="#730000"/>
<path d="M482.49 189.75c.506-1.73 2.235-3.153 4.067-2.85m-2.137 4.38c.203-.41.305-.816.61-1.224.915-1.524 2.948-1.524 4.576-1.832m-2.546 4.476c.61-.408.814-1.118 1.426-1.42 1.018-.513 2.136-.917 3.256-.715"/>
<path d="M482.31 186.77c-.896.716-1.837 1.798-1.906 2.28-.103.61-.008 1.828.5 2.44.55.46.95-.018 1.095-.782-.06.463-.08 1.465.84 2 1.22.71 1.12.095 1.22-.72 0 0 .31 1.636 1.12 1.94.81.305 1.32-.407 1.94-.407 0 0-1.03.81-.31 1.32.71.61 1.52.31 2.03-.09.61-.41.3-1.72 2.44-.5.26.11.8-.45 1.03-1.15l-7.69-5.53-2.32-.78z" fill="#730000" stroke="none"/>
<path d="M480.68 188.19c-1.502 2.582.5 4.132 1.164 2.62-.193 2.385 1.606 2.29 2.285 1.537.65 2.512 1.83 1.395 2.9 1.164-1.23 2.29 1.48 1.61 2.12 1.09.92-1.36 1.35-.27 2.03-.41l1.16-1.24m-7.98-5.7c-1.69.9-2.52 2.14-2.54 3.7m4.86-2.2c-1.69.9-2.52 2.14-2.54 3.7m5.4-1.75c-1.69.9-1.77 1.73-2.5 2.83"/>
</g>
</g>
<path d="M290.1 323.66l-.204-4.68 1.934 1.63.508-3.563c.813-.206 2.137 1.426 2.137 1.426l-.204-3.564 2.95 3.25s-.2-2.75.82-4.38 2.24 1.93 2.24 4.17c0 1.94 1.94-2.75 1.94-2.75l1.63 5.19 1.32-1.94 1.12 4.07 2.45-3.57 1.93 4.17 4.38-.31.51 2.44 1.93-2.14 2.55 1.62s2.14-.61 3.26-.61 2.44 1.43 2.44 1.43.82-1.43 1.63-1.94c.81-.51 1.94.81 2.24 1.63l1.63-2.95s2.14 2.14 2.44 2.95.31-2.44.82-3.26c.51-.82 1.32.3 1.94 1.32l1.32-4.38s1.43.3 2.44 1.94c1.12 1.62 1.12-2.44 1.12-2.44s2.44 3.25 3.06 5.49-16.84 5.78-28.72 4.2c-13.98-1.86-25.5-4.51-25.5-4.51m115.48-.51s.82-2.24 1.94-3.36 2.13 2.54 2.13 3.36c0 0 .61-.31 1.73-1.12l1.63 1.62 1.93-1.32 1.83 1.62 3.36-1.43 1.32 1.42 5.19-.61 1.94.81 1.83-2.34 1.73 1.83 2.75-2.75s1.32 1.12 1.63 1.93 2.24-1.12 2.75-1.93c0 0 2.14-.81 2.44.51 0 0 1.33-1.02 1.23-2.14-.1-1.12 1.53-.31 2.04 1.12 0 0 .61-2.24 2.23-2.44 0 0 1.11 1.32.81 3.76 0 0 2.44-1.94 3.56-2.14 0 0 .51 2.75-.3 5.19 0 0 2.55-4.17 3.06-2.75.21.81.82 3.56.21 5.49l2.24-1.43.81 2.75 2.44-.51s-14.44 2.21-28.05.91c-13.61-1.3-26.38-6.1-26.38-6.1m-10.06 10.1c.66-.41-4.55 10.71-17.17 11.3-17.57.82-32.58-7.94-32.58-7.94s1.83-3.05 2.95-3.87 2.44 1.93 3.25 4.37c0 0 .3-1.63 1.12-3.05 0 0 3.05 1.42 3.56 3.35 0 0 1.12-1.94 1.93-2.45.81-.61 1.63 2.14 1.63 3.77 0 0 1.93-2.04 3.05-2.14 0 0 2.13 1.02 2.74 4.58 0 0 2.04-1.93 2.75-1.63 0 0 2.44 1.63 1.83 3.87-.3 1.22 2.44-1.42 5.8-2.24l2.95 2.23s2.75-3.66 3.56-4.88 2.24.81 2.24 2.14c0 0 1.02-3.87 1.83-4.28.81-.51 1.93 1.22 1.93 2.34 0 0 .31-2.95 1.94-3.56 0 0 1.63 1.12 1.63 2.24 0 0 1.72-3.36 3.05-4.18z" fill="#5ac800"/>
<path d="M290.1 323.66l-.204-4.68 1.934 1.63.508-3.563c.813-.203 2.137 1.426 2.137 1.426l-.204-3.56 2.95 3.255s-.2-2.748.82-4.375 2.24 1.934 2.24 4.172c0 1.936 1.94-2.748 1.94-2.748l1.63 5.19 1.32-1.935 1.12 4.07 2.44-3.56 1.94 4.17 4.38-.306.51 2.443 1.94-2.14 2.54 1.63s2.14-.61 3.26-.61 2.44 1.42 2.44 1.42.81-1.42 1.63-1.93c.81-.51 1.93.81 2.23 1.62l1.63-2.95s2.14 2.13 2.44 2.95.31-2.44.82-3.26c.51-.81 1.32.3 1.94 1.32l1.33-4.38s1.42.3 2.44 1.93c1.12 1.62 1.12-2.45 1.12-2.45s2.44 3.26 3.05 5.49m61.25-.82s.81-2.24 1.93-3.36 2.14 2.54 2.14 3.35c0 0 .61-.31 1.73-1.12l1.63 1.63 1.94-1.32 1.83 1.62 3.36-1.42 1.32 1.42 5.19-.61 1.93.81 1.83-2.34 1.73 1.82 2.75-2.74s1.32 1.11 1.63 1.93 2.24-1.12 2.75-1.93c0 0 2.14-.82 2.44.5 0 0 1.32-1.02 1.22-2.14-.1-1.12 1.53-.31 2.04 1.12 0 0 .61-2.24 2.24-2.45 0 0 1.12 1.32.82 3.76 0 0 2.44-1.93 3.56-2.13 0 0 .51 2.74-.3 5.19 0 0 2.54-4.17 3.05-2.75.2.81.81 3.56.2 5.49l2.24-1.43.82 2.75 2.44-.51m-114.31 8.29s1.83-3.05 2.95-3.87 2.44 1.94 3.25 4.38c0 0 .31-1.63 1.12-3.05 0 0 3.05 1.42 3.56 3.35 0 0 1.12-1.94 1.94-2.44.81-.62 1.63 2.13 1.63 3.76 0 0 1.94-2.04 3.06-2.14 0 0 2.14 1.02 2.75 4.58 0 0 2.04-1.93 2.75-1.63 0 0 2.44 1.63 1.83 3.87-.3 1.22 2.44-1.42 5.8-2.24l2.95 2.24s2.75-3.66 3.56-4.89 2.24.81 2.24 2.14c0 0 1.02-3.87 1.83-4.28.81-.51 1.93 1.22 1.93 2.34 0 0 .31-2.95 1.94-3.56 0 0 1.63 1.12 1.63 2.24 0 0 1.73-3.36 3.05-4.17" stroke="#060" stroke-width=".509" fill="none"/>
<g fill="#fff">
<path d="M374.44 376.98c22.892.205 36.424-8.14 43.85-13.127 17.397-11.7 21.06-12.107 23.91-11.906 3.256.31 8.034 1.427 8.24 4.277.305 4.375-6.816 6.307-10.887 6.307-4.17 0-15.058-2.74-15.058-2.74l-2.85 1.94c1.934.92 24.215 8.34 28.488 1.33 4.372-7.12 8.75-18.62 8.75-18.62s-4.884-8.75-15.772-8.75c-10.98 0-21.67 6.92-28.79 12.11-7.12 5.19-16.07 12.31-39.88 12.31-23.8 0-32.86-7.12-39.98-12.31-7.12-5.19-17.8-12.1-28.69-12.1-10.98 0-15.87 8.75-15.87 8.75s4.38 11.5 8.75 18.62c4.27 7.02 26.56-.4 28.49-1.32l-2.74-1.93s-10.98 2.75-15.06 2.75c-4.17 0-11.29-1.93-10.98-6.3.21-2.85 4.99-3.97 8.24-4.27 2.85-.2 6.51.21 23.91 11.91 7.43 4.99 20.97 13.03 43.96 13.13"/>
<path d="M337.61 350.01s0-1.938-.308-4.783c-.406-3.664-2.542-4.58-4.27-4.07-1.12.402-3.357 3.154-3.357 3.154v.11a32.363 32.363 0 0 0-3.154-1.93c.82-.91 5.5-3.76 6.62-3.76 1.02 0 15.06 5.7 19.53 9.56 1.12 1.02 1.94 7.33 1.32 9.36-7.53-1.93-12.41-4.78-16.38-7.52v-.1m-6.72 14.25s-3.05 3.05-3.15 8.65c-.1 6.62 4.68 6.92 7.84 6.82 3.77-.1 6.82-2.24 6.72-9.26 0 0-6.2-2.64-11.39-6.2m80.28-14.24s.11-1.94.41-4.78c.41-3.66 2.44-4.58 4.17-4.07 1.12.4 3.36 3.16 3.36 3.16v.11a32.212 32.212 0 0 1 3.15-1.93c-.81-.91-5.49-3.76-6.51-3.76-1.12 0-15.15 5.7-19.63 9.56-1.02 1.02-1.83 7.33-1.32 9.36 7.63-1.93 12.41-4.78 16.38-7.53v-.1m6.71 14.25s3.06 3.05 3.16 8.65c.2 6.62-4.68 6.92-7.83 6.82-3.76-.1-6.71-2.23-6.71-9.26 0 0 6.21-2.64 11.4-6.2"/>
</g>
<path d="M324.28 359.78s-10.887 2.748-14.956 2.748c-4.17 0-11.293-1.93-10.987-6.308.204-2.85 4.985-3.967 8.24-4.272 2.442-.207 5.596.1 17.703 7.832m100.22 0s10.885 2.748 15.058 2.748c4.07 0 11.19-1.93 10.885-6.308-.202-2.85-4.983-3.967-8.24-4.272-2.443-.207-5.597.1-17.703 7.832m-86.89-9.67c-1.12-.814-2.238-1.63-3.258-2.44-1.525-1.122-3.052-2.14-4.68-3.257 0 0 2.237-2.85 3.356-3.156 1.73-.61 3.865.303 4.27 3.967.307 2.85.307 4.887.307 4.887m-7.425 28.7c1.936 1.12 4.07 1.02 5.394.92 3.765-.1 6.816-2.24 6.715-9.26 0 0 4.67 2.34 12.3 4.17 0 0 1.22 1.53 1.42 4.58.31 2.55-1.43 5.29-3.46 5.09 0 0-10.69-1.93-17.19-3.05-3.77-.71-5.19-2.44-5.19-2.44m80.99-28.7c1.11-.81 2.23-1.63 3.35-2.44 1.42-1.12 2.95-2.14 4.58-3.25 0 0-2.24-2.85-3.36-3.15-1.73-.61-3.77.31-4.17 3.97a94.084 94.084 0 0 0-.41 4.89m7.42 28.7c-1.94 1.12-4.07 1.02-5.4.92-3.77-.1-6.72-2.24-6.72-9.26 0 0-4.68 2.34-12.21 4.17 0 0-1.32 1.53-1.53 4.58-.2 2.55 1.53 5.29 3.46 5.09 0 0 10.78-1.93 17.19-3.05 3.76-.71 5.18-2.44 5.18-2.44" fill="#69f"/>
<g stroke="#000" stroke-width=".712" fill="none">
<path d="M374.44 376.98c22.893.203 36.424-8.143 43.85-13.127 17.397-11.7 21.06-12.106 23.908-11.904 3.257.3 8.04 1.42 8.24 4.27.307 4.37-6.815 6.3-10.887 6.3-4.17 0-15.05-2.75-15.05-2.75l-2.85 1.93c1.94.91 24.21 8.34 28.49 1.32 4.38-7.12 8.75-18.62 8.75-18.62s-4.88-8.76-15.77-8.76c-10.98 0-21.67 6.92-28.79 12.11-7.12 5.19-16.07 12.31-39.88 12.31-23.81 0-32.86-7.13-39.98-12.32-7.12-5.19-17.8-12.11-28.69-12.11-10.98 0-15.87 8.75-15.87 8.75s4.37 11.5 8.75 18.62c4.27 7.02 26.56-.41 28.49-1.32l-2.74-1.94s-10.99 2.74-15.05 2.74c-4.17 0-11.29-1.93-10.99-6.31.21-2.85 4.99-3.97 8.24-4.27 2.85-.2 6.51.2 23.91 11.9 7.43 4.98 20.96 13.02 43.95 13.12z"/>
<path d="M324.28 359.78s-10.888 2.748-14.954 2.748c-4.172 0-11.293-1.933-10.99-6.308.205-2.85 4.986-3.97 8.242-4.272 2.44-.207 5.595.1 17.702 7.832zm100.21 0s10.887 2.748 15.058 2.748c4.07 0 11.19-1.933 10.886-6.308-.204-2.85-4.983-3.97-8.238-4.272-2.442-.207-5.598.102-17.702 7.832h-.004zm-86.88-9.67c-1.12-.814-2.238-1.63-3.258-2.44-1.523-1.122-3.05-2.14-4.68-3.257 0 0 2.24-2.85 3.357-3.156 1.72-.61 3.86.303 4.27 3.97.31 2.844.31 4.883.31 4.883z"/>
<path d="M337.61 350.01s0-1.936-.308-4.783c-.404-3.664-2.542-4.58-4.27-4.07-1.12.406-3.36 3.154-3.36 3.154v.11a33.21 33.21 0 0 0-3.153-1.93c.81-.91 5.49-3.76 6.61-3.76 1.02 0 15.05 5.7 19.53 9.57 1.12 1.02 1.93 7.33 1.32 9.37-7.53-1.93-12.42-4.78-16.39-7.53m-6.72 14.15s-3.05 3.05-3.16 8.65c-.11 6.61 4.68 6.92 7.83 6.82 3.77-.1 6.82-2.24 6.72-9.26 0 0-6.21-2.64-11.4-6.2v.01z"/>
<path d="M333.44 365.78s-2.44 2.543-2.847 6.715c-.204 3.257 1.932 5.086 4.68 4.883 3.865-.2 5.393-5.492 3.56-8.443l-5.393-3.155"/>
<path d="M330.18 378.81c1.934 1.12 4.068 1.018 5.392.916 3.765-.104 6.814-2.24 6.717-9.26 0 0 4.67 2.34 12.31 4.172 0 0 1.22 1.525 1.42 4.58.3 2.543-1.43 5.29-3.46 5.086 0 0-10.69-1.934-17.2-3.05-3.77-.716-5.19-2.444-5.19-2.444zm80.99-28.7c1.12-.814 2.238-1.63 3.357-2.44 1.425-1.122 2.95-2.14 4.578-3.257 0 0-2.237-2.85-3.357-3.156-1.73-.61-3.765.303-4.17 3.97a93.576 93.576 0 0 0-.406 4.884h-.002z"/>
<path d="M411.17 350.01s.103-1.936.408-4.783c.405-3.664 2.44-4.58 4.17-4.07 1.12.406 3.356 3.154 3.356 3.154v.11a33.21 33.21 0 0 1 3.154-1.93c-.814-.91-5.493-3.76-6.512-3.76-1.12 0-15.157 5.7-19.634 9.57-1.02 1.02-1.832 7.33-1.322 9.37 7.63-1.93 12.41-4.78 16.38-7.53m6.71 14.15s3.053 3.05 3.154 8.65c.204 6.61-4.682 6.92-7.835 6.82-3.77-.1-6.72-2.24-6.72-9.26 0 0 6.2-2.64 11.39-6.2v.01z"/>
<path d="M415.34 365.78s2.442 2.543 2.85 6.715c.306 3.257-1.936 5.086-4.682 4.883-3.865-.2-5.29-5.492-3.56-8.443l5.392-3.155"/>
<path d="M418.59 378.81c-1.933 1.12-4.07 1.018-5.393.916-3.764-.104-6.713-2.24-6.713-9.26 0 0-4.682 2.34-12.208 4.172 0 0-1.322 1.525-1.526 4.58-.203 2.543 1.526 5.29 3.46 5.086 0 0 10.784-1.934 17.19-3.05 3.767-.716 5.19-2.444 5.19-2.444z"/>
</g>
<path d="M353.79 376.47s3.357 2.445-.712 5.496m-9.358-7.126l10.275 4.478m-8.555-2.138l7.526 3.254m-4.876-5.184l5.697 2.547m41.303-1.327s-3.46 2.445.61 5.496m9.36-7.126l-10.276 4.478m8.646-2.138l-7.527 3.254m4.787-5.184l-5.596 2.547" stroke="#fff" stroke-width=".712" fill="none"/>
<path d="M313.56 345.17c.146.236.24.483.285.736.04.258.03.547-.03.865a2.445 2.445 0 0 1-1.206 1.72c-.66.39-1.42.5-2.26.34a3.834 3.834 0 0 1-1.13-.4 4.53 4.53 0 0 1-.93-.62l-.35.4-.49-.09c.15-.98.31-1.97.47-2.95.16.03.32.07.49.1.03.38.09.73.17 1.05.07.32.2.63.38.93.17.28.38.52.64.71.25.19.57.33.95.4a2.3 2.3 0 0 0 .76.03c.22-.03.41-.1.56-.21a1.38 1.38 0 0 0 .38-.42c.1-.16.16-.36.21-.6a1.78 1.78 0 0 0-.11-1.01c-.14-.33-.39-.61-.75-.84a52.9 52.9 0 0 0-.85-.52c-.32-.19-.59-.36-.82-.52-.44-.31-.78-.66-.97-1.07-.21-.4-.26-.89-.15-1.46a2.13 2.13 0 0 1 .37-.87 2.36 2.36 0 0 1 .72-.65 2.63 2.63 0 0 1 .93-.33 2.98 2.98 0 0 1 1.04.02c.4.08.75.21 1.04.39a5 5 0 0 1 .79.59l.33-.36.49.09-.49 2.85-.5-.09a11.704 11.704 0 0 0-.12-1 3.705 3.705 0 0 0-.29-.89 2.024 2.024 0 0 0-.54-.68c-.22-.19-.53-.32-.9-.39a1.435 1.435 0 0 0-1.06.18c-.32.2-.52.47-.58.82-.07.37-.04.7.09.97.13.28.34.53.65.75.27.2.54.38.81.54.27.16.52.32.77.49.22.15.44.31.64.49s.37.37.5.58m12.49 1.74a3.757 3.757 0 0 0-.49-.18 1.465 1.465 0 0 0-.58-.09c-.17.02-.35.14-.54.37a5.91 5.91 0 0 0-.6.91c-.61 1.11-1.23 2.22-1.84 3.33-.23.42-.52.74-.88.95a2.6 2.6 0 0 1-1.13.38c-.39.04-.77.01-1.14-.08a4.337 4.337 0 0 1-.98-.38c-.46-.25-.85-.54-1.15-.86-.3-.33-.52-.65-.65-1a2.318 2.318 0 0 1-.16-1.01c.02-.33.11-.64.27-.92l2.49-4.52a.942.942 0 0 0 .11-.35.77.77 0 0 0-.13-.37 1.56 1.56 0 0 0-.28-.32c-.13-.1-.23-.18-.32-.24l.21-.38c1.08.6 2.15 1.19 3.23 1.78l-.21.38a3.234 3.234 0 0 0-.41-.16 2.013 2.013 0 0 0-.39-.11c-.15-.02-.27 0-.37.08a.96.96 0 0 0-.24.29l-2.34 4.23a3.472 3.472 0 0 0-.28.68 1.85 1.85 0 0 0-.08.78c.03.28.14.54.31.8s.47.51.9.74c.39.22.77.35 1.11.37.34.02.64-.02.91-.14a2.07 2.07 0 0 0 .65-.43 2.64 2.64 0 0 0 .45-.58l1.73-3.14c.22-.4.37-.74.45-1.03.08-.28.08-.49.02-.64a1.74 1.74 0 0 0-.4-.49 3.69 3.69 0 0 0-.47-.36l.21-.38 3.17 1.75-.21.39m4.49 7.77c.13.28.21.58.22.91 0 .32-.09.66-.29 1.01-.2.35-.45.61-.76.78a2.28 2.28 0 0 1-.98.29 3.06 3.06 0 0 1-1.03-.09 4.2 4.2 0 0 1-1.02-.42l-3.63-2.09.22-.38c.09.05.22.1.4.17a1.8 1.8 0 0 0 .4.13.562.562 0 0 0 .35-.07.742.742 0 0 0 .25-.28l3.13-5.43a.98.98 0 0 0 .13-.36.58.58 0 0 0-.12-.37 1.748 1.748 0 0 0-.29-.33 3.1 3.1 0 0 0-.3-.24l.22-.38 3.54 2.04c.27.16.52.33.74.53.22.2.4.43.55.69a1.67 1.67 0 0 1-.01 1.71 1.88 1.88 0 0 1-.56.62 1.755 1.755 0 0 1-.72.3 2.66 2.66 0 0 1-.78.03 3.463 3.463 0 0 1-.83-.18.366.366 0 0 1-.03.05 5.4 5.4 0 0 1 .65.59c.22.25.4.5.52.77zm-.65-1.89c.23-.08.41-.19.57-.34.15-.15.3-.35.45-.6.23-.42.31-.81.21-1.18-.09-.38-.39-.7-.89-.99-.12-.06-.26-.15-.44-.24-.18-.1-.33-.18-.44-.24l-1.68 2.91.68.39c.29.17.57.28.82.32a1.3 1.3 0 0 0 .7-.04zm-.64 2.84a1.69 1.69 0 0 0 .18-1.36c-.14-.47-.49-.86-1.06-1.18a16.635 16.635 0 0 0-.95-.52l-1.54 2.66a.647.647 0 0 0-.02.67c.11.22.34.42.67.61.53.31 1.03.4 1.49.25.46-.15.86-.52 1.21-1.12zm19.7 4.5a3.6 3.6 0 0 0-.5-.13 1.49 1.49 0 0 0-.59-.03c-.17.03-.33.17-.5.42a6.11 6.11 0 0 0-.51.97l-1.49 3.49c-.19.44-.45.79-.78 1.04a2.68 2.68 0 0 1-1.08.49 3.36 3.36 0 0 1-1.15.03 4.272 4.272 0 0 1-1.02-.28 4.45 4.45 0 0 1-1.23-.74c-.33-.3-.58-.6-.74-.93a2.318 2.318 0 0 1-.26-.99 2.168 2.168 0 0 1 .17-.95c.68-1.58 1.36-3.17 2.04-4.75a.94.94 0 0 0 .08-.37.74.74 0 0 0-.16-.36 1.664 1.664 0 0 0-.32-.29c-.14-.09-.25-.16-.34-.21l.17-.4 3.39 1.45-.18.4a3.595 3.595 0 0 0-.42-.12 2.404 2.404 0 0 0-.4-.07.432.432 0 0 0-.36.12 1 1 0 0 0-.22.32c-.63 1.48-1.27 2.96-1.9 4.44a3.472 3.472 0 0 0-.21.7 1.85 1.85 0 0 0 0 .78c.06.28.19.52.39.77.2.24.53.46.97.65.42.18.81.26 1.15.26.33-.02.64-.09.89-.23.24-.14.45-.3.61-.5a2.65 2.65 0 0 0 .38-.63c.47-1.1.94-2.19 1.41-3.29.18-.42.3-.77.35-1.07.05-.29.04-.5-.04-.63a1.524 1.524 0 0 0-.45-.46 3.877 3.877 0 0 0-.49-.32l.17-.4 3.32 1.43a7.7 7.7 0 0 0-.17.4m9.57 11.24l-3.76-1.09.12-.42c.14.04.31.07.53.11.21.04.37.05.47.03a.844.844 0 0 0 .35-.18.742.742 0 0 0 .19-.33l1.76-6.1a1.436 1.436 0 0 0-.09-.03c-1.64 2.12-3.33 4.2-4.97 6.31-.1-.02-.2-.05-.3-.08-.2-2.7-.45-5.4-.65-8.1a.742.742 0 0 0-.08-.02c-.48 1.67-.97 3.34-1.45 5.01-.14.48-.21.85-.22 1.13-.02.27.03.48.12.62.06.11.22.24.48.39.25.15.42.24.5.27l-.12.42-3.43-.99.12-.42c.19.03.39.06.6.08.21.02.38 0 .51-.06.17-.07.31-.2.43-.42.11-.22.25-.59.4-1.12l1.24-4.3c.07-.25.1-.46.09-.63a.988.988 0 0 0-.14-.46 1.278 1.278 0 0 0-.39-.37 2.124 2.124 0 0 0-.51-.25l.12-.41 2.89.83c.19 2.34.43 4.67.62 7.01 1.19-1.56 2.41-3.1 3.6-4.67a4.76 4.76 0 0 0 .376-.56 2.95 2.95 0 0 0 .21-.39c.93.27 1.85.53 2.77.8l-.12.42c-.11-.03-.26-.05-.44-.07s-.32-.03-.41-.03a.458.458 0 0 0-.34.16.976.976 0 0 0-.17.34l-1.75 6.05a.824.824 0 0 0-.03.37c.02.11.09.22.204.33.06.06.18.14.35.22.18.09.32.15.42.19l-.12.42m9.09-2.76c.23.21.43.46.56.76.13.3.18.64.13 1.04a2.1 2.1 0 0 1-.4 1.02 2.39 2.39 0 0 1-.79.64 3.173 3.173 0 0 1-.99.31 4.19 4.19 0 0 1-1.1.01c-1.39-.17-2.77-.35-4.16-.52l.05-.44c.1.01.247.01.44 0 .19 0 .34-.02.42-.04a.544.544 0 0 0 .3-.2.752.752 0 0 0 .13-.35c.26-2.08.52-4.15.785-6.23a1.01 1.01 0 0 0-.02-.37.593.593 0 0 0-.25-.29 1.73 1.73 0 0 0-.39-.19c-.15-.05-.27-.09-.38-.11l.06-.43 4.05.51c.31.04.6.11.89.21.27.1.53.24.77.43.22.17.41.39.53.66a1.7 1.7 0 0 1 .12.92 1.808 1.808 0 0 1-.82 1.34 2.78 2.78 0 0 1-.7.33 3.55 3.55 0 0 1-.83.17l-.01.06c.25.06.52.16.82.29.29.13.56.3.77.5zm-1.33-1.49c.18-.16.31-.33.4-.53a2.86 2.86 0 0 0 .18-.73c.06-.47-.02-.86-.25-1.17-.23-.31-.63-.49-1.2-.56a28.4 28.4 0 0 0-.494-.06l-.51-.05-.42 3.34.78.1c.34.04.64.03.89-.02a1.34 1.34 0 0 0 .63-.31zm.52 2.87a1.692 1.692 0 0 0-.36-1.33c-.31-.38-.79-.6-1.44-.68a26.404 26.404 0 0 0-.67-.08 10.92 10.92 0 0 0-.41-.04l-.39 3.05a.652.652 0 0 0 .24.62c.19.16.48.26.85.31.62.08 1.11-.03 1.48-.35.37-.32.6-.81.69-1.5zm11.91 2.75h-2.39c-.52-.82-1.01-1.52-1.43-2.12-.43-.6-.892-1.2-1.39-1.84h-.902v2.77c0 .14.02.27.06.37.05.11.15.2.3.26a2.1 2.1 0 0 0 .39.08c.19.02.34.04.47.04v.44H370v-.43l.44-.05c.19-.02.32-.05.4-.08a.533.533 0 0 0 .276-.23.773.773 0 0 0 .08-.39v-6.31c0-.14-.02-.27-.06-.38a.456.456 0 0 0-.298-.25 2.32 2.32 0 0 0-.408-.11 4.044 4.044 0 0 0-.426-.05v-.43h4.08a4.6 4.6 0 0 1 1.057.11c.33.08.62.2.89.37.25.17.46.37.62.64.15.26.23.58.23.96 0 .34-.05.63-.16.89-.1.26-.26.48-.46.67-.18.18-.41.32-.67.46-.26.13-.55.23-.86.33.43.57.81 1.04 1.09 1.43.29.39.65.86 1.06 1.42a2.63 2.63 0 0 0 .94.83c.11.06.25.1.41.13.16.03.3.04.41.05v.44zm-3.28-6.5c0-.53-.16-.94-.46-1.26-.3-.31-.74-.47-1.3-.47h-1.06v3.75h.82c.57 0 1.05-.17 1.43-.54.378-.37.57-.85.57-1.48zm13.47 5.85l-3.67.28a20.18 20.18 0 0 0-.03-.44 3.77 3.77 0 0 0 .8-.19c.2-.08.31-.16.3-.25 0-.04-.02-.08-.02-.14a.483.483 0 0 0-.05-.14c-.29-.64-.6-1.26-.89-1.9l-3.1.24c-.09.3-.17.55-.22.78-.053.22-.11.42-.15.6a3.73 3.73 0 0 0-.08.44c-.01.11-.02.2-.01.27.01.17.15.28.42.35.27.08.56.1.897.1l.03.44-3.32.25-.04-.44a2.08 2.08 0 0 0 .39-.1c.16-.05.29-.11.39-.18a1.51 1.51 0 0 0 .36-.38 1.95 1.95 0 0 0 .23-.51c.35-1.13.76-2.39 1.18-3.8.42-1.4.82-2.65 1.15-3.74l.5-.04c1.16 2.43 2.36 4.84 3.51 7.28.08.15.16.27.24.37a1.238 1.238 0 0 0 .74.38c.16.03.29.04.39.03l.04.44zm-3.82-3.3c-.52-1.09-1.07-2.17-1.59-3.27-.35 1.16-.72 2.31-1.06 3.47l2.66-.2zm16.37-6.89l-.45.12c-.17-.29-.44-.57-.8-.86-.36-.29-.68-.41-.93-.38a6.3 6.3 0 0 0-.45.09c-.173.05-.37.09-.59.15l-1.43.39c.31 1.13.61 2.26.92 3.38.32-.09.65-.18.98-.26.29-.08.52-.17.67-.28a1.12 1.12 0 0 0 .34-.39c.058-.11.098-.27.11-.47.02-.2.01-.4-.03-.62l.45-.12c.3 1.11.6 2.21.9 3.31l-.45.12a2.984 2.984 0 0 0-.28-.56c-.133-.2-.253-.34-.36-.42a.91.91 0 0 0-.53-.18 2.38 2.38 0 0 0-.69.11l-.98.27.79 2.9a.77.77 0 0 0 .18.33c.08.09.19.14.34.17.063.02.21.01.413-.01a2.7 2.7 0 0 0 .48-.06l.12.43-3.7 1.01-.12-.42c.12-.04.28-.1.47-.17.19-.07.32-.13.37-.17a.53.53 0 0 0 .2-.3.842.842 0 0 0-.02-.39c-.55-2.02-1.1-4.05-1.644-6.08a1.144 1.144 0 0 0-.16-.33c-.07-.09-.19-.14-.34-.17a2.53 2.53 0 0 0-.47-.02 2.46 2.46 0 0 0-.46.05l-.11-.42 6.692-1.81.57 2.12m9.86-.75c.32.81.64 1.62.96 2.42l-6.23 3.01-.19-.39c.085-.05.21-.12.37-.23a1.51 1.51 0 0 0 .31-.24.528.528 0 0 0 .15-.33.81.81 0 0 0-.1-.39c-.9-1.88-1.81-3.76-2.71-5.63a.974.974 0 0 0-.22-.31.53.53 0 0 0-.37-.1 1.66 1.66 0 0 0-.43.04 2.01 2.01 0 0 0-.42.11c-.06-.13-.13-.26-.19-.39l3.36-1.62.19.39a2.73 2.73 0 0 0-.38.25 2.278 2.278 0 0 0-.32.27.428.428 0 0 0-.15.35.85.85 0 0 0 .09.38l2.55 5.28c.12.24.22.43.31.55a.55.55 0 0 0 .33.23c.12.03.27.01.45-.06a5.96 5.96 0 0 0 .73-.31c.14-.07.28-.14.43-.22.15-.08.28-.17.41-.25.12-.09.224-.18.32-.27a.613.613 0 0 0 .174-.26 5.45 5.45 0 0 0 .17-1.04c.03-.44.04-.79.02-1.04.13-.06.26-.13.4-.19m4.66-8.655a4.36 4.36 0 0 1 1.53.78 5.4 5.4 0 0 1 1.25 1.46c.35.6.57 1.2.67 1.8.1.6.06 1.18-.07 1.73a4.07 4.07 0 0 1-.7 1.47 4.067 4.067 0 0 1-1.24 1.11c-.53.31-1.08.51-1.64.57s-1.11.03-1.64-.14a4.215 4.215 0 0 1-1.5-.8 5.236 5.236 0 0 1-1.21-1.4 5.175 5.175 0 0 1-.68-1.81 4.534 4.534 0 0 1 .065-1.71 4.13 4.13 0 0 1 .71-1.48 4.13 4.13 0 0 1 1.23-1.1 4.142 4.142 0 0 1 1.59-.56 4.005 4.005 0 0 1 1.63.1zm2.35 5.81a4.096 4.096 0 0 0-.2-1.38 7.183 7.183 0 0 0-.66-1.44 7.514 7.514 0 0 0-.99-1.33 4.093 4.093 0 0 0-1.1-.83 2.49 2.49 0 0 0-1.16-.27c-.39 0-.79.12-1.17.35-.43.25-.74.56-.92.93a2.68 2.68 0 0 0-.28 1.22c.01.42.08.86.24 1.33a7.868 7.868 0 0 0 1.59 2.69c.33.36.7.63 1.08.833.38.2.767.28 1.167.29.39 0 .8-.12 1.21-.36a2.39 2.39 0 0 0 .88-.88c.19-.36.31-.75.31-1.18zm10.97-5.96l-1.95 1.38a49.677 49.677 0 0 0-2.39-.9c-.694-.24-1.43-.46-2.193-.69l-.74.52 1.6 2.26c.08.11.18.2.27.26.1.07.23.08.39.04.08-.01.2-.07.37-.16.17-.09.3-.17.41-.24.09.12.17.24.26.36a757.52 757.52 0 0 1-3.05 2.17l-.25-.36c.08-.06.19-.16.33-.29a1.63 1.63 0 0 0 .27-.296.508.508 0 0 0 .09-.35.775.775 0 0 0-.16-.36 2716.18 2716.18 0 0 1-3.66-5.15 1.1 1.1 0 0 0-.27-.27c-.1-.067-.22-.08-.38-.038a3.198 3.198 0 0 0-.77.35c-.08-.11-.17-.24-.25-.35 1.11-.79 2.22-1.57 3.33-2.36a4.75 4.75 0 0 1 .93-.52 2.86 2.86 0 0 1 .94-.21 1.83 1.83 0 0 1 .87.16c.29.13.53.35.75.65.2.28.33.55.39.82.07.27.07.54.02.81a2.66 2.66 0 0 1-.29.76 5.01 5.01 0 0 1-.515.77c.69.22 1.27.39 1.73.54.46.16 1.03.33 1.69.55a2.61 2.61 0 0 0 1.25.14c.12-.02.25-.07.4-.14a2.77 2.77 0 0 0 .36-.2c.08.12.17.24.25.36zm-6.42-3.43c-.3-.43-.68-.68-1.1-.76-.43-.08-.87.05-1.33.37l-.87.61a5732.5 5732.5 0 0 0 2.17 3.05l.67-.48c.46-.33.76-.75.85-1.27.09-.52-.03-1.03-.39-1.536zM436.5 347c.24.82.49 1.65.74 2.47l-6.89 2.55a20.2 20.2 0 0 1-.16-.41 4.2 4.2 0 0 0 .45-.23c.19-.09.31-.16.352-.21a.61.61 0 0 0 .18-.32.768.768 0 0 0-.06-.38l-2.18-5.88a1.016 1.016 0 0 0-.19-.315c-.08-.08-.2-.12-.357-.13a2.16 2.16 0 0 0-.46.02c-.2.02-.34.05-.45.08a13.73 13.73 0 0 1-.15-.41l6.424-2.38.73 1.97-.44.16c-.19-.27-.48-.51-.85-.75-.39-.24-.7-.32-.95-.26a5.01 5.01 0 0 0-.44.12 46.6 46.6 0 0 0-.58.21c-.44.16-.87.32-1.3.486l1.2 3.25.93-.35c.3-.11.51-.22.63-.33a.913.913 0 0 0 .26-.41 1.57 1.57 0 0 0 .06-.53 2.996 2.996 0 0 0-.08-.57l.44-.16 1.19 3.21-.44.16a3.304 3.304 0 0 0-.34-.55 1.57 1.57 0 0 0-.38-.36.905.905 0 0 0-.52-.14 2.176 2.176 0 0 0-.64.15l-.94.35.91 2.46c.09.25.18.43.27.56a.565.565 0 0 0 .32.25c.13.04.29.03.47-.01.19-.05.44-.13.76-.25.13-.05.3-.11.51-.19a4.234 4.234 0 0 0 .96-.48c.14-.11.23-.2.27-.3.11-.25.2-.6.25-1.05s.08-.77.07-.96l.42-.16m7.4-6.06a4.26 4.26 0 0 1 1.1 1.32 5.36 5.36 0 0 1 .57 1.84 5.07 5.07 0 0 1-.09 1.92 4.34 4.34 0 0 1-.74 1.56 4.06 4.06 0 0 1-1.22 1.07c-.48.28-1 .45-1.57.53-.62.08-1.19.05-1.74-.12-.55-.17-1.04-.41-1.46-.77a4.268 4.268 0 0 1-1.06-1.32 5.07 5.07 0 0 1-.56-1.77c-.09-.71-.06-1.35.09-1.94a4.52 4.52 0 0 1 .73-1.55 4.143 4.143 0 0 1 2.8-1.62 4.233 4.233 0 0 1 1.69.11 4.04 4.04 0 0 1 1.46.73zm-.12 6.27a4.11 4.11 0 0 0 .34-1.33 7.58 7.58 0 0 0-.06-1.58 7.274 7.274 0 0 0-.39-1.61 4.02 4.02 0 0 0-.68-1.2 2.52 2.52 0 0 0-.96-.7 2.346 2.346 0 0 0-1.21-.14c-.5.07-.9.23-1.22.51a2.67 2.67 0 0 0-.73 1.01c-.15.39-.26.82-.29 1.31a7.248 7.248 0 0 0 .04 1.54 7.22 7.22 0 0 0 .37 1.56c.16.46.4.85.67 1.19.27.34.59.56.95.73.37.16.79.21 1.26.15a2.385 2.385 0 0 0 1.15-.46 2.48 2.48 0 0 0 .75-.97z" stroke="#000" stroke-width=".7"/>
<path stroke="#000" stroke-width="1.017" d="M422.97 213.66v55.25c0 10.988-1.525 54.744-48.53 71.738-47.104-16.994-48.63-60.746-48.63-71.738v-55.25h97.16" fill="none"/>
</svg>
