<svg viewBox="0 0 1000 500" xmlns="http://www.w3.org/2000/svg">
<path fill="red" d="M0 0h1000v500H0z"/>
<path fill="#fff" d="M250 0h500v500H250z"/>
<path d="M499.99 46.875L465.877 110.5c-3.87 6.915-10.806 6.274-17.742 2.41l-24.697-12.788 18.407 97.727c3.87 17.85-8.55 17.85-14.678 10.13l-43.1-48.25-6.998 24.5c-.81 3.22-4.36 6.6-9.68 5.79l-54.5-11.46 14.31 52.04c3.06 11.58 5.45 16.37-3.1 19.43l-19.43 9.13 93.82 76.21c3.71 2.88 5.59 8.06 4.27 12.76l-8.21 26.94c32.3-3.73 61.25-9.33 93.57-12.78 2.85-.31 7.63 4.4 7.61 7.71l-4.28 98.72h15.7l-2.48-98.52c-.02-3.31 4.31-8.23 7.16-7.93 32.32 3.45 61.26 9.05 93.57 12.77l-8.21-26.94c-1.33-4.7.55-9.88 4.26-12.76l93.82-76.21-19.43-9.13c-8.55-3.06-6.16-7.85-3.1-19.43l14.32-52.04-54.5 11.46c-5.32.8-8.87-2.58-9.68-5.8l-7-24.5-43.1 48.25c-6.13 7.72-18.55 7.72-14.68-10.13l18.41-97.73-24.7 12.79c-6.94 3.86-13.87 4.5-17.74-2.418" fill="red"/>
</svg>
