<svg id="canada_flag" viewBox="0 0 1000 500" xmlns="http://www.w3.org/2000/svg">
<rect width="1e3" fill="#f00" height="500"/>
<rect width="500" fill="#fff" x="250" height="500"/>
<path d="m499.99 46.875-34.113 63.625c-3.8709 6.915-10.806 6.2736-17.742 2.4114l-24.697-12.789 18.407 97.727c3.8709 17.854-8.5486 17.854-14.678 10.134l-43.101-48.251-6.9974 24.503c-0.80692 3.2178-4.3548 6.5974-9.6775 5.7926l-54.502-11.459 14.315 52.045c3.0645 11.581 5.4549 16.375-3.0938 19.43l-19.426 9.1302 93.821 76.208c3.7135 2.8815 5.5897 8.067 4.2677 12.762l-8.2114 26.947c32.304-3.7237 61.249-9.3259 93.569-12.776 2.8532-0.30459 7.6299 4.4041 7.6103 7.7106l-4.2802 98.723h15.706l-2.4724-98.512c-0.0197-3.3065 4.3137-8.2269 7.167-7.9223 32.32 3.4503 61.265 9.0525 93.569 12.776l-8.2113-26.947c-1.322-4.6951 0.55417-9.8806 4.2677-12.762l93.821-76.208-19.426-9.1302c-8.5487-3.0543-6.1583-7.849-3.0938-19.43l14.315-52.045-54.502 11.459c-5.3227 0.80483-8.8706-2.5748-9.6775-5.7926l-6.9974-24.503-43.101 48.251c-6.1291 7.7198-18.549 7.7198-14.678-10.134l18.407-97.727-24.697 12.789c-6.9356 3.8622-13.871 4.5036-17.742-2.4114" fill="#f00"/>
</svg>
