<svg xmlns="http://www.w3.org/2000/svg" xmlns:xlink="http://www.w3.org/1999/xlink" viewBox="0 0 10080 5040">
<defs>
<path id="a" d="M0-360l69.42 215.845 212.04-80.3-125.473 188.85 194.986 115.71-225.88 19.65 31.104 224.593L0 160l-156.198 164.35 31.105-224.592-225.88-19.65 194.985-115.71-125.47-188.854 212.037 80.3z"/>
<path id="b" d="M0-210L54.86-75.508l144.862 10.614L88.765 28.842l34.67 141.052L0 93.334l-123.435 76.56 34.67-141.052-110.957-93.736L-54.86-75.508z"/>
</defs>
<path fill="green" d="M0 0h10080v5040H0z"/>
<circle cx="5040" cy="2520" r="1050" fill="#ffe000"/>
<circle cx="5367.4" cy="2520" r="864" fill="green"/>
<circle cx="1730" cy="1470" r="1100" fill="#ffe000"/>
<path fill="#802000" stroke="#7b3100" stroke-width="23.333" d="M1654.1 2299.4h274.67s12.398-25.178-2.766-37.767-74.23-15.36-58.27-59.892c32.806-91.55 37.384-63.32 57.984-280.77s30.518-558.49 30.518-558.49h-39.674s7.63 106.05-15.26 244.15-29.754 150.3-54.932 256.35-28.992 115.21-51.88 177.01-25.18 64.86-61.038 122.07c-35.86 57.23-22.89 35.86-42.726 70.2-9.918 17.17-22.126 12.59-28.802 25.08-6.676 12.5-7.82 42.06-7.82 42.06z"/>
<path fill="green" d="M1863.7 668.6c2.282 42.66-2.007 99.138-19.688 145.1-17.928 51.216-37.423 102.27-36.458 155.31-28.502 9.694-57.877-61.678-85.312-19.688 20.624 58.016 68.24 103.95 100.86 156.22 5.502 16.205 52.438 58.518 25.28 68.358-68.546-23.46-85.16-110.31-127.68-163.05-49.38-88.757-141.44-151.49-244-155.82-38.523 1.01-163.78-9.548-131.19 56.42 47.998 32.63 107.14 53.91 154.53 90.536 35.31 3.303 99.31 62.248 95.58 84.52-62.102-25.153-91.17-55.3-158.08-81.758-90.658-35.014-216.06-13.954-266.25 76.02-9.357 23.434-23.172 91.732 6.255 98.24 34.384-53.686 83.57-113.7 156.45-97.6 57.244 4.468-63.877 106.64-17.544 86.083 14.68-6.51 48.583-28.76 72.102-31.09 23.518-2.32 36.653 15.28 54.497 17.72 35.688 4.87 45.515 19.84 42.207 28.54-3.91 10.27-15.25 1.5-51.52 13.01-18.14 5.75-27.62 21.69-48.78 28.99-21.16 7.3-65.18 7.82-81.62 1.35-57.55-24.99-151.89-20.64-169.83 51.47-.02 31.71-28.24-3.5-41.28 10.2-9.78 34.61-12.31 70.14-63.63 66.99-31.16 32.69-63.06 66.53-102.62 89.78 23.21 53.29 115.2-53.51 110.9-8.48-40.21 54.84 20.69 66.37 47.35 24.17 45.09-47.64 100.93-105.63 168.21-57.62 32.04 30.17 50.66-15.95 73.85-13.48 14.61 37.48 33 1.85 49.58-8.75 27.15-3.38 19.51 33.91 51.77 10.94 64.29-42.55 143.39-6.79 206.2-48.2 66.85-30.46 9.38 24.53-9.07 46.03-29.38 56.97-3.9 131.76-67.62 167.14-25.59 67.9 30.24 157.4-26.71 207.63-8.29 31.5 73.23 27.89 96.11 40.83 40.09 1.59-1.73-91.76 38.05-104.27 53.34 33.02 50.84-59.05 39.83-87.45 5.17-64.55 8.81-135.13 40.89-193.6 34.1-71.66 65.66 29.19 27.49 57.56-21.69 65.9-53.25 148.36-3.94 209.64 14.21 3.18 25.88 37.62 44.28 48.21s43.53-2.68 48.11-34.02c23.6-94.37 11.71-195.85 45.42-287.63 23.79-28.43 56.6-4.58 71.35 21.56 47.23 54.83 80.43 123.38 137.61 168.56 52.06 24.36 98.11 61.21 122.1 114.81-.32 41.35 117.45 47.69 82.26 1.73-33.77-44.75-11.49-89.5 22.71-119.26 18.32 4.52 12.9-28.29-1.46-15.31-23-5.42-24.47-47.51 7.49-27.5 53.83 17.38-4.2-38.96-23.66-40.69-45.52-28.21-97.82-60.67-120.2-109.72 59.26.61 120.77 32.57 181.32 12.74 48.54-24.93 97.77 2.08 114.72 44.87 37.52-5.98 21.52-43.61 0-56.14 27.44-11.32 46.42-34.8 13.15-55.51-17.58-22.94 23.56-62.06-27-60.43 1.65-38.62-13.56-73.97-55.66-87.32-42.18-35.72-165.95 52.62-162.36-27.89-12.47-43.82 50.27-5.85 67.81-27.71 18.12-46.19-86.34-41.68-51.87-77.5 22.51-14.49 128.15-35.31 45.3-50.82-41.34 11.37-76.83 2.95-109.37-17.51-29.65 49.6-114.34-26.94-99.25 61.25-11.58 33.23-87.28 119.57-107.76 53.42 17.42-51.84 107.1-68.79 79.29-138.7-4.27-43.63-40.44 7.59-57.49 4.34-8.63-27.16 26.1-59.18 50.31-65.62 48.03 36.95 49.49-46.61 95.17-39.81 33.36-7.41-10.77-21.72-20.07-27.99 9.14-24.41 60.35-36.89 10.14-58.09-44.31-32.87-77.14 32.72-113.68 36.22-35.08-39.59 31.84-58.63 50.31-79.48.99-15.54-39.02-4.69-26.98-18.23 10.45-18.69 81.3-20.08 48.12-48.12-49.97-17.15-114.44-12.87-162.38 9.35-30.2 9.78-39.09 78.07-65.12 75.24-12.24-30.4 3.98-90.37-37.92-99.16zm236.25 667.19c38.072-6.447.808 57.818-17.5 56.875 1.618-23.092-55.065-20.87-19.897-40.988 11.405-7.364 24.112-12.982 37.397-15.887z"/>
<g fill="#ffe000">
<use xlink:href="#a" x="7560" y="4200"/>
<use xlink:href="#a" x="6300" y="2205"/>
<use xlink:href="#a" x="7560" y="840"/>
<use xlink:href="#a" x="8680" y="1869"/>
<use xlink:href="#b" x="8064" y="2730"/>
</g>
</svg>
