<svg id="cook_islands" xmlns="http://www.w3.org/2000/svg" xmlns:xlink="http://www.w3.org/1999/xlink" viewBox="0 0 600 300">
<clipPath id="cp">
<path d="m0 0v75h350v75h-50zm300 0h-150v200h-150v-50z"/>
</clipPath>
<rect width="600" fill="#00247d" height="300"/>
<path stroke="#fff" stroke-width="30" d="m0 0l300 150m0-150l-300 150"/>
<path stroke="#cf142b" stroke-width="20" d="m0 0l300 150m0-150l-300 150" clip-path="url(#cp)"/>
<path stroke="#fff" stroke-width="50" d="m150 0v200m-150-125h350"/>
<path stroke="#cf142b" stroke-width="30" d="m150 0v200m-150-125h350"/>
<path d="m300 0v150h-300v150h600v-300z" fill="#00247d"/>
<g transform="translate(450,150)">
<g id="s1" fill="#fff" transform="translate(0,-102)">
<g id="c">
<path id="t" transform="rotate(18,0,-22.5)" d="m0-22.5v22.5h12"/>
<use xlink:href="#t" transform="scale(-1,1)"/>
</g>
<use xlink:href="#c" transform="rotate(72)"/>
<use xlink:href="#c" transform="rotate(144)"/>
<use xlink:href="#c" transform="rotate(216)"/>
<use xlink:href="#c" transform="rotate(288)"/>
</g>
<g id="s7">
<use xlink:href="#s1" transform="rotate(24)"/>
<use xlink:href="#s1" transform="rotate(48)"/>
<use xlink:href="#s1" transform="rotate(72)"/>
<use xlink:href="#s1" transform="rotate(96)"/>
<use xlink:href="#s1" transform="rotate(120)"/>
<use xlink:href="#s1" transform="rotate(144)"/>
<use xlink:href="#s1" transform="rotate(168)"/>
</g>
<use xlink:href="#s7" transform="rotate(168)"/>
</g>
</svg>
