<svg xmlns="http://www.w3.org/2000/svg" xmlns:xlink="http://www.w3.org/1999/xlink" viewBox="0 0 1000 600">
<defs>
<radialGradient id="a">
<stop stop-color="#fbd55f" offset="0"/>
<stop stop-color="#cb8e32" offset="1"/>
</radialGradient>
</defs>
<path fill="#002b7f" d="M0 0h1000v600H0z"/>
<path fill="#fff" d="M0 100h1000v400H0z"/>
<path fill="#ce1126" d="M0 200h1000v200H0z"/>
<ellipse cy="300" cx="300" rx="75" ry="87.5" fill="#fff"/>
<g transform="translate(235.94 234.48) scale(.15382)">
<g stroke-linejoin="round" stroke="#000" stroke-width="3" stroke-linecap="round">
<path d="M105.36 349.34l11-20.25-26-7.25-8 18 23 9.5zm622.24 0l-11-20.25 26-7.25 8 18-23 9.5z" fill="#cea849"/>
<path d="M409.48 91.438l-40.094 1.157c-25.6 2.418-35.334 12.29-19.437 30.965-41.28 6.47-81.64 15.908-118.94 35.626-10.49-1.74-22.67 4.134-26.16 14.232-2.91 8.158 4.19 16.828 16.81 13.387-8.35 21.987-106.99 19.428-109.5 56.05 7.47-6.368 15.7-11.766 23.9-6.318l-5.66 17.11c-14.37 4.277-24.46 6.644-30.47 22.363-6.21 15.77-15.13 39.832-21.35 51.67-4.08 5.473-5.07 11.285-5.07 14.17 0 6.815 4.86 16.327 16.12 16.327 11.46 0 17.09-7.175 17.09-14.388-.67-5.02-2.65-10.92-14.75-10.23 20.32-4.87 37.88 1.95 49.68 9.47 16.3 12.04 20.38 35.38 10.87 54.58-9.32 18.65-33.01 29.54-68.35 15.76-28.74-11.29-57.64 3.48-67.16 29.15-43.29 117.15 32.41 212.17 118.22 267.58 89.3 57.7 105.21 73.42 129.09 101.62 24.07 28.15 47.37 60.4 82.31 60.4 5.43 0 10.68-1.56 15.34-4.1 21.99 0 23.42 8.2 52.94 8.72v.03c.51 0 1-.03 1.5-.03.49 0 .96.03 1.47.03v-.03c29.54-.52 30.96-8.73 52.96-8.73 4.66 2.54 9.87 4.1 15.31 4.1 34.94 0 58.24-32.24 82.31-60.4 23.88-28.21 39.82-43.92 129.12-101.62 85.81-55.42 161.51-150.44 118.22-267.58-9.51-25.67-38.45-40.44-67.19-29.15-35.33 13.78-58.99 2.89-68.31-15.77-9.51-19.2-5.43-42.54 10.87-54.58 11.8-7.53 29.33-14.35 49.66-9.48-12.11-.69-14.05 5.21-14.72 10.23 0 7.21 5.64 14.38 17.09 14.38 11.26 0 16.09-9.52 16.09-16.33 0-2.89-.95-8.7-5.03-14.17-6.22-11.84-15.17-35.9-21.38-51.67-6.02-15.72-16.11-18.09-30.47-22.37l-5.63-17.11c8.2-5.45 16.43-.05 23.9 6.32-2.51-36.63-101.18-34.07-109.53-56.05 12.62 3.44 19.76-5.23 16.84-13.39-3.5-10.1-15.67-15.98-26.16-14.24-37.27-19.72-77.67-29.16-118.94-35.63 15.89-18.68 6.16-28.55-19.44-30.96L423.4 91.4l-7-.22-6.97.22z" fill="#dca842"/>
<path d="M495.88 830.52c0-26.456-44.843-34.764-79.205-34.764-34.168 0-79.205 8.308-79.205 34.764m122.69 26.65c-18.056 0-17.474 19.44-43.68 19.44-26.013 0-25.432-19.44-43.488-19.44" fill="none"/>
<g id="b">
<path d="M154.05 272.66c2.175.12 4.39.67 6.437 1.53 3.616 1.524 6.785 4.13 7.907 7.75.007.024.024.04.03.064 31.913 88.55 14.846 126.29-13.5 183.59-40.957 82.506-11.104 205.42 80.376 259.16 44.974 26.295 79.656 35.262 106.22 41.906 13.28 3.322 24.558 6.07 34.094 10.156 9.2 3.94 18.697 11 24.695 19.174-9.2.76-24.2 3.28-31.56 5.445-10.71-13.603-37.63-26.11-65.49-35.588-27.86-9.478-56.93-16.224-72.69-19.344h-.03c-51.29-14.874-99.1-48.25-135.12-90.656-38.14-44.89-57.63-106.35-50.1-167.97 1.68-14.102 7.29-22.72 15.28-27.406 7.99-4.68 18.09-5.48 28.81-4.78 19.48 1.13 38.56-4.19 56-14.93 22.49-13.84 31.7-38.32 31.34-64.9-.36-26.58-10.4-55.13-26.31-76.4-5.69-7.65-7.96-13.4-7.85-17.84.11-4.44 3-7.38 6.53-8.4a13.7 13.7 0 0 1 2.75-.5 16.09 16.09 0 0 1 2.15-.03z" fill="#825123"/>
<g fill="none">
<path d="M365.36 93.093c38.572.12 30.016 46.144-5 48.25-43.15 5.035-96.2 3.62-125 15.5m-99 61.247c33.314-9.378 69.202-1.792 91-11.75s26.49-42.896 3-47.25"/>
<path d="M349.11 123.59c7.68-1.77 15.89-2.044 19.98-5.77 4.09-3.727 5.312-10.405-4.48-11.23m-142.99 80.5c7.16-12.05 4.837-20.454-4.518-14.67m2.128 570.03c61.736 43.665 70.667 100.43 134.54 103.15"/>
<path d="M354.55 854.5c-37.662 8.11-62.318-12.363-92.023-56.818-15.15-22.4-54.94-53.9-122.89-96.38-106.78-66.66-138.42-182.91-103.67-246.66 8.543-15.676 30.48-21.857 43.1-18.346 32.81 8.852 87.946 0 88.14-53.16.194-29.916-24.268-64.878-55.912-64.878-19.224 0-29.51 6.38-34.556 13.154"/>
<path d="M349.89 831.9c0-2.918 2.52-5.984 6.212-5.984 3.688 0 6.988 3.264 6.988 7.32 0 8.9-5.05 13.697-15.725 11.57-8.737-1.73-12.62-11.176-8.93-20.67 3.687-9.643 16.11-15.626 29.505-9.643 13.4 6.182 11.843 26.654 7.187 38.275-2.72 6.725-8.156 12.363-14.756 16.022"/>
</g>
<g stroke-width="1" transform="matrix(-1 0 0 1 833.41 0)" fill="url(#a)">
<path d="M760.57 462.8c15.337 0 15.337 22.91 0 22.91s-15.53-22.91 0-22.91m-28.73-1.42c15.337 0 15.337 22.91 0 22.91s-15.53-22.91 0-22.91m-28.34 1.42c15.337 0 15.337 22.91 0 22.91s-15.53-22.91 0-22.91m67.56 25.44c15.337 0 15.337 22.862 0 22.862s-15.53-22.862 0-22.862m-28.35 0c15.337 0 15.337 22.862 0 22.862s-15.53-22.862 0-22.862m-28.54 0c15.337 0 15.337 22.862 0 22.862s-15.53-22.862 0-22.862m58.05 26.6c15.337 0 15.337 22.91 0 22.91s-15.53-22.91 0-22.91m-26.79-1c15.337 0 15.337 22.91 0 22.91s-15.53-22.91 0-22.91m-28.54 0c15.337 0 15.337 22.91 0 22.91s-15.53-22.91 0-22.91m51.25 28.18c14.368 0 14.368 21.52 0 21.52-14.557 0-14.75-21.52 0-21.52"/>
<path d="M741.35 542.02c14.363 0 14.363 21.52 0 21.52-14.562 0-14.562-21.52 0-21.52"/>
<path d="M714.37 542.02c14.368 0 14.368 21.52 0 21.52-14.562 0-14.756-21.52 0-21.52m48.06 28.09c13.782.547 12.812 21.172-.97 20.575-13.786-.596-13.01-21.37.97-20.575"/>
<path d="M738.05 567.22c13.782.596 12.812 21.172-.974 20.575-13.782-.547-13.006-21.122.974-20.575"/>
<path d="M712.23 566.07c13.787.596 12.817 21.172-.97 20.575-13.78-.596-13.005-21.37.97-20.575m40.38 28.13c13.205.994 11.843 20.575-1.357 19.63-13.2-.794-12.037-20.574 1.357-19.63"/>
<path d="M730.29 591.12c12.62.745 11.262 19.58-1.163 18.836-12.62-.795-11.456-19.63 1.163-18.836m-23.68-1.19c10.094.596 9.12 15.953-.974 15.158-10.094-.596-9.32-15.705.974-15.158m35.91 26.04c12.62.745 11.262 19.58-1.163 18.836-12.62-.795-11.456-19.63 1.163-18.836m-21.55-5.07c10.487.795 9.32 16.5-.97 15.755-10.485-.795-9.512-16.5.97-15.755m-20-2.68c8.737.348 7.763 13.568-.775 12.97-8.737-.397-7.962-13.567.775-12.97m32.62 27.33c11.456 2.535 7.574 19.83-3.88 17.096-11.458-2.535-7.57-19.58 3.88-17.096M714.56 628c9.512 2.137 6.212 16.5-3.106 14.164-9.513-2.137-6.406-16.5 3.106-14.164m-18.05-5.42c7.962 1.74 5.243 13.767-2.72 11.828-7.954-1.74-5.236-13.767 2.72-11.828m24.65 30.66c10.1 3.48 4.662 18.836-5.437 15.158-10.094-3.53-4.85-18.836 5.437-15.158m-16.69-9.14c8.543 2.932 3.88 15.755-4.468 12.624-8.538-2.883-4.075-15.705 4.468-12.624m-15.92-6.76c6.988 2.286 3.3 12.97-3.688 10.437-6.992-2.485-3.3-13.17 3.688-10.437m21.94 30.86c8.93 4.075 2.72 17.444-6.212 13.17-8.93-3.877-2.72-17.246 6.212-13.17m-14.37-9.74c7.38 3.33 2.137 14.562-5.045 11.083-7.38-3.28-2.33-14.562 5.045-11.083m-13.78-7.55c6.212 2.932 1.744 12.027-4.274 9.294-6.212-2.883-1.938-12.226 4.274-9.294m14.75 29.72c7.38 3.678 1.556 14.91-5.626 11.033-7.38-3.678-1.75-14.91 5.626-11.033m-11.84-8.75c6.212 3.08 1.357 12.425-4.662 9.095-6.212-3.08-1.357-12.425 4.662-9.095m-11.46-7.01c5.05 2.733.97 10.288-3.88 7.604-5.05-2.535-1.17-10.486 3.88-7.604m12.04 26.59c6.406 4.075 0 13.816-6.212 9.542-6.407-4.075-.194-13.816 6.212-9.542m-9.9-8.89c5.238 3.48 0 11.43-5.243 7.952-5.243-3.48 0-11.68 5.243-7.952m-9.9-7.61c4.468 2.932 0 9.542-4.27 6.61-4.462-2.882 0-9.492 4.27-6.61m8.7 25.47c6.406 4.274 0 13.767-6.212 9.492-6.407-4.075-.194-13.767 6.212-9.492m-9.9-8.77c5.238 3.53 0 11.48-5.243 7.952-5.243-3.48 0-11.43 5.243-7.952m-8.12-7.55c4.463 2.932 0 9.492-4.274 6.61-4.463-2.932 0-9.74 4.274-6.61m-8.73 9.29c4.075 2.535 0 8.747-3.886 6.212-4.076-2.683 0-8.896 3.886-6.212m7.18 8c4.463 2.883 0 9.492-4.27 6.56-4.467-2.882 0-9.492 4.27-6.56m7.76 8.15c4.85 3.28 0 10.486-4.662 7.157-4.855-3.082 0-10.487 4.662-7.157m-24.07-6.61c3.688 2.535 0 7.952-3.688 5.616-3.692-2.535 0-8.15 3.688-5.616m5.72 6.98c4.075 2.733 0 8.747-3.88 6.014-4.083-2.684 0-8.698 3.88-6.014m6.98 6.92c4.274 2.684 0 9.294-4.27 6.41-4.273-2.93 0-9.342 4.27-6.41M630 709.28c3.3 2.137 0 7.405-3.3 5.07-3.3-2.138 0-7.356 3.3-5.07m5.21 6.5c3.688 2.535 0 8.15-3.688 5.666-3.687-2.535 0-8.15 3.688-5.666m6.32 7.41c3.88 2.535 0 8.747-3.88 5.815-3.884-2.535 0-8.747 3.88-5.815m-18.79-8.22c3.106 2.336-.393 7.008-3.5 4.672-2.91-2.336.394-7.008 3.5-4.672m4.71 6.1c3.3 2.535-.388 7.554-3.688 5.02-3.3-2.485.388-7.555 3.688-5.02m4.52 6.51c3.494 2.733-.388 8.35-4.075 5.467-3.494-2.733.387-8.35 4.075-5.467m-16.27-8.14c2.525 2.137-.775 6.063-3.3 3.727-2.52-2.335.78-6.013 3.3-3.727m3.88 6.48c2.525 2.286-.97 6.56-3.688 3.877-2.718-2.336.97-6.61 3.688-3.877m3.6 6.13c2.912 2.733-.97 7.008-3.88 4.274-2.915-2.485.967-6.958 3.88-4.274m-14.84-8.83c2.33 2.137-.97 5.616-3.3 3.48-2.33-2.337.97-5.816 3.3-3.48m2.68 5.78c2.525 2.535-.97 6.212-3.494 3.678-2.524-2.336.97-6.213 3.494-3.678m3.88 6.44c2.72 2.733-1.163 6.81-3.88 4.075-2.72-2.534.972-6.808 3.88-4.075m-13.4-7.86c1.744 1.938-1.168 4.672-2.912 2.733-1.75-1.938.97-4.87 2.912-2.733m2.11 5.36c1.943 2.137-1.163 5.02-3.3 2.883-1.744-2.137 1.168-5.02 3.3-2.883m2.88 5.55c2.132 2.336-1.362 5.417-3.5 3.13-2.13-2.335 1.363-5.665 3.5-3.13m81.11-291.57c10.094 0 10.094 15.158 0 15.158s-10.288-15.158 0-15.158"/>
</g>
</g>
<use xlink:href="#b" transform="matrix(-1 0 0 1 832.96 0)"/>
<path d="M416.48 828.14c-12.812 0-12.812 19.035 0 19.035s13.006-19.035 0-19.035m23.1 3.52c-7.957 0-7.957 11.828 0 11.828 7.962 0 8.156-11.828 0-11.828m-17.08 29.33c0-8.002-11.843-8.002-11.843 0 0 7.952 11.843 7.952 11.843 0m-29.12-17.1c7.957 0 7.957-11.878 0-11.878-7.962 0-8.156 11.878 0 11.878m17.08-29.32c0 7.952 11.843 7.952 11.843 0s-11.843-7.952-11.843 0" fill="url(#a)"/>
</g>
<path stroke="#000" d="M182.15 433.08c11.262-37.473 16.893-85.632.974-148.3 70.08-45.226 119.39-86.576 233.55-86.576 113.96 0 167.73 31.41 233.55 86.576-15.725 62.67-10.094 110.63.97 148.3h-469.42" fill="#89c5e3"/>
<path d="M235.5 341.84l-5.22 56.66c-.05.007-.105-.008-.156 0l-20.12-56.16 9.687 59.312c-.07.033-.14.06-.21.094l-22.47-29.65 13.5 35.25-16.5-11.5 10.03 18.812c-.09.13-.19.245-.28.375l-11.75-1.438 7.28 10.22a38.86 38.86 0 0 0-2.28 13.17c0 .213.06.41.07.624h77.62c.01-.22.07-.42.07-.63 0-4.64-.79-9.1-2.28-13.22l15.29-14.67-19.25 6.72c-.15-.24-.31-.48-.47-.72 2.96-3.64 31.91-39.25 30.72-39.25-1.23 0-36.6 30.34-37.84 31.4l-.19-.16 27.78-61.5-38.44 55.19c-.13-.05-.25-.11-.37-.16l11.32-58.28-20.25 56-5.25-56.5z" fill="#fcdd09"/>
<path stroke="#000" d="M181.82 433.08c-6.212 20.774-13.975 38.467-20.77 53.576-17.667 39.81-21.355 132.4 43.875 197.85 96.873 96.863 170.65 57.85 207.73 110.63h7.57c37.08-52.78 110.85-13.767 207.73-110.63 65.23-65.454 61.735-158.04 43.873-197.85-6.6-14.96-14.562-32.8-20.774-53.576h-469.42" fill="#0f47af"/>
<path d="M323.62 343.97c-1.122-5.432-13.795-4.388-12.875-13.125-8.43-1.344-6.858-16.406 8.875-15.375 1.657-2.99 20.674-9.835 18.375-.375 9.544-8.316 16.457-.702 11.125 3 3.682 3.687 5.54 12.114-5.75 11.375 4.32 7.685-5.712 7.4-12.375 5.25.164 2.91-.332 5.217-4.125 4.5-2.394 1.618-.582 3.704-.25 5.625l-3-.875zm174.6 5.93c.107-6.855-12.81-4.763-12.33-12.57-7.012-1.075-5.993-15.596 8.5-14.724-.808-4.194 19.513-9.577 17.596-.36 7.08-7.505 14.066-.49 9.78 2.874 3.526 3.53 7.806 9.6-4.632 10.894 5.013 4.86-5.47 7.085-11.85 5.028.156 2.788-1.694 3.746-5.327 3.06-2.292 1.55.818 4.796 1.136 6.636l-2.873-.838zm100.68 23.69c1.202-5.19-10.656-4.73-10.35-10.643-5.386-.814-4.604-11.81 6.53-11.15-.62-3.175 13.87-8.5 12.897-.77 5.44-5.684 11.432.128 8.14 2.674 2.708 2.68 5.997 7.27-3.56 8.25 3.852 3.68-4.203 5.37-9.105 3.81.12 2.11-.55 2.46-3.342 1.94-1.762 1.18 2.128 4.01 2.372 5.4l-3.582.49z" fill="#fff"/>
<path stroke="#000" d="M-308.88 472.49c2.912-15.158 15.337-29.124 16.7-40.952 1.162-10.685 3.3-15.158 9.51-26.39 6.214-11.282 8.734-16.5 10.095-24.303 1.94-10.09 9.513-12.226 13.006-1.938 3.3 10.288 9.9 36.13 13.4 42.145 3.3 6.013 6.8 14.363 6.22 18.438-.58 4.075 4.47 5.616 7.38 8.548 2.92 2.733 3.3 12.226 11.85 20.377 8.54 8.15 18.05 13.965 26.02 18.04 7.18 16.153 12.04 40.605 10.87 68.536h-533.29c-.19-7.35 0-14.56.39-21.52 47.37-12.22 65.04-43.48 85.03-41.35 10.87-15.15 24.07-31.46 33.2-39.8 10.87-9.89 32.22-49.3 37.66-73.4 5.44-23.85 13.4-36.68 19.41-35.33 6.02 1.4 8.54 2.54 15.73 24.11 9.91 29.67 16.7 33.2 24.27 54.52 6.6 18.49 20.39 51.64 41.55 68.94 13.2-9.89 28.35-20.97 33.2-28.72 4.08-6.81 10.3-17.29 17.67-22.31 3.3-9.89 7.57-27.58 11.07-31.86 3.3-3.88 4.66-7.75 5.05-14.56.2-6.81 5.44-21.17 12.62-33.2 7.19-11.83 16.7-15.7 20.97 0 4.08 15.76 13.59 48.76 22.52 69.33 3.69 8.55 10.49 25.4 25.43 43.09l1.61 1.91c.3-.53.61-.92.91-2.3z" fill="#509164" transform="matrix(1.002 0 0 1 867.91 0)"/>
<path d="M497.15 528.38c-9.92-9.542-25.676-7.405-33.65-14.96-7.783-7.354-20.233-2.335-47.08-15.903-3.306-1.74-6.612-3.876-9.92-6.41-21.203-17.296-35.012-50.495-41.625-68.934-7.395-21.172-14.397-24.65-24.317-54.57-5.253-15.904-8.172-20.774-11.672-22.514 9.143 9.94 4.283 25.44 11.672 42.14 2.92 6.61-1.947 6.61-3.5 4.47-1.36-2.14-5.837-3.13-7.978-2.93 3.894 3.33 4.477 11.68 8.366 20.37 3.695 8.74-2.918 7.8 5.06 20.23 2.136 3.47 2.918 8.69-.195 10.83-3.3 1.93-5.64-6.02-10.5-3.28 1.37 3.13 7 8.74 10.7 12.02 3.7 3.33.2 5.07-2.72 3.53-3.11-1.59-7.2-3.14-9.33-4.88 0 2.53 3.12 5.42 7.39 9.29 4.48 3.73 1.56 6.41-8.75 6.41 1.56 2.34.98 8.15-3.69 8.95 6.42.39 11.29 12.22 19.26 13.02 7.79.54 8.56 6.01.98 7.35-7.59 1.34-22.95-10.89-30.54-18.84-1.95 2.73-6.03 3.87-8.95 2.33-.19 3.67.97 12.62 4.47 18.43-3.69-1.54-8.55-6.41-13.42-12.42-4.66-5.62-7.78 2.73-3.69 7.75 4.08 5.07 6.81 9.14.19 13.02-6.42 3.67-10.5 2.33-15.37-4.48-6.8 5.66-9.53 6.01-14.78 5.07 0 3.28-5.64 11.08-8.17 16.9-5.64 11.23 250.16 34.54 242.97 7.35" fill="#034418"/>
<path d="M681.137 530.1c-67.307-5.864-104.458-31.857-125.47-56.707-14.98-17.494-21.787-34.54-25.482-43.09-8.95-20.574-18.48-53.575-22.564-69.33-1.36-5.217-3.3-8.348-5.64-9.49-3.5-1.74-1.75 4.273.78 7.354 2.73 2.932 2.53 5.666-.97 3.53-3.5-1.94-5.25 1.937-1.94 6.758 3.12 4.67 7.98 10.14 8.95 15.357.98 5.07 1.37 9.492 3.89 12.027 2.34 2.53-6.42 3.13-10.11-2.89-.19 3.87.98 9.49 3.5 8.89 2.34-.4 3.11 1.74-.19 7.6-3.3 5.61-2.91 7.55-1.74 10.09 1.75 3.87 6.23-11.48 8.95-2.74 1.36 4.07 3.7 9.14 5.83 12.42 2.14 3.13 1.95 5.07-1.16 5.07s-5.83-7.81-6.22-1.2c-.2 6.41 4.86 8.55 10.11 8.15 5.06-.2 5.84 1.74 5.06 4.47-.58 2.73 1.55 5.42 4.47 4.87 2.73-.79 7.01 1.74 9.34 8.35 2.34 6.61-1.55 9.49-7.19 4.82-5.64-4.82-13.81-9.09-14.59-12.62-.58-3.08-2.92 1.39-.39 5.66 2.34 4.27 3.7 6.21 6.81 7.95 3.12 1.54-.19 7.95-5.44 3.87-5.06-3.88-7.39-2.93-8.95 1.54-2.53 7.21-10.11 5.47-7.78 9.34 2.34 3.87 1.37 10.09-2.14 11.63-3.7 1.54-7.98-.75-7.59-7.56-.97 1.34-4.66 1.94-7.58 1.14-.39 9.54-3.11 12.82-8.95 10.28-.19 2.14-.39 5.81-3.3 8.55 6.42-.95 7.78 3.48 8.36 6.21.39 2.73 1.36 2.34 5.06 2.73 3.5.19 7.98 4.82 1.36 3.67-6.62-.95-16.92 1.34-22.95-3.08 6.22 5.61 23.93 5.81 31.32 12.97 53.89 22.16 148.82 29.92 186.36 19.63.19-4.48-.39-14.76-.78-18.04" fill="#034418"/>
<path d="M602.99 372.77c1.555.745 3.114 2.883 4.473 6.212 3.307 10.288 9.92 36.082 13.426 42.095 3.3 6.014 6.8 14.363 6.22 18.438-.59 4.076 4.47 5.666 7.39 8.55 2.92 2.732 3.3 12.225 11.86 20.376 8.56 8.15 18.09 14.02 26.06 18.09 4.86 10.84 8.56 25.4 10.11 42.5-22.96-1.74-51.75-8.55-66.14-14.96.58-2.13.58-4.82-.2-8.89-.97-4.07-.19-7.2 4.08-11.08 4.28-3.87 2.92-10.48.59-14.16-2.34-3.48-2.15-5.61-.2-7.75 1.75-1.94 1.75-5.47-2.33-9.34-4.29-3.87-1.37-7.95.97-11.43 2.33-3.53 5.83-9.54 3.3-17.29-2.53-7.55-6.42 1.74-9.53-1.14-1.95-1.98-3.12-5.66-.97-8.74 2.13-2.93.77-8.55-1.76-12.82 5.64-1.54-3.89-18.04-5.45-25.05-1.56-7.01 1.75-10.49-1.94-13.22" fill="#034418"/>
<path d="M358.243 435.81c0 3.678-.97 8.946-1.947 10.685 2.335 3.678 5.448 11.232 5.06 13.568 3.112-2.882 9.142-.596 10.502 7.405 1.365 8.15 2.724 15.705 1.947 20.178 2.724 2.336 8.56 6.41 9.532 10.884.97 4.274 3.89 3.678 6.807 3.28 9.143-1.342 8.366 9.692 17.898 8.15 13.42-1.937 5.06 8.748 18.48 8.35 7.778-.397 18.48 1.143 23.927 8.747 6.02-8.15 11.28-5.07 16.72-2.932 5.45 1.938 12.25 1.392 6.22-2.882-6.23-4.473-18.48-5.07-23.93-3.728-5.45 1.392-13.62.398-19.26-4.622-5.45-5.07-14.98-9.343-20.82-9.542-5.84-.19-7.2-.54-11.67-7.15-4.29-6.41-11.29-5.66-14.79-6.01-3.31-.2-5.84-4.47-1.95-8.55 5.64-6.01-2.34-6.81.58-10.48 2.91-3.67 1.36-8.55-6.42-9.14-7.78-.59-4.86-3.08-3.7-8.54 2.72-12.97-14.79-10.83-13.42-17.04m305.6 69.28c.78-7.95-5.25-11.23-6.61-17.29-1.17-6.01-10.7-6.21-13.23-4.42.97 1.74 0 4.82-1.17 6.56-1.17 1.59-1.17 2.54 1.17 3.33 2.52.6 4.66 1.15 4.86 3.28.19 1.94 1.36.2 2.33-2.33.77-2.48 7.58 3.13 8.36 8.15.58 5.07 3.3 8.55 4.08 2.54m-31.32-8.35c1.16 2.94 5.45 7.01 7.78 7.01s5.83 1.74 6.42 4.47c.39 2.34 2.33 5.62 4.86 6.02 2.53.4 1.16 2.34-1.95 2.14-3.31-.2-8.36-2.13-8.75-4.47 1.16 4.87-.4 7.01-3.51 3.48-2.92-3.28-4.47-7.95-8.36-8.55 2.92-.55 3.31-1.34 1.94-4.27-1.16-2.88-.19-10.63 1.56-5.81" fill="#509164"/>
<path stroke="#000" d="M-716.69 545.89c6.382-3.13 16.23-1.938 19.904 1.342 1.93-3.678 5.025-6.41 10.828-5.417 4.644-5.07 8.51-7.604 11.22-5.07 2.708-5.02 11.8-6.212 14.894-3.08 3.288-5.07 9.863-7.406 14.31-4.673 5.802-7.604 16.05-10.288 22.24-6.41 5.417-4.076 11.606-3.28 14.314-.597 2.708 2.535 8.51-2.684 10.833 2.137 4.06-.944 11.794-1.143 13.344 3.13.965-2.335 4.446-3.726 6.382-1.937 0-8.946 6.38-15.755 15.28-13.618 4.25-6.412 11.6-9.095 15.08-6.81 3.67-3.677 11.21-1.142 14.5 3.33 7.16-.198 10.64 3.082 14.31 9.493 3.67 6.41 14.31 10.288 21.08 7.405 6.77-2.534 12.96-3.33 15.28-.198 4.06-3.678 8.51-2.734 11.21-.2 4.64 4.076 9.09-3.13 11.8-.397 4.25 4.473 8.12-4.075 15.66.398 7.35 4.473 21.85 11.232 33.07 11.232s20.11-13.767 27.27-4.076c7.15-4.82 17.99-7.156 25.53-3.08 4.45-4.076 14.7-5.418 18.76-1.542 4.06-6.212 11.8-9.94 18.37-7.802 3.67-6.362 18.37-7.356 22.82 1.59 3.68 0 9.48 3.28 9.48 7.356 3.68 0 9.48 2.335 9.48 6.61 4.06-.994 9.08 1.54 9.86 6.41 8.12-.596 14.7 2.734 18.37 9.493 2.71-2.34 1.16-8.35 7.34-9.5 6.19-1 8.12.94 9.86 3.08 6.77-5.02 16.25-4.42 24.17 2.73 5.8-2.34 11.22-1.34 12.95 1.54 2.51-2.34 6.57-2.88 10.64-2.88.19 13.17-.97 27.53-3.87 42.29h-523.75c-2.71-14.37-3.87-28.73-3.68-41.95" fill="#078930" transform="matrix(1.002 0 0 1 867.91 0)"/>
<path d="M416.28 245.04l-5.243 16.898H393.18l14.557 10.486-5.437 16.898 14.174-10.487 14.368 10.487-5.437-16.898 14.363-10.09h-17.663l-5.438-16.897m-67.947 5.223l-2.525 17.494-17.47 2.733 15.92 7.952-2.718 17.44 12.425-12.63 15.725 8-8.156-15.76 12.62-12.43-17.47 2.73-8.15-15.76m-66.2 16.7l.2 17.69-16.89 5.61 17.09 5.26v17.64l10.1-14.56 16.9 5.27-10.68-14.22 10.3-14.36-16.89 5.66-10.67-14.21m-61.74 27.18l3.11 17.49-15.72 8.35 17.67 2.33 2.91 17.44 7.58-15.91 17.47 2.33-12.81-12.43 7.75-15.74-15.72 8.35-12.81-12.23m264.41-43.47l2.52 17.49 17.47 2.73-15.92 7.95 2.72 17.44-12.42-12.62-15.72 8 8.15-15.76-12.42-12.42 17.48 2.74 8.16-15.76m66.01 16.7l-.19 17.69 16.89 5.62-17.08 5.26v17.64l-10.09-14.56-16.89 5.26 10.68-14.21-10.29-14.36 16.7 5.67 10.67-14.22m61.94 27.18l-3.11 17.5 15.73 8.35-17.67 2.34-2.91 17.44-7.57-15.91-17.47 2.33 12.82-12.43-7.77-15.76 15.72 8.35 12.81-12.23" fill="#fff"/>
<g id="c" stroke-linejoin="round" stroke="#000" stroke-linecap="round">
<g fill="#704d25">
<path d="M387.186 672.52l1.938-129.86c0-6.212 1.168-7.206 1.362-.398l.388 131.65m40.182-1.192l1.938-129.66c0-6.212 1.168-7.405 1.362-.2l.388 131.4m37.852 5.67l1.943-129.91c0-6.212 1.16-7.157 1.35-.15l.39 131.4"/>
<path d="M487.546 694.84c-4.468 0-10.094-2.087-11.65-5.616-3.3 3.13-17.08 4.87-22.518.2-3.688 3.13-15.143 5.267-20.968 1.54-4.657 4.075-18.443 3.727-25.625-.547-2.913 3.08-11.262 5.417-15.725 5.815-6.406-9.145-23.687-23.706-34.556-29.124-12.23-6.014-36.693-17.693-49.7-23.31-7.573-3.28-14.56-8.945-.193-2.733 15.34 6.61 40 16.5 56.69 23.905 23.88 10.487 119.2 8.946 134.92 7.555 8.16-.547 19.03-6.76 26.6-11.43 5.83-3.53 6.02-1.393.39 1.54-6.21 3.28-13 5.814-17.86 12.623-6.6 9.145-15.72 13.22-19.22 19.234l-.58.348z"/>
</g>
<g fill="#fff">
<path d="M390.676 542.46c4.463-3.877 14.75 4.87 21.157 1.193-3.882 12.574-19.412 2.684-21.157 7.355v-8.548m44.07.4c4.463-3.877 14.756 4.87 21.162 1.143-4.08 12.624-19.417 2.733-21.162 7.405v-8.548m41.35 7.16c4.468-3.877 14.756 4.87 21.162.994-4.075 12.624-19.412 2.733-21.162 7.355v-8.5.15zm20.38 22.16l-30.868-3.33c-5.437 9.145-6.213 20.575-3.3 28.577 9.9-9.343 27.762-4.473 36.693.348-2.91-8.15-7.38-19.184-2.33-25.396l-.19-.2z"/>
<path d="M498.806 597.58c-9.12.2-30.863-.348-37.662-.348-7.376 9.493-3.3 23.856-1.55 29.322 8.15-13.02 33.973-6.063 43.873 3.28-5.05-9.542-8.93-17.693-4.463-32.404l-.2.15z"/>
<path d="M503.276 630.23c-8.93-1.59-37.662-3.53-43.487-5.07-4.67 9.692-8.55 22.316-10.49 34.393 13.97-15.357 46.4-4.076 53.19 10.834-6.8-12.822-13.6-32.205.97-40.157h-.2zm-38.44-67.39l-40.773-5.417c-5.82 6.81-10.094 18.836-9.513 32.8 8.544-8.15 39.8-4.87 47.76 6.81-2.717-12.624-6.21-28.527 2.72-34.392l-.194.2z"/>
<path d="M461.726 598.18l-45.236-6.014c-7.182 9.145-6.794 22.116-5.05 35.932 10.293-8.548 43.874-3.876 51.836 7.555-4.85-16.7-8.93-26.59-1.356-37.473h-.194zm1.36 37.47l-46.01-4.672c-7.183 8.946-12.038 18.09-10.483 31.46 7.18-11.828 37.662-3.28 50.668 9.89-7.76-10.288-8.54-25.048 5.83-36.678zm-74.94-72.81c-5.05 3.877-12.812 17.295-13.98 20.973 8.543-3.48 26.6-4.473 37.86 3.877-3.3-6.412-4.467-17.644-1.555-22.316-4.46-1.938-16.3-2.932-22.13-2.335l-.19-.2z"/>
<path d="M369.316 590.02c11.843-.2 36.106 2.733 46.593 5.616-6.22 9.343-5.44 25.247-2.92 35.137-16.11-15.904-42.71-15.506-58.44-10.834 2.91-7.21 10.09-22.17 14.56-30.12l.19.2zm46.98 44.29c-11.456.398-40.768-4.672-54.167-11.282-4.66 12.624-6.8 33.597-7.19 41.15 13-17.443 44.85-7.752 54.94 10.09-.97-9.493-4.47-32.8 6.4-40.157v.2z"/>
<path d="M388.146 562.84c-32.23 19.432-56.687 58.645-65.812 85.83 9.125-.2 20.575 2.733 24.656 10.884 9.512-39.063 22.906-75.145 41.156-96.913v.2z"/>
</g>
<path d="M389.116 544c-26.4 26.59-63.868 74.002-77.46 99.796m184.82-71.616c7.18 34.938 8.93 81.904 6.018 99.2" fill="none"/>
<g stroke="none">
<path d="M534.686 635.28c-8.185 4.083-23.7-7.338-31.024-2.152v-4.524c7.11-4.966 22.624 6.455 31.024 2.152v4.745-.22z" fill="#002b7f"/>
<path d="M534.686 640.02c-8.185 4.083-23.7-7.338-31.024-2.373v-4.745c7.11-4.966 22.624 6.456 31.024 2.152v4.745" fill="#fff"/>
<path d="M534.686 644.77c-8.185 4.304-23.7-7.118-31.024-2.152v-4.745c7.11-4.966 22.624 6.456 31.024 2.373v4.524" fill="#ce1126"/>
<path d="M534.686 649.51c-8.185 4.304-23.7-7.118-31.024-2.152v-4.745c7.11-4.745 22.624 6.456 31.024 2.152v4.745" fill="#fff"/>
<path d="M534.686 654.04c-8.185 4.304-23.7-7.118-31.024-2.152v-4.745c7.11-4.966 22.624 6.456 31.024 2.152v4.745z" fill="#002b7f"/>
</g>
</g>
<use stroke-width="1.832" xlink:href="#c" transform="translate(266.14 201.49) scale(.35485)"/>
<path stroke="#000" stroke-width="3" d="M650.12 284.78c-24.656 97.46 2.912 159.19 21.937 201.88 17.862 39.81 21.356 132.4-43.874 197.85-96.873 96.863-170.65 57.85-207.73 110.63m-7.953.19c-37.08-52.78-110.85-13.76-207.73-110.63-65.23-65.45-61.73-158.04-43.87-197.85 19.02-42.49 46.59-104.22 21.94-201.88" fill="none"/>
<g stroke-linejoin="round" stroke="#000" stroke-width="3" stroke-linecap="round" fill="none">
<path d="M427.55 39.787c1.357 6.308 3.106 23.32-6.212 25.758 17.082 21.075 41.737 24.086 85.03 24.086 27.18 0 49.118-.19 65.23 0 0 5.4-1.75 11.19-1.75 17.93 0 6.5 6.8 9.51 16.7 7.27 9.9-2.24 31.06-8.6 42.512 1.48 19.224 17.21 54.555 20.17 64.067 31.02-2.912-13.09-15.337-26.33-29.12-37.37 13.007-1.86 29.895-.52 35.72 3.92-14.76-16-41.55-16.38-55.14-24.22-13.59-7.83-26.6-14.76-36.69-17.39 0-4.44-.586-8.03-4.468-10.61-8.55-5.97-25.24-8.02-38.83-8.79 1.94-2.05 2.32-4.49 2.32-8.22v-21.1c0-7.31.78-9.17-7.57-14.38-32.23-19.78-71.44-33.98-142.88-33.98-71.25 0-110.47 14-142.88 33.98-8.55 5.21-7.57 7.08-7.57 14.39v21.07c0 3.72.19 6.16 2.32 8.22-13.59.57-30.09 2.62-38.83 8.79-3.69 2.58-4.47 5.97-4.47 10.61-9.9 2.43-22.91 9.36-36.69 17.39-13.6 7.84-40.38 8.22-55.14 24.23 5.63-4.45 22.52-5.98 35.52-3.92-13.59 10.85-26.01 24.08-29.12 37.37 9.51-10.85 44.84-13.81 64.26-31.02 11.25-10.09 32.42-3.92 42.51-1.48 9.9 2.24 16.7-.58 16.7-7.27 0-6.73-1.75-12.52-1.75-17.92 15.92-.38 37.85 0 65.23 0 43.1 0 67.75-3.01 85.03-24.08-9.51-2.43-7.77-19.26-6.21-25.76-20.19-4.49-30.29-12.14-46.6-12.14-16.11 0-19.03 8.55-19.03 11.76v2.63c-12.81 0-30.87-3.2-35.33-11.61 24.85-10.08 61.73-19.21 112.4-19.21 50.67 0 87.55 9.13 112.4 19.21-4.47 8.41-22.52 11.61-35.33 11.61V39.4c0-3.01-2.72-11.756-19.03-11.756s-26.4 7.46-46.59 12.14h-.78z" fill="#89c5e3"/>
<path d="M260.98 89.965c-12.62.19-21.55.956-26.405 2.437-7.763 2.438-8.538 6.547-3.494 8.793m108.13-59.02v9.75c0 6.308 6.8 14.528 17.28 14.528 25.82 0 30.87-4.444 50.09-3.92"/>
<path d="M406.38 62.01c-17.86-3.012-32.03-12.522-47.76-12.522-15.53 0-18.83 7.073-16.112 10.466M224.48 72.81v19.21c0 5.257 3.688 12.52 17.668 9.75 12.23-2.247 20.188.525 20.188 5.78"/>
<path d="M267.96 53.215c2.912 2.963 9.32 5.59 23.493 10.657 26.012 9.51 85.805 16.01 124.64-.956M528.88 30.42c5.05 2.055 9.706 4.11 13.787 6.165 24.263 12.138 26.012 14.958 17.47 19.594m11.653 33.78c12.62.19 21.55.95 26.405 2.43 7.763 2.44 8.538 6.54 3.494 8.79M493.36 42.17v9.75c0 6.308-6.798 14.528-17.28 14.528-25.82 0-30.87-4.443-50.09-3.92"/>
<path d="M426.18 62.01c17.87-3.012 32.04-12.522 47.77-12.522 15.526 0 18.83 7.073 15.92 10.466M608.09 72.81v19.21c0 5.257-3.688 12.52-17.668 9.75-12.23-2.247-20.193.525-20.193 5.78"/>
<path d="M564.61 53.215c-2.912 2.963-9.32 5.59-23.493 10.657-26.012 9.51-85.805 16.01-124.64-.956"/>
<path d="M416.28 66.453c11.843 0 12.23-8.937 12.23-17.156 0-8.03-.387-17.013-12.23-17.013s-12.23 8.984-12.23 17.013.387 17.156 12.23 17.156z" fill="#89c5e3"/>
<path d="M304.55 30.437c-5.17 2.052-9.936 4.105-14.113 6.157-24.843 12.123-26.628 14.94-17.883 19.568"/>
</g>
<path d="M307.37 23.484l-3.877 1.752-3.752-4.193-7.04 3.185.76 5.547-3.79 1.712-2.85-24.632 3.78-1.705zm-10.413-5.55l-6.033-6.893 1.217 9.07zm12.357 4.954l-7.4-22.433 5.556-1.833 8.383 14.203-1.742-16.393 5.57-1.837 7.4 22.433-3.44 1.136-5.82-17.66 2.17 18.867-3.58 1.19-9.45-16.46 5.83 17.66zm21.566-6.83l-5.652-22.936 13.956-3.44.956 3.88-10.17 2.507 1.253 5.08 9.45-2.33.952 3.86-9.45 2.32 1.538 6.24 10.514-2.59.952 3.86zm17.555-4.208l-4.196-23.246 8.1-1.462c2.07-.374 3.59-.433 4.55-.175.96.257 1.82.85 2.58 1.777.75.928 1.26 2.11 1.52 3.548.32 1.82.15 3.36-.52 4.63-.67 1.266-1.79 2.188-3.34 2.763.93.443 1.73.968 2.39 1.573.66.606 1.62 1.734 2.88 3.385l3.13 4.117-4.59.827-3.71-4.555c-1.34-1.647-2.23-2.67-2.67-3.064-.45-.395-.88-.643-1.32-.745-.44-.102-1.1-.073-1.99.088l-.79.15 1.75 9.71zm1.416-14.107l2.86-.515c1.75-.315 2.84-.592 3.29-.83.45-.24.78-.62.99-1.138.21-.518.25-1.163.11-1.935-.13-.74-.39-1.308-.76-1.704a2.3 2.3 0 0 0-1.37-.71c-.38-.05-1.43.08-3.15.39l-3.01.55zm17.72 10.87l-3.21-23.403 3.87-.53 3.21 23.404zm19.1-10.908l3.91 1.1c-.33 2.685-1.13 4.7-2.38 6.046s-2.88 2.12-4.88 2.31c-2.52.24-4.65-.53-6.39-2.31-2.01-2.06-3.2-4.99-3.57-8.79-.38-4.01.22-7.23 1.81-9.67 1.39-2.12 3.4-3.3 6.05-3.56 2.16-.2 4.04.36 5.64 1.7 1.14.95 2.05 2.43 2.73 4.45l-3.74 1.49c-.36-1.24-.95-2.17-1.74-2.78a3.702 3.702 0 0 0-2.69-.77c-1.42.14-2.52.87-3.3 2.2-.78 1.33-1.03 3.42-.75 6.27.29 2.97.93 5.03 1.92 6.2s2.2 1.68 3.6 1.55c1.03-.1 1.88-.58 2.55-1.45.68-.87 1.09-2.19 1.26-3.95zm25.39 7.385l-4.25.17-1.9-5.3-7.73.31-1.38 5.42-4.15.165 6.6-23.905 4.14-.165zm-7.57-9.05l-3-8.66-2.27 8.87zm29.88.83l3.74 1.59c-.68 2.62-1.72 4.52-3.14 5.69-1.41 1.17-3.12 1.72-5.13 1.65-2.52-.09-4.53-1.13-6.03-3.12-1.72-2.31-2.52-5.368-2.4-9.18.14-4.025 1.15-7.146 3.04-9.36 1.65-1.923 3.8-2.84 6.47-2.75 2.17.074 3.96.876 5.37 2.407 1 1.09 1.71 2.677 2.13 4.765l-3.91.997c-.2-1.29-.66-2.28-1.37-2.99a3.702 3.702 0 0 0-2.56-1.11c-1.43-.05-2.61.53-3.56 1.75-.94 1.21-1.46 3.25-1.56 6.12-.1 2.97.27 5.1 1.11 6.39.84 1.28 1.96 1.95 3.37 2 1.03.03 1.94-.34 2.72-1.11.78-.78 1.36-2.03 1.76-3.76zm6.84 9.04l2.04-23.54 14.32 1.24-.34 3.98-10.43-.91-.45 5.217 9.7.84-.34 3.966-9.69-.84-.55 6.404 10.79.94-.34 3.964zm18.01 1.64l3.34-23.39 3.77.54 5.62 16.74 2.24-15.62 3.61.514-3.35 23.386-3.89-.56L465-7.188l-2.18 15.25zm23.54 3.76l3.87-19.25-5.64-1.13.79-3.92 15.09 3.03-.78 3.92-5.62-1.13-3.86 19.243zm11.97 2.46l6.03-22.83 7.96 2.103c2.04.537 3.44 1.127 4.2 1.767.77.64 1.3 1.55 1.59 2.71.3 1.163.26 2.45-.12 3.86-.47 1.788-1.28 3.113-2.42 3.977-1.14.865-2.54 1.23-4.19 1.09.66.798 1.16 1.61 1.51 2.44.34.83.74 2.26 1.18 4.29l1.09 5.057-4.5-1.19-1.43-5.695c-.51-2.06-.89-3.36-1.13-3.91-.22-.55-.52-.96-.87-1.23-.35-.28-.96-.53-1.83-.76l-.78-.21-2.52 9.53zm7.26-12.18l2.81.74c1.71.455 2.83.667 3.33.64.51-.027.97-.23 1.38-.61.41-.38.72-.95.92-1.71.19-.725.2-1.347.02-1.866a2.3 2.3 0 0 0-.94-1.224c-.32-.206-1.33-.533-3.02-.98l-2.96-.783zm28.11 22.96l-4.02-1.38.14-5.626-7.31-2.51-3.25 4.556-3.93-1.35 14.8-19.89 3.91 1.35zm-3.77-11.18l.33-9.152-5.33 7.435zm5.77 12.05l9.4-21.45 3.57 1.565-7.8 17.81 8.92 3.906-1.59 3.65z"/>
<g id="d" stroke="#000" stroke-width="3" fill="#078930">
<path d="M387.94 192.56c16.306-10.486 36.5-28.13 43.874-39.81 10.094-16.3 11.456-8.348 19.22-9.69-18.25 19.98-40.963 41.35-57.075 52.63l-6.02-3.13m-136.48 39.21c-40.77-23.11-56.3.994-65.82 2.137 11.25 2.734 20.77 20.774 65.81-2.137z"/>
<path d="M269.71 218.4c-38.83-26.24-56.105-3.33-65.816-2.733 11.068 3.48 19.224 22.315 65.816 2.733z"/>
<path d="M297.47 202.84c-38.248-26.987-56.105-4.473-65.816-4.075 11.068 3.876 18.637 22.514 65.816 4.075z"/>
<path d="M320.38 189.08c-35.137-31.062-55.33-10.486-64.842-11.282 10.482 5.07 16.112 24.452 64.842 11.282z"/>
<path d="M349.69 178.99c-33.582-32.85-54.744-13.22-64.256-14.562 10.288 5.417 14.95 25.396 64.256 14.562z"/>
<path d="M380.37 175.66c-27.762-37.672-51.83-21.917-61.15-24.65 9.125 7.205 10.482 27.383 61.15 24.65z"/>
<path d="M385.42 177.2c-1.362-8.498-17.28-19.383-18.637-23.458 4.075-.398 4.657-5.268 2.912-7.008-1.36-1.342-4.66-.596-6.406 1.193-1.75 2.137-3.5 7.157 2.13 11.43 5.82 4.275 13.2 12.028 15.53 17.843"/>
<path d="M214.38 234.5c11.063-3.33 25.043-1.74 34.75-2.733M232.44 218.2c11.45-2.535 25.043 0 34.943 0m-7.183-16.35c11.45-2.087 25.043.596 34.943.596M283.49 184.01c11.65-.944 24.85 3.33 34.556 4.473M313 171.98c11.644-.398 24.656 4.473 34.362 6.212m-1.942-15.162c11.65 1.193 23.686 8.548 32.81 11.48" stroke-linejoin="round" stroke-linecap="round"/>
</g>
<use xlink:href="#d" transform="matrix(-1 0 0 1 832.76 0)"/>
<g stroke-linejoin="round" stroke="#000" stroke-width="3" stroke-linecap="round" fill="#fff">
<path d="M416.49 190.46c9.125 0 16.888 0 22.52-.745v-13.02c0-4.276 15.142-9.345 38.05-4.872 89.69 17.494 101.92 58.05 170.07 81.357.774.2 3.3.994 6.21 1.54 1.75-4.075 3.69-8.15 5.826-13.17 1.163-3.727 11.068-3.528 19.8.547 10.1 4.87 14.562 10.487 12.817 13.42-1.75 4.274-3.5 7.753-5.05 11.23 15.92 5.667 44.844 14.215 35.332 52.434-7.376-7.15-25.237-14.95-36.3-14.95-12.62 0-26.21-4.82-21.937-18.63-2.33-1.14-6.41-3.28-8.544-3.67-.387 1.2-.97 2.34-1.555 3.48-2.92 7.21-15.54 9.74-28.15 5.47-71.06-24.25-93-77.88-176.86-78.62v2.34c0 6.76-8.74 12.97-32.23 12.97-23.3 0-32.23-6.21-32.23-12.97v-2.33c-83.68.55-105.81 54.17-176.86 78.63-12.43 4.28-25.05 1.54-28.15-5.47-.4-1.14-.98-2.29-1.56-3.48-2.14.4-6.21 2.54-8.55 3.68 4.08 13.62-9.13 18.64-21.94 18.64-11.06 0-28.73 7.8-36.3 14.96-9.51-38.02 19.02-46.57 35.33-52.43-1.56-3.48-3.11-6.96-5.05-11.23-1.55-2.93 2.72-8.55 12.81-13.42 8.74-4.27 18.44-4.47 19.8-.55 2.14 4.82 3.88 8.9 5.82 13.17 2.91-.55 5.24-1.34 6.21-1.54 67.95-23.31 80.37-63.86 170.06-81.36 22.71-4.47 38.05.6 38.05 4.87v13.02c5.63.55 13.39.75 22.52.75z"/>
<path d="M393.78 189.71c-6.02-.596-9.512-1.938-9.512-4.274 0-5.815 9.512-3.877 9.512-8.747m-228.51 76.89c3.494 8.35 7.962 19.03 12.037 28.13m-20.577-23.86c3.494 8.15 10.1 22.11 12.037 27.93"/>
<path d="M140.62 255.71c2.33 4.075 14.562-1.938 16.112 1.938 1.362 4.076-2.326 6.213-10.87 9.294m27.568-25.392c1.744 5.218-10.487 7.356-7.962 12.027 1.556 3.08 8.35 2.137 13.786.944" fill="none"/>
<path d="M384.06 185.24v26.987m55.14-22.517c5.825-.596 9.512-1.938 9.512-4.274 0-5.815-9.512-3.877-9.512-8.747m228.5 76.89c-3.494 8.35-7.962 19.03-12.037 28.13m20.577-23.86c-3.5 8.15-10.1 22.11-12.037 27.93"/>
<path d="M692.36 255.71c-2.33 4.075-14.562-1.938-16.112 1.938-1.362 4.076 2.326 6.213 10.87 9.294M659.55 241.55c-1.744 5.218 10.487 7.356 7.962 12.027-1.556 3.08-8.35 2.137-13.787.944" fill="none"/>
<path d="M448.91 185.24v26.987"/>
</g>
<path d="M203.96 281.77l-7.523-26.884 9.37-2.622c2.397-.67 4.177-.908 5.34-.713 1.16.2 2.24.8 3.232 1.81s1.72 2.34 2.18 4.01c.59 2.11.56 3.94-.09 5.51-.65 1.57-1.86 2.78-3.63 3.63 1.14.42 2.14.95 2.99 1.59.85.64 2.11 1.86 3.77 3.66l4.14 4.5-5.3 1.49-4.87-4.95c-1.75-1.79-2.91-2.89-3.48-3.3-.57-.42-1.11-.66-1.63-.73-.52-.07-1.3.03-2.32.32l-.92.26 3.14 11.22zm.097-16.756l3.3-.924c2.018-.564 3.277-1.012 3.777-1.343.5-.33.847-.814 1.04-1.448.19-.64.162-1.4-.088-2.29-.24-.86-.603-1.5-1.09-1.92a2.718 2.718 0 0 0-1.695-.69c-.45-.02-1.67.25-3.66.81l-3.48.97zm24.613 9.536l-12.392-25.016 15.22-7.54 2.097 4.232-11.092 5.494 2.748 5.546 10.31-5.105 2.09 4.22-10.3 5.11 3.38 6.81 11.47-5.68 2.09 4.22zm20.14-10.63l-15.128-23.463 6.242-4.024c2.326-1.5 3.92-2.368 4.778-2.605 1.376-.373 2.816-.207 4.32.5 1.506.705 2.86 1.992 4.065 3.86 1.094 1.696 1.69 3.324 1.79 4.884.1 1.56-.182 2.88-.843 3.964-.66 1.084-2.165 2.382-4.513 3.896l-2.54 1.64 5.71 8.85zm-8.695-21.99l4.292 6.657 2.145-1.383c1.44-.928 2.354-1.66 2.74-2.197.388-.537.576-1.175.566-1.917-.01-.74-.262-1.496-.757-2.264-.5-.78-1.09-1.325-1.78-1.64-.68-.312-1.33-.398-1.95-.256-.62.142-1.74.736-3.36 1.78zm10.435-12.16l3.778-2.64 8.66 12.396c1.345 1.925 2.268 3.146 2.77 3.664.87.893 1.814 1.395 2.83 1.507 1.014.11 2.036-.193 3.067-.913.874-.61 1.45-1.304 1.73-2.08.278-.775.277-1.58-.004-2.413-.28-.83-1.21-2.39-2.8-4.67l-8.84-12.66 3.8-2.65 8.4 12.02c2.15 3.07 3.53 5.41 4.16 7.01.63 1.6.67 3.22.11 4.88-.55 1.65-1.77 3.14-3.66 4.45-1.95 1.37-3.73 2.09-5.32 2.15-1.58.07-3.07-.37-4.46-1.3s-3.27-3.1-5.66-6.53zm19.27-13.94l7.703-4.957c2.103-1.353 3.705-2.112 4.806-2.278 1.1-.165 2.25.05 3.47.643 1.21.593 2.21 1.504 3 2.732.73 1.13 1.13 2.315 1.22 3.55s-.13 2.33-.65 3.284c1.4-.33 2.74-.21 4.02.355s2.37 1.55 3.28 2.96c1.1 1.71 1.61 3.41 1.55 5.12s-.57 3.06-1.51 4.06c-.66.69-2.41 1.95-5.25 3.78l-6.55 4.21zm6.39 1.413l3.493 5.43 2.562-1.65c1.538-.99 2.47-1.627 2.8-1.914.593-.54.93-1.15 1.012-1.84.08-.7-.13-1.44-.63-2.22-.447-.7-.96-1.16-1.544-1.4-.582-.24-1.124-.27-1.625-.1-.5.17-1.777.91-3.826 2.23zm6.008 9.337l4.04 6.277 3.602-2.32c1.58-1.016 2.54-1.75 2.883-2.205.342-.454.51-1.022.5-1.703-.007-.69-.252-1.4-.733-2.15-.495-.77-1.065-1.3-1.71-1.59a2.97 2.97 0 0 0-1.956-.19c-.66.16-1.822.77-3.488 1.85zm20.582.56l-12.79-24.557 4.087-2.13 10.617 20.387 10.2-5.313 2.174 4.172zm17.29-9.33l-10.795-25.746 4.25-1.782 10.795 25.746zm18.42-16.67l4.784.377c.226 3.192-.232 5.712-1.376 7.558s-2.853 3.11-5.127 3.79c-2.85.855-5.5.448-7.93-1.222-2.8-1.93-4.85-5.055-6.14-9.372-1.36-4.56-1.4-8.43-.12-11.63 1.12-2.77 3.19-4.61 6.2-5.51 2.46-.73 4.77-.51 6.92.68 1.54.84 2.93 2.35 4.18 4.54l-3.99 2.59c-.71-1.36-1.6-2.3-2.66-2.83a4.372 4.372 0 0 0-3.29-.27c-1.61.48-2.72 1.58-3.32 3.3-.6 1.72-.41 4.2.56 7.45 1.01 3.37 2.22 5.62 3.65 6.74s2.93 1.45 4.53.97c1.17-.35 2.04-1.1 2.62-2.26.58-1.16.77-2.78.56-4.87zm30.13 3.41l-4.942.924-3.13-5.866-8.986 1.68-.687 6.58-4.83.903 3.63-29.07 4.81-.9zm-10.397-9.292l-4.993-9.606-1.147 10.753zm39.057-1.318l8.208.624c2.076.157 3.624.508 4.645 1.05 1.02.545 1.934 1.4 2.74 2.567.806 1.17 1.396 2.65 1.77 4.44.372 1.8.46 4 .262 6.6-.18 2.35-.6 4.37-1.262 6.07-.663 1.7-1.44 3.02-2.333 3.97a7.852 7.852 0 0 1-3.13 2.07c-1.193.43-2.698.57-4.514.43l-8.45-.64zm4.135 4.936l-1.367 17.992 3.373.256c1.45.11 2.51.053 3.18-.17a3.8 3.8 0 0 0 1.69-1.11c.46-.52.87-1.36 1.23-2.526.36-1.165.62-2.717.77-4.656.15-2.014.14-3.612-.05-4.794-.19-1.182-.55-2.13-1.09-2.84a4.14 4.14 0 0 0-2.04-1.48c-.61-.207-1.82-.38-3.63-.517zm19.335 23.604l-1.723-27.188 16.542-1.05.29 4.6-12.06.765.38 6.027 11.2-.71.29 4.58-11.2.71.46 7.4 12.46-.79.29 4.58zm50.4-26.02l4.378 1.965c-.86 3.082-2.14 5.3-3.838 6.654-1.698 1.35-3.732 1.96-6.103 1.84-2.98-.16-5.335-1.43-7.065-3.82-1.992-2.76-2.87-6.39-2.634-10.9.25-4.76 1.516-8.42 3.8-11 1.985-2.24 4.55-3.27 7.694-3.11 2.56.13 4.658 1.12 6.29 2.96 1.165 1.31 1.968 3.2 2.41 5.67l-4.633 1.09c-.22-1.53-.74-2.71-1.56-3.57-.83-.85-1.83-1.31-3.01-1.37-1.69-.09-3.1.57-4.25 1.99-1.15 1.41-1.8 3.81-1.98 7.2-.19 3.51.2 6.03 1.16 7.57.96 1.53 2.27 2.35 3.93 2.43 1.21.06 2.29-.35 3.23-1.25.93-.9 1.65-2.36 2.15-4.4zm10.29-2.53c.794-3.23 1.926-5.772 3.396-7.627 1.47-1.854 3.1-3.104 4.893-3.748 1.79-.644 3.78-.696 5.98-.156 3.18.78 5.47 2.63 6.88 5.55 1.4 2.92 1.55 6.62.45 11.11-1.12 4.53-3.05 7.82-5.8 9.85-2.42 1.8-5.22 2.3-8.42 1.52-3.22-.79-5.48-2.53-6.8-5.22-1.5-3.08-1.69-6.84-.6-11.29zm4.668.952c-.767 3.12-.75 5.604.05 7.455.8 1.85 2.074 2.99 3.825 3.42 1.763.435 3.414.02 4.953-1.24s2.704-3.497 3.492-6.702c.773-3.144.78-5.606.023-7.388-.75-1.78-2.04-2.897-3.87-3.345-1.82-.45-3.49-.056-5.01 1.178s-2.67 3.442-3.45 6.622zm19.442 10.388l4.363 1.272c-.926 3.483-.092 5.774 2.502 6.875 1.286.546 2.44.64 3.46.28 1.022-.36 1.744-1.037 2.165-2.03.248-.584.33-1.136.247-1.654-.084-.518-.333-1.02-.747-1.506s-1.5-1.468-3.26-2.945c-1.578-1.318-2.652-2.477-3.22-3.477-.57-1-.88-2.128-.932-3.385s.176-2.487.687-3.69c.595-1.403 1.45-2.53 2.562-3.382 1.113-.85 2.352-1.325 3.717-1.422s2.87.205 4.52.904c2.476 1.052 4.125 2.545 4.946 4.48.82 1.933.74 4.168-.24 6.703l-4.355-1.58c.398-1.458.404-2.593.017-3.405-.386-.812-1.152-1.46-2.297-1.947-1.145-.48-2.13-.62-2.952-.4-.823.22-1.385.68-1.688 1.4-.297.7-.267 1.41.09 2.13.358.72 1.426 1.79 3.205 3.23 1.876 1.53 3.145 2.84 3.807 3.92.662 1.09 1.015 2.28 1.06 3.58s-.263 2.72-.917 4.26c-.947 2.23-2.43 3.82-4.448 4.76s-4.488.79-7.41-.45c-5.165-2.19-6.792-6.35-4.882-12.47zm21.51 20.02l11.3-20.255-5.937-3.312 2.3-4.124 15.883 8.86-2.3 4.12-5.92-3.31-11.3 20.25zm29.75 18.53l-4.205-2.756 1.805-6.4-7.645-5.01-5.053 4.27-4.11-2.694 22.76-18.462 4.092 2.683zm-1.064-13.904l3.05-10.386-8.274 6.962zm10.274 20.564l15.933-22.924 7.99 5.554c2.044 1.42 3.36 2.64 3.95 3.66.59 1.02.812 2.235.67 3.643-.145 1.407-.71 2.82-1.695 4.238-1.246 1.8-2.68 2.94-4.3 3.44-1.62.5-3.322.34-5.102-.48.407 1.15.636 2.26.686 3.32.05 1.07-.09 2.81-.42 5.24l-.824 6.06-4.52-3.14.716-6.9c.263-2.49.375-4.09.336-4.79-.04-.7-.198-1.27-.474-1.72-.277-.44-.853-.97-1.728-1.58l-.782-.54-6.652 9.57zm12.98-10.6l2.814 1.957c1.72 1.196 2.867 1.88 3.44 2.056.575.175 1.168.134 1.778-.12.61-.257 1.18-.766 1.71-1.527.507-.73.77-1.417.785-2.063a2.718 2.718 0 0 0-.553-1.74c-.275-.362-1.262-1.133-2.96-2.314l-2.972-2.07zm5.89 23.62l15.362-23.31 3.848 2.536-15.362 23.31zm25.3 3.49l3.024 3.726c-2.156 2.364-4.298 3.768-6.424 4.213-2.126.44-4.22.07-6.28-1.11-2.59-1.48-4.118-3.68-4.586-6.6-.535-3.36.317-7 2.555-10.91 2.36-4.14 5.14-6.84 8.34-8.11 2.78-1.1 5.53-.87 8.27.69 2.22 1.27 3.65 3.1 4.28 5.47.45 1.69.31 3.74-.41 6.15l-4.63-1.12c.49-1.46.56-2.75.21-3.88a4.372 4.372 0 0 0-2.07-2.58c-1.47-.84-3.03-.88-4.69-.14-1.66.75-3.33 2.59-5.01 5.54-1.75 3.05-2.54 5.48-2.37 7.29s.97 3.12 2.41 3.94c1.06.6 2.2.72 3.45.34 1.24-.38 2.54-1.37 3.9-2.96zm21.63 20.25l-4.71-1.762.35-6.64-8.56-3.203-3.988 5.28-4.602-1.723 18.13-23.024 4.584 1.715zm-4.102-13.327l.687-10.804-6.537 8.61z"/>
</g>
</svg>
