<svg xmlns="http://www.w3.org/2000/svg" xmlns:xlink="http://www.w3.org/1999/xlink" viewBox="0 0 1000 500">
<path fill="#0021ad" d="M0 0h1000v500H0z"/>
<path d="M0 0h1000v500z" fill="#1c8a42"/>
<circle cy="250" cx="500" r="90.32" fill="#ffc639"/>
<path d="M444.84 209.43c6.18 8.477 15.542 22.69 23.072 18.98 5.876.02 8.91.432 9.706 4.343 13.86 2.36 37.153-3.487 51.647-22.366 0 0 1.22.16.797-7.015.08-3.125 4.273-2.5 4.374-1.482.585 1.553.484 2.712 1.27 2.752 1.784-.595 4.223-4.596 6.27-7.136.554-1.12.25-2.298.382-3.71 1.08-2.65 3.77-2.076 4.335-.685.514.9.524 1.59 1.028 2.48 2.74 1.83 7.66.13 8.05.13.49-2.23 1.92-2.01 1.92-2.01 1.83-.4 1.11-.24 2.31.39-1.05 12.01 2.36 12.54 2.08 18.7.12 6.87-2.07 8.83-2.07 11.45.7 3.21 10.84 3.32 7.27 6.03-3.13 1.68.01 4.81-4.7 6.03-13.72 6.97-16.36 12.95-16.36 12.95s-3.44 6.51-3.83 6.51c-2.29 4.35-5.21 1.98-6.83 4.1-.8 2.66-1.71 8.56-.1 11.62.81 4.22-.1 6.51-1.11 10.73-.9 8.79-4.39 10.12-4.8 13.21-1.61 3.3.35 18.78-1.19 18.78-10.22.2-18.05-1.95-22.09-2.76 3.94-16.98 2.41-31.9 2.41-33.43-1.01-12.14-18.19-9.19-20.82-10.8-2.18-.47-3.55-2.24-4.31-3.01-2.43-.26-3.33-.81-5.76-1.06-1.21.6-.48 1.23-3.18 2.06-6.85.83-9.88-5.97-9.88-5.97.34-2.29-15.41.46-23.97-1.52-3.5 1.96-5.04 7.74-7.91 8.43-.08 1.79-4.73-1.47-5.66-3.24-.19-5.13 4.48-7.4 4.48-7.4 3.71-2.61 5.9-3.03 7.69-4.84.89-4.46.44-7.77 2.35-11.13 1.61-2.56 3.99-1.36 5.6-2.51 1.73-1.15 2.47-8.67.87-10.72 0 0-6.93-6.26-7.32-6.64-2.26-6.47 2.64-10.64 4.04-10.17z" fill="#1c8a42"/>
<path d="M877.93 97.555c-4.092-16.194-40.72-51.07-68.247-73.265-6.572-4.477-10.855-1.81-10 4.573 3.428 5.716 6 12 9.426 17.716.95 3.81 2.76 6.47 3.71 10.28 0 0 .28 6.57.85 7.14 8.56 9.43 9.71 17.43 9.71 17.43 4.95 9.52 9.33 16.48 18 24.29 9.71 6.1 2.57 25.05 2.85 35.15 0 6.38-4.57 5.62-8.57 4.86-31.53-28.96-62.78-29.05-90.3-37.44-10.77-1.14-10.96 4-7.43 6.85 19.24 20.58 37.33 34.58 61.15 46.29l12 7.44 13.71 11.43c10.57 6.85 11.44 13.14 11.44 13.71.28 12.86-6.58 22.86-8.58 26.86-3.61 13.64-10.86 16.01-10.86 16.01-58.88 39.72-89.74 50-185.18 37.71-1.43-.76-10.58.76 0 4.57 24.29 8.09 83.96 21.08 141.69-6.26 13.86-9.72 23.13-6.53 33.17-12.35 16.49-10.17 40.03-22.83 44.32-24.25 12.86-6.87 48.86-14.58 57.16-21.44 9.51-.77 19.39-2.02 20.05-10.2 3.12-2.03 7.7-.55 11.09-7.22 7.55-1.31 6.28-4.01 6.28-4.01-1.91-5.33-8.96-7.53-14-11.43-7.44-2.48-12.58-3.24-18.01-.57-1.72.76-3.43 1.52-5.14 2.29 0 0-8.01-1.15-8.01-1.72-17.78-.98-16.05-59.9-22.34-84.48z" fill="#ffc639"/>
<path d="M919.63 194.01a4.402 2.75 15.947 0 1-8.396-2.637 4.402 2.75 15.947 0 1 8.396 2.637z" fill="#1c8a42"/>
<g fill="#fff">
<path id="a" d="M188.16 190.94l-12.75-11.936-12.905 11.77 1.383-17.405-17.25-2.76 14.476-9.78-8.606-15.2 16.668 5.22 6.518-16.21 6.31 16.28 16.734-5.01-8.8 15.08 14.348 9.96-17.283 2.53 1.158 17.42z"/>
<path d="M233.39 335.53l-13.752-9.167-13.39 9.664 4.71-15.568-13.58-9.42 16.666-.45 4.988-15.5 5.595 15.3 16.667-.16-13.21 9.9 5.307 15.38z"/>
<use y="269.061" x="2.522" xlink:href="#a"/>
<use y="123.223" x="-112.066" xlink:href="#a"/>
<use y="85.027" x="108.427" xlink:href="#a"/>
</g>
</svg>
