<svg viewBox="0 0 640 480" xmlns="http://www.w3.org/2000/svg" xmlns:xlink="http://www.w3.org/1999/xlink">
<path d="M0 0h640v480H0z" fill="#fff"/>
<path id="a" fill="#435125" d="M307.84 398.6a.815.815 0 0 1-.278-.196l-.1-.094c-.26-.237-.688-.657-1.265-1.314-1.066-1.21-2.495-2.982-3.752-4.548-2.492-3.106-4.55-5.782-4.94-6.286l-.634-.826-6.21-1.916-4.53-2.115 2.43-2.725 8.33 3.565 6.22 1.275 11.49 8.45-.01.008c-.02.02-1.67 1.39-3.31 2.88-.73.663-1.65 1.516-2.3 2.226-.3.326-.56.65-.74.912-.11.16-.17.306-.2.377l.72-.444.77.6-1.57.14-.07.01zm-42.672-12.816c-5.422 0-10.777-1.5-15.916-4.454l-.006-.003.002-.006s.672-1.28 2.302-2.47c1.553-1.14 4.354-2.5 8.88-2.52h.094c5.36 0 11.92 1.82 19.498 5.42-.256.17-6.204 4.05-14.852 4.05l.008.01zm-23.496-5.208c-1.002 0-1.903-.38-2.536-1.066-.52-.565-.89-1.317-1.138-2.303-.403-1.614-.292-3.22-.28-3.373a3.48 3.48 0 0 1 1.25-.284l.09-.002c2.008 0 3.59 1.743 4.27 3.47.384.982.458 1.807.218 2.454-.24.648-.992 1.096-1.872 1.096zm41.344-4.792c-13.887-1.983-19.774-7.004-22.266-10.866-2.66-4.12-2.113-7.93-2.108-7.968l.002-.012.01-.003c.005 0 .85-.228 2.127-.234 3.7 0 13.15 1.86 22.24 19.08l.01.01h-.01zm-28.464-2.752c-5.933 0-10.45-1.024-13.426-3.043-1.71-1.16-2.547-2.44-2.948-3.3a5.408 5.408 0 0 1-.476-1.62c.157-.08 2.586-1.15 6.212-1.32a20.4 20.4 0 0 1 .94-.03c4.585 0 11.558 1.49 18.916 8.62h.007-.01c-3.36.44-6.463.67-9.223.67zm-28.728-1.104c-6.256 0-14.85-1.91-20.21-7.27l-.006-.006.016-.004c.056-.014 5.873-1.49 12.418-1.65.39-.01.783-.014 1.18-.014 5.866 0 10.355 1.137 13.346 3.38 1.044.783 1.614 1.512 1.742 2.226.107.597-.208 1.24-.845 1.72-1.346 1.017-3.753 1.56-7.156 1.614l-.48.016zm-20.272-10.4a2.56 2.56 0 0 1-1.983-.934c-.41-.49-.69-1.132-.89-2.017a11.362 11.362 0 0 1-.23-2.94v-.014a2.43 2.43 0 0 1 .97-.22c.92 0 1.63.504 2.07.927a5.57 5.57 0 0 1 1.35 2.116c.29.824.34 1.513.14 2.108-.16.472-.71.968-1.44.968zm46.824-1.056c-1.002 0-1.903-.38-2.536-1.066-.52-.565-.89-1.317-1.138-2.303-.403-1.614-.292-3.22-.28-3.373a3.48 3.48 0 0 1 1.25-.284l.09-.002c2.008 0 3.59 1.743 4.27 3.47.384.982.458 1.807.218 2.454-.24.656-1 1.096-1.872 1.096zm-22.808-.944c-12.59-.443-19.123-4.022-22.387-6.946-1.83-1.647-2.85-3.28-3.39-4.358-.5-1.02-.69-1.8-.72-1.95l.02-.007s1.19-.426 3.11-.464l.3-.003c4.25 0 12.89 1.784 23.08 13.723v.008zm13.672-1.272c-10.13-1.542-15.867-5.89-18.898-9.268-3.176-3.54-4.128-6.837-4.17-6.99.018-.006 1.256-.328 3.12-.376a14.24 14.24 0 0 1 .862 0c5.094.112 14.347 2.42 19.084 16.628h.008zm-52-4.864c-3.32 0-6.54-.384-9.57-1.142-5.303-1.326-7.578-3.35-8.552-4.816-.554-.832-.755-1.562-.825-2.028a3.414 3.414 0 0 1-.025-.858l.025-.01c.013-.002 3.52-.987 8.37-1.06a35.027 35.027 0 0 1 7.43.66c8.43 1.683 12.802 8.046 12.845 8.11l.004.007-.01.002c-.05.008-4.065 1.136-9.697 1.136zm23.512-8.544c-1.015 0-1.916-.37-2.538-1.043-.51-.553-.883-1.315-1.136-2.327-.404-1.612-.292-3.2-.28-3.348a3.48 3.48 0 0 1 1.25-.283l.09-.002c2.004 0 3.59 1.743 4.27 3.47.374.95.44 1.767.194 2.428-.248.672-.976 1.104-1.848 1.104zm-17.68-2.424c-.076-.018-4.782-1.23-9.574-4.18-4.435-2.73-9.86-7.56-10.522-15.064v-.004l.01-.003c.002 0 .414-.1 1.024-.123.084-.003.173-.005.267-.005 1.325 0 4.037.373 7.317 2.867 4.176 3.184 8.032 8.736 11.48 16.52zm11.544-.424c-.03-.012-3.383-1.354-7.575-4.867-3.9-3.274-9.39-9.168-13.37-18.664 0-.01.92-.49 2.31-.58a3.31 3.31 0 0 1 .25-.01h.37c1.93.05 4.87.85 8.13 4.37 3.74 4.04 7.08 10.67 9.93 19.72l.01.02-.02-.01zm-29.912-.872c-3.857 0-5.177-2.092-5.566-2.992-.638-1.48-.444-2.95-.443-2.966l.002-.016a8.498 8.498 0 0 1 1.92-.25l.13-.002c3.04 0 5.44 1.544 6.468 3.073.204.303.83 1.355.312 2.177-.416.648-1.36.976-2.824.976zm-8.544-10.776c-2.154 0-5.45-.132-8.913-.762-3.435-.624-5.382-3.545-6.41-5.884-1.12-2.548-1.435-4.98-1.44-5.004h.01c10.627.312 15.645 3.417 17.984 5.966 2.42 2.632 2.56 5.365 2.57 5.538-.01 0-1.51.144-3.79.144zm11.064-11.056a42.733 42.733 0 0 1-2.426-3.382c-1.26-1.956-2.423-3.997-2.423-5.668 0-1.612-.38-5.012-.605-6.895a249.31 249.31 0 0 0-.6-4.6l.01.01c.27.1 6.646 2.49 6.646 8.47 0 6-.59 12.02-.596 12.08v.01h-.008zm-8.264-.568c-.067 0-.134-.006-.2-.017-1.885-.31-5.197-1.75-8.858-3.85-4.066-2.33-7.368-4.83-9.296-7.03-1.76-2.01-2.803-5.16-3.104-9.38-.214-2.99.042-5.48.07-5.73a3.3 3.3 0 0 1 1.05-.16c1.412.03 2.92.66 4.952 2.06 1.585 1.09 3.332 2.58 5.192 4.41a79.642 79.642 0 0 1 5.76 6.38l.025.04c.22.38 2.03 3.66 3.45 6.85.9 2.03 1.42 3.49 1.62 4.6.12.64.15 1.05 0 1.43a.72.72 0 0 1-.31.36.866.866 0 0 1-.35.07z"/>
<use width="100%" xlink:href="#a" transform="matrix(-1 0 0 1 593.74 0)" height="100%"/>
<path d="M519.06 76.38l-1.884.75-.738.296-2.284-.126-2.138 1.026-3.792 2.592-.167.12-1.413.368-1.313-.566-.74.34-.26 1.535-.71 1.103-.87.614-3.03.31-2.55 1.316-3.32-.89-1.54.605-3.28 2.953-1.67.794-.58-.034-2.22-.114-.94.307-1.4 1.35-2.65.2-.82.57-1.29 2.61-1.4 1.44-.8.17-.87-.32-.65.11-.29 1.67-.63.69-1.78.61-1.42 1.18-1.24.64-1.66-.05h-.38l-1.66.92-3.12.27-1.3 1.24-.29.26-.61.37-.99.59-.24.14-1.2-.21-1.4.55-.57-.87-.97.58-1.28.05-1.6-.71-1.22-.54-.89.13-.31 1.55-.03.16-.93 1.25-1.75 1.06-.23.31-1.99 2.56-3.78 3.97-3.19 1.62-3.31 1.01-2.31 1.9-6.08 3.01-9.6 4.77-1.96.63-2.81.45-5.02 1.85-4.43 1.33-.25.08-.88.26-6.25 1.89-2.91-.31-1.72.62-4.48-.5-3.11.06-1.97.41-3.71 1.78-6.26 3.01-2.07 1.89-3.22 1.68-3.77 1.19.01-1.59-.03-.07-1.31.41-.95.3-3.06.47h-1.7l-1.06-.3-.17.06-6.25 2.06-6.97.67-3.49 1.12-2.6-.05-1.63.49-3.19.39-1.14-.3-.26-.07-9.4.4-4.3-.48-2.05.47-3.44-1.16-5.01-.58-1.17-.36-2.64-.78-1.19.69-.89.09-2.13-.78-.77-.02-1.76.64-1.01-.26-.94-.75-2.21-.33-1.34-1.13-7.52 1-2.04-.6-6.84-1.99-1.09.05-1.35 1.02-2.04.74-1.77.46-2.41.09-2.8-.74-2.88-1.4-1.06-.26-2.38.24-.73.07-4.37-2.35-5.63-3.52-3.82-1.84-1.44-.23-.19.68.72 2.242.24 2.22-.07 2.05-.04 1.27.36 1.14 1.38 1.53.58 1.53.42 4.22-.01 4.29-.67 6.84-.23 1.04-.8 3.54-.73 3.25-2.83 8.66-.78 1.08-1.91 1.303-4.34 2.95-3.19 1.84-1.01.42-2.59.19-1.61-.08-2.01-1.09-1.97-.51-2.58-1.86-2.88-.6-3.15-1.83-.82-.99-1.71-.16-2.38-.717v-.004l-.87-.26-.6-.18-3.04-.086-2.83-1.31-1.5-.36-2.04-.105-2.13.99-1.08.5-1.37-.54-.99.06-1.12 1.69-.16.267-.77.4-.96-.01-.75-.02-.82.354-1.09.48-.97.42-.47.2-.01-.01-.29.06-.51.09-.64.12-1.13-.66-.6-.35-1-.21-.54.39-.11 1.84-.49 1.1-1.57 1.39-1.59 1.4-1.11 1.64-2.94 6.71-1.84 2.7-.57.63-1.93 2.123-1.71 1.33-3.94 3.05-3.73 1.39-3.21.66-1.56.01-2.96-.4-2.66-.81-2.92-1.82-3.2-2.57-4.63-4.58-.654-.39-.14-.09-1.46-.94-1.08.03-.42.7-.23 1.01-.2.9-.53 5.1.04.3.28 2.1 3.52 4.92 1.09 2.61.18.3.728 1.22.55.93.05.1 1.21 3.59-.84 2.02.42 1.36-1.07.83-.2 1.18 3.16 3.96.69 1.75-.77 2.42-1.23 1.334-.34.36.17 1.024 1.46 1.31 2.47 2.2 1.32 3.27 1 .88 1.17-.25.646.49.99-.02.97.96.63.3.99.49.78 1.02.18 3.13 1.46 3.89.03 2.102.01.3.91 1.56.283 1.23-.48 3.26 1.16 1.04 1.25-.256.81.123 1.3 1.087 1.575 2.4 1.54-.23.98.47 4.73 4.27 1.07.54.06.03.77.39.96.97 1.49-.99.16-.02 1.61-.14.71.48 1.36.92 1.79-.02 3.88 1.186 1.69.44 3.41 2.12 1.45.9.854.7 1.14.93 2.276.98 1.95.47 1.06.25.79.31.02-.05h.01l-.02.05 4.22 1.62 2.29.54 2.12.78 1.54.57 1.13.02 1.6-1.35 1.55-.09 1.29.32 1.26-.21 1.98-1.227.39-.57 1.41-.67 4.75-.59 1.39.45 3.57-1.55 2.39.66 2.12-.75 4.62 1.03 1.23.864 1.37 1.57.17.01 1.53.03-.64 1.07 2.02 2.12 1.82 2.75.12.37 1.326 3.89.99 1.38.69 1.93.03 1.25-1.07.81-.18.47-.06.178.22.53.41-.22.77-.43.93-.147 1.65.18 1.09.11 1.724-.854 1.14-.57 1.837.79 2.02-.02.85.38 2.4 1.08 1.22.11.45-.3.29-.68-.15-.8-.92-1.06-2.03-2.35-.83-1.2-.63-1.75-.19-2.233-.14-1.51.25-1.98.54-.71.4-1.58h.01l.1-.413 1.13-1.49 2.98-1.91 3.2-2.87 2.53-1.67 2.61-1.13.07-.32.29.11 6.63-2.26.11-.01 2.96-.51 19.94 1.41.74-.22.66-1.866.36-.34.24-.22 2.19-.96 1.028-.15 2.85.7 1.17.29 1.87-1.05 1.32.02 2.73-1.49 1.69.04.64-.257 3.29-2.37 3.17-.91.83-.44.29-.16 3.25-1.72 2.06-1.58 1.78-.95 1.95-.5 5.1-.36 1.03-1.71 2.194-.29 1.33-1.5 1.51-.62 1.09-1.56.91-1.31 1.28-.74 4.08-.25 4.84.6.64-.39 1.09-3.9 1.14-.73 3.08-4.49.01-1.63.006-1.37.51-1.95-.345-3.51.41-3.55 1.92-4.52 1.68-1.83 2.72-1.84 1.39-.6 1.96-.33.28-.05.5-.09 6.75-.09c.1-.07 2.46-.04 2.46-.04l2.25-.03 5.69 1.01.41.07 1.92.62 2.22 1.73 2.35 2.29.44.43 1.52.64.46.2 1.26-.2 1.79-.93 1.35-1.14 1.84-1.007.04-.06 1.03-1.56.036-.03.02.01v-.01h-.02l.41-.62 3.558-1.39 4.18-.25.47-.254.26-.14 1.11-1.3 1.037-.01 2.51.91 1.76-.35 1.4.56 1.09-.13 2.05-.24 2.2 1.55 1.28.16 4.52 2.65.24.04.13.02.26.04.53-.16.8-.23.1-.03.1.14.51.723.704.1.834-1.11-.33-.5-.13-.18-1.62-.33-1.45-2.48 1.382-1.49-2.17-2.66-.36-.44-.12-.19-.75-1.13-3.8-5.783-4.94-3.95-1.73-1.4h-.01l-.61-.476-2.64-2.68-1.89-2.5-.25-.54-.39-.85-1.13-2.46-1.97-1.52-1.6-1.76-.08-.106-3.31-4.5-.55-.76-.78-.45-1.66-.01-.16-.16-.09-.1.056-.06.79-.79.882-.22.38-.88-1.69-4.883-.01-.17-.12-1.56 1.376-7.09.17-.86 2.34-4.77 1.45-1.19 1.586-3.11 1.36-1.99 1.3-1.27.23-.13 2.35-1.42 1.97-.28 1.88-.26 3.28 1.01 3.12-.06.61-.07 1.418-.16 2.33-.73 1.1-.68.57-.87 1.19-3.99.38-1.27.737-1.38 4.25-4.89 3.21-2.97 7.22-5.29 3.53-2.11 1.8-1.08 16.1-7.16 4.185-4.24 2.18-2.2 3.86-2.59 4.51-1.85 3.89-3.08.85-1.07 1.07-3.44.89-.22.8-1.74.23-.493 3.13-2.23.36-.18 12.3-6.16 1.79.244.96-1.43 3.58-.6.66-.114.88-.44.75-1.28V85l.1-3.42.77-.92.42-2.25.39-.52.41-.54 1.01-.72-.18-.43z" fill="#d47600"/>
</svg>
