<svg id="dominica" xmlns="http://www.w3.org/2000/svg" xmlns:xlink="http://www.w3.org/1999/xlink" viewBox="0 0 1200 600">
<rect width="1200" fill="#006b3f" height="600"/>
<rect width="75" fill="#fcd116" x="525" height="600"/>
<rect y="225" width="1200" fill="#fcd116" height="75"/>
<rect width="75" fill="#fff" x="600" height="600"/>
<rect y="300" width="1200" fill="#fff" height="75"/>
<rect width="50" x="575" height="600"/>
<rect y="275" width="1200" height="50"/>
<g transform="translate(600,300)" fill="#006b3f">
<circle r="150" fill="#d41c30"/>
<g id="star2">
<path id="star" stroke="#000" d="m-4.81-118.41 4.81-13.72 4.37 13.5 14.65 0.22-11.59 8.85 5.25 15.05-12.68-9.29-12.46 8.85 4.81-14.61-11.37-8.63 14.21-0.22z"/>
<use xlink:href="#star" transform="rotate(180)"/>
</g>
<use xlink:href="#star2" transform="rotate(36)"/>
<use xlink:href="#star2" transform="rotate(72)"/>
<use xlink:href="#star2" transform="rotate(108)"/>
<use xlink:href="#star2" transform="rotate(144)"/>
<g stroke="#000" stroke-width="2.5">
<ellipse cy="586.13" cx="680.21" rx="30.805" ry="189.82" transform="matrix(.28955 -.030182 .016588 .23226 -186.12 -75.926)"/>
<ellipse cy="586.13" cx="680.21" rx="30.805" ry="189.82" transform="matrix(.30626 -.031845 .016685 .23225 -188.73 -74.887)"/>
<ellipse cy="586.13" cx="680.21" rx="30.805" ry="189.82" transform="matrix(0.245 -.025891 .017898 .25675 -151.95 -90.936)"/>
<path stroke-width=".6573" d="m-44.213 62.565c7.6573-0.31851 4.3321-4.4157 8.1992-6.5957 3.8645-2.1773 9.3654-0.73678 11.016 1.9858 1.6502 2.7226 0.32701 5.3967 2.4505 5.4333 2.126 0.03661 59.928-2.3876 62.01-0.10526 2.0847 2.2797 2.4283 6.776 0.26944 8.5241-2.1593 1.7697-75.235 2.5879-77.751 0.73765-2.5169-1.8233-6.2021-9.5298-6.1938-9.98z" fill="#9c4a00"/>
<path stroke-width=".6326" d="m-3.3769 68.195c-0.1388 5.775 8.4036 4.14 8.5209 8.963-0.2573 5.114-14.324 0.313-14.46-9.041 0.5853-9.345 14.354-13.963 14.524-8.625 0.12667 4.4351-8.4466 2.9276-8.5854 8.7031z" fill="#fcd116"/>
<path stroke-width=".6326" d="m1.6637 68.261c-0.1388 5.776 8.4033 4.14 8.5213 8.964-0.2577 5.113-14.325 0.312-14.46-9.042 0.5849-9.345 14.354-13.962 14.524-8.625 0.12667 4.4351-8.4466 2.9276-8.5854 8.7031z" fill="#fcd116"/>
<path stroke-width=".6326" d="m7.0709 68.058c-0.1388 5.775 8.4031 4.139 8.5211 8.963-0.257 5.114-14.324 0.313-14.46-9.042 0.5851-9.344 14.354-13.962 14.524-8.624 0.12667 4.4351-8.4466 2.9276-8.5854 8.7031z" fill="#fcd116"/>
<path stroke-width=".6326" d="m12.111 68.124c-0.13885 5.7755 8.4036 4.1396 8.5209 8.9634-0.257 5.114-14.324 0.313-14.459-9.041 0.5845-9.345 14.354-13.962 14.524-8.625 0.12667 4.4351-8.4466 2.9276-8.5854 8.7031z" fill="#fcd116"/>
<ellipse rx="3.5339" ry="3.403" transform="matrix(1.3799 .020781 -.030617 1.4544 -625.23 117.21)" cy="-41.086" cx="478.38" stroke-width=".3991" fill="#9c4a00"/>
<ellipse cy="905" cx="427.11" rx="20.814" ry="24.144" transform="matrix(.20742 -.031292 .042261 .39514 -119.98 -293.42)"/>
<ellipse cy="905" cx="427.11" rx="20.814" ry="24.144" transform="matrix(.20742 -.031292 .042261 .39514 -127.33 -294)"/>
<ellipse cy="905" cx="427.11" rx="20.814" ry="24.144" transform="matrix(.20742 -.031292 .042261 .39514 -132.6 -303.41)"/>
<ellipse cy="905" cx="427.11" rx="20.814" ry="24.144" transform="matrix(.19943 -.031536 .046322 .43593 -125.41 -340.63)"/>
<ellipse cy="905" cx="427.11" rx="20.814" ry="24.144" transform="matrix(.19950 -.030839 .043561 .40874 -112.65 -316.23)"/>
<ellipse cy="905" cx="427.11" rx="20.814" ry="24.144" transform="matrix(.19950 -.030839 .043561 .40874 -118.3 -319.64)"/>
<ellipse cy="905" cx="427.11" rx="20.814" ry="24.144" transform="matrix(.19950 -.030839 .043561 .40874 -125.44 -324.55)"/>
<ellipse cy="905" cx="427.11" rx="20.814" ry="24.144" transform="matrix(.19950 -.030839 .043561 .40874 -132.04 -327.53)"/>
<path stroke-width=".5749" d="m-14.734-52.686s-14.655 12.719-13.011 47.144c1.8454 34.62 32.393 50.894 32.393 50.894s7.786-9.8269 6.882-37.643c-2.1827-40.669-16.608-58.638-16.608-58.638l-9.6562-1.7573z" fill="#9461c9"/>
<ellipse cy="905" cx="427.11" rx="20.814" ry="24.144" transform="matrix(.20968 .0061773 -.028839 .39634 -45.183 -309.4)"/>
<ellipse cy="905" cx="427.11" rx="20.814" ry="24.144" transform="matrix(.20968 .0061773 -.028839 .39634 -52.319 -311.28)"/>
<ellipse cy="905" cx="427.11" rx="20.814" ry="24.144" transform="matrix(.20968 .0061774 -.028839 .39634 -55.825 -321.49)"/>
<ellipse cy="905" cx="427.11" rx="20.814" ry="24.144" transform="matrix(.20186 .0045130 -.032113 .43721 -42.11 -356.83)"/>
<ellipse cy="905" cx="427.11" rx="20.814" ry="24.144" transform="matrix(.20180 .0052108 -.029984 .40996 -33.907 -330.55)"/>
<ellipse cy="905" cx="427.11" rx="20.814" ry="24.144" transform="matrix(.20180 .0052108 -.029984 .40996 -38.863 -334.91)"/>
<ellipse cy="905" cx="427.11" rx="20.814" ry="24.144" transform="matrix(.20180 .0052108 -.029984 .40996 -45.006 -341.01)"/>
<ellipse cy="905" cx="427.11" rx="20.814" ry="24.144" transform="matrix(.20180 .0052108 -.029984 .40996 -50.974 -345.12)"/>
<ellipse rx="58.28" ry="186.49" transform="matrix(.19787 -.076435 .080235 .18710 -155.84 -59.213)" cy="606.11" cx="624.42" stroke-width="1pt" fill="#d41c30"/>
<ellipse rx="10.823" ry="12.905" transform="matrix(.49828 .0088718 -.0065693 .36896 -99.511 -162.77)" cy="356.75" cx="218.13" stroke-width="1.4635"/>
<ellipse rx="10.823" ry="12.905" transform="matrix(.44637 .0079477 -.0065693 .36896 -84.135 -169.3)" cy="356.75" cx="218.13" stroke-width="1.5462"/>
<ellipse rx="10.823" ry="12.905" transform="matrix(.44637 .0079477 -.0065693 .36896 -90.652 -169.42)" cy="356.75" cx="218.13" stroke-width="1.5462"/>
<ellipse rx="10.823" ry="12.905" transform="matrix(.46714 .0083173 -.0061671 .34637 -93.888 -166.37)" cy="356.75" cx="218.13" stroke-width="1.56"/>
<ellipse rx="10.823" ry="12.905" transform="matrix(.46714 .0083173 -.0061671 .34637 -94.462 -172.02)" cy="356.75" cx="218.13" stroke-width="1.56"/>
<ellipse rx="10.823" ry="12.905" transform="matrix(.44637 .0079477 -.0065693 .36896 -96.878 -173.22)" cy="356.75" cx="218.13" stroke-width="1.5462"/>
<ellipse rx="10.823" ry="12.905" transform="matrix(.44637 .0079477 -.0064352 .36143 -95.469 -176.63)" cy="356.75" cx="218.13" stroke-width="1.5623"/>
<ellipse rx="10.823" ry="12.905" transform="matrix(.49828 .0088718 -.0065693 .36896 -114.73 -179.37)" cy="356.75" cx="218.13" stroke-width="1.4635"/>
<ellipse rx="10.823" ry="12.905" transform="matrix(.46714 .0083173 -.0061671 .34637 -98.157 -179.08)" cy="356.75" cx="218.13" stroke-width="1.56"/>
<ellipse rx="10.823" ry="12.905" transform="matrix(.44637 .0079477 -.0064352 .36143 -100.29 -183.52)" cy="356.75" cx="218.13" stroke-width="1.5623"/>
<ellipse rx="10.823" ry="12.905" transform="matrix(.44637 .0079477 -.0065693 .36896 -110.49 -178.91)" cy="356.75" cx="218.13" stroke-width="1.5462"/>
<ellipse rx="10.823" ry="12.905" transform="matrix(.44637 .0079477 -.0064352 .36143 -108.86 -179.77)" cy="356.75" cx="218.13" stroke-width="1.5623"/>
<ellipse rx="10.823" ry="12.905" transform="matrix(.44637 .0079477 -.0064352 .36143 -106.81 -183.7)" cy="356.75" cx="218.13" stroke-width="1.5623"/>
<ellipse rx="67.438" ry="205.64" transform="matrix(.21932 -.077428 .086829 .20202 -145.02 -72.556)" cy="564.48" cx="528.68" stroke-width="2.5449"/>
<ellipse cy="646.07" cx="528.68" rx="13.321" ry="40.796" transform="matrix(.20574 -.097852 .094713 .21196 -137.12 -77.403)"/>
<path stroke-width=".5749" d="m31.463 7.7987c12.81 15.598 11.193 25.503 9.857 33.883-4.025-9.663-6.223-15.746-19.035-31.347-12.813-15.601-6.418-26.548-5.538-32.316 1.9266 4.9931 1.9028 14.179 14.716 29.78z"/>
<path stroke-width=".5749" d="m32.616 20.398c12.811 15.598 11.193 25.503 9.857 33.883-4.024-9.663-6.222-15.746-19.035-31.347s-6.417-26.548-5.538-32.316c1.9266 4.9931 1.9028 14.179 14.716 29.78z"/>
<path stroke-width=".5749" d="m33.002 30.545c13.12 15.323 11.7 25.26 10.532 33.667-4.217-9.576-6.536-15.611-19.658-30.936s-6.947-26.405-6.183-32.191c2.026 4.9512 2.186 14.135 15.309 29.46z"/>
<ellipse rx="13.321" ry="40.796" transform="matrix(.40784 -.10379 .16694 .37767 -299.57 -196.03)" cy="646.07" cx="528.68" stroke-width="1.3887"/>
<ellipse rx="13.321" ry="40.796" transform="matrix(.36689 -.063105 .12978 .31265 -259 -166.87)" cy="646.07" cx="528.68" stroke-width="1.6398"/>
<ellipse rx="13.321" ry="40.796" transform="matrix(.36815 -.055316 .12326 .31531 -261.52 -166.82)" cy="646.07" cx="528.68" stroke-width="1.6398"/>
<ellipse rx="13.321" ry="40.796" transform="matrix(.29658 -.054311 .11151 .23308 -211.07 -135.54)" cy="646.07" cx="528.68" stroke-width="2.0966"/>
<ellipse rx="13.321" ry="40.796" transform="matrix(.29952 -.038001 .096808 .23873 -208.27 -143.87)" cy="646.07" cx="528.68" stroke-width="2.0966"/>
<path stroke-width=".5749" d="m8.6195-15.768c3.7875 9.2552 5.3215 17.577 3.4205 18.578-1.899 0.999-6.5133-5.7009-10.301-14.956"/>
<ellipse rx="13.321" ry="40.796" transform="matrix(.29952 -.038001 .096808 .23873 -208.89 -154.74)" cy="646.07" cx="528.68" stroke-width="2.0966"/>
<ellipse rx="13.321" ry="40.796" transform="matrix(.30032 -.032104 .091440 .24056 -212.19 -155.99)" cy="646.07" cx="528.68" stroke-width="2.0966"/>
<path stroke-width=".5749" d="m2.0257-28.338c3.678 6.2539 5.6581 12.094 4.4185 13.037-1.2381 0.94236-5.2275-3.3683-8.9055-9.6222"/>
<path stroke-width=".5749" d="m4.5726-32.485c3.678 6.2539 5.6581 12.094 4.4185 13.037-1.2381 0.94236-5.2275-3.3683-8.9055-9.6222"/>
<path stroke-width=".5749" d="m16.013-31.607c5.125 8.5426 7.8826 16.521 6.1533 17.811-1.7272 1.2885-7.2877-4.5986-12.413-13.141"/>
<path stroke-width=".5749" d="m8.4524-36.082c3.6927 6.9046 5.6865 13.348 4.449 14.385-1.236 1.0358-5.2356-3.7271-8.9283-10.632"/>
<path stroke-width=".5905" d="m8.1246-46.086c-2.4652 2.4822-0.05083 7.1236 2.2055 8.801 2.5306 2.2942 16.742 17.286 26.769 4.6722-8.034-0.146-23.027-19.004-28.974-13.473z" fill="#9461c9"/>
<path stroke-width=".5905" d="m6.369-53.486c-2.4652 2.4822-0.05083 7.1236 2.2055 8.801 2.5306 2.2942 16.742 17.286 26.769 4.6722-8.033-0.145-23.026-19.004-28.974-13.473z" fill="#9461c9"/>
<path stroke-width=".5905" d="m4.1227-60.576c-2.4652 2.4822-0.05083 7.1236 2.2055 8.801 2.5306 2.2942 16.742 17.286 26.769 4.6722-8.0335-0.14611-23.027-19.005-28.974-13.473z" fill="#9461c9"/>
<path stroke-width=".5905" d="m-0.75855-68.687c-2.4652 2.4822-0.05083 7.1236 2.2055 8.801 2.5306 2.2942 16.742 17.286 26.769 4.6722-8.0335-0.14611-23.027-19.005-28.974-13.473z" fill="#9461c9"/>
<path stroke-width=".6276" d="m-18.272-76.448c5.0803-3.779 14.412-4.884 21.681-1.1832 6.0554 2.9668 16.147 15.073 23.734 17.935-5.34 0.95254-8.5886 0.14773-12.001-1.4916-6.7389 4.8797-9.1402 5.6113-16.008 6.5702-9.5516 1.378-17.48-1.1086-20.266-6.0894-2.8393-4.6995-1.6154-12.239 2.8598-15.741z" fill="#9461c9"/>
<ellipse rx="14.154" ry="14.986" transform="matrix(.30909 .0055034 -.0030149 .16933 -95.304 -125.19)" cy="323.04" cx="287.23" fill="#d41c30"/>
<ellipse rx="23.254" ry="15.895" transform="matrix(.24579 -.091437 .081322 .21925 -99.445 -116.29)" cy="348.26" cx="204.58" fill="#fcd116"/>
<ellipse cy="333.86" rx="5.828" ry="5.8279" transform="matrix(.26990 .0048056 -.0041561 .23342 -82.956 -148.37)" stroke="none" cx="283.9" fill="#000"/>
<path stroke-width=".7318" d="m-17.128-65.515c0.40208 1.9489-1.0435 4.5823-4.18 5.515-3.1952 1.3227-5.6184 4.322-7.0161 9.2263-4.8558-11.184-1.7696-15.916 3.3879-17.066 4.4366-1.4149 7.1103-1.2357 7.8082 2.3243z" fill="#fcd116"/>
<ellipse cy="362.39" rx="4.7097" ry="4.7097" transform="matrix(.23597 -.012355 .013336 .24161 -73.601 -149.77)" stroke="none" cx="198.98" fill="#000"/>
</g>
</g>
</svg>
