<svg viewBox="0 0 640 480" xmlns="http://www.w3.org/2000/svg" version="1">
<g stroke-width="1pt" fill-rule="evenodd">
<path d="m0 0h640.01v480h-640.01z" fill="#fff"/>
<path d="m0 0h320.01v480h-320.01z" fill="#00bf13"/>
<g fill="#f21930">
<path d="m445.9 308.66c-40.313 72.507-129.23 98.27-199.88 59.356s-96.41-127.84-57.49-198.49c38.914-70.648 127.83-96.406 198.48-57.49 26.117 14.385 44.713 33.297 59.338 60.236-5.337-7.34-11.296-13.4-19.118-19.55-48.19-37.886-118.05-29.525-155.93 18.664-37.887 48.19-29.526 118.05 18.662 155.93 48.19 37.888 118.04 29.526 155.93-18.663z"/>
<path d="m411.37 321.6l-35.185-49.87-58.022 18.922 36.55-48.875-35.923-49.332 57.78 19.662 35.82-49.412-0.852 61.028 58.062 18.795-58.295 18.046"/>
</g>
</g>
</svg>
