<svg viewBox="0 0 900 600" xmlns="http://www.w3.org/2000/svg" xmlns:xlink="http://www.w3.org/1999/xlink">
<path d="M0 0h900v600H0z"/>
<path fill="#fff" d="M0 0h900v400H0z"/>
<path fill="#ce1126" d="M0 0h900v200H0z"/>
<g stroke="#c09300" fill="#fff">
<path stroke-linejoin="round" stroke-width="1.27" d="M450.81 302.4l68.488 63.58-4.876-115.47c-.716-17.5-15.924-13.486-26.97-7.173-11.192 7.172-23.96 7.172-37.447 2.437-13.485 4.735-26.253 4.735-37.444-2.437-11.04-6.313-26.25-10.328-26.97 7.172l-4.87 115.47 70.1-63.58z"/>
<path d="M393.47 246.49l-4.734 112.32-8.035 7.168 4.88-115.47c2.3-1.578 6.32-4.017 7.89-4.017zm9.62 8.04l-4.017 93.955-8.032 8.22 4.88-108.49c1.58 1.577 6.32 5.45 7.17 6.31zm8.75 7.17l-3.155 78.362-6.455 6.31 4.018-89.406c1.574 1.578 4.73 3.874 5.592 4.734zm9.47 4.02l-3.156 66.787-6.313 5.12 3.16-74.345c1.58.717 4.74 2.438 6.32 2.438zm8.75 0l-2.297 55.657-6.455 6.313 2.44-61.252c1.575 0 5.593 0 6.312-.718z" id="a" stroke="none" fill="#c09300"/>
<use xlink:href="#a" transform="matrix(-1 0 0 1 900 0)"/>
<path stroke-width="1.074" d="M453.16 315.06l9.613 43.755-3.158 3.155-3.3-2.44-5.45-39.017 2.294 39.018-3.16 4.02-3.16-4.01 2.29-39.01-5.45 39.02-3.31 2.44-3.16-3.15 9.61-43.75h6.31z" fill="#c09300"/>
<g id="b" stroke-linejoin="round" stroke-width="1.27" fill="none">
<path stroke-width="1.189" d="M428.48 295.84l-19.08 67.705 26.255 4.018 11.188-50.924-18.363-20.8z" fill="#fff"/>
<path d="M422.17 318.94l2.296 5.593 12.405-11.848"/>
<path d="M430.76 304.92l2.596 24.346 7.89-10.328m-3.156 4.012l4.31 14.875m1.69-5.465l-8.718 13.24m2.72 13.217l-2.79-13.198-2.437-13.43-5.84 7.91-2.562-9.12-8.174 8.38 4.15 15.25 5.74-9.44 3.15 9.61 5.89-9.17"/>
<path d="M414.99 361.97l5.3-7.444 3.452 11.457 4.735-8.032 3.157 9.62"/>
</g>
<use xlink:href="#b" transform="matrix(-1 0 0 1 900 0)"/>
<g stroke-linejoin="round" stroke-width="1.27" stroke-linecap="round">
<path stroke-width="2.378" d="M450 393.81c19.943 0 39.024-1.578 50.213-4.734 4.735-.86 4.735-3.298 4.735-6.455 4.736-1.57 2.295-7.17 5.595-7.17-3.3.87-4.016-5.59-8.033-4.73 0-5.59-5.596-6.31-10.33-4.74-9.47 3.16-26.255 3.88-42.18 3.88-15.924-.71-32.567-.71-42.18-3.87-4.733-1.57-10.326-.86-10.326 4.74-4.018-.86-4.736 5.6-8.034 4.73 3.3 0 .86 5.6 5.594 7.17 0 3.16 0 5.6 4.878 6.46 11.045 3.16 30.128 4.74 50.068 4.74z"/>
<path d="M422.89 363.54c6.454.86 13.628 1.578 19.225.86 3.153 0 5.45 5.452-.863 6.314-5.593.715-14.345 0-19.08-.862-4.017-.718-12.768-2.295-18.364-3.876-5.594-2.436-1.576-7.168 1.578-6.452 4.88 1.577 11.192 3.157 17.505 4.016zm54.23 0c-6.457.86-13.628 1.578-19.08.86-3.302 0-5.597 5.452.716 6.314 5.596.715 14.347 0 19.078-.862 4.02-.718 12.77-2.295 18.364-3.876 5.597-2.436 1.58-7.168-1.577-6.452-4.87 1.577-11.19 3.157-17.5 4.016z"/>
<path d="M403.09 360.39c-4.877-.86-7.172 4.732-5.593 7.887.717-1.578 4.017-1.578 4.735-3.155.858-2.437-.718-2.437.858-4.732zm19.08 14.67c0-3.153 3.155-2.765 3.155-5.92 0-1.58-.86-4.02-2.437-4.02-1.58 0-3.158 1.58-3.158 3.156-.718 3.157 2.44 3.63 2.44 6.783zm22.71-9.08c4.73 0 4.262 6.314 1.966 9.47 0-2.295-4.017-3.156-4.017-4.732 0-2.442 3.62-2.442 2.05-4.738zm52.03-5.59c4.878-.86 7.174 4.732 5.595 7.887-.718-1.578-4.017-1.578-4.734-3.155-.86-2.437.72-2.437-.86-4.732zm-19.08 14.67c0-3.153-3.153-2.765-3.153-5.92 0-1.58.86-4.02 2.438-4.02 1.577 0 3.156 1.58 3.156 3.156.72 3.157-2.44 3.63-2.44 6.783zm-22.71-9.08c-4.732 0-4.263 6.314-1.967 9.47 0-2.295 4.015-3.156 4.015-4.732 0-2.442-3.626-2.442-2.048-4.738z"/>
<path d="M404.67 361.97c1.58 0 4.018.718 4.735 1.577l-4.74-1.58zm7.88 2.44c.862 0 4.018.716 5.596 1.575l-5.6-1.58zm28.7 3.15c-1.578 0-4.734 0-5.593.715l5.59-.72zm-8.75 0c-.86-.862-4.016-.862-5.593 0h5.59zm62.84-5.59c-1.578 0-3.875.718-4.735 1.577l4.735-1.577zm-7.89 2.44c-.86 0-4.017.716-5.595 1.575l5.6-1.58zm-28.7 3.15c1.58 0 4.735 0 5.595.715l-5.6-.72zm8.75 0c.86-.862 4.018-.862 5.595 0h-5.6z" stroke-width=".891"/>
<g stroke="none" fill="#c09300">
<path d="M403.34 374.58c-.534-.102-.815-.525-.68-1.025.164-.61.65-.957 1.112-.794.294.11.83.65.832.84.003.23-.28.76-.402.76-.053 0-.135.05-.182.1-.1.12-.413.18-.68.13zm54.93 3.92c-.2-.074-.515-.518-.515-.724.002-.387.574-1.018.93-1.02.174-.002.654.247.833.433.325.33.254.89-.154 1.2-.2.15-.8.21-1.094.1zm.36 2.48c-.42-.142-.574-.348-.608-.814-.036-.485.012-.56.525-.84l.365-.2.347.155c.47.22.69.45.71.77.01.35-.24.71-.64.89-.36.16-.38.16-.7.05z"/>
<path d="M407.75 370.09c-.346-.01-.82.307-1.094.47-.65.15-1.404.55-2.03.124-.618-.19-1.44-.04-1.532.718.158.652 1.07 1.025 1.625.594.41-.537 1.53-.853 1.65.063-.46.69-.41 1.6-.78 2.34-.06.45-.26.89-.5 1.28-.47.04-.96-.01-1.35.28-.63.03-1.27.34-1.63.87-.41.57-.79 1.16-.91 1.87.1.72.93.93 1.56.97.67.18 1.33.42 2 .62 1.08.24 2.1.63 3.19.87 1.58.47 3.24.69 4.84 1.12.16.05.32.1.5.12.66.13 1-.59 1.06-1.13.33-1.16.58-2.34.9-3.5.22-.47.49-1.52-.41-1.29-.52.31-.95.77-1.59.81-.88.05-.38.94-.03 1.31.07.58-.11 1.29-.5 1.75-.52.33-1.18-.06-1.72-.19-.58.01-1.73-.28-1.19-1.06.19-.58.2-1.21.43-1.78.3-.61.34-1.29.47-1.94-.36-.78-.98.26-1.47.34-.34.23-1.6.33-.94.94.57.43.13 1.19.03 1.75-.04.77-.84.95-1.47.78-.63-.03-1.5-.5-.97-1.19.12-.58.32-1.14.44-1.72.23-.7.43-1.36.68-2.06.11-.62.33-1.21.62-1.75.02-.68.48-1.27.47-1.97-.05-.34-.2-.46-.41-.47zm-3.594 7.25a.353.353 0 0 1 .22.03c.25.107.256.31 0 .532-.113.097-.24.19-.282.188-.468-.04-.606-.11-.625-.28-.02-.152.03-.196.34-.345a1.45 1.45 0 0 1 .34-.125zm-1.036 5.02c-.496-.466-.416-.806.317-1.353.314-.234.505-.208.863.12.553.504.575.823.087 1.255-.24.213-.346.257-.627.26-.293.003-.376-.034-.64-.282zm3.05.92a.86.86 0 0 1-.623-1.088c.13-.434.203-.477.84-.483.716-.01.854.11.86.74.005.35-.022.43-.2.6a1.07 1.07 0 0 1-.877.23zm89.11.08c-.227-.19-.273-.274-.275-.515-.003-.41.233-.712.746-.944.69-.3.96-.26 1.22.19.34.6.33.85-.08 1.25-.22.23-.27.24-.78.24-.5.01-.56-.01-.82-.22zm-85.06 1.15c-.364-.097-.552-.37-.557-.807-.004-.334.02-.387.253-.57.152-.118.39-.22.58-.245.266-.037.363-.013.578.138.55.387.668.77.35 1.14-.34.397-.663.488-1.204.344zm21.92.98c-.08-.1-.26-.16-.278-.287.032-.555.06-1.117.236-1.648.096-.523.012-1.07.194-1.58.187-.926.187-1.88.402-2.802.01-.475.055-.95.193-1.406.157-.722.013-1.476.226-2.19-.023-.267.285-.983.556-.56.39.578.91 1.046 1.42 1.517.43.252.03.624-.27.75-.42.163-.52.62-.49 1.022-.06.414-.23.806-.24 1.23-.09.622-.07 1.254-.15 1.876-.19.61-.12 1.26-.18 1.888.01.398-.18.76-.16 1.16-.05.406-.07.894-.41 1.172-.33.166-.81.138-1.07-.142zm29.7-9.8c-.482.365-.914.795-1.344 1.22-.592.448.487.71.625 1.093.16.586.15 1.21.19 1.812.18.552.26 1.138.22 1.72-.05.62-.86.49-1.22.843-.49.207-.69.69-1.06 1.03-.24.484-.31 1.077-.34 1.626.04.448-.3.95 0 1.344.04.055.09.132.13.187.1.145.35.03.5.063.51-.03 1.03.047 1.5-.157 1.21-.2 2.43-.22 3.66-.28.75.03 1.47-.23 2.22-.22.59.13.85-.5.85-.96-.33-.65-.04-1.43-.31-2.09-.23-.67-.14-1.43-.25-2.12-.01-.55-.71-.75-1.06-.34-.34.35-.89.42-1.15.85-.3.6.63.61.78 1.06.18.47.12.98.16 1.47.12.6-.53.63-.94.69-.54.2-1.29.34-1.59-.31-.19-.48-.16-.99-.21-1.5-.01-.89-.22-1.76-.28-2.65-.05-1.09-.24-2.18-.31-3.28-.01-.45-.07-1.2-.72-1.06zm-.625 8.25l.313.03.03.376.032.375-.406.13a3.28 3.28 0 0 1-.407.1 2.55 2.55 0 0 1-.187-.12c-.22-.16-.164-.38.125-.69.163-.17.24-.2.5-.18zm-29.965-9.28c-.38.135-.862.693-1.25.688-.88.062-.757.92-.125 1.218.083.26.005.588.03.875.124.79-.374 1.43-.28 2.22-.044.87-.307 1.72-.344 2.6-.24.91-.25 1.83-.4 2.75-.1.83-.7.54-1.22.31 0-.35-.02-.7-.03-1.06.22-.81-.44-1.05-1.09-1.15-.68.07-1.02-.52-.87-1.12.3-.35 1.04-.25 1.5-.31.98.21.94-1.11.44-1.56-.34-.63-1.2-.91-1.43-1.56.1-.86-.48-1.73-1.19-2.15-1.09-.08-1.91.86-2.31 1.78-.45.13-.9.27-1.34.44-.71.18-1.72 1.41-.75 1.87.55.15 2.2.53 1.47 1.28-.41.71-1.2.72-1.9.53-.72 0-1.53-.35-1.5-1.19-.15-.75-.12-1.56-.47-2.25-.15-.84-1.1-.64-1.15.13-.73.54-.63 1.4-.12 2.03.32.73.01 1.58-.31 2.25-.19.88-1.15.91-1.84 1.19-.34.13-1.63-.07-1.15.66.76.27 1.65.51 2.44.31.83-.1 1.54-.66 1.94-1.37.56-.56 1.51-.26 2.22-.28.77 0 1.56.54 2.31.19.22-.56 1.22-1.49 1.53-.53-.05.86.71 1.33 1.5 1.22.87-.05.55.61.53 1.12.06.93.66 1.42 1.44 1.81.27.07.55.05.81 0 .75-.23 1.56-.57 1.78-1.4.31-.68.31-1.45.54-2.15.18-1.13.41-2.26.44-3.41.28-1.04.2-2.13.41-3.19.13-.78.23-1.56.31-2.34-.09-.42-.27-.49-.5-.4zm-6.78 4.156c.15.02.234.204.25.53.015.366.205.662.436.72.183.046.167.24-.03.375-.116.08-.322.13-.688.13-.578 0-.937-.15-1.25-.47l-.188-.18.28-.18c.143-.11.4-.33.564-.5.285-.29.473-.42.625-.4zm66.03-7.876a8.365 8.365 0 0 0-1.656.25c-1.04-.065-1.563 1.027-.563 1.563.61 1.534 1.55-.317 2.5-.188 1.44.28 1.56 1.832 1.79 3 .08 1.157.42 2.282.75 3.375.96 1.07-.72 1.74-1.44.906-.61-.664-1.92-1.48-2.65-.562-.9.382-.94 1.59-1.69 1.937-1.2.37-1.36-1.11-2-1.75-.58-.82-1.71-.89-2.62-1.18-.43-.87-.2-2.34-1.09-2.94-.74.31-2.11 1.7-.97 2.35 1.12.96-.48 1.4-1 2.07-.73.82-.85 1.94-.97 2.97-1.25.7-1.5-.78-1.65-1.71-.1-1.11-1.04-.78-1.69-.37-.95.39-1.43 1.29-2.09 2-.08.65.04 1.36.03 2.03.22.81 1.2.43 1.81.38.98-.41 1.38.63.6 1.22-.53.68-2.22.32-2.06 1.41.55.06 1.11.04 1.66 0 1.09-.3 2.26-1.07 2.37-2.28.15-1.06 1.67-.87 2.5-1.1 1.04-.3 2.3-.38 2.53.94.71.75 2.25 1.59 3.04.57.8-.49 1.18-1.34 1.13-2.25-.16-.79 1.27-.81 1.63-.38.52.86 2.15.61 2.94.13.84-.62 1.02-1.71 2.22-1.72 1.79-.53 3.64-.84 5.38-1.5 1.41-.31-.21-1.2-.56-1.72-1.07-.53-2.01 1.64-3.22.56-.93-.71-.87-2.07-1.22-3.12-.24-1.36-.18-2.92-1.15-4-.67-.71-1.58-.89-2.53-.84zm-6.813 9.47c.126-.004.268.058.5.186.44.242.75.643.75.97 0 .212-.054.226-.375.374-.197.09-.42.19-.5.188-.18-.002-.624-.357-.625-.5 0-.06-.058-.287-.125-.47-.117-.32-.1-.316.063-.53.103-.138.187-.216.313-.22zm6.532.343c.37-.025.59.09.75.375.18.33.05.58-.41.78-.21.09-.41.16-.44.157-.03-.003-.2-.102-.38-.22-.27-.176-.31-.263-.32-.467-.01-.316.35-.597.78-.625zm-8.94.093c.11-.017.21.04.34.156.18.155.23.28.28.594.03.22.03.502 0 .625-.05.23-.05.22-.56.22-.64.01-.7-.06-.69-.65.01-.37.01-.48.22-.69.16-.16.29-.23.4-.25zm-5.5 1.438a.57.57 0 0 1 .44.437c.06.32 0 .47-.25.6-.23.12-.74.15-.88.07a.613.613 0 0 1-.19-.19c-.07-.12-.06-.18.03-.25.06-.05.12-.12.12-.15s.07-.16.15-.28a.543.543 0 0 1 .56-.22zm9.25 1.187c.18 0 .33.07.44.16.18.17.17.4-.04.57-.14.11-.87.1-1.13 0-.11-.04-.16-.1-.16-.22 0-.14.04-.22.28-.34a1.48 1.48 0 0 1 .59-.15zm-17.17 4.82c-.1-.06-.24-.11-.1-.22.17-.3.52-.4.82-.52a3.436 3.436 0 0 0 1.37-1.12c.05-.33.42-.51.42-.86 0-.47.03-.96-.09-1.42-.13-.42-.45-.75-.83-.97-.26-.2-.68-.26-.77-.61-.05-.34.25-.6.36-.91.22-.42.41-.86.65-1.27.26-.29.66-.01.79.26.19.28.36.58.45.9.3.33.57.72.68 1.16.15.31.38.61.37.97 0 .42.23.79.22 1.21.01.56.01 1.15-.19 1.68-.14.29-.42.47-.61.73-.32.3-.67.58-1.08.74-.29.1-.46.43-.82.35-.52.01-1.04.08-1.55 0 .03.06-.16-.09-.13-.06zm-6.85.45c-.25-.25-.3-.35-.3-.6-.01-.24.04-.34.28-.58.44-.44.65-.45 1.41-.07.72.37.96.4 1.03.14.06-.25.48-.48.87-.48a.82.82 0 0 1 .59.2c.25.2.26.23.27.68 0 .47 0 .48-.29.74-.28.25-.32.26-.67.23-.44-.04-.7-.24-.77-.59-.05-.25-.14-.31-.21-.14-.02.06-.13.12-.24.15-.21.05-.55.27-.8.5-.09.09-.26.13-.52.13-.35.01-.4-.01-.68-.3zm-19.82-8.9c-.67.01-1.38.57-1.47 1.22.15.75.77 1.49.37 2.28.28 1.02-.76 1.4-1.47.82-.43-.97-.64-2.03-1.28-2.9-.81-.22-1.16 1.06-1.72 1.5.28.76 1.09 1.44 1.19 2.38.19.92-.36 1.94-1.16 2.41-.69.66-1.63.42-2.47.57-1.03.6.75.82 1.22.85 1.04.11 2.13-.03 2.9-.81.77-.36.71-1.69 1.62-1.84 1.58-.07 3.16.24 4.75.28.85.2 2.16-.1 2.75.53 0 1.11.94 1.79 1.84 2.22.49.14 1.02-.48 1.53-.59.96-.31.67-1.5 1.25-1.97 1.65-.09 3.31-.07 4.97-.09.31.01.4-.44.62-.62-.04-.64-.06-1.27-.16-1.9-.32-.8.05-1.84-.53-2.53-.83-.22-1.54.54-2.38.6-.93.41-1.71 1.27-1.75 2.31-.55.9-1.43-.16-1.13-.9-.04-.33.07-.7-.03-1-.51-.61-1.4-.41-2.1-.5-1.02.04-2.01-.18-3.03-.16-.89-.07-1.82.08-2.69-.15-1.03-.03-.89-1.04-1.07-1.75a1.018 1.018 0 0 0-.63-.19zm2 3.69c.34.01.66.05 1 .1.43.08.89-.14 1.31 0 .97.17 1.95.13 2.93.22.26 0 .44.19.62.35v2.06c-.03.26.07.6-.16.78a.7.7 0 0 1-.25.13c-.28-.07-.56-.24-.69-.5-.04-.35.02-.7.03-1.06-.01-.09.04-.23 0-.31a1.248 1.248 0 0 0-.72-.25c-.85-.03-1.68-.09-2.53-.12-.71-.04-1.44.06-2.13-.12-.27-.09-.62-.06-.78-.34-.24-.27.1-.59.34-.72a2.28 2.28 0 0 1 1-.18zm11.28.25c.16 0 .21.05.28.35.04.19.1.42.12.5.03.12-.02.16-.19.22-.5.19-.99.17-1.16-.06-.08-.1.01-.43.15-.56.29-.26.61-.44.78-.44z"/>
</g>
</g>
<path stroke-width="1.15" d="M449.98 327.23c32.642-25.106 29.843-61.883 29.843-61.883-.86.172-1.68.258-2.54.258-6.848 0-23.18-3.917-26.99-8.892-4.08 4.503-20.77 8.892-27.573 8.892-.86 0-1.722-.086-2.54-.258 0 0-2.843 36.776 29.8 61.883z"/>
<path stroke-width=".916" d="M477.22 268.04c-.28.018-.563.026-.848.026-6.205 0-20.62-3.183-26.175-7.957-5.82 4.41-20.47 7.95-26.576 7.95a4.7 4.7 0 0 1-.84-.09c-.01 1.39.06 2.83.15 4.14.33 4.9 1.19 9.82 2.49 14.55 4.11 14.89 12.52 27.55 24.58 37.15 12.07-9.61 20.48-22.28 24.6-37.19 1.31-4.74 2.17-9.65 2.5-14.55.09-1.29.16-2.7.15-4.06z"/>
<path d="M439.38 265.03c-5.872 1.845-12.23 3.03-15.75 3.03-.286 0-.563-.04-.844-.093-.014 1.39.07 2.846.156 4.157a72.77 72.77 0 0 0 2.47 14.53c2.764 10.026 7.506 19.033 13.968 26.782V265.03zm20.62-.09v49.25c6.794-7.92 11.733-17.206 14.594-27.562a72.952 72.952 0 0 0 2.47-14.53c.084-1.285.165-2.7.155-4.064a13.3 13.3 0 0 1-.85.032c-3.73 0-10.42-1.17-16.38-3.125z" fill="#c09300" stroke="none"/>
<g stroke-width="1.27">
<path stroke-width="1.218" d="M462.31 253.09c.667.04-.902-3.568-.902-3.568 1.765 1.804 8.43 2.235 8.43 2.235-4-1.766-7.998-15.096-7.528-25.72.432-10.665-1.528-14.86-3.097-16.43-2-2-8.43-3.763-12.664-3.998-2.4-.12-2 1.8-2 1.8-4.43-1.14-8.86-1.57-10.87-.24-1.88 1.25-2.28 7.53-.9 6.43 3.33-2.67 6.23-.24 8.23 2.66 1.76 2.55 1.64 9.76-.91 18.19-2.67 8.86-9.96 17.72-9.96 17.72 3.96 0 9.53-3.53 9.53-3.53l-1.34 5.52c4.19-2 7.53-5.1 7.53-5.1l4 4.19c1.33-1.77 4-4.2 4-4.2s3.33 3.53 8.43 4z"/>
<path d="M446.12 227.57s-2.235 16.428-6.43 21.094m9.96-21.524s-.863 16.623-3.764 21.956m6.894-21.286s0 18.192 1.098 21.29m2.862-20.39s.902 15.29 4.666 20.82" fill="none"/>
<path stroke-width=".354" d="M442.08 219.61c-.196-1.45-.55-2.588-1.06-3.333-1.998-2.9-4.9-5.332-8.232-2.666 0 0 1.137-3.52 3.568-3.64 1.882-.12 6.155 1.41 9.92 7.84 0 0-2.784-.62-3.45-.04-1.256 1.1-.746 1.85-.746 1.85z" fill="#c09300"/>
<path stroke-width=".354" d="M432.44 209.26c.274-.902.706-1.725 1.255-2.078 2-1.333 6.43-.902 10.86.235 0 0-.392-1.92 2-1.803 4.234.235 10.664 2 12.663 4 .47.51 1.02 1.254 1.49 2.39h-.078c-.98-1.372-3.764-1.293-4.43-1.215-1.06.11-1.726.07-3.138.43-.666.15-1.686.35-2.235.78-.43.35-.784 1.64-1.45 1.64-1.06 0-.98-.28-1.255-.59-.353-.43-.55-1.06-.902-1.02-1.097.19-2.862-.67-5.096-2.43-2.235-1.77-3.098-2.2-6-2-2.86.23-3.763 1.84-3.763 1.84l.08-.2z" fill="#c09300"/>
<circle cy="210.67" cx="448.82" r="1.176" stroke="none"/>
</g>
</g>
</svg>
