<svg viewBox="0 0 640 480" xmlns="http://www.w3.org/2000/svg" xmlns:xlink="http://www.w3.org/1999/xlink">
<path d="m0 320h640v160h-640z"/>
<path d="m0 160h640v160h-640z" fill="#fff"/>
<path d="m0 0h640v160h-640z" fill="#ce1126"/>
<g stroke="#c09300" transform="matrix(.8 0 0 .8 -40.004 .002)" fill="#fff">
<path stroke-linejoin="round" stroke-width="1.27" d="m450.81 302.4l68.488 63.58-4.876-115.47c-0.716-17.5-15.924-13.486-26.97-7.173-11.192 7.172-23.96 7.172-37.447 2.437-13.485 4.735-26.253 4.735-37.444-2.437-11.045-6.313-26.25-10.328-26.97 7.172l-4.878 115.47 70.098-63.58z"/>
<g id="a" stroke="none" fill="#c09300">
<path d="m393.47 246.49l-4.734 112.32-8.035 7.168 4.88-115.47c2.294-1.578 6.313-4.017 7.89-4.017zm9.62 8.04l-4.017 93.955-8.032 8.22 4.878-108.49c1.58 1.577 6.314 5.45 7.172 6.31zm8.75 7.17l-3.155 78.362-6.455 6.31 4.018-89.406c1.574 1.578 4.73 3.874 5.592 4.734zm9.47 4.02l-3.156 66.787-6.313 5.12 3.157-74.345c1.58 0.717 4.735 2.438 6.313 2.438zm8.75 0l-2.297 55.657-6.455 6.313 2.44-61.252c1.575 0 5.593 0 6.312-0.718z"/>
</g>
<use width="100%" xlink:href="#a" transform="matrix(-1 0 0 1 900 0)" height="100%"/>
<path stroke-width="1.074" d="m453.16 315.06l9.613 43.755-3.158 3.155-3.3-2.44-5.45-39.017 2.294 39.018-3.157 4.017-3.157-4.016 2.296-39.017-5.45 39.018-3.303 2.44-3.155-3.155 9.61-43.755h6.315z" fill="#c09300"/>
<g id="b" stroke-linejoin="round" stroke-width="1.27" fill="none">
<path stroke-width="1.189" d="m428.48 295.84l-19.08 67.705 26.255 4.018 11.188-50.924-18.363-20.8z" fill="#fff"/>
<path d="m422.17 318.94l2.296 5.593 12.405-11.848"/>
<path d="m430.76 304.92l2.596 24.346 7.89-10.328m-3.16 4.01l4.31 14.875m1.69-5.46l-8.718 13.24m2.72 13.217l-2.79-13.198-2.437-13.424-5.84 7.91-2.562-9.12-8.174 8.385 4.156 15.252 5.738-9.435 3.155 9.612 5.89-9.163"/>
<path d="m414.99 361.97l5.3-7.444 3.452 11.457 4.735-8.032 3.157 9.615"/>
</g>
<use width="100%" xlink:href="#b" transform="matrix(-1 0 0 1 900 0)" height="100%"/>
<g stroke-linejoin="round" stroke-width="1.27" stroke-linecap="round">
<path stroke-width="2.378" d="m450 393.81c19.943 0 39.024-1.578 50.213-4.734 4.735-0.86 4.735-3.298 4.735-6.455 4.736-1.577 2.295-7.17 5.595-7.17-3.3 0.863-4.016-5.594-8.033-4.73 0-5.598-5.596-6.314-10.33-4.74-9.47 3.16-26.255 3.876-42.18 3.876-15.924-0.717-32.567-0.717-42.18-3.875-4.733-1.574-10.326-0.858-10.326 4.74-4.018-0.864-4.736 5.593-8.034 4.73 3.3 0 0.86 5.593 5.594 7.17 0 3.158 0 5.597 4.878 6.456 11.045 3.156 30.128 4.734 50.068 4.734z"/>
<path d="m422.89 363.54c6.454 0.86 13.628 1.578 19.225 0.86 3.153 0 5.45 5.452-0.863 6.314-5.593 0.715-14.345 0-19.08-0.862-4.017-0.718-12.768-2.295-18.364-3.876-5.594-2.436-1.576-7.168 1.578-6.452 4.88 1.577 11.192 3.157 17.505 4.016zm54.23 0c-6.457 0.86-13.628 1.578-19.08 0.86-3.302 0-5.597 5.452 0.716 6.314 5.596 0.715 14.347 0 19.078-0.862 4.02-0.718 12.77-2.295 18.364-3.876 5.597-2.436 1.58-7.168-1.577-6.452-4.877 1.577-11.19 3.157-17.5 4.016z"/>
<path d="m403.09 360.39c-4.877-0.86-7.172 4.732-5.593 7.887 0.717-1.578 4.017-1.578 4.735-3.155 0.858-2.437-0.718-2.437 0.858-4.732zm19.08 14.67c0-3.153 3.155-2.765 3.155-5.921 0-1.578-0.86-4.02-2.437-4.02-1.58 0-3.158 1.58-3.158 3.157-0.718 3.157 2.44 3.63 2.44 6.783zm22.71-9.08c4.73 0 4.262 6.314 1.966 9.47 0-2.295-4.017-3.156-4.017-4.732 0-2.442 3.625-2.442 2.05-4.738zm52.03-5.59c4.878-0.86 7.174 4.732 5.595 7.887-0.718-1.578-4.017-1.578-4.734-3.155-0.86-2.437 0.72-2.437-0.86-4.732zm-19.08 14.67c0-3.153-3.153-2.765-3.153-5.921 0-1.578 0.86-4.02 2.438-4.02 1.577 0 3.156 1.58 3.156 3.157 0.72 3.157-2.44 3.63-2.44 6.783zm-22.71-9.08c-4.732 0-4.263 6.314-1.967 9.47 0-2.295 4.015-3.156 4.015-4.732 0-2.442-3.626-2.442-2.048-4.738z"/>
<g stroke-width=".891">
<path d="m404.67 361.97c1.58 0 4.018 0.718 4.735 1.577l-4.74-1.58zm7.88 2.44c0.862 0 4.018 0.716 5.596 1.575l-5.6-1.58zm28.7 3.15c-1.578 0-4.734 0-5.593 0.715l5.59-0.72zm-8.75 0c-0.86-0.862-4.016-0.862-5.593 0h5.59zm62.84-5.59c-1.578 0-3.875 0.718-4.735 1.577l4.735-1.577zm-7.89 2.44c-0.86 0-4.017 0.716-5.595 1.575l5.6-1.58zm-28.7 3.15c1.58 0 4.735 0 5.595 0.715l-5.6-0.72zm8.75 0c0.86-0.862 4.018-0.862 5.595 0h-5.6z"/>
</g>
<g stroke="none" fill="#c09300">
<path d="m403.34 374.58c-0.534-0.102-0.815-0.525-0.68-1.025 0.164-0.61 0.65-0.957 1.112-0.794 0.294 0.105 0.83 0.646 0.832 0.84 0.003 0.222-0.28 0.752-0.402 0.754-0.053 0-0.135 0.046-0.182 0.102-0.1 0.118-0.413 0.175-0.68 0.124zm54.93 3.92c-0.2-0.074-0.515-0.518-0.515-0.724 0.002-0.387 0.574-1.018 0.93-1.02 0.174-0.002 0.654 0.247 0.833 0.433 0.325 0.337 0.254 0.892-0.154 1.207-0.2 0.155-0.8 0.212-1.094 0.103zm0.36 2.48c-0.42-0.142-0.574-0.348-0.608-0.814-0.036-0.485 0.012-0.56 0.525-0.84l0.365-0.2 0.347 0.155c0.478 0.215 0.692 0.446 0.71 0.768 0.017 0.348-0.24 0.704-0.64 0.883-0.353 0.16-0.374 0.16-0.7 0.05z"/>
<path d="m407.75 370.09c-0.346-0.01-0.82 0.307-1.094 0.47-0.65 0.15-1.404 0.55-2.03 0.124-0.618-0.19-1.44-0.04-1.532 0.718 0.158 0.652 1.07 1.025 1.625 0.594 0.41-0.537 1.53-0.853 1.655 0.063-0.457 0.69-0.405 1.608-0.78 2.343-0.062 0.457-0.253 0.892-0.5 1.28-0.463 0.047-0.955-0.007-1.345 0.282-0.626 0.034-1.265 0.345-1.625 0.875-0.403 0.578-0.79 1.165-0.906 1.875 0.106 0.725 0.936 0.933 1.56 0.97 0.668 0.182 1.336 0.423 2 0.624 1.087 0.242 2.103 0.634 3.19 0.874 1.583 0.477 3.247 0.697 4.842 1.125 0.168 0.054 0.325 0.103 0.5 0.124 0.663 0.137 1.008-0.583 1.063-1.125 0.33-1.16 0.58-2.34 0.906-3.5 0.226-0.467 0.498-1.518-0.405-1.282-0.515 0.308-0.952 0.773-1.594 0.812-0.873 0.05-0.374 0.945-0.03 1.313 0.076 0.587-0.11 1.288-0.5 1.75-0.52 0.33-1.172-0.057-1.72-0.188-0.573 0.01-1.722-0.283-1.186-1.062 0.19-0.577 0.207-1.21 0.437-1.782 0.295-0.613 0.337-1.284 0.47-1.936-0.36-0.777-0.98 0.256-1.47 0.344-0.337 0.234-1.604 0.334-0.936 0.937 0.575 0.437 0.134 1.197 0.03 1.75-0.036 0.77-0.837 0.954-1.468 0.78-0.628-0.03-1.5-0.496-0.97-1.186 0.122-0.576 0.323-1.14 0.44-1.72 0.236-0.698 0.436-1.363 0.686-2.062 0.11-0.62 0.33-1.208 0.625-1.75 0.018-0.686 0.478-1.276 0.47-1.97-0.048-0.338-0.2-0.46-0.407-0.468zm-3.594 7.25a0.353 0.353 0 0 1 0.22 0.03c0.25 0.107 0.256 0.31 0 0.532-0.113 0.097-0.24 0.19-0.282 0.188-0.468-0.04-0.606-0.11-0.625-0.28-0.02-0.152 0.03-0.196 0.342-0.345 0.156-0.074 0.263-0.11 0.344-0.125zm-1.04 5.02c-0.496-0.466-0.416-0.806 0.317-1.353 0.314-0.234 0.505-0.208 0.863 0.12 0.553 0.504 0.575 0.823 0.087 1.255-0.24 0.213-0.346 0.257-0.627 0.26-0.293 0.003-0.376-0.034-0.64-0.282zm3.05 0.92a0.86 0.86 0 0 1 -0.623 -1.088c0.13-0.434 0.203-0.477 0.84-0.483 0.716-0.008 0.854 0.11 0.86 0.74 0.005 0.355-0.022 0.437-0.2 0.6-0.206 0.193-0.604 0.297-0.877 0.23zm89.11 0.08c-0.227-0.19-0.273-0.274-0.275-0.515-0.003-0.41 0.233-0.712 0.746-0.944 0.683-0.307 0.96-0.265 1.217 0.187 0.342 0.6 0.325 0.847-0.084 1.252-0.225 0.223-0.268 0.236-0.785 0.24-0.507 0.004-0.565-0.01-0.818-0.22zm-85.06 1.15c-0.364-0.097-0.552-0.37-0.557-0.807-0.004-0.334 0.02-0.387 0.253-0.57 0.152-0.118 0.39-0.22 0.58-0.245 0.266-0.037 0.363-0.013 0.578 0.138 0.55 0.387 0.668 0.77 0.35 1.14-0.34 0.397-0.663 0.488-1.204 0.344zm21.92 0.98c-0.08-0.1-0.26-0.16-0.278-0.287 0.032-0.555 0.06-1.117 0.236-1.648 0.096-0.523 0.012-1.07 0.194-1.58 0.187-0.926 0.187-1.88 0.402-2.802 0.01-0.475 0.055-0.95 0.193-1.406 0.157-0.722 0.013-1.476 0.226-2.19-0.023-0.267 0.285-0.983 0.556-0.56 0.393 0.578 0.91 1.046 1.42 1.517 0.438 0.252 0.036 0.624-0.266 0.75-0.416 0.163-0.517 0.62-0.487 1.022-0.058 0.414-0.225 0.806-0.242 1.23-0.087 0.622-0.07 1.254-0.15 1.876-0.183 0.61-0.114 1.26-0.174 1.888 0.01 0.398-0.18 0.76-0.155 1.16-0.048 0.406-0.066 0.894-0.407 1.172-0.33 0.166-0.804 0.138-1.068-0.142zm29.7-9.8c-0.482 0.365-0.914 0.795-1.344 1.22-0.592 0.448 0.487 0.71 0.625 1.093 0.158 0.586 0.15 1.21 0.19 1.812 0.178 0.552 0.257 1.138 0.217 1.72-0.05 0.62-0.863 0.49-1.218 0.843-0.493 0.207-0.69 0.69-1.064 1.03-0.246 0.484-0.312 1.077-0.344 1.626 0.036 0.448-0.302 0.95 0 1.344 0.04 0.055 0.086 0.132 0.125 0.187 0.102 0.145 0.343 0.03 0.5 0.063 0.504-0.03 1.03 0.047 1.5-0.157 1.21-0.208 2.432-0.225 3.657-0.28 0.75 0.024 1.47-0.237 2.218-0.22 0.587 0.13 0.85-0.505 0.844-0.967-0.332-0.654-0.045-1.43-0.312-2.094-0.235-0.674-0.143-1.43-0.25-2.126-0.015-0.55-0.71-0.752-1.063-0.344-0.34 0.345-0.892 0.414-1.155 0.844-0.297 0.602 0.627 0.603 0.78 1.062 0.177 0.465 0.12 0.98 0.157 1.47 0.115 0.592-0.53 0.625-0.937 0.687-0.537 0.2-1.29 0.336-1.594-0.313-0.19-0.48-0.164-0.993-0.218-1.5-0.013-0.892-0.227-1.768-0.28-2.656-0.052-1.097-0.242-2.187-0.313-3.28-0.01-0.457-0.072-1.2-0.72-1.064zm-0.625 8.25l0.313 0.03 0.03 0.376 0.032 0.375-0.406 0.126a3.28 3.28 0 0 1 -0.407 0.094 2.55 2.55 0 0 1 -0.187 -0.125c-0.22-0.16-0.164-0.385 0.125-0.688 0.163-0.17 0.24-0.203 0.5-0.187zm-29.97-9.28c-0.38 0.135-0.862 0.693-1.25 0.688-0.88 0.062-0.757 0.92-0.125 1.218 0.083 0.26 0.005 0.588 0.03 0.875 0.124 0.79-0.374 1.426-0.28 2.22-0.044 0.87-0.307 1.718-0.344 2.594-0.246 0.903-0.25 1.832-0.405 2.75-0.104 0.823-0.7 0.533-1.22 0.312-0.003-0.356-0.026-0.705-0.03-1.062 0.216-0.817-0.44-1.056-1.094-1.156-0.685 0.065-1.022-0.523-0.874-1.125 0.295-0.35 1.036-0.254 1.5-0.313 0.98 0.204 0.942-1.112 0.438-1.562-0.345-0.636-1.2-0.91-1.438-1.563 0.096-0.866-0.48-1.732-1.187-2.156-1.09-0.077-1.912 0.862-2.314 1.78-0.452 0.13-0.904 0.267-1.344 0.438-0.71 0.177-1.72 1.407-0.75 1.875 0.545 0.15 2.2 0.528 1.47 1.28-0.413 0.708-1.202 0.72-1.907 0.532-0.724 0-1.53-0.352-1.5-1.187-0.148-0.75-0.123-1.558-0.47-2.25-0.147-0.84-1.1-0.643-1.155 0.125-0.733 0.534-0.636 1.397-0.125 2.03 0.32 0.73 0.003 1.578-0.313 2.25-0.19 0.876-1.155 0.906-1.843 1.188-0.34 0.132-1.63-0.077-1.158 0.658 0.754 0.265 1.653 0.505 2.438 0.312 0.823-0.102 1.538-0.665 1.938-1.375 0.552-0.56 1.502-0.267 2.218-0.28 0.773-0.003 1.563 0.54 2.313 0.186 0.216-0.563 1.22-1.494 1.53-0.53-0.053 0.863 0.71 1.326 1.5 1.22 0.864-0.05 0.544 0.61 0.53 1.124 0.058 0.934 0.66 1.425 1.44 1.812 0.264 0.072 0.544 0.048 0.81 0 0.75-0.235 1.555-0.568 1.782-1.406 0.304-0.68 0.31-1.45 0.532-2.156 0.177-1.13 0.406-2.26 0.437-3.406 0.277-1.04 0.198-2.136 0.407-3.188 0.133-0.782 0.23-1.563 0.313-2.344-0.092-0.417-0.272-0.487-0.5-0.406zm-6.78 4.156c0.15 0.02 0.234 0.204 0.25 0.53 0.015 0.366 0.205 0.662 0.436 0.72 0.183 0.046 0.167 0.24-0.03 0.375-0.116 0.08-0.322 0.128-0.688 0.126-0.578-0.003-0.937-0.153-1.25-0.47l-0.188-0.186 0.28-0.188c0.143-0.108 0.4-0.332 0.564-0.5 0.285-0.29 0.473-0.424 0.625-0.406zm66.03-7.88a8.365 8.365 0 0 0 -1.656 0.25c-1.04-0.065-1.563 1.027-0.563 1.563 0.603 1.534 1.542-0.317 2.5-0.188 1.44 0.28 1.56 1.832 1.783 3 0.08 1.157 0.414 2.282 0.75 3.375 0.962 1.07-0.72 1.74-1.438 0.906-0.61-0.664-1.92-1.48-2.656-0.562-0.905 0.382-0.942 1.59-1.69 1.937-1.208 0.37-1.36-1.118-2-1.75-0.586-0.823-1.71-0.895-2.624-1.186-0.43-0.87-0.205-2.346-1.094-2.938-0.745 0.304-2.113 1.702-0.968 2.344 1.117 0.96-0.488 1.4-1 2.063-0.732 0.814-0.85 1.936-0.97 2.968-1.258 0.697-1.503-0.786-1.655-1.717-0.1-1.112-1.037-0.786-1.69-0.375-0.95 0.385-1.427 1.29-2.092 2-0.08 0.647 0.037 1.356 0.03 2.03 0.217 0.812 1.203 0.43 1.813 0.376 0.98-0.41 1.38 0.627 0.595 1.22-0.532 0.675-2.22 0.32-2.063 1.405 0.544 0.062 1.11 0.042 1.657 0 1.09-0.3 2.26-1.07 2.374-2.282 0.143-1.06 1.667-0.866 2.5-1.094 1.04-0.3 2.294-0.377 2.53 0.937 0.71 0.746 2.25 1.585 3.032 0.564 0.795-0.485 1.176-1.338 1.125-2.25-0.16-0.785 1.27-0.813 1.626-0.375 0.52 0.857 2.15 0.604 2.938 0.124 0.836-0.617 1.017-1.705 2.218-1.72 1.783-0.533 3.635-0.84 5.375-1.5 1.41-0.306-0.21-1.197-0.562-1.718-1.074-0.53-2.008 1.642-3.22 0.563-0.935-0.717-0.87-2.078-1.218-3.126-0.237-1.358-0.177-2.923-1.156-4-0.67-0.715-1.585-0.887-2.53-0.844zm-6.813 9.47c0.126-0.004 0.268 0.058 0.5 0.186 0.44 0.242 0.75 0.643 0.75 0.97 0 0.212-0.054 0.226-0.375 0.374-0.197 0.09-0.42 0.19-0.5 0.188-0.18-0.002-0.624-0.357-0.625-0.5 0-0.06-0.058-0.287-0.125-0.47-0.117-0.32-0.1-0.316 0.063-0.53 0.103-0.138 0.187-0.216 0.313-0.22zm6.532 0.343c0.37-0.025 0.592 0.09 0.75 0.375 0.18 0.33 0.057 0.58-0.408 0.78-0.203 0.09-0.407 0.16-0.437 0.157s-0.198-0.102-0.375-0.22c-0.27-0.176-0.31-0.263-0.313-0.467-0.003-0.316 0.35-0.597 0.782-0.625zm-8.94 0.093c0.11-0.017 0.21 0.04 0.345 0.156 0.18 0.155 0.237 0.28 0.28 0.594 0.033 0.22 0.028 0.502 0 0.625-0.047 0.227-0.052 0.217-0.56 0.22-0.642 0.006-0.7-0.064-0.69-0.656 0.01-0.377 0.013-0.478 0.22-0.688 0.16-0.162 0.297-0.233 0.406-0.25zm-5.5 1.438a0.57 0.57 0 0 1 0.44 0.437c0.064 0.32 0.007 0.463-0.25 0.595-0.223 0.113-0.735 0.15-0.876 0.063a0.613 0.613 0 0 1 -0.188 -0.188c-0.068-0.12-0.055-0.18 0.03-0.25 0.062-0.05 0.127-0.12 0.126-0.156 0-0.037 0.068-0.163 0.157-0.28a0.543 0.543 0 0 1 0.56 -0.22zm9.25 1.187c0.18 0 0.33 0.062 0.44 0.157 0.184 0.163 0.178 0.4-0.033 0.563-0.135 0.104-0.87 0.095-1.125 0-0.112-0.042-0.155-0.1-0.156-0.22-0.002-0.14 0.038-0.226 0.28-0.343 0.206-0.097 0.417-0.155 0.595-0.156zm-17.17 4.82c-0.096-0.063-0.238-0.117-0.095-0.222 0.173-0.302 0.518-0.407 0.825-0.52a3.436 3.436 0 0 0 1.373 -1.118c0.05-0.333 0.424-0.513 0.422-0.86 0.003-0.476 0.032-0.963-0.084-1.427-0.128-0.426-0.45-0.752-0.826-0.974-0.256-0.203-0.674-0.26-0.768-0.615-0.053-0.343 0.253-0.604 0.36-0.91 0.223-0.42 0.41-0.863 0.65-1.275 0.26-0.288 0.66-0.015 0.794 0.263 0.19 0.277 0.357 0.576 0.45 0.897 0.303 0.332 0.57 0.72 0.68 1.162 0.148 0.31 0.383 0.602 0.37 0.966 0 0.416 0.234 0.787 0.22 1.206 0.013 0.56 0.012 1.145-0.192 1.674-0.14 0.294-0.42 0.47-0.607 0.733-0.318 0.296-0.67 0.58-1.08 0.737-0.288 0.092-0.456 0.426-0.818 0.345-0.514 0.01-1.037 0.08-1.547-0.004 0.032 0.054-0.156-0.092-0.125-0.058zm-6.85 0.45c-0.243-0.25-0.295-0.355-0.298-0.6-0.003-0.248 0.045-0.346 0.282-0.586 0.44-0.443 0.653-0.453 1.41-0.07 0.722 0.365 0.967 0.4 1.032 0.14 0.062-0.25 0.478-0.48 0.874-0.48a0.82 0.82 0 0 1 0.592 0.202c0.25 0.196 0.263 0.227 0.27 0.68 0.004 0.463-0.002 0.48-0.29 0.736-0.278 0.244-0.323 0.26-0.666 0.224-0.437-0.043-0.7-0.244-0.77-0.588-0.052-0.25-0.14-0.31-0.206-0.14-0.02 0.055-0.13 0.122-0.24 0.15-0.203 0.05-0.548 0.268-0.793 0.5-0.093 0.087-0.255 0.128-0.52 0.13-0.354 0.004-0.404-0.017-0.677-0.298zm-19.82-8.9c-0.665 0.007-1.38 0.566-1.47 1.22 0.153 0.75 0.778 1.488 0.376 2.28 0.278 1.013-0.76 1.397-1.47 0.813-0.426-0.972-0.642-2.036-1.28-2.907-0.804-0.227-1.154 1.057-1.72 1.5 0.28 0.755 1.097 1.433 1.19 2.375 0.194 0.916-0.362 1.932-1.157 2.407-0.687 0.655-1.627 0.42-2.47 0.563-1.024 0.6 0.752 0.818 1.22 0.844 1.046 0.106 2.134-0.032 2.905-0.813 0.77-0.366 0.71-1.696 1.625-1.843 1.588-0.07 3.163 0.244 4.75 0.282 0.85 0.202 2.163-0.102 2.75 0.53 0.002 1.107 0.94 1.79 1.844 2.22 0.498 0.137 1.024-0.48 1.53-0.595 0.966-0.308 0.673-1.502 1.25-1.97 1.65-0.088 3.317-0.07 4.97-0.093 0.314 0.008 0.407-0.44 0.625-0.625-0.038-0.638-0.06-1.272-0.158-1.906-0.318-0.805 0.052-1.843-0.53-2.53-0.83-0.226-1.537 0.534-2.376 0.594-0.926 0.412-1.706 1.268-1.75 2.312-0.548 0.897-1.427-0.16-1.125-0.906-0.033-0.325 0.072-0.704-0.03-1-0.507-0.608-1.395-0.41-2.094-0.5-1.018 0.04-2.012-0.18-3.03-0.156-0.894-0.068-1.823 0.078-2.688-0.156-1.032-0.03-0.89-1.04-1.063-1.75a1.018 1.018 0 0 0 -0.625 -0.188zm2 3.688c0.343 0.006 0.667 0.05 1 0.093 0.43 0.072 0.89-0.147 1.313 0 0.976 0.167 1.953 0.128 2.937 0.22 0.26-0.004 0.446 0.185 0.625 0.344 0.002 0.683 0 1.38 0 2.062-0.03 0.258 0.076 0.598-0.156 0.78a0.7 0.7 0 0 1 -0.25 0.126c-0.272-0.07-0.56-0.247-0.69-0.5-0.04-0.357 0.02-0.704 0.032-1.062-0.007-0.093 0.04-0.237 0-0.313a1.248 1.248 0 0 0 -0.718 -0.25c-0.85-0.03-1.682-0.09-2.53-0.125-0.708-0.044-1.435 0.06-2.127-0.125-0.268-0.097-0.617-0.064-0.78-0.343-0.235-0.273 0.103-0.597 0.343-0.72a2.28 2.28 0 0 1 1 -0.187zm11.28 0.25c0.16-0.003 0.21 0.05 0.282 0.343 0.046 0.19 0.1 0.418 0.125 0.5 0.037 0.12-0.022 0.157-0.187 0.22-0.494 0.186-0.986 0.168-1.156-0.063-0.078-0.104 0.012-0.434 0.156-0.562 0.29-0.26 0.61-0.437 0.78-0.438z"/>
</g>
</g>
<path stroke-width="1.15" d="m449.98 327.23c32.642-25.106 29.843-61.883 29.843-61.883-0.86 0.172-1.68 0.258-2.54 0.258-6.848 0-23.18-3.917-26.99-8.892-4.08 4.503-20.77 8.892-27.573 8.892-0.86 0-1.722-0.086-2.54-0.258 0 0-2.843 36.776 29.8 61.883z"/>
<path stroke-width=".916" d="m477.22 268.04c-0.28 0.018-0.563 0.026-0.848 0.026-6.205 0-20.62-3.183-26.175-7.957-5.82 4.41-20.47 7.956-26.576 7.956a4.7 4.7 0 0 1 -0.848 -0.086c-0.015 1.39 0.058 2.832 0.144 4.144 0.323 4.9 1.183 9.82 2.488 14.552 4.108 14.895 12.516 27.553 24.572 37.155 12.066-9.61 20.484-22.28 24.6-37.185 1.308-4.732 2.17-9.65 2.496-14.55 0.086-1.285 0.157-2.692 0.148-4.055z"/>
<path stroke="none" d="m439.38 265.03c-5.872 1.845-12.23 3.03-15.75 3.03-0.286 0-0.563-0.04-0.844-0.093-0.014 1.39 0.07 2.846 0.156 4.157 0.323 4.9 1.164 9.8 2.47 14.53 2.764 10.026 7.506 19.033 13.968 26.782v-48.41zm20.62-0.09v49.25c6.794-7.92 11.733-17.206 14.594-27.562a72.952 72.952 0 0 0 2.47 -14.53c0.084-1.285 0.165-2.7 0.155-4.064-0.282 0.018-0.56 0.032-0.845 0.032-3.73 0-10.42-1.17-16.375-3.125z" fill="#c09300"/>
<g stroke-width="1.27">
<path stroke-width="1.218" d="m462.31 253.09c0.667 0.04-0.902-3.568-0.902-3.568 1.765 1.804 8.43 2.235 8.43 2.235-4-1.766-7.998-15.096-7.528-25.72 0.432-10.665-1.528-14.86-3.097-16.43-2-2-8.43-3.763-12.664-3.998-2.393-0.12-2 1.802-2 1.802-4.43-1.137-8.86-1.568-10.862-0.235-1.882 1.255-2.274 7.528-0.9 6.43 3.33-2.666 6.233-0.235 8.232 2.666 1.764 2.55 1.647 9.763-0.902 18.192-2.666 8.86-9.96 17.722-9.96 17.722 3.96 0 9.53-3.528 9.53-3.528l-1.334 5.527c4.195-2 7.528-5.097 7.528-5.097l4 4.195c1.332-1.764 3.998-4.195 3.998-4.195s3.333 3.53 8.43 4z"/>
<path d="m446.12 227.57s-2.235 16.428-6.43 21.094m9.96-21.52s-0.863 16.623-3.764 21.956m6.89-21.29s0 18.192 1.098 21.29m2.86-20.39s0.902 15.29 4.666 20.82" fill="none"/>
<path stroke-width=".354" d="m442.08 219.61c-0.196-1.45-0.55-2.588-1.06-3.333-1.998-2.9-4.9-5.332-8.232-2.666 0 0 1.137-3.528 3.568-3.645 1.882-0.118 6.155 1.41 9.92 7.84 0 0-2.784-0.626-3.45-0.038-1.256 1.098-0.746 1.843-0.746 1.843z" fill="#c09300"/>
<path stroke-width=".354" d="m432.44 209.26c0.274-0.902 0.706-1.725 1.255-2.078 2-1.333 6.43-0.902 10.86 0.235 0 0-0.392-1.92 2-1.803 4.234 0.235 10.664 2 12.663 4 0.47 0.51 1.02 1.254 1.49 2.39h-0.078c-0.98-1.372-3.764-1.293-4.43-1.215-1.06 0.117-1.726 0.077-3.138 0.43-0.666 0.157-1.686 0.353-2.235 0.784-0.43 0.353-0.784 1.647-1.45 1.647-1.06 0-0.98-0.273-1.255-0.587-0.353-0.43-0.55-1.06-0.902-1.02-1.097 0.197-2.862-0.666-5.096-2.43-2.235-1.765-3.098-2.196-6-2-2.86 0.235-3.763 1.843-3.763 1.843l0.08-0.196z" fill="#c09300"/>
<circle cy="210.67" cx="448.82" r="1.176" stroke="none"/>
</g>
</g>
</svg>
