<svg id="eritrea_flag" viewBox="0 0 1000 500" xmlns="http://www.w3.org/2000/svg">
<rect width="1e3" fill="#ea0437" height="500"/>
<path d="m0 500h1e3v-250" fill="#4189dd"/>
<path d="m0 0h1e3v250" fill="#12ad2b"/>
<path d="m230.25 369.16c-10.81 2.9849-17.008 11.372-16.849 19.285l53.211-0.21363c0.47814-8.5029-6.5171-16.367-17.167-19.464 52.098-1.0763 97.357-20.591 105.58-33.112-8.1387-3.5322-17.549 2.1527-24.257 0.84438 15.927-7.3614 63.646-38.248 55.888-71.36-6.0308 18.391-24.3 33.609-32.081 37.694 17.826-27.067 42.166-55.247 21.049-77.069 1.0662 12.647-8.037 26.567-12.057 27.612 10.34-28.599 20.206-64.507-2.1974-88.178 2.9421 8.5558 1.7539 32.691-2.2972 33.776-1.2472-19.447-4.5658-60.352-25.047-59.77 6.5048 5.7907 9.3513 21.596 9.4958 37.56-4.6675-10.936-9.9719-19.171-21.317-27.246-9.1784-17.602-25.509-32.186-41.841-42.634 1.8332 12.812 3.3511 22.921 21.24 36.209-9.3269-0.57988-18.652-18.261-28.62-18.752-7.9291-0.38252-14.151 7.1844-27.108 2.8302 1.4344 4.2769 7.4794 6.1712 8.7552 9.3351-2.7753 1.9167-9.3635-0.2991-14.841-3.1517 7.5344 10.263 19.209 16.298 29.12 14.261 11.787-2.2666 24.424-1.0682 36.478 5.7907-3.0785 1.5809-15.061 1.5708-22.75 0.60837 6.9891 7.0766 11.677 11.766 23.83 11.689 10.855-0.0712 16.546-5.7907 19.333-2.2483 6.808 8.0675 11.39 16.131 17.085 25.629-12.58 1.3897-8.7877-14.228-22.798-22.217-7.8721 16.294 9.0543 35.609 20.577 43.638 0.15464 12.247 1.9452 22.493 7.1396 31.818 3.5017 6.574 8.0288 13.303 6.3217 28.139-6.8975-5.0236-13.638-21.966-11.158-35.415-8.6331 2.3541-12.009 17.535-7.9393 25.177 3.0398 5.8171 5.0684 16.951 1.5626 21.928-3.4162 4.637-3.7743 4.1182-3.7296 14.07 0.12208 5.9555-3.2046 12.997-8.6229 17.907 1.1313-4.1955 2.4213-11.414 1.1679-15.927-4.283 7.2658-15.028 14.784-18.412 22.595-3.3226 7.8294-4.165 21.39-20.245 24.518-20.686 4.106-27.826 7.6911-41.137 13.138-1.4772-10.11 2.9442-31.194 11.398-29.991 8.2546 1.469 33.281-8.6229 24.329-29.706-1.7681 6.6452-7.6666 13.13-14.043 13.417 6.8894-8.9383 19.185-18.194 13.197-33.171-3.3287 6.3665-8.5639 14.007-16.503 18.306 8.511-16.31 0.98885-21.189-9.1174-7.7562-3.817 5.1823-6.1223 15.567-8.5476 28.756-3.9696-10.727-3.7072-24.847-8.4113-36.313-4.9137-12.399 6.5211-15.673 11.903-14.678 13.177 3.518 35.198 3.5159 33.562-18.253-5.691 7.3635-15.671 9.6382-26.449 6.987 12.104-8.8386 21.661-25.464 8.1733-34.144-0.44966 9.2048-7.573 19.525-17.083 24.278-2.2259-7.7663-2.2259-16.009-0.3174-25.045-5.3105 5.5892-9.1886 17.219-12.273 30.441-0.23196-13.069 2.2402-22.485 4.0734-29.515 2.7794-10.269 9.6871-3.5871 20.261-2.8302 10.184 0.57784 24.204-5.05 21.525-18.859-3.4772 5.4631-10.615 7.5893-17.907 7.0115 8.7796-5.3186 24.076-14.77 15.687-29.307-3.524 5.5058-4.6655 10.216-14.865 11.905 2.6715-6.1447 3.1151-14.833 11.032-18.275-14.123-2.8119-22.208 6.456-26.318 20.971-1.6664-10.063-3.6502-13.769-4.0449-21.13 7.6341-8.4785 8.4337-25.065-8.0939-28.774-0.98072 8.5558-0.68976 10.595 1.1903 17.561-7.7582-4.6085-18.692-7.1519-25.973-0.63481 4.932 5.3227 12.566 10.009 24.333 4.2036-2.7794 9.0929-10.009 7.5364-19.942 4.0693 6.0715 11.404 13.734 13.431 22.19 12.116 4.4274 11.673 4.6228 20.542-8.3157 37.542 0.59819-10.564-0.15259-18.434-8.5456-26.976-7.1926-7.044-13.038 0.30114-1.7986 15.962-6.8182-5.0216-14.536-15.213-16.859-25.403-2.2483 12.588-0.22381 27.425 6.7449 35.743-3.2962 3.522-7.044-0.37439-12.588-8.9912 2.0978 27.576 13.862 32.897 29.674 26.75 0.44966 15.136 0.44966 29.151 1.349 47.434-9.2191-13.262-20.906-23.155-27.427-25.627-2.0225 7.4184 5.6218 17.083 9.8926 22.479-6.5191-1.349-20.682-12.139-20.682-12.139-1.4243 12.289 14.464 23.679 24.729 28.774-12.064-0.52495-17.386-5.0948-25.179-12.588 0.15057 34.095 36.941 28.174 43.837 22.929 0.89933 16.786 2.1812 36.191 3.0805 52.977-10.401-1.8149-9.5833-4.9422-18.483-5.7663-24.701-0.9624-44.295-29.651-50.783-50.755-1.8617 3.4732-0.38456 7.1071-2.0876 11.374-4.0103-10.358-9.1336-23.736-16.005-29.963 1.7498 6.0389 1.935 12.175 1.3266 23.462-2.3582-7.3126-4.5516-9.5548-4.7103-18.139 0.15057-6.5903 6.3583-11.453 6.0145-20.723-0.25434-6.7673-6.4275-21.435-7.335-32.791-2.9889 11.687-4.8649 24.007-9.4429 31.242 2.2748-12.481 1.5455-21.093 5.3939-29.493 4.4458-8.8427 8.2262-16.737 5.2657-25.661-2.8384 3.4467-1.8617 6.5781-8.993 14.953-1.549-9.1072 9.2209-23.684 19.673-29.543 7.3716-3.8842 16.664-17.777 10.611-27.299-6.9321 4.9788-10.045 11.705-19.838 23.199 6.985-27.305 25.134-34.449 46.862-34.543 4.8079-0.0224 14.501-1.758 17.221-8.1204-6.1244 2.3643-13.366 2.6654-19.81 1.3754 4.6899-6.8853 14.566-5.9901 23.769-6.0308 7.219-0.0346 18.489-1.0133 23.045-11.294-8.806 3.815-22.54 4.6085-31.187 1.9065 13.752-7.1254 35.293-7.8925 46.342-17.244-12.593-9.3981-44.103 2.1893-64.007 15.84 5.5628-5.0867 14.355-14.11 19.205-21.395-10.885-5.2189-38.415 25.279-47.898 43.399-9.0075 5.0867-12.611 13.061-16.108 18.625 4.7998-16.218 5.3084-27.987 9.3127-41.342-30.877 10.629-18.043 67.679-24.759 81.328 0.79047-15.069 0.15036-34.427-6.0536-44.409-9.5104 7.2556-10.278 49.959-1.349 85.511-3.2243-9.5141-9.31-18.395-11.262-29.975-14.075 25.671 8.2512 55.957 26.921 79.881-14.055-7.3207-27.952-23.067-37.08-36.268 2.5195 45.947 50.501 55.494 57.95 66.786-10.11-4.7062-29.439-14.019-37.641-4.2606 13.352 3.0825 24.002 6.6452 32.584 12.271 12.452 15.547 36.032 22.347 77.098 24.064z" fill="#ffc726"/>
</svg>
