<svg viewBox="0 0 1000 500" xmlns="http://www.w3.org/2000/svg">
<path fill="#ea0437" d="M0 0h1000v500H0z"/>
<path d="M0 500h1000V250" fill="#4189dd"/>
<path d="M0 0h1000v250" fill="#12ad2b"/>
<path d="M230.25 369.16c-10.81 2.985-17.008 11.372-16.85 19.285l53.212-.214c.478-8.5-6.517-16.36-17.167-19.46 52.098-1.07 97.357-20.59 105.58-33.11-8.14-3.53-17.55 2.16-24.257.85 15.927-7.36 63.646-38.24 55.888-71.36-6.03 18.39-24.3 33.61-32.08 37.7 17.825-27.06 42.165-55.24 21.048-77.07 1.066 12.65-8.037 26.57-12.057 27.62 10.34-28.6 20.206-64.5-2.197-88.17 2.942 8.56 1.753 32.69-2.298 33.78-1.247-19.44-4.565-60.35-25.047-59.77 6.505 5.79 9.352 21.6 9.496 37.56-4.66-10.93-9.97-19.17-21.31-27.24-9.18-17.6-25.51-32.19-41.84-42.63 1.83 12.81 3.35 22.92 21.24 36.21-9.33-.58-18.65-18.26-28.62-18.75-7.93-.38-14.15 7.19-27.11 2.83 1.44 4.28 7.48 6.17 8.76 9.34-2.77 1.92-9.36-.3-14.84-3.15 7.54 10.27 19.21 16.3 29.12 14.26 11.79-2.26 24.43-1.06 36.48 5.79-3.07 1.58-15.06 1.57-22.75.61 6.99 7.08 11.68 11.77 23.83 11.69 10.86-.07 16.55-5.79 19.34-2.25 6.81 8.07 11.39 16.13 17.09 25.63-12.58 1.39-8.79-14.23-22.8-22.21-7.87 16.3 9.06 35.61 20.58 43.64.16 12.25 1.95 22.49 7.14 31.82 3.51 6.57 8.03 13.3 6.33 28.14-6.9-5.03-13.64-21.97-11.16-35.42-8.63 2.35-12.01 17.53-7.94 25.18 3.04 5.82 5.07 16.95 1.56 21.93-3.41 4.64-3.77 4.12-3.73 14.07.13 5.96-3.2 13-8.62 17.91 1.13-4.2 2.42-11.41 1.17-15.93-4.28 7.27-15.02 14.79-18.41 22.6-3.32 7.83-4.16 21.39-20.24 24.52-20.69 4.11-27.83 7.69-41.14 13.14-1.47-10.11 2.95-31.19 11.4-29.99 8.26 1.47 33.28-8.62 24.33-29.7-1.77 6.65-7.66 13.13-14.04 13.42 6.89-8.94 19.19-18.19 13.2-33.17-3.33 6.37-8.56 14.01-16.5 18.31 8.51-16.31.99-21.19-9.12-7.76-3.81 5.18-6.12 15.57-8.55 28.76-3.97-10.73-3.7-24.85-8.41-36.31-4.91-12.4 6.52-15.67 11.91-14.68 13.18 3.52 35.2 3.52 33.56-18.25-5.69 7.36-15.67 9.64-26.45 6.99 12.11-8.84 21.66-25.46 8.18-34.14-.45 9.2-7.57 19.52-17.08 24.28-2.22-7.77-2.22-16.01-.32-25.05-5.31 5.59-9.19 17.22-12.27 30.44-.23-13.07 2.24-22.48 4.08-29.51 2.78-10.27 9.69-3.58 20.26-2.83 10.19.58 24.21-5.05 21.53-18.86-3.48 5.47-10.61 7.59-17.91 7.01 8.78-5.32 24.08-14.77 15.69-29.31-3.52 5.51-4.66 10.22-14.86 11.91 2.67-6.14 3.12-14.83 11.03-18.27-14.12-2.81-22.2 6.46-26.31 20.97-1.67-10.06-3.65-13.77-4.05-21.13 7.64-8.48 8.44-25.06-8.09-28.77-.98 8.55-.69 10.59 1.19 17.56-7.75-4.61-18.69-7.15-25.97-.64 4.93 5.32 12.57 10.01 24.33 4.21-2.78 9.09-10.01 7.54-19.94 4.07 6.07 11.41 13.74 13.43 22.19 12.12 4.43 11.67 4.63 20.54-8.31 37.54.6-10.57-.15-18.44-8.54-26.98-7.19-7.04-13.03.3-1.8 15.97-6.81-5.02-14.53-15.21-16.85-25.4-2.25 12.59-.22 27.42 6.75 35.74-3.29 3.52-7.04-.37-12.59-8.99 2.1 27.57 13.86 32.9 29.68 26.75.45 15.13.45 29.15 1.35 47.43-9.22-13.27-20.91-23.16-27.43-25.63-2.02 7.42 5.62 17.08 9.89 22.48-6.52-1.35-20.68-12.14-20.68-12.14-1.42 12.29 14.47 23.68 24.73 28.77-12.06-.522-17.39-5.092-25.18-12.59.15 34.1 36.94 28.18 43.84 22.93.9 16.79 2.18 36.19 3.08 52.98-10.4-1.82-9.58-4.94-18.48-5.77-24.7-.96-44.29-29.65-50.78-50.75-1.86 3.478-.38 7.11-2.09 11.38-4.01-10.36-9.13-23.74-16-29.96 1.75 6.04 1.94 12.17 1.33 23.46-2.36-7.32-4.55-9.56-4.71-18.14.15-6.59 6.36-11.45 6.02-20.72-.25-6.77-6.43-21.44-7.33-32.79-2.99 11.68-4.86 24-9.44 31.24 2.28-12.48 1.55-21.09 5.4-29.49 4.44-8.85 8.22-16.74 5.26-25.66-2.84 3.44-1.86 6.57-8.99 14.95-1.55-9.11 9.22-23.69 19.68-29.55 7.37-3.89 16.67-17.78 10.61-27.3-6.93 4.98-10.04 11.7-19.83 23.2 6.99-27.31 25.14-34.45 46.86-34.545 4.81-.02 14.5-1.76 17.22-8.12-6.12 2.36-13.36 2.66-19.81 1.37 4.69-6.89 14.57-5.99 23.77-6.03 7.22-.04 18.49-1.02 23.05-11.3-8.8 3.81-22.54 4.61-31.19 1.9 13.75-7.12 35.3-7.89 46.34-17.24-12.59-9.4-44.1 2.19-64 15.84 5.56-5.09 14.35-14.11 19.2-21.4-10.88-5.22-38.41 25.28-47.9 43.4-9.01 5.08-12.61 13.06-16.11 18.62 4.8-16.22 5.31-27.99 9.32-41.345-30.88 10.63-18.04 67.68-24.76 81.33.79-15.07.15-34.43-6.05-44.41-9.51 7.25-10.28 49.96-1.35 85.51-3.23-9.52-9.31-18.4-11.26-29.98-14.08 25.67 8.25 55.96 26.92 79.88-14.06-7.32-27.95-23.06-37.08-36.27 2.52 45.95 50.5 55.5 57.95 66.79-10.11-4.7-29.44-14.02-37.64-4.26 13.35 3.08 24 6.65 32.58 12.27 12.45 15.55 36.03 22.35 77.1 24.07z" fill="#ffc726"/>
</svg>
