<svg xmlns="http://www.w3.org/2000/svg" viewBox="0 0 1200 600">
<clipPath id="a">
<path d="M0 0v150h700v150H600zm0 300v100h300V0h300z"/>
</clipPath>
<path fill="#002868" d="M0 0h1200v600H0z"/>
<path stroke="#fff" stroke-width="60" d="M0 0l600 300M0 300L600 0"/>
<path stroke="#ce1126" stroke-width="40" d="M0 0l600 300M0 300L600 0" clip-path="url(#a)"/>
<path stroke="#fff" stroke-width="100" d="M300 0v400M0 150h700"/>
<path stroke="#ce1126" stroke-width="60" d="M300 0v400M0 150h700"/>
<path d="M0 300h600V0h600v600H0z" fill="#68bfe5"/>
<g stroke-miterlimit="4.8">
<path d="M778.8 143.94v205.09c0 67.08 121.2 106.91 121.2 106.91s121.2-39.833 121.2-106.91V143.94z" fill="#fff"/>
<path d="M883.2 216v92.344H778.8v33.6h104.4v107.6l16.8 6.396 16.8-6.396v-107.6h104.4v-33.6H916.8V216z" fill="#d21034"/>
<path d="M778.8 143.94h242.4v79.2H778.8z" fill="#d21034"/>
<g stroke-miterlimit="3">
<g stroke="#000" stroke-width=".805" fill="#fff">
<ellipse cx="798.23" cy="192.21" stroke-width=".803" rx="13.623" ry="10.962"/>
<ellipse cy="186.52" cx="798.23" rx="12.114" ry="6.123"/>
<ellipse cy="198.77" cx="798.23" rx="12.114" ry="6.123"/>
<ellipse cy="192.21" cx="798.23" rx="12.114" ry="6.123"/>
</g>
<path stroke="#000" stroke-width="1.2" d="M1015.2 207.43l-1.985-5.476s-5.433-2.216-5.847-5.102c-.968-7.694-3.714-10.578-7.83-11.678-4.125-1.1-6.868.69-6.868.69-1.24 1.786-7.426 1.786-10.86 1.92-3.433.14-3.492-1.492-3.492-1.492-2.668.02-3.79-1.94-3.79-1.94-1.746-3.488-3.045-4.793-3.908-5.234 4.457.066 7.813-1.99 12.844-7.27 5.493-5.772 9.415-3.54 9.415-3.54-2.67 5.39.88 4.913.88 4.913 7.28-3.7.96-13.05-1.24-12.63-2.2.41-2.83-1.07-2.83-1.07.06 1.68-2.44 2.35-2.44 2.35 1.88-10.67-4.49-13.5-4.49-13.5-.97.96-1.52 2.89-1.52 2.89-1.79 6.46-7.69 5.5-14.29 2.34-6.6-3.16-24.18 3.3-29.68 5.5s-15.53 5.64-24.6.55c-9.06-5.09-11.27-4.12-14.84-3.16-3.58.96-9.89 2.48-12.23 1.24s-5-1.31-5-1.31c.63-.35-.36-1.84-.36-1.84-2.75-3.71.36-5.98.36-5.98s-5.12 1.44-3.08 10.17l.93 1.31s.68 2.75 2.2 3.57l-.06.6s1.29-.6 1.7 1.19c.42 1.79 2.34.14 3.16-1.37 0 0-1.38 7.97 8.52 9.89 0 0-1.11-1.24-.69-2.07.41-.82-1.24-1.51-1.1-2.75.14-1.23-2.47-1.78-.41-2.75 2.06-.96 3.03-2.89 7.42-.28s7.84 2.07 7.84 2.07-2.68-5.5-1.21-5.5c1.48 0 8.12 8.23 11.4 7.82 3.27-.4 9.59-4.11 12.75-2.74 0 0 .27-1.65 12.36-3.71s27.01-8.09 32.6-2.81c0 0 .66 4.19 2.99 5.29 0 0-.42 8.66-15.38 3.85l-5.43-1.43s-.84-2.63-29.31 4.69-1.67.58-2.77 1.41c-1.1.82-2.61-.42-8.25 1.64-5.63 2.07-26.66 8.94-39.57 6.46l-.02.04c-2.85-.85-5.51-.41-5.62-.86-.14-.55 1.51.14 1.51.14-.96-1.1-1.38-1.19-1.38-1.19-10.86-1.19-8.94-6.09-8.94-6.09l.55 1.51c1.78-2.33-.7-7.83-.7-7.83l-.1.02a5.68 5.68 0 0 0-.1-.5l.9-.62c5.22-4.39 11.27-5.22 11.27-5.22-3.58-4.39-11.13-2.05-11.13-2.05.14-5.36-2.05-11.54-2.05-11.54-7.43.83-11.68 7.01-11.68 7.01-.28-5.49-7.29-8.65-7.29-8.65 2.61 3.16.96 10.72.96 10.72l.28.14c-.44-.01-.69 0-.69 0l-.16 1.62-.26-.11s-2.61.96-5.63 7.83-.31 1.63-1.47 3.09c-.01-.19.01-.36-.02-.56 0 0-3.38 4.43-11.18 0 0 0-10.6-6.28-14.32-6.05-3.72.23-6.17 1.98-5.94 3.03 0 0-8.51-.7-11.42 4.19 0 0-6.4 2.33-.93 7.57 0 0 .73 2.28 2.33 3.5 0 0-.23-4.78.93-3.38 0 0 .3.47.87.8.15.67.67 2.54 1.8 3.48l.82-.26c.12-1.19.38-2.7.64-3.33l.27.04c-.04.04-.07.06-.11.09l1.51 2.33 1.74-.93c.81-.12 1.86.7 1.86.7l1.98-1.63c-.01-.02-.03-.02-.04-.04 1.95.33 2.48-3.45 2.48-3.45 1.75.46 3.39-.05 4.78-.9.85 3.13 7.79 6.5 7.79 6.5l.3-.02c-.59.38-.94.66-.94.66 3.16 2.2 9.07 1.65 9.07 1.65-2.47.97-2.12 5.54-2.12 5.54-1.44.59-1.58 2.02-1.58 2.02 4.81 1.92 8.1.33 8.1.33.26 1.57-.13 1.73-.13 1.73-1.92 4.12-2.75 8.11-2.75 8.11.04.02.09.03.13.04-.06.11-.14.22-.18.33 0 0-8.39 2.91-12.11 6.98 0 0-.35-1.17-1.4-1.17-1.05 0-4.31-2.68-5.83-3.14-1.51-.46-3.72.47-4.31-.23-.53-.63-.29-5.4-1.3-6.17l.02.01-1.05-2.91c-.69 1.51-3.6 1.16-3.6 1.16-.12.07-.56.39-1.2.87-.58.03-1.25-.17-1.25-.17-.3.06-.59.9-.81 1.71a15.4 15.4 0 0 0-.35.26v-.9c-.58.47-1.75-.23-2.22-.23-.22 0-.51.67-.73 1.35-1.19.22-2.76.28-2.76.28-.47.24-.12 3.85-.12 3.85-3.38 1.87-1.75 4.66-1.75 4.66 1.86 9.09 17.35 5.01 18.51 6.18 1.16 1.17 3.84 1.4 5.24 1.4 1.4 0 3.14 3.38 5.12 3.73 1.98.35 0-2.67 9.19-4.87 9.18-2.19 12.24-5.96 12.24-5.96 2.87-.55 3.67-4.05 3.89-5.46a28 28 0 0 0 .21 2.19c.42 3.16-1.77 4.32-1.77 4.32l7.96-2.39c3.15-.82 2.74-3.57 2.74-3.57 3.03 8.66 8.52 9.21 8.52 9.21 1.1-3.3.97-4.26.97-4.26l2.47-.13c.1-1.87-1.54-3.23-2.5-3.86l3.87 2.35 1.51-.27c0 1.37 2.07 2.61 2.07 2.61l.27-1.79c1.79 2.33 5.08 1.51 5.08 1.51a11.04 11.04 0 0 0-.29-1.29c7.04 4.34 18.29-1.19 18.29-1.19 3.02.69 3.43-1.1 3.43-1.1 3.44.41 4.23-1.94 4.23-1.94 8.09-.7 13.78-6.45 13.78-6.45 3.98-.27 4.11-3.12 4.11-3.12s3.99.79 7.84-4.02c8.93-12.78 22.28-6.12 22.28-6.12l-7.72.48c-20.19-.13-11.82 13.6-11.82 13.6l1.25-.13c1.92.41 8.51 5.63 6.08 9.52-.04.07-.09.13-.14.19-4.12 5.63-11.74.26-13.91-4.5-2.2-4.81-6.6-3.71-6.6-3.71s-11.4 1.92-6.73 10.99h.17c.09 2.22 1.47 4.74 5.54 7.24 2.29 3.23 9.8 3.57 15.31 2.38 2.57-.56 16.12-6.39 16.12-6.39.99-2.95 4.36-2.27 7.38-6.53s-4.26-5.77-5.91-8.1c-1.65-2.34.41-1.93.41-1.93 6.59 3.57 7.14-7.84 7.14-7.84.69 6.6 6.46 8.38 6.46 8.38 3.57-3.57.97-10.85.97-10.85 8.52 15.25 13.68 12.82 13.68 12.82-4.58-2.84-2.27-6.64-2.27-6.64 4.11 16.21 21.02 2.06 21.02 2.06-.83 2.33 0 3.7 1.51 5.21 1.51 1.51 3.3 2.2 2.48 4.95-.83 2.75-8.66 2.2-8.66 2.2s-7.69-.41-7 6.04c.4 1.51 5.49 2.06 7.41 1.65 0 0-.8.17 2.05.55.95.12 2.1.14 3.27.11 3.28-.1 6.77-.66 6.77-.66 4.39-.96 3.71-2.48 3.71-2.48 6.73-1.24 7.42-5.78 7.42-5.78z" fill="#ffd100"/>
<path d="M791.95 179.3c.005-.007.36-.848 1.04-.95.522-.077 1.157.31 1.828 1.125l.367-.276c-.015-.03-1.813-2.65-1.097-4.5.32-.83 1.114-1.39 2.357-1.67l-.1-.45c-1.403.32-2.306.98-2.686 1.96a3.07 3.07 0 0 0-.21 1.13c0 .9.32 1.82.64 2.52-.41-.26-.81-.36-1.19-.31-.69.1-1.03.6-1.21.92zM1004 215.28c-4.59.728-11.328 1.132-11.864-.257-.094-.247-.11-1.238 3.648-3.685l-.438-.673c-3.136 2.042-4.398 3.518-3.96 4.646.962 2.5 10.8 1.08 12.763.76zm-87.8 2.65c-1.046-1.6-.576-3.793 1.398-6.523l-.65-.47c-2.194 3.02-2.672 5.524-1.422 7.435z"/>
<path d="M910 211.02c.1 2.768 2.056 5.34 5.8 7.632l.42-.686c-3.504-2.144-5.322-4.49-5.417-6.974-.138-3.812 3.89-6.752 3.93-6.783l-.47-.66c-.182.13-4.42 3.21-4.263 7.46zm78.29 1.03c-1.26 1.86-.838 4.11-.82 4.205l.788-.155c-.007-.022-.372-2.026.703-3.604.65-.95 1.69-1.564 3.1-1.832l-.14-.79c-1.63.31-2.85 1.04-3.62 2.176zm-179.37-35.16l-.248-.062-.034.255c-.007.025-.358 2.464-1.464 3.127-.31.185-.643.206-1.028.065l-1.878-1.142c-.375-.33-.696-.573-1.238-.414-.108-.14-.538-.73-.538-1.67 0-.11.007-.22.022-.33.134-1.1.902-2.16 2.29-3.15l-.264-.38c-1.505 1.07-2.338 2.24-2.484 3.48a3.35 3.35 0 0 0 .697 2.45l.112.12.152-.07c.418-.19.54-.08.946.28l2.027 1.23c.514.19.99.15 1.422-.1 1.144-.69 1.545-2.68 1.64-3.24 4.876 1.05 8.8-4.88 8.97-5.14l-.39-.25c-.034.06-4.04 6.13-8.712 4.91z"/>
<path d="M797.23 175.98c-.244.988-.077 1.957.487 2.882.54.878 1.07 1.344 1.623 1.418.674.093 1.213-.407 1.688-.845.346-.324.674-.625.944-.605l.42.29.36-.288-.747-.46c-.472-.035-.868.332-1.29.726-.42.386-.853.793-1.314.73-.4-.056-.83-.463-1.29-1.207-.49-.81-.64-1.66-.43-2.53.53-2.17 3.13-3.77 3.16-3.79l-.23-.39c-.11.07-2.79 1.71-3.36 4.07zm-6.71 31.06c.233-.84.88-1.558 1.92-2.135-.206.02 1.018 1.015 2.068.904 0 0 .426-.23.68-.37.28.24 2.098 1.89 2.098 3.99 0 .44-.08.89-.28 1.35l.427.18c1.33-3.15-2.015-5.95-2.046-5.98l-.122-.1-.207.13-.596.32c-.86.09-1.98-.82-1.987-.83-1.41.61-2.133 1.43-2.4 2.4zm15.53-8.04c-1.004.085-3.802.62-4.715 2.07-.33.528-.38 1.108-.14 1.734l.368.977c.87 2.35 1.776 4.77 2.763 5.32l.223-.4c-.84-.46-1.75-2.91-2.56-5.07l-.37-.97c-.19-.49-.16-.93.09-1.33.75-1.19 3.26-1.76 4.36-1.85.64-.05.85 2.32.97 3.73l.45-.04c-.19-2.08-.38-4.23-1.47-4.14z"/>
<path d="M798.38 201.3c-.588.526-.47 1.318-.462 1.352.005.218.266 6.068 3.044 7.277l.183-.43c-2.514-1.1-2.767-6.85-2.77-6.9-.002-.04-.084-.62.316-.97.43-.38 1.26-.41 2.42-.09l.13-.44c-1.34-.37-2.3-.31-2.85.18z"/>
<path d="M796.18 201.78c-1.23.856-1.178 3.298-1.177 3.4l.46-.008c0-.026-.046-2.303.98-3.015.383-.264.887-.275 1.5-.027l.17-.425c-.764-.312-1.417-.287-1.933.075zm66.15-32.29c.022.038 1.31 2.945 1.31 5.305 0 .42-.198.717-.29 1.08-.053-.134-.502-1.365-.502-1.365l-.388.987c-.018.055-.526 1.384.38 2.883 1.2 1.977 4.188 3.243 8.885 3.758h-.002c0 .004.06.055.066.065-.2.026-.35.08-.39.122l-.19.16.02.4c.12.488.67.512 1.78.554.18.01.49.05.7.06l.55.15-.1-.11c1.07.07 2.27.33 3.58.82a93.25 93.25 0 0 1-1 .25l1.16.45c.09.03 8.65 3.47 12.19 6.3-1.01.87-5.3 4.08-12.74 2.24l-1.24-.3.84.96c.05.06 4.89 5.61 5.9 8.98-1.69.01-8.19-.04-10.46-1.97l-.59.53c.03.05 3.11 4.57 3.8 8.1-.89.11-3 .2-4.25-1.44l-.58-.75-.32 2.04c-.61-.46-1.37-1.14-1.37-1.87v-.48l-1.83.33-3.77-2.28a7.975 7.975 0 0 0-.6-.37l-.04-.02-.03-.02-.39.7s.45.27.58.35c.8.52 2.18 1.67 2.32 3.19l-2.45.13.04.42v.07c0 .25-.08 1.3-.85 3.68-1.16-.28-5.37-1.75-7.86-8.88l-.77.19c0 .02.01.11.01.27 0 .65-.23 2.28-2.47 2.86-.01 0-4.15 1.25-6.45 1.93.43-.62.82-1.46.82-2.69a7.1 7.1 0 0 0-.05-.84c-.14-1.04-.22-1.9-.22-2.62 0-1.5.37-2.4 1.4-3.03l-.36-.72c-.1.04-9.62 3.82-14.34 2.25.22-.92 1.02-4.16 2.63-7.62l-.21.2c.31-.13.63-.62.37-2.17l-.09-.53-.49.23c-.03.01-3.06 1.36-7.42-.24.09-.36.32-1 1.23-1.38l.27-.11-.03-.3c0-.01-.01-.21-.01-.53 0-1.18.19-3.94 1.88-4.6l-.18-.78c-.05.01-5.16.41-8.25-1.31.82-.56 2.52-1.59 4.51-1.88l.32-.05.02-.32c0-.02.01-.11.01-.26 0-.41-.16-1.22-.51-2.04 1.18.33 2.59.62 3.09.25l.17-.13-.15-3.1-.8.04.12 2.56c-.5.02-1.78-.23-3.03-.63l-1.24-.39.79 1.02c.64.83.72 1.86.73 2.33-2.79.52-4.98 2.26-5.07 2.33l-.41.34.43.31c2.4 1.67 6.15 1.81 8.08 1.77-1.14 1.28-1.33 3.42-1.33 4.49 0 .22 0 .28.01.38-1.36.74-1.57 2.12-1.58 2.18l-.03.3.28.12c4.12 1.65 6.94.85 7.9.5 0 .13.03.3.03.39 0 .38-.07.49-.07.49-2.03 4.25-2.88 8.29-2.89 8.33l-.07.33.31.12c3.83 1.53 10.71-.56 13.75-1.63-.4.69-.63 1.46-.63 2.43 0 .8.1 1.71.24 2.73.03.25.05.49.05.72 0 2.28-1.54 3.14-1.62 3.18l.31.74 7.96-2.39c1.84-.48 2.53-1.57 2.82-2.49 3.14 7.44 8.06 8.11 8.28 8.14l.32.02.1-.3c.77-2.29.95-3.45.98-4.01a439.55 439.55 0 0 0 2.47-.13l.02-.36v-.18c0-.65-.21-1.24-.49-1.76.5.3 1.37.83 1.37.83l1.31-.24c.34 1.33 1.92 2.38 2.13 2.5l.51.31s.19-1.21.26-1.74c1.96 1.76 4.75 1.23 4.88 1.2l.35-.09-.05-.36c-.4-2.69-2.2-5.89-3.27-7.6 3.49 1.59 9.85 1.47 10.17 1.46l.47-.02-.09-.47c-.56-2.82-4.09-7.27-5.57-9.04 8.2 1.54 12.61-2.71 12.79-2.9l.29-.31-.31-.28c-2.76-2.4-9.11-5.19-11.67-6.25l.89-.22-.89-.49c-2.13-1.2-4.4-1.35-5.93-1.41l-.01-.01c-.97-1.11-1.47-1.29-1.59-1.31-5.55-.61-7.58-2.17-8.32-3.37-.06-.1-.03-.17-.07-.26l.24-.32c.53-.7.72-1.63.72-2.62 0-2.54-1.29-5.45-1.37-5.62l-.74.33z"/>
<path d="M836.8 167.86c-.017.08-.608 3.12-3.196 4.543-1.947 1.07-4.52.982-7.64-.266l-.35-.14.037.376c.01.078.22 1.864 1.9 3.172 1.4 1.092 3.41 1.475 5.92 1.2-.84.998-3.54 4.452-3.54 7.802 0 .177.01.354.03.528.35.247 4.58 1.395 6.55-1.116.07 1.07.38 4.52 1.73 5.86.74.73.91 1.8.91 2.66 0 .77-.14 1.37-.14 1.38l-.15.61.51-.37c.17-.12 4.06-2.98 5.3-6.71 0 .01.63-.94 1.83-1.33a3.32 3.32 0 0 0-.04.56c0 1.44.63 4.06 4.84 5.67l.35.13-.03-.37a7.135 7.135 0 0 1-.03-.73c0-1.06.15-2.99 1.15-4a2.82 2.82 0 0 0 .86-2.05 3.43 3.43 0 0 0-.23-1.22c.85.21 2.86.86 3.67 2.39 1.19 2.22 5.34.45 5.52.38l-.14-.44c-.02 0-1.75.39-2.84-.36-.48-.33-.77-.84-.87-1.52l-.19-2.31c-.04-1.05-.19-1.71-.71-2.27.55-.05 1.65-.03 2.12 1 .74 1.62 3.25 1.77 3.36 1.78l.86.04-.72-.47c-.03-.01-2.2-1.46-1.83-3.34l.31-1.38c.59-2.48 1.58-6.63.78-9.18l-.44.14c.2.63.28 1.39.28 2.19 0 2.26-.64 4.94-1.07 6.74l-.32 1.39a2.49 2.49 0 0 0-.05.53c0 1.22.79 2.15 1.41 2.7-.74-.16-1.77-.51-2.15-1.37-.61-1.33-2.23-1.39-3.01-1.23l-.54.11.46.3c.73.49.75 1.05.81 2.29l.2 2.36c.12.8.47 1.42 1.06 1.82.52.35 1.12.4 1.67.44-1.23.32-2.92.52-3.53-.62-1.14-2.13-4.29-2.7-4.42-2.73l-.48-.08.24.42c.02.05.35.65.35 1.42a2.38 2.38 0 0 1-.73 1.74c-1.12 1.12-1.29 3.16-1.29 4.29 0 .22.01.25.01.38-3.59-1.51-4.23-3.75-4.23-5.02 0-.54.11-.9.12-.94l.11-.36-.36.06c-1.74.29-2.47 1.71-2.5 1.77-1 2.99-3.71 5.36-4.69 6.15.03-.25.06-.54.06-.9 0-.93-.2-2.13-1.05-2.98-1.43-1.43-1.62-5.97-1.62-6.02l-.03-.82-.4.71c-1.58 2.83-6.2 1.47-6.24 1.46-.19-3.58 3.87-8.16 3.91-8.21l.43-.47-.62.09c-2.65.38-4.71.03-6.12-1.06a4.63 4.63 0 0 1-1.64-2.5c3.08 1.15 5.66 1.21 7.64.11 2.78-1.53 3.39-4.68 3.41-4.81 2.91-6.6 5.46-7.65 5.49-7.65l-.16-.43c-.11.04-2.74 1.07-5.77 7.95z"/>
<path d="M843.45 158.07l-.194.007-2.364 3.24.702.07c12.83 1.248 19.613 8.988 19.68 9.068l.295.344 2.32-2.53-.17-.26c-6.51-10.25-20.14-9.95-20.28-9.94zm.22.804c1.585.004 13.27.365 19.19 9.33-.29.314-.936 1.02-1.28 1.398-1.388-1.438-7.963-7.582-19.238-8.906.437-.602 1.164-1.6 1.328-1.822z"/>
<path d="M841.6 164.84c-1.096 1.495-2.114 3.707-2.114 4.742 0 .198.038.354.122.453.007.01.046.013.06.03-1.337 1.196-2.132 3.195-2.132 5.455 0 1.243.22 2.538.68 3.773l.258.695c1.26 3.424 2.344 6.384 7.788 4.64 5.244-1.674 5.45-2.01 6.77-4.188l.345-.564c.72-1.17 1.506-1.404 2.343-1.652 1-.3 2.034-.608 2.942-2.4l.883-1.324c.953-1.313 2.142-2.94 2.285-5.023l-.46-.03c-.132 1.95-1.28 3.517-2.197 4.78l-.922 1.387c-.82 1.616-1.71 1.884-2.66 2.167-.88.27-1.79.54-2.6 1.86l-.35.57c-1.27 2.1-1.43 2.37-6.51 4-5.02 1.61-5.94-.9-7.22-4.36l-.26-.7c-1.43-3.82-.31-7.67 1.55-9.05l.64-.47-.88.1c-.01-.04-.02-.07-.02-.13 0-.62.68-2.61 2.04-4.46 1.16-1.58 3.89-3.14 3.92-3.16l-.23-.4c-.11.07-2.84 1.63-4.05 3.29z"/>
<path d="M839.16 178.65c.9.624 2.166.58 3.692 0 .007.544.13 1.7 1.078 2.538 1.116.988 2.965 1.178 5.5.574l-.108-.446c-2.375.567-4.09.407-5.087-.47-1.072-.944-.922-2.45-.918-2.462l.042-.394-.37.155c-1.54.662-2.74.702-3.58.125-1.5-1.04-1.39-3.755-1.38-3.786l-.46-.022c0 .124-.13 3.002 1.58 4.188z"/>
<path d="M842.07 174.99c-.656.156-.827.706-.827 1.13 0 .102.01.197.024.28.115 1.18 1.398 1.968 2.563 2.305 1.133.328 2.528.35 3.077-.356.22-.29.38-.79-.1-1.62-1.75-2.98-4.58-1.81-4.737-1.75zm1.888 3.27c-1.02-.29-2.142-.952-2.232-1.932-.022-.094-.132-.752.448-.89l.046-.015c.104-.047 2.61-1.136 4.19 1.55.28.48.327.845.132 1.093-.338.44-1.454.526-2.584.195zm-1.934-3.253c.004-.004.046-.018.046-.018l-.046.01zm1.626 5.973c-.295 2.514-.115 2.574.066 2.63l.16.05.18-.212 1.456-1.92-1.828-.866-.034.318zm.42.376c.262.122.502.236.738.348-.198.253-.566.744-.845 1.11.007-.378.053-.912.108-1.458zm-4.21-2.396l-.097 2.376 1.995-2.413-1.887-.21-.01.247zm.45.266l.55.06-.584.706c.02-.37.027-.575.033-.766z"/>
<path d="M838.53 178.2c.017.03 1.484 2.9 1.745 3.947.167.665 1.015 1.422 2.027 1.797 1.008.38 1.953.318 2.66-.174l1.324-1.1c.44-.426.588-.545.945-.484l.08-.453c-.6-.1-.89.18-1.34.603l-1.27 1.058c-.78.546-1.74.313-2.24.12-.94-.35-1.63-1.028-1.74-1.48-.27-1.094-1.72-3.92-1.78-4.04l-.41.206zm1.91-8.6c-1.62.748-2.305 2.713-2.333 2.796l.435.15c.007-.018.654-1.868 2.092-2.53.702-.32 1.488-.31 2.344.026l.17-.425c-.973-.393-1.884-.396-2.708-.017zm10.89 5.16c.128.096 3.188 2.414 1.43 5.243l.39.243c1.984-3.188-1.514-5.83-1.545-5.858l-.275.372zm-9.2.45s-.476 1.73 1.957 2.34-2.288-.02-2.433-.61c-.154-.59.013-1.9.476-1.73zm7.44 2.07c0 .15-.122.274-.27.274a.275.275 0 0 1-.272-.274c0-.148.124-.27.27-.27.15 0 .272.122.272.27zm.27 1.08c0 .15-.122.275-.27.275s-.27-.125-.27-.275c0-.146.12-.27.27-.27s.27.125.27.27z"/>
<circle cy="177.82" cx="848.01" r=".27"/>
<path d="M848.75 179.45a.27.27 0 0 1-.54 0c0-.15.124-.275.27-.275.148 0 .27.123.27.275zm-7.1-7.32a.273.273 0 0 1-.546 0 .273.273 0 0 1 .546 0z"/>
<circle cy="173.22" cx="841.65" r=".27"/>
<circle cy="172.68" cx="840.09" r=".27"/>
<path d="M840.83 174.3c0 .146-.125.27-.275.27a.273.273 0 0 1 0-.546.28.28 0 0 1 .275.276zm4.74-9.55s3.518 2.165.132 6.228 1.666-1.237 1.836-3.362c.178-2.123-1.207-3.816-1.968-2.866zm13.5 5.84c-1.133.582-2.764-.496-3.58-1.514-.814-1.02-2.5-1.28-3.55.58-1.048 1.864-2.56 2.562-2.56 2.562s1.477-.872 2.998-2.503c1.512-1.627 2.385-.32 3.87.466s1.717.96 2.763.56l.06-.14z"/>
<path d="M858.78 170.86c-.463.348-1.312.64-2.212-.09-.9-.727-1.658-1.715-2.792-1.134-1.138.584-3.293 2.212-3.293 2.212s3.495-2.417 4.165-1.892c.668.526 2.243 1.805 3.202 1.43.96-.383.93-.526.93-.526z"/>
<path d="M856.1 172.34c-1.105-.844-2.212.99-3.143.76-.93-.237-1.69-1.78-1.69-1.78s.877 1.632 2.097 1.253c1.224-.377 2.07-1.135 2.824-.555.757.585-.088.322-.088.322z"/>
<path d="M854.37 172.57c-2.183.226-2.4-1.813-2.4-1.834 0 0 .69 1.78 2.62 1.457l-.22.377z"/>
<path d="M854.3 171.18c.143.552.112.803-.473.803-.588 0-.987-.196-.987-.766 0-.57 1.374-.392 1.46-.037zm-7.84-3.03c0 .38-.313.685-.7.685s-.462-.26-.462-.636.076-.73.462-.73.7.3.7.68z"/>
<path d="M844.05 165.71s3.74.04 1.888 4.72 1.425-2.33.53-4.006c-.896-1.674-2.304-1.252-2.304-1.252s-.343.317-.114.538z"/>
<path d="M843.94 167.58c-.01.938.616 1.907 1.856 2.876l.286-.36c-1.123-.876-1.69-1.72-1.682-2.506.007-.786.612-1.253.62-1.26l-.276-.37c-.032.026-.79.604-.804 1.62z"/>
<path d="M844.77 168.37c.16.54.577.946 1.244 1.212l.17-.425c-.527-.21-.855-.518-.972-.913-.237-.796.403-1.724.41-1.732l-.372-.267c-.036.048-.78 1.12-.48 2.125zm5.13 2.6s.696 1.512-.32 3.143c-1.02 1.63-.992 1.544-.992 1.544s1.224-2.24.76-3.175c-.463-.93.552-1.512.552-1.512zm14.55 15.79c3.842.724 12.51 7.52 12.6 7.59l.498-.636c-.365-.282-8.915-6.985-12.948-7.744l-.15.79zm3.41 9.59c.257 3.41 3.967 5.528 4.127 5.614l.392-.7c-.04-.018-3.5-1.996-3.72-4.975l-.8.06zm-9.21.71c0 3.824 3.584 8.45 3.738 8.647l.632-.497c-.034-.043-3.567-4.602-3.567-8.15h-.803zm-12.15.43c.632 1.262.566 1.902.403 2.215-.19.353-.58.407-.594.41l.09.8c.29-.034.88-.24 1.2-.815.38-.7.25-1.7-.39-2.964l-.72.354z"/>
<g stroke="#000" stroke-width=".36" fill="#fff">
<path d="M791.86 178.63s.233 2.56 2.212 4.08-.233-2.8.35-3.96c0-.002-1.046-1.166-2.562-.12zm3.95 1.63s.468 2.326 1.865 3.376l.82-.233s.347-2.914.813-3.262c.466-.34-1.98 1.05-3.498.12z"/>
<path d="M799.31 180.14l1.513 2.33 1.745-.932-.348-2.792s-1.046-.237-2.91 1.394z"/>
<path d="M806.41 180.61l-1.98 1.63s-1.046-.816-1.864-.7l.352-2.56s1.397-1.048 3.492 1.63zm-14.09 24.1s-.348-3.61.12-3.842 1.393.465 1.976-.12c0 0 .816 2.914.582 4.078-.23 1.163-1.628.7-2.678-.116zm8.97-3.73s-.115-3.028.466-3.38 2.91.35 3.608-1.16l1.05 2.91s-3.262-.35-5.124 1.63z"/>
<path stroke-width=".35" d="M798.15 201.56s.58-3.143 1.165-3.26 1.513.465 1.98-.12l-.116 3.847s.11-1.632-3.03-.467zm-3.38.47s.698-2.795 1.165-2.795c.468 0 1.632.7 2.213.233v2.096s-2.566-.58-2.91 2.91l-.468-2.444z"/>
</g>
</g>
<g stroke="#000" stroke-width=".78" fill="#00a651">
<path d="M840.16 260s7.914 7.35 5.845 13.758 5.087-10.932-.375-14.137c-5.47-3.2-5.657-.74-5.47.38z"/>
<path d="M830.17 267.15s-2.07 2.833.188 4.906-2.448 3.574-.56 6.595c0 0-1.51 3.21-1.133 6.6 0 0-1.32 5.28 1.505 7.73 0 0 3.018 1.51 4.34.19 0 0 2.636-3.95.938-8.11 0 0 1.885-3.39-.188-7.72 0 0 .567-2.45-1.13-5.27 0 0 1.13-1.89.186-3.39 0 0-3.767-3.96-4.146-1.51z" fill="#964b36"/>
<path d="M832.43 257.92s-9.422-18.09-16.02-18.848c-6.598-.755-6.972-7.16-6.972-7.16s.752 3.015 6.03 3.015c5.28 0 15.457 7.35 16.586 13.003 1.13 5.653 2.263 4.902 2.263 4.902l-1.887 5.088z"/>
<path d="M832.43 256.6s3.394-22.805 18.286-23.184c14.885-.38 9.99 1.13 13.567-1.32 0 0-9.985 5.28-16.208 6.03-6.217.755-11.308 12.813-11.12 15.08.188 2.26-3.39 6.597-5.087 5.09-1.697-1.508.563-1.696.563-1.696z"/>
<path d="M835.82 265.09s3.39-9.047 9.235-6.03-4.526-8.672-12.63-1.133c0 0 3.583 4.9 3.395 7.163zm-11.31-9.06s4.902 20.17-2.64 26.387.188-10.36-4.334-16.582c-4.52-6.223 4.522-13.003 6.974-9.805z"/>
<path d="M825.08 259.62s8.86 8.484 9.427 11.31c.567 2.827 2.637-8.48-1.508-11.682-4.15-3.21-8.67-3.773-8.67-3.773l.75 4.145z"/>
<path d="M808.74 281.85s.803 3.56 2.988 4.25.113 2.645 2.068 3.448c0 0-1.037 2.184.69 3.56 0 0-.347 4.367 1.263 5.29 0 0 3.91-.23 5.28-1.38 0 0 .8-2.87-1.38-5.748 0 0 .34-2.758-1.85-4.25 0 0 .69-3.68-2.07-5.057 0 0-.46-2.99-2.19-4.482 0 0-3.33 4.71-4.83 4.37z" fill="#964b36"/>
<path d="M813.1 277.48s-11.606-4.252-18.042 1.84 9.88 1.38 11.147 3.333c1.264 1.95 7.352-3.216 6.895-5.173z"/>
<path d="M809.54 284.72s-.918-.803-2.066-1.61c-1.15-.802-10.916-3.446-12.3 5.977 0 0-3.563-9.307 1.61-10.573 5.174-1.266 9.31 1.724 12.756 6.206m-7.64-19.26s3.577 7.726 4.9 8.108c1.318.372 2.26-.942 2.26-.942s-4.71-6.974-7.16-7.166zm-2.64-11.87s-3.018-9.988-6.596-7.35c-3.58 2.64-2.64 9.798-2.64 9.798s-7.162-7.346-3.017-13.192c4.152-5.842 12.253.566 12.253 10.744z"/>
<path d="M807.37 274.13s0 1.885 1.32 2.448c1.32.566 3.77 1.505 3.77.38 0-1.13-1.884-5.467-2.642-4.9-.755.567-2.07.56-2.448 2.072z" fill="#964b36"/>
<path d="M805.11 262.45s-.377-8.668 5.274-11.876 1.134.194 1.7-1.5c0 0-4.528 10.926-3.207 16.392l-.187.755"/>
<path d="M806.24 251.89s10.177-21.112 22.618-13.762-13.004 2.64-17.714 11.876l-4.715 6.967-.19-5.08z"/>
<path d="M800.77 259.62s-3.017-14.134-4.9-16.016c-1.887-1.886-5.09-3.96-8.862-.756 0 0 6.6-5.845 13.572-.942 6.97 4.9 5.464 12.628 5.464 12.628l-.75 9.802L800.58 260"/>
<path d="M811.7 276.39s-12.44-23.552-20.542-6.78-1.512 4.332.184 6.025c0 0-4.524-3.39-2.45-11.682 2.07-8.29 15.828-4.524 19.79 2.263 3.957 6.784 5.09 10.18 4.524 10.552-.567.38-1.507-.378-1.507-.378zm35.06 6.79s9.05-18.66 14.324-10.18 1.506 4.145-.757 5.845c0 0-3.577-4.335-6.78.942-3.205 5.275-1.885 4.902-1.885 4.902s-3.394.94-4.902-1.51z"/>
<path d="M860.32 278.84s4.9 2.635 3.21 7.913 6.59-12.625-2.453-13.758c0 0 1.698 3.96-.757 5.845zm.57-12.81s11.876 3.39 12.252 8.484 2.076-9.805-4.71-12.82c0 0-8.108 1.322-7.542 4.336z"/>
<path d="M866.17 250.38c5.09-9.99 11.498 3.204 11.498 3.204s2.26-10.364-4.145-12.252c-6.41-1.884-10.556 22.05-10.556 22.05l-7.54 1.697s2.074-20.92 13.38-22.81l1.32.19"/>
<path d="M857.12 256.41s-7.16-14.7-12.06-16.206c-4.903-1.508 2.64-3.77 5.656-.944 3.01 2.824 8.665 6.408 8.1 13.948l-1.696 3.202zm-7.35 20.17s2.072-9.985 7.726-13.003c5.653-3.018 10.932-1.884 10.932-1.884s-6.788 1.505-7.914 4.902c-1.133 3.39-3.018 3.577-3.018 3.577l-7.726 6.408z"/>
<path d="M846.76 283.18s-3.203 6.032-2.452 6.972-3.39 4.9-2.072 7.35c0 0 3.394 2.64 4.902 1.506 0 0 3.953-5.462 2.824-8.48 0 0 2.638-3.578 1.7-5.838 0 0-3.956.187-4.902-1.51z" fill="#964b36"/>
<path d="M830.18 272.41c.212.108 2.116 1.032 3.396.605l.916-.783-.72-.357c-.47.93-2.542.163-3.234-.18l-.358.715zm-.31 5.85l-.156.79c.162.03 3.986.77 5.81-.85l-.535-.598c-1.53 1.353-5.09.67-5.12.658zm-.97 6.66l-.472.65c.046.035 4.49 3.2 7.334-.256l-.623-.512c-2.37 2.868-6.09.233-6.24.118zm-17.26.96l.167.43c.16-.065 3.925-1.577 4.164-4.33l-.45-.043c-.21 2.472-3.84 3.93-3.87 3.943zm2.13 3.44l.032.458c.147-.01 3.623-.27 4.23-2.7l-.448-.116c-.524 2.107-3.78 2.354-3.814 2.358zm.72 3.56l-.025.462c.167.007 4.06.21 5.382-1.948l-.393-.243c-1.18 1.93-4.926 1.74-4.964 1.73zm29.53-2.44c.07.073 1.748 1.732 3.71 1.658.96-.034 1.81-.476 2.53-1.303l-.608-.528c-.567.653-1.224 1-1.948 1.03-1.606.057-3.104-1.41-3.12-1.427l-.564.57z" fill="#000" stroke="none"/>
</g>
<g stroke="#000" stroke-width=".42" fill="#964b36">
<path d="M961.06 304.22a1.66 1.66 0 0 0-.608.403l.608-.403zm13.86-3.47c-.134-.344-.222-.2-.4-.352-.253-.208-.4-.876-.622-1.125-.132-.153-.285-.004-.428-.042-.324-.71-.705-1.46-1.046-2.15a.597.597 0 0 0 .094-.32c0-.03-.16-.57-.17-.6-.098-.15-.252-.06-.345-.3-.105-.23-.025-.7-.063-.98-.027-.23-.118-.36-.104-.69.014-.28.167-.61.15-.86-.008-.15-.192-.5-.247-.64-.23-.54-.42-1.04-.44-1.71-.03-.6.09-.97.14-1.49.05-.62-.28-.93-.28-1.5 0-.44.19-.94.24-1.33a9.87 9.87 0 0 0 .03-1.88c-.04-.53-.19-.85-.11-1.45.02-.14.09-.26.1-.47v-1.29c0-.27.03-.59 0-.86-.03-.22-.16-.46-.16-.63 0-.3.19-.45.15-.86-.03-.3-.07-.37-.14-.63-.14-.49-.05-.99-.13-1.52-.04-.25-.12-.33-.15-.62-.04-.34.07-.46.1-.7.03-.24.07-.55.04-.81-.04-.3-.18-.52-.14-.85l-.11 3.78a509.5 509.5 0 0 0-.23-6.35l-5.02-2.36s-.43 9.21-.32 10.5c.1 1.29.53 10.08.31 11.15-.22 1.07-.75 6.43-.75 6.43s-2.46 1.71-3.42 3.64c-.96 1.93-.74 2.57-1.07 2.57l2.39-.37-1.78 1.19c.37-.14.75-.11 1.11.17.04.03.3.26.34.26.09 0 .22-.24.34-.28.37-.12.68.57 1.03.52.18-.03.44-.23.6-.43.12-.17.17-.47.3-.58.12-.1.42.02.55.02.35 0 .7.01 1.06 0 .46-.01.84-.67 1.27-1.04.4-.33.69-.45 1.12-.43.47.04.89.48 1.37.5.36.02.61.07.9-.31.2-.26.34-.65.53-.93l1.18-.18c.24.1.48.21.68.2.3-.01.62-.05.92 0 .11.01.34.28.43.21.06-.05.17-.41.23-.52-.03-.14-.07-.5-.13-.63z"/>
<path d="M964.77 304.05c.302 0 .58-.07.834.152.042.08.08.158.12.233a.26.26 0 0 0 .25.035c.17.115.205.18.392.223.174.037.365-.007.54-.004.218 0 .325.08.53.16.358.14.594 0 .904-.22.36-.27.49-.07.834.27.258.24.205.22.438.05.035-.08.076-.16.115-.23a1.8 1.8 0 0 1 .35-.1c.193-.09.383-.08.565-.15.19-.08.33-.29.53-.25.175.03.374.17.54.23.16.05.23.08.362.18.24-.5.768-.64 1.106-.88.35-.24.678.05 1.064.05.205 0 .288-.12.434-.17.164-.06.35.02.508-.04.167-.06.198-.22.382-.24.34-.05.72.51 1.06.61.19.06 1.076.26.946-.39-.125-.62-.68-.19-.8-.62-.063-.25.067-.6-.01-.88-.066-.26-.344-.55-.51-.6-.21-.07-.33.15-.51-.02-.145-.14-.2-.65-.33-.85-.17.12-.277.24-.503.19-.25-.06-.23-.15-.42-.39-.41-.52-.65.31-1.04.18-.29-.09-.56-.83-.79-1.13-.12-.16-.46-.68-.64-.56-.3.19-.02.76-.18 1.01-.11.17-.5-.01-.65.02-.22.05-.26.11-.43.38-.33.55-.52.98-1.03.92-.24-.03-.42-.28-.66-.19-.25.09-.39.36-.67.4-.2.01-.43.02-.63-.06-.19-.09-.41-.45-.59-.55a.23.23 0 0 0-.24-.05c-.02-.01-.29-.17-.29-.17-.31-.09-.28-.08-.41.33-.07.25-.1.51-.19.75-.09.2-.29.45-.4.58-.22.24-.32.17-.6.26-.23.07-.53.42-.65-.03-.18-.68.5-1.7-.26-1.52-.2.04-.32.08-.44.37-.13.33-.02.55-.08.92-.08.46-.96 1.25-.79 1.67.12.29.52-.16.62-.09.18.13.13.42.26.62.27.41 1.07-.63 1.11-.07m-3.22-4.07c0-.06-.01-.11-.01-.18-.21-.04-.45-.26-.65-.27-.18-.01-.54.44-.67.65-.39.64-.28 1.52-.94 1.51-.16 0-.53-.11-.67-.01-.24.17-.09.69-.09 1.04 0 .33.15 0-.02.43-.05.11-.21.15-.25.31-.13.56.33.38.54.37a103.44 103.44 0 0 1 1.58 0c.32.01.51-.11.8-.22.2-.07.61-.06.78-.24.06-.07.25-.51.28-.61.04-.22-.04-.48.01-.66.09-.32.37-.2.42-.63.14-1.05-.98-.27-.8-1.3"/>
</g>
<g stroke="#000" stroke-width=".78">
<path d="M974.21 271.28c0 1.356-.928 2.448-2.078 2.448-1.137 0-2.073-1.092-2.073-2.448 0-1.352.93-2.452 2.07-2.452 1.15 0 2.08 1.1 2.08 2.452zm-6.78-3.02c0 1.352-.93 2.448-2.074 2.448-1.147 0-2.078-1.096-2.078-2.448s.93-2.45 2.078-2.45c1.145 0 2.074 1.098 2.074 2.45z"/>
<path d="M971.01 269.2c0 1.356-.93 2.448-2.074 2.448s-2.072-1.092-2.072-2.448.928-2.45 2.072-2.45 2.074 1.095 2.074 2.45zm-3.47 2.24c0 1.356-.932 2.454-2.076 2.454s-2.072-1.1-2.072-2.454c0-1.352.927-2.448 2.072-2.448s2.076 1.094 2.076 2.448z"/>
<path d="M970.76 273.31c0 1.352-.935 2.454-2.075 2.454-1.143 0-2.076-1.102-2.076-2.454s.93-2.448 2.07-2.448c1.14 0 2.07 1.096 2.07 2.448z"/>
</g>
<path stroke="#000" stroke-width=".78" d="M971.76 246.58s20.918-29.21 43.348 1.134.187 3.018-1.885 6.22l-.567-2.448-1.318.374-.376-1.507-2.455-.187.758-3.206-2.642 2.074.38-2.263-3.017 3.02.38-6.41-3.207 5.47.37-3.76-1.13 1.7-.68-2.19-1.02 2.2-1.51-1.13v1.51l-2.64-2.26-.94 3.02-1.32-3.2-.38 2.26-1.33-2.64-.18 2.83-4.34-1.88.94 2.64-2.07-1.5.38 1.5-2.83-.56.18 1.7-3.01-.57.56 1.5-4.15-.56 1.5 1.7-.42.69s22.66-7.48 24.17 20.79l-4.15 2.08 1.13-2.25-1.14-.75-3.39-2.63.94-3.59-1.13.38-.19-2.08-.57.38-1.32-2.07-.38.76-.95-2.46-.94 1.7-.56-4.15-1.51 2.64-.2-1.51-.56.94-1.88-2.26-.56 1.51-.76-1.13-.56 1.32-2.08-1.89v1.52l-1.32-1.13-.58.76-3.2-1.7-.2 1.51-1.69-1.5-.57 1.5s20.55 11.69 14.14 30.73l-1.13 2.45-.37-6.4-1.89 3.39 1.31-7.35-1.31 1.32-.2-2.82-1.69 2.83-.58-3.2-.75.94-1.14-4.9-.95 2.07-1.5-5.47-1.13 2.26-.76-4.7-.76 2.83-2.27-4.15-.37 1.7-1.32-3.39-.76 1.14s-3.76-.19-4.89-1.13-4.34 5.66-4.34 5.66l.38-3.96-1.32 2.64v-2.64l-2.45 7.91-.56-5.65-1.32 4.9-.57-1.51-.38 2.07-.76-.76-.66 2.23-1.23-.91v3.01l-1.13-1.51-.94 4.52-.57-1.88v2.07l-.94-1.13-.95 4.53-1.32-1.89-.18 3.2.56 2.45-1.51-.76.57 3.95s-5.84-10.93 1.14-21.48c6.97-10.55 16.39-13.38 16.39-13.38l-.95-.94-.19-.95-5.66 2.83.19-1.7-1.51 1.32-.37-1.88-.95 1.7-.19-.76-1.32 2.07-.76-3.02-.94 3.59-.89-2.51-1.94 5.33v-3.96l-1.51 4.15-.56-4.52-1.13 5.28v-4.71l-1.7 4.71-1.13-4.52-.76 4.33-1.13-3.39-1.13 5.09-1.69-4.52-.94 6.79-1.13-2.64-.19 4.9-1.32-3.01 1.32 6.4-1.7-2.45.56 3.96-2.45-4.34.18 5.09-1.32-1.7-.57 1.88s-.56-19.6 12.82-23.37c13.38-3.77 22.05 1.13 22.05 1.13l-5.09-4.14.56-1.32h-1.88l.76-1.51-3.96.19 1.13-1.51-3.02.38v-.94l-1.88 1.5.76-1.69-2.64 1.69-.16-2.51-1.35 2.14-.75-2.26-6.04 6.03 1.7-6.22-1.13 1.32-.19-1.32-1.69 2.64-.38-1.89-.75 2.26-.57-2.64-1.32 2.64-1.32-2.44-.57 3.21-.946-1.7-1.13 2.45-1.51-1.51-.19 1.51-3.02-1.32.75 2.26-2.26-1.88-.57 3.01-1.31-1.5-.94 3.77-.94-3.59-.94 2.82s11.78-30.29 41.6-10.53 3.25 3.18 4 5.44c.76 2.27.19.38.19.38l-.56-20.92 1.13 9.05.76-3.2-.19 4.71 3.01-6.6s-3.58 10.94-2.26 14.89 1.32-12.62 5.85-14.13l-4.13 9.04 1.31-.19-.94 1.89h1.13l-1.37 2.99-.71 1.53.75 1.5 1.14-1.14z" fill="#00a651"/>
<path d="M968.66 258.87l.594.535c.08-.083 1.944-2.07 5.074.574l.518-.62c-3.742-3.17-6.17-.52-6.186-.5zm-.91-10.26l-.122.725 1.453-.62c-.23.415-.99 1.748-.99 1.748l2.17-.72a9103.73 9103.73 0 0 1-2.68 3.516l.64.49 4.28-5.6-2.65.88c.28-.48 1.14-2.01 1.14-2.01l-2.29.99.48-2.88-.79-.14-.59 3.59z"/>
<path d="M963.76 248.84s.528 1.17.925 2.04c-.17-.072-1.475-.594-1.475-.594l4.35 7.694s.525-.67.556-.712c-.438 1.123-.876 2.256-.876 2.256l.75.292 1.876-4.822-.692-.393-1.51 1.94c-.406-.72-1.91-3.38-2.625-4.64l1.2.49-1.21-2.65 1.63 1.02v-2.87h-.81v1.42l-2.67-1.66.55 1.22zm-2.74 9.66l.32.737c1.178-.504 2.148-.588 2.885-.237.863.414 1.123 1.304 1.126 1.31l.78-.208c-.01-.052-.35-1.248-1.54-1.822-.95-.458-2.15-.385-3.56.22zm3.37 8.17l-.66-4.214.796-.125.66 4.22zm5.8-.738l-1.072-3.22.764-.255 1.074 3.22zm2.142 2.322l-.807-3.217.782-.196.806 3.22z"/>
<path d="M811.41 365.04s-3.534-1.606-5.143-.43c-1.608 1.18-1.39 2.892-2.783 2.784 0 0 5.354 1.18 6.532-.216 1.177-1.387 1.394-1.82 1.394-1.82m.65 1.162s-2.326 3.11-1.522 4.93c.802 1.822 2.523 1.978 2.116 3.315 0 0 2.302-4.974 1.196-6.426-1.105-1.45-1.474-1.75-1.474-1.75m-4.236-8.69s-3.71 1.15-4.126 3.09c-.426 1.94.88 3.08-.232 3.93 0 0 4.782-2.68 4.737-4.51-.05-1.83-.17-2.29-.17-2.29m1.96 1.04s1.76-3.47.65-5.12c-1.11-1.66-2.83-1.52-2.66-2.91 0 0-1.42 5.29-.08 6.53 1.34 1.23 1.76 1.46 1.76 1.46m-3.32-1.24s.08-3.88-1.64-4.89c-1.72-1.02-3.21-.14-3.66-1.47 0 0 1.02 5.39 2.77 5.92 1.74.53 2.22.56 2.22.56m6.63 6.33s4.07-1.4 4.39 2.99c.32 4.39-.22 2.89-.22 2.89s-2.15-4.71-4.5-5.46l.32-.43z" stroke="#000" stroke-width=".78" fill="#00a651"/>
<path d="M811.99 366.59c0 .094.426 3.414.426 3.414l.572-.073-.43-3.32c.014.01 1.39-7.3 1.39-7.3l-.567-.1-1.39 7.39z"/>
<path d="M808.29 365.51l-.19.542c1.946.684 4.66-1.454 4.774-1.544l-.36-.448c-.024.017-2.578 2.034-4.224 1.45zm5.124-4.344l-9.103-4.604.37-.718 9.11 4.604z"/>
<path d="M806.804 360.156l-.567-.567 1.82-1.82.568.56zm3.182-.874l-1.928-4.18.73-.336 1.927 4.18zm2.684 5.138l.052.804c2.475-.168 3.08 1.435 3.084 1.453l.79-.164c-.094-.46-1.086-2.284-3.926-2.093z"/>
<path stroke="#000" d="M854.43 366.27c3.035-1.7 3.643-7.657 3.643-7.657-.726 2.19-6.31 4.375-6.31 4.375 4.126-2.556 9.1-14.084 9.1-14.084-1.333 4.13-12.137 7.526-19.06 11.41-6.922 3.884-3.278 15.06-3.278 15.06-1.94-1.338-5.706-7.284-6.432-12.51-.733-5.22-2.796-7.28-7.53-7.89-4.74-.607-7.53 4.733-7.53 4.733l-7.04 3.647 7.16.24s5.105 1.704 5.105 5.71c0 4.008-4.493 20.034 2.91 29.02 5.153 6.246 24.166 9.834 24.166 9.834" fill="#FFF"/>
<path stroke="#000" d="M840.47 378.65s1.457-7.165 6.192-6.922c4.735.243 6.07-5.34 8.863-6.192 2.793-.848 17.242-4.73 18.82-11.656 0 0-1.334 11.416-14.567 17.122 0 0 10.68-3.523 11.898-5.83 0 0-4.74 10.2-16.272 11.778 0 0 10.806-.85 12.385-3.76 0 0-4.86 6.432-12.87 7.284 0 0 7.4 3.035 9.35.484 0 0-4.01 4.735-8.99 5.096l1.34.366s-4.74 5.587-9.96 1.822c-5.22-3.766-5.35.974-5.35.974" fill="#FFF"/>
<path stroke="#000" d="M851.25 389.45s6.098 10.202 6.707 15.665 11.658 12.872 16.028 13.595c0 0-2.065.848-5.83-2.305 0 0 3.156 3.278 3.765 3.4.604.125-2.552-.243-3.04-1.095 0 0 1.34 1.948 2.188 2.19.852.244-.85-.242-.85-.242s-1.58-.244-2.308-.852c-.73-.605-.243 1.575-.243 1.575s-1.822-.48-2.427-1.09c-.608-.6.244 1.34.244 1.34l-1.578-.36-1.092.73s-.122.73-.856.13c-.723-.6-2.06 0-2.06 0s-.976.86-1.458.25c-.482-.6-2.323 2.34-2.323 2.34l-7.645-18.45" fill="#FFF"/>
<path d="M858.538 422.862l-9.664-18.392 1.014-.533 9.664 18.39zm8.416-1.187l-16.532-18.51.858-.766 16.532 18.5zm3.78-1.65l-18.865-17.58.78-.84 18.86 17.58zM823.44 360.84s-1.23-2.204-2.303-1.376c-1.07.825-1.685.976-1.87.92 0 0 1.076.058 1.687-.523.613-.58 1.656-.21 2.486.98zm-6.66-1.01s.676 1.398.685 1.422c-.068.004-.763 2.257-.763 2.257l.553.17.75-2.46c-.013-.22-.703-1.64-.703-1.64l-.522.24z"/>
<path d="M823.16 360.5s-.918 1.075-2.176.766l-1.252-.306s1.066.06 1.776.093c.7.03 1.618-.337 1.652-.553z"/>
<path d="M822.86 360.72s-1.132-1.195-1.9-.858 1.35-.43 2.116.73l-.216.128z"/>
<path d="M822.67 360.5s-1.286.887-2.7-.09l-.085-.066.183-.06c0 .002 1.778.736 2.602.216z"/>
<circle cy="360.28" cx="821.57" r=".383"/>
<path d="M822.61 394.2s-.996 1.834-.475 2.94c.528 1.102 2.89 1.674 3.205 3.145.317 1.475 1.105 1.47 2.208 1.266 1.105-.21 1.314-.26 1.314-.26s-4.625-2.47-5.834-6.46l-.418-.62z"/>
<g stroke="#000" stroke-width=".48" fill="#964b36">
<path d="M972.09 356.85s8.418-11.1 15.882-8.184c7.465 2.917 12.316 4.32 12.316 4.32s.142 7.476-3.828 7.476c-3.96 0-7.757-7.465-11.366-5.246-3.616 2.215-6.584 5.25-6.818 6.296-.233 1.048-9.562 1.283-6.185-4.662z"/>
<path stroke-width=".78" d="M940.14 410.37s-2.328 2.444-1.278 3.03c1.054.582 3.146-.12 3.146-.934 0-.82-1.395-2.33-1.868-2.096z"/>
<path stroke-width=".78" d="M938.28 412.7s-4.312-2.455-7.694 3.376c-3.387 5.83-6.182 15.277-8.164 16.56-1.98 1.282 19.24-9.328 19.475-13.758 0 0 1.397-5.716-.817-5.602-2.215.122-2.333.356-2.8-.576z"/>
<path d="M938.86 413.4s-4.43 1.043-5.362 7.337c-.932 6.303-7.114 9.565-7.462 9.797m74.264-77.544s-6.738 2.344-5.574 7.01"/>
</g>
<path stroke="#000" stroke-width=".48" d="M948.54 366.64s.232-15.976 13.284-15.277c2.473.23 1.294 3.146 1.294 3.146s2.823-1.98 4.113 1.16 4.12-1.87 4.59 2.22c0 0 4.47-.58 3.88 3.03 0 0 3.06-.7 2.94 1.86 0 0 3.53-1.4 3.17 2.21 0 0 3.88-2.57 3.3 2.09 0 0 4-2.8 5.41 1.87 1.41 4.66-3.99 14.57-9.28 17.13" fill="#fff200"/>
<path d="M984.81 367.61c.018.125 1.76 12.498-5.257 17.026l.247.39c7.27-4.69 5.482-17.356 5.466-17.484l-.456.068zm-8.45 13.55l.324.33c4.444-4.325 5.4-15.976 5.434-16.47l-.455-.037c-.01.122-.977 11.974-5.303 16.177zm-4.15-2.77l.458.037c.572-7.195 6.196-15.425 6.256-15.51l-.38-.257c-.058.082-5.75 8.413-6.334 15.73zm-3.26-2.1l.458.046c.8-8.68 6.533-15.196 6.59-15.258l-.34-.308c-.06.064-5.892 6.688-6.708 15.52zm-4.55-2.9l.458.017c.456-10.25 7.18-15.28 7.247-15.33l-.272-.37c-.065.05-6.967 5.2-7.433 15.683zm-4.2-2.55l.462-.014c-.336-9.328 6.835-14.912 6.91-14.97l-.28-.364c-.072.06-7.433 5.78-7.092 15.348zm-7.57-3.41l.455.056c1.25-10.097 10.236-12.725 10.326-12.75l-.12-.44c-.09.023-9.37 2.728-10.65 13.134z"/>
<path stroke="#000" stroke-width=".48" d="M940.84 386s-2.212-14.813 6.648-19.472 1.637-.352 2.566 1.748c0 0 4.666-1.98 4.784 1.978 0 0 2.33-1.864 2.914.7 0 0 5.013-1.047 4.08 2.683 0 0 4.197-1.165 3.847 2.445 0 0 4.2-1.514 3.49 1.635 0 0 4.43-1.047 3.38 2.567 0 0 5.48-.58 3.85 3.265 0 0 4.08-1.05 3.14 2.1 0 0 5.36.93 2.91 4.31-2.45 3.38-8.63 8.51-14.69 10.72" fill="#00a651"/>
<path stroke="#000" stroke-width=".48" d="M936.06 400.92s-3.616-12.355 3.27-15.51 1.274-.35 1.508.936c0 0 1.52-1.985 2.687-.233 0 0 3.495-1.633 4.315.93 0 0 2.33-1.984 3.498.93 0 0 2.216-.93 2.216 1.4 0 0 3.03-1.282 3.03 1.517 0 0 2.91-1.165 2.33 1.98 0 0 4.433.7 3.15 2.8 0 0 3.97 1.045 2.448 2.682 0 0 4.312-.466 1.98 2.448 0 0 3.266-1.047 1.403 2.57-1.87 3.612-7.695 7.576-11.776 8.04" fill="#00a651"/>
<path stroke="#000" stroke-width=".48" d="M940.37 410.71s-7.694-7.462-4.075-9.676 1.626.462 2.21 2.097c0 0 1.865-2.68 2.92.12 0 0 2.798-.93 2.798.94l2.212 1.64s2.57-.23 2.103 1.4 2.8-.35 2.68 1.17c0 0 2.452.12 2.22 1.75 0 0 4.192.7 2.328 2.81 0 0-7.346 1.51-12.475-.58 0 0-2.68-.93-2.92-1.63z" fill="#00a651"/>
<path d="M966.76 398.38l.164.427c4.56-1.755 12.478-12.564 12.816-13.024l-.372-.275c-.084.117-8.174 11.164-12.608 12.87zm-2.59-1.97l.223.4c3.967-2.213 11.867-12.676 12.2-13.12l-.366-.28c-.08.113-8.174 10.835-12.058 13zm-2.25-.92l.296.352c4.19-3.478 10.29-14.966 10.552-15.452l-.406-.216c-.062.117-6.32 11.896-10.44 15.317zm-2.06-2.65l.456.064c.796-5.807 8.953-14.947 9.032-15.037l-.34-.308c-.338.38-8.334 9.33-9.148 15.28zm-16.33-7.06l.46-.04c-.686-8.203 6.18-17.238 6.25-17.328l-.364-.277c-.074.09-7.044 9.262-6.346 17.645zm4.32.72l.456-.08c-1.136-6.576 6.63-15.928 6.71-16.02l-.35-.298c-.328.39-7.985 9.605-6.816 16.398zm6.64 2.42l.46-.013c-.226-7.507 6.976-15.032 7.05-15.11l-.33-.32c-.072.077-7.414 7.743-7.18 15.443zm-15.84 13.6l.43-.16c-2.615-6.937 1.926-15.82 1.972-15.906l-.414-.212c-.045.09-4.677 9.15-1.988 16.278zm3.02.45l.438-.142c-2.28-7.065 1.585-16.535 1.626-16.628l-.427-.176c-.037.092-3.966 9.72-1.637 16.946zm12.5 7.06l.157.434c7.44-2.676 12.305-9.46 12.353-9.525l-.375-.27c-.046.06-4.826 6.73-12.134 9.36zm-1.53-1.62l.187.42c5.934-2.676 11.467-10.145 11.52-10.222l-.37-.27c-.056.076-5.514 7.444-11.337 10.07zm-1.44-.56l.27.373c4.64-3.362 10.603-11.982 10.666-12.07l-.378-.257c-.06.088-5.977 8.638-10.558 11.953zm-7.44-4.33l.456-.066c-1.026-7.414 3.773-16.208 3.824-16.295l-.403-.23c-.05.09-4.923 9.02-3.877 16.58zm3.23 2.01l.31.34c4.788-4.322 6.418-15.97 6.484-16.464l-.456-.064c-.014.12-1.672 11.98-6.338 16.188z"/>
<path d="M950.27 406.91l.27.372c6.757-4.888 8.59-14.274 8.604-14.365l-.45-.086c-.017.09-1.814 9.3-8.424 14.08zm.78-20.23c0 .438.022.875.062 1.318-.007-.038-5.125 16.583-5.125 16.583l.438.14 5.14-16.67c-.795-8.06 6.295-16.86 6.365-16.94l-.354-.29c-.07.08-6.526 8.1-6.526 15.87z"/>
<path d="M956.41 390.74c-.067.233-1.627 11.618-7.768 15.818l.26.38c6.315-4.32 7.85-15.545 7.91-16.02 2.726-3.242 9.006-14.613 9.07-14.727l-.404-.22c-.063.12-6.318 11.45-9.068 14.77zm-18.13 12.44c.046.24 1.072 5.896 2.246 7.89l.396-.23c-1.136-1.926-2.175-7.68-2.186-7.74l-.456.08zm2.91.07c.05 2.816.064 7.436-.094 7.847l.428.168c.236-.592.146-6.784.128-8.02l-.462.005z"/>
<path d="M941.45 411.32l.418.187c1.97-4.29 2.578-7.25 2.586-7.277l-.452-.09c-.007.024-.602 2.942-2.552 7.18z"/>
<path d="M941.89 411.45l.233.396c3.657-2.125 4.506-5.82 4.536-5.976l-.45-.1c-.01.036-.84 3.66-4.32 5.68z"/>
<path d="M942.57 411.77l.046.455c3.584-.358 6.025-4.71 6.13-4.895l-.405-.223c-.02.045-2.42 4.328-5.77 4.663z"/>
<path d="M942.93 412l.028.458c5.754-.354 8.343-3.793 8.448-3.938l-.372-.272c-.024.032-2.577 3.415-8.104 3.752z"/>
<path d="M943.34 412.12l-.094.45c.31.07 7.642 1.624 10.152-2.198l-.385-.25c-2.334 3.557-9.6 2.012-9.673 1.998z"/>
<path stroke="#000" stroke-width="4.2" d="M778.8 143.94v205.09c0 67.08 121.2 106.91 121.2 106.91s121.2-39.833 121.2-106.91V143.94z" fill="none"/>
</g>
</svg>
