<svg xmlns="http://www.w3.org/2000/svg" version="1" xmlns:xlink="http://www.w3.org/1999/xlink" viewBox="0 0 640 480">
<defs>
<linearGradient id="a">
<stop stop-color="#a43907" stop-opacity=".996" offset="0"/>
<stop stop-color="#fff" offset="1"/>
</linearGradient>
<linearGradient id="b" x1="444.4" xlink:href="#a" gradientUnits="userSpaceOnUse" x2="470.9" y1="592.2" y2="577.14"/>
<linearGradient id="c" x1="458.24" xlink:href="#a" gradientUnits="userSpaceOnUse" y1="562.51" gradientTransform="scale(.94 1.07)" x2="520.55" y2="552.83"/>
<linearGradient id="d" x1="472.38" xlink:href="#a" gradientUnits="userSpaceOnUse" x2="445.28" y1="578.68" y2="580.2"/>
<linearGradient id="e" x1="517.97" xlink:href="#a" gradientUnits="userSpaceOnUse" y1="553.74" gradientTransform="scale(.94 1.07)" x2="456.44" y2="558.12"/>
<linearGradient id="f" x1="851.78" xlink:href="#a" gradientUnits="userSpaceOnUse" x2="646.19" y1="369.94" y2="369.94"/>
<linearGradient id="g" x1="388.53" xlink:href="#a" gradientUnits="userSpaceOnUse" y1="507.23" gradientTransform="scale(.82 1.22)" x2="677.4" y2="508.75"/>
<linearGradient id="h" x1="579.84" xlink:href="#a" gradientUnits="userSpaceOnUse" y1="504.94" gradientTransform="scale(.84 1.2)" x2="556.8" y2="505.86"/>
<linearGradient id="i" x1="581.43" xlink:href="#a" gradientUnits="userSpaceOnUse" y1="512.01" gradientTransform="scale(.82 1.22)" x2="558.88" y2="514.33"/>
<linearGradient id="j" x1="552" xlink:href="#a" gradientUnits="userSpaceOnUse" y1="517.88" gradientTransform="scale(.84 1.2)" x2="589.77" y2="503.9"/>
</defs>
<path d="m0 0h640v480h-640z" fill="#006"/>
<path fill="#006" d="m0 0h400v200h-400z" fill-rule="evenodd"/>
<g stroke-width="1pt">
<path d="m0 0v25.562l317.14 203.07h39.92v-25.56l-317.14-203.07h-39.92zm357.06 0v25.56l-317.14 203.07h-39.92v-25.562l317.14-203.07h39.92z" fill="#fff"/>
<path d="m148.77 0v228.63h59.51v-228.63h-59.51zm-148.77 76.21v76.21h357.06v-76.21h-357.06z" fill="#fff"/>
<path d="m0 91.452v45.726h357.06v-45.728h-357.06zm160.68-91.45v228.63h35.706v-228.63h-35.705zm-160.68 228.63l119.02-76.21h26.61l-119.02 76.21h-26.61zm0-228.63l119.02 76.21h-26.615l-92.405-59.168v-17.04zm211.42 76.21l119.02-76.21h26.61l-119.01 76.21h-26.612zm145.63 152.42l-119.02-76.21h26.613l92.406 59.168v17.04z" fill="#c00"/>
</g>
<path d="m670.97 321.56c-0.734 0.012-1.438 0.084-2.03 0.188-3.39 0.59-8.734 11.63-11.69 18.094-4.62 5.644-7.088 10.03-9.03 13.28-0.755 1.263-1.92 2.728-1.563 4.407-6.996 1.718-7.344 7.724-7.344 10.06 0 2.48 0.782 3.72 0.782 3.72l4.187 7.843 0.03 0.094c4.458 9.216 11.058 21.626 14.75 22.656 5.244 1.462 18.822-3.55 29-12.156 16.69 6.875 38.073 12.562 61.97 12.562 23.896 0 45.248-5.69 61.938-12.563 10.18 8.606 23.758 13.618 29 12.156 3.705-1.033 10.324-13.525 14.78-22.75l4.19-7.844s0.78-1.24 0.78-3.72c0-2.338-0.377-8.344-7.375-10.062 0.35-1.678-0.776-3.143-1.53-4.406-1.958-3.274-4.42-7.7-9.095-13.406-2.966-6.48-8.29-17.382-11.656-17.97-4.742-0.825-14.97 1.58-14.97 2.407 0 0.02-0.057 0.45-0.062 0.5l-20.54 19.4c0 0.557 1.09 14.594 4.938 27-13.75 5.006-30.626 8.532-50.406 8.532-19.793 0-36.715-3.52-50.47-8.532 3.85-12.406 4.97-26.443 4.97-27l-20.53-19.4c-0.005-0.05-0.063-0.48-0.063-0.5 0-0.723-7.83-2.675-12.968-2.593zm5.25 24.094c2.582-0.032 5.332 2.095 7.594 4.47-0.078 0.465-0.157 0.943-0.25 1.374-0.624 2.872-1.696 6.663-3.188 10.625-5.87-3.43-10.66-6.996-14.312-10.312 2.228-2.37 5.806-5.596 9.594-6.124 0.185-0.026 0.375-0.03 0.563-0.03zm147.56 0c0.187 0.002 0.377 0.005 0.563 0.03 3.788 0.53 7.397 3.757 9.625 6.126-3.66 3.324-8.457 6.91-14.344 10.344-1.498-3.97-2.563-7.778-3.188-10.656-0.094-0.432-0.172-0.907-0.25-1.375 2.265-2.38 5.006-4.5 7.594-4.47zm-166 27.375c2.73 2.09 6.296 4.475 10.594 7-1.19 0.755-2.456 1.316-3.78 1.624-1.766 0.41-3.622 0.33-5.5-0.063-0.588-1.45-1.083-3.274-1.22-5.717-0.057-1.018-0.08-1.966-0.094-2.844zm184.47 0c-0.014 0.877-0.068 1.825-0.125 2.843-0.137 2.443-0.6 4.267-1.188 5.72-1.88 0.392-3.766 0.47-5.53 0.06-1.326-0.307-2.56-0.868-3.75-1.624 4.3-2.525 7.862-4.908 10.593-7z" fill-rule="evenodd" transform="matrix(1.17 0 0 1.17 -389.23 -21.96)" stroke="#fff" stroke-width="10" fill="url(#b)"/>
<path d="m445.63 595.48s5.625-8.75 10.313-8.125c4.687 0.625 9.062 6.25 9.375 6.562 0.312 0.313 7.187-7.187 6.875-7.5-0.313-0.312-7.188-16.562-10.938-17.187s-11.847 1.196-11.847 1.82-3.778 24.43-3.778 24.43z" fill-rule="evenodd" transform="matrix(-1.48 0 0 1.54 1073.6 -525.43)" stroke="#000" stroke-width="1.16" fill="url(#b)"/>
<path d="m433.13 586.11c0 0.625 1.875 23.75 10 31.875s21.25 13.125 25.938 11.875c4.687-1.25 15.312-24.687 15.312-24.687s-11.25 11.25-19.687 9.375c-8.438-1.875-13.438-15.938-15-22.813-1.563-6.875-0.313-20.313-0.313-20.313l-16.25 14.688z" fill-rule="evenodd" transform="matrix(-1.48 0 0 1.54 1073.6 -525.43)" stroke="#000" stroke-width="1.16" fill="url(#c)"/>
<path d="m445.63 595.48s5.625-8.75 10.313-8.125c4.687 0.625 9.062 6.25 9.375 6.562 0.312 0.313 7.187-7.187 6.875-7.5-0.313-0.312-7.188-16.562-10.938-17.187s-11.847 1.196-11.847 1.82-3.778 24.43-3.778 24.43z" fill-rule="evenodd" transform="matrix(1.48 0 0 1.54 -99.78 -525.43)" stroke="#000" stroke-width="1.16" fill="url(#d)"/>
<path d="m433.13 586.11c0 0.625 1.875 23.75 10 31.875s21.25 13.125 25.938 11.875c4.687-1.25 15.312-24.687 15.312-24.687s-11.25 11.25-19.687 9.375c-8.438-1.875-13.438-15.938-15-22.813-1.563-6.875-0.313-20.313-0.313-20.313l-16.25 14.688z" fill-rule="evenodd" transform="matrix(1.48 0 0 1.54 -99.78 -525.43)" stroke="#000" stroke-width="1.16" fill="url(#e)"/>
<path d="m656.44 338.56c-4.742 5.785-7.274 10.257-9.25 13.562-1.976 3.306-0.814 7.906 3.75 14.47 4.92 7.072 45.374 34.718 98.062 34.718 52.69 0 93.142-27.646 98.062-34.72 4.564-6.562 5.695-11.162 3.72-14.468-1.977-3.306-4.478-7.777-9.22-13.562 0 8.677-33.512 40.03-92.562 40.03s-92.562-31.353-92.562-40.03z" fill-rule="evenodd" transform="matrix(1.17 0 0 1.17 -388.04 -20.79)" stroke="#000" stroke-width="1.5" fill="url(#f)"/>
<path d="m467.82 625.48c0.625-0.937 7.187-11.875 7.187-11.875l-3.598-2.538c-1.106 3.094-5.153 4.1-5.778 7.85s2.813 7.5 2.188 6.563z" fill-rule="evenodd" transform="matrix(1.48 0 0 1.54 -98.8 -524.06)" stroke="#000" stroke-width="1.16" fill="url(#g)"/>
<path d="m475 622.98s1.25-5.312-2.812-5.937c-4.063-0.625-6.214 2.973-5.625 1.562 0.654-1.567 3.125-3.125 3.437-8.437 0.313-5.313-0.312-8.125-0.312-8.125s1.562-6.876 8.125-5.938c6.562 0.938 6.875 5.938 6.875 7.813s-0.625 2.812-0.625 2.812l-9.08 16.26z" fill-rule="evenodd" transform="matrix(1.48 0 0 1.54 -99.78 -525.43)" stroke="#000" stroke-width="1.16" fill="url(#h)"/>
<path d="m568.3 406.34l1.973 3.453 1.332-0.83-0.884-2.28 0.165-0.448 2.318-1.446 6.067 10.608-0.15 0.516-1.2 0.88 0.546 0.957 5.777-3.606-0.547-0.954-1.31 0.686-0.507-0.106-6.068-10.61 2.32-1.447 0.434 0.072 1.52 1.883 1.335-0.833-1.973-3.452-11.148 6.958zm-14.25 8.17l0.48 0.993 1.216-0.513 0.478 0.155 5.21 10.764-0.165 0.494-1.117 0.716 0.48 0.993 5.687-3.002-0.48-0.993-1.256 0.536-0.48-0.154-2.47-5.108 5.806-3.065 2.47 5.11-0.143 0.482-1.158 0.737 0.48 0.993 5.667-2.99-0.48-0.993-1.215 0.514-0.478-0.154-5.21-10.765 0.165-0.493 1.116-0.718-0.48-0.993-5.665 2.99 0.48 0.994 1.256-0.535 0.46 0.165 2.147 4.44-5.807 3.064-2.148-4.438 0.165-0.494 1.157-0.74-0.48-0.992-5.687 3zm-3.34 9.15l0.305 1.066 1.628-0.39 0.432 0.198 1.275 4.437c-0.55 0.217-0.952 0.368-1.168 0.435-3.32 1.037-6.004-0.613-7.128-4.53-1.093-3.806 0.24-6.687 3.455-7.692 0.625-0.195 1.237-0.27 1.89-0.21l0.434 0.29 1.072 2.177 1.574-0.492-1.06-3.697c-1.735 0.02-3.334 0.26-4.758 0.704-4.787 1.496-7.015 5.44-5.734 9.9 1.3 4.523 5.26 6.7 9.788 5.285 1.574-0.493 3.083-1.296 4.575-2.403l-1.454-5.068 0.257-0.413 1.22-0.5-0.306-1.066-6.298 1.968zm-13.34 12.51l6.428-2.024-0.32-1.064-1.473 0.346-0.45-0.24-3.483-11.577 0.253-0.412 1.407-0.563-0.32-1.064-6.428 2.025 0.32 1.064 1.452-0.338 0.435 0.196 3.484 11.578-0.24 0.456-1.385 0.554 0.32 1.064zm-34.8 5.69l11.316-1.036-0.345-4.047-1.433 0.13-0.155 2.432-0.243 0.387-4.888 0.446-0.502-5.88 2.74-0.252 0.322 0.29 0.35 1.61 1.242-0.115-0.447-5.25-1.243 0.115-0.073 1.65-0.268 0.34-2.74 0.252-0.458-5.383 4.194-0.384 0.3 0.27 0.484 1.962 1.475-0.136-0.3-3.55-10.622 0.97 0.095 1.11 1.295-0.005 0.364 0.287 1.028 12.056-0.307 0.392-1.276 0.23 0.095 1.108zm-16.84-14.91l0.02 1.112 1.228 0.092 0.345 0.357 0.21 12.053-0.332 0.37-1.225 0.133 0.02 1.112 5.985-0.104-0.02-1.112-1.27-0.09-0.345-0.358-0.1-5.72 6.112-0.107 0.1 5.72-0.31 0.37-1.267 0.134 0.02 1.113 5.965-0.104-0.02-1.113-1.23-0.092-0.343-0.357-0.21-12.054 0.33-0.37 1.226-0.135-0.02-1.113-5.965 0.104 0.02 1.113 1.272 0.092 0.323 0.358 0.087 4.97-6.113 0.108-0.087-4.97 0.332-0.37 1.267-0.136-0.02-1.112-5.985 0.105zm-12.85-0.43l-0.038 4.02 1.46 0.017 0.36-2.426 0.342-0.29 2.54 0.03-0.117 12.35-0.364 0.36-1.376 0.095-0.01 1.112 6.326 0.076 0.01-1.112-1.375-0.13-0.356-0.367 0.116-12.35 2.54 0.03 0.314 0.3 0.337 2.434 1.458 0.017 0.038-4.018-12.206-0.146zm-19.48 12.84l11.06 0.548 0.18-4.058-1.402-0.07-0.456 2.387-0.285 0.35-4.778-0.237 0.258-5.897 2.677 0.132 0.275 0.333 0.135 1.642 1.215 0.06 0.23-5.26-1.214-0.06-0.278 1.623-0.303 0.302-2.677-0.133 0.236-5.397 4.1 0.203 0.256 0.308 0.22 2.013 1.442 0.07 0.156-3.56-10.38-0.514-0.05 1.11 1.252 0.176 0.316 0.334-0.53 12.088-0.345 0.346-1.262 0.05-0.048 1.11zm-25.35-6.56l5.87 1.98 0.324-1.06-1.282-0.55-0.208-0.45 3.536-11.518 0.407-0.197 1.35 0.336 0.324-1.058-5.87-1.98-0.324 1.06 1.262 0.544 0.22 0.41-3.535 11.515-0.42 0.24-1.33-0.33-0.324 1.06zm-10.44-4.06c1.073 0.885 2.315 1.567 3.572 1.99 3.22 1.086 5.773-0.103 6.563-2.674 0.39-1.275 0.12-2.654-0.772-3.838-0.906-1.21-1.848-1.887-2.33-2.502-0.828-1.04-1.18-1.875-0.874-2.87 0.366-1.188 1.514-1.753 2.948-1.27 0.628 0.212 1.047 0.47 1.34 0.784l0.183 0.396-0.355 2.36 1.413 0.477 1.074-3.5c-1.09-0.893-2.247-1.57-3.465-1.98-2.807-0.946-5.204 0.296-5.94 2.694-0.326 1.06-0.18 2.276 0.465 3.423 0.618 1.09 1.43 1.77 2.08 2.466 1.156 1.247 1.625 2.263 1.267 3.43-0.366 1.188-1.574 1.735-3.165 1.2-0.608-0.206-1.145-0.507-1.634-0.887l-0.155-0.41 0.482-2.698-1.494-0.504-1.2 3.912zm-13.26-5.55l9.996 4.997 1.672-3.665-1.265-0.632-1.308 2.013-0.392 0.207-4.318-2.158 2.43-5.327 2.42 1.21 0.13 0.417-0.49 1.567 1.1 0.55 2.167-4.753-1.1-0.55-0.858 1.384-0.39 0.155-2.42-1.21 2.223-4.873 3.703 1.85 0.12 0.388-0.54 1.943 1.3 0.653 1.468-3.216-9.383-4.69-0.458 1.002 1.09 0.67 0.166 0.436-4.977 10.916-0.448 0.18-1.182-0.467-0.457 1.003zm-1.69-18.19l-5.03-3.466-0.585 0.93 0.99 0.82 0.086 0.493-6.333 10.065-0.466 0.113-1.11-0.63-0.585 0.93 5.03 3.465c1.723 1.187 3.194 1.793 4.835 1.62 2.136-0.214 3.957-1.46 5.364-3.695 2.504-3.98 1.8-7.888-2.198-10.643zm-2.098 0.076l1 0.69c2.74 1.886 2.98 4.526 0.74 8.09s-4.667 4.39-7.407 2.504l-1-0.69 6.667-10.594zm40.08 15.68l-0.224 1.088 1.167 0.376 0.258 0.383-2.438 11.837-0.395 0.284-1.213-0.152-0.224 1.088 5.685 1.257 0.224-1.088-1.207-0.382-0.25-0.426 1.03-4.998 0.343 0.075c2.035 0.45 2.363 1.52 2.553 3.77 0.104 1.135 0.08 2.176 0.945 3.296 0.398 0.53 1.088 0.96 1.956 1.152 0.625 0.138 1.324 0.223 2.052 0.27l0.22-1.068-0.262-0.058c-1.35-0.298-1.886-0.764-2.06-2.08-0.153-1.195-0.067-2.43-0.49-3.546-0.317-0.813-0.917-1.386-1.834-1.845 2.374 0.037 3.83-0.987 4.25-3.03 0.508-2.467-0.83-4.156-3.955-4.847l-6.128-1.355zm3.872 2.18l0.928 0.205c1.954 0.432 2.772 1.68 2.397 3.502-0.422 2.045-1.642 2.75-3.798 2.273-0.223-0.05-0.464-0.102-0.722-0.183l1.194-5.797zm74.1 1.29l0.173 1.098 1.33-0.11 0.406 0.253 1.883 11.943-0.3 0.42-1.294 0.334 0.173 1.098 6.265-1.07-0.173-1.098-1.373 0.12-0.413-0.297-0.795-5.042 0.378-0.064c2.244-0.383 2.973 0.482 3.997 2.493 0.525 1.013 0.886 1.988 2.18 2.687 0.602 0.334 1.466 0.462 2.422 0.3 0.688-0.12 1.432-0.315 2.192-0.56l-0.17-1.075-0.29 0.05c-1.487 0.253-2.206 0.03-2.868-1.122-0.598-1.047-0.966-2.227-1.81-3.096-0.624-0.63-1.448-0.925-2.552-0.99 2.436-0.9 3.542-2.423 3.217-4.484-0.393-2.488-2.382-3.53-5.827-2.94l-6.755 1.153zm4.757 0.5l1.022-0.175c2.155-0.368 3.45 0.47 3.74 2.306 0.325 2.063-0.66 3.197-3.036 3.603-0.244 0.042-0.51 0.087-0.803 0.114l-0.922-5.847z"/>
<path d="m467.82 625.48c0.625-0.937 7.187-11.875 7.187-11.875l-3.598-2.538c-1.106 3.094-5.153 4.1-5.778 7.85s2.813 7.5 2.188 6.563z" fill-rule="evenodd" transform="matrix(-1.48 0 0 1.54 1072.7 -524.06)" stroke="#000" stroke-width="1.16" fill="url(#i)"/>
<path d="m475 622.98s1.25-5.312-2.812-5.937c-4.063-0.625-6.214 2.973-5.625 1.562 0.654-1.567 3.125-3.125 3.437-8.437 0.313-5.313-0.312-8.125-0.312-8.125s1.562-6.876 8.125-5.938c6.562 0.938 6.875 5.938 6.875 7.813s-0.625 2.812-0.625 2.812l-9.08 16.26z" fill-rule="evenodd" transform="matrix(-1.48 0 0 1.54 1073.6 -525.43)" stroke="#000" stroke-width="1.16" fill="url(#j)"/>
<path d="m396.85 605.91s-75.43-21.26-74.99-102.14l0.58-106.91h148.82l0.584 106.3c0.44 80.882-74.993 102.76-74.993 102.76z" fill-opacity=".996" fill-rule="evenodd" transform="matrix(1.48 0 0 1.54 -99.33 -521.46)" stroke="#fff" stroke-width="3.867" fill="#0072c4"/>
<g fill-rule="evenodd">
<path d="m392.31 128.96c0.184 0 1.534-1.282 2.77-2.412 1.727-0.864 3.324-2.08 5.08-2.896 1.307-0.757 3.89-1.344 5.077-1.93 1.555-0.815 2.824-1.752 4.156-3.38 0.158-2.16 0.46-3.71 0.46-6.275 1.837-0.885 3.467-1.742 5.078-2.415 2.31-0.65 2.812-1.574 5.08-1.93 1.46-0.51 3.87-0.485 6-0.485 2.297 0 3.747 1.633 5.81 2.02 2.447 0.986 3.59 1.67 5.54 3.38 1.102 1.394 1.788 2.528 3.667 3.578 1.488 0.763 2.88 1.92 4.617 2.413 1.905 1.105 3.597 1.745 5.077 3.38 1.355 0.965 1.915 2.397 3.23 3.38 1.526 1.264 2.972 2.403 4.618 3.38 1.978 1.324 3.94 2.33 7.143 2.043 1.697-0.1 3.523-0.296 5.54 0.08 2.26 0 4.464-0.04 6.464 0.485 2.355 0 4.26 0.318 6.463 0.482 2.064 0.386 4.168 0.483 6.463 0.483 2.002 0.522 4.205 0.482 6.464 0.482h12.926c2.352 0 4.733 0.096 6.463 0.484 2.33 0 4.333-0.22 6.463-0.485 2.507 0 4.42-0.46 6.926-0.482h7.85c2.014 0.552 4.59 0.93 6 1.93 1.848 0.528 2.768 1.404 4.616 1.932 1.416 0.726 3.565 1.875 4.617 3.378 1.303 1.363 2.64 3.314 3.693 5.31 1.285 1.855 1.774 3.974 2.77 6.276 0.528 2.205 0.895 4.302 0.923 6.757 0.502 2.093 0.464 4.396 0.464 6.758-0.528 2.2-0.643 4.65-1.386 6.758-0.08 2.356-0.55 4.487-0.923 6.276-0.41 1.975-0.894 3.246-0.924 5.792v6.758c-0.16 2.217-0.646 3.845-0.922 6.275-1.117 2.108-2.186 4.573-3.23 7.24-1.537 1.072-2.87 2.595-3.694 3.863-0.985 0.61-1.556 1.532-1.386 1.93 1.845 0.643 1.386 1.927 1.386 4.345 0.24 1.86 0.42 4.17 0.923 6.276 0.17 2.303 0.662 3.712 1.385 5.308 0.728 0.95 0.87 0.483-0.924 0.483-1.334 1.047-2.684 0.5-3.23-1.448-1.078-1.3-1.432-2.87-1.847-5.31-0.255-2.234-0.612-4.412-1.385-5.79-0.236-2.722-0.96-2.694-3.693-2.898-1.3-1.152-3.017-1.45-5.54-1.45-2.513 0-2.724-0.255-2.77 2.416v6.758c-0.434 1.96-1.387 3.547-1.847 5.31-1.377 1.008-2.093 2.7-3.693 3.86-0.762 2.193-1.87 2.574-4.156 2.897-0.8-0.998-2.102-2.3-2.77-3.378 1.293-2.17 2.422-2.496 3.233-4.827 0.98-1.922 1.556-3.17 2.306-4.828-0.985-1.516-1.87-2.2-2.77-4.345-0.76-1.168-1.81-3.68-2.307-5.31-1.517-0.527-3.904-0.612-5.08-1.448-2.24-0.522-2.866 1.93-5.54 1.93h-6.462c-2.858 0-3.572 1.596-6.002 1.45-0.714 0.23-2.445-0.103-5.08 0-1.928 0.67-4.252 0.48-6.462 0.48-2.342-0.03-4.258-0.568-6-0.965-2.122-0.58-4.232-1.17-6.464-1.447-2.71 0-3.72 0.216-5.54 1.447-1.44 0.855-3.528 2.807-5.08 3.862-0.655 1.602-0.996 4.313-1.846 6.276-0.49 1.883-1.288 3.077-1.846 4.828-0.625 1.633-1.216 3.314-1.385 5.793-0.156 3.253-0.867 2.855-2.77 1.93-0.793-1.346-2.057-2.827-2.77-4.344 0.42-2.457 0.893-3.68 0.924-6.276-0.45-1.874-1.498-1.813-2.77-0.483 0 2.528 0.117 4.477-0.924 5.793-0.52 1.995-1.356 2.857-2.77 3.862-0.69 1.792-2.226 2.612-3.693 3.38-0.235-0.082 0-0.647 0-1.93-1.106-2.208-0.08-4.04-0.08-6.76 0.03-2.437-0.11-4.052 0.597-6.275 0-2.34-1.085-4.566-1.44-6.275-0.858-1.793-1.353-2.68-3.693-3.38-1.645-0.653-4.014-1.537-5.08-2.896-1.34-1.74-2.195-2.454-4.153-3.38-2.124-0.77-3.155-1.473-4.616-2.414-1.427-1.574-2.587-2.256-3.232-4.343-0.964-1.485-1.13-4.242-1.847-6.277-0.157-2.12-0.764-4.088-1.384-5.792-0.274-2.12-0.608-3.67-1.385-5.793-0.257-1.984-0.83-4.06-1.384-6.273 0-2.362 0.04-4.667-0.462-6.76v-6.757c-0.332-1.95-0.455-4.807-0.923-6.276 0-2.626-0.28-4.11-0.923-5.793-1.056-1.704-1.142-2.47-2.77-2.895-1.176 1.5-3.114 2.112-5.54 2.415-1.695-0.387-4.086-0.638-6.002-1.45-1.85-0.455-3.117-1.187-4.617-1.93-0.82-1.262-1.8-2.69-2.77-3.862-0.286-2.52-0.836-3.82-0.923-6.275 0-1.843 0.044-0.865 1.846-3.38z" fill="#bcbcbc"/>
<path d="m419.65 146.36l0.328-0.34c-0.742 0.774-0.47 0.4 1.306-0.343 0.993-0.625 2.88-1.727 3.59-2.39 0.854-0.39 2.21-0.9 2.938-1.705 0.91-0.97 1.82-1.776 2.938-2.732 1.293-1.097 2.498-1.457 3.918-2.39 1.847-0.137 2.516-0.928 4.243-0.34 1.622 0.367 2.294 0.377 3.592-1.025 1.31-0.84 2.753-1.654 3.265-3.073v-2.046c-0.025 2.23-0.427 2.953-1.96 3.753-1.067 1.224-2.398 2.608-2.937 3.756-1.037 1.5-1.257 2.34-2.285 3.072-0.844 1.075-2.292 1.644-2.61 3.412 0.464 0.813 0.04 1.258 0.977 1.366 0.946 0.812 1.93 0.466 3.265 0 1.328-1.537 1.925-2.53 2.612-4.095 1.095-1.497 1.708-2.21 2.284-3.414 1.135-0.823 1.856-1.464 2.286-2.73 1.313-0.77 2.393-1.578 3.263-2.39 0.976-0.628 1.494-1.138 2.938-1.366-0.02 1.833-0.29 2.7-0.978 3.755-0.325 1.9-0.26 2.802 0.326 4.096 0.938 0.58 0.772 1.084 1.306 2.39 0.532-1.13 0.802-3.415 0.98-4.78v-0.342c0 1.493 0.136 3.473-0.327 4.438 0.022 1.99 0.464 2.878 0.98 4.437 0.55 0.752 0.938 1.24 1.632 1.707 0.064-1.97 0.556-3.267 0.652-5.12 0.455 1.43 0.303 3.32 0.653 4.778 0.118 1.607 0.7 2.852 1.306 4.097 0.744 0.46 0.997 1.813 1.305 0.683 0.773-2.402 0.792-5.03 1.306-7.51 0.094-1.26 0.195-3.133 0.654-4.096l-0.653 4.095c0.094-1.26 0.195-3.132 0.654-4.095v-0.34c0.305 1.797 0.593 3.533 0.653 5.46 0 1.536-0.1 3.1 0.327 4.437 1.086-0.503 1.715-1.68 2.285-3.073 0.87-1.65 1.465-2.382 2.61-3.754l-2.61 3.754c0.87-1.65 1.465-2.382 2.61-3.754v-0.34c-0.18 1.573-0.325 3.056-0.325 4.777 0 1.574-0.018 3.358 0.326 4.438 0.385 1.81 0.91 2.145 0.98 4.095 0 0.95-0.124 1.92 0.327 2.39 1.406 0.367 1.41-0.452 1.632-2.39 0.017-2.202 0.58-3.703 0.65-5.802 0-2.59 0.367 0.316 0.654 1.366 0.66 1.52 0.864 2.872 0.98 4.437 0 0.95-0.123 1.92 0.326 2.39 1.26-0.523 1.76-1.996 2.612-2.732 0.65-1.616 1.322-2.33 1.96-3.41 1.69-0.355 1.607-1.05 1.63-3.073 0-1.633-0.127-3.352 0.328-4.78 0.523-1.483 1.016-3.134 1.305-4.436 0.61-0.364 1.27 0.538 1.63 1.366 0.716 1.1 0.654 2.705 0.654 4.437 0.314 1.51 0.942 2.69 1.632 4.096 0.818 1.577 1.483 2.533 2.285 3.413 0.344 1.08 0.327 2.864 0.327 4.437 1.272-1.445 1.515-3.598 1.632-5.802-0.17-1.5-0.202-3.368-0.653-4.78-0.052-1.503-0.32-3.055-0.653-4.095-1.102-0.53-1.276-1-0.326-2.39 1.05-0.908 2.185-0.557 3.918-0.34 0.876 0.915 1.236 1.405 1.305 3.41 0 1.82 0.077 3.218 0.653 4.44 0.64 0.982 1.272 1.657 1.63 3.413 0.502 0.428 0.89 1.12 1.634 0.342 0.41-1 0.65-3.062 0.98-4.097 0.318-1.295 0.893-1.93 1.632-2.39 0 1.9-0.022 3.066 0.653 4.44 0.638 1.524 1.082 2.097 1.63 3.755 0.697 0.485 0.786 1.53 1.633 2.046 0.2-1.602 0.327-3.437 0.327-5.46v-4.78c0.12-1.625 0.514-2.54 0.98-3.752 1.05 1.31 0.98 1.852 0.98 3.753 1.073-0.4 1.253-1.17 1.63-2.387 0.767-0.675 0.976-0.99 1.306 0.68 0.23 1.787 0.665 3.395 0.98 5.122 0.67 0.788 1.447 2.696 2.285 3.414 0.575 0.975 1.22 1.92 1.96 2.73 0.508 1.123 0.638 1.71 1.958 2.047 0-2.31 0.077-4.627-0.326-6.826 0-1.96-0.428-2.66-0.653-4.437-0.545-1.177-0.865-2.912-0.654-3.412 1.53 1.517 2.22 2.398 2.938 4.096 0.766 1.64 1.41 2.743 1.958 4.437 0.755 0.648 2.092 2.59 2.612 3.414 1.165 1.04 1.733 2.126 2.938 3.07 0.623 0.588 1.94 0.916 2.285 0.684-0.06-2-0.364-3.72-0.98-5.46-0.02-1.91-0.458-2.948-0.978-4.096-1.285-1.108-2.26-1.863-2.94-3.414-0.505-0.432-0.604-0.755-0.653-1.705 1.876 1.552 3.187 2.936 4.57 4.777 0.936 1.213 1.412 1.763 2.613 2.39 0.65 0.73 2.545 1.638 3.916 2.048 0.823 1.09 1.922 1.718 3.265 2.05l-3.264-2.05c0.823 1.09 1.922 1.718 3.265 2.05v0.34c-0.163-2.135-0.947-3.695-1.958-5.462-0.85-1.868-1.63-2.56-2.938-3.755-0.854-1.352-1.81-2.15-3.264-3.07-0.9-1.06-2.25-2.82-2.938-3.415 1.392-0.874 3.027 0.592 4.57 1.366 1.274 1.38 2.465 3.18 3.264 4.095 0.87 1.753 1.537 2.838 2.94 4.437 1.405 0.834 2.38 1.66 3.59 2.73 1.87 0.518 1.124-0.166 0.653-1.706-0.647-1.926-0.072-1.956 1.305-0.682 0.908 0.647 1.92 1.725 3.263 2.39 0.58 0.752 1.457 1.17 2.286 0.682 0.345-0.482 0.326-0.427 0.326-1.024-0.687-2.118-1.325-3.767-2.938-4.438-0.74-0.942-1.942-2.063-2.937-3.072-0.65-1-1.408-1.576-1.96-2.73l1.96 2.73c-0.65-1-1.408-1.576-1.96-2.73h-0.326c1.97 0.073 2.672 0.573 4.242 1.366 1.12 0.408 2.327 1.475 2.94 2.388 0.635 0.845 1.655 1.753 2.284 2.73 1.003 0.773 2.11 1.652 3.265 2.39 1.087 1.425 1.282 2.352 1.307 4.44 0.626 0.964 0.738 2.938 0.978 4.094-0.24 1.877-0.882 0.403-0.978-0.683-0.277-1.507-0.85-1.428-1.96-1.023 0 2.062 0.228 2.626 0.98 4.096-0.204 1.41-0.672 2.44-1.306 3.414-0.76 0.454-0.925-1.004-1.63-1.707-0.076-2.11-0.67-2.343-1.96-3.414v1.366c0.728 1.457 1.497 2.785 1.632 4.78 0.504 1.52 0.653 2.482 0.653 4.436 0 1.67 0.027 3.3-0.326 4.78 0 1.85-0.307 2.645-0.328 4.437v9.558c-0.25 1.207-0.326 2.78-0.326 4.436l0.326-4.438c-0.25 1.208-0.326 2.782-0.326 4.437v0.34c-0.62-1.715-1.296-3.267-1.632-5.12-1.058-1.047-1.73-2.126-2.286-3.413-0.25-1.464-0.406-3.253-0.653-4.438-0.46-1.203-0.947-2.486-1.96-1.706-0.4 2.544 0.106 4.06 0.98 6.484 0.513 1.608 0.457 2.872 0.98 4.438 0.757 1.805 1.365 2.064 0 4.095-0.673 1.084-1.034 1.427-1.306 2.732-1.208 0.632-1.51 0.913-1.632 2.39-0.406-1.328-1.393-2.884-1.96-4.438-0.584-1.634-1.306-3.313-1.63-4.778-0.793-1.143-1.722-2.992-2.613-3.755-0.82-1.102-1.997-2.94-2.612-4.095-1.25-1.457-1.526-2.3-2.61-3.07-0.28-0.683-0.612-1.534-1.306-1.025 0 1.632-0.13 3.35 0.326 4.777 0.33 2.013 0.91 3.13 0.98 5.12v3.756c-0.785-1.923-1.622-3.64-2.286-5.462-0.713-1.018-1.41-3.003-2.285-3.754-0.555-1.324-0.988-2.422-1.632-3.412-0.167-0.992-0.606-0.98-0.98-1.707 0.022 1.935 0.61 2.613 0.98 4.095 0.636 1.3 0.84 3.48 0.653 4.096-0.823-2.392-1.568-5.008-2.612-7.167-0.99-1.402-1.955-3.204-2.61-4.437-0.972-1.172-1.97-1.21-2.938-2.048-0.882-0.437-1.726-0.926-2.285-1.707 0.257 1.8 0.927 2.924 1.305 4.438 0.215 1.716 0.97 3.09 1.306 4.438-0.363 2.335-0.89-0.648-1.306-1.707-0.344-1.922-0.98-2.99-1.632-4.097-0.875-0.622-1.67-1.727-2.612-2.39-0.916-0.367-0.653 0.067-0.653 1.366 0 2.112 0.077 3.507 0.653 4.78 0.652 1 0.653 2.306 0.653 4.094-0.056 1.68-0.325 3.03-0.325 4.78v2.72c-0.75-1.45-1.46-2.275-1.96-4.096-1.132-1.55-1.468-2.688-2.285-4.436-0.724-0.305-1.902-0.556-2.61 0 0.127 1.727 0.89 2.487 0.98 4.436-1.302 1.333-1.067 1.713-1.96-0.34-0.744-1.557-1.61-1.484-2.61-2.39-1.64-0.214-1.12-1.263-1.634-2.73 0-1.315 0.13-2.642-0.326-3.756-1.79 0-2.816-0.064-3.917 1.025-0.518 1.08-0.335 3.033 0 4.436v4.778c-0.372 1.196-1.11 1.26-1.306 2.73-0.63 1.458-0.84 3.066-1.305 4.098-1.163 1.05-0.658 1.182-1.306-0.683v-10.925c0-1.854 0.267-2.758 0.326-4.435-0.677-1.415-0.86-1.68-2.938-1.707-0.506 0.882-0.313 2.52 0 3.414 0 1.654 0.075 3.23 0.326 4.436 0 1.813 0.214 2.912 0.327 4.438-0.062 1.81-0.4 3.25-1.306 4.096-1.177 0.308-0.128 1.057-1.305 1.366-1.18-0.592-2.568-1.396-3.59-2.39-1.27-0.404-2.466-0.682-4.244-0.682-2.164-0.028-2.2-0.29-2.938-2.05-0.662-1.88-0.973-3.514-1.306-5.46-0.718-1.598-0.886-2.687-1.306-4.437-0.548-1.043-1.133-1.83-1.957-2.39-0.473 1.726-0.917 3.17-0.98 5.12-0.382 0.8-0.462 2.834-0.652 3.754-0.655-1.01-0.912-2.995-1.305-4.435-0.62-2.07-1.148-3.414-3.265-2.73-2.197 0.027-2.26 0.09-2.286 2.39 0.946 1.48 1.956 2.918 2.612 4.094v4.778c0 1.973 0.115 2.544-1.306 3.072-0.54-2.048-1.688-4.003-2.938-5.803-0.17-1.392-0.6-1.024-1.957-1.024-0.91 0-1.837-0.128-2.286 0.34 0 1.19 0.097 2.842 0 3.074-0.788 0.145-1.106-0.008-1.633-0.683-0.57 0.993-0.14 2.393 0 3.755-0.415 1.518-0.91 2.905-1.633 3.753-0.144-0.454-0.47-0.342 0-0.342-2.24-0.86-3.993-1.39-5.875-2.045-1.134 0.146-1.957 1.19-2.613 2.046-1.66 0.56-2.393 1.002-4.244 1.025-1.776 0-2.64 0.28-4.244 0.342-1.155 0.262-2.662 0.34-4.244 0.34-0.878-0.26-2.41-0.268-2.94-0.682 0.675-1.005 1.426-1.513 1.96-3.07 0.894-0.637 1.732-1.452 2.612-2.39 0.86-0.613 1.87-1.883 2.61-2.73 0.51-1.645 1.21-1.93 2.286-2.732 1.94 0.076 2.32 0.692 4.244 1.024 1.88 0.712 2.92 0.922 3.918-0.34 1.56-0.66 2.882-1.69 4.57-2.05 1.307-0.653 2.144-1.288 3.264-2.048 1.39-0.837 2.05-1.696 3.265-2.73 0.347-1.392 1.33-2.467 0.98-4.097-1.767-0.462-2.89-0.277-3.918 0.683-1.43 1.177-1.7 1.666-3.265 2.73-1.352 0.385-1.93 0.98-3.59 1.366-1.365 0.476-3.01 0.342-4.57 0.342-1.428 0-3.322-0.142-4.245 0.34 1.452-0.977 3.197-1.993 4.57-2.39 1.318-0.884 1.816-1.332 3.592-1.364 0.823-1.078 1.673-1.105 1.956-2.73 0.553-2.02-1.204-1.38-2.61-0.684-1.327 0.244-2.79 1.183-3.918 1.707-1.09 0.38-2.68 0.663-4.244 0.683-0.412-0.615 0.322-1.106 0.653-2.05 1.525-0.54 1.77-0.738 1.96-2.388-1.73 0.24-2.39 0.808-3.92 1.024-1.665 0.436-3.394 0.63-5.22 0.683h-4.572c-1.604-0.062-2.47-0.342-4.243-0.342-1.3-0.68-1.306-1.002-1.306-3.072 1.024-1.176 2.02-1.022 3.917-1.022 1.46-0.718 2.597-1.1 3.59-1.707 1.183-0.254 1.99-0.76 1.633-1.364h-4.57c-1.76-0.745-0.08-1.086 0.98-1.707 1.587 0 3.225 0.093 4.243 0.682 1.963-0.076 2.647-0.697 4.242-2.05 1.25-1.03 1.864-1.687 3.265-2.388 1.006-1.11 1.956-1.723 2.612-2.73 1.342-1.28 2.23-1.988 2.937-3.072 0.864-0.476 1.392-1.09 0.98-1.707-2.046 0.25-2.874 0.993-4.245 2.048-0.796 0.793-1.57 1.503-2.612 2.048-1.47 0.874-2.385 1.228-4.242 1.365-1.676 0-2.964-0.28-4.57-0.34-1.774-0.186-0.142-0.6 0.325-1.365 0.686-0.48 1.22-1.542 0.653-2.39-1.365-0.475-3.008-0.34-4.57-0.34h-4.57c-1.725-0.067-2.455-0.463-3.59-1.025-0.353-0.958 0.062-0.683 1.305-0.683 1.574-0.062 2.69-0.276 4.245-0.683 1.535-0.438 1.727-0.95 1.958-2.732-1.506 0-3.21 0.02-4.243-0.34h-2.94zm-28.27-7.74c-0.287-2.52-0.836-3.82-0.924-6.275 0-1.843 0.045-0.865 1.847-3.38 0.182 0 1.532-1.282 2.77-2.412 1.726-0.864 3.323-2.08 5.078-2.896 1.307-0.757 3.89-1.344 5.077-1.93 1.556-0.815 2.825-1.752 4.156-3.38 0.16-2.16 0.464-3.71 0.464-6.275 1.836-0.885 3.465-1.742 5.077-2.415 2.312-0.65 2.812-1.574 5.08-1.93 1.46-0.51 3.872-0.485 6-0.485 2.298 0 3.747 1.633 5.81 2.02 2.447 0.986 3.59 1.67 5.54 3.38 1.103 1.394 1.788 2.528 3.668 3.578 1.487 0.763 2.88 1.92 4.616 2.413 0.015 1.743 0.386 1.442-0.858 1.442-0.132 1.786-0.56 1.675-2.286 1.707-1.323-0.72-2.267-1.69-2.938-2.732 0.653-1.773 0.22 1.435 0 2.048-0.84 0.69-1.338 1.426-2.285 0.683-0.53-1.666-0.978-2.817-0.978-4.78-0.25-2.132-0.846-0.584-1.307 0.343-0.442 1.72-0.24 2.343 0.326 3.753-1.666 0-2.942-0.157-4.245-0.34-1.21-0.302-2.572 0.068-3.918 0.682-1.71 1.073-1.177 1.08-0.326 2.39 1.51 0.444 2.593 1.28 3.92 2.048 1.505-0.3 3.08-0.635 4.57-1.025 1.555-0.54 2.98-0.196 4.57 0 0.788 0.414 1.825 0.497 2.284 1.026 0 1.055 0.084 2.158-0.326 2.73-0.68 0.452-1.324 1.7-2.286 2.047-1.44 0.825-2.95 1.344-4.57 1.707-2 0.076-2.73 0.515-4.243 1.366-0.25 1.725-0.753 2.212-2.287 2.73-1.526 0.667-2.74 1.025-4.57 1.025-0.908 0-1.835 0.13-2.285-0.34 1.454-1.66 1.89-2.44 2.612-4.097 0.282-0.69 0.873-1.134 0.327-1.707-1.934 0.076-2.44 0.063-2.612 2.048-0.22 1.798-0.91 2.1-2.285 2.73 0.37-1.664 0.432-2.943 0.98-4.436-1.156 0.262-2.662 0.34-4.245 0.34-0.99 0.628-1.4 0.872-0.98 2.05-1.312 0.456-2.91 0.175-4.57 0-1.386-0.076-0.62-0.705-1.63-1.366-0.663-1.3-1.424-1.616-2.94-1.707-0.752 0.94-2.145 1.33-2.938 2.048-1.43 0.5-2.34 0.085-3.59-0.683-1.63 0.05-1.412 0.576-0.98 1.707 0.622 0.434-0.038 0.907 0.98 1.024 0.938 0.852 1.74 1.025 3.59 1.025 1.415-0.37 2.974-0.34 4.57-0.34 1.612 0.05 1.307 0.43 1.307 2.047-1.054 0.746-2.59 0.683-4.245 0.683-1.576-0.196-2.784-0.604-3.917-1.024-1.53-0.113-2.752-0.405-3.918 0-0.526 0.583-2.11 0.838-0.326 1.025 0.7 0.66 4.478 0.342 4.747 1.466 0.89 0.99 0.692 2.29-0.83 2.29-0.925-0.483-1.64-0.364-2.286 0-1.086 0.285-2.377 0.078-4.274 0.22 2.477 0.204-1.8-2.69-2.77-3.862z" fill="#fefefe"/>
<path d="m401.69 127.25c-0.108 0-1.083 0.677-1.96 1.364-1.433 0.768-2.965 2.075-3.916 2.73-0.748 0.6-0.744 0.862-1.63 1.026 1.555-0.22 2.248-0.617 3.59-1.366 1.695-0.204 3.338-0.564 4.244-1.365 0.85-0.298-0.064-1.66-0.327-2.39zm15.02-16.05c0.187 0 0.57 1.067 1.304 1.706 0.47 1.31 0.903 2.235 0.98 3.755 0.4-1.667 1.084-3.008 1.305-4.778-0.507-0.9-0.54-1.32-1.958-1.365 0 0.922 0.108 0.32-1.63 0.682z" fill="#bcbcbc"/>
<path stroke="#000" stroke-width=".875" fill="#c4c4c2" d="m349.36 417.73c-0.494 0 0.87-0.492 1.326-0.663 0.364-0.767 0.653-1.31 1.326-1.767 1.107 0.085 1.65 0.404 2.21 1.104 0.93 0.254 1.265 0.697 2.43 0.884 0.434 0.366 1.02 0.408 0 0.663-0.692 0.367-1.563 0.443-2.65 0.443-1.14 0.082-1.955 0.333-2.653 0.663-1.48 0-1.243 0.05-1.99-1.326z" transform="matrix(1.48 0 0 1.54 -109.52 -520.08)"/>
<path d="m422.58 111.54v0.34c0-0.92-0.02-0.45 0.327 1.366 0.54 1.145 0.653 2.373 0.653 4.097 0.857-0.64 1.572-1.916 1.96-3.073 0-2.695-0.366-2.536-2.94-2.73zm12.08 39.25h0.327c-0.96 0-0.42 0.06 1.306-1.024 1.117-0.778 2.03-1.93 3.592-2.39 1.51-1.24 2.673-1.82 4.242-2.388 0.766-0.367 1.44-1.005 2.286-0.34-0.243 1.683-0.522 2.32-1.96 3.07-0.742 0.973-1.912 1.54-2.936 2.048-1.062 0.488-2.23 0.513-2.612 1.707-1.776 0.817-1.994 0.68-4.244-0.683zm6.2 9.9c0.583-0.46 2.627-2.592 3.59-3.412 1.09-1.503 2.193-2.653 3.265-3.414 0.952-1.465 2.17-2.446 2.94-3.755 0.906-1.147 1.573-2.12 2.61-3.412 0 1.492-0.136 3.47 0.325 4.437 0 2.062-0.227 2.626-0.978 4.096-0.74 1.21-1.294 2.01-2.938 2.732-1.484 0.822-2.373 1.11-3.592 2.047-0.93 0.597-1.897 1.192-2.94 1.706-0.932 0.42-0.504 0.236-2.283-1.024zm-10.11 7.85h0.326c-0.96 0-0.42 0.058 1.306-1.025 1.393-1.457 2.503-1.963 4.245-2.73 1.325-0.108 2.928-0.452 3.917-1.025 0.79-0.146 1.34-0.648 1.958 0 1.025 1.45 1.307 1.858-0.327 2.73-0.78 0.694-2.158 1.392-3.262 1.708-0.815 0.702-2.43 0.746-3.918 1.024-1.334 0-2.075 0.157-2.612-0.683l2.612 0.682c-1.334 0-2.075 0.157-4.244-0.683zm14.03 0v-0.342c0 0.953-0.04 0.448 0.653-1.366 1.224-1.91 1.684-2.963 3.265-3.414 0.74-0.936 2.023-1.178 3.59-1.707 0.59 1.027 0.137 2.223 0 3.415-0.425 1.275-1.59 2.174-2.284 3.073-1.018 0.723-1.433 1.418-2.938 1.706-1.246 0-0.585-0.032-2.286-1.365z" fill="#bcbcbc"/>
<path d="m412.79 124.16c0 0.942-0.73 1.706-1.632 1.706-0.9 0-1.632-0.764-1.632-1.707 0-0.944 0.73-1.708 1.632-1.708s1.632 0.764 1.632 1.707z"/>
</g>
<g stroke-opacity=".996" fill-opacity=".996" fill-rule="evenodd" stroke="#002b0d" stroke-width="1pt" fill="#005120">
<path d="m351.79 479.6h0.884c-2.77 0-1.115-0.185 3.535 3.535 1.947-1.623 1.924-1.842 3.535 0.884 0.93 1.55 1.203-0.16 2.65-1.768 0.7 3.21 1.146 6.578 3.537 3.535 2.73 0 5.59-0.227 7.07 0.884 1.79 3.326 1.205-0.563 2.653 0.885 3.892 0.467 3.818-3.338 8.057-4.322 2.635 3.293 3.79 0.76 7.072-0.883 2.438 0.682 4.736 4.38 5.2 0.785 1.996-3.256 2.17-2.98 3.536 0 1.94 1.748 2.76-0.874 4.42-1.767 2.958 1.73 6.258 1.97 10.606 0.884 0.736 2.944 2.592 1.667 4.42 0.883 3.91 1.643 5.273 2.146 9.722 0 2.204-2.604 0.956 0.073 2.65 1.768 3.297-1.023 2.387-1.24 6.19-0.884 3.82 0 4.13-0.093 5.302-2.652 1.92 1.92 2.614 3.304 5.303 0.884 4.12 0.12 2.846 0.52 5.304-0.884 1.818 4.026 2.245 1.117 4.42 2.65-1.433 3.632-3.633 5.335-6.188 7.072-1.7 2.816-2.764 5.857-6.188 7.072-2.498 2.548-5.16 4.025-7.955 6.187-3.832 0.957-8.05 0.883-12.375 0.883h-37.11c-2.64 1.32-6.96 1.948-10.608 2.65-4.075 0-8.694 0.05-11.49-0.883-1.895-1.894-5.22-4.01-7.07-6.187-1.875-1.51-1.93-4.46-3.537-6.187-1.48-2.53-1.936-6.486-3.535-8.84v-6.18z" transform="matrix(1.48 0 0 1.54 -103 -521.43)"/>
<path d="m437.52 487.56v0.884c0-2.47 0.11-1.158-1.768 3.535-0.38 1.14-1.212 1.407-2.652 1.767m-3.53-2.65h0.884c-3.273 3.09-5.476 4.515-6.188 7.955l6.188-7.955c-3.273 3.09-5.476 4.515-6.188 7.955m-7.07-12.36c0 0.08-0.124 3.153-0.884 4.42m-2.65 1.76v0.884-0.884zm-7.07-5.3h0.884-0.884c0.294 0 0.59 0 0 0zm-49.5 0c0.422 0 2.16 2.806 4.42 4.42-0.563 2.585-1.427 5.577 0 7.954m2.65-7.07c0.422 0 2.16 2.807 4.42 4.42l-4.42-4.42c0.422 0 2.16 2.807 4.42 4.42v0.884c0-2.73-0.227-5.59 0.883-7.072 0.983 1.663 2.224 4.337 2.652 1.768 4.978-0.178 7.38-1.576 10.607-2.65 0 1.3-0.21 0.674 0.884 1.766m60.1-3.53h0.884c-1.667 1.39-2.946 4.222-4.42 6.187m-32.7-8.84h7.07" transform="matrix(1.48 0 0 1.54 -103 -521.43)"/>
</g>
<path fill="#fff" d="m413.61 239.34c-15.702 0-20.906 16.41-36.61 16.41-0.302 0-0.588-0.024-0.883-0.035v0.993c-0.06 11.375 0.835 21.97 2.466 31.864 14.485-1.058 19.866-16.41 35.028-16.41 15.704 0 20.945 16.446 36.65 16.446s20.943-16.447 36.646-16.447 20.944 16.447 36.648 16.447 20.944-16.447 36.647-16.447c15.123 0 20.52 15.244 34.92 16.373 1.724-10.158 2.635-21.07 2.574-32.784v-0.037c-0.294 0.012-0.58 0.037-0.883 0.037-15.702 0-20.906-16.41-36.61-16.41s-20.944 16.41-36.647 16.41-20.944-16.41-36.648-16.41-20.944 16.41-36.647 16.41-20.944-16.41-36.647-16.41zm0 64.07c-12.214 0-18.09 9.902-27.485 14.313 3.282 9.047 7.25 17.283 11.664 24.836 4.46-3.374 9.202-6.292 15.822-6.292 15.695-0.012 20.934 16.4 36.64 16.4 15.705 0 20.945-16.41 36.65-16.41 15.702 0 20.943 16.41 36.646 16.41s20.944-16.41 36.648-16.41c6.472 0 11.15 2.794 15.527 6.07 4.415-7.517 8.398-15.738 11.7-24.725-9.244-4.47-15.123-14.203-27.227-14.203-15.703 0-20.944 16.41-36.647 16.41s-20.945-16.41-36.65-16.41c-15.702 0-20.943 16.41-36.646 16.41s-20.944-16.41-36.648-16.41zm73.28 64.05c-15.703 0-20.944 16.448-36.647 16.448-14.85 0-20.347-14.703-34.182-16.3 18.49 20.597 39.458 33.068 53.757 39.92 4.836-3.752 9.844 4.564 17.072 4.564 7.178 0 12.16-8.36 16.963-4.636 14.14-6.885 34.853-19.375 53.242-39.775-13.384 1.956-18.932 16.225-33.558 16.225-15.703 0-20.944-16.447-36.648-16.447z" fill-rule="evenodd"/>
<g transform="matrix(1.18 0 0 1.18 -406.92 -18.22)">
<path d="m332.54 541.35c1.744-0.58 10.173-3.197 10.464-2.907 0.29 0.29 16.278 15.697 16.278 15.697l-13.37 2.616-13.372-15.406z" stroke-opacity=".996" transform="matrix(1.25 0 0 1.3 259.35 -430)" stroke="#512007" stroke-width=".475" fill="none"/>
<path d="m413.64 471.01c0.29-4.65 8.72-31.103 8.72-31.103m-5.82 31.41c0-0.29 6.686-31.127 6.686-31.127m-4.4 31.18c0.29-1.744 5.558-31.175 5.558-31.175m-10.46 27.03c1.453-0.872 5.813-2.035 5.813-2.035m-3.78-2.62c1.453 0 4.36-1.163 4.36-1.163m-3.49-2.33c0-0.29 4.36-1.163 4.36-1.163m-3.78-3.2l4.65-0.872m-2.61-2.91c0 0.29 3.197 0.29 3.197 0.29m-2.33-3.78c0.58 0 3.197 0.58 3.197 0.58" stroke-opacity=".996" transform="matrix(1.06 0 0 1.03 276.8 -177.96)" stroke="#512007" stroke-width=".594" fill="none"/>
<path d="m413.64 471.01c0.29-4.65 8.72-31.103 8.72-31.103m-5.82 30.22c0-0.29 6.686-29.94 6.686-29.94m-3.78 27.62c0.29-1.744 4.94-27.614 4.94-27.614m-10.46 27.03c1.453-0.872 5.813-2.035 5.813-2.035m-3.78-2.62c1.453 0 4.36-1.163 4.36-1.163m-3.49-2.33c0-0.29 4.36-1.163 4.36-1.163m-3.78-3.2l4.65-0.872m-2.61-2.91c0 0.29 3.197 0.29 3.197 0.29m-2.33-3.78c0.58 0 3.197 0.58 3.197 0.58" stroke-opacity=".996" transform="matrix(-1.25 0 0 1.76 1290.4 -502.06)" stroke="#512007" stroke-width=".41" fill="none"/>
<path d="m413.64 471.01c0.29-4.65 8.72-31.103 8.72-31.103m-5.82 30.22c0-0.29 6.686-29.94 6.686-29.94m-3.78 27.62c0.29-1.744 4.94-27.614 4.94-27.614m-10.46 27.03c1.453-0.872 5.813-2.035 5.813-2.035m-3.78-2.62c1.453 0 4.36-1.163 4.36-1.163m-3.49-2.33c0-0.29 4.36-1.163 4.36-1.163m-3.78-3.2l4.65-0.872m-2.61-2.91c0 0.29 3.197 0.29 3.197 0.29m-2.33-3.78c0.58 0 3.197 0.58 3.197 0.58" stroke-opacity=".996" transform="matrix(-1.25 0 0 1.3 1321.3 -301.92)" stroke="#512007" stroke-width=".475" fill="none"/>
<path d="m395.32 572.16c0-0.29 0.872-72.96 0.872-72.96s2.616-0.29 2.616 0-0.29 72.67-0.58 72.96-3.2 0.58-2.908 0zm28.49-69.76c0 0.582-0.582 61.333-0.582 61.333l-2.035 2.326 0.582-63.66h2.035z" stroke-opacity=".996" fill-rule="evenodd" transform="matrix(1.25 0 0 1.3 259.35 -430)" stroke="#512007" stroke-width=".475" fill="#dd8b59"/>
<path d="m363.06 560.24s2.907 29.94 36.335 29.068 42.73-30.23 42.73-30.23-14.244-0.582-14.535-0.582c-0.29 0-11.627 13.953-26.16 13.662s-19.185-3.78-22.383-6.685c-3.197-2.907-6.104-7.267-6.104-7.267l-16.86-6.686 0.873 6.395 6.104 2.325zm90.24-3.11c-0.29-0.872-1.007-3.866-1.007-3.866v-3.488l1.61-3.532s-25.29 3.623-25.29 3.914c0-0.335-0.156 6.885-0.156 6.885l24.843 0.087z" stroke-opacity=".996" fill-rule="evenodd" transform="matrix(1.25 0 0 1.3 259.35 -430)" stroke="#512007" stroke-width=".475" fill="#dd8b59"/>
<path d="m448.52 549.78l-0.58 6.104h4.068l-0.29-6.104h-3.198zm-4.36 0.29l-0.29 6.394 2.615-0.29 0.29-6.104h-2.615zm-4.36 6.39v-4.94l2.616-0.873 0.29 4.94-2.906 0.873zm-4.95-0.28l0.582-4.36 2.906 0.29 0.29 4.65-3.778-0.58zm-5.52 0l0.29-3.78 2.908-0.29v4.36l-3.198-0.29zm-67.44 3.77c0.872 0 7.558 1.453 7.558 1.453l6.976 9.302" stroke-opacity=".996" transform="matrix(1.25 0 0 1.3 259.35 -430)" stroke="#512007" stroke-width=".475" fill="none"/>
<path d="m366.84 561.12c0.29 0.29 6.104 19.766 34.01 19.766s34.59-22.09 34.59-22.09" stroke-opacity=".996" transform="matrix(1.25 0 0 1.3 259.35 -430)" stroke="#512007" stroke-width=".475" fill="none"/>
<path d="m439.8 559.37s-13.37 29.068-38.95 27.033c-25.58-2.034-29.65-11.627-31.685-16.568-2.035-4.942-3.197-9.01-3.197-9.01" stroke-opacity=".996" transform="matrix(1.25 0 0 1.3 259.35 -430)" stroke="#512007" stroke-width=".475" fill="none"/>
<path d="m373.23 558.21c0.29-1.745 0.29-54.357 0.29-54.357l-1.744-0.29-0.29 53.775 1.744 0.872zm-41.57-17.15l22.09 10.755-0.58 1.453s-21.22-9.883-21.22-10.174c0-0.29 0.29-1.453-0.29-2.034z" stroke-opacity=".996" fill-rule="evenodd" transform="matrix(1.25 0 0 1.3 259.35 -430)" stroke="#512007" stroke-width=".475" fill="#dd8b59"/>
<path d="m341.84 537.86c0 0.872 3.198 18.603 3.198 18.603s2.035 0.29 2.035 0-3.49-18.312-3.49-18.312l-1.743-0.29zm20.34 0.58c1.163 0 20.93-3.197 20.93-3.197l-0.292 3.197-19.475 2.035-1.163-2.035z" stroke-opacity=".996" fill-rule="evenodd" transform="matrix(1.25 0 0 1.3 259.35 -430)" stroke="#512007" stroke-width=".475" fill="#dd8b59"/>
<path d="m365.09 514.32c0.58 0 6.976 3.198 9.592 2.326s0.872-2.907 1.453-2.907c0.582 0 2.616 1.452 3.78 0.29 1.162-1.163 2.034-4.65 1.453-4.36-0.582 0.29-15.988 5.813-16.278 4.65z" stroke-opacity=".996" fill-rule="evenodd" transform="matrix(1.25 0 0 1.3 259.35 -430)" stroke="#512007" stroke-width=".475" fill="#fecf3e"/>
<path d="m362.48 521.58c1.163 0.29 23.836-6.104 23.836-6.104s0 2.035-0.29 2.035-23.546 6.105-23.546 6.105v-2.035z" stroke-opacity=".996" fill-rule="evenodd" transform="matrix(1.25 0 0 1.3 259.35 -430)" stroke="#512007" stroke-width=".475" fill="#dd8b59"/>
<path d="m415.09 512.57s1.454 3.488 2.907 2.907 2.907-1.744 2.907-1.744 1.163 2.907 3.197 2.325c2.036-0.58 3.2-3.78 3.2-3.78s2.033 0.583 2.905 0.292c0.873-0.29 2.035-4.94 2.035-4.94l-17.15 4.94zm-1.75 28.2c-0.29 0.58 1.454 2.035 2.907 2.035s2.035-2.035 2.325-1.454c0.29 0.583 0.29 3.2 4.07 2.327s3.78-3.488 3.78-3.488-1.164 0.87 1.452 1.16c2.616 0.292 5.232-3.778 4.942-3.778s-18.894 3.49-19.476 3.198z" stroke-opacity=".996" fill-rule="evenodd" transform="matrix(1.25 0 0 1.3 259.35 -430)" stroke="#512007" stroke-width=".475" fill="#fecf3e"/>
<path d="m363.35 513.15c-0.29 1.163 0.29 2.617 0.29 2.617l18.894-6.395s0.872-1.454 0-1.454-19.475 5.814-19.184 5.232zm25-4.07c0.58 0 19.475-6.104 19.475-6.104s0.29 2.616 0 2.616-17.73 5.232-17.73 5.232l-1.745-1.744z" stroke-opacity=".996" fill-rule="evenodd" transform="matrix(1.25 0 0 1.3 259.35 -430)" stroke="#512007" stroke-width=".475" fill="#dd8b59"/>
<path d="m413.34 521.88s-2.907 3.197-2.035 7.557c0.872 4.36 2.035 8.14 2.326 8.14s3.49-5.814 6.977-6.105 9.883 3.198 9.883 3.198-0.872-6.977-0.58-10.174c0.29-3.198 5.23-8.72 5.23-8.72l-21.8 6.104z" stroke-opacity=".996" fill-rule="evenodd" transform="matrix(1.25 0 0 1.3 259.35 -430)" stroke="#512007" stroke-width=".475" fill="#fecf3e"/>
<path d="m386.89 516.64s-0.58 2.616-0.29 2.616 24.707-6.395 24.707-6.395v-1.743l-24.417 5.523z" stroke-opacity=".996" fill-rule="evenodd" transform="matrix(1.25 0 0 1.3 259.35 -430)" stroke="#512007" stroke-width=".475" fill="#dd8b59"/>
<path d="m355.5 551.82s-5.813-0.872-5.523 0.58c0.29 1.454 2.907 2.908 3.198 3.78 0.29 0.872-0.872 4.07 0.872 3.78 1.744-0.292 3.488-1.455 3.488-2.327s-0.29-4.94-0.29-4.94l-1.745-0.873z" stroke-opacity=".996" fill-opacity=".996" fill-rule="evenodd" transform="matrix(1.25 0 0 1.3 259.35 -430)" stroke="#512007" stroke-width=".475" fill="#b6b6b4"/>
<path d="m387.76 537.28v2.034l20.93-2.906-0.582-1.454-20.348 2.326z" stroke-opacity=".996" fill-rule="evenodd" transform="matrix(1.25 0 0 1.3 259.35 -430)" stroke="#512007" stroke-width=".475" fill="#dd8b59"/>
<path d="m363.06 540.77c0.29 0 0 2.616 2.325 2.035 2.326-0.582 2.907-2.035 2.907-2.035s0.58 3.197 3.78 2.907c3.196-0.29 4.94-3.78 4.94-3.78s0.29 2.617 2.326 1.745 2.616-2.907 2.616-2.907l-18.313 2.616-0.58-0.58zm0-17.15s-2.616 0.872-1.744 6.104 2.907 8.14 3.197 8.14c0.29 0 2.616-4.942 6.104-5.814 3.49-0.873 9.593 2.616 9.593 2.616s-0.582-4.65 0.29-9.01c0.873-4.362 3.78-7.56 3.78-7.56s-20.348 5.524-21.22 5.524z" stroke-opacity=".996" fill-rule="evenodd" transform="matrix(1.25 0 0 1.3 259.35 -430)" stroke="#512007" stroke-width=".475" fill="#fecf3e"/>
<path d="m411.89 538.73l0.29 1.744s20.93-2.616 20.93-2.907c0-0.29 0-2.034-0.29-2.034-0.292 0-20.64 3.488-20.93 3.197zm-0.29-18.6l0.29 2.034 24.708-6.685s0.582-1.745 0.29-1.745-24.707 7.267-25.288 6.395z" stroke-opacity=".996" fill-rule="evenodd" transform="matrix(1.25 0 0 1.3 259.35 -430)" stroke="#512007" stroke-width=".475" fill="#dd8b59"/>
<path d="m414.22 510.83s-0.29 1.744 0 1.744 18.313-4.36 18.313-4.65c0-0.29 1.744-2.036 0.29-1.745-1.453 0.29-18.02 5.522-18.603 4.65zm38.66 33.72l-18.03-28.49m-2.32 19.77c0.29-0.872 1.163-18.312 1.163-18.312" stroke-opacity=".996" transform="matrix(1.25 0 0 1.3 259.35 -430)" stroke="#512007" stroke-width=".475" fill="none"/>
<path d="m388.93 509.96c1.163 0.29 3.198 3.197 4.36 2.616 1.163-0.58 2.907-2.325 2.907-2.325s-0.29 3.49 2.035 2.907c2.325-0.58 2.616-2.906 2.616-2.906s1.744 0.873 3.197 0c1.454-0.87 2.907-5.232 2.326-5.232s-16.858 5.233-17.44 4.942zm-0.58 8.43c0 0.58-2.907 5.232-2.035 9.592s2.616 8.43 2.907 8.43 4.65-4.65 8.43-5.523c3.778-0.873 9.3 2.906 9.01 2.906s-1.453-4.36-1.453-7.558 4.36-13.08 4.36-13.08l-21.22 5.232zm0 20.93c0 0.29 0.872 2.326 2.907 2.326 2.034 0 2.325-2.035 2.325-2.035s-0.29 3.49 2.907 3.2c3.196-0.292 4.36-3.49 4.36-3.49s0.29 1.745 2.906 0.873c2.616-0.873 6.104-3.78 5.813-3.78-0.29 0-20.93 3.78-21.22 2.907z" stroke-opacity=".996" fill-rule="evenodd" transform="matrix(1.25 0 0 1.3 259.35 -430)" stroke="#512007" stroke-width=".475" fill="#fecf3e"/>
<use width="992.126" xlink:href="#k" transform="translate(-6.56 7.28)" height="496.063"/>
<use width="992.126" xlink:href="#k" transform="translate(6.56 3.76)" height="496.063"/>
<use width="992.126" xlink:href="#k" transform="translate(0 11.03)" height="496.063"/>
<path id="k" d="m408.98 476.96c0 1.044-0.846 1.89-1.89 1.89s-1.89-0.847-1.89-1.89 0.847-1.89 1.89-1.89 1.89 0.847 1.89 1.89z" stroke-opacity=".996" fill-opacity=".996" fill-rule="evenodd" transform="matrix(.04 -1.07 1.02 .04 251.6 667.92)" stroke="#512007" stroke-width=".581" fill="#be0f17"/>
<path d="m398.23 500.07c0-0.29 9.01 3.78 9.01 4.07s31.975 42.73 32.266 42.73m-15.99-42.73l8.14 3.49 2.615 6.393m-61.34-10.46c-0.29 0 9.01 6.976 9.01 6.976l1.164 5.814m-41.85 29.65c4.07-1.744 32.265-26.452 32.265-26.452m-39.82 21.8c3.49-2.907 31.684-26.742 31.684-26.742m21.22 4.07l29.94 49.706m-3.53-29.16s3.532 11.71 7.02 13.455 7.557 4.65 7.557 4.65" stroke-opacity=".996" transform="matrix(1.25 0 0 1.3 259.35 -430)" stroke="#512007" stroke-width=".475" fill="none"/>
<path d="m412.61 539.48s2.48 13.793 5.97 16.41 6.976 5.522 6.976 5.522" stroke-opacity=".996" transform="matrix(1.25 0 0 1.3 259.35 -430)" stroke="#512007" stroke-width=".475" fill="none"/>
<path d="m390.96 439.03s3.488 19.185 10.465 23.545c6.976 4.36 12.79 8.14 12.79 8.14" stroke-opacity=".996" transform="matrix(1.25 0 0 1.3 256.26 -299.49)" stroke="#512007" stroke-width=".475" fill="none"/>
<path d="m390.67 438.74s7.557 15.116 13.952 19.767c6.395 4.65 15.115 9.01 15.115 9.01m-53.48-27.62c2.034 3.488 1.744 10.174 4.07 12.5 2.324 2.325 5.813 7.557 5.813 7.557" stroke-opacity=".996" transform="matrix(1.25 0 0 1.3 256.26 -299.49)" stroke="#512007" stroke-width=".475" fill="none"/>
<path d="m366.84 440.19c1.163 1.744 4.406 10.428 6.395 13.08 1.454 2.326 16.278 17.15 16.278 17.15" stroke-opacity=".996" transform="matrix(1.25 0 0 1.3 256.26 -299.49)" stroke="#512007" stroke-width=".475" fill="none"/>
<path d="m384.57 471.15c0 1.204-0.976 2.18-2.18 2.18s-2.18-0.976-2.18-2.18 0.976-2.18 2.18-2.18 2.18 0.976 2.18 2.18zm10.75 4.65c0 1.044-0.846 1.89-1.89 1.89s-1.89-0.847-1.89-1.89 0.847-1.89 1.89-1.89 1.89 0.847 1.89 1.89zm13.66 1.16c0 1.044-0.846 1.89-1.89 1.89s-1.89-0.847-1.89-1.89 0.847-1.89 1.89-1.89 1.89 0.847 1.89 1.89zm11.92-4.5c0 0.963-0.716 1.744-1.6 1.744-0.882 0-1.597-0.78-1.597-1.744 0-0.963 0.715-1.744 1.598-1.744 0.884 0 1.6 0.78 1.6 1.744zm9.59-5.67c0 0.883-0.846 1.6-1.89 1.6s-1.89-0.717-1.89-1.6c0-0.883 0.847-1.6 1.89-1.6s1.89 0.717 1.89 1.6z" stroke-opacity=".996" fill-rule="evenodd" transform="matrix(1.25 0 0 1.3 256.26 -299.49)" stroke="#512007" stroke-width=".475"/>
<path d="m374.1 404.44c-0.872 0.582-15.406 4.07-13.37 3.78 2.033-0.29 13.66 2.906 13.37 2.034s0-5.232 0-5.814zm24.71-4.36c-0.582 0-9.012 3.198-8.72 3.198s9.592 2.616 9.3 2.034c-0.29-0.58-0.29-4.36-0.58-5.232zm25.29 2.91c-0.582 0.29-10.465 2.616-8.72 2.907s8.43 2.616 8.43 2.035c0-0.582 0-4.65 0.29-4.942z" stroke-opacity=".996" fill-opacity=".996" fill-rule="evenodd" transform="matrix(1.25 0 0 1.3 256.26 -299.49)" stroke="#512007" stroke-width=".475" fill="red"/>
<path d="m413.64 471.01c0.29-4.65 8.72-31.103 8.72-31.103m-5.82 30.22c0-0.29 6.686-29.94 6.686-29.94m-3.78 27.62c0.29-1.744 4.94-27.614 4.94-27.614m-10.46 27.03c1.453-0.872 5.813-2.035 5.813-2.035m-3.78-2.62c1.453 0 4.36-1.163 4.36-1.163m-3.49-2.33c0-0.29 4.36-1.163 4.36-1.163m-3.78-3.2l4.65-0.872m-2.61-2.91c0 0.29 3.197 0.29 3.197 0.29m-2.33-3.78c0.58 0 3.197 0.58 3.197 0.58" stroke-opacity=".996" transform="matrix(1.25 0 0 1.3 256.26 -299.49)" stroke="#512007" stroke-width=".475" fill="none"/>
<path d="m413.64 471.01c0.29-4.65 8.72-31.103 8.72-31.103m-5.82 31.41c0-0.29 6.686-31.127 6.686-31.127m-4.4 31.18c0.29-1.744 5.558-31.175 5.558-31.175m-10.46 27.03c1.453-0.872 5.813-2.035 5.813-2.035m-3.78-2.62c1.453 0 4.36-1.163 4.36-1.163m-3.49-2.33c0-0.29 4.36-1.163 4.36-1.163m-3.78-3.2l4.65-0.872m-2.61-2.91c0 0.29 3.197 0.29 3.197 0.29m-2.33-3.78c0.58 0 3.197 0.58 3.197 0.58" stroke-opacity=".996" transform="matrix(1.25 0 0 1.36 225.31 -323.36)" stroke="#512007" stroke-width=".475" fill="none"/>
<path d="m413.64 471.01c0.29-4.65 8.72-31.103 8.72-31.103m-5.82 30.22c0-0.29 6.686-29.94 6.686-29.94m-3.78 27.62c0.29-1.744 4.94-27.614 4.94-27.614m-10.46 27.03c1.453-0.872 5.813-2.035 5.813-2.035m-3.78-2.62c1.453 0 4.36-1.163 4.36-1.163m-3.49-2.33c0-0.29 4.36-1.163 4.36-1.163m-3.78-3.2l4.65-0.872m-2.61-2.91c0 0.29 3.197 0.29 3.197 0.29m-2.33-3.78c0.58 0 3.197 0.58 3.197 0.58" stroke-opacity=".996" transform="matrix(-1.25 0 0 1.32 1259.2 -307.28)" stroke="#512007" stroke-width=".474" fill="none"/>
<path d="m426.42 558.5l27.614 0.582 0.29-2.035-28.486-0.29 0.582 1.743zm1.17-7.27c3.198 0 27.324-4.65 27.324-4.65s0.872-2.907 0-2.907-27.324 5.523-27.324 5.523v2.034z" stroke-opacity=".996" fill-rule="evenodd" transform="matrix(1.25 0 0 1.3 259.35 -430)" stroke="#512007" stroke-width=".475" fill="#dd8b59"/>
<use width="992.126" xlink:href="#k" transform="translate(0 5.52)" height="496.063"/>
</g>
</svg>
