<svg xmlns="http://www.w3.org/2000/svg" xmlns:xlink="http://www.w3.org/1999/xlink" viewBox="0 0 1200 600">
<defs>
<linearGradient id="a" gradientUnits="userSpaceOnUse">
<stop stop-color="#a43907" stop-opacity=".996" offset="0"/>
<stop stop-color="#fff" offset="1"/>
</linearGradient>
<linearGradient id="d" y2="396.11" xlink:href="#a" x2="786.12" y1="419.93" x1="826.45"/>
<linearGradient id="e" y2="419.67" xlink:href="#a" x2="763.03" y1="436.07" x1="851.57"/>
<linearGradient id="f" y2="400.94" xlink:href="#a" x2="974.92" y1="398.54" x1="1016.1"/>
<linearGradient id="g" y2="428.64" xlink:href="#a" x2="945.9" y1="421.22" x1="1033.3"/>
<linearGradient id="h" y2="445.13" xlink:href="#a" x2="776.65" y1="445.13" x1="1023.4"/>
<linearGradient id="i" y2="465.42" xlink:href="#a" x2="1144.1" y1="462.5" x1="783.43"/>
<linearGradient id="j" y2="444.03" xlink:href="#a" x2="1002.9" y1="442.29" x1="1032.1"/>
<linearGradient id="k" y2="476.18" xlink:href="#a" x2="803.91" y1="471.72" x1="775.75"/>
<linearGradient id="l" y2="440.32" xlink:href="#a" x2="755.31" y1="466.89" x1="803.18"/>
<clipPath id="b">
<path d="M0 0v150h700v150H600zm600 0H300v350H0v-50z"/>
</clipPath>
</defs>
<path fill="#00247d" d="M0 0h1200v600H0z"/>
<path stroke="#fff" stroke-width="60" d="M0 0l600 300m0-300L0 300"/>
<path stroke="#cf142b" stroke-width="40" d="M0 0l600 300m0-300L0 300" clip-path="url(#b)"/>
<path stroke="#fff" stroke-width="100" d="M300 0v350M0 150h700"/>
<path stroke="#cf142b" stroke-width="60" d="M300 0v350M0 150h700"/>
<path d="M0 300h600V0h600v600H0z" fill="#00247d"/>
<g stroke="#000" stroke-width="1.8">
<use stroke-width="12" stroke="#fff" xlink:href="#c"/>
<g id="c" stroke-linejoin="bevel">
<path d="M826.45 427.74s-8.536-13.884-15.65-12.893c-7.113.992-13.752 9.917-14.227 10.412-.473.49-10.906-11.41-10.433-11.91.475-.5 10.908-26.28 16.598-27.27 5.69-.99 17.977 1.89 17.977 2.89 0 .99 5.734 38.76 5.734 38.76z" fill="url(#d)"/>
<path d="M845.42 412.86c0 .992-2.845 37.686-15.175 50.58s-32.247 20.825-39.36 18.842c-7.114-1.983-23.237-39.173-23.237-39.173s17.072 17.85 29.875 14.87c12.805-2.98 20.392-25.29 22.763-36.2 2.372-10.91.475-32.23.475-32.23l24.66 23.3z" fill="url(#e)"/>
<path d="M973.58 427.74s8.536-13.884 15.65-12.893c7.113.992 13.752 9.917 14.227 10.412.473.49 10.906-11.41 10.433-11.91-.475-.5-10.908-26.28-16.598-27.27-5.69-.99-17.977 1.89-17.977 2.89 0 .99-5.734 38.76-5.734 38.76z" fill="url(#f)"/>
<path d="M954.61 412.86c0 .992 2.845 37.686 15.175 50.58s32.247 20.825 39.36 18.842c7.114-1.983 23.237-39.173 23.237-39.173s-17.072 17.85-29.875 14.87c-12.805-2.98-20.392-25.29-22.763-36.2-2.372-10.91-.475-32.23-.475-32.23l-24.66 23.3z" fill="url(#g)"/>
<path d="M788.94 407.48c-5.69 6.942-8.73 12.308-11.1 16.275-2.37 3.967-.977 9.487 4.5 17.362 5.905 8.488 54.448 41.662 117.68 41.662 63.226 0 111.77-33.18 117.68-41.67 5.477-7.88 6.834-13.4 4.463-17.36-2.372-3.97-5.372-9.34-11.062-16.28 0 10.41-40.21 48.03-111.08 48.03-70.86 0-111.08-37.63-111.08-48.04z" fill="url(#h)"/>
<path d="M1008.2 476.74c.95-1.487 10.906-18.843 10.906-18.843l-5.46-4.027c-1.677 4.91-7.818 6.507-8.767 12.458s4.26 11.9 3.32 10.412z" fill="url(#i)"/>
<path d="M1018.2 471.37s1.897-8.43-4.267-9.42c-6.166-.992-9.43 4.717-8.536 2.478.992-2.487 4.742-4.96 5.215-13.388.475-8.43-.473-12.893-.473-12.893s2.37-10.91 12.33-9.422c9.95 1.488 10.43 9.422 10.43 12.398 0 2.975-.95 4.462-.95 4.462l-13.75 25.785z" fill="url(#j)"/>
<path d="M791.77 476.74c-.95-1.487-10.907-18.843-10.907-18.843l5.46-4.027c1.677 4.91 7.818 6.507 8.767 12.458s-4.27 11.9-3.32 10.412z" fill="url(#k)"/>
<path d="M781.87 471.37s-1.897-8.43 4.267-9.42c6.166-.992 9.43 4.717 8.536 2.478-.992-2.487-4.742-4.96-5.216-13.388-.474-8.43.474-12.893.474-12.893s-2.37-10.91-12.33-9.422c-9.95 1.488-10.43 9.422-10.43 12.398 0 2.975.95 4.462.95 4.462l13.76 25.785z" fill="url(#l)"/>
</g>
<path d="M813.43 438.56l-5.168-3.56-.6.954 1.018.842.088.506-6.506 10.34-.48.115-1.14-.647-.6.954 5.168 3.56c1.77 1.22 3.28 1.842 4.966 1.665 2.195-.22 4.065-1.5 5.51-3.8 2.574-4.09 1.85-8.11-2.256-10.94zm-2.155.078l1.027.707c2.814 1.94 3.062 4.65.76 8.31s-4.794 4.512-7.608 2.574l-1.027-.71 6.848-10.89zm3.895 18.632l10.268 5.133 1.717-3.764-1.3-.65-1.342 2.06-.402.21-4.43-2.22 2.5-5.47 2.49 1.24.14.43-.5 1.61 1.13.56 2.23-4.88-1.13-.57-.88 1.42-.4.16-2.48-1.25 2.29-5.01 3.81 1.9.13.39-.56 1.99 1.34.67 1.51-3.31-9.64-4.82-.47 1.03 1.12.69.17.44-5.11 11.22-.46.18-1.21-.48-.47 1.03zm13.62 5.73c1.1.91 2.377 1.61 3.668 2.045 3.31 1.116 5.93-.107 6.742-2.748.402-1.31.125-2.726-.793-3.942-.93-1.243-1.898-1.938-2.393-2.57-.85-1.07-1.212-1.926-.898-2.947.375-1.222 1.555-1.802 3.027-1.306.645.218 1.076.484 1.377.806l.187.407-.365 2.424 1.45.49 1.105-3.6c-1.12-.92-2.308-1.61-3.56-2.04-2.883-.98-5.345.3-6.1 2.76-.336 1.09-.186 2.34.476 3.52.635 1.12 1.468 1.82 2.138 2.53 1.19 1.28 1.67 2.32 1.3 3.52-.37 1.22-1.61 1.78-3.25 1.23a5.682 5.682 0 0 1-1.67-.91l-.16-.42.5-2.77-1.53-.52-1.23 4.02zm10.72 4.15l6.03 2.033.334-1.087-1.318-.566-.213-.464 3.632-11.83.418-.202 1.386.344.33-1.087-6.03-2.03-.34 1.09 1.29.56.22.42-3.64 11.83-.43.25-1.37-.33-.34 1.09zm12.95-12.33l-.23 1.118 1.2.385.264.393-2.504 12.16-.407.292-1.246-.157-.23 1.12 5.84 1.29.23-1.11-1.24-.39-.256-.43 1.06-5.13.36.08c2.09.47 2.43 1.57 2.63 3.87.11 1.17.08 2.24.97 3.39.41.55 1.12.99 2.01 1.18.65.15 1.36.23 2.11.28l.23-1.09a9.765 9.765 0 0 1-.27-.06c-1.38-.3-1.93-.78-2.11-2.13-.16-1.22-.07-2.49-.5-3.64-.32-.83-.94-1.42-1.88-1.89 2.44.04 3.93-1.01 4.37-3.11.52-2.53-.85-4.27-4.06-4.98l-6.3-1.39zm3.978 2.24l.953.21c2.01.444 2.85 1.727 2.47 3.597-.43 2.1-1.68 2.825-3.9 2.336a8.66 8.66 0 0 1-.74-.19l1.23-5.954zm9.152 16.83l11.363.563.183-4.17-1.44-.07-.468 2.45-.292.36-4.908-.243.265-6.058 2.75.137.283.34.138 1.68 1.248.06.237-5.41-1.25-.06-.29 1.66-.31.31-2.75-.14.24-5.54 4.21.21.26.31.23 2.06 1.48.07.16-3.66-10.67-.53-.05 1.14 1.28.18.32.34-.54 12.42-.36.36-1.3.05-.05 1.14zm19.97-13.19l-.04 4.128 1.5.018.37-2.49.352-.3 2.608.03-.12 12.688-.373.37-1.414.097-.01 1.15 6.497.08.01-1.14-1.41-.13-.367-.37.12-12.69 2.608.03.33.31.35 2.5 1.5.02.04-4.13-12.54-.15zm13.21.45l.02 1.142 1.263.096.354.366.216 12.383-.34.38-1.26.137.02 1.142 6.148-.107-.01-1.15-1.3-.1-.35-.37-.1-5.88 6.28-.11.11 5.87-.32.38-1.3.13.02 1.14 6.13-.11-.02-1.15-1.26-.1-.35-.37-.21-12.38.34-.38 1.26-.14-.02-1.15-6.13.11.02 1.14 1.31.09.33.37.09 5.11-6.28.11-.09-5.11.35-.38 1.3-.14-.02-1.14-6.15.11zm17.3 15.26l11.624-1.064-.354-4.158-1.473.135-.158 2.497-.25.397-5.03.46-.52-6.042 2.81-.257.33.297.36 1.653 1.27-.117-.46-5.39-1.28.12-.08 1.7-.28.35-2.82.26-.47-5.53 4.3-.39.3.28.5 2.02 1.51-.14-.31-3.64-10.91 1 .1 1.14h1.33l.37.3 1.06 12.38-.32.41-1.31.24.09 1.14zm16.49-18.06l.178 1.127 1.365-.114.417.26 1.934 12.268-.307.44-1.33.35.178 1.13 6.437-1.1-.178-1.12-1.41.13-.423-.3-.81-5.18.39-.06c2.31-.39 3.06.49 4.11 2.56.54 1.04.91 2.04 2.24 2.76.62.34 1.51.48 2.49.31a16.69 16.69 0 0 0 2.26-.58l-.17-1.11-.29.05c-1.53.26-2.26.04-2.94-1.15-.61-1.07-.99-2.29-1.86-3.18-.64-.64-1.49-.95-2.62-1.01 2.5-.92 3.64-2.49 3.3-4.6-.4-2.55-2.44-3.62-5.98-3.02l-6.93 1.19zm4.886.513l1.05-.18c2.213-.377 3.544.482 3.842 2.37.334 2.118-.678 3.283-3.12 3.7-.25.043-.524.09-.825.117l-.947-6.007zm14.364 11.747l6.603-2.08-.33-1.092-1.512.355-.46-.245-3.58-11.893.26-.424 1.45-.57-.33-1.09-6.6 2.08.33 1.09 1.49-.34.45.2 3.58 11.9-.24.47-1.42.57.33 1.1zm13.73-12.87l.314 1.095 1.672-.4.445.202 1.31 4.558c-.56.225-.97.38-1.2.448-3.41 1.066-6.16-.63-7.32-4.652-1.12-3.91.25-6.87 3.55-7.9a4.916 4.916 0 0 1 1.94-.22l.45.3 1.1 2.24 1.62-.5-1.09-3.79c-1.78.02-3.42.27-4.88.73-4.91 1.54-7.2 5.59-5.89 10.17 1.34 4.65 5.41 6.89 10.06 5.43 1.62-.5 3.17-1.33 4.7-2.46l-1.49-5.2.27-.42 1.26-.51-.31-1.09-6.47 2.02zm3.42-9.35l.494 1.02 1.247-.527.5.16 5.35 11.057-.17.507-1.14.735.5 1.02 5.84-3.082-.49-1.02-1.29.55-.49-.158-2.54-5.248 5.97-3.148 2.54 5.247-.15.496-1.19.75.5 1.02 5.82-3.07-.49-1.02-1.24.53-.49-.16-5.35-11.06.17-.51 1.15-.74-.49-1.02-5.82 3.07.5 1.02 1.29-.55.47.17 2.21 4.56-5.96 3.15-2.2-4.56.17-.51 1.19-.76-.49-1.02-5.84 3.08zm14.62-8.45l2.028 3.546 1.37-.854-.91-2.342.17-.46 2.38-1.485 6.232 10.897-.153.53-1.234.905.56.98 5.935-3.702-.56-.982-1.347.705-.52-.11-6.23-10.896 2.39-1.487.45.075 1.56 1.933 1.37-.855-2.02-3.546-11.45 7.148z" stroke="none"/>
</g>
<path stroke="#fff" stroke-width="6" d="M900.01 448.34s-114.46-33.735-113.8-162.08l.882-169.65h225.83l.884 168.68c.668 128.34-113.8 163.05-113.8 163.05z" fill="#0072c4"/>
<g fill="#bcbcbc">
<path d="M802.8 155.04c.188 0 1.575-1.317 2.845-2.48 1.774-.887 3.415-2.136 5.217-2.974 1.343-.777 3.998-1.38 5.216-1.983 1.598-.837 2.902-1.8 4.27-3.472.163-2.21.474-3.81.474-6.44 1.886-.9 3.56-1.79 5.216-2.48 2.373-.67 2.887-1.61 5.217-1.98 1.5-.52 3.977-.49 6.164-.49 2.36 0 3.84 1.68 5.96 2.08 2.51 1.02 3.68 1.72 5.69 3.47 1.13 1.44 1.83 2.6 3.76 3.68 1.53.79 2.96 1.97 4.74 2.48 1.95 1.14 3.69 1.79 5.21 3.47 1.39.99 1.97 2.47 3.32 3.47 1.56 1.3 3.05 2.47 4.74 3.48 2.03 1.37 4.04 2.4 7.33 2.1 1.74-.1 3.62-.3 5.69.09 2.32 0 4.58-.04 6.64.5 2.42 0 4.37.33 6.64.5 2.12.4 4.28.5 6.64.5 2.05.53 4.31.49 6.64.49h13.28c2.41 0 4.86.1 6.64.5 2.39 0 4.45-.22 6.64-.5 2.57 0 4.54-.47 7.11-.49h8.06c2.07.57 4.71.96 6.16 1.99 1.9.54 2.84 1.44 4.74 1.99 1.46.75 3.67 1.93 4.75 3.47 1.34 1.4 2.71 3.4 3.79 5.46 1.32 1.9 1.82 4.08 2.84 6.45.54 2.26.92 4.42.95 6.94.51 2.15.47 4.51.47 6.94-.54 2.26-.66 4.78-1.43 6.94-.08 2.42-.57 4.61-.95 6.45-.42 2.03-.92 3.33-.95 5.95v6.94c-.17 2.28-.66 3.95-.95 6.45-1.14 2.17-2.24 4.7-3.32 7.44-1.57 1.1-2.94 2.67-3.79 3.97-1.01.63-1.6 1.58-1.42 1.99 1.9.66 1.42 1.98 1.42 4.46.24 1.91.43 4.28.95 6.45.17 2.37.68 3.81 1.42 5.45.75.98.89.5-.95.5-1.37 1.08-2.76.52-3.32-1.49-1.11-1.33-1.47-2.95-1.9-5.45-.26-2.3-.63-4.53-1.42-5.95-.25-2.8-.99-2.77-3.8-2.98-1.33-1.18-3.1-1.49-5.69-1.49-2.58 0-2.8-.26-2.85 2.48v6.94c-.44 2.02-1.42 3.65-1.89 5.46-1.41 1.04-2.15 2.77-3.79 3.97-.79 2.25-1.93 2.64-4.27 2.97-.82-1.02-2.16-2.36-2.85-3.47 1.33-2.22 2.49-2.56 3.32-4.96a100.44 100.44 0 0 0 2.37-4.95c-1.01-1.55-1.92-2.26-2.85-4.46-.78-1.2-1.86-3.78-2.37-5.45-1.56-.54-4.01-.63-5.22-1.49-2.3-.53-2.94 1.99-5.69 1.99h-6.64c-2.94 0-3.67 1.64-6.16 1.49-.73.24-2.51-.11-5.22 0-1.98.69-4.37.49-6.64.49-2.41-.03-4.37-.58-6.16-.99-2.18-.6-4.35-1.2-6.64-1.49-2.78 0-3.82.22-5.69 1.49-1.48.88-3.62 2.88-5.22 3.97-.67 1.65-1.02 4.43-1.89 6.45-.5 1.93-1.32 3.16-1.9 4.96-.64 1.67-1.25 3.4-1.42 5.95-.16 3.34-.89 2.93-2.85 1.98-.82-1.38-2.12-2.91-2.85-4.46.43-2.52.92-3.78.95-6.45-.46-1.92-1.54-1.86-2.85-.49 0 2.6.12 4.6-.95 5.95-.53 2.05-1.39 2.94-2.85 3.97-.71 1.84-2.29 2.69-3.8 3.48-.24-.09 0-.67 0-1.99-1.13-2.26-.08-4.15-.08-6.94.03-2.5-.11-4.16.62-6.45 0-2.4-1.12-4.69-1.48-6.44-.88-1.84-1.39-2.75-3.8-3.47-1.69-.67-4.12-1.58-5.22-2.98-1.38-1.79-2.26-2.52-4.27-3.47-2.18-.79-3.24-1.51-4.74-2.48-1.46-1.62-2.65-2.32-3.32-4.46-.99-1.52-1.16-4.36-1.89-6.45-.16-2.18-.79-4.2-1.43-5.95-.28-2.18-.63-3.77-1.42-5.95-.27-2.04-.85-4.18-1.42-6.45 0-2.43.04-4.8-.47-6.95v-6.94c-.34-2-.46-4.94-.94-6.45 0-2.69-.29-4.22-.95-5.95-1.09-1.75-1.17-2.54-2.85-2.97-1.21 1.54-3.2 2.17-5.69 2.48-1.74-.4-4.2-.66-6.16-1.49-1.9-.47-3.2-1.22-4.74-1.98-.84-1.29-1.85-2.76-2.85-3.96-.29-2.59-.86-3.92-.95-6.45 0-1.89.05-.88 1.9-3.47z"/>
<path d="M830.89 172.9c3.01-.997 9.585-5.876 13.364-9.004 4.303-2.727 13.11.103 13.462-7.287-.533 2.22-5.626 7.74-8.117 11.08-5.49 3.49 2.68 7.04 4 2.05 2.85-5.1 6.47-10.28 12.16-12.29-1.04 3.67-1.8 7.25.67 10.52.89-1.61 1.11-8.22 1.01-2.78-1.8 3.09 2.65 12.1 2.77 5.09.71-4.44.44 4.79 1.79 6.18 2.83 5.47 2.58-5.03 3.21-7.11.47-3.93.67-2.9.1-.06-.57 3.56.61-7.44.82-1.38.39 3.17-.04 11.78 3.02 4.95 2.45-4.07 3.03-4.13.36-.52-.87 1.36 4.02-7.4 2.08-1.29-.13 4.39.03 10.92 2.41 13.78 1.83-2.26.76-13.99 2.6-5.93.7 2.27.02 8.6 2.99 3.74 3.21-3.78 4.98-7.07 4.63-12.25.4-2.65 2.01-6.91 3.43-2.22-.97 6.12 5.39 10.01 4.62 15.89 2.86-4.5 1.57-11.19-.33-15.49-.41-5.09 7.74-2.06 5.72 2.44-.24 3.23 4.39 11.52 4.76 3.84.62-3.65 2.63-3.97 2.19.11.84 2.63 4.42 10.39 4.03 3.63.32-3.68-.6-7.55 1.06-11.02 1.17 2.22 1.3 5.62 2.68 1.4 2.83-.09 1.12 7.78 4.69 9.46 1.44 2.82 5.01 7.44 4.01 1.36.56-3.29-2.39-10.09-1.11-10.97 3.74 4.75 5.13 11.03 10.18 14.87 4.81 2.44.6-6.75.33-9.12-2.87-1.58-5.21-7.7-1.15-2.92 2.34 4.25 9.46 7.97 11.69 8.9-2.12-1.57-4.06-2.15-.46.02 2.66 1.09-1.58-6.64-3.13-7.95-1.38-2.47-8.07-6.08-6.18-7.78 5.24 1.13 6.77 6.86 9.95 10.44 1.98 1.66 6.76 5.19 4.09-.08 1.49-.63 8.87 7.56 7.11 1-1.22-2.82-7.68-7.92-6.97-8.22 2.2 3.19.87.91-.89-.77 6.39.71 10.14 7.08 14.15 11.14.5 1.93 1.96 11.33-.01 5.16-4.16-1.77 1.6 8.43-2.94 7.11-.21-2.26-4.21-7.01-2.27-2.32 3.33 6.84.82 14.36 1.12 21.58.08 3.55-.09 7.08-.34 10.62.24-2.61.44-6.95.01-1.25-.15 3.96-1.61-5.71-3.59-6.21-.41-1.8-1.97-10.9-3.28-5.47.01 5.32 5.14 10.91 1.04 15.59-1.38 1.29-2.11 5-2.85 1.11-2.02-4.59-3.31-9.46-6.85-13.21-1.49-2.93-6.62-10.02-5.2-2.58.89 3.37 1.49 6.78 1.26 10.27-1.99-5.16-4.71-9.96-7.38-14.73.39 2.22 3.09 11.78.74 5.59-1.62-5.08-4.25-10.15-9.31-12.41-1.4-.17 3.4 8.94 1.55 9-.44-2.93-3.1-9.47-5.75-8.28.12 5.25 2.26 10.14 1.04 15.49.26 5.22-3.22-5.19-4.36-6.59-5.13-3.13.37 8.84-3.69 4.21-3.27-2.29-5.01-4.83-4.7-9.11-6.08-1.04-3.74 5.39-4.02 9.05-.51 2.77-2.01 8.04-3.7 8.85-.71-4.01-.14-8.21-.33-12.29.98-2.35-.1-8.38-2.95-5.51-.49 5.29 2.97 12.01-.96 16.33-2.08 2.38-5.94-3.72-9.58-2.09-4.62-2.37-2.73-9.78-5.86-13.66-3.12-3.27-1.66 13.07-3.71 5.33 1.47-4.93-7.52-6.86-5.76-1.6 2.21 2.24 2.61 5.04 2.32 8.02.62 3.5-1.97 4.53-2.58.61-.25-4.33-7.66-6.12-6.14-.43-3.89-2.5-.24 9.85-5 6.05-5.36-3.74-8.8 3.31-14.68 1.93-3.34.55-11.33 1.42-6.49-3.42 4.53-2.73 6.44-10.99 12.76-6.76 4.82-.28 9.95-3.68 13.89-6.85 3.22-2.17 1.78-7.7-2.17-4.27-3.28 4.93-12.7 4.93-15.53 4.54 2.8-2.65 11.36-3.04 9.24-7.69-3.15.26-8.66 4.97-10.43 2.22 1.1-1.21 4.71-4.56.54-3.1-5.27 1.71-10.92 1.3-16.35.86-5.44-5.32 7.92-3.86 7.73-7.36-1.32-.11-6.52.6-4.25-1.31 4.4.08 8.84.42 11.99-3.76 1.91-1.98 8.55-6.54 6.93-8.13-4.9 2.82-10.05 7.61-16.19 4.82 5.27-3.94-2.04-4.28-5.37-3.89-2.43.75-9.17-2.01-3.4-1.83 3.93.83 7.83-4.61 1.78-3.57-1.27-.39-2.63-.14-3.93-.21zm-29.03-7.94c-.23-2.562-1.263-5.107-.836-7.695 1.262-1.845 3.007-3.187 4.63-4.7 2.905-1.62 5.668-3.592 8.953-4.39 2.282-.695 4.26-2.2 5.748-4.04.733-2.215-.562-5.76 1.515-6.954 2.557-1.39 5.324-2.3 7.93-3.58 2.844-.92 5.922-1.06 8.873-.71 2.36 1.02 4.756 1.94 7.1 3 2.118 1.03 3.68 2.78 5.112 4.59 1.674 1.53 3.77 2.52 5.74 3.61 1.638.12 1.098 2.24.06 2.15-.675 3.14-4.592.48-5.338-1.37.657-1.22.39 2.79-.865 2.84-2.21.98-2.143-2.78-2.466-4.22.28-1.21-.68-2.65-1.18-.74-1.485 1.64 1.602 5.14-1.625 4.18-2.39-.31-5.07-.81-7.16.78-1.74 1.82 1.89 2.57 3.02 3.45 1.53 1.44 3.57.02 5.34-.16 2.43-.84 5.17-.4 7.42.72 1.04 2.25-1.04 4.49-3.03 5.4-1.86 1.01-3.93 1.45-6.01 1.7-3.03.14-2.44 3.9-5.4 4.2-1.89.8-4.02.99-6.03.72-.39-1.09 2.01-2.81 2.26-4.47 2.18-2.58-3.11-2.11-2.35.35.37 1.68-3.29 4.14-2.05 1.3.06-1.52 1.64-3.89-1.02-2.79-1.46-.01-4.44-.06-3.62 2.2-1.81.39-4.12.43-5.68-.47-.93-2.47-3.81-3.56-5.62-1.31-1.8 2.39-4.31-.74-6.1.5-.02 2.24 2.28 3.41 4.33 3.39 2.07-.18 4.19-.56 6.27-.22 1.92 2.29-1.83 3.01-3.61 2.69-2.39-.08-4.54-1.45-6.98-1.26-1.16-.16-3.82 1.28-1.31 1.48 1.86.38 5.67.25 4.82 3.17-1.46.68-3.26-.06-4.91.64-.97-.25-3.87.53-2.25-.3-.86-1.48-2.51-2.32-3.61-3.6z" fill="#fefefe"/>
<path d="M812.45 153.27c-.11 0-1.112.697-2.012 1.403-1.474.788-3.047 2.13-4.025 2.805-.77.616-.764.884-1.675 1.052 1.598-.227 2.31-.633 3.688-1.403 1.742-.21 3.43-.58 4.36-1.402.872-.305-.066-1.703-.336-2.455zm15.42-16.48c.193 0 .586 1.097 1.34 1.753.483 1.346.927 2.296 1.006 3.858.41-1.71 1.114-3.09 1.342-4.91-.522-.92-.557-1.35-2.013-1.4 0 .95.11.33-1.675.7zm6.04.35v.35c0-.945-.02-.463.335 1.403.554 1.176.67 2.438.67 4.208.88-.65 1.616-1.96 2.013-3.15 0-2.77-.375-2.6-3.018-2.8zm12.41 40.32h.335c-.986 0-.43.06 1.342-1.052 1.147-.8 2.086-1.982 3.69-2.455 1.55-1.274 2.746-1.87 4.357-2.453.786-.378 1.48-1.033 2.348-.35-.25 1.73-.536 2.383-2.012 3.154-.764 1-1.966 1.584-3.017 2.104-1.09.5-2.292.527-2.683 1.753-1.824.84-2.05.7-4.36-.7zm6.37 10.17c.598-.473 2.698-2.663 3.688-3.505 1.12-1.544 2.252-2.725 3.353-3.507.98-1.504 2.23-2.512 3.02-3.857.93-1.17 1.62-2.17 2.69-3.5 0 1.54-.14 3.57.34 4.56 0 2.12-.23 2.7-1 4.21-.76 1.24-1.33 2.07-3.02 2.81-1.52.85-2.43 1.14-3.69 2.11-.95.62-1.94 1.23-3.01 1.76-.96.43-.52.25-2.35-1.05zm-10.4 8.07h.335c-.986 0-.432.06 1.342-1.052 1.43-1.496 2.57-2.017 4.36-2.805 1.36-.11 3.007-.464 4.024-1.052.81-.15 1.38-.66 2.02 0 1.06 1.49 1.35 1.91-.33 2.81-.8.71-2.22 1.43-3.35 1.76-.83.72-2.49.77-4.02 1.05-1.37 0-2.13.17-2.68-.7l2.69.7c-1.37 0-2.13.17-4.36-.7zm14.42 0v-.35c0 .978-.04.46.67-1.403 1.257-1.962 1.73-3.044 3.354-3.507.76-.962 2.078-1.21 3.69-1.754.604 1.054.14 2.282 0 3.507-.44 1.31-1.635 2.233-2.348 3.156-1.046.74-1.472 1.45-3.018 1.75-1.28 0-.6-.04-2.348-1.41z"/>
<path stroke="#000" stroke-width="1.358" d="M817.48 151.16c-.75 0 1.322-.78 2.012-1.052.553-1.217.99-2.08 2.012-2.804 1.68.135 2.504.64 3.354 1.752 1.41.403 1.92 1.106 3.69 1.403.656.58 1.546.64 0 1.05-1.052.58-2.374.7-4.025.7-1.73.13-2.965.53-4.025 1.05-2.244 0-1.884.08-3.018-2.11z" fill="#c4c4c2"/>
<ellipse rx="1.105" ry="1.105" transform="matrix(1.5175 0 0 1.5868 612.59 -330.05)" cy="302.6" cx="138.11" fill="#000"/>
</g>
<g stroke="#002b0e" stroke-width="1.94" fill="#005121">
<path d="M827.87 247.94h1.34c-4.204 0-1.69-.294 5.366 5.61 2.956-2.576 2.92-2.924 5.366 1.402 1.41 2.463 1.825-.25 4.023-2.804 1.06 5.095 1.737 10.438 5.366 5.61 4.15 0 8.49-.36 10.73 1.402 2.72 5.276 1.83-.895 4.03 1.403 5.91.74 5.8-5.297 12.23-6.858 4 5.225 5.75 1.204 10.73-1.4 3.7 1.08 7.19 6.95 7.89 1.244 3.03-5.17 3.3-4.73 5.37 0 2.95 2.77 4.19-1.39 6.71-2.81 4.49 2.74 9.5 3.13 16.1 1.4 1.12 4.67 3.93 2.64 6.71 1.4 5.94 2.61 8.01 3.4 14.76 0 3.35-4.13 1.45.11 4.03 2.8 5-1.63 3.62-1.97 9.39-1.41 5.8 0 6.27-.15 8.05-4.21 2.92 3.05 3.97 5.24 8.05 1.4 6.25.19 4.32.82 8.05-1.41 2.76 6.39 3.41 1.77 6.71 4.2-2.17 5.76-5.51 8.46-9.39 11.22-2.58 4.47-4.19 9.29-9.39 11.22-3.79 4.04-7.83 6.39-12.07 9.82-5.81 1.52-12.21 1.4-18.78 1.4H882.9c-4.007 2.09-10.56 3.09-16.097 4.21-6.185 0-13.194.08-17.44-1.4-2.872-3.01-7.92-6.37-10.73-9.82-2.84-2.4-2.922-7.08-5.362-9.82-2.24-4.02-2.94-10.3-5.36-14.03v-9.82z"/>
<path d="M957.98 260.57v1.403c0-3.92.165-1.838-2.683 5.61-.577 1.808-1.84 2.233-4.024 2.804m-5.363-4.207h1.34c-4.965 4.905-8.308 7.164-9.39 12.623l9.39-12.623c-4.965 4.905-8.308 7.164-9.39 12.623m-10.73-19.643c0 .125-.188 5.003-1.34 7.012m-4.03 2.808v1.403-1.403zm-10.73-8.41h1.34-1.34zm-75.11 0c.64 0 3.28 4.452 6.706 7.012-.853 4.103-2.164 8.85 0 12.623m4.024-11.225c.64 0 3.28 4.454 6.707 7.014l-6.707-7.014c.64 0 3.28 4.454 6.707 7.014v1.402c0-4.333-.344-8.87 1.34-11.222 1.492 2.64 3.375 6.882 4.025 2.806 7.554-.283 11.2-2.5 16.096-4.207 0 2.063-.317 1.07 1.34 2.804m91.212-5.607h1.34c-2.528 2.204-4.47 6.7-6.706 9.817M912.37 257.76h10.73"/>
</g>
<path d="M824.72 268.43c-16.13 0-21.478 16.858-37.61 16.858-.31 0-.604-.025-.906-.038v1.02c-.06 11.686.858 22.57 2.532 32.734 14.88-1.087 20.41-16.858 35.983-16.858 16.13 0 21.51 16.896 37.64 16.896s21.51-16.896 37.64-16.896 21.51 16.896 37.64 16.896 21.51-16.896 37.64-16.896c15.53 0 21.07 15.66 35.87 16.82 1.77-10.435 2.71-21.646 2.64-33.678v-.038c-.31.012-.6.038-.91.038-16.13 0-21.48-16.858-37.61-16.858s-21.52 16.858-37.65 16.858-21.5-16.858-37.63-16.858c-16.13 0-21.52 16.858-37.65 16.858s-21.51-16.858-37.64-16.858zm0 65.8c-12.55 0-18.585 10.172-28.235 14.703a155.323 155.323 0 0 0 11.982 25.513c4.582-3.465 9.454-6.463 16.253-6.463 16.13 0 21.515 16.858 37.646 16.858s21.515-16.85 37.646-16.85c16.13 0 21.515 16.86 37.646 16.86S959.173 368 975.304 368c6.65 0 11.456 2.87 15.95 6.236a157.21 157.21 0 0 0 12.02-25.4c-9.496-4.59-15.535-14.59-27.97-14.59-16.13 0-21.514 16.858-37.645 16.858s-21.52-16.856-37.65-16.856-21.52 16.857-37.65 16.857-21.52-16.86-37.65-16.86zm75.29 65.81c-16.13 0-21.515 16.896-37.646 16.896-15.256 0-20.902-15.104-35.114-16.744 18.994 21.16 40.533 33.97 55.222 41.01 4.968-3.856 10.112 4.687 17.538 4.687 7.373 0 12.49-8.59 17.425-4.77 14.527-7.07 35.803-19.91 54.693-40.86-13.747 2.01-19.446 16.67-34.47 16.67-16.132 0-21.516-16.9-37.647-16.9z" fill="#fff"/>
<g stroke="#522108">
<g fill="none">
<path stroke-width=".737" d="M800.15 342.75c2.647-.922 15.438-5.073 15.88-4.613.44.462 24.7 24.908 24.7 24.908l-20.29 4.15-20.29-24.445z"/>
<path d="M848.36 374.78c.374-5.788 11.21-38.71 11.21-38.71m-7.47 39.11c0-.362 8.595-38.74 8.595-38.74m-5.655 38.8c.373-2.17 7.145-38.8 7.145-38.8m-10.835 27.85c1.868 0 5.605-1.447 5.605-1.447m-4.485-2.893c0-.362 5.605-1.447 5.605-1.447m-4.855-3.973l5.98-1.085m-3.37-3.625c0 .362 4.11.362 4.11.362" stroke-width=".751"/>
<path d="M914.9 400.38c-.442-9.912-13.233-66.285-13.233-66.285m8.813 64.425c0-.62-10.146-63.806-10.146-63.806m5.736 58.846c-.44-3.717-7.498-58.85-7.498-58.85m15.888 57.61c-2.205-1.858-8.82-4.337-8.82-4.337m5.73-5.573c-2.205 0-6.616-2.478-6.616-2.478m5.286-4.952c0-.62-6.616-2.478-6.616-2.478m5.736-6.822l-7.058-1.858m3.968-6.192c0 .62-4.85.62-4.85.62m3.53-8.05c-.882 0-4.85 1.238-4.85 1.238m48.9 21.242c-2.205 0-6.616-1.845-6.616-1.845m10.146 15.215c-.442-7.38-13.233-49.354-13.233-49.354m8.823 47.974c0-.462-10.146-47.508-10.146-47.508m5.726 43.818c-.44-2.767-7.498-43.817-7.498-43.817m11.468 29.977c0-.462-6.616-1.845-6.616-1.845m5.736-5.075l-7.058-1.384m3.968-4.606c0 .462-4.85.462-4.85.462m3.53-6.002c-.882 0-4.85.922-4.85.922" stroke-width=".737"/>
</g>
<g stroke-width=".737" fill="#dd8b59">
<path d="M895.43 391.65c0-.462 1.323-115.77 1.323-115.77s3.97-.462 3.97 0-.44 115.31-.882 115.77c-.44.462-4.85.922-4.41 0zm43.23-110.7c0 .924-.883 97.322-.883 97.322l-3.088 3.69.88-101.01h3.09zm-76.76 88.56c.44-2.77.44-86.253.44-86.253l-2.646-.462-.44 85.33 2.646 1.385z"/>
<path d="M845.14 338.14c1.765 0 31.76-5.073 31.76-5.073l-.442 5.073-29.553 3.23-1.764-3.23zm.44-26.75c1.765.462 36.17-9.686 36.17-9.686s0 3.23-.44 3.23-35.73 9.685-35.73 9.685v-3.23zm1.33-13.38c-.442 1.845.44 4.153.44 4.153l28.672-10.147s1.323-2.308 0-2.308-29.553 9.226-29.112 8.302zm37.93-6.45c.882 0 29.553-9.686 29.553-9.686s.442 4.15 0 4.15c-.44 0-26.907 8.303-26.907 8.303l-2.647-2.767zm-2.21 11.99s-.882 4.15-.44 4.15c.44 0 37.493-10.146 37.493-10.146v-2.767l-37.053 8.763zm1.33 32.75v3.228l31.76-4.612-.882-2.307-30.878 3.69zm36.61 2.3l.44 2.767s31.76-4.15 31.76-4.613c0-.46 0-3.227-.44-3.227-.442 0-31.32 5.535-31.76 5.073zm-.44-29.52l.442 3.228 37.493-10.608s.883-2.768.44-2.768c-.44 0-37.494 11.53-38.375 10.147zm3.97-14.76s-.44 2.767 0 2.767c.442 0 27.79-6.918 27.79-7.38 0-.46 2.647-3.23.442-2.767-2.207.462-27.348 8.764-28.232 7.38z"/>
</g>
<path d="M864.11 303.55c3.97-1.384 1.323-4.613 2.205-4.613.883 0 3.97 2.306 5.735.46 1.764-1.843 3.088-7.378 2.206-6.918-.795.41-19.802 7.55-23.926 7.63 2.583.99 10.342 4.63 13.78 3.43zm61.31-6.46s2.207 5.535 4.41 4.613c2.206-.922 4.413-2.768 4.413-2.768s1.765 4.613 4.85 3.69c3.09-.922 4.854-5.997 4.854-5.997s3.087.924 4.41.462c1.325-.462 3.088-7.84 3.088-7.84l-26.025 7.84zm-2.64 44.74c-.442.922 2.207 3.23 4.41 3.23s3.09-3.23 3.53-2.308c.44.923.44 5.074 6.176 3.69s5.734-5.534 5.734-5.534-1.765 1.384 2.205 1.844c3.97.462 7.94-5.997 7.5-5.997-.442 0-28.672 5.537-29.555 5.075zm0-29.98s-4.41 5.073-3.088 11.99c1.323 6.92 3.088 12.916 3.53 12.916.44 0 5.293-9.224 10.586-9.686 5.293-.46 14.998 5.075 14.998 5.075s-1.324-11.07-.882-16.144c.44-5.07 7.94-13.83 7.94-13.83l-33.083 9.69zm-76.32 29.98c.442 0 0 4.15 3.528 3.23 3.53-.924 4.412-3.23 4.412-3.23s.88 5.073 5.734 4.613c4.852-.462 7.498-5.997 7.498-5.997s.442 4.15 3.53 2.768c3.088-1.384 3.97-4.613 3.97-4.613l-27.79 4.16-.882-.92zm0-27.21s-3.97 1.384-2.647 9.686c1.324 8.302 4.412 12.915 4.852 12.915.442 0 3.97-7.84 9.263-9.22 5.295-1.38 14.557 4.15 14.557 4.15s-.883-7.38.44-14.29c1.325-6.92 5.735-11.99 5.735-11.99s-30.877 8.77-32.2 8.77zm39.26-21.68c1.765.462 4.853 5.073 6.616 4.15 1.765-.92 4.412-3.688 4.412-3.688s-.442 5.534 3.088 4.61c3.528-.92 3.97-4.61 3.97-4.61s2.646 1.383 4.85 0c2.208-1.384 4.413-8.304 3.53-8.304s-25.583 8.304-26.466 7.842zm-.88 13.38c0 .922-4.41 8.302-3.088 15.22 1.323 6.918 3.97 13.376 4.41 13.376.443 0 7.06-7.38 12.794-8.764 5.733-1.383 14.114 4.613 13.674 4.613-.44 0-2.206-6.92-2.206-11.993 0-5.074 6.616-20.757 6.616-20.757l-32.2 8.304zm0 33.2c0 .462 1.323 3.69 4.41 3.69 3.088 0 3.53-3.228 3.53-3.228s-.442 5.534 4.41 5.074c4.852-.462 6.617-5.536 6.617-5.536s.442 2.77 4.412 1.385c3.96-1.385 9.26-5.996 8.82-5.996-.44 0-31.76 5.99-32.2 4.61z" stroke-width=".737" fill="#fecf3e"/>
<g stroke-width=".737" fill="#dd8b59">
<path d="M846.46 372.73s4.41 47.508 55.14 46.124c50.726-1.384 64.84-47.968 64.84-47.968s-21.613-.924-22.054-.924c-.44 0-17.644 22.14-39.7 21.68-22.055-.462-29.112-5.997-33.965-10.61-4.85-4.61-9.26-11.53-9.26-11.53l-25.58-10.61 1.33 10.148 9.27 3.69zm136.95-4.93c-.442-1.384-1.528-6.135-1.528-6.135v-5.534l2.442-5.6s-38.376 5.75-38.376 6.21c0-.53-.237 10.93-.237 10.93l37.7.14z"/>
<path d="M976.15 356.13l-.882 9.686h6.175l-.44-9.686h-4.853zm-6.62.46l-.442 10.146 3.97-.46.442-9.686h-3.97zm-6.61 10.15v-7.84l3.97-1.384.44 7.84-4.41 1.384zm-7.5-.46l.883-6.918 4.41.46.442 7.38-5.735-.922zm-8.38 0l.442-5.996 4.41-.462v6.918l-4.852-.46zm-4.42 3.69l41.904.924.442-3.23-43.23-.46.884 2.766zm1.77-11.53c4.853 0 41.464-7.38 41.464-7.38s1.323-4.61 0-4.61-41.464 8.762-41.464 8.762v3.228zm-145.57-16.15l33.523 17.066-.882 2.306s-32.2-15.682-32.2-16.144c0-.46.44-2.306-.44-3.228z"/>
<path d="M814.26 337.22c0 1.384 4.853 29.52 4.853 29.52s3.088.46 3.088 0-5.29-29.058-5.29-29.058l-2.64-.462z"/>
</g>
<g fill="none">
<path d="M882.04 389.32c.442-7.668 13.233-51.282 13.233-51.282m-8.813 51.792c0-.48 10.146-51.322 10.146-51.322m-6.676 51.402c.44-2.876 8.434-51.4 8.434-51.4m-15.874 44.57c2.205-1.438 8.82-3.355 8.82-3.355m-5.74-4.305c2.205 0 6.616-1.917 6.616-1.917m-5.286-3.843c0-.48 6.616-1.917 6.616-1.917m-5.736-5.263l7.06-1.44m-3.97-4.8c0 .48 4.85.48 4.85.48m-3.53-6.23c.882 0 4.85.958 4.85.958" stroke-width=".751"/>
<path d="M919.47 388.99c.442-7.38 13.233-49.354 13.233-49.354M923.88 387.6c0-.462 10.146-47.508 10.146-47.508M928.3 383.91c.44-2.767 7.498-43.817 7.498-43.817M919.92 382.99c2.205-1.384 8.82-3.23 8.82-3.23m-5.74-4.15c2.205 0 6.616-1.845 6.616-1.845m-5.286-3.685c0-.462 6.616-1.845 6.616-1.845m-5.736-5.075l7.058-1.384m-3.968-4.616c0 .462 4.85.462 4.85.462m-3.53-5.992c.882 0 4.85.922 4.85.922m-57.31 31.518c-.442-7.425-13.233-49.65-13.233-49.65m8.813 48.26c0-.465-10.146-47.795-10.146-47.795m5.736 44.075c-.44-2.784-7.498-44.082-7.498-44.082m15.878 43.162c-2.205-1.392-8.82-3.25-8.82-3.25m5.74-4.18c-2.205 0-6.616-1.857-6.616-1.857m5.286-3.713c0-.465-6.616-1.857-6.616-1.857m5.736-5.103l-7.058-1.392m3.968-4.638c0 .465-4.85.465-4.85.465m3.53-6.035c-.882 0-4.85.927-4.85.927" stroke-width=".737"/>
</g>
<path stroke-width=".737" d="M835 359.36s-8.82-1.384-8.38.922c.44 2.306 4.41 4.613 4.852 5.996.44 1.384-1.324 6.457 1.323 5.997 2.647-.462 5.293-2.307 5.293-3.69s-.44-7.84-.44-7.84L835 359.36z" fill="#b6b6b4"/>
<g stroke-width=".737" fill="none">
<path d="M844.7 372.27c1.323 0 11.47 2.306 11.47 2.306l10.585 14.76"/>
<path d="M852.2 374.12c.44.462 9.263 31.364 51.61 31.364s52.49-35.054 52.49-35.054"/>
<path d="M962.92 371.35s-20.29 46.124-59.108 42.895c-38.818-3.228-44.992-18.45-48.08-26.29-3.09-7.842-4.852-14.298-4.852-14.298m101.01-39.667c.442-1.384 1.765-29.057 1.765-29.057m29.105 42.897l-27.348-45.203M899.84 277.26c0-.462 13.674 5.996 13.674 6.457 0 .46 48.52 67.803 48.962 67.803m-24.266-67.81l12.35 5.536 3.97 10.146m-93.07-16.602c-.442 0 13.674 11.07 13.674 11.07l1.765 9.225m-63.52 47.045c6.17-2.767 48.96-41.974 48.96-41.974m-60.43 34.594c5.29-4.613 48.08-42.434 48.08-42.434m32.2 6.464l45.43 78.872m-5.36-46.262s5.36 18.583 10.65 21.35c5.29 2.767 11.46 7.38 11.46 7.38"/>
<path d="M921.66 339.78s3.765 21.886 9.058 26.038c5.293 4.15 10.588 8.764 10.588 8.764M885.07 338.25s5.293 30.442 15.88 37.36a1436.647 1436.647 0 0 1 19.408 12.916"/>
<path d="M884.63 337.79s11.468 23.986 21.172 31.366c9.704 7.378 22.937 14.298 22.937 14.298m-81.17-43.814c3.08 5.535 2.64 16.144 6.17 19.833 3.53 3.69 8.82 11.993 8.82 11.993"/>
<path d="M848.46 340.1c1.765 2.767 6.686 16.547 9.704 20.755 2.207 3.69 24.703 27.213 24.703 27.213"/>
</g>
<g stroke-width=".475">
<ellipse cy="389.22" cx="872.05" rx="3.308" ry="3.459"/>
<ellipse cy="396.6" cx="888.82" rx="2.867" ry="2.998"/>
<ellipse cy="398.44" cx="909.55" rx="2.867" ry="2.998"/>
<ellipse cy="391.29" cx="928.07" rx="2.647" ry="2.537"/>
<ellipse cy="382.3" cx="942.19" rx="2.426" ry="2.998"/>
</g>
<path d="M859.48 283.36c-1.323.924-23.38 6.458-20.29 5.996 3.086-.46 20.73 4.613 20.29 3.23-.442-1.384 0-8.302 0-9.226zm37.5-6.92c-.883 0-13.676 5.074-13.234 5.074s14.557 4.15 14.116 3.228c-.442-.922-.442-6.918-.882-8.302zm38.37 4.62c-.883.462-15.88 4.15-13.234 4.613 2.647.462 12.793 4.15 12.793 3.23 0-.925 0-7.38.44-7.843z" stroke-width=".737" fill="#ff0101"/>
<g stroke-width=".581" transform="matrix(.04915 -1.2962 1.2382 .05145 0 0)" fill="#be1017">
<circle cx="-216" cy="726.38" r="1.889"/>
<circle cx="-212.22" cy="739.05" r="1.889"/>
<circle cx="-219.25" cy="732.92" r="1.889"/>
<circle cx="-208.97" cy="732.51" r="1.889"/>
<circle cx="-214.11" cy="732.71" r="1.889"/>
</g>
</g>
</svg>
