<svg id="falkland_islands_flag" xmlns="http://www.w3.org/2000/svg" xmlns:xlink="http://www.w3.org/1999/xlink" viewBox="0 0 1200 600">
<defs>
<linearGradient id="gradbase" gradientUnits="userSpaceOnUse">
<stop stop-color="#a43907" stop-opacity=".9961" offset="0"/>
<stop stop-color="#fff" offset="1"/>
</linearGradient>
<linearGradient id="grad1" y2="396.11" xlink:href="#gradbase" x2="786.12" y1="419.93" x1="826.45"/>
<linearGradient id="grad2" y2="419.67" xlink:href="#gradbase" x2="763.03" y1="436.07" x1="851.57"/>
<linearGradient id="grad3" y2="400.94" xlink:href="#gradbase" x2="974.92" y1="398.54" x1="1016.1"/>
<linearGradient id="grad4" y2="428.64" xlink:href="#gradbase" x2="945.9" y1="421.22" x1="1033.3"/>
<linearGradient id="grad5" y2="445.13" xlink:href="#gradbase" x2="776.65" y1="445.13" x1="1023.4"/>
<linearGradient id="grad6" y2="465.42" xlink:href="#gradbase" x2="1144.1" y1="462.5" x1="783.43"/>
<linearGradient id="grad7" y2="444.03" xlink:href="#gradbase" x2="1002.9" y1="442.29" x1="1032.1"/>
<linearGradient id="grad8" y2="476.18" xlink:href="#gradbase" x2="803.91" y1="471.72" x1="775.75"/>
<linearGradient id="grad9" y2="440.32" xlink:href="#gradbase" x2="755.31" y1="466.89" x1="803.18"/>
<clipPath id="c">
<path d="m0 0v150h700v150h-100zm600 0h-300v350h-300v-50z"/>
</clipPath>
</defs>
<rect width="1200" fill="#00247d" height="600"/>
<path stroke="#fff" stroke-width="60" d="m0 0 600 300m0-300-600 300"/>
<path stroke="#cf142b" stroke-width="40" d="m0 0 600 300m0-300-600 300" clip-path="url(#c)"/>
<path stroke="#fff" stroke-width="100" d="m300 0v350m-300-200h700"/>
<path stroke="#cf142b" stroke-width="60" d="m300 0v350m-300-200h700"/>
<path d="m0 300h600v-300h600v600h-1200z" fill="#00247d"/>
<g stroke="#000" stroke-width="1.8">
<use stroke-width="12" stroke="#fff" xlink:href="#scroll"/>
<g id="scroll" stroke-linejoin="bevel">
<path d="m826.45 427.74s-8.536-13.884-15.65-12.893c-7.1126 0.99174-13.752 9.9174-14.227 10.412-0.47347 0.49666-10.906-11.404-10.433-11.901 0.47498-0.49508 10.908-26.28 16.598-27.272 5.6906-0.99174 17.977 1.8971 17.977 2.8888 0 0.99174 5.7338 38.764 5.7338 38.764z" fill="url(#grad1)"/>
<path d="m845.42 412.86c0 0.99174-2.8453 37.686-15.175 50.579s-32.247 20.826-39.361 18.843c-7.1126-1.9835-23.236-39.173-23.236-39.173s17.072 17.851 29.875 14.876c12.805-2.9752 20.392-25.29 22.763-36.199 2.3719-10.909 0.47498-32.232 0.47498-32.232l24.66 23.307z" fill="url(#grad2)"/>
<path d="m973.58 427.74s8.536-13.884 15.65-12.893c7.1126 0.99174 13.752 9.9174 14.227 10.412 0.4734 0.49666 10.906-11.404 10.433-11.901-0.4749-0.49508-10.908-26.28-16.598-27.272-5.6906-0.99174-17.977 1.8971-17.977 2.8888 0 0.99174-5.7338 38.764-5.7338 38.764z" fill="url(#grad3)"/>
<path d="m954.61 412.86c0 0.99174 2.8453 37.686 15.175 50.579s32.247 20.826 39.361 18.843c7.1126-1.9835 23.236-39.173 23.236-39.173s-17.072 17.851-29.875 14.876c-12.805-2.9752-20.392-25.29-22.763-36.199-2.3719-10.909-0.47498-32.232-0.47498-32.232l-24.66 23.307z" fill="url(#grad4)"/>
<path d="m788.94 407.48c-5.6907 6.9422-8.7289 12.308-11.1 16.275-2.3711 3.9669-0.97668 9.4873 4.5 17.362 5.9046 8.4877 54.448 41.662 117.68 41.662 63.226 0 111.77-33.175 117.68-41.662 5.4766-7.8752 6.8336-13.396 4.4625-17.362-2.3711-3.967-5.3719-9.3328-11.062-16.275 0 10.412-40.214 48.038-111.08 48.038-70.861 0.00002-111.08-37.625-111.08-48.038z" fill="url(#grad5)"/>
<path d="m1008.2 476.74c0.9485-1.4868 10.906-18.843 10.906-18.843l-5.46-4.0272c-1.6768 4.9095-7.8182 6.5074-8.7666 12.458s4.2688 11.901 3.3203 10.412z" fill="url(#grad6)"/>
<path d="m1018.2 471.37s1.8969-8.429-4.2673-9.4207c-6.1656-0.99173-9.4293 4.718-8.5359 2.4786 0.9921-2.4869 4.7422-4.9587 5.2156-13.388 0.475-8.4306-0.4734-12.893-0.4734-12.893s2.3703-10.911 12.33-9.4223c9.9579 1.4884 10.433 9.4223 10.433 12.398 0 2.9752-0.9485 4.462-0.9485 4.462l-13.753 25.785z" fill="url(#grad7)"/>
<path d="m791.77 476.74c-0.949-1.487-10.907-18.843-10.907-18.843l5.46-4.0272c1.6768 4.9095 7.8182 6.5074 8.7666 12.458s-4.2687 11.901-3.3203 10.412z" fill="url(#grad8)"/>
<path d="m781.87 471.37s-1.8969-8.429 4.2672-9.4207c6.1656-0.99173 9.4294 4.718 8.536 2.4786-0.99208-2.4869-4.7422-4.9587-5.2157-13.388-0.47498-8.4306 0.47347-12.893 0.47347-12.893s-2.3704-10.911-12.33-9.4223c-9.9579 1.4884-10.433 9.4223-10.433 12.398 0 2.9752 0.94844 4.462 0.94844 4.462l13.753 25.785z" fill="url(#grad9)"/>
</g>
<g stroke="none">
<path d="m813.43 438.56-5.1678-3.5599-0.60012 0.95373 1.0182 0.84192 0.0874 0.5064-6.5054 10.339-0.47909 0.11619-1.1407-0.6472-0.60011 0.95374 5.1678 3.5599c1.7705 1.2196 3.2807 1.8422 4.9663 1.6648 2.1944-0.22005 4.0649-1.4987 5.5102-3.7956 2.573-4.0892 1.8508-8.1032-2.2566-10.933zm-2.1551 0.0781 1.0269 0.70737c2.8141 1.9386 3.062 4.6499 0.75905 8.3099s-4.7929 4.5119-7.607 2.5733l-1.0269-0.70738 6.848-10.883z"/>
<path d="m815.17 457.27 10.268 5.1331 1.7169-3.7645-1.2992-0.64945-1.3426 2.0673-0.40209 0.21206-4.4357-2.2173 2.495-5.4707 2.4854 1.2424 0.1338 0.42897-0.50075 1.6093 1.1289 0.56432 2.226-4.881-1.1289-0.56431-0.88123 1.4209-0.4021 0.15932-2.4854-1.2424 2.2835-5.007 3.8042 1.9016 0.12401 0.39771-0.55685 1.9961 1.3384 0.66904 1.5067-3.3036-9.6385-4.8182-0.47001 1.0306 1.1183 0.68907 0.17148 0.44781-5.114 11.213-0.45937 0.18343-1.2142-0.47866-0.47002 1.0306z"/>
<path d="m828.79 463c1.1013 0.90962 2.3775 1.6099 3.6683 2.0451 3.3082 1.1155 5.9307-0.10665 6.7418-2.7478 0.40203-1.3093 0.12479-2.7259-0.79298-3.9419-0.93036-1.2436-1.8978-1.9381-2.3931-2.57-0.85035-1.07-1.2118-1.9267-0.89833-2.9476 0.37514-1.2217 1.5551-1.802 3.0271-1.3057 0.64543 0.21763 1.0758 0.48438 1.377 0.80593l0.18745 0.4065-0.36563 2.4247 1.4514 0.48939 1.1041-3.5956c-1.1199-0.91756-2.3085-1.6116-3.5596-2.0335-2.8837-0.97235-5.3457 0.30391-6.102 2.7669-0.33434 1.0888-0.18493 2.339 0.47776 3.5174 0.6348 1.1206 1.4679 1.8181 2.1376 2.5339 1.187 1.2818 1.6682 2.3256 1.3005 3.5231-0.37514 1.2217-1.6159 1.7832-3.2502 1.2321-0.62476-0.21066-1.1755-0.51966-1.6786-0.90929l-0.16029-0.42066 0.49527-2.7726-1.5341-0.51727-1.2334 4.0169z"/>
<path d="m839.51 467.15 6.0298 2.0332 0.33386-1.0873-1.3174-0.56586-0.21374-0.46369 3.6327-11.83 0.41824-0.20227 1.3856 0.34388 0.33387-1.0873-6.0298-2.0332-0.33387 1.0873 1.2963 0.56041 0.22719 0.41989-3.6327 11.83-0.43168 0.24606-1.3644-0.33842-0.33387 1.0873z"/>
<path d="m852.46 454.82-0.23018 1.1177 1.1989 0.38514 0.26548 0.39304-2.5045 12.161-0.40647 0.29156-1.2459-0.15694-0.23018 1.1177 5.8401 1.2911 0.23018-1.1177-1.24-0.39261-0.25622-0.43806 1.0572-5.1337c0.12405 0.0274 0.2481 0.0549 0.35256 0.0779 2.0909 0.46223 2.4275 1.5624 2.6227 3.8713 0.10596 1.1677 0.0804 2.2365 0.9697 3.3874 0.40864 0.54317 1.1179 0.98561 2.0091 1.1826 0.64147 0.14181 1.359 0.22902 2.1071 0.27591l0.2257-1.096c-0.10283-0.0227-0.18607-0.0411-0.26932-0.0595-1.3874-0.3067-1.9373-0.78534-2.1145-2.1376-0.15871-1.2264-0.0697-2.4954-0.50599-3.642-0.32473-0.83462-0.94066-1.4236-1.8829-1.8948 2.4394 0.0378 3.9343-1.0146 4.3666-3.1134 0.52174-2.5335-0.85301-4.2689-4.0636-4.9787l-6.2955-1.3917zm3.9775 2.2394 0.95323 0.21072c2.0076 0.44383 2.8476 1.7267 2.4624 3.5973-0.43255 2.1004-1.6858 2.8247-3.9008 2.3351-0.22851-0.0505-0.47661-0.10536-0.74113-0.18819l1.2263-5.9549z"/>
<path d="m865.59 473.89 11.363 0.56256 0.18257-4.1685-1.4393-0.0713-0.4684 2.4516-0.2915 0.35885-4.9084-0.24301 0.26531-6.0578 2.7502 0.13616 0.28257 0.3412 0.13837 1.6874 1.2475 0.0618 0.23671-5.4048-1.2475-0.0618-0.28532 1.668-0.3111 0.31022-2.7502-0.13616 0.24282-5.5443 4.2112 0.20849 0.26193 0.31636 0.22707 2.0666 1.481 0.0733 0.16021-3.6581-10.664-0.52797-0.05 1.1412 1.2858 0.1812 0.32426 0.34327-0.5438 12.417-0.35488 0.35571-1.296 0.0518-0.05 1.1412z"/>
<path d="m885.56 460.7-0.039 4.1285 1.4987 0.0179 0.37128-2.4916 0.35057-0.29889 2.6087 0.0312-0.11983 12.687-0.3735 0.36844-1.4142 0.0989-0.0108 1.1424 6.4985 0.0777 0.0108-1.1424-1.412-0.13272-0.36645-0.37729 0.11983-12.687 2.6087 0.0312 0.32257 0.30694 0.3464 2.5002 1.4987 0.0179 0.039-4.1285-12.538-0.14991z"/>
<path d="m898.77 461.15 0.0199 1.1423 1.2626 0.0954 0.35417 0.36677 0.21614 12.383-0.34115 0.3789-1.2585 0.13782 0.0199 1.1423 6.1484-0.10732-0.0199-1.1423-1.3053-0.0931-0.35417-0.36677-0.10258-5.8765 6.2785-0.1096 0.10257 5.8765-0.31889 0.37852-1.3013 0.13857 0.0199 1.1423 6.1278-0.10696-0.0199-1.1423-1.2625-0.0938-0.35417-0.36677-0.21615-12.383 0.34116-0.37891 1.2584-0.1394-0.0199-1.1423-6.1278 0.10696 0.0199 1.1423 1.3054 0.0947 0.33191 0.36716 0.0891 5.1071-6.2785 0.10959-0.0892-5.1071 0.34116-0.3789 1.3013-0.14016-0.0199-1.1423-6.1484 0.10732z"/>
<path d="m916.07 476.41 11.624-1.0643-0.3543-4.1573-1.4724 0.13481-0.15864 2.4965-0.24986 0.39724-5.0212 0.45975-0.51488-6.0415 2.8135-0.2576 0.33145 0.29782 0.35921 1.6526 1.2762-0.11685-0.45938-5.3902-1.2762 0.11685-0.074 1.6938-0.27608 0.35185-2.8135 0.25761-0.47124-5.5293 4.3081-0.39446 0.30724 0.27614 0.4985 2.0158 1.5151-0.13872-0.31092-3.6483-10.909 0.99887 0.097 1.1381 1.3305-0.004 0.37411 0.29391 1.0554 12.383-0.3147 0.40318-1.3107 0.23631 0.097 1.1381z"/>
<path d="m932.56 458.35 0.1778 1.1275 1.3657-0.11428 0.41605 0.26022 1.9346 12.268-0.30714 0.4304-1.3294 0.34448 0.1778 1.1275 6.4365-1.0995-0.1778-1.1275-1.4104 0.12352-0.42321-0.30563-0.81666-5.1788c0.13672-0.0233 0.27523-0.047 0.38857-0.0664 2.3044-0.39365 3.0541 0.49466 4.1058 2.56 0.53928 1.0417 0.90964 2.043 2.2403 2.7613 0.61756 0.34319 1.5047 0.47469 2.4869 0.3069 0.70698-0.12076 1.4714-0.32211 2.2521-0.57287l-0.17434-1.1056c-0.11334 0.0194-0.20508 0.035-0.29683 0.0507-1.5291 0.2612-2.267 0.0335-2.9471-1.1514-0.6148-1.0754-0.99257-2.2878-1.8593-3.1802-0.64135-0.64629-1.4874-0.95045-2.6211-1.0173 2.5015-0.92425 3.6385-2.4887 3.3046-4.6059-0.40302-2.5557-2.4467-3.625-5.9852-3.0206l-6.9384 1.1852zm4.8859 0.51304 1.0506-0.17946c2.2127-0.37798 3.5435 0.48182 3.8411 2.3689 0.33413 2.1188-0.6774 3.2839-3.1185 3.7009-0.25185 0.043-0.52528 0.0897-0.82581 0.11695l-0.94729-6.0072z"/>
<path d="m951.81 470.61 6.6025-2.0791-0.32891-1.093-1.5129 0.35511-0.46072-0.24548-3.5786-11.893 0.25926-0.42401 1.4458-0.57827-0.3289-1.093-6.6025 2.0791 0.3289 1.093 1.4908-0.34646 0.44747 0.20145 3.5786 11.893-0.24602 0.46803-1.4236 0.56963 0.3289 1.093z"/>
<path d="m965.54 457.74 0.31433 1.0947 1.6719-0.3998 0.4444 0.20245 1.3088 4.5581c-0.56356 0.22413-0.97784 0.37842-1.1996 0.44771-3.4102 1.0655-6.167-0.62955-7.3221-4.6525-1.1228-3.9104 0.24784-6.8703 3.5498-7.902 0.64258-0.20077 1.2716-0.27637 1.9413-0.21721l0.44702 0.29773 1.101 2.2373 1.6169-0.50522-1.0905-3.7979c-1.7811 0.0197-3.4229 0.26594-4.8862 0.72314-4.9171 1.5364-7.2058 5.5866-5.8905 10.168 1.3346 4.6478 5.4036 6.8839 10.055 5.4304 1.6169-0.50521 3.1666-1.3307 4.6993-2.4674l-1.4948-5.2058 0.26454-0.42396 1.2528-0.51406-0.31432-1.0947-6.4695 2.0214z"/>
<path d="m968.96 448.39 0.49355 1.0201 1.2479-0.52701 0.49129 0.15867 5.3502 11.058-0.16911 0.50721-1.1471 0.73527 0.49355 1.0201 5.8411-3.0828-0.49355-1.0201-1.2895 0.55074-0.49129-0.15867-2.539-5.2477 5.9648-3.1481 2.539 5.2477-0.14796 0.49605-1.1894 0.75759 0.49355 1.0201 5.82-3.0717-0.49355-1.0201-1.2472 0.52842-0.49129-0.15867-5.3502-11.058 0.16912-0.50721 1.1464-0.73669-0.49355-1.0201-5.82 3.0717 0.49355 1.0201 1.2902-0.54933 0.47014 0.16983 2.2066 4.5606-5.9648 3.1481-2.2066-4.5606 0.16912-0.50721 1.1887-0.75901-0.49355-1.0201-5.8411 3.0828z"/>
<path d="m983.58 439.94 2.0279 3.546 1.3689-0.85444-0.90834-2.3419 0.16871-0.45852 2.381-1.4862 6.2317 10.897-0.1532 0.5302-1.2337 0.9051 0.56113 0.98121 5.9338-3.7039-0.56113-0.98121-1.346 0.70516-0.52106-0.10933-6.2317-10.897 2.3826-1.4872 0.44609 0.0747 1.5623 1.9337 1.3704-0.85542-2.0279-3.546-11.452 7.148z"/>
</g>
</g>
<path stroke="#fff" stroke-width="6" d="m900.01 448.34s-114.46-33.735-113.8-162.08l0.88167-169.65h225.83l0.8847 168.68c0.6677 128.34-113.8 163.05-113.8 163.05z" fill="#0072c4"/>
<g fill="#bcbcbc">
<path d="m802.8 155.04c0.18817 0 1.5752-1.317 2.8453-2.4786 1.774-0.88859 3.4144-2.1374 5.2172-2.9752 1.343-0.77752 3.9971-1.3805 5.2157-1.9835 1.5979-0.83623 2.9015-1.7994 4.2688-3.4719 0.16389-2.2183 0.47498-3.8114 0.47498-6.4455 1.8862-0.90763 3.5601-1.7883 5.2157-2.4801 2.3734-0.66804 2.8878-1.6169 5.2172-1.9835 1.4993-0.52363 3.9774-0.49666 6.1641-0.49666 2.3597 0 3.8484 1.6772 5.9683 2.0739 2.513 1.014 3.686 1.7153 5.6906 3.4719 1.1321 1.4329 1.8362 2.5976 3.7664 3.6766 1.5281 0.78387 2.9591 1.9708 4.7422 2.4786 1.9576 1.1345 3.6951 1.7915 5.2157 3.4719 1.3931 0.99015 1.9682 2.4611 3.3203 3.4703 1.5661 1.2996 3.0517 2.469 4.7422 3.4719 2.0319 1.3614 4.0457 2.396 7.3371 2.0993 1.7421-0.10314 3.6177-0.30307 5.6906 0.0841 2.3203 0 4.5844-0.0412 6.6391 0.49666 2.4189 0 4.3765 0.32688 6.6391 0.49508 2.12 0.39669 4.2809 0.49666 6.6391 0.49666 2.0562 0.53633 4.3188 0.49508 6.6391 0.49508h13.278c2.4159 0 4.8621 0.0984 6.6391 0.49666 2.3931 0 4.4508-0.22374 6.6391-0.49666 2.5752 0 4.5389-0.47128 7.1141-0.49508h8.0625c2.0699 0.56648 4.7149 0.95524 6.1641 1.9835 1.8984 0.5411 2.8438 1.4408 4.7422 1.9835 1.4538 0.74578 3.6617 1.9264 4.7422 3.4703 1.3384 1.3995 2.7133 3.4036 3.7938 5.4554 1.3202 1.9041 1.8225 4.0812 2.8453 6.4455 0.54175 2.2659 0.9196 4.4208 0.94844 6.9422 0.51443 2.1501 0.47498 4.516 0.47498 6.9422-0.54175 2.2612-0.66012 4.7778-1.4234 6.9422-0.082 2.4198-0.56603 4.6096-0.94844 6.4471-0.42187 2.0295-0.91809 3.3354-0.94844 5.9504v6.9422c-0.16693 2.277-0.66467 3.9495-0.94845 6.4455-1.1472 2.166-2.2459 4.6984-3.3188 7.4388-1.5782 1.0996-2.947 2.6642-3.7938 3.9669-1.0122 0.62519-1.5979 1.5741-1.4234 1.9835 1.8954 0.6601 1.4234 1.9787 1.4234 4.462 0.24583 1.9121 0.43097 4.2827 0.94844 6.4471 0.17299 2.3675 0.67984 3.8146 1.4219 5.4538 0.74813 0.97745 0.89381 0.49666-0.94844 0.49666-1.3703 1.0742-2.7573 0.51253-3.3188-1.4884-1.1063-1.3345-1.4705-2.9498-1.8969-5.4538-0.26253-2.2961-0.62977-4.5334-1.4234-5.9504-0.2428-2.7943-0.98638-2.7658-3.7938-2.9752-1.3354-1.1837-3.0987-1.4884-5.6906-1.4884-2.5813 0-2.7983-0.2634-2.8453 2.4801v6.9422c-0.44615 2.012-1.4249 3.6432-1.8969 5.4538-1.4143 1.0362-2.1503 2.7753-3.7938 3.967-0.78303 2.2516-1.9212 2.6436-4.2687 2.9752-0.82097-1.0251-2.1594-2.3627-2.8453-3.4703 1.3278-2.2278 2.4872-2.5642 3.3203-4.9587 1.0076-1.974 1.5994-3.2545 2.3704-4.9587-1.0122-1.5582-1.9212-2.2612-2.8453-4.4636-0.77999-1.1996-1.8605-3.7813-2.3703-5.4538-1.557-0.54268-4.0092-0.62995-5.2172-1.4884-2.3005-0.53474-2.944 1.9835-5.6891 1.9835h-6.6391c-2.9364 0-3.6693 1.6391-6.1656 1.4884-0.73295 0.23801-2.5115-0.10473-5.2172 0-1.9819 0.69024-4.3689 0.49507-6.6391 0.49507-2.4052-0.0301-4.3734-0.58393-6.1641-0.99174-2.1791-0.59662-4.3461-1.2012-6.6391-1.4868-2.7846 0-3.8211 0.22215-5.6906 1.4868-1.4796 0.87749-3.6238 2.8832-5.2172 3.967-0.67377 1.6455-1.0243 4.4303-1.8969 6.4471-0.50381 1.9343-1.3233 3.1609-1.8969 4.9587-0.6419 1.6772-1.2489 3.4036-1.4219 5.9504-0.16086 3.3418-0.89078 2.9324-2.8453 1.9835-0.8149-1.3837-2.1139-2.9054-2.8453-4.4636 0.43098-2.523 0.91658-3.7781 0.94844-6.4455-0.46132-1.9248-1.5388-1.8629-2.8453-0.49666 0 2.596 0.11989 4.5985-0.94844 5.9504-0.53416 2.0485-1.3931 2.934-2.8453 3.967-0.71019 1.8407-2.2869 2.6832-3.7938 3.4719-0.24129-0.0841 0-0.66486 0-1.9835-1.1366-2.2675-0.082-4.1494-0.082-6.9422 0.0288-2.5039-0.11381-4.1637 0.61307-6.4471 0-2.404-1.1154-4.6905-1.4796-6.4455-0.88167-1.8422-1.39-2.7531-3.7938-3.4719-1.689-0.6712-4.1231-1.5788-5.2172-2.9752-1.3764-1.7851-2.255-2.5198-4.2672-3.4703-2.1822-0.79022-3.2414-1.5138-4.7422-2.4801-1.4659-1.6169-2.6572-2.3183-3.3203-4.462-0.98941-1.5249-1.1594-4.3573-1.8969-6.4471-0.16085-2.1771-0.78455-4.2002-1.4219-5.9504-0.28225-2.1771-0.62521-3.7702-1.4234-5.9504-0.26404-2.039-0.85284-4.1716-1.4219-6.4455 0-2.4262 0.0394-4.7937-0.47498-6.9422v-6.9422c-0.34144-2.0041-0.46739-4.9381-0.94844-6.4471 0-2.6975-0.28681-4.2208-0.94844-5.9504-1.085-1.7518-1.173-2.5373-2.8453-2.9752-1.2079 1.5408-3.1989 2.1691-5.6906 2.4801-1.7406-0.39669-4.1974-0.65534-6.1656-1.4884-1.9014-0.4681-3.2019-1.2202-4.7422-1.9835-0.84222-1.2964-1.8483-2.7642-2.8453-3.967-0.2944-2.5896-0.85891-3.9225-0.94845-6.4455 0-1.893 0.0455-0.8886 1.8969-3.4719z"/>
<path d="m830.89 172.9c3.0102-0.99728 9.5847-5.8759 13.364-9.0038 4.3034-2.7274 13.111 0.10252 13.462-7.2871-0.53305 2.2217-5.6264 7.7458-8.1165 11.089-5.4898 3.4882 2.6853 7.043 4.0037 2.0572 2.8477-5.0997 6.4699-10.277 12.16-12.284-1.0373 3.6757-1.8025 7.2495 0.67074 10.52 0.88987-1.6096 1.1114-8.2176 1.0165-2.7778-1.7984 3.094 2.6574 12.106 2.7699 5.095 0.71142-4.4334 0.442 4.7949 1.7952 6.1846 2.8348 5.4697 2.5859-5.0325 3.2152-7.1124 0.47597-3.9315 0.67377-2.8944 0.0994-0.0538-0.57065 3.5603 0.61326-7.4353 0.82573-1.3749 0.39079 3.1682-0.0413 11.781 3.0205 4.9472 2.4514-4.0625 3.0366-4.1234 0.36045-0.51803-0.87211 1.3591 4.0207-7.4019 2.0854-1.2911-0.12835 4.3904 0.0335 10.92 2.418 13.786 1.83-2.2556 0.7635-13.983 2.6034-5.923 0.70504 2.2726 0.021 8.5983 2.9926 3.7434 3.2098-3.7827 4.9796-7.0644 4.6301-12.252 0.40126-2.6476 2.0136-6.9049 3.4315-2.216-0.97348 6.1164 5.3941 10.007 4.6159 15.891 2.8577-4.4957 1.5713-11.188-0.33184-15.488-0.40174-5.0928 7.7444-2.0564 5.7193 2.4358-0.2315 3.2289 4.396 11.525 4.7666 3.8461 0.62156-3.6492 2.631-3.9712 2.191 0.10944 0.83861 2.6356 4.4214 10.39 4.0344 3.637 0.31893-3.6781-0.59578-7.5521 1.0582-11.019 1.1729 2.2149 1.2968 5.6168 2.6814 1.4027 2.8304-0.0846 1.1184 7.7833 4.6952 9.4667 1.4373 2.8237 5.015 7.4383 4.0121 1.3597 0.55544-3.2915-2.3922-10.095-1.1141-10.971 3.7455 4.7548 5.1298 11.033 10.18 14.87 4.8097 2.44 0.59783-6.7478 0.33537-9.116-2.867-1.5762-5.2091-7.702-1.152-2.9159 2.3421 4.2512 9.4631 7.9713 11.688 8.8956-2.1221-1.57-4.0562-2.1546-0.45716 0.018 2.6647 1.0927-1.581-6.6414-3.1275-7.9521-1.3751-2.4728-8.0716-6.0786-6.1727-7.7839 5.2397 1.1327 6.7733 6.8611 9.952 10.44 1.9813 1.6598 6.7598 5.186 4.0908-0.0764 1.4935-0.62278 8.8666 7.5594 7.1094 0.99791-1.2149-2.8223-7.6767-7.9156-6.9639-8.2231 2.204 3.1905 0.87344 0.90986-0.8825-0.76238 6.3887 0.70949 10.14 7.0868 14.157 11.14 0.50039 1.9298 1.9613 11.329-0.0119 5.1637-4.1546-1.7738 1.603 8.4318-2.9336 7.1081-0.20511-2.2607-4.2071-7.0028-2.271-2.3162 3.3362 6.8441 0.82153 14.361 1.1188 21.578 0.0883 3.5537-0.082 7.085-0.33537 10.621 0.24069-2.6094 0.4433-6.9528 0.0161-1.2545-0.14842 3.959-1.6073-5.7132-3.5858-6.2059-0.41055-1.801-1.9674-10.901-3.2803-5.4718 0.0104 5.3201 5.1408 10.903 1.0434 15.592-1.3827 1.2882-2.1124 4.997-2.8501 1.1098-2.018-4.596-3.3095-9.461-6.8479-13.216-1.4932-2.9257-6.6197-10.019-5.1995-2.5725 0.88879 3.3645 1.4857 6.7778 1.2557 10.267-1.991-5.1616-4.7068-9.9608-7.3781-14.727 0.3869 2.2265 3.0904 11.783 0.73938 5.5899-1.6266-5.0803-4.2482-10.151-9.3108-12.405-1.3978-0.17335 3.4003 8.9336 1.5501 8.9993-0.44381-2.9368-3.1048-9.4731-5.7487-8.28 0.1185 5.2479 2.2536 10.135 1.0336 15.486 0.26607 5.219-3.2192-5.1898-4.3598-6.5855-5.1243-3.136 0.37497 8.8394-3.6875 4.2066-3.2694-2.297-5.0139-4.834-4.6952-9.116-6.0818-1.0349-3.735 5.395-4.0229 9.05-0.51339 2.7736-2.0107 8.0404-3.7017 8.85-0.70603-4.0086-0.14054-8.2049-0.32271-12.291 0.97716-2.3456-0.0982-8.3746-2.9471-5.5096-0.48257 5.2935 2.9743 12.016-0.95631 16.338-2.0801 2.3795-5.9375-3.7141-9.576-2.0857-4.6209-2.3675-2.7265-9.7724-5.8633-13.661-3.1172-3.2628-1.6554 13.079-3.7059 5.3359 1.4737-4.931-7.5161-6.8591-5.759-1.6008 2.208 2.2373 2.6065 5.043 2.3165 8.0176 0.62655 3.4991-1.9723 4.5372-2.5775 0.60989-0.24863-4.3276-7.656-6.1221-6.1406-0.43021-3.8824-2.4991-0.23824 9.8509-4.996 6.0545-5.3618-3.7405-8.8014 3.312-14.675 1.9279-3.3399 0.55613-11.329 1.4262-6.4844-3.4236 4.5294-2.7321 6.4444-10.99 12.757-6.7654 4.8256-0.28129 9.9505-3.6798 13.891-6.845 3.2226-2.1726 1.7812-7.6997-2.1687-4.2727-3.2793 4.9268-12.699 4.9222-15.524 4.5323 2.7993-2.6508 11.362-3.0404 9.2366-7.6824-3.1432 0.25665-8.6615 4.9653-10.43 2.2243 1.0985-1.2098 4.7073-4.5602 0.54478-3.098-5.2708 1.7168-10.922 1.299-16.353 0.86776-5.4353-5.3219 7.928-3.8643 7.7345-7.3626-1.3176-0.10864-6.5215 0.59403-4.2467-1.3179 4.3992 0.0865 8.8374 0.42098 11.992-3.7543 1.9085-1.9828 8.5479-6.5335 6.9245-8.1327-4.8995 2.8214-10.044 7.6091-16.184 4.8198 5.2751-3.9344-2.0375-4.2714-5.3708-3.8871-2.4253 0.74896-9.1675-2.0082-3.4005-1.8311 3.9291 0.83158 7.8323-4.6113 1.7849-3.569-1.2654-0.38878-2.6246-0.14135-3.9293-0.21075z" fill="#fefefe"/>
<path d="m801.86 164.96c-0.23136-2.562-1.2628-5.1074-0.83642-7.6948 1.262-1.8448 3.0074-3.1872 4.6302-4.7011 2.9048-1.6198 5.668-3.5909 8.9537-4.3881 2.2812-0.69646 4.2585-2.2021 5.7479-4.0425 0.73309-2.214-0.56236-5.7594 1.5149-6.9521 2.5564-1.3997 5.3241-2.3011 7.9288-3.5864 2.8447-0.91895 5.9233-1.062 8.8736-0.70987 2.3618 1.0146 4.7559 1.9385 7.0993 2.9975 2.1192 1.0309 3.68 2.7769 5.1129 4.5868 1.6746 1.5275 3.7708 2.5192 5.7413 3.6091 1.6371 0.11322 1.097 2.2353 0.058 2.1522-0.6743 3.14-4.5916 0.47595-5.3368-1.3736 0.65699-1.219 0.38844 2.7846-0.86509 2.8389-2.2089 0.97651-2.1428-2.7846-2.4663-4.2221 0.28044-1.2152-0.67864-2.6562-1.1792-0.74693-1.4861 1.6347 1.6013 5.1389-1.6259 4.173-2.398-0.31622-5.0778-0.81085-7.1604 0.77882-1.7432 1.8182 1.8871 2.5649 3.0189 3.4464 1.5257 1.4361 3.5655 0.0173 5.3418-0.15924 2.4299-0.83935 5.1636-0.40458 7.416 0.72101 1.041 2.2484-1.0468 4.4832-3.0376 5.3949-1.8597 1.0088-3.9357 1.4456-6.0086 1.6976-3.039 0.13471-2.4492 3.9007-5.4093 4.2022-1.8903 0.80048-4.0196 0.9837-6.0364 0.7181-0.39697-1.0863 2.0036-2.8071 2.2528-4.4664 2.1743-2.5854-3.1151-2.1142-2.3476 0.35068 0.36642 1.6713-3.2964 4.1397-2.0585 1.2992 0.0586-1.5276 1.6414-3.8987-1.0236-2.7979-1.4584-0.0133-4.4477-0.0666-3.6252 2.2001-1.8083 0.38287-4.1263 0.42325-5.6772-0.47586-0.9259-2.4702-3.8114-3.5558-5.6205-1.3114-1.8025 2.3847-4.3055-0.74156-6.095 0.49461-0.0237 2.2353 2.2809 3.4046 4.3212 3.3873 2.0656-0.18234 4.1849-0.56558 6.2676-0.22477 1.9171 2.2866-1.8304 3.0032-3.609 2.6894-2.397-0.0867-4.541-1.4566-6.9794-1.2669-1.1649-0.16461-3.8206 1.2846-1.3156 1.4787 1.8598 0.37786 5.6679 0.25128 4.8179 3.1693-1.4581 0.67958-3.2639-0.0665-4.9128 0.63698-0.96797-0.25022-3.8734 0.5347-2.2558-0.29811-0.85609-1.482-2.5125-2.3207-3.6146-3.6046z" fill="#fefefe"/>
<path d="m812.45 153.27c-0.11078 0-1.1123 0.6966-2.0122 1.4027-1.4735 0.78863-3.0472 2.131-4.0244 2.8054-0.76938 0.61567-0.76482 0.88384-1.6753 1.052 1.5979-0.22691 2.3096-0.63313 3.6875-1.4027 1.7421-0.20945 3.4296-0.57917 4.3598-1.4027 0.87257-0.30466-0.0652-1.7026-0.33537-2.4548z"/>
<path d="m827.87 136.79c0.19272 0 0.58576 1.0965 1.34 1.7534 0.48256 1.3456 0.92719 2.2961 1.0061 3.8575 0.41125-1.7137 1.1138-3.091 1.3415-4.9095-0.52202-0.92351-0.55693-1.3567-2.0122-1.4027 0 0.9473 0.11077 0.32846-1.6753 0.70135z"/>
<path d="m833.91 137.14v0.35068c0-0.94572-0.0213-0.46334 0.33537 1.4027 0.55389 1.1758 0.67073 2.4373 0.67073 4.2081 0.88016-0.65693 1.6146-1.9676 2.0122-3.1561 0-2.7689-0.37483-2.6055-3.0183-2.8054z"/>
<path d="m846.32 177.46h0.33537c-0.98638 0-0.43097 0.0603 1.3415-1.052 1.1472-0.79973 2.0866-1.9819 3.6891-2.4547 1.5524-1.2742 2.7467-1.8708 4.3583-2.4532 0.78607-0.37766 1.4796-1.033 2.3476-0.35068-0.24887 1.7296-0.53568 2.3833-2.0122 3.1545-0.76331 0.99967-1.9652 1.5836-3.0168 2.1041-1.0911 0.50142-2.2914 0.52681-2.683 1.7534-1.824 0.83941-2.0486 0.69818-4.3598-0.70135z"/>
<path d="m852.69 187.63c0.5979-0.47286 2.6981-2.6626 3.6875-3.5052 1.1199-1.5439 2.252-2.7245 3.3537-3.5068 0.97727-1.5043 2.2292-2.5119 3.0183-3.8575 0.93175-1.179 1.6177-2.1771 2.683-3.5052 0 1.5328-0.13961 3.5655 0.33385 4.5572 0 2.1184-0.23369 2.6975-1.0046 4.2081-0.76179 1.2409-1.3293 2.0628-3.0183 2.8054-1.5236 0.84416-2.4371 1.1409-3.6891 2.1025-0.95451 0.61408-1.9485 1.225-3.0183 1.7534-0.95907 0.43001-0.51899 0.24277-2.3461-1.052z"/>
<path d="m842.29 195.7h0.33536c-0.98637 0-0.43248 0.0603 1.3415-1.052 1.431-1.4963 2.5706-2.0168 4.3598-2.8054 1.3612-0.10949 3.0077-0.46334 4.0244-1.052 0.81035-0.14916 1.3749-0.66487 2.0107 0 1.0532 1.4884 1.343 1.9089-0.33537 2.8054-0.80276 0.71246-2.2186 1.4297-3.3522 1.7534-0.83766 0.72198-2.4948 0.76641-4.0244 1.052-1.3703 0-2.1321 0.16186-2.683-0.70135l2.683 0.70135c-1.3703 0-2.1321 0.16186-4.3598-0.70135z"/>
<path d="m856.71 195.7v-0.35068c0 0.97904-0.041 0.46017 0.67074-1.4027 1.2565-1.9613 1.73-3.0434 3.3537-3.5068 0.76027-0.96159 2.0775-1.2107 3.6891-1.7534 0.60396 1.0536 0.13961 2.2818 0 3.5068-0.43856 1.3091-1.6344 2.2326-2.3476 3.1561-1.0456 0.74261-1.472 1.4567-3.0183 1.7534-1.2793 0-0.60093-0.0333-2.3476-1.4027z"/>
<path stroke="#000" stroke-width="1.3578" d="m817.48 151.16c-0.74964 0 1.3218-0.7807 2.0122-1.052 0.55237-1.2171 0.99093-2.0787 2.0122-2.8038 1.6799 0.13488 2.5039 0.64106 3.3537 1.7518 1.4113 0.40304 1.9196 1.106 3.6891 1.4027 0.65708 0.58076 1.5463 0.64741 0 1.052-1.0516 0.58077-2.3734 0.70136-4.0244 0.70136-1.73 0.13012-2.9652 0.5284-4.0244 1.052-2.2444 0-1.8847 0.0778-3.0183-2.1041z" fill="#c4c4c2"/>
<ellipse rx="1.1049" ry="1.1049" transform="matrix(1.5175 0 0 1.5868 612.59 -330.05)" cy="302.6" cx="138.11" fill="#000"/>
</g>
<g stroke="#002b0e" stroke-width="1.9397" fill="#005121">
<path d="m827.87 247.94h1.3415c-4.205 0-1.692-0.29355 5.3644 5.6093 2.9561-2.5754 2.9212-2.9228 5.3659 1.4027 1.4113 2.4627 1.8256-0.25071 4.0229-2.8038 1.0592 5.0952 1.7376 10.438 5.3659 5.6093 4.1443 0 8.4829-0.36019 10.73 1.4027 2.7163 5.276 1.8271-0.89495 4.0244 1.4027 5.9061 0.74103 5.7938-5.2967 12.227-6.8581 3.9986 5.2253 5.7498 1.2044 10.732-1.4011 3.6997 1.0822 7.1869 6.9517 7.891 1.2456 3.0289-5.1666 3.293-4.727 5.3659 0 2.9455 2.7737 4.1868-1.3868 6.7059-2.8038 4.4903 2.7467 9.4981 3.1275 16.096 1.4027 1.1169 4.6715 3.9334 2.6452 6.7059 1.4011 5.9334 2.6071 8.0033 3.4052 14.755 0 3.3446-4.132 1.4507 0.11583 4.0229 2.8054 5.0017-1.6233 3.6208-1.9676 9.3903-1.4027 5.7984 0 6.2673-0.14598 8.0473-4.2066 2.9136 3.0466 3.9668 5.2427 8.0473 1.4027 6.2521 0.192 4.3188 0.82513 8.0489-1.4027 2.7588 6.3884 3.4068 1.7724 6.7059 4.2066-2.1731 5.7616-5.5116 8.4639-9.3888 11.22-2.5798 4.4684-4.1929 9.2938-9.3888 11.222-3.7907 4.0431-7.8303 6.3868-12.072 9.8174-5.8151 1.5201-12.216 1.4027-18.779 1.4027h-56.335c-4.0062 2.093-10.559 3.091-16.096 4.2066-6.1838 0-13.193 0.0762-17.436-1.4027-2.8757-3.0054-7.9199-6.3646-10.73-9.8174-2.8438-2.3976-2.9258-7.077-5.3659-9.8174-2.2444-4.013-2.9379-10.292-5.3644-14.026v-9.8174z"/>
<path d="m957.98 260.57v1.4027c0-3.9209 0.16541-1.8375-2.683 5.6093-0.57665 1.8089-1.8392 2.2342-4.0244 2.8054"/>
<path d="m945.91 266.18h1.3415c-4.9668 4.9047-8.3099 7.1643-9.3903 12.623l9.3903-12.623c-4.9668 4.9047-8.3099 7.1643-9.3903 12.623"/>
<path d="m927.13 259.16c0 0.12535-0.18817 5.0031-1.3415 7.012"/>
<path d="m921.76 268.98v1.4027-1.4027z"/>
<path d="m911.03 260.57h1.3415-1.3415z"/>
<path d="m835.92 260.57c0.64039 0 3.2793 4.4525 6.7059 7.012-0.85284 4.1034-2.164 8.851 0 12.623"/>
<path d="m846.65 268.98c0.64038 0 3.2793 4.4541 6.7074 7.0136l-6.7074-7.0136c0.64038 0 3.2793 4.4541 6.7074 7.0136v1.4027c0-4.3335-0.34447-8.8717 1.34-11.222 1.4917 2.6388 3.3749 6.8819 4.0244 2.8054 7.5541-0.28245 11.201-2.5008 16.096-4.2066 0 2.0628-0.31716 1.0711 1.3415 2.8038"/>
<path d="m967.37 261.97h1.3415c-2.5297 2.204-4.4706 6.6994-6.7074 9.8174"/>
<path d="m912.37 257.76h10.73"/>
</g>
<g fill="#fff">
<path d="m824.72 268.43c-16.131 0-21.478 16.858-37.609 16.858-0.31034 0-0.6046-0.0255-0.90714-0.0377v1.0205c-0.0608 11.685 0.85765 22.57 2.5324 32.733 14.881-1.0868 20.409-16.858 35.983-16.858 16.131 0 21.515 16.896 37.646 16.896s21.515-16.896 37.646-16.896 21.515 16.896 37.646 16.896 21.515-16.896 37.646-16.896c15.534 0 21.077 15.66 35.87 16.82 1.7721-10.435 2.7084-21.646 2.6458-33.678v-0.0377c-0.3025 0.0122-0.5968 0.0377-0.9071 0.0377-16.131 0-21.478-16.858-37.609-16.858s-21.515 16.858-37.646 16.858-21.515-16.858-37.646-16.858c-16.131 0-21.515 16.858-37.646 16.858s-21.515-16.858-37.646-16.858z"/>
<path d="m824.72 334.23c-12.549-0.00001-18.585 10.172-28.235 14.703 3.3713 9.2945 7.4458 17.755 11.982 25.513 4.5824-3.4652 9.4537-6.4634 16.253-6.4634 16.131-0.00001 21.515 16.858 37.646 16.858s21.515-16.858 37.646-16.858c16.131-0.00001 21.515 16.858 37.646 16.858s21.515-16.858 37.646-16.858c6.6492 0 11.456 2.8694 15.951 6.2366 4.535-7.7231 8.6264-16.169 12.02-25.4-9.4974-4.591-15.536-14.59-27.97-14.59-16.131-0.00001-21.515 16.858-37.646 16.858s-21.515-16.858-37.646-16.858c-16.131-0.00001-21.515 16.858-37.646 16.858s-21.515-16.858-37.646-16.858z"/>
<path d="m900.01 400.04c-16.131-0.00001-21.515 16.896-37.646 16.896-15.256 0-20.902-15.104-35.114-16.744 18.994 21.159 40.533 33.97 55.222 41.01 4.9677-3.8557 10.112 4.6869 17.538 4.6869 7.3727 0 12.49-8.5865 17.425-4.7625 14.527-7.0726 35.803-19.903 54.693-40.859-13.747 2.0098-19.446 16.669-34.471 16.669-16.131 0-21.515-16.896-37.646-16.896z"/>
</g>
<g stroke="#522108">
<g fill="none">
<path stroke-width=".7371" d="m800.15 342.75c2.6465-0.92192 15.438-5.0729 15.879-4.6128 0.44159 0.46176 24.702 24.908 24.702 24.908l-20.291 4.151-20.291-24.446z"/>
<g stroke-width=".7513">
<path d="m848.36 374.78c0.37408-5.7884 11.21-38.709 11.21-38.709"/>
<path d="m852.1 375.18c0-0.36216 8.5948-38.739 8.5948-38.739"/>
<path d="m855.04 375.24c0.37279-2.1705 7.1448-38.799 7.1448-38.799"/>
<path d="m851.35 364.29c1.8678 0 5.6048-1.4474 5.6048-1.4474"/>
<path d="m852.47 359.95c0-0.36216 5.6048-1.4474 5.6048-1.4474"/>
<path d="m853.22 354.53 5.9788-1.0852"/>
<path d="m855.83 349.82c0 0.36216 4.1097 0.36216 4.1097 0.36216"/>
</g>
<g stroke-width=".7371">
<path d="m914.9 400.38c-0.44159-9.9119-13.233-66.285-13.233-66.285"/>
<path d="m910.48 398.52c0-0.62016-10.146-63.806-10.146-63.806"/>
<path d="m906.07 393.56c-0.44007-3.7167-7.498-58.849-7.498-58.849"/>
<path d="m914.46 392.32c-2.2049-1.8584-8.8213-4.3369-8.8213-4.3369"/>
<path d="m911.37 382.41c-2.2049 0-6.6163-2.4785-6.6163-2.4785"/>
<path d="m910.04 374.98c0-0.62016-6.6163-2.4785-6.6163-2.4785"/>
<path d="m909.16 365.68-7.0579-1.8584"/>
<path d="m906.07 357.63c0 0.62016-4.8515 0.62016-4.8515 0.62016"/>
<path d="m904.75 350.2c-0.88167 0-4.8515 1.2382-4.8515 1.2382"/>
</g>
<g stroke-width=".7371">
<path d="m948.8 372.68c-2.2049 0-6.6163-1.8454-6.6163-1.8454"/>
<path d="m952.33 386.05c-0.44159-7.3801-13.233-49.354-13.233-49.354"/>
<path d="m947.92 384.67c0-0.46175-10.146-47.508-10.146-47.508"/>
<path d="m943.5 380.98c-0.44007-2.7673-7.498-43.817-7.498-43.817"/>
<path d="m947.47 367.14c0-0.46175-6.6163-1.8454-6.6163-1.8454"/>
<path d="m946.59 360.22-7.0579-1.3837"/>
<path d="m943.5 354.23c0 0.46176-4.8515 0.46176-4.8515 0.46176"/>
<path d="m942.18 348.69c-0.88167 0-4.8515 0.92192-4.8515 0.92192"/>
</g>
</g>
<g stroke-width=".7371" fill="#dd8b59">
<path d="m895.43 391.65c0-0.46175 1.3233-115.77 1.3233-115.77s3.9698-0.46175 3.9698 0-0.44008 115.31-0.88167 115.77c-0.4416 0.46175-4.853 0.92192-4.4114 0z"/>
<path d="m938.66 280.95c0 0.92351-0.88319 97.322-0.88319 97.322l-3.0881 3.6908 0.88319-101.01h3.0881z"/>
<path d="m861.9 369.51c0.44007-2.7689 0.44007-86.253 0.44007-86.253l-2.6465-0.46175-0.44007 85.331 2.6465 1.3837z"/>
<path d="m845.14 338.14c1.7649 0 31.76-5.0729 31.76-5.0729l-0.44159 5.0729-29.553 3.2291-1.7649-3.2291z"/>
<path d="m845.58 311.39c1.7649 0.46176 36.171-9.6857 36.171-9.6857s0 3.2291-0.4416 3.2291c-0.44007 0-35.73 9.6857-35.73 9.6857v-3.2291z"/>
<path d="m846.91 298.01c-0.44159 1.8454 0.44008 4.1526 0.44008 4.1526l28.672-10.147s1.3233-2.3072 0-2.3072c-1.3233 0-29.553 9.2255-29.112 8.302z"/>
<path d="m884.84 291.56c0.88167 0 29.553-9.6857 29.553-9.6857s0.44159 4.151 0 4.151c-0.44008 0-26.907 8.302-26.907 8.302l-2.6465-2.7673z"/>
<path d="m882.63 303.55s-0.88167 4.151-0.44008 4.151c0.44008 0 37.493-10.147 37.493-10.147v-2.7674l-37.053 8.7638z"/>
<path d="m883.96 336.3v3.2275l31.76-4.6112-0.88167-2.3072-30.878 3.6908z"/>
<path d="m920.57 338.6 0.44007 2.7673s31.76-4.151 31.76-4.6128c0-0.46016 0-3.2275-0.44008-3.2275-0.44159 0-31.32 5.5347-31.76 5.0729z"/>
<path d="m920.13 309.08 0.4416 3.2275 37.493-10.608s0.88319-2.7673 0.4416-2.7673c-0.4416 0-37.495 11.531-38.376 10.147z"/>
<path d="m924.1 294.32s-0.44008 2.7673 0 2.7673c0.44159 0 27.79-6.9184 27.79-7.3801 0-0.46016 2.6465-3.2291 0.44159-2.7673-2.2064 0.46175-27.348 8.7638-28.232 7.3801z"/>
</g>
<g stroke-width=".7371" fill="#fecf3e">
<path d="m864.11 303.55c3.9698-1.3837 1.3233-4.6128 2.2049-4.6128 0.88319 0 3.9698 2.3056 5.7347 0.46017 1.7649-1.8438 3.0881-7.3785 2.2064-6.9184-0.79468 0.41547-19.802 7.5523-23.926 7.6338 2.5826 0.99754 10.342 4.6355 13.78 3.4372z"/>
<path d="m925.42 297.09s2.2065 5.5347 4.4114 4.6128c2.2049-0.92192 4.4114-2.7673 4.4114-2.7673s1.7649 4.6128 4.8515 3.6893c3.0881-0.92192 4.853-5.9964 4.853-5.9964s3.0866 0.92351 4.4099 0.46175c1.3248-0.46175 3.0881-7.8403 3.0881-7.8403l-26.025 7.8403z"/>
<path d="m922.78 341.83c-0.44159 0.92192 2.2065 3.2291 4.4114 3.2291s3.0881-3.2291 3.5282-2.3072c0.44159 0.92351 0.44159 5.0745 6.1762 3.6908s5.7346-5.5347 5.7346-5.5347-1.7649 1.3837 2.2049 1.8438c3.9698 0.46175 7.9396-5.9964 7.4995-5.9964-0.44159 0-28.672 5.5363-29.555 5.0745z"/>
<path d="m922.78 311.85s-4.4114 5.0729-3.0881 11.991c1.3233 6.9199 3.0881 12.915 3.5297 12.915 0.44159 0 5.2931-9.224 10.586-9.6857 5.2931-0.46175 14.998 5.0745 14.998 5.0745s-1.3233-11.071-0.88167-16.144c0.44008-5.0745 7.9396-13.837 7.9396-13.837l-33.083 9.6857z"/>
<path d="m846.46 341.83c0.44159 0 0 4.151 3.5282 3.2291 3.5297-0.92351 4.4114-3.2291 4.4114-3.2291s0.88167 5.0729 5.7347 4.6128c4.8515-0.46175 7.498-5.9964 7.498-5.9964s0.4416 4.151 3.5297 2.7673c3.0881-1.3837 3.9698-4.6128 3.9698-4.6128l-27.79 4.151-0.88167-0.92192z"/>
<path d="m846.46 314.62s-3.9698 1.3837-2.6465 9.6857c1.3233 8.302 4.4114 12.915 4.8515 12.915 0.4416 0 3.9698-7.8403 9.2629-9.2239 5.2946-1.3853 14.557 4.151 14.557 4.151s-0.88319-7.3801 0.44159-14.298c1.3233-6.9199 5.7331-11.993 5.7331-11.993s-30.877 8.7638-32.2 8.7638z"/>
<path d="m885.72 292.94c1.7649 0.46175 4.853 5.0729 6.6163 4.151 1.7649-0.92191 4.4114-3.6893 4.4114-3.6893s-0.44159 5.5347 3.0881 4.6112c3.5282-0.92192 3.9698-4.6112 3.9698-4.6112s2.6465 1.3837 4.8515 0c2.2064-1.3837 4.4114-8.3036 3.5297-8.3036s-25.584 8.3036-26.467 7.8419z"/>
<path d="m884.84 306.32c0 0.92192-4.4114 8.302-3.0881 15.22 1.3233 6.9184 3.9698 13.376 4.4114 13.376 0.44159 0 7.0579-7.3801 12.793-8.7638 5.7331-1.3837 14.114 4.6128 13.674 4.6128-0.44159 0-2.2064-6.9199-2.2064-11.993 0-5.0745 6.6163-20.757 6.6163-20.757l-32.2 8.3036z"/>
<path d="m884.84 339.52c0 0.46176 1.3233 3.6908 4.4114 3.6908 3.0866 0 3.5282-3.2291 3.5282-3.2291s-0.4416 5.5347 4.4114 5.0745c4.8515-0.46176 6.6163-5.5363 6.6163-5.5363s0.4416 2.7689 4.4114 1.3853c3.9698-1.3853 9.2629-5.9964 8.8213-5.9964-0.44008 0-31.758 5.9964-32.2 4.6112z"/>
</g>
<g stroke-width=".7371" fill="#dd8b59">
<path d="m846.46 372.73s4.4114 47.508 55.139 46.124c50.727-1.3837 64.842-47.968 64.842-47.968s-21.614-0.92351-22.055-0.92351c-0.44007 0-17.644 22.14-39.7 21.679-22.055-0.46175-29.112-5.9964-33.965-10.608-4.8515-4.6128-9.2629-11.531-9.2629-11.531l-25.584-10.609 1.3233 10.147 9.2629 3.6893z"/>
<path d="m983.41 367.8c-0.4416-1.3837-1.5281-6.1345-1.5281-6.1345v-5.5347l2.4417-5.6045s-38.376 5.7489-38.376 6.2107c0-0.53157-0.23673 10.925-0.23673 10.925l37.699 0.13805z"/>
<path d="m976.15 356.13-0.88167 9.6857h6.1747l-0.44007-9.6857h-4.853z"/>
<path d="m969.53 356.59-0.44159 10.146 3.9698-0.46017 0.44159-9.6857h-3.9698z"/>
<path d="m962.92 366.74v-7.8403l3.9698-1.3837 0.4416 7.8403-4.4114 1.3837z"/>
<path d="m955.42 366.28 0.88319-6.9184 4.4099 0.46017 0.4416 7.3801-5.7347-0.92192z"/>
<path d="m947.04 366.28 0.4416-5.9964 4.4114-0.46175v6.9184l-4.853-0.46017z"/>
<path d="m942.62 369.97 41.904 0.92351 0.44159-3.2291-43.229-0.46175 0.88319 2.7673z"/>
<path d="m944.39 358.44c4.853 0 41.464-7.3801 41.464-7.3801s1.3233-4.6112 0-4.6112c-1.3233 0-41.464 8.7638-41.464 8.7638v3.2275z"/>
<path d="m798.82 342.29 33.523 17.066-0.88168 2.3056s-32.202-15.682-32.202-16.144c0-0.46016 0.4416-2.3056-0.44007-3.2275z"/>
<path d="m814.26 337.22c0 1.3837 4.853 29.519 4.853 29.519s3.0881 0.46175 3.0881 0c0-0.46017-5.2946-29.057-5.2946-29.057l-2.6465-0.46176z"/>
</g>
<g fill="none">
<g stroke-width=".7513">
<path d="m882.04 389.32c0.44159-7.6685 13.233-51.282 13.233-51.282"/>
<path d="m886.46 389.83c0-0.47979 10.146-51.322 10.146-51.322"/>
<path d="m889.93 389.91c0.44007-2.8755 8.4343-51.401 8.4343-51.401"/>
<path d="m882.49 383.08c2.2049-1.4377 8.8213-3.3553 8.8213-3.3553"/>
<path d="m885.57 375.42c2.2049 0 6.6163-1.9175 6.6163-1.9175"/>
<path d="m886.9 369.66c0-0.4798 6.6163-1.9175 6.6163-1.9175"/>
<path d="m887.78 362.48 7.06-1.44"/>
<path d="m890.87 356.24c0 0.4798 4.8515 0.4798 4.8515 0.4798"/>
<path d="m892.19 350.49c0.88167 0 4.8515 0.95794 4.8515 0.95794"/>
</g>
<g stroke-width=".7371">
<path d="m919.47 388.99c0.44159-7.3801 13.233-49.354 13.233-49.354"/>
<path d="m923.88 387.6c0-0.46175 10.146-47.508 10.146-47.508"/>
<path d="m928.3 383.91c0.44007-2.7673 7.498-43.817 7.498-43.817"/>
<path d="m919.92 382.99c2.2049-1.3837 8.8213-3.2291 8.8213-3.2291"/>
<path d="m923 375.61c2.2049 0 6.6163-1.8454 6.6163-1.8454"/>
<path d="m924.33 370.08c0-0.46175 6.6163-1.8454 6.6163-1.8454"/>
<path d="m925.21 363.16 7.0579-1.3837"/>
<path d="m928.3 357.16c0 0.46176 4.8515 0.46176 4.8515 0.46176"/>
<path d="m929.62 351.63c0.88167 0 4.8515 0.92192 4.8515 0.92192"/>
</g>
<g stroke-width=".7371">
<path d="m877.16 384.07c-0.44159-7.4246-13.233-49.651-13.233-49.651"/>
<path d="m872.74 382.68c0-0.46454-10.146-47.795-10.146-47.795"/>
<path d="m868.33 378.96c-0.44007-2.784-7.498-44.082-7.498-44.082"/>
<path d="m876.71 378.04c-2.2049-1.392-8.8213-3.2486-8.8213-3.2486"/>
<path d="m873.63 370.61c-2.2049 0-6.6163-1.8566-6.6163-1.8566"/>
<path d="m872.3 365.04c0-0.46454-6.6163-1.8566-6.6163-1.8566"/>
<path d="m871.42 358.08-7.0579-1.392"/>
<path d="m868.33 352.05c0 0.46454-4.8515 0.46454-4.8515 0.46454"/>
<path d="m867.01 346.48c-0.88167 0-4.8515 0.92748-4.8515 0.92748"/>
</g>
</g>
<path stroke-width=".73708" d="m835 359.36s-8.8213-1.3837-8.3812 0.92192c0.44159 2.3056 4.4114 4.6128 4.853 5.9964 0.44008 1.3837-1.3233 6.4566 1.3233 5.9964 2.6465-0.46175 5.2931-2.3072 5.2931-3.6908s-0.44159-7.8403-0.44159-7.8403l-2.6465-1.3837z" fill="#b6b6b4"/>
<g stroke-width=".7371" fill="none">
<path d="m844.7 372.27c1.3233 0 11.469 2.3056 11.469 2.3056l10.586 14.76"/>
<path d="m852.2 374.12c0.44008 0.46175 9.2629 31.364 51.609 31.364s52.492-35.054 52.492-35.054"/>
<path d="m962.92 371.35s-20.291 46.124-59.108 42.895c-38.818-3.2275-44.992-18.45-48.081-26.29-3.0881-7.8419-4.8515-14.298-4.8515-14.298"/>
<path d="m951.89 333.99c0.44159-1.3837 1.7649-29.057 1.7649-29.057"/>
<path d="m982.76 347.83-27.348-45.203"/>
<path d="m899.84 277.26c0-0.46175 13.674 5.9964 13.674 6.4566 0 0.46175 48.521 67.803 48.962 67.803"/>
<path d="m938.21 283.71 12.351 5.5363 3.9698 10.146"/>
<path d="m861.46 282.79c-0.44159 0 13.674 11.069 13.674 11.069l1.7649 9.2255"/>
<path d="m813.38 350.13c6.1747-2.7673 48.962-41.974 48.962-41.974"/>
<path d="m801.91 342.75c5.2946-4.6128 48.081-42.434 48.081-42.434"/>
<path d="m882.19 306.78 45.434 78.872"/>
<path d="m922.27 339.39s5.3598 18.583 10.653 21.35c5.2931 2.7673 11.468 7.3801 11.468 7.3801"/>
<path d="m921.66 339.78s3.7649 21.886 9.058 26.038c5.2931 4.151 10.588 8.7638 10.588 8.7638"/>
<path d="m885.07 338.25s5.2931 30.442 15.881 37.361c10.586 6.9184 19.407 12.915 19.407 12.915"/>
<path d="m884.63 337.79s11.468 23.986 21.172 31.366c9.7044 7.3785 22.937 14.298 22.937 14.298"/>
<path d="m847.57 339.64c3.0866 5.5347 2.6465 16.144 6.1747 19.833 3.5282 3.6908 8.8228 11.993 8.8228 11.993"/>
<path d="m848.46 340.1c1.7649 2.7674 6.6861 16.547 9.7045 20.755 2.2064 3.6908 24.702 27.213 24.702 27.213"/>
</g>
<g stroke-width=".475">
<ellipse cy="389.22" cx="872.05" rx="3.3083" ry="3.4593"/>
<ellipse cy="396.6" cx="888.82" rx="2.8672" ry="2.9981"/>
<ellipse cy="398.44" cx="909.55" rx="2.8672" ry="2.9981"/>
<ellipse cy="391.29" cx="928.07" rx="2.6467" ry="2.5368"/>
<ellipse cy="382.3" cx="942.19" rx="2.4261" ry="2.998"/>
</g>
<g stroke-width=".7371" fill="#ff0101">
<path d="m859.48 283.36c-1.3233 0.92351-23.379 6.4582-20.291 5.9964 3.0866-0.46017 20.732 4.6128 20.291 3.2291-0.44159-1.3837 0-8.302 0-9.2255z"/>
<path d="m896.98 276.44c-0.88319 0-13.676 5.0745-13.234 5.0745s14.557 4.151 14.116 3.2275c-0.4416-0.92192-0.4416-6.9184-0.88167-8.302z"/>
<path d="m935.35 281.06c-0.88319 0.46175-15.881 4.151-13.234 4.6128 2.6465 0.46175 12.793 4.151 12.793 3.2291 0-0.9235 0-7.3801 0.44159-7.8419z"/>
</g>
<g stroke-width=".5813" transform="matrix(.049153 -1.2962 1.2382 .051454 0 0)" fill="#be1017">
<circle cx="-216" cy="726.38" r="1.8894"/>
<circle cx="-212.22" cy="739.05" r="1.8894"/>
<circle cx="-219.25" cy="732.92" r="1.8894"/>
<circle cx="-208.97" cy="732.51" r="1.8894"/>
<circle cx="-214.11" cy="732.71" r="1.8894"/>
</g>
</g>
</svg>
