<svg xmlns="http://www.w3.org/2000/svg" viewBox="0 0 640 480">
<defs>
<clipPath id="a">
<path d="m-81.333 0h682.67v512h-682.67z" fill-opacity=".67"/>
</clipPath>
</defs>
<g stroke-width="1pt" clip-path="url(#a)" transform="matrix(.94 0 0 .94 76.25 0)" fill-rule="evenodd">
<path d="m-252 0h1024v512h-1024z" fill="#6797d6"/>
<path d="m259.79 122.98l-32.44 22.214 12.433-35.9-32.475-22.177 40.122 0.038 12.366-35.92 12.366 35.92 40.12-0.026-32.48 22.171 12.43 35.905m-32.44 244.85l-32.44-22.214 12.433 35.9-32.475 22.176 40.122-0.038 12.366 35.92 12.366-35.92 40.12 0.027-32.48-22.166 12.43-35.905m-188.39-92.46l-24.53 30.73 1.395-37.967-37.54-11.713 38.38-11.695 1.324-37.966 22.328 30.735 38.36-11.755-24.58 30.694 22.383 30.7m274.28-11.76l24.53 30.73-1.395-37.967 37.54-11.713-38.38-11.695-1.324-37.966-22.328 30.735-38.36-11.755 24.58 30.694-22.383 30.7" fill="#fff"/>
</g>
</svg>
