<svg viewBox="0 0 830 498" xmlns="http://www.w3.org/2000/svg">
<path fill="#00ab39" d="M0 0h830v498H0z"/>
<path fill="#fff" d="M0 0h830v249H0z"/>
<g stroke="#000" stroke-width="1.8">
<path d="M543.28 29.532l-.03.063c.032-.02.06-.045.093-.063h-.063zm-.03.063c-52.243 28.887-99.004 58.945-144.97 97.25-22.06 19.27-15.834 34.63-16.688 51.936.71 11.62-2.51 22.43-9.656 28.94-16.35 3.31-32.715 6.63-49.063 9.94-1.566-4.52-3.12-9.04-4.687-13.56 1.495-6.94 7.232-10.35 19.312-6 .952-8.92-6.227-12.55-14.625-15.65-2.885-2.24-6.468-3.97-6-11.69-1.412-17.46 26.615 1.25 26.875 1.25.26 0-.934-17.62-13.812-21.15-7.022-2.48-9.994-9.89-7.313-15.37 5.618-11.21 16.194.88 24.282 1.31-.304-7.31-2.387-12.53-8.688-18.43-3.392-2.09-11.722-3.66-11.938-7.15-.18-4.75 7.8-6.78 18.78-5.47-2.29-6.66-9.67-10.97-19.82-14.09l-6-10.43c-2.84-5.26-4.12-5.4 2.47-15.37 5.91-3.83 13.77-9.24 19.68-13.06l-6.53-.78c.87-7.13.97-9.53 2.62-21.38-6.35 8.67-14.28 7.12-21.41 10.69 0 0-20.33 3.61-26.88 12.25-.26 0-51.13-2.59-51.13-2.59-10.84 1.51-20.1 4.58-21.91 15.12-24.79 2.5-50.76.29-69.66 24 12.87-.61 24.13-3.67 38.59-1.81 0 0 12.32.24 14.87 13.28.26.53 4.19.54 4.19.54l4.68 3.66c.61-1.65 1.2-3.32 1.81-4.97l4.18 2.88c.44-1.82.88-3.64 1.32-5.47 1.39.96 2.76 1.92 4.15 2.88.09-2.18.19-4.36.28-6.53 1.83 1.3 3.64 2.6 5.47 3.9v-8.6s20.19-.04 26.34 12.78c.26.26-56.67 10.47-111.66 5.75 5.3-2.61 10.6-5.23 15.9-7.84-20.05-4.07-38.9-7.76-56.59-21.65 6.68 25.13 41.18 54.66 48.25 54.53 0 .26-6.78-12.25-6.78-12.25 19.91.87 39.83 1.72 59.75 2.59 2.17 6.61 1.21 14.02 6.53 19.85 0 0-3.3 10.92 4.03 15.37.26.52 8.75-22.16 8.75-22.16s2.6 6.1 5.22 10.16c3.79-19.51 25.03-22.69 25.03-22.69s4.44 10.18 4.44 10.44c-6.64.96-14.89 14.49-10.44 21.91-4.45.08-12.35 13.18-9.91 20.34-3.74 3.73-13.06 8.69-10.69 24.28-7.33 1.58-11.68 14.99-9.41 29.22-11.35 10.57-8.56 29.96 1.57 37.81-4.21 3.74-6.79 6.62-6.78 11.22-4-1.48-7.68-.24-9.41 2.38-4.9-5.02-11.93-9.42-16.94-4.72-1.3-5.94-9.03-12.47-17.5-11.72.49-6.26-2.76-14.01-11.72-16.72 0 0-1.82-29.35-10.72-38.87-.88-5.32.51-8.94 7.84-13.31 7.32-3.9 8.88-6.93 8.34-18 2.89-7.39 5.08-14.93-3.9-20.06.27 8.8-2.43 13.03-6 16.94-4.27-.62-5.76 4.36-8.63 6.53-4.02-5.42 8.47-13.8-.78-25.85-.53-.52-6.46-15.72-21.13-15.38 6.97 4.08 9.92 10.95 9.9 18-4.63 13.05-6.98 23.13-2.35 38.09-6.09-9.13-9.55-26.48-14.59-29.5-4.43-.86-6.59-11.32-23.75-8.34 7.4 1.99 9.75 7.65 11.75 12.78-4.55 2.34-2.29 8.52 1.03 12.78-.63 10.02 5.37 15.87 14.34 19.6l-4.44 40.94c-3.57-.45-9.05 13.43-11.22 13.84-3.49 2.17-9.58 8.01-2.59 9.66-2.07 7.49-4 12.01-15.15 13.56 0 0 11.79 6.99 21.56-4.97 10.47-.26 7.03-12.75 12.09-18.25 0-.26 2.87-2.06 7.06-13.06 1.83 9.82 11.91 39.89 34.69 54.81 19.85 21.26 36.17 41.33 36 69.66 7.75-7.21 12.38-18.62 15.94-29.5 10.77-3.75 26.19-5.18 39.93-4.56-2.36 4.96-5 9.72-1.59 12.94-9.6 3.3-11.7 10.26-7.85 17.22-10.12 6.87-10.78 11.28-10.94 22.69-18.71 23.99-30.25 23.19-48.78 16.97-6.09-3.57-15.51-8.72-19.85-6-8-5.34-19.51-6.13-21.41 6 6.01-4.98 9.59-4.02 14.38.78-.97 2.43-1.77 4.86 1.81 6.25-1.57 1.74-3.12 3.48-4.69 5.22-8.62-1.33-20.2-1.25-23.22 11.22 4.42-3.67 14.24-4.53 22.15-1.04l4.43 1.56c.17 2 .36 4 .53 6 0 0-11.73-1.81-14.88 17.22 11-11.7 18.78-8.63 18.78-8.63 4.24 6.21 19.84 5.27 31.07-4.93 15.76-8.81 20.36 3.85 30.53-4.44 8.44-6.29 18.42-2.11 25.28 5.22 7.91 2.97 16.2 5.41 22.72 0 0 0 7.96-5.08 15.9 3.13.09-9.25-6.47-14.17-15.38-14.34l-2.63-2.63c-8.35-1.74-17.73-1.04-25.03-5.22 3.44-13.06 8.46-24.9 18.25-34.97 12.09-12.95 20.99-18.85 36.25-38.68-.59 11.21 8 23.68 12.53 35.06 0 0 9.12-14.55 10.44-26.37.26 0 11.42-5.81 16.19-10.75 10.06 6.23 26.45-5 37.03-14.28 6.52 2.47 11.47 2.29 19.06 0-6.09 12.39 3.52 23.88 18.78 28.68 1.41 10.94 12.46 13.23 29.22 13.31.7 6.43 10.69 7.31 10.69 7.31-6.31 2.94-9.6 5.88-9.38 12.53-6.46.04-11.36 1.67-13.06 9.12-8.88.15-17.92.83-25.56 5.22-8.18-1.27-18.12-4.66-24.53-11.22-3.31-2.78-4.13-6.8-9.91-8.34-3.66-4.33-8.04-3.36-9.41.78-3.78-2.95-17.97-4.33-20.34 9.13 6.62-4.85 12.56-6.69 16.72-.78-2.27 4.11 5.51 6.46 12.25 8.09 4.77.3 13.24 4.65 15.9 12-6.16 1.87-15.49 1.26-21.65-3.4-5.48-4.58-12.87-4.03-16.94-1.03-5.64-3.59-19.07 3.2-19.59 14.06 5.66-5.18 10.81-7.69 15.94-4.4-2.56.61-1.59.86-1.32 2.35l13.04 7.57c-6.39 1.69-12.41 4.24-9.63 16.16 0 0 5.21-10.3 16.94-6.5.26-.26 1.62 3.68 4.97 1.03 5.07-5.77 16.68-8.36 26.87-9.37 8.18-.98 16.35-3.39 23.47 1.28 6.34-3.27 13.4-5.46 20.624-.25 8.52 2.69 14.74 12.63 25.56 8.09 5.38-3.73 11.99-3.91 18.78 3.65.08-9.54-7.07-12.74-17.22-14.87-2.35-1.39-4.68-2.79-7.03-4.18-6.52-.96-13.07.19-19.598-2.88 34.13-8.83 58.06-27.86 74.9-55.03 5.39 1.91 10.76 3.8 16.16 5.72 3.83.24 4.12 1.57 12 3.93.3-11.61-4.69-23.58-25.56-24.78L485 344.05c-5.82-6.13-8.447-19.15-1.03-26.87 7.26-6.46 8.524-5.69 13.31-13.56 5.82-.53 11.31 5.47 16.69 5.47 2.55 7.58 17.27 14.29 26.62 12 5.86 5.18 17.01 8.07 29.22 3.9 6.93 6.06 15.96 8.6 26.59 3.9 2.83 2.82 8.79 5.07 15.66 3.65.52 0 3.48 7.54 10.97 10.18-3.27 3.17-1.26 16.96 2.09 21.9-2.28 5.3-3 10.95-1.06 16.43-7.56 4.86-9.1 8.478-5.72 16.69-9.9 15.907-21.74 17.72-32.87 12.81-4.01-2.52-8-5.07-12-7.593-4.26-4.172-8.52-8.322-12.78-12.5-2.17-2.04-6.66-2.68-7.6 1.81 0 0-16.4-3.66-17.72 10.19 6.8-6.62 16.44-.79 16.44-.53s-2.3 1.82-.53 4.47c.4-.33 11.974 4.32 22.28 8.75 5.6 2.12 6.83 2.78 9.28 4.09a441.984 441.984 0 0 0-9.28-4.093c-6.27-2.38-12.39-4.28-14.19-3.81-5.84-.54-12.03-1.27-14.87 3.13-6.27 2.66-16.08 4.79-15.65 16.44 4.24-6.94 10.06-6.65 17.47-6-.17.52-.323 1.04-.5 1.56 8.05 3.67 6.52-1 14.03-1.68 6.28-.58 15.18 1.67 19.88 3.25-5.92 1.74-13.96 1.01-17.75 5.22-.7 1.39-3.13.82-2.065 4.16 0 0-11.53-.29-14.62 15.66 11.73-7.51 20.62-7.28 20.88-7.28.26 0 3.66.78 3.66.78s14.08-9.404 14.34-9.404c.26 0 13.63-5.92 19.81.78 5.39 2.65 11.15 2.82 16.72-.53 10.96-4.77 21.23-5.1 31.31 1.6l9.12 5.47c1.302-.87 2.6-1.76 3.91-2.63 0 0 10.33-2.91 17.902 6.28-3.13-15.91-14.5-16.43-14.5-16.43-.87-.784-1.76-1.56-2.63-2.345-5.394-2.09-10.766-4.19-16.16-6.28-2.36-5.83-8.27-10.47-2.38-17.47 6.02-29.93 13.22-52.4 1.56-82.72 10.88 4.7 19.02 19.22 32.64 14.1 0-12.18-44.827-35.29-79.067-53.87 56.1-2.87 123.51-44.28 97.6-96.91 4.09-12.7 8.16-25.4 12.25-38.09 5.77 11.63 17.46 20.49 27.94 24.25-8.64-16.49-13.6-66.93-8.63-101.75-22.6 27.92-47.56 52.7-74.09 77.88 13.05 3.05 24.45.9 37.06-.66-3.56 7.31-7.03 14.63-10.59 21.94-34.47-20.19-74.95-5.04-75.25 21.905 1.18 31.42 40.03 35.88 62.44 24.94-4.44 28.64-70.28 18.09-70.28 18.09-23.4-8.06-45.62-6.68-70.19-6.5 5.1-15.71 33.46-29.65 55.06-23.5-30.25-33.91 4.27-76.01 45.9-88.97-45.37-14.97-6.3-49.56 27.66-74.34 0 0-97.66 41.1-106.56 40.97-27.78-2.09-20.205-34.97-9.62-52.66zm-306.53 39.47c2.272.01 4.944.232 7.06.75 4.405 1.072 9.764 1.687 9.69 3-2.04 3.41-7.048 7.527-11.97 7.28-4.92-.248-7.766-3.2-9.406-10.594.503-.27 2.352-.45 4.625-.43zm411.09 115.88c6.402-.09 14.073 2.62 21.56 10.56-3.6 10.372-34.84 15.698-36.936.345-.633-4.64 6.016-10.78 15.375-10.906z" fill="#d21034"/>
<path stroke-linejoin="round" d="M268.98 159.71l4.737 6.89m-.215.218s0 9.26 1.938 9.476m-4.307 4.952c.215.216 4.954 8.184 4.954 8.184m-13.57 2.153c.216 0 6.032 6.677 6.032 6.677m5.05-5.18c0 .215 5.5 10.565 5.93 10.565m-13.14-3.447s1.94 12.49 3.66 12.06m-11.8 10.83l5.55 8.338m4.74-17.23s3.01 11.846 5.38 10.768m2.36-17.88c.21.216 5.6 7.975 7.11 6.898m-1.29 3.014l5.16 10.338m-13.79-2.37c.21.432 4.3 12.277 4.3 12.277m-14.22-6.03s3.87 13.14 7.32 10.99m-8.83 6.46s.21 6.89 3.66 7.32m2.37-10.76c0 .22 3.44 4.96 3.44 4.96m6.4-13.15l2.86 4.54m6.24-12.92l4.3 5.38m-24.29-67.13c.21 5.82 9.43-2.05 13.1-7m-17.02 27.19s10.12-7.1 17.87-17.87m-21.11 34.89c7.1-1.94 20.18-17.75 22.76-26.15m-24.27 41.87c1.94.86 26.37-16.73 27.02-29.65m-27.66 43.22c0-.21 22.33-5.69 31.59-30.24m-32.79 48.83s35.66-21.38 37.59-37.1m240.77 73s-2.3 18.46-20.82 21.26m26.64 11.7c.21-.22 17.66-19.38 13.13-25.2m27.35 6.68s-.22 13.35-11.2 22.61m32.96-18.74s.43 16.15-6.46 22.62m26.5-12.94s-7.73 15.12-10.53 16.63m10.19 10.18s10.17 2.54 13.4-4.14m-10.75 26.08s9.4 1.7 13.71-7.34m-14.72 24.28s7.61 6.39 12.78-2.01M515.14 257.08s-.86 32.735 45.226 39.41c51.47 14.215 75.805 6.677 78.82 64.394-1.937 21.966-4.667 46.777-20.603 37.3M466.28 287.26s7.322 13.136 16.15 12.275c11.63-3.447 15.936 3.66 15.936 3.66m-63.53-2.8s19.385 9.476 35.966-5.815m-33.81-7.75c1.72 22.612-26.06 35.534-37.043 33.38m38.36 53.27c.21 0 15.05-8.904 12.03-15.15m-41.57 1.94c.43-.433 24.98-2.8 29.5-11.63m-40.92-24.554c0-.214 34.84.098 37.21 6.558m9.09-27.23s-34.03 58.146 28.85 58.146m-64.82-59.01s-7.33 21.752-17.66 29.073m-18.52-36.61s12.63 24.45-.07 36.51m-32.88-29.62c.21.43 4.09 34.673-4.53 44.364m-11.84-43.283s1.29 21.754-5.17 29.507 1.51 23.86 1.51 23.86m-78.5 10.46s4.62 8.12 11.08 5.32m-3.23-23.04s10.34 4.52 13.79 2.8m-2.59-39.41s-15.29 4.31-9.48 22.4c8.83 7.11 17.44 6.03 17.44 6.03m-38.12 48.46c-.21 0 1.72 14.21 11.63 3.45 6.89-14.43 28.64-55.13 33.6-69.13M284.3 317s-10.553-8.188-10.12 3.23c-.22 7.102 3.23 8.83 3.23 8.83.43 5.164 4.95 12.49 8.61 5.81 1.51-6.46-1.075-9.26-1.075-9.26m6.03-11.63c-9.475-.65-14.643 20.242 3.66 7.11m6.247-14.22s-2.37 3.233-6.03-.214c-1.94-3.444-8.83 15.508 3.23 16.153 2.154-5.6 8.83-7.11 8.83-7.11m5.6-17.88s-5.384 2.58-7.322 2.15c-6.46 1.51-5.17 16.58 3.016 15.72 2.8-3.23 5.82-7.75 5.82-7.75m-52.29-29.83c-.215 0-21.37 33.26 11.795 42.09m256.71-92.18s-12.92 10.98-.86 28.64c-40.06-.65-61.59 17.87-63.31 30.36-51.04-3.66-41.78 11.41-58.36 16.36-22.18-18.52-54.7-8.18-52.54 10.34-14.86-20.89-37.69-10.77-40.49-5.6-2.8 5.17-1.72-25.63-1.72-25.63s-14.86 6.68-25.2 18.95c.22-8.18 0-21.54 0-25.84-12.42 2.51-24.4 2.65-37.25 2.37m-33.6-9.48s18.52 10.34 41.35-3.66m-42.86-33.6s14.43 12.92 41.57 8.83m-32.52-38.55s3.23 10.55 34.25 11.2m-23.74-35.61s11.68 14.28 27.4 12.13m-17.46-32.5s4.52 7.75 21.75 9.04M255 134.12s9.046 9.91 19.384 8.188m34.43-88.7s4.008-4.01 10.684-2.01M305.92 74.75s-12.464-.445-11.574-5.34c.893-5.563 13.13-9.57 13.13-9.57s16.244-10.456 18.69-14.02m-73.43 56.97l15.8 30.263 7.565-11.35 4.01 7.79 6.46-11.35 11.13 7.12-4.23-13.795 9.35-.66s-2.45-6.68-10.9-8.01c2.23-1.786 10.02-6.9 10.02-6.9s-4.45-5.12-11.35-5.34c2.23-2.45 5.34-8.46 5.12-8.46s-6.9-1.554-6.9-1.554 15.8 5.12 28.04-2M286.58 54.08c.22.22-.89 6.23-4.23 9.79m-56.744 6.9s9.773-2.69 17.087-1.166c7.243 1.488 16.956 4.057 16.956 4.057s11.57-1.55 15.35-4.22m-73.66 7.79s-1.33 4.68-1.78 7.79c0 2.23-7.12 5.12-7.12 5.12m13.36-22.48s6.23 7.79 6.45 12.24c.22 4.45-4.68 7.79-4.68 7.79m-66.09 33.16l-6.46-10.46 5.79-2m117.2 156.72c-5.17-6.67 3.87-109.19 23.04-135.89-6.68 48.24 15.5 97.56 21.1 97.35m-102.4-125.99s8.72 3.34 26.81-10.98M251 124.28l12.98.163m389.49-80.51S437.28 144.95 434.13 150.3c36.506-11.018 191.33-36.82 195.11-34.62-9.125 2.2-197 45.31-205.81 55.7 46.89-1.58 145.08 15.1 160.49 31.15-33.36-7.55-133.12-22.34-163.64-15.74 22.345 5.35 107.94 60.74 107.94 69.55-12.9-12.27-115.81-54.76-119.9-50.665 23.6 14.16 56.96 66.71 56.96 79.616-6.923-11.01-66.4-74.9-69.86-70.8 6.293 8.81 18.765 84.22 12.39 87.72 0-9.13-23.09-75.13-24.98-77.02-4.72 1.26-34.15 80.53-28.32 87.9-3.776-26.43.63-81.6 7.866-79.4-12.9 1.89-54.08 56.18-49.676 64.68 1.26-13.53 3.1-22.51 26.39-67.51-25.81 1.57-79.305 35.25-88.43 47.21 7.24-21.4 52.55-57.59 72.38-60.1m93.314-78.75c22.85-12.68 93.46-38.56 140.56-57.54M372.02 207.42s15.575-.222 31.152-42.5c15.35-57.85 137.07-122.38 139.52-134.4m-376.67 235.07s-3.615 7.702-8.066 9.928m25.525 1.744s-4.82 9.382-5.94 13.832m22.65-9.243s4.05 12.81.72 18.82m-47.24-52.05c-12.23 6.9 6.97 50.5 65.04 54.73m-9.34-23.58s-1.55 7.79 9.35 23.37c-3.11 17.36 13.2 31 19.65 33.22M204.7 123.34c0-.22 1.78-4.67 1.78-4.67l1.98 5.143 3.197-.082 2.11-5.16 1.73 5.18h3.17l1.96-5.74 2.957 5.44 2.51.13 1.98-6.63 4.076 4.75 1.48-.57 1.27-6.63 4.03 4.64 1.154-.67 1.87-6.53 3.346 4.86 1.68-.55 1.56-5.49 3.11 5.05m-50.53 8.15l24.274-.36c7.724-.11 20.443-10.82 34.685-7.48m-110.13 59.76s4 8.68 9.57 3.79m-18.92 2s-7.79 20.92 1.56 25.81m-12.69-48.95s0 4.9 10.23-2.67M97.63 268.4s8.23 2.447 6.9 8.678m-3.78-104.81s5.12 2.448 10.015-5.117m44.28 245.89c8.01-.44 9.736 3.18 17.024 3.18 8.4.26 16.58-3.17 27.26-6.06m68.76 19.36c-.22 0-3.78 7.57-.67 11.35m-113.49-10.68s12.69-10.46 19.36-4c6.46 2.23 10.02 1.78 10.02 1.78m-22.69-27.59s3.12 8.01-7.34 6.9m-3.11 11.57s6.68 4.23-.89 9.79m4.9 7.57s9.12 1.34 3.78 8.68m290.91-64.11s24.77 2.57 25.91 4.42c2.85-2.99 24.97-20.91-2.23-23.47-4.56 18.66-23.27 19.35-23.69 19.06zm-8.83 12.39c9.25 7.41 5.46 11.84 34.51-7.66m-47.77 16.92s13.67 14.67 23.64-3.13m-49.7 8.4l-18.51 9.68m-33.32 13.67s11.25-9.68 16.52-4.55 27.62-4.41 27.62-4.41m-35.74-33.04s3.84 7.69-3.56 8.69m-11.1 15.37s3.9 7.23-3.64 9.22m12.33 10.43s11.68.57 7.55 9.4m101.67-10.96s-6.41 5.41-1.71 11.54m94.69-50.4s7.41 3.56-1.42 9.68m-7.4 12.82s5.56 5.84 1.85 10.68m13.67 11.68s7.69 2.14 6.84 8.55m100.82-14.25s-6.4 4.7-2.99 10.82m-111.2-197.97c15.38-1.85 37.45 32.33 48.7 39.02m67.27-87.42s7.79 6.8.94 23.21m13.5-49.36c2.16 1.69 10.54 6.16 16.07 16.5m5.31-67.66c0 .15-10.82 29.2-10.82 29.2m22.92-30.61s-2.14 25.92-5.27 31.19m-42.96 47.22c-3.6 10.37-34.84 15.68-36.94.33-1.07-7.82 18.5-19.88 36.93-.33z" fill="none"/>
<path stroke-linejoin="round" d="M236.48 69.148l12.02 2.225s-8.46 11.35-12.02-2.225z"/>
</g>
</svg>
