<svg xmlns="http://www.w3.org/2000/svg" viewBox="0 0 640 480">
<defs>
<clipPath id="a">
<path d="m-85.333 0h682.67v512h-682.67z" fill-opacity=".67"/>
</clipPath>
</defs>
<g transform="matrix(.94 0 0 .94 80 0)" clip-path="url(#a)">
<g stroke-width="1pt">
<path d="m-256 0h1024v512.01h-1024z" fill="#006"/>
<path d="m-256 0v57.244l909.54 454.77h114.48v-57.24l-909.54-454.77h-114.48zm1024 0v57.243l-909.54 454.77h-114.48v-57.243l909.54-454.77h114.48z" fill="#fff"/>
<path d="m170.68 0v512.01h170.67v-512.01h-170.67zm-426.68 170.67v170.67h1024v-170.67h-1024z" fill="#fff"/>
<path d="m-256 204.8v102.4h1024v-102.4h-1024zm460.81-204.8v512.01h102.4v-512.01h-102.4zm-460.81 512.01l341.34-170.67h76.324l-341.34 170.67h-76.32zm0-512.01l341.34 170.67h-76.324l-265.02-132.51v-38.16zm606.36 170.67l341.34-170.67h76.324l-341.34 170.67h-76.324zm417.66 341.34l-341.34-170.67h76.324l265.02 132.51v38.162z" fill="#c00"/>
</g>
</g>
</svg>
