<svg id="grenada_flag" viewBox="0 0 500 300" xmlns="http://www.w3.org/2000/svg" xmlns:xlink="http://www.w3.org/1999/xlink">
<defs>
<g id="s">
<g id="c">
<path id="t" transform="rotate(18 0,-1)" fill="#fcd116" d="m0-1v1h0.5"/>
<use xlink:href="#t" transform="scale(-1,1)"/>
</g>
<use xlink:href="#c" transform="rotate(72)"/>
<use xlink:href="#c" transform="rotate(144)"/>
<use xlink:href="#c" transform="rotate(216)"/>
<use xlink:href="#c" transform="rotate(288)"/>
</g>
</defs>
<rect width="500" fill="#ce1126" height="300"/>
<rect y="42" x="42" height="216" fill="#007a5e" width="416"/>
<path d="m42 42h416l-416 216h416z" fill="#fcd116"/>
<circle cy="150" cx="250" r="36" fill="#ce1126"/>
<use xlink:href="#s" transform="translate(250,150) scale(33)"/>
<use x="-100" xlink:href="#s2"/>
<use id="s2" xlink:href="#s" transform="translate(250,21) scale(19.5)"/>
<use x="100" xlink:href="#s2"/>
<use y="258" x="-100" xlink:href="#s2"/>
<use y="258" xlink:href="#s2"/>
<use y="258" x="100" xlink:href="#s2"/>
<path d="m67.749 150.41c4.504 8.39 13.265 17.52 20.916 20.73 0.123-8.52-2.9-19.44-7.034-28.14l-13.882 7.41z" fill="#ce1126"/>
<path d="m60.112 121.63c6.529 13.61-16.933 46.08 22.156 53.69-4.822-6.58-7.931-17.44-6.755-26.16 8.201 3.12 16.83 12.25 20.317 19.23 10.23-37.15-26.24-34.89-35.718-46.76z" fill="#fcd116"/>
</svg>
