<svg viewBox="0 0 500 300" xmlns="http://www.w3.org/2000/svg" xmlns:xlink="http://www.w3.org/1999/xlink">
<defs>
<g id="c">
<g id="b">
<path id="a" fill="#fcd116" d="M0-1l-.31.95.477.156"/>
<use xlink:href="#a" transform="scale(-1 1)"/>
</g>
<use xlink:href="#b" transform="rotate(72)"/>
<use xlink:href="#b" transform="rotate(144)"/>
<use xlink:href="#b" transform="rotate(216)"/>
<use xlink:href="#b" transform="rotate(288)"/>
</g>
</defs>
<path fill="#ce1126" d="M0 0h500v300H0z"/>
<path fill="#007a5e" d="M42 42h416v216H42z"/>
<path d="M42 42h416L42 258h416z" fill="#fcd116"/>
<circle cy="150" cx="250" r="36" fill="#ce1126"/>
<use xlink:href="#c" transform="matrix(33 0 0 33 250 150)"/>
<use x="-100" xlink:href="#d"/>
<use id="d" xlink:href="#c" transform="matrix(19.5 0 0 19.5 250 21)"/>
<use x="100" xlink:href="#d"/>
<use y="258" x="-100" xlink:href="#d"/>
<use y="258" xlink:href="#d"/>
<use y="258" x="100" xlink:href="#d"/>
<path d="M67.75 150.41c4.503 8.39 13.264 17.52 20.915 20.73.123-8.52-2.9-19.44-7.034-28.14l-13.88 7.41z" fill="#ce1126"/>
<path d="M60.112 121.63c6.53 13.61-16.933 46.08 22.156 53.69-4.822-6.58-7.93-17.44-6.755-26.16 8.2 3.12 16.83 12.25 20.317 19.23 10.23-37.15-26.24-34.89-35.718-46.76z" fill="#fcd116"/>
</svg>
