<svg viewBox="0 0 213.33333 160" width="640" xmlns="http://www.w3.org/2000/svg" xmlns:xlink="http://www.w3.org/1999/xlink" height="480">
<defs>
<g id="c">
<clipPath id="a">
<path d="m-109 104a104 104 0 0 0 0 -208h218a104 104 0 0 0 0 208z"/>
</clipPath>
<path id="b" d="m-55 74a55 55 0 0 1 110 0v-148a55 55 0 0 1 -110 0z" clip-path="url(#a)"/>
<use width="300" xlink:href="#b" transform="rotate(90)" height="200"/>
</g>
</defs>
<path d="m0 0h213.33v160h-213.33z" fill="#fff"/>
<path d="m6.385 13.192h200.56v133.71h-200.56z" fill="#fff"/>
<path d="m93.296 13.192v53.484h-86.91v26.742h86.91v53.484h26.742v-53.482h86.91v-26.742h-86.91v-53.484h-26.744z" fill="red"/>
<use width="300" xlink:href="#c" fill="red" transform="matrix(.67 0 0 .67 49.47 39.57)" height="200"/>
<use width="300" xlink:href="#c" fill="red" transform="matrix(.67 0 0 .67 163.86 120.53)" height="200"/>
<use width="300" xlink:href="#c" fill="red" transform="matrix(.67 0 0 .67 163.86 39.57)" height="200"/>
<use width="300" xlink:href="#c" fill="red" transform="matrix(.67 0 0 .67 49.47 120.53)" height="200"/>
</svg>
