<svg xmlns="http://www.w3.org/2000/svg" xmlns:xlink="http://www.w3.org/1999/xlink" viewBox="0 0 512 256">
<path fill="#da000c" d="M0 0h512v256H0z"/>
<path fill="#fff" d="M0 0h512v171.5H0z"/>
<g stroke="#000">
<g id="a" fill="#da000c" stroke-linecap="square">
<path fill="#000" stroke="none" d="M196.57 116.303h64v43.993h-64z"/>
<path d="M229.82 153.865h-39.07l-8.66 5.7v6.04h47.73m-16.35-37.01c5.624 0 10.218 4.69 10.218 10.47v14.78h7.343v-56h-40.28v56h12.5v-14.78c0-5.556 4.52-10.47 10.22-10.47z"/>
<path fill="#000" stroke="none" d="M204.528 59.962h18.523v33.96h-18.52z"/>
<path d="M223 88.656h-16.21v-5.75h-11.884v5.75h-8.062v-5.75h-4.813v10.438H223m-36.156-.038h34.97v4.538h-34.97zm13.876-45.68v35.28h6.07V73.22c0-3.63 2.563-6.6 6.148-6.782.115-.006.226 0 .343 0a6.78 6.78 0 0 1 6.79 6.78v9.688h5.78v-35.28zm-2.19-4.782v4.78h29.25v-4.78zm-3.75-9.156v9.156h35.095v-9.157h-5.406v4.657h-6.54v-4.657h-9.97v4.657h-6.53v-4.657zm-12.69 125.876H230m31-2.75h-32.438l-9.78 4.717v7.04H261"/>
<path stroke-linecap="butt" d="M218.77 161.52H262"/>
</g>
<use xlink:href="#a" transform="matrix(-1 0 0 1 512 0)"/>
<g fill="#f8d80e">
<g stroke-linecap="round">
<path stroke-width=".768" d="M273.297 150.03c-2.654.884-5.053 2.37-7.47 3.754-3.1 1.83-6.106 3.827-8.903 6.1-.985.648-1.93 1.36-2.69 2.272-1.025.878-2.064 2.055-1.868 3.513.05.64.873-.76 1.414-.83a4.39 4.39 0 0 1 3.142-.47c1.27-1.34 2.91-2.24 4.325-3.41 3.004-2.25 6.236-4.17 9.525-5.96 1.148-.59 2.3-1.19 3.525-1.6l-1-3.38z"/>
<path d="M260.4 157.39v3.913m2.417-5.618v3.883m2.416-5.388v3.858m2.417-5.344v3.98"/>
<path stroke-width=".768" d="M238.89 150.156l-1.186 3.313c5.536 2.1 10.808 4.87 15.797 8.06 1.7 1.15 3.47 2.26 4.8 3.84.3.81-.51 1.49-1.31 1.24-.73-.25-1.45-.54-2.22-.01-1.1.5-2.1 2.14-.42 2.69 2.32 1.55 6.09.88 7.2-1.85.58-1.4.62-3.2-.51-4.35-2.06-2.37-4.79-4.01-7.42-5.67-4.69-2.82-9.57-5.38-14.7-7.29z"/>
<path d="M254.05 158.035l-.313 3.34m3.095-1.635l-.862 3.27m3.834-.998l-1.808 2.537m2.72 3.63l-2.61-1.4m3.422-1.35l-2.995.28m-.868 4.05l-.205-2.64m-.892-.38l-2.473 1.82m-9.418-15.64v3.11m6.286.19v3.53m-3.143-5.19v3.32"/>
</g>
<path d="M235.78 227.563v8.03h5.032v-4.03h6.844v4.03h5.406v-8.03zm0 11.062v8.063h17.282v-8.063h-5.406v4.03h-6.844v-4.03z"/>
<path d="M253.052 193.65h4.99v58.116h-4.99z"/>
<path d="M253.052 198.68h4.99v50.06h-4.99z"/>
<path stroke-width="1.024" d="M255.547 179.406l10.625 6.188-10.625 6.156-10.625-6.156zm-14.22 3.97h-2.78v4.436h2.78l14.22 8.25 14.22-8.25h2.78v-4.437h-2.78l-14.22-8.25z"/>
<path stroke-width="1.024" d="M255.344 164.28c-2.42.34-4.226 2.73-4.094 5.135.01 3.738-.018 7.476.014 11.214.13 2.4 2.233 4.56 4.675 4.58 1.98.19 3.97-.97 4.81-2.78l-1.72-1.03c-.45 1.18-1.73 1.91-2.97 1.78-1.64.04-2.96-1.55-2.81-3.14.01-3.72-.02-7.43.01-11.14.09-1.52 1.53-2.76 3.05-2.6.62-.18 1.48.67 1.87-.07.58-.83-.42-1.48-.97-1.94-.62-.09-1.26-.01-1.88-.04zm5.78 3.907c-.395.746-1.215 1.19-1.874 1.58v7.514l2 1.16c-.008-3.2.016-6.41-.01-9.61-.033-.2-.01-.5-.115-.64z"/>
</g>
<g fill="#da000c">
<path fill="#000" d="M240.803 38.35h29.33v53.256h-29.33z" stroke="none"/>
<path d="M238.75 38.375v44.563h9.313v-13.22c0-3.048 1.952-7.28 7.937-7.28s7.938 4.232 7.938 7.28v13.22h9.312V38.374zm15.813 5h2.875v15.25h-2.875zm-8.25 3h2.906V57.53h-2.91zm16.468 0h2.91V57.53h-2.9zM235.6 31.97v6.343h40.812V31.97zm-3.844-7.376v7.375h48.5v-7.38h-6.093v4.06h-6.875v-4.06h-7.84v4.06h-6.876v-4.06h-7.845v4.06h-6.876v-4.06zm-9 73.25v4.594h66.5v-4.594z"/>
<path d="M220.03 82.906v14.938h71.94V82.906h-6.814v5.75h-9.062v-5.75h-12.156v5.75h-15.875v-5.75h-12.157v5.75h-9.062v-5.75z"/>
<path stroke-linejoin="round" d="M228.688 102.438v54.343h12.843v-20.34c0-9.58 6.4-14.09 14.47-14.09 7.76 0 14.47 4.51 14.47 14.1v20.35h12.85v-54.35z"/>
</g>
</g>
</svg>
