<svg xmlns="http://www.w3.org/2000/svg" viewBox="0 0 640 480">
<defs>
<clipPath id="a">
<path d="m-85.24 0h682.67v512h-682.67z" fill-opacity=".67"/>
</clipPath>
</defs>
<g transform="matrix(.94 0 0 .94 79.91 0)" clip-path="url(#a)">
<path fill="#fff" d="m-254.55 0h1021.8v510.88h-1021.8z" fill-rule="evenodd"/>
<path d="m405.2 175.1zm-71.913-62.795l-12.743 64.988 88.98-0.91-9.56-64.07" fill="#a11011"/>
<path fill="#a11011" d="m276.15 77.584h27.31v6.827h-27.31zm-32.77 0h26.398v6.827h-26.4zm-33.68-0.454h26.398v6.37h-26.4z" fill-rule="evenodd"/>
<path d="m301.84 99.56zm-91.904-16.392v16.75h93.536v-16.393l-93.536-0.358m11.39 23.673l-10.926 69.082 94.438 0.458-12.743-69.082m2.96 66.43z" fill="#a11011"/>
<path fill="#d61517" d="m-256 384.54h1024.2v127.46h-1024.2z" fill-rule="evenodd"/>
<path fill="#a11011" d="m82.674 175.2h347.88v26.356h-347.88z" fill-rule="evenodd"/>
<path d="m95.91 198.65l-7.36 131.63-37.822 0.455v21.157h413.49v-21.157l-37.822 0.455-7.357-131.92-323.12-0.628z" fill="#a11011"/>
<path d="m204.56 234.3v21.755h5.338v-21.76h-5.338m8.008 0v21.755h42.707v-21.76h-42.707m45.377 0v21.755h40.038v-21.76h-40.038m42.707 0v21.755h8.007v-21.76h-8.008zm66.31 21.71zm-38.317-21.736v22.21h38.997v-21.736l-38.997-0.475m-11.98 71.93v23.548h29.36v-23.55h-29.36m32.03 0v14.718h5.34v-14.72h-5.34m37.37 0v14.718h5.338v-14.72h-5.338m8.008 0v23.548h29.36v-23.55h-29.36zm-74.75-23.96v21.3h5.338v-21.3h-5.338m8.008 0v21.3h18.684v-21.3h-18.684zm66.73 0v21.3h19.135v-21.3h-19.13m21.87 0v21.3h5.466v-21.3h-5.467zm-98.03-80.34v5.78h102.92v-5.78h-102.92zm-216.35 80.79v21.3h18.04v-21.3h-18.04zm65.63-0.45v22.21h18.684v-22.21h-18.68m21.354 0v22.21h5.338v-22.21h-5.338zm14.67-79.88v5.325h106.1v-5.325h-106.1zm-107.87 0.46v5.325h97.002v-5.325h-96.997z" fill="#d61517"/>
<path d="m313.08 200.53c-10.186 0.754 1.348 96.04 1.367 125.75 0 0 12.182-119.51-1.367-125.75z" fill="#fff"/>
<path d="m84.444 184.62v14.61h344.33v-14.61h-344.33z" fill="#d61517"/>
<path d="m196.57 200.98c-10.186 0.767 1.348 97.777 1.367 128.03 0 0 12.182-121.67-1.367-128.03z" fill="#fff"/>
<path d="m90.9 282.68v21.3h8.217v-21.3h-8.217zm-0.207 23.05v24.03h29.36l-0.16-24-29.2-0.03m28.85 23.517zm335.16 20.6zm-403.15-18.17v18.57h410.32v-18.173l-410.32-0.397m115.61-25.49v23.226h28.45v-23.203l-28.45-0.023m27.954 22.73zm6.64-23.2v23.548h29.36l-0.16-23.52-29.2-0.028m28.85 23.045zm48.98-22.59v23.548h32.547l-0.16-23.52-32.388-0.028m31.978 23.045zm-172.08-72.79zm-38.208-22.626v23.12h38.887v-22.62l-38.888-0.495m-3.586 22.64zm-3.806-22.18v22.664h3.874v-22.18l-3.874-0.485m89.632 22.62zm-40.476-22.626v23.12h41.195v-22.62l-41.196-0.495m47.95 22.63zm-4.7-22.18v22.664h4.783v-22.18l-4.783-0.485m159.96 44.98zm-27.06-20.845v21.3h27.54v-20.85l-27.54-0.455m101.7 20.4zm-27.507-19.954v20.39h27.996v-19.954l-27.997-0.436m-3.21 20.4zm-39.92-20.4v20.846h40.63v-20.4l-40.63-0.445" fill="#d61517"/>
<path d="m315.23 183.92zm-4.7-9.264v9.466h4.783v-9.264l-4.783-0.202" fill="#fff"/>
<path d="m325.23 255.57zm-5.147-21.29v21.755h5.238v-21.29l-5.237-0.465m88.41 21.74zm-37.052-21.29v21.755h37.71v-21.29l-37.71-0.465m48.42 21.3zm-7.383-21.29v21.755h7.514v-21.29l-7.513-0.465m-69.37-2.83zm-23.482-21.736v22.21h23.9v-21.736l-23.9-0.475m69.58 21.76zm-41.894-21.29v21.755h42.64v-21.29l-42.64-0.465m70.4 21.29zm-25.27-21.736v22.21h25.72v-21.736l-25.72-0.475m-190.7 71.01v21.755h12.066v-21.61l-12.066-0.145m11.855 21.29zm2.71-20.82v21.755h14.93v-21.61l-14.93-0.145m14.67 21.29zm48.6-20.82v21.755h19.348v-21.77l-19.348 0.02m19.01 21.29zm12.45 0zm-9.62-21.29v21.755h9.79v-21.29l-9.79-0.465m-208.81-80.62v4.415h102.92v-4.415h-102.92zm105.59 0v4.415h113.84v-4.415h-113.84zm116.44-0.46v4.415h108.91v-4.415h-108.91zm-195.52 79.16zm-27.06-21.29v21.755h27.54v-21.29l-27.54-0.465m100.38 21.3zm-24.824-21.29v21.755h25.265v-21.29l-25.264-0.465m-44.69 0.47v21.755h42.183l0.16-21.61-42.343-0.145m41.447 21.29zm39.19-22.65v21.755h27.996l0.16-21.61-28.156-0.145m27.507 21.29zm45.69 0zm-43.16-21.29v21.755h43.927l-0.16-21.45-43.766-0.306m46.42 0.46v21.755h28.45l0.16-21.774-28.61 0.02m27.954 21.29zm-75.56-48.71zm-28.402-21.29v21.755h28.906v-21.29l-28.906-0.465m73.74 21.73zm-42.79-21.736v22.21h43.55v-21.736l-43.55-0.475m71.7 21.75zm-25.27-21.736v22.21h25.72v-21.736l-25.72-0.475" fill="#d61517"/>
<path d="m186.73 182.38zm-73.73-62.8l-10.926 64.988 88.98-0.91-10.015-65.438" fill="#a11011"/>
<path d="m220.62 123.84l-2.718 10.65h38.052v-10.65h-35.33m38.052 0v10.65h35.334v-10.65h-35.334zm-40.77 13.31v10.65h13.503v-10.65h-13.5m16.204 0v10.65h43.21v-10.65h-43.21m45.91 0v10.65h16.204v-10.65h-16.204zm-56.71-26.62l-2.722 10.65h10.887v-10.65h-8.17m10.887 0v10.65h43.548v-10.65h-43.548m46.27 0v10.65h10.886v-10.65h-10.887zm-70.56-23.965v5.325h45.832v-5.325h-45.83m48.528 0v5.325h43.136v-5.325h-43.136zm-48.53 7.988v5.325h21.354v-5.325h-21.35m24.023 0v5.325h42.707v-5.325h-42.707m45.377 0v5.325h21.354v-5.325h-21.35zm-34.7-15.975v5.325h24.023v-5.325h-24.02zm-160.16 98.512v5.325h21.354v-5.325h-21.356zm322.98 0v5.325h21.354v-5.325h-21.35zm-279.99 5.57zm-20.352-4.364v4.46h20.714v-4.365l-20.714-0.094m65.91 4.82zm-17.67-3.735v3.817h17.984v-3.735l-17.983-0.08" fill="#d61517"/>
<path d="m203.25 184.34zm-5.147-10.6v10.832h5.238v-10.6l-5.237-0.232" fill="#fff"/>
<path d="m124.29 176.09zm-17.67-13.088v13.374h17.984v-13.088l-17.983-0.286m28.29 13.11zm-9.172-12.643v12.92h9.335v-12.644l-9.335-0.276m61.39 13.96zm-15.88-14.87v15.195h16.162v-14.87l-16.162-0.325m-3.09 13.64zm-12.38-12.98v13.264h12.6v-12.98l-12.6-0.284" fill="#d61517"/>
<path d="m192.98 181.7zm-19.905-6.591v6.734h20.258v-6.591l-20.258-0.144m121.98-1.38zm-74.187-66.43l-11.383-7.384h93.534l-10.47 8.293" fill="#a11011"/>
<path d="m210.92 78.578v5.325h24.023v-5.325h-24.02zm65.99 0.455v5.325h25.388v-5.325h-25.39z" fill="#d61517"/>
<g fill="#d61517">
<path d="m288.21 108.08zm-66.875-1.692v1.73h68.05v-1.693l-68.05-0.036"/>
<path d="m291.72 107.17zm-74.03-1.692v1.73h75.332v-1.693l-75.333-0.036"/>
<path d="m294.83 105.8zm-77.61-1.692v1.73h78.974v-1.693l-78.974-0.037"/>
<path d="m294.83 105.8zm-77.61-1.692v1.73h78.974v-1.693l-78.974-0.037m79.85-0.13zm-80.74-1.693v1.73h82.16v-1.693l-82.16-0.037"/>
</g>
<path d="m243.12 182.68zm-15.88-3.474v3.55h16.162v-3.474l-16.162-0.076m55.97 3.47zm-13.644-3.474v3.55h13.887v-3.474l-13.887-0.076m-152.18 52.67zm-21.694-22.18v22.664h22.08v-22.18l-22.08-0.485m147.16-32.25zm-30.19-13.718v14.018h30.727v-13.718l-30.727-0.3m89.9 13.72zm-25.61-13.718v14.018h26.065v-13.718l-26.065-0.3m-3.65 13.72zm-7.383-13.718v14.018h7.514v-13.718l-7.513-0.3" fill="#d61517"/>
<path d="m226.71 182.14zm-16.774-7.037v7.19h17.072v-7.036l-17.072-0.154" fill="#a11011"/>
<path d="m175.2 177.09v5.78h21.354v-5.78h-21.35m29.36 0v5.78h21.355v-5.78h-21.36z" fill="#d61517"/>
<path d="m304.02 182.15zm-20.352-6.591v6.734h20.714v-6.591l-20.714-0.144" fill="#a11011"/>
<path d="m165.23 231.89zm-44.578-21.736v22.21h45.37v-21.736l-45.37-0.475m70.45 21.75zm-23.035-21.736v22.21h23.444v-21.736l-23.445-0.475m86.92-48.58zm-40.03-11.936v12.197h40.74v-11.935l-40.74-0.26m83.26 12.39zm-40.03-11.936v12.197h40.74v-11.935l-40.74-0.26" fill="#d61517"/>
<path fill="#a11011" d="m168.74 88.962h23.667v6.827h-23.67zm-34.59-0.455h26.398v7.737h-26.4zm-29.13 0.455h20.937v6.827h-20.94z" fill-rule="evenodd"/>
<path d="m189.57 109.24zm-76.616 10.8l-8.146-11.472 87.616 0.455-10.497 9.576" fill="#a11011"/>
<path d="m105.8 102.54v5.325h18.684v-5.325h-18.68m21.354 0v5.325h42.707v-5.325h-42.706m45.377 0v5.325h18.685v-5.325h-18.69zm-66.73-12.402v4.68h18.684v-4.68h-18.68m29.36 0v4.68h24.024v-4.68h-24.02zm34.7 0.455v4.038h21.354v-4.037h-21.35z" fill="#d61517"/>
<path fill="#a11011" d="m105.02 95.79h87.387v13.654h-87.39z" fill-rule="evenodd"/>
<path d="m142.29 160.22zm-33.845-10.416v10.643h34.446v-10.41l-34.445-0.226m76.45 10.42zm-39.788-10.416v10.643h40.495v-10.41l-40.495-0.226m1.54-48.6zm-40.476-3.92v4.006h41.195v-3.92l-41.196-0.085m18.64 49.725zm-14.54-11.046v11.287h14.798v-11.045l-14.797-0.24m56.96 11.08zm-39.288-9.786v10h39.986v-9.786l-39.986-0.214m55.62 10.22zm-12.75-11.046v11.287h12.976v-11.045l-12.976-0.24m-25.77-1.67zm-32.95-9.786v10h33.536v-9.786l-33.536-0.214m69.74 9.79zm-33.32-9.786v10h33.912v-9.786l-33.913-0.214m23.03-2.37zm-48.973-3.92v4.006h49.84v-3.92l-49.843-0.085m57.9 3.91zm-6.936-3.92v4.006h7.06v-3.92l-7.06-0.085m-52.7 3.91zm-7.83-3.92v4.006h7.97v-3.92l-7.97-0.085m77.8-17.48zm-40.553-3.92v4.006h41.273v-3.92l-41.273-0.085m-23.71 12.525zm-19.905-5.593v5.715h20.258v-5.592l-20.258-0.123m60.14 4.94zm-35.263-5.147v5.26h35.89v-5.148l-35.89-0.112m59.2 5.16zm-19.796-4.963v5.07h20.148v-4.96l-20.148-0.11" fill="#d61517"/>
<g fill="#d61517">
<path d="m178.97 116.54zm-66.875-1.505v1.54h68.05v-1.506l-68.05-0.033"/>
<path d="m182.48 115.73zm-74.03-1.506v1.54h75.332v-1.506l-75.333-0.032"/>
<path d="m185.59 114.51zm-77.61-1.505v1.538h78.974v-1.505l-78.974-0.033"/>
<path d="m185.59 114.51zm-77.61-1.505v1.538h78.974v-1.505l-78.974-0.033m79.85-0.12zm-80.74-1.505v1.538h82.16v-1.505l-82.16-0.033"/>
</g>
<path d="m354.19 182.67zm-14.986-3.92v4.006h15.252v-3.92l-15.252-0.085m65.37 3.45zm-22.588-3.92v4.006h22.99v-3.92l-22.99-0.085m24.91-1.73zm-20.167-12.305v12.574h20.525v-12.306l-20.525-0.27m-2.83 12.31zm-8.243-12.75v13.028h8.39v-12.75l-8.39-0.28m-35.15 13.18zm-16.775-13.642v13.94h17.073v-13.642l-17.073-0.298m30.54 13.64zm-10.59-13.826v14.128h10.778v-13.826l-10.78-0.302" fill="#d61517"/>
<path d="m338.66 183.03zm-17.67-7.928v8.1h17.984v-7.926l-17.983-0.174" fill="#a11011"/>
<path d="m285.54 177.09v5.78h23.613v-5.78h-23.61m31.484 0v5.78h20.99v-5.78h-20.99zm-18.77-15.08zm-38.132-11.936v12.197h38.81v-11.935l-38.81-0.26" fill="#d61517"/>
<path fill="#a11011" d="m387.66 88.852h23.667v6.827h-23.67zm-34.59-0.455h26.398v7.737h-26.4zm-29.13 0.455h20.937v6.827h-20.94z" fill-rule="evenodd"/>
<path d="m408.49 109.13zm-76.616 10.8l-8.146-11.472 87.617 0.455-10.497 9.576" fill="#a11011"/>
<path d="m324.72 102.43v5.325h18.684v-5.325h-18.68m21.354 0v5.325h42.707v-5.325h-42.706m45.377 0v5.325h18.685v-5.325h-18.69zm-66.73-12.413v4.038h18.684v-4.038h-18.68m29.36 0v4.038h24.024v-4.038h-24.02zm34.7 0.456v3.394h21.354v-3.394h-21.35z" fill="#d61517"/>
<path fill="#a11011" d="m323.94 95.68h87.387v13.653h-87.39z" fill-rule="evenodd"/>
<path d="m361.83 160.1zm-35.372-11.046v11.287h36v-11.045l-36-0.24m77.38 11.04zm-38.055-11.046v11.287h38.73v-11.045l-38.73-0.24m-2.74-47.97zm-37.946-3.92v4.006h38.62v-3.92l-38.62-0.085m18.64 49.725zm-14.54-11.046v11.287h14.798v-11.045l-14.797-0.24m56.97 11.04zm-38.655-11.046v11.287h39.342v-11.045l-39.342-0.24m54.97 11.49zm-12.75-11.046v11.287h12.976v-11.045l-12.976-0.24m-25.13-2.91zm-33.583-7.896v8.068h34.18v-7.896l-34.18-0.172m69.74 7.9zm-32.688-7.896v8.068h33.27v-7.896l-33.27-0.172m22.39-3.01zm-48.973-3.92v4.006h49.843v-3.92l-49.843-0.085m57.91 3.92zm-6.936-3.92v4.006h7.06v-3.92l-7.06-0.085m-52.7 3.92zm-7.83-3.92v4.006h7.97v-3.92l-7.97-0.085m77.77-17.47zm-41.818-3.92v4.006h42.56v-3.92l-42.56-0.085m-23.68 11.225zm-18.64-6.223v6.36h18.97v-6.224l-18.97-0.136m58.83 6.23zm-36.528-5.777v5.903h37.177v-5.777l-37.178-0.127m61.74 5.79zm-21.694-5.593v5.715h22.08v-5.592l-22.08-0.123" fill="#d61517"/>
<g fill="#d61517">
<path d="m397.9 116.42zm-66.875-1.505v1.538h68.05v-1.505l-68.05-0.033"/>
<path d="m401.41 115.62zm-74.03-1.506v1.538h75.332v-1.505l-75.333-0.032"/>
<path d="m404.52 114.4zm-77.61-1.504v1.538h78.974v-1.505l-78.974-0.034"/>
<path d="m404.52 114.4zm-77.61-1.504v1.538h78.974v-1.505l-78.974-0.034m79.85-0.13zm-80.74-1.504v1.538h82.16v-1.505l-82.16-0.034"/>
</g>
<g fill="#d61517">
<path d="m397.9 115.16zm-66.875-0.383v0.39h68.05v-0.383l-68.05-0.008"/>
<path d="m401.41 114.96zm-74.03-0.384v0.392h75.332v-0.383l-75.333-0.007"/>
<path d="m404.52 114.65zm-77.61-0.383v0.392h78.974v-0.383l-78.974-0.01"/>
<path d="m404.52 114.65zm-77.61-0.383v0.392h78.974v-0.383l-78.974-0.01m79.85-0.04zm-80.74-0.383v0.392h82.16v-0.383l-82.16-0.01"/>
</g>
<path fill="gray" d="m232.07 462.6h19.954v28.965h-19.95z" fill-rule="evenodd"/>
<path fill="#ffc500" d="m234.64 464.54h17.38v25.103h-17.38z" fill-rule="evenodd"/>
<path fill="gray" d="m237.86 469.68h11.586v17.38h-11.59z" fill-rule="evenodd"/>
<path fill="#d61517" d="m240.44 471.62h7.08v13.517h-7.08z" fill-rule="evenodd"/>
<g stroke-width="1pt" fill-rule="evenodd">
<path d="m231.44 474.21h7.724v9.01h-7.724z" fill="gray"/>
<path d="m231.44 476.13h8.367v5.15h-8.367z" fill="#d61517"/>
</g>
<g stroke-width="1pt" fill-rule="evenodd">
<path d="m261.38 502.99h-9.656v-75.312h9.656z" fill="gray"/>
<path d="m259.44 501.07h-5.793v-71.45h5.793z" fill="#ffc500"/>
</g>
<path fill="gray" d="m283.11 407.48l-4.69 4.442-25.197-23.854 4.69-4.442z" fill-rule="evenodd"/>
<path fill="gray" d="m261.02 432.11l-4.433-4.854 21.935-24.02 4.433 4.856z" fill-rule="evenodd"/>
<path fill="#ffc500" d="m254.33 388.39l3.834-3.676 23.857 22.875-3.834 3.676z" fill-rule="evenodd"/>
<path fill="#ffc500" d="m259.7 432.21l-3.55-3.928 22.09-24.446 3.552 3.93z" fill-rule="evenodd"/>
<path fill="gray" d="m230.87 410.55l4.432-4.357 21.936 21.557-4.434 4.357z" fill-rule="evenodd"/>
<path fill="gray" d="m254.87 383.84l4.8 4.654-25.773 25.005-4.798-4.657z" fill-rule="evenodd"/>
<path fill="#ffc500" d="m235.31 411.49l-3.738-3.74 23.268-23.268 3.74 3.74z" fill-rule="evenodd"/>
<path fill="gray" d="m254.14 336.22h5.15v62.156h-5.15z" fill-rule="evenodd"/>
<path fill="#ffc500" d="m255.01 337.05h3.54v60.114h-3.54zm-24.58 71.91l3.992-3.99 24.837 24.836-3.99 3.99z" fill-rule="evenodd"/>
<g stroke-width="1pt" fill="#a11011" transform="matrix(1.3 0 0 1.06 -279.63 -7.67)" fill-rule="evenodd">
<path d="m477.98 275.98h34.57v44.3h-34.57z"/>
<rect y="258.3" width="34.311" x="478.13" ry="18.298" height="36.596"/>
</g>
<g stroke-width="1pt" fill="#d61517" transform="matrix(1.24 0 0 1.02 -244.64 3.97)" fill-rule="evenodd">
<path d="m477.98 275.98h34.57v44.3h-34.57z"/>
<rect y="258.3" width="34.311" x="478.13" ry="18.298" height="36.596"/>
</g>
<g stroke-width="1pt" fill="#a11011" transform="matrix(.92 0 0 .96 -87.88 23.93)" fill-rule="evenodd">
<path d="m477.98 275.98h34.57v44.3h-34.57z"/>
<rect y="258.3" width="34.311" x="478.13" ry="18.298" height="36.596"/>
</g>
<path fill="#d61517" d="m355.98 289.23h28.04v40.45h-28.04z" fill-rule="evenodd"/>
<rect fill-rule="evenodd" ry="16.707" height="33.414" width="27.829" y="273.09" x="356.11" fill="#d61517"/>
<g stroke-width="1pt" fill="#a11011" transform="matrix(1.35 0 0 1.06 -412.97 -8.72)" fill-rule="evenodd">
<path d="m477.98 275.98h34.57v44.3h-34.57z"/>
<rect y="258.3" width="34.311" x="478.13" ry="18.298" height="36.596"/>
</g>
<g stroke-width="1pt" fill="#d61517" transform="matrix(1.28 0 0 1.02 -376.99 2.92)" fill-rule="evenodd">
<path d="m477.98 275.98h34.57v44.3h-34.57z"/>
<rect y="258.3" width="34.311" x="478.13" ry="18.298" height="36.596"/>
</g>
<g stroke-width="1pt" fill="#a11011" transform="matrix(.95 0 0 .96 -215.77 22.88)" fill-rule="evenodd">
<path d="m477.98 275.98h34.57v44.3h-34.57z"/>
<rect y="258.3" width="34.311" x="478.13" ry="18.298" height="36.596"/>
</g>
<g stroke-width="1pt" fill="#d61517" transform="matrix(.83 0 0 .9 -158 36.21)" fill-rule="evenodd">
<path d="m477.98 275.98h34.57v44.3h-34.57z"/>
<rect y="258.3" width="34.311" x="478.13" ry="18.298" height="36.596"/>
</g>
<g stroke-width="1pt" fill="#a11011" transform="matrix(1.33 0 0 1.06 -515.42 -8.56)" fill-rule="evenodd">
<path d="m477.98 275.98h34.57v44.3h-34.57z"/>
<rect y="258.3" width="34.311" x="478.13" ry="18.298" height="36.596"/>
</g>
<g stroke-width="1pt" fill="#d61517" transform="matrix(1.26 0 0 1.02 -479.94 3.08)" fill-rule="evenodd">
<path d="m477.98 275.98h34.57v44.3h-34.57z"/>
<rect y="258.3" width="34.311" x="478.13" ry="18.298" height="36.596"/>
</g>
<g stroke-width="1pt" fill="#a11011" transform="matrix(.94 0 0 .96 -320.95 23.04)" fill-rule="evenodd">
<path d="m477.98 275.98h34.57v44.3h-34.57z"/>
<rect y="258.3" width="34.311" x="478.13" ry="18.298" height="36.596"/>
</g>
<g stroke-width="1pt" fill="#d61517" transform="matrix(.82 0 0 .9 -263.97 36.37)" fill-rule="evenodd">
<path d="m477.98 275.98h34.57v44.3h-34.57z"/>
<rect y="258.3" width="34.311" x="478.13" ry="18.298" height="36.596"/>
</g>
<path d="m233.03 322.27v2.312h6.294v-2.312h-6.294zm-111.84-1.61v2.312h6.294v-2.312h-6.294zm0-17.22v2.312h6.294v-2.312h-6.294zm0.16-16.25v2.312h6.294v-2.312h-6.294zm38.3 34.11v2.312h6.294v-2.31h-6.294zm-0.16-17.38v2.312h6.294v-2.312h-6.294zm-0.48-16.41v2.312h6.294v-2.312h-6.294zm83.08-9.48l1.635-1.635-4.45-4.45-1.635 1.635 4.45 4.45zm29.07 44.08v2.312h6.294v-2.312h-6.294zm-37.97-18.51v2.312h6.294v-2.31h-6.294zm-0.48-16.57v2.312h6.294v-2.312h-6.294zm38.45 16.89v2.312h6.294v-2.312h-6.294zm0.33-17.7v2.312h6.294v-2.312h-6.294zm76.75 36.69v2.312h6.294v-2.312h-6.294zm0-19.31v2.312h6.294v-2.31h-6.294zm0.16-18.34v2.312h6.294v-2.312h-6.29zm37.18 37.81v2.312h6.294v-2.312h-6.294zm-0.16-19.31v2.312h6.294v-2.312h-6.294zm0.16-17.86v2.312h6.294v-2.31h-6.294z" fill="#a11011"/>
<g stroke-width="1pt" fill="#a11011" transform="matrix(.56 0 0 .46 88.21 34.4)" fill-rule="evenodd">
<path d="m477.98 275.98h34.57v44.3h-34.57z"/>
<rect y="258.3" width="34.311" x="478.13" ry="18.298" height="36.596"/>
</g>
<g stroke-width="1pt" fill="#d61517" transform="matrix(.53 0 0 .45 103.13 39.5)" fill-rule="evenodd">
<path d="m477.98 275.98h34.57v44.3h-34.57z"/>
<rect y="258.3" width="34.311" x="478.13" ry="18.298" height="36.596"/>
</g>
<g stroke-width="1pt" fill="#a11011" transform="matrix(.4 0 0 .42 169.98 48.25)" fill-rule="evenodd">
<path d="m477.98 275.98h34.57v44.3h-34.57z"/>
<rect y="258.3" width="34.311" x="478.13" ry="18.298" height="36.596"/>
</g>
<g stroke-width="1pt" fill="#d61517" transform="matrix(.35 0 0 .4 193.94 54.09)" fill-rule="evenodd">
<path d="m477.98 275.98h34.57v44.3h-34.57z"/>
<rect y="258.3" width="34.311" x="478.13" ry="18.298" height="36.596"/>
</g>
<path d="m371.21 265.24h-2.312v6.294h2.312v-6.294zm-97.88 8.82l-1.635-1.635-4.45 4.45 1.635 1.635 4.45-4.45zm113.13-0.16l-1.635-1.635-4.45 4.45 1.635 1.635 4.45-4.45zm-28.19 4.29l1.635-1.635-4.45-4.45-1.635 1.635 4.45 4.45zm-228.9-7.53l-1.635 1.635 4.45 4.45 1.635-1.635-4.45-4.45zm127.11-5.9h-2.312v6.294h2.312v-6.294zm-114.15 7.26h2.312v-6.294h-2.312v6.294zm12.44 4.21l1.635 1.635 4.45-4.45-1.635-1.635-4.45 4.45zm203.86-100.37v7.006h22.902v-7.006h-22.9z" fill="#a11011"/>
<path d="m359.37 177.09v5.325h21.354v-5.325h-21.35z" fill="#d61517"/>
<g stroke-width="1pt" fill-rule="evenodd">
<g transform="matrix(.63 0 0 .48 -58.15 30.37)" fill="#a11011">
<path d="m477.98 275.98h34.57v44.3h-34.57z"/>
<rect y="258.3" width="34.311" x="478.13" ry="18.298" height="36.596"/>
</g>
<g transform="matrix(.6 0 0 .46 -41.28 35.62)" fill="#d61517">
<path d="m477.98 275.98h34.57v44.3h-34.57z"/>
<rect y="258.3" width="34.311" x="478.13" ry="18.298" height="36.596"/>
</g>
<g transform="matrix(.45 0 0 .43 34.29 44.63)" fill="#a11011">
<path d="m477.98 275.98h34.57v44.3h-34.57z"/>
<rect y="258.3" width="34.311" x="478.13" ry="18.298" height="36.596"/>
</g>
<g transform="matrix(.4 0 0 .4 61.38 50.65)" fill="#d61517">
<path d="m477.98 275.98h34.57v44.3h-34.57z"/>
<rect y="258.3" width="34.311" x="478.13" ry="18.298" height="36.596"/>
</g>
</g>
<path d="m244.32 176.14v7.006h25.424v-7.006h-25.42z" fill="#a11011"/>
<path d="m244.6 177.55v5.325h24.023v-5.325h-24.02z" fill="#d61517"/>
<g stroke-width="1pt" fill-rule="evenodd">
<g transform="matrix(.63 0 0 .48 -169.94 30.37)" fill="#a11011">
<path d="m477.98 275.98h34.57v44.3h-34.57z"/>
<rect y="258.3" width="34.311" x="478.13" ry="18.298" height="36.596"/>
</g>
<g transform="matrix(.6 0 0 .46 -153.07 35.62)" fill="#d61517">
<path d="m477.98 275.98h34.57v44.3h-34.57z"/>
<rect y="258.3" width="34.311" x="478.13" ry="18.298" height="36.596"/>
</g>
<g transform="matrix(.45 0 0 .43 -77.5 44.63)" fill="#a11011">
<path d="m477.98 275.98h34.57v44.3h-34.57z"/>
<rect y="258.3" width="34.311" x="478.13" ry="18.298" height="36.596"/>
</g>
<g transform="matrix(.4 0 0 .4 -50.41 50.65)" fill="#d61517">
<path d="m477.98 275.98h34.57v44.3h-34.57z"/>
<rect y="258.3" width="34.311" x="478.13" ry="18.298" height="36.596"/>
</g>
</g>
<path d="m128.32 173.9v8.407h22.342v-8.41h-22.34z" fill="#a11011"/>
<path d="m149.29 182.59zm-19.458-7.482v7.645h19.803v-7.482l-19.803-0.162" fill="#d61517"/>
</g>
</svg>
