<svg viewBox="0 0 640 480" xmlns="http://www.w3.org/2000/svg" version="1">
<defs>
<clipPath id="a">
<path d="m0 0h682.67v512h-682.67z" fill-opacity=".67"/>
</clipPath>
</defs>
<g transform="scale(.94)" clip-path="url(#a)">
<g stroke-width="1pt" fill-rule="evenodd">
<path d="m0 0h767.98v171.89h-767.98z" fill="#3e9a00"/>
<path d="m0 171.89h767.98v168.22h-767.98z" fill="#fff"/>
<path d="m0 340.11h767.98v171.89h-767.98z" fill="#e32118"/>
<path d="m0 0v511.98l255.99-255.99-255.99-255.99z" fill="#5567e4"/>
</g>
<path d="m283.46 148.82v442.91c0 35.433 17.716 70.866 53.15 70.866h70.865c17.717 0 35.433 35.433 35.433 35.433s16.938-35.434 35.433-35.434h70.868c35.433 0 53.15-35.433 53.15-70.866v-442.91h-318.9z" fill-rule="evenodd" transform="matrix(.24 0 0 .2 269.51 179.77)" stroke="#000" stroke-width="3.791" fill="#ccc"/>
<path d="m215.38 731.79c-18.02 0-35.738-17.717-35.738-35.433v-88.583c15.502 15.502 88.583 70.866 70.867 88.583-17.718 17.716-35.738 0-35.434 0s0.304 35.433 0.304 35.433z" fill-rule="evenodd" transform="matrix(.24 0 0 .2 267.81 160.36)" stroke="#000" stroke-width="1pt" fill="#ccc"/>
<path fill="#ccc" d="m319.34 289.56c4.245-3.286 4.245 3.288 8.49 0l-4.245 19.724c-4.118-0.618-4.26 0-6.638-3.287 0-3.288 0-13.792 2.393-16.436z" fill-rule="evenodd"/>
<path d="m215.38 731.79c-18.02 0-35.738-17.717-35.738-35.433v-88.583c15.502 15.502 88.583 70.866 70.867 88.583-17.718 17.716-35.738 0-35.434 0s0.304 35.433 0.304 35.433z" fill-rule="evenodd" transform="matrix(-.24 0 0 .2 481.9 160.36)" stroke="#000" stroke-width="1pt" fill="#ccc"/>
<path fill="#ccc" d="m429.71 289.56c-4.245-3.286-4.245 3.288-8.49 0l4.245 19.724c4.118-0.618 4.26 0 6.638-3.287 0-3.288 0-13.792-2.394-16.436z" fill-rule="evenodd"/>
<path d="m513.78 1140.9c0-17.71-35.433-53.14-35.433-70.86s35.433 17.72 106.3 17.72c70.866 0 106.3-88.588 88.582-106.3 17.716 35.434 17.716 70.864 17.716 88.584 0 35.43-35.433 70.86-106.3 70.86h-70.87z" fill-rule="evenodd" transform="matrix(.24 0 0 .2 268.41 107.46)" stroke="#000" stroke-width="1pt" fill="#ccc"/>
<path d="m513.78 1140.9c0-17.71-35.433-53.14-35.433-70.86s35.433 17.72 106.3 17.72c70.866 0 106.3-88.588 88.582-106.3 17.716 35.434 17.716 70.864 17.716 88.584 0 35.43-35.433 70.86-106.3 70.86h-70.87z" fill-rule="evenodd" transform="matrix(-.24 0 0 .2 480.65 107.46)" stroke="#000" stroke-width="1pt" fill="#ccc"/>
<path fill="#ccc" d="m357.55 315.85c0-3.287 8.49-6.574 8.49-9.862v16.436h-8.49v-6.573zm33.95 0c0-3.287-8.49-6.574-8.49-9.862v16.436h8.49v-6.573z" fill-rule="evenodd"/>
<path d="m371.17 1034.6c0 17.71 141.73 17.71 141.73 0v70.87c0 17.71-141.73 17.71-141.73 0v-70.87z" fill-rule="evenodd" transform="matrix(.24 0 0 .2 268.62 123.89)" stroke="#000" stroke-width="1pt" fill="#ccc"/>
<path stroke="#000" stroke-width="1.25" fill="none" d="m249.63 696.36c-17.717 17.716-17.717-17.717-35.433 0-17.717 17.716 17.717 106.3 88.583 106.3s106.3-35.433 106.3-17.717c0 17.717-35.433 35.433-35.433 53.15s141.73 17.717 141.73 0-35.433-35.433-35.433-53.15c0-17.716 35.433 17.717 106.3 17.717 70.866 0 106.3-88.583 88.583-106.3-17.716-17.717-17.716 17.716-35.433 0" transform="matrix(.24 0 0 .2 268.02 160.36)"/>
<path d="m426.84 313.61l-4.368-7.285 0.762-0.308 4.368 7.285-0.762 0.308zm-2.74-1.59l0.913-0.01c0.236 0.874 0.246 1.598 0.028 2.172-0.217 0.57-0.636 0.958-1.256 1.164-0.642 0.213-1.245 0.22-1.81 0.027-0.564-0.2-1.106-0.577-1.625-1.133-0.517-0.558-0.952-1.196-1.306-1.915-0.385-0.785-0.603-1.508-0.654-2.168-0.05-0.665 0.07-1.22 0.357-1.666 0.288-0.45 0.695-0.763 1.22-0.937 0.595-0.2 1.19-0.173 1.785 0.075 0.595 0.25 1.143 0.694 1.644 1.336l-0.663 0.49c-0.407-0.503-0.803-0.835-1.19-0.998-0.385-0.162-0.776-0.177-1.174-0.045-0.458 0.152-0.773 0.418-0.945 0.797-0.17 0.38-0.2 0.824-0.095 1.334 0.105 0.508 0.28 1.01 0.523 1.506 0.315 0.64 0.663 1.176 1.045 1.607 0.384 0.427 0.79 0.707 1.217 0.84 0.428 0.132 0.823 0.14 1.186 0.018 0.44-0.146 0.735-0.432 0.883-0.855 0.148-0.424 0.12-0.97-0.084-1.64zm-5.33 5.02l-2.847-7.777 0.813-0.2 2.847 7.776-0.814 0.2zm-5.38 0.86l-0.748-7.137-2.108 0.15-0.1-0.956 5.07-0.36 0.1 0.956-2.116 0.15 0.748 7.137-0.846 0.06zm-8.15-2.16l0.802-0.086c0.037 0.405 0.125 0.74 0.262 1.002 0.14 0.26 0.356 0.47 0.647 0.63 0.293 0.16 0.62 0.24 0.986 0.24 0.324 0 0.61-0.06 0.858-0.183 0.25-0.122 0.434-0.288 0.554-0.5 0.122-0.213 0.184-0.446 0.184-0.697 0-0.254-0.06-0.477-0.176-0.665-0.117-0.19-0.31-0.35-0.578-0.48-0.173-0.086-0.553-0.216-1.143-0.394-0.59-0.18-1.002-0.35-1.24-0.51-0.305-0.203-0.534-0.453-0.687-0.753-0.148-0.303-0.222-0.64-0.222-1.014 0-0.41 0.092-0.793 0.276-1.147 0.184-0.36 0.453-0.63 0.806-0.815 0.353-0.184 0.746-0.277 1.178-0.277 0.477 0 0.895 0.1 1.258 0.294 0.365 0.193 0.645 0.477 0.84 0.854 0.196 0.376 0.3 0.803 0.316 1.28l-0.815 0.077c-0.045-0.513-0.193-0.9-0.448-1.163-0.25-0.263-0.623-0.393-1.116-0.393-0.515 0-0.89 0.12-1.126 0.36-0.234 0.235-0.35 0.52-0.35 0.857 0 0.292 0.083 0.532 0.25 0.72 0.162 0.19 0.59 0.383 1.278 0.582 0.692 0.195 1.167 0.366 1.423 0.515 0.375 0.217 0.652 0.494 0.83 0.83 0.177 0.332 0.266 0.716 0.266 1.152 0 0.432-0.098 0.84-0.293 1.225-0.196 0.38-0.478 0.677-0.845 0.892-0.365 0.21-0.777 0.316-1.235 0.316-0.582 0-1.07-0.108-1.463-0.322-0.392-0.214-0.7-0.536-0.925-0.964-0.222-0.432-0.338-0.92-0.35-1.463zm-2.31-5.6l0.85 0.032-0.26 4.687c-0.046 0.817-0.155 1.46-0.328 1.936-0.172 0.474-0.458 0.855-0.857 1.143-0.396 0.283-0.903 0.415-1.52 0.392-0.602-0.023-1.086-0.173-1.454-0.448-0.367-0.277-0.62-0.665-0.755-1.166-0.136-0.504-0.18-1.186-0.132-2.046l0.26-4.687 0.848 0.032-0.26 4.68c-0.038 0.706-0.016 1.228 0.068 1.568 0.086 0.336 0.25 0.6 0.49 0.79 0.244 0.19 0.548 0.29 0.914 0.305 0.623 0.023 1.078-0.14 1.364-0.487 0.285-0.348 0.456-1.03 0.512-2.05l0.26-4.68zm-10.49 5.44l0.766-0.133c0.022 0.62 0.114 1.045 0.278 1.273 0.163 0.23 0.39 0.344 0.68 0.344 0.212 0 0.396-0.06 0.55-0.183 0.155-0.126 0.262-0.294 0.32-0.505 0.06-0.215 0.088-0.555 0.088-1.02v-5.595h0.85v5.535c0 0.68-0.066 1.205-0.197 1.578-0.13 0.373-0.336 0.658-0.62 0.853-0.28 0.197-0.61 0.295-0.99 0.295-0.562 0-0.994-0.205-1.296-0.615-0.297-0.41-0.44-1.02-0.43-1.828zm-14.44 13.57v-1.126l3.29-5.87c0.233-0.418 0.455-0.78 0.666-1.09h-3.583v-1.08h4.6v1.08l-3.606 6.36-0.39 0.645h4.1v1.08h-5.08zm-46.76-11.27l2.025-9.015 0.835 0.126-2.025 9.015-0.835-0.126zm-9.09-3.55l5.28-8.075 0.767 0.34-1.174 7.65 4.145-6.34 0.718 0.317-5.28 8.076-0.767-0.34 1.177-7.657-4.15 6.346-0.716-0.318zm4.53-9.01l0.6 0.495-4.55 3.75c-0.794 0.65-1.474 1.126-2.043 1.425-0.57 0.3-1.137 0.458-1.7 0.478-0.56 0.018-1.06-0.152-1.497-0.51-0.426-0.35-0.647-0.74-0.663-1.172s0.158-0.893 0.523-1.383c0.367-0.494 0.97-1.084 1.804-1.77l4.552-3.75 0.6 0.493-4.546 3.745c-0.684 0.564-1.154 1.01-1.408 1.338-0.248 0.326-0.37 0.635-0.368 0.925 0.003 0.292 0.135 0.544 0.394 0.756 0.442 0.362 0.93 0.477 1.466 0.346 0.536-0.133 1.3-0.606 2.288-1.42l4.547-3.745zm9.07 13.26l0.31-9.163 2.21 0.05c0.5 0.012 0.88 0.064 1.14 0.158 0.362 0.13 0.67 0.355 0.917 0.678 0.326 0.415 0.56 0.945 0.705 1.585 0.15 0.638 0.21 1.365 0.18 2.18-0.022 0.698-0.1 1.313-0.232 1.85-0.132 0.534-0.293 0.976-0.483 1.326-0.19 0.346-0.395 0.62-0.615 0.818-0.217 0.195-0.477 0.34-0.78 0.44-0.303 0.096-0.648 0.14-1.036 0.13l-2.317-0.05zm0.886-1.06l1.37 0.03c0.422 0.01 0.756-0.04 1-0.147 0.245-0.106 0.443-0.26 0.594-0.46 0.21-0.284 0.38-0.666 0.507-1.147 0.13-0.485 0.208-1.073 0.23-1.764 0.033-0.96-0.053-1.697-0.257-2.215-0.202-0.522-0.458-0.873-0.767-1.056-0.223-0.13-0.587-0.2-1.092-0.21l-1.35-0.032-0.235 7zm5.04 1.12l2.467-9.166h0.915l2.628 9.167h-0.968l-0.75-2.775h-2.684l-0.705 2.776h-0.902zm1.854-3.763h2.177l-0.67-2.538c-0.204-0.773-0.356-1.406-0.455-1.902-0.082 0.587-0.198 1.17-0.346 1.75l-0.706 2.69zm4.84 3.76v-9.166h2.212c0.5 0 0.88 0.044 1.144 0.13 0.368 0.123 0.68 0.342 0.94 0.66 0.34 0.407 0.592 0.93 0.76 1.567 0.17 0.635 0.253 1.36 0.253 2.177 0 0.697-0.057 1.314-0.17 1.852-0.115 0.537-0.26 0.983-0.44 1.337-0.177 0.35-0.373 0.628-0.586 0.832-0.21 0.198-0.465 0.35-0.765 0.455-0.3 0.104-0.642 0.156-1.03 0.156h-2.317zm0.85-1.08h1.37c0.424 0 0.756-0.056 0.995-0.17 0.242-0.112 0.435-0.27 0.578-0.474 0.203-0.29 0.36-0.674 0.47-1.157 0.114-0.49 0.17-1.08 0.17-1.77 0-0.96-0.11-1.695-0.332-2.21-0.22-0.515-0.486-0.86-0.802-1.036-0.227-0.125-0.594-0.188-1.1-0.188h-1.348v7.004zm17.33 11.59v-9.167h2.422c0.426 0 0.75 0.03 0.976 0.086 0.315 0.076 0.58 0.22 0.793 0.433 0.214 0.207 0.385 0.5 0.513 0.88 0.132 0.38 0.198 0.796 0.198 1.25 0 0.78-0.174 1.44-0.52 1.983-0.348 0.538-0.976 0.806-1.884 0.806h-1.65v3.726h-0.85zm0.85-4.81h1.66c0.548 0 0.938-0.144 1.168-0.436 0.23-0.29 0.346-0.702 0.346-1.232 0-0.384-0.068-0.71-0.205-0.98-0.136-0.277-0.314-0.458-0.536-0.546-0.143-0.054-0.407-0.08-0.793-0.08h-1.64v3.275zm4.43 4.81l2.467-9.167h0.915l2.627 9.166h-0.968l-0.75-2.776h-2.685l-0.705 2.776h-0.903zm1.853-3.764h2.177l-0.67-2.54c-0.204-0.77-0.357-1.403-0.455-1.9-0.083 0.588-0.198 1.17-0.347 1.75l-0.705 2.69zm55.08-12.5l-4.287-7.838 0.677-0.41 8.057 5.56-0.716 0.434-2.404-1.705-1.987 1.2 1.328 2.356-0.667 0.402zm-1.138-3.594l1.61-0.973-2.188-1.566c-0.666-0.477-1.2-0.874-1.604-1.194 0.33 0.468 0.634 0.948 0.91 1.44l1.272 2.292z"/>
<path d="m419.16 331.78c0.065 32.968 19.893 131.63-37.678 284.94-4.262 11.127 7.064 16.484 16.484 18.84 9.42 2.354 14.13-9.42 14.13-11.775s2.354 18.84 11.773 16.484c9.42-2.356 18.838-16.485 18.838-16.485s4.71 21.194 16.484 21.194 11.774-25.905 11.774-25.905c0 2.355 8.164 22.235 17.583 22.235 9.42 0 23.928-8.76 15.547-23.144-59.832-100.72-56.68-267.54-56.68-286.38s27.784-53.068 55.418-53.89l-10.675-16.755c-6.96 2.136-15.28 3.67-29.41 15.444s-22.397 24.59-22.397 24.59v-80.066h-23.548l2.355 73s-8.05-9.438-20.095-19.93c-11.4-9.935-31.972-9.2-44.637-7.12l-1.204 15.99c14.97 3.123 34.067-3.068 43.487 11.06 11.775 11.775 22.415 21.26 22.45 37.678z" fill-rule="evenodd" transform="matrix(.15 0 0 .15 312.13 202.03)" stroke="#000" stroke-width="5.029" fill="#682900"/>
<path d="m310.55 312.21v-0.832c0 1.976-0.067 1.1 0.833-2.498 0.777-2.848 2.407-5.523 4.163-7.493 3.04-1.014 7.44 0.053 10.823-0.833 2.277-3.268 5.827 4.267 5.827-0.833 4.343-0.31 4.4-4.558 5.828-6.66 4.054-0.5 4.963-5.44 8.326-2.496 2.757 1.305 0.407-0.833 4.997-0.833 2.713 0.664 4.13 2.32 6.66 0.833 0.62-2.85 1.4-6.268 1.665-9.99-1.177-2.356-0.832-7.184-0.832-10.824 2.274-3.033 6.262 2.475 9.99 1.664 1.018-3.562 4.146-3.466 2.498-6.66-0.308-4.007-1.08-6.503 0-10.823 1.314-3.703 3.228-3.606 6.66-5.827 1.093-3.277-0.122-6.03 0.833-9.99 3.902-0.116 3.833-1.133 4.164-4.996 1.26-2.66 2.858-5.356 4.995-7.493 1.967-2.382 4.302-2.147 5.827-5.828 1.308-3.27 1.31-4.75 4.995-5.828 2.696-1.27 4.833-1.41 6.66-3.33 1.733-3.057 3.175-5.487 5.83-9.16 2.63-1.77 15.236 1.666 19.148 1.666 2.118-2.67 5.397-6.86 7.493-8.326 3.587-1.916 4.96-2.497 9.99-2.497 4.288 1.27 6.082 2.795 10.824 1.666 1.932-2.706 3.816-3.965 8.325-2.498 3.433 2.22 5.347 2.124 6.66 5.828 1.947 4.615 1.51 6.192 6.662 6.66 5.18 0.186 5.71 1.443 9.158 4.163 5.248 2.25 4.995 0.98 4.995 5.827 3.72 0 4.052-0.44 4.163 3.33 2.294 0.714 4.907 2.72 6.66 4.163 2.094 2.416 2.63 3.93 7.494 4.163 3.59-1.508 4.75-1.496 4.995-5.828 2.75-0.982 3.21-3.635 4.162-6.66 2.108-2.885 3.474-3.33 8.325-3.33 4.28 1.772 4.14 3.567 3.33 7.493 2.665 0.55 3.765 0.24 4.164 3.33 1.408 2.346 1.04 5.15-0.832 6.66 2.132 1.568 3.37 4.256 4.163 7.493-1.41 2.353-0.546 5.81 0 8.327 2.913 1.456 4.416 2.81 8.326 4.163 1.983 1.68 6.2 3.44 9.99 4.163 4.482-0.606 5.962-0.568 9.992 1.665 2.084 2.993 2.235 6.77 4.163 8.326 2.176 1.843 5.82 2.65 7.494 4.995 2.778 2.03 3.594 4.28 7.493 4.994 1.47 2.228 4.634 5.896 5.828 8.326 0.94 2.694 1.36 7.413 2.498 10.823v11.656c-0.158 4.303-0.833 6.915-0.833 11.655-0.74 2.384-1.665 3.3-1.665 6.66-1.582 3.527-2.93 6.49-4.995 9.16-0.94 4.234-2.473 6.222-4.163 9.99 0.052 4.37 0.832 6.304 0.832 10.823-1.81 2.69-3.888 4.647-7.494 6.66-2.724 3.188-4.368 4.427-4.995 9.16-1.565 2.704-1.442 2.497-4.994 2.497-4.2 0-7.814 0.375-11.656 0.832-3.378 0-4.64 0.356-6.66-1.665-3.99-1.804-7.346-1.91-11.657-0.833-2.325-1.595-3.258-2.498-7.493-2.498-3.16 0.427-5.965 0.832-9.99 0.832-2.496-2.79-3.898-3.33-8.326-3.33-2.356 1.178-7.184 0.833-10.824 0.833-3.82-1.043-4.313-2.63-5.828-5.828-2.605-1.236-3.635-3.04-7.493-3.332-3.64 0-8.47 0.345-10.824-0.832-2.723-0.327-5.586-1.027-7.493-2.498-1.556-2.288-3.54-4.272-5.828-5.828-3.698 0-5.864 0.355-7.493-1.665-2.732-2.157-4.89-5.564-8.326-7.493-3.062-2.43-5.136-3.916-6.66-8.326 0-3.943 0.78-4.874-3.33-4.995-2.756 2.813-4.01 3.33-9.16 3.33-3.388 0-6.93-0.017-9.157-0.83-3.682-2.09-5.03-3.014-9.16-3.332-2.584 1.645-6.007 3.547-9.99 4.163-3.405 1.967-5.437 2.38-6.66 5.83-3.146 2.567-4.99 4.077-9.16 5.827-2.315 2.21-4.525 2.59-5.827 6.66-0.792 3.367-1.665 5.37-1.665 9.99 0.59 4.37 0.36 6.238-1.665 9.992-1.74 2.485-4.757 3.7-7.493 5.827-4.116 0.494-4.548 0.186-7.493-1.665-2.933-0.977-6.266-1.78-9.99-2.498-4.497-0.866-6.018-1.96-8.327-4.162l8.326 4.162c-4.496-0.866-6.017-1.96-8.326-4.162-5.064-3.583-6.063-5.398-11.656-5.828-5.198 0.06-7.43 0.318-8.325 4.995 2.96 0.788 0.608 2.553-0.834 3.33-2.078 1.85-5.41 3.367-8.326 4.162-1.328 1.328-1.072-1.1-3.33-1.665-3.448-1.842-4.89-3.226-8.326-4.163-1.683-2.97-3.584-5.274-5.828-8.326-1.734-2.818-3.382-3.838-5.828-6.66-1.17-1.754-4.16-1.83-5.827-3.33-1-3.002-3.168-8.57-2.497-11.656 1.68-1.586 2.632-7.243 4.995-8.326 3.367-2.525 4.635-0.223 9.16 0 4.258 0-5.867-6.71-1.666-6.66 3.92-0.666 4.387-2.595 5.827-4.996h9.99z" fill-rule="evenodd" transform="matrix(.2 0 0 .15 285.64 190.05)" stroke="#000" stroke-width="4.464" fill="#009200"/>
<path stroke="#006800" stroke-width="4.05" fill="none" d="m382.98 253.1c0.878 0.713 4.684 2.498 8.326 2.498 3.976 0.728 4.843 2.216 5.828 5.828 2.174 1.304 3.55 1.665 7.493 1.665 4.36 0.872 4.322 2.213 7.493 4.996m-53.28 31.63c1.812 0.266 8.154 0.832 12.488 0.832 3.333-1.924 4.912-3.24 7.493-4.995 3.944 0 5.32 0.36 7.495 1.665 2.105 0.702 7.052 0.963 9.158 1.665 0 1.11-0.278 0.833 0.832 0.833m-5-13.32c0.065-0.025 3.252-1.946 5.828-2.498 2.835-1.976 5.946-2.94 9.158-4.163 2.117-0.46 7.102-0.45 8.326-0.833m17.48-5v0.833c0-2.327-0.104-1.09 1.665 3.33 0.874 4.078 1.95 7.526 3.33 10.823 2.455 3.83 4.058 5.547 7.493 7.493 2.94 2.315 5.164 4.723 8.326 5.827 2.202 1.963 5.106 3.584 8.325 4.996 4.27 0 7.557 0.686 11.655 0.832h2.498m1.67-80.75v0.833c0-2.247 0.055-1.105-0.832 3.33-1.257 2.654-2.705 5.124-4.163 7.493-3.915 1.42-5.374 4.277-6.66 7.493-1.373 2.23-3.506 5.17-4.996 7.492-2.59 3.21-3.623 4.242-8.327 5.828m58.28-14.99c0 0.244-1.537 2.434-2.498 4.996-1.653 2.436-2.075 6.86-2.497 9.99 0 3.618 0.02 7.557 0.832 9.99 2.516 3.122 3.158 4.765 7.493 6.662l-7.49-6.66c2.516 3.12 3.158 4.764 7.493 6.66m57.45-2.5v0.833c0-2.61 0.217-1.006-4.163 2.497-3.252 3-5.572 5.416-8.325 7.493-4.732 1.255-5.455 1.182-9.99 0.833h-7.494m41.63 51.63h-0.832c2.327 0 1.09-0.103-3.33 1.665-3.693 0.923-7.88 0.982-10.824 0-2.966-1.68-5.955-3.055-8.326-5.828-1.24-0.93-1.42-1.306-2.497-1.665m-3.33 31.64v-0.833c0 2.61 0.217 1.006-4.163-2.498-1.872-2.754-3.748-3.795-7.493-6.66-3.236-3.914-3.66-5.482-4.995-9.992-0.357-3.323-1.456-6.734 0-9.158m-44.96 14.98c1.81 0 8.56-0.16 11.656-0.833 2.418-1.643 5.094-2.746 8.326-4.162 1.764-4.36 3.27-5.81 3.33-10.824m-74.1-9.15c-0.652-1.483-3.544-7.436-4.995-10.823-0.065-3.638-0.833-6.285-0.833-9.99m-106.57 47.45c0.84 0.126 4.375 0.403 6.66 0 3.635-1.86 7.022-2.205 10.823-2.498 1.933-1.16 5.086-1.03 6.66-2.497 3.475-2.316 3.938-4.645 5.83-8.326 0.166-1.674 0.664-2.49 0.83-4.164m24.15 5c-1.828 0-8.658 0.125-12.49-0.833-1.966-1.273-3.362-3.364-4.994-4.995 1.11 0 0.833 0.277 0.833-0.833m26.64-17.48c0.353-0.106 4.485-1.665 7.493-1.665 1.79-1.158 4.76-2.237 7.493-3.33 1.48-0.797 2.504-1.787 4.163-2.498m-119.89 40.79h0.833c-2.25 0-1.1 0.053 3.33-0.833 5.18-0.32 8.666-2.11 12.49-3.33 2.495-2.318 5.938-4.635 8.324-5.828 0-1.424-0.34-1.275 0.833-1.666m185.67-34.13h0.833c-2.328 0-1.09-0.103 3.33 1.665 3.517 1.346 6.695 1.78 9.99 2.498 2.994 0.73 4.128 1.665 8.326 1.665 4.19 1.826 5.103 2.397 8.325 4.995 2.465 1.168 4.22 1.665 8.326 1.665 2.18-1.206 6.162-2.61 8.326-3.33 1.21-0.908 1.293-0.55 1.665-1.665" transform="matrix(.2 0 0 .2 285.64 179.15)"/>
<path stroke="#000" stroke-width="1pt" fill="none" d="m430.94 469.54v18.84c0 6.016-0.557 11.276-2.355 16.483 0 5.875-0.077 11.554-2.355 15.306-0.4 5.617-1.177 10.478-1.177 16.483-1.705 5.116-1.504 12.044-2.355 17.662-0.738 5.508-1.393 12.06-2.355 16.484-1.754 3.683-4.745 10.348-7.064 12.95-0.29 5.085-1.533 7.588 0 11.775 1.64 4.922 1.176 10.85 1.176 16.484 1.537 4.61 1.178 10.003 1.178 15.305m21.19-134.22c0.358 2.36 2.118 10.873 2.355 16.484v25.904c0 6.3 0.532 11.85 1.178 17.66-0.084 6.944-1.346 9.54-4.71 15.308-0.662 5.56-1.693 10.924-2.355 16.484-1.64 4.923-1.177 10.85-1.177 16.484 1.405 6.322 3.704 7.453 4.71 12.95 0 3.36 0.32 5.067 1.178 7.066m9.42-85.94c0 2.155-0.14 12.532 1.178 16.484 0 6.023 1.106 10.544 1.177 16.484-0.714 5.28-1.453 9.084-4.71 11.774-2.144 4.358-3.314 8.235-3.532 14.13 3.043 2.13 6.35 8.078 9.42 10.596 2.566 5.36 4.955 5.59 5.887 11.774 2.458 2.732-1.733 4.154 0 5.887 1.91 2.547 0.687 1.468 0 3.532" transform="matrix(.2 0 0 .2 288.36 178.53)"/>
<path d="m93.248-106.57l15.982 25.596 30.16 1.046-14.17 26.642 14.17 26.642-30.16 1.045-15.982 25.599-15.986-25.6-30.16-1.044 14.175-26.642-14.175-26.642 30.16-1.046z" fill-rule="evenodd" transform="matrix(.16 0 0 .15 369.58 198.54)" stroke="#000" stroke-width="3.125" fill="#ffd100"/>
<path d="m93.248-106.57l15.982 25.596 30.16 1.046-14.17 26.642 14.17 26.642-30.16 1.045-15.982 25.599-15.986-25.6-30.16-1.044 14.175-26.642-14.175-26.642 30.16-1.046z" fill-rule="evenodd" transform="matrix(.16 0 0 .15 349.7 198.54)" stroke="#000" stroke-width="3.125" fill="#ffd100"/>
<path d="m93.248-106.57l15.982 25.596 30.16 1.046-14.17 26.642 14.17 26.642-30.16 1.045-15.982 25.599-15.986-25.6-30.16-1.044 14.175-26.642-14.175-26.642 30.16-1.046z" fill-rule="evenodd" transform="matrix(.16 -.02 .02 .15 332.67 203.68)" stroke="#000" stroke-width="3.125" fill="#ffd100"/>
<path d="m93.248-106.57l15.982 25.596 30.16 1.046-14.17 26.642 14.17 26.642-30.16 1.045-15.982 25.599-15.986-25.6-30.16-1.044 14.175-26.642-14.175-26.642 30.16-1.046z" fill-rule="evenodd" transform="matrix(-.16 -.02 -.02 .15 418.3 203.19)" stroke="#000" stroke-width="3.125" fill="#ffd100"/>
<path d="m93.248-106.57l15.982 25.596 30.16 1.046-14.17 26.642 14.17 26.642-30.16 1.045-15.982 25.599-15.986-25.6-30.16-1.044 14.175-26.642-14.175-26.642 30.16-1.046z" fill-rule="evenodd" transform="matrix(-.15 -.05 -.05 .14 433.58 213.41)" stroke="#000" stroke-width="3.125" fill="#ffd100"/>
<path d="m93.248-106.57l15.982 25.596 30.16 1.046-14.17 26.642 14.17 26.642-30.16 1.045-15.982 25.599-15.986-25.6-30.16-1.044 14.175-26.642-14.175-26.642 30.16-1.046z" fill-rule="evenodd" transform="matrix(.15 -.05 .05 .14 316.85 212.43)" stroke="#000" stroke-width="3.125" fill="#ffd100"/>
</g>
</svg>
