<svg xmlns="http://www.w3.org/2000/svg" xmlns:xlink="http://www.w3.org/1999/xlink" viewBox="0 0 750 375">
<defs>
<linearGradient id="b">
<stop stop-color="#d5dfff" offset="0"/>
<stop stop-color="#FFF" offset="1"/>
</linearGradient>
<linearGradient id="a">
<stop stop-color="#474747" offset="0"/>
<stop stop-color="#f50" offset="1"/>
</linearGradient>
<linearGradient id="f" x1="215.83" xlink:href="#a" gradientUnits="userSpaceOnUse" y1="102.99" gradientTransform="matrix(.74087 0 0 1.3286 40.513 .006)" x2="228.97" y2="102.99"/>
<linearGradient id="c" x1="109.34" xlink:href="#a" gradientUnits="userSpaceOnUse" x2="110.94" gradientTransform="matrix(1.5101 0 0 .65184 40.513 .006)" y1="218.47" y2="173.45"/>
<linearGradient id="d" x1="125.91" gradientUnits="userSpaceOnUse" x2="126.02" gradientTransform="matrix(1.2315 0 0 .79928 40.513 .006)" y1="316.38" y2="337.23">
<stop stop-color="#b50000" offset="0"/>
<stop stop-color="#ffc500" offset="1"/>
</linearGradient>
<linearGradient id="g" x1="117.6" xlink:href="#b" gradientUnits="userSpaceOnUse" x2="78.221" gradientTransform="matrix(2.5627 0 0 .384 40.513 .006)" y1="1040.4" y2="1003.7"/>
<linearGradient id="h" x1="264.72" xlink:href="#b" gradientUnits="userSpaceOnUse" x2="255.03" gradientTransform="matrix(.88634 0 0 1.1105 40.513 .006)" y1="245.98" y2="226.38"/>
<linearGradient id="e" x1="407.87" xlink:href="#b" gradientUnits="userSpaceOnUse" x2="456.4" gradientTransform="matrix(.55904 0 0 1.7607 40.513 .006)" y1="149.38" y2="147.35"/>
</defs>
<path fill="#00247d" d="M0 0h750v375H0z"/>
<path d="M0 0v20.963L333.073 187.5h41.925v-20.963L41.925 0H0zm374.998 0v20.962L41.925 187.5H0v-20.963L333.073 0h41.925z" fill="#FFF"/>
<path d="M156.25 0v187.5h62.5V0h-62.5zM0 62.5V125h374.998V62.5H0z" fill="#FFF"/>
<path d="M0 75v37.5h374.998V75H0zM168.75 0v187.5h37.5V0h-37.5zM0 187.5L125 125h27.95l-125 62.5H0zM0 0l125 62.5H97.05L0 13.976V0zm222.05 62.5L347.047 0h27.95l-125 62.5h-27.95zm152.948 125l-125-62.5h27.95L375 173.523V187.5z" fill="#cf142b"/>
<path stroke="#000" stroke-width=".828" d="M552.668 265.56s-2.08 5.49-3.266 5.49-5.49-2.373-5.49-2.373-3.117 5.05-4.75 5.34c-1.634.3-5.937-.738-5.937-.738s-4.155 0-4.304-.6c-.14-.59.15-1.78.15-1.78s-5.93 4.74-7.27 4.44c-1.33-.29-5.79-5.93-5.79-5.93l-.74 2.97-8.46-.3-7.42-4.75s-4.15 6.82-4.3 6.67-7.27 1.63-7.27 1.63l-.44-1.34-4.75-2.82s3.71-5.19 3.71-5.34-1.78-.75-1.78-.75l-2.67 2.23-5.49 3.56-5.49-2.52 2.38-4.46.3-3.27 4.31-6.53 52.68-51.2 25.97 47.93-3.86 14.39z" fill="#6a4c2d"/>
<path stroke="#000" stroke-width=".828" d="M590.096 268.665l13.712-.497-5.838-2.88 52.25-1.97-7.382-2.813-6.54-8.862-27.075-2.037s-2.037-1.546-5.347-.776c-.137-2.105-2.67-4.85-2.67-4.85l-16.668-1.267-10.408 7.104 7.03 18.003 8.936.845z" fill="#FFF"/>
<path stroke="#000" stroke-width="1pt" d="M121.32 150.76l2.22-7.56s3.89-6.56 3.89-9.46c0-2.89 2.9-6.33 2.9-6.33s8.89-2.56 10.78 2.89c9.57-14.46 20.8-.67 20.8-.67l3.11-3.67 6.34-7.78s9.01 8.45 9.12 9.89c.11 1.45 1.55.45 1.55.45l9.79-.78s4.64 3.64 3.67 10.56c3.45 2.04 6.56 14.01 6.56 14.01l-80.73-1.55z" fill="url(#c)" transform="matrix(.62 0 0 .62 461.4 21.482)"/>
<path stroke="#000" stroke-width=".62pt" d="M589.895 170.728c1.048-.638 4.346-1.686 3.943-6.51s-4.582-5.387-6.913-5.226c-2.337.16-4.427 2.17-4.427 2.17l-7.72-4.904s3.864-24.366 7.962-25.892c3.894-2.808 4.582-4.023 4.582-4.662 0-.645-1.445-2.257-1.445-2.257l-25.172-2.976-23.8 2.82s-1.85 2.82-1.607 3.95c.242 1.12.322 2.33 4.582 5.63 4.718 3.63 7.96 24.45 7.96 24.45s-6.67 3.3-7.074 2.89c-.403-.39-2.412-.8-3.46-.64-1.04.16-4.5 1.93-4.5 6.51 0 4.59 3.46 7.25 3.46 7.25s22.753-2.65 26.132 3.62c3.298-7.56 24.924-4.9 27.497-6.19z" fill="#656263"/>
<path stroke-linejoin="round" stroke="#000" stroke-width=".775" d="M614.41 145.4s.254-2.646 2.14-3.905c1.89-1.258 14.482-1.89 17.508 0 3.02 1.89 4.154 11.21 4.154 11.21s1.89 3.274 2.015 5.667.378 4.03.378 4.03 10.075 13.1 10.2 24.936c1.133 8.06.88 29.593-2.264 37.777-.13 10.205-4.4 16.876-4.4 16.876s1.01 1.77.88 3.66c-.13 1.89-1.13 3.65-1.13 3.65l14.73 7.31-5.41-2.01s5.54 4.67 5.41 4.54c-.12-.13-6.17-2.9-6.17-2.9l3.66 3.66c-.12-.12-8.94-4.03-8.94-4.03s4.16 3.91 3.91 3.78l-6.68-3.15s4.03 4.29 3.91 4.03-5.79-2.51-5.79-2.51l.25 2.14s-4.53-.25-4.53-3.65c-2.27-1.25-3.77-3.02-3.77-3.02l-10.45-1.76-11.84-35.39 2.77-59.82.76-3.02-1.25-8.06z" stroke-opacity=".979"/>
<path stroke="#000" stroke-width=".821" d="M606.5 336.566s-6.065-12.753-9.084-12.933c-2.728-5.202 9.48-47.715 33.095-50.14 12.99 1.067 1.07 14.967-7.47 10.69 1.07 3.738 5.34 9.088 5.34 9.088s-16.89 7.31-21.87 43.3z" fill="#fb0"/>
<path stroke="#000" stroke-width=".62pt" d="M525.204 338.426s5.022-14.52 8.066-14.7c3.05-.18-8.066-48.39-32.26-48.75-13.084 1.078-1.075 15.053 7.528 10.75-1.075 3.77-5.377 9.145-5.377 9.145s17.03 7.35 22.05 43.56z" fill="#fb0"/>
<path stroke="#000" stroke-width=".62pt" d="M547.4 247.74c-.062-.12-6.008 1.865-2.157 8.338.29-2.505 2.97-4.024 2.97-4.024s-4.08 4.842.235 8.922c.527-3.85 2.976-5.072 2.976-5.072s-3.032 8.922.056 10.726c.353-3.56 2.622-5.127 2.622-5.127s-2.74 7.985-.29 9.79c.29-3.026 2.33-4.372 2.33-4.372s-1.22 8.29 1.984 8.87c.062-2.92 2.393-5.77 2.393-5.77s-1.06 6.76 3.96 7.06c.06-2.56.99-5.48.99-5.48s2.27 7.17 5.6 6c-.06-2.09.05-6.06 0-6.06-.07 0 2.09 6.82 6.06 5.55-.58-1.93.23-4.2.23-4.2s2.1 4.26 5.89 2.86c.64-1.28-.18-3.79-.18-3.79s5.53 5.72 7.23 2.28-4.44-4.6-4.44-4.6H590s-1.34-3.5-6.94-4.26c1.92-.87 3.905-.23 3.905-.23s-1.166-4.37-6.88-4.84c2.22-.76 4.67-.23 4.67-.23s-.767-4.14-7.06-5.31c.992-1.11 3.67-.75 3.67-.75s-2.504-3.9-5.36-3.67c-2.86.23-28.69-2.62-28.627-2.57z" fill="#00713d"/>
<path d="M572.876 268.788s2.275 1.11 2.22 2.1m-.876-3.905s2.915 2.04 2.86 3.553m-.298-4.606s2.337 1.456 2.45 3.732m1.456-2.796s1.172 2.504.763 2.97m1.58-1.63c.18 1.983-.18 2.156-.18 2.156m-28.57-14.694s2.74 1.75 2.51 4.198m-2.68-2.096s1.29 1.222.99 2.04m2.4-4.08s1.81 2.505 1.22 4.254m1.87-2.624s.82 1.576.06 2.45m1.4-1.693s.99 1.575.12 2.102m-1.22 3.08s2.56.58 2.92 2.5m-1.4-4.26s2.69.17 2.98 3.03m.59-4.03c.06 0 1.81 3.09 1.52 4.08m1.93-3.79s.7 2.97.18 3.9m2.04-2.74l.06 3.44m-3.43-8.11s1.69.64 1.57 2.27m0-3.8s2.16 1.23 1.93 3.56m.59-4.55s1.87 2.21 1.17 4.66m2.1-4.15s-.69 2.74-.41 3.85m2.4-1.98s-1.22.94-.58 2.1m-10.07 8.6s.4 2.1 0 2.45m-2.68-3.67s1.34 2.33.88 3.5m-3.74-3.62s1.52 1.75 1.45 3.15m-3.79-2.8s1.4 1.34 1.28 2.1m-2.51-.07s1.34 1.4 1.28 1.69" stroke-width=".775" stroke="#3ec26d" stroke-linecap="round" fill="none"/>
<path stroke="#000" stroke-width=".62pt" d="M528.893 173.246c6.43-.118 12.86-.23 19.288-.348 0 0 12.75 0 14.12 4.136 2.41-5.512 13.43-5.165 13.43-5.165l19.97-.69c.12 16.07.23 32.14.35 48.21-3.9 18.7-17.44 31.91-32.37 37.53-17.79-5.74-29.04-20.78-32.71-37.88l-2.07-45.8z" fill="#FFF"/>
<path stroke="#000" stroke-width=".62pt" d="M535.763 173.066l28.092 74.86 25.377-76.49c-7.874.508-24.763-1.24-26.86 5.94-3.248-6.424-21.017-3.833-26.61-4.31z" fill="#006b00"/>
<path stroke-width=".427" stroke="#006b00" stroke-linecap="round" d="M554.884 213.595c1.085.564 1.054-20.317 2.473-20.962.403-1.73.608-2.486 1.116-4.32-1.22-2.165-6.69-2.06-8.717-.218.912 2.914 1.315 3.887 1.315 3.887 2.74 4.433 2.2 22.084 3.82 21.613z" fill="#ffc900"/>
<path stroke-linejoin="round" stroke="#000" stroke-width=".775" d="M547.357 52.202s1.99-2.256 2.077-2.796c.093-.542 9.02-.903 14.34-10.824 2.976-5.232 0-2.165 0-2.165l-.18-2.526s3.702-3.51 2.35-5.41c-1.357-1.89-.905 2.44-3.07 2.35s-.99-4.69-.99-4.69-.18-.54-.813-.81c-.9.09-.63 1.72-1.44 1.9-.81.18-1.53-3.79-1.53-3.79s-1.35-1.8-2.53 3.88c.64 6.05 4.52 4.87 4.52 8.84 0 3.97-3.43 7.04-4.42 7.13-.99.09-.63-3.33-.63-3.33s-.54-1.62-.9-1.62 1.99-.36 1.63-4.87c-.81-5.41-1.44 1.26-2.89.99-1.44-.27-.36-4.96.18-5.5s-.63-2.79-3.79 2.98c-.27 2.8-.63-.72-1.26-.54-1.08 2.25-.9 3.88.63 5.95 2.26 2.08 3.7 4.15 3.61 5.23-.09 1.09-1.26 3.52-2.88 3.52-1.62 0 .09-2.97 0-3.97-.09-.99-2.79-4.6-2.79-4.6s-1.9-3.06-1.72-3.15c.18-.09-.18-.54-1.08 2.61-.9 3.16-1.99-2.07-1.99-2.07s-1.26 3.88 1.45 6.22c-2.07-.27-2.25.54-2.25.54 0 1.09 2.8 1.54 3.16 3.43.36 1.9-2.89 2.98-2.89 2.98s1.36 1.9 5.14-1.8c.09 2.35-1.44 3.97-1.44 3.97 1.26.57 2.25.51 2.43 1.99z" fill="#cdad56"/>
<path stroke-linejoin="round" stroke="#000" stroke-width=".681" d="M534.982 52.202s-1.687-2.503-1.76-2.996c-.082-.492-8.297.622-12.183-9.398-2.53-4.76 0-1.97 0-1.97l.15-2.298s-2.69-3.29-1.54-5.015.67 2.216 2.15 2.224c1.83-.09.84-4.27.84-4.27s.15-.49.69-.74c.76.08 1.08 2.55 1.77 2.71s2.11-2.91 2.56-3.54c.63-.09.61-2.55 1.6 2.62-.54 5.5-5.09 4.43-5.09 8.04 0 3.61 2.91 6.4 3.75 6.48.84.08.54-3.04.54-3.04s.46-1.48.76-1.48c.31 0-2.68.57-2.37-3.53.68-3.85 2.21.24 3.44 0 1.22-.25-.15-4.07.21-4.65.08-.59 1.88-3.09 2.58 2.43.23 2.54 1.61-2.19 2.15-2.03.92 2.05-.41 4.79-1.71 6.68-1.92 1.88-2.79 3.95-2.71 4.94.08.98.53 2.2 1.91 2.2s.47-1.72.54-2.62 2.38-3.82 2.38-3.82c.45-.72.07-2.07.55-2.69.75 0 1.06-1.04 1.82 1.83.77 2.87 1.68-1.89 1.68-1.89s1.07 3.53-1.23 5.66c1.76-.25 1.91.49 1.91.49 0 .98-.84 1.39-1.15 3.11s.92 2.71.92 2.71-1.15 1.72-4.37-1.64c-.08 2.13 1.23 3.61 1.23 3.61-1.08.52-1.92.47-2.07 1.81z" fill="#cdad56"/>
<path d="M584.544 184.232c-1.68-1.525-1.878-.192-2.703-.533-.4-.17-.72-.55-1.07-.9-.3-.32-.67-.45-1.07-.62-.15.45-.3.9-.46 1.35s.43 1.2.42 1.87c-.11 1-.52 1.84-1.79 2.18.36-.72.57-.75.45-1.62-.05-.44-1.27-1.21-1.12-1.62.22-.66.61-1.43.32-2.09-.51.35-1.19.16-1.71.38-.44.19-.46 1-1.07 1.34-.62.29-1.99.15-3.13-.5.7-.53 1.28-.18 1.98-.7.35-.27.34-1.4.68-1.67.36-.27 1.19-.55 1.54-.81-.31-.36-.3-.93-.61-1.29s-1.7-.29-2.02-.64c-.63-.72-.51-1.66-1.14-2.38 1.63.58 1.4 1.38 1.81 1.31.77-.38 1.54-.44 1.94-.28.41.17 1.18 1.18 1.58 1.34.16-.45.38-1.03.53-1.48.16-.45-.68-1.23-.53-1.69.31-.9 1.07-1.7 1.37-2.61.11.87.26 1.6.37 2.47.05.43.91.66.97 1.1.06.44-.45 1.44-.4 1.88.47-.09 1.15-.03 1.61-.13.47-.09.78-1.18 1.25-1.27.94-.19 1.62-.13 2.56.05-.7.65-1.24.61-1.68 1.2-.34.26.14 1.14-.87 1.75-.37.22-1.37-.05-1.73.22.32.36.64.72.95 1.08.31.36 1.73.52 2.04.88.63.71.96 1.56.79 2.33zm-43.194.738c1.68-1.525 1.878-.192 2.708-.533.403-.174.72-.552 1.073-.893.31-.316.67-.447 1.08-.62.16.452.31.905.46 1.358.16.452-.42 1.196-.41 1.872.12 1.01.52 1.84 1.79 2.19-.36-.714-.56-.752-.45-1.62.06-.434 1.27-1.21 1.12-1.624-.22-.657-.6-1.426-.32-2.09.52.36 1.2.174 1.72.385.44.198.47 1.01 1.07 1.345.63.292 2 .15 3.14-.502-.7-.533-1.27-.173-1.97-.707-.35-.26-.33-1.4-.68-1.66-.34-.26-1.18-.55-1.53-.82.32-.35.3-.92.61-1.28.32-.35 1.71-.28 2.02-.64.63-.71.52-1.65 1.14-2.37-1.63.59-1.39 1.38-1.8 1.32-.77-.37-1.54-.44-1.94-.27-.4.17-1.17 1.17-1.58 1.35-.15-.45-.37-1.02-.52-1.47s.69-1.23.54-1.68c-.3-.9-1.06-1.7-1.37-2.6-.11.87-.25 1.6-.36 2.48-.06.44-.91.67-.97 1.1-.05.44.45 1.45.4 1.88-.47-.09-1.15-.03-1.61-.12-.46-.09-.77-1.18-1.24-1.27-.94-.18-1.61-.13-2.56.05.7.66 1.24.61 1.68 1.21.35.27-.14 1.14.87 1.76.38.23 1.39-.04 1.73.23a80.33 80.33 0 0 0-.94 1.08c-.32.36-1.73.53-2.04.88-.63.72-.97 1.58-.79 2.35z" fill="#ffc900"/>
<path stroke-linejoin="round" d="M583.038 189.056c-1.525 1.184-11.352 3.67-11.458 12.207-.1 8.538 1.724 10.485-.1 10.702-3.545 0-4.054-9.51-3.955-13.727.106-4.216.205-3.565.205-3.565s2.43.645 2.232 2.703c-.205 2.052 2.43-5.084 1.52-7.025 1.617 1.62 3.75.98 3.75.87 0-.1-1.215-1.4-1.724-2.37s1.823.54 1.823.54.1-1.62-1.92-1.51c-2.63 0 .41-.87.41-.87s1.52 1.41 2.54-.1c-1.11-1.19-2.74-1.84-2.74-1.84s-1.42-2.69-3.34-3.23c-2.23-.55-1.92.97-4.46.76-.5.97-.5 1.08.51 1.4-1.72 1.19-.81 3.57-.81 3.57s2.74-1.18 2.64.76c-.1 1.95-1.62 1.62-2.63.43-.91-.54-1.21.54-1.21.54l1.42 1.52s-2.73-.1-3.44 1.73c1.52-.1 2.33.33 2.33.33s-3.14 1.4-3.45 2.16-.4-.86-.5-.86c-.1 0-3.04-1.08-3.04-1.08l-1.01 4.68s2.03 2.03 3.14 1.38c1.12-.64 3.15-2.59 4.36-2.05-3.54 2.71-7.09 6.59-9.02 7.14-.5-.43-2.22-2.16-2.94-1.3-.7.87-.19 1.95.72 1.84.91-.11-2.94.87-2.13 2.49s.71 1.52 1.42 1.08c.71-.43-.61-.54 2.03-1.29s2.54-1.51 2.54-1.51-.51 1.19-1.93 1.51c-1.42.32-2.53.32-2.22.76.3.43.91 1.19.71 1.62s2.94-2.27 3.75-.1c2.13-.11 3.55-2.7 2.54-4.21.1 1.62 1.12 2.17.5 2.92-.6.76 4.77-2.48 2.14-4.43.71 1.62.81 2.92.81 2.92s1.22-.11 1.52-.54c.3-.43-.61 1.19-.2 1.51.41.33 2.33 2.16 1.52 3.46-.5-.76-.61-1.95-1.21-1.84-.61.11-3.14 1.95-4.66 2.06s1.83 5.63 1.83 5.63-2.33-.33-2.64-.11-1.82-1.94-2.13-.64c-.51 1.62.51.97.51.97s-1.32-.64-2.03.11c-.71.76-1.42 1.52-.91 1.84.5.33 2.73.33 3.04.22s-2.54.21-2.74.54c-.2.32-.61 1.51 0 1.94s2.13-.21 2.23-.54c.11-.32.21 1.19.21 1.19s2.64.22 2.64-2.48.21 1.94.21 1.94 2.64.43 2.74-2.27c.1-2.7.3 1.84.3 1.84s1.73-.54 1.73-.97c0-.43-.1 5.4-1.31 7.03-1.93-1.3-3.14.86-3.14.86s.1 3.13-.11 3.89c-.2.76 1.32-.43 1.42-.76.11-.32 1.93-1.18 2.03-1.4.11-.22.61-1.29.61-1.29s-.4 1.52-1.11 1.73c-.71.21-1.42.97-1.11 1.62s1.42 1.08 1.82 1.73c.4.65 1.82-3.78 1.82-3.78l.1.98s1.82-.44 2.03-1.3c.2-.87-1.93-1.62-.2-3.02 1.72-1.4 0 1.3 0 1.3s.61 2.05 1.01 2.05c.41 0 1.42-3.89.41-4.86-1.02-.97 1.52 1.19 1.52 1.19s1.42-4-.1-4.54a69.13 69.13 0 0 0-2.23-.75s.81-1.08.4-1.18c-.4-.11 2.13 2.38 2.53 1.73.41-.64 1.02-2.59-1.92-3.67s-.1-4.11-.1-4.11 1.83 2.16 3.14.97c1.32-1.19-.1-1.19-.1-1.19s3.75-2.38 3.85-3.57c-.71-.1-1.93.11-1.93.11s2.13-1.4 1.62-3.67c-.81 1.2-1.93 1.2-1.93 1.2s1.83-1.84 1.52-3.57c-1.11.86-1.01 1.51-1.72 1.29-.7-.22-1.92-7.02.92-7.46 2.83-.43 1.32 3.35 1.41 3.35.11 0 4.26-1.73 0-4.53 1.02-.33 3.15 1.62 3.15 1.62s-.91-4.75-5.47-1.83c1.11-1.19 1.83-1.95 2.74-1.73s4.15-.11 4.15-1.08c-.81-.65-2.53.32-3.45 0-.91-.33 6.49-.87 5.88-4.54z" stroke="#006b00" stroke-linecap="round" stroke-width=".427" fill="#ffc900"/>
<path d="M481.3 118.54s12.25-6.43 18.37 1.54m4.9 12.24c-.31 0-4.29 3.98-5.21 3.98m13.48 8.88s11.32.92 18.67-10.41" transform="matrix(.3316 0 0 .35352 391.45 150.228)" stroke="#006b00" stroke-linecap="round" stroke-width="1.25" fill="none"/>
<path d="M525.08 141.81s.92 6.13 2.76 6.13c1.83 0-3.06 1.53-4.9.3 2.14 2.76 3.37 7.66 0 9.49" transform="matrix(.3316 0 0 .35352 391.45 150.228)" stroke="#006b00" stroke-linecap="round" stroke-width="1.25" fill="none"/>
<path d="M519.26 218.97s-3.98 4.28-8.88 4.59" transform="matrix(.3316 0 0 .35352 391.45 150.228)" stroke="#006b00" stroke-linecap="round" stroke-width="1.25" fill="#e80000"/>
<path d="M523.86 199.37s-2.45-12.24-.92-15.31c.92-3.98 4.9-5.51 7.96-10.71m-8.27 17.14s-3.06 7.35-16.53 4.9m20.21-23.27s.91 9.8-11.33 6.13m-3.68-50.21s-4.9 4.28-3.06 10.1" transform="matrix(.3316 0 0 .35352 391.45 150.228)" stroke="#006b00" stroke-linecap="round" stroke-width="1.25" fill="none"/>
<path fill="#006b00" d="M567.087 191.703s2.132-.866 2.54-1.3c.404-.432 1.117-1.298 1.32-1.95.202-.646-1.423-1.622-.61-3.028.507-.65 1.216-.758 2.437 0 1.216.756-1.118-2.38-2.335-2.49-1.22-.108-2.04.866-2.34.65-.31-.217.1.866-.41.866s1.01.87.91 1.41c-.11.54 1.62 2.38 1.52 2.82-.11.43-2.54 2.92-3.05 3.03z"/>
<path stroke-linejoin="round" d="M534.27 97.112c2.79-.636 3.24.07 2.75 2.45-1.31-.66-1.79-1.218-2.75-2.45z" transform="matrix(.3316 0 0 .35352 391.45 150.228)" stroke="#ffc900" stroke-linecap="round" stroke-width="1.25" fill="#ffc900"/>
<path stroke-linejoin="round" d="M514.71 233.52s-1.03 6.41 1.49 6.94c-.13-2.48.54-4.17 1.16-4.83-.54-.25-2.53-2.07-2.65-2.11zm-5.68-7.89c-2.32-.33-6.23 1.59-5.11 3.91 1.89-1.62 3.63.13 4.95-1.52.4-.46.29-1.81.16-2.39zm-.02-4.58s-3.65-.58-4.16 1.95c2.52-.32 3.27-.59 4.11-.06.24-.54.01-1.76.05-1.89z" transform="matrix(.3316 0 0 .35352 391.45 150.228)" stroke="#006b00" stroke-width="1.25" fill="#e80000"/>
<path stroke-linejoin="round" d="M493.54 184.94s2.19.82 2.81 3.06c1.74-1.08 2.57-5.83-2.81-3.06zm-5.42 5.45c.09-.04 4.59-2.77 5.05-.16-.95.95-1.37 1.57-2.11 1.78-.58 0-1.74-1.78-2.94-1.62zm-.45 8.85c.08-.04 2.89-2.52 3.97-.87 1.07 1.66-.87 1.57-.87 1.57s-.99-.45-3.1-.7zm-3.97-49.28c-.04 0-3.6-1.37-5.09 1.11 2.36.29 3.19 1.12 4.26 1.95-.29-1.04-.78-2.61.83-3.06zm-6.9 18.56s.16-4.17 2.14-5.87c1.12.62 1.45 1.61 2.2 2.85-1.49.33-3.48.42-4.34 3.02zm9.5-2.98s-3.92 1.82-2.64 3.81c1.28-1.37 2.69-.95 2.69-.99s0-2.77-.05-2.82z" transform="matrix(.3316 0 0 .35352 391.45 150.228)" stroke="#006b00" stroke-width="1pt" fill="#e80000"/>
<path stroke-linejoin="round" d="M480.64 125.6c-1.41 1.58 1.74 5.01 5.04 4.51.83-3.72-4.21-5.66-5.04-4.51z" transform="matrix(.3316 0 0 .35352 391.45 150.228)" stroke="#006b00" stroke-width="1pt" fill="#ffc900"/>
<path fill="none" d="M550.815 192.088c-.23.62.68 1.49 1.207 1.245.213-.637-.968-1.736-1.207-1.245z"/>
<path stroke-linejoin="round" d="M484.28 122.75s.62 2.94 3.47 2.15c-.45-2.27-2.44-3.97-2.44-3.97-.12.67.41 1.7-1.03 1.82zm1.9 8.52s1.57 1.69 4.67-1.78c-1.4.41-3.88-.83-3.88-.83s0 2.4-.79 2.61z" transform="matrix(.3316 0 0 .35352 391.45 150.228)" stroke="#006b00" stroke-width="1pt" fill="#e80000"/>
<path stroke-linejoin="round" d="M480.46 118.86c-1.4 1.57.59 3.76 3.89 3.27.83-3.72-3.06-4.42-3.89-3.27z" transform="matrix(.3316 0 0 .35352 391.45 150.228)" stroke="#006b00" stroke-width="1pt" fill="#ffc900"/>
<path d="M144.62 266.62s7.04-2.01 10.78 1.01c3.73 3.01 3.73.28 3.73.28s5.46 2.01 7.04 1.58-1.15.15 1-1.15c2.16-1.29-4.31.29-4.88-2.44-1.01-1.72.14-3.88-2.15-3.16-1.58-2.01 1-3.44.43-5.6-1.58 1.15-2.45-.43-3.74 2.44-3.01-.57-.43-4.74-3.73-5.17 0 3.02-2.44 3.16-2.59 4.89-1.43 1-7.75 4.74-5.89 7.32z" fill="url(#d)" transform="matrix(.62 0 0 .62 461.4 21.482)"/>
<path stroke="#000" stroke-width=".62pt" d="M500.847 328.742c2.83-.682 18.17 3.39 24.084 9.727-1.25-11.29-4.38-19.94-4.38-19.94s-9.14-2.61-10.39-1.35c-1.84 1.93-7.36 7.74-9.3 11.56zm-4.677-52.155c-1.074.18-2.15.9-3.225 2.69-1.255 3.045-2.15 10.752-3.943 12.544s-3.406 1.98-3.406 3.59c0 1.62.18 5.38 5.02 6.81 4.838.18 12.545-7.7 12.545-7.7s3.95-4.3 5.56-8.96c-9.32 3.23-15.95-5.38-12.54-8.96z" fill="#c01500"/>
<path stroke="#000" stroke-width=".821" d="M630.964 326.944c-2.81-.676-18.32 3.372-24.193 9.672 1.25-11.222 4.36-19.828 4.36-19.828 1.09-.29 8.97-2.592 10.22-1.34 1.83 1.923 7.7 7.7 9.63 11.496zm4.346-51.85c1.066.18 1.445 1.58 2.32 3.366 1.24 3.025 2.522 7.44 4.302 9.22 1.78 1.785 3.38 4.42 3.38 6.025s-.373 3.77-5.178 5.196c-4.8.18-11.762-5.98-11.762-5.98s-3.912-4.27-5.512-8.91c9.25 3.21 15.24-5.04 12.45-8.91z" fill="#c01500"/>
<path stroke="#000" stroke-width=".62pt" d="M490.794 318.89s9.678 6.628 9.858 9.678c25.99-38.54 92.306-50.55 130.12-2.69 5.022-6.635 10.217-8.78 10.217-8.78-39.79-51.98-119.01-45.527-150.2 1.792z" fill="#fb0"/>
<g stroke="#000" stroke-width="1pt" fill="#1e5aa6">
<path d="M589.6 171.69l3.794-.094-6.776 8.583 8.13 9.48-15.99 20.14 15.09 18.16c-1.66 4.06-3.584 7.77-6.15 11.11l-8.668-9.58 15.717-19.6-12.916-14.64 7.77-23.58zm-54.208 1.713l-4.067.094 7.588 8.215-8.036 10.03 16.712 18.164-13.83 18.518c1.66 4.068 4.03 8.582 6.59 11.923l8.22-10.39-16.89-18.79 12.37-15.718-8.68-22.05z" stroke-width=".828"/>
<path d="M554.184 222.19l-5.962 7.948 21.32 24.666c3.762-1.9 6.718-4.067 9.94-6.682l-11.115-12.83 4.52-13.283 6.503 7.49-20.325 25.93c-3.403-1.45-7.167-3.71-10.57-6.51l10.75-13.64-5.06-13.11zm-6.594-12.377l3.886 4.88-2.534-6.594-1.353 1.71z" stroke-width=".828"/>
<path stroke-width=".802" d="M575.416 214.13c.08-.095 3.136-4.162 3.136-4.162l-1.186-1.62-1.95 5.78z"/>
</g>
<g font-size="14" font-family="Timmons" font-weight="bold">
<text y="362.397" x="-328.344" transform="rotate(-49.56 253.97 -489.032) scale(.62)">
<tspan y="362.397" x="-328.344">L</tspan>
</text>
<text y="384.266" x="-292.335" transform="rotate(-45.4 256.382 -540.873) scale(.62)">
<tspan y="384.266" x="-292.335">E</tspan>
</text>
<text y="451.681" x="-239.78" transform="matrix(.4737 -.33822 .35254 .46837 461.4 21.482)">
<tspan y="451.681" x="-239.78">O</tspan>
</text>
<text y="429.958" x="-188.526" transform="matrix(.51446 -.3478 .3478 .51446 461.4 21.482)">
<tspan y="429.958" x="-188.526">T</tspan>
</text>
<text y="451.479" x="-115.426" transform="matrix(.56 -.268 .268 .56 461.4 21.482)">
<tspan y="451.479" x="-115.426">E</tspan>
</text>
<text y="453.046" x="-94.111" transform="rotate(-24 281.258 -1075.176) scale(.62)">
<tspan y="453.046" x="-94.111">R</tspan>
</text>
<text y="454.982" x="-68.371" transform="rotate(-21.9 286.188 -1181.05) scale(.62)">
<tspan y="454.982" x="-68.371">R</tspan>
</text>
<text y="445.666" x="112.016" transform="matrix(.62 -.052 .052 .62 461.4 21.482)">
<tspan y="445.666" x="112.016">R</tspan>
</text>
<text y="430.793" x="180.225" transform="matrix(.62 0 0 .62 461.4 21.482)">
<tspan y="430.793" x="180.225">R</tspan>
</text>
<text y="275.217" x="414.759" transform="rotate(29.64 190.11 882.52) scale(.62)">
<tspan y="275.217" x="414.759">R</tspan>
</text>
<text y="193.05" x="483.878" transform="rotate(39.8 201.03 648.008) scale(.62)">
<tspan y="193.05" x="483.878">E</tspan>
</text>
<text y="414.028" x="309.116" transform="matrix(.59837 .11248 -.09645 .5911 461.4 21.482)">
<tspan y="414.028" x="309.116">O</tspan>
</text>
<text y="459.272" x="105.058" transform="matrix(.56007 -.08172 .08475 .60547 461.4 21.482)">
<tspan y="459.272" x="105.058">O</tspan>
</text>
<text y="455.835" x="-45.708" transform="rotate(-20.3 290.72 -1278.406) scale(.62)">
<tspan y="455.835" x="-45.708">A</tspan>
</text>
<text y="144.724" x="518.35" transform="rotate(45.196 204.897 565.016) scale(.621)">
<tspan y="144.724" x="518.35">A</tspan>
</text>
<text y="388.298" x="271.188" transform="rotate(11.357 122.69 2331.003) scale(.621)">
<tspan y="388.298" x="271.188">A</tspan>
</text>
<text y="455.168" x="40.322" transform="matrix(.61 -.115 .115 .61 461.4 21.482)">
<tspan y="455.168" x="40.322">M</tspan>
</text>
<text y="448.079" x="94.429" transform="matrix(.618 -.064 .064 .618 461.4 21.482)">
<tspan y="448.079" x="94.429">P</tspan>
</text>
<text y="437.607" x="155.088" transform="matrix(.62 0 0 .62 461.4 21.482)">
<tspan y="437.607" x="155.088">P</tspan>
</text>
<text y="276.665" x="405.134" transform="rotate(29.5 189.9 887.032) scale(.62)">
<tspan y="276.665" x="405.134">P</tspan>
</text>
<text y="409.793" x="232.095" transform="rotate(6.586 44.083 4020.832) scale(.621)">
<tspan y="409.793" x="232.095">I</tspan>
</text>
<text y="132.089" x="530.392" transform="rotate(46.6 205.75 546.6) scale(.62)">
<tspan y="132.089" x="530.392">T</tspan>
</text>
<text y="218.519" x="464.158" transform="rotate(36.82 198.426 703.928) scale(.62)">
<tspan y="218.519" x="464.158">T</tspan>
</text>
<text y="361.961" x="313.725" transform="rotate(16.4 156.218 1610.5) scale(.62)">
<tspan y="361.961" x="313.725">M</tspan>
</text>
<text y="123.248" x="513.704" transform="rotate(47.66 206.38 533.067) scale(.62)">
<tspan y="123.248" x="513.704">G</tspan>
</text>
</g>
<path d="M620.083 146.065s3.745-3.206 6.41-3.3m-5.87 2.853c.086-.086 22.35-3.205 23.057-3.918m-22.97 4.098c.086-.093 24.93-2.14 24.93-2.14m-25.018 2.227s26.443-1.246 28.05.093m-28.142-.18s25.915.18 26.362.8m-26.27-.8l24.93 2.046m-25.196-1.866c.086 0 25.376 2.226 27.87 5.43m1.332 4.54c-.087-.087-8.637-10.243-29.295-10.063m.093.18s14.334.98 18.872 5.964m-18.606-6.15s9.257-1.78 18.966 9.89" stroke-width=".62pt" stroke="#fff700" stroke-linecap="round" fill="none"/>
<path stroke="#000" stroke-width="1pt" d="M247.4 217.74s20.72.82 20.72 2.85-15.44 5.89-15.64 14.42 11.78 9.14 12.59 19.9c.81 10.77-9.34 12.39-11.37 15.24-2.04 1.42-6.91 16.65-6.3 25.59s3.25 39.2 7.92 45.3c3.66 2.84 9.14 11.98 15.03 9.14 5.89-2.85 1.83-13.2 1.22-16.05-.61-2.84 2.44-7.51 2.44-11.78s-2.24-7.72-2.03-8.73c.2-1.02 16.45 3.86 15.43 19.9-1.01 16.05-7.51 11.17-7.51 11.17s2.03 19.71-3.05 22.35c-9.14 4.87-15.84-1.02-15.84-1.02l.86 4.01-6.95-3.6s-8.94-12.8-10.97-18.49c-2.03-5.68-4.47-31.07-3.66-36.56.81-5.48 1.42-37.58 1.02-39.2-.41-1.63-2.03-28.44-1.02-32.5 1.02-4.06 7.31-21.94 7.11-21.94z" fill="url(#e)" transform="matrix(.62 0 0 .62 461.4 21.482)"/>
<path stroke="#000" stroke-width=".62pt" d="M600.937 153.207s8.94-8.686 14.105-7.682c2.64 0 .124 1.89.124 1.89s4.532.38 5.165 2.395c.13.88-2.14 1.134-2.14 1.134s1.89.378 2.02 2.015c.13 1.63-19.14.37-19.26.24z" fill="#ff7000"/>
<path stroke="#000" stroke-width=".62pt" d="M601.44 152.83s9.572-1.26 13.602-5.29m-3.906 2.648s7.05-.254 7.05.756" fill="none"/>
<path stroke-linejoin="round" stroke="#000" stroke-width=".775" d="M636.197 253.2s6.045-1.388 7.68-3.527c1.012-.756 6.3 7.936-7.68 3.528z" fill="#FFF"/>
<path stroke-width=".775" stroke="#FFF" stroke-linecap="round" d="M634.56 203.204s.756 4.662-1.383 7.806c-1.134 1.258-4.538 3.404-4.538 4.916 0 1.507 1.25 3.522 1.01 5.29-.26 1.76-2.14 3.527-2.02 5.033 0 1.51 2.14 9.57 1.88 9.69m-6.04-47.85s-4.79 1.63-5.8 6.42" fill="none"/>
<path stroke="#000" stroke-width=".62pt" d="M621.46 150.188s1.642 4.532 6.93.248c-3.403-4.656-6.93-.124-6.93-.248z" fill="#c75b00"/>
<path d="M625.632 150.204c0 .244-.254.442-.568.442s-.567-.198-.567-.442c0-.243.254-.44.567-.44s.568.197.568.44z"/>
<path stroke="#000" stroke-width=".62pt" d="M578.214 139.666s10.032 10.857 16.523 10.74c1.178 3.186-2.95 6.15-4.6 7.563-3.305-1.06-6.293.19-13.963-9.25.478-6.02 2.158-8.83 2.04-9.06zm13.572-25.252c1.296-4.012 3.894-7.198 6.132-7.552-.59-3.07 4.724-16.634 20.18-21.83.943 6.963-6.608 13.807-6.608 13.807s22.772-3.9 27.373-9.68c-.472 2.6-5.072 18.76-29.382 18.64 9.21 8.73-2.94 15.7-8.14 13.57 9.56-7.32-2.71-11.68-9.55-6.96z" fill="#FFF"/>
<path stroke="#CCC" stroke-width=".62pt" d="M599.573 108.753c4.6-2.95 6.25-2.95 10.032-2.362-2.716.36-2.716.48-2.716.48s-.24.36 1.41 1.89c-1.89-.47-3.54-1.53-8.73 0z" fill="#cccccd"/>
<path stroke="#000" stroke-width=".62pt" d="M597.8 106.862s9.09-4.836 14.16-8.14" fill="none"/>
<path stroke="#000" stroke-width=".62pt" d="M590.013 157.956s12.51 3.423 13.925-14.514c-2.716-7.787-6.49-24.546-.707-29.382-5.31-3.658-11.09.118-11.09.118-.35.825-5.07 7.552 1.3 19.35-15.1-4.01-8.96 10.268-8.96 10.268.59-2.245 8.62-4.365 10.62 7.08.83 2.833-5.43 7.198-5.07 7.08z" fill="#00F"/>
<path stroke="#000" stroke-width=".62pt" d="M604.056 143.56s13.218-7.08 12.86-23.715c-11.21.236-15.222 14.744-15.222 14.744l2.362 8.97z" fill="#00F"/>
<path stroke="#000" stroke-width=".62pt" d="M544.82 142.735s-9.79 8.494-15.338 5.78c-4.13 2.48-8.966-1.886-8.966-1.886s5.662 20.88 25.96 5.77c-.353-4.6-1.42-9.32-1.655-9.67z" fill="#FFF"/>
<path stroke="#000" stroke-width=".62pt" d="M529.364 148.16c.825-4.364 4.247-6.49 6.963-2.362 3.658.713 7.316-14.272-5.667-11.798 3.658-19.586-7.313-26.902-7.313-26.902s-3.893 21.712-2.124 25.724c1.77 4.01-2.595-7.434-16.637-10.62-.236 16.404 15.694 24.074 15.694 24.074s4.484 4.13 9.084 1.884z" fill="#00F"/>
<path stroke="#000" stroke-width=".62pt" d="M530.66 133.882s-6.132 5.195-4.718 12.276m-4.6-12.983s-1.416 5.072 1.65 12.27m-2.595 1.655s2.832-4.6 8.967 1.296" fill="none"/>
<path stroke="#000" stroke-width=".62pt" d="M521.577 115.238c0-.117-9.32 0-3.776 9.443-4.12 1.3-13.33-4.71-6.96-12.74-20.88-.47-29.38-10.49-29.38-19.7 6.14 6.38 20.77 3.78 25.96 7.67-6.37-5.89-5.07-14.04-5.07-14.04s17.82 5.32 21.01 21.13c-1.06 3.07-1.53 8.5-1.77 8.26z" fill="#FFF"/>
<path stroke="#000" stroke-width=".62pt" d="M507.244 99.49c3.44 3.497 12.273 4.545 16.757 8.44" fill="none"/>
<path stroke="#CCC" stroke-width=".588" d="M511.312 109.813s7.314-.942 9.434 1.65c-2.862 0-3.816-.707-7.95.83 1.166-.595.848-1.655 1.484-1.655s-2.65-.825-2.968-.825z" fill="#cccccd"/>
<path stroke="#000" stroke-width=".62pt" d="M547.772 52.585s4.012-3.54 8.376-.354c-1.97 5.9-9.083 3.66-9.083 3.66s.236 2.95-.47 4.37c1.42 1.07 2.59 4.61 2.59 4.61s7.317-1.77 8.854 1.42c2.8-.38 4.83 0 4.83 0s5.66-1.41 7.67-1.41 8.37 1.65 8.96 2.83c.59 1.18 2.71 9.09 4.13 8.97 1.41-.12-3.42 1.89-4.73-.12-1.3-2-.94 2.6-.94 2.6s4.01 4.25 4.48 5.19c.47.95-2.48 8.62-.24 13.93-1.97.18-2.12 2.24-2.12 2.24-.12 2.34-3.07 2.95-3.07 2.95l-.71-3.18-2.01 1.19.82-2.48s2.71-6.61 2.95-8.73c.24-2.13-2.48-5.9-4.6-5.9-2.13 0-3.66 6.73-3.66 6.73s-1.06 5.08-.71 5.55-1.42-1.65-1.42-1.65-.94 3.07-1.65 4.01-2.25 1.3-2.25 1.3-1.06-3.07-.71-4.24 5.79-5.78 5.31-9.09c-.48-3.3 0-2.48-.12-2.59-.12-.12-2.83-2.47-2.95-3.77-.12-1.29-3.54 1.66-8.02.71-1.38 2.4-1.54 8.38-1.54 8.38s-.47 7.2.47 8.03c.95.83-2.36 2.59-2.36 2.59l-2.36 3.19s-.83-2-.83-1.88-1.66 1.18-1.66 1.18l.95-2.36c-.07-1.79 2.29-6.67 2.29-10.8s.3-8.55.3-8.55-4.37-.23-4.25 4.25c.12 4.49-1.06 4.73-.83 6.02s1.41 4.96 1.06 6.02c-.36 1.06-1.77 1.42-1.77 1.42l-.36.59s-4.36 2.01-4.25 2.83-.12-2.36-.12-2.36l-.24-3.42s2.6-1.65 2.6-5.78-.6-4.71-.48-5.66c.12-.94.71-4.37.59-4.72-.12-.35-2.47.95-3.19.95-.71 0 1.3-2.48 1.53-4.25s-2.36 1.65-4.48-.36c.98-2.18 2.47-2.83 2.71-4.48s-1.65 1.41-3.31.23c.13-1.58 1.77-2.95 1.77-2.95s-1.35-.16-1.89 0c-1.06-.35 1.18-2.01 1.3-4.37s-1.3-3.3-1.3-3.42-2.36-2.13-2.71-2.95-.35-1.77-.35-1.77-3.9 2.83-8.5-3.19c4.22-3.59 8.73-.94 8.73-.94s1.18-3.3 6.6-3.07c5.43.24 6.49 3.31 6.26 2.95z" fill="#923f00"/>
<path stroke="#000" stroke-width=".62pt" d="M577.458 113.62c.093 0 10.02.298 10.118 5.605.1 5.3-3.044 3.93-3.143 3.93s-7.273-.886-7.273-.886l.298-8.65z" fill="#00F"/>
<path stroke="#000" stroke-width=".62pt" d="M567.823 112.145s12.38-.093 11.693 5.307c-.688 5.406-3.83 4.327-3.83 4.327l-5.997-.5-1.87-9.14z" fill="#fffeff"/>
<path stroke="#000" stroke-width=".62pt" d="M560.848 111.556l7.173.59s4.33.588 4.13 4.717c-.19 4.13-4.42 4.228-4.42 4.228l-6.97-.39.1-9.14z" fill="#00F"/>
<path stroke="#000" stroke-width=".62pt" d="M544.046 113.62c-.1 0-10.025.298-10.125 5.605-.09 5.3 3.06 3.93 3.15 3.93s7.28-.886 7.28-.886l-.3-8.65z" fill="#FFF"/>
<path stroke="#000" stroke-width=".62pt" d="M553.675 112.145s-12.382-.093-11.694 5.307c.69 5.406 3.84 4.327 3.84 4.327l6-.5 1.87-9.14z" fill="#00F"/>
<path stroke="#000" stroke-width=".62pt" d="M560.656 111.556l-7.174.59s-4.327.588-4.13 4.717 4.422 4.228 4.422 4.228l6.975-.39-.1-9.14z" fill="#FFF"/>
<path stroke="#000" stroke-width=".62pt" d="M579.863 171.218s5.16-7.6 7.335-6.79c1.897.634.453 6.517-.453 7.063l-6.882-.27zm-35.358 1.358c-1.625-2.263-3.98-8.506-6.15-6.79-1.904.633-.453 6.517.452 7.063l5.698-.28z" fill="#5e0043"/>
<path stroke="#000" stroke-width=".62pt" d="M547.92 157.54s10.05 6.195 13.35 6.356 13.75-8.04 13.75-8.04" fill="none"/>
<path stroke="#000" stroke-width=".62pt" d="M548.888 133.262l1.928-2.412 9.654 4.904 9.808-4.346 1.928 2.015-10.936 7.72-12.382-7.88z" fill="#5e0043"/>
<path stroke-linejoin="round" stroke="#474747" stroke-width=".775" d="M541.225 133.132c.78.985 7.018 8.568 8.147 14.842 1.122 6.275-.645-8.605-.645-8.605s7.72 3.78 7.96 6.19 3.69-.16 3.857-.58l-22.35-14.52 3.03 2.66zm38.135-.434s-8.12 10.695-7.154 22.35c-1.674-5.58-.322-14.793-.322-14.793l-1.767 1.13s-1.848 7.88-4.185 9.082c-.39-.936-.316-1.284-.316-1.284s-2.493 3.212-2.976 3.534.16 10.857.16 10.857.838 7.638 1.8 7.557c-1.098.54-2.444 1.38-2.444 1.38l-.998-20.38 2.282-2.29s3.056-3.69 3.298-7.31c-1.327 1.13-2.815 1.45-2.815 1.45s-.403 5.15-1.606 5.87c-1.21.73-1.24 2.07-1.24 2.07l-.285-6.72 18.57-12.47z" fill="#474747"/>
<path stroke-width=".775" stroke="#000" stroke-linecap="round" d="M560.786 145.08l1.575 32.158" fill="none"/>
<path stroke="#000" stroke-width=".62pt" d="M541.008 160.436s3.695 2.177 5.065 8.767c12.06-.886 15.84 3.38 15.84 3.38s9.89-4.744 14.478-3.863c1.61-3.373 6.19-7.72 6.19-7.72" fill="none"/>
<path stroke="#000" stroke-width=".62pt" d="M535.96 128.916l24.826 16.244 22.357-15.035s4.663-2.573 4.26-4.42c-.397-1.855-2.01-1.13-2.815-.807-.8.322-23.4 16.325-23.4 16.325l-24.043-15.203s-1.767-.558-2.09.564c-.32 1.13.664 1.767.906 2.332z" fill="#b4b6b9"/>
<path stroke-linejoin="round" stroke="#474747" stroke-width=".775" d="M580.36 124.7s-6.356-2.697-6.356-.36c0 2.33.18 2.573 1.203 4.073 1.017 1.495-.78 2.456-.78 2.456s-.243-.66-.602-1.69c-.36-1.02-3.776-1.74-4.074-2.93-.29-1.21.72-3.12-1.32-3.36-2.03-.24-4.01.83-4.43 3.17s-3.05 7.79-3.05 7.79l.36-12.4c4.48.31 12.79 1.29 19.18 2.03-1.91-.3.72.12.67.78-.18.54-.84.59-.78.42zm-22.476-3.12c-1.134 0-6.832.658-8.27 1.5-1.44.838 2.337 2.153 1.86 3.294s-.54 3.416-2.338 2.938c-1.798-.483-7.85-3.478-8.03-4.495s-1.437-1.078-1.437-1.078 17.37-2.34 18.21-2.16z" fill="#474747"/>
<path stroke="#000" stroke-width=".62pt" d="M560.625 120.155l-.044 15.24M548.89 102.2s-6.962 11.302-7.1 11.65" fill="none"/>
<path stroke="#000" stroke-width="1pt" d="M161.8 129.74s4.89 6.67 4.33 8.56c2 1.56 4.23 7.79 4.23 7.79" fill="url(#f)" transform="matrix(.62 0 0 .62 461.4 21.482)"/>
<path stroke="#000" stroke-width=".62pt" d="M573.434 101.233s-6.547 9.238-6.343 9.926" fill="none"/>
<path d="M540.013 57.364c-.15.517-.985.717-1.867.447s-1.478-.9-1.33-1.42c.15-.52.985-.72 1.868-.45s1.477.91 1.33 1.43zm2.65-.184c.15.518.985.72 1.868.448s1.48-.908 1.33-1.426c-.15-.517-.98-.718-1.86-.447s-1.48.91-1.33 1.426z"/>
<path stroke-linejoin="round" stroke="#000" stroke-width=".62pt" d="M619.184 248.483s-2.43.458-2.35.682c.074.23-7.062.458-7.21.23-.156-.23-1.067 1.214-1.067 1.214l1.14-.69s1.743 1.81 2.276 1.67-.23.68-.074.83c.14.15.68-.31.68-.31l11.79-.2-5.19-3.45z" fill="#ff7000"/>
<path stroke-linejoin="round" stroke="#000" stroke-width=".775" d="M623.58 252.153l-9.635.28s-2.424 2.2-2.58 2.727c-.148.533 1.594.682 1.594.682l.53 1.823 1.21-.453s8.19 1.215 15.71-.46c3.79-1.325 4.46-2.92 1.8-3.886-2.66-.967-8.57-.676-8.64-.713z" fill="#ff7000"/>
<path stroke="#000" stroke-width="1pt" d="M208.37 403.93l27.97-1.25-5.21-4.42 75.65-3.05-2.61-6.01-84.7 3.4 10.19 4.76-22.88.68.68 2.38-6-.23s6.68 2.6 6.91 3.74z" fill="url(#g)" transform="matrix(.62 0 0 .62 461.4 21.482)"/>
<path stroke="#000" stroke-width="1pt" d="M239.73 249.42c-2.23-1.11-12-2.44-22.89 4.67l.45 25.11s15.99-8.67 23.77-6.67c-.45-7.78-.45-17.77-1.33-23.11z" fill="url(#h)" transform="matrix(.62 0 0 .62 461.4 21.482)"/>
<path d="M514.146 223.385l-40.893 40.598m59.117-40.3l-33.188 43.71m31.708-55.118l-44.303 53.636m-1.333-.74l4.296-5.03m49.784-20.89l-17.188 23.71m-.74 3.11l.444 9.04m25.333-27.56l-18.223 22.82m14.97-1.78l7.41-12.15m-4.593-2.37l-8.89 10.08m6.224-19.55L538 252m-1.77-18.224s-18.52 27.11-18.22 29.33m16.3-32.89c-.44.29-16 20.888-16 20.888m-.89 6.518l-2.81 3.41m-3.553 5.184l-4.296 5.63" stroke-width=".62pt" stroke="#000" fill="none"/>
<path stroke="#2b2b2b" stroke-width=".62pt" d="M512.123 160.982s-1.255 3.943 0 5.915c1.254 1.97 9.14 17.924 9.14 17.924s5.38-6.63 7.35-6.81c1.973-.17 1.074 17.21 1.074 17.21s-3.224 3.05-5.196 2.87c-1.97-.18 4.84 6.82 4.66 12.73s-8.96 35.31-12.18 35.85c-3.22.54 1.44-5.37 1.26-6.99s-1.07-.54-1.79-2.33 1.08-4.48.72-6.27c-.35-1.79-1.97-1.43-2.15-2.68-.18-1.26 1.08-1.61.9-3.05-.18-1.43-2.15-1.07-1.97-2.33.18-1.25.36-.71.18-3.04s-.53 1.61-2.51 1.79-3.58 4.66-3.58 4.66-3.94 5.56-7.88 3.05c2.33 5.02.54 7.18-.36 7.35-.89.18.72 3.95-1.43 4.13s1.62 8.43-.89 9.15c2.69 1.25.54 2.87.54 2.87s-6.21.52-4.84 8.61c-18.28-6.45-27.24-17.56-27.06-28.85.18-11.3 3.77-21.51 12.55-25.27 2.51-9.33 6.81-19.37 6.81-19.37s-.71-4.12-.18-6.81c.54-2.69 3.05-5.37 3.05-5.37s-.36-6.45-.18-9.68c.18-3.23 1.44-4.67 1.62-6.46s-.53-10.94 1.26-12.55 5.2-1.43 6.99-2.5c1.79-1.08 4.12-3.05 6.45-2.87s4.3 1.79 4.3 1.79 8.78 0 9.32 3.4c.54 3.41-1.79 4.67-1.79 4.67s1.26 4.84-4.12 9.32z" fill="#8a9396"/>
<path stroke="#2b2b2b" stroke-width=".828" fill="#cecfcf" d="M504.394 148.77c.282.52-.36 1.413-1.433 1.994s-2.17.63-2.45.11c-.28-.52.36-1.414 1.44-1.995s2.18-.63 2.46-.11z"/>
<path d="M502.904 149.676c0 .33-.3.595-.667.595-.368 0-.667-.26-.667-.59 0-.33.3-.59.667-.59.368 0 .667.27.667.6z"/>
<path stroke="#2b2b2b" stroke-width=".388" d="M515.942 155.402s2.177 9.722-.426 16.43m1.096-20.682s4.247 5.616 3.7 12.603m-3.29-13.838c.138 0 3.563 3.013 3.426 5.065m-2.603-6.3s2.33 1.644 2.877 3.287" fill="none"/>
<path stroke="#000" stroke-width=".62pt" d="M516.75 147.72s-8.358 13.566-7.262 22.06" fill="none"/>
<path stroke="#2b2b2b" stroke-width=".388" d="M517.297 147.31s-11.098 6.58-13.152 28.087" fill="none"/>
<path stroke="#000" stroke-width=".62pt" d="M516.064 151.285l-4.384 3.286" fill="none"/>
<path stroke="#2b2b2b" stroke-width=".388" d="M500.035 176.63s6.164-25.618 17.125-29.32" fill="none"/>
<path stroke="#2b2b2b" stroke-width=".62pt" d="M521.407 185.26s5.893-7.395 7.263-7.123.955 17.125.955 17.125-4.384 3.286-5.338 3.15c-.962-.137 4.93 7.948 4.792 10.96s-.28 3.014-.28 3.014 0-1.78-1.37-4.656-.55-6.17-9.46-13.43c-2.2-4.52 4.38 2.74 5.75 1.644 1.37-1.09-2.47-10.546-2.33-10.683z" fill="#2b2b2b"/>
<path stroke="#2b2b2b" stroke-width=".62pt" d="M510.934 143.597s-2.477.676-2.815 1.687c-.34 1.016-1.81 2.027-2.59 1.686-.79-.335-2.25-1.575-2.25-1.575" fill="none"/>
<path stroke-linejoin="round" stroke="#2b2b2b" stroke-width=".775" d="M496.862 152.265s-3.716 3.714-1.914 4.166c1.8.45 3.715-2.92 3.715-2.92s0 5.74 1.576 4.84c1.57-.9 6.19-4.16 6.19-4.16s1.57-.11 1.91 0c.33.11 4.28 3.49 6.86 2.25-1.47 3.83-3.15 4.28-3.15 4.28s-2.71 3.49-6.2 2.7c-3.49-.78-4.39-2.25-4.39-2.25s-2.93.23-3.83-1.12c-.9-1.35-1.24-2.14-1.24-2.14s-1.69 1.69-2.14.9c-.45-.78 0-5.4 2.59-6.53z" fill="#2b2b2b"/>
<path stroke="#2b2b2b" stroke-width=".62pt" d="M517.914 147.088s-6.868-2.028-9.232 1.35c-2.364 3.374-1.8 5.29-.563 5.625" fill="none"/>
<path d="M518.973 146.896c0 .81-.58 1.466-1.294 1.466s-1.3-.657-1.3-1.466.58-1.466 1.29-1.466 1.29.656 1.29 1.466z"/>
<path stroke="#2b2b2b" stroke-width=".62pt" d="M498.987 164.417s2.8 4.31 6.14 5.493-2.317 2.207-5.655-.05c-2.423-3.286-1.777-5.654-1.777-5.654s.646-.65 1.292.21zm23.963 25.42s-7.862-10.93-10.123-11.526c-2.262-.58 1.722-1.07 4.146 1.24 2.423 2.32-.646-3.77-.646-3.77l6.624 14.06z" fill="#2b2b2b"/>
<path stroke-linejoin="round" stroke="#2b2b2b" stroke-width=".775" d="M498.234 253.002c3.015-.806 16.154 7.54 19.116 9.64 2.962 2.097 9.156.752 9.156.752s-2.858 1.723-4.632 2.157c-1.777.43 5.277.43 5.277.43s-16.8 4.63-33.87-4.36c-1.56-7 3.66-8.56 4.96-8.61z" fill="#2b2b2b"/>
<path stroke="#2b2b2b" stroke-width=".62pt" d="M517.458 192.528s-2.208-.428-3.34-1.724c-1.13-1.29-2.745-4.47-4.414-5.816-1.67-1.345-10.017-5.92-13.032-5.598s-3.932-.323-4.31-.7-1.614.16-1.4 1.723c.217 1.562-2.314 5.01-1.4 6.62.917 1.62 5.225 8.185 6.087 8.402.86.217.32 3.826.32 3.826s3.82 3.88 4.79 4.1c.97.22 1.94.92 1.83 1.83-.11.92-4.2 5.93-4.2 5.93s-4.42 2.32-4.47 3.61c-.06 1.29 1.08 3.98 4.58 4.85 3.5.86 12.92.16 13.4-.64.48-.8 1.24-5.65.91-6.14s-2.64-1.94-3.83-1.72c-1.19.22-2.26 1.19-2.16 1.4.1.22-1.67 1.13-1.67.27s3.5-4.73 3.82-4.41c.32.32 5.27.81 6.19 3.29.91 2.47.91 4.25 3.5 3.99 2.58-.27 6.19-2.64 6.51-7.59s-2.91-8.3-3.72-8.78-3.5-2.1-3.72-2.85c-.22-.76-.76-3.23-.33-3.83z" fill="#2b2b2b"/>
<path stroke="#2b2b2b" stroke-width=".62pt" d="M470.877 214.395s8.347-2.158 10.5-2.102c2.155.05 10.286 3.82 12.656 6.138 2.37 2.32 7.216 7.81 10.393 7.33 3.177-.48 4.093-1.13 4.093-1.13l-1.24 2.37s-2.59.7-3.88.38c-1.3-.32-3.83-1.13-6.36-3.61-2.53-2.48-10.34-9.15-16.97-8.67-6.63.49-10.45 7.01-10.45 7.01s.05-3.18.32-3.88-1.4 1.51-1.4 1.51l2.31-5.32z" fill="#2b2b2b"/>
<path stroke="#2b2b2b" stroke-width=".62pt" d="M501.626 220.855c.054.05 2.1.59 5.546.59 3.447 0 5.278-1.507 5.278-1.507l-.216-1.346.54-1.884s2.637 2.69 2.583 3.23-1.077.756-1.077.756l-.377-1.296-.915 1.135s-5.008 3.98-7.754 3.39c-2.747-.594-5.277-2.367-4.577-2.8.7-.43 1.076-.268.97-.268zm-12.17 7.055s-3.016-.055-4.362.59-1.83 1.457-2.747 1.345c-.915-.105-1.615-1.29-1.346-1.773.38-.756 2.16-1.723 5.55-1.457 3.39.273 2.91 1.296 2.91 1.296zm10.554 8.185c0-.16-.215-4.414-1.884-6.138-1.67-1.724-3.716-1.724-4.632-1.513-.915.217 3.393 2.102 3.824 3.342s1.83 4.687 1.454 5.55c-.377.855-1.077-2.425-3.716-3.343s-6.3-.428-5.546.757 3.715.105 5.223 2.635 2.64 5.226 2.64 5.226l.484-1.83 1.346-.37.16-3.5.647-.8z" fill="#2b2b2b"/>
<path stroke-linejoin="round" stroke="#2b2b2b" stroke-width=".775" d="M497.857 249.878l-2.747-5.494s-.862-3.496-3.177-4.47c-2.316-.967-5.385-.806-5.44.378s4.955 2.69 5.278 3.342c.33.645.17 1.724-.26 1.773-.43.056-2.64-.806-3.77-.54-1.13.274-1.77 1.725-3.44 1.297-1.67-.434-3.07-5.76-2.42-6.3.65-.54-1.24.968-1.61-.433s.54-5.76-.1-6.3c-.64-.53-3.77-2.42-3.82-2.8-.05-.37.16-21.42 17.77-3.98-7.54-8.94-10.5-7.97-11.9-8.02-1.02 0-7.86.59-9.58 9.31-1.72 8.73-3.77 3.29-3.77 3.29s-.38 3.77 1.46 4.85c1.83 1.07-.86 4.2-.86 4.2s-3.28-8.02-2.8-11.52c-.64 2.81-.59 9.75 3.56 17.34 4.85 5.12 9.43 9.86 21.6 15.19 6.41-9.79 6.09-10.98 6.09-11.09z" fill="#2b2b2b"/>
<path stroke-linejoin="round" stroke="#2b2b2b" stroke-width=".775" d="M486.333 249.933s3.554.428 4.523 2.263c.97 1.83 1.4 4.632 1.4 4.632.592-1.184.86-2.207 2.046-3.07s2.047-.973 1.993-1.617-3.77-4.57-5.655-4.79-5.17 2.05-5.17 2.05-.59.86.863.54z" fill="#8a9396"/>
<g stroke-width="1.25" stroke-linecap="round" fill="none">
<path stroke="#8a9396" d="M494.45 259.196s9.21 4.198 24.38 4.47" stroke-width=".775"/>
<path stroke="#2b2b2b" d="M525.198 216.44s-.787 7.732-6.734 22.984" stroke-width=".775"/>
<path stroke-width=".62pt" stroke="#2b2b2b" stroke-linecap="butt" d="M524.014 221.196s-1.785 5.55-6.74 9.71"/>
</g>
</svg>
