<svg id="gs" xmlns="http://www.w3.org/2000/svg" viewBox="0 0 750 375"><style>.st1{fill:#fff}.st4,.st9{fill:#fff;stroke:#000;stroke-width:.828}.st9{fill:#fb0}.st18{fill:none;stroke:#006b00;stroke-width:1.25;stroke-linecap:round}.st23,.st24{fill:#e80000;stroke:#006b00;stroke-linejoin:round}.st24{fill:#ffc900}.st29{fill:#1e5aa6;stroke:#000;stroke-width:.828}.st31{font-family:&apos;Timmons&apos;}.st39{font-size:8.694px}.st40{font-size:8.68px}.st41{font-size:8.6963px}.st51{fill:none}.st51,.st56,.st60{stroke:#000;stroke-width:.828}.st56{fill:#00f}.st60{fill:#5e0043}.st61{fill:#474747;stroke:#474747;stroke-width:.776;stroke-linejoin:round}.st71,.st72{stroke:#2b2b2b}.st71{stroke-width:.388;fill:none}.st72{fill:#2b2b2b}.st72,.st73{stroke-width:.828}.st73,.st74{stroke:#2b2b2b}.st73{fill:none}.st74{fill:#2b2b2b;stroke-width:.776;stroke-linejoin:round}</style><path d="M0 0h750v375H0V0z" fill="#00247d"/><path class="st1" d="M0 0v21l333.1 166.5H375v-21L41.9 0H0zm375 0v21L41.9 187.5H0v-21L333.1 0H375z"/><path class="st1" d="M156.2 0v187.5h62.5V0h-62.5zM0 62.5V125h375V62.5H0z"/><path d="M0 75v37.5h375V75H0zM168.8 0v187.5h37.5V0h-37.5zM0 187.5L125 125h27.9l-125 62.5H0zM0 0l125 62.5H97.1L0 14V0zm222 62.5L347 0h28L250 62.5h-28zm153 125L250 125h28l97.1 48.5-.1 14z" fill="#cf142b"/><path d="M552.7 265.6s-2.1 5.5-3.3 5.5-5.5-2.4-5.5-2.4-3.1 5-4.8 5.3c-1.6.3-5.9-.7-5.9-.7s-4.2 0-4.3-.6c-.1-.6.2-1.8.2-1.8s-5.9 4.7-7.3 4.4c-1.3-.3-5.8-5.9-5.8-5.9l-.7 3-8.5-.3-7.4-4.8s-4.2 6.8-4.3 6.7-7.3 1.6-7.3 1.6l-.4-1.3-4.7-2.8s3.7-5.2 3.7-5.3-1.8-.7-1.8-.7l-2.7 2.2-5.5 3.6-5.5-2.5 2.4-4.5.3-3.3 4.3-6.5 52.7-51.2 26 47.9-3.9 14.4z" fill="#6a4c2d" stroke="#000" stroke-width=".828"/><path class="st4" d="M590.1 268.7l13.7-.5-5.8-2.9 52.3-2-7.4-2.8-6.5-8.9-27.1-2s-2-1.5-5.3-.8c-.1-2.1-2.7-4.9-2.7-4.9l-16.7-1.3-10.4 7.1 7 18 8.9 1z"/><linearGradient id="SVGID_1_" gradientUnits="userSpaceOnUse" x1="75.665" y1="-184.168" x2="77.265" y2="-139.148" gradientTransform="matrix(.9378 0 0 -.4048 491.35 34.96)"><stop offset="0" stop-color="#474747"/><stop offset="1" stop-color="#f50"/></linearGradient><path d="M536.7 115.1l1.4-4.7s2.4-4.1 2.4-5.9c0-1.8 1.8-3.9 1.8-3.9s5.5-1.6 6.7 1.8c5.9-9 12.9-.4 12.9-.4l1.9-2.3 3.9-4.8s5.6 5.2 5.7 6.1c.1.9 1 .3 1 .3l6.1-.5s2.9 2.3 2.3 6.6c2.1 1.3 4.1 8.7 4.1 8.7l-50.2-1z" fill="url(#SVGID_1_)" stroke="#000"/><path d="M590.1 171c1-.6 4.4-1.7 4-6.5s-4.6-5.4-6.9-5.2c-2.3.2-4.4 2.2-4.4 2.2l-7.7-4.9s3.9-24.4 8-25.9c3.9-2.8 4.6-4 4.6-4.7 0-.6-1.4-2.3-1.4-2.3l-25.2-3-23.8 2.8s-1.9 2.8-1.6 3.9c.2 1.1.3 2.3 4.6 5.6 4.7 3.6 8 24.5 8 24.5s-6.7 3.3-7.1 2.9c-.4-.4-2.4-.8-3.5-.6-1 .2-4.5 1.9-4.5 6.5s3.5 7.3 3.5 7.3 22.8-2.7 26.2 3.6c3-7.6 24.6-4.9 27.2-6.2z" fill="#656263" stroke="#000" stroke-width=".828"/><path d="M614.7 145.6s.3-2.7 2.1-3.9c1.9-1.3 14.5-1.9 17.5 0s4.2 11.2 4.2 11.2 1.9 3.3 2 5.7.4 4 .4 4 10.1 13.1 10.2 25c1.1 8.1.9 29.6-2.3 37.8-.1 10.2-4.4 16.9-4.4 16.9s1 1.8.9 3.7c-.1 1.9-1.1 3.7-1.1 3.7L659 257l-5.4-2s5.6 4.7 5.4 4.5c-.1-.1-6.2-2.9-6.2-2.9l3.7 3.7c-.1-.1-9-4-9-4s4.2 3.9 3.9 3.8c-.3-.1-6.7-3.2-6.7-3.2s4 4.3 3.9 4-5.8-2.5-5.8-2.5l.2 2.1s-4.5-.3-4.5-3.7c-2.3-1.3-3.8-3-3.8-3l-10.5-1.8-11.9-35.4 2.8-59.9.8-3-1.2-8.1z" stroke="#000" stroke-width=".776" stroke-linejoin="round" stroke-opacity=".979"/><path d="M606.7 337.1s-6.1-12.8-9.1-13c-2.7-5.2 9.5-47.8 33.1-50.2 13 1.1 1.1 15-7.5 10.7 1.1 3.7 5.3 9.1 5.3 9.1s-16.8 7.3-21.8 43.4z" fill="#fb0" stroke="#000" stroke-width=".822"/><path class="st9" d="M525.3 338.9s5-14.5 8.1-14.7c3.1-.2-8.1-48.5-32.3-48.8-13.1 1.1-1.1 15.1 7.5 10.8-1.1 3.8-5.4 9.2-5.4 9.2s17.1 7.3 22.1 43.5z"/><path d="M547.5 248.1c-.1-.1-6 1.9-2.2 8.4.3-2.5 3-4 3-4s-4.1 4.9.2 8.9c.5-3.9 3-5.1 3-5.1s-3 8.9.1 10.7c.4-3.6 2.6-5.1 2.6-5.1s-2.7 8-.3 9.8c.3-3 2.3-4.4 2.3-4.4s-1.2 8.3 2 8.9c.1-2.9 2.4-5.8 2.4-5.8s-1.1 6.8 4 7.1c.1-2.6 1-5.5 1-5.5s2.3 7.2 5.6 6c-.1-2.1.1-6.1 0-6.1s2.1 6.8 6.1 5.6c-.6-1.9.2-4.2.2-4.2s2.1 4.3 5.9 2.9c.6-1.3-.2-3.8-.2-3.8s5.5 5.7 7.2 2.3-4.4-4.6-4.4-4.6h4.1s-1.3-3.5-6.9-4.3c1.9-.9 3.9-.2 3.9-.2s-1.2-4.4-6.9-4.9c2.2-.8 4.7-.2 4.7-.2s-.8-4.1-7.1-5.3c1-1.1 3.7-.8 3.7-.8s-2.5-3.9-5.4-3.7c-2.8.2-28.6-2.7-28.6-2.6z" fill="#00713d" stroke="#000" stroke-width=".828"/><path d="M573.1 269.2s2.3 1.1 2.2 2.1m-.9-3.9s2.9 2 2.9 3.6m-.3-4.7s2.3 1.5 2.5 3.7m1.4-2.7s1.2 2.5.8 3m1.5-1.7c.2 2-.2 2.2-.2 2.2M554.4 256s2.7 1.8 2.5 4.2m-2.6-2s1.3 1.2 1 2m2.3-4.1s1.8 2.5 1.2 4.3m1.9-2.7s.8 1.6.1 2.5m1.4-1.7s1 1.6.1 2.1m-1.2 3.1s2.6.6 2.9 2.5m-1.4-4.3s2.7.2 3 3m.6-3.9c.1 0 1.8 3.1 1.5 4.1m1.9-3.9s.7 3 .2 3.9m2-2.7c0 .1.1 3.4.1 3.4m-3.5-8.1s1.7.6 1.6 2.3m0-3.8s2.2 1.2 1.9 3.6m.6-4.6s1.9 2.2 1.2 4.7m2.1-4.1s-.7 2.7-.4 3.9m2.4-2.1s-1.2.9-.6 2.1m-10 8.6s.4 2.1 0 2.5m-2.7-3.7s1.3 2.3.9 3.5m-3.8-3.6s1.5 1.8 1.5 3.2m-3.8-2.9s1.4 1.3 1.3 2.1m-2.5 0s1.3 1.4 1.3 1.7" fill="none" stroke="#3ec26d" stroke-width=".776" stroke-linecap="round"/><path class="st4" d="M529 173.5l19.3-.3s12.8 0 14.1 4.1c2.4-5.5 13.5-5.2 13.5-5.2l20-.7.3 48.3c-3.9 18.7-17.5 32-32.4 37.6-17.8-5.8-29.1-20.8-32.8-37.9-.6-15.3-1.3-30.6-2-45.9z"/><path d="M535.9 173.3l28.1 75 25.4-76.6c-7.9.5-24.8-1.2-26.9 5.9-3.2-6.4-21-3.8-26.6-4.3z" fill="#006b00" stroke="#000" stroke-width=".828"/><path d="M555 213.9c1.1.6 1.1-20.4 2.5-21 .4-1.7.6-2.5 1.1-4.3-1.2-2.2-6.7-2.1-8.7-.2.9 2.9 1.3 3.9 1.3 3.9 2.8 4.4 2.2 22.1 3.8 21.6z" fill="#ffc900" stroke="#006b00" stroke-width=".428" stroke-linecap="round"/><path d="M547.5 52.3s2-2.3 2.1-2.8c.1-.5 9-.9 14.4-10.8 3-5.2 0-2.2 0-2.2l-.2-2.5s3.7-3.5 2.4-5.4c-1.4-1.9-.9 2.4-3.1 2.4s-1-4.7-1-4.7-.2-.5-.8-.8c-.9.1-.6 1.7-1.4 1.9-.8.2-1.5-3.8-1.5-3.8s-1.4-1.8-2.5 3.9c.6 6.1 4.5 4.9 4.5 8.9s-3.4 7-4.4 7.1c-1 .1-.6-3.3-.6-3.3s-.5-1.6-.9-1.6 2-.4 1.6-4.9c-.8-5.4-1.4 1.3-2.9 1-1.4-.3-.4-5 .2-5.5s-.6-2.8-3.8 3c-.3 2.8-.6-.7-1.3-.5-1.1 2.3-.9 3.9.6 6 2.3 2.1 3.7 4.2 3.6 5.2-.1 1.1-1.3 3.5-2.9 3.5-1.6 0 .1-3 0-4s-2.8-4.6-2.8-4.6-1.9-3.1-1.7-3.2-.2-.5-1.1 2.6c-.9 3.2-2-2.1-2-2.1s-1.3 3.9 1.4 6.2c-2.1-.3-2.3.5-2.3.5 0 1.1 2.8 1.5 3.2 3.4s-2.9 3-2.9 3 1.4 1.9 5.1-1.8c.1 2.3-1.4 4-1.4 4 1.2.4 2.2.4 2.4 1.9z" fill="#cdad56" stroke="#000" stroke-width=".776" stroke-linejoin="round"/><path d="M535.1 52.3s-1.7-2.5-1.8-3c-.1-.5-8.3.6-12.2-9.4-2.5-4.8 0-2 0-2l.2-2.3s-2.7-3.3-1.5-5 .7 2.2 2.2 2.2c1.8-.1.8-4.3.8-4.3s.2-.5.7-.7c.8.1 1.1 2.6 1.8 2.7s2.1-2.9 2.6-3.5c.6-.1.6-2.5 1.6 2.6-.5 5.5-5.1 4.4-5.1 8.1s2.9 6.4 3.8 6.5c.8.1.5-3 .5-3s.5-1.5.8-1.5c.3 0-2.7.6-2.4-3.5.7-3.8 2.2.2 3.4 0 1.2-.2-.1-4.1.2-4.7.1-.6 1.9-3.1 2.6 2.4.2 2.5 1.6-2.2 2.2-2 .9 2.1-.4 4.8-1.7 6.7-1.9 1.9-2.8 4-2.7 4.9.1 1 .5 2.2 1.9 2.2s.5-1.7.5-2.6 2.4-3.8 2.4-3.8c.5-.7.1-2.1.6-2.7.8 0 1.1-1 1.8 1.8.8 2.9 1.7-1.9 1.7-1.9s1.1 3.5-1.2 5.7c1.8-.2 1.9.5 1.9.5 0 1-.8 1.4-1.1 3.1s.9 2.7.9 2.7-1.2 1.7-4.4-1.6c-.1 2.1 1.2 3.6 1.2 3.6-1.2.5-2 .4-2.2 1.8z" fill="#cdad56" stroke="#000" stroke-width=".682" stroke-linejoin="round"/><path d="M584.7 184.5c-1.7-1.5-1.9-.2-2.7-.5-.4-.2-.7-.5-1.1-.9-.3-.3-.7-.4-1.1-.6-.2.5-.3.9-.5 1.4s.4 1.2.4 1.9c-.1 1-.5 1.8-1.8 2.2.4-.7.6-.7.5-1.6 0-.4-1.3-1.2-1.1-1.6.2-.7.6-1.4.3-2.1-.5.4-1.2.2-1.7.4-.4.2-.5 1-1.1 1.3-.6.3-2 .1-3.1-.5.7-.5 1.3-.2 2-.7.3-.3.3-1.4.7-1.7.4-.3 1.2-.5 1.5-.8-.3-.4-.3-.9-.6-1.3s-1.7-.3-2-.6c-.6-.7-.5-1.7-1.1-2.4 1.6.6 1.4 1.4 1.8 1.3.8-.4 1.5-.4 1.9-.3.4.2 1.2 1.2 1.6 1.3.2-.5.4-1 .5-1.5.2-.5-.7-1.2-.5-1.7.3-.9 1.1-1.7 1.4-2.6.1.9.3 1.6.4 2.5.1.4.9.7 1 1.1.1.4-.4 1.4-.4 1.9.5-.1 1.1 0 1.6-.1s.8-1.2 1.2-1.3c.9-.2 1.6-.1 2.6.1-.7.7-1.2.6-1.7 1.2-.3.3.1 1.1-.9 1.8-.4.2-1.4 0-1.7.2.3.4.6.7 1 1.1.3.4 1.7.5 2 .9.6.6.9 1.4.7 2.2zm-43.2.7c1.7-1.5 1.9-.2 2.7-.5.4-.2.7-.6 1.1-.9.3-.3.7-.4 1.1-.6.2.5.3.9.5 1.4.2.5-.4 1.2-.4 1.9.1 1 .5 1.8 1.8 2.2-.4-.7-.6-.8-.5-1.6.1-.4 1.3-1.2 1.1-1.6-.2-.7-.6-1.4-.3-2.1.5.4 1.2.2 1.7.4.4.2.5 1 1.1 1.3.6.3 2 .1 3.1-.5-.7-.5-1.3-.2-2-.7-.3-.3-.3-1.4-.7-1.7-.3-.3-1.2-.6-1.5-.8.3-.4.3-.9.6-1.3s1.7-.3 2-.6c.6-.7.5-1.7 1.1-2.4-1.6.6-1.4 1.4-1.8 1.3-.8-.4-1.5-.4-2-.3-.4.2-1.2 1.2-1.6 1.3-.2-.5-.4-1-.5-1.5s.7-1.2.5-1.7c-.3-.9-1.1-1.7-1.4-2.6-.1.9-.3 1.6-.4 2.5-.1.4-.9.7-1 1.1 0 .4.5 1.4.4 1.9-.5-.1-1.1 0-1.6-.1s-.8-1.2-1.2-1.3c-.9-.2-1.6-.1-2.6.1.7.7 1.2.6 1.7 1.2.3.3-.1 1.1.9 1.8.4.2 1.4 0 1.7.2-.3.4-.6.7-.9 1.1-.3.4-1.7.5-2 .9-.6.6-.9 1.5-.7 2.2z" fill="#ffc900"/><path d="M583.2 189.3c-1.5 1.2-11.4 3.7-11.5 12.2-.1 8.6 1.7 10.5-.1 10.7-3.6 0-4.1-9.5-4-13.8.1-4.2.2-3.6.2-3.6s2.4.6 2.2 2.7c-.2 2.1 2.4-5.1 1.5-7 1.6 1.6 3.8 1 3.8.9 0-.1-1.2-1.4-1.7-2.4s1.8.5 1.8.5.1-1.6-1.9-1.5c-2.6 0 .4-.9.4-.9s1.5 1.4 2.5-.1c-1.1-1.2-2.7-1.8-2.7-1.8s-1.4-2.7-3.3-3.2c-2.2-.5-1.9 1-4.5.8-.5 1-.5 1.1.5 1.4-1.7 1.2-.8 3.6-.8 3.6s2.7-1.2 2.6.8c-.1 1.9-1.6 1.6-2.6.4-.9-.5-1.2.5-1.2.5l1.4 1.5s-2.7-.1-3.5 1.7c1.5-.1 2.3.3 2.3.3s-3.1 1.4-3.5 2.2-.4-.9-.5-.9c-.1 0-3-1.1-3-1.1l-1 4.7s2 2 3.1 1.4c1.1-.6 3.1-2.6 4.4-2.1-3.6 2.7-7.1 6.6-9 7.1-.5-.4-2.2-2.2-2.9-1.3-.7.9-.2 1.9.7 1.8.9-.1-2.9.9-2.1 2.5.8 1.6.7 1.5 1.4 1.1.7-.4-.6-.5 2-1.3s2.5-1.5 2.5-1.5-.5 1.2-1.9 1.5c-1.4.3-2.5.3-2.2.8.3.4.9 1.2.7 1.6s2.9-2.3 3.8-.1c2.1-.1 3.6-2.7 2.5-4.2.1 1.6 1.1 2.2.5 2.9-.6.8 4.8-2.5 2.1-4.4.7 1.6.8 2.9.8 2.9s1.2-.1 1.5-.5c.3-.4-.6 1.2-.2 1.5.4.3 2.3 2.2 1.5 3.5-.5-.8-.6-1.9-1.2-1.8-.6.1-3.1 1.9-4.7 2.1s1.8 5.6 1.8 5.6-2.3-.3-2.6-.1-1.8-1.9-2.1-.6c-.5 1.6.5 1 .5 1s-1.3-.6-2 .1c-.7.8-1.4 1.5-.9 1.8.5.3 2.7.3 3 .2s-2.5.2-2.7.5c-.2.3-.6 1.5 0 1.9s2.1-.2 2.2-.5c.1-.3.2 1.2.2 1.2s2.6.2 2.6-2.5.2 1.9.2 1.9 2.6.4 2.7-2.3c.1-2.7.3 1.8.3 1.8s1.7-.5 1.7-1c0-.4-.1 5.4-1.3 7-1.9-1.3-3.1.9-3.1.9s.1 3.1-.1 3.9c-.2.8 1.3-.4 1.4-.8.1-.3 1.9-1.2 2-1.4.1-.2.6-1.3.6-1.3s-.4 1.5-1.1 1.7c-.7.2-1.4 1-1.1 1.6s1.4 1.1 1.8 1.7c.4.6 1.8-3.8 1.8-3.8l.1 1s1.8-.4 2-1.3c.2-.9-1.9-1.6-.2-3s0 1.3 0 1.3.6 2.1 1 2.1 1.4-3.9.4-4.9c-1-1 1.5 1.2 1.5 1.2s1.4-4-.1-4.5-2.2-.8-2.2-.8.8-1.1.4-1.2c-.4-.1 2.1 2.4 2.5 1.7.4-.6 1-2.6-1.9-3.7-3-1.1-.1-4.1-.1-4.1s1.8 2.2 3.1 1c1.3-1.2-.1-1.2-.1-1.2s3.8-2.4 3.9-3.6c-.7-.1-1.9.1-1.9.1s2.1-1.4 1.6-3.7c-.8 1.2-1.9 1.2-1.9 1.2s1.8-1.8 1.5-3.6c-1.1.9-1 1.5-1.7 1.3-.7-.2-1.9-7 .9-7.5 2.8-.4 1.3 3.4 1.4 3.4.1 0 4.3-1.7 0-4.5 1-.3 3.1 1.6 3.1 1.6s-.9-4.8-5.5-1.8c1.1-1.2 1.8-1.9 2.7-1.7s4.2-.1 4.2-1.1c-.8-.7-2.5.3-3.5 0-.5-.1 6.9-.6 6.3-4.3z" fill="#ffc900" stroke="#006b00" stroke-width=".428" stroke-linecap="round" stroke-linejoin="round"/><path class="st18" d="M551 192.1s4.1-2.3 6.1.5m1.7 4.4c-.1 0-1.4 1.4-1.7 1.4m4.4 3.2s3.8.3 6.2-3.7"/><path class="st18" d="M565.6 200.4s.3 2.2.9 2.2c.6 0-1 .5-1.6.1.7 1 1.1 2.7 0 3.4"/><path d="M563.6 227.6s-1.3 1.5-2.9 1.6" fill="#e80000" stroke="#006b00" stroke-width="1.25" stroke-linecap="round"/><path class="st18" d="M565.2 220.7s-.8-4.3-.3-5.4c.3-1.4 1.6-1.9 2.6-3.8m-2.7 6.1s-1 2.6-5.5 1.7m6.7-8.2s.3 3.5-3.8 2.2m-1.2-17.8s-1.6 1.5-1 3.6"/><path d="M567.1 191.7s2.1-.9 2.5-1.3c.4-.4 1.1-1.3 1.3-1.9.2-.6-1.4-1.6-.6-3 .5-.6 1.2-.8 2.4 0s-1.1-2.4-2.3-2.5c-1.2-.1-2 .9-2.3.6-.3-.2.1.9-.4.9s1 .9.9 1.4c-.1.5 1.6 2.4 1.5 2.8-.1.4-2.5 2.9-3 3z" fill="#006b00"/><path d="M568.6 184.6c.9-.2 1.1 0 .9.9-.4-.3-.6-.5-.9-.9z" fill="#ffc900" stroke="#ffc900" stroke-width="1.25" stroke-linecap="round" stroke-linejoin="round"/><path d="M562.1 232.8s-.3 2.3.5 2.5c0-.9.2-1.5.4-1.7-.2-.2-.8-.8-.9-.8zm-1.9-2.8c-.8-.1-2.1.6-1.7 1.4.6-.6 1.2 0 1.6-.5.2-.2.2-.7.1-.9zm0-1.6s-1.2-.2-1.4.7c.8-.1 1.1-.2 1.4 0 .1-.2 0-.7 0-.7z" fill="#e80000" stroke="#006b00" stroke-width="1.25" stroke-linejoin="round"/><path class="st23" d="M555.1 215.6s.7.3.9 1.1c.6-.4.9-2.1-.9-1.1zm-1.8 1.9s1.5-1 1.7-.1c-.3.3-.5.6-.7.6-.2.1-.6-.5-1-.5zm-.1 3.2s1-.9 1.3-.3c.4.6-.3.6-.3.6s-.3-.2-1-.3zm-1.4-17.5s-1.2-.5-1.7.4c.8.1 1.1.4 1.4.7 0-.3-.2-.9.3-1.1zm-2.2 6.6s.1-1.5.7-2.1c.4.2.5.6.7 1-.5.2-1.2.2-1.4 1.1zm3.1-1.1s-1.3.6-.9 1.3c.4-.5.9-.3.9-.3v-1z"/><path class="st24" d="M550.8 194.6c-.5.6.6 1.8 1.7 1.6.3-1.3-1.4-2-1.7-1.6z"/><path d="M550.8 192.1c-.2.6.7 1.5 1.2 1.2.2-.6-.9-1.7-1.2-1.2z" fill="none"/><path class="st23" d="M552 193.6s.2 1 1.2.8c-.1-.8-.8-1.4-.8-1.4-.1.2.1.6-.4.6zm.7 3s.5.6 1.5-.6c-.5.1-1.3-.3-1.3-.3s0 .9-.2.9z"/><path class="st24" d="M550.8 192.2c-.5.6.2 1.3 1.3 1.2.2-1.3-1.1-1.6-1.3-1.2z"/><linearGradient id="SVGID_2_" gradientUnits="userSpaceOnUse" x1="69.957" y1="-177.084" x2="70.067" y2="-197.934" gradientTransform="matrix(.7648 0 0 -.4964 504.672 90.71)"><stop offset="0" stop-color="#b50000"/><stop offset="1" stop-color="#ffc500"/></linearGradient><path d="M551.2 187.1s4.4-1.2 6.7.6c2.3 1.9 2.3.2 2.3.2s3.4 1.2 4.4 1-.7.1.6-.7c1.3-.8-2.7.2-3-1.5-.6-1.1.1-2.4-1.3-2-1-1.2.6-2.1.3-3.5-1 .7-1.5-.3-2.3 1.5-1.9-.4-.3-2.9-2.3-3.2 0 1.9-1.5 2-1.6 3-1 .6-4.9 3-3.8 4.6z" fill="url(#SVGID_2_)"/><path d="M500.9 329.2c2.8-.7 18.2 3.4 24.1 9.7-1.3-11.3-4.4-20-4.4-20s-9.2-2.6-10.4-1.4c-1.8 2.1-7.4 7.9-9.3 11.7zm-4.7-52.2c-1.1.2-2.2.9-3.2 2.7-1.3 3-2.2 10.8-4 12.6s-3.4 2-3.4 3.6.2 5.4 5 6.8c4.8.2 12.6-7.7 12.6-7.7s4-4.3 5.6-9c-9.3 3.2-16-5.4-12.6-9z" fill="#c01500" stroke="#000" stroke-width=".828"/><path d="M631.2 327.4c-2.8-.7-18.3 3.4-24.2 9.7 1.2-11.2 4.4-19.9 4.4-19.9 1.1-.3 9-2.6 10.2-1.3 1.8 1.9 7.7 7.7 9.6 11.5zm4.4-51.9c1.1.2 1.4 1.6 2.3 3.4 1.2 3 2.5 7.5 4.3 9.2 1.8 1.8 3.4 4.4 3.4 6s-.4 3.8-5.2 5.2c-4.8.2-11.8-6-11.8-6s-3.9-4.3-5.5-8.9c9.3 3.2 15.3-5 12.5-8.9z" fill="#c01500" stroke="#000" stroke-width=".822"/><path class="st9" d="M490.8 319.4s9.7 6.6 9.9 9.7c26-38.6 92.5-50.6 130.3-2.7 5-6.6 10.2-8.8 10.2-8.8-39.8-52.1-119.1-45.6-150.4 1.8z"/><path class="st29" d="M589.6 171.7l3.8-.1-6.8 8.6 8.1 9.5-16 20.1 15.1 18.2c-1.7 4.1-3.6 7.8-6.1 11.1l-8.7-9.6 15.7-19.6-12.9-14.6 7.8-23.6zm-54.2 1.7l-4.1.1 7.6 8.2-8 10 16.7 18.2-13.8 18.5c1.7 4.1 4 8.6 6.6 11.9l8.2-10.4-16.9-18.8 12.4-15.7-8.7-22z"/><path class="st29" d="M554.2 222.2l-6 7.9 21.3 24.7c3.8-1.9 6.7-4.1 9.9-6.7l-11.1-12.8 4.5-13.3 6.5 7.5-20.3 25.9c-3.4-1.4-7.2-3.7-10.6-6.5l10.8-13.6-5-13.1zm-6.6-12.4l3.9 4.9-2.5-6.6-1.4 1.7z"/><path d="M575.4 214.1c.1-.1 3.1-4.2 3.1-4.2l-1.2-1.6-1.9 5.8z" fill="#1e5aa6" stroke="#000" stroke-width=".802"/><text transform="rotate(-49.571 599.826 -380.52)" class="st31" font-size="8.7">L</text><text transform="rotate(-45.388 632.368 -443.225)" class="st31" font-size="8.692">E</text><text transform="matrix(.8081 -.5769 .6014 .799 507.052 314.134)" class="st31" font-size="8.207">O</text><text transform="rotate(-37.802 708.317 -597.06)" class="st31" font-size="8.694">T</text><text transform="rotate(-35.558 735.548 -655.506)" class="st31" font-size="8.692">E</text><text transform="rotate(-28.598 854.04 -873.779)" class="st31" font-size="8.687">R</text><text transform="rotate(-21.936 1036.172 -1211.336)" class="st31" font-size="8.694">R</text><text transform="rotate(-6.2 2965.6 -4966.623)" class="st31 st39">R</text><text transform="rotate(4.394 -3502.553 7583.9) scale(1.00004)" class="st31 st40">R</text><text transform="rotate(29.618 -262.07 1285.148)" class="st31 st41">R</text><text transform="rotate(39.799 -114.822 1003.131)" class="st31 st39">E</text><text transform="matrix(.9991 .1878 -.161 .9869 606.673 301.484)" class="st31" font-size="8.385">O</text><text transform="matrix(.9161 -.1337 .1386 .9903 559.663 290.807)" class="st31" font-size="8.559">O</text><text transform="rotate(-20.274 1097.187 -1343.533)" class="st31" font-size="8.686">A</text><text transform="rotate(45.195 -64.026 906.8)" class="st31 st39">A</text><text transform="rotate(11.363 -1174.599 3059.042)" class="st31 st39">A</text><text transform="rotate(-15.384 1359.861 -1848.906)" class="st31" font-size="8.69">M</text><text transform="rotate(-9.87 1967.28 -3032.623)" class="st31" font-size="8.698">P</text><text transform="translate(565.388 290.307)" class="st31 st40">P</text><text transform="rotate(29.54 -261.087 1277.965)" class="st31" font-size="8.689">P</text><text transform="rotate(6.586 -2240.686 5159.012)" class="st31 st39">I</text><text transform="rotate(46.591 -54.193 888.023)" class="st31 st39">T</text><text transform="rotate(36.822 -149.503 1069.068)" class="st31 st39">T</text><text transform="rotate(16.362 -724.337 2181.685)" class="st31 st41">M</text><text transform="rotate(47.662 -39.754 855.883)" class="st31 st39">G</text><path d="M620.3 146.3s3.8-3.2 6.4-3.3m-5.8 2.8c.1-.1 22.4-3.2 23.1-3.9m-23 4.1c.1-.1 25-2.1 25-2.1m-25.1 2.2s26.5-1.2 28.1.1m-28.2-.2s26 .2 26.4.8m-26.3-.8l25 2m-25.3-1.8c.1 0 25.4 2.2 27.9 5.4m1.4 4.6c-.1-.1-8.7-10.3-29.3-10.1m0 .2s14.4 1 18.9 6m-18.6-6.2s9.3-1.8 19 9.9" fill="none" stroke="#fff700" stroke-width=".828" stroke-linecap="round"/><linearGradient id="SVGID_3_" gradientUnits="userSpaceOnUse" x1="263.762" y1="229.93" x2="312.292" y2="231.96" gradientTransform="matrix(.3472 0 0 -1.0934 536.827 454.243)"><stop offset="0" stop-color="#d5dfff"/><stop offset="1" stop-color="#fff"/></linearGradient><path d="M615 156.7s12.9.5 12.9 1.8-9.6 3.7-9.7 9c-.1 5.3 7.3 5.7 7.8 12.4s-5.8 7.7-7.1 9.5c-1.3.9-4.3 10.3-3.9 15.9s2 24.3 4.9 28.1c2.3 1.8 5.7 7.4 9.3 5.7 3.7-1.8 1.1-8.2.8-10-.4-1.8 1.5-4.7 1.5-7.3 0-2.7-1.4-4.8-1.3-5.4.1-.6 10.2 2.4 9.6 12.4-.6 10-4.7 6.9-4.7 6.9s1.3 12.2-1.9 13.9c-5.7 3-9.8-.6-9.8-.6l.5 2.5-4.3-2.2s-5.6-7.9-6.8-11.5c-1.3-3.5-2.8-19.3-2.3-22.7.5-3.4.9-23.3.6-24.3-.3-1-1.3-17.7-.6-20.2.8-2.8 4.7-13.9 4.5-13.9z" fill="url(#SVGID_3_)" stroke="#000"/><path d="M601.2 153.4s9-8.7 14.1-7.7c2.6 0 .1 1.9.1 1.9s4.5.4 5.2 2.4c.1.9-2.1 1.1-2.1 1.1s1.9.4 2 2c.1 1.7-19.2.4-19.3.3z" fill="#ff7000" stroke="#000" stroke-width=".828"/><path class="st51" d="M601.7 153s9.6-1.3 13.6-5.3m-3.9 2.7s7.1-.3 7.1.8"/><path d="M636.5 253.6s6.1-1.4 7.7-3.5c1-.8 6.3 7.9-7.7 3.5z" fill="#fff" stroke="#000" stroke-width=".776" stroke-linejoin="round"/><path d="M634.8 203.5s.8 4.7-1.4 7.8c-1.1 1.3-4.5 3.4-4.5 4.9 0 1.5 1.3 3.5 1 5.3-.3 1.8-2.1 3.5-2 5 0 1.5 2.1 9.6 1.9 9.7m-6.1-47.8s-4.8 1.6-5.8 6.4" fill="none" stroke="#fff" stroke-width=".776" stroke-linecap="round"/><path d="M621.7 150.4s1.6 4.5 6.9.2c-3.4-4.6-6.9-.1-6.9-.2z" fill="#c75b00" stroke="#000" stroke-width=".828"/><path d="M625.6 150.2c0 .2-.3.4-.6.4s-.6-.2-.6-.4.3-.4.6-.4.6.2.6.4z"/><path class="st4" d="M578.4 139.9s10 10.9 16.5 10.8c1.2 3.2-3 6.2-4.6 7.6-3.3-1.1-6.3.2-14-9.3.5-6.1 2.2-8.9 2.1-9.1zm13.6-25.3c1.3-4 3.9-7.2 6.1-7.6-.6-3.1 4.7-16.7 20.2-21.9.9 7-6.6 13.8-6.6 13.8s22.8-3.9 27.4-9.7c-.5 2.6-5.1 18.8-29.4 18.7 9.2 8.8-3 15.7-8.2 13.6 9.6-7.3-2.6-11.7-9.5-6.9z"/><path d="M599.8 108.9c4.6-3 6.3-3 10-2.4-2.7.4-2.7.5-2.7.5s-.2.4 1.4 1.9c-1.8-.5-3.5-1.5-8.7 0z" fill="#cccccd" stroke="#ccc" stroke-width=".828"/><path class="st51" d="M598 107s9.1-4.8 14.2-8.2"/><path class="st56" d="M590.2 158.2s12.5 3.4 13.9-14.5c-2.7-7.8-6.5-24.6-.7-29.4-5.3-3.7-11.1.1-11.1.1-.4.8-5.1 7.6 1.3 19.4-15.1-4-9 10.3-9 10.3.6-2.2 8.6-4.4 10.6 7.1.9 2.7-5.3 7.1-5 7z"/><path class="st56" d="M604.3 143.8s13.2-7.1 12.9-23.8c-11.2.2-15.2 14.8-15.2 14.8l2.3 9z"/><path class="st4" d="M545 142.9s-9.8 8.5-15.4 5.8c-4.1 2.5-9-1.9-9-1.9s5.7 20.9 26 5.8c-.3-4.6-1.4-9.3-1.6-9.7z"/><path class="st56" d="M529.5 148.4c.8-4.4 4.3-6.5 7-2.4 3.7.7 7.3-14.3-5.7-11.8 3.7-19.6-7.3-26.9-7.3-26.9s-3.9 21.7-2.1 25.8c1.8 4-2.6-7.4-16.7-10.6-.2 16.4 15.7 24.1 15.7 24.1s4.5 4 9.1 1.8z"/><path class="st51" d="M530.8 134.1s-6.1 5.2-4.7 12.3m-4.7-13s-1.4 5.1 1.7 12.3m-2.6 1.6s2.8-4.6 9 1.3"/><path class="st4" d="M521.7 115.4c0-.1-9.3 0-3.8 9.5-4.1 1.3-13.4-4.7-7-12.8-20.9-.5-29.4-10.5-29.4-19.7 6.1 6.4 20.8 3.8 26 7.7-6.4-5.9-5.1-14.1-5.1-14.1s17.8 5.3 21 21.2c-1 3-1.5 8.4-1.7 8.2z"/><path class="st51" d="M507.3 99.6c3.4 3.5 12.3 4.6 16.8 8.5"/><path d="M511.4 110s7.3-.9 9.4 1.7c-2.9 0-3.8-.7-8 .8 1.2-.6.8-1.7 1.5-1.7s-2.6-.8-2.9-.8z" fill="#cccccd" stroke="#ccc" stroke-width=".589"/><path d="M547.9 52.6s4-3.5 8.4-.4c-2 5.9-9.1 3.7-9.1 3.7s.2 3-.5 4.4c1.4 1.1 2.6 4.6 2.6 4.6s7.3-1.8 8.9 1.4c2.8-.4 4.8 0 4.8 0s5.7-1.4 7.7-1.4 8.4 1.7 9 2.8c.6 1.2 2.7 9.1 4.1 9 1.4-.1-3.4 1.9-4.7-.1-1.3-2-.9 2.6-.9 2.6s4 4.3 4.5 5.2c.5.9-2.5 8.6-.2 13.9-2 .2-2.1 2.2-2.1 2.2-.1 2.3-3.1 3-3.1 3l-.7-3.2-2 1.2.8-2.5s2.7-6.6 3-8.7c.2-2.1-2.5-5.9-4.6-5.9-2.1 0-3.7 6.7-3.7 6.7s-1.1 5.1-.7 5.6S568 95 568 95s-.9 3.1-1.7 4-2.2 1.3-2.2 1.3-1.1-3.1-.7-4.3 5.8-5.8 5.3-9.1 0-2.5-.1-2.6c-.1-.1-2.8-2.5-3-3.8-.1-1.3-3.5 1.7-8 .7-1.4 2.4-1.5 8.4-1.5 8.4s-.5 7.2.5 8c1 .8-2.4 2.6-2.4 2.6l-2.4 3.2s-.8-2-.8-1.9-1.7 1.2-1.7 1.2l1-2.4c-.1-1.8 2.3-6.7 2.3-10.8s.3-8.6.3-8.6-4.4-.2-4.3 4.3c.1 4.5-1.1 4.7-.8 6s1.4 5 1.1 6c-.4 1.1-1.8 1.4-1.8 1.4l-.4.6s-4.4 2-4.3 2.8-.1-2.4-.1-2.4l-.2-3.4s2.6-1.7 2.6-5.8-.7-4.4-.6-5.4c.1-.9.7-4.4.6-4.7-.1-.4-2.5.9-3.2.9-.7 0 1.3-2.5 1.5-4.3s-2.4 1.7-4.5-.4c1-2.2 2.5-2.8 2.7-4.5s-1.7 1.4-3.3.2c.1-1.6 1.8-3 1.8-3s-1.3-.2-1.9 0c-1.1-.4 1.2-2 1.3-4.4s-1.3-3.3-1.3-3.4-2.4-2.1-2.7-3-.4-1.8-.4-1.8-3.9 2.8-8.5-3.2c4.2-3.6 8.8-.9 8.8-.9s1.2-3.3 6.6-3.1c5.5.5 6.5 3.6 6.3 3.2z" fill="#923f00" stroke="#000" stroke-width=".828"/><path class="st56" d="M577.6 113.8c.1 0 10 .3 10.1 5.6.1 5.3-3 3.9-3.1 3.9s-7.3-.9-7.3-.9l.3-8.6z"/><path d="M568 112.3s12.4-.1 11.7 5.3c-.7 5.4-3.8 4.3-3.8 4.3l-6-.5-1.9-9.1z" fill="#fffeff" stroke="#000" stroke-width=".828"/><path class="st56" d="M561 111.7l7.2.6s4.3.6 4.1 4.7c-.2 4.1-4.4 4.2-4.4 4.2l-7-.4.1-9.1z"/><path class="st4" d="M544.2 113.8c-.1 0-10 .3-10.1 5.6-.1 5.3 3.1 3.9 3.2 3.9s7.3-.9 7.3-.9l-.4-8.6z"/><path class="st56" d="M553.8 112.3s-12.4-.1-11.7 5.3c.7 5.4 3.8 4.3 3.8 4.3l6-.5 1.9-9.1z"/><path class="st4" d="M560.8 111.7l-7.2.6s-4.3.6-4.1 4.7 4.4 4.2 4.4 4.2l7-.4-.1-9.1z"/><path class="st60" d="M580.1 171.5s5.2-7.6 7.3-6.8c1.9.6.5 6.5-.5 7.1l-6.8-.3zm-35.5 1.3c-1.6-2.3-4-8.5-6.2-6.8-1.9.6-.5 6.5.5 7.1l5.7-.3z"/><path class="st51" d="M548.1 157.8s10.1 6.2 13.4 6.4 13.8-8.1 13.8-8.1"/><path class="st60" d="M549 133.4l1.9-2.4 9.7 4.9 9.8-4.4 1.9 2-11 7.7-12.3-7.8z"/><path class="st61" d="M541.4 133.3c.8 1 7 8.6 8.2 14.9 1.1 6.3-.6-8.6-.6-8.6s7.7 3.8 8 6.2 3.7-.2 3.9-.6l-22.4-14.5 2.9 2.6zm38.2-.4s-8.1 10.7-7.2 22.4c-1.7-5.6-.3-14.8-.3-14.8l-1.8 1.1s-1.8 7.9-4.2 9.1c-.4-.9-.3-1.3-.3-1.3s-2.5 3.2-3 3.5.2 10.9.2 10.9.8 7.6 1.8 7.6c-1.1.5-2.4 1.4-2.4 1.4l-1-20.4 2.3-2.3s3.1-3.7 3.3-7.3c-1.3 1.1-2.8 1.5-2.8 1.5s-.4 5.2-1.6 5.9c-1.2.7-1.2 2.1-1.2 2.1l-.3-6.7 18.5-12.7z"/><path d="M560.9 145.3l1.6 32.2" fill="none" stroke="#000" stroke-width=".776" stroke-linecap="round"/><path class="st51" d="M541.1 160.7s3.7 2.2 5.1 8.8c12.1-.9 15.9 3.4 15.9 3.4s9.9-4.8 14.5-3.9c1.6-3.4 6.2-7.7 6.2-7.7"/><path d="M536.1 129.1l24.9 16.3 22.4-15.1s4.7-2.6 4.3-4.4c-.4-1.9-2-1.1-2.8-.8-.8.3-23.4 16.3-23.4 16.3l-24.1-15.2s-1.8-.6-2.1.6c-.4 1.1.5 1.7.8 2.3z" fill="#b4b6b9" stroke="#000" stroke-width=".828"/><path class="st61" d="M580.6 124.9s-6.4-2.7-6.4-.4c0 2.3.2 2.6 1.2 4.1 1 1.5-.8 2.5-.8 2.5s-.2-.7-.6-1.7c-.4-1-3.8-1.7-4.1-2.9-.3-1.2.7-3.1-1.3-3.4-2-.2-4 .8-4.4 3.2-.4 2.3-3.1 7.8-3.1 7.8l.4-12.4c4.5.3 12.8 1.3 19.2 2-1.9-.3.7.1.7.8-.2.5-.9.5-.8.4zm-22.6-3.2c-1.1 0-6.8.7-8.3 1.5-1.4.8 2.3 2.2 1.9 3.3s-.5 3.4-2.3 2.9c-1.8-.5-7.9-3.5-8-4.5s-1.4-1.1-1.4-1.1 17.3-2.2 18.1-2.1z"/><path class="st51" d="M560.8 120.3v15.3M549 102.3s-7 11.3-7.1 11.7"/><linearGradient id="SVGID_4_" gradientUnits="userSpaceOnUse" x1="125.468" y1="222.686" x2="138.608" y2="222.686" gradientTransform="matrix(.4601 0 0 -.8251 528.132 290.857)"><stop offset="0" stop-color="#474747"/><stop offset="1" stop-color="#f50"/></linearGradient><path d="M561.9 102.1s3 4.1 2.7 5.3c1.2 1 2.6 4.8 2.6 4.8" fill="url(#SVGID_4_)" stroke="#000"/><path class="st51" d="M573.6 101.4s-6.6 9.3-6.4 9.9"/><path d="M540 57.4c-.1.5-1 .7-1.9.4s-1.5-.9-1.3-1.4c.2-.5 1-.7 1.9-.4s1.5.8 1.3 1.4zm2.7-.2c.1.5 1 .7 1.9.4s1.5-.9 1.3-1.4c-.1-.5-1-.7-1.9-.4s-1.5.9-1.3 1.4z"/><path d="M619.4 248.8s-2.4.5-2.4.7c.1.2-7.1.5-7.2.2-.2-.2-1.1 1.2-1.1 1.2l1.1-.7s1.7 1.8 2.3 1.7-.2.7-.1.8c.1.1.7-.3.7-.3l11.8-.2-5.1-3.4z" fill="#ff7000" stroke="#000" stroke-width=".828" stroke-linejoin="round"/><path d="M623.8 252.5l-9.7.3s-2.4 2.2-2.6 2.7c-.1.5 1.6.7 1.6.7l.5 1.8 1.2-.5s8.2 1.2 15.7-.5c3.8-1.3 4.5-2.9 1.8-3.9-2.5-.8-8.4-.5-8.5-.6z" fill="#ff7000" stroke="#000" stroke-width=".776" stroke-linejoin="round"/><linearGradient id="SVGID_5_" gradientUnits="userSpaceOnUse" x1="134.645" y1="-1420.783" x2="95.266" y2="-1384.083" gradientTransform="matrix(1.5914 0 0 -.2385 441.018 -66.282)"><stop offset="0" stop-color="#d5dfff"/><stop offset="1" stop-color="#fff"/></linearGradient><path d="M590.8 272.3l17.4-.8-3.2-2.7 47-1.9-1.6-3.7-52.6 2.1 6.3 3-14.2.4.4 1.5-3.7-.1c-.1-.1 4.1 1.5 4.2 2.2z" fill="url(#SVGID_5_)" stroke="#000"/><linearGradient id="SVGID_6_" gradientUnits="userSpaceOnUse" x1="162.714" y1="5.706" x2="153.024" y2="25.306" gradientTransform="matrix(.5504 0 0 -.6896 521.177 208.389)"><stop offset="0" stop-color="#d5dfff"/><stop offset="1" stop-color="#fff"/></linearGradient><path d="M610.3 176.4c-1.4-.7-7.5-1.5-14.2 2.9l.3 15.6s9.9-5.4 14.8-4.1c-.4-4.9-.4-11.1-.9-14.4z" fill="url(#SVGID_6_)" stroke="#000"/><path class="st51" d="M514.2 223.7l-41 40.7m59.3-40.4l-33.2 43.8m31.7-55.2l-44.4 53.7m-1.3-.7l4.3-5m49.9-21l-17.2 23.7m-.8 3.2l.4 9m25.4-27.6L529 270.8m15.1-1.8l7.4-12.2m-4.6-2.4l-8.9 10.1m6.2-19.6l-6.1 7.4m-1.8-18.2s-18.5 27.2-18.3 29.4m16.4-33c-.4.3-16 20.9-16 20.9m-.9 6.6l-2.8 3.4m-3.6 5.2l-4.3 5.6"/><path d="M512.2 161.2s-1.3 3.9 0 5.9c1.3 2 9.2 18 9.2 18s5.4-6.6 7.4-6.8c2-.2 1.1 17.2 1.1 17.2s-3.2 3-5.2 2.9c-2-.2 4.8 6.8 4.7 12.7s-9 35.4-12.2 35.9c-3.2.5 1.4-5.4 1.3-7s-1.1-.5-1.8-2.3 1.1-4.5.7-6.3c-.4-1.8-2-1.4-2.2-2.7-.2-1.3 1.1-1.6.9-3.1-.2-1.4-2.2-1.1-2-2.3.2-1.3.4-.7.2-3s-.5 1.6-2.5 1.8-3.6 4.7-3.6 4.7-4 5.6-7.9 3c2.3 5 .5 7.2-.4 7.4-.9.2.7 3.9-1.4 4.1s1.6 8.4-.9 9.2c2.7 1.3.5 2.9.5 2.9s-6.2.5-4.8 8.6c-18.3-6.5-27.3-17.6-27.1-28.9.2-11.3 3.8-21.5 12.6-25.3 2.5-9.3 6.8-19.4 6.8-19.4s-.7-4.1-.2-6.8c.5-2.7 3.1-5.4 3.1-5.4s-.4-6.5-.2-9.7c.2-3.2 1.4-4.7 1.6-6.5s-.5-11 1.3-12.6 5.2-1.4 7-2.5c1.8-1.1 4.1-3.1 6.5-2.9s4.3 1.8 4.3 1.8 8.8 0 9.3 3.4-1.8 4.7-1.8 4.7 1.1 4.8-4.3 9.3z" fill="#8a9396" stroke="#2b2b2b" stroke-width=".828"/><path d="M504.4 148.8c.3.5-.4 1.4-1.4 2s-2.2.6-2.5.1c-.3-.5.4-1.4 1.4-2s2.2-.7 2.5-.1z" fill="#cecfcf" stroke="#2b2b2b" stroke-width=".828"/><path d="M502.9 149.7c0 .3-.3.6-.7.6-.4 0-.7-.3-.7-.6s.3-.6.7-.6c.4 0 .7.2.7.6z"/><path class="st71" d="M516 155.6s2.2 9.7-.4 16.5m1.1-20.7s4.3 5.6 3.7 12.6m-3.3-13.9c.1 0 3.6 3 3.4 5.1m-2.6-6.3s2.3 1.6 2.9 3.3"/><path class="st51" d="M516.8 147.9s-8.4 13.6-7.3 22.1"/><path class="st71" d="M517.4 147.5s-11.1 6.6-13.2 28.1"/><path class="st51" d="M516.2 151.5l-4.4 3.3"/><path class="st71" d="M500.1 176.9s6.2-25.7 17.2-29.4"/><path class="st72" d="M521.5 185.5s5.9-7.4 7.3-7.1 1 17.2 1 17.2-4.4 3.3-5.3 3.2c-1-.1 4.9 8 4.8 11s-.3 3-.3 3 0-1.8-1.4-4.7-.6-6.2-9.5-13.4c-2.2-4.5 4.4 2.7 5.8 1.6 1.3-1.2-2.5-10.6-2.4-10.8z"/><path class="st73" d="M511 143.8s-2.5.7-2.8 1.7c-.3 1-1.8 2-2.6 1.7-.8-.3-2.3-1.6-2.3-1.6"/><path class="st74" d="M496.9 152.5s-3.7 3.7-1.9 4.2c1.8.4 3.7-2.9 3.7-2.9s0 5.8 1.6 4.8c1.6-.9 6.2-4.2 6.2-4.2s1.6-.1 1.9 0c.3.1 4.3 3.5 6.9 2.3-1.5 3.8-3.2 4.3-3.2 4.3s-2.7 3.5-6.2 2.7c-3.5-.8-4.4-2.3-4.4-2.3s-2.9.2-3.8-1.1c-.9-1.4-1.2-2.1-1.2-2.1s-1.7 1.7-2.1.9c-.5-.9-.1-5.5 2.5-6.6z"/><path class="st73" d="M518 147.3s-6.9-2-9.2 1.4c-2.4 3.4-1.8 5.3-.6 5.6"/><path d="M519.1 147.1c0 .8-.6 1.5-1.3 1.5s-1.3-.7-1.3-1.5.6-1.5 1.3-1.5 1.3.7 1.3 1.5z"/><path class="st72" d="M499 164.6s2.8 4.3 6.1 5.5-2.3 2.2-5.7-.1c-2.4-3.3-1.8-5.7-1.8-5.7s.8-.5 1.4.3zm24 25.5s-7.9-10.9-10.1-11.5c-2.3-.6 1.7-1.1 4.2 1.2 2.4 2.3-.6-3.8-.6-3.8l6.5 14.1z"/><path class="st74" d="M498.3 253.4c3-.8 16.2 7.6 19.1 9.7 3 2.1 9.2.8 9.2.8s-2.9 1.7-4.6 2.2c-1.8.4 5.3.4 5.3.4s-16.8 4.6-33.9-4.4c-1.6-7.1 3.6-8.7 4.9-8.7z"/><path class="st72" d="M517.5 192.8s-2.2-.4-3.3-1.7c-1.1-1.3-2.8-4.5-4.4-5.8-1.7-1.3-10-5.9-13.1-5.6s-3.9-.3-4.3-.7-1.6.2-1.4 1.7c.2 1.6-2.3 5-1.4 6.6.9 1.6 5.2 8.2 6.1 8.4s.3 3.8.3 3.8 3.8 3.9 4.8 4.1c1 .2 1.9.9 1.8 1.8-.1.9-4.2 5.9-4.2 5.9s-4.4 2.3-4.5 3.6c-.1 1.3 1.1 4 4.6 4.9 3.5.9 12.9.2 13.4-.6s1.2-5.7.9-6.1-2.6-1.9-3.8-1.7c-1.2.2-2.3 1.2-2.2 1.4.1.2-1.7 1.1-1.7.3s3.5-4.7 3.8-4.4 5.3.8 6.2 3.3c.9 2.5.9 4.3 3.5 4 2.6-.3 6.2-2.6 6.5-7.6s-2.9-8.3-3.7-8.8-3.5-2.1-3.7-2.9c0-.8-.6-3.3-.2-3.9z"/><path class="st72" d="M470.9 214.7s8.4-2.2 10.5-2.1c2.2.1 10.3 3.8 12.7 6.1 2.4 2.3 7.2 7.8 10.4 7.3s4.1-1.1 4.1-1.1l-1.2 2.4s-2.6.7-3.9.4c-1.3-.3-3.8-1.1-6.4-3.6-2.5-2.5-10.4-9.2-17-8.7s-10.5 7-10.5 7 .1-3.2.3-3.9-1.4 1.5-1.4 1.5l2.4-5.3z"/><path class="st72" d="M501.7 221.2c.1.1 2.1.6 5.6.6s5.3-1.5 5.3-1.5l-.2-1.3.5-1.9s2.6 2.7 2.6 3.2-1.1.8-1.1.8l-.4-1.3-.9 1.1s-5 4-7.8 3.4c-2.8-.6-5.3-2.4-4.6-2.8.7-.5 1.1-.3 1-.3zm-12.2 7s-3-.1-4.4.6-1.8 1.5-2.8 1.3c-.9-.1-1.6-1.3-1.4-1.8.4-.8 2.2-1.7 5.6-1.5 3.5.4 3 1.4 3 1.4zm10.6 8.2c0-.2-.2-4.4-1.9-6.1-1.7-1.7-3.7-1.7-4.6-1.5-.9.2 3.4 2.1 3.8 3.3s1.8 4.7 1.5 5.6c-.4.9-1.1-2.4-3.7-3.3s-6.3-.4-5.6.8 3.7.1 5.2 2.6 2.6 5.2 2.6 5.2l.5-1.8 1.3-.4.2-3.5.7-.9z"/><path class="st74" d="M497.9 250.2l-2.8-5.5s-.9-3.5-3.2-4.5c-2.3-1-5.4-.8-5.4.4s5 2.7 5.3 3.3c.3.6.2 1.7-.3 1.8-.4.1-2.6-.8-3.8-.5-1.1.3-1.8 1.7-3.5 1.3-1.7-.4-3.1-5.8-2.4-6.3.6-.5-1.2 1-1.6-.4s.5-5.8-.1-6.3-3.8-2.4-3.8-2.8c-.1-.4.2-21.5 17.8-4-7.6-9-10.5-8-11.9-8-1 0-7.9.6-9.6 9.3-1.7 8.7-3.8 3.3-3.8 3.3s-.4 3.8 1.5 4.9c1.8 1.1-.9 4.2-.9 4.2s-3.3-8-2.8-11.5c-.6 2.8-.6 9.8 3.6 17.4 4.9 5.1 9.4 9.9 21.6 15.2 6.4-10 6.1-11.1 6.1-11.3z"/><path d="M486.4 250.3s3.6.4 4.5 2.3c1 1.8 1.4 4.6 1.4 4.6.6-1.2.9-2.2 2-3.1s2-1 2-1.6-3.8-4.6-5.7-4.8-5.2 2-5.2 2-.5.9 1 .6z" fill="#8a9396" stroke="#2b2b2b" stroke-width=".776" stroke-linejoin="round"/><path d="M494.5 259.6s9.2 4.2 24.4 4.5" fill="none" stroke="#8a9396" stroke-width=".776" stroke-linecap="round"/><path d="M525.3 216.8s-.8 7.7-6.7 23" fill="none" stroke="#2b2b2b" stroke-width=".776" stroke-linecap="round"/><path class="st73" d="M524.1 221.5s-1.8 5.6-6.8 9.7"/></svg>