<svg xmlns="http://www.w3.org/2000/svg" xmlns:xlink="http://www.w3.org/1999/xlink" viewBox="0 0 960 600">
<defs>
<radialGradient id="a">
<stop stop-color="#f9f0aa" offset=".216"/>
<stop stop-color="#b07e09" offset="1"/>
</radialGradient>
<radialGradient id="d" cx="447.42" xlink:href="#a" gradientUnits="userSpaceOnUse" cy="308.27" r="16.534"/>
<radialGradient id="e" cx="451.56" xlink:href="#a" gradientUnits="userSpaceOnUse" cy="313" r="10.911"/>
<radialGradient id="f" cx="454.11" xlink:href="#a" gradientUnits="userSpaceOnUse" cy="308.64" r="9.78"/>
<radialGradient id="g" cx="458.39" xlink:href="#a" gradientUnits="userSpaceOnUse" cy="307.06" r="17.354"/>
<radialGradient id="j" cx="445.98" xlink:href="#a" gradientUnits="userSpaceOnUse" cy="252.36" r="13.018"/>
<radialGradient id="m" gradientUnits="userSpaceOnUse" cy="215.27" cx="477.86" r=".345">
<stop stop-color="#a50a0a" offset=".259"/>
<stop stop-color="#4c0505" offset="1"/>
</radialGradient>
<radialGradient id="n">
<stop stop-color="#fff" offset="0"/>
<stop stop-color="#fff" stop-opacity="0" offset="1"/>
</radialGradient>
<linearGradient id="h" y2="231.96" gradientUnits="userSpaceOnUse" x2="472.36" y1="259.17" x1="473.91">
<stop stop-color="#b07e09" stop-opacity="0" offset=".216"/>
<stop stop-color="#b07e09" offset="1"/>
</linearGradient>
<linearGradient id="i" y2="326.58" gradientUnits="userSpaceOnUse" x2="485.49" y1="296.66" x1="483.13">
<stop stop-color="#b07e09" stop-opacity="0" offset=".216"/>
<stop stop-color="#b07e09" offset="1"/>
</linearGradient>
<linearGradient id="k" y2="240.58" gradientUnits="userSpaceOnUse" x2="455.37" y1="249.52" x1="451.54">
<stop stop-color="#f9f0aa" offset=".216"/>
<stop stop-color="#b07e09" offset="1"/>
</linearGradient>
<linearGradient id="l" y2="270.45" gradientUnits="userSpaceOnUse" x2="475.93" y1="237.25" x1="473.31">
<stop stop-color="#f9f0aa" offset=".216"/>
<stop stop-color="#b07e09" offset="1"/>
</linearGradient>
</defs>
<path fill="#4997d0" d="M0 0h960v600H0z"/>
<path fill="#fff" d="M320 0h320v600H320z"/>
<g stroke="#24420e">
<path d="M452.12 377.48c2.67-.407 4.208-1.138 6.035-1.786m2.215-4.054c1.347 1.43 2.417 2.95 2.993 4.635m-8.113-5.075c1.405 1.313 2.376 2.712 3.138 4.152M408.81 238.77c-1.044 1.602-3.092 2.726-4.78 3.428m-.34-.198c.035-1.368-.236-3.026.05-4.394m-1.98 5.024c.114.37.435 1.4.676 2.028m2.024.922c-.378.082-1.52.257-2.028.338m-3.952-.878c-.013 2.52.286 5.553.53 7.82m-1.79-.96c.472.757.947 1.504 1.545 1.883m-4.585 6.467c.49.94.943 2.122 1.304 3.96m3.716-4.63c-.414.205-1.215.93-1.93 1.545m1.59 4.395c-.98.872-2.198 1.504-3.428 2.124m-3.812 40.406c1.153 1.893 2.42 3.56 3.96 4.684m.58 1.686c-1.294-.166-2.16-.545-2.945-.966m4.395 8.406l1.69.966m-.44 3.474c1.255.816 2.51 2.283 3.765 3.862m-1.445 2.848c1.385.293 2.493.64 3.235 1.062m-1.065 2.418l2.124.072m1.206-5.382c-.102 1.534-.253 2.972-.483 4.25m1.013 1.59l.434-1.642m4.686 5.992l-.146 3.236m39.206 27.904l-1.16 1.593m-2.41-3.913l-.676-1.834" stroke-width=".437" fill="none"/>
<g stroke-width=".164">
<path d="M486.11 384.93c-.797-1.256-2.108-2.028-3.277-2.656-7.727-4.056-15.406-5.843-24.116-7.244-2.013-.337-4.027-2.22-6.087-3.187-4.963-2.365-10.49-3.284-15.31-5.697-.33-.146-1.546-.87-2.11-1.545-1.918-2.22-5.384-2.89-7.537-4.97-8.335-7.87-17.184-15.11-21.772-25.54-5.57-12.7-12.5-25.78-11.56-40.22.61-9.12-.75-18.35 1.5-27.04 3.33-12.89 7.59-25.64 15.41-36.31l-1.31.82c-7.87 10.68-12.13 23.43-15.45 36.32-2.25 8.69-.89 17.92-1.5 27.05-.93 14.44 6 27.53 11.57 40.27 4.59 10.38 13.49 17.63 21.78 25.55 2.16 2.03 5.62 2.71 7.54 4.98.56.63 1.83 1.4 2.11 1.55 4.83 2.41 10.35 3.33 15.32 5.65 2.06 1.01 4.08 2.85 6.09 3.19 8.71 1.4 16.39 3.23 24.12 7.24 1.22.63 2.49 1.4 3.28 2.66l1.36-.82" fill="#406325"/>
<g fill="#67923d">
<path d="M406.34 331.62c-2.794-6.3-1.365-21.608-.198-23.53 6.633 13.006 4.425 23.74.198 23.53zm45.86 45.39c-7.092.364-20.61 9.295-21.864 11.396 15.085.116 24.02-7.315 21.864-11.396zm7.46-4.29c-6.845-5.45-14.19-23.66-14.032-26.5 15.11 10.833 18.936 24.28 14.032 26.5z"/>
<path d="M454.61 372.78c-6.95-4.235-15.786-20.115-15.938-22.754 15.202 8.194 20.198 20.13 15.938 22.754zM439.05 366c.984-7.822-5.666-24.24-7.585-25.98-2.95 16.468 2.997 27.574 7.585 25.98zm-27.31-24.28c-2.304-5.646-.613-19.32.47-20.998 5.52 11.696 3.264 21.218-.47 20.998zm-13.71-76.83c3.59-6.648 18.38-15.712 20.99-15.93-6.77 14.568-18.037 19.828-20.99 15.93z"/>
<path d="M398.74 259.33c2.148-7.282 14.874-19.265 17.36-20.034-3.727 15.676-13.678 23.18-17.36 20.034zm27.81 99.15c-4.992-6.176-8.01-23.865-7.29-26.36 11.27 12.514 12.03 25.233 7.29 26.36zm-28.65-36.46c-6.91 1.09-21.36-4.636-22.92-6.337 14.532-3.15 24.287 2.072 22.92 6.337zm-2.22-9.68c.823-5.577 8.665-15.81 10.36-16.66-1.11 11.958-7.448 18.6-10.36 16.66zm51.33 58.54c-8.475.435-24.63 11.107-26.128 13.618 18.028.143 28.705-8.74 26.128-13.618z"/>
</g>
<g fill="#406325">
<path d="M406.41 331.47c4.227.21 6.405-10.396-.27-23.38 1.212 12.32 1.21 22.31.27 23.38zm11.18 19.99c-4.474-5.47-19.38-11.328-21.712-11.14 8.885 12.08 19.88 15.096 21.712 11.14zm-24.42-52.98c-1.147-8.043-12.334-22.713-14.743-23.97 1.517 17.176 10.548 26.698 14.743 23.97zm8.39 34.29c-4.993-3.68-18.97-5.344-20.94-4.723 10.137 8.305 20.212 8.458 20.94 4.723zm-9.36-24.83c-2.885-5.69-14.812-13.482-16.892-13.7 5.517 12.386 14.558 16.938 16.892 13.7zm2.73-47.54c.905-7.573-5.533-23.446-7.345-25.158-2.866 15.925 2.918 26.664 7.345 25.158zm4.47-14.92c2.658-6.496.756-22.43-.522-24.417-6.403 13.51-3.827 24.648.522 24.417z"/>
<path d="M404.42 237.83c3.136-4.77 4.162-17.685 3.485-19.47-7.236 9.715-6.958 18.944-3.485 19.47zm5.95-6.14c4.402-3.477 9.224-15.5 9.084-17.433-9.74 6.954-12.22 15.84-9.084 17.433zm-16.05 43.2c.108.868-.978-8.18-10.054-18.314.41 14.818 6.25 20.42 10.054 18.314zm32.56 85.78c-6.176-4.56-23.385-6.73-25.767-5.927 12.562 10.355 24.878 10.55 25.767 5.927zm12.07 5.24c-4.542 1.593-10.443-9.417-7.54-25.883 2.81 13.955 6.18 25.063 7.54 25.883zm13.3 11.15c2.116 4.082-6.7 11.436-21.787 11.315 11.952-4.89 21.24-9.86 21.787-11.315zm7.39-4.47c4.865-2.25 1.1-15.536-14.01-26.37 8.596 13.215 14.456 24.61 14.01 26.37z"/>
<path d="M454.57 372.67c4.278-2.666-.69-14.444-15.89-22.64 9.403 11.184 16.094 20.968 15.89 22.64zm-42.79-30.99c3.735.222 5.957-9.262.477-20.924.718 10.974.418 19.978-.477 20.924zm-13.76-76.74c2.95 3.897 14.055-1.31 20.837-15.923-10.165 9.338-19.225 16.064-20.837 15.923z"/>
<path d="M398.86 259.33c3.682 3.145 13.542-4.302 17.27-19.977-8.097 11.245-15.645 19.736-17.27 19.977zm27.72 99.09c4.74-1.125 3.954-13.784-7.254-26.272 5.013 13.416 8.016 24.756 7.254 26.272zm-28.87-36.46c1.407-4.24-8.297-9.37-22.803-6.26 12.26 2.196 22.043 5.043 22.803 6.26zm-1.94-9.61c2.903 1.887 9.178-4.66 10.286-16.617-4.674 9.18-9.166 16.265-10.286 16.617zm51.2 58.68c2.576 4.876-7.96 13.667-26.035 13.522 14.283-5.844 25.38-11.783 26.035-13.522z"/>
<path d="M399.36 326.3c-2.658-6.262-14.798-15.462-16.982-15.84 4.946 13.637 14.248 19.145 16.982 15.84z"/>
</g>
<g fill="#67923d">
<path d="M392.42 273.92c4.074-4.666 17.47-9.134 19.6-8.865-8.043 10.41-17.942 12.515-19.6 8.865zm25.07 77.59c-1.807 3.918-12.696.916-21.646-11.152 10.885 6.83 20.244 11.51 21.646 11.152zm-24.39-53.05c-4.195 2.727-13.128-6.738-14.685-23.884 6.623 13.203 13.037 23.384 14.685 23.884zm8.42 34.34c-.77 3.73-10.688 3.59-20.864-4.717 10.73 3.406 19.74 5.332 20.864 4.717zm-9.45-24.95c-2.333 3.24-11.29-1.27-16.807-13.657 8.192 7.967 15.492 13.744 16.807 13.657zm2.76-47.55c-4.427 1.556-10.16-9.08-7.294-25.005 2.667 13.488 5.935 24.175 7.294 25.005zm4.47-14.86c-4.304.227-6.87-10.815-.468-24.322-.822 12.797-.507 23.234.468 24.322zm5.04-7.67c-3.473-.525-3.717-9.655 3.52-19.37-2.74 9.977-4.15 18.367-3.52 19.37zm5.98-6.08c-3.136-1.643-.7-10.43 9.038-17.337-5.526 8.644-9.318 16.178-9.038 17.337z"/>
<path d="M394.25 274.9c-3.804 2.106-9.577-3.503-9.987-18.322 5.102 11.684 8.603 17.807 9.987 18.322zm32.57 85.8c-.886 4.625-13.144 4.4-25.678-5.895 13.168 4.274 24.246 6.694 25.678 5.895zm-8.17-9.48c-4.023-4.343-7.158-17.347-6.747-19.242 9.012 8.743 10.215 18.165 6.747 19.242zm-16.88-24.99c-3.57-5.786-3.876-20.907-2.92-22.956 8.264 11.81 7.254 22.585 2.92 22.956zm-2.63.09c-2.736 3.305-11.93-2.16-16.872-15.833 8.132 9.11 15.474 15.812 16.872 15.833z"/>
</g>
<g fill="#406325">
<path d="M392.37 274c1.617 3.623 11.45 1.53 19.493-8.88-11.97 6.793-16.71 9.74-19.493 8.88zm9.34 52.07c4.332-.37 5.33-11.037-2.933-22.846 2.664 11.854 3.79 21.678 2.933 22.846zm16.96 25.11c3.47-1.07 2.25-10.45-6.713-19.178 4.403 9.727 7.205 18.01 6.713 19.178z"/>
<path d="M394.23 291.77c2.058-8.386-1.702-22.6-4.3-25.56-4.716 15.428-.245 26.6 4.3 25.56z"/>
</g>
<path d="M393.93 293.77c-5.895 1.34-8.645-12.034-4.08-27.078 1.07 13.546 2.834 26.147 4.08 27.078z" fill="#67923d"/>
<path d="M392.73 293.72c-.558-7.527 6.934-23.087 8.915-24.707 2.015 15.803-4.462 26.308-8.915 24.707z" fill="#67923d"/>
<path d="M392.84 293.61c4.413 1.636 10.85-8.76 8.835-24.564-3.51 13.267-7.445 23.764-8.835 24.564z" fill="#406325"/>
<path d="M394.13 303.26c.005-7.61 8.47-22.23 10.562-23.62.834 16.163-6.332 25.83-10.562 23.62z" fill="#67923d"/>
<path d="M394.21 303.41c4.23 2.21 11.306-7.364 10.47-23.525-4.408 12.857-9.047 22.9-10.47 23.525z" fill="#406325"/>
</g>
<g stroke="#511124" stroke-width=".218" fill="#ba1f3e">
<circle cx="396.84" cy="251.27" stroke-width=".186" r="1.085"/>
<circle cx="405.2" cy="245.07" stroke-width=".186" r="1.085"/>
<circle cx="401.56" cy="241.71" stroke-width=".186" r="1.086"/>
<circle cy="313.12" cx="392.5" r="1.277"/>
<circle cy="297.13" cx="395.03" r="1.277"/>
<circle cy="334.46" cx="408.21" r="1.277"/>
<circle cy="336.43" cx="402.39" r="1.277"/>
<circle cy="367.63" cx="446.7" r="1.277"/>
<circle cy="374.71" cx="449.61" r="1.277"/>
</g>
</g>
<g stroke="#24420e">
<path d="M561.15 258.97c.623.62 1.174.808 2.295 1.895m-6.625-18.945c-.035-1.368-.633-3.605-.918-4.973m3.448 2.983c.055 1.952-.218 3.81-1.062 5.504m-4.158-.534c1.753 1.576 3.505 3.077 5.258 3.892m3.822 1.228c.105 1.98-.142 3.96-.683 5.94m.323 1.51l1.314-2.262M562.3 267.43c1.4.29 2.81 1.946 3.505 3.482m.475-1.292l1.64-2.185m1.71 30.725a23.9 23.9 0 0 1-2.458 3.483m-3.962-.073c.79 1.456 1.556 2.946 2.595 4.03m2.455 5.87c-1.307 1.773-2.766 3.165-4.438 4.03m.138 4.5c-1.093.75-2.426 2.953-3.687 4.712m8.437-20.182l-2.124.87m-1.396-7.49l1.256 1.11m-9.296 37.39c-.84-.108-1.456.01-2.124.072m-1.996-1.932l.615 1.64m-7.715 5.12c-.262 1.866-.072 3.733.204 5.6m4.306-9.02l1.024 2.254m3.826-.204l-2.526.41m-30.854 25.27l-.917 1.738m11.897-3.928c-1.492.187-2.778-.043-4.097-.204m-5.463 5.944a27.282 27.282 0 0 0-2.936-.956m-14.744 2.656c-.906.773-1.99 2.435-3.073 4.097m-.547-4.567c-2.433 1.253-3.182 3.71-4.438 5.804m2.798 2.866c-1.553-.46-3.412-1.228-5.326-2.048m16.766-.682c-2.32-1.205-4.748-1.087-7.135-1.468m10.755-.342c-3.628-.707-7.01-.61-10.276-.137m7.776-2.603l-1.4-.58m-5.53 5.5l-2.323-1.296m57.943-49.194c-1.256.816-2.51 2.283-3.766 3.863m1.826-79.623l-2.153-.724" stroke-width=".437" fill="none"/>
<g stroke-width=".164">
<path d="M474.39 384.85c.797-1.256 2.108-2.028 3.277-2.656 7.726-4.056 15.406-5.843 24.117-7.244 2.013-.337 4.027-2.22 6.087-3.187 4.97-2.365 10.49-3.284 15.32-5.697.33-.146 1.55-.87 2.11-1.545 1.92-2.22 5.39-2.89 7.54-4.97 8.34-7.87 17.19-15.11 21.77-25.54 5.58-12.7 12.51-25.78 11.57-40.22-.61-9.12.75-18.35-1.5-27.04-3.32-12.89-7.59-25.64-15.4-36.31l1.31.82c7.87 10.68 12.13 23.43 15.46 36.32 2.25 8.7.89 17.92 1.5 27.05.94 14.44-5.99 27.53-11.56 40.28-4.59 10.38-13.48 17.63-21.77 25.55-2.15 2.03-5.62 2.7-7.54 4.97-.56.63-1.82 1.4-2.1 1.55-4.82 2.41-10.35 3.33-15.31 5.65-2.06 1.01-4.07 2.85-6.09 3.19-8.71 1.4-16.39 3.24-24.11 7.24-1.22.63-2.48 1.4-3.28 2.66l-1.36-.82" fill="#406325"/>
<g fill="#406325">
<path d="M553.65 334.6c2.74-7.416-.01-24.838-1.49-26.95-6.648 15.37-3.34 27.5 1.49 26.95z"/>
<path d="M546.54 341.64c2.304-5.646.613-19.32-.47-20.998-5.52 11.696-3.265 21.218.47 20.998zm16.81-74.15c-3.293-6.1-16.867-14.418-19.26-14.618 6.212 13.368 16.55 18.195 19.26 14.618z"/>
<path d="M561.76 259.47c-1.79-6.068-12.395-16.053-14.466-16.694 3.105 13.063 11.398 19.315 14.466 16.694zm4.74 14.96c-3.537-4.05-15.164-7.928-17.013-7.695 6.98 9.036 15.572 10.864 17.013 7.695zm-2.8 46.33c6.132.966 18.96-4.115 20.345-5.625-12.9-2.797-21.56 1.84-20.345 5.625zm-.15-5.64c-.043-5.638-6.395-16.856-7.956-17.933-.556 11.996 4.803 19.453 7.956 17.933z"/>
<path d="M563.96 301.44c-.005-7.61-8.47-22.23-10.562-23.62-.834 16.162 6.332 25.83 10.562 23.62zm-52.89 75.27c4.477 5.503 19.653 11.133 22.088 10.904-8.805-12.233-20.07-15.05-22.088-10.904z"/>
</g>
<g fill="#67923d">
<path d="M553.56 334.43c-4.824.55-8.09-11.437-1.395-26.785-.49 14.192.24 25.63 1.395 26.785zm-53.37 43.66c7.093.363 20.61 9.295 21.865 11.396-15.086.117-24.02-7.315-21.865-11.396zm0-7.94c2.098-7.967 15.006-21.21 17.514-22.15-3.603 17.133-13.74 25.534-17.514 22.15zm21.27-4.23c-.985-7.822 5.665-24.24 7.585-25.98 2.95 16.467-2.997 27.575-7.585 25.98zm21.46-14.54c4.474-5.47 19.38-11.328 21.712-11.14-8.885 12.08-19.88 15.096-21.712 11.14zm25.79-53.26c.903-6.332 9.71-17.88 11.606-18.87-1.194 13.52-8.304 21.018-11.606 18.87z"/>
<path d="M557.02 336.18c5.817-4.29 22.105-6.228 24.4-5.504-11.814 9.676-23.553 9.855-24.4 5.504zm10.27-24.52c3.033-5.98 15.566-14.17 17.754-14.4-5.8 13.02-15.3 17.803-17.754 14.4zm-1.48-45.56c-.098-7.625 7.984-22.728 9.966-24.24 1.165 16.14-5.723 26.206-9.965 24.24zm-6.93-25.92c-2.322-5.28-1.1-18.414-.093-20.074 5.55 10.963 3.672 20.17.093 20.074zm-4.23-2.18c-5.274-4.683-10.645-19.756-10.41-22.103 11.75 9.263 14.385 20.36 10.41 22.103z"/>
<path d="M566.28 272.54c-.317.815 2.945-7.695 14.22-15.308-4.013 14.27-11.045 18.28-14.22 15.308zm-34.1 89.9c7.006-5.173 26.532-7.634 29.232-6.724-14.253 11.748-28.225 11.97-29.232 6.724zm14.33-20.84c-3.735.222-5.957-9.262-.477-20.924-.72 10.974-.418 19.978.477 20.924zm16.85-74.07c-2.708 3.576-12.897-1.202-19.12-14.61 9.327 8.57 17.64 14.74 19.12 14.61zm-1.7-8.06c-3.068 2.62-11.285-3.583-14.39-16.646 6.745 9.37 13.035 16.446 14.39 16.646zm4.89 15.03c-1.405 3.145-9.94 1.328-16.92-7.708 10.39 5.896 14.505 8.455 16.92 7.708zm-2.69 46.21c-1.25-3.764 7.365-8.317 20.24-5.556-10.883 1.95-19.566 4.477-20.24 5.556zm-.4-5.6c-3.136 1.467-8.445-5.885-7.888-17.88 3.36 9.74 6.828 17.375 7.888 17.88z"/>
<path d="M563.88 301.59c-4.23 2.21-11.305-7.364-10.47-23.525 4.408 12.857 9.047 22.898 10.47 23.525zm-52.69 75.07c2.018-4.146 13.15-1.378 21.976 10.888-10.995-6.75-20.482-11.305-21.976-10.888z"/>
</g>
<g fill="#406325">
<path d="M521.55 365.83c4.542 1.593 10.443-9.417 7.54-25.883-2.81 13.955-6.18 25.064-7.54 25.883z"/>
<path d="M531.83 360.59c4.34-6.65 5.55-24.554 4.58-26.967-9.944 13.594-9.41 26.324-4.58 26.967zm-31.69 17.54c-2.116 4.08 6.7 11.436 21.787 11.315-11.95-4.89-21.238-9.86-21.787-11.315zm.16-8.05c3.785 3.338 13.808-4.948 17.41-22.083-8.128 12.423-15.724 21.8-17.41 22.083zm42.71-18.65c1.807 3.918 12.696.916 21.646-11.152-10.885 6.83-20.244 11.512-21.646 11.152zm25.75-53.33c3.303 2.147 10.335-5.303 11.56-18.803-5.213 10.395-10.262 18.41-11.56 18.803zm-11.69 38.11c.895 4.348 12.454 4.183 24.312-5.496-12.502 3.97-23 6.214-24.312 5.496zm10.36-24.64c2.453 3.405 11.865-1.334 17.664-14.352-8.61 8.373-16.28 14.445-17.664 14.352zm-1.51-45.56c4.238 2.016 11.064-7.952 9.9-24.093-4.08 13.13-8.46 23.412-9.9 24.093zm-6.96-25.87c3.542.093 5.415-9.033-.134-19.995.95 10.498.913 19.08.134 19.995zm-4.23-2.24c3.972-1.742 1.33-12.71-10.422-21.972 6.472 11.02 10.853 20.573 10.422 21.972zm11.61 34.67c3.175 2.97 10.143-1.06 14.155-15.33-7.798 10.084-12.688 15.17-14.155 15.33zm-34.09 89.91c1.005 5.247 14.913 4.994 29.132-6.688-14.94 4.85-27.508 7.595-29.132 6.688z"/>
<path d="M539.14 354.75c3.272-4.934 4.274-18.274 3.564-20.077-7.488 10.08-7.16 19.572-3.564 20.077zm19.6-28.61c3.57-5.786 3.876-20.908 2.92-22.957-8.264 11.81-7.255 22.586-2.92 22.957z"/>
</g>
<path d="M531.79 360.54c-4.83-.638-5.33-13.312 4.552-26.873-3.626 13.856-5.464 25.442-4.552 26.873zm35.16-68.33c-.943-7.765 3.976-20.143 6.632-22.522 2.573 14.385-2.66 23.95-6.632 22.522zm-27.84 62.49c-3.597-.5-3.9-9.954 3.54-20.007-2.78 10.308-4.213 18.935-3.54 20.007zm23.36-104.24c-2.167-5.88.03-20.04 1.236-21.774 5.29 12.257 2.638 22.116-1.236 21.774zm-58.08 120.15c2.474-8.09 16.19-21.08 18.807-21.915-4.335 17.42-15.065 25.53-18.807 21.915zm54.53-41.59c2.658-6.262 14.798-15.462 16.98-15.84-4.944 13.637-14.247 19.145-16.98 15.84zm-.12-3.03c-4.333-.37-5.33-11.037 2.933-22.846-2.664 11.854-3.79 21.678-2.933 22.846z" fill="#67923d"/>
<path d="M567 294.04c5.158 1.842 9.078-9.89 6.598-23.914-2.428 12.067-5.377 23.21-6.598 23.914z" fill="#406325"/>
<path d="M567.77 293.64c.557-7.527-6.935-23.086-8.915-24.707-2.015 15.803 4.463 26.31 8.915 24.707zm-5.22-43.22c3.834.337 6.473-9.435 1.187-21.69.33 11.446-.283 20.75-1.187 21.69zM504.5 370.53c3.787 3.62 14.37-4.417 18.704-21.838-8.84 12.353-16.968 21.612-18.704 21.838zm54.64-41.49c2.735 3.305 11.93-2.158 16.872-15.833-8.133 9.11-15.474 15.812-16.872 15.833z" fill="#406325"/>
<path d="M567.66 293.53c-4.413 1.636-10.85-8.76-8.835-24.563 3.51 13.267 7.445 23.763 8.835 24.563z" fill="#67923d"/>
</g>
<g stroke="#511124" stroke-width=".218" fill="#ba1f3e">
<circle cy="254.9" cx="564.62" r="1.085"/>
<circle cy="266.82" cx="568.42" r="1.085"/>
<circle cy="304.3" cx="569.76" r="1.277"/>
<circle cy="297.29" cx="564.65" r="1.277"/>
<circle cy="337.17" cx="549.91" r="1.277"/>
<circle cy="339.9" cx="556.2" r="1.277"/>
<circle cy="372.26" cx="513.8" r="1.277"/>
<circle cy="377.29" cx="506.8" r="1.277"/>
<circle cy="249.25" cx="557.05" r="1.084"/>
</g>
</g>
<g id="b" stroke="#485654" stroke-width=".109" fill="#8c959d">
<path d="M434.25 336.27c-.134 1.066.842 2.34 2.128 2.07.386-.08.624-.58.132-.49-.425.108-.88-.07-1.202-.374a1.677 1.677 0 0 1-.396-1.92c-.23.25-.45.485-.66.713h-.002z"/>
<path stroke="none" d="M437.24 338.34c-1.016 1.165-2.568 1.676-3.427.834-.573-.565-.777-1.205-.468-1.912-.443.482-.822.897-1.12 1.23.046.09.714 1.31 1.707 1.76 1.223.55 2.972-.28 4.018-1.565.738-.91 1.56-2.428.967-3.61-.365-.728-1.24-1.423-1.967-1.698-.35.37-.695.74-1.027 1.1.51-.24 1.148-.14 1.695.31 1.274 1.03.537 2.5-.378 3.54z"/>
<path stroke="none" d="M437.24 338.34a4.006 4.006 0 0 1-1.162.956c-.444.235-.957.39-1.473.318a1.48 1.48 0 0 1-.71-.296 2.364 2.364 0 0 1-.51-.58 1.61 1.61 0 0 1-.248-.737 1.64 1.64 0 0 1 .14-.76l.123.08-1.11 1.24.013-.1c.276.48.624.94 1.042 1.3.21.18.442.34.694.44a2 2 0 0 0 .79.14c.55-.01 1.09-.2 1.57-.47a5.1 5.1 0 0 0 1.29-1.04c.37-.41.69-.88.93-1.38.24-.5.41-1.05.37-1.59a1.833 1.833 0 0 0-.23-.77 3.063 3.063 0 0 0-.5-.66 4.185 4.185 0 0 0-1.37-.93l.09-.02-1.04 1.1-.09-.11c.24-.11.5-.15.75-.12s.5.11.71.24c.42.26.79.65.92 1.14.13.5 0 1.01-.21 1.45a5.128 5.128 0 0 1-.84 1.21zm0-.002c.314-.375.595-.78.794-1.225.196-.44.302-.942.167-1.404-.13-.46-.49-.83-.9-1.07-.4-.24-.92-.31-1.34-.1l-.08-.12 1.02-1.11.04-.04.06.02c.55.21 1.04.55 1.45.96.21.21.39.43.54.7a2 2 0 0 1 .25.85c.05.6-.13 1.17-.38 1.7a6.39 6.39 0 0 1-.96 1.44c-.39.43-.85.8-1.35 1.08-.51.28-1.07.48-1.67.49a2.202 2.202 0 0 1-.87-.16 2.734 2.734 0 0 1-.74-.48 5 5 0 0 1-1.07-1.36l-.03-.06.04-.05 1.13-1.22.13.08c-.1.22-.15.46-.14.7.01.24.09.47.22.68a2.3 2.3 0 0 0 .47.55c.19.15.42.25.66.29.49.09.99-.05 1.44-.27a4.12 4.12 0 0 0 1.19-.91z" fill="#485654"/>
<path stroke-linejoin="round" stroke="#351710" stroke-width=".218" d="M515.24 249.25l-40.137 39.515c-3.053 3.032-37.963 36.38-41.105 39.384-1.103 1.32-4.233 4.85-4.56 5.35-2.13 2.31-4.44 5.33-7.198 8.03-.49.62-1.142.39-1.734.73-1.814 1.05-3.697 2.87-5.053 4.37l-12.208 13.5c-.786.85-.996 1.38-.464 1.87l6.63 8.85c1.23 1.21 2.65 1.84 3.2.82 3.15-5.45 10.96-13.76 13.92-20.34 1.77-3.93 3.98-11.06 5.56-12.78 1.94-2.16 7.17-7.73 11.81-12.71l.93-1 .95-1.02c23.51-23.95 50.72-53.05 70.53-73.56-.77-.78-.28-.31-1.04-1.04z" fill="#6c301e"/>
<path d="M431.89 328.11c-1.225.043-2.022-.707-2.848-1.4 1.17.346 2.345.797 3.452.338l-.604 1.062z"/>
<path stroke-width=".218" d="M557.05 220.1l-31.804 26.22c-.306.373-.624.266-.93 0l-2.894-2.418c.004-.037.014-.073.014-.11 0-.162-.032-.318-.082-.464l1.42-1.447c.177-.22.12-.31-.123-.54-.18-.19-.34-.36-.58-.6-.23-.17-.41-.03-.64.18L520 242.4c-.734.03-1.33.63-1.352 1.366-19.237 18.73-35.793 35.435-54.937 53.87l-22.57 21.55c-.8 1.044-4.29 2.908-6.59 4.41-.82.534-1.52 1.018-1.82 1.545l-1.84 5.44c-.58 1.19-2.43 4-2.51 4.19 2.37 2.39 2.25 2.22 3.87 3.73 1.82-2.02 6.69-7.11 11.12-11.85.36-.38.38-.42.83-.97-.34-.49-.92-1.2-1.39-1.65a34.105 34.105 0 0 0-1.2-1.09c-.24-.21-.47-.39-.63-.54-.16-.15.24-.44.43-.64 26.47-25.58 54.97-53.69 78.28-76.59a1.41 1.41 0 0 0 1.03-.09l2.79 3.21c.66.65 1.21.64 1.74.4l31.86-28.54z" fill="#b2b6ba"/>
<path stroke="none" d="M430.95 330.39c.2.03.405.048.606.03a1.5 1.5 0 0 0 .574-.16l-.017.018a124.9 124.9 0 0 1 1.475-4.744l.005.027c-.195-.22-.436-.42-.73-.49.298.06.558.25.77.46l.01.01-.004.02c-.23.8-.47 1.59-.71 2.38-.25.79-.5 1.58-.76 2.37l-.01.02-.01.01a1.407 1.407 0 0 1-.61.14 2.87 2.87 0 0 1-.61-.06z" fill="#485654"/>
<circle cx="438.18" cy="328.13" stroke-width=".164" r=".619" fill="none"/>
<circle cx="434.44" cy="331.88" stroke-width=".164" r=".619" fill="none"/>
<path stroke="none" d="M440.97 322.38c-.32-.24-.615-.505-.906-.775a11.58 11.58 0 0 1-.832-.854c.32.24.615.51.906.78.288.28.57.55.832.86z" fill="#485654"/>
<path d="M502.17 259.06l3.487 3.41.645-.586-3.487-3.41-.645.586z"/>
</g>
<use xlink:href="#b" transform="rotate(-177.16 487.09 -.23)"/>
<g stroke="#24420e" stroke-width=".164">
<path d="M433.91 365.36c-7.866-3.32-26.89-.67-29.22.932 16.286 8.01 29.54 4.574 29.22-.932zm89.02 3.32c7.866-3.32 26.89-.67 29.22.933-16.286 7.982-29.54 4.573-29.22-.933z" fill="#67923d"/>
<path d="M433.76 365.48c.32 5.506-12.79 8.885-29.075.903 15.295.932 27.793.378 29.075-.903zm89.32 3.29c-.32 5.506 12.79 8.885 29.075.903-15.295.933-27.793.408-29.075-.903z" fill="#406325"/>
</g>
<g id="c">
<path stroke="#485654" stroke-width=".218" d="M508.49 359.99c-20.733-30.12-51.995-54.61-76.102-67.99 3.557-.167 11.46 3.88 14.67 5.948 23.94 15.427 44.3 35.803 65.664 59.822-1.258 1.245-2.082 1.98-3.446 3.05l-.786-.83z" fill="#b2b6ba"/>
<path d="M510.55 359.75l-1.45 1.394c-23.01-29.62-55.094-57.945-76.67-69.13 30.08 13.855 55.392 41.77 78.034 67.65l.085.085z" fill="#8c959d"/>
<path d="M510.56 359.75l-1.448 1.397-.004.003-.003-.004c-5.325-6.824-10.975-13.39-16.864-19.73a336.016 336.016 0 0 0-18.36-18.337c-6.36-5.87-12.94-11.5-19.81-16.76a195.858 195.858 0 0 0-10.54-7.57c-3.6-2.4-7.29-4.65-11.13-6.65l.1-.2c7.89 3.64 15.34 8.19 22.38 13.28 7.04 5.09 13.68 10.71 20.03 16.63 6.35 5.92 12.42 12.13 18.33 18.49 5.9 6.36 11.63 12.89 17.34 19.42zc-5.74-6.51-11.494-13.012-17.42-19.353-5.916-6.35-11.99-12.556-18.35-18.463-6.356-5.904-12.998-11.515-20.036-16.59-7.036-5.07-14.478-9.605-22.36-13.23l.096-.196c3.845 2 7.54 4.27 11.144 6.67 3.6 2.405 7.108 4.95 10.542 7.586 6.864 5.278 13.444 10.918 19.798 16.798a336.06 336.06 0 0 1 18.35 18.37c5.867 6.363 11.49 12.956 16.79 19.8l-.007-.002 1.453-1.39z" fill="#485654"/>
<g stroke="#6c301e" stroke-width=".109" fill="#fab81c">
<path stroke-width=".218" d="M517.5 355.07c-1.974.51-3.726 1.253-5.258 2.226-.228 1.397-1.953 2.957-3.587 3.31-.297-.377-.367-.487-.592-.77a.13.13 0 0 0-.17-.038c-.14.076-.33.18-.572.34-.61-.103-1.33.197-1.66.975-.37.97.39 2.248 1.23 3.084.93.73 1.39 1.07 2.46.92 1.09-.224 1.68-1.213 1.93-1.528 3.72 4.5 6.52 6.93 11.23 10.64 2.1.01 3.23-1.31 2.52-2.81-.23-.5-.84-.84-1.33-.65.04-.15.03-.31 0-.45 2.47-2.27 3.52-5.09.92-9.88-2.22-4.03-4.71-5.4-7.08-5.38h-.01zm6.246 4.53c.438.742.692 1.38 1.024 2.054 1.483 3 .196 6.602-2.334 7.706-.123-.005-.085-.02-.213.022.413-.687-.827-2.154-1.46-1.64.3-.758-.67-2.018-1.462-1.693.42-.71-.53-1.91-1.42-1.52.46-.77-.32-1.87-1.24-1.67.28-.82-.42-1.76-1.35-1.6.08-.73-.15-1.12-.5-1.45 1.11-.85 2.35-2.15 3.44-2.74 2.72-1.18 4.41 1.07 5.53 2.52z"/>
<path d="M524.89 362.77c-.515-.253-.756-.76-.587-1.105.17-.342.702-.432 1.217-.178.516.254.802.744.633 1.088-.172.343-.747.45-1.264.196z"/>
<path d="M524.59 361.75c-.515-.253-.756-.76-.587-1.105.17-.342.702-.432 1.218-.177.52.253.81.744.64 1.088-.17.343-.74.45-1.26.195z"/>
<path d="M523.97 360.62c-.515-.253-.756-.76-.587-1.105.168-.342.7-.433 1.217-.178.516.254.802.744.633 1.088-.172.343-.748.45-1.264.196z"/>
<path d="M523.19 359.6c-.516-.253-.756-.76-.587-1.105.17-.342.7-.432 1.217-.178.516.253.802.744.633 1.088-.172.343-.748.45-1.263.196z"/>
<path d="M522.16 358.61c-.515-.253-.756-.76-.587-1.105.023-.046.007-.136.055-.114.21.11.644.19.597-.13-.065-.11-.146-.22-.07-.14.15.01.464.14.636.22.52.26.81.75.64 1.09-.17.35-.74.45-1.26.2z"/>
</g>
<path d="M511.27 363.6c.682-1.774 2.047-3.414 3.508-3.806m-3.278 4.056c1.263.262 3.31-1.243 3.806-2.588m-2.616 4.038c1.656.38 3.29-1.218 3.934-2.41m-2.444 3.99c1.957.064 3.164-1.326 3.74-2.39m-2.23 3.92c1.66.01 3.172-1.36 3.646-2.424m-2.186 3.824c1.808-.073 3.084-.895 3.62-2.075m-1.98 3.495c1.66.096 3.003-.896 3.443-1.862m-1.663 3.312c1.66.096 2.695-.93 3.136-1.897" fill="#fab81c"/>
<path d="M511.27 363.6a7.112 7.112 0 0 1 1.31-2.33c.292-.337.615-.653.983-.913.367-.26.776-.467 1.214-.562-.424.14-.813.36-1.164.63-.35.268-.67.578-.952.917-.57.674-1.02 1.447-1.39 2.26zm.23.25c.405.057.81-.045 1.18-.193a4.88 4.88 0 0 0 1.048-.592c.328-.233.63-.505.9-.802.272-.298.513-.628.678-1-.123.39-.35.74-.613 1.055-.264.315-.572.59-.9.835a4.573 4.573 0 0 1-1.084.582c-.39.136-.81.218-1.21.115zm1.19 1.45c.405.07.818.035 1.204-.086.385-.12.747-.31 1.076-.548.333-.23.634-.506.91-.804.28-.298.528-.623.744-.97a4.68 4.68 0 0 1-.68 1.026 5.235 5.235 0 0 1-.91.837 3.703 3.703 0 0 1-1.117.54c-.402.107-.832.12-1.227.005zm1.49 1.58a4.21 4.21 0 0 0 1.146-.183 3.833 3.833 0 0 0 1.033-.507 4.72 4.72 0 0 0 .86-.764 6.6 6.6 0 0 0 .69-.936 4.552 4.552 0 0 1-1.5 1.79c-.33.22-.69.395-1.07.497-.38.104-.78.136-1.17.103zm1.51 1.53c.767-.042 1.493-.332 2.113-.765.314-.212.6-.463.86-.74.26-.275.493-.58.672-.92-.138.36-.357.686-.61.977-.25.293-.545.55-.86.773a4.236 4.236 0 0 1-1.036.517c-.37.12-.76.183-1.14.158zm1.46 1.4a7.09 7.09 0 0 0 1.078-.187 4.63 4.63 0 0 0 1.013-.388 3.61 3.61 0 0 0 .88-.63 3.4 3.4 0 0 0 .65-.87 2.78 2.78 0 0 1-.59.93c-.25.27-.56.49-.89.667a4.51 4.51 0 0 1-2.14.478zm1.64 1.42c.345-.004.687-.04 1.02-.12a4 4 0 0 0 .952-.36c.303-.155.583-.353.834-.583s.47-.496.636-.8a2.524 2.524 0 0 1-.578.86 3.576 3.576 0 0 1-.842.62c-.31.158-.642.28-.986.344a3.4 3.4 0 0 1-1.036.04zm1.78 1.45a3.94 3.94 0 0 0 .96-.12 3.305 3.305 0 0 0 1.617-.986 4.03 4.03 0 0 0 .56-.79 3.056 3.056 0 0 1-1.24 1.495 2.983 2.983 0 0 1-.918.36 3.018 3.018 0 0 1-.98.04z" fill="#6c301e"/>
</g>
<use xlink:href="#c" transform="rotate(-176.592 489.967 -.41)"/>
<g stroke="#24420e" stroke-width=".164">
<path d="M409.24 240.02c7.21-2.367 18.73-15.453 19.478-17.917-15.593 4.154-22.757 14.343-19.478 17.917zm145.74 4.7c-1.702-7.045-13.28-19.01-15.568-19.91 2.763 15.16 11.916 22.758 15.568 19.91z" fill="#406325"/>
<path d="M409.24 240.02c-3.325-3.574 3.792-13.666 19.34-17.82-10.958 8.403-19.2 16.178-19.34 17.82zm145.74 4.7c-3.656 2.892-12.72-4.654-15.486-19.77 7.163 11.072 13.934 19.51 15.486 19.77z" fill="#67923d"/>
</g>
<g stroke="#999270" stroke-width=".164">
<path d="M452.21 318.1s-6.158.662-7.884-7.833c-1.846-9.087 5.306-10.052 5.306-10.052s8.103-.78 13.15-.91l2.24 17.954-12.812.84z" fill="url(#d)"/>
<path d="M453.02 315.36s-3.985.762-4.807-5.553c-.583-4.473 2.185-5.108 2.185-5.108l9.236 1.56.05 8.24-6.664.85z" fill="url(#e)"/>
<path d="M450.4 304.7s5.905-.43 8.99-.83l1.28 5.71-7.102.446s-.487-5.155-3.168-5.326z" fill="url(#f)"/>
<path d="M449.16 300.36s7.575-1.857 8.517 6.49c.245 2.18-.942 7.166-4.656 8.513l13.88-1.456-1.25-15.007-4.67.39s-9.92.34-11.8 1.07z" fill="url(#g)"/>
<path d="M452.2 318.1c.047 0 51.903-3.49 57.217-3.274 15.743-8.638-.076-42.56-13.342-61.532 1.515-4.276-29.858-13.892-44.047-13.024-1.782.11-3.505.227-5.154.354-7.696.816-7.775 10.694-4.637 16.923 3.045 6.043 30.315 55.126 11.14 60.317l-1.176.236z" fill="#f9f0aa"/>
<path d="M507.79 273.34c-3.52-7.304-7.734-14.35-11.718-20.046 1.514-4.276-29.86-13.892-44.047-13.024-1.782.11-3.505.227-5.154.354-7.69.816-7.77 10.694-4.63 16.923.96 1.898 4.3 8.04 7.85 15.733" fill="url(#h)"/>
<path d="M455.04 284.95c5.555 14.65 8.664 30.117-1.64 32.907l-1.178.236c.047 0 51.903-3.49 57.216-3.274 8.538-4.69 7.793-16.81 3.207-29.95" fill="url(#i)"/>
<path d="M447.4 243.49c-3.705 0-4.656 3.562-4.605 5.817.134 5.91 4.605 6.192 4.605 6.192l5.965-.34 2.857-12.16-8.822.48z" fill="url(#j)"/>
<path d="M447.4 243.53l8.822-.486.908 9.086-7.696.337s2.49-7.274-2.034-8.937z" fill="url(#k)"/>
<path d="M496.12 253.29c6.686-1.074 6.595-10.07 2.026-13.673-15.498-.57-35.895-.143-50.63.96 1.676-.05 6.337.376 6.855 6.51.25 2.863-1.16 5.492-3.06 6.986-1.85 1.462-3.9 1.462-3.9 1.462.25.095 2.17.007 3.6-.087.74-.048 2.55-.264 3.06-.33 21.01-2.762 41.99-1.823 41.99-1.823l.08.003v-.008z" fill="url(#l)"/>
<path d="M458.47 267.42c-.143-.33-.323-.75-.73-.805-.25.014-.645-.052-.567-.392.235-.113.533-.04.794-.065.56.01 1.113-.114 1.67-.148.338.092.262.537-.104.463-.408.093-.175.563-.075.81.444 1.034.872 2.075 1.328 3.104.127.303.38.57.722.605.362.036.756.045 1.09-.116.31-.2.242-.624.2-.937-.124-.37.54-.29.495.04.13.43.28.85.447 1.27-.022.2-.275.14-.42.17-.993.07-1.988.13-2.98.22-.317-.02-.795.28-.99-.1-.118-.39.512-.17.596-.47-.003-.33-.195-.62-.307-.92-.39-.92-.78-1.84-1.17-2.75zm4.83-.34c-.14-.32-.302-.72-.687-.796-.247-.022-.653-.017-.616-.374.157-.162.457-.058.67-.092.592.02 1.175-.09 1.76-.144.29-.027.4.518.026.444-.358.012-.383.405-.233.65.47 1.143.96 2.278 1.437 3.416.105.245.24.548.54.586.252.05.648-.03.705.316-.04.267-.434.12-.63.16-.522-.036-1.042.032-1.556.12-.226.064-.55.027-.56-.27.054-.273.585-.07.61-.402-.04-.326-.215-.615-.33-.92l-1.136-2.694zm4.46.71c.09.227.404.064.586.075.263-.025.543-.215.52-.51-.044-.45-.265-.907-.633-1.182-.34-.24-.78-.213-1.172-.162-.02.16.1.31.15.46l.56 1.33zm.668 1.596c.164.35.28.745.565 1.017.244.172.57.093.843.066a.46.46 0 0 0 .386-.61c-.142-.64-.554-1.3-1.238-1.44a2.43 2.43 0 0 0-.915 0c-.03.14.09.29.13.43l.22.53zm-2.034-2.37c-.158-.35-.31-.77-.688-.927-.245-.09-.643.03-.696-.33.065-.31.562-.09.8-.16.865-.02 1.744-.27 2.595-.01.734.18 1.39.81 1.45 1.58.024.37-.262.68-.582.83-.04-.14.367.06.506.08.58.18 1.11.57 1.37 1.14.2.4.35.93.04 1.31-.36.39-.94.41-1.44.44-.75.02-1.51.02-2.25.17-.27.04-.46-.48-.09-.45.37-.01.4-.41.24-.67l-1.27-3.03zm7.416-1.906c.327-.054.358.316.458.532.098.284.276.542.348.83-.277.277-.5-.144-.624-.358-.144-.248-.383-.476-.69-.45a8.31 8.31 0 0 0-1.22.07c-.143.16.066.394.114.577.19.45.36.91.56 1.34.272-.02.62.02.815-.2.08-.23-.27-.74.21-.64.3.17.27.6.42.88.13.39.39.73.49 1.12-.26.29-.52-.13-.62-.36-.18-.34-.62-.3-.96-.29-.24-.05-.07.17-.04.29.22.5.39 1.01.66 1.48.21.34.65.29 1 .28.33-.02.74-.02.93-.34.22-.25-.27-.75.13-.83.35-.03.34.38.43.61.07.28.19.55.29.83-.02.2-.27.14-.42.17-1.02.07-2.04.11-3.06.19-.3 0-.8.24-.9-.2.03-.28.65-.13.56-.54-.07-.35-.25-.66-.37-.99-.38-.89-.73-1.8-1.12-2.69-.14-.29-.37-.62-.73-.63-.24.05-.6-.13-.46-.4.35-.07.72-.02 1.07-.06l2.77-.16zm2.31 1.32c-.154-.348-.302-.77-.68-.93-.256-.076-.725.014-.696-.394.247-.19.66-.03.97-.09.8-.01 1.62-.237 2.406 0 .825.23 1.515.973 1.573 1.842.027.416-.307.753-.685.864-.296.015.23.1.31.196.632.304 1.07.877 1.406 1.474.075.225.52.696.586.246-.027-.49.638-.075.488.264.002.356-.352.587-.682.583-.464.036-.904-.232-1.138-.624-.42-.55-.708-1.22-1.265-1.66-.23-.16-.56-.27-.83-.15-.058.14.07.28.105.42.18.41.305.85.547 1.23.2.31.593.36.93.36.36.09.26.58-.123.44-.585 0-1.175-.04-1.753.08-.27.13-.87.01-.65-.37.28-.02.67-.17.48-.52-.34-.87-.7-1.73-1.05-2.6l-.26-.63zm1.404.893c.134.326.595.145.86.114.36-.08.35-.508.235-.777-.17-.47-.38-1.03-.89-1.195-.27-.035-.85-.202-.89.152.19.535.42 1.054.63 1.583l.05.123zm7.216 1.717c.11.26.213.61.538.656.255.06.665-.024.717.33-.05.265-.44.105-.636.143-.54-.05-1.08.01-1.61.08-.23.07-.55-.03-.52-.32.12-.21.65-.04.62-.4-.09-.4-.28-.77-.42-1.15-.39-.97-.76-1.93-1.15-2.89-.1-.31-.45-.3-.7-.28-.28 0-.69.06-.69.41-.09.23.22.61-.05.73-.3.06-.36-.28-.43-.49-.1-.33-.26-.62-.39-.93.03-.22.32-.18.49-.2l4.13-.18c.3-.05.5.19.52.47.11.33.27.65.41.97-.12.33-.51.05-.56-.2-.2-.35-.51-.69-.94-.71-.26.01-.64-.09-.82.14.01.24.14.45.22.68l1.22 3.08zm3.73-.91c-.192 0-.097.242-.118.367.012.282-.017.57.03.848.132.31.527.234.784.318.23.13.173.502-.136.388-.422-.02-.85-.06-1.267.04-.25.14-.713-.12-.493-.39.2-.03.448-.1.494-.33.072-.41.034-.84.048-1.25l.022-3.71c.12-.28.514-.04.603.17 1.192 1.52 2.37 3.05 3.593 4.54.192.23.462.4.768.42.26 0 .402.53.027.43-.51-.03-1.026-.06-1.535.02-.228.01-.492.11-.696-.02-.243-.18-.07-.43.196-.4.352-.1-.005-.47-.117-.65-.19-.25-.38-.51-.59-.75-.17-.08-.373-.02-.558-.03-.35.01-.706.02-1.055.04zm1.173-.512c.182.012-.057-.155-.087-.235-.424-.554-.848-1.11-1.273-1.663.084-.013.017.175.04.255-.003.562.003 1.123-.003 1.684.44-.02.884-.03 1.324-.04zm3.057-1.848c-.15-.398-.35-.887-.818-.98-.243.043-.702-.178-.452-.44.55-.008 1.103.03 1.653-.017.698-.06 1.416-.042 2.08.205 1.46.492 2.672 1.778 2.914 3.32.107.606-.08 1.304-.625 1.642-.735.467-1.642.38-2.47.334-.47-.023-.938.04-1.404.086-.304-.042-.337-.513.023-.457.38-.012.37-.422.23-.668l-1.13-3.025zm1.97 2.494c.15.34.24.755.563.976.302.143.657.116.98.08.44-.06.714-.493.718-.91.03-.755-.28-1.475-.63-2.126-.37-.7-1.05-1.233-1.84-1.372-.32-.053-.66-.103-.99-.05-.07.124.06.273.09.402l1.12 3zm-21.11 12.416c.116.35.44.6.805.634.257.045.7-.016.713.354-.138.234-.53.07-.77.122a8.628 8.628 0 0 0-1.55.093c-.276.01-.566.125-.837.048-.24-.11-.19-.47.11-.42.25-.06.61-.13.62-.45-.02-.28-.18-.53-.27-.8-.38-.91-.76-1.84-1.15-2.75-.08-.32-.44-.33-.71-.28-.25.05-.61.13-.67-.22.03-.29.5-.24.71-.39.31-.12.62-.25.94-.35.22-.04.33.15.38.32l1.71 4.11zm.75-4.51c.682-.026 1.367.077 2.046.002.3-.03.095-.497.384-.47.37.017.31.477.335.74a.518.518 0 0 1-.57.582c-.533.03-1.065-.05-1.598-.02.12.41.288.81.445 1.208.027-.134.46-.155.64-.18 1.063-.048 2.166.56 2.612 1.543.215.477.328 1.1-.028 1.54-.387.456-1.03.55-1.596.554-.49-.01-1.064-.12-1.353-.55-.167-.22-.138-.68.22-.64.306 0 .66.26.61.59.163.22.525.14.776.14.3-.01.584-.24.57-.56.006-.49-.186-.96-.455-1.36-.292-.43-.783-.71-1.303-.7-.293-.05-.547.14-.827.14-.284-.04-.334-.37-.435-.58a23.87 23.87 0 0 1-.65-1.82.155.155 0 0 1 .177-.18zm6.85 1.02c-.16-.395-.37-.882-.84-.968-.243.057-.705-.17-.463-.43.557-.022 1.117 0 1.673-.067.704-.085 1.432-.07 2.105.176 1.486.5 2.71 1.82 2.934 3.39.08.59-.12 1.24-.64 1.57-.72.47-1.61.4-2.43.38-.46 0-.9.07-1.35.13-.3-.03-.36-.5.01-.46.37-.03.34-.44.2-.68l-1.22-3.02zm2.03 2.46c.16.34.26.754.59.97.302.136.654.098.973.053.44-.075.687-.524.678-.94.01-.762-.32-1.48-.69-2.13-.39-.69-1.08-1.213-1.87-1.332-.32-.04-.66-.08-.98-.02-.06.13.07.28.1.41l1.21 3zm6.44-4.26c.312-.053.353.293.437.504.1.284.245.55.346.832-.19.31-.507-.057-.588-.283-.145-.247-.356-.52-.674-.512a9.647 9.647 0 0 0-1.23.04c-.22.1.02.39.06.57.19.45.35.92.55 1.36.27-.01.58.02.8-.15.18-.21-.26-.73.22-.68.33.12.28.57.42.84.13.4.36.75.49 1.14-.17.33-.54-.05-.59-.3-.14-.32-.52-.36-.82-.35-.21-.03-.37.01-.23.22.22.52.38 1.06.66 1.54.21.35.65.31 1 .3.33-.01.73-.01.94-.32.2-.24-.2-.65.08-.81.34-.09.41.28.46.52.08.31.19.61.29.91-.03.2-.28.13-.42.15-1.03.04-2.06.07-3.09.13-.28-.02-.69.21-.87-.11-.18-.39.51-.18.53-.52.02-.3-.16-.57-.25-.85-.38-.96-.75-1.93-1.15-2.9-.13-.31-.36-.66-.74-.68-.23.05-.6-.13-.45-.41.36-.06.73 0 1.09-.03l2.78-.11zm-27.28 14.28c.15.487.668.686 1.11.818.77.26 1.6.518 2.15 1.158.305.37.518.854.495 1.342-.04.496-.465.87-.924.99a2.49 2.49 0 0 1-1.73-.096c-.26-.115-.16.467-.49.27-.24-.182-.16-.56-.29-.815a9.043 9.043 0 0 0-.38-.964c.02-.326.48-.156.5.098.33.6.92 1.12 1.63 1.13.36.01.81-.18.84-.58.01-.53-.42-.95-.86-1.18-.64-.33-1.37-.43-1.99-.81-.55-.33-.94-.95-.95-1.61.02-.43.37-.77.77-.9a2.63 2.63 0 0 1 1.57-.05c.24.13.34-.27.6-.07.12.2.09.46.2.67.08.29.27.54.34.83-.16.25-.46.02-.52-.2-.22-.36-.52-.77-.98-.8-.34-.02-.78-.03-1 .29a.58.58 0 0 0-.03.52zm6.69-1.65c.327-.06.336.314.418.528.08.272.21.527.29.8-.14.286-.494.024-.537-.212-.13-.26-.33-.572-.67-.552a9.68 9.68 0 0 0-1.22.075c-.22.1 0 .39.03.57.16.45.3.91.47 1.35.27-.02.58-.01.8-.18.2-.2-.19-.61.14-.7.38-.05.35.44.44.68.1.45.34.85.47 1.28-.14.31-.53.01-.55-.25-.11-.33-.48-.4-.79-.37-.18-.01-.42-.02-.27.21.18.5.32 1.02.55 1.51.12.28.45.34.73.32.4-.03.85.01 1.16-.29.25-.24.04-.59.1-.86.25-.2.53.06.5.34.07.34.16.69.27 1.02-.04.2-.29.14-.44.17-1.01.08-2.03.13-3.05.23-.28-.01-.68.23-.85-.09-.16-.39.46-.21.54-.51.08-.29-.1-.57-.17-.85-.34-.98-.65-1.97-1-2.94-.12-.31-.33-.66-.7-.67-.24.05-.59-.13-.43-.4.35-.07.71-.03 1.07-.07l2.78-.2zm4.18 4.14c.09.304.27.638.612.7.25.09.665-.073.732.286-.012.328-.493.15-.712.204a6.28 6.28 0 0 0-1.523.104c-.22.032-.55.108-.61-.188-.06-.336.46-.147.57-.4.08-.26-.07-.516-.14-.764-.34-1.005-.67-2.014-1.01-3.016-.12-.292-.27-.674-.63-.708-.24-.01-.63-.03-.56-.367.17-.16.48-.05.71-.08.73.02 1.45-.19 2.18-.14.75.03 1.48.51 1.73 1.23.16.41.22.92-.08 1.28-.39.46-1.02.55-1.58.62-.21-.02-.04.19-.03.3l.32.95zm-.57-1.72c.204.03.46-.025.675-.083.313-.064.478-.4.396-.696-.08-.42-.22-.86-.54-1.17-.3-.25-.74-.26-1.11-.16-.14.12 0 .32.04.47l.55 1.65zm6.15 1.43c.09.255.17.61.492.652.246.054.66-.036.69.32-.06.265-.44.115-.643.155-.54-.04-1.08.03-1.61.112-.23.07-.55-.03-.5-.32.13-.22.65-.05.64-.42-.06-.39-.22-.76-.33-1.14-.32-.97-.63-1.94-.95-2.9-.08-.31-.43-.29-.68-.27-.26.02-.62.05-.69.35-.09.25.04.53-.02.78-.24.16-.47-.09-.46-.33a6.588 6.588 0 0 0-.35-1c-.01-.24.3-.22.48-.24 1.38-.09 2.76-.17 4.14-.25.3-.06.49.19.48.47.08.33.22.65.34.97-.07.28-.49.13-.5-.12-.18-.35-.45-.73-.88-.76-.28-.01-.63-.06-.86.12-.06.2.08.4.12.6.35 1.06.69 2.12 1.04 3.19zm2.1-3.29c-.105-.305-.22-.693-.57-.79-.237-.06-.65.01-.627-.355.096-.212.417-.08.608-.12.6.027 1.2-.06 1.79-.118.27-.12.48.42.15.42-.25 0-.54.19-.44.475.13.53.33 1.045.49 1.568.24.733.47 1.47.72 2.2.07.23.25.432.5.44.24.002.67.035.59.38-.18.156-.48.058-.71.08-.53-.044-1.07.048-1.6.114-.23.1-.53-.14-.39-.378.21-.097.65-.043.62-.384-.08-.41-.23-.8-.35-1.2l-.75-2.332zm5.76-1.6c.317-.057.333.305.404.517.078.277.202.54.28.815-.146.284-.495.018-.534-.22-.133-.262-.33-.575-.666-.56a9.663 9.663 0 0 0-1.232.052c-.23.094-.015.388.013.568.15.452.28.912.443 1.358.268-.01.578.002.806-.163.2-.196-.18-.607.154-.69.376-.04.337.446.424.69.086.45.32.85.443 1.29-.115.288-.527.04-.528-.215-.095-.32-.43-.452-.74-.422-.145.017-.502-.075-.357.17.175.516.306 1.05.532 1.547.118.286.448.353.725.334.394-.02.85.04 1.164-.25.25-.22.06-.58.12-.84.26-.19.53.08.5.35a9.3 9.3 0 0 0 .25 1.02c-.04.2-.28.14-.43.16-1.03.06-2.06.1-3.09.17-.27-.01-.64.21-.84-.06-.21-.38.38-.25.51-.48.14-.27-.04-.55-.1-.81-.32-.99-.63-1.99-.96-2.99-.11-.32-.31-.7-.7-.71-.23.05-.59-.14-.42-.41.34-.06.71-.01 1.06-.05.94-.04 1.88-.09 2.81-.14zm2 .96c-.066-.358-.34-.677-.734-.622-.374.097-.5-.57-.033-.43.508.003 1.03-.078 1.53.036.242.263.438.576.662.86l2.17 2.903c-.16.035-.036-.186-.053-.3l.355-3.543c.273-.226.73-.13 1.077-.202.282-.042.925-.136.745.35-.34.054-.77.22-.54.645.36 1.197.74 2.388 1.11 3.58.07.418.49.545.85.527.31.017.33.562-.05.43-.6-.013-1.19-.05-1.78.064-.27.09-.82.06-.64-.355.29-.054.79-.143.58-.573-.32-1.06-.66-2.113-.99-3.17.07.095-.01.255-.01.377-.1.99-.23 1.976-.29 2.968-.04.26.05.574-.07.798-.24.116-.39-.113-.51-.276l-2.86-3.698c.09-.04.08.21.14.29.3.96.59 1.92.91 2.88.1.39.49.5.84.5.37.19.09.54-.24.4-.5-.08-1 .02-1.5.08-.32-.01-.33-.52.03-.45.47 0 .32-.53.21-.8l-1.02-3.28a3.35 3.35 0 0 1 .04-.01zm8.74.85c.06.225.364.074.526.097.286-.016.62-.175.636-.498.01-.44-.157-.91-.5-1.19-.33-.26-.77-.23-1.16-.19-.042.14.062.3.092.45l.406 1.33zm.487 1.598c.125.348.193.743.45 1.023.238.18.568.11.843.09.257-.02.487-.23.46-.5-.03-.59-.315-1.26-.906-1.49-.34-.12-.713-.12-1.07-.09-.11.1.04.29.055.42.05.19.11.37.16.56zm-1.773-2.402c-.117-.345-.224-.77-.586-.934-.233-.088-.642.018-.663-.338.083-.29.544-.08.774-.138.88.01 1.79-.224 2.66.063.69.18 1.28.81 1.28 1.55-.01.41-.34.71-.69.86-.03-.14.36.07.5.09.53.19 1.02.55 1.22 1.09.18.41.28.95-.04 1.33-.37.4-.95.43-1.46.44-.79 0-1.59-.02-2.37.11-.29.03-.4-.5-.04-.45.36 0 .46-.38.32-.66l-.93-3.05zm5.006-.176c-.114-.346-.218-.77-.578-.937-.238-.09-.687.012-.665-.37.193-.256.656-.04.954-.104.68 0 1.36-.13 2.04-.05.79.09 1.55.64 1.74 1.44.15.42.05.95-.36 1.19-.08.09-.52.2-.44.19.61.24 1.12.69 1.41 1.27.16.26.24.58.47.79.27.2.3-.17.35-.33.35-.18.53.31.39.58-.14.42-.68.5-1.06.4-.34-.08-.6-.34-.75-.65-.34-.54-.55-1.17-1.03-1.62-.22-.2-.56-.31-.85-.2-.07.13.04.29.06.43.13.39.21.8.39 1.17.16.32.55.4.88.41.32-.01.34.56-.03.42-.61-.01-1.22-.08-1.83.03-.22-.01-.53.13-.67-.1-.21-.42.42-.23.56-.47.09-.28-.07-.56-.13-.83-.27-.91-.54-1.82-.81-2.72zm1.313.917c.098.327.555.15.805.145.29-.03.46-.326.398-.6-.075-.447-.192-.942-.548-1.254-.306-.225-.72-.224-1.08-.162-.153.128-.012.34.02.503l.405 1.36zm6.887-2.537c.312-.05.326.298.384.51.07.282.188.55.257.833-.13.258-.48.03-.51-.205-.13-.26-.29-.59-.62-.605a9.508 9.508 0 0 0-1.28.005c-.23.083-.03.383-.01.562.14.453.25.913.4 1.36.26 0 .54.01.78-.103.28-.16-.11-.59.19-.702.38-.082.37.394.43.64.07.466.3.887.41 1.34-.12.282-.53.028-.52-.228-.08-.296-.37-.453-.66-.44-.14.027-.55-.12-.43.136.16.523.28 1.063.49 1.568.11.29.44.37.72.36.4 0 .86.06 1.18-.21.26-.21.08-.57.15-.83.26-.18.53.09.49.37.05.35.13.69.22 1.02-.05.2-.29.13-.45.15-1.03.03-2.07.03-3.11.07-.27-.02-.61.16-.82-.05-.27-.37.3-.3.47-.46.19-.22.03-.51-.03-.76-.29-1.02-.58-2.05-.88-3.07-.1-.31-.27-.68-.64-.72-.23.01-.61-.09-.48-.4.3-.1.66 0 .98-.03.99-.01 1.97-.03 2.95-.05zm-32.82 13.13c-.093-.368-.217-.85-.644-.95-.237.007-.644-.06-.5-.392.307-.124.674-.028 1.003-.076.81-.042 1.65-.245 2.46-.027 1.19.273 2.23 1.187 2.58 2.37.22.73.26 1.6-.23 2.236-.52.67-1.41.86-2.22.87-.62 0-1.24-.01-1.85.12-.24.15-.63-.09-.42-.35.26-.07.67-.15.59-.52-.1-.51-.24-1.01-.36-1.52-.14-.58-.29-1.16-.43-1.74zm1.64 2.44c.1.323.138.71.406.944.275.16.616.097.918.07.47-.062.815-.477.89-.93.14-.758-.08-1.535-.38-2.23-.26-.6-.8-1.08-1.447-1.213-.377-.07-.778-.11-1.157-.03-.085.12.022.28.036.41l.735 3zm7.06-4.43c.318-.06.31.304.362.514.056.276.16.54.214.815-.128.26-.487.06-.5-.19-.114-.26-.27-.59-.594-.59a9.25 9.25 0 0 0-1.277.06c-.234.08-.05.38-.032.56.114.45.208.91.335 1.36.274-.02.585-.01.818-.17.214-.19-.13-.62.208-.69.377-.05.303.44.368.68.05.44.252.85.34 1.29-.12.28-.53.06-.51-.21-.07-.33-.402-.45-.703-.42-.15.02-.5-.08-.38.17.13.51.22 1.04.41 1.54.09.29.43.35.69.33.41-.02.9.02 1.22-.31.24-.23.02-.6.17-.84.29-.17.48.14.44.41.03.33.09.66.16.98-.06.2-.31.14-.47.17-1.03.06-2.05.11-3.08.19-.26-.01-.55.16-.78.01-.26-.27.09-.41.32-.44.29-.1.26-.45.18-.68-.27-1.08-.51-2.17-.79-3.24-.08-.3-.24-.68-.6-.7-.24.02-.6-.09-.46-.39.29-.12.65-.03.97-.08l2.93-.18zm6.49 4.1c.045.31.285.57.596.62.237.1.605-.037.733.244.09.35-.39.235-.59.25-.58-.01-1.15-.02-1.72.067-.29.02-.58.1-.86.07-.28-.11-.15-.5.14-.44.27-.06.63-.13.7-.44.03-.27-.08-.53-.13-.79-.22-.92-.42-1.84-.65-2.76-.04-.32-.39-.33-.64-.29-.23.01-.59.17-.66-.16-.04-.34.46-.27.67-.4.37-.12.73-.27 1.1-.38.21-.04.3.15.32.32l.95 4.12zm3.69-3.32c-.073-.363-.28-.786-.69-.84-.29-.055-.67.03-.776.344a.924.924 0 0 0 .37 1.022c.27.198.59.312.893.454.06-.12.247-.35.237-.56a1.446 1.446 0 0 0-.034-.42zm.836 2.893c-.102-.487-.57-.77-.996-.948-.185-.032-.445-.278-.558-.177-.31.268-.457.714-.32 1.107.113.483.48.96 1.005 1 .348.047.76-.11.863-.473a.958.958 0 0 0 .006-.51zm.89-.208c.136.48-.06 1.02-.47 1.3-.582.4-1.356.428-2.017.23-.59-.17-1.09-.662-1.19-1.275-.12-.488.08-1.045.51-1.31.1-.1.49-.14.17-.216-.5-.245-.99-.646-1.09-1.223-.12-.48.1-1.03.55-1.27.86-.47 2.08-.19 2.58.68.22.37.26.86 0 1.22-.14.2-.32.39-.57.45.48.1.92.4 1.22.8.14.19.23.41.28.64zm3.264.555c.243.01.504-.135.54-.393.086-.196-.083-.615.256-.59.308.018.277.377.31.6.025.398-.003.873-.345 1.138-.24.158-.55.092-.83.096-.56-.01-1.12-.13-1.68-.07-.23.03-.49.29-.71.1-.19-.22-.07-.52 0-.76.2-.61.63-1.11 1.1-1.54.34-.31.71-.65.76-1.13a1.95 1.95 0 0 0-.29-1.18c-.28-.45-.95-.6-1.4-.32-.23.15-.41.5-.23.75.21.17.6.02.7.36.13.24 0 .6-.3.6-.44.07-.83-.28-.95-.68-.18-.51.02-1.13.5-1.4.5-.31 1.14-.3 1.69-.17.57.14 1.04.58 1.22 1.14.16.43.16.93-.08 1.34-.38.72-1.15 1.08-1.66 1.68-.14.16-.24.37-.18.59.08-.2.4-.13.58-.17.35-.01.69.08 1.04.07zm3.94-.42c.038.31.274.576.584.632.228.1.567-.016.715.225.14.345-.34.284-.54.27-.59-.02-1.19-.05-1.78.027-.29.013-.58.082-.87.045-.28-.13-.13-.5.16-.44.27-.06.63-.12.72-.43.04-.27-.07-.53-.11-.79-.2-.93-.38-1.85-.58-2.77-.02-.29-.32-.35-.55-.31-.24-.03-.57.16-.72-.1-.17-.36.34-.35.55-.44.4-.13.81-.28 1.22-.39.21-.05.29.15.31.32.28 1.37.57 2.74.86 4.11z" fill="#b07e09" stroke="none"/>
</g>
<g stroke="#34541f" stroke-width=".218" fill="#448127">
<path stroke="#4c0505" d="M475.8 219.41l-3.77 4.483c-1.2 5.24 1.78 9.187 7.648 12.614 4.753 2.95 13.55 3.69 16.327 1.31l-13.714-13.07-6.49-5.337z" fill="url(#m)"/>
<path d="M503.58 354.27c-.672-.81-1.352-1.617-2.035-2.424-8.558 11.298-19.248 21.43-32.617 28.575 15.077-4.26 24.945-15.25 34.652-26.15zm-15.44 35.71c5.316-10.772 11.73-21.544 18.203-32.317a274.31 274.31 0 0 0-2.144-2.636c-7.36 12.186-15.98 26.68-16.06 34.952zm41.73-114.5c-.985-4.247-2.27-8.838-4.31-13.055-2.656-5.43-6.622-10.83-11.83-16.804-9.384-10.17-18.772-19.99-31.927-27.25l.07-.13.076.05h.16l-.16-.2h.47l-.26-.25h.43l-.35-.4h.46l-.33-.33h.49l-.28-.36.39.03-.37-.38.54-.11-.45-.28.48-.09-.4-.27.58-.18-.52-.3.65-.29-.63-.45.67-.23-.73-.29.61-.32-.72-.13.48-.57-.7.04.32-.59-.67.06a.695.695 0 0 0-.04-.06l.36-.45-.68.12.29-.61-.65.33.18-.7-.63.44.09-.72-.58.5.06-.69-.51.53.04-.72-.5.61-.05-.71-.41.56-.21-.67-.34.68-.17-.71-.32.72-.16-.72-.27.72-.2-.68-.21.68-.16-.59-.24.72-.22-.67-.24.77-.3-.69-.13.83-.35-.67-.04.8-.39-.6-.03.79-.41-.56.03.69-.44-.36.21.75-.53-.31.2.65-.43-.24.16.63-.39-.122.21.47-.03.064-.31-.06.18.37c-.38 1.04-.41 2.28-.35 3.518.01.23.59.465.68.61.28.43.23.66.23.66-1.59 2.58-3.014 4.57-3.174 7.53 1.28-1.62 2.602-3.6 4.46-3.6-.92 1.534-1.357 6.17-.32 6.874l.77-1.35c.03 1.07.18 1.79.39 2.32.323-.65.64-1.27.963-1.746.07 1.5.265 2.71.7 3.31.43-.74 1.01-1.19 1.62-1.57-.21.86-.52 1.67-.39 2.7.65-1.1 1.29-1.75 1.935-2.51-.37 1.58-.04 2.77.42 4.52.4-2.08.55-2.3 1.51-3.17.1 1.9-.26 3.63.14 4.69.87-1.68 1.46-1.44 1.98-2.52-.107 1.58-.42 3.29-.02 4.7.34-1.41 1.25-2.17 1.95-2.67.05 2.2.56 1.84-.8 3.7.58.27 2.54-.37 3.6-.83-.52 1.18-.37 2.105-.88 2.94 1.08-.55 2-1.42 2.9-2.325-.42 1.355-1.527 2.71-.97 4.06.25-1.26 1.27-2.3 2.24-2.49-.15.71-.26 2.18-1.28 2.89 2.443.25 3.41-1.4 4.64-2.71-.16 1.36-.12 2.446 1.55 4.358-.34-2.43.24-1.93 1.34-3.4.53 2.15 1.14 4.43 3.38 6.02-.927-2.27-1.1-3.436-.57-4.86.29 1.47 1.683 3.25 2.02 4.64.205-1.55.44-3.05.96-4.06.65 1.75 1.2 3.57 1.35 5.6a16.92 16.92 0 0 0 1.16-3.09c19.74 20.624 24.14 46.84 2.51 74.54 7.77-5.247 9.776-13.567 14.09-20.66-4.21 9.29-6.09 19.74-13.51 27.42 7.19-6.2 8.71-11.884 13.035-17.86-4.61 12.5-10.98 26.2-19.82 38.74a710.73 710.73 0 0 1 4.72 5.19 1190.17 1190.17 0 0 0 4.1-6.85c9.37-15.434 24.66-37.5 16.91-71.145z"/>
</g>
<path stroke="#a08307" stroke-width=".218" d="M473.16 215.29c-.997.226-1.392.642-2.11 1.443.916.2 1.69.246 2.52.264.257-.022.344-.348.287-.585l-.128-.955c-.03-.217-.61-.2-.88-.086l.3-.08z" fill="#eac102"/>
<path d="M471.04 216.73a9.89 9.89 0 0 1 1.053-.298 9.76 9.76 0 0 1 1.078-.19 9.82 9.82 0 0 1-1.05.297 9.94 9.94 0 0 1-1.08.19z" fill="#a08307"/>
<ellipse rx=".775" cy="215.42" ry=".811" stroke="#000" cx="477.68" stroke-width=".098"/>
<ellipse cy="215.26" cx="477.86" rx=".337" ry=".353" fill="url(#n)"/>
<g fill="#34541f">
<path d="M488.18 389.69a83.377 83.377 0 0 1 1.528-4.44 96.152 96.152 0 0 1 1.783-4.346c1.26-2.87 2.67-5.672 4.14-8.435a199.58 199.58 0 0 1 4.67-8.16 354.41 354.41 0 0 1 2.46-4.01l2.51-3.97-2.42 4.02a400.05 400.05 0 0 0-2.4 4.03c-1.58 2.7-3.14 5.41-4.61 8.17a133.673 133.673 0 0 0-4.17 8.4 98.092 98.092 0 0 0-1.83 4.31 82.656 82.656 0 0 0-1.63 4.4zm-18.84-9.46a75.798 75.798 0 0 0 4.88-2.375 72.32 72.32 0 0 0 4.703-2.704 72.04 72.04 0 0 0 8.733-6.41c2.755-2.34 5.328-4.89 7.762-7.57a113.56 113.56 0 0 0 3.555-4.1 153.47 153.47 0 0 0 3.4-4.23 153.748 153.748 0 0 1-3.317 4.3 111.896 111.896 0 0 1-3.513 4.15 81.9 81.9 0 0 1-7.745 7.63 69.946 69.946 0 0 1-8.786 6.4 71.284 71.284 0 0 1-4.742 2.66 76.913 76.913 0 0 1-4.93 2.28zm37.28-29.34c.77-1.074 1.486-2.186 2.202-3.296a138.73 138.73 0 0 0 2.098-3.362c1.368-2.26 2.69-4.55 3.96-6.866a341.82 341.82 0 0 0 3.75-6.985l3.677-7.02-1.745 3.56-1.783 3.54a255.98 255.98 0 0 1-3.71 7.02 160.464 160.464 0 0 1-4.01 6.85c-1.41 2.24-2.85 4.46-4.44 6.57zm5.89-25.11a58.374 58.374 0 0 0 4.692-6.42 60.202 60.202 0 0 0 3.81-6.974c2.235-4.81 3.84-9.894 4.975-15.07.144-.647.283-1.295.414-1.944a61.004 61.004 0 0 0 .7-5.915c.18-2.644.18-5.3-.03-7.942a50.632 50.632 0 0 0-1.24-7.846 53.36 53.36 0 0 0-2.4-7.58 53.484 53.484 0 0 1 2.51 7.55 50.47 50.47 0 0 1 1.28 7.86c.22 2.65.24 5.31.07 7.96a61.252 61.252 0 0 1-.67 5.94 90.31 90.31 0 0 1-.4 1.95c-1.16 5.18-2.79 10.27-5.05 15.08a59.876 59.876 0 0 1-3.85 6.97 58.223 58.223 0 0 1-4.78 6.36z"/>
<path d="M510.87 320.07c1.843-1.762 3.47-3.74 4.898-5.85 1.436-2.103 2.682-4.332 3.795-6.623 1.114-2.29 2.098-4.642 3.027-7.015.464-1.186.915-2.378 1.36-3.572l.334-.896c.106-.296.202-.6.294-.904.186-.61.355-1.224.578-1.83l-.005.017c.51-2.524.78-5.095.81-7.67a45.833 45.833 0 0 0-.57-7.698c-.4-2.55-.99-5.06-1.73-7.54a80.218 80.218 0 0 0-2.55-7.31 80.346 80.346 0 0 1 2.66 7.27 57.405 57.405 0 0 1 1.78 7.54c.42 2.55.63 5.13.61 7.72a41.437 41.437 0 0 1-.78 7.71v.01c-.22.59-.39 1.2-.58 1.81-.09.3-.19.61-.3.91l-.34.89a193.9 193.9 0 0 1-1.38 3.57c-.94 2.37-1.93 4.72-3.06 7.01s-2.38 4.52-3.83 6.62c-1.46 2.09-3.11 4.05-4.98 5.79z"/>
<path d="M505.05 349.23c1.202-1.66 2.39-3.327 3.573-4.998l1.778-2.507c.59-.838 1.21-1.654 1.74-2.53 1.07-1.746 1.99-3.576 2.9-5.41.9-1.84 1.82-3.67 2.71-5.515 1.78-3.686 3.51-7.405 4.97-11.228a75.285 75.285 0 0 0 3.45-11.763c.85-4.01 1.42-8.07 1.89-12.13.43-4.07.47-8.18.04-12.25a52.36 52.36 0 0 0-2.72-11.94c-1.35-3.87-3.11-7.58-5.1-11.16 2.02 3.56 3.81 7.26 5.2 11.12a52.395 52.395 0 0 1 2.77 11.96c.45 4.08.42 8.2 0 12.28-.46 4.07-1.01 8.13-1.85 12.15a75.517 75.517 0 0 1-3.49 11.78c-1.48 3.82-3.21 7.54-5 11.22-.9 1.84-1.82 3.67-2.73 5.5-.91 1.83-1.84 3.66-2.92 5.41-.53.87-1.16 1.69-1.76 2.52l-1.79 2.49c-1.2 1.66-2.4 3.32-3.62 4.97z"/>
<path d="M507.81 352.25c2.362-3.835 4.71-7.68 6.954-11.583 2.25-3.9 4.483-7.814 6.465-11.856 1.98-4.03 3.7-8.21 4.99-12.52a74.13 74.13 0 0 0 1.65-6.54 59.28 59.28 0 0 0 .59-3.32c.17-1.11.33-2.22.47-3.34.58-4.46.93-8.96.92-13.46-.01-4.49-.37-9-1.2-13.42s-2.14-8.75-3.98-12.86a54.004 54.004 0 0 0-6.96-11.53 54.076 54.076 0 0 1 7.05 11.49c1.85 4.11 3.17 8.46 4.02 12.89.84 4.43 1.22 8.95 1.24 13.45.01 4.51-.32 9.02-.89 13.49a133.98 133.98 0 0 1-.48 3.35 58.79 58.79 0 0 1-.61 3.33 74.245 74.245 0 0 1-1.68 6.55c-1.31 4.32-3.04 8.5-5.04 12.54-2 4.05-4.24 7.96-6.51 11.85-2.28 3.89-4.66 7.72-7.05 11.53zM480 220.77c.474-.012.95.04 1.418.113.47.073.934.174 1.394.294.92.245 1.815.572 2.687.954 1.74.77 3.37 1.78 4.9 2.91a35.81 35.81 0 0 1 4.25 3.79 45.252 45.252 0 0 1 1.9 2.12 46.16 46.16 0 0 1 1.75 2.24 60.86 60.86 0 0 0-1.84-2.16c-.63-.71-1.28-1.4-1.94-2.07-1.34-1.34-2.75-2.6-4.27-3.73a26.78 26.78 0 0 0-4.84-2.92 18.8 18.8 0 0 0-2.65-1c-.91-.26-1.84-.47-2.79-.51z"/>
</g>
<g fill="#448127">
<path d="M496.38 231.57s3.06 1.798 4.725 4.44-4.717-.885-8.07-4.654"/>
<path d="M496.38 231.57c.48.26.933.566 1.38.88.44.322.87.663 1.28 1.025.412.36.796.753 1.16 1.163.363.412.704.846.997 1.313l.136.22-.248-.05a14.54 14.54 0 0 1-2.272-.71 15.702 15.702 0 0 1-2.138-1.04c-1.37-.79-2.623-1.8-3.64-3.01a15.17 15.17 0 0 0 3.72 2.87 18.27 18.27 0 0 0 2.13 1 14.4 14.4 0 0 0 2.24.69l-.11.17a11.15 11.15 0 0 0-.966-1.29 15.94 15.94 0 0 0-1.13-1.16 17.708 17.708 0 0 0-1.23-1.06 18.56 18.56 0 0 0-1.32-.97z" fill="#34541f"/>
<path d="M489.58 230.69s7.226 4.61 8.273 4.978-1.608-3.478-5.05-4.972"/>
<path d="M489.58 230.69l4.14 2.488a139.897 139.897 0 0 0 3.114 1.85c.347.193.702.404 1.053.55l-.128.14a10.67 10.67 0 0 0-.93-1.527 12.79 12.79 0 0 0-1.14-1.38 10.732 10.732 0 0 0-1.35-1.18c-.48-.36-1-.66-1.54-.92a8.43 8.43 0 0 1 1.59.85c.5.34.96.73 1.4 1.16a11.21 11.21 0 0 1 2.14 2.93l.12.25-.25-.1c-.77-.33-1.44-.76-2.14-1.17-.69-.41-1.38-.84-2.06-1.26a151.55 151.55 0 0 1-4.04-2.64z" fill="#34541f"/>
<path d="M492.46 228.36s3.76 1.6 4.61 4.38-6.752-2.842-7.96-4.35"/>
<path d="M492.46 228.36a10.668 10.668 0 0 1 2.805 1.682 7.17 7.17 0 0 1 1.14 1.194c.33.443.607.935.77 1.47l.066.224-.21-.09a79.6 79.6 0 0 1-2.08-.936 49.78 49.78 0 0 1-2.05-1.003 33.948 33.948 0 0 1-1.99-1.11c-.32-.2-.64-.41-.95-.63-.3-.22-.61-.46-.84-.76.25.29.57.51.88.72.32.21.64.41.97.59.66.38 1.34.73 2.02 1.06a84.15 84.15 0 0 0 4.15 1.89l-.14.13a4.833 4.833 0 0 0-.72-1.41 7.8 7.8 0 0 0-1.09-1.18 11.03 11.03 0 0 0-1.28-.98c-.45-.31-.92-.58-1.4-.82z" fill="#34541f"/>
<path d="M486.76 231.25s6.646 4.758 8.613 4.758-1.948-3.258-5.388-4.752"/>
<path d="M486.76 231.25c.688.456 1.38.908 2.076 1.35.695.445 1.396.88 2.106 1.298.707.423 1.423.833 2.157 1.2.36.185.73.36 1.11.507.37.145.77.288 1.15.3l-.09.156c-.31-.5-.68-.99-1.07-1.45a16.13 16.13 0 0 0-1.25-1.3c-.44-.41-.92-.79-1.41-1.13a10.974 10.974 0 0 0-1.57-.91c1.13.45 2.16 1.13 3.08 1.94.46.41.89.84 1.29 1.3.4.46.77.95 1.1 1.47l.1.16h-.19c-.45-.01-.85-.15-1.24-.3a13.663 13.663 0 0 1-1.14-.52 33.267 33.267 0 0 1-2.16-1.23 63.89 63.89 0 0 1-2.08-1.35 56.27 56.27 0 0 1-2.01-1.44z" fill="#34541f"/>
<path d="M486.76 232.74s3.46 2.92 5.427 2.92-1.948-3.258-5.388-4.752"/>
<path d="M486.76 232.74c.418.312.84.615 1.272.905.428.293.866.573 1.315.83.445.265.902.51 1.376.71.236.1.478.186.723.25.244.07.494.12.74.12l-.088.158a12.4 12.4 0 0 0-1.07-1.45c-.393-.458-.805-.9-1.248-1.31-.442-.41-.915-.787-1.41-1.134a11.007 11.007 0 0 0-1.57-.92c1.13.45 2.165 1.13 3.08 1.93.46.4.894.83 1.292 1.29.4.46.773.94 1.104 1.46l.1.16h-.19c-.55 0-1.062-.18-1.544-.39a11.45 11.45 0 0 1-1.39-.74c-.442-.28-.87-.58-1.287-.9a17.6 17.6 0 0 1-1.205-1z" fill="#34541f"/>
<path d="M485.03 226.18s7.207 5.117 8.06 7.896-6.523-2.994-7.732-4.502"/>
<path d="M485.03 226.18a51.627 51.627 0 0 1 2.304 1.68 51.03 51.03 0 0 1 2.205 1.808 25.733 25.733 0 0 1 2.05 1.988c.32.352.63.718.91 1.11.27.39.54.803.68 1.28l.07.23-.22-.102a77.007 77.007 0 0 1-2.03-.985 50.288 50.288 0 0 1-1.99-1.05 34.833 34.833 0 0 1-1.93-1.15 15.42 15.42 0 0 1-.92-.65c-.3-.23-.59-.47-.82-.77.24.28.55.5.85.72.3.21.62.41.94.6a37.4 37.4 0 0 0 1.95 1.09 87.25 87.25 0 0 0 4.02 1.98l-.15.13c-.14-.44-.39-.84-.65-1.22a12.21 12.21 0 0 0-.89-1.1c-.63-.71-1.32-1.36-2.02-2a51.15 51.15 0 0 0-2.16-1.85 71.205 71.205 0 0 0-2.24-1.77z" fill="#34541f"/>
</g>
<g stroke="#24420e" stroke-width=".164">
<path d="M445.02 370.33c-4.89 3.644-18.553 5.43-20.448 4.8 9.943-8.27 19.725-8.47 20.448-4.8zm69.76 4.44c5.254 4.768 21.104 8.053 23.475 7.46-10.542-10.77-22.102-11.862-23.475-7.46z" fill="#406325"/>
<path d="M444.98 370.3c-.72-3.67-10.458-3.45-20.378 4.775 10.446-3.442 19.238-5.405 20.378-4.775zm69.91 4.41c1.37-4.402 12.794-3.338 23.364 7.462-11.884-5.02-21.947-8.1-23.364-7.462z" fill="#67923d"/>
</g>
</svg>
