<svg viewBox="0 0 640 480" xmlns="http://www.w3.org/2000/svg" xmlns:xlink="http://www.w3.org/1999/xlink">
<defs>
<radialGradient id="a">
<stop stop-color="#f9f0aa" offset=".216"/>
<stop stop-color="#b07e09" offset="1"/>
</radialGradient>
<radialGradient id="d" xlink:href="#a" gradientUnits="userSpaceOnUse" cy="308.27" cx="447.42" r="16.534"/>
<radialGradient id="e" xlink:href="#a" gradientUnits="userSpaceOnUse" cy="313" cx="451.56" r="10.911"/>
<radialGradient id="f" xlink:href="#a" gradientUnits="userSpaceOnUse" cy="308.64" cx="454.11" r="9.78"/>
<radialGradient id="g" xlink:href="#a" gradientUnits="userSpaceOnUse" cy="307.06" cx="458.39" r="17.354"/>
<radialGradient id="j" xlink:href="#a" gradientUnits="userSpaceOnUse" cy="252.36" cx="445.98" r="13.018"/>
<radialGradient id="m" cx="477.86" gradientUnits="userSpaceOnUse" cy="215.27" r=".345">
<stop stop-color="#a50a0a" offset=".259"/>
<stop stop-color="#4c0505" offset="1"/>
</radialGradient>
<radialGradient id="n" gradientUnits="userSpaceOnUse" cy="210.33" cx="489.07" gradientTransform="scale(.97707 1.0235)" r=".345">
<stop stop-color="#fff" offset="0"/>
<stop stop-opacity="0" stop-color="#fff" offset="1"/>
</radialGradient>
<linearGradient id="h" y2="231.96" gradientUnits="userSpaceOnUse" y1="259.17" x2="472.36" x1="473.91">
<stop stop-opacity="0" stop-color="#b07e09" offset=".216"/>
<stop stop-color="#b07e09" offset="1"/>
</linearGradient>
<linearGradient id="i" y2="326.58" gradientUnits="userSpaceOnUse" y1="296.66" x2="485.5" x1="483.13">
<stop stop-opacity="0" stop-color="#b07e09" offset=".216"/>
<stop stop-color="#b07e09" offset="1"/>
</linearGradient>
<linearGradient id="k" y2="240.58" gradientUnits="userSpaceOnUse" y1="249.52" x2="455.37" x1="451.54">
<stop stop-color="#f9f0aa" offset=".216"/>
<stop stop-color="#b07e09" offset="1"/>
</linearGradient>
<linearGradient id="l" y2="270.45" gradientUnits="userSpaceOnUse" y1="237.25" x2="475.93" x1="473.31">
<stop stop-color="#f9f0aa" offset=".216"/>
<stop stop-color="#b07e09" offset="1"/>
</linearGradient>
</defs>
<path d="m0 0h640v480h-640z" fill="#4997d0"/>
<path d="m213.33 0h213.33v480h-213.33z" fill="#fff"/>
<g transform="matrix(.66667 0 0 .66667 0 40)">
<g stroke="#24420e">
<g stroke-width=".437" fill="none">
<path d="m452.12 377.48c2.67-0.407 4.208-1.138 6.035-1.786m2.21-4.05c1.347 1.43 2.417 2.95 2.993 4.635m-8.11-5.08c1.405 1.313 2.376 2.712 3.138 4.152m-49.58-136.58c-1.044 1.602-3.092 2.726-4.78 3.428m-0.34-0.2c0.035-1.368-0.236-3.026 0.05-4.394m-1.98 5.02c0.114 0.37 0.435 1.4 0.676 2.028m2.02 0.92c-0.378 0.082-1.52 0.257-2.028 0.338m-3.95-0.88c-0.013 2.52 0.286 5.553 0.53 7.82m-1.79-0.96c0.472 0.757 0.947 1.504 1.545 1.883m-4.58 6.47c0.49 0.94 0.943 2.122 1.304 3.96m3.72-4.63c-0.414 0.205-1.215 0.93-1.93 1.545m1.59 4.4c-0.98 0.872-2.198 1.504-3.428 2.124m-3.81 40.41c1.153 1.893 2.42 3.56 3.96 4.684m0.58 1.69c-1.294-0.166-2.16-0.545-2.945-0.966m4.39 8.41l1.69 0.966m-0.44 3.47c1.255 0.816 2.51 2.283 3.765 3.862m-1.44 2.85c1.385 0.293 2.493 0.64 3.235 1.062m-1.07 2.42l2.124 0.072m1.21-5.38c-0.102 1.534-0.253 2.972-0.483 4.25m1.01 1.59l0.434-1.642m4.69 5.99l-0.146 3.236m39.21 27.9l-1.16 1.593m-2.41-3.91l-0.676-1.834"/>
</g>
<g stroke-width=".164">
<path d="m486.11 384.93c-0.797-1.256-2.108-2.028-3.277-2.656-7.727-4.056-15.406-5.843-24.116-7.244-2.013-0.337-4.027-2.22-6.087-3.187-4.963-2.365-10.49-3.284-15.31-5.697-0.33-0.146-1.546-0.87-2.11-1.545-1.918-2.22-5.384-2.898-7.537-4.974-8.335-7.87-17.184-15.116-21.772-25.547-5.572-12.7-12.503-25.787-11.566-40.227 0.608-9.126-0.75-18.35 1.497-27.043 3.326-12.894 7.588-25.64 15.407-36.314l-1.31 0.82c-7.868 10.675-12.128 23.423-15.453 36.316-2.248 8.692-0.89 17.916-1.5 27.043-0.935 14.44 5.996 27.526 11.568 40.274 4.588 10.382 13.485 17.625 21.774 25.546 2.154 2.027 5.62 2.703 7.54 4.973 0.56 0.626 1.824 1.4 2.105 1.544 4.825 2.415 10.35 3.332 15.314 5.65 2.06 1.014 4.074 2.85 6.087 3.188 8.71 1.4 16.39 3.235 24.116 7.242 1.217 0.628 2.482 1.4 3.28 2.657l1.356-0.82" fill="#406325"/>
<g fill="#67923d">
<path d="m406.34 331.62c-2.794-6.3-1.365-21.608-0.198-23.53 6.633 13.006 4.425 23.74 0.198 23.53zm45.86 45.39c-7.092 0.364-20.61 9.295-21.864 11.396 15.085 0.116 24.02-7.315 21.864-11.396zm7.46-4.29c-6.845-5.45-14.19-23.66-14.032-26.5 15.11 10.833 18.936 24.28 14.032 26.5z"/>
<path d="m454.61 372.78c-6.95-4.235-15.786-20.115-15.938-22.754 15.202 8.194 20.198 20.13 15.938 22.754zm-15.56-6.78c0.984-7.822-5.666-24.24-7.585-25.98-2.95 16.468 2.997 27.574 7.585 25.98zm-27.31-24.28c-2.304-5.646-0.613-19.32 0.47-20.998 5.52 11.696 3.264 21.218-0.47 20.998zm-13.71-76.83c3.59-6.648 18.38-15.712 20.99-15.93-6.77 14.568-18.037 19.828-20.99 15.93z"/>
<path d="m398.74 259.33c2.148-7.282 14.874-19.265 17.36-20.034-3.727 15.676-13.678 23.18-17.36 20.034zm27.81 99.15c-4.992-6.176-8.011-23.865-7.29-26.36 11.27 12.514 12.03 25.233 7.29 26.36zm-28.65-36.46c-6.91 1.089-21.36-4.636-22.92-6.337 14.532-3.15 24.287 2.072 22.92 6.337zm-2.22-9.68c0.823-5.577 8.665-15.81 10.36-16.66-1.11 11.958-7.448 18.6-10.36 16.66zm51.33 58.54c-8.475 0.435-24.63 11.107-26.128 13.618 18.028 0.143 28.705-8.74 26.128-13.618z"/>
</g>
<g fill="#406325">
<path d="m406.41 331.47c4.227 0.21 6.405-10.396-0.27-23.38 1.212 12.32 1.21 22.31 0.27 23.38zm11.18 19.99c-4.474-5.47-19.38-11.328-21.712-11.14 8.885 12.08 19.88 15.096 21.712 11.14zm-24.42-52.98c-1.147-8.043-12.334-22.713-14.743-23.97 1.517 17.176 10.548 26.698 14.743 23.97zm8.39 34.29c-4.993-3.68-18.97-5.344-20.94-4.723 10.137 8.305 20.212 8.458 20.94 4.723zm-9.36-24.83c-2.885-5.69-14.812-13.482-16.892-13.7 5.517 12.386 14.558 16.938 16.892 13.7zm2.73-47.54c0.905-7.573-5.533-23.446-7.345-25.158-2.866 15.925 2.918 26.664 7.345 25.158zm4.47-14.92c2.658-6.496 0.756-22.43-0.522-24.417-6.403 13.51-3.827 24.648 0.522 24.417z"/>
<path d="m404.42 237.83c3.136-4.77 4.162-17.685 3.485-19.47-7.236 9.715-6.958 18.944-3.485 19.47zm5.95-6.14c4.402-3.477 9.224-15.5 9.084-17.433-9.74 6.954-12.22 15.84-9.084 17.433zm-16.05 43.2c0.108 0.868-0.978-8.18-10.054-18.314 0.41 14.818 6.25 20.42 10.054 18.314zm32.56 85.78c-6.176-4.56-23.385-6.729-25.767-5.927 12.562 10.355 24.878 10.55 25.767 5.927zm12.07 5.24c-4.542 1.593-10.443-9.417-7.54-25.883 2.81 13.955 6.18 25.063 7.54 25.883zm13.3 11.15c2.116 4.082-6.7 11.436-21.787 11.315 11.952-4.89 21.24-9.86 21.787-11.315zm7.39-4.47c4.865-2.25 1.1-15.536-14.01-26.37 8.596 13.215 14.456 24.61 14.01 26.37z"/>
<path d="m454.57 372.67c4.278-2.666-0.69-14.444-15.89-22.64 9.403 11.184 16.094 20.968 15.89 22.64zm-42.79-30.99c3.735 0.222 5.957-9.262 0.477-20.924 0.718 10.974 0.418 19.978-0.477 20.924zm-13.76-76.74c2.95 3.897 14.055-1.31 20.837-15.923-10.165 9.338-19.225 16.064-20.837 15.923z"/>
<path d="m398.86 259.33c3.682 3.145 13.542-4.302 17.27-19.977-8.097 11.245-15.645 19.736-17.27 19.977zm27.72 99.09c4.74-1.125 3.954-13.784-7.254-26.272 5.013 13.416 8.016 24.756 7.254 26.272zm-28.87-36.46c1.407-4.24-8.297-9.37-22.803-6.26 12.26 2.196 22.043 5.043 22.803 6.26zm-1.94-9.61c2.903 1.887 9.178-4.66 10.286-16.617-4.674 9.18-9.166 16.265-10.286 16.617zm51.2 58.68c2.576 4.876-7.96 13.667-26.035 13.522 14.283-5.844 25.38-11.783 26.035-13.522z"/>
<path d="m399.36 326.3c-2.658-6.262-14.798-15.462-16.982-15.84 4.946 13.637 14.248 19.145 16.982 15.84z"/>
</g>
<g fill="#67923d">
<path d="m392.42 273.92c4.074-4.666 17.47-9.134 19.6-8.865-8.043 10.41-17.942 12.515-19.6 8.865zm25.07 77.59c-1.807 3.918-12.696 0.916-21.646-11.152 10.885 6.83 20.244 11.51 21.646 11.152zm-24.39-53.05c-4.195 2.727-13.128-6.738-14.685-23.884 6.623 13.203 13.037 23.384 14.685 23.884zm8.42 34.34c-0.77 3.73-10.688 3.59-20.864-4.717 10.73 3.406 19.74 5.332 20.864 4.717zm-9.45-24.95c-2.333 3.24-11.29-1.27-16.807-13.657 8.192 7.967 15.492 13.744 16.807 13.657zm2.76-47.55c-4.427 1.556-10.16-9.08-7.294-25.005 2.667 13.488 5.935 24.175 7.294 25.005zm4.47-14.86c-4.304 0.227-6.87-10.815-0.468-24.322-0.822 12.797-0.507 23.234 0.468 24.322zm5.04-7.67c-3.473-0.525-3.717-9.655 3.52-19.37-2.74 9.977-4.15 18.367-3.52 19.37zm5.98-6.08c-3.136-1.643-0.7-10.43 9.038-17.337-5.526 8.644-9.318 16.178-9.038 17.337z"/>
<path d="m394.25 274.9c-3.804 2.106-9.577-3.503-9.987-18.322 5.102 11.684 8.603 17.807 9.987 18.322zm32.57 85.8c-0.886 4.625-13.144 4.4-25.678-5.895 13.168 4.274 24.246 6.694 25.678 5.895zm-8.17-9.48c-4.023-4.343-7.158-17.347-6.747-19.242 9.012 8.743 10.215 18.165 6.747 19.242zm-16.88-24.99c-3.57-5.786-3.876-20.907-2.92-22.956 8.264 11.81 7.254 22.585 2.92 22.956zm-2.63 0.09c-2.736 3.305-11.93-2.159-16.872-15.833 8.132 9.11 15.474 15.812 16.872 15.833z"/>
</g>
<g fill="#406325">
<path d="m392.37 274c1.617 3.623 11.45 1.53 19.493-8.88-11.97 6.793-16.71 9.74-19.493 8.88zm9.34 52.07c4.332-0.37 5.33-11.037-2.933-22.846 2.664 11.854 3.79 21.678 2.933 22.846zm16.96 25.11c3.47-1.07 2.25-10.45-6.713-19.178 4.403 9.727 7.205 18.01 6.713 19.178z"/>
<path d="m394.23 291.77c2.058-8.386-1.702-22.6-4.3-25.56-4.716 15.428-0.245 26.6 4.3 25.56z"/>
</g>
<path d="m393.93 293.77c-5.895 1.34-8.645-12.034-4.08-27.078 1.07 13.546 2.834 26.147 4.08 27.078z" fill="#67923d"/>
<path d="m392.73 293.72c-0.558-7.527 6.934-23.087 8.915-24.707 2.015 15.803-4.462 26.308-8.915 24.707z" fill="#67923d"/>
<path d="m392.84 293.61c4.413 1.636 10.85-8.76 8.835-24.564-3.51 13.267-7.445 23.764-8.835 24.564z" fill="#406325"/>
<path d="m394.13 303.26c0.005-7.61 8.47-22.23 10.562-23.62 0.834 16.163-6.332 25.83-10.562 23.62z" fill="#67923d"/>
<path d="m394.21 303.41c4.23 2.21 11.306-7.364 10.47-23.525-4.408 12.857-9.047 22.9-10.47 23.525z" fill="#406325"/>
</g>
<g stroke="#511124" stroke-width=".218" fill="#ba1f3e">
<circle stroke-width=".186" cy="251.27" cx="396.84" r="1.085"/>
<circle stroke-width=".186" cy="245.07" cx="405.2" r="1.085"/>
<circle stroke-width=".186" cy="241.71" cx="401.56" r="1.086"/>
<circle cy="313.12" cx="392.5" r="1.277"/>
<circle cy="297.13" cx="395.03" r="1.277"/>
<circle cy="334.46" cx="408.21" r="1.277"/>
<circle cy="336.43" cx="402.39" r="1.277"/>
<circle cy="367.63" cx="446.7" r="1.277"/>
<circle cy="374.71" cx="449.61" r="1.277"/>
</g>
</g>
<g stroke="#24420e">
<g stroke-width=".437" fill="none">
<path d="m561.15 258.97c0.623 0.62 1.174 0.808 2.295 1.895m-6.62-18.94c-0.035-1.368-0.633-3.605-0.918-4.973m3.45 2.98c0.055 1.952-0.218 3.81-1.062 5.504m-4.16-0.53c1.753 1.576 3.505 3.077 5.258 3.892m3.82 1.23c0.105 1.98-0.142 3.96-0.683 5.94m0.32 1.51l1.314-2.262m-1.86 12.22c1.4 0.29 2.81 1.946 3.505 3.482m0.48-1.29l1.64-2.185m1.71 30.72c-0.748 1.304-1.58 2.435-2.458 3.483m-3.96-0.07c0.79 1.456 1.556 2.946 2.595 4.03m2.46 5.87c-1.307 1.773-2.766 3.165-4.438 4.03m0.14 4.5c-1.093 0.75-2.426 2.953-3.687 4.712m8.44-20.18l-2.124 0.87m-1.4-7.49l1.256 1.11m-9.3 37.39c-0.84-0.108-1.456 0.01-2.124 0.072m-2-1.93l0.615 1.64m-7.71 5.12c-0.262 1.866-0.072 3.733 0.204 5.6m4.31-9.02l1.024 2.254m3.83-0.2l-2.526 0.41m-30.85 25.27l-0.917 1.738m11.9-3.93c-1.492 0.187-2.778-0.043-4.097-0.204m-5.46 5.94a27.282 27.282 0 0 0 -2.936 -0.956m-14.74 2.66c-0.906 0.773-1.99 2.435-3.073 4.097m-0.55-4.57c-2.433 1.253-3.182 3.71-4.438 5.804m2.8 2.87c-1.553-0.46-3.412-1.228-5.326-2.048m16.77-0.68c-2.32-1.205-4.748-1.087-7.135-1.468m10.75-0.34c-3.628-0.707-7.01-0.61-10.276-0.137m7.78-2.6l-1.4-0.58m-5.53 5.5l-2.323-1.296m57.94-49.19c-1.256 0.816-2.51 2.283-3.766 3.863m1.83-79.62l-2.153-0.724"/>
</g>
<g stroke-width=".164">
<path d="m474.39 384.85c0.797-1.256 2.108-2.028 3.277-2.656 7.726-4.056 15.406-5.843 24.117-7.244 2.013-0.337 4.027-2.22 6.087-3.187 4.964-2.365 10.49-3.284 15.312-5.697 0.328-0.146 1.545-0.87 2.108-1.545 1.92-2.22 5.385-2.898 7.54-4.974 8.333-7.87 17.183-15.116 21.77-25.546 5.573-12.7 12.504-25.787 11.568-40.225-0.61-9.126 0.75-18.35-1.498-27.043-3.326-12.893-7.59-25.643-15.408-36.314l1.31 0.82c7.868 10.675 12.128 23.424 15.453 36.315 2.248 8.692 0.89 17.916 1.5 27.043 0.935 14.44-5.996 27.526-11.567 40.275-4.59 10.384-13.486 17.627-21.774 25.547-2.154 2.027-5.62 2.703-7.54 4.973-0.56 0.627-1.825 1.4-2.106 1.545-4.823 2.415-10.35 3.332-15.313 5.65-2.06 1.014-4.073 2.85-6.087 3.188-8.71 1.4-16.388 3.235-24.113 7.242-1.217 0.628-2.482 1.4-3.278 2.657l-1.358-0.822" fill="#406325"/>
<g fill="#406325">
<path d="m553.65 334.6c2.74-7.416-0.01-24.838-1.49-26.95-6.648 15.37-3.34 27.5 1.49 26.95z"/>
<path d="m546.54 341.64c2.304-5.646 0.613-19.32-0.47-20.998-5.52 11.696-3.265 21.218 0.47 20.998zm16.81-74.15c-3.293-6.1-16.867-14.418-19.26-14.618 6.212 13.368 16.55 18.195 19.26 14.618z"/>
<path d="m561.76 259.47c-1.79-6.068-12.395-16.053-14.466-16.694 3.105 13.063 11.398 19.315 14.466 16.694zm4.74 14.96c-3.537-4.05-15.164-7.928-17.013-7.695 6.98 9.036 15.572 10.864 17.013 7.695zm-2.8 46.33c6.132 0.966 18.96-4.115 20.345-5.625-12.9-2.797-21.56 1.84-20.345 5.625zm-0.15-5.64c-0.043-5.638-6.395-16.856-7.956-17.933-0.556 11.996 4.803 19.453 7.956 17.933z"/>
<path d="m563.96 301.44c-0.005-7.61-8.47-22.23-10.562-23.62-0.834 16.162 6.332 25.83 10.562 23.62zm-52.89 75.27c4.477 5.503 19.653 11.133 22.088 10.904-8.805-12.233-20.07-15.05-22.088-10.904z"/>
</g>
<g fill="#67923d">
<path d="m553.56 334.43c-4.824 0.55-8.09-11.437-1.395-26.785-0.49 14.192 0.24 25.63 1.395 26.785zm-53.37 43.66c7.093 0.363 20.61 9.295 21.865 11.396-15.086 0.117-24.02-7.315-21.865-11.396zm0-7.94c2.098-7.967 15.006-21.21 17.514-22.15-3.603 17.133-13.74 25.534-17.514 22.15zm21.27-4.23c-0.985-7.822 5.665-24.24 7.585-25.98 2.95 16.467-2.997 27.575-7.585 25.98zm21.46-14.54c4.474-5.47 19.38-11.328 21.712-11.14-8.885 12.08-19.88 15.096-21.712 11.14zm25.79-53.26c0.903-6.332 9.71-17.88 11.606-18.87-1.194 13.52-8.304 21.018-11.606 18.87z"/>
<path d="m557.02 336.18c5.817-4.29 22.105-6.228 24.4-5.504-11.814 9.676-23.553 9.855-24.4 5.504zm10.27-24.52c3.033-5.98 15.566-14.17 17.754-14.4-5.8 13.02-15.3 17.803-17.754 14.4zm-1.48-45.56c-0.098-7.625 7.984-22.728 9.966-24.24 1.165 16.14-5.723 26.206-9.965 24.24zm-6.93-25.92c-2.322-5.28-1.1-18.414-0.093-20.074 5.55 10.963 3.672 20.17 0.093 20.074zm-4.23-2.18c-5.274-4.683-10.645-19.756-10.41-22.103 11.75 9.263 14.385 20.36 10.41 22.103z"/>
<path d="m566.28 272.54c-0.317 0.815 2.945-7.695 14.22-15.308-4.013 14.27-11.045 18.28-14.22 15.308zm-34.1 89.9c7.006-5.173 26.532-7.634 29.232-6.724-14.253 11.748-28.225 11.97-29.232 6.724zm14.33-20.84c-3.735 0.222-5.957-9.262-0.477-20.924-0.72 10.974-0.418 19.978 0.477 20.924zm16.85-74.07c-2.708 3.576-12.897-1.202-19.12-14.61 9.327 8.57 17.64 14.74 19.12 14.61zm-1.7-8.06c-3.068 2.62-11.285-3.583-14.39-16.646 6.745 9.37 13.035 16.446 14.39 16.646zm4.89 15.03c-1.405 3.145-9.94 1.328-16.92-7.708 10.39 5.896 14.505 8.455 16.92 7.708zm-2.69 46.21c-1.25-3.764 7.365-8.317 20.24-5.556-10.883 1.95-19.566 4.477-20.24 5.556zm-0.4-5.6c-3.136 1.467-8.445-5.885-7.888-17.88 3.36 9.74 6.828 17.375 7.888 17.88z"/>
<path d="m563.88 301.59c-4.23 2.21-11.305-7.364-10.47-23.525 4.408 12.857 9.047 22.898 10.47 23.525zm-52.69 75.07c2.018-4.146 13.15-1.378 21.976 10.888-10.995-6.75-20.482-11.305-21.976-10.888z"/>
</g>
<g fill="#406325">
<path d="m521.55 365.83c4.542 1.593 10.443-9.417 7.54-25.883-2.81 13.955-6.18 25.064-7.54 25.883z"/>
<path d="m531.83 360.59c4.34-6.65 5.55-24.554 4.58-26.967-9.944 13.594-9.41 26.324-4.58 26.967zm-31.69 17.54c-2.116 4.08 6.7 11.436 21.787 11.315-11.95-4.89-21.238-9.86-21.787-11.315zm0.16-8.05c3.785 3.338 13.808-4.948 17.41-22.083-8.128 12.423-15.724 21.8-17.41 22.083zm42.71-18.65c1.807 3.918 12.696 0.916 21.646-11.152-10.885 6.83-20.244 11.512-21.646 11.152zm25.75-53.33c3.303 2.147 10.335-5.303 11.56-18.803-5.213 10.395-10.262 18.41-11.56 18.803zm-11.69 38.11c0.895 4.348 12.454 4.183 24.312-5.496-12.502 3.97-23 6.214-24.312 5.496zm10.36-24.64c2.453 3.405 11.865-1.334 17.664-14.352-8.61 8.373-16.28 14.445-17.664 14.352zm-1.51-45.56c4.238 2.016 11.064-7.952 9.899-24.093-4.08 13.13-8.46 23.412-9.9 24.093zm-6.96-25.87c3.542 0.093 5.415-9.033-0.134-19.995 0.95 10.498 0.913 19.08 0.134 19.995zm-4.23-2.24c3.972-1.742 1.33-12.71-10.422-21.972 6.472 11.02 10.853 20.573 10.422 21.972zm11.61 34.67c3.175 2.97 10.143-1.06 14.155-15.33-7.798 10.084-12.688 15.17-14.155 15.33zm-34.09 89.91c1.005 5.247 14.913 4.994 29.132-6.688-14.94 4.85-27.508 7.595-29.132 6.688z"/>
<path d="m539.14 354.75c3.272-4.934 4.274-18.274 3.564-20.077-7.488 10.08-7.16 19.572-3.564 20.077zm19.6-28.61c3.57-5.786 3.876-20.908 2.92-22.957-8.264 11.81-7.255 22.586-2.92 22.957z"/>
</g>
<g fill="#67923d">
<path d="m531.79 360.54c-4.83-0.638-5.33-13.312 4.552-26.873-3.626 13.856-5.464 25.442-4.552 26.873zm35.16-68.33c-0.943-7.765 3.976-20.143 6.632-22.522 2.573 14.385-2.66 23.95-6.632 22.522zm-27.84 62.49c-3.597-0.5-3.9-9.954 3.54-20.007-2.78 10.308-4.213 18.935-3.54 20.007zm23.36-104.24c-2.167-5.88 0.03-20.04 1.236-21.774 5.29 12.257 2.638 22.116-1.236 21.774zm-58.08 120.15c2.474-8.09 16.19-21.08 18.807-21.915-4.335 17.42-15.065 25.53-18.807 21.915zm54.53-41.59c2.658-6.262 14.798-15.462 16.98-15.84-4.944 13.637-14.247 19.145-16.98 15.84zm-0.12-3.03c-4.333-0.37-5.33-11.037 2.933-22.846-2.664 11.854-3.79 21.678-2.933 22.846z"/>
</g>
<path d="m567 294.04c5.158 1.842 9.078-9.89 6.598-23.914-2.428 12.067-5.377 23.21-6.598 23.914z" fill="#406325"/>
<path d="m567.77 293.64c0.557-7.527-6.935-23.086-8.915-24.707-2.015 15.803 4.463 26.31 8.915 24.707zm-5.22-43.22c3.834 0.337 6.473-9.435 1.187-21.69 0.33 11.446-0.283 20.75-1.187 21.69zm-58.05 120.11c3.787 3.62 14.37-4.417 18.704-21.838-8.84 12.353-16.968 21.612-18.704 21.838zm54.64-41.49c2.735 3.305 11.93-2.158 16.872-15.833-8.133 9.11-15.474 15.812-16.872 15.833z" fill="#406325"/>
<path d="m567.66 293.53c-4.413 1.636-10.85-8.76-8.835-24.563 3.51 13.267 7.445 23.763 8.835 24.563z" fill="#67923d"/>
</g>
<g stroke="#511124" stroke-width=".218" fill="#ba1f3e">
<circle cy="254.9" cx="564.62" r="1.085"/>
<circle cy="266.82" cx="568.42" r="1.085"/>
<circle cy="304.3" cx="569.76" r="1.277"/>
<circle cy="297.29" cx="564.65" r="1.277"/>
<circle cy="337.17" cx="549.91" r="1.277"/>
<circle cy="339.9" cx="556.2" r="1.277"/>
<circle cy="372.26" cx="513.8" r="1.277"/>
<circle cy="377.29" cx="506.8" r="1.277"/>
<circle cy="249.25" cx="557.05" r="1.084"/>
</g>
</g>
<g id="b" stroke="#485654" stroke-width=".109" fill="#8c959d">
<path d="m434.25 336.27c-0.134 1.066 0.842 2.34 2.128 2.07 0.386-0.08 0.624-0.58 0.132-0.49-0.425 0.108-0.88-0.07-1.202-0.374a1.677 1.677 0 0 1 -0.396 -1.92c-0.23 0.25-0.45 0.485-0.66 0.713h-0.002z"/>
<path stroke="none" d="m437.24 338.34c-1.016 1.165-2.568 1.676-3.427 0.834-0.573-0.565-0.777-1.205-0.468-1.912-0.443 0.482-0.822 0.897-1.12 1.23 0.046 0.09 0.714 1.31 1.707 1.76 1.223 0.55 2.972-0.28 4.018-1.565 0.738-0.91 1.56-2.428 0.967-3.61-0.365-0.728-1.24-1.423-1.967-1.698-0.35 0.374-0.695 0.746-1.027 1.1 0.51-0.24 1.148-0.135 1.695 0.312 1.274 1.035 0.537 2.5-0.378 3.546v0.002z"/>
<path stroke="none" d="m437.24 338.34a4.006 4.006 0 0 1 -1.162 0.956c-0.444 0.235-0.957 0.39-1.473 0.318a1.48 1.48 0 0 1 -0.71 -0.296 2.364 2.364 0 0 1 -0.51 -0.58 1.61 1.61 0 0 1 -0.248 -0.737c-0.02-0.262 0.038-0.528 0.14-0.767l0.123 0.08-1.11 1.24 0.013-0.1c0.276 0.48 0.624 0.937 1.042 1.3 0.21 0.18 0.442 0.335 0.694 0.436 0.248 0.1 0.523 0.14 0.796 0.133 0.55-0.016 1.088-0.206 1.573-0.477a5.1 5.1 0 0 0 1.297 -1.042c0.37-0.417 0.69-0.887 0.935-1.388 0.24-0.5 0.41-1.05 0.374-1.595a1.833 1.833 0 0 0 -0.224 -0.774 3.063 3.063 0 0 0 -0.5 -0.655 4.185 4.185 0 0 0 -1.37 -0.932l0.09-0.022-1.034 1.093-0.085-0.117c0.236-0.107 0.5-0.145 0.754-0.118 0.254 0.03 0.498 0.117 0.715 0.245 0.427 0.257 0.798 0.65 0.925 1.145 0.13 0.494 0.002 1.008-0.208 1.448-0.214 0.446-0.512 0.842-0.84 1.205v0.002zm0-0.002c0.314-0.375 0.595-0.78 0.794-1.225 0.196-0.44 0.302-0.942 0.167-1.404-0.13-0.46-0.492-0.827-0.9-1.064-0.407-0.238-0.924-0.305-1.345-0.1l-0.084-0.117 1.018-1.11 0.04-0.042 0.053 0.02c0.55 0.21 1.034 0.55 1.447 0.96 0.204 0.21 0.39 0.437 0.536 0.698 0.146 0.257 0.23 0.557 0.25 0.852 0.043 0.598-0.138 1.177-0.383 1.7a6.39 6.39 0 0 1 -0.962 1.44c-0.39 0.433-0.85 0.8-1.358 1.082-0.51 0.278-1.076 0.478-1.67 0.493a2.202 2.202 0 0 1 -0.876 -0.153 2.734 2.734 0 0 1 -0.744 -0.473 5 5 0 0 1 -1.073 -1.363l-0.03-0.054 0.042-0.046 1.13-1.22 0.124 0.078c-0.1 0.22-0.155 0.46-0.142 0.7 0.012 0.24 0.093 0.474 0.217 0.682 0.124 0.207 0.288 0.403 0.472 0.557 0.187 0.155 0.416 0.254 0.657 0.295 0.486 0.082 0.99-0.053 1.435-0.273 0.446-0.225 0.846-0.54 1.185-0.912z" fill="#485654"/>
<path stroke-linejoin="round" stroke="#351710" stroke-width=".218" d="m515.24 249.25l-40.137 39.515c-3.053 3.032-37.963 36.38-41.105 39.384-1.103 1.322-4.233 4.857-4.56 5.352-2.13 2.31-4.44 5.33-7.198 8.03-0.49 0.62-1.142 0.394-1.734 0.737-1.814 1.05-3.697 2.87-5.053 4.37l-12.208 13.505c-0.786 0.854-0.996 1.38-0.464 1.87l6.624 8.85c1.23 1.214 2.644 1.838 3.195 0.82 3.146-5.447 10.96-13.76 13.914-20.335 1.764-3.93 3.978-11.058 5.558-12.782 1.94-2.157 7.17-7.73 11.806-12.705 0.314-0.335 0.624-0.668 0.93-0.997l0.947-1.02c23.506-23.95 50.715-53.045 70.526-73.557-0.777-0.776-0.285-0.312-1.04-1.04z" fill="#6c301e"/>
<path d="m431.89 328.11c-1.225 0.043-2.022-0.707-2.848-1.4 1.17 0.346 2.345 0.797 3.452 0.338l-0.604 1.062z"/>
<path stroke-width=".218" d="m557.05 220.1l-31.804 26.22c-0.306 0.373-0.624 0.266-0.93 0l-2.894-2.418c0.004-0.037 0.014-0.073 0.014-0.11 0-0.162-0.032-0.318-0.082-0.464l1.42-1.447c0.177-0.22 0.12-0.31-0.123-0.545-0.182-0.19-0.342-0.365-0.586-0.6-0.228-0.177-0.416-0.037-0.642 0.176l-1.434 1.476c-0.734 0.03-1.33 0.63-1.352 1.366-19.238 18.73-35.794 35.435-54.938 53.872l-22.573 21.55c-0.806 1.042-4.29 2.906-6.596 4.41-0.818 0.532-1.524 1.016-1.817 1.543l-1.844 5.435c-0.583 1.194-2.432 4.003-2.514 4.193 2.37 2.386 2.248 2.212 3.865 3.728 1.82-2.023 6.69-7.112 11.117-11.853 0.357-0.382 0.38-0.422 0.833-0.97-0.346-0.488-0.927-1.205-1.393-1.652a34.105 34.105 0 0 0 -1.2 -1.093c-0.246-0.212-0.47-0.39-0.63-0.546-0.162-0.157 0.24-0.445 0.424-0.643 26.465-25.58 54.963-53.695 78.277-76.595a1.41 1.41 0 0 0 1.025 -0.096l2.785 3.21c0.655 0.652 1.21 0.64 1.735 0.395l31.86-28.54z" fill="#b2b6ba"/>
<path stroke="none" d="m430.95 330.39c0.2 0.03 0.405 0.048 0.606 0.03a1.5 1.5 0 0 0 0.574 -0.16l-0.017 0.018c0.23-0.796 0.472-1.587 0.715-2.38 0.247-0.79 0.497-1.578 0.76-2.364l0.005 0.027c-0.195-0.222-0.436-0.42-0.73-0.495 0.298 0.057 0.558 0.244 0.77 0.46l0.01 0.01-0.004 0.016c-0.23 0.798-0.468 1.59-0.71 2.382-0.247 0.79-0.493 1.58-0.754 2.366l-0.005 0.014-0.01 0.006a1.407 1.407 0 0 1 -0.602 0.14 2.87 2.87 0 0 1 -0.61 -0.068z" fill="#485654"/>
<circle stroke-width=".164" cy="328.14" cx="438.18" r=".619" fill="none"/>
<circle stroke-width=".164" cy="331.88" cx="434.44" r=".619" fill="none"/>
<path stroke="none" d="m440.97 322.38c-0.32-0.24-0.615-0.505-0.906-0.775a11.58 11.58 0 0 1 -0.832 -0.854c0.32 0.24 0.615 0.506 0.906 0.776 0.288 0.273 0.57 0.55 0.832 0.854z" fill="#485654"/>
<path d="m502.17 259.06l3.487 3.41 0.645-0.586-3.487-3.41-0.645 0.586z"/>
</g>
<use width="100%" xlink:href="#b" transform="rotate(182.84 487.09 -.23)" height="100%"/>
<g stroke="#24420e" stroke-width=".164">
<path d="m433.91 365.36c-7.866-3.32-26.89-0.67-29.22 0.932 16.286 8.01 29.54 4.574 29.22-0.932zm89.02 3.32c7.866-3.32 26.89-0.67 29.22 0.933-16.286 7.982-29.54 4.573-29.22-0.933z" fill="#67923d"/>
<path d="m433.76 365.48c0.32 5.506-12.79 8.885-29.075 0.903 15.295 0.932 27.793 0.378 29.075-0.903zm89.32 3.29c-0.32 5.506 12.79 8.885 29.075 0.903-15.295 0.933-27.793 0.408-29.075-0.903z" fill="#406325"/>
</g>
<g id="c">
<path stroke="#485654" stroke-width=".218" d="m508.49 359.99c-20.733-30.12-51.995-54.61-76.102-67.99 3.557-0.167 11.46 3.88 14.67 5.948 23.94 15.427 44.3 35.803 65.664 59.822-1.258 1.245-2.082 1.98-3.446 3.05l-0.786-0.83z" fill="#b2b6ba"/>
<path d="m510.55 359.75l-1.45 1.394c-23.01-29.62-55.094-57.945-76.67-69.13 30.08 13.855 55.392 41.77 78.034 67.65l0.085 0.085z" fill="#8c959d"/>
<path d="m510.56 359.75l-1.448 1.397-0.004 0.003-0.003-0.004c-5.325-6.824-10.975-13.39-16.864-19.73a336.02 336.02 0 0 0 -18.366 -18.337c-6.36-5.87-12.943-11.496-19.81-16.76a195.86 195.86 0 0 0 -10.542 -7.564c-3.6-2.393-7.297-4.652-11.133-6.644l0.094-0.196c7.892 3.644 15.34 8.195 22.375 13.28 7.038 5.092 13.676 10.716 20.028 16.632 6.352 5.92 12.422 12.135 18.328 18.497 5.902 6.367 11.63 12.892 17.343 19.425zc-5.74-6.51-11.494-13.012-17.42-19.353-5.916-6.35-11.99-12.556-18.35-18.463-6.356-5.904-12.998-11.515-20.036-16.59-7.036-5.07-14.478-9.605-22.36-13.23l0.096-0.196c3.845 2 7.54 4.27 11.144 6.67 3.6 2.405 7.108 4.95 10.542 7.586 6.864 5.278 13.444 10.918 19.798 16.798a336.06 336.06 0 0 1 18.35 18.37c5.867 6.363 11.49 12.956 16.79 19.8l-0.007-0.002 1.453-1.39z" fill="#485654"/>
<g stroke="#6c301e" stroke-width=".109" fill="#fab81c">
<path stroke-width=".218" d="m517.5 355.07c-1.974 0.51-3.726 1.253-5.258 2.226-0.228 1.397-1.953 2.957-3.587 3.31-0.297-0.377-0.367-0.487-0.592-0.77a0.13 0.13 0 0 0 -0.17 -0.038c-0.14 0.076-0.33 0.18-0.572 0.34-0.61-0.103-1.336 0.197-1.66 0.975-0.377 0.97 0.386 2.248 1.225 3.084 0.924 0.73 1.387 1.07 2.458 0.92 1.083-0.224 1.68-1.213 1.925-1.528 3.72 4.502 6.517 6.932 11.23 10.64 2.098 0.016 3.224-1.307 2.52-2.803-0.233-0.502-0.84-0.836-1.333-0.652 0.04-0.15 0.024-0.305 0-0.45 2.463-2.265 3.514-5.09 0.915-9.874-2.224-4.03-4.712-5.396-7.088-5.38h-0.012zm6.246 4.53c0.438 0.742 0.692 1.38 1.024 2.054 1.483 3 0.196 6.602-2.334 7.706-0.123-0.005-0.085-0.02-0.213 0.022 0.413-0.687-0.827-2.154-1.46-1.64 0.3-0.758-0.67-2.018-1.462-1.693 0.415-0.706-0.532-1.906-1.42-1.516 0.46-0.767-0.323-1.866-1.242-1.666 0.277-0.818-0.418-1.753-1.352-1.598 0.08-0.723-0.157-1.12-0.507-1.45 1.11-0.846 2.346-2.15 3.437-2.738 2.72-1.178 4.403 1.073 5.527 2.518z"/>
<path d="m524.89 362.77c-0.515-0.253-0.756-0.76-0.587-1.105 0.17-0.342 0.702-0.432 1.217-0.178 0.516 0.254 0.802 0.744 0.633 1.088-0.172 0.343-0.747 0.45-1.264 0.196z"/>
<path d="m524.59 361.75c-0.515-0.253-0.756-0.76-0.587-1.105 0.17-0.342 0.702-0.432 1.218-0.177 0.516 0.253 0.802 0.744 0.633 1.088-0.172 0.343-0.747 0.45-1.263 0.195z"/>
<path d="m523.97 360.62c-0.515-0.253-0.756-0.76-0.587-1.105 0.168-0.342 0.7-0.433 1.217-0.178 0.516 0.254 0.802 0.744 0.633 1.088-0.172 0.343-0.748 0.45-1.264 0.196z"/>
<path d="m523.19 359.6c-0.516-0.253-0.756-0.76-0.587-1.105 0.17-0.342 0.7-0.432 1.217-0.178 0.516 0.253 0.802 0.744 0.633 1.088-0.172 0.343-0.748 0.45-1.263 0.196z"/>
<path d="m522.16 358.61c-0.515-0.253-0.756-0.76-0.587-1.105 0.023-0.046 0.007-0.136 0.055-0.114 0.21 0.11 0.644 0.188 0.597-0.136-0.065-0.113-0.146-0.227-0.07-0.142 0.15 0.004 0.464 0.134 0.636 0.222 0.517 0.253 0.803 0.744 0.634 1.088-0.172 0.343-0.747 0.45-1.264 0.195v-0.007z"/>
</g>
<g fill="#fab81c">
<path d="m511.27 363.6c0.682-1.774 2.047-3.414 3.508-3.806m-3.28 4.06c1.263 0.262 3.31-1.243 3.806-2.588m-2.62 4.04c1.656 0.38 3.29-1.218 3.934-2.409m-2.44 3.99c1.957 0.064 3.164-1.326 3.74-2.39m-2.23 3.92c1.66 0.01 3.172-1.36 3.646-2.424m-2.19 3.82c1.808-0.073 3.084-0.895 3.62-2.075m-1.98 3.49c1.66 0.096 3.003-0.896 3.443-1.862m-1.66 3.31c1.66 0.096 2.695-0.93 3.136-1.897"/>
</g>
<g fill="#6c301e">
<path d="m511.27 363.6c0.14-0.423 0.326-0.833 0.544-1.224 0.22-0.39 0.478-0.76 0.765-1.105 0.293-0.338 0.616-0.654 0.984-0.914 0.367-0.26 0.776-0.467 1.214-0.562-0.424 0.14-0.813 0.36-1.164 0.63-0.35 0.268-0.67 0.578-0.952 0.917-0.577 0.674-1.028 1.447-1.392 2.26zm0.23 0.25c0.405 0.057 0.81-0.045 1.18-0.193a4.88 4.88 0 0 0 1.048 -0.592c0.328-0.233 0.63-0.505 0.9-0.802 0.272-0.298 0.513-0.628 0.678-1-0.123 0.39-0.35 0.74-0.613 1.055-0.264 0.315-0.572 0.59-0.9 0.835a4.573 4.573 0 0 1 -1.084 0.582c-0.385 0.136-0.81 0.218-1.21 0.115zm1.19 1.45c0.405 0.07 0.818 0.035 1.204-0.086 0.385-0.12 0.747-0.31 1.076-0.548 0.333-0.23 0.634-0.506 0.91-0.804 0.28-0.298 0.528-0.623 0.744-0.97a4.68 4.68 0 0 1 -0.68 1.026c-0.268 0.314-0.576 0.595-0.91 0.837-0.342 0.234-0.715 0.432-1.117 0.54-0.402 0.107-0.832 0.12-1.227 0.005zm1.49 1.58c0.39-0.013 0.778-0.065 1.146-0.183a3.833 3.833 0 0 0 1.033 -0.507c0.32-0.214 0.605-0.477 0.865-0.764s0.487-0.605 0.694-0.936a4.552 4.552 0 0 1 -1.5 1.79c-0.327 0.22-0.688 0.395-1.07 0.497-0.382 0.104-0.78 0.136-1.17 0.103zm1.51 1.53c0.767-0.042 1.493-0.332 2.113-0.765 0.314-0.212 0.6-0.463 0.86-0.74 0.26-0.275 0.493-0.58 0.672-0.92-0.138 0.36-0.357 0.686-0.61 0.977-0.25 0.293-0.545 0.55-0.86 0.773-0.322 0.214-0.667 0.398-1.036 0.517-0.37 0.12-0.757 0.183-1.14 0.158zm1.46 1.4a7.09 7.09 0 0 0 1.078 -0.187 4.63 4.63 0 0 0 1.013 -0.388c0.323-0.164 0.62-0.378 0.88-0.63 0.26-0.25 0.477-0.546 0.65-0.87-0.132 0.344-0.337 0.66-0.59 0.93-0.256 0.27-0.562 0.49-0.89 0.667a4.51 4.51 0 0 1 -2.14 0.478zm1.64 1.42c0.345-0.004 0.687-0.04 1.02-0.12a4 4 0 0 0 0.952 -0.36c0.303-0.155 0.583-0.353 0.834-0.583 0.25-0.23 0.47-0.496 0.636-0.8a2.524 2.524 0 0 1 -0.578 0.86 3.576 3.576 0 0 1 -0.842 0.62c-0.31 0.158-0.642 0.28-0.986 0.344-0.342 0.066-0.693 0.08-1.036 0.04zm1.78 1.45a3.94 3.94 0 0 0 0.96 -0.12 3.305 3.305 0 0 0 1.617 -0.986 4.03 4.03 0 0 0 0.56 -0.79 3.056 3.056 0 0 1 -1.24 1.495c-0.284 0.168-0.594 0.296-0.918 0.362a3.018 3.018 0 0 1 -0.98 0.038z"/>
</g>
</g>
<use width="100%" xlink:href="#c" transform="rotate(183.41 489.97 -.41)" height="100%"/>
<g stroke="#24420e" stroke-width=".164">
<path d="m409.24 240.02c7.21-2.367 18.73-15.453 19.478-17.917-15.593 4.154-22.757 14.343-19.478 17.917zm145.74 4.7c-1.702-7.045-13.28-19.01-15.568-19.91 2.763 15.16 11.916 22.758 15.568 19.91z" fill="#406325"/>
<path d="m409.24 240.02c-3.325-3.574 3.792-13.666 19.34-17.82-10.958 8.403-19.2 16.178-19.34 17.82zm145.74 4.7c-3.656 2.892-12.72-4.654-15.486-19.77 7.163 11.072 13.934 19.51 15.486 19.77z" fill="#67923d"/>
</g>
<g stroke="#999270" stroke-width=".164">
<path d="m452.21 318.1s-6.158 0.662-7.884-7.833c-1.846-9.087 5.306-10.052 5.306-10.052s8.103-0.78 13.15-0.91l2.24 17.954-12.812 0.84z" fill="url(#d)"/>
<path d="m453.02 315.36s-3.985 0.762-4.807-5.553c-0.583-4.473 2.185-5.108 2.185-5.108l9.236 1.563 0.05 8.24-6.664 0.857z" fill="url(#e)"/>
<path d="m450.4 304.7s5.905-0.43 8.99-0.83l1.28 5.71-7.102 0.446s-0.487-5.155-3.168-5.326z" fill="url(#f)"/>
<path d="m449.16 300.36s7.575-1.857 8.517 6.49c0.245 2.18-0.942 7.166-4.656 8.513l13.875-1.456-1.256-15.007-4.675 0.39s-9.923 0.34-11.805 1.07z" fill="url(#g)"/>
<path d="m452.2 318.1c0.047 0 51.903-3.49 57.217-3.274 15.743-8.638-0.076-42.56-13.342-61.532 1.515-4.276-29.858-13.892-44.047-13.024-1.782 0.11-3.505 0.227-5.154 0.354-7.696 0.816-7.775 10.694-4.637 16.923 3.045 6.043 30.315 55.126 11.14 60.317l-1.176 0.236z" fill="#f9f0aa"/>
<path d="m507.79 273.34c-3.52-7.304-7.734-14.35-11.718-20.046 1.514-4.276-29.86-13.892-44.047-13.024-1.782 0.11-3.505 0.227-5.154 0.354-7.695 0.816-7.774 10.694-4.636 16.923 0.956 1.898 4.3 8.04 7.847 15.733" fill="url(#h)"/>
<path d="m455.04 284.95c5.555 14.65 8.664 30.117-1.64 32.907l-1.178 0.236c0.047 0 51.903-3.49 57.216-3.274 8.538-4.685 7.793-16.805 3.207-29.944" fill="url(#i)"/>
<path d="m447.4 243.49c-3.705 0-4.656 3.562-4.605 5.817 0.134 5.91 4.605 6.192 4.605 6.192l5.965-0.333 2.857-12.163-8.822 0.486z" fill="url(#j)"/>
<path d="m447.4 243.53l8.822-0.486 0.908 9.086-7.696 0.337s2.49-7.274-2.034-8.937z" fill="url(#k)"/>
<path d="m496.12 253.29c6.686-1.074 6.595-10.07 2.026-13.673-15.498-0.57-35.895-0.143-50.63 0.96 1.676-0.05 6.337 0.376 6.855 6.51 0.243 2.863-1.164 5.492-3.06 6.986-1.853 1.462-3.906 1.462-3.906 1.462 0.248 0.095 2.163 0.007 3.6-0.087 0.738-0.048 2.55-0.264 3.054-0.33 21.012-2.762 41.987-1.823 41.987-1.823l0.08 0.003-0.005-0.008z" fill="url(#l)"/>
<g stroke="none" fill="#b07e09">
<path d="m458.47 267.42c-0.143-0.33-0.323-0.75-0.73-0.805-0.25 0.014-0.645-0.052-0.567-0.392 0.235-0.113 0.533-0.04 0.794-0.065 0.56 0.01 1.113-0.114 1.67-0.148 0.338 0.092 0.262 0.537-0.104 0.463-0.408 0.093-0.175 0.563-0.075 0.81 0.444 1.034 0.872 2.075 1.328 3.104 0.127 0.303 0.38 0.57 0.722 0.605 0.362 0.036 0.756 0.045 1.09-0.116 0.31-0.2 0.242-0.624 0.2-0.937-0.124-0.364 0.54-0.282 0.495 0.043 0.13 0.43 0.28 0.854 0.447 1.27-0.022 0.2-0.275 0.143-0.42 0.168-0.993 0.077-1.988 0.132-2.98 0.224-0.317-0.017-0.795 0.28-0.99-0.096-0.118-0.386 0.512-0.17 0.596-0.463-0.003-0.327-0.195-0.615-0.307-0.916-0.39-0.917-0.78-1.836-1.17-2.75zm4.83-0.34c-0.14-0.32-0.302-0.72-0.687-0.796-0.247-0.022-0.653-0.017-0.616-0.374 0.157-0.162 0.457-0.058 0.67-0.092 0.592 0.02 1.175-0.09 1.76-0.144 0.29-0.027 0.4 0.518 0.026 0.444-0.358 0.012-0.383 0.405-0.233 0.65 0.47 1.143 0.96 2.278 1.437 3.416 0.105 0.245 0.24 0.548 0.54 0.586 0.252 0.05 0.648-0.03 0.705 0.316-0.04 0.267-0.434 0.12-0.63 0.16-0.522-0.036-1.042 0.032-1.556 0.12-0.226 0.064-0.55 0.027-0.56-0.27 0.054-0.273 0.585-0.07 0.61-0.402-0.04-0.326-0.215-0.615-0.33-0.92l-1.136-2.694zm4.46 0.71c0.09 0.227 0.404 0.064 0.586 0.075 0.263-0.025 0.543-0.215 0.52-0.51-0.044-0.45-0.265-0.907-0.633-1.182-0.34-0.24-0.78-0.213-1.172-0.162-0.022 0.156 0.1 0.305 0.146 0.454l0.554 1.326zm0.668 1.596c0.164 0.35 0.28 0.745 0.565 1.017 0.244 0.172 0.57 0.093 0.843 0.066 0.302-0.022 0.48-0.332 0.386-0.61-0.142-0.635-0.554-1.3-1.238-1.437a2.43 2.43 0 0 0 -0.915 0c-0.025 0.143 0.09 0.288 0.134 0.43l0.224 0.533zm-2.034-2.37c-0.158-0.35-0.31-0.77-0.688-0.927-0.245-0.082-0.643 0.03-0.696-0.324 0.065-0.303 0.562-0.09 0.8-0.16 0.865-0.022 1.744-0.263 2.595-0.003 0.734 0.182 1.39 0.81 1.45 1.587 0.024 0.377-0.262 0.684-0.582 0.837-0.04-0.135 0.367 0.06 0.506 0.082 0.582 0.186 1.118 0.575 1.377 1.143 0.2 0.398 0.357 0.93 0.04 1.314-0.362 0.396-0.94 0.413-1.438 0.438-0.75 0.02-1.506 0.025-2.245 0.172-0.267 0.047-0.458-0.482-0.09-0.45 0.37-0.012 0.404-0.412 0.244-0.667l-1.276-3.046zm7.41-1.91c0.327-0.054 0.358 0.316 0.458 0.532 0.098 0.284 0.276 0.542 0.348 0.83-0.277 0.277-0.5-0.144-0.624-0.358-0.144-0.248-0.383-0.476-0.69-0.45a8.31 8.31 0 0 0 -1.22 0.07c-0.143 0.16 0.066 0.394 0.114 0.577 0.19 0.447 0.36 0.902 0.56 1.34 0.272-0.02 0.62 0.016 0.815-0.207 0.076-0.23-0.27-0.747 0.21-0.64 0.298 0.17 0.264 0.602 0.416 0.882 0.127 0.388 0.384 0.724 0.492 1.115-0.263 0.29-0.524-0.13-0.62-0.363-0.187-0.347-0.624-0.306-0.96-0.296-0.24-0.05-0.074 0.172-0.04 0.284 0.216 0.493 0.384 1.01 0.66 1.475 0.207 0.342 0.65 0.29 0.993 0.28 0.33-0.02 0.734-0.026 0.927-0.34 0.216-0.25-0.274-0.75 0.132-0.83 0.346-0.03 0.336 0.376 0.428 0.607 0.073 0.28 0.185 0.55 0.284 0.823-0.026 0.2-0.277 0.14-0.423 0.163-1.02 0.065-2.042 0.11-3.06 0.19-0.3 0-0.805 0.24-0.902-0.198 0.026-0.287 0.646-0.135 0.554-0.544-0.073-0.346-0.25-0.66-0.373-0.993-0.377-0.896-0.732-1.8-1.123-2.69-0.14-0.297-0.368-0.62-0.73-0.63-0.24 0.047-0.602-0.13-0.463-0.407 0.347-0.067 0.712-0.02 1.065-0.056l2.77-0.164zm2.31 1.32c-0.154-0.348-0.302-0.77-0.68-0.93-0.256-0.076-0.725 0.014-0.696-0.394 0.247-0.19 0.66-0.03 0.97-0.09 0.8-0.01 1.62-0.237 2.406 0 0.825 0.23 1.515 0.973 1.573 1.842 0.027 0.416-0.307 0.753-0.685 0.864-0.296 0.015 0.23 0.1 0.31 0.196 0.632 0.304 1.07 0.877 1.406 1.474 0.075 0.225 0.52 0.696 0.586 0.246-0.027-0.49 0.638-0.075 0.488 0.264 0.002 0.356-0.352 0.587-0.682 0.583-0.464 0.036-0.904-0.232-1.138-0.624-0.42-0.553-0.708-1.223-1.265-1.662-0.23-0.166-0.56-0.27-0.83-0.152-0.058 0.14 0.07 0.28 0.105 0.416 0.18 0.41 0.305 0.845 0.547 1.223 0.2 0.31 0.593 0.358 0.93 0.356 0.36 0.09 0.26 0.576-0.123 0.433-0.585 0-1.175-0.044-1.753 0.077-0.27 0.126-0.866 0.01-0.65-0.37 0.283-0.017 0.675-0.173 0.48-0.525-0.332-0.872-0.7-1.73-1.045-2.598l-0.255-0.627zm1.404 0.893c0.134 0.326 0.595 0.145 0.86 0.114 0.36-0.08 0.35-0.508 0.235-0.777-0.164-0.47-0.374-1.03-0.89-1.195-0.263-0.035-0.846-0.202-0.886 0.152 0.19 0.535 0.423 1.054 0.63 1.583l0.05 0.123zm7.22 1.72c0.11 0.26 0.213 0.61 0.538 0.656 0.255 0.06 0.665-0.024 0.717 0.33-0.05 0.265-0.44 0.105-0.636 0.143-0.54-0.05-1.077 0.01-1.61 0.083-0.23 0.07-0.55-0.03-0.518-0.32 0.125-0.21 0.648-0.037 0.62-0.402-0.086-0.4-0.276-0.767-0.416-1.15-0.383-0.962-0.762-1.925-1.148-2.885-0.095-0.305-0.443-0.297-0.702-0.28-0.274 0.002-0.683 0.06-0.684 0.416-0.087 0.23 0.218 0.617-0.044 0.736-0.3 0.064-0.362-0.275-0.426-0.487-0.098-0.322-0.26-0.62-0.385-0.927 0.036-0.214 0.32-0.176 0.493-0.194 1.377-0.058 2.754-0.12 4.13-0.174 0.304-0.047 0.504 0.19 0.52 0.477 0.107 0.336 0.27 0.653 0.413 0.974-0.114 0.33-0.508 0.047-0.554-0.196-0.2-0.347-0.51-0.69-0.94-0.71-0.257 0.013-0.642-0.085-0.815 0.146 0.007 0.24 0.145 0.453 0.22 0.678l1.225 3.086zm3.73-0.91c-0.192 0-0.097 0.242-0.118 0.367 0.012 0.282-0.017 0.57 0.03 0.848 0.132 0.31 0.527 0.234 0.784 0.318 0.23 0.13 0.173 0.502-0.136 0.388-0.422-0.025-0.85-0.068-1.267 0.034-0.25 0.133-0.713-0.123-0.493-0.392 0.2-0.034 0.448-0.1 0.494-0.334 0.072-0.414 0.034-0.838 0.048-1.256l0.022-3.714c0.12-0.28 0.514-0.044 0.603 0.166 1.192 1.516 2.37 3.045 3.593 4.535 0.192 0.232 0.462 0.4 0.768 0.417 0.26 0.002 0.402 0.53 0.027 0.426-0.51-0.028-1.026-0.062-1.535 0.023-0.228 0.006-0.492 0.112-0.696-0.022-0.243-0.178-0.07-0.435 0.196-0.403 0.352-0.1-0.005-0.476-0.117-0.652-0.19-0.255-0.38-0.513-0.59-0.752-0.17-0.084-0.373-0.022-0.558-0.03-0.35 0.01-0.706 0.02-1.055 0.034zm1.173-0.512c0.182 0.012-0.057-0.155-0.087-0.235-0.424-0.554-0.848-1.11-1.273-1.663 0.084-0.013 0.017 0.175 0.04 0.255-0.003 0.562 0.003 1.123-0.003 1.684 0.44-0.012 0.884-0.027 1.324-0.04zm3.06-1.85c-0.15-0.398-0.35-0.887-0.818-0.98-0.243 0.043-0.702-0.178-0.452-0.44 0.55-0.008 1.103 0.03 1.653-0.017 0.698-0.06 1.416-0.042 2.08 0.205 1.46 0.492 2.672 1.778 2.914 3.32 0.107 0.606-0.08 1.304-0.625 1.642-0.735 0.467-1.642 0.38-2.47 0.334-0.47-0.023-0.938 0.04-1.404 0.086-0.304-0.042-0.337-0.513 0.023-0.457 0.373-0.012 0.366-0.422 0.23-0.668l-1.13-3.025zm1.97 2.494c0.15 0.34 0.24 0.755 0.563 0.976 0.302 0.143 0.657 0.116 0.98 0.08 0.44-0.06 0.714-0.493 0.718-0.91 0.028-0.755-0.28-1.475-0.63-2.126-0.375-0.7-1.056-1.233-1.845-1.372-0.324-0.053-0.665-0.103-0.99-0.05-0.07 0.124 0.06 0.273 0.086 0.402l1.12 3zm-21.11 12.42c0.116 0.35 0.44 0.6 0.805 0.634 0.257 0.045 0.7-0.016 0.713 0.354-0.138 0.234-0.53 0.07-0.77 0.122a8.628 8.628 0 0 0 -1.55 0.093c-0.276 0.01-0.566 0.125-0.837 0.048-0.243-0.115-0.193-0.47 0.108-0.425 0.247-0.058 0.604-0.135 0.622-0.45-0.023-0.284-0.182-0.534-0.278-0.798-0.385-0.917-0.76-1.838-1.152-2.75-0.086-0.326-0.446-0.335-0.715-0.285-0.248 0.047-0.616 0.124-0.677-0.22 0.03-0.292 0.497-0.238 0.703-0.39 0.312-0.12 0.62-0.256 0.94-0.356 0.215-0.047 0.324 0.15 0.38 0.32 0.57 1.368 1.14 2.74 1.71 4.104zm0.75-4.51c0.682-0.026 1.367 0.077 2.046 0.002 0.3-0.03 0.095-0.497 0.384-0.47 0.37 0.017 0.31 0.477 0.335 0.74a0.518 0.518 0 0 1 -0.57 0.582c-0.533 0.03-1.065-0.05-1.598-0.02 0.12 0.41 0.288 0.81 0.445 1.208 0.027-0.134 0.46-0.155 0.64-0.18 1.063-0.048 2.166 0.56 2.612 1.543 0.215 0.477 0.328 1.1-0.028 1.54-0.387 0.456-1.03 0.55-1.596 0.554-0.49-0.007-1.064-0.113-1.353-0.55-0.167-0.215-0.138-0.68 0.22-0.64 0.306 0.003 0.66 0.263 0.61 0.595 0.163 0.222 0.525 0.144 0.776 0.14 0.3-0.01 0.584-0.242 0.57-0.56 0.006-0.485-0.186-0.96-0.455-1.358-0.292-0.423-0.783-0.708-1.303-0.696-0.293-0.05-0.547 0.148-0.827 0.147-0.284-0.037-0.334-0.366-0.435-0.58a23.87 23.87 0 0 1 -0.65 -1.818c-0.02-0.107 0.076-0.193 0.177-0.18zm6.85 1.02c-0.16-0.395-0.37-0.882-0.84-0.968-0.243 0.057-0.705-0.17-0.463-0.43 0.557-0.022 1.117 0 1.673-0.067 0.704-0.085 1.432-0.07 2.105 0.176 1.486 0.494 2.71 1.82 2.934 3.388 0.088 0.584-0.115 1.238-0.633 1.563-0.718 0.467-1.608 0.398-2.424 0.378-0.453-0.005-0.9 0.07-1.347 0.128-0.3-0.034-0.353-0.503 0.008-0.46 0.373-0.028 0.343-0.44 0.202-0.683-0.405-1.007-0.81-2.017-1.216-3.023zm2.03 2.46c0.16 0.34 0.26 0.754 0.59 0.97 0.302 0.136 0.654 0.098 0.973 0.053 0.44-0.075 0.687-0.524 0.678-0.94 0.004-0.762-0.324-1.48-0.693-2.13-0.39-0.69-1.078-1.213-1.87-1.332-0.322-0.043-0.66-0.083-0.98-0.02-0.066 0.127 0.067 0.273 0.098 0.403l1.206 2.998zm6.44-4.26c0.312-0.053 0.353 0.293 0.437 0.504 0.1 0.284 0.245 0.55 0.346 0.832-0.19 0.31-0.507-0.057-0.588-0.283-0.145-0.247-0.356-0.52-0.674-0.512a9.647 9.647 0 0 0 -1.234 0.036c-0.225 0.1 0.016 0.39 0.054 0.566 0.183 0.452 0.346 0.913 0.543 1.358 0.265-0.01 0.573 0.012 0.798-0.152 0.176-0.212-0.267-0.736 0.213-0.68 0.327 0.12 0.277 0.57 0.416 0.838 0.123 0.397 0.354 0.748 0.49 1.14-0.176 0.33-0.544-0.055-0.594-0.302-0.14-0.32-0.52-0.362-0.828-0.35-0.205-0.036-0.37 0.01-0.226 0.215 0.215 0.515 0.38 1.054 0.655 1.54 0.204 0.348 0.65 0.303 0.995 0.3 0.33-0.013 0.736-0.01 0.94-0.318 0.206-0.243-0.197-0.658 0.082-0.81 0.337-0.097 0.416 0.276 0.466 0.52 0.075 0.308 0.184 0.606 0.29 0.902-0.032 0.198-0.28 0.133-0.427 0.153-1.03 0.044-2.06 0.067-3.09 0.128-0.286-0.02-0.69 0.206-0.87-0.114-0.182-0.395 0.504-0.18 0.532-0.524 0.02-0.305-0.16-0.573-0.25-0.855-0.385-0.965-0.752-1.937-1.148-2.898-0.136-0.313-0.36-0.66-0.74-0.68-0.237 0.042-0.603-0.135-0.457-0.41 0.357-0.06 0.728-0.006 1.09-0.036l2.78-0.106zm-27.28 14.28c0.15 0.487 0.668 0.686 1.11 0.818 0.77 0.26 1.6 0.518 2.15 1.158 0.305 0.37 0.518 0.854 0.495 1.342-0.04 0.496-0.465 0.87-0.924 0.99a2.49 2.49 0 0 1 -1.734 -0.096c-0.266-0.115-0.165 0.467-0.497 0.27-0.24-0.182-0.164-0.56-0.296-0.815a9.043 9.043 0 0 0 -0.386 -0.964c0.013-0.326 0.48-0.156 0.496 0.098 0.327 0.595 0.924 1.12 1.633 1.126 0.358 0.01 0.807-0.18 0.838-0.583 0.007-0.535-0.42-0.954-0.865-1.183-0.64-0.332-1.375-0.437-1.994-0.812-0.555-0.334-0.947-0.954-0.948-1.608 0.013-0.437 0.37-0.778 0.768-0.903a2.63 2.63 0 0 1 1.567 -0.053c0.24 0.125 0.34-0.274 0.595-0.076 0.115 0.196 0.085 0.46 0.194 0.672 0.08 0.286 0.27 0.537 0.334 0.825-0.16 0.244-0.466 0.014-0.517-0.203-0.222-0.366-0.518-0.772-0.984-0.805-0.346-0.026-0.785-0.03-1.006 0.288-0.097 0.154-0.092 0.35-0.03 0.515zm6.69-1.65c0.327-0.06 0.336 0.314 0.418 0.528 0.08 0.272 0.21 0.527 0.29 0.8-0.14 0.286-0.494 0.024-0.537-0.212-0.136-0.26-0.337-0.572-0.672-0.552-0.41-0.007-0.82 0.03-1.226 0.075-0.227 0.1-0.007 0.39 0.025 0.57 0.158 0.452 0.296 0.91 0.467 1.356 0.267-0.02 0.575-0.01 0.8-0.18 0.194-0.2-0.194-0.605 0.138-0.696 0.373-0.047 0.344 0.44 0.434 0.684 0.097 0.45 0.335 0.85 0.468 1.286-0.145 0.317-0.533 0.01-0.55-0.247-0.113-0.33-0.484-0.4-0.79-0.368-0.178-0.01-0.42-0.013-0.275 0.21 0.18 0.505 0.318 1.027 0.55 1.512 0.12 0.284 0.45 0.346 0.726 0.323 0.392-0.027 0.846 0.015 1.153-0.282 0.244-0.234 0.04-0.585 0.094-0.853 0.25-0.2 0.526 0.068 0.5 0.342 0.07 0.346 0.16 0.687 0.267 1.022-0.04 0.2-0.29 0.142-0.444 0.168-1.018 0.078-2.037 0.133-3.053 0.228-0.28-0.013-0.684 0.235-0.856-0.087-0.158-0.384 0.457-0.207 0.538-0.502 0.08-0.295-0.098-0.575-0.173-0.854-0.336-0.98-0.654-1.966-1.002-2.94-0.116-0.308-0.327-0.66-0.7-0.664-0.237 0.056-0.59-0.132-0.428-0.402 0.345-0.072 0.71-0.028 1.064-0.07l2.774-0.198zm4.18 4.14c0.09 0.304 0.27 0.638 0.612 0.7 0.25 0.09 0.665-0.073 0.732 0.286-0.012 0.328-0.493 0.15-0.712 0.204a6.28 6.28 0 0 0 -1.523 0.104c-0.218 0.032-0.545 0.108-0.61-0.188-0.053-0.336 0.464-0.147 0.574-0.4 0.08-0.26-0.066-0.516-0.136-0.764-0.337-1.005-0.663-2.014-1.008-3.016-0.115-0.292-0.27-0.674-0.63-0.708-0.232-0.01-0.63-0.03-0.558-0.367 0.175-0.165 0.486-0.052 0.713-0.082 0.73 0.016 1.45-0.192 2.18-0.144 0.75 0.03 1.483 0.508 1.736 1.228 0.165 0.405 0.22 0.917-0.08 1.276-0.386 0.454-1.02 0.547-1.58 0.622-0.21-0.028-0.04 0.19-0.026 0.3 0.105 0.318 0.212 0.634 0.316 0.95zm-0.57-1.72c0.204 0.03 0.46-0.025 0.675-0.083 0.313-0.064 0.478-0.4 0.396-0.696-0.087-0.422-0.227-0.864-0.543-1.174-0.304-0.253-0.746-0.26-1.112-0.163-0.14 0.122 0.002 0.32 0.035 0.47 0.183 0.55 0.365 1.1 0.55 1.647zm6.15 1.43c0.09 0.255 0.17 0.61 0.492 0.652 0.246 0.054 0.66-0.036 0.69 0.32-0.06 0.265-0.44 0.115-0.643 0.155-0.54-0.04-1.075 0.03-1.606 0.112-0.226 0.077-0.55-0.023-0.494-0.313 0.137-0.213 0.65-0.05 0.644-0.415-0.055-0.39-0.218-0.756-0.33-1.133-0.317-0.968-0.63-1.936-0.95-2.902-0.077-0.31-0.43-0.29-0.68-0.27-0.254 0.02-0.62 0.048-0.692 0.35-0.083 0.256 0.04 0.534-0.015 0.78-0.237 0.162-0.467-0.09-0.457-0.33a6.588 6.588 0 0 0 -0.344 -1.002c-0.01-0.24 0.304-0.22 0.48-0.236 1.38-0.082 2.76-0.17 4.14-0.248 0.302-0.055 0.49 0.188 0.483 0.47 0.083 0.336 0.223 0.654 0.345 0.975-0.068 0.283-0.486 0.13-0.502-0.12-0.174-0.352-0.445-0.732-0.874-0.76-0.28-0.006-0.626-0.058-0.86 0.123-0.053 0.206 0.078 0.403 0.125 0.6 0.35 1.063 0.696 2.127 1.045 3.19zm2.1-3.29c-0.105-0.305-0.22-0.693-0.57-0.79-0.237-0.06-0.65 0.01-0.627-0.355 0.096-0.212 0.417-0.08 0.608-0.12 0.6 0.027 1.194-0.06 1.788-0.118 0.267-0.12 0.48 0.42 0.152 0.42-0.255 0-0.545 0.19-0.442 0.475 0.132 0.53 0.325 1.045 0.486 1.568 0.24 0.733 0.467 1.47 0.717 2.2 0.068 0.23 0.25 0.432 0.5 0.44 0.24 0.002 0.663 0.035 0.588 0.38-0.18 0.156-0.48 0.058-0.71 0.08-0.537-0.044-1.07 0.048-1.603 0.114-0.232 0.1-0.536-0.14-0.392-0.378 0.206-0.097 0.647-0.043 0.617-0.384-0.078-0.41-0.237-0.8-0.357-1.2l-0.753-2.332zm5.76-1.6c0.317-0.057 0.333 0.305 0.404 0.517 0.078 0.277 0.202 0.54 0.28 0.815-0.146 0.284-0.495 0.018-0.534-0.22-0.133-0.262-0.33-0.575-0.666-0.56a9.663 9.663 0 0 0 -1.232 0.052c-0.23 0.094-0.015 0.388 0.013 0.568 0.15 0.452 0.28 0.912 0.443 1.358 0.268-0.01 0.578 0.002 0.806-0.163 0.2-0.196-0.18-0.607 0.154-0.69 0.376-0.04 0.337 0.446 0.424 0.69 0.086 0.45 0.32 0.85 0.443 1.29-0.115 0.288-0.527 0.04-0.528-0.215-0.095-0.32-0.43-0.452-0.74-0.422-0.145 0.017-0.502-0.075-0.357 0.17 0.175 0.516 0.306 1.05 0.532 1.547 0.118 0.286 0.448 0.353 0.725 0.334 0.394-0.02 0.85 0.034 1.164-0.257 0.25-0.227 0.054-0.58 0.113-0.847 0.253-0.192 0.526 0.075 0.495 0.35 0.062 0.345 0.148 0.686 0.248 1.02-0.04 0.195-0.28 0.14-0.43 0.16-1.03 0.06-2.063 0.095-3.092 0.17-0.275-0.017-0.644 0.204-0.838-0.065-0.218-0.387 0.38-0.25 0.507-0.485 0.134-0.266-0.042-0.547-0.108-0.81-0.32-0.995-0.63-1.994-0.96-2.986-0.11-0.323-0.315-0.704-0.704-0.715-0.237 0.052-0.59-0.14-0.423-0.408 0.343-0.064 0.704-0.016 1.054-0.05 0.937-0.048 1.876-0.098 2.81-0.147zm2 0.96c-0.066-0.358-0.34-0.677-0.734-0.622-0.374 0.097-0.5-0.57-0.033-0.43 0.508 0.003 1.03-0.078 1.53 0.036 0.242 0.263 0.438 0.576 0.662 0.86l2.17 2.903c-0.16 0.035-0.036-0.186-0.053-0.3l0.355-3.543c0.273-0.226 0.73-0.13 1.077-0.202 0.282-0.042 0.925-0.136 0.745 0.35-0.338 0.054-0.77 0.22-0.537 0.645 0.36 1.197 0.738 2.388 1.115 3.58 0.068 0.418 0.49 0.545 0.857 0.527 0.317 0.017 0.333 0.562-0.048 0.43-0.593-0.013-1.19-0.05-1.78 0.064-0.264 0.09-0.82 0.06-0.64-0.355 0.298-0.054 0.795-0.143 0.587-0.573-0.317-1.06-0.657-2.113-0.984-3.17 0.07 0.095-0.01 0.255-0.004 0.377-0.096 0.99-0.228 1.976-0.292 2.968-0.04 0.26 0.05 0.574-0.074 0.798-0.235 0.116-0.385-0.113-0.503-0.276l-2.856-3.698c0.098-0.036 0.086 0.21 0.14 0.29 0.307 0.96 0.59 1.928 0.912 2.882 0.1 0.388 0.494 0.5 0.848 0.505 0.378 0.193 0.098 0.547-0.232 0.403-0.5-0.072-0.998 0.028-1.493 0.084-0.314-0.01-0.33-0.513 0.03-0.447 0.468 0.004 0.325-0.523 0.216-0.8-0.34-1.092-0.68-2.184-1.022-3.275a3.35 3.35 0 0 1 0.042 -0.012zm8.74 0.85c0.06 0.225 0.364 0.074 0.526 0.097 0.286-0.016 0.62-0.175 0.636-0.498 0.01-0.437-0.157-0.906-0.5-1.19-0.33-0.252-0.77-0.23-1.16-0.19-0.042 0.144 0.062 0.3 0.092 0.45l0.406 1.33zm0.487 1.598c0.125 0.348 0.193 0.743 0.45 1.023 0.238 0.18 0.568 0.105 0.843 0.088 0.257-0.02 0.487-0.23 0.46-0.5-0.03-0.596-0.315-1.26-0.906-1.493-0.34-0.125-0.713-0.127-1.07-0.09-0.11 0.096 0.04 0.288 0.055 0.42 0.055 0.185 0.11 0.37 0.167 0.553zm-1.773-2.402c-0.117-0.345-0.224-0.77-0.586-0.934-0.233-0.088-0.642 0.018-0.663-0.338 0.083-0.29 0.544-0.08 0.774-0.138 0.886 0.01 1.794-0.224 2.66 0.063 0.693 0.184 1.284 0.818 1.28 1.557-0.004 0.408-0.334 0.716-0.687 0.865-0.024-0.134 0.36 0.07 0.5 0.095 0.528 0.19 1.018 0.557 1.224 1.094 0.178 0.415 0.28 0.954-0.037 1.33-0.362 0.4-0.95 0.43-1.454 0.443-0.79 0.003-1.586-0.018-2.368 0.114-0.284 0.036-0.396-0.502-0.04-0.447 0.36 0 0.46-0.38 0.324-0.656l-0.928-3.048zm5-0.18c-0.114-0.346-0.218-0.77-0.578-0.937-0.238-0.09-0.687 0.012-0.665-0.37 0.193-0.256 0.656-0.04 0.954-0.104 0.68 0.004 1.358-0.13 2.035-0.046 0.79 0.093 1.55 0.646 1.74 1.44 0.144 0.422 0.05 0.955-0.358 1.192-0.087 0.096-0.52 0.198-0.444 0.19 0.604 0.24 1.12 0.69 1.412 1.273 0.16 0.26 0.24 0.58 0.466 0.796 0.267 0.198 0.298-0.164 0.343-0.327 0.35-0.175 0.528 0.316 0.386 0.58-0.148 0.42-0.68 0.504-1.06 0.404-0.344-0.077-0.604-0.34-0.758-0.645-0.34-0.538-0.554-1.17-1.03-1.612-0.224-0.196-0.566-0.31-0.85-0.197-0.074 0.136 0.04 0.29 0.062 0.43 0.127 0.392 0.208 0.8 0.386 1.173 0.158 0.327 0.543 0.408 0.873 0.41 0.322-0.008 0.345 0.56-0.032 0.428-0.61-0.002-1.223-0.075-1.83 0.034-0.22-0.005-0.53 0.136-0.673-0.1-0.214-0.42 0.418-0.228 0.558-0.468 0.09-0.28-0.065-0.56-0.13-0.832-0.268-0.904-0.537-1.814-0.805-2.714zm1.313 0.917c0.098 0.327 0.555 0.15 0.805 0.145 0.29-0.03 0.46-0.326 0.398-0.6-0.075-0.447-0.192-0.942-0.548-1.254-0.306-0.225-0.72-0.224-1.08-0.162-0.153 0.128-0.012 0.34 0.02 0.503l0.405 1.367zm6.89-2.54c0.312-0.05 0.326 0.298 0.384 0.51 0.07 0.282 0.188 0.55 0.257 0.833-0.134 0.258-0.487 0.03-0.513-0.205-0.13-0.26-0.292-0.59-0.625-0.605a9.508 9.508 0 0 0 -1.286 0.005c-0.234 0.083-0.03 0.383-0.008 0.562 0.135 0.453 0.25 0.913 0.397 1.36 0.26 0 0.54 0.01 0.78-0.103 0.28-0.16-0.112-0.59 0.186-0.702 0.374-0.082 0.37 0.394 0.427 0.64 0.068 0.466 0.295 0.887 0.41 1.34-0.125 0.282-0.53 0.028-0.525-0.228-0.08-0.296-0.373-0.453-0.667-0.44-0.14 0.027-0.556-0.12-0.435 0.136 0.16 0.523 0.274 1.063 0.487 1.568 0.11 0.29 0.44 0.364 0.718 0.356 0.398-0.007 0.855 0.062 1.183-0.217 0.26-0.215 0.074-0.575 0.144-0.836 0.258-0.18 0.527 0.087 0.486 0.363 0.05 0.344 0.126 0.684 0.214 1.02-0.053 0.194-0.296 0.127-0.45 0.143-1.037 0.024-2.076 0.026-3.114 0.066-0.268-0.024-0.607 0.16-0.818-0.056-0.263-0.378 0.298-0.304 0.473-0.467 0.19-0.22 0.033-0.512-0.024-0.757-0.297-1.023-0.58-2.05-0.885-3.072-0.1-0.31-0.272-0.68-0.637-0.722-0.237 0.01-0.61-0.094-0.485-0.405 0.3-0.105 0.656-0.003 0.977-0.035 0.983-0.017 1.97-0.037 2.95-0.053zm-32.82 13.13c-0.093-0.368-0.217-0.85-0.644-0.95-0.237 0.007-0.644-0.06-0.5-0.392 0.307-0.124 0.674-0.028 1.003-0.076 0.818-0.042 1.652-0.245 2.464-0.027 1.192 0.273 2.23 1.187 2.582 2.37 0.226 0.73 0.26 1.6-0.23 2.236-0.52 0.667-1.41 0.853-2.213 0.863-0.617-0.006-1.237-0.01-1.845 0.113-0.236 0.143-0.63-0.092-0.422-0.354 0.258-0.075 0.67-0.15 0.59-0.518-0.093-0.514-0.24-1.017-0.36-1.526-0.14-0.58-0.284-1.162-0.426-1.738zm1.64 2.44c0.1 0.323 0.138 0.71 0.406 0.944 0.275 0.16 0.616 0.097 0.918 0.07 0.47-0.062 0.815-0.477 0.89-0.93 0.14-0.758-0.08-1.535-0.38-2.23-0.26-0.6-0.8-1.08-1.447-1.213-0.377-0.076-0.778-0.113-1.157-0.038-0.085 0.116 0.022 0.273 0.036 0.403l0.735 2.994zm7.06-4.43c0.318-0.06 0.31 0.304 0.362 0.514 0.056 0.276 0.16 0.54 0.214 0.815-0.128 0.26-0.487 0.06-0.5-0.186-0.114-0.255-0.27-0.584-0.594-0.586a9.25 9.25 0 0 0 -1.277 0.06c-0.234 0.085-0.05 0.384-0.032 0.567 0.114 0.452 0.208 0.91 0.335 1.36 0.274-0.017 0.585-0.007 0.818-0.172 0.214-0.188-0.13-0.617 0.208-0.692 0.377-0.045 0.303 0.448 0.368 0.688 0.05 0.445 0.252 0.852 0.34 1.288-0.12 0.284-0.53 0.058-0.51-0.21-0.07-0.323-0.402-0.452-0.703-0.417-0.147 0.02-0.497-0.075-0.374 0.172 0.134 0.516 0.222 1.047 0.41 1.547 0.097 0.29 0.43 0.35 0.697 0.328 0.417-0.02 0.905 0.022 1.22-0.306 0.245-0.225 0.018-0.602 0.17-0.833 0.292-0.168 0.485 0.14 0.444 0.407 0.033 0.33 0.093 0.658 0.162 0.98-0.06 0.2-0.307 0.142-0.467 0.166-1.026 0.067-2.052 0.112-3.077 0.195-0.256-0.01-0.55 0.154-0.78 0.012-0.258-0.27 0.095-0.41 0.325-0.44 0.29-0.095 0.26-0.443 0.188-0.677-0.263-1.08-0.512-2.162-0.784-3.24-0.083-0.3-0.24-0.676-0.6-0.7-0.236 0.027-0.603-0.083-0.462-0.39 0.296-0.12 0.652-0.03 0.97-0.075 0.976-0.06 1.954-0.117 2.928-0.178zm6.49 4.1c0.045 0.31 0.285 0.57 0.596 0.62 0.237 0.1 0.605-0.037 0.733 0.244 0.092 0.35-0.39 0.235-0.59 0.25-0.574-0.01-1.15-0.02-1.718 0.067-0.285 0.02-0.573 0.097-0.858 0.066-0.277-0.117-0.15-0.502 0.147-0.444 0.27-0.06 0.63-0.13 0.707-0.44 0.033-0.27-0.08-0.528-0.125-0.79-0.216-0.92-0.422-1.844-0.643-2.763-0.032-0.327-0.39-0.336-0.636-0.296-0.23 0.01-0.587 0.163-0.66-0.162-0.036-0.34 0.465-0.27 0.67-0.407 0.37-0.127 0.732-0.272 1.107-0.38 0.213-0.047 0.302 0.15 0.32 0.32l0.95 4.115zm3.69-3.32c-0.073-0.363-0.28-0.786-0.69-0.84-0.29-0.055-0.67 0.03-0.776 0.344a0.924 0.924 0 0 0 0.37 1.022c0.27 0.198 0.59 0.312 0.893 0.454 0.06-0.12 0.247-0.35 0.237-0.56a1.446 1.446 0 0 0 -0.034 -0.42zm0.836 2.893c-0.102-0.487-0.57-0.77-0.996-0.948-0.185-0.032-0.445-0.278-0.558-0.177-0.31 0.268-0.457 0.714-0.32 1.107 0.113 0.483 0.48 0.96 1.005 1 0.348 0.047 0.76-0.11 0.863-0.473a0.958 0.958 0 0 0 0.006 -0.51zm0.89-0.208c0.136 0.48-0.06 1.02-0.47 1.3-0.582 0.4-1.356 0.428-2.017 0.23-0.588-0.17-1.082-0.662-1.186-1.275-0.122-0.488 0.08-1.045 0.513-1.31 0.1-0.1 0.488-0.14 0.175-0.216-0.498-0.245-0.99-0.646-1.092-1.223-0.12-0.486 0.106-1.034 0.552-1.274 0.858-0.468 2.087-0.192 2.583 0.676 0.218 0.368 0.26 0.86 0 1.22-0.14 0.194-0.322 0.39-0.565 0.443 0.486 0.1 0.928 0.398 1.223 0.794 0.14 0.187 0.233 0.406 0.283 0.634zm3.26 0.56c0.243 0.01 0.504-0.135 0.54-0.393 0.086-0.196-0.083-0.615 0.256-0.59 0.308 0.018 0.277 0.377 0.31 0.6 0.025 0.398-0.003 0.873-0.345 1.138-0.248 0.158-0.557 0.092-0.835 0.096-0.562-0.018-1.123-0.136-1.685-0.072-0.236 0.024-0.495 0.287-0.717 0.098-0.192-0.223-0.077-0.52-0.005-0.764 0.194-0.615 0.624-1.117 1.1-1.538 0.334-0.313 0.71-0.652 0.76-1.136 0.04-0.412-0.078-0.836-0.293-1.187-0.283-0.45-0.95-0.607-1.398-0.32-0.232 0.15-0.414 0.495-0.228 0.745 0.21 0.163 0.6 0.018 0.7 0.354 0.13 0.233-0.004 0.598-0.3 0.595-0.44 0.068-0.838-0.278-0.952-0.686-0.18-0.51 0.02-1.13 0.495-1.406 0.5-0.313 1.134-0.305 1.69-0.17 0.565 0.14 1.042 0.58 1.214 1.138 0.154 0.432 0.16 0.933-0.08 1.336-0.377 0.717-1.15 1.074-1.66 1.677-0.14 0.156-0.243 0.37-0.184 0.585 0.076-0.203 0.397-0.132 0.582-0.167 0.347-0.014 0.69 0.076 1.035 0.067zm3.94-0.42c0.038 0.31 0.274 0.576 0.584 0.632 0.228 0.1 0.567-0.016 0.715 0.225 0.143 0.345-0.334 0.284-0.537 0.27-0.59-0.02-1.184-0.05-1.773 0.027-0.287 0.013-0.577 0.082-0.863 0.045-0.28-0.13-0.13-0.497 0.158-0.44 0.27-0.052 0.634-0.113 0.72-0.422 0.038-0.265-0.067-0.524-0.108-0.784-0.195-0.923-0.38-1.848-0.58-2.77-0.02-0.284-0.316-0.346-0.547-0.312-0.236-0.026-0.563 0.165-0.714-0.093-0.173-0.353 0.345-0.346 0.552-0.44 0.408-0.124 0.81-0.276 1.222-0.383 0.21-0.044 0.298 0.155 0.312 0.325 0.286 1.373 0.57 2.746 0.858 4.118z"/>
</g>
</g>
<g stroke="#34541f" stroke-width=".218" fill="#448127">
<path stroke="#4c0505" d="m475.8 219.41l-3.77 4.483c-1.2 5.24 1.78 9.187 7.648 12.614 4.753 2.95 13.55 3.69 16.327 1.31l-13.714-13.07-6.49-5.337z" fill="url(#m)"/>
<path d="m503.58 354.27c-0.672-0.81-1.352-1.617-2.035-2.424-8.558 11.298-19.248 21.43-32.617 28.575 15.077-4.268 24.945-15.256 34.652-26.15zm-15.44 35.71c5.316-10.772 11.73-21.544 18.203-32.317a274.31 274.31 0 0 0 -2.144 -2.636c-7.353 12.186-15.98 26.68-16.06 34.952zm41.73-114.5c-0.985-4.247-2.27-8.838-4.31-13.055-2.656-5.43-6.622-10.83-11.83-16.804-9.384-10.172-18.772-19.996-31.927-27.25l0.07-0.137 0.076 0.045h0.163l-0.16-0.2h0.47l-0.255-0.255h0.437l-0.352-0.4h0.46l-0.328-0.328h0.493l-0.273-0.364 0.397 0.03-0.372-0.386 0.548-0.11-0.444-0.278 0.48-0.092-0.403-0.276 0.587-0.187-0.516-0.305 0.653-0.288-0.632-0.456 0.67-0.228-0.726-0.295 0.612-0.322-0.72-0.13 0.488-0.566-0.702 0.036 0.32-0.597-0.668 0.055c-0.015-0.02-0.028-0.04-0.044-0.058l0.366-0.45-0.675 0.12 0.297-0.61-0.65 0.324 0.186-0.706-0.628 0.433 0.096-0.72-0.578 0.497 0.06-0.688-0.51 0.534 0.046-0.725-0.503 0.61-0.05-0.712-0.403 0.56-0.205-0.677-0.335 0.677-0.17-0.717-0.317 0.717-0.155-0.717-0.273 0.717-0.206-0.677-0.214 0.677-0.16-0.595-0.24 0.716-0.223-0.675-0.24 0.77-0.293-0.69-0.126 0.824-0.352-0.673-0.04 0.795-0.383-0.603-0.026 0.788-0.408-0.568 0.032 0.69-0.434-0.364 0.213 0.744-0.525-0.306 0.197 0.65-0.433-0.24 0.154 0.63-0.392-0.125 0.206 0.47-0.03 0.065-0.304-0.056 0.175 0.365c-0.383 1.04-0.413 2.28-0.35 3.515 0.01 0.23 0.593 0.464 0.685 0.607 0.276 0.43 0.226 0.66 0.226 0.66-1.592 2.58-3.015 4.574-3.175 7.532 1.28-1.62 2.604-3.6 4.462-3.6-0.92 1.536-1.357 6.17-0.324 6.876l0.77-1.352c0.03 1.075 0.18 1.792 0.39 2.322 0.323-0.65 0.642-1.27 0.963-1.742 0.075 1.506 0.268 2.715 0.705 3.312 0.43-0.74 1.008-1.19 1.618-1.57-0.21 0.86-0.52 1.672-0.39 2.703 0.645-1.102 1.29-1.753 1.933-2.513-0.373 1.586-0.034 2.77 0.417 4.522 0.4-2.077 0.557-2.297 1.516-3.17 0.105 1.902-0.26 3.63 0.142 4.693 0.874-1.675 1.46-1.436 1.982-2.52-0.102 1.58-0.42 3.292-0.014 4.702 0.337-1.413 1.244-2.17 1.945-2.67 0.057 2.198 0.565 1.836-0.802 3.7 0.58 0.266 2.54-0.376 3.605-0.832-0.514 1.178-0.363 2.102-0.878 2.936 1.08-0.544 2-1.422 2.9-2.323-0.416 1.352-1.524 2.704-0.968 4.056 0.25-1.263 1.273-2.303 2.242-2.493-0.15 0.708-0.252 2.174-1.273 2.883 2.444 0.25 3.408-1.398 4.638-2.704-0.16 1.357-0.114 2.442 1.552 4.354-0.336-2.43 0.242-1.93 1.343-3.392 0.532 2.148 1.143 4.43 3.382 6.014-0.928-2.267-1.1-3.435-0.573-4.862 0.288 1.473 1.684 3.25 2.02 4.644 0.206-1.547 0.44-3.045 0.96-4.055 0.653 1.756 1.2 3.57 1.353 5.598 0.488-1.01 0.885-2.034 1.16-3.085 19.737 20.623 24.138 46.84 2.514 74.54 7.77-5.248 9.775-13.568 14.092-20.66-4.214 9.287-6.092 19.736-13.513 27.42 7.187-6.202 8.71-11.885 13.033-17.862-4.607 12.5-10.982 26.2-19.82 38.742 1.57 1.707 3.14 3.44 4.717 5.19 1.372-2.284 2.743-4.565 4.097-6.85 9.37-15.435 24.658-37.5 16.913-71.146z"/>
</g>
<path stroke="#a08307" stroke-width=".218" d="m473.16 215.29c-0.997 0.226-1.392 0.642-2.11 1.443 0.916 0.2 1.69 0.246 2.52 0.264 0.257-0.022 0.344-0.348 0.287-0.585l-0.128-0.955c-0.024-0.217-0.602-0.2-0.875-0.086l0.305-0.08z" fill="#eac102"/>
<path d="m471.04 216.73a9.89 9.89 0 0 1 1.053 -0.298c0.356-0.08 0.713-0.15 1.078-0.19a9.82 9.82 0 0 1 -1.052 0.297 9.94 9.94 0 0 1 -1.078 0.19z" fill="#a08307"/>
<ellipse rx=".775" ry=".811" stroke="#000" cy="215.42" cx="477.68" stroke-width=".098"/>
<ellipse cy="215.26" cx="477.86" rx=".337" ry=".353" fill="url(#n)"/>
<g fill="#34541f">
<path d="m488.18 389.69a83.377 83.377 0 0 1 1.528 -4.44 96.152 96.152 0 0 1 1.783 -4.346c1.26-2.87 2.664-5.672 4.136-8.435a199.58 199.58 0 0 1 4.663 -8.155 354.41 354.41 0 0 1 2.453 -4.003l2.51-3.968-2.42 4.024c-0.806 1.34-1.61 2.684-2.4 4.033-1.584 2.7-3.144 5.413-4.615 8.172a133.67 133.67 0 0 0 -4.174 8.4 98.092 98.092 0 0 0 -1.836 4.316 82.656 82.656 0 0 0 -1.628 4.402zm-18.84-9.46a75.798 75.798 0 0 0 4.88 -2.375c1.6-0.843 3.17-1.743 4.703-2.704a72.04 72.04 0 0 0 8.733 -6.416c2.755-2.342 5.328-4.894 7.762-7.57 1.22-1.336 2.4-2.707 3.555-4.1 1.16-1.39 2.29-2.805 3.4-4.235a153.75 153.75 0 0 1 -3.317 4.3 111.9 111.9 0 0 1 -3.513 4.147 81.9 81.9 0 0 1 -7.745 7.624 69.946 69.946 0 0 1 -8.786 6.393 71.284 71.284 0 0 1 -4.742 2.657 76.913 76.913 0 0 1 -4.93 2.28zm37.28-29.34c0.77-1.074 1.486-2.186 2.202-3.296 0.715-1.11 1.415-2.232 2.098-3.362 1.368-2.26 2.69-4.55 3.96-6.866 1.284-2.31 2.52-4.646 3.75-6.985l3.677-7.026-1.745 3.562-1.783 3.542a255.98 255.98 0 0 1 -3.71 7.013c-1.287 2.312-2.608 4.604-4.008 6.85-1.405 2.24-2.852 4.457-4.442 6.57zm5.89-25.11a58.374 58.374 0 0 0 4.692 -6.42 60.202 60.202 0 0 0 3.81 -6.974c2.235-4.81 3.84-9.894 4.975-15.07 0.144-0.647 0.283-1.295 0.414-1.944a61.004 61.004 0 0 0 0.694 -5.915c0.18-2.644 0.18-5.3-0.03-7.942a50.632 50.632 0 0 0 -1.24 -7.846 53.36 53.36 0 0 0 -2.402 -7.58 53.484 53.484 0 0 1 2.507 7.554 50.47 50.47 0 0 1 1.28 7.858c0.22 2.65 0.235 5.314 0.066 7.966a61.252 61.252 0 0 1 -0.67 5.944 90.31 90.31 0 0 1 -0.406 1.95c-1.16 5.184-2.794 10.274-5.056 15.084a59.876 59.876 0 0 1 -3.853 6.97 58.223 58.223 0 0 1 -4.78 6.364z"/>
<path d="m510.87 320.07c1.843-1.762 3.47-3.74 4.898-5.85 1.436-2.103 2.682-4.332 3.795-6.623 1.114-2.29 2.098-4.642 3.027-7.015 0.464-1.186 0.915-2.378 1.36-3.572l0.334-0.896c0.106-0.296 0.202-0.6 0.294-0.904 0.186-0.61 0.355-1.224 0.578-1.83l-0.005 0.017c0.507-2.524 0.78-5.095 0.81-7.67a45.833 45.833 0 0 0 -0.57 -7.698c-0.4-2.547-0.996-5.06-1.732-7.532a80.218 80.218 0 0 0 -2.553 -7.304 80.346 80.346 0 0 1 2.656 7.273c0.752 2.47 1.36 4.988 1.773 7.54 0.414 2.55 0.63 5.136 0.61 7.722a41.437 41.437 0 0 1 -0.78 7.71l-0.002 0.008-0.002 0.01c-0.22 0.59-0.393 1.204-0.582 1.813-0.095 0.306-0.19 0.61-0.302 0.915l-0.338 0.895c-0.45 1.193-0.907 2.383-1.38 3.57-0.94 2.37-1.937 4.72-3.065 7.012-1.126 2.29-2.383 4.52-3.837 6.62-1.46 2.093-3.116 4.05-4.984 5.788z"/>
<path d="m505.05 349.23c1.202-1.66 2.39-3.327 3.573-4.998l1.778-2.507c0.59-0.838 1.208-1.654 1.734-2.53 1.068-1.746 1.99-3.576 2.898-5.41 0.9-1.84 1.82-3.67 2.71-5.515 1.78-3.686 3.504-7.405 4.966-11.228a75.285 75.285 0 0 0 3.45 -11.763c0.848-4.004 1.417-8.063 1.886-12.13 0.426-4.065 0.47-8.18 0.038-12.248a52.36 52.36 0 0 0 -2.725 -11.94c-1.35-3.863-3.116-7.576-5.098-11.16 2.013 3.566 3.81 7.264 5.197 11.125a52.395 52.395 0 0 1 2.77 11.96c0.446 4.078 0.414 8.202 0 12.283-0.46 4.072-1.016 8.138-1.854 12.153a75.517 75.517 0 0 1 -3.495 11.784c-1.477 3.827-3.213 7.543-5.006 11.226-0.897 1.843-1.82 3.67-2.727 5.507-0.914 1.833-1.84 3.664-2.92 5.41-0.536 0.877-1.163 1.69-1.76 2.522l-1.797 2.49c-1.2 1.66-2.4 3.32-3.618 4.97z"/>
<path d="m507.81 352.25c2.362-3.835 4.71-7.68 6.954-11.583 2.25-3.9 4.483-7.814 6.465-11.856 1.985-4.037 3.7-8.213 4.996-12.522 0.65-2.153 1.2-4.336 1.653-6.54a59.28 59.28 0 0 0 0.592 -3.32c0.17-1.11 0.33-2.225 0.472-3.34 0.582-4.463 0.928-8.958 0.922-13.458-0.005-4.498-0.365-9-1.198-13.424-0.83-4.42-2.14-8.756-3.977-12.865a54.004 54.004 0 0 0 -6.956 -11.532 54.076 54.076 0 0 1 7.055 11.49c1.852 4.11 3.177 8.453 4.02 12.882 0.847 4.43 1.22 8.943 1.24 13.45 0.017 4.51-0.317 9.015-0.89 13.486a133.98 133.98 0 0 1 -0.48 3.346 58.79 58.79 0 0 1 -0.605 3.328 74.245 74.245 0 0 1 -1.674 6.55c-1.31 4.316-3.04 8.496-5.04 12.534-1.997 4.042-4.24 7.953-6.503 11.846-2.276 3.89-4.655 7.714-7.047 11.53zm-27.81-131.48c0.474-0.012 0.95 0.04 1.418 0.113 0.47 0.073 0.934 0.174 1.394 0.294 0.92 0.245 1.815 0.572 2.687 0.954 1.742 0.768 3.37 1.775 4.9 2.903a35.81 35.81 0 0 1 4.255 3.786 45.252 45.252 0 0 1 1.904 2.116c0.606 0.73 1.197 1.472 1.757 2.236a60.86 60.86 0 0 0 -1.84 -2.166c-0.626-0.71-1.273-1.4-1.942-2.07-1.335-1.34-2.747-2.604-4.266-3.728a26.78 26.78 0 0 0 -4.84 -2.925c-0.856-0.397-1.74-0.74-2.646-1.004-0.906-0.267-1.836-0.473-2.784-0.51z"/>
</g>
<g fill="#448127">
<path d="m496.38 231.57s3.06 1.798 4.725 4.439-4.717-0.884-8.07-4.653"/>
<path d="m496.38 231.57c0.48 0.26 0.933 0.566 1.38 0.88 0.44 0.322 0.87 0.663 1.28 1.025 0.412 0.36 0.796 0.753 1.16 1.163 0.363 0.412 0.704 0.846 0.997 1.313l0.136 0.218-0.248-0.053a14.54 14.54 0 0 1 -2.272 -0.712 15.702 15.702 0 0 1 -2.138 -1.038c-1.37-0.795-2.623-1.8-3.64-3.008a15.17 15.17 0 0 0 3.72 2.866 18.27 18.27 0 0 0 2.13 0.997 14.4 14.4 0 0 0 2.24 0.683l-0.11 0.163c-0.29-0.454-0.612-0.887-0.966-1.296-0.35-0.41-0.735-0.794-1.126-1.168a17.708 17.708 0 0 0 -1.23 -1.064 18.56 18.56 0 0 0 -1.314 -0.968z" fill="#34541f"/>
<path d="m489.58 230.69s7.226 4.61 8.273 4.978-1.608-3.478-5.05-4.972"/>
<path d="m489.58 230.69l4.14 2.488c0.687 0.42 1.376 0.835 2.07 1.243 0.346 0.204 0.694 0.406 1.044 0.602 0.347 0.194 0.702 0.405 1.053 0.55l-0.128 0.14a10.67 10.67 0 0 0 -0.925 -1.526c-0.35-0.484-0.728-0.95-1.142-1.38a10.732 10.732 0 0 0 -1.347 -1.184c-0.48-0.36-1-0.666-1.542-0.926 0.56 0.222 1.094 0.512 1.596 0.85 0.503 0.337 0.967 0.73 1.4 1.154 0.432 0.425 0.832 0.883 1.19 1.374 0.356 0.49 0.683 1 0.957 1.55l0.124 0.25-0.25-0.108c-0.77-0.33-1.438-0.757-2.137-1.167-0.69-0.416-1.376-0.84-2.06-1.265a151.55 151.55 0 0 1 -4.043 -2.645z" fill="#34541f"/>
<path d="m492.46 228.36s3.76 1.6 4.61 4.38-6.752-2.842-7.96-4.35"/>
<path d="m492.46 228.36a10.668 10.668 0 0 1 2.805 1.682 7.17 7.17 0 0 1 1.14 1.194c0.33 0.443 0.607 0.935 0.77 1.47l0.066 0.224-0.21-0.09c-0.7-0.302-1.394-0.615-2.083-0.936a49.78 49.78 0 0 1 -2.05 -1.003 33.948 33.948 0 0 1 -1.994 -1.11c-0.324-0.2-0.643-0.41-0.95-0.634-0.305-0.227-0.61-0.465-0.844-0.766 0.25 0.286 0.564 0.506 0.875 0.72 0.315 0.21 0.64 0.405 0.97 0.59 0.66 0.375 1.334 0.722 2.016 1.055a84.15 84.15 0 0 0 4.143 1.885l-0.145 0.13a4.833 4.833 0 0 0 -0.725 -1.415 7.8 7.8 0 0 0 -1.09 -1.184c-0.402-0.36-0.834-0.688-1.287-0.986-0.45-0.305-0.92-0.58-1.406-0.824z" fill="#34541f"/>
<path d="m486.76 231.25s6.646 4.758 8.613 4.758-1.948-3.258-5.388-4.752"/>
<path d="m486.76 231.25c0.688 0.456 1.38 0.908 2.076 1.35 0.695 0.445 1.396 0.88 2.106 1.298 0.707 0.423 1.423 0.833 2.157 1.2 0.366 0.185 0.738 0.36 1.118 0.507 0.376 0.145 0.77 0.288 1.154 0.3l-0.09 0.156c-0.312-0.505-0.68-0.99-1.07-1.45-0.39-0.456-0.804-0.898-1.247-1.308-0.44-0.41-0.915-0.788-1.41-1.135a10.974 10.974 0 0 0 -1.57 -0.91c1.13 0.45 2.166 1.128 3.08 1.933 0.46 0.403 0.895 0.834 1.292 1.298 0.4 0.463 0.773 0.944 1.104 1.467l0.104 0.16-0.19-0.004c-0.447-0.01-0.845-0.157-1.236-0.303a13.663 13.663 0 0 1 -1.133 -0.523 33.267 33.267 0 0 1 -2.158 -1.23 63.89 63.89 0 0 1 -2.075 -1.357c-0.68-0.47-1.354-0.948-2.012-1.447z" fill="#34541f"/>
<path d="m486.76 232.74s3.46 2.92 5.427 2.92-1.948-3.258-5.388-4.752"/>
<path d="m486.76 232.74c0.418 0.312 0.84 0.615 1.272 0.905 0.428 0.293 0.866 0.573 1.315 0.83 0.445 0.265 0.902 0.51 1.376 0.71 0.236 0.1 0.478 0.186 0.723 0.25 0.244 0.07 0.494 0.12 0.74 0.12l-0.088 0.158a12.4 12.4 0 0 0 -1.07 -1.45c-0.393-0.458-0.805-0.9-1.248-1.31-0.442-0.41-0.915-0.787-1.41-1.134a11.007 11.007 0 0 0 -1.57 -0.912c1.13 0.45 2.165 1.13 3.08 1.934 0.46 0.402 0.894 0.834 1.292 1.297 0.4 0.463 0.773 0.944 1.104 1.466l0.1 0.158h-0.19c-0.55-0.002-1.062-0.18-1.544-0.39a11.45 11.45 0 0 1 -1.39 -0.74c-0.442-0.28-0.87-0.58-1.287-0.895a17.6 17.6 0 0 1 -1.205 -1z" fill="#34541f"/>
<path d="m485.03 226.18s7.207 5.117 8.06 7.896-6.523-2.994-7.732-4.502"/>
<path d="m485.03 226.18a51.627 51.627 0 0 1 2.304 1.68 51.03 51.03 0 0 1 2.205 1.808 25.733 25.733 0 0 1 2.053 1.988c0.322 0.352 0.63 0.718 0.912 1.11 0.276 0.39 0.54 0.803 0.687 1.28l0.072 0.23-0.22-0.102c-0.68-0.318-1.353-0.648-2.022-0.985a50.288 50.288 0 0 1 -1.99 -1.05 34.833 34.833 0 0 1 -1.934 -1.15c-0.313-0.207-0.622-0.42-0.92-0.65-0.296-0.23-0.59-0.47-0.82-0.767 0.247 0.282 0.55 0.505 0.853 0.723 0.306 0.214 0.623 0.413 0.943 0.605 0.64 0.387 1.295 0.748 1.957 1.095a87.25 87.25 0 0 0 4.023 1.983l-0.148 0.13c-0.14-0.433-0.384-0.84-0.653-1.22a12.21 12.21 0 0 0 -0.888 -1.098c-0.632-0.703-1.32-1.354-2.02-1.994a51.15 51.15 0 0 0 -2.16 -1.852 71.205 71.205 0 0 0 -2.234 -1.764z" fill="#34541f"/>
</g>
<g stroke="#24420e" stroke-width=".164">
<path d="m445.02 370.33c-4.89 3.644-18.553 5.43-20.448 4.8 9.943-8.27 19.725-8.47 20.448-4.8zm69.76 4.44c5.254 4.768 21.104 8.053 23.475 7.46-10.542-10.77-22.102-11.862-23.475-7.46z" fill="#406325"/>
<path d="m444.98 370.3c-0.72-3.67-10.458-3.45-20.378 4.775 10.446-3.442 19.238-5.405 20.378-4.775zm69.91 4.41c1.37-4.402 12.794-3.338 23.364 7.462-11.884-5.02-21.947-8.1-23.364-7.462z" fill="#67923d"/>
</g>
</g>
</svg>
