<svg xmlns="http://www.w3.org/2000/svg" viewBox="0 0 820 440">
<path fill="#c62139" d="M0 0h820v440H0z"/>
<path fill="#00297b" d="M20 20h780v400H20z"/>
<path d="M410.26 100S330 154.71 330 219.22C330 283.74 410.26 340 410.26 340S490 288.38 490 219.22C490 150.07 410.26 100 410.26 100" fill="#c62139"/>
<path d="M477.92 240.56c1.76-6.86 2.76-13.99 2.76-21.34 0-61.93-70.42-107.86-70.42-107.86s-71.46 47.48-71.46 107.86c0 7.25 1.02 14.32 2.82 21.16l136.3.18" fill="#66afeb"/>
<path d="M409.67 328.13s55.24-36.58 68.23-87.75H341.56c13.19 50.18 68.11 87.75 68.11 87.75" fill="#007bde"/>
<path d="M480.34 226.45c-12.09 8.61-80.09 4.48-80.09 4.48l-3.8 9.63h81.47c.34-1.32.65-2.64.93-3.98l1.49-10.13" fill="#9c8431"/>
<g fill="#fff100">
<path d="M406.08 287.36c-1.04-7.21-32.85-14.94-49.72-14.3 5.26 8.27 11.24 15.83 17.24 22.56 8.58-9.2 32.82-5.89 32.48-8.26"/>
<path d="M470.45 260.55c-4.04.14-11.37.79-16.4 3.41-7.24 3.78-23.47 7.91-30.72 5.84-7.25-2.06-18.64 4.48-17.25 5.85 2.29 2.3 18.98-.34 18.98 14.46 0 12.38-19.33 6.88-26.93 12.04a46.71 46.71 0 0 0-9.58 8.64c11.86 10.98 21.15 17.34 21.15 17.34s22.02-14.59 41.52-38.2l9.17-12.17c3.69-5.42 7.12-11.16 10.06-17.21"/>
</g>
<g fill="#009270">
<path d="M405.86 165.17s-11.01-6.45-26.02-3.36c-15.02 3.09-18.26 12.51-18.26 12.51l5.05-2.32.13 2.06 4.53-2.83.13 2.06 3.89-3.61.63 2.32 3.5-3.1.26 1.68 5.69-3.61v2.32l4.54-2.07-.39 2.2 8.55-1.54s-20.2 6.7-22.78 22.83l3.87-4.64.39 2.19 2.46-4.9.65 1.93 2.2-4.51.64 2.7 3.37-4.9.26 2.84 3.88-5.29v2.57l4.14-4.51-.12 3.36s4.01-3.36 5.29-3.36l-4.78 6.2 1.56.51s-3.37 2.71-3.63 3.23c-.26.51 2.2 0 2.2 0s-2.98 3.09-3.11 4 1.94 0 1.94 0-2.71 3.48-3.1 4.78c-.39 1.29 1.42.25 1.42.25s-1.68 4.13-1.81 5.29c-.13 1.15 1.94-.26 1.94-.26l1.17 7.09 2.07-8.5 1.29 1.93v-6.07l1.17 1.03-.13-3.99 1.55 1.54-.78-4.9 1.68 1.93-.25-4.12 1.67 1.68v-5.42l1.56 1.4.26-3.72 1.81.9s.26-4.52 2.33-4.39c2.07.12 4.66 2.32 3.63 3.34l1.81-.5-.39 4.37 1.68-1.02-.26 3.22 1.42-.64-.51 4.12 1.68-1.01.13 5.01 1.93-1.41-.13 5.93 1.95-1.54v4.9l1.81-1.28 1.95 4.77-.39-7.1 1.42 1.16-2.59-5.03 1.94-.26-2.07-3.36 1.94.14-2.84-3.36 1.93-.38-4.27-3.1 2.33-.9-4.4-2.84 1.68-.65-3.1-3.23 3.24 1.3 1.02-2.07 3.89 3.1v-3.1l3.36 4.65.39-2.85 2.59 3.62.52-1.67 1.81 3.61.9-2.7 1.82 3.87.51-2.72 1.69 4.26 1.55-1.68.78 4.39 1.54-1.68 1.42 3.87 1.82-1.42 1.55 4.39s4.27-23.49-32.36-23.88l-10.87-2.05"/>
<path d="M389.03 144.26l2.07 2.57-1.04.78 3.5 1.94-.78 1.41 3.5 1.29-1.3 1.04 3.11 1.8-2.07.65 3.75 1.8-.51 1.68 3.23.78-1.42 1.15 3.75 2.98 4.27 2.96 2.98-1.03-1.17-5.68s-12.29-16.78-21.87-16.13"/>
<path d="M400.29 128l1.43 3.35-1.95.39 4.41 4.39-3.5.13 4.27 3.34-2.07.66 3.89 3.87-2.08 1.03 4.01 4-2.71 1.02 4.53 4.14-2.59.13 2.71 3.48-2.45.78s2.97 5.54 2.84 7.87l5.05.25s.78-14.97.13-16.9l-1.3.9.39-5.42-1.94 1.17-.38-6.45-1.95 2.06-.51-6.33-1.43 2.2-1.42-6.2-1.55 1.94-1.43-4-1.16 1.55-3.24-3.36"/>
<path d="M413.36 165.68c1.43-9.03 10.88-22.19 28.62-22.71l-4.02 2.06 2.33 1.04-4.66 1.68 2.33 1.41-5.56.39 2.84 1.94-4.14.51-3.24.65 2.33 2.18-4.66.52 2.98 1.55s-7.38 2.58-7.89 3.36c0 0 24.85-6.32 30.94 5.41l-4.8-2.07.39 2.2-3.36-2.45.51 1.81-3.49-1.81.52 2.19-3.63-2.07.78 1.95-4.66-2.2.77 2.07-4.01-1.29.39 2.18-4.01-.25.39 2.58-12.43-.26-1.56-2.58"/>
</g>
<g fill="#7b4800">
<path d="M409.57 173.46l2.59-.17c-1.21 24.61-.08 59.89 3.27 72.95 5.69 22.19 22.29 30.73 26.24 32.86 2.24 1.2 1.38 6.19-3.12 5.85-4.48-.35-20.13-11.88-25.54-32.52-7.24-27.7-3.72-76.08-3.44-78.97"/>
<circle cy="168.13" cx="413.76" r="2.926"/>
<circle cy="167.09" cx="409.09" r="2.739"/>
<circle cy="171.87" cx="409.09" r="2.558"/>
<circle cy="170.58" cx="412.59" r="2.739"/>
</g>
<g fill="#7b4800">
<path d="M384.64 257.16h2.92v-31.48h-2.92v31.48z" fill="#000"/>
<path d="M394.14 263.1s-1.2.21-3.11.45v-2.45h-1.94v2.66c-1.99.21-4.4.37-6.92.37-2.69 0-5.4-.19-7.63-.42v-2.55h-2.14v2.31c-1.85-.24-3.04-.44-3.04-.44s-.59 3.23 12.62 3.23c13.2 0 12.16-3.16 12.16-3.16"/>
<path d="M381.6 257.07c10.71 0 19.69-1.71 19.69-1.71s1.37 6.87-19.69 6.87c-21.05 0-19.33-5.84-19.33-5.84s8.64.68 19.33.68"/>
<path d="M372.63 227.48s16.57 6.2 23.13 27.88c0 0-15.19-3.09-23.82.34h-4.83c0-.01 8.28-12.04 5.52-28.22" fill="#fff"/>
</g>
<path d="M374.97 211.16h-3.07c-.24-1.32-.82-2.25-1.74-2.76-.51-.29-1.08-.43-1.7-.43-1.21 0-2.2.57-2.97 1.75-.78 1.17-1.16 2.94-1.16 5.29 0 2.38.42 4.05 1.25 5.05.84.98 1.79 1.47 2.86 1.47 1.05 0 1.91-.38 2.58-1.17.66-.77 1.07-1.8 1.24-3.07h-3.46v-3.22h6.22v10.35h-2.07l-.31-2.41c-.6.92-1.14 1.57-1.62 1.95-.83.65-1.84.98-3.04.98-1.98 0-3.61-.89-4.86-2.66-1.32-1.78-1.98-4.21-1.98-7.3 0-3.12.67-5.64 2-7.52 1.32-1.88 3.08-2.82 5.28-2.82 1.89 0 3.42.62 4.57 1.87 1.15 1.23 1.81 2.79 1.98 4.65m14.62 5.84v-11.87h3.17V217c0 1.32.13 2.28.37 2.9.38 1.08 1.2 1.62 2.47 1.62 1.26 0 2.08-.54 2.46-1.62.25-.62.36-1.58.36-2.9v-11.87h3.18V217c0 2.04-.25 3.64-.74 4.79-.93 2.08-2.67 3.13-5.27 3.13-2.58 0-4.34-1.04-5.26-3.13-.5-1.14-.74-2.75-.74-4.79m33.53-11.88l-5.34 19.32h3.28l1.03-3.97h5.5l.97 3.97h3.38l-5.32-19.32h-3.5zm1.72 4.41l1.88 7.59h-3.78l1.9-7.59zm26.82 10.77l2.69-15.17h4.49v19.29h-2.91v-13.04c0-.38.01-.91.01-1.58.01-.68.01-1.2.01-1.56l-2.83 16.18h-3.03l-2.8-16.18c0 .36 0 .88.01 1.56 0 .67.01 1.2.01 1.58v13.04h-2.91v-19.29h4.54l2.72 15.17" fill="#c62139"/>
</svg>
