<svg id="guam_flag" xmlns="http://www.w3.org/2000/svg" viewBox="0 0 820 440">
<rect width="820" height="440" fill="#c62139"/>
<rect y="20" width="780" height="400" x="20" fill="#00297b"/>
<path d="m410.26 100s-80.26 54.71-80.26 119.22c0 64.52 80.26 120.78 80.26 120.78s79.74-51.62 79.74-120.78c0-69.15-79.74-119.22-79.74-119.22" fill="#c62139"/>
<path d="m477.92 240.56c1.76-6.86 2.76-13.99 2.76-21.34 0-61.93-70.42-107.86-70.42-107.86s-71.46 47.48-71.46 107.86c0 7.25 1.02 14.32 2.82 21.16l136.3 0.18" fill="#66afeb"/>
<path d="m409.67 328.13s55.24-36.58 68.23-87.75h-136.34c13.19 50.18 68.11 87.75 68.11 87.75" fill="#007bde"/>
<path d="m480.34 226.45c-12.09 8.61-80.09 4.48-80.09 4.48l-3.8 9.63h81.47c0.34-1.32 0.65-2.64 0.93-3.98l1.49-10.13" fill="#9c8431"/>
<g fill="#fff100">
<path d="m406.08 287.36c-1.04-7.21-32.85-14.94-49.72-14.3 5.26 8.27 11.24 15.83 17.24 22.56 8.58-9.2 32.82-5.89 32.48-8.26"/>
<path d="m470.45 260.55c-4.04 0.14-11.37 0.79-16.4 3.41-7.24 3.78-23.47 7.91-30.72 5.84-7.25-2.06-18.64 4.48-17.25 5.85 2.29 2.3 18.98-0.34 18.98 14.46 0 12.38-19.33 6.88-26.93 12.04-4.58 3.1-7.77 6.47-9.58 8.64 11.86 10.98 21.15 17.34 21.15 17.34s22.02-14.59 41.52-38.2l9.17-12.17c3.69-5.42 7.12-11.16 10.06-17.21"/>
</g>
<g fill="#009270">
<path d="m405.86 165.17s-11.01-6.45-26.02-3.36c-15.02 3.09-18.26 12.51-18.26 12.51l5.05-2.32 0.13 2.06 4.53-2.83 0.13 2.06 3.89-3.61 0.63 2.32 3.5-3.1 0.26 1.68 5.69-3.61v2.32l4.54-2.07-0.39 2.2 8.55-1.54s-20.2 6.7-22.78 22.83l3.87-4.64 0.39 2.19 2.46-4.9 0.65 1.93 2.2-4.51 0.64 2.7 3.37-4.9 0.26 2.84 3.88-5.29v2.57l4.14-4.51-0.12 3.36s4.01-3.36 5.29-3.36l-4.78 6.2 1.56 0.51s-3.37 2.71-3.63 3.23c-0.26 0.51 2.2 0 2.2 0s-2.98 3.09-3.11 4 1.94 0 1.94 0-2.71 3.48-3.1 4.78c-0.39 1.29 1.42 0.25 1.42 0.25s-1.68 4.13-1.81 5.29c-0.13 1.15 1.94-0.26 1.94-0.26l1.17 7.09 2.07-8.5 1.29 1.93v-6.07l1.17 1.03-0.13-3.99 1.55 1.54-0.78-4.9 1.68 1.93-0.25-4.12 1.67 1.68v-5.42l1.56 1.4 0.26-3.72 1.81 0.9s0.26-4.52 2.33-4.39c2.07 0.12 4.66 2.32 3.63 3.34l1.81-0.5-0.39 4.37 1.68-1.02-0.26 3.22 1.42-0.64-0.51 4.12 1.68-1.01 0.13 5.01 1.93-1.41-0.13 5.93 1.95-1.54v4.9l1.81-1.28 1.95 4.77-0.39-7.1 1.42 1.16-2.59-5.03 1.94-0.26-2.07-3.36 1.94 0.14-2.84-3.36 1.93-0.38-4.27-3.1 2.33-0.9-4.4-2.84 1.68-0.65-3.1-3.23 3.24 1.3 1.02-2.07 3.89 3.1v-3.1l3.36 4.65 0.39-2.85 2.59 3.62 0.52-1.67 1.81 3.61 0.9-2.7 1.82 3.87 0.51-2.72 1.69 4.26 1.55-1.68 0.78 4.39 1.54-1.68 1.42 3.87 1.82-1.42 1.55 4.39s4.27-23.49-32.36-23.88l-10.87-2.05"/>
<path d="m389.03 144.26l2.07 2.57-1.04 0.78 3.5 1.94-0.78 1.41 3.5 1.29-1.3 1.04 3.11 1.8-2.07 0.65 3.75 1.8-0.51 1.68 3.23 0.78-1.42 1.15 3.75 2.98 4.27 2.96 2.98-1.03-1.17-5.68s-12.29-16.78-21.87-16.13"/>
<path d="m400.29 128l1.43 3.35-1.95 0.39 4.41 4.39-3.5 0.13 4.27 3.34-2.07 0.66 3.89 3.87-2.08 1.03 4.01 4-2.71 1.02 4.53 4.14-2.59 0.13 2.71 3.48-2.45 0.78s2.97 5.54 2.84 7.87l5.05 0.25s0.78-14.97 0.13-16.9l-1.3 0.9 0.39-5.42-1.94 1.17-0.38-6.45-1.95 2.06-0.51-6.33-1.43 2.2-1.42-6.2-1.55 1.94-1.43-4-1.16 1.55-3.24-3.36"/>
<path d="m413.36 165.68c1.43-9.03 10.88-22.19 28.62-22.71l-4.02 2.06 2.33 1.04-4.66 1.68 2.33 1.41-5.56 0.39 2.84 1.94-4.14 0.51-3.24 0.65 2.33 2.18-4.66 0.52 2.98 1.55s-7.38 2.58-7.89 3.36c0 0 24.85-6.32 30.94 5.41l-4.8-2.07 0.39 2.2-3.36-2.45 0.51 1.81-3.49-1.81 0.52 2.19-3.63-2.07 0.78 1.95-4.66-2.2 0.77 2.07-4.01-1.29 0.39 2.18-4.01-0.25 0.39 2.58-12.43-0.26-1.56-2.58"/>
</g>
<g fill="#7b4800">
<path d="m409.57 173.46l2.59-0.17c-1.21 24.61-0.08 59.89 3.27 72.95 5.69 22.19 22.29 30.73 26.24 32.86 2.24 1.2 1.38 6.19-3.12 5.85-4.48-0.35-20.13-11.88-25.54-32.52-7.24-27.7-3.72-76.08-3.44-78.97"/>
<circle cy="168.13" cx="413.76" r="2.926"/>
<circle cy="167.09" cx="409.09" r="2.739"/>
<circle cy="171.87" cx="409.09" r="2.558"/>
<circle cy="170.58" cx="412.59" r="2.739"/>
</g>
<g fill="#7b4800">
<path d="m384.64 257.16h2.92v-31.48h-2.92v31.48z" fill="#000"/>
<path d="m394.14 263.1s-1.2 0.21-3.11 0.45v-2.45h-1.94v2.66c-1.99 0.21-4.4 0.37-6.92 0.37-2.69 0-5.4-0.19-7.63-0.42v-2.55h-2.14v2.31c-1.85-0.24-3.04-0.44-3.04-0.44s-0.59 3.23 12.62 3.23c13.2 0 12.16-3.16 12.16-3.16"/>
<path d="m381.6 257.07c10.71 0 19.69-1.71 19.69-1.71s1.37 6.87-19.69 6.87c-21.05 0-19.33-5.84-19.33-5.84s8.64 0.68 19.33 0.68"/>
<path d="m372.63 227.48s16.57 6.2 23.13 27.88c0 0-15.19-3.09-23.82 0.34h-4.83c0-0.01 8.28-12.04 5.52-28.22" fill="#fff"/>
</g>
<g fill="#c62139">
<path d="m374.97 211.16h-3.07c-0.24-1.32-0.82-2.25-1.74-2.76-0.51-0.29-1.08-0.43-1.7-0.43-1.21 0-2.2 0.57-2.97 1.75-0.78 1.17-1.16 2.94-1.16 5.29 0 2.38 0.42 4.05 1.25 5.05 0.84 0.98 1.79 1.47 2.86 1.47 1.05 0 1.91-0.38 2.58-1.17 0.66-0.77 1.07-1.8 1.24-3.07h-3.46v-3.22h6.22v10.35h-2.07l-0.31-2.41c-0.6 0.92-1.14 1.57-1.62 1.95-0.83 0.65-1.84 0.98-3.04 0.98-1.98 0-3.61-0.89-4.86-2.66-1.32-1.78-1.98-4.21-1.98-7.3 0-3.12 0.67-5.64 2-7.52 1.32-1.88 3.08-2.82 5.28-2.82 1.89 0 3.42 0.62 4.57 1.87 1.15 1.23 1.81 2.79 1.98 4.65"/>
<path d="m389.59 217v-11.87h3.17v11.87c0 1.32 0.13 2.28 0.37 2.9 0.38 1.08 1.2 1.62 2.47 1.62 1.26 0 2.08-0.54 2.46-1.62 0.25-0.62 0.36-1.58 0.36-2.9v-11.87h3.18v11.87c0 2.04-0.25 3.64-0.74 4.79-0.93 2.08-2.67 3.13-5.27 3.13-2.58 0-4.34-1.04-5.26-3.13-0.5-1.14-0.74-2.75-0.74-4.79"/>
<path d="m423.12 205.12l-5.34 19.32h3.28l1.03-3.97h5.5l0.97 3.97h3.38l-5.32-19.32h-3.5zm1.72 4.41l1.88 7.59h-3.78l1.9-7.59z"/>
<path d="m451.66 220.3l2.69-15.17h4.49v19.29h-2.91v-13.04c0-0.38 0.01-0.91 0.01-1.58 0.01-0.68 0.01-1.2 0.01-1.56l-2.83 16.18h-3.03l-2.8-16.18c0 0.36 0 0.88 0.01 1.56 0 0.67 0.01 1.2 0.01 1.58v13.04h-2.91v-19.29h4.54l2.72 15.17"/>
</g>
</svg>
