<svg id="hong_kong_flag" xmlns="http://www.w3.org/2000/svg" xmlns:xlink="http://www.w3.org/1999/xlink" viewBox="0 0 900 600">
<rect width="900" fill="#de2910" height="600"/>
<g id="petal">
<path d="m449.96 299.91c-105.26-44.486-58.602-181.58 42.07-174.69-20.366 10.467-23.318 29.998-11.687 48.09 13.024 20.256-1.199 52.849-18.806 60.767-28.935 13.024-34.728 47.75-11.577 65.833z" fill="#fff"/>
<path d="m444.27 200.92-5.9198 9.2938-2.1445-10.814-10.678-2.7593 9.6246-5.3895-0.67104-11 8.0854 7.4894 10.256-4.0427-4.6105 10.009 7.0014 8.5054z" fill="#de2910"/>
<path d="m450.56 298.76c-12.731-6.5345-22.996-20.155-27.468-36.431-5.115-18.67-2.1727-38.742 8.0831-55.038l-2.2079-1.3937c-10.641 16.929-13.693 37.743-8.3858 57.119 4.7278 17.222 15.214 31.098 28.787 38.064z" fill="#de2910"/>
</g>
<use xlink:href="#petal" transform="rotate(72 450,300)"/>
<use xlink:href="#petal" transform="rotate(144 450,300)"/>
<use xlink:href="#petal" transform="rotate(216 450,300)"/>
<use xlink:href="#petal" transform="rotate(288 450,300)"/>
</svg>
