<svg viewBox="0 0 30240 15120" xmlns="http://www.w3.org/2000/svg" xmlns:xlink="http://www.w3.org/1999/xlink">
<defs>
<path id="a" d="M0-9l1.736 5.396 5.3-2.007L3.9-.89l4.874 2.893-5.647.49.778 5.616L0 4l-3.905 4.11.778-5.616-5.647-.49L-3.9-.89l-3.137-4.72 5.3 2.006z"/>
<path id="b" d="M0-9l2.35 5.764 6.21.455-4.756 4.01L5.29 7.28 0 4l-5.29 3.28 1.486-6.044L-8.56-2.78l6.21-.456z"/>
</defs>
<path d="M0 0h30240v15120H0V0z" fill="#00008b"/>
<use xlink:href="#a" fill="#fff" transform="matrix(252 0 0 252 7560 11340)"/>
<use xlink:href="#a" fill="#fff" transform="matrix(120 0 0 120 22680 12600)"/>
<use xlink:href="#a" fill="#fff" transform="matrix(120 0 0 120 18900 6615)"/>
<use xlink:href="#a" fill="#fff" transform="matrix(120 0 0 120 22680 2520)"/>
<use xlink:href="#a" fill="#fff" transform="matrix(120 0 0 120 26040 5607)"/>
<use xlink:href="#b" fill="#fff" transform="matrix(70 0 0 70 24192 8190)"/>
<path fill="#fff" d="M6300 0h2520v2520h6300v2520H8820v2520H6300V5040H0V2520h6300V0z"/>
<path id="c" fill="#fff" d="M0 0h1690.5l13430 6714.8V7560h-1690L.5 845.2V0z"/>
<use xlink:href="#c" fill="#fff" transform="matrix(-1 0 0 1 15120 0)"/>
<path fill="red" d="M6804 0h1512v3024h6804v1512H8316v3024H6804V4536H0V3024h6804V0z"/>
<path id="d" fill="red" d="M0 0l5040 2520H3913L0 563.5V0zm15120 0h-1127L8953 2520h1127L15120 0z"/>
<use xlink:href="#d" fill="red" transform="rotate(180 7560 3780)"/>
</svg>
