<svg viewBox="0 0 640 480" xmlns="http://www.w3.org/2000/svg" version="1">
<g stroke-width="1pt">
<path d="m0 0h640v480h-640z" fill="#006"/>
<path d="m0 0v30.59l372.58 243.02h46.898v-30.59l-372.58-243.02h-46.9zm419.48 0v30.59l-372.58 243.02h-46.9v-30.59l372.58-243.02h46.898z" fill="#fff"/>
<path d="m174.78 0v273.61h69.913v-273.61h-69.913zm-174.78 91.204v91.204h419.48v-91.206h-419.48z" fill="#fff"/>
<path d="m0 109.44v54.722h419.48v-54.722h-419.48zm188.76-109.44v273.61h41.948v-273.61h-41.948zm-188.76 273.61l139.83-91.204h31.265l-139.83 91.2h-31.27zm0-273.61l139.83 91.204h-31.27l-108.56-70.81v-20.394zm248.39 91.204l139.82-91.204h31.265l-139.83 91.204h-31.265zm171.09 182.41l-139.82-91.204h31.265l108.56 70.81v20.394z" fill="#c00"/>
<path fill="#fff" d="m125.51 416.48l-27.478-2.388 23.717-14.077-15.26-22.972 25.79 9.766 8.448-26.258 8.447 26.257 25.79-9.767-15.26 22.972 23.716 14.077-27.477 2.39 3.786 27.32-19.002-19.993-19.002 19.993" fill-rule="evenodd"/>
<g fill="#fff" fill-rule="evenodd">
<path d="m492.16 445.7l-19.346-1.684 16.698-9.913-10.748-16.173 18.165 6.877 5.943-18.49 5.943 18.49 18.164-6.877-10.748 16.173 16.698 9.913-19.346 1.684 2.67 19.23-13.382-14.072-13.382 14.073m2.67-307.01l-19.346-1.683 16.698-9.912-10.748-16.175 18.165 6.878 5.943-18.487 5.943 18.488 18.164-6.878-10.748 16.175 16.698 9.912-19.346 1.684 2.67 19.232-13.382-14.073-13.382 14.072m-105.24 97.68l-19.346-1.684 16.698-9.913-10.748-16.173 18.165 6.877 5.943-18.49 5.943 18.49 18.165-6.877-10.748 16.173 16.698 9.913-19.346 1.684 2.67 19.23-13.382-14.072-13.382 14.073m206.48-48.01l-19.317-1.683 16.728-9.915-10.77-16.173 18.18 6.878 5.9-18.49 5.97 18.49 18.13-6.878-10.72 16.173 16.692 9.914-19.353 1.682 2.662 19.23-13.383-14.07-13.38 14.07m-22.25 40.41l-9.503 8.022 2.97 12.08-10.575-6.555-10.575 6.555 2.97-12.08-9.503-8.02 12.41-0.915 4.698-11.518 4.698 11.518"/>
</g>
</g>
</svg>
