<svg xmlns="http://www.w3.org/2000/svg" xmlns:xlink="http://www.w3.org/1999/xlink" viewBox="0 0 500 300">
<path fill="#d21034" d="M0 0h500v300H0z"/>
<path fill="#00209f" d="M0 0h500v150H0z"/>
<g stroke="#000" stroke-width=".183" fill="#f1b517">
<path fill="#fff" d="M202.68 112.28h94.642v75.34H202.68z" stroke="none"/>
<path stroke="#016a16" d="M269.05 166.77l-19.314.56-19.227.22s-9.88 3.653-13.92 4.473c-4.03.817-3.51 2.14-6.62 2.836-2.5.55-2.79.73-4.25.83-.89.05-1.98.74-3.05 1.49v10.45h94.64v-9.94c-1.03-.56-2.01-.95-3.01-1.29-1.39-.47-2.33-.99-4.83-1.55-3.12-.7-2.59-2.02-6.62-2.84-4.04-.82-13.83-5.26-13.83-5.26z" fill="#016a16"/>
<g id="a">
<path d="M244.53 143.51l1.397-.033 2.555 10.75-.545 3.385-3.407-14.102z"/>
<path d="M243.06 136.35l.954 8.284 1.022-.066-1.976-8.218z" fill="#fff"/>
<path d="M245.72 154.59l-4.293-11.538 1.6-.1 5.01 14.103-2.317-2.465z"/>
<path d="M239.42 136.48l1.772 8.02h1.43l-3.202-8.02z" fill="#fff"/>
<path d="M241.91 150.55l-2.52-5.424 1.09-.23 4.6 9.007-3.17-3.353z"/>
<path d="M236.08 138.78l2.794 7.626h1.43l-4.224-7.626z" fill="#fff"/>
<path d="M242.25 151.36l-11.436-12.484c-3.572 2.828-2.908 8.02-2.908 8.02l12.957 10.167 1.386-5.703z" fill="#0a328c"/>
<path d="M248.86 158.24l-8.483-8.594c-3.587.125-.74 5.48-.56 6.152l9.043 7.734v-5.292z" fill="#d20014"/>
<path d="M248.14 156.76l-17.54-18.78-.683.483 18.56 20.622-.337-2.325zm-18.55-19.99l-.385-.446.038-.89-3.62-2.304 1.618 3.64 1.24.223.39.446.73-.67z"/>
<path d="M227.74 138.11c.616-.743 1.348-1.486 2.657-2.192l1 1.45-2.155 1.82-1.502-1.078z"/>
<path stroke="#0a328c" d="M225.81 141.28l.588 1.026c.364-.135 4.03-3.457 4.03-3.457l2.633-.09.76-.84c-1.93-2.08-3.75.29-3.75.29l-4.25 3.05z" fill="#0a328c"/>
<path stroke="#d20014" d="M227.91 143.01c.14-.918 1.876-3.214 2.128-3.295 1.303.39 2.515 1.14 3.835-1.837-1.148 1.46-3.472-.027-3.472-.027l-1 .84.03.41-3.05 2.84 1.54 1.08z" fill="#d20014"/>
<path d="M237.25 154.67l-14.367-11.41c-2.46 2.502-.415 10.23-.415 10.23l14.042 7.608.74-6.427z" fill="#0a328c"/>
<path d="M249.17 163.92l-11.818-9.467c-4.036.566-.863 6.506-.623 7.16l12.48 6.77-.04-4.463z" fill="#d20014"/>
<path d="M248.7 162l-25.554-19.182-.587.59 26.83 20.956-.69-2.364zm-26.77-20.19l-.46-.374-.122-.885-3.98-1.66 2.25 3.32 1.253.02.46.38.6-.78z"/>
<path d="M220.35 143.43c.473-.835 1.06-1.69 2.222-2.603l1.246 1.26-1.795 2.152-1.673-.81z"/>
<path stroke="#0a328c" d="M218.92 146.64l.16 1.06c.337-.188 3.56-3.726 3.56-3.726l2.586-.477.527-.833c-1.797-2.114-3.713.698-3.713.698l-3.12 3.278z" fill="#0a328c"/>
<path stroke="#d20014" d="M220.97 148.54c-.123-.982 1.22-3.863 1.455-3.98 1.547.46 2.894 1.152 3.462-2.07-.897 1.614-3.46.363-3.46.363l-.86.98.12.53-2.61 3.37 1.893.807z" fill="#d20014"/>
<path d="M236.22 161.65c-.19-.046-18.517-10.442-18.517-10.442-1.334 2.253-.128 5.52.457 6.03.034 1.5-.602 2.305.707 5.438.386 2.037 1.328 3.913 2.7 5.027 1.67 6.417 8.222 6.848 10.746 1.624l3.908-7.677z" fill="#0a328c"/>
<path d="M248.35 168.51l-12.548-7.355c-4.036.567.086 8.055.326 8.71l12.116 4.304.106-5.66z" fill="#d20014"/>
<path d="M246.24 165.85l-28.35-15.09-.484.673 29.904 16.647-1.07-2.23zm-29.71-15.91l-.514-.3-.265-.856-4.19-1.04 2.76 2.934 1.24-.177.52.31.47-.86z"/>
<path d="M215.23 151.78c.332-.896.773-1.828 1.772-2.907l1.436 1.056-1.425 2.39-1.783-.55z"/>
<path stroke="#0a328c" d="M214.1 155.18l.593 1.167c.307-.232 3.004-4.578 3.004-4.578l2.492-.82.46-1.02c-2-1.85-3.5 1.34-3.5 1.34l-3.06 3.9z" fill="#0a328c"/>
<path stroke="#d20014" d="M216.77 156.84c-.2-1 .484-4.197.7-4.345 1.56.465 2.863.597 3.223-2.623-.907 1.53-3.328.954-3.328.954l-.71 1.085.15.38-2.06 3.95 2.025.6z" fill="#d20014"/>
</g>
<use xlink:href="#a" transform="matrix(-1 0 0 1 499.86 0)"/>
<path stroke="#016a16" d="M248.76 125.6l-.465 9.07h2.9l-.425-8.99 3.023-.426-.335-3.582-7.51.29.04 3.253 2.772.385z" fill="#016a16"/>
<g id="b" fill="#016a16">
<path d="M249.82 121.9c-7.764-7.77-13.878-3.98-15.334-2.902.962.187 1.826-.412 2.273-.48-.28.353-.87 1.23-.87 1.23s2.4-1.135 2.67-1.03c-.35.275-.73.935-.73.935.18.07 1.53-1.057 1.79-1.077-.42.466-.54 1.528-.54 1.528l1.17-.545c.3.21-.09.63.18.6 1.94-.16 4.67 1.77 5.05 2.37"/>
<path d="M247.9 123.32c-.81-1.854-15.588-5.005-18.56.244 1.163.293 2.276-.976 2.276-.976l-.1 1.17 1.97-1.51-.707 1.56 1.56-1.27-.05 1.27 1.92-2.098-.25 1.22 1.72-.732-.21 1.024"/>
<path d="M247.24 123.61c-3.793-2.537-9.66-.83-9.66-.83-3.74 2.098-5.736 1.72-6.22 5.61.355-.145 1.366-1.365 1.366-1.365l.76 1.513.25-2.147.608 1.66.91-2.73.203 1.86 1.416-1.85.657.54.607-1.41.556.93s.96-.58 1.517-.24l1.062-1.22.253.88.91-1.07.355.78.91-.83-.05.59 3.135.05"/>
<path d="M246.38 124.05c-2.643-.05-10.226 2.812-12.188 5.806.78-.436 1.262-.635 1.262-.635l.387 1.21.48-1.2.1.93c.29-.72.62-.8 1.17-.05l.21-1.12.31 1.08.51-1.17s.32 1.27.51 1.22.84-2.19 1.21-2.29l.1 1.37.51-1.36.46 1.03.11-1.46.51 1.13s.27-1.1.66-1.32l.76.69 3.38-2.43"/>
<path d="M246.89 124.68c-3.52 1.35-6.67 6.18-6.43 8.226 1.565-1.94 1.228-1.674 1.928.56 0 0 .264-1.955.53-2.187l.46 1.44.17-1.89.47.02-.12-1.19.698.53c-.163-.68-.338-.91.386-1.49 0 0-.917.12-.193-1.54l.67.65s-.12-.72.12-1l2.48-.86"/>
<path d="M247.23 125.04l-1.33 2.534.682.197-1.535 1.16 1.296-.13s-1.978.73-2.217 2.67l2.013-.89s-1.71 1.75-1.95 2.8l1.16-1.02s-1.13 1.22-.96 3.06l.85-.95c-.21 2.24-.14 2.44.88 4.15 0 0-.28-2.63.03-2.96l2.25 2.34-1.26-3.32s1.39 2.11 2.25 1.91l-1.78-2.7 1.74 1.42-1.98-2.96 1.84.56s-1.33-1.68-1.23-2.73l1.26 1.38s-.48-1.58-.34-2.04l.65.14-1.27-1.44.85-.17-.1-.95.61-.2-.04-1.05m-1.09 0c-2.19 2.96-1.06 7.53-2.36 9.87"/>
</g>
<use xlink:href="#b" transform="matrix(-1 0 0 1 499.86 0)"/>
<path d="M250.94 166.54s1.19-9.945 1.186-14.225c-.002-3.37-.814-10.835-.814-10.835h-3.417s-.52 7.43-.442 10.79c.1 4.28 1.186 14.27 1.186 14.27h2.3z"/>
<path d="M247.67 141.95h3.96l-.465-2.666h-2.87l-.625 2.666z"/>
<path d="M247.93 139.82h3.538l-.666-2.666h-2.18l-.692 2.666z"/>
<path d="M248.16 137.66h2.95l-.5-2.666h-1.876l-.574 2.666z"/>
<path d="M250.71 134.67h-2.063l-.21.964h2.442l-.17-.964zm.42 29.7h-2.62m2.77-1.95h-2.94m3.32-1.98h-3.727m3.927-2.15h-3.9m3.92-2.15h-4.102m4.262-1.97h-4.45m4.46-1.79h-4.65m4.62-2.16h-4.65m4.5-2.14h-4.495m4.285-2.17h-4.065m3.875-1.95h-3.672"/>
<path stroke="#0a328c" d="M249.91 119.04c-.688-.324-2.245-1.313-1.783-1.903l.713-1.214c1.01-2.277-.018-1.395-.126-2.105-.103-.683 3.865-.15 3.924 1.396.016.426-.295.176-.252 2.612l-.755 1.457c-.56.053-1.23-.014-1.72-.243z" fill="#0a328c"/>
<path d="M250.39 124.93l-.986-.83.273-7.105.965.283-.252 7.652z"/>
<path stroke="#d20014" d="M251.67 119.25c.62-.362 1.024-1.443.65-2.085-1.016-1.287-1.673-.756-3.378-1.336-.34.36-1.055 1.05-.902 1.57 2.242 1.05 1.372.15 2.114.29.4.07.658.54 1.516 1.55z" fill="#d20014"/>
<use xlink:href="#c" transform="matrix(1 0 0 -1 -.002 320.37)"/>
<path stroke="#fff" stroke-width=".181" stroke-linecap="round" d="M238.36 161.75c0 1.3-.815 2.353-1.818 2.353s-1.82-1.054-1.82-2.353v-1.276h3.638v1.276z" fill="#016a16"/>
<ellipse cy="160.06" rx="1.806" ry=".898" cx="236.54" fill="#fff" stroke="none"/>
<path stroke="#f1b517" d="M236.13 161.08l-.31-3.297h1.382l-.226 3.297h-.846z" fill="#016a16"/>
<path id="c" d="M238.54 160.12c-.265.493-1.06.852-2 .852-.937 0-1.727-.36-1.992-.852a.756.756 0 0 0-.1.36c0 .668.938 1.21 2.093 1.21s2.1-.542 2.1-1.21a.748.748 0 0 0-.09-.36z" stroke="#fff" stroke-linecap="round" stroke-width=".237" fill="#016a16"/>
<g id="d">
<path d="M246.04 172.79l-7.06-2.19-3.076-5.254-10.893-.535.38 3.95 9.28 1.78.88 1.58 10.67 2.97-.17-2.29z"/>
<path d="M238.66 174.25l-11.148-16.398-.547.412 11.06 16.467.635-.48z" fill="#503200"/>
<path d="M228.55 158.5l-1.19-1.992c-.223-.368-.56-.49-1.06-.228-.483.255-.436.76-.238 1.123l1.1 1.852 1.388-.755z" fill="#fff"/>
<path d="M239.99 164.13l-22.496-2.286-.547 3.27 22.387 2.252.656-3.236z"/>
<path d="M217.09 161l-.583 4.538h.948l.656-4.15-1.02-.388zm3.75.74l-.255 4.08.583.07.474-3.622-.802-.528zm15.24 1.75l-.547 3.834 1.094-.035.437-3.8h-.984zm3.36.11l-.78 4.434 1.24.18.353-2.332c.1.468.53.824 1.046.824.58 0 1.06-.464 1.06-1.032s-.48-1.026-1.07-1.026c-.41 0-.78.24-.94.687l.23-1.662-1.15-.073zm-8.12.72l-3.094 3.482.36.423 3.972-2.71-1.238-1.195zm-7.2 8.68l3.094-3.482-.36-.423-3.972 2.71L224.12 173zm8.1-.87l-3.764-2.91-.387.273 2.96 3.756 1.18-1.12zm-9.28-6.72l3.816 2.81.464-.348-2.99-3.755-1.29 1.293zm4.15-2.32l.365 4.573.513-.022 1.207-4.45-2.085-.1zm1.25 11.1l-.365-4.573-.565-.053-.69 4.626h1.62zm5.06-6.16l-4.795.51-.072.457 4.85.634.017-1.6zm-11.41 1.58l4.68-.74.1-.364-4.842-.54.062 1.644z"/>
<ellipse cy="168.55" cx="227.69" rx="1.27" ry="1.225"/>
<path stroke-linecap="round" d="M234.44 168.55c0 3.592-3.022 6.507-6.745 6.507s-6.745-2.915-6.745-6.507c0-3.592 3.022-6.507 6.745-6.507s6.745 2.915 6.745 6.507zm-1.347 0c0 2.875-2.418 5.207-5.398 5.207s-5.397-2.333-5.397-5.207c0-2.874 2.418-5.207 5.397-5.207s5.398 2.333 5.398 5.207z" fill-rule="evenodd"/>
<path d="M223.48 165.26l-1.057-.796m8.607.026l.902-.92m1.038 9.13l-1.11-.87m-8.38 1.87l.954-1.02m21.766-10.56l1.155 5.886-.942.497-1.014-6.3.8-.083z"/>
<path d="M245.59 161.36c-.535-.224-1.232.155-2.374-1.292-1.878 1.722-.107 1.98.178 3.686.532.218.86-1.323 2.303-1.48.18-.018 2.298-.204 2.298-.204l-.532-.726s-1.474.04-1.873.016z" fill="#fff"/>
<path d="M246.36 162.52l-.214-1.756c-.232-.62-1-.087-1 .275l.197 1.61 1.017-.14z" fill="#fff"/>
<path d="M240.76 167.37l.02 1.637c-.537.183-.455.585-.438 1.168l.02 4.77c-.19.318-.78.333-1.055.58-.277.25-.242.73 1.02 1.048l.975.035c1.486-.326 1.793-.818 1.048-1.095-.397-.148-.92-.324-1.117-.557l.033-1.137.964.03c.26 0 .753-.65.77-1.19l.005-2.47c-.035-1.4-1.085-1.56-1.38-1.54l.02-1.29h-.885zm1.63 2.73c.018-.4-.555-.757-.786-.767s-.734.467-.75.867v1c.033.367.326 1.61.914 1.7.28.044.64-.4.64-.766l-.017-2.034z" fill-rule="evenodd"/>
<path d="M234.28 172.33c-.636-.257-.63 1.172-.63 1.172l1.003.01c.438.2.79.843.51 1.16-.23.26-2.176-.442-2.307-.038.344 1.94 2.917 2.688 3.848 1.84.91-.832 1.14-3.05-1.817-3.63l-.607-.514zm.59.53l-.292.64" fill="#fff"/>
<path d="M214.94 173.06l-.963-4.05m2.133 3.81l-1.48-3.153m4.03 2.323l-3.337-1.792m4.777 1.432l-6.192-2.688"/>
<path stroke="#d20014" d="M210.22 166.01s-2.254-.036-2.656.122c-.162.064.567.825.416 1.115-.563 1.083-4.394.934-4.697.698-.52-.405 3.568-.753 3.595-1.03.03-.315-.605-1.145-.506-1.654.128-.66 1.788-.9 1.788-.9l2.06 1.66z" fill="#d20014"/>
<path d="M213.23 168.05l-5.102-4.222s-.225-.238-.413-.033c-.184.2.07.43.07.43l5.262 4.35.183-.525z" fill="#503200"/>
<path d="M218.15 172.22c-.09-.087-4.155-3.608-4.155-3.608l-.27-1.028s-.63.425-.86.645-.586.81-.586.81l1.13.05 3.59 3.29 1.14-.18z"/>
<ellipse cy="177.06" cx="232.53" rx=".74" ry=".715"/>
<ellipse cy="175.72" cx="230.64" rx=".74" ry=".715"/>
<ellipse cy="176.59" cx="228.09" rx=".74" ry=".715"/>
<ellipse cy="177.44" cx="224.15" rx=".74" ry=".715"/>
<ellipse cy="177.64" cx="222.49" rx=".74" ry=".715"/>
<ellipse cy="177.64" cx="220.85" rx=".74" ry=".715"/>
<ellipse cy="177.59" cx="219.18" rx=".74" ry=".715"/>
<ellipse cy="176.32" cx="219.99" rx=".74" ry=".715"/>
<ellipse cy="176.4" cx="221.6" rx=".74" ry=".715"/>
<ellipse cy="176.2" cx="223.14" rx=".74" ry=".715"/>
<ellipse cy="174.96" cx="222.36" rx=".74" ry=".715"/>
<ellipse cy="174.94" cx="220.85" rx=".74" ry=".715"/>
<path d="M236.47 177.99c0-.316-.77-.18-.77-.55 0-.412 1.174-.11 1.336.252.66-.596.944-.16 1.348.02.575-.855 1.287-.823 1.98-.197.402-.443 1.41-.297 1.758.197.664-.66 1.254-.497 1.715-.02.186-.346.458-.27.654-.02.36-.628 1.25-.44 1.62-.024.33-.366.67-.08 1.12.19.3-.28.78-.227.78.05 0 .29-.63.188-.63.474 0 .256.46.127.46.45 0 .255-.68.35-.78-.056-.23.44-1.06.27-1.14-.138a.777.777 0 0 1-1.24-.06c-.29.235-.63.268-.79.032-.51.556-1.39.442-1.69-.17l-.29.012c-.51.69-1.3.37-1.52-.01-.85.615-1.36.42-1.84.02-.54.666-1.38.62-1.57 0-.37.267-1.14.33-1.14.017 0-.31.65-.2.65-.47zm1.655.15c0 .143-.195.26-.435.26s-.436-.117-.436-.26.195-.26.436-.26.435.117.435.26zm1.82-.218c0 .172-.235.312-.524.312-.28 0-.52-.14-.52-.312 0-.173.24-.312.53-.312.29 0 .53.14.53.312zm3.575.197c0 .17-.212.31-.474.31s-.474-.14-.474-.32.212-.32.474-.32.474.14.474.31zm-1.904-.09c0 .22-.207.4-.463.4s-.464-.18-.464-.4.2-.4.46-.4.46.18.46.4zm4.06.01c0 .2-.186.36-.414.36s-.415-.16-.415-.36c0-.2.186-.36.415-.36s.414.16.414.35zm-1.244.08c0 .12-.12.23-.267.23-.148 0-.268-.11-.268-.23s.12-.23.268-.23c.147 0 .267.1.267.23zm2.422.09c0 .18-.135.33-.302.33s-.3-.15-.3-.33c0-.19.134-.33.3-.33s.302.15.302.33z" fill-rule="evenodd"/>
</g>
<use xlink:href="#d" transform="matrix(-1 0 0 1 499.86 0)"/>
<g stroke-width=".231">
<path stroke="#0a328c" d="M249.84 165.72c-2.512 0-4.55.944-4.55 2.102 0 .2.057.39.17.572.542.63 2.306 1.087 4.397 1.087 1.957 0 3.625-.4 4.277-.96a1.13 1.13 0 0 0 .256-.69c0-1.16-2.038-2.1-4.55-2.1z" fill="#0a328c"/>
<path stroke-width=".187" d="M254.43 167.98v7.058c0 .828-2.048 1.5-4.572 1.5s-4.573-.672-4.573-1.5v-7.058c0 .828 2.05 1.5 4.573 1.5s4.572-.672 4.572-1.5z"/>
<path stroke="#d20014" stroke-width=".183" d="M245.28 167.98v1.082l2.22 6.844 1.772-5.263 1.946 5.465 1.425-5.16 1.783 3.47v-1.92l-1.656-3.363a8.25 8.25 0 0 1-.593.134l-1.028 3.81-1.45-3.61a14.522 14.522 0 0 1-.72-.03l-1.46 3.62-1.66-4.37c-.38-.22-.6-.47-.6-.73z" fill="#d20014"/>
<path stroke="#0a328c" stroke-width=".187" d="M254.43 173.72v1.318c0 .827-2.048 1.5-4.572 1.5s-4.573-.673-4.573-1.5v-1.318c0 .828 2.05 1.5 4.573 1.5s4.572-.672 4.572-1.5z" fill="#0a328c"/>
<path stroke-width=".187" d="M251.74 175.08c-.372.055-.77.097-1.185.118l.01 1.317c.418-.02.815-.062 1.187-.118l-.012-1.317zm-4.87-.22l-.012 1.312c.353.1.75.184 1.186.246V175.1a8.906 8.906 0 0 1-1.174-.24zm-1.59-1.14v1.317c0 .246.185.474.506.68l.023-1.302c-.34-.208-.53-.443-.53-.695zm9.15.14l-.023.006c-.08.267-.38.516-.83.723l.005 1.31c.53-.25.848-.54.848-.87v-1.18z"/>
<path stroke-width=".187" d="M254.43 168.03v7.012c0 .828-2.048 1.5-4.572 1.5s-4.573-.672-4.573-1.5v-7.012" fill="none"/>
<path stroke="#fff" stroke-width=".192" d="M253.39 167.52c0 .5-1.584.907-3.537.907-1.954 0-3.538-.406-3.538-.907s1.584-.907 3.538-.907c1.953 0 3.537.406 3.537.907z" fill="#fff"/>
<path d="M248.7 168.19l.157 1.25c.307.022.626.038.953.04l.232-1.29H248.7zm4.1-.3l-.912.247.058 1.177a8.91 8.91 0 0 0 .866-.19l-.012-1.234zm-5.4-1.91c-.26.076-.5.165-.72.263l.127.945.58-.185.013-1.023zm2.44-.37c-.122 0-.24.007-.36.01l.197 1.184.605-.01.238-1.156a9.727 9.727 0 0 0-.68-.028zm2.67.41l-.122 1.034.69.244.077-1.014a5.26 5.26 0 0 0-.645-.264z"/>
<path stroke-width=".183" d="M245.99 168.8l.184-1.288-.935-.506.02 1.465.72.33zm8.41-.28l.042-1.288-.876.262.834 1.026z"/>
</g>
<path d="M263.69 160.03c.83-.115 2.062 1.024 2.136 2.433.06 1.118-1.69 1.06-1.69 1.06-.09.458-1.055.88-1.84.916-.763.03.207-1.44.207-1.44-.475-1.26.148-2.75.148-2.75l1.04-.23z"/>
<path d="M262.5 162.95l.8-.03s.062.415.21.43c.156.018.325-.4.325-.4l1.217-.03"/>
<path stroke="#f1b517" d="M264.13 160.86c.68-.49.084-1.48-.386-1.49l-1.098.03c-.517.01-1.392.573-1.276 1.06.102.423.387.617.83.543.203-.033.627-.563.832-.572.275-.01.878.59 1.098.43z" fill="#d20014"/>
<path d="M214.24 174.86c-.617.078-.73.788-.5 1.44-2.686.756-5.086 1.74-7.455 2.406-.095-.474 1.174-1.845 1.174-1.845.33.17.58.94.58.94.08-1.58 1.64-2.63 1.64-2.63-.93-.12-3.74.97-4.07 1.42 0 0 1.09-.12 1.25 0 0 0-2.14 2.31-2.24 3 .33.75 4.02 1.31 4.02 1.31-.06.2-1.09.93-1.09.93 1.47.33 3.68-.72 4.34-1.35 0 0-1.73-.14-3.08-1.23 0 0 .27.68.11 1.01 0 0-2.1-.6-2.32-.95 0-.03 4.96-1.31 7.36-2 .08.43.56 1.24 1.13 1.05.38-.12.26-.86.12-1.39a.77.77 0 0 0 .5.19c.42 0 .76-.33.76-.73a.756.756 0 0 0-.77-.74.755.755 0 0 0-.72.51c-.1-.45-.35-1.35-.81-1.29zm1.89 1.528c0 .19-.162.345-.36.345s-.357-.155-.357-.345.16-.345.358-.345.36.154.36.345z" fill-rule="evenodd"/>
<path d="M293.07 177.88c.183-.367-.162-2.212-.162-2.212-.373.042-.882.68-.882.68.48-1.51-.865-4.036-.865-4.036.92.19 3.95 3.128 4.11 3.657 0 0-1.33-.48-1.53-.42.22 1.5 1.26 2.2 1.65 2.99 0 0-1.72.38-1.55 1.82l-1.12.02c-.39-.48.15-1.28.15-1.28l-7.74-3.24c-.49-.21-1.62-.72-1.45-1.32.17-.61 2.02.25 2.47.39l6.94 2.93z"/>
<path d="M285.64 176.54l.91-1.673c.326-.44-.346-.92-.823-.356l-1.02 1.53c-.454.84.5 1.07.933.5z"/>
<g fill="#fff">
<path d="M231.37 180.37l-.063-1.825-2.207.122-.126 1.987 2.396-.284z"/>
<path d="M215.24 182.92l-2.95-1.655c12.168 1.115 14.653-3.13 17.593-3.356 1.808-.15 2.09 2-1.413.98l.906 2.24s-8.638 4.86-17.13 2.85l2.994-1.07zm53.01-2.55l.063-1.825 2.7.063.125 1.986-2.888-.224z"/>
<path d="M284.94 182.48l2.777-1.515c-13.94.415-10.765-2.29-17.74-3.048-1.8-.196-3.156 2.12 1.414.982l-.9 2.24h2.19c4.75 3.12 11.16 3.4 15.4 2.4l-3.13-1.07z"/>
<path d="M228.42 178.91v3.154s7.728 2.868 21.52 2.868c13.85 0 21.518-2.868 21.518-2.868v-3.154s-5.85 2.695-21.52 2.695c-15.61 0-21.518-2.695-21.518-2.695z"/>
</g>
<path d="M229.57 182.08l.682-2.31.317.088-.61 2.037 1.18.324-.08.27-1.5-.41zm2.236-1.016l.038-.453.102-.38.338.08-.102.39-.193.42-.19-.04zm3.326-.155l.322.06-.287 1.36c-.05.23-.117.42-.202.54s-.208.22-.37.28c-.165.06-.364.06-.6.02a1.217 1.217 0 0 1-.535-.23.66.66 0 0 1-.242-.39c-.032-.16-.02-.36.03-.61l.288-1.36.323.06-.29 1.35c-.05.2-.06.36-.04.46s.07.19.15.26a.73.73 0 0 0 .33.15c.23.04.42.03.54-.06.12-.09.21-.28.28-.57l.28-1.36zm.363 2.51l.402-2.37.333.05.975 2.06.315-1.86.312.05-.402 2.37-.333-.06-.975-2.07-.316 1.86-.31-.05zm2.54.38l.343-2.38.326.04-.342 2.38-.326-.05zm.938-1.05c.047-.4.194-.7.44-.89.248-.2.546-.28.895-.25.228.02.427.1.598.22.17.12.293.28.367.48.074.2.097.41.07.65a1.4 1.4 0 0 1-.23.63 1.03 1.03 0 0 1-.482.38 1.28 1.28 0 0 1-.61.08 1.202 1.202 0 0 1-.6-.23 1.056 1.056 0 0 1-.36-.49 1.31 1.31 0 0 1-.07-.61zm.337.04c-.034.29.02.52.16.7.14.18.332.29.574.31a.814.814 0 0 0 .638-.19c.178-.15.286-.38.322-.69a1.19 1.19 0 0 0-.04-.52.76.76 0 0 0-.26-.37.83.83 0 0 0-.427-.17.865.865 0 0 0-.625.16c-.185.13-.3.38-.342.74zm2.31 1.41l.2-2.4.338.02 1.144 1.98.16-1.88.314.02-.203 2.39-.337-.03-1.143-1.98-.16 1.88-.314-.02zm3.488.24l.11-2.4 1.676.07-.013.28-1.34-.06-.03.74 1.17.05-.01.28-1.16-.05-.05 1.09-.33-.01zm1.833.08l1.01-2.39h.36l.97 2.42-.37-.01-.27-.74-1.04-.02-.29.72-.35-.01zm.74-.98l.85.01-.24-.67a6.39 6.39 0 0 1-.16-.5 2.98 2.98 0 0 1-.14.45l-.28.7zm1.92 1.01l.01-2.4h.33v2.4h-.33zm1.54-.01l-.03-2.12-.82.01v-.28l1.98-.03.01.28-.82.01.03 2.12h-.32zm2.44-.06l-.11-2.4.33-.02.1 2.11 1.23-.06.02.28-1.55.07zm1.68-.08l.78-2.46.36-.03 1.2 2.32-.37.03-.34-.71-1.03.07-.22.74-.35.02zm.65-1.03l.84-.06-.31-.65a6.445 6.445 0 0 1-.21-.49 2.97 2.97 0 0 1-.1.46l-.22.72zm2.92.75l-.27-2.39 1.67-.18.03.28-1.34.14.09.74 1.16-.13.03.28-1.16.12.13 1.08-.32.03zm1.83-1.37c-.06-.4.01-.72.2-.97.19-.26.46-.41.8-.46.23-.03.44-.01.64.07s.36.21.48.38c.13.18.21.38.24.62.04.24.02.47-.05.67s-.19.37-.36.49c-.17.13-.36.2-.57.23a1.22 1.22 0 0 1-.65-.07 1.09 1.09 0 0 1-.48-.39 1.327 1.327 0 0 1-.23-.58zm.34-.04c.04.28.16.5.34.64a.817.817 0 0 0 .64.16.8.8 0 0 0 .57-.34c.13-.19.18-.44.13-.74a1.2 1.2 0 0 0-.18-.5.78.78 0 0 0-.34-.3.842.842 0 0 0-.46-.06.85.85 0 0 0-.56.31c-.14.17-.19.44-.13.8zm2.62.8l-.44-2.36 1.09-.19a1.52 1.52 0 0 1 .51-.03.558.558 0 0 1 .32.18.673.673 0 0 1 .17.34.586.586 0 0 1-.09.45c-.09.14-.25.24-.48.31a.87.87 0 0 1 .22.08c.11.06.22.15.33.26l.55.57-.41.07-.42-.43a4.25 4.25 0 0 0-.29-.29c-.07-.06-.14-.11-.19-.13s-.11-.03-.16-.04c-.04 0-.1.01-.18.02l-.37.07.2 1.05-.32.06zm.08-1.38l.7-.12a1.1 1.1 0 0 0 .34-.1.367.367 0 0 0 .19-.4.358.358 0 0 0-.17-.26c-.1-.06-.24-.07-.42-.04l-.77.13.15.78zm3.93-.26l.34.01c-.01.27-.08.49-.23.66a1.034 1.034 0 0 1-.59.34c-.26.06-.48.05-.67-.01s-.34-.19-.47-.37a1.606 1.606 0 0 1-.27-.6 1.366 1.366 0 0 1 0-.67c.05-.21.16-.37.32-.51s.34-.23.56-.27a1.08 1.08 0 0 1 .66.04.973.973 0 0 1 .47.42l-.3.14a.757.757 0 0 0-.33-.32.693.693 0 0 0-.43-.03.813.813 0 0 0-.44.23.69.69 0 0 0-.18.4 1.39 1.39 0 0 0 .03.46c.05.2.12.37.22.5a.686.686 0 0 0 .36.27c.14.04.29.05.44.02a.71.71 0 0 0 .42-.25.79.79 0 0 0 .15-.5zm.92.65l-.67-2.31 1.73-.47.08.27-1.41.38.21.7 1.33-.36.08.27-1.32.35.23.79 1.47-.4.08.27-1.79.48z" fill="#000" stroke="none"/>
</g>
</svg>
