<svg id="haiti_flag" xmlns="http://www.w3.org/2000/svg" xmlns:xlink="http://www.w3.org/1999/xlink" viewBox="0 0 500 300">
<rect width="500" fill="#d21034" height="300"/>
<rect width="500" fill="#00209f" height="150"/>
<g id="coa" stroke="#000" stroke-width=".1826" fill="#f1b517">
<rect height="75.341" width="94.642" stroke="none" y="112.28" x="202.68" fill="#fff"/>
<path stroke="#016a16" d="m269.05 166.77-19.314 0.56058-19.227 0.21862s-9.8781 3.6535-13.916 4.4734c-4.0262 0.81746-3.5026 2.1402-6.6182 2.8365-2.4955 0.55768-2.7833 0.73353-4.2475 0.82965-0.88604 0.0582-1.9774 0.73987-3.0447 1.4911v10.449h94.642v-9.939c-1.0259-0.55902-2.0035-0.94359-3.004-1.2837-1.3903-0.47263-2.3272-0.9895-4.8227-1.5472-3.1156-0.69626-2.592-2.019-6.6182-2.8365-4.0381-0.81988-13.829-5.2526-13.829-5.2526z" fill="#016a16"/>
<g id="flags">
<g id="flags_half">
<path d="m244.53 143.51 1.397-0.0329 2.5554 10.749-0.54516 3.3858-3.4072-14.102z"/>
<path d="m243.06 136.35 0.95402 8.2836 1.0222-0.0657-1.9762-8.2179z" fill="#fff"/>
<path d="m245.72 154.59-4.2931-11.538 1.6014-0.0986 5.0086 14.102-2.3169-2.4654z"/>
<path d="m239.42 136.48 1.7718 8.0206h1.431l-3.2028-8.0206z" fill="#fff"/>
<path d="m241.91 150.55-2.5213-5.4238 1.0903-0.2301 4.5997 9.0068-3.1687-3.3529z"/>
<path d="m236.08 138.78 2.7939 7.6262h1.431l-4.2249-7.6262z" fill="#fff"/>
<path d="m242.25 151.36-11.436-12.484c-3.5716 2.8281-2.9081 8.0212-2.9081 8.0212l12.957 10.166 1.3866-5.7032z" fill="#0a328c"/>
<path d="m248.86 158.24-8.4834-8.5936c-3.5866 0.12446-0.74067 5.479-0.56005 6.1511l9.0434 7.7343v-5.2919z" fill="#d20014"/>
<path d="m248.14 156.76-17.539-18.781-0.6845 0.48355 18.561 20.622-0.3373-2.3246z"/>
<path d="m229.59 136.77-0.38503-0.44575 0.0385-0.89151-3.6192-2.303 1.6171 3.6403 1.2321 0.22287 0.38503 0.44575 0.73155-0.66862z"/>
<path d="m227.74 138.11c0.61604-0.74292 1.3476-1.4858 2.6567-2.1916l1.0011 1.4487-2.1562 1.8202-1.5016-1.0772z"/>
<path stroke="#0a328c" d="m225.81 141.28s0.5879 1.0263 0.5879 1.0263c0.36393-0.13504 4.0313-3.4571 4.0313-3.4571l2.6315-0.081 0.75587-0.83726c-1.9317-2.0797-3.7513 0.29709-3.7513 0.29709l-4.2552 3.052z" fill="#0a328c"/>
<path stroke="#d20014" d="m227.91 143.01c0.13998-0.91829 1.8757-3.214 2.1276-3.295 1.3032 0.39117 2.5154 1.1412 3.8353-1.8366-1.1478 1.4585-3.4714-0.027-3.4714-0.027l-1.0078 0.83726 0.028 0.40513-3.0515 2.8359 1.5397 1.0803z" fill="#d20014"/>
<path d="m237.25 154.67-14.367-11.411c-2.4597 2.5031-0.41467 10.232-0.41467 10.232l14.042 7.6072 0.73945-6.4275z" fill="#0a328c"/>
<path d="m249.17 163.92-11.818-9.467c-4.0361 0.56639-0.86322 6.5062-0.62257 7.1606l12.481 6.7685-0.0402-4.4621z" fill="#d20014"/>
<path d="m248.7 162-25.554-19.182-0.58707 0.59088 26.837 20.955-0.69613-2.3641z"/>
<path d="m221.93 141.81-0.45941-0.37447-0.12254-0.88441-3.9788-1.6617 2.2478 3.3141 1.2535 0.0131 0.45941 0.37447 0.60009-0.78102z"/>
<path d="m220.35 143.43c0.47297-0.83483 1.0597-1.689 2.2219-2.6034l1.2466 1.259-1.7958 2.1537-1.6727-0.8093z"/>
<path stroke="#0a328c" d="m218.92 146.64s0.15919 1.06 0.15919 1.06c0.33756-0.1883 3.5611-3.7258 3.5611-3.7258l2.586-0.47719 0.52682-0.83299c-1.7972-2.1136-3.713 0.69754-3.713 0.69754l-3.1201 3.2785z" fill="#0a328c"/>
<path stroke="#d20014" d="m220.97 148.54c-0.12263-0.98212 1.2194-3.8626 1.4552-3.9807 1.5465 0.45977 2.8934 1.1526 3.4623-2.0687-0.89718 1.6137-3.461 0.36219-3.461 0.36219l-0.85966 0.97906 0.12134 0.53096-2.61 3.3695 1.8919 0.80765z" fill="#d20014"/>
<path d="m236.22 161.65c-0.19061-0.046-18.517-10.442-18.517-10.442-1.3342 2.2526-0.12758 5.5206 0.45732 6.0289 0.0339 1.4999-0.60253 2.3065 0.7066 5.439 0.38609 2.0367 1.3284 3.9131 2.7002 5.0276 1.6711 6.4167 8.2223 6.8477 10.746 1.624l3.9074-7.6774z" fill="#0a328c"/>
<path d="m248.35 168.51-12.548-7.3547c-4.0361 0.56638 0.0855 8.0552 0.32619 8.7096l12.116 4.3041 0.10579-5.659z" fill="#d20014"/>
<path d="m246.24 165.85-28.35-15.089-0.48403 0.67221 29.904 16.647-1.0709-2.2299z"/>
<path d="m216.53 149.94-0.51447-0.30053-0.26444-0.85502-4.1993-1.0408 2.7575 2.934 1.2402-0.17626 0.51447 0.30053 0.46606-0.86198z"/>
<path d="m215.23 151.78c0.33178-0.89594 0.77277-1.8282 1.7724-2.9067l1.4354 1.0553-1.4244 2.3982-1.7833-0.54689z"/>
<path stroke="#0a328c" d="m214.1 155.18s0.59329 1.1668 0.59329 1.1668c0.3071-0.2318 3.0034-4.5782 3.0034-4.5782l2.492-0.81976 0.4691-1.0139c-2.0016-1.849-3.4974 1.3422-3.4974 1.3422l-3.0604 3.9028z" fill="#0a328c"/>
<path stroke="#d20014" d="m216.77 156.84c-0.20042-0.99867 0.48376-4.1968 0.70015-4.3454 1.5607 0.46564 2.8633 0.59786 3.2231-2.6221-0.90761 1.5294-3.3279 0.95334-3.3279 0.95334l-0.71005 1.085 0.14955 0.37953-2.0587 3.9508 2.0238 0.59882z" fill="#d20014"/>
</g>
<use xlink:href="#flags_half" transform="matrix(-1 0 0 1 499.86 0)"/>
</g>
<g id="tree">
<path stroke="#016a16" d="m248.76 125.6-0.46484 9.0701h2.8994l-0.42417-8.9916 3.0223-0.42447-0.33476-3.5823-7.5106 0.28993 0.042 3.2531 2.7705 0.38523z" fill="#016a16"/>
<g id="tree_half" fill="#016a16">
<path d="m249.82 121.9c-7.7638-7.7711-13.878-3.9792-15.334-2.9025 0.96228 0.18793 1.826-0.41145 2.273-0.48045-0.28013 0.35359-0.86579 1.2295-0.86579 1.2295s2.4006-1.1334 2.6688-1.0299c-0.34602 0.27599-0.72786 0.93628-0.72786 0.93628 0.1788 0.069 1.5288-1.0571 1.7954-1.0767-0.41123 0.46573-0.53888 1.5276-0.53888 1.5276l1.1697-0.54452c0.30396 0.21562-0.0845 0.63021 0.1798 0.60852 1.9441-0.15959 4.6777 1.7773 5.0532 2.3724"/>
<path d="m247.9 123.32c-0.80914-1.854-15.588-5.0051-18.56 0.24395 1.1631 0.29273 2.2757-0.97579 2.2757-0.97579l-0.10114 1.1709 1.9723-1.5125-0.708 1.5612 1.5677-1.2685-0.0506 1.2685 1.9217-2.0979-0.25285 1.2197 1.7194-0.73184-0.20229 1.0246"/>
<path d="m247.24 123.61c-3.7928-2.537-9.6591-0.82942-9.6591-0.82942-3.7423 2.0979-5.737 1.7195-6.2203 5.6108 0.354-0.14637 1.3654-1.3661 1.3654-1.3661l0.75857 1.5125 0.25285-2.1467 0.60686 1.6588 0.91028-2.7322 0.20228 1.854 1.416-1.854 0.65742 0.53668 0.60686-1.4149 0.55628 0.92699s0.96085-0.58547 1.5171-0.24394l1.062-1.2197 0.25286 0.8782 0.91028-1.0734 0.354 0.78063 0.91028-0.82942-0.0506 0.58547 3.1354 0.0488"/>
<path d="m246.38 124.05c-2.6433-0.0494-10.226 2.8116-12.188 5.8059 0.78094-0.43617 1.2625-0.63483 1.2625-0.63483l0.38693 1.2033 0.47279-1.2033 0.10114 0.927c0.28991-0.72391 0.61743-0.80561 1.1631-0.0488l0.20228-1.1222 0.30343 1.0734 0.50571-1.1709s0.31812 1.2691 0.50571 1.2197 0.83854-2.1944 1.2137-2.2931l0.10114 1.3661 0.50571-1.3661 0.45515 1.0246 0.10114-1.4637 0.50571 1.1222s0.2652-1.1034 0.65743-1.3173l0.75856 0.68305 3.3774-2.4267"/>
<path d="m246.89 124.68c-3.5211 1.3495-6.6703 6.1787-6.4291 8.2262 1.5646-1.9416 1.2276-1.6743 1.927 0.55939 0 0 0.26458-1.9543 0.52987-2.187l0.45923 1.4466 0.17053-1.892 0.46972 0.0217-0.12058-1.1866 0.69939 0.53515c-0.16335-0.6785-0.33764-0.90743 0.38588-1.4891 0 0-0.91645 0.11634-0.19294-1.5356l0.67528 0.65148s-0.12058-0.72128 0.12059-1.0005l2.4841-0.86089"/>
<path d="m247.23 125.04-1.3302 2.5337 0.68214 0.19743-1.5348 1.1517 1.2961-0.13162s-1.9782 0.72391-2.2169 2.6653l2.0123-0.88844s-1.7053 1.744-1.9441 2.7969l1.1596-1.02s-1.1255 1.2175-0.95499 3.0602l0.85267-0.95424c-0.20464 2.2375-0.13642 2.435 0.88678 4.146 0 0-0.27285-2.6324 0.0341-2.9614l2.251 2.3362-1.262-3.3234s1.3984 2.1059 2.251 1.9085l-1.7736-2.6982 1.7394 1.4149-1.9782-2.9614 1.8418 0.55938s-1.3302-1.6782-1.2278-2.7311l1.262 1.382s-0.4775-1.5794-0.34107-2.0401l0.64803 0.13162-1.262-1.4478 0.85267-0.16452-0.10232-0.95424 0.61392-0.19743-0.0341-1.053"/>
<path d="m248.56 125.8c-2.1828 2.9614-1.0573 7.5352-2.3534 9.8715"/>
</g>
<use xlink:href="#tree_half" transform="matrix(-1 0 0 1 499.86 0)"/>
<g id="trunk">
<path d="m250.94 166.54s1.1886-9.9448 1.1858-14.225c-0.002-3.3686-0.81392-10.835-0.81392-10.835h-3.417s-0.52001 7.429-0.44204 10.789c0.0994 4.2818 1.1858 14.271 1.1858 14.271h2.3014z"/>
<path d="m247.67 141.95h3.9596l-0.46487-2.6659h-2.8701l-0.62464 2.6659z"/>
<path d="m247.93 139.82h3.5385l-0.667-2.6659h-2.1795l-0.69202 2.6659z"/>
<path d="m248.16 137.66h2.949l-0.49856-2.6659h-1.8763l-0.5741 2.6659z"/>
<path d="m250.71 134.67h-2.0627l-0.20917 0.96419h2.4404l-0.1685-0.96419z"/>
<path d="m251.13 164.37h-2.6204"/>
<path d="m251.28 162.42h-2.9404"/>
<path d="m251.66 160.44h-3.7268"/>
<path d="m251.86 158.29h-3.9006"/>
<path d="m251.88 156.14h-4.1018"/>
<path d="m252.04 154.17h-4.4492"/>
<path d="m252.05 152.38h-4.6504"/>
<path d="m252.02 150.22h-4.6504"/>
<path d="m251.87 148.08h-4.495"/>
<path d="m251.66 145.91h-4.0652"/>
<path d="m251.47 143.96h-3.672"/>
</g>
<g id="cap">
<path stroke="#0a328c" d="m249.91 119.04c-0.68827-0.32391-2.2454-1.3126-1.7834-1.9028l0.71338-1.2145c1.0106-2.2766-0.0184-1.3946-0.12589-2.1052-0.10324-0.68238 3.8645-0.1495 3.9236 1.3967 0.0163 0.42592-0.2943 0.17596-0.25178 2.6113l-0.75534 1.4575c-0.56496 0.0526-1.234-0.0139-1.7205-0.24291z" fill="#0a328c"/>
<path d="m250.39 124.93-0.98614-0.82994 0.27276-7.1051 0.96516 0.28339-0.25178 7.6516z"/>
<path stroke="#d20014" d="m251.67 119.25c0.61915-0.36236 1.0244-1.443 0.65043-2.085-1.0161-1.2874-1.6737-0.7562-3.3781-1.336-0.3399 0.36203-1.0556 1.0587-0.90222 1.5789 2.2422 1.0556 1.3716 0.15654 2.1135 0.28804 0.39994 0.0709 0.65837 0.54508 1.5164 1.554z" fill="#d20014"/>
</g>
</g>
<g id="items">
<g id="i1">
<use xlink:href="#ip" transform="matrix(1 0 0 -1 -.0022613 320.37)"/>
<path stroke="#fff" stroke-width=".1811" stroke-linecap="round" d="m238.36 161.75c0 1.2987-0.81458 2.3528-1.8183 2.3528s-1.8183-1.054-1.8183-2.3528v-1.2765h3.6365v1.2765z" fill="#016a16"/>
<ellipse cy="160.06" rx="1.806" ry=".898" stroke="none" cx="236.54" fill="#fff"/>
<path stroke="#f1b517" d="m236.13 161.08-0.31022-3.2972h1.3819l-0.22561 3.2972h-0.84605z" fill="#016a16"/>
<path id="ip" d="m238.54 160.12c-0.26498 0.49319-1.0606 0.85208-1.9988 0.85208-0.9382-0.00001-1.728-0.35889-1.993-0.85208-0.0611 0.11381-0.0988 0.23335-0.0988 0.35877 0 0.66892 0.93708 1.2108 2.0918 1.2108s2.0918-0.54192 2.0918-1.2108c0-0.12542-0.0318-0.24496-0.093-0.35877z" stroke="#fff" stroke-linecap="round" stroke-width=".2373" fill="#016a16"/>
</g>
<g id="items_half">
<path id="cannon_base" d="m246.04 172.79-7.0601-2.1894-3.0762-5.2545-10.893-0.53517 0.3783 3.9407 9.279 1.7762 0.88243 1.5813 10.666 2.968-0.17658-2.2871z"/>
<g id="i2">
<path d="m238.66 174.25-11.148-16.398-0.54716 0.41156 11.06 16.467 0.63525-0.48015z" fill="#503200"/>
<path d="m228.55 158.5-1.1902-1.9918c-0.22281-0.36812-0.56118-0.49033-1.0584-0.22832-0.48411 0.25512-0.43705 0.75928-0.23987 1.123l1.1004 1.8521 1.388-0.75489z" fill="#fff"/>
</g>
<g id="cannon">
<path d="m239.99 164.13-22.496-2.2864-0.54691 3.2714 22.387 2.2513 0.6563-3.2362z"/>
<path d="m217.09 161-0.58337 4.5377h0.94798l0.6563-4.1508-1.0209-0.38693z"/>
<path d="m220.84 161.74-0.25522 4.0804 0.58337 0.0704 0.47399-3.6231-0.80214-0.52764z"/>
<path d="m236.08 163.49-0.54691 3.8342 1.0938-0.0352 0.43753-3.799h-0.98444z"/>
<path d="m239.44 163.6-0.77861 4.4342 1.2376 0.17939 0.35444-2.332c0.0995 0.46856 0.53095 0.82404 1.0459 0.82404 0.58851 0 1.0691-0.46369 1.0691-1.0315s-0.48063-1.0258-1.0691-1.0258c-0.40919 0-0.78043 0.23995-0.9413 0.68697l0.23242-1.6624-1.1505-0.0729z"/>
<path d="m231.32 164.32-3.0938 3.4822 0.36095 0.42285 3.9704-2.7112-1.2375-1.1939z"/>
<path d="m224.12 173 3.0938-3.4822-0.36094-0.42284-3.9704 2.7112 1.2375 1.1939z"/>
<path d="m232.22 172.13-3.7641-2.9102-0.38673 0.2736 2.9649 3.7558 1.186-1.1193z"/>
<path d="m222.94 165.41 3.8157 2.8107 0.46407-0.34823-2.9907-3.7558-1.2891 1.2934z"/>
<path d="m227.09 163.09 0.36461 4.5729 0.51357-0.0219 1.2071-4.4515-2.0853-0.0995z"/>
<path d="m228.34 174.19-0.3646-4.5729-0.56515-0.0528-0.69146 4.6256h1.6212z"/>
<path d="m233.4 168.03-4.7946 0.51005-0.0729 0.45729 4.8493 0.63317 0.0182-1.6005z"/>
<path d="m221.99 169.61 4.6808-0.73994 0.0987-0.36384-4.8418-0.54096 0.0622 1.6447z"/>
<ellipse cy="168.55" cx="227.69" rx="1.27" ry="1.225"/>
<path stroke-linecap="round" d="m234.44 168.55c0 3.592-3.0218 6.5073-6.745 6.5073s-6.745-2.9152-6.745-6.5073c0-3.592 3.0218-6.5073 6.745-6.5073s6.745 2.9153 6.745 6.5073zm-1.3474 0.00001c0 2.8745-2.4181 5.2073-5.3976 5.2073s-5.3975-2.3329-5.3975-5.2073c0-2.8744 2.4181-5.2073 5.3975-5.2073s5.3976 2.3329 5.3976 5.2073z" fill-rule="evenodd"/>
<path d="m223.48 165.26-1.057-0.79595"/>
<path d="m231.03 164.49 0.90236-0.92031"/>
<path d="m232.97 172.7-1.1086-0.87056"/>
<path d="m223.48 173.7 0.95392-1.0198"/>
</g>
<g id="axe">
<path d="m246.2 162.12 1.155 5.8864-0.94208 0.4962-1.0135-6.2984 0.8006-0.0842z"/>
<path d="m245.59 161.36c-0.53548-0.22387-1.2316 0.15498-2.374-1.2915-1.8783 1.722-0.10709 1.9803 0.17849 3.6852 0.53115 0.21828 0.85836-1.3228 2.3026-1.481 0.1785-0.0172 2.2978-0.20311 2.2978-0.20311s-0.53201-0.72513-0.53201-0.72513-1.474 0.0387-1.8729 0.0156z" fill="#fff"/>
<path d="m246.36 162.52-0.21419-1.7565c-0.23204-0.61993-0.99956-0.0861-0.99956 0.27552l0.19634 1.6187 1.0174-0.13776z" fill="#fff"/>
</g>
<path id="bugle" d="m240.76 167.37 0.0188 1.6369c-0.53573 0.18339-0.454 0.58498-0.43672 1.1685l0.0188 4.7711c-0.1901 0.31678-0.77767 0.33153-1.0542 0.5797-0.2765 0.24817-0.24194 0.72975 1.0196 1.0465l0.97557 0.0349c1.4862-0.32512 1.793-0.81731 1.0477-1.0948-0.39645-0.14764-0.91809-0.32374-1.1168-0.55716l0.033-1.1367 0.96456 0.0349c0.25923 0 0.7525-0.65168 0.76978-1.1852l0.005-2.4704c-0.0346-1.4005-1.0855-1.558-1.3793-1.5414l0.0204-1.2898-0.88602 0.003zm1.6306 2.7301c0.0173-0.40014-0.5556-0.75694-0.78631-0.76694s-0.73447 0.46683-0.75175 0.86697v1.0004c0.0346 0.3668 0.32755 1.6092 0.91592 1.7006 0.27872 0.0433 0.63942-0.40014 0.63942-0.76694l-0.0173-2.034z" fill-rule="evenodd"/>
<g id="i3" fill="#fff">
<path d="m234.28 172.33c-0.63643-0.25722-0.63028 1.1719-0.63028 1.1719l1.0028 0.0105c0.43862 0.19913 0.79146 0.84264 0.51178 1.1585-0.23124 0.26115-2.1773-0.44106-2.3079-0.0372 0.34401 1.9416 2.9168 2.6887 3.8477 1.8393 0.91051-0.83072 1.1411-3.0478-1.8175-3.6286l-0.60661-0.51433z"/>
<path d="m234.87 172.86-0.29241 0.63889"/>
</g>
<g id="small_flag">
<path d="m214.94 173.06-0.96325-4.0491"/>
<path d="m216.11 172.82-1.4793-3.153"/>
<path d="m218.66 171.99-3.337-1.7922"/>
<path d="m220.1 171.63-6.1923-2.6884"/>
<path stroke="#d20014" d="m210.22 166.01s-2.2538-0.0356-2.6557 0.122c-0.16218 0.0636 0.56688 0.82456 0.41552 1.1155-0.56308 1.0823-4.3943 0.93396-4.6972 0.69717-0.51817-0.4051 3.5683-0.75265 3.5952-1.0283 0.0308-0.31645-0.60433-1.1467-0.50585-1.6558 0.12777-0.66051 1.7885-0.90633 1.7885-0.90633l2.0595 1.6558z" fill="#d20014"/>
<path d="m213.23 168.05-5.1022-4.2221s-0.22478-0.2382-0.41282-0.0332c-0.18413 0.20074 0.0688 0.43146 0.0688 0.43146l5.2635 4.3478 0.18277-0.52399z" fill="#503200"/>
<path d="m218.15 172.22c-0.0903-0.0871-4.1552-3.6079-4.1552-3.6079l-0.27099-1.0283s-0.6278 0.42527-0.85814 0.64488-0.58715 0.81919-0.58715 0.81919l1.1382 0.0523 3.5952 3.2942 1.1382-0.1743z"/>
</g>
<g id="cannonballs">
<ellipse cy="177.06" cx="232.53" rx=".74" ry=".715"/>
<ellipse cy="175.72" cx="230.64" rx=".74" ry=".715"/>
<ellipse cy="176.59" cx="228.09" rx=".74" ry=".715"/>
<ellipse cy="177.44" cx="224.15" rx=".74" ry=".715"/>
<ellipse cy="177.64" cx="222.49" rx=".74" ry=".715"/>
<ellipse cy="177.64" cx="220.85" rx=".74" ry=".715"/>
<ellipse cy="177.59" cx="219.18" rx=".74" ry=".715"/>
<ellipse cy="176.32" cx="219.99" rx=".74" ry=".715"/>
<ellipse cy="176.4" cx="221.6" rx=".74" ry=".715"/>
<ellipse cy="176.2" cx="223.14" rx=".74" ry=".715"/>
<ellipse cy="174.96" cx="222.36" rx=".74" ry=".715"/>
<ellipse cy="174.94" cx="220.85" rx=".74" ry=".715"/>
</g>
<path id="chain" d="m236.47 177.99c0-0.31649-0.76859-0.18036-0.76859-0.55072 0-0.41154 1.1722-0.10903 1.3341 0.25303 0.65964-0.59607 0.94402-0.16037 1.3481 0.0197 0.57546-0.85539 1.287-0.82343 1.9813-0.19706 0.40146-0.44287 1.4097-0.29647 1.7566 0.19706 0.66466-0.6591 1.2549-0.49671 1.7158-0.0197 0.18538-0.34652 0.45745-0.2707 0.65363-0.0197 0.35414-0.62828 1.2421-0.43967 1.6158-0.0249 0.33231-0.36526 0.67271-0.08 1.1138 0.18982 0.29784-0.2787 0.77827-0.22616 0.77827 0.0509 0 0.28889-0.62779 0.18719-0.62779 0.4739 0 0.25579 0.45796 0.12646 0.45796 0.45 0 0.25469-0.67973 0.35017-0.78477-0.0559-0.23021 0.43971-1.0619 0.27088-1.1439-0.13794-0.27669 0.33403-0.89704 0.43568-1.246-0.0591-0.28657 0.23315-0.6295 0.26652-0.78695 0.0311-0.51709 0.55594-1.3887 0.4417-1.689-0.17117l-0.29346 0.0125c-0.50794 0.68971-1.3018 0.37107-1.5201-0.0104-0.8527 0.61519-1.3621 0.42145-1.8384 0.0197-0.54713 0.66665-1.3808 0.62012-1.5728 0-0.36819 0.26829-1.1364 0.33144-1.1364 0.0176 0-0.30068 0.65255-0.19137 0.65255-0.46876zm1.6546 0.14977c0 0.1432-0.19492 0.25942-0.43509 0.25942s-0.43508-0.11622-0.43508-0.25942 0.19491-0.25943 0.43508-0.25943 0.43509 0.11623 0.43509 0.25943zm1.8203-0.21792c0 0.17238-0.23462 0.31227-0.52371 0.31227-0.28908 0-0.52371-0.13989-0.52371-0.31227 0-0.17236 0.23463-0.31226 0.52371-0.31226 0.28909 0 0.52371 0.1399 0.52371 0.31226zm3.575 0.19716c0 0.1745-0.21232 0.31611-0.47392 0.31611s-0.47392-0.14161-0.47392-0.31611c0-0.17449 0.21232-0.31611 0.47392-0.31611s0.47392 0.14162 0.47392 0.31611zm-1.9034-0.083c0 0.22051-0.20766 0.39948-0.46353 0.39948s-0.46353-0.17897-0.46353-0.39948 0.20766-0.39948 0.46353-0.39948 0.46353 0.17897 0.46353 0.39948zm4.0596 0.0104c0 0.19712-0.18564 0.35711-0.41437 0.35711s-0.41436-0.15999-0.41436-0.35711c0-0.19713 0.18563-0.35711 0.41436-0.35711s0.41437 0.15998 0.41437 0.35711zm-1.2437 0.083c0 0.12739-0.11997 0.23078-0.26778 0.23078-0.14782 0-0.26778-0.10339-0.26778-0.23078s0.11996-0.23078 0.26778-0.23078c0.14781 0 0.26778 0.10339 0.26778 0.23078zm2.4218 0.0934c0 0.183-0.13521 0.33153-0.30181 0.33153s-0.30181-0.14853-0.30181-0.33153c0-0.18301 0.13521-0.33154 0.30181-0.33154s0.30181 0.14853 0.30181 0.33154z" fill-rule="evenodd"/>
</g>
<use xlink:href="#items_half" transform="matrix(-1 0 0 1 499.86 0)"/>
<g id="drum" stroke-width=".231">
<path stroke="#0a328c" d="m249.84 165.72c-2.5116 0-4.5496 0.94401-4.5496 2.1022 0 0.19861 0.0565 0.38965 0.1685 0.57178 0.54316 0.62909 2.3068 1.0875 4.3986 1.0875 1.9567 0 3.6243-0.40275 4.2765-0.9698 0.16439-0.21675 0.25566-0.44698 0.25566-0.6895 0-1.1582-2.038-2.1022-4.5496-2.1022z" fill="#0a328c"/>
<path stroke-width=".1869" d="m254.43 167.98v7.0581c0 0.82757-2.0484 1.4992-4.5724 1.4992s-4.5724-0.67165-4.5724-1.4992v-7.0581c0 0.82757 2.0484 1.4992 4.5724 1.4992s4.5724-0.67165 4.5724-1.4992z"/>
<path stroke="#d20014" stroke-width=".1826" d="m245.28 167.98v1.0819l2.2196 6.8446 1.7722-5.2638 1.9465 5.4656 1.4243-5.1588 1.7831 3.4681v-1.9193l-1.656-3.3634c-0.18576 0.0506-0.38384 0.094-0.59268 0.13454l-1.0285 3.8119-1.4468-3.6045c-0.24229-0.003-0.48334-0.008-0.7147-0.0224l-1.4526 3.6269-1.6618-4.3669c-0.37558-0.21764-0.59267-0.46661-0.59267-0.73436z" fill="#d20014"/>
<path stroke="#0a328c" stroke-width=".1869" d="m254.43 173.72v1.3178c0 0.82757-2.0484 1.4992-4.5724 1.4992s-4.5724-0.67165-4.5724-1.4992v-1.3178c0 0.82757 2.0484 1.4992 4.5724 1.4992s4.5724-0.67165 4.5724-1.4992z" fill="#0a328c"/>
<path stroke-width=".1869" d="m251.74 175.08c-0.37176 0.0553-0.76859 0.0967-1.1854 0.11772l0.0116 1.3174c0.41688-0.0214 0.81373-0.062 1.1854-0.11773l-0.0116-1.3174z"/>
<path stroke-width=".1869" d="m246.87 174.86-0.0116 1.3117c0.35286 0.10094 0.74975 0.18477 1.1853 0.24666v-1.3174c-0.43047-0.0611-0.82391-0.1417-1.1737-0.24104z"/>
<path stroke-width=".1869" d="m245.28 173.72v1.3174c0 0.24576 0.18539 0.47354 0.50551 0.67829l0.0232-1.3005c-0.33594-0.20864-0.52875-0.44293-0.52875-0.69512z"/>
<path stroke-width=".1869" d="m254.43 173.86-0.0232 0.006c-0.0801 0.26749-0.37874 0.51556-0.8309 0.72315l0.006 1.3117c0.53035-0.2448 0.84834-0.54036 0.84834-0.86328v-1.1772z"/>
<path stroke-width=".1869" d="m254.43 168.03v7.012c0 0.82757-2.0484 1.4992-4.5724 1.4992s-4.5724-0.67165-4.5724-1.4992v-7.012" fill="none"/>
<path stroke="#fff" stroke-width=".1916" d="m253.39 167.52c0 0.50111-1.5838 0.90734-3.5374 0.90734-1.9537 0-3.5374-0.40623-3.5374-0.90734s1.5838-0.90734 3.5374-0.90734c1.9536 0 3.5374 0.40623 3.5374 0.90734z" fill="#fff"/>
<path d="m248.7 168.19 0.15688 1.2501c0.30701 0.0223 0.62606 0.0382 0.95293 0.0392l0.23242-1.2893h-1.3422z"/>
<path d="m252.8 167.89-0.91225 0.24665 0.0581 1.1772c0.3102-0.0525 0.60208-0.11708 0.86576-0.1906l-0.0116-1.2333z"/>
<path d="m247.4 165.98c-0.25878 0.0764-0.50082 0.16525-0.7205 0.26347l0.12783 0.94417 0.58105-0.18499 0.0116-1.0226z"/>
<path d="m249.84 165.61c-0.12168 0-0.24098 0.007-0.36025 0.0112l0.19756 1.1825 0.60429-0.0112 0.23823-1.1545c-0.22219-0.0155-0.44837-0.028-0.67983-0.028z"/>
<path d="m252.51 166.02-0.12203 1.0337 0.69146 0.24441 0.0755-1.0146c-0.19636-0.0968-0.41236-0.18511-0.64496-0.26347z"/>
<path stroke-width=".1826" d="m245.99 168.8 0.18421-1.2876-0.93496-0.50634 0.0278 1.4654 0.72294 0.32861z"/>
<path stroke-width=".1826" d="m254.4 168.52 0.0417-1.2876-0.87584 0.26154 0.83413 1.026z"/>
</g>
<g id="helmet">
<path d="m263.69 160.03c0.83083-0.11451 2.0624 1.0245 2.1364 2.4333 0.0587 1.1179-1.6913 1.0592-1.6913 1.0592-0.089 0.45803-1.0541 0.88186-1.8397 0.91606-0.76216 0.0332 0.20771-1.4314 0.20771-1.4314-0.47476-1.2596 0.14836-2.7482 0.14836-2.7482l1.0386-0.22902z"/>
<path d="m262.5 162.95 0.80116-0.0286s0.0613 0.41314 0.20771 0.42941c0.15745 0.0175 0.3264-0.40078 0.3264-0.40078l1.2166-0.0286"/>
<path stroke="#f1b517" d="m264.13 160.86c0.67974-0.49144 0.084-1.4803-0.38575-1.4886l-1.0979 0.0286c-0.51741 0.0107-1.3922 0.57267-1.2759 1.0592 0.10134 0.42425 0.38608 0.61772 0.83083 0.54391 0.20197-0.0335 0.62612-0.56336 0.83084-0.57254 0.27465-0.0123 0.87787 0.58848 1.0979 0.4294z" fill="#d20014"/>
</g>
<path id="anchor" d="m214.24 174.86c-0.61672 0.078-0.73098 0.78846-0.4997 1.4407-2.6864 0.7552-5.0863 1.7394-7.4549 2.4049-0.0953-0.4735 1.1737-1.8443 1.1737-1.8443 0.33571 0.16194 0.58686 0.93056 0.58686 0.93056 0.0839-1.5789 1.6386-2.6291 1.6386-2.6291-0.9232-0.12146-3.7316 0.96732-4.0674 1.4126 0 0 1.0872-0.12146 1.2551 0 0 0-2.1409 2.3117-2.237 2.9991 0.33303 0.75114 4.0267 1.3118 4.0267 1.3118-0.0583 0.19445-1.0866 0.93056-1.0866 0.93056 1.4691 0.32268 3.6847-0.71797 4.3463-1.351 0 0-1.7281-0.14248-3.0738-1.2333 0 0 0.2775 0.67919 0.1104 1.0034 0 0-2.0994-0.60528-2.3184-0.95297 0.006-0.0301 4.966-1.3147 7.3677-2.0013 0.0889 0.42909 0.56583 1.2398 1.1389 1.0483 0.37379-0.12492 0.25537-0.8657 0.11621-1.3902 0.13517 0.11606 0.31047 0.18499 0.50551 0.18499 0.42228 0 0.76699-0.32696 0.76699-0.73435 0-0.4074-0.34471-0.73996-0.76699-0.73996-0.33769 0-0.61915 0.21145-0.7205 0.50452-0.0956-0.45275-0.34512-1.3535-0.80766-1.2949zm1.8887 1.5278c0 0.19057-0.16032 0.34523-0.35785 0.34523s-0.35784-0.15466-0.35784-0.34523 0.16031-0.34524 0.35784-0.34524 0.35785 0.15467 0.35785 0.34524z" fill-rule="evenodd"/>
<g id="i4">
<path d="m293.07 177.88c0.18296-0.36659-0.16181-2.2118-0.16181-2.2118-0.37288 0.0414-0.88217 0.68114-0.88217 0.68114 0.48088-1.5114-0.86509-4.0376-0.86509-4.0376 0.91058 0.1905 3.9454 3.1283 4.103 3.6575 0 0-1.329-0.47414-1.5298-0.4154 0.21676 1.5057 1.258 2.2054 1.6492 2.9882 0 0-1.7257 0.37897-1.5523 1.8219l-1.1272 0.0209c-0.39017-0.48099 0.15174-1.2757 0.15174-1.2757l-7.7385-3.2415c-0.49856-0.20913-1.6204-0.71815-1.4523-1.3175 0.16946-0.6043 2.0159 0.25096 2.4711 0.39734l6.9342 2.9323z"/>
<path d="m285.64 176.54 0.91042-1.673c0.32514-0.43916-0.34683-0.92015-0.82371-0.35551l-1.0188 1.5266c-0.4552 0.83651 0.49856 1.0666 0.93209 0.50191z"/>
</g>
</g>
<g id="motto">
<g fill="#fff">
<path d="m231.37 180.37-0.0631-1.8248-2.2068 0.12166-0.1261 1.987 2.3959-0.28387z"/>
<path d="m215.24 182.92-2.9508-1.6551c12.169 1.1152 14.654-3.1292 17.594-3.3562 1.8076-0.14118 2.0898 2.0019-1.4128 0.98242l0.90579 2.2414s-8.6385 4.8595-17.129 2.8522l2.9928-1.0647z"/>
<path d="m268.25 180.37 0.063-1.8248 2.6992 0.0623 0.1261 1.987-2.8884-0.22448z"/>
<path d="m284.94 182.48 2.7767-1.5151c-13.939 0.41529-10.765-2.2893-17.739-3.0482-1.8021-0.1953-3.1568 2.1207 1.4128 0.98242l-0.90579 2.2414s2.1922 0.002 2.1922 0.002c4.748 3.1266 11.156 3.4058 15.401 2.4021l-3.1379-1.0647z"/>
<path d="m228.42 178.91v3.1542s7.728 2.8675 21.519 2.8675c13.85 0 21.519-2.8675 21.519-2.8675v-3.1542s-5.849 2.6954-21.519 2.6954c-15.61 0-21.519-2.6954-21.519-2.6954z"/>
</g>
<path stroke="none" d="m229.57 182.08 0.68194-2.3093 0.31676 0.0871-0.60146 2.0368 1.1789 0.32402-0.0805 0.27252-1.4956-0.41108zm2.2364-1.0155 0.0381-0.45359 0.10174-0.38911 0.33747 0.0821-0.10174 0.38911-0.1928 0.41593-0.18273-0.0445zm3.3252-0.15591 0.32275 0.0634-0.28686 1.3594c-0.0499 0.23647-0.11725 0.41881-0.20205 0.54702s-0.20878 0.22171-0.37192 0.28049c-0.16314 0.0588-0.36227 0.0651-0.5974 0.0189-0.22847-0.0449-0.40734-0.11956-0.5366-0.22407-0.12926-0.1045-0.20976-0.23481-0.2415-0.39093-0.0317-0.15611-0.0213-0.35882 0.0313-0.60813l0.28685-1.3594 0.32275 0.0634-0.28652 1.3578c-0.0431 0.20437-0.0552 0.35884-0.0363 0.46341s0.0708 0.19249 0.15571 0.26376c0.0849 0.0713 0.19663 0.12052 0.33527 0.14775 0.23734 0.0466 0.41743 0.0279 0.54026-0.056 0.12283-0.084 0.2154-0.27362 0.27771-0.56894l0.28652-1.3578zm0.36326 2.5101 0.40178-2.3697 0.33342 0.0526 0.97468 2.0641 0.31545-1.8605 0.31164 0.0492-0.40178 2.3697-0.33342-0.0526-0.9744-2.0657-0.31573 1.8622-0.31164-0.0492zm2.5412 0.38367 0.34172-2.3785 0.32625 0.0436-0.34173 2.3785-0.32624-0.0436zm0.9374-1.0491c0.0469-0.39598 0.19381-0.69384 0.44075-0.89358 0.24694-0.19973 0.54471-0.28038 0.89332-0.24196 0.22827 0.0252 0.42783 0.10047 0.59866 0.22591 0.17084 0.12544 0.29318 0.28758 0.36704 0.4864 0.0739 0.19883 0.0966 0.41759 0.0684 0.65626-0.0286 0.24193-0.10489 0.45279-0.22871 0.63258-0.12382 0.17978-0.28432 0.30854-0.48149 0.38627-0.19718 0.0777-0.40316 0.10475-0.61794 0.0811-0.23278-0.0257-0.43439-0.10284-0.60484-0.23154-0.17044-0.12869-0.29178-0.29209-0.36402-0.49019-0.0722-0.1981-0.0959-0.40184-0.0711-0.61123zm0.33678 0.0421c-0.0341 0.28749 0.0192 0.5228 0.15989 0.70591 0.14065 0.18311 0.33186 0.28799 0.57364 0.31464 0.24627 0.0272 0.45885-0.034 0.63776-0.18358 0.17891-0.14953 0.28654-0.37781 0.32291-0.68483 0.023-0.1942 0.009-0.36746-0.0418-0.5198-0.0509-0.15233-0.13711-0.27559-0.25867-0.36977-0.12156-0.0942-0.26387-0.15026-0.42692-0.16823-0.23166-0.0255-0.44007 0.0293-0.62524 0.16435-0.18517 0.1351-0.29903 0.38221-0.34155 0.74131zm2.3084 1.4162 0.2028-2.3932 0.33674 0.0266 1.1437 1.9818 0.15922-1.879 0.31474 0.0248-0.20281 2.3932-0.33673-0.0266-1.1436-1.9834-0.15937 1.8806-0.31473-0.0248zm3.4892 0.24265 0.10868-2.3989 1.6775 0.0707-0.0128 0.28309-1.3484-0.0569-0.0336 0.74292 1.1669 0.0492-0.0128 0.28309-1.1669-0.0492-0.0494 1.0898-0.32905-0.0139zm1.8335 0.0783 1.0038-2.3829 0.35477 0.007 0.97029 2.4198-0.37513-0.007-0.27567-0.73253-1.0405-0.0194-0.28787 0.722-0.34968-0.007zm0.7378-0.97244 0.84363 0.0157-0.24637-0.66973c-0.0752-0.20345-0.13067-0.3705-0.16654-0.50113-0.0348 0.15334-0.0825 0.30535-0.1433 0.45603l-0.28742 0.69907zm1.9137 1.0107 0.005-2.4012 0.32936 0.00054-0.005 2.4012-0.32937-0.00054zm1.542-0.007-0.0313-2.1176-0.81994 0.0113-0.004-0.28333 1.9726-0.0271 0.004 0.28333-0.82333 0.0113 0.0313 2.1176-0.32933 0.005zm2.4422-0.0577-0.1164-2.3986 0.32901-0.0148 0.10266 2.1155 1.2244-0.0553 0.0137 0.28305-1.5534 0.0702zm1.6747-0.073 0.77655-2.4607 0.35394-0.0243 1.1929 2.3253-0.37425 0.0257-0.34315-0.7055-1.0381 0.0714-0.21908 0.74414-0.34885 0.024zm0.6437-1.0328 0.84166-0.0579-0.30809-0.64551c-0.0939-0.19606-0.16484-0.35758-0.21279-0.48456-0.0203 0.15575-0.0536 0.3113-0.10001 0.46665l-0.22077 0.72127zm2.9217 0.75811-0.27296-2.3867 1.669-0.17765 0.0322 0.28165-1.3416 0.14281 0.0845 0.73913 1.161-0.12358 0.0322 0.28165-1.161 0.12359 0.124 1.0843-0.32738 0.0349zm1.8251-1.3702c-0.0584-0.39457 0.006-0.71858 0.19234-0.97205 0.18659-0.25346 0.45356-0.40411 0.80091-0.45194 0.22746-0.0313 0.44026-0.007 0.63841 0.0726 0.19815 0.0797 0.359 0.20675 0.48255 0.38111 0.12354 0.17436 0.20291 0.38045 0.23809 0.61827 0.0357 0.24107 0.0171 0.46367-0.0556 0.66781s-0.19425 0.36785-0.36465 0.49114c-0.17041 0.12329-0.36262 0.19966-0.57664 0.22913-0.23194 0.0319-0.44722 0.006-0.64585-0.0765-0.19863-0.083-0.35884-0.21146-0.48063-0.38551-0.12178-0.17406-0.19811-0.3654-0.22897-0.57403zm0.33686-0.0414c0.0424 0.28646 0.1556 0.50113 0.33965 0.644 0.18406 0.14286 0.39654 0.19771 0.63745 0.16454 0.24538-0.0338 0.43503-0.14483 0.56896-0.33314 0.13392-0.1883 0.17825-0.43541 0.133-0.74134-0.0286-0.19349-0.0875-0.35773-0.17665-0.49271-0.0891-0.13498-0.20485-0.23321-0.34714-0.29469-0.14229-0.0615-0.29467-0.081-0.45714-0.0587-0.23082 0.0318-0.41811 0.13561-0.56188 0.31148-0.14376 0.17588-0.18918 0.44272-0.13625 0.80053zm2.6138 0.80601-0.4445-2.3626 1.0858-0.19014c0.21827-0.0382 0.38819-0.0461 0.50977-0.0235 0.12158 0.0225 0.22644 0.0816 0.31458 0.17713 0.0881 0.0956 0.14445 0.20832 0.16891 0.33832 0.0315 0.16761 0.002 0.31874-0.089 0.4534-0.0909 0.13466-0.25083 0.23814-0.47995 0.31044 0.0932 0.0247 0.16576 0.0525 0.21758 0.0834 0.11042 0.0672 0.21978 0.15629 0.32807 0.26717l0.54695 0.56843-0.40759 0.0714-0.41655-0.43479c-0.12135-0.12524-0.21972-0.2201-0.29512-0.28459-0.0754-0.0645-0.14015-0.10752-0.19425-0.12912s-0.10733-0.0339-0.15966-0.037c-0.0382-0.001-0.099 0.006-0.18254 0.0203l-0.37585 0.0658 0.19739 1.0492-0.32407 0.0568zm0.0757-1.3766 0.69658-0.12199c0.14812-0.0259 0.26116-0.061 0.33912-0.10516 0.078-0.0442 0.13255-0.10256 0.16375-0.17517 0.0312-0.0726 0.0396-0.14705 0.0253-0.22333-0.021-0.11174-0.0804-0.19624-0.17797-0.2535-0.0976-0.0573-0.2372-0.07-0.41872-0.0382l-0.7751 0.13573 0.14706 0.78163zm3.9312-0.26168 0.33959 0.009c-0.008 0.26923-0.0838 0.4897-0.22765 0.66141-0.14382 0.17171-0.34216 0.28502-0.59502 0.33993-0.2617 0.0568-0.48653 0.0517-0.67449-0.0155s-0.34748-0.18896-0.47854-0.36533c-0.13107-0.17636-0.2227-0.3764-0.2749-0.60011-0.0569-0.24395-0.0583-0.46723-0.004-0.66985 0.0542-0.20262 0.15952-0.37043 0.31585-0.50344s0.3416-0.22278 0.55582-0.2693c0.24293-0.0528 0.46112-0.0375 0.6546 0.0459 0.19347 0.0833 0.34801 0.22607 0.46362 0.42817l-0.29958 0.14061c-0.0961-0.15821-0.20676-0.26457-0.33201-0.31908-0.12525-0.0545-0.26904-0.0641-0.43136-0.0289-0.18661 0.0405-0.33251 0.11755-0.4377 0.23105-0.1052 0.11351-0.16622 0.24849-0.18309 0.40493-0.0169 0.15644-0.007 0.3119 0.0288 0.46637 0.0465 0.19921 0.11715 0.36658 0.212 0.50212 0.0949 0.13554 0.21436 0.22627 0.35849 0.2722 0.14414 0.0459 0.29018 0.0528 0.43815 0.0207 0.17998-0.0391 0.32068-0.12225 0.42209-0.24949 0.10141-0.12723 0.1512-0.29419 0.14939-0.50086zm0.91487 0.65288-0.66928-2.3128 1.7333-0.46687 0.079 0.27293-1.4161 0.38142 0.20498 0.70835 1.3262-0.3572 0.0785 0.27134-1.3262 0.3572 0.22781 0.78723 1.4717-0.3964 0.079 0.27292-1.7889 0.48185z" fill="#000"/>
</g>
</g>
</svg>
