<svg viewBox="0 0 640 480" xmlns="http://www.w3.org/2000/svg" version="1">
<defs>
<clipPath id="a">
<path d="m-87.62 0h682.67v512h-682.67z" fill-opacity=".67"/>
</clipPath>
</defs>
<g clip-path="url(#a)" transform="matrix(.94 0 0 .94 82.14 0)" fill-rule="evenodd">
<path d="m619.43 512h-731.43v-512h731.43z" fill="#fff"/>
<path d="m619.43 115.23h-731.43v-67.227h731.43zm0 350.45h-731.43v-67.227h731.43zm-483-274.9l110.12 191.54 112.49-190.75-222.61-0.79z" fill="#00c"/>
<path d="m225.75 317.81l20.95 35.506 21.4-35.36-42.35-0.145z" fill="#fff"/>
<path d="m136.02 320.58l110.13-191.54 112.48 190.75-222.61 0.79z" fill="#00c"/>
<path d="m225.75 191.61l20.95-35.506 21.4 35.36-42.35 0.145zm-43.78 79.5l-21.64 35.982 40.9-0.127-19.26-35.855zm-21.27-66.5l41.225 0.29-19.834 36.26-21.39-36.55zm151.24 66.91l20.83 35.576-41.71-0.533 20.88-35.043zm20.45-66.91l-41.225 0.29 19.84 36.26 21.39-36.55zm-114.27-0.04l-28.394 51.515 28.8 50.297 52.73 1.217 32.044-51.515-29.61-51.92-55.572 0.405z" fill="#fff"/>
</g>
</svg>
