<svg viewBox="0 0 640 480" xmlns="http://www.w3.org/2000/svg">
<defs>
<clipPath id="a">
<path d="M-77.62 0h682.67v512H-77.62z" fill-opacity=".67"/>
</clipPath>
</defs>
<g transform="translate(72.77) scale(.94)" clip-path="url(#a)">
<path fill="#ba0000" d="M629.43 512H-102V0h731.43z" fill-rule="evenodd"/>
<path d="M281.02 376.01c.2-.605.603-6.844.402-6.844s-9.46-10.867-9.258-10.867c.202 0 11.874 2.61 11.874 2.21 0-.4 4.63-11.47 4.63-11.67 0-.2 5.634 13.48 5.634 13.48l11.47 5.03-8.05 6.64s1.813 12.88 1.813 13.08c0 .2-8.05-7.65-8.05-7.65l-8.857 1s-1.206-4.03-1.608-4.43z" fill-opacity=".988" fill-rule="evenodd" stroke="#000" stroke-width="2.204" fill="#ffef00"/>
<path stroke="#000" stroke-width="2.636" fill="#fff" d="M218.66 206.89c-7.647 3.938-36.996 37.486-41.02 42.718-3.373 7.596-9.97 17.205-16.763 23.39-7.252 5.488-11.282 12.983-10.284 20.08-.08 8.83 4.87 14.842 8.814 21.056 2.335 2.838 5.475 4.673 8.815 4.896 6.85.905 7.458 3.014 10.887 4.32 13.5 18.39 33.65 31.95 48.16 42.69 9.25 4.876 15.68 9.75 17.88 12.412 4.25 8.112 3.46 16.022 2.88 19.908a59405.8 59405.8 0 0 1-10.78 40.646c-1.82 11.07 7.8 8.58 8.32 6.366 4.34-5.635 10.82-1.678 20.07-34.28 4.24-5.713 8.49-11.426 12.73-17.14 0 0 4.9-1.958 4.9-2.447 7.44-8.942 1.77-14.06-2.45-15.67l-9.31-3.43s-10.78-10.772-11.27-10.772c-5.12-14.893-30.25-46.687-36.09-51.114-4.04-4.21-5.96-6.01-9.8-8.35-5.9-2.82-7.8-3.74-11.41-5.18-3.01-1.21-.87-4.51 1.05-6.02 19.9-10.84 35.68-22.88 54.78-35.12l2.94-1.96-6.86-39.18-31.83-11.27c-1.67 1.14-2.94 2.28-4.41 3.43z" fill-rule="evenodd"/>
<path fill="#ffec00" d="M245.29 413.15c.1-.402 19.923-4.025 19.923-4.025s-2.314 7.346-2.415 7.346l-19.72 5.94 2.212-9.25z" fill-rule="evenodd"/>
<path stroke="#000" stroke-width="2.204" d="M193.64 338.51c3.824-10.163 14.438-18.21 21.568-20.43" fill="none"/>
<path stroke="#000" stroke-width="2.437" d="M244.58 413.32c1.28-.36 6.96-2.018 8.616-2.276 1.765-.414 3.523-.876 5.22-1.424 1.96-.4 3.186-.768 5.22-1.14 1.595-.607 3.17-1.024 4.874-1.422m-27.52 18.518c.167-.22 1.517-1.415 2.487-1.992 1.143-.36 5.05-2.018 6.527-2.276a53.935 53.935 0 0 0 4.662-1.424c1.75-.4 2.845-.768 4.663-1.14 1.42-.607 2.83-1.023 4.35-1.422" fill="none"/>
<path stroke="#000" stroke-width="2.204" d="M249.04 341.38h-.284c.89 0 .344-.074-.855 1.423-.42 1.15-4.08 3.7-6.83 3.7-1.32.142-3.36.284-4.69.284-.38 0-.9-.284-1.28-.284m13.66 53.52h1.42c1.48 0 2.96.263 4.27.284 1.43 0 2.85.404 4.27.404 1.44.21 3.17.14 4.66.35 1.67.06 3.01.39 4.74.39 1.4.06 2.15.29 3.7.29l-3.7-.28c1.4.06 2.15.29 3.7.29m-32.73 33.01c.15-.22 1.39-1.41 2.28-1.99 1.05-.36 4.63-2.02 5.98-2.27a46.72 46.72 0 0 0 4.27-1.42c1.61-.4 2.61-.77 4.27-1.14 1.31-.61 2.59-1.02 3.99-1.42m5.87-41.22c-.8 2.34.24 2.93.67 3.94.75.98 2.67 2.47 5.7 3.42 1.17.32 2.07.62 3.42 1.14.89.08 1.33.31 1.99.57m-124.37-94.78h.28c-.89 0-.36.06 1.14-1.14.92-1.03 1.7-1.5 2.56-2.56m14.44 23.97c.19 0 16.56-8.25 18.31-10.01 1.24-.9 2.18-1.84 3.68-2.86.97-.5 1.66-1.15 2.56-1.71.75-1.09 1.74-1.74 2.28-2.74 1.01-.87.58-1.82 1.39-2.87.39-1.07 1.11-2.88 1.34-3.87m20.82 12.2c.09.59-.26 2.4-.23 3.78-.05 1.6-2.11 6.55-4.6 8.02" fill="none"/>
<path stroke="#000" stroke-width="2.204" d="M192.55 307.82c.096 0 2.587.81 6.75 2.09 5.013 1.803 15.438 8.372 16.472 9.277 1.057.83 2.946 1.573 3.67 2.56 1.133.98 1.962 2.108 2.847 3.13 1.04 1.27 1.92 2.342 2.56 3.417 3.16 2.567 11.68 20.343 11.95 21.346.48.94 1.07 2.246 1.42 3.13.63.728 1.06 1.756 1.7 2.847.59 1.415 1.26 2.06 1.99 3.13.94.656 2.21 1.9 3.41 2.562 1.28 1.09 2.48 1.54 3.41 2.27 1.34.57 16.34 10.05 17.04 10.52 1.37 1.1 5.55 5.43 2.61 8.59-1.25 1.06-2.37 2.48-3.43 3.08-1.09 1.08-2.6 1.57-3.84 2.13-6.76 1.99-10.2 1.28-11.53 1.28h-1.43M159.4 274.27c1.92.752 1.145.2 2.874.984 1.163.51 1.93.522 3.07.94 1.21.387 4.6.997 6.224 2.63 1.197 1.08 2.108 1.99 3.42 2.776 1.55 1.07 2.67 1.546 4.59 2.348 1.62.606 3.433 1.28 5.073 1.34 1.71.1 2.12.012 3.75.012h3.99-3.99 3.99" fill="none"/>
<path stroke="#000" stroke-width="2.204" fill="#ffe606" d="M158.96 293.28c4.268-.284 11.383.997 11.525.997l9.393-.142c4.934-.476 6.024-2.373 6.83-3.702 1.85-2.845 3.132-3.84 4.555-5.976 2.276-1.707 5.41 2.277 5.55 2.277 7.97 7.543 1.565 16.792 1.138 17.076-3.98 3.653-4.83 3.89-7.25 1.565-2.42-2.846-3.13-4.126-5.12-5.123-3.84-1.85-11.81-.426-11.95-.426-.14 0-4.12 1.565-4.12 1.565-1.94.72-3.18 2.42-6.54 2.99-3.41.24-4.55-.09-6.26-2.84-2.27-3.55-1.14-7.82 2.28-8.25z" fill-rule="evenodd"/>
<path d="M381.8 120.66c-.625.122-6.26 2.828-6.162 3.004s-4.837 13.57-4.936 13.395c-.1-.18-3.54-11.64-3.89-11.44-.35.19-12.267 1.58-12.443 1.68-.18.09 8.99-11.52 8.99-11.52l-1.24-12.47 9.73 3.76s10.34-7.89 10.51-7.99c.17-.1-2.72 10.76-2.72 10.76l5.22 7.22s-2.92 3.02-3.07 3.57z" fill-opacity=".988" fill-rule="evenodd" stroke="#000" stroke-width="2.204" fill="#ffef00"/>
<path stroke="#000" stroke-width="2.636" fill="#fff" d="M264.93 257.9c7.18 4.736 50.806 13.878 57.34 14.822 8.274-.783 19.883.257 28.605 3.148 8.337 3.632 16.845 3.472 22.542-.876 7.737-4.258 10.552-11.52 14.035-18.003 1.33-3.42 1.39-7.06-.052-10.08-2.57-6.41-1.028-7.98-1.57-11.6 9.41-20.78 11.356-44.99 13.608-62.9-.284-10.45.814-18.44 2.054-21.67 4.988-7.68 12.267-10.87 15.94-12.27l40.71-10.53c10.537-3.84 3.652-11.01 1.47-10.37-7.04-1.02-6.766-8.61-39.72-.7l-21.18-2.7s-4.11-3.31-4.536-3.07c-11.444-2.11-13.126 5.35-12.458 9.82l1.57 9.79s-4.11 14.67-3.87 15.1c-10.473 11.76-26.062 49.53-27.06 56.79-.473 6.82-3.048 5.59-2.357 12.22.03 5.18-.57 1.95 1.16 12.62.42 3.22-3.5 2.97-5.76 2.04-19.2-12.04-37.42-19.89-57.46-30.53l-3.14-1.6-30.78 25.18 5.78 33.27c1.82.9 3.44 1.44 5.15 2.16z" fill-rule="evenodd"/>
<path fill="#ffec00" d="M431.67 133.6c-.4.11-13.273-15.394-13.273-15.394s7.538-1.583 7.587-1.495l14.84 14.29-9.154 2.61z" fill-rule="evenodd"/>
<path stroke="#000" stroke-width="2.204" d="M391.93 215.21c-10.733 1.648-22.95-3.66-28.38-8.787" fill="none"/>
<path stroke="#000" stroke-width="2.437" d="M432.18 134.14c-.94-.94-5.17-5.08-6.207-6.395a66.484 66.484 0 0 0-3.8-3.853c-1.308-1.51-2.23-2.4-3.55-3.992-1.31-1.09-2.447-2.26-3.63-3.55m29.63 14.91c-.275-.034-1.978-.626-2.956-1.19-.874-.82-4.234-3.41-5.183-4.573a54.21 54.21 0 0 0-3.525-3.366c-1.21-1.33-2.07-2.1-3.28-3.5-1.23-.94-2.28-1.96-3.38-3.09" fill="none"/>
<path stroke="#000" stroke-width="2.204" d="M367.28 165.51l.14.248c-.437-.777-.234-.263 1.66.047 1.21-.192 5.223 1.743 6.57 4.14.776 1.09 1.9 2.797 2.55 3.956.186.33.194.93.38 1.26m39.95-38.14l-.14-.25c.187.34-.37-.66-.557-.99-.723-1.28-1.22-2.7-1.845-3.86-.697-1.24-1.043-2.68-1.74-3.92-.527-1.35-1.433-2.83-1.977-4.22-.76-1.48-1.13-2.8-1.98-4.32-.64-1.24-.8-2.01-1.56-3.36l1.57 3.37c-.64-1.24-.8-2.01-1.56-3.36m44.82 12.36c-.26-.02-1.91-.51-2.85-1.01-.83-.73-4.02-3.04-4.91-4.09a47.07 47.07 0 0 0-3.33-3.02c-1.13-1.2-1.94-1.89-3.08-3.16-1.17-.83-2.16-1.75-3.19-2.77m-38.81 15.07c2.44-.44 2.44-1.64 3.1-2.51.49-1.13.85-3.53.19-6.63-.3-1.17-.47-2.11-.68-3.54-.37-.82-.39-1.31-.48-2.01m-21.66 154.87l-.14-.25c.44.78.23.29-1.55-.43-1.35-.3-2.14-.74-3.49-.98m13.82-24.34c-.09-.16-15.3-10.39-17.7-11.05-1.39-.64-2.67-.99-4.3-1.8-.91-.59-1.82-.88-2.74-1.4-1.32-.12-2.37-.65-3.51-.64-1.25-.45-1.86.39-3.18.2-1.12.19-3.05.45-4.03.73m.46-24.17c.47-.36 2.22-.95 3.41-1.64 1.43-.73 6.74-1.36 9.25.08" fill="none"/>
<path stroke="#000" stroke-width="2.204" d="M365.71 231.2c-.047-.084-.562-2.652-1.486-6.91-.886-5.252-.268-17.558.013-18.904.207-1.328-.072-3.34.433-4.454.298-1.466.876-2.743 1.334-4.015.596-1.528 1.097-2.826 1.723-3.906.686-4.01 12.008-20.15 12.75-20.88a43.017 43.017 0 0 1 2.03-2.77c.325-.9 1.01-1.78 1.645-2.88.94-1.21 1.177-2.11 1.752-3.27.11-1.14.57-2.86.558-4.23.328-1.65.127-2.92.312-4.09-.16-1.45.753-19.17.826-20.01.288-1.73 2.017-7.5 6.206-6.49 1.54.57 3.32.86 4.368 1.49 1.48.42 2.642 1.49 3.743 2.3 5.052 4.92 6.115 8.27 6.766 9.43l.698 1.24m-56.74 133.13l-.14-.25c.38.67.17.34-.31-1.13-.12-1.26-.51-2.97-.71-4.17-.25-1.24-.84-2.66-.68-3.53-.44-1.27-.16-2.31-.04-3.57.36-1.57.52-2.7.56-4.23.18-1.87.04-3.2.14-4.97-.49-1.46-.59-2.68-1.34-4.14-.67-1.39-1.18-2.68-1.98-4.11l-1.95-3.47 1.96 3.47-1.95-3.47" fill="none"/>
<path stroke="#000" stroke-width="2.204" fill="#ffe606" d="M369.5 267.6c-2.34-3.58-4.71-10.41-4.78-10.535l-4.727-8.118c-2.833-4.068-5.02-4.088-6.574-4.14-3.39-.218-4.89-.846-7.45-1.04-2.61-1.148-.67-5.83-.74-5.955 2.67-10.642 13.87-9.593 14.33-9.36 5.13 1.682 5.76 2.31 4.92 5.558-1.3 3.505-2.06 4.75-1.96 6.976.27 4.256 5.41 10.505 5.49 10.63.07.124 3.38 2.83 3.38 2.83 1.57 1.347 3.66 1.585 5.81 4.242 1.88 2.86 2.15 4.016.59 6.852-1.99 3.728-6.27 4.83-8.31 2.06z" fill-rule="evenodd"/>
<path d="M105.24 168.67c.444.457 5.795 3.69 5.888 3.51s14.004-3.387 13.91-3.208-7.793 9.333-7.435 9.518c.356.186 8.047 9.394 8.226 9.487.18.092-14.57-1.212-14.57-1.212l-9.75 7.86-2.19-10.203s-12.27-4.328-12.45-4.42c-.18-.093 10.49-3.62 10.49-3.62l3.18-8.324s4.13.784 4.67.612z" fill-opacity=".988" fill-rule="evenodd" stroke="#000" stroke-width="2.204" fill="#ffef00"/>
<path stroke="#000" stroke-width="2.637" fill="#fff" d="M284.06 191.26c.03-8.6-16.22-50.106-19.01-56.09-5.187-6.492-10.676-16.774-13.035-25.654-1.527-8.963-6.322-15.994-13.08-18.378-7.8-4.14-15.418-2.517-22.75-1.88-3.595.764-6.67 2.706-8.407 5.566-3.96 5.663-6.11 5.23-8.85 7.672-22.544 3.513-43.862 15.146-60.082 23.074-8.588 5.962-15.878 9.425-19.256 10.154-9.156.033-15.816-4.306-18.997-6.613l-31.108-28.29c-8.99-6.71-11.212 2.98-9.486 4.46 3 6.45-3.5 10.38 21.17 33.62l9.34 19.2s-.52 5.25-.09 5.48c4.5 10.73 11.66 8.06 15.03 5.05l7.33-6.67s14.52-4.59 14.75-5.03c15.57 2.32 55.71-5.32 62.33-8.47 5.96-3.34 6.34-.51 11.51-4.72 4.32-2.85 1.94-.58 9.92-7.87 2.46-2.11 4.4 1.31 4.86 3.7.44 22.66 3.86 42.21 5.92 64.8.13 1.17.26 2.34.38 3.51l37.92 11.97c8.22-7.68 16.44-15.37 24.66-23.06-.25-2-.68-3.66-1.02-5.49z" fill-rule="evenodd"/>
<path fill="#ffec00" d="M88.737 119.85c.31.275-5.608 19.537-5.608 19.537s-5.46-5.44-5.41-5.53l3.82-20.237 7.19 6.23z" fill-rule="evenodd"/>
<path stroke="#000" stroke-width="2.204" d="M178.78 108.4c7.258 8.077 9.51 21.205 8.194 28.556" fill="none"/>
<path stroke="#000" stroke-width="2.437" d="M88.917 119.14c-.27 1.302-1.416 7.108-1.95 8.696a66.817 66.817 0 0 0-1.142 5.288c-.547 1.923-.785 3.18-1.394 5.158-.19 1.694-.55 3.284-.98 4.98m-3.75-32.955c.12.25.56 1.998.63 3.125-.2 1.18-.53 5.41-.99 6.84a54.356 54.356 0 0 0-.88 4.794c-.45 1.737-.63 2.88-1.14 4.663-.11 1.54-.39 2.98-.74 4.51" fill="none"/>
<path stroke="#000" stroke-width="2.204" d="M150.69 156.25l.13-.252c-.41.79-.09.34-.868-1.415-.825-.908-1.403-5.325-.136-7.766.486-1.244 1.3-3.12 1.912-4.3.174-.335.667-.668.842-1.005m-53.77-12.52l-.13.252-.525 1.01c-.68 1.31-1.596 2.502-2.22 3.657-.655 1.27-1.67 2.34-2.325 3.61-.842 1.18-1.58 2.75-2.454 3.97-.817 1.46-1.726 2.49-2.525 4.03-.69 1.22-1.24 1.78-1.95 3.16l1.96-3.15c-.69 1.22-1.24 1.78-1.96 3.16M72.45 104.4c.128.236.617 1.884.72 2.937-.162 1.095-.34 5.034-.734 6.354-.3 1.47-.55 2.96-.704 4.45-.385 1.61-.52 2.67-.958 4.32-.06 1.44-.29 2.78-.577 4.19m33.87 24.22c-1.7-1.79-2.703-1.13-3.8-1.22-1.21.22-3.414 1.23-5.65 3.48-.814.89-1.5 1.55-2.583 2.51-.487.76-.888 1.05-1.424 1.51m141.42-66.72l-.13.25c.41-.79.113-.34.486 1.54.49 1.3.55 2.2 1.094 3.46m-27.92 1.76c-.088.17-.31 18.5.45 20.86.226 1.51.635 2.78.846 4.59 0 1.09.258 2 .336 3.06.62 1.17.75 2.35 1.387 3.29.31 1.29 1.35 1.34 1.9 2.55.77.84 2.05 2.31 2.81 2.97m-20.48 12.86c-.56-.19-2.01-1.34-3.25-1.95-1.4-.78-4.83-4.89-5-7.78" fill="none"/>
<path stroke="#000" stroke-width="2.204" d="M206.53 121.57c-.044.085-1.91 1.923-4.967 5.028-3.91 3.618-14.542 9.843-15.822 10.344-1.22.555-2.75 1.89-3.96 2.077-1.39.55-2.77.77-4.09 1.08-1.6.34-2.96.63-4.21.7-3.73 1.62-23.43.99-24.45.77a43.156 43.156 0 0 1-3.43-.18c-.93.22-2.04.13-3.31.2-1.53-.13-2.41.17-3.69.32-1.01.53-2.7 1.09-3.84 1.85-1.56.63-2.51 1.49-3.59 1.98-1.12.92-16.45 9.87-17.19 10.27-1.6.71-7.38 2.42-8.83-1.64-.37-1.6-1.1-3.25-1.15-4.47-.46-1.47-.2-3.03-.12-4.39 1.35-6.92 3.57-9.65 4.18-10.83l.66-1.26M251.11 108l-.13.254c.354-.683.19-.325-.777.88-.99.796-2.207 2.057-3.1 2.88-.906.896-1.77 2.162-2.587 2.505-.814 1.06-1.843 1.4-2.958 1.99-1.508.56-2.545 1.05-3.848 1.85-1.665.88-2.7 1.73-4.24 2.61-.95 1.21-1.92 1.96-2.726 3.39-.8 1.32-1.595 2.46-2.35 3.91l-1.835 3.53 1.83-3.54-1.84 3.53m11.75 73.13l.26-.51c-.49.93-.32.69.14-.89 0-1.9.45-4.18.47-5.85.28-1.77.57-3.68.59-5.47-.11-2.09-.11-3.97-.42-5.99-.03-1.86-.24-3.78-.3-5.61-.04-1.81-.17-3.35-.56-5.1-.04-1.31-.12-3.11-.44-4.72.17-1.27-.19-2.43-.46-3.45-.49-1.95-.68-3.09-1.2-5.11-.31-1.09-.62-2.47-1.09-4.09-.17-1.54-.99-3.53-1.33-4.86-.46-.97-.92-2.29-1.1-3.45-.48-1.07-1.16-2.38-1.34-3.59-.5-.93-1.04-2.36-1.6-3.72-.48-1.12-.84-2.49-1.35-3.58-.52-1.38-1.15-2.56-1.47-3.97-.5-.48-.61-1-.87-1.41" fill="none"/>
<path stroke="#000" stroke-width="2.204" fill="#ffe606" d="M234.89 98.47c-1.714 3.92-6.13 9.644-6.195 9.77l-4.202 8.402c-1.85 4.598-.67 6.44.137 7.767 1.673 2.95 1.967 4.54 3.205 6.79.467 2.8-4.512 3.75-4.578 3.87-10.366 3.59-15.623-6.35-15.68-6.86-1.406-5.22-1.222-6.09 1.956-7.16 3.64-.84 5.104-.88 6.907-2.19 3.412-2.56 5.82-10.29 5.887-10.42.065-.13.512-4.38.512-4.38.26-2.06-.69-3.94.36-7.19 1.36-3.14 2.18-4 5.41-4.25 4.2-.38 7.47 2.59 6.27 5.82z" fill-rule="evenodd"/>
<path d="M221.29 199.65c-1.566-1.422 29.458 11.24 33.726 11.385 5.836-2.134 29.886-22.484 29.886-22.484.237 2 1.09 7.17 3.414 8.26-9.296 7.55-17.74 14.8-27.037 22.34.66 11.96-1.52 24.62 4.55 38 0 0-7.26.14-7.26 0-6.41-6.4-8.68-37.28-8.68-37.28-10.2-4.55-20.4-8.96-30.6-13.52 1.47-.95 2.65-3.89 1.99-6.69z" fill-opacity=".987" fill-rule="evenodd" stroke="#000" stroke-width="2.204" fill="#ffef00"/>
<path stroke="#000" stroke-width="2.204" d="M250.81 231.3c.496-.36-5.596 2.83-7.16 3.63-28.186 15.036-42.69 36.906-43.594 37.732-.487.932-1.384 2.174-2.204 3.392-.66 1.02-1.61 2.076-2.234 3.108-.864 1.196-2.68 3.558-3.67 4.606-.124.676.47-.23.276.22m77.85-70.56c-.547-.277 5.077 3.682 6.505 4.707 26.26 18.187 52.34 21.082 53.49 21.507 1.05.007 2.56.236 4.02.41 1.21.12 2.58.48 3.78.563 1.46.22 4.39.754 5.77 1.157.65-.2-.42-.312.06-.346" fill="none"/>
</g>
</svg>
