<svg viewBox="0 0 600 300" xmlns="http://www.w3.org/2000/svg" xmlns:xlink="http://www.w3.org/1999/xlink">
<defs>
<clipPath id="c">
<path d="M0 0v75h350v75h-50zm300 0H150v200H0v-50z"/>
</clipPath>
<clipPath id="b">
<path d="M0 0h300v150H0z"/>
</clipPath>
</defs>
<path fill="#FFF" d="M0 0h600v300H0z"/>
<path id="a" d="M600 260.88c-6.72 4.05-12.5 13.5-30.36 13.5-35.71 0-44.64-19.9-71.43-19.9-17.85 0-26.78 19.9-44.64 19.9-35.71 0-44.64-19.9-71.43-19.9-17.85 0-26.78 19.9-44.64 19.9-35.71 0-44.64-19.9-71.43-19.9-17.86 0-26.78 19.9-44.64 19.9-35.71 0-44.64-19.9-71.43-19.9-17.86 0-26.79 19.9-44.64 19.9-35.717 0-44.646-19.9-71.43-19.9-17.86 0-23.216 14.18-33.93 14.18v25.62c10.714 0 16.07-14.18 33.93-14.18 26.784 0 35.713 19.9 71.43 19.9 17.85 0 26.78-19.9 44.64-19.9 26.78 0 35.72 19.9 71.43 19.9 17.86 0 26.78-19.9 44.64-19.9 26.79 0 35.72 19.9 71.43 19.9 17.86 0 26.79-19.9 44.64-19.9 26.79 0 35.72 19.9 71.43 19.9 17.86 0 26.79-19.9 44.64-19.9 26.79 0 35.72 19.9 71.43 19.9 17.86 0 23.64-5.64 30.36-9.68v-29.44z" fill="#002b7f"/>
<use xlink:href="#a" transform="translate(0 -49.753)"/>
<use xlink:href="#a" transform="translate(0 -99.507)"/>
<use xlink:href="#a" transform="translate(0 -149.26)"/>
<use xlink:href="#a" transform="translate(0 -199.01)"/>
<use xlink:href="#a" transform="translate(0 -248.77)"/>
<path fill="#FFF" d="M0 0h300v152H0z"/>
<g clip-path="url(#b)">
<path fill="#00247d" d="M0 0h300v150H0z"/>
<path stroke="#fff" stroke-width="30" d="M0 0l300 150m0-150L0 150"/>
<path stroke="#cf142b" stroke-width="20" d="M0 0l300 150m0-150L0 150" clip-path="url(#c)"/>
<path stroke="#fff" stroke-width="50" d="M150 0v200M0 75h350"/>
<path stroke="#cf142b" stroke-width="30" d="M150 0v200M0 75h350"/>
</g>
<path d="M814.96-301.18l-17.72 708.66c0 37.3 80.1 37.3 88.59 0l-17.72-708.66h-53.15z" transform="matrix(.12095 0 0 .28726 347.84 166.043)" stroke="#fff" stroke-width="6.935" fill="#a24300"/>
<g transform="matrix(.43857 0 0 .37683 122.198 25.058)">
<g id="d" stroke="#000" fill="none">
<path d="M496.06 549.21l17.72 70.87 35.43-53.15-17.71 88.58 35.43-35.43-35.43 88.58 35.43-35.43-35.43 88.58 35.43-35.43-35.43 106.3 35.43-35.44-35.43 106.3 35.43-35.43-35.43 106.3-17.72 53.19-17.72 17.7-17.71-17.7-17.72-53.19-35.43-106.3 35.43 35.43-35.43-106.3 35.43 35.44-35.43-106.3 35.43 35.43-35.43-88.58 35.43 35.43-35.43-88.58 35.43 35.43-17.72-88.58 35.44 53.15 17.71-70.87z" transform="matrix(-.3145 .10485 -.1383 -.30324 1021.762 459.837)" stroke="#fff" stroke-width="8.25" fill="#006d00"/>
<path d="M496.06 549.21v496.09M425.2 868.11l70.86 106.3 70.87-106.3" transform="matrix(-.3145 .10485 -.1383 -.30324 1021.762 459.837)"/>
<path d="M425.2 797.24l70.86 106.3 70.87-106.3" transform="matrix(-.3145 .10485 -.1383 -.30324 1021.762 459.837)"/>
<path d="M425.2 726.38l70.86 106.3 70.87-106.3" transform="matrix(-.3145 .10485 -.1383 -.30324 1021.762 459.837)"/>
<path d="M425.2 673.23l70.86 88.58 70.87-88.58" transform="matrix(-.3145 .10485 -.1383 -.30324 1021.762 459.837)"/>
<path d="M425.2 620.08l70.86 88.58 70.87-88.58" transform="matrix(-.3145 .10485 -.1383 -.30324 1021.762 459.837)"/>
<path d="M442.91 566.93l53.15 106.3 53.15-106.3" transform="matrix(-.3145 .10485 -.1383 -.30324 1021.762 459.837)"/>
</g>
<use xlink:href="#d" transform="matrix(.23652 -.28186 .29496 .22762 354.57 204.65)"/>
<use xlink:href="#d" transform="matrix(.15164 .33524 -.3329 .1673 907.54 -153.47)"/>
<use xlink:href="#d" transform="matrix(-.20952 .30246 -.3147 -.19945 1141.4 167.58)"/>
<use xlink:href="#d" transform="matrix(-.20772 -.25838 .23618 -.23515 689.99 567.28)"/>
<g id="e" stroke="#000" fill="none">
<path d="M460.63 549.21l28.64 70.87 42.23-53.15-10.19 88.58 27.9-35.43-17.71 88.58 25.24-35.43-25.24 88.58 35.43-35.43-35.43 106.3 35.43-35.44-35.43 106.3 35.43-35.43-35.43 106.3-17.72 53.19-17.72 17.7-17.71-17.7-17.72-53.19-35.43-106.3 35.43 35.43-35.43-106.3 35.43 35.44-35.43-106.3 35.43 35.43-45.62-88.58 45.62 35.43-53.15-88.58 42.97 35.43-25.25-88.58 35.43 53.15v-70.87z" transform="matrix(-.36218 -.09947 -.2098 .31773 1145.757 -91.83)" stroke="#fff" stroke-width="8.25" fill="#006d00"/>
<path d="M467.21 584.65l28.85 124.01v336.64" transform="matrix(-.36218 -.09947 -.2098 .31773 1145.757 -91.83)"/>
<path d="M436.23 885.83l59.83 88.58 60.68-88.58" transform="matrix(-.36218 -.09947 -.2098 .31773 1145.757 -91.83)"/>
<path d="M434.53 814.96l61.53 88.58 60.68-88.58" transform="matrix(-.36218 -.09947 -.2098 .31773 1145.757 -91.83)"/>
<path d="M435.38 744.1l60.68 88.58 59.84-88.58" transform="matrix(-.36218 -.09947 -.2098 .31773 1145.757 -91.83)"/>
<path d="M432.84 690.94l63.22 70.87 53.15-70.87" transform="matrix(-.36218 -.09947 -.2098 .31773 1145.757 -91.83)"/>
<path d="M425.2 637.8l70.86 70.86 45.41-70.86" transform="matrix(-.36218 -.09947 -.2098 .31773 1145.757 -91.83)"/>
<path d="M436.12 593.24l53.15 86.88 35.33-95.47" transform="matrix(-.36218 -.09947 -.2098 .31773 1145.757 -91.83)"/>
</g>
<use xlink:href="#e" transform="matrix(.36088 .1041 .0132 .38052 452.76 -239.27)"/>
<g stroke="#000" fill="none">
<path d="M354.33 531.5l88.58 88.58 17.72-53.15v88.58l35.43-35.43-17.71 88.58 35.43-35.43-17.72 88.58 35.44-35.43-17.72 106.3 35.43-35.44-35.43 106.3 35.43-35.43-17.71 106.3-17.72 53.19-17.72 17.7-17.71-17.7-17.72-53.19-53.15-82.29 35.43 11.42-35.43-106.3 35.43 35.44-53.15-106.3 35.44 35.43-53.15-88.58 53.15 35.43-70.87-88.58 53.15 35.43-70.87-70.86 70.87 35.43-53.15-88.58z" transform="matrix(.04613 -.36474 .32602 .0648 386.005 315.21)" stroke="#fff" stroke-width="8.25" fill="#006d00"/>
<path d="M378.96 560.02l63.95 95.49 17.72 53.15 8.86 45.21 8.86 78.81 9.31 70.86 8.4 141.76" transform="matrix(.04613 -.36474 .32602 .0648 386.005 315.21)"/>
<path d="M425.2 903.54l63.66 70.87 50.75-88.58" transform="matrix(.04613 -.36474 .32602 .0648 386.005 315.21)"/>
<path d="M417.08 814.96l70.58 88.58 50.75-88.58" transform="matrix(.04613 -.36474 .32602 .0648 386.005 315.21)"/>
<path d="M407.48 752.44l70.87 80.24 45.95-88.58M372.05 637.8l88.58 70.86 25.83-70.86" transform="matrix(.04613 -.36474 .32602 .0648 386.005 315.21)"/>
<path d="M360.62 602.36l82.29 53.15 10.52-53.15m-63.67 88.58l81.1 70.87 33.94-70.87" transform="matrix(.04613 -.36474 .32602 .0648 386.005 315.21)"/>
</g>
</g>
<path stroke-width=".255" d="M425.3 222.456l24.963-4.48 26.002 4.48-12.064 5.018-22.25.357-16.64-5.37z" stroke="#000" fill="#9d9d9d"/>
<path stroke-width=".413" d="M450.453 182.12c-4.362 1.515-9.196-2.135-17.064 3.823 0 0-13.72-5.868-14.76 7.694-.04.55 2.17 3.855 2.48 3.62 1.72-1.323-.82 1.284-.82 1.662 0 .38.25.59.34.75.08.17.29.42.33 1.14.04.71-1.56 2.67-.88 3.38.67.71.71 2.78.71 3.37s.42 2.23.71 2.57.8 1.18.8 1.89.29 2.7.16 3.2c-.13.51.76 1.14 1.56 1.39s11.13.43 25.63.18c14.49-.25 19.33 2.04 25.32-.14.92-.34 1.09-1.1 1.01-1.52-.09-.42 0-1.77.25-2.11.25-.34 1.93-3.04 1.59-3.54.32-.29 2.68 1.36 1.18-.11-.39-.38.21-4.36.42-5.2.21-.84.53-2.42.92-2.72.39-.29-.66-1.39-.58-1.59.07-.2.36-.82.75-1.1 0 0 .73-3.43.28-5.11-.45-1.69-2.1-9.27-12.38-7.75 0 0-13.77-5.3-18-3.82z" stroke="#000" fill="#c00"/>
<g transform="translate(413.752 163.795) scale(.27507)">
<g stroke-width="1.241">
<g id="f" stroke="#000" fill="#f7d917">
<path d="M49.75.125c-5.093.89-15.156 29.245-12.61 38.75 1.764 6.58 4.5 11.12 6.048 13.906-3.405-4.68-11.383-13.75-22.25-13.75-13.664 0-15.43 29.95-15.094 31.88 0 .01-.002.03 0 .03 0 .01.03.03.03.03h.032c.613-.71 6.142-13.09 19.657-13.09 8.896 0 15.83 7.04 18.375 10.03 0 .95.022 1.86.03 2.79-2.003 2.83-3.28 9.53-9.468 17.97C27.023 98.85 4.128 99.9.28 100h99.438c-3.846-.103-27.18-1.148-34.655-11.344-6.188-8.437-7.028-15.14-9.032-17.968.01-.924.04-1.837.04-2.782 2.55-2.996 9.48-10.03 18.38-10.03 13.52 0 19.05 12.378 19.66 13.093 0 0 .03-.01.03 0 .01-.01.03-.03.03-.04.01-.01 0-.03 0-.03.34-1.93-1.43-31.88-15.09-31.88-10.87 0-18.84 9.06-22.25 13.75 1.55-2.79 4.29-8.58 5.72-13.91C65.12 29.22 55.09.13 50 .12c-.08 0-.17-.01-.25 0zM43.313 52.97c.352.49.662.91.906 1.28 0 .008.54 2.977.54 2.984-.01.064 2.62 10.186 2.62 10.25-.27-.392-3.74-13.915-4.08-14.515zm13.375 0c-.34.6-4.033 14.122-4.297 14.514 0-.064 3.4-13.14 3.39-13.203 0-.01-.43 2.97-.43 2.96.25-.37.99-3.77 1.35-4.26z" transform="matrix(.49697 -.0446 .08947 .72678 44.7 100.54)"/>
<path d="M42 67.578s4-1.86 8-1.86 8 1.86 8 1.86v4.953s-4-1.85-8-1.85-8 1.86-8 1.86v-4.96z" transform="matrix(.49697 -.0446 .08947 .72678 44.7 100.54)"/>
</g>
</g>
<use xlink:href="#f" transform="matrix(.49538 .0597 -.0636 .7295 168.92 96.59)"/>
<g stroke-width=".715" stroke="#000" fill="#f7d917">
<path d="M24.308 134.56l9.69-11.81s.903 1.16 0 0c-19.866-25.685-20.87-40.42-18.635-47.88s6.71-15.544 18.635-25.493c11.926-9.948 20.156-4.42 31.336-4.42s14.163 2.488 23.852 3.732c9.69 1.24 35.774 2.48 35.774 2.48v-6.84s1.03.19 0 0c-11.51-2.15-26.084 0-35.774-2.49-9.69-2.49-17.89-3.11-28.324-3.11s-17.92-3.04-24.628 1.31c-6.71 4.36-14.908 11.82-20.87 18.04s-8.944 18.65-8.2 26.73c.746 8.08 3.727 14.92 8.2 21.14 4.472 6.22 3.726 11.19 5.217 15.54 1.5 4.36 3.73 13.68 3.73 13.06zm214.952 0l-9.7-11.81s-.9 1.16 0 0c19.87-25.685 20.88-40.42 18.64-47.88s-6.71-15.544-18.64-25.493c-11.92-9.948-20.15-4.42-31.33-4.42s-14.16 2.488-23.85 3.732c-9.69 1.24-35.78 2.48-35.78 2.48v-6.84s-1.03.19 0 0c11.52-2.15 26.09 0 35.78-2.49s17.88-3.11 28.32-3.11 17.92-3.04 24.63 1.31c6.71 4.35 14.91 11.81 20.87 18.03s8.94 18.65 8.2 26.73c-.75 8.08-3.73 14.92-8.2 21.14-4.47 6.22-3.73 11.19-5.22 15.54-1.49 4.36-3.72 13.68-3.72 13.06z"/>
<path stroke-width=".835" d="M115.55 38.7h34.563v70.895H115.55z"/>
</g>
<g stroke-width=".5" stroke="#000" fill="#f7d917">
<path d="M119.68-23.8s3.72 3.03 6.58 6.923c2.86 3.893 4.84 8.652 4.84 8.652s-4.75-1.99-8.65-4.846c-3.89-2.86-6.92-6.58-6.92-6.58v26.3s3.03-3.72 6.92-6.58c3.9-2.85 8.65-4.84 8.65-4.84s-1.53 3.92-2.52 8.65c-.89 4.25-8.18 14.06-8.18 14.06l21.3 1.43s-3.54-11.24-4.97-15.49c-1.53-4.58-2.17-8.66-2.17-8.66s4.76 1.99 8.66 4.84c3.89 2.85 6.92 6.57 6.92 6.57v-26.3s-3.03 3.72-6.92 6.57c-3.9 2.86-8.66 4.85-8.66 4.85s2-4.76 4.85-8.65c2.86-3.89 6.58-6.92 6.58-6.92h-26.31z"/>
<path d="M149.978 23.076a17.145 17.145 0 1 1-34.29 0 17.145 17.145 0 1 1 34.29 0z"/>
<path d="M116.07 25.535h34.11s.49-6.596-1.98-9.064h-10.59l-.18-9.88h-10.04l-.18 9.89s-7.13.36-10.41.36c-1.49 4.04-1.26 4.38-1.26 4.38l.53 4.33z"/>
</g>
<g stroke-width=".75" stroke="#000" fill="#f7d917">
<path d="M110.88 107.22s6.21 5.06 10.98 11.56c4.76 6.5 8.09 14.44 8.09 14.44s-7.95-3.32-14.45-8.09c-6.5-4.76-11.56-10.97-11.56-10.97v43.91s5.06-6.21 11.56-10.98 14.45-8.09 14.45-8.09-3.33 7.95-8.09 14.45c-4.77 6.5-10.98 11.56-10.98 11.56h43.91s-6.21-5.06-10.98-11.56c-4.76-6.5-8.09-14.45-8.09-14.45s7.95 3.32 14.45 8.09 11.56 10.98 11.56 10.98v-43.91s-5.06 6.21-11.56 10.97c-6.5 4.77-14.45 8.09-14.45 8.09s3.33-7.94 8.09-14.44c4.77-6.5 10.98-11.56 10.98-11.56h-43.91zm-83.64 74.56l21.625-3.81s-6.995-3.9-12.82-9.48c-5.823-5.57-10.475-12.82-10.475-12.82s8.402 1.89 15.632 5.46c7.23 3.56 13.288 8.8 13.288 8.8l-7.626-43.25s-3.9 7-9.475 12.82c-5.58 5.83-12.83 10.48-12.83 10.48s1.89-8.4 5.46-15.63 8.8-13.29 8.8-13.29l-21.62 3.81 10.03 56.91zm199.6-60.72s5.24 6.06 8.8 13.29c3.57 7.23 5.46 15.63 5.46 15.63s-7.24-4.65-12.82-10.48c-5.57-5.82-9.47-12.82-9.47-12.82l-7.63 43.25s6.06-5.24 13.29-8.8c7.23-3.57 15.63-5.46 15.63-5.46s-4.65 7.25-10.48 12.82c-5.82 5.58-12.82 9.48-12.82 9.48l21.63 3.81 10.03-56.91-21.62-3.81z"/>
<path d="M27.464 179.53l.15 31.51s52.648-17.93 105.3-17.93c52.65 0 105.3 17.93 105.3 17.93v-31.51s-52.69-17.93-105.37-17.93c-52.69 0-105.38 17.93-105.38 17.93z"/>
</g>
<g stroke="#000" fill="#FFF">
<path id="g" d="M22.582 117.782a8.015 8.015 0 1 1-16.03 0 8.015 8.015 0 1 1 16.03 0z" stroke-width=".661"/>
<use xlink:href="#g" transform="translate(10.965 -378.6) scale(.66123)"/>
<use xlink:href="#g" transform="translate(8.822 -400.03) scale(.66123)"/>
<use xlink:href="#g" transform="translate(15.25 -420.03) scale(.66123)"/>
<use xlink:href="#g" transform="translate(28.822 -436.46) scale(.66123)"/>
<use xlink:href="#g" transform="translate(47.394 -447.89) scale(.66123)"/>
<use xlink:href="#g" transform="translate(68.108 -446.46) scale(.66123)"/>
<use xlink:href="#g" transform="translate(88.822 -443.03) scale(.66123)"/>
<use xlink:href="#g" transform="translate(109.54 -440.89) scale(.66123)"/>
<use xlink:href="#g" transform="matrix(-.66123 0 0 .66123 242.32 -360.32)"/>
<use xlink:href="#g" transform="matrix(-.66123 0 0 .66123 252.6 -378.6)"/>
<use xlink:href="#g" transform="matrix(-.66123 0 0 .66123 254.74 -400.03)"/>
<use xlink:href="#g" transform="matrix(-.66123 0 0 .66123 248.31 -420.03)"/>
<use xlink:href="#g" transform="matrix(-.66123 0 0 .66123 234.74 -436.46)"/>
<use xlink:href="#g" transform="matrix(-.66123 0 0 .66123 216.17 -447.89)"/>
<use xlink:href="#g" transform="matrix(-.66123 0 0 .66123 195.45 -446.46)"/>
<use xlink:href="#g" transform="matrix(-.66123 0 0 .66123 174.74 -443.03)"/>
<use xlink:href="#g" transform="matrix(-.66123 0 0 .66123 154.03 -440.89)"/>
<g transform="translate(1.04)">
<use xlink:href="#g" transform="translate(138.47 -378.32) scale(.66123)"/>
<use xlink:href="#g" transform="translate(138.47 -392.6) scale(.66123)"/>
<use xlink:href="#g" transform="translate(138.47 -404.03) scale(.66123)"/>
<use xlink:href="#g" transform="translate(138.47 -414.46) scale(.66123)"/>
<use xlink:href="#g" transform="translate(138.47 -447.89) scale(.66123)"/>
<use xlink:href="#g" transform="translate(138.47 -446.46) scale(.66123)"/>
<use xlink:href="#g" transform="translate(138.47 -439.03) scale(.66123)"/>
<use xlink:href="#g" transform="translate(138.47 -428.89) scale(.66123)"/>
</g>
</g>
<g stroke="#000" fill="#FFF">
<path id="h" d="M143.113 134.29a10.357 10.357 0 1 1-20.71 0 10.357 10.357 0 1 1 20.71 0z"/>
<use xlink:href="#h" transform="translate(-108.71 16.786)"/>
<use xlink:href="#h" transform="translate(107.29 16.786)"/>
</g>
</g>
<path stroke="#000" stroke-width=".213" fill="#002b7f" d="M446.146 210.405h8.807v3.838h-8.807z"/>
<path d="M16.043 233.11a22.995 8.556 0 1 1-45.99 0 22.995 8.556 0 1 1 45.99 0z" transform="matrix(-.1718 -.01744 .00604 .2426 461.52 156.97)" stroke="#000" stroke-width="1.5" fill="#3e8225"/>
<path stroke-width=".275" d="M421.357 215.263l-2.206 2.207 2.56 1.48 5.95-1.597-1.06-3.37-5.24 1.28zm58.386 0l2.206 2.207-2.57 1.48-5.95-1.597 1.06-3.37 5.24 1.28z" stroke="#000" fill="#c00"/>
<path d="M16.043 233.11a22.995 8.556 0 1 1-45.99 0 22.995 8.556 0 1 1 45.99 0z" transform="matrix(.1718 -.01744 -.00604 .2426 439.58 156.97)" stroke="#000" stroke-width="1.5" fill="#3e8225"/>
<g stroke="#000" fill="#FFF" transform="translate(412 157.18) scale(.25333)">
<path id="i" d="M127.27 211.224a4.278 4.278 0 1 1-8.55 0 4.278 4.278 0 1 1 8.55 0z"/>
<use xlink:href="#i" transform="translate(2.406 10.16)"/>
<use xlink:href="#i" transform="translate(-52.406 6.15)"/>
<use xlink:href="#i" transform="translate(-47.06 18.984)"/>
<use xlink:href="#i" transform="matrix(-1 0 0 1 303.07 -3.476)"/>
<use xlink:href="#i" transform="matrix(-1 0 0 1 301.74 10.16)"/>
<use xlink:href="#i" transform="matrix(-1 0 0 1 356.55 6.15)"/>
<use xlink:href="#i" transform="matrix(-1 0 0 1 351.2 18.984)"/>
</g>
<path stroke-width=".434" d="M472.43 228.264c.825-.142 5.82-1.33 6.87-1.966-.677-1.22-1.895-2.178-.948-1.778.512.218.915-1.467-.567-2.756-4.3 1.41-14.612 3.987-27.57 3.987-13.26 0-23.7-2.71-28-4.12-1.482 1.29-1.02 2.75-1.11 3.3 0 .01 0 .69.27 1.24 1.458 1.59 6.18 2.37 7.008 2.51 3.89.68 7.78 1.7 21.824 1.7 12.994 0 18.33-1.42 22.222-2.1z" stroke="#000" fill="#fff"/>
<g transform="translate(391.394 139.672) scale(.27507)">
<path stroke-width="1.578" d="M132.91 289.66c-3.01.52-22.15 7.3-25.97 9.6v.07c.32 1.98-3.32 11.25 2.06 15.93 15.63-5.13 59.52-20.4 106.63-20.4 48.21 0 88.14 15.27 103.78 20.4 5.38-4.68 1.73-13.95 2.06-15.93 0-.02-.01-.05 0-.07-3.82-2.3-22.96-9.08-25.97-9.6-14.14-2.46-28.77-11.59-79.84-11.59-47.23 0-68.61 9.13-82.75 11.59z" stroke="#000" fill="#fff"/>
<g id="k" stroke="#000" transform="matrix(1.3844 -.14324 .15642 1.2678 -86.626 -64.755)">
<path id="j" d="M114.573 301.56a.937.937 0 1 1-1.874 0 .937.937 0 1 1 1.87 0z" stroke-width=".5"/>
<use xlink:href="#j" transform="translate(55.527 153.31) scale(.4996)"/>
<use xlink:href="#j" transform="translate(57.398 154.91) scale(.4996)"/>
<path d="M113.52 303.67l8.52-3.17-4.18 2.4 2.68-.09-2.49 1.17 4 .28-8.53-.59z"/>
</g>
<use xlink:href="#k" transform="matrix(1.3844 -.14324 .15642 1.2678 -45.032 -76.658)"/>
<use xlink:href="#k" transform="matrix(1.3784 .19234 -.15163 1.2683 100.17 -120.86)"/>
<use xlink:href="#k" transform="matrix(1.3844 .14324 .15642 -1.2678 54.434 659.46)"/>
<use xlink:href="#k" transform="matrix(1.3844 .14324 .15642 -1.2678 96.412 670.42)"/>
</g>
</svg>
