<svg id="british_indian_ocean_territory_flag" viewBox="0 0 600 300" xmlns="http://www.w3.org/2000/svg" xmlns:xlink="http://www.w3.org/1999/xlink">
<defs>
<clipPath id="cp">
<path d="m0 0v75h350v75h-50zm300 0h-150v200h-150v-50z"/>
</clipPath>
<clipPath id="cp2">
<rect width="300" height="150"/>
</clipPath>
</defs>
<rect width="600" height="300" fill="#FFF"/>
<path id="wave" d="m600 260.88c-6.72 4.05-12.5 13.5-30.36 13.5-35.71 0-44.64-19.9-71.43-19.9-17.85 0-26.78 19.9-44.64 19.9-35.71 0-44.64-19.9-71.43-19.9-17.85 0-26.78 19.9-44.64 19.9-35.71 0-44.64-19.9-71.43-19.9-17.86 0-26.78 19.9-44.64 19.9-35.71 0-44.64-19.9-71.43-19.9-17.86 0-26.79 19.9-44.64 19.9-35.717 0-44.646-19.9-71.431-19.9-17.858 0-23.215 14.18-33.929 14.18v25.62c10.714 0 16.071-14.18 33.929-14.18 26.785 0 35.714 19.9 71.431 19.9 17.85 0 26.78-19.9 44.64-19.9 26.78 0 35.72 19.9 71.43 19.9 17.86 0 26.78-19.9 44.64-19.9 26.79 0 35.72 19.9 71.43 19.9 17.86 0 26.79-19.9 44.64-19.9 26.79 0 35.72 19.9 71.43 19.9 17.86 0 26.79-19.9 44.64-19.9 26.79 0 35.72 19.9 71.43 19.9 17.86 0 23.64-5.64 30.36-9.68v-29.44z" fill="#002b7f"/>
<use xlink:href="#wave" transform="translate(0 -49.753)"/>
<use xlink:href="#wave" transform="translate(0 -99.507)"/>
<use xlink:href="#wave" transform="translate(0 -149.26)"/>
<use xlink:href="#wave" transform="translate(0 -199.01)"/>
<use xlink:href="#wave" transform="translate(0 -248.77)"/>
<rect width="300" height="152" fill="#FFF"/>
<g clip-path="url(#cp2)">
<rect width="300" fill="#00247d" height="150"/>
<path stroke="#fff" stroke-width="30" d="m0 0l300 150m0-150l-300 150"/>
<path stroke="#cf142b" stroke-width="20" d="m0 0l300 150m0-150l-300 150" clip-path="url(#cp)"/>
<path stroke="#fff" stroke-width="50" d="m150 0v200m-150-125h350"/>
<path stroke="#cf142b" stroke-width="30" d="m150 0v200m-150-125h350"/>
</g>
<g transform="matrix(.60476 0 0 .60476 0 -.00011607)">
<path d="m814.96-301.18l-17.72 708.66c0 37.3 80.1 37.3 88.59 0l-17.72-708.66h-53.15z" transform="matrix(0.2 0 0 .475 575.17 274.56)" stroke="#fff" stroke-width="6.935" fill="#a24300"/>
<g transform="matrix(.72520 0 0 .6231 202.06 41.434)">
<g transform="matrix(-.31451 .10485 -.13829 -.30324 1046.5 373.32)">
<g id="t3" stroke="#000" fill="none">
<path d="m496.06 549.21l17.72 70.87 35.43-53.15-17.71 88.58 35.43-35.43-35.43 88.58 35.43-35.43-35.43 88.58 35.43-35.43-35.43 106.3 35.43-35.44-35.43 106.3 35.43-35.43-35.43 106.3-17.72 53.19-17.72 17.7-17.71-17.7-17.72-53.19-35.43-106.3 35.43 35.43-35.43-106.3 35.43 35.44-35.43-106.3 35.43 35.43-35.43-88.58 35.43 35.43-35.43-88.58 35.43 35.43-17.72-88.58 35.44 53.15 17.71-70.87z" transform="translate(177.17 -224.05)" stroke="#fff" stroke-width="8.25" fill="#006d00"/>
<path d="m496.06 549.21v496.09" transform="translate(177.17 -224.05)"/>
<path d="m425.2 868.11l70.86 106.3 70.87-106.3" transform="translate(177.17 -224.05)"/>
<path d="m425.2 797.24l70.86 106.3 70.87-106.3" transform="translate(177.17 -224.05)"/>
<path d="m425.2 726.38l70.86 106.3 70.87-106.3" transform="translate(177.17 -224.05)"/>
<path d="m425.2 673.23l70.86 88.58 70.87-88.58" transform="translate(177.17 -224.05)"/>
<path d="m425.2 620.08l70.86 88.58 70.87-88.58" transform="translate(177.17 -224.05)"/>
<path d="m442.91 566.93l53.15 106.3 53.15-106.3" transform="translate(177.17 -224.05)"/>
</g>
</g>
<use xlink:href="#t3" transform="matrix(.23652 -.28186 .29496 .22762 354.57 204.65)"/>
<use xlink:href="#t3" transform="matrix(.15164 .33524 -.33290 .16731 907.54 -153.47)"/>
<use xlink:href="#t3" transform="matrix(-.20952 .30246 -.31470 -.19945 1141.4 167.58)"/>
<use xlink:href="#t3" transform="matrix(-.20772 -.25838 .23618 -.23515 689.99 567.28)"/>
<g transform="matrix(-.36218 -.099472 -.20981 .31773 1222.4 -24.229)">
<g id="t2" stroke="#000" fill="none">
<path d="m460.63 549.21l28.64 70.87 42.23-53.15-10.19 88.58 27.9-35.43-17.71 88.58 25.24-35.43-25.24 88.58 35.43-35.43-35.43 106.3 35.43-35.44-35.43 106.3 35.43-35.43-35.43 106.3-17.72 53.19-17.72 17.7-17.71-17.7-17.72-53.19-35.43-106.3 35.43 35.43-35.43-106.3 35.43 35.44-35.43-106.3 35.43 35.43-45.62-88.58 45.62 35.43-53.15-88.58 42.97 35.43-25.25-88.58 35.43 53.15v-70.87z" transform="translate(283.46 -124.02)" stroke="#fff" stroke-width="8.25" fill="#006d00"/>
<path d="m467.21 584.65l28.85 124.01v336.64" transform="translate(283.46 -124.02)"/>
<path d="m436.23 885.83l59.83 88.58 60.68-88.58" transform="translate(283.46 -124.02)"/>
<path d="m434.53 814.96l61.53 88.58 60.68-88.58" transform="translate(283.46 -124.02)"/>
<path d="m435.38 744.1l60.68 88.58 59.84-88.58" transform="translate(283.46 -124.02)"/>
<path d="m432.84 690.94l63.22 70.87 53.15-70.87" transform="translate(283.46 -124.02)"/>
<path d="m425.2 637.8l70.86 70.86 45.41-70.86" transform="translate(283.46 -124.02)"/>
<path d="m436.12 593.24l53.15 86.88 35.33-95.47" transform="translate(283.46 -124.02)"/>
</g>
</g>
<use xlink:href="#t2" transform="matrix(.36088 .10411 .013211 .38052 452.76 -239.27)"/>
<g transform="matrix(.046132 -.36474 .32602 .064796 379.58 479.54)" stroke="#000" fill="none">
<path d="m354.33 531.5l88.58 88.58 17.72-53.15v88.58l35.43-35.43-17.71 88.58 35.43-35.43-17.72 88.58 35.44-35.43-17.72 106.3 35.43-35.44-35.43 106.3 35.43-35.43-17.71 106.3-17.72 53.19-17.72 17.7-17.71-17.7-17.72-53.19-53.15-82.29 35.43 11.42-35.43-106.3 35.43 35.44-53.15-106.3 35.44 35.43-53.15-88.58 53.15 35.43-70.87-88.58 53.15 35.43-70.87-70.86 70.87 35.43-53.15-88.58z" transform="translate(442.91 -42.966)" stroke="#fff" stroke-width="8.25" fill="#006d00"/>
<path d="m378.96 560.02l63.95 95.49 17.72 53.15 8.86 45.21 8.86 78.81 9.31 70.86 8.4 141.76" transform="translate(442.91 -42.966)"/>
<path d="m425.2 903.54l63.66 70.87 50.75-88.58" transform="translate(442.91 -42.966)"/>
<path d="m417.08 814.96l70.58 88.58 50.75-88.58" transform="translate(442.91 -42.966)"/>
<path d="m407.48 752.44l70.87 80.24 45.95-88.58" transform="translate(442.91 -42.966)"/>
<path d="m372.05 637.8l88.58 70.86 25.83-70.86" transform="translate(442.91 -42.966)"/>
<path d="m360.62 602.36l82.29 53.15 10.52-53.15" transform="translate(442.91 -42.966)"/>
<path d="m389.76 690.94l81.1 70.87 33.94-70.87" transform="translate(442.91 -42.966)"/>
</g>
</g>
</g>
<g transform="matrix(.25333 0 0 .25333 412 157.18)">
<path stroke-width="1.008" d="m52.504 257.67l98.536-17.68 102.64 17.68-47.62 19.81-87.86 1.41-65.696-21.22z" stroke="#000" fill="#9d9d9d"/>
<path stroke-width="1.629" d="m151.79 98.445c-17.22 5.985-36.3-8.425-67.36 15.095 0 0-54.144-23.164-58.257 30.37-0.165 2.17 8.57 15.22 9.786 14.29 6.804-5.22-3.23 5.07-3.23 6.56 0 1.5 0.998 2.33 1.335 2.99 0.331 0.67 1.163 1.67 1.329 4.5 0.165 2.83-6.137 10.54-3.474 13.37 2.657 2.83 2.822 10.98 2.822 13.31s1.666 8.82 2.829 10.15 3.159 4.66 3.159 7.48c0 2.83 1.163 10.65 0.661 12.64-0.496 2 2.994 4.49 6.16 5.49 3.159 1 43.935 1.71 101.16 0.71 57.23-1 76.33 8.06 99.98-0.54 3.65-1.33 4.32-4.32 3.99-5.99-0.34-1.66 0-6.98 1-8.31 0.99-1.33 7.65-11.98 6.31-13.98 1.26-1.13 10.59 5.39 4.65-0.43-1.52-1.49 0.85-17.22 1.67-20.53 0.83-3.32 2.1-9.55 3.62-10.71 1.53-1.15-2.59-5.48-2.3-6.27 0.3-0.78 1.41-3.22 2.96-4.34 0 0 2.89-13.52 1.11-20.17-1.77-6.66-8.27-36.59-48.87-30.59 0 0-54.34-20.901-71.04-15.095z" stroke="#000" fill="#c00"/>
<g transform="translate(0 -.00026004)">
<g transform="matrix(1.0858 0 0 1.0858 6.9147 26.112)">
<g stroke-width="1.241" transform="matrix(.49697 -.044597 .089467 .72678 44.7 100.54)">
<g id="t4">
<path stroke-width="1.241" d="m49.75 0.125c-5.093 0.89-15.156 29.245-12.609 38.75 1.763 6.58 4.498 11.12 6.047 13.906-3.405-4.685-11.383-13.75-22.25-13.75-13.664 0-15.431 29.948-15.094 31.875 0.001 0.007-0.002 0.026 0 0.032 0.001 0.004 0.029 0.027 0.031 0.031 0.002-0.001 0.029 0.001 0.031 0 0.613-0.715 6.142-13.094 19.657-13.094 8.896 0 15.829 7.035 18.375 10.031-0.001 0.945 0.022 1.858 0.031 2.782-2.004 2.828-3.282 9.531-9.469 17.968-7.477 10.196-30.372 11.241-34.219 11.344h49.532 0.156c0.022 0 0.04-0.001 0.062 0h0.157 49.531c-3.847-0.103-27.18-1.148-34.656-11.344-6.188-8.437-7.028-15.14-9.032-17.968 0.009-0.924 0.032-1.837 0.032-2.782 2.545-2.996 9.478-10.031 18.375-10.031 13.514 0 19.043 12.379 19.656 13.094 0.002 0.001 0.029-0.001 0.031 0 0.002-0.004 0.03-0.027 0.031-0.031 0.002-0.006-0.001-0.025 0-0.032 0.337-1.927-1.43-31.875-15.093-31.875-10.868 0-18.846 9.065-22.25 13.75 1.548-2.786 4.29-8.575 5.718-13.906 2.587-9.656-7.44-38.743-12.531-38.75-0.08 0-0.169-0.014-0.25 0zm-6.437 52.844c0.352 0.49 0.662 0.912 0.906 1.281 0.005 0.008 0.541 2.977 0.547 2.984-0.003 0.064 2.627 10.186 2.624 10.25-0.264-0.392-3.737-13.915-4.077-14.515zm13.375 0c-0.341 0.6-4.033 14.123-4.297 14.515-0.003-0.064 3.393-13.139 3.39-13.203 0-0.01-0.437 2.964-0.437 2.953 0.244-0.369 0.991-3.775 1.344-4.265z" stroke="#000" fill="#f7d917"/>
<path stroke-width="1.241" d="m42 67.578s4-1.859 8-1.859 8 1.859 8 1.859v4.953s-4-1.859-8-1.859-8 1.859-8 1.859v-4.953z" stroke="#000" fill="#f7d917"/>
</g>
</g>
<use xlink:href="#t4" transform="matrix(.49538 .059703 -.063593 .72950 168.92 96.59)"/>
<g stroke-width=".715" stroke="#000" fill="#f7d917">
<path d="m24.308 134.56l9.69-11.81s0.903 1.16 0 0c-19.866-25.685-20.871-40.419-18.635-47.88s6.709-15.544 18.635-25.493c11.926-9.948 20.156-4.419 31.336-4.419 11.181 0 14.163 2.487 23.852 3.731 9.69 1.243 35.774 2.487 35.774 2.487v-6.84s1.03 0.192 0 0c-11.51-2.147-26.084 0-35.774-2.487-9.689-2.487-17.889-3.108-28.324-3.108s-17.92-3.043-24.628 1.31c-6.709 4.352-14.908 11.813-20.871 18.031s-8.944 18.653-8.199 26.736c0.746 8.083 3.727 14.923 8.199 21.142 4.473 6.22 3.727 11.19 5.218 15.54 1.491 4.36 3.727 13.68 3.727 13.06z"/>
<path d="m239.26 134.56l-9.7-11.81s-0.9 1.16 0 0c19.87-25.685 20.88-40.419 18.64-47.88s-6.71-15.544-18.64-25.493c-11.92-9.948-20.15-4.419-31.33-4.419s-14.16 2.487-23.85 3.731c-9.69 1.243-35.78 2.487-35.78 2.487v-6.84s-1.03 0.192 0 0c11.52-2.147 26.09 0 35.78-2.487s17.88-3.108 28.32-3.108 17.92-3.043 24.63 1.31c6.71 4.352 14.91 11.813 20.87 18.031s8.94 18.653 8.2 26.736c-0.75 8.083-3.73 14.923-8.2 21.142-4.47 6.22-3.73 11.19-5.22 15.54-1.49 4.36-3.72 13.68-3.72 13.06z"/>
<rect height="70.894" width="34.563" y="38.701" x="115.55" stroke-width=".835"/>
</g>
<g stroke-width=".5" transform="translate(0,-8)" stroke="#000" fill="#f7d917">
<path d="m119.68-15.799s3.72 3.028 6.58 6.922c2.86 3.893 4.84 8.652 4.84 8.652s-4.75-1.99-8.65-4.846c-3.89-2.855-6.92-6.575-6.92-6.575v26.302s3.03-3.72 6.92-6.575c3.9-2.856 8.65-4.846 8.65-4.846s-1.53 3.927-2.52 8.653c-0.89 4.25-8.18 14.064-8.18 14.064l21.3 1.429s-3.54-11.243-4.97-15.493c-1.53-4.578-2.17-8.653-2.17-8.653s4.76 1.99 8.66 4.846c3.89 2.855 6.92 6.575 6.92 6.575v-26.302s-3.03 3.72-6.92 6.575c-3.9 2.856-8.66 4.846-8.66 4.846s2-4.759 4.85-8.652c2.86-3.894 6.58-6.922 6.58-6.922h-26.31z"/>
<path d="m150 23.076a17.143 17.143 0 1 1 -34.29 0 17.143 17.143 0 1 1 34.29 0z" transform="translate(-.022093 8)"/>
<path d="m116.07 33.535h34.11s0.49-6.596-1.98-9.064h-10.59l-0.18-9.888h-3.95-6.09l-0.18 9.888s-7.13 0.357-10.41 0.357c-1.49 4.041-1.26 4.381-1.26 4.381l0.53 4.326z"/>
</g>
<g stroke-width=".75" stroke="#000" fill="#f7d917">
<path d="m110.88 107.22s6.21 5.06 10.98 11.56c4.76 6.5 8.09 14.44 8.09 14.44s-7.95-3.32-14.45-8.09c-6.5-4.76-11.56-10.97-11.56-10.97v43.91s5.06-6.21 11.56-10.98 14.45-8.09 14.45-8.09-3.33 7.95-8.09 14.45c-4.77 6.5-10.98 11.56-10.98 11.56h43.91s-6.21-5.06-10.98-11.56c-4.76-6.5-8.09-14.45-8.09-14.45s7.95 3.32 14.45 8.09 11.56 10.98 11.56 10.98v-43.91s-5.06 6.21-11.56 10.97c-6.5 4.77-14.45 8.09-14.45 8.09s3.33-7.94 8.09-14.44c4.77-6.5 10.98-11.56 10.98-11.56h-43.91z"/>
<path d="m27.24 181.78l21.625-3.81s-6.995-3.9-12.819-9.48c-5.824-5.57-10.476-12.82-10.476-12.82s8.402 1.89 15.632 5.46c7.23 3.56 13.288 8.8 13.288 8.8l-7.626-43.25s-3.901 7-9.475 12.82c-5.574 5.83-12.822 10.48-12.822 10.48s1.892-8.4 5.458-15.63 8.806-13.29 8.806-13.29l-21.625 3.81 10.034 56.91z"/>
<path d="m226.84 121.06s5.24 6.06 8.8 13.29c3.57 7.23 5.46 15.63 5.46 15.63s-7.24-4.65-12.82-10.48c-5.57-5.82-9.47-12.82-9.47-12.82l-7.63 43.25s6.06-5.24 13.29-8.8c7.23-3.57 15.63-5.46 15.63-5.46s-4.65 7.25-10.48 12.82c-5.82 5.58-12.82 9.48-12.82 9.48l21.63 3.81 10.03-56.91-21.62-3.81z"/>
<path d="m27.464 179.53l0.15 31.51s52.648-17.93 105.3-17.93c52.65 0 105.3 17.93 105.3 17.93v-31.51s-52.69-17.93-105.37-17.93c-52.691 0-105.38 17.93-105.38 17.93z"/>
</g>
<g stroke="#000" store-width="1.5" fill="#FFF">
<g transform="matrix(.66123 0 0 .66123 21.246 -360.32)">
<path id="c3" d="m2.02 723.05a12.122 12.122 0 1 1 -24.243 0 12.122 12.122 0 1 1 24.243 0z"/>
</g>
<use xlink:href="#c3" transform="matrix(.66123 0 0 .66123 10.965 -378.6)"/>
<use xlink:href="#c3" transform="matrix(.66123 0 0 .66123 8.8223 -400.03)"/>
<use xlink:href="#c3" transform="matrix(.66123 0 0 .66123 15.251 -420.03)"/>
<use xlink:href="#c3" transform="matrix(.66123 0 0 .66123 28.822 -436.46)"/>
<use xlink:href="#c3" transform="matrix(.66123 0 0 .66123 47.394 -447.89)"/>
<use xlink:href="#c3" transform="matrix(.66123 0 0 .66123 68.108 -446.46)"/>
<use xlink:href="#c3" transform="matrix(.66123 0 0 .66123 88.822 -443.03)"/>
<use xlink:href="#c3" transform="matrix(.66123 0 0 .66123 109.54 -440.89)"/>
<use xlink:href="#c3" transform="matrix(-.66123 0 0 .66123 242.32 -360.32)"/>
<use xlink:href="#c3" transform="matrix(-.66123 0 0 .66123 252.6 -378.6)"/>
<use xlink:href="#c3" transform="matrix(-.66123 0 0 .66123 254.74 -400.03)"/>
<use xlink:href="#c3" transform="matrix(-.66123 0 0 .66123 248.31 -420.03)"/>
<use xlink:href="#c3" transform="matrix(-.66123 0 0 .66123 234.74 -436.46)"/>
<use xlink:href="#c3" transform="matrix(-.66123 0 0 .66123 216.17 -447.89)"/>
<use xlink:href="#c3" transform="matrix(-.66123 0 0 .66123 195.45 -446.46)"/>
<use xlink:href="#c3" transform="matrix(-.66123 0 0 .66123 174.74 -443.03)"/>
<use xlink:href="#c3" transform="matrix(-.66123 0 0 .66123 154.03 -440.89)"/>
<g transform="translate(1.0403)">
<use xlink:href="#c3" transform="matrix(.66123 0 0 .66123 138.47 -378.32)"/>
<use xlink:href="#c3" transform="matrix(.66123 0 0 .66123 138.47 -392.6)"/>
<use xlink:href="#c3" transform="matrix(.66123 0 0 .66123 138.47 -404.03)"/>
<use xlink:href="#c3" transform="matrix(.66123 0 0 .66123 138.47 -414.46)"/>
<use xlink:href="#c3" transform="matrix(.66123 0 0 .66123 138.47 -447.89)"/>
<use xlink:href="#c3" transform="matrix(.66123 0 0 .66123 138.47 -446.46)"/>
<use xlink:href="#c3" transform="matrix(.66123 0 0 .66123 138.47 -439.03)"/>
<use xlink:href="#c3" transform="matrix(.66123 0 0 .66123 138.47 -428.89)"/>
</g>
</g>
<g stroke="#000" fill="#FFF">
<g transform="translate(-.45714 -2)">
<path id="circle1" d="m143.57 136.29a10.357 10.357 0 1 1 -20.71 0 10.357 10.357 0 1 1 20.71 0z"/>
</g>
<use xlink:href="#circle1" transform="translate(-108.71 16.786)"/>
<use xlink:href="#circle1" transform="translate(107.29 16.786)"/>
</g>
</g>
<rect height="15.153" width="34.762" stroke="#000" y="210.1" x="134.79" stroke-width=".841" fill="#002b7f"/>
<path d="m16.043 233.11a22.995 8.556 0 1 1 -45.99 0 22.995 8.556 0 1 1 45.99 0z" transform="matrix(-.67815 -.068828 .023825 .95770 195.48 -.83030)" stroke="#000" stroke-width="1.5" fill="#3e8225"/>
<path stroke-width="1.086" d="m36.937 229.28l-8.709 8.71 10.101 5.84 23.493-6.3-4.187-13.3-20.698 5.05z" stroke="#000" fill="#c00"/>
<path stroke-width="1.086" d="m267.41 229.28l8.71 8.71-10.11 5.84-23.49-6.3 4.19-13.3 20.7 5.05z" stroke="#000" fill="#c00"/>
<path d="m16.043 233.11a22.995 8.556 0 1 1 -45.99 0 22.995 8.556 0 1 1 45.99 0z" transform="matrix(.67815 -.068828 -.023825 .95770 108.87 -.83030)" stroke="#000" stroke-width="1.5" fill="#3e8225"/>
<g stroke="#000" store-width="0.7" fill="#FFF">
<g transform="translate(1.0695 -3.4759)">
<path id="c2" d="m126.2 214.7a4.278 4.278 0 1 1 -8.55 0 4.278 4.278 0 1 1 8.55 0z"/>
</g>
<use xlink:href="#c2" transform="translate(2.4064 10.16)"/>
<use xlink:href="#c2" transform="translate(-52.406 6.1497)"/>
<use xlink:href="#c2" transform="translate(-47.059 18.984)"/>
<use xlink:href="#c2" transform="matrix(-1 0 0 1 303.07 -3.4759)"/>
<use xlink:href="#c2" transform="matrix(-1 0 0 1 301.74 10.16)"/>
<use xlink:href="#c2" transform="matrix(-1 0 0 1 356.55 6.1497)"/>
<use xlink:href="#c2" transform="matrix(-1 0 0 1 351.2 18.984)"/>
</g>
</g>
<g transform="translate(0 -.00026004)">
<path stroke-width="1.714" d="m238.54 280.6c3.26-0.56 22.98-5.25 27.12-7.76-2.67-4.82-7.48-8.6-3.74-7.02 2.02 0.86 3.61-5.79-2.24-10.88-16.97 5.57-57.68 15.74-108.83 15.74-52.341 0-93.559-10.71-110.53-16.27-5.848 5.08-4.027 10.86-4.38 13.02-0.003 0.02 0.003 2.72 1.069 4.88 5.754 6.25 24.394 9.33 27.662 9.9 15.352 2.66 30.705 6.69 86.149 6.69 51.29 0 72.36-5.63 87.72-8.3z" stroke="#000" fill="#fff"/>
<g transform="matrix(1.0858 0 0 1.0858 -81.341 -69.111)">
<path stroke-width="1.578" d="m132.91 289.66c-3.01 0.52-22.15 7.3-25.97 9.6v0.07c0.32 1.98-3.32 11.25 2.06 15.93 15.63-5.13 59.52-20.4 106.63-20.4 48.21 0 88.14 15.27 103.78 20.4 5.38-4.68 1.73-13.95 2.06-15.93 0-0.02-0.01-0.05 0-0.07-3.82-2.3-22.96-9.08-25.97-9.6-14.14-2.46-28.77-11.59-79.84-11.59-47.23 0-68.61 9.13-82.75 11.59z" stroke="#000" fill="#fff"/>
<g transform="matrix(1.3844 -.14324 .15642 1.2678 -86.626 -64.755)">
<g id="t1" stroke="#000" store-width="1.6">
<g transform="matrix(.4996 0 0 .4996 56.864 150.9)">
<path id="a1" d="m115.51 301.56a1.872 1.872 0 1 1 -3.75 0 1.872 1.872 0 1 1 3.75 0z"/>
</g>
<use xlink:href="#a1" transform="matrix(.4996 0 0 .4996 55.527 153.31)"/>
<use xlink:href="#a1" transform="matrix(.4996 0 0 .4996 57.398 154.91)"/>
<path d="m113.52 303.67l8.52-3.17-4.18 2.4 2.68-0.09-2.49 1.17 4 0.28-8.53-0.59z"/>
</g>
</g>
<use xlink:href="#t1" transform="matrix(1.3844 -.14324 .15642 1.2678 -45.032 -76.658)"/>
<use xlink:href="#t1" transform="matrix(1.3784 .19234 -.15163 1.2683 100.17 -120.86)"/>
<use xlink:href="#t1" transform="matrix(1.3844 .14324 .15642 -1.2678 54.434 659.46)"/>
<use xlink:href="#t1" transform="matrix(1.3844 .14324 .15642 -1.2678 96.412 670.42)"/>
</g>
</g>
</g>
</svg>
