<svg id="iraq_flag" xmlns="http://www.w3.org/2000/svg" viewBox="79.461 52.641 411 274">
<rect id="rect7_1_" height="101.29" width="411" y="139.36" x="79.501" fill="#fff"/>
<rect id="rect3" height="91.288" width="411" y="53" x="79.5" fill="#ce1126"/>
<rect id="rect7" height="91.287" width="411" y="235.71" x="79.5"/>
<g id="g6" fill="#007a3d">
<g id="g8" fill="#007a3d">
<g id="g10">
<path id="path12" d="m325.52 173.18c-0.558-0.294-1.186-0.767-1.395-1.053-0.314-0.439-0.131-0.456 1.163-0.105 2.319 0.629 3.815 0.384 5.298-0.872l1.308-1.103 1.54 0.784c0.848 0.428 1.748 0.724 2.008 0.656 0.667-0.176 2.05-1.95 2.005-2.564-0.054-0.759 0.587-0.569 0.896 0.263 0.615 1.631-0.281 3.503-1.865 3.918-0.774 0.202-1.488 0.127-2.659-0.28-1.439-0.502-1.684-0.495-2.406 0.057-1.61 1.23-3.86 1.34-5.89 0.29z"/>
<path id="path14" d="m331.26 167.94c-0.563-0.716-1.239-3.423-1.02-4.088 0.192-0.575 0.39-0.69 0.914-0.526 0.918 0.287 1.13 0.92 0.993 3.063-0.1 1.75-0.36 2.21-0.88 1.56z"/>
</g>
<path id="path16" d="m263.74 165.99c-0.185 1.31 2.325 4.567 3.458 5.157-0.77 0.345-1.728 0.189-2.434 0.577-3.948 3.948-18.367 18.005-21 21.366 7.799 0.154 16.449-0.106 23.761-0.44-0.007-5.299 5.018-5.573 8.381-7.503 1.73 2.725 6.075 2.516 6.618 6.618 0 4.91 0.009 12.306 0.009 17.646h-66.625c-1.172 5.176-5.844 9.125-12.354 7.5 2.014-2.103 5.406-2.827 6.619-5.734 1.025-6.365-2.045-10.296-4.031-13.907 3.284-1.195 3.782-1.493 7.121-3.737-2.343 7.12 6.091 6.338 12.353 6.175 0.211-2.417 0.089-5.271-1.766-5.624 2.396-0.87 2.794-1.168 6.619-4.412v9.592c14.886 0 30.943-0.111 46.139-0.111 0-3.002 0.795-7.824-1.581-7.824-2.269 0-0.107 6.173-1.87 6.173s-23.719 0-35.63 0c0-1.328-0.034-4.104-0.034-6.104 1.51-1.511 1.331-1.38 11.648-11.698 1.01-1.05 8.25-7.59 14.58-13.73z"/>
<path id="path18" d="m352.8 165.74c2.488 1.338 4.457 3.191 7.502 3.971-0.353 1.26-1.475 1.759-1.769 3.087v26.91c3.402 0.75 4.118-1.178 5.737-2.205 0.442 4.307 3.185 8.53 3.088 11.91h-14.559v-43.67z"/>
<path id="path20" d="m333.39 180.15s5.296-4.471 5.296-4.643v23.485l3.814-0.006c0-8.948-0.118-18.023-0.118-26.338 1.548-1.549 4.58-3.792 5.338-5.359v42.059c-10.746 0-30.793 0.013-33.443 0.013-0.493-8.73-0.577-17.771 9.599-15.827v-3.562c-0.31-0.609-0.868 0.147-0.998-0.645 1.616-1.617 2.163-2.029 6.538-5.851 0 4.612 0.081 15.499 0.081 15.499 1.07 0 3.153 0.004 3.857 0.004 0 0.01 0.03-18.22 0.03-18.82zm-12.55 18.6c0.716 1.075 3.155 1.056 3.04-0.755-0.41-1.5-3.62-0.93-3.04 0.75z"/>
<circle id="circle22" cy="214.37" cx="224.03" r="2.042"/>
<path id="path24" d="m341.18 199.3"/>
<path id="path26" d="m329.45 199.3"/>
<path id="path28" d="m287.05 165.78c2.488 1.339 4.457 3.191 7.502 3.971-0.353 1.26-1.476 1.759-1.768 3.087v26.911c3.401 0.749 4.117-1.179 5.736-2.206 0.441 4.307 3.185 8.529 3.088 11.91h-14.559v-43.67z"/>
</g>
</g>
</svg>
