<svg xmlns="http://www.w3.org/2000/svg" viewBox="79.461 52.641 411 274">
<path fill="#fff" d="M79.5 139.36h411v101.29h-411z"/>
<path fill="#ce1126" d="M79.5 53h411v91.288h-411z"/>
<path d="M79.5 235.71h411v91.287h-411z"/>
<g fill="#007a3d">
<path d="M325.52 173.18c-.558-.294-1.186-.767-1.395-1.053-.314-.44-.13-.456 1.163-.105 2.32.63 3.815.384 5.298-.872l1.308-1.103 1.54.784c.848.43 1.748.73 2.008.66.667-.17 2.05-1.95 2.005-2.56-.054-.76.587-.57.896.27.615 1.63-.28 3.51-1.865 3.92-.774.21-1.488.13-2.66-.28-1.438-.5-1.683-.49-2.405.06-1.61 1.23-3.86 1.34-5.89.29zm5.74-5.24c-.563-.716-1.24-3.423-1.02-4.088.192-.575.39-.69.914-.526.918.287 1.13.92.993 3.063-.1 1.75-.36 2.21-.88 1.56zm-67.52-1.95c-.185 1.31 2.325 4.567 3.458 5.157-.77.345-1.728.19-2.434.577-3.948 3.948-18.367 18.005-21 21.366 7.8.154 16.45-.106 23.76-.44-.006-5.3 5.02-5.573 8.382-7.503 1.73 2.725 6.075 2.516 6.618 6.618 0 4.91.01 12.306.01 17.646h-66.626c-1.172 5.18-5.844 9.13-12.354 7.5 2.014-2.1 5.406-2.82 6.62-5.73 1.024-6.36-2.046-10.29-4.032-13.9 3.284-1.19 3.782-1.49 7.12-3.73-2.342 7.12 6.092 6.34 12.354 6.18.21-2.41.09-5.27-1.766-5.62 2.396-.87 2.794-1.17 6.62-4.41v9.6c14.885 0 30.942-.11 46.138-.11 0-3 .795-7.83-1.58-7.83-2.27 0-.108 6.18-1.87 6.18h-35.63c0-1.32-.035-4.1-.035-6.1 1.51-1.51 1.33-1.38 11.648-11.7 1.01-1.05 8.25-7.59 14.58-13.73zm89.06-.25c2.488 1.338 4.457 3.19 7.502 3.97-.353 1.26-1.475 1.76-1.77 3.088v26.91c3.403.75 4.12-1.178 5.738-2.205.442 4.307 3.185 8.53 3.088 11.91h-14.56v-43.67zm-19.41 14.41s5.296-4.47 5.296-4.643v23.485l3.814-.006c0-8.948-.118-18.023-.118-26.338 1.548-1.55 4.58-3.792 5.338-5.36v42.06c-10.746 0-30.793.013-33.443.013-.493-8.73-.577-17.77 9.6-15.82v-3.56c-.31-.61-.87.15-1-.64 1.617-1.61 2.164-2.03 6.54-5.85 0 4.61.08 15.5.08 15.5 1.07 0 3.153.01 3.857.01l.03-18.82zm-12.55 18.6c.716 1.075 3.155 1.056 3.04-.755-.41-1.5-3.62-.93-3.04.75z"/>
<circle cy="214.37" cx="224.03" r="2.042"/>
<path d="M287.05 165.78c2.488 1.34 4.457 3.19 7.502 3.97-.353 1.26-1.476 1.76-1.768 3.088v26.91c3.4.75 4.117-1.178 5.736-2.205.44 4.307 3.185 8.53 3.088 11.91h-14.56v-43.67z"/>
</g>
</svg>
