<svg id="iran_flag" viewBox="0 0 630 360" xmlns="http://www.w3.org/2000/svg" xmlns:xlink="http://www.w3.org/1999/xlink">
<rect width="630" fill="#da0000" height="360"/>
<rect width="630" fill="#fff" height="240"/>
<rect width="630" fill="#239f40" height="120"/>
<g transform="translate(8.4,100.4)">
<g id="tb4">
<g id="tb1" stroke="#fff" stroke-width="2" fill="none">
<path id="tbp1" transform="scale(1.4)" d="m0 1h26m-25 9v-5h8v4h8v-4h-5m-8 4h2m20 0h-5v-4h8m0-5v9h8v-9m-4 0v9"/>
<path id="tbp2" transform="scale(2.8)" d="m0 7h9m1 0h9"/>
<use y="120" xlink:href="#tbp2"/>
<use y="145.2" xlink:href="#tbp1"/>
</g>
<g id="tb3">
<use x="56" xlink:href="#tb1"/>
<use x="112" xlink:href="#tb1"/>
<use x="168" xlink:href="#tb1"/>
</g>
</g>
<use x="168" xlink:href="#tb3"/>
<use x="392" xlink:href="#tb4"/>
</g>
<g transform="matrix(45,0,0,45,315,180)" fill="#da0000">
<g id="emblem_half">
<path d="m-0.54815 0.83638a0.91205 0.91205 0 0 0 0.87669 -1.5588 1 1 0 0 1 -0.87669 1.5588"/>
<path d="m0.61834 0.66141a0.76393 0.76393 0 0 0 -0.1967 -1.4025 1 1 0 0 1 0.1967 1.4025"/>
<path d="m0 1-0.05-1 0.05-0.78728a0.31 0.31 0 0 0 0.11803 0.09909v0.58778l-0.040221 0.99331z"/>
<path d="m-0.02-0.85 0.02 0.01878a0.14431 0.14431 0 0 0 0.25208 -0.13649 0.13641 0.13641 0 0 1 -0.25208 0.04308"/>
</g>
<use xlink:href="#emblem_half" transform="scale(-1,1)"/>
</g>
</svg>
