<svg id="jersey_flag" viewBox="0 0 30 18" xmlns="http://www.w3.org/2000/svg" xmlns:xlink="http://www.w3.org/1999/xlink">
<rect width="30" fill="#fff" height="18"/>
<path stroke="#df112d" stroke-width="2" d="m0 0 30 18m-30 0 30-18"/>
<g stroke="#000" stroke-width=".0153">
<path d="m16.57 2.693c0.3855 1.5611 0.1741 3.4891-1.5673 4.5588-1.7415-1.0697-1.9529-2.9977-1.5673-4.5588 0.41048-0.37317 2.2762-0.60328 3.1345 0z" fill="#e8112d"/>
<path d="m15 2.3796c0.63844 0 1.233 0.16898 1.5835 0.38805 0.06878-0.53825 0.31287-1.0765 0.60081-1.4833-0.30041-0.00627-0.43503 0.15333-0.43809 0.31918-0.07513-0.21279-0.36931-0.20028-0.46008-0.08449 0.32863 0.22218 0.07513 0.61647-0.2221 0.53512-0.13964-0.038201-0.21342-0.13557-0.23957-0.27693a0.16154 0.16154 0 1 0 -0.068908 -0.010714c-0.09395 0.15334-0.26241 0.19938-0.38311 0.16558-0.1565-0.043809-0.22222-0.18463-0.22222-0.3098 0-0.32545 0.31287-0.37551 0.40681-0.31918-0.0061-0.21905-0.3504-0.3943-0.4568-0.21279 0.1189-0.21279 0.1127-0.51321-0.1002-0.71349-0.2127 0.20028-0.219 0.5007-0.1 0.71349-0.10641-0.1815-0.45067-0.00625-0.4569 0.2128 0.09382-0.056331 0.40681-0.00627 0.40681 0.31918 0 0.12517-0.06572 0.26599-0.22222 0.3098-0.1207 0.033791-0.28917-0.012241-0.38323-0.16558a0.16154 0.16154 0 1 0 -0.068908 0.010714c-0.0262 0.14136-0.1001 0.23872-0.2396 0.27692-0.2972 0.08135-0.5507-0.31294-0.2222-0.53512-0.0907-0.11579-0.3848-0.1283-0.46 0.08449-0.0032-0.16585-0.1377-0.32545-0.4381-0.31918 0.28782 0.40681 0.53191 0.94505 0.60081 1.4833 0.35049-0.21907 0.94508-0.38805 1.5834-0.38805z" fill="#f9dd16"/>
<g id="leopard">
<g fill="#f9dd16">
<path d="m16.324 3.9106c-0.03848 0.00917-0.03848 0.058762-0.05864 0.058762 0.10005-0.00276 0.14868-0.030297 0.17897-0.080801-0.02199 0.020194-0.0028 0.058762-0.01014 0.067937 0.07342-0.025704 0.10836-0.088131 0.08271-0.13036 0.01649 0.023859 0.06426 0.036723 0.07892 0.038556-0.05143-0.0404-0.01466-0.13221-0.09737-0.17994 0.02761-0.00184 0.08087 0.029369 0.09553 0.066104-0.01283-0.082633-0.02578-0.13588-0.0937-0.18178 0.0073 0.00826 0.04593 0.015601 0.06243 0-0.04398-0.027548-0.05693-0.073446-0.05314-0.10283 0.0051-0.041109-0.02211-0.049587-0.07354-0.036723-0.0463 0.011569-0.15234 0.018362-0.21477 0.018362-0.12852 0-0.24054 0-0.34707-0.073446 0.15979 0.066092 0.36356-0.073446 0.36356-0.18912 0-0.12854-0.15796-0.2332-0.47742-0.16342-0.31946 0.069769-0.70868 0.040388-0.70868-0.066104 0-0.1065 0.27903-0.12119 0.42233-0.09915 0.14318 0.022027 0.24592 0.036723 0.51407-0.058762-0.06609 0.025704-0.27915 0.033046-0.44798-0.014684-0.16896-0.047742-0.58395-0.047742-0.58762 0.17627-0.0037 0.224 0.44187 0.2036 0.82633 0.14689 0.22393-0.033058 0.34145-0.011019 0.34145 0.062427 0 0.069769-0.20561 0.09915-0.36357 0.080788-0.15784-0.018349-0.31946-0.014684-0.50674 0.0404-0.15637 0.045983-0.26437 0-0.43699 0.029381-0.08368 0.01422-0.28648 0-0.38653-0.16527-0.06157 0.044078-0.24702 0.13634-0.27817 0.22631-0.0441 0.082621-0.01466 0.1648 0.04398 0.24559 0.07403 0.10168-0.03665 0.086298-0.11557 0.089975-0.10824 0.00503-0.25313-0.011496-0.32875-0.097317-0.06695-0.076048-0.15613-0.137-0.22735-0.08063-0.03665 0.029014-0.0015 0.067204 0.02749 0.056514 0.02871-0.010567 0.06267 0.01069 0.09333 0.024116-0.04899-0.021061-0.10286-0.00472-0.12388 0.014061-0.02895 0.02596 0.0062 0.075547 0.04129 0.058029 0.02749-0.013744 0.08393-0.022906 0.12058 0.010689-0.0397-0.00764-0.081-0.00602-0.10079 0.015271-0.01979 0.021294-0.0045 0.052299 0.03824 0.050393 0.06866-0.00305 0.08625 0.045055 0.15503 0.035172-0.04227 0.00551-0.06621 0.027536-0.07721 0.044065 0.06426-0.029381 0.13524 0.049819 0.21856 0.031213-0.0325 0.013377-0.08491 0.045324-0.08442 0.069781 0.04948-0.056929 0.38189 0.044065 0.38922-0.080788 0.0092 0.025704 0.0073 0.064259-0.01832 0.097317 0.04251-0.025716 0.17995-0.03489 0.2221-0.13405 0.0037 0.029381-0.0018 0.067949-0.02749 0.077123 0.0441 0.014416 0.10213-0.018423 0.1615-0.10649 0.02358-0.034939 0.0292-0.058163 0.02517-0.084429 0.05888 0.00222 0.10152-0.012559 0.14745-0.051456 0.04777-0.040388 0.0992 0.033058 0.17995-0.018362 0.08087-0.051407 0.15063-0.00734 0.19461-0.033046 0.0441-0.025704 0.1047 0.00917 0.15246-0.020194 0.04777-0.029381 0.1218 0.014379 0.20084-0.048048 0.12436 0.045556 0.2695 0.12997 0.62549 0.064565 0.20402-0.037493 0.26803 0.031213 0.26803 0.12487 0 0.064259-0.03763 0.069854-0.06609 0.071614-0.11349 0.00698-0.16224-0.042489-0.20707-0.026632-0.03005 0.010702-0.04838 0.059568-0.0049 0.076366-0.03592 0.018325-0.03128 0.05269-0.01295 0.065285 0.01832 0.012595 0.0656 0.00115 0.09773-0.013744-0.04129 0.018704-0.08405 0.052299-0.05962 0.087422 0.01478 0.021318 0.05216 0.039386 0.0871-0.0061 0.03506-0.045824 0.0992-0.084001 0.14-0.077942z"/>
<path d="m14.063 2.9411c-0.10286-0.04222-0.13756-0.043381-0.11386 0.0404 0.01014 0.035807 0.03482 0.086298 0.05962 0.10925 0.000978-0.034878 0.0138-0.13128 0.05424-0.14965z"/>
<path d="m14.384 2.9411c0.10286-0.04222 0.13756-0.043381 0.11386 0.0404-0.01014 0.035807-0.03494 0.086298-0.05974 0.10925-0.000855-0.034878-0.01368-0.13128-0.05412-0.14965z"/>
<path d="m14.224 2.8846c0.19461 0 0.21892 0.091343 0.21794 0.20518-0.000855 0.12302-0.06695 0.080788-0.10457 0.2387-0.01466 0.061743-0.06389 0.065188-0.11337 0.065188-0.0496 0-0.09871-0.00345-0.11349-0.065188-0.0374-0.15792-0.1036-0.11569-0.1045-0.23871-0.0009-0.11383 0.0234-0.20517 0.2181-0.20517z"/>
<path d="m13.723 3.3358c-0.0496-0.029381-0.08161-0.00905-0.10176-0.00353 0.06426 0.016517 0.06682 0.099015 0.21379 0.13757-0.03311-0.00917-0.05143 0.00919-0.08271-0.00734 0.06059 0.047742 0.12852 0.10302 0.27182 0.10466 0.0799 0.0009162 0.02468 0.042233-0.02761 0.018361 0.05424 0.056001 0.16162 0.010103 0.22955 0.11201 0.01283-0.078956-0.12669-0.20382-0.06243-0.29378-0.19815-0.00844-0.2144-0.11827-0.32863-0.20565-0.09297-0.071052-0.10128-0.14328-0.14232-0.2785-0.01869-0.06123-0.0904-0.099406-0.13011-0.084905-0.03469 0.012681-0.0474 0.04277-0.01759 0.065285 0.02981 0.022527 0.06792 0.025582 0.07611 0.082657-0.03873-0.046386-0.09675-0.063184-0.12461-0.03417-0.01698 0.017665-0.01014 0.058884 0.02639 0.062622 0.0595 0.00611 0.01674 0.064137 0.08442 0.12091-0.05998-0.06746-0.1119-0.073568-0.14403-0.036919-0.01918 0.021953 0 0.061083 0.04129 0.056893 0.05974-0.00608 0.12901 0.14546 0.21843 0.18384z"/>
<path d="m15.32 3.9032c-0.03127 0.00551-0.02199 0.056929-0.06426 0.060606 0.10103 0 0.15234-0.023883 0.20011-0.062439-0.02199 0.012852-0.03115 0.04591-0.03299 0.064259 0.05326-0.045898 0.17995-0.049563 0.24604-0.036711s0.07709-0.018362 0.10091-0.060594c0.02395-0.042233-0.0092-0.066104-0.04215-0.09915-0.03311-0.033058-0.04044-0.078956-0.03311-0.15608-0.17628-0.23502-0.49208-0.12119-0.49575-0.018362 0.11386 0.1322 0.12852 0.11751 0.22405 0.13587 0.09541 0.018361 0.15393 0.018313 0.08991 0.071614-0.02199 0.018362-0.11386 0.00974-0.18545 0.012852-0.16016 0.00696-0.23346-0.11063-0.28074-0.049551-0.03897 0.050235 0.0012 0.07242 0.08063 0.069745-0.05498 0.0003909-0.12791-0.00258-0.11545 0.048622 0.02101 0.086274 0.10348-0.01604 0.1356 0.019461-0.02749-0.00649-0.07024 0.010311-0.07183 0.036271-0.0015 0.025972 0.06108 0.059556 0.12986 0.00496 0.03763-0.029931 0.08564-0.041133 0.11459-0.041377z"/>
<path d="m15.457 3.5449c-0.0573-0.020964-0.10983-0.033779-0.17702-0.019901"/>
<path d="m14.593 3.5176c-0.04716 0.10132-0.01857 0.15134-0.0116 0.19835"/>
<path d="m14.091 3.0373c0.03237 0.016187 0.05058-0.029564 0.0981 0.019009-0.01307-0.014171-0.02932 0.037664-0.06573 0.00326"/>
<path d="m14.355 3.0373c-0.03237 0.016187-0.05058-0.029564-0.0981 0.019009 0.01307-0.014171 0.02932 0.037664 0.06572 0.00326"/>
<path d="m14.257 3.0564c-0.01112 0.00917-0.01222-0.00732-0.0038 0.036014 0.01564 0.079567 0.03408 0.11679-0.0303 0.11679-0.06573 0-0.04581-0.037224-0.0303-0.11679 0.0086-0.043332 0.0075-0.02684-0.0037-0.036014"/>
</g>
<g stroke-width=".00765" fill="#ff0016">
<path d="m14.224 3.3616c0.05229 0 0.08258-0.0009163 0.0744-0.074362-0.0034-0.029479 0.03579-0.041219 0.02199-0.089059 0.01466 0.058749-0.09639 0.053142-0.09639 0.02651 0 0.026632-0.11105 0.032239-0.09639-0.02651-0.0138 0.04784 0.02529 0.05958 0.02199 0.089059-0.0082 0.073446 0.02211 0.074362 0.0744 0.074362z"/>
<path d="m14.177 3.213-0.126-0.035"/>
<path d="m14.177 3.2195-0.14025-0.00117"/>
<path d="m14.178 3.2267-0.1196 0.032044"/>
<path d="m14.271 3.213 0.12559-0.035037"/>
<path d="m14.271 3.2195 0.14025-0.00117"/>
<path d="m14.27 3.2267 0.1196 0.032044"/>
</g>
<g stroke-width=".00159" fill="#0051ba">
<path d="m13.573 2.8372c-0.03653-0.045482-0.12803-0.00707-0.12986 0.049355 0.03091-0.036576 0.08136 0.016114 0.10885 0.00503 0.01906-0.00767 0.0358-0.03588 0.02101-0.054388z"/>
<path d="m13.526 2.9449c-0.03653-0.045482-0.12791-0.00707-0.12974 0.049355 0.03079-0.036576 0.08124 0.016114 0.10885 0.00503 0.01906-0.00766 0.0358-0.03588 0.02089-0.054388z"/>
<path d="m13.502 3.0895c-0.04141-0.041084-0.12791 0.00737-0.12339 0.063636 0.02663-0.039814 0.08258 0.00688 0.10873-0.00724 0.01808-0.00976 0.03152-0.039667 0.01466-0.056392z"/>
<path d="m13.546 3.5378c-0.04593-0.036039-0.1262 0.022026-0.11532 0.077416 0.02187-0.042599 0.08283-0.00268 0.10714-0.019693 0.01686-0.011789 0.02688-0.043039 0.0082-0.057723z"/>
<path d="m13.543 3.6359c-0.05473-0.020182-0.11337 0.059788-0.08588 0.10913 0.0076-0.047254 0.07794-0.028025 0.0959-0.051725 0.01246-0.016395 0.01222-0.049184-0.01002-0.057406z"/>
<path d="m13.614 3.7092c-0.05473-0.020194-0.11337 0.059776-0.08601 0.10913 0.0077-0.047266 0.07806-0.028037 0.09602-0.051737 0.01246-0.016395 0.01222-0.049184-0.01002-0.057393z"/>
<path d="m15.048 3.8512c-0.05473-0.020182-0.11337 0.059788-0.08588 0.10913 0.0077-0.047254 0.07794-0.028025 0.0959-0.051725 0.01246-0.016395 0.01222-0.049184-0.01002-0.057406z"/>
<path d="m15.122 3.9177c-0.05669-0.013829-0.1058 0.072298-0.07293 0.1182 0.0022-0.047828 0.07428-0.036723 0.08943-0.062317 0.01051-0.017702 0.0066-0.050259-0.01649-0.055879z"/>
<path d="m15.07 3.757c-0.05058-0.029198-0.12192 0.039643-0.10323 0.092932 0.01564-0.045262 0.08161-0.014355 0.10335-0.034646 0.01503-0.014049 0.0204-0.046399-0.000123-0.058285z"/>
<path d="m16.09 3.8719c-0.05669-0.013817-0.1058 0.072298-0.07293 0.11821 0.0023-0.047828 0.0744-0.036723 0.08943-0.062317 0.01051-0.017702 0.0066-0.050259-0.01649-0.055891z"/>
<path d="m16.091 3.7818c-0.05143-0.027438-0.12033 0.043821-0.09993 0.096438 0.01405-0.045776 0.08112-0.017152 0.10213-0.038189 0.01454-0.014562 0.01881-0.04707-0.0022-0.058249z"/>
<path d="m16.131 3.9524c-0.05717-0.011337-0.1025 0.076855-0.06768 0.12127 0.000245-0.047877 0.07269-0.039948 0.08662-0.066165 0.0098-0.018154 0.0044-0.050503-0.01894-0.055109z"/>
<path d="m14.228 3.3175c0.03592 0 0.05045 0.010482 0.05045 0.075364 0 0.13746-0.0016 0.19656-0.04581 0.19656-0.04435 0-0.04129-0.05616-0.04129-0.15708 0-0.052653 0-0.07898-0.01063-0.074594 0-0.034353 0.01527-0.040254 0.04728-0.040254z"/>
</g>
</g>
<use xlink:href="#leopard" transform="matrix(.9 0 0 .9 1.4534 1.6714)"/>
<use xlink:href="#leopard" transform="matrix(.67 0 0 .75 4.9087 3.3538)"/>
</g>
</svg>
