<svg viewBox="0 0 30 18" xmlns="http://www.w3.org/2000/svg" xmlns:xlink="http://www.w3.org/1999/xlink">
<path fill="#fff" d="M0 0h30v18H0z"/>
<path stroke="#df112d" stroke-width="2" d="M0 0l30 18M0 18L30 0"/>
<g stroke="#000" stroke-width=".015">
<path d="M16.57 2.693c.386 1.56.174 3.49-1.567 4.56-1.742-1.07-1.953-3-1.568-4.56.41-.373 2.277-.603 3.135 0z" fill="#e8112d"/>
<path d="M15 2.38c.638 0 1.233.17 1.583.388.07-.54.313-1.077.6-1.484-.3-.006-.434.154-.437.32-.075-.213-.37-.2-.46-.085.33.22.075.61-.222.53-.14-.04-.213-.14-.24-.28a.162.162 0 1 0-.068-.01.35.35 0 0 1-.384.16.312.312 0 0 1-.222-.31c0-.33.313-.38.407-.32-.006-.22-.35-.4-.457-.21a.585.585 0 0 0-.1-.71.58.58 0 0 0-.1.71c-.106-.18-.45-.01-.457.21.094-.06.407-.01.407.32a.312.312 0 0 1-.222.31.35.35 0 0 1-.383-.17.162.162 0 1 0-.07.01c-.026.14-.1.24-.24.27-.296.08-.55-.32-.22-.54-.092-.12-.386-.13-.46.08-.004-.17-.14-.33-.44-.32.29.4.533.94.602 1.48.35-.22.945-.39 1.583-.39z" fill="#f9dd16"/>
<g id="a">
<g fill="#f9dd16">
<path d="M16.324 3.91c-.038.01-.038.06-.06.06.1-.003.15-.03.18-.08-.022.02-.002.057-.01.066.074-.025.11-.088.083-.13.016.024.064.037.08.04-.053-.042-.016-.134-.1-.18.03-.003.082.028.097.065-.013-.08-.026-.13-.094-.18.008.01.046.02.063 0a.11.11 0 0 1-.053-.1c.005-.04-.023-.05-.074-.03a1.2 1.2 0 0 1-.215.02c-.12 0-.24 0-.34-.07.16.07.37-.07.37-.19s-.16-.23-.48-.16c-.32.07-.7.04-.7-.06s.28-.12.42-.1c.15.03.25.04.52-.06-.07.03-.28.04-.45-.01-.17-.05-.58-.05-.59.18 0 .23.44.21.83.15.22-.03.34-.01.34.07 0 .07-.2.1-.36.08a1.226 1.226 0 0 0-.51.04c-.15.05-.26 0-.44.03a.38.38 0 0 1-.38-.16c-.06.05-.25.14-.28.23-.04.08-.01.17.05.25.08.1-.03.09-.11.09-.11 0-.25-.01-.33-.1-.07-.07-.16-.13-.23-.08-.03.03 0 .07.03.06.03-.01.06.01.09.03a.127.127 0 0 0-.12.01c-.03.03.01.07.04.06.03-.01.08-.02.12.01-.04 0-.08 0-.1.02-.02.02 0 .05.04.05.07 0 .09.05.16.04a.107.107 0 0 0-.08.04c.07-.03.14.05.22.03-.03.02-.08.05-.08.07.05-.06.38.05.39-.08a.105.105 0 0 1-.02.09c.04-.02.18-.03.22-.13 0 .03 0 .07-.03.08.04.01.1-.02.16-.11.02-.03.03-.06.02-.08a.197.197 0 0 0 .15-.05c.05-.04.1.03.18-.02.08-.05.15-.01.19-.03.04-.02.1.01.15-.02.05-.03.12.02.2-.04.13.04.27.13.63.06.2-.04.27.03.27.12 0 .07-.03.07-.06.08-.11.01-.16-.04-.2-.03-.03.01-.05.06 0 .08-.03.02-.03.06-.01.07.02.01.07 0 .1-.01-.04.02-.08.05-.06.08.02.02.06.04.09 0 .04-.05.1-.09.14-.08zm-2.26-.97c-.104-.04-.14-.042-.115.042.01.035.03.086.06.11 0-.036.01-.133.05-.15zm.32 0c.103-.04.138-.042.114.042a.275.275 0 0 1-.06.11c0-.036-.014-.133-.054-.15z"/>
<path d="M14.224 2.885c.195 0 .22.09.218.205 0 .123-.067.08-.105.238-.014.062-.064.066-.113.066-.05 0-.1-.004-.113-.066-.03-.157-.1-.115-.1-.238 0-.114.03-.205.22-.205z"/>
<path d="M13.723 3.336c-.05-.03-.082-.01-.102-.004.07.017.07.1.22.138-.03-.01-.05.01-.08-.008a.39.39 0 0 0 .27.105c.08 0 .03.042-.02.02.06.055.16.01.23.11.01-.078-.13-.203-.06-.293-.2-.01-.21-.12-.33-.206-.09-.07-.1-.143-.14-.278-.02-.062-.09-.1-.13-.085-.03.012-.05.042-.02.065.03.023.07.026.08.083-.04-.047-.09-.064-.12-.035-.01.018-.01.06.03.063.06.01.02.07.09.13-.06-.06-.11-.07-.14-.03-.02.02 0 .06.04.06.06 0 .13.15.22.19zm1.597.567c-.03.006-.022.057-.064.06.1 0 .152-.023.2-.062a.12.12 0 0 0-.033.07c.053-.04.18-.05.246-.03s.07-.02.1-.06c.02-.04-.01-.06-.05-.1-.04-.03-.04-.08-.04-.15-.18-.23-.5-.12-.5-.02.11.13.12.12.22.14.09.02.15.02.09.08-.02.02-.12.01-.19.01-.16.01-.24-.11-.28-.05-.04.05 0 .08.08.07-.06 0-.13 0-.12.05.02.09.1-.01.13.02-.03 0-.07.01-.07.04s.06.06.13.01a.2.2 0 0 1 .11-.04zm.137-.358a.303.303 0 0 0-.177-.02m-.687-.007c-.047.1-.02.15-.012.198m-.49-.68c.04.017.06-.03.1.02-.01-.014-.03.038-.06.004m.23-.023c-.03.016-.05-.03-.1.02.02-.015.03.037.07.003"/>
<path d="M14.257 3.056c-.01.01-.012-.007-.004.036.016.08.034.117-.03.117-.066 0-.046-.04-.03-.12.008-.05.007-.03-.004-.04"/>
</g>
<path d="M14.224 3.362c.052 0 .083 0 .074-.075-.003-.03.036-.04.022-.09.015.06-.096.054-.096.028 0 .026-.11.032-.096-.027-.014.048.025.06.022.09-.01.073.022.074.074.074zm-.047-.15l-.126-.034m.13.042l-.14-.002m.14.01l-.12.03m.22-.045l.13-.035m-.12.042l.14-.002m-.14.01l.12.03" stroke-width=".008" fill="#ff0016"/>
<path d="M13.573 2.837c-.037-.045-.128-.007-.13.05.03-.037.082.016.11.005.018-.008.035-.036.02-.055zm-.047.108c-.037-.046-.128-.007-.13.05.03-.037.08.015.11.004.018-.01.035-.04.02-.06zm-.024.145c-.04-.042-.128.007-.123.063.02-.04.08.007.1-.007.02-.01.03-.04.01-.056zm.044.448c-.046-.036-.126.022-.115.077.03-.042.09-.002.11-.02.02-.01.03-.043.01-.057zm-.003.098c-.055-.02-.113.06-.086.11.008-.048.078-.03.096-.053.012-.016.012-.05-.01-.057zm.07.074c-.054-.02-.112.06-.085.108.008-.047.078-.028.096-.05.012-.018.012-.05-.01-.06zm1.435.14c-.055-.02-.113.06-.086.11.008-.047.078-.028.096-.05.012-.018.012-.05-.01-.06zm.074.068c-.057-.014-.106.072-.073.118 0-.048.07-.037.08-.062.01-.018 0-.05-.02-.056zm-.052-.16c-.05-.03-.122.04-.103.092.015-.045.08-.014.103-.035.015-.014.02-.046 0-.058zm1.02.114c-.057-.014-.106.072-.073.118.002-.048.074-.037.09-.062.01-.018.006-.05-.017-.056zm0-.09c-.05-.028-.12.044-.1.096.015-.046.082-.017.103-.038.015-.015.02-.047-.002-.058zm.04.17c-.056-.01-.1.077-.067.122 0-.048.073-.04.087-.066.01-.02.004-.05-.02-.056zm-1.902-.635c.036 0 .05.01.05.076 0 .137 0 .196-.045.196s-.042-.06-.042-.16c0-.05 0-.08-.01-.08 0-.04.02-.04.05-.04z" stroke-width=".002" fill="#0051ba"/>
</g>
<use xlink:href="#a" transform="matrix(.9 0 0 .9 1.453 1.67)"/>
<use xlink:href="#a" transform="matrix(.67 0 0 .75 4.91 3.354)"/>
</g>
</svg>
