<svg viewBox="-120 -80 240 160" xmlns="http://www.w3.org/2000/svg" xmlns:xlink="http://www.w3.org/1999/xlink">
<defs>
<path id="spearshape" transform="rotate(30)" stroke-miterlimit="10" d="m-1 55.426h2v-93.426c2-2 2-5 2-8 0-2 0-10-3-18.663-3 8.663-3 16.663-3 18.663 0 3 0 6 2 8z"/>
</defs>
<rect y="-80" x="-120" height="160" fill="#fff" width="240"/>
<rect y="-80" x="-120" height="48" width="240"/>
<rect y="32" x="-120" height="48" fill="#060" width="240"/>
<g id="spear">
<use stroke="#000" xlink:href="#spearshape"/>
<use xlink:href="#spearshape" fill="#fff"/>
</g>
<use xlink:href="#spear" transform="scale(-1,1)"/>
<path d="m-120-24v48h101c3 8 13 24 19 24s16-16 19-24h101v-48h-101c-3-8-13-24-19-24s-16 16-19 24z" fill="#b00"/>
<path id="deco_r" d="m19 24c3-8 5-16 5-24s-2-16-5-24c-3 8-5 16-5 24s2 16 5 24"/>
<use xlink:href="#deco_r" transform="scale(-1,1)"/>
<g fill="#fff">
<ellipse rx="4" ry="6"/>
<path id="deco_br" d="m1 5.85s4 8 4 21-4 21-4 21z"/>
<use xlink:href="#deco_br" transform="scale(-1)"/>
<use xlink:href="#deco_br" transform="scale(-1,1)"/>
<use xlink:href="#deco_br" transform="scale(1,-1)"/>
</g>
</svg>
