<svg xmlns="http://www.w3.org/2000/svg" xmlns:xlink="http://www.w3.org/1999/xlink" viewBox="0 0 625 400">
<path fill="#032ea1" d="M0 0h625v400H0z"/>
<path fill="#e00025" d="M0 100h625v200H0z"/>
<g stroke="#000" stroke-width=".96" transform="translate(117.14 -434.93)" fill="#fff">
<g stroke-linejoin="bevel">
<path d="M139.02 623.46h113.8v43.788h-113.8z"/>
<path d="M246.95 647.64h3.586v16.495h-3.586zm-107.93-8.15h113.8v5.09h-113.8zm0-6.9h113.8v4.49h-113.8z"/>
<path stroke-width=".945" d="M139.02 625.7h113.8v4.354h-113.8z"/>
<path d="M168.98 647.64h3.586v16.495h-3.586zm48.99 0h3.586v16.495h-3.586zm-78.05 0h3.586v16.495h-3.586zm7.03 0h3.586v16.495h-3.586zm7.5 0h3.586v16.495h-3.586zm7.5 0h3.586v16.495h-3.586zm62.82 0h3.586v16.495h-3.586zm7.5 0h3.586v16.495h-3.586zm7.5 0h3.586v16.495h-3.586z"/>
<path stroke-linejoin="miter" d="M94.51 669.55c1.76-.897 3.767-2.984 4.424-5.32h193.07c.657 2.336 2.665 4.423 4.425 5.32z"/>
</g>
<path d="M193 556.8s-.144-4.112 2.25-4.157c2.396.044 2.25 4.157 2.25 4.157zm-12.49 54.54v-5.536c-.08-2.768-2.76-2.968-2.838-4.986 0 0-.346-3.027.452-4.408 1.084 4.047 3.056 3.304 3.056 1.64 0-1.453-1.117-2.804-3.408-6.33-.732-1.128-.28-4.66.747-5.923.39 3.07.85 4.54 2.17 4.54.8 0 1.46-.524 1.46-2.062 0-1.957-1.33-2.945-1.98-4.725-.76-2.078-.24-4.196 1.02-5.38.54 3.03.38 4.237 1.72 4.237 2.71-.858 0-4.786-.58-5.777-.67-1.155.89-3.46.89-3.46.86 2.69 1.14 2.91 2.07 2.66 1.17-.315 1.02-2.056-.41-3.463-.91-.89-.81-2.212.16-3.274.97 1.905 2.22 1.79 2.34.658l-.79-4.39h17.25l-.86 4.25c-.24 1.22 1.4 1.48 2.42-.51.97 1.06 1.07 2.39.16 3.28-1.44 1.41-1.59 3.15-.41 3.47.93.25 1.2.03 2.07-2.66 0 0 1.4 1.57.89 3.46-.58.99-3.3 4.92-.58 5.78 1.34 0 1.18-1.2 1.72-4.23 1.26 1.19 1.78 3.31 1.02 5.38-.65 1.78-1.98 2.77-1.98 4.73 0 1.54.66 2.06 1.46 2.06 1.32 0 1.78-1.47 2.17-4.54 1.03 1.27 1.48 4.8.75 5.92-2.29 3.53-3.41 4.88-3.41 6.33 0 1.67 1.97 2.41 3.06-1.64.8 1.38.45 4.41.45 4.41-.08 2.02-2.76 2.22-2.84 4.99v5.54zm7.22-46.02l-.397-3.125h15.838l-.39 3.125zm1.06-3.19l-.34-2.57h13.603l-.34 2.57zm2.16-2.66l-.227-2.57h9.058l-.22 2.57zm33.02 110.08c-2.027-.78-4.977-2.92-4.977-5.07v-24.297l2.638-3.358h-52.77l2.53 3.36v24.296c0 2.15-2.02 4.29-4.05 5.07z"/>
<path stroke-linejoin="bevel" d="M178.24 647.64h3.586v16.495h-3.586zm30.32 0h3.586v16.495h-3.586z"/>
<path d="M167.91 609.17v27.656h54.023v-5.957l.078-21.7c-2.2.86-2.59 2.87-2.59 2.87v11.77h-48.75v-11.77s-.54-2.01-2.75-2.87z"/>
<path d="M214.6 669.55c-1.766-.78-5.612-2.92-5.612-5.07v-27.19c.378-1.518 2.436-2.414 3.76-3.358h-35.822c1.705.902 3.606 1.652 4.285 3.36v27.19c0 2.15-3.04 4.29-4.8 5.07z"/>
<path d="M219.41 634.22v-19.587h-4.91v-1.91h-38.84v1.91h-4.91v19.587zm-12.55 35.33c-1.73-.78-4.25-2.92-4.25-5.07v-23.214l1.422-2.11h-17.69l1.42 2.11v23.215c0 2.16-2.52 4.29-4.25 5.07z"/>
<path stroke-width=".981" d="M190.71 639.16h8.966v30.377h-8.966z"/>
<path stroke-linejoin="bevel" d="M204.38 632.48c.02-2 5.838-2.09 8.832-3.795H177.26c2.994 1.704 8.675 1.844 8.675 3.795l1.217 3.882 14.883.598z"/>
<path d="M211.41 611.34c0-4.9.205-6.786 1.71-6.786v15.58c-3.69 1.34-6.325 6.05-6.325 6.05h-23.21s-2.635-4.71-6.326-6.05v-15.58c1.85 0 1.86 1.972 1.86 6.786zm1.71-2.01c0-5.618 4.85-6.25 4.85-6.25v5c-1.845-.08-2.736 1.578-2.736 4.044 0 2.466 1.487 2.506 1.487 2.506v14.19h-3.6z"/>
<path d="M177.28 609.33c0-5.618-4.85-6.25-4.85-6.25v5c1.845-.08 2.736 1.578 2.736 4.044 0 2.466-1.487 2.506-1.487 2.506v14.19h3.6z"/>
<g stroke-width=".8" fill="none">
<path d="M186.84 570.62h17.128m-19.158 5.35h20.92m-22.95 6.49h24.904m-27.024 7.93h29.536m-30.216 9.04h30.426"/>
<path stroke-width=".96" d="M170.75 628.92h48.66m-33.22.01h18.036v6.63H186.19z"/>
</g>
<path d="M183.93 614.24c2.99 3.59 2.713 9.68 2.68 13.27h17.342c-.035-3.59-.312-9.68 2.678-13.27zm9.75-41.13l-2.376-1.224v-3.497c.97.29 2.062.41 2.168 1.95.338-2.21.948-2.1 1.907-2.97.95.86 1.56.75 1.9 2.96.1-1.55 1.19-1.67 2.17-1.96v3.5l-2.38 1.22z"/>
<path d="M193.52 578.85l-3.946-2.713v-3.223c1.383.32 2.936.45 3.088 2.15.482-2.424 1.35-3.676 2.715-4.62 1.365.944 2.233 2.196 2.715 4.62.152-1.7 1.705-1.83 3.09-2.15v3.223l-3.948 2.713z"/>
<path d="M193.24 587.8l-4.538-3.985v-4.736c1.59.47 3.377.66 3.552 3.15.553-3.56 1.552-5.4 3.12-6.79 1.57 1.38 2.57 3.22 3.123 6.78.175-2.5 1.96-2.69 3.55-3.16v4.73l-4.536 3.98zm8.37 5.29l-4.104 5.676h-4.646l-4.104-5.676zm-15.22 9.53c2.053 1.122 2.81 3.357 3.03 7.553h11.55c.22-4.196.977-6.43 3.03-7.553z"/>
<path stroke-linejoin="bevel" d="M204.17 593.09v-5.702c-1.95.537-3.213 1.69-3.776 3.258 0-1.893-2.49-6.257-5.207-8.43-2.724 2.432-5.257 6.38-5.206 8.43-.46-1.492-1.82-2.72-3.77-3.258v5.702z"/>
<path stroke-linejoin="bevel" d="M205.04 602.62v-5.702c-2.138.537-3.522 1.69-4.14 3.258 0-1.893-2.73-6.258-5.707-8.43-2.986 2.432-5.763 6.38-5.707 8.43-.508-1.492-2.002-2.72-4.14-3.258v5.702z"/>
<path stroke-linejoin="bevel" d="M207.44 614.32v-6.577c-2.66.687-4.312 2.653-5.15 3.8 0-3.56-4.02-8.99-7.1-10.768-3.16 1.825-7.1 7.435-7.1 10.768-.86-1.14-2.49-3.113-5.15-3.8v6.577z"/>
<path stroke-linejoin="bevel" d="M206 628.92v-6.762c-2.346.92-3.048 3.18-3.786 4.717.29-6.86-3.862-14.23-7.024-16.1-3.163 1.87-7.393 9.4-7.024 16.1-.758-1.527-1.44-3.797-3.786-4.717v6.762z"/>
<path d="M204.36 639.16v-6.762c-2.458.585-2.61 1.49-3.392 3.006.29-4.097-2.61-8.77-5.773-10.64-3.163 1.87-6.064 6.544-5.774 10.64-.78-1.515-.87-2.42-3.39-3.006v6.762z"/>
<g id="a">
<path d="M98.935 664.23v-20.44c-.67-2.603-2.88-4.905-4.54-5.366V620.43l3.74 2.024 4.272 18.81v22.966z"/>
<path d="M98.935 664.31v-20.52c-.67-2.602-2.88-4.904-4.54-5.365v-19.243c2.51 0 3.74 3.273 3.74 3.273l4.272 18.81v22.887z"/>
<path d="M96.275 669.55c1.73-.78 4.25-2.92 4.25-5.07v-25.547l-1.187-2.108h43.523l-1.69 2.108v25.547c0 2.15 1.73 4.29 3.46 5.07z"/>
<path d="M135.84 669.55c-1.73-.78-4.25-2.92-4.25-5.07v-24.297l3.62-3.36-29.588.002 3.62 3.358v24.297c0 2.15-2.52 4.29-4.25 5.07z"/>
<path d="M131.69 669.55c-1.73-.78-4.25-2.92-4.25-5.07v-21.965l2.37-3.36h-18.798l2.37 3.36v21.965c0 2.15-2.52 4.29-4.25 5.07z"/>
<path d="M115.92 639.16h8.982v30.393h-8.982z"/>
<path stroke-linejoin="bevel" d="M103.7 647.64h3.586v16.495H103.7zm30.75 0h3.586v16.495h-3.586zm-33.81-27.82h4.32v16.91h-4.32zm0-3.18h4.295v3.14h-4.295z"/>
<path stroke-linejoin="bevel" stroke-width="1.034" d="M136.17 623.46h6.16v13.054h-6.16z"/>
<path d="M104.89 636.6v-28.94c1.232 0 1.422 4.24 4.25 4.24 1.47 0 1.314-1.756.488-3.187-.732-1.268-1.637-3.018-.407-6.28.85 2.496 3.12 3.288 2.7 1.723-.72-2.688-2.79-3.13-1.24-7.302.54 3.48 2.78 3.327 2.23 1.304-.61-2.28-1.87-3.214-.31-6.428.88 3.65 2.06 3.435 2.06 1.17 0-3.346-.13-6.956 4.21-8.295 0 0 .25-3.068 1.81-3.068s1.82 3.068 1.82 3.068c4.33 1.34 4.21 4.95 4.21 8.296 0 2.27 1.18 2.48 2.05-1.17 1.56 3.22.3 4.15-.31 6.43-.54 2.03 1.69 2.18 2.23-1.3 1.56 4.17-.52 4.62-1.24 7.3-.42 1.57 1.85.78 2.69-1.72 1.23 3.26.33 5.01-.41 6.28-.82 1.43-.98 3.19.49 3.19 2.83 0 3.02-4.24 4.25-4.24v28.94zm-6.766-21.86v22.08h2.51v-22.136c-.904-.457-1.754-.527-2.51.056z"/>
<path d="M98.203 629.03c3.112 1.59 6.195 3.433 6.975 7.793h-6.975zm43.167-6.61v14.407h2.035v-14.443c-.635-.298-1.503-.344-2.035.036z"/>
<path d="M143.41 628.92c-3.112 1.59-6.195 3.433-6.975 7.793h6.975zm-20.58-33.65l1.814-1.525v-1.953c-.664.065-1.026.293-1.516.936-.417-1.295-1.334-2.305-2.562-2.933-1.23.628-2.146 1.593-2.563 2.887-.49-.643-.852-.825-1.516-.89v1.953l1.815 1.525z"/>
<path d="M123.8 600.16l.843-1.825v-2.54c-.664.067-1.026.298-1.516.95-.417-1.313-1.334-2.338-2.562-2.974-1.23.64-2.146 1.62-2.563 2.93-.49-.65-.852-.83-1.516-.9v2.54l.844 1.83z"/>
<path d="M123.93 606.79l2.695-3.287v-3.243c-.986.11-1.524.503-2.252 1.606-.62-2.222-1.98-2.708-3.806-3.786-1.825 1.078-3.187 1.485-3.806 3.707-.72-1.103-1.26-1.416-2.25-1.527v3.243l2.7 3.287z"/>
<path d="M124.72 613.3s3.14-2.74 3.327-4.244v-3.467c-1.217.14-2.368.45-3.267 1.88-.765-2.87-1.96-3.67-4.212-5.06-2.253 1.39-3.447 2.19-4.212 5.06-.9-1.43-2.05-1.74-3.267-1.89v3.46c.39 1.5 3.32 4.24 3.32 4.24z"/>
<path d="M126.06 625.32s4.3-4.76 4.4-6.616v-5.406c-1.61.223-3.132 1.33-4.32 3.55-1.012-4.474-2.59-7.594-5.57-9.764-2.98 2.17-4.56 5.29-5.57 9.765-1.19-2.23-2.713-3.33-4.322-3.56v5.4c.308 1.85 4.4 6.61 4.4 6.61z"/>
<path d="M126.06 632.43s3.676-3.742 4.4-5.366v-5.406c-1.61.223-3.132 1.33-4.32 3.55-1.012-4.474-2.59-7.036-5.57-9.206-2.98 2.17-4.56 4.732-5.57 9.207-1.19-2.23-2.713-3.33-4.322-3.56v5.4c.933 1.62 4.4 5.36 4.4 5.36z"/>
<path d="M127.54 636.56c-1.073-4.668-1.996-8.13-7.163-11.64-5.167 3.51-6.09 6.972-7.163 11.64z"/>
<path d="M130.2 639.16v-6.762c-2.346.92-4.467 2.28-5.25 3.795-.872-3.754-2.556-5.408-4.652-7.68-2.097 2.272-3.5 3.926-4.375 7.68-.782-1.515-2.902-2.875-5.25-3.795v6.762z"/>
</g>
<use xlink:href="#a" transform="matrix(-1 0 0 1 390.74 0)"/>
<path d="M72.694 694.25h245.33v12.53H72.694z"/>
<path d="M66.228 706.76h258.26v12.512H66.228zm19.348-31.25h219.56v8.11H85.576z"/>
<path d="M79.157 683.56h232.4v10.622h-232.4zm10.255-14.28h211.89v6.174H89.412z"/>
<path stroke-width="1.045" d="M112.41 669.31h16.005v49.935H112.41z"/>
<path stroke-width="1.043" d="M115.95 669.31h8.917v49.936h-8.917z"/>
<path stroke-width="1.045" d="M187.08 669.31h16.006v49.935H187.08z"/>
<path stroke-width="1.043" d="M190.73 669.31h8.917v49.936h-8.917z"/>
<path stroke-width="1.045" d="M262.19 669.31h16.005v49.935H262.19z"/>
<path stroke-width="1.043" d="M265.73 669.31h8.917v49.936h-8.917z"/>
<path d="M98.935 664.23h193.07M115.79 712.97h9.244m-9.244-6.25h9.244m-9.244-6.25h9.244m-9.244-6.25h9.244m-9.244-6.25h9.244m-9.244-6.25h9.244m-9.244-6.25h9.244m65.736 37.51h8.607m-8.607-6.253h8.607m-8.607-6.254h8.607m-8.607-6.253h8.607m-8.607-6.253h8.607m-8.607-6.253h8.607m-8.607-6.254h8.607m66.193 37.51h9.244m-9.244-6.25h9.244m-9.244-6.25h9.244m-9.244-6.25h9.244m-9.244-6.25h9.244m-9.244-6.25h9.244m-9.244-6.25h9.244" fill="none"/>
</g>
</svg>
