<svg id="svg378" xmlns="http://www.w3.org/2000/svg" viewBox="0 0 640 480" version="1" y="0" x="0">
<defs id="defs380">
<clipPath id="clipPath4591" clipPathUnits="userSpaceOnUse">
<rect id="rect4593" fill-opacity=".67" height="512" width="682.67" y=".000004156" x="-80.109"/>
</clipPath>
</defs>
<g id="flag" clip-path="url(#clipPath4591)" transform="matrix(.93750 0 0 .93750 75.102 -.0000038963)" fill-rule="evenodd">
<rect id="rect628" height="511.29" width="737.65" y=".23857" x="-107.85" fill="#ffe900"/>
<path id="path623" fill="#35a100" d="m-108.24 0.23864 0.86 368.58 573.98-368.82-574.84 0.23864z"/>
<path id="path624" fill="#c70000" d="m630.69 511.53-1.3468-383.25-578.98 383.54 580.33-0.2831z"/>
<path id="path625" d="m-107.87 396.61 0.49 115.39 125.25-0.16 611.76-410.14-0.69-100.32-123.76-1.1414-613.05 396.37z"/>
<polygon id="polygon136" points="511.95 324.28 533.78 256.9 555.61 324.28 626.44 324.23 569.1 365.81 591.04 433.16 591.04 433.16 533.77 391.48 476.5 433.15 498.45 365.81 441.12 324.21" fill="#fff" transform="matrix(.53692 -.34745 .32106 .51439 1.465 167.69)"/>
<polygon id="polygon638" points="511.95 324.28 533.78 256.9 555.61 324.28 626.44 324.23 569.1 365.81 591.04 433.16 591.04 433.16 533.77 391.48 476.5 433.15 498.45 365.81 441.12 324.21" fill="#fff" transform="matrix(.53692 -.34745 .32106 .51439 -273.78 346.6)"/>
</g>
</svg>
