<svg xmlns="http://www.w3.org/2000/svg" xmlns:xlink="http://www.w3.org/1999/xlink" viewBox="0 0 1200 600">
<clipPath id="a">
<path d="M0 0v150h700v150H600zm600 0H300v350H0v-50z"/>
</clipPath>
<path fill="#00247d" d="M0 0h1200v600H0z"/>
<path stroke="#fff" stroke-width="60" d="M0 0l600 300m0-300L0 300"/>
<path stroke="#cf142b" stroke-width="40" d="M0 0l600 300m0-300L0 300" clip-path="url(#a)"/>
<path stroke="#fff" stroke-width="100" d="M300 0v350M0 150h700"/>
<path stroke="#cf142b" stroke-width="60" d="M300 0v350M0 150h700"/>
<path d="M0 300h600V0h600v600H0z" fill="#00247d"/>
<g stroke="#000" stroke-width="1.438">
<g stroke-linejoin="round" stroke="#fff" stroke-width="9.6">
<use xlink:href="#b"/>
<use xlink:href="#c"/>
<use xlink:href="#d"/>
<use xlink:href="#e"/>
<use xlink:href="#f"/>
<use xlink:href="#g"/>
<use xlink:href="#h"/>
</g>
<g id="c" fill="#fcea83">
<path d="M754.42 449.56c2.875 7.668 23.482 17.732 47.444 4.792 16.294-9.105 26.837-22.045 36.9-45.048 2.876-5.75 4.314-12.94-2.395-17.252-5.28-3.834-13.9-8.147-17.74-11.98-1.92-1.918-3.84-3.355-5.27-4.793.96.95 1.91 1.91 2.87 3.35 9.58 11.5-.48 28.27-11.02 38.34-7.67 7.18-21.57 24.92-41.7 8.14-4.32-3.84-14.38 11.98-9.11 24.44zm291.38 0c-3.355 7.668-23.962 17.732-47.444 4.792-16.294-9.105-26.837-22.045-37.38-45.048-2.396-5.75-3.834-12.94 2.875-17.252 5.28-3.834 13.9-8.147 17.74-11.98 1.92-1.918 3.36-3.355 5.27-4.793-.96.95-1.91 1.91-2.87 3.35-9.58 11.5.48 28.27 10.55 38.34 7.67 7.18 22.05 24.92 42.18 8.14 4.32-3.84 13.9 11.98 9.11 24.44z"/>
<path d="M900.1 490.78c38.34 0 97.285-17.252 128.91-77.636 5.272-10.064 0-15.336-6.23-18.69-6.71-2.875-14.856-9.585-19.17-13.898 7.67 7.668 6.23 12.94.96 21.566-24.442 40.735-57.99 61.342-104.47 61.342-46.487 0-80.033-20.607-104.47-61.342-5.272-8.626-6.71-13.898.48-21.566-3.835 4.313-12.46 11.022-19.17 13.898-6.23 3.355-11.503 8.626-6.23 18.69 31.63 60.384 91.054 77.636 129.39 77.636z"/>
</g>
<path d="M811.45 409.79c-.958-4.792-7.19-2.875-9.105 2.875-2.397-3.354-4.793-6.71-6.71-10.543-5.75-8.626-6.71-14.377 1.438-22.524 3.834-3.833 11.502-8.147 16.773-3.354 11.022 9.105 5.272 23.962-2.396 33.546zm176.83 0c.958-4.792 7.668-2.875 9.585 2.875 2.396-3.354 4.792-6.71 6.71-10.543 5.75-8.626 6.708-14.377-1.918-22.524-3.355-3.833-11.022-8.147-16.773-3.354-10.543 9.105-5.272 23.962 2.396 33.546zm-233.86 39.77c-4.792-7.19-8.626-25.88-9.585-30.67-1.437-4.314-1.917-8.148 3.355-10.065 5.27-1.917 10.064 4.792 12.46 10.543 2.396 5.75 6.23 14.377 10.543 24.92-10.543-6.23-19.17-1.917-16.773 5.272zm291.38 0c4.313-7.19 8.147-25.88 9.585-30.67.958-4.314 1.917-8.148-3.355-10.065-5.27-1.917-10.064 4.792-12.46 10.543-2.396 5.75-6.23 14.377-10.543 24.92 10.543-6.23 18.69-1.917 16.773 5.272z" id="d" fill="#db161c"/>
<g stroke="none" fill="#00493d">
<path d="M782.21 406.43l-3.834 1.917c-.958.48-.958 1.438-.958 1.917h-.48l-1.916-4.313h.48c0 .48.478.96 1.436.48l8.147-4.31c.96-.48.96-.96.48-1.44l.48-.48 2.395 4.8h-.48c-.478-.48-.958-.95-1.916-.48l-3.355 1.92 1.43 2.88 3.83-1.43c.96-.48.48-1.44.48-1.91h.48l1.91 4.32c-.48-.48-.96-.96-1.92-.48l-8.15 4.32c-.96.48-.96.96-.48 1.44l-.48.48-2.4-4.31.48-.48c.48.48.96.96 1.92.48l3.83-1.92-1.44-3.35zm8.15 6.23c.958-.48.958-.958.48-1.917h.478l4.793 7.19-3.35 2.395v-.48c1.92-1.437 1.92-3.354 1.44-3.833-.48-.48-.96-.96-.96-1.438-.48 0-.48-.48-1.44.48-.48.478-3.35 2.395-3.35 2.395.48.48.96 1.917 3.36.48h.48l-5.27 3.834v-.48c2.4-1.917 1.44-3.354.96-3.834l-3.35 2.397c-.96.47-.96.95-.96 1.43.48 0 .48.48.96.96.48.95 1.92 1.91 4.31.95l.48.48-3.83 1.43-4.79-7.67h.48c.48.48.96.96 1.92.48l7.19-5.27zm7.67 18.21l-3.355 2.875c-.48.48-.48 1.438 0 1.917h-.48l-3.353-3.354.48-.48c.478.48.957.96 1.916 0l6.23-6.23c.958-.48.958-.958.48-1.917l3.354 3.84c-.48-.48-1.438-.48-1.917 0l-2.876 2.88 2.39 2.4 2.87-2.39c.96-.96.48-1.43 0-1.91l.48-.48 3.35 3.84h-.48c-.48 0-.96-.48-1.92.48l-6.24 5.75c-.96.96-.96 1.44-.48 1.92v.48l-3.36-3.83c.48 0 1.43.48 1.91 0l3.35-3.35-2.4-2.39zm7.19 10.07l1.438 1.438 1.917-4.313s-1.438.48-3.834 1.916l.48.96-.48.48-.95-.96c-.48.48-.96.48-1.43.96-1.44.96-.96 1.44-.48 1.92v.48l-2.39-2.39h.48l1.92-.48 9.59-5.27.48.48s-.48.48-4.79 10.07c0 .96-.48 1.44 0 2.4l-3.83-3.35.48-.48c.48.96 1.44.96 1.92 0 0-.48.48-1.43.48-1.91l-1.43-1.44.48-.48zm3.83 9.58l.48-.48c.478.48.958.48 1.916 0l6.23-8.146-.48-.48c-.957-.48-2.395-.48-3.833.96v-.48l1.917-2.396 7.19 5.27-2.398 2.877h-.48c1.44-1.438.96-3.355 0-3.834v-.48l-6.23 8.15c-.957.48-.478 1.44 0 1.92h-.478l-3.834-2.87z"/>
<path d="M821.51 452.44l-2.396 3.355c-.48.958 0 1.437.48 1.917l-.48.48-3.834-2.877v-.48c.958.48 1.438.48 1.917-.478l5.27-7.19c.48-.957 0-1.436-.478-1.915l.47-.48 3.83 2.876v.48c-.96-.48-1.44-.48-1.92.478l-2.4 3.355 2.87 1.92 2.39-3.35c.48-.96 0-1.44-.48-1.91l.48-.48 3.83 2.88v.48c-.48-.48-1.44-.48-1.92.48l-4.8 7.67c-.96.48-.48.96 0 1.44v.48l-4.31-2.88h.48c.48 0 .96 0 1.44-.48l2.39-3.83-2.87-1.91zm9.59 13.42l.48-.48c.478.48 1.437.48 1.916-.478l3.834-8.147c.48-.96 0-1.438-.48-1.917l8.148 3.834-1.917 3.833-.47-.48c1.44-1.916 0-3.833-.48-4.312-.48 0-.96-.48-1.43-.48s-.48 0-.96.96c-.48.48-1.91 3.354-1.91 3.354.48.48 1.44 1.438 3.36-.96h.48l-2.87 5.752-.48-.48c1.44-2.88-.48-3.36-.96-3.36l-1.91 3.83c-.48.96 0 1.43.48 1.43v.48l-4.79-2.4zm13.89 6.71c-1.438-.958-1.438-3.834 0-6.71.958-2.875 2.875-5.27 4.792-4.312 1.438.48.96 3.354 0 6.23-1.437 3.354-3.354 5.27-4.792 4.792h-.48c3.355 1.438 5.752-.48 7.19-3.834 1.437-2.875.958-6.23-1.918-7.668s-5.75.48-7.188 3.834c-1.438 3.355-.96 6.71 1.917 7.668h.48zm14.86.95l1.917-5.75c.48-.96 0-1.44-.48-1.918l2.397.48v.48c-.48 0-.96 0-1.438.957l-1.917 5.75c-.96 2.39-2.4 4.31-5.28 3.35-1.92-.48-3.36-2.88-2.4-5.27l2.39-6.23c.48-.96 0-1.44-.48-1.92v-.48l4.31 1.92v.48c-.48-.48-1.44-.48-1.44.48l-2.4 6.23c-.48 1.91-.48 3.83.96 4.31 1.44.48 2.87-.48 3.83-2.88z"/>
<path d="M864.16 467.3c0-.48 0-.48-.48-.48l3.355.48 2.876 9.105 1.44-5.75c.48-.96 0-1.438-.48-1.917l2.88.48-.48.478c-.48 0-.96 0-1.43.96l-2.39 10.542h-.48l-3.83-11.502-2.39 7.668c0 1.437.48 1.437.96 1.917v.48l-2.87-.96v-.47c.48.48 1.44 0 1.44-.96l2.4-8.62-.48-1.43zm16.3 9.58c-.958 4.313-2.875 5.272-3.834 5.272h-.958s-.48-.48 0-.96l1.437-9.584c.48-.48.48-.958.96-.48h.957c.96 0 1.917 1.918 1.438 5.752l1.438.48c.958-4.793-.96-6.71-3.355-7.19-1.917-.478-4.792-.958-4.792-.958v.48c.48.48 1.44.48.96 1.916l-1.44 8.627c-.47.958-.95 1.437-1.43 1.437h-.48l4.8.96c2.4.478 4.79 0 5.75-5.273l-1.43-.48zm4.31-3.83c0-.958-.958-1.438-1.438-1.438v-.48l8.627.96-.48 3.833c0-2.396-1.44-3.354-2.4-3.354-.48-.47-.96-.47-1.44-.47s-.48 0-.48 1.44c0 .48-.48 3.84-.48 3.84.48 0 1.91.48 2.87-2.39l-.48 6.23h-.48c0-2.87-1.44-2.87-1.92-2.87l-.48 4.31c0 .96 0 .96.48.96l.95.48c1.44 0 2.87-.48 3.83-3.35h.47l-.96 3.83-9.11-.96c.96 0 1.44-.48 1.92-1.43l.96-9.1zm15.81 5.75c0 4.313-1.438 5.75-2.875 5.75-.48-.478-.48-.478-.96-.478l-.478-.48.48-10.064c0-.48 0-.48.478-.48h.96c.957 0 2.395 1.44 2.395 5.752h1.917c0-4.793-2.396-6.23-4.792-6.23-1.917-.48-4.793-.48-4.793-.48v.48c.48 0 1.438.48 1.438 1.437l-.48 9.106c0 .958-.48 1.438-.958 1.438v.48h4.313c2.396 0 4.793-.96 5.272-6.23h-1.917zm13.9 3.83c0 .958.48.958 1.438.958v.48l-5.272.48c.48-.48 1.438-.96 1.438-1.918l-.96-9.106c-.478-.958-.957-.958-1.916-.958v-.48l5.272-.478c-.48.48-1.438.958-.958 1.916l.958 9.106zm4.79.96v-.48c.48 0 .958-.478.958-1.437l-1.916-10.064h-.48c-.958.47-1.917 1.43-1.437 3.35h-.48l-.48-3.36 8.627-1.44.48 3.35h-.48c0-1.92-1.437-2.4-2.875-2.4h-.48l1.918 10.06c0 .96.48 1.43 1.437 1.43v.48l-4.792.48zm20.61-9.59l-1.917-5.75c0-.96-.958-.96-1.438-.96v-.48l2.397-.957v.48c-.48.478-.48.478-.48 1.437l1.917 6.23c.48 1.917.48 4.792-2.4 5.75-1.92.48-4.32-.478-4.79-3.354l-1.92-6.23c-.48-.958-.96-.958-1.44-.958l-.48-.48 4.79-1.437v.48c-.48.48-.96.96-.48 1.92l1.43 6.23c.48 1.92 1.91 2.88 3.35 2.88 1.44-.48 1.91-2.39 1.44-4.79zm5.27-3.35c2.396-.958 1.917-2.396 1.438-3.834-.48-1.438-1.438-2.396-2.397-1.917-.47 0-.95.47-.47.95l1.44 4.79.48.48.96 3.83c.48.96 1.44.96 1.92.48v.48l-4.31 1.91-.48-.48c.96-.48.96-.96.96-1.92l-3.35-8.15c-.48-1.44-.95-.96-1.91-.96v-.48l4.8-1.92c1.92-.48 3.84 0 4.8 1.91.48 2.39-.48 3.83-2.4 4.79-.48 0-.96.48-.96.48l-.48-.48zm11.98 1.44c-1.438.48-3.355-1.438-4.792-4.792-1.438-2.876-1.438-5.75 0-6.23 1.437-.48 3.354 1.437 4.792 4.313s1.438 5.75 0 6.71c2.875-.96 3.834-4.31 2.396-7.66-1.437-2.87-4.313-4.79-7.188-3.83-2.876 1.44-3.834 4.8-2.396 7.67 1.437 3.36 4.313 5.28 7.188 3.84zm.48-13.42h-.958l2.875-1.917 8.626 4.792-2.875-5.27c-.48-.96-1.438-.96-1.917-.96v-.48l2.4-.957c-.48.48-.96.958 0 1.917l4.79 9.584-.48.47-10.54-5.75 3.84 7.19c.48.96 1.44.96 1.92.48v.48l-2.39 1.43v-.48c.48-.48.48-.96 0-1.92l-3.83-7.67-1.44-.96zm21.57 1.44v-.48c0-.478.48-.958 0-1.916l-5.75-8.147h-.48c-.96.48-1.438 2.396 0 3.834l-.48.48-1.916-3.35 7.188-4.79 1.917 2.88c-1.44-1.43-2.88-1.43-3.84-.96l-.48.48 5.75 8.15c.48.96 1.44.96 1.91.48v.48l-3.84 2.88zm5.27-11.51l2.875 3.355c.48.48 1.438.48 1.917 0v.48l-3.834 3.353v-.48c.48-.478.48-.957 0-1.916l-5.75-7.188c-.48-.96-.96-.48-1.917-.48l3.84-3.354v.48c0 .478-.48.958 0 1.916l2.4 2.876 2.88-1.917-2.39-3.355c-.48-.958-1.44-.48-1.91-.48l3.84-3.354v.48c-.48.48-.48.958 0 1.916l5.75 7.19c.48.478.96.478 1.44 0l.48.478-3.83 3.355-.48-.48c.48-.48.96-.958.48-1.917l-2.87-3.354-2.87 2.396zm4.31-10.06c-.48-.48-1.438-.48-1.917 0v-.48l6.23-5.75 2.876 2.875h-.48c-1.44-1.917-3.36-.958-4.32-.48 0 .48-.48.48-.96.96 0 0 0 .48.48 1.437l2.87 2.876c.48-.48 1.91-1.438 0-3.834h.48l3.83 4.313v.48c-2.4-2.397-3.36-.96-3.84-.48l2.87 2.875c.48.96.96.96.96.96l1.43-1.44c.48-.478.96-1.916 0-4.79h.48l1.91 3.353-6.23 6.23-.48-.48c.48-.478.96-.957 0-1.916l-6.23-6.71zm11.54-13.42c-.48.48-.48 1.438.48 1.917.958.958 1.916.958 3.833 0 .96-.48 2.876-.96 4.313.48 2.396 2.395 1.438 4.312.96 5.27-.48.48-1.44.96-1.918 1.438-.48 0-.48 0-.48.48v.48l-3.354-2.876h.48c1.916.95 3.833 1.43 4.79 0 .96-.96 0-1.92-.478-2.4-.958-.96-1.917-.96-3.354 0-1.438.48-3.355.48-4.793-.48-1.92-1.92-1.92-3.36-.96-4.79.48-.48 1.43-.96 1.91-1.44.48 0 .48 0 0-.96l3.35 2.39h-.48c-2.4-.96-3.84-.48-4.31.48zm4.3-3.83c-.958-.48-1.438 0-1.917.48h-.48l5.273-7.67 3.354 2.398-.48.48c-1.916-1.44-3.833-.48-4.312 0 0 .478-.48.957-.48 1.437-.48 0-.48.48.48.958.48.48 3.354 2.396 3.354 2.396.48-.48 1.438-1.44-.48-3.36v-.48l4.793 3.83c-2.875-1.44-3.354 0-3.833.48l3.354 2.39c.96.48 1.438.48 1.438.48 0-.48.48-.96.958-1.44.48-.96.96-2.4-.958-4.31l.48-.48 2.395 2.87-4.8 7.19h-.48c.48-.96.48-1.44-.48-2.4l-7.19-5.28zm12.9-8.63l-1.438 2.396c-1.917-1.917-2.875-3.354-2.875-3.354l4.313.958h.96c.478 0 1.436.48 1.915.48 1.438.48.96.958.48 1.916h.48l2.395-4.313c-.958.96-1.438.48-2.396.48-10.064-1.918-11.022-2.397-11.022-2.397v.48l7.668 8.626c.48.48.48 1.437.48 1.916h.478l1.438-2.396-.48-.48c-.48.96-.958 1.44-1.916 0l-.96-.957 1.44-3.355h-.96zm-2.9-10.54c-.48.48-.48 1.438.96 1.917 1.436.48 1.915 0 3.353-.958 1.438-.96 2.875-1.92 4.792-.96 2.876 1.43 2.397 3.83 1.917 4.79-.48.48-.958 1.44-1.437 1.91v.96l-3.834-1.92c2.4.48 4.32 0 4.8-1.44.48-.96-.48-1.92-.96-2.4-.96-.48-1.91 0-3.35.96-1.43 1.44-2.87 1.91-4.79.96-1.92-.96-2.87-2.4-1.92-3.84 0-.96.96-1.44 1.44-1.92 0-.48 0-.48-.48-.96v-.48l3.84 1.91h-.48c-2.39-.48-3.83.48-3.83 1.44z"/>
</g>
<g id="e" fill="#073163">
<path d="M863.2 232.47c-6.23 1.438-10.543 1.917-16.294-3.355-3.834-3.834-2.875-10.543.958-12.94 4.314-2.874 8.147-4.79 13.42-3.353 5.27 1.437 19.168 14.377 15.814 14.856-3.354 0-8.626 3.354-13.898 4.792zm14.86-23c1.917-1.438 4.313-2.396 10.543-2.875 5.75-.48 10.064-.48 11.502 3.833 1.917 5.272 3.355 11.502 7.188 14.377-2.396 1.438-14.377 2.876-18.69.48-5.75-2.876-7.188-13.898-10.543-15.815zm41.21.48c1.917-1.438 4.313-1.438 10.543-.958 6.23.48 8.626.958 10.064 5.27 1.438 4.794 0 11.023 2.875 15.337-2.875.95-12.46.95-15.815-2.4-5.27-3.84-4.792-14.86-7.667-17.25z" fill="#fff"/>
<path d="M948.03 212.82c-4.313-.958-7.19-1.438-9.105 0 2.396 2.875.48 14.377 5.27 18.21 3.356 2.397 11.982 2.876 13.9-2.395 2.395-4.793 2.395-11.98-10.065-15.815zm-49.36-4.79c1.438-1.438 4.313-1.917 10.064-1.917 6.23 0 10.064.96 11.98 4.793 1.918 4.792 1.44 11.02 4.793 14.855-1.437 1.92-14.377 1.92-18.21-.95-5.272-3.35-5.75-14.37-8.627-16.77zm-40.74 4.31c0-2.396 3.355-2.875 11.98-3.355 8.627-.958 9.106-.48 11.982 5.75 1.438 3.356 3.355 9.107 7.188 11.023-10.543 2.396-13.898 3.834-19.65.48-4.312-2.397-9.104-8.148-10.063-10.544-.48-1.437-.48-2.875-1.437-3.354z"/>
</g>
<g stroke-width=".647" fill="#f9d050">
<g id="g">
<path d="M880.94 163.46c-10.064-7.668-22.045-14.856-33.067-16.294 7.19 4.313 27.316 20.128 32.588 25.4"/>
<path d="M886.69 156.27c-11.98-8.147-25.88-17.252-39.297-18.21 10.064 5.27 24.92 17.73 33.067 27.795m21.56-23.005c6.71-14.856 13.898-23.003 23.482-32.11-4.792 10.065-10.064 30.672-12.46 38.82"/>
<path d="M912.56 140.46c4.792-10.543 11.98-19.65 24.44-25.4-6.23 6.23-15.814 24.92-18.21 34.984"/>
<path d="M916.88 150.04c5.75-8.147 17.252-23.482 37.86-31.63-11.98 11.98-29.713 34.026-34.026 42.652m2.876-.482c8.626-4.792 25.88-12.46 38.34-10.064-7.67 2.875-30.672 13.42-40.736 23.003"/>
<path d="M921.67 157.23c8.147-8.626 23.003-21.566 38.818-26.837-11.502 11.022-35.943 35.943-39.297 39.776m-22.52-18.21c-5.75-17.74-14.37-34.51-27.31-39.78 7.19 10.54 16.3 25.88 21.09 48.88m-4.8-9.59c-9.58-11.51-22.52-23.01-37.38-25.4 10.07 5.75 26.84 22.52 33.07 38.81"/>
<path d="M892.92 151c-11.98-21.566-21.086-25.4-26.358-29.713 4.313 8.147 14.856 29.713 21.086 38.818"/>
<path d="M868.95 149.56c5.75 3.355 14.377 11.502 17.252 16.773" fill="none"/>
<path d="M868.95 159.63c2.875 2.396 8.147 5.272 12.94 9.585m44.09-2.405c4.792-3.834 15.336-10.064 20.607-11.98m-23.957 8.63c4.792-6.23 14.377-14.856 17.732-17.732m-4.312-11.978c-4.313 4.792-14.377 16.773-18.21 22.524m5.75-26.844c-3.355 4.313-10.064 16.773-11.98 21.086m-25.88-20.126c2.875 7.668 8.147 20.607 10.064 25.88m-14.384-17.73c1.917 2.875 5.75 9.585 7.19 14.377"/>
</g>
<g id="h">
<path d="M897.71 136.14c0-4.313 2.875-9.105 5.75-9.105 3.355 0 5.752 5.75 5.752 9.105 0 3.834-2.876 7.19-5.75 7.19s-5.752-2.878-5.752-7.19z"/>
<path d="M891.48 139.98c.48-4.792 3.834-8.626 6.71-8.147 2.875.48 4.312 6.23 3.833 9.585-.48 3.834-3.834 6.71-6.23 6.23-2.396 0-4.792-3.355-4.313-7.668zm12.94 1.44c-.958-4.313.958-9.105 3.834-9.585 2.875-.48 5.75 4.313 6.23 8.147.958 3.834-1.438 7.668-3.834 7.668-2.396.48-5.75-1.917-6.23-6.23z"/>
<path d="M897.23 145.25c0-4.792 2.875-9.105 5.75-9.105 3.355 0 5.752 5.27 5.752 9.105s-2.876 7.19-5.75 7.19-5.752-2.878-5.752-7.19z"/>
<path d="M888.6 147.64c0-4.313 3.355-9.105 6.23-9.105s5.75 5.75 5.75 9.105c0 3.834-3.354 7.19-5.75 7.19-2.875-.003-6.23-2.878-6.23-7.19zm17.74-1.91c0-4.313 2.875-9.105 5.75-9.105 3.355 0 5.752 5.75 5.752 9.105 0 3.834-2.876 7.19-5.75 7.19s-5.752-2.878-5.752-7.19z"/>
<path d="M904.42 149.56c0-4.792 3.355-9.105 6.23-9.105s5.75 5.27 5.75 9.105c0 3.834-2.874 7.19-5.75 7.19s-6.23-2.878-6.23-7.19z"/>
<path d="M896.75 153.88c0-4.792 2.875-9.105 5.75-9.105 3.355 0 5.752 5.75 5.752 9.105 0 3.834-2.876 7.19-5.75 7.19s-5.752-2.878-5.752-7.19zm-11.98 0c0-4.792 2.396-9.105 4.792-9.105s4.314 5.75 4.314 9.105c0 3.834-2.397 7.19-4.314 7.19-2.396 0-4.792-2.878-4.792-7.19zm26.84-.96c0-4.313 2.396-8.626 4.792-8.626s4.793 5.27 4.793 8.626c0 4.313-2.876 7.19-4.793 7.19-2.396-.003-4.792-2.878-4.792-7.19z"/>
<path d="M914.48 161.06c.958-4.792 3.834-8.626 5.75-8.147 1.918.48 2.397 6.23 1.44 9.585-.48 4.313-3.356 6.71-5.273 6.23-1.917-.48-2.876-3.834-1.917-7.668z"/>
<path d="M905.38 159.63c.48-4.313 3.355-8.626 5.75-8.147 2.876 0 4.314 5.75 3.835 9.105-.48 4.314-2.876 7.19-5.272 6.71-2.396 0-4.792-3.355-4.313-7.668zm-13.42 1.43c-1.438-4.792-4.313-8.147-6.23-7.668-1.917.48-2.396 6.23-1.438 9.585.96 3.834 3.834 6.23 5.75 5.75 1.44-.48 2.876-3.833 1.918-7.667z"/>
<path d="M888.6 160.1c0-4.313 2.396-8.626 4.792-8.626 2.876 0 4.793 5.27 4.793 8.626 0 4.313-2.396 7.19-4.793 7.19-1.916 0-4.792-2.878-4.792-7.19z"/>
<path d="M895.79 162.02c0-4.792 2.875-9.105 5.75-9.105 3.355 0 5.752 5.27 5.752 9.105s-2.876 7.19-5.75 7.19-5.752-2.878-5.752-7.19zm2.4-52.71c-.958 3.834-4.313 7.19-1.917 12.46-4.313-1.438-8.147-1.917-11.502 1.917 4.32-.48 8.15.958 10.07 3.834-3.83-.47-5.75 1.44-6.71 3.84 3.36-.96 6.71-1.91 8.15-1.44-1.44 1.44-3.83 3.84-4.31 5.75 2.88-2.39 6.23-1.91 8.15-3.35-1.43 3.36 1.44 6.71 3.84 10.07-.48-4.79 2.4-8.15.96-10.54 4.31.96 4.79 4.8 11.02 4.8-2.39-1.44-3.83-6.23-6.71-6.23 1.44-.48 7.19-.96 8.15 0-.96-1.92-4.31-3.83-6.23-3.83 1.92-1.91 5.27-5.75 7.67-6.71-3.35.48-8.62.96-10.54 3.84 4.8-3.83 3.84-11.02 9.11-11.98-2.87-.48-7.19 1.44-10.54 4.79 1.44-2.87 1.44-6.71 3.36-7.67-3.83.96-8.14 5.75-9.58 8.15 0-2.4-1.43-6.23-2.39-7.67zm2.39 7.66c0 1.438 0 4.313-.48 5.272m6.71-5.742c-.958.958-2.875 4.313-2.875 7.19"/>
<path d="M909.69 122.25c-1.438.958-2.875 2.396-3.355 4.313" fill="none"/>
</g>
</g>
<g id="f" fill="#059334">
<path d="M858.89 169.69c-3.355 0-6.23-1.438-8.147-3.834-3.355-4.313-12.46-6.23-16.294-2.396-1.44.958-3.36.958-4.8 1.438-2.4 0-5.27 2.396-4.32 7.188 1.91-1.438 2.39 0 3.83 0 .96-.48.48.48.48 1.438 0 2.396 5.27 7.188 10.06 6.71 5.27 0 7.66 1.916 8.62 2.875 1.44 1.43.48.95 1.44 3.35 1.43 1.44 1.91 1.91-.48 3.83-3.36 2.87-5.75 9.58 0 14.85 6.23 4.79 22.04 11.98 39.77-1.92 17.25-13.42 44.09-5.75 46.01-.96 2.39 4.79 3.35 7.66 3.83 10.06.48 1.91 2.87 3.83 6.23 3.35 3.35 0 7.19 1.44 9.1 2.88 2.39 1.44 5.75.96 4.79-3.36-1.92-13.42-10.07-15.34-11.02-21.57 4.79.48 8.14.48 10.06-1.44 1.44-1.92 3.35-5.27 5.27-6.23 1.44-.96 1.44-1.92-.48-1.44-2.4.48-3.83 1.44-8.15.96-22.04-2.4-83.87-19.17-95.85-15.82z"/>
<path d="M956.65 185.98c-2.396 1.438-4.792 3.834-9.105 9.585-4.793 6.23-19.17 12.46-36.9 12.46-17.253 0-27.797-2.876-35.464-9.106-4.31-3.36-7.66-5.28-10.54-6.71-5.27-2.4-6.23-7.67-4.79-11.98-1.44 2.39-2.39 4.79-5.27 4.31-1.91 0-5.75 0-4.79 1.91-.48-.96-.48-2.4-.95-2.88l-.96-.96c1.44.95 4.8-1.92 7.19-1.92 1.92.48 4.32-1.92 3.84-4.8-.48-2.4-.96-4.31-1.44-6.23 3.84-1.92 54.16 7.19 64.22 8.15 10.07.48 38.82 4.79 34.99 8.15z" fill="#000"/>
<path d="M865.6 167.77c4.792-4.792 10.543-7.19 16.294-5.75h1.438c2.875-2.397 9.584-2.876 13.42-.96h1.916c5.75-1.916 16.773 0 20.607 3.835l1.437.958c12.94-.958 20.607 4.793 29.713 13.898.96.96 2.396 2.88 4.793 3.36 2.875.48 3.354 1.92.958 3.36-2.875 1.44-5.27 3.84-10.064 9.11-4.313 5.75-18.21 11.5-35.463 11.5-16.78 0-26.84-2.87-34.51-8.62-4.32-3.35-7.67-5.27-10.07-6.71-2.88-.96-6.71-4.79-5.27-8.62.95-3.83-1.44-8.62-3.36-13.42 1.44-.95 5.27-2.39 7.19-1.43l.96-.48z"/>
<g fill="#00493d">
<path d="M950.42 179.75c-9.105-9.105-16.773-14.856-29.713-13.898 0 .48 0 1.917-.48 2.875 7.67 2.876 18.69 11.502 23.483 17.732 1.917-1.92 5.27-4.32 6.71-6.71zm-31.15-14.85c-3.834-3.834-14.856-5.75-20.607-3.834 0 1.917 0 4.793-.958 6.71 3.354 1.437 6.23 4.792 9.105 8.146 1.917-.48 6.71-1.916 9.106-2.396.958-1.917 2.875-6.23 3.354-8.626zm-22.52-3.84c-3.834-1.917-10.543-1.438-13.42.958-.957 1.917-1.437 5.75-1.437 7.668 1.917 0 4.793 1.438 5.75 2.396 2.877-.958 6.71-2.875 8.148-4.313.48-1.92 1.44-4.8.96-6.71zm-31.15 6.71c4.792-4.792 10.543-7.19 16.294-5.75-.958 1.437-1.438 4.312-1.438 7.188-5.27-.48-11.98.958-14.856 2.875v-4.313z"/>
<path d="M941.8 187.42c-4.313-6.23-14.856-13.42-22.045-16.773 0 .48-.958 2.396-1.438 3.834 2.876 4.32 8.627 13.9 11.022 19.17 2.39-.96 9.1-3.83 12.46-6.23zm-36.42 10.54c.958-6.71 1.438-16.294 1.438-19.65 2.396-.478 7.188-1.916 9.105-2.395 2.396 3.834 8.147 13.898 10.543 18.69-5.75 1.438-15.336 3.834-21.086 3.354zm-16.78-23c2.396-.958 5.75-2.875 8.147-4.792 1.917 1.437 5.75 4.792 7.19 6.71 0 4.312-1.44 16.772-1.918 21.085-3.84 0-10.07-.96-13.42-2.875.48-7.19.95-15.336 0-20.128zm-23.96 5.75c.48-.958.958-4.313.958-5.75 3.834-2.397 13.42-4.793 20.607-.96.48 4.793 0 16.774-.48 19.65-6.23-4.793-16.293-11.502-21.085-12.94z"/>
</g>
<g fill="none">
<path stroke="none" d="M840.68 172.09c-.958 0-1.438-2.875-3.355-2.875-.48 0-1.917.48-2.396 0 0 .958.47 1.917.95 2.396.48 1.44 2.87.48 4.79.48z" fill="#000"/>
<path d="M840.68 180.23c5.75 0 6.71-7.19 9.585-7.668m-6.235 8.148c4.313 1.917 7.668-8.147 11.022-7.668m-19.642-4.792c1.438 0 2.396-1.917 4.792.48.96.958 2.397 1.437 3.355 1.437m-.957 5.273c-1.917 2.875-5.272 4.792-7.19 3.834m-.96-15.814c-1.438.958-2.396 2.875-3.355 4.313m-1.435 2.877v2.396"/>
</g>
</g>
<g stroke="none">
<path id="b" d="M989.72 232.95v93.45c0 80.992-38.34 108.79-89.617 130.83-51.278-22.044-90.096-49.84-90.096-130.83v-93.45h179.71z" fill="#fff"/>
<path d="M900.1 312.02c4.313 0 11.022-3.834 16.773-9.585 6.23-6.71 16.773-9.105 27.796 0 11.02 9.106 17.73 5.272 23.48 0 5.75-5.27 10.54-7.188 21.56-7.188v-62.3H810v62.3c11.023 0 15.816 1.917 21.567 7.188 5.75 5.272 12.46 9.106 23.483 0 11.503-9.105 21.567-6.71 28.276 0 5.27 5.75 11.98 9.585 16.772 9.585z" fill="#cf142b"/>
<path d="M900.1 359.95c5.75 0 17.252-6.23 20.128-7.668 10.543-6.23 18.21-.48 24.44 2.396 6.71 2.876 19.17 6.23 26.838 0 7.668-6.23 11.98-5.75 17.252-5.75.958-7.19.958-14.377.958-22.524v-5.75c-6.71-1.44-10.064.478-17.252 6.708-7.188 6.23-15.336 4.792-25.88.96-10.063-4.315-20.127-11.982-30.19 0-2.876 3.353-9.585 8.146-16.295 8.146-7.19 0-13.42-4.793-16.3-8.147-10.55-11.98-20.13-4.31-30.19 0-10.55 3.84-19.17 5.28-26.36-.95-6.71-6.23-10.07-8.14-17.25-6.71v5.75c0 8.15.48 15.34 1.44 22.53 5.27 0 9.1-.48 16.77 5.75s20.6 2.88 26.83 0c6.71-2.87 14.38-8.62 24.92-2.39 2.88 1.44 13.9 7.67 20.13 7.67zm0 20.6c7.19 0 15.815-2.875 23.482-7.19 9.585-5.27 16.294-2.873 25.88 1.92 10.063 4.79 18.21 3.354 23.96 0 2.876-1.917 5.273-5.75 11.503-4.314-2.875 11.98-7.19 22.524-12.46 31.15-9.585 2.397-14.856 2.397-24.92-1.917-10.064-4.8-22.524-7.67-29.233-3.36-6.23 3.83-12.94 5.75-18.21 5.75-5.273 0-11.982-1.92-18.212-5.75-6.71-4.32-19.17-1.44-29.233 3.35-10.064 4.31-15.336 4.31-24.92 1.91-5.272-8.63-9.585-19.17-12.46-31.15 6.23-1.44 8.626 2.39 11.502 4.31 5.27 3.35 13.89 4.79 23.48 0 10.06-4.8 16.77-7.19 26.36-1.92 7.66 4.31 16.29 7.18 23.48 7.18zm0 76.68c19.17-8.147 36.9-17.252 51.278-29.713-3.834-1.438-6.23-.48-9.585-2.875s-13.42-3.355-22.045 1.437c-9.105 4.31-12.94 5.27-19.65 5.27-6.708 0-10.542-.96-19.648-5.27-8.626-4.8-18.69-3.84-22.045-1.44-3.354 2.39-5.75 1.43-9.584 2.87 14.38 12.46 31.63 21.56 51.28 29.71z" fill="#0b50a0"/>
<g stroke="#000">
<path d="M887.64 256.43c.48.958-.48 3.355 0 4.313.958 1.917.958 2.876 2.396 3.834h3.355c10.55 0 23.01-4.313 33.55-4.313 10.07 0 16.3 3.354 22.05 3.354 3.36 0 6.23-2.396 6.23-4.792s-3.83-3.834-11.98-3.834c-11.5 0-17.73 2.876-27.31 2.876-14.37 0-16.77-5.272-16.77-7.668s2.4-5.75 10.07-5.75c2.4 0 4.32-.48 5.27-1.44.48-.957 1.92-2.874 4.8-4.312 3.36-1.917 10.07 0 13.42-2.396 0 1.917-2.87 4.792-5.27 5.75 4.8-1.437 10.07-1.437 11.03 2.397-2.39-1.44-6.23-.48-7.67 0-1.91.47-2.87.95-4.79 1.43 1.92-.48 2.88 3.35 5.75 3.35-2.87 2.39-7.66 2.39-12.46.48-1.43-.48-5.27-1.92-7.66-1.92-4.79 0-7.67.96-7.67 2.87 0 2.39 2.88 3.83 11.5 3.83 8.63 0 13.42-2.4 26.36-2.4-.96-1.44.48-2.88-1.44-4.32 4.79 0 10.07 1.43 11.98 4.79-.48-3.36 2.4-6.23 1.44-9.11 2.88.48 5.27 3.35 5.75 5.75 0-1.44 1.92-1.44 1.92-2.88 2.88 1.44 4.32 4.79 3.84 7.67 1.44-2.4 2.87-1.44 3.83-4.32.96 1.92.48 7.67-2.87 9.59 2.88-1.92 7.19-1.92 10.06 1.44-2.87-.48-4.31.96-5.75 1.44-5.75 3.35-15.33 5.27-22.52 4.79-7.67-.48-8.63-1.92-13.42-1.92 2.88.48 8.63 6.23 13.9 6.23 3.35 0 5.75 0 7.19-.48 1.44-.48 3.83 0 5.75.96 1.44 1.43 4.31 2.87 6.23 2.39-.48 1.91-1.44 2.87-2.87 3.35 2.4 1.44.96 2.4 3.36 4.31-.95 0-1.91.96-3.35.48 1.44 1.43 1.44 3.35 2.88 4.31-.48 0-1.92.48-2.88 0 1.44 1.91 0 4.31 1.44 5.27 1.44 1.92-1.44 4.31-3.83 2.4.48 1.44-.95 2.87-2.39 2.39-1.43-.48-2.39-1.92-1.91-2.39 0-.48 0-.48.48-.96-.96 1.44-2.88 1.44-3.84.96-.48-.48-.96-.96-.96-1.44-3.35.96-4.79-1.92-4.31-3.36.48-1.44 3.36-1.92 4.32-1.44.96.48 1.92.96 2.88 0 .96-.48 1.44-1.43 1.44-2.39 0-1.44-1.43-5.75-7.67-5.27-7.18.47-18.69-1.44-24.44-3.36-.48-.48-.96-.48-1.43-.96 0 1.92-1.92 2.87-1.92 4.79 0 2.4.96 4.31 3.84 5.27-1.44 2.4-3.83 1.92-4.79.48 0 1.44-1.91 2.4-1.91 4.31-.48-.96-.96-1.44-1.44-2.4-1.43 3.35-5.27 5.27-7.19 4.31-2.39 1.92-5.27 1.44-6.23-.48-1.43.96-3.35.96-4.31 0 0 1.44-.96.96-1.44 2.88 0 .96-1.91 1.44-2.87.96-.96-.48-1.44-2.4-.48-3.36-1.44.96-2.87.96-3.83 0 0-.96 0-2.39.96-2.87h.96c-.96-.48-2.4 0-3.35-.48-.96-.96-.96-1.92-.48-2.88.48-.48 1.92-1.43 2.88-.48l.48.48c0-.96.48-1.91.96-1.91.96-.48 2.4-.48 3.84.96.96 1.44 1.92 1.44 4.79.96 2.39 0 6.23-2.39 9.1-4.79-8.15-1.44-3.36-6.71-.96-8.62-1.92-.48-4.79-.48-6.71.48-10.06 5.27-20.61 11.5-27.32 9.59 0 .96.48 1.91.96 2.87-1.44 0-4.31 0-5.27-1.44-.48.96-1.44 3.36-.48 5.27-.96-.96-3.83-1.91-5.27-2.39.96.96 0 2.88.48 4.31-1.43-1.44-3.83-2.4-4.79-1.44s-2.87 1.44-4.31.96c-.96 1.43-2.4 2.39-3.83 2.87 0-.96 0-2.4-.48-2.87-.48 1.44-1.91 3.35-3.83 4.31 0-.96 0-2.4-.48-3.35 0 1.92-3.83 2.87-4.31 4.31.48-1.44.48-2.88.48-3.84-.96 1.44-2.39 2.88-4.79 3.36.48-.96.96-1.92.48-2.88-.48 1.92-3.36 2.88-5.75 2.4 0 .96-1.92 2.4-4.32.96-1.43-.48-2.39-1.91-1.43-2.87-1.92 0-3.84-1.92-2.88-3.36 0-.48.48-.96.48-1.44-1.44-.96-1.92-2.88-.48-4.31.48-.48 1.92-.48 2.88-.48 0-3.84 3.35-3.84 4.79-.96.96 1.44 3.83 3.83 6.23 3.35.96 0 1.43-.48 2.39-.48 2.87-.96 8.62-3.36 11.98-6.23.48-1.44.48-2.4.48-3.36-1.92.96-3.84 1.92-4.8 3.35v-1.44c-1.43 0-3.83-.48-4.79-.48.48-.48.96-2.87 1.92-3.35-2.4.48-4.79 0-6.71-.48.96-.96.96-2.39 1.44-3.83-.95.48-3.35-.48-5.27 0 .48-1.44.96-3.36 2.4-3.84-1.92.48-4.31 0-6.71-.96 1.92 0 2.88-2.39 4.31-2.39-3.83 0-4.79-1.92-6.71-2.88 1.44.48 2.4-.96 3.84-.96-1.43-.48-3.83-2.88-2.87-4.32-.48.48-.96 1.44-1.91 1.92-.96.48-2.88 0-4.31-1.44-.96-1.92-.48-4.31 1.44-4.79-2.39-.48-2.39-2.88-1.44-3.84.48-.96 2.4-2.4 3.36-.96.48.48.96 1.43 1.44 1.91-.48-.96-.48-2.88-.48-4.32.48-1.44 1.44-1.44 2.88-1.91 1.44 0 2.4 1.43 2.4 2.87s.48 2.39.96 4.31c0-.48.48-1.44.48-1.92 0-1.92 2.4-1.44 3.83-.96 1.44.48 1.92 3.35 0 4.79-.96.96-.48 2.4.48 3.36 3.36 5.27 9.11 9.59 13.9 10.07 0-1.92.96-3.83 2.4-5.27 0-.96.48-2.4.96-3.36.48-2.87 1.92-4.31 3.84-3.35-.48-.48-.96-.96-.96-1.44-1.43-1.44-2.87-3.84-1.91-5.75s3.84-1.44 4.79-.48c-.48-2.88 2.88-5.27 2.88-6.71.48 1.44 1.44 3.35.96 4.79.48-1.92 3.83-4.32 6.23-5.27-.96 1.43 1.91 3.83 1.44 5.27.96-2.4 4.79-3.84 7.67-3.84-.96.96-.96 2.88-.96 3.83 1.44 0 3.83-.48 4.79-1.92 0 1.92-.96 3.84-1.92 4.79.48-.48 2.39-.48 3.83-.48-1.44 1.44-.96 2.88-2.4 3.84 1.92-.96 4.31-.96 4.79.96.96 1.44-.48 3.83-1.44 5.27-.96.48-1.92 1.44-2.4 1.44z" fill="#f9d050"/>
<g fill="none">
<path d="M857.93 262.18c-3.355 1.438-4.313 4.792-4.792 6.71m4.312-3.35c-4.792 2.875-6.71 5.272-5.75 10.543m8.15 3.827c2.875-.958 4.792-1.917 7.19-6.23"/>
<path d="M865.6 275.6c-.958 1.917 0 5.272-1.438 6.71 2.397-1.438 4.313-3.355 4.793-6.71"/>
<path d="M866.56 280.87c1.917-.958 4.792-3.834 6.23-7.19-.48 1.44 0 3.836-.958 5.274 2.396-2.396 3.354-3.834 3.834-6.23 0 .48.48 1.438.48 1.917.957-.96 1.916-1.91 1.916-3.83m-.002 1.45v2.4c1.917-1.43 2.396-3.35 2.396-5.75m-.476 2.88c2.875-1.91 3.355-4.79 3.355-9.1m-.005 4.79c1.917-1.43 2.396-2.39 2.396-6.71M879.5 247.8c-.958 0-1.917.48-1.917 1.917 0 .958-1.438 2.396-1.438 3.834-.48 1.92-1.437 2.4-2.875 1.92-1.438-.96-1.438-.96-1.438-2.39 0-1.91 2.397-2.39 2.397-4.31.47-.96.95-2.39 1.43-2.39-2.4 1.44-5.75.48-6.23-2.39"/>
<path d="M883.81 249.24c-.958.48-1.917-.958-3.355-.48-.48 0-1.917.48-2.396 0"/>
<path d="M877.1 251.64c.48.48 2.875 1.438 5.272.48-1.917.478-3.355-1.918-1.438-3.355m-8.144-1.915c-1.917 0-3.355 1.438-2.875 2.875.48 1.438 2.396 1.438 3.833.48m-4.318 20.605c.48-.48.958-1.438.958-1.917.96 0 1.917-.48 2.397-.958 1.917 0 3.354-1.438 3.834-2.876.95 0 1.43-2.4 1.91-3.36.48.48 1.44 0 1.91-1.92.96.48 2.39 0 2.87-1.44m-19.65-3.36c0 .48-.96 1.44-1.92 1.91.48.96 0 3.35-.96 3.83.48.96 0 2.39-.48 3.35 0 .48.48 1.91.48 2.39m4.79-21.09c-.96 2.39-.48 5.27 1.43 5.75"/>
<path d="M866.56 253.08c-.48 2.396-.48 5.75-.958 7.19-.48.956-1.438 4.31 2.396 5.27 4.313.96 6.71.48 9.105-6.71m7.187 18.69c0 .48-.48 1.438-1.438 1.438m4.788-2.398c0 .958-.958 2.396-1.438 2.875M891 275.6c0 .958 0 2.396-.958 2.875M861.77 245.89c.48 0 .958.958 1.438 1.917-1.438-.96-2.876 1.438-1.917 2.875m-.96 3.358c-.48.48-1.43.958-1.91 1.438m.48 2.872c-.48 0-.95.48-1.43.48m-21.56-9.11c0-.48 0-.48.48-.958m-4.8-.482c-.48 0-.48 0-.95-.48m1.44 7.19h.96m-2.87-2.87c-.95-.958-2.39-1.438-2.87-1.438m29.22 19.168c-3.35 2.875-4.79 5.272-5.27 8.626m8.63-6.226c-.95 1.917-2.39 3.355-3.83 4.313m-14.87 10.057c-3.83.958-6.71.48-9.58-1.438-.48-.48-.96-.48-1.43-.958m25.4-4.314c-.48 1.917-.95 4.313-1.91 4.792 3.84-1.916 7.19-4.792 7.67-9.105m-33.55 13.423c1.44-.48 2.88.48 3.84-.48m79.56-15.34c.96.48 2.4.958 2.88 1.438.48-.96 2.4-2.396 3.84-2.876m-40.8 11.508c-.48-1.917.48-4.313 3.36-5.272m-22.05 13.422c.48-.958.48-2.396.96-3.355m-22.05 4.785c-.48.958-1.43 1.917-1.43 2.875m-5.74-1.915s0-.48.48-.48c.96-.478 2.4-1.437 2.88-2.395m61.82-3.835c-.95.48-1.43 0-1.91-.48m1.44 2.88s-.48.48-.95.48m3.36 1.92c-.48.48-.96.958-1.44.958m15.34-.008c.96-.48 1.44-1.438 1.92-3.355m-8.14 2.875c1.44-.48 2.4-1.438 3.84-2.875m9.59-.955c0-.958 0-1.917.48-2.875m34.98 7.185c-.96-.958-.96-2.396.48-3.355.96-.48 1.44-.958 2.4-1.437M924.6 276.08c-7.67-3.355-7.19-7.668-13.42-7.19m47.44 22.05c.48.48 0 1.917 0 2.396m4.31-2.396c-.48 1.438-.48 1.917-.48 3.355M926 245.89h-3.834m-36.416 16.29c0 .958 1.44 2.875 5.27 2.875-.48 0-.96-.48-.96-.48"/>
<path d="M887.64 256.43c-.48.48-.958 0-.958 0-.96-.958.48-2.875 1.917-3.834-1.44.48-2.4.48-3.36.48-.96 2.875-3.84 4.312-5.75 2.396-.48 1.916-2.88 4.313-4.8 3.833-1.92-.958-2.4-2.396-1.92-3.833-2.4 2.875-5.27.958-6.23 0-.48-.96 0-3.355.96-6.23"/>
</g>
<path stroke="none" d="M918.32 274.64c-1.438.958-2.875 0-4.313 1.438-.96.958.48 1.437 1.438 1.437-.48 1.438-.48 1.917 1.917 1.917-.96 1.438 1.917 1.917 1.437 3.834 1.43-1.437 1.43-3.354.95-4.792-.48-1.438-2.88-2.396-1.44-3.834z"/>
<path d="M874.7 259.31c-1.917-.958-2.396-2.396-1.917-3.834-.48.96-1.438 1.438-2.396 1.438-1.917 4.313-4.313 8.147-7.19 8.147-3.353.48-2.874 3.84-.478 3.84 5.27.96 7.66-.96 11.98-9.58zm-47.44-11.51c1.438-1.438.48-2.875-.48-3.355-1.437-.48-4.312 0-5.75 2.397 1.438-.48 2.875-.48 3.355.48.48.957 1.437 1.916 2.875.478zm2.4-8.62c3.355 0 4.313.48 4.792 1.917.48.958-.48 2.396-1.437 2.396-1.438 0-2.876-.958-2.396-1.438.47-.958.47-2.396-.96-2.875zm9.58 7.67c2.396.48 3.355-.958 1.917-2.875-.48-1.438-1.917-2.397-4.313-1.917 2.396 1.437 0 3.834 2.396 4.792zm-17.73 8.14c1.438 2.396 3.834 2.396 4.792 1.917 1.438-.48 1.917-1.917 1.438-2.875-.958-1.438-2.396-1.917-2.875 0-.96 1.916-2.397 1.437-3.355.958zm7.19 29.24c-.958-1.917-3.834-1.917-6.23 0 .958-.48 2.875 0 3.355.958.48.96 1.437.96 1.917.96.48-.48 1.437-.96.958-1.918zm3.83-2.88c0-2.396-3.355-2.875-5.272-1.917.96 0 2.397.96 2.397 1.917.48.958 1.437 1.438 1.916 1.438.96-.48 1.44-.96.96-1.438zm-4.79 8.63c-2.875-.48-4.313 2.875-4.313 5.272.48-1.438 1.917-2.397 3.355-1.917 1.437 0 1.917-.48 1.917-1.438.47-.958 0-1.438-.96-1.917zm.48 8.14c.958.48 1.917-.48 2.396-1.917 0-.958 1.917-.958 2.396-.48.96.48.96 2.397-.48 3.355-.957.48-3.353.96-4.312-.958zm66.61-14.37c-.958-.48-3.355-1.438-5.272 0 1.438-.48 2.397.48 2.876 1.438 0 .958 1.438 1.437 1.917.48.48-.48.96-1.44.48-1.918zm-4.31 3.35c-1.917-.958-4.313 1.438-4.792 3.355.48-.48 2.396-1.438 3.354-1.438.96.48 1.917 0 1.917-.96.47-.478.47-.957-.48-.957zm2.4 3.84c-1.438 0-3.355 1.917-3.355 3.834.48-.96 1.438-1.438 2.397-.96.958 0 2.396-.478 2.396-1.436s-.48-1.438-1.438-1.438zm4.31 3.83c-.958-.48-2.396 0-2.396 1.438s0 2.875-.48 3.354c.96-.958 1.917-1.437 2.876-1.917.48-.48.958-1.916 0-2.875zm54.15-4.31c-.958-.958-2.396-.48-2.875.48-.48.958-.96 3.354 0 5.27 0-.958.958-2.395 1.917-2.395 1.437-.48 1.916-2.397.958-3.355zm2.88 1.91c-1.917.958-1.917 4.313-.48 6.23 0-.958.48-2.396 1.438-2.875 1.438 0 1.917-1.917 1.438-2.876-.958-.96-1.917-.48-2.396-.48zm5.75 1.92c-.958-.48-1.917.48-1.917 1.438-.48 1.437.48 3.354 1.917 4.313 0-.95.48-1.91.958-2.39 1.438-.96.96-2.87-.958-3.35zm4.31-.48c-.958 0-1.917 1.438-.958 2.875.48.96 1.437 1.438 3.354.96-.48 0-1.438-1.44-.958-1.918.48-.958 0-1.917-1.438-1.917z" stroke="none" fill="#073163"/>
</g>
<g id="i">
<path d="M831.1 383.43l23.962-73.802 23.962 73.802-62.78-45.527h77.636z" fill="#f9d050"/>
<path d="M835.89 376.72l49.84-36.422h-61.342l49.36 36.422-18.69-58.467z" fill="#024919"/>
</g>
<use x="90.097" xlink:href="#i"/>
<use y="52.237" x="45.048" xlink:href="#i"/>
<path stroke="#000" d="M989.72 232.95v93.45c0 80.992-38.34 108.79-89.617 130.83-51.278-22.044-90.096-49.84-90.096-130.83v-93.45h179.71z" fill="none"/>
</g>
</g>
</svg>
