<svg xmlns="http://www.w3.org/2000/svg" xmlns:xlink="http://www.w3.org/1999/xlink" viewBox="0 0 2000 1000">
<path fill="#00afca" d="M0 0h2000v1000H0z"/>
<g transform="translate(1080.5 420)" fill="#fec50c">
<circle r="134.55"/>
<g id="c">
<g id="b">
<path id="a" d="M0-152.9c8-.1 11-5.1 11-11.1 0-8-11-46.1-11-46.1S-11-172-11-164c0 6 3 11.1 11 11.1z"/>
<use xlink:href="#a" transform="rotate(90)"/>
<use xlink:href="#a" transform="rotate(180)"/>
<use xlink:href="#a" transform="rotate(270)"/>
</g>
<use xlink:href="#b" transform="rotate(22.5)"/>
<use xlink:href="#b" transform="rotate(45)"/>
<use xlink:href="#b" transform="rotate(67.5)"/>
</g>
<use xlink:href="#c" transform="rotate(11.25)"/>
</g>
<g fill="#fec50c">
<path d="M1056.456 711.46c-3.6.2-7.1.666-10.533 1.766-4.7.634-9.2 2.267-13.867 3.034l-1.866.3-3.134.3c.2.866.334 1.733.334 2.6 0 .9-.1 1.766-.334 2.5-.2.7-.833 1.566-1.333 2.1-.667.733-1.367 1.366-2.2 1.766-.8.4-1.7.567-2.6.633-.9.03-1.833 0-2.7-.34-.9-.3-1.733-.87-2.5-1.54-.933.23-1.9.4-2.8.5-.933.1-1.8.1-2.633 0-.933-.27-1.9-.57-2.8-.94s-1.767-.84-2.6-1.37c-3.4 2-7.2 3.9-9.267 7.4-1.166 1.6-1.4 3.43-1.666 5.33-.167 2.33.433 4.8 1.433 6.96.367.63.667-2.3 1.8-2.7 1.9-1.57 4.267-2.7 6.667-3.33 2.033-1.04 1.766.06.933 1.66-.2.83-1.333 4 .2 2.4 6.767-3 14.266-3.6 21.566-4.17 10.6-1.1 21.234-1.33 31.867-1.47 10 .13 20 .27 30 .63 4.766.13 9.566 1.2 14.266.4 1.13-.3 2.9-.37 3.56-1.04-2.14-1.24-4.64-1.27-7-1.57h-19.07c-5.3-.53-10.84-.6-15.84-2.6-1.34-.53-2.57-1.8-3.84-.43-1.9.66-3.94 1.13-5.94 1.26-3.5.26-7-.47-10.24-1.77 2.33-3.24 5.13-6.07 7.7-9.07-2.07-.34-4.07-.77-6.14-1.27 3.63-2.5 7-5.34 10.53-8z"/>
<path d="M1212.2 746.01c-7.245 4.35-12.775-3.362-18.83-5.675-4.326 2.35-4.73 10.208-8.772 13.93-4.834 5.502-10.76-1.537-10.318-6.965-5.782 4.874-8.706 15.922-18.057 14.446-4.43-3.615-7.72-11.2-11.106-2.564-2.76 4.222-10.11 10.23-13.916 3.854-1.17-5.63-4-12.25-7.06-3.308-2.1 6.325-8.85 10.978-15.38 8.21-3.57-2.923 2.87-13.728-1.68-12.96-6.8 4.496-10.75 15.66-20.24 14.765-3.68-4.136 2.24-11.144-1.8-15.735-4.77 6.123-10.06 15.09-18.31 15.735-3.99-3.232.16-12.5-2.39-13.873-8.46 5.078-17.4 14.128-28.05 11.294 4.15-15.873 21.49-21.442 36.08-22.68 25.09-3.084 51.49 2.586 75.63-6.47 3.9-2.373 13.35-5.74 9.99-11.243-2.98-4.34 7.76-2.64 8.79-7.72-.64-6.43 4.93-5.54 10.36-6.11 24.38-1.05 48.46 4.08 72.76 4.96 1.84 11.84-11.3 20.16-21.87 16.5-5.05.82-12.63-11.61-11.14-2.57-1.01 4.75-.3 11.02-4.64 14.19m-207.4-24.25c5.65 5.17 9.6-.97 14.88-3.21 17.7-6.08 33.13-16.72 48.35-27.34 9.23-7.63 17.22-17.52 29.6-20 24.16-7.3 49.83-6.41 74.08-13.15 18.47-25.28 49.83-34.3 76.1-48.83 5.9-1.83 8.18-6.69 10.06-12.05 10.03-15.83 23.69-29.86 39.85-39.44 7.65-4.17 16.77-6.58 25.42-4.67-.62 10.31-6.53 19.44-13.67 26.57 5.84-.13 10.86-3.82 16.77-3.61 2.02 10.58-9.4 16.11-15.48 22.7 3.39.79 16.35 1.77 9.29 5.16-9.01 6.25-19.29 10.54-27.6 17.8 7.67 1.38 8.54 3.01.74 5.78-4.22 2.86-12.34 3.86-13.13 9.44 5.8 3.56-2.67 7.1-5.93 8.26-6.24 1.46-12.8 4.17-4.5 8.91-3.13 4.74-9.86 5.75-15.35 5.28 1.67 5.37 4.08 11.38-2.89 13.75-15.62 11.81-33.96 20.4-53.6 22.37 24.54 1.89 49.81-2.67 70.78-16.01 2.77-3.27 17.28-6.79 9.16-9.54-3.82-1.59-12.02-3.35-12.57-6.27 11.35-7 25.66-4.51 37.88-8.67.32-3.95-9.29-2.85-12.87-3.75-8.54-.7-8.04-2.88.2-3.69 10.42-2.76 22.23-3.3 31-10.09-7.14-3.31-16.12-.4-23.73-3.1 12.91-5.65 28.14-6.21 39.72-14.7 5.28-5.87-6.76-4.04-10.26-3.89-7.15 1.25-10.46-2.17-2.33-5.15 13.87-10.22 31.44-16.87 41.18-31.69 2.31-3.32 5.43-13.32-1.93-9.72-9.68 3.22-18.2 14.1-29.23 10.74 21.74-16.84 42.42-36.02 57.27-59.33.77-6.72-9.78-7.45-12.53-2.17-13.96 13.46-26.6 29.34-44.48 37.77 17.12-16.52 31.28-36.09 43.63-56.37 2.65-6.03 9.77-13.28 5.91-19.98-6.22-5.15-14.01-.43-17.24 5.73-10.85 14.17-19.09 30.71-33.05 42.25 12.22-23.32 24.87-48.15 25.18-75.04-.04-5.53-1.15-13.69-8.67-12.66-5.96 1.07-4.542 9.99-7 14.51-5.41 18.37-7.95 38.28-19.05 54.37 2.495-14.94 6.864-30.5 3.51-45.58-1.57-6.74-12.45-3.84-11.05 2.83-13 65.86-57.19 123.46-114.99 156.78-26.46 14.97-56.02 24.62-86.095 29-8.09 1.77-16.84.73-24.57 3.49-18.74 14.36-30.08 38.4-53.8 45.93-10.63 5.28-24.5 6.36-32.1 16.23-.66 1.27-.8 2.73-.77 4.13"/>
<path d="M1075.8 654.95c-3.5 6.354-5.56 13.658-10.06 19.347-13.54-12.32-33.17-11.914-50.347-12.734-14.177-.757-29.594-2.065-40.563-12.176-11.54-9.452-20.958-21.724-33.852-29.393-11.77-3.2-23.633-7.204-33.095-15.27-20.22-16.483-31.8-40.938-51.558-57.934-3.767-3.708-8.21-6.58-12.43-9.727-4.01.977-2.194 9.63-7.1 5.22-2.67-1.9-9.35-2.085-9.95.57 6.04 7.96 12.087 17.048 12.924 27.23-4.12.42-11.45-.872-13.49.663 5.47 8.2 12.48 15.473 20.45 21.263-3.82.61-11.36.28-12.82 1.82 7.91 6.44 16.39 13.03 26.74 14.69 2.12 2.79-3.1 8.19 1.29 10.57 2.54 1.04 10.94 2.78 5.16 5.67-3.97 2.67-2.5 8.91 2.58 8.77 3.21 1.64 10.42 2.04 10.98 4.88-2.85 2.89-11.7 6.32-4.16 9.04 7.04 3.9 15.06 6.44 23.1 6.71-4.04 3.39-9.01 5.32-13.16 8.51 18.55 10.87 39.11 18.03 59.43 24.92 8.09 2.7 16.27 5.22 24.66 6.81-24.37-1.41-47.92-8.63-70.12-18.5-11.5-5.05-23.09-9.92-34.87-14.27 5.17-2.69 11.15-3.35 16.51-5.68-11.13-2.23-23.29-2.96-33.07-9.08 1.5-2.68 7.18-2.8 10.32-4.16 5.91-1.42 9.58-3.14 1.24-3.65-8.41-2.28-18.05-1.26-25.46-6.33.47-3.04 8.23-1.98 11.38-3.3 3.97-.69 8.39-1.26 11.57-3.93-13-5.39-29.99-1.57-40.17-13.05-2.35-4.38 7.29-.85 10.03-1.58 6.97 0 14.46 2.21 21.1-.6-18.93-8.32-39.21-16.1-53.65-31.47-1.6-2.48-6.41-9.23-2.53-10.06 11.24 1.48 19.37 13.75 31.39 11.84 1.6-2.15-6.98-5.68-9.12-8.76-17.53-15.04-34.54-31.37-46.82-51.07-.85-6.58 9.49-7.56 12.22-2.48 13.4 12.91 25.51 27.97 42.21 36.79 5.92 2.87-3.41-3.4-4.65-5.68-15.43-17.92-30.12-36.84-40.9-57.93-1.93-3.8-5.13-10.69.64-12.71 5.77-2.89 11.5 1.05 14.43 6 11.34 14.31 19.69 31.31 33.82 43.23-12.04-23.36-24.89-47.95-25.2-74.83.28-5.21.62-13.1 7.68-12.88 5.93-.9 4.99 6.69 6.94 10.32 5.84 19.74 8.39 41.12 20.12 58.55-2.59-14.65-6.4-29.74-3.87-44.63.58-4.89 6.09-6.37 9.68-3.42 2.9 7.11 3.51 15.89 6.16 23.49 15.06 51.52 48.87 96.83 92.94 127.24 36.29 24.89 79.36 39.75 123.32 42.34 3.97.35 7.96.47 11.93.71"/>
<circle cy="720.89" cx="1020" r="2.367"/>
<circle stroke-width=".381" cy="720.51" cx="1019.8" r=".965" stroke="#00afca"/>
</g>
<g fill="#fec50c">
<g id="f">
<g id="e">
<path d="M120 72.922s-9.61-8.076-12.874-4.025c-5.25 6.515 16.14 38.968 16.14 50.396 0 18.76-12.517 23.86-27.973 26.54-10.37 1.797-27.26-.753-27.26-.753 3.18-4.273 5.25-5.532 10.607-5.873-5.965-3.097-12.04-9.82-12.04-20.284 0-16.138 6.644-22.79 6.644-40.983 0-10.093-8.276-22.94-8.276-22.94 14.63 1.463 21.88 15.008 17.754 25.833 2.328.335 4.442-.19 6.258-1.91 1.07 3-.62 6.483-2.883 9.484 1.823.974 3.162.39 6.066-.21-.276 3.092-2.128 6.376-6.66 9.468 13.15-3.415 21.243 5.75 21.243 15.347 0 7.248-5.08 12.443-10.044 12.443-1.604 0-3.96-.66-5.29-1.654-.938 2-.455 4.67.51 6.66-3.638-.96-5.948-3.12-4.304-7.62-2.795-.25-5.018-1.2-6.53-3 1.532-1.96 3.857-3.09 6.53-3-2.035-4.2.233-6.55 3.538-8.45 0 0-2.102 8.46 3.265 8.46 2.42 0 4.62-.78 4.62-4.34 0-3.09-2.7-7.38-8.96-7.11-6.26.28-11.33 4.32-11.33 14.31 0 9.22 7.44 13.8 17.23 14.1 8.84.28 15.5-4.51 15.5-13.62 0-12.13-17.5-39.77-17.5-50.58 0-8.11 7.29-12.63 14.43-12.63 9.26 0 17.06 9.16 17.06 9.16l-5.43 6.82z"/>
<path id="d" d="M122.02 292.14c0 20.27-18.198 30.688-32.498 30.688-19.266 0-29.524-11.52-29.524-26.598 0-8.548 1.566-13.91 5.507-22.092 0 0 31.78-66.09 44.153-91.653 1.543-3.188 2.04-6.818 2.04-12.138 0-8.217-7.97-14.933-16.326-15.14-7.618-.19-15.918 7.103-15.918 15.413 0 10.093 5.236 14.593 10.612 14.593 6.616 0 9.252-2.72 9.252-7.365 0-3.237-1.563-4.637-3.81-4.637-5.674 0-4.08 7.64-4.08 7.64-2.82-.61-5.135-3.49-3.81-7.09a10.23 10.23 0 0 1-5.51-3.27c1.52-1.47 3.265-2.61 5.51-3-1.33-4.39.446-6.53 4.285-7.43-.775 1.69-.8 3.24-.544 4.71 6.04-1.72 15.3 1.02 15.3 11.46 0 10.37-7.2 19.1-20.68 16.92 3.2 1.54 4.84 4.68 5.17 8.19-2.45-.95-5.17-1.09-5.17-1.09 1.57 2.78 3.76 5.18 3.67 10.64-2.5-1.14-4.83-3.24-8.03-1.91 5.03 9.9-1.15 23.51-16.87 26.73 5.75-6.74 8.57-14.02 8.57-21.27 0-23.49-6.53-27.44-6.53-43.78 0-6.83 3.51-14.21 10.47-19.23v.27c-4.6-1.23-7.55-3.49-9.25-6.57 10.51-2.98 25.8-2.92 34 .3 9.43 1.1 16.02 8.33 17.96 12.01 1.94 3.67 5.71 16.95 0 28.91-6.25 13.09-35.72 75.56-44.9 95.2-1.95 4.17-3.13 8.58-3.13 13.37 0 12.03 11.02 16.23 17.28 16.23 7.48 0 15.1-5.7 15.1-12.82 0-4.51-2.45-7.23-5.99-7.23-8.46 0-7.95 7.2-6.26 11.73-5.27-2.37-8.33-6.59-7.48-11.05-2.98-.41-5.82-1.82-8.44-4.77 2.06-2.6 4.57-4.57 8.43-4.64-1.69-6.91 2.94-9.83 7.48-11.46-1.44 5.08-2.38 10.91 6.26 10.91 6.3 0 11.25 1.1 14.15 5.19.17-5.45.68-27 .68-27 .36-8.09-10.84-7.86-17.96-5.45 2.68-9.32 8.19-14.37 20.95-13.09-3.1-1.29-6.4-4.21-6.4-9.82 0-7.59 6.16-16 10.2-18.49l2.02 79.05z"/>
<use xlink:href="#d" transform="matrix(1 0 0 -1 0 645.08)"/>
</g>
<use xlink:href="#e" transform="matrix(-1 0 0 1 240 0)"/>
</g>
<use xlink:href="#f" transform="matrix(1 0 0 -1 0 1000)"/>
</g>
</svg>
