<svg xmlns="http://www.w3.org/2000/svg" viewBox="0 0 750 500">
<path fill="#ed1c24" d="M0 0h750v500H0z"/>
<path fill="#fff" d="M0 125h750v250H0z"/>
<path d="M371.59 125c-5.37 11.3-15.47 19.2-25.13 26.67-1.59 1.39-5.54 4.08-2.68 6.12 2.46-2.74 9.2.89 5.28 3.84-3.51 3.29-8.34 4.49-12.23 7.2-3.45 1.87-6.95 3.83-9.69 6.7-.18 4.48 5.56 2 7.9 3.87 3.03 3.25-1.29 8.72-5.28 7.47-5.1.16-8.62 4.64-10.54 8.92-3.99 6.16-11.55 7.99-17.56 11.5-3.44 2.01-6.78 4.23-9.99 6.57-4.13 2.82-.53 8.41 3.86 7.04 4.75-.47 9.02-4.2 13.93-3.13 4.45 1.57 5.7 7.39 4.18 11.45-1.12 3.26-3.84 5.55-6.03 8.09-3.54 3.59-8.18 5.93-13.06 7.04-4.73 1.58-8.97 4.48-12.07 8.38-3.6 3.62-7.18 7.3-11.31 10.32-1.31 3.33 2.38 6.17 5.45 6.08 6.47-.41 10.96-5.7 16.47-8.43 4.57-2.05 9.96 2.88 8.84 7.64-.35 4.64-4.7 6.99-8.56 8.42-11.34 5.7-21.19 13.97-29.94 23.1-1.81 3.69-6.78 2.6-9.46 5.17-1.74 3.26 2.63 4.98 5.25 4.64 11.22-1.35 21.7-6.09 31.62-11.31 3.69-1.77 7.15-4.09 10.99-5.49 3.6-.89 8.63.67 9.27 4.77 0 4.33-4.29 6.73-7.69 8.42-10.47 5.51-21.97 8.55-33.17 12.19-4.19-1.18-7.34 6.28-2.75 7.62 4.87 1.67 10.03.33 15.01.11 15.38-2.35 28.83-10.67 43.2-16.05 5.98-1.95 13.03.77 15.98 6.37 2.96 4.99 2.69 11.55-.43 16.4-4.94 10.57-12.45 20.28-22.53 26.36-6.33 3.13-13.72 4.33-19.14 9.13-5.02 1.65 2.51 8.43 3.6 3.05 3.02-4.11 8.33-5.34 13.15-5.51 7.25-.79 14.95-2.12 20.58-7.14 5.05-3.92 10.02-9.33 16.88-9.41 3.79.45 7.53 3.49 11.38 1.63 3.37-1.54 8.65-.64 9.53 3.5 1.6 4.85 6.6 7.05 10.55 9.64 1.44 2.01 6.2 7.2 7.29 2.63-.88-3.27.38-8.26 4.66-7.17 3.74.17 7.3 1.55 11.04 1.77 4.96 1.03 9.11 4.43 11.93 8.54 1.94 2.68 6.19 7.29 9.35 3.73 1.96-3.67-1.78-6.74-4.83-8.05-4.44-2.75-8.24-6.42-12.12-9.89-5.72-5.35-10.67-12.15-11.58-20.13-1.23-7.97-.58-16.09.46-24.03 1.31-5.11 7.85-7.9 12.42-5.19 6.43 2.94 12.82 7.14 20.19 6.68 10.66.23 21.61-1.81 32.03 1.28 10.13 3.19 17.38 11.74 27.25 15.44 2.21 1.35 5.03.07 5.84-2.29.98-2.12.29-4.84-1.75-6.05-11.44-11.54-27.08-17.15-40.32-26.18-4.16-1.06-4.92-7.76-1.07-9.7 5.07-3.68 12.23-1.97 16.73 1.83 3.79 2.22 8.07 3.89 12.52 3.89 4.56-1.43 2.35-8.03-1.73-8.52-7.4-4.18-12.7-11.04-19.11-16.47-3.69-3.12-7.73-6.29-12.69-6.89-2.72-.5-5.49-.61-8.24-.42-2.57-2.8.86-7.09 4.19-6.74 3.42.23 6.82.49 10.23.01 3.82-.28 7.63-.67 11.46-.7 3.09 2.11 9.27-1.53 6.48-5.16-3.05-2.67-7.46-2.44-11.1-3.81-6.39-2.1-12.9-3.79-19.5-5.12-4.61-.28-4.04-6.35.01-7.02 2.66-.99 4.96 1.05 7.51 1.37 4.35.93 8.84.92 13.18 1.87 3.69-1.82.84-7.2-2.49-7.52-7.87-2.81-14.67-7.89-21.31-12.83-7.34-5.51-14-11.89-21.42-17.28-2.7-1.67-7.11-2.15-7.82-5.86-.25-3.4 3.76-4.95 6.6-4.15 4.03 1.19 7.78 3.26 11.89 4.28 3.22.54 6.55 1.5 9.65 1.09 3.94-2.48-1.69-4.06-3.73-4.92-5.26-2.83-9.93-6.61-14.66-10.22-4-3.41 3.39-4.92 5.93-3.6 4.25 1.78 4.74-4.42 1.56-5.98-3.74-1.59-6.96-4.23-10.35-6.53-6.14-4.37-13.08-7.82-20.62-8.78-8.45-.85-16.34-5.71-20.83-12.94-2.78-4.12-4.82-8.68-6.79-13.22zm-27.76 47.42c4.36.13 3.69 7.98-.6 7.45-4.17-.26-3.91-8.3.6-7.45zm41.09 4.23c4.24-.76 5.14 6.97.9 7.34-4.41.79-6.04-7.83-.9-7.34zm-12.03 1c4.29.85 3.53 8.34-.81 8.4-3.17.71-6.59 2.87-9.8 1.25-2.61-2.76 1.16-6.84 4.08-7.74 2.23-.45 4.29-1.47 6.53-1.91zm27.7.04c4.14 1.51 2.68 8.82-1.69 8.72-4.13.56-6.06-6.33-2.2-7.97 1.24-.44 2.55-.81 3.89-.75zm-46.73 8.29c3.05 2.9 1.25 8.49-2.51 9.83-2.7 1.5-6.39 5.06-9.34 2.13-1.6-3.58 2.41-6.27 4.78-8.26 2.1-1.64 4.43-3.12 7.07-3.7zm34.78 16.16c4.36 2.06 2.15 9.92-2.64 9.43-3.93-1-3.42-7.74.54-8.27.75-.29 1.44-.71 2.1-1.16zm-13.84.78c4.08 1.91.97 8.72-3.14 7.74-4.26-.5-4.18-7.99.52-7.31.88-.05 1.8-.07 2.62-.43zm29.83 3.91c4.47-1.39 9.85 3.21 8.4 7.88-1.99 3.62-6.92 4.08-10.45 2.73-4.05-.2-6.78-6.29-3.17-8.87 1.5-1.13 3.38-1.59 5.22-1.74zM338.61 208c3.7-2.01 7.62 4.03 4.48 6.69-2.08 3.06-7.43 4.32-9.79.91-1.95-3.32 1.21-8.91 5.31-7.6zm-17.05 2.86c4.19.57 6.92 4.38 8.47 8.01.38 4.41-6.14 6.84-8.98 3.62-3.2-2-6-6.13-4.32-9.96 1.03-1.52 3.09-2.15 4.83-1.67zm102 15.97c4.55-1.2 7.86 6.07 3.95 8.7-3.57 3.24-10.52-1.05-8.65-5.68.92-1.72 2.77-2.86 4.7-3.02zm-57.9 8.29c3.81.49 2.58 7.1-.95 6.88-3.78-.71-2.92-7.25.95-6.88zm-19.35 3.51c3.11-2.2 7.12 3.18 4.54 5.68-3.11 2.18-7.13-3.1-4.54-5.68zm30.77.65c3.6 2.2 5.74 6.28 6.19 10.4-1.73 3.86-8.4 2.93-9.15-1.17-1.32-3.25-.11-7.42 2.96-9.23zm10.73 6.38c4.65-1.17 2.98 8.54-.9 5.18-1.29-1.54-.6-4.06.9-5.18zm-67.43 6.76c3.08-.9 7.56.05 8.41 3.58.36 3.32-3.29 5.05-5.96 5.87-4.29 1.32-8.48 3.49-13.09 3.2-3.46-1.97-4.7-6.01-5.93-9.54 3.34-3.13 8.25-2.21 12.38-2.99 1.4-.07 2.79-.11 4.19-.12zm104.6 15.22c3.93-1.92 8.15 4.31 4.86 7.22-4.11 4.73-12.02 5.61-16.94 1.64-.59-4.19 3.59-7.23 7.31-7.83 1.56-.44 3.11-1.1 4.77-1.03zm22.06 4.78c4.46-.76 7.98 5.6 4.79 8.89-3.01 4.55-10.2 5.74-14.31 2.01-1.6-3.76 1.65-7.69 5.11-8.9 1.48-.63 2.89-1.44 4.41-2zm-110.94 6.77c4.13-.41 7.92 3.69 7.38 7.76 2.99 2.94-2.31 8.43-5.29 5.38-2.62-3.18-2.61-7.5-3.63-11.3-.04-.85.58-1.94 1.54-1.84zm31.71 2.37c4.27-1.84 9.8 3.27 7.47 7.59-1.66 3.52-8.13 2.34-7.92-1.74-.01-1.95-.17-3.95.45-5.85zm-15.42 2.77c4.28-.98 8.21 4.57 5.83 8.27-4.27.38-6.49-4.69-5.83-8.27z" fill="#00a651"/>
</svg>
