<svg id="liechtenstein_flag" xmlns="http://www.w3.org/2000/svg" viewBox="0 0 1000 600" xmlns:xlink="http://www.w3.org/1999/xlink">
<rect width="1e3" fill="#002b7f" height="600"/>
<rect y="300" width="1e3" fill="#ce1126" height="300"/>
<g stroke-linejoin="round" stroke="#000" stroke-width="2" stroke-linecap="round" fill="#ffd83d">
<g id="half">
<path stroke="none" d="m216.38 122.29l-1.84 62.5h-63.42c-7.8-15.17-14.25-28.05-14.25-45.5 0-14.6 11.49-26.19 28.04-26.19 17.52 0 36.77 5.9 51.47 9.19z"/>
<g stroke-width="1.5">
<path d="m144.46 125.16v36.08"/>
<path d="m149.55 121.48v48.03"/>
<path d="m154.64 118.95v57.23"/>
<path d="m159.74 117.77v44.88"/>
<path d="m164.83 117.55v45.32"/>
<path d="m169.92 115.96v46.89"/>
<path d="m175.02 115.96v46.89"/>
<path d="m180.11 116.42v46.89"/>
<path d="m185.2 116.88v46.89"/>
<path d="m190.3 119.87v46.89"/>
<path d="m195.39 120.33v52.86"/>
<path d="m200.48 120.33v46.89"/>
<path d="m205.58 120.33v46.89"/>
<path d="m176.4 117.92c10.76 1.78 34.4 12.84 31.7 27.81-3.82 21.21-16.2 12.69-32.62 9.65l-12.41 4.13c-4.44 4.53-10.98 8.69-15.4 3.22h-7.35v28.72h81.34v-69.39z" fill="#000"/>
</g>
<circle cy="112.98" cx="212.82" r="4.9403"/>
<circle cy="110.31" cx="201.71" r="4.9403"/>
<circle cy="107.48" cx="190.45" r="4.9403"/>
<circle cy="105.6" cx="179.14" r="4.9403"/>
<circle cy="104.48" cx="167.84" r="4.9403"/>
<circle cy="105.11" cx="156.75" r="4.9403"/>
<circle cy="108.73" cx="146.18" r="4.9403"/>
<circle cy="115.28" cx="137.28" r="4.9403"/>
<circle cy="124.41" cx="130.96" r="4.9403"/>
<circle cy="135.16" cx="127.91" r="4.9403"/>
<circle cy="146.3" cx="128.03" r="4.9403"/>
<circle cy="157.22" cx="130.15" r="4.9403"/>
<path d="m215 119.53l-0.46 6.44c-12.29-1.89-29.72-8.74-45.96-8.74-15 0-26.65 6.01-26.65 21.14 0 14.92 6.32 28.49 14.7 42.28l-8.73 4.14c-7.8-15.17-14.24-28.05-14.24-45.5 0-14.6 11.48-28.95 31.25-28.95 17.52 0 35.39 5.9 50.09 9.19z"/>
</g>
<use xlink:href="#half" transform="translate(443.94) scale(-1 1)"/>
<path d="m221.97 53.125l-5.16 9.656 5.16 9.625 5.15-9.625-5.15-9.656zm0 24.375l-5.16 9.625 5.16 9.656 5.15-9.656-5.15-9.625z"/>
<path d="m203.59 74.953l8.13 5.156 8.1-5.156-8.1-5.156-8.13 5.156zm20.52 0l8.11 5.156 8.13-5.156-8.13-5.156-8.11 5.156z"/>
<circle cy="75.069" cx="221.97" r="3.9062"/>
<circle cy="100" cx="221.97" r="10.455"/>
<path stroke-width="1.5" d="m219.34 89.875c0 3.114-0.02 4.924-0.03 6.625-2.52 0.112-5 0.377-7.43 0.781m20.18 0c-2.43-0.404-4.91-0.669-7.44-0.781v-6.625m-12.78 12.685c3.3-0.55 6.68-0.84 10.13-0.84s6.83 0.29 10.12 0.84" fill="none"/>
<path d="m211.75 117.69c-0.99 17.08-3.01 34.48-9.66 47.12l10.82-4.37c3.77-14.33 4.57-32.85 5.71-41.6l-6.87-1.15zm20.44 0l-6.88 1.15c1.15 8.75 1.94 27.27 5.72 41.6l10.81 4.37c-6.64-12.64-8.66-30.04-9.65-47.12z"/>
<path d="m221.95 154.69c-12.91 0-22.4 6.08-22.97 21.59-3.15-5.55-16.51-23.02-28.96-20.69-7.41 1.39-13.96 11.67-12.85 23.44-6.13-17.63-24.1-20.52-37.22-10.09 11.65 9.57 16.82 37.83 26.63 50.09h75.37 75.38c9.8-12.26 15.01-40.52 26.65-50.09-13.11-10.43-31.08-7.54-37.21 10.09 1.11-11.77-5.47-22.05-12.88-23.44-12.46-2.33-25.78 15.14-28.94 20.69-0.57-15.51-10.08-21.59-23-21.59z"/>
<g stroke-width="1.5">
<path d="m297.11 219.03c0 5.58-33.67 11.71-75.14 11.71-41.48 0-75.14-6.13-75.14-11.71 0-5.59 33.66-8.51 75.14-8.51 41.47 0 75.14 2.92 75.14 8.51z" fill="#000"/>
<circle cy="114.44" cx="221.97" r="3.5041"/>
<circle cy="122.03" cx="221.97" r="3.7339"/>
<circle cy="130.18" cx="221.97" r="4.0786"/>
<circle cy="139.26" cx="221.97" r="4.653"/>
<circle cy="149.37" cx="221.97" r="5.1126"/>
<path stroke="none" d="m219.94 159.21c-0.56-0.01-1.08 0.45-0.94 1.34 0.16 1.04 0.37 2.99 0.56 4.31 0.22 1.5 1.09 1.13 1.32-0.03 0.22-1.16 0.13-1.91 0.18-4.06 0.03-1.08-0.57-1.56-1.12-1.56zm4.06 0c-0.55 0-1.15 0.48-1.12 1.56 0.05 2.15-0.04 2.9 0.18 4.06s1.09 1.53 1.32 0.03c0.19-1.32 0.39-3.27 0.56-4.31 0.14-0.89-0.39-1.35-0.94-1.34zm-7.69 0.56c-0.5 0.07-1.03 0.58-1 1.12 0.06 1 0.33 2.19 0.44 3.69 0.11 1.55 1.2 0.95 1.31 0.06 0.11-0.88 0.24-2.19 0.13-3.9-0.04-0.65-0.32-0.93-0.66-0.97-0.07-0.01-0.15-0.01-0.22 0zm11.1 0c-0.34 0.04-0.62 0.32-0.66 0.97-0.11 1.71 0.01 3.02 0.13 3.9 0.11 0.89 1.2 1.49 1.31-0.06 0.1-1.5 0.38-2.69 0.44-3.69 0.03-0.54-0.5-1.05-1-1.12-0.08-0.01-0.15-0.01-0.22 0zm-15.44 1.75c-0.46 0.12-0.89 0.67-0.75 1.31 0.28 1.27 0.53 2.68 0.53 3.97 0 1.11 0.94 0.71 1-0.06 0.06-0.78 0.16-2.42 0.16-3.91 0-1.11-0.48-1.43-0.94-1.31zm19.69 0c-0.33 0.09-0.63 0.47-0.63 1.31 0 1.49 0.1 3.13 0.16 3.91 0.05 0.77 1 1.17 1 0.06 0-1.29 0.25-2.7 0.53-3.97 0.14-0.64-0.29-1.19-0.75-1.31-0.12-0.03-0.2-0.03-0.31 0zm-59.1 0.17c-0.55-0.02-0.94 0.73-0.56 1.56 0.61 1.33 1.25 2.17 1.88 3.6 0.55 1.27 1.4 0.47 1.12-0.41-0.28-0.89-0.58-1.87-1.41-3.75-0.31-0.71-0.7-0.99-1.03-1zm98.82 0c-0.34 0.01-0.73 0.29-1.04 1-0.83 1.88-1.13 2.86-1.4 3.75-0.28 0.88 0.57 1.68 1.12 0.41 0.62-1.43 1.27-2.27 1.88-3.6 0.38-0.83-0.01-1.58-0.56-1.56zm-94.82 0.06c-0.41 0.13-0.65 0.64-0.4 1.25 0.49 1.22 1.21 2.47 1.72 3.78 0.44 1.16 1.42 0.83 1.09-0.22s-0.43-1.66-1.09-3.65c-0.34-1-0.91-1.28-1.32-1.16zm90.5 0c-0.35 0.08-0.75 0.41-1 1.16-0.66 1.99-0.76 2.6-1.09 3.65s0.65 1.38 1.09 0.22c0.5-1.31 1.22-2.56 1.72-3.78 0.25-0.61 0-1.12-0.4-1.25-0.11-0.03-0.2-0.02-0.32 0zm-85.5 0.97c-0.51 0.1-0.91 0.88-0.56 1.84 0.44 1.22 1.07 2.37 1.63 3.75 0.55 1.39 1.47 1.11 1.25 0.22-0.23-0.88-0.5-2.35-1.16-4.56-0.29-0.97-0.76-1.33-1.16-1.25zm80.82 0c-0.4-0.08-0.87 0.28-1.16 1.25-0.67 2.21-0.94 3.68-1.16 4.56-0.22 0.89 0.7 1.17 1.25-0.22 0.56-1.38 1.18-2.53 1.63-3.75 0.35-0.96-0.05-1.74-0.56-1.84zm-93.19 0.69c-0.56 0.05-1.07 0.96-0.72 1.65 0.55 1.11 0.9 1.49 1.44 2.66 0.55 1.22 1.16 0.27 0.93-0.5-0.22-0.77-0.5-1.68-0.78-2.78-0.2-0.81-0.54-1.07-0.87-1.03zm105.56 0c-0.33-0.04-0.67 0.22-0.87 1.03-0.28 1.1-0.56 2.01-0.79 2.78-0.22 0.77 0.39 1.72 0.94 0.5 0.54-1.17 0.89-1.55 1.44-2.66 0.34-0.69-0.16-1.6-0.72-1.65zm-67.03 2.8c-0.58 0-1.21 0.77-1 1.5 0.33 1.16 0.84 2.19 1.22 3.68 0.33 1.33 1.27 0.67 1.22-0.22-0.06-0.88-0.21-2.08-0.6-3.96-0.14-0.71-0.49-1-0.84-1zm28.5 0c-0.35 0-0.7 0.29-0.84 1-0.39 1.88-0.54 3.08-0.6 3.96-0.05 0.89 0.89 1.55 1.22 0.22 0.37-1.49 0.89-2.52 1.22-3.68 0.21-0.73-0.42-1.5-1-1.5zm-14.25 1.18c-0.72 0-0.82 0.97-0.84 1.75-0.09 2.57-1.15 5.07-2.07 6.32-0.91 1.24-2.25 0.91-3.5 0.25-1.24-0.67-1.98-1.16-3.31-2.16s-2.33-0.41-0.75 1.84c4.62 6.58 9.63 12.21 9.63 22.94 0 1.39 0.24 1.81 0.84 1.81s0.87-0.42 0.87-1.81c0-10.73 4.98-16.36 9.6-22.94 1.58-2.25 0.57-2.84-0.75-1.84-1.33 1-2.07 1.49-3.31 2.16-1.25 0.66-2.59 0.99-3.5-0.25-0.92-1.25-1.98-3.75-2.07-6.32-0.02-0.78-0.12-1.75-0.84-1.75zm-35.28-1.61c-0.07 0-0.13 0.02-0.19 0.03-0.27 0.09-0.45 0.41-0.34 0.97 0.18 1.01 0.88 2.97 1.15 3.91 0.28 0.94 1.44 0.74 1.16-0.53s-0.26-1.66-0.59-3.1c-0.19-0.78-0.75-1.26-1.19-1.28zm70.56 0c-0.44 0.02-1.01 0.5-1.19 1.28-0.33 1.44-0.31 1.83-0.59 3.1s0.88 1.47 1.16 0.53c0.27-0.94 0.97-2.9 1.15-3.91 0.11-0.56-0.07-0.88-0.34-0.97-0.06-0.01-0.13-0.03-0.19-0.03zm-91.53 0.41c-0.58 0.04-1 0.77-0.41 1.84 0.64 1.16 1.72 2.61 2.22 3.44s1.36 0.27 0.75-0.78-0.81-2.26-1.53-3.75c-0.27-0.56-0.68-0.78-1.03-0.75zm112.5 0c-0.35-0.03-0.76 0.19-1.03 0.75-0.72 1.49-0.93 2.7-1.53 3.75-0.61 1.05 0.25 1.61 0.75 0.78 0.49-0.83 1.58-2.28 2.22-3.44 0.58-1.07 0.17-1.8-0.41-1.84zm-144.19 3.33c-0.67-0.04-0.88 1.17-0.25 1.97 0.91 1.16 1.55 1.77 2.6 2.72 0.82 0.74 1.07-0.23 0.65-0.97-0.41-0.75-1.01-1.51-1.84-2.75-0.46-0.68-0.86-0.96-1.16-0.97zm175.88 0c-0.31 0.01-0.71 0.29-1.16 0.97-0.83 1.24-1.43 2-1.84 2.75-0.42 0.74-0.18 1.71 0.65 0.97 1.05-0.95 1.68-1.56 2.6-2.72 0.62-0.8 0.41-2.01-0.25-1.97zm-170.85 1c-0.53 0.01-0.88 0.4-0.47 1.31 0.6 1.31 1.38 2.79 1.88 3.78 0.5 1 2.01 1.33 1.41-0.22-0.61-1.54-0.73-2.34-1.29-3.78-0.27-0.72-1-1.1-1.53-1.09zm165.82 0c-0.54-0.01-1.26 0.37-1.54 1.09-0.55 1.44-0.67 2.24-1.28 3.78-0.61 1.55 0.91 1.22 1.41 0.22 0.5-0.99 1.28-2.47 1.87-3.78 0.42-0.91 0.07-1.3-0.46-1.31zm-175.57 0.34c-0.77 0.01-0.84 0.79-0.15 1.28 0.91 0.67 2 1.4 3.06 2.25 1.24 1 1.72 0.08 1.06-0.75s-1.31-1.67-2.97-2.5c-0.41-0.2-0.74-0.28-1-0.28zm185.32 0c-0.26 0-0.59 0.08-1 0.28-1.66 0.83-2.31 1.67-2.97 2.5-0.67 0.83-0.19 1.75 1.06 0.75 1.06-0.85 2.15-1.58 3.06-2.25 0.69-0.49 0.62-1.27-0.15-1.28zm-109.66 0.72c-0.43 0.06-0.81 0.55-0.63 1.19 0.34 1.16 0.71 2.39 0.94 3.59 0.22 1.16 1.57 1.18 1.35 0.13-0.23-1.05-0.34-2.37-0.72-3.97-0.15-0.6-0.45-0.89-0.75-0.94-0.07-0.01-0.13-0.01-0.19 0zm33.81 0c-0.3 0.05-0.6 0.34-0.75 0.94-0.39 1.6-0.5 2.92-0.72 3.97s1.12 1.03 1.35-0.13c0.23-1.2 0.6-2.43 0.93-3.59 0.19-0.64-0.19-1.13-0.62-1.19-0.06-0.01-0.13-0.01-0.19 0zm-63.9-1.98c-0.34 0.09-0.54 0.74-0.29 1.65 1.41 5.06 1.85 7.73 1.6 8.97s-0.93 1.42-1.85 1c-0.91-0.41-1.98-1.01-2.81-1.59s-1.69 0.11-0.5 1.09c6.06 4.98 10.25 10.66 11.88 17.56 0.33 1.41 1.21 1.58 0.97 0-1.38-8.69-1.64-15.83 0.43-20.31 0.78-1.68 0-3.3-1.25-0.56-0.83 1.82-2.17 2.54-3.25 0.97-1.08-1.58-3.3-5.78-3.97-7.69-0.25-0.72-0.55-1.05-0.81-1.09-0.05-0.01-0.11-0.02-0.15 0zm94.03 0c-0.26 0.04-0.57 0.37-0.82 1.09-0.66 1.91-2.89 6.11-3.96 7.69-1.08 1.57-2.43 0.85-3.25-0.97-1.25-2.74-2.03-1.12-1.25 0.56 2.07 4.48 1.8 11.62 0.43 20.31-0.25 1.58 0.64 1.41 0.97 0 1.62-6.9 5.82-12.58 11.88-17.56 1.19-0.98 0.33-1.67-0.5-1.09s-1.9 1.18-2.82 1.59c-0.91 0.42-1.59 0.24-1.84-1s0.18-3.91 1.59-8.97c0.26-0.91 0.06-1.56-0.28-1.65-0.05-0.02-0.1-0.01-0.15 0zm-124.47 2.42c-0.55 0.01-1 0.39-0.75 1.22 0.4 1.33 1.22 2.76 1.5 3.59 0.27 0.83 1.16 0.44 1-0.72-0.17-1.16-0.25-1.85-0.47-3.12-0.11-0.64-0.74-0.98-1.28-0.97zm155.06 0c-0.55-0.01-1.17 0.33-1.28 0.97-0.22 1.27-0.3 1.96-0.47 3.12s0.72 1.55 1 0.72 1.1-2.26 1.5-3.59c0.25-0.83-0.2-1.21-0.75-1.22zm-136.28-1.74c-0.64-0.11-0.73 1.53-0.19 2.19 0.72 0.89 1.72 1.96 2.72 3.16 0.83 0.99 1.34 0.11 0.84-0.72-0.49-0.83-1.23-1.71-2.56-3.81-0.33-0.53-0.6-0.78-0.81-0.82zm117.5 0c-0.21 0.04-0.48 0.29-0.81 0.82-1.33 2.1-2.07 2.98-2.57 3.81-0.49 0.83 0.02 1.71 0.85 0.72 1-1.2 2-2.27 2.72-3.16 0.54-0.66 0.44-2.3-0.19-2.19zm-132 3.96c-0.4-0.03-0.73 0.29-0.56 1.09 0.23 1.12 0.56 2.04 0.84 3.09 0.28 1.06 1 0.88 1-0.12s-0.18-2.11-0.34-3.16c-0.09-0.52-0.55-0.88-0.94-0.9zm146.5 0c-0.4 0.02-0.86 0.38-0.94 0.9-0.16 1.05-0.34 2.16-0.34 3.16s0.72 1.18 1 0.12c0.27-1.05 0.61-1.97 0.84-3.09 0.17-0.8-0.17-1.12-0.56-1.09zm-133.41 1.42c-0.62 0.09-1.16 0.69-0.43 1.62 1.16 1.5 2.43 2.54 2.87 3.1 0.44 0.55 1.56 0.35 0.84-0.82-0.73-1.18-1.84-2.61-2.34-3.5-0.19-0.33-0.57-0.46-0.94-0.4zm120.07 0c-0.28 0.03-0.55 0.16-0.69 0.4-0.5 0.89-1.61 2.32-2.35 3.5-0.72 1.17 0.41 1.37 0.85 0.82 0.44-0.56 1.71-1.6 2.87-3.1 0.73-0.93 0.18-1.53-0.43-1.62-0.1-0.02-0.16-0.01-0.25 0zm-140.72 4.17c-0.49-0.04-0.66 0.35 0 1.25 1.49 2.05 3.14 5.14 3.25 6.47s-0.55 1.31-1.16 1.31c-1.82 0-2.72-1.33-4.37-1.72-1.66-0.38-1.9 0.49-0.72 1.35 6.08 4.42 12.18 9.36 14.62 13.84 1 1.83 2.34 2.49 1.6 0.75-2.29-5.34-2.85-9.86-2.35-12.59 0.5-2.74 1.18-4.58 1.1-6.16-0.09-1.57-0.98-1.47-1.35 0-0.25 1-0.73 2.32-1.06 2.81-0.33 0.5-1.67 0.78-2.94-0.93-1.27-1.72-4.48-5.02-5.53-5.85-0.39-0.31-0.8-0.5-1.09-0.53zm161.62 0c-0.29 0.03-0.7 0.22-1.09 0.53-1.05 0.83-4.26 4.13-5.53 5.85-1.28 1.71-2.61 1.43-2.94 0.93-0.33-0.49-0.81-1.81-1.06-2.81-0.37-1.47-1.26-1.57-1.35 0-0.08 1.58 0.6 3.42 1.1 6.16 0.49 2.73-0.06 7.25-2.35 12.59-0.74 1.74 0.6 1.08 1.6-0.75 2.44-4.48 8.54-9.42 14.62-13.84 1.18-0.86 0.94-1.73-0.72-1.35-1.66 0.39-2.55 1.72-4.37 1.72-0.61 0-1.27 0.02-1.16-1.31s1.76-4.42 3.25-6.47c0.66-0.9 0.49-1.29 0-1.25z" fill="#000"/>
<path d="m150.13 212.65 1.95 6.18m2.06-7.35 1.73 6.24m2.6-6.95 1.19 6.36m2.83-7.17 1.27 6.35m3.89-6.85 1.03 6.39m4.45-6.39 1.11 6.38m4.24-8.19 0.81 6.43m4.23-6.1 0.8 6.42m4.08-7.07 0.8 6.42m4.09-6.93 0.44 6.46m4.79-6.46 0.38 6.46m4.36-6.79 0.32 6.47m4.9-6.79 0.27 6.47m5.75-6.64 0.27 6.47m79.04 0.18-1.95 6.18m-2.06-7.35-1.73 6.24m-2.6-6.95-1.19 6.36m-2.83-7.17-1.27 6.35m-3.89-6.85-1.03 6.39m-4.45-6.39-1.11 6.38m-4.25-8.19-0.8 6.43m-4.23-6.1-0.81 6.42m-4.07-7.07-0.8 6.42m-4.09-6.93-0.44 6.46m-4.79-6.46-0.38 6.46m-4.36-6.79-0.33 6.47m-4.9-6.79-0.27 6.47m-5.74-6.64-0.27 6.47m-7.2-6.89v7.13"/>
</g>
</g>
</svg>
