<svg xmlns="http://www.w3.org/2000/svg" viewBox="0 0 1000 600" xmlns:xlink="http://www.w3.org/1999/xlink">
<path fill="#002b7f" d="M0 0h1000v600H0z"/>
<path fill="#ce1126" d="M0 300h1000v300H0z"/>
<g stroke-linejoin="round" stroke="#000" stroke-width="2" stroke-linecap="round" fill="#ffd83d">
<g id="a">
<path stroke="none" d="M216.38 122.29l-1.84 62.5h-63.42c-7.8-15.17-14.25-28.05-14.25-45.5 0-14.6 11.49-26.19 28.04-26.19 17.52 0 36.77 5.9 51.47 9.19z"/>
<g stroke-width="1.5">
<path d="M144.46 125.16v36.08m5.09-39.76v48.03m5.09-50.56v57.23m5.1-58.41v44.88m5.09-45.1v45.32m5.09-46.91v46.89m5.1-46.89v46.89m5.09-46.43v46.89m5.09-46.43v46.89m5.1-43.9v46.89m5.09-46.43v52.86m5.09-52.86v46.89m5.1-46.89v46.89"/>
<path d="M176.4 117.92c10.76 1.78 34.4 12.84 31.7 27.81-3.82 21.21-16.2 12.69-32.62 9.65l-12.41 4.13c-4.44 4.53-10.98 8.69-15.4 3.22h-7.35v28.72h81.34v-69.39z" fill="#000"/>
</g>
<circle cy="112.98" cx="212.82" r="4.94"/>
<circle cy="110.31" cx="201.71" r="4.94"/>
<circle cy="107.48" cx="190.45" r="4.94"/>
<circle cy="105.6" cx="179.14" r="4.94"/>
<circle cy="104.48" cx="167.84" r="4.94"/>
<circle cy="105.11" cx="156.75" r="4.94"/>
<circle cy="108.73" cx="146.18" r="4.94"/>
<circle cy="115.28" cx="137.28" r="4.94"/>
<circle cy="124.41" cx="130.96" r="4.94"/>
<circle cy="135.16" cx="127.91" r="4.94"/>
<circle cy="146.3" cx="128.03" r="4.94"/>
<circle cy="157.22" cx="130.15" r="4.94"/>
<path d="M215 119.53l-.46 6.44c-12.29-1.89-29.72-8.74-45.96-8.74-15 0-26.65 6.01-26.65 21.14 0 14.92 6.32 28.49 14.7 42.28l-8.73 4.14c-7.8-15.17-14.24-28.05-14.24-45.5 0-14.6 11.48-28.95 31.25-28.95 17.52 0 35.39 5.9 50.09 9.19z"/>
</g>
<use xlink:href="#a" transform="matrix(-1 0 0 1 443.94 0)"/>
<path d="M221.97 53.125l-5.16 9.656 5.16 9.63 5.15-9.62-5.15-9.65zm0 24.375l-5.16 9.625 5.16 9.656 5.15-9.65-5.15-9.62zm-18.38-2.547l8.13 5.156 8.1-5.16-8.1-5.16-8.13 5.15zm20.52 0l8.11 5.156 8.13-5.16-8.13-5.16-8.11 5.15z"/>
<circle cy="75.069" cx="221.97" r="3.906"/>
<circle cy="100" cx="221.97" r="10.455"/>
<path stroke-width="1.5" d="M219.34 89.875c0 3.114-.02 4.924-.03 6.625-2.52.112-5 .377-7.43.78m20.18 0a62.06 62.06 0 0 0-7.44-.78v-6.625m-12.78 12.685c3.3-.55 6.68-.84 10.13-.84s6.83.29 10.12.84" fill="none"/>
<path d="M211.75 117.69c-.99 17.08-3.01 34.48-9.66 47.12l10.82-4.37c3.77-14.33 4.57-32.85 5.71-41.6l-6.87-1.15zm20.44 0l-6.88 1.15c1.15 8.75 1.94 27.27 5.72 41.6l10.81 4.37c-6.64-12.64-8.66-30.04-9.65-47.12z"/>
<path d="M221.95 154.69c-12.91 0-22.4 6.08-22.97 21.59-3.15-5.55-16.51-23.02-28.96-20.69-7.41 1.39-13.96 11.67-12.85 23.44-6.13-17.63-24.1-20.52-37.22-10.09 11.65 9.57 16.82 37.83 26.63 50.09h150.75c9.8-12.26 15.01-40.52 26.65-50.09-13.11-10.43-31.08-7.54-37.21 10.09 1.11-11.77-5.47-22.05-12.88-23.44-12.46-2.33-25.78 15.14-28.94 20.69-.57-15.51-10.08-21.59-23-21.59z"/>
<g stroke-width="1.5">
<path d="M297.11 219.03c0 5.58-33.67 11.71-75.14 11.71-41.48 0-75.14-6.13-75.14-11.71 0-5.59 33.66-8.51 75.14-8.51 41.47 0 75.14 2.92 75.14 8.51z" fill="#000"/>
<circle cy="114.44" cx="221.97" r="3.504"/>
<circle cy="122.03" cx="221.97" r="3.734"/>
<circle cy="130.18" cx="221.97" r="4.079"/>
<circle cy="139.26" cx="221.97" r="4.653"/>
<circle cy="149.37" cx="221.97" r="5.113"/>
<path stroke="none" d="M219.94 159.21c-.56-.01-1.08.45-.94 1.34.16 1.04.37 2.99.56 4.31.22 1.5 1.09 1.13 1.32-.03.22-1.16.13-1.91.18-4.06.03-1.08-.57-1.56-1.12-1.56zm4.06 0c-.55 0-1.15.48-1.12 1.56.05 2.15-.04 2.9.18 4.06s1.09 1.53 1.32.03c.19-1.32.39-3.27.56-4.31.14-.89-.39-1.35-.94-1.34zm-7.69.56c-.5.07-1.03.58-1 1.12.06 1 .33 2.19.44 3.69.11 1.55 1.2.95 1.31.06.11-.88.24-2.19.13-3.9-.04-.65-.32-.93-.66-.97a.81.81 0 0 0-.22 0zm11.1 0c-.34.04-.62.32-.66.97-.11 1.71.01 3.02.13 3.9.11.89 1.2 1.49 1.31-.06.1-1.5.38-2.69.44-3.69.03-.54-.5-1.05-1-1.12a.81.81 0 0 0-.22 0zm-15.44 1.75c-.46.12-.89.67-.75 1.31.28 1.27.53 2.68.53 3.97 0 1.11.94.71 1-.06.06-.78.16-2.42.16-3.91 0-1.11-.48-1.43-.94-1.31zm19.69 0c-.33.09-.63.47-.63 1.31 0 1.49.1 3.13.16 3.91.05.77 1 1.17 1 .06 0-1.29.25-2.7.53-3.97.14-.64-.29-1.19-.75-1.31a.545.545 0 0 0-.31 0zm-59.1.17c-.55-.02-.94.73-.56 1.56.61 1.33 1.25 2.17 1.88 3.6.55 1.27 1.4.47 1.12-.41-.28-.89-.58-1.87-1.41-3.75-.31-.71-.7-.99-1.03-1zm98.82 0c-.34.01-.73.29-1.04 1-.83 1.88-1.13 2.86-1.4 3.75-.28.88.57 1.68 1.12.41.62-1.43 1.27-2.27 1.88-3.6.38-.83-.01-1.58-.56-1.56zm-94.82.06c-.41.13-.65.64-.4 1.25.49 1.22 1.21 2.47 1.72 3.78.44 1.16 1.42.83 1.09-.22s-.43-1.66-1.09-3.65c-.34-1-.91-1.28-1.32-1.16zm90.5 0c-.35.08-.75.41-1 1.16-.66 1.99-.76 2.6-1.09 3.65s.65 1.38 1.09.22c.5-1.31 1.22-2.56 1.72-3.78.25-.61 0-1.12-.4-1.25a.692.692 0 0 0-.32 0zm-85.5.97c-.51.1-.91.88-.56 1.84.44 1.22 1.07 2.37 1.63 3.75.55 1.39 1.47 1.11 1.25.22-.23-.88-.5-2.35-1.16-4.56-.29-.97-.76-1.33-1.16-1.25zm80.82 0c-.4-.08-.87.28-1.16 1.25-.67 2.21-.94 3.68-1.16 4.56-.22.89.7 1.17 1.25-.22.56-1.38 1.18-2.53 1.63-3.75.35-.96-.05-1.74-.56-1.84zm-93.19.69c-.56.05-1.07.96-.72 1.65.55 1.11.9 1.49 1.44 2.66.55 1.22 1.16.27.93-.5-.22-.77-.5-1.68-.78-2.78-.2-.81-.54-1.07-.87-1.03zm105.56 0c-.33-.04-.67.22-.87 1.03-.28 1.1-.56 2.01-.79 2.78-.22.77.39 1.72.94.5.54-1.17.89-1.55 1.44-2.66.34-.69-.16-1.6-.72-1.65zm-67.03 2.8c-.58 0-1.21.77-1 1.5.33 1.16.84 2.19 1.22 3.68.33 1.33 1.27.67 1.22-.22-.06-.88-.21-2.08-.6-3.96-.14-.71-.49-1-.84-1zm28.5 0c-.35 0-.7.29-.84 1-.39 1.88-.54 3.08-.6 3.96-.05.89.89 1.55 1.22.22.37-1.49.89-2.52 1.22-3.68.21-.73-.42-1.5-1-1.5zm-14.25 1.18c-.72 0-.82.97-.84 1.75-.09 2.57-1.15 5.07-2.07 6.32-.91 1.24-2.25.91-3.5.25-1.24-.67-1.98-1.16-3.31-2.16s-2.33-.41-.75 1.84c4.62 6.58 9.63 12.21 9.63 22.94 0 1.39.24 1.81.84 1.81s.87-.42.87-1.81c0-10.73 4.98-16.36 9.6-22.94 1.58-2.25.57-2.84-.75-1.84-1.33 1-2.07 1.49-3.31 2.16-1.25.66-2.59.99-3.5-.25-.92-1.25-1.98-3.75-2.07-6.32-.02-.78-.12-1.75-.84-1.75zm-35.28-1.61c-.07 0-.13.02-.19.03-.27.09-.45.41-.34.97.18 1.01.88 2.97 1.15 3.91.28.94 1.44.74 1.16-.53s-.26-1.66-.59-3.1c-.19-.78-.75-1.26-1.19-1.28zm70.56 0c-.44.02-1.01.5-1.19 1.28-.33 1.44-.31 1.83-.59 3.1s.88 1.47 1.16.53c.27-.94.97-2.9 1.15-3.91.11-.56-.07-.88-.34-.97-.06-.01-.13-.03-.19-.03zm-91.53.41c-.58.04-1 .77-.41 1.84.64 1.16 1.72 2.61 2.22 3.44s1.36.27.75-.78-.81-2.26-1.53-3.75c-.27-.56-.68-.78-1.03-.75zm112.5 0c-.35-.03-.76.19-1.03.75-.72 1.49-.93 2.7-1.53 3.75-.61 1.05.25 1.61.75.78.49-.83 1.58-2.28 2.22-3.44.58-1.07.17-1.8-.41-1.84zm-144.19 3.33c-.67-.04-.88 1.17-.25 1.97.91 1.16 1.55 1.77 2.6 2.72.82.74 1.07-.23.65-.97-.41-.75-1.01-1.51-1.84-2.75-.46-.68-.86-.96-1.16-.97zm175.88 0c-.31.01-.71.29-1.16.97-.83 1.24-1.43 2-1.84 2.75-.42.74-.18 1.71.65.97 1.05-.95 1.68-1.56 2.6-2.72.62-.8.41-2.01-.25-1.97zm-170.85 1c-.53.01-.88.4-.47 1.31.6 1.31 1.38 2.79 1.88 3.78.5 1 2.01 1.33 1.41-.22-.61-1.54-.73-2.34-1.29-3.78-.27-.72-1-1.1-1.53-1.09zm165.82 0c-.54-.01-1.26.37-1.54 1.09-.55 1.44-.67 2.24-1.28 3.78-.61 1.55.91 1.22 1.41.22.5-.99 1.28-2.47 1.87-3.78.42-.91.07-1.3-.46-1.31zm-175.57.34c-.77.01-.84.79-.15 1.28.91.67 2 1.4 3.06 2.25 1.24 1 1.72.08 1.06-.75s-1.31-1.67-2.97-2.5c-.41-.2-.74-.28-1-.28zm185.32 0c-.26 0-.59.08-1 .28-1.66.83-2.31 1.67-2.97 2.5-.67.83-.19 1.75 1.06.75 1.06-.85 2.15-1.58 3.06-2.25.69-.49.62-1.27-.15-1.28zm-109.66.72c-.43.06-.81.55-.63 1.19.34 1.16.71 2.39.94 3.59.22 1.16 1.57 1.18 1.35.13-.23-1.05-.34-2.37-.72-3.97-.15-.6-.45-.89-.75-.94a.604.604 0 0 0-.19 0zm33.81 0c-.3.05-.6.34-.75.94-.39 1.6-.5 2.92-.72 3.97s1.12 1.03 1.35-.13c.23-1.2.6-2.43.93-3.59.19-.64-.19-1.13-.62-1.19a.605.605 0 0 0-.19 0zm-63.9-1.98c-.34.09-.54.74-.29 1.65 1.41 5.06 1.85 7.73 1.6 8.97s-.93 1.42-1.85 1c-.91-.41-1.98-1.01-2.81-1.59s-1.69.11-.5 1.09c6.06 4.98 10.25 10.66 11.88 17.56.33 1.41 1.21 1.58.97 0-1.38-8.69-1.64-15.83.43-20.31.78-1.68 0-3.3-1.25-.56-.83 1.82-2.17 2.54-3.25.97-1.08-1.58-3.3-5.78-3.97-7.69-.25-.72-.55-1.05-.81-1.09-.05-.01-.11-.02-.15 0zm94.03 0c-.26.04-.57.37-.82 1.09-.66 1.91-2.89 6.11-3.96 7.69-1.08 1.57-2.43.85-3.25-.97-1.25-2.74-2.03-1.12-1.25.56 2.07 4.48 1.8 11.62.43 20.31-.25 1.58.64 1.41.97 0 1.62-6.9 5.82-12.58 11.88-17.56 1.19-.98.33-1.67-.5-1.09s-1.9 1.18-2.82 1.59c-.91.42-1.59.24-1.84-1s.18-3.91 1.59-8.97c.26-.91.06-1.56-.28-1.65-.05-.02-.1-.01-.15 0zm-124.47 2.42c-.55.01-1 .39-.75 1.22.4 1.33 1.22 2.76 1.5 3.59.27.83 1.16.44 1-.72-.17-1.16-.25-1.85-.47-3.12-.11-.64-.74-.98-1.28-.97zm155.06 0c-.55-.01-1.17.33-1.28.97-.22 1.27-.3 1.96-.47 3.12s.72 1.55 1 .72 1.1-2.26 1.5-3.59c.25-.83-.2-1.21-.75-1.22zm-136.28-1.74c-.64-.11-.73 1.53-.19 2.19.72.89 1.72 1.96 2.72 3.16.83.99 1.34.11.84-.72-.49-.83-1.23-1.71-2.56-3.81-.33-.53-.6-.78-.81-.82zm117.5 0c-.21.04-.48.29-.81.82-1.33 2.1-2.07 2.98-2.57 3.81-.49.83.02 1.71.85.72 1-1.2 2-2.27 2.72-3.16.54-.66.44-2.3-.19-2.19zm-132 3.96c-.4-.03-.73.29-.56 1.09.23 1.12.56 2.04.84 3.09.28 1.06 1 .88 1-.12s-.18-2.11-.34-3.16c-.09-.52-.55-.88-.94-.9zm146.5 0c-.4.02-.86.38-.94.9-.16 1.05-.34 2.16-.34 3.16s.72 1.18 1 .12c.27-1.05.61-1.97.84-3.09.17-.8-.17-1.12-.56-1.09zm-133.41 1.42c-.62.09-1.16.69-.43 1.62 1.16 1.5 2.43 2.54 2.87 3.1.44.55 1.56.35.84-.82-.73-1.18-1.84-2.61-2.34-3.5-.19-.33-.57-.46-.94-.4zm120.07 0c-.28.03-.55.16-.69.4-.5.89-1.61 2.32-2.35 3.5-.72 1.17.41 1.37.85.82.44-.56 1.71-1.6 2.87-3.1.73-.93.18-1.53-.43-1.62-.1-.02-.16-.01-.25 0zm-140.72 4.17c-.49-.04-.66.35 0 1.25 1.49 2.05 3.14 5.14 3.25 6.47s-.55 1.31-1.16 1.31c-1.82 0-2.72-1.33-4.37-1.72-1.66-.38-1.9.49-.72 1.35 6.08 4.42 12.18 9.36 14.62 13.84 1 1.83 2.34 2.49 1.6.75-2.29-5.34-2.85-9.86-2.35-12.59.5-2.74 1.18-4.58 1.1-6.16-.09-1.57-.98-1.47-1.35 0-.25 1-.73 2.32-1.06 2.81-.33.5-1.67.78-2.94-.93-1.27-1.72-4.48-5.02-5.53-5.85-.39-.31-.8-.5-1.09-.53zm161.62 0c-.29.03-.7.22-1.09.53-1.05.83-4.26 4.13-5.53 5.85-1.28 1.71-2.61 1.43-2.94.93-.33-.49-.81-1.81-1.06-2.81-.37-1.47-1.26-1.57-1.35 0-.08 1.58.6 3.42 1.1 6.16.49 2.73-.06 7.25-2.35 12.59-.74 1.74.6 1.08 1.6-.75 2.44-4.48 8.54-9.42 14.62-13.84 1.18-.86.94-1.73-.72-1.35-1.66.39-2.55 1.72-4.37 1.72-.61 0-1.27.02-1.16-1.31s1.76-4.42 3.25-6.47c.66-.9.49-1.29 0-1.25z" fill="#000"/>
<path d="M150.13 212.65l1.95 6.18m2.06-7.35l1.73 6.24m2.6-6.95l1.19 6.36m2.83-7.17l1.27 6.35m3.89-6.85l1.03 6.39m4.45-6.39l1.11 6.38m4.24-8.19l.81 6.43m4.23-6.1l.8 6.42m4.08-7.07l.8 6.42m4.09-6.93l.44 6.46m4.79-6.46l.38 6.46m4.36-6.79l.32 6.47m4.9-6.79l.27 6.47m5.75-6.64l.27 6.47m79.04.18l-1.95 6.18m-2.06-7.35l-1.73 6.24m-2.6-6.95l-1.19 6.36m-2.83-7.17l-1.27 6.35m-3.89-6.85l-1.03 6.39m-4.45-6.39l-1.11 6.38m-4.25-8.19l-.8 6.43m-4.23-6.1l-.81 6.42m-4.07-7.07l-.8 6.42m-4.09-6.93l-.44 6.46m-4.79-6.46l-.38 6.46m-4.36-6.79l-.33 6.47m-4.9-6.79l-.27 6.47m-5.74-6.64l-.27 6.47m-7.2-6.89v7.13"/>
</g>
</g>
</svg>
