<svg viewBox="0 0 640 480" xmlns="http://www.w3.org/2000/svg" xmlns:xlink="http://www.w3.org/1999/xlink">
<path d="m0 0h640v240h-640z" fill="#002b7f"/>
<path d="m0 240h640v240h-640z" fill="#ce1126"/>
<g stroke-linejoin="round" transform="scale(.8)" stroke="#000" stroke-linecap="round" stroke-width="2" fill="#ffd83d">
<g id="a">
<path stroke="none" d="m216.38 122.29l-1.838 62.5h-63.42c-7.803-15.17-14.247-28.053-14.247-45.498 0-14.6 11.483-26.195 28.033-26.195 17.52 0 36.77 5.904 51.47 9.192z"/>
<g stroke-width="1.5">
<path d="m144.46 125.16v36.076m5.09-39.76v48.033m5.09-50.56v57.225m5.1-58.41v44.882m5.09-45.1v45.327m5.09-46.92v46.885m5.1-46.88v46.885m5.09-46.42v46.885m5.09-46.42v46.885m5.1-43.89v46.886m5.09-46.43v52.86m5.09-52.86v46.886m5.1-46.89v46.886"/>
<path d="m176.4 117.92c10.764 1.775 34.407 12.837 31.71 27.803-3.82 21.21-16.208 12.698-32.63 9.65l-12.407 4.137c-4.44 4.532-10.978 8.683-15.395 3.217h-7.353v28.722h81.342v-69.39z" fill="#000"/>
</g>
<circle cy="112.98" cx="212.82" r="4.94"/>
<circle cy="110.31" cx="201.71" r="4.94"/>
<circle cy="107.48" cx="190.45" r="4.94"/>
<circle cy="105.6" cx="179.14" r="4.94"/>
<circle cy="104.48" cx="167.84" r="4.94"/>
<circle cy="105.11" cx="156.75" r="4.94"/>
<circle cy="108.73" cx="146.18" r="4.94"/>
<circle cy="115.28" cx="137.28" r="4.94"/>
<circle cy="124.41" cx="130.96" r="4.94"/>
<circle cy="135.16" cx="127.91" r="4.94"/>
<circle cy="146.3" cx="128.03" r="4.94"/>
<circle cy="157.22" cx="130.15" r="4.94"/>
<path d="m215 119.53l-0.46 6.435c-12.29-1.883-29.714-8.732-45.955-8.732-15.006 0-26.654 6.003-26.654 21.14 0 14.92 6.316 28.485 14.704 42.28l-8.73 4.136c-7.804-15.17-14.248-28.053-14.248-45.498 0-14.6 11.484-28.952 31.25-28.952 17.52 0 35.39 5.904 50.092 9.19z"/>
</g>
<use width="100%" xlink:href="#a" transform="matrix(-1 0 0 1 443.94 0)" height="100%"/>
<path d="m221.97 53.125l-5.157 9.656 5.156 9.626 5.155-9.625-5.156-9.655zm0 24.375l-5.157 9.625 5.156 9.656 5.155-9.655-5.156-9.625zm-18.38-2.547l8.132 5.156 8.104-5.157-8.105-5.156-8.133 5.156zm20.526 0l8.106 5.156 8.13-5.157-8.13-5.156-8.107 5.156z"/>
<circle cy="75.069" cx="221.97" r="3.906"/>
<circle cy="100" cx="221.97" r="10.455"/>
<path stroke-width="1.5" d="m219.34 89.875c0 3.114-0.022 4.924-0.03 6.625-2.522 0.112-5.007 0.377-7.44 0.78m20.19 0a62.126 62.126 0 0 0 -7.44 -0.78v-6.625m-12.78 12.688a61.39 61.39 0 0 1 10.125 -0.844c3.45 0 6.83 0.292 10.124 0.843" fill="none"/>
<path d="m211.75 117.69c-0.992 17.082-3.01 34.48-9.656 47.124l10.812-4.375c3.777-14.328 4.57-32.842 5.72-41.593l-6.876-1.156zm20.438 0l-6.875 1.156c1.148 8.75 1.942 27.265 5.718 41.594l10.814 4.375c-6.648-12.646-8.665-30.043-9.656-47.125z"/>
<path d="m221.95 154.69c-12.913 0-22.4 6.086-22.97 21.593-3.155-5.554-16.51-23.024-28.967-20.686-7.41 1.39-13.957 11.666-12.844 23.437-6.135-17.63-24.107-20.518-37.22-10.093 11.643 9.573 16.822 37.835 26.626 50.094h150.75c9.804-12.258 15.014-40.52 26.656-50.093-13.112-10.425-31.083-7.536-37.218 10.094 1.113-11.77-5.466-22.046-12.875-23.436-12.458-2.338-25.78 15.132-28.937 20.687-0.57-15.506-10.086-21.593-23-21.593z"/>
<g stroke-width="1.5">
<path d="m297.11 219.03c0 5.58-33.662 11.718-75.138 11.718-41.477 0-75.14-6.137-75.14-11.718 0-5.58 33.663-8.502 75.14-8.502 41.475 0 75.137 2.92 75.137 8.502z" fill="#000"/>
<circle cy="114.44" cx="221.97" r="3.504"/>
<circle cy="122.03" cx="221.97" r="3.734"/>
<circle cy="130.18" cx="221.97" r="4.079"/>
<circle cy="139.26" cx="221.97" r="4.653"/>
<circle cy="149.37" cx="221.97" r="5.113"/>
<path stroke="none" d="m219.94 159.21c-0.553-0.007-1.076 0.46-0.938 1.344 0.163 1.043 0.367 2.995 0.563 4.312 0.22 1.493 1.09 1.13 1.312-0.03 0.22-1.162 0.132-1.907 0.188-4.064 0.027-1.078-0.573-1.555-1.125-1.562zm4.062 0c-0.553 0.007-1.153 0.484-1.125 1.562 0.055 2.157-0.034 2.902 0.188 4.063 0.22 1.162 1.09 1.525 1.312 0.032 0.195-1.317 0.4-3.27 0.563-4.312 0.138-0.885-0.385-1.35-0.938-1.344zm-7.687 0.562c-0.506 0.07-1.03 0.58-1 1.125 0.055 0.996 0.33 2.19 0.437 3.688 0.11 1.55 1.202 0.948 1.313 0.063 0.11-0.884 0.235-2.192 0.125-3.906-0.042-0.643-0.323-0.925-0.657-0.97a0.84 0.84 0 0 0 -0.217 0zm11.093 0c-0.334 0.043-0.615 0.326-0.656 0.97a20.13 20.13 0 0 0 0.125 3.905c0.11 0.885 1.202 1.486 1.313-0.062 0.107-1.498 0.382-2.69 0.437-3.687 0.03-0.544-0.494-1.054-1-1.125a0.84 0.84 0 0 0 -0.22 0zm-15.437 1.75c-0.464 0.12-0.89 0.677-0.75 1.313 0.275 1.273 0.53 2.68 0.53 3.97 0 1.106 0.945 0.71 1-0.063 0.055-0.774 0.156-2.413 0.156-3.906 0-1.114-0.474-1.43-0.937-1.312zm19.686 0c-0.33 0.09-0.625 0.477-0.625 1.313 0 1.494 0.103 3.133 0.158 3.907s1 1.17 1 0.063c0-1.29 0.254-2.697 0.53-3.97 0.14-0.635-0.286-1.192-0.75-1.312a0.55 0.55 0 0 0 -0.312 0zm-59.093 0.17c-0.555-0.017-0.943 0.735-0.563 1.564 0.608 1.327 1.254 2.165 1.875 3.594 0.553 1.27 1.4 0.478 1.125-0.407-0.277-0.885-0.577-1.87-1.406-3.75-0.31-0.706-0.7-0.99-1.03-1zm98.812 0c-0.332 0.012-0.72 0.296-1.03 1-0.83 1.88-1.13 2.867-1.407 3.75-0.277 0.886 0.57 1.68 1.125 0.408 0.62-1.43 1.266-2.267 1.875-3.594 0.38-0.83-0.008-1.58-0.563-1.563zm-94.812 0.064c-0.408 0.124-0.656 0.642-0.407 1.25 0.498 1.216 1.217 2.463 1.72 3.78 0.44 1.162 1.425 0.833 1.093-0.218-0.333-1.05-0.432-1.665-1.095-3.656-0.332-0.995-0.905-1.28-1.312-1.156zm90.5 0c-0.35 0.074-0.752 0.41-1 1.156-0.664 1.99-0.763 2.606-1.094 3.656-0.333 1.05 0.65 1.38 1.093 0.22 0.502-1.32 1.22-2.566 1.718-3.782 0.25-0.608 0.003-1.126-0.405-1.25a0.592 0.592 0 0 0 -0.312 0zm-85.5 0.97c-0.515 0.096-0.913 0.88-0.563 1.842 0.443 1.217 1.072 2.368 1.625 3.75 0.553 1.383 1.47 1.104 1.25 0.22-0.22-0.886-0.492-2.352-1.156-4.563-0.29-0.967-0.758-1.325-1.157-1.25zm80.812 0c-0.4-0.078-0.866 0.28-1.156 1.25-0.665 2.21-0.936 3.676-1.157 4.56-0.222 0.886 0.696 1.165 1.25-0.218 0.553-1.382 1.182-2.533 1.625-3.75 0.35-0.96-0.05-1.746-0.563-1.843zm-93.187 0.686c-0.557 0.057-1.065 0.965-0.72 1.656 0.554 1.106 0.904 1.483 1.438 2.657 0.553 1.217 1.16 0.275 0.938-0.5-0.222-0.774-0.505-1.675-0.78-2.78-0.204-0.81-0.542-1.066-0.876-1.032zm105.56 0c-0.334-0.034-0.672 0.22-0.875 1.03-0.276 1.107-0.56 2.008-0.78 2.783-0.223 0.775 0.383 1.717 0.936 0.5 0.535-1.173 0.885-1.55 1.44-2.656 0.344-0.69-0.163-1.6-0.72-1.656zm-67.03 2.798c-0.585 0-1.21 0.774-1 1.5 0.33 1.16 0.843 2.19 1.218 3.687 0.33 1.327 1.274 0.666 1.218-0.218-0.055-0.885-0.207-2.09-0.593-3.97-0.146-0.704-0.494-1-0.844-1zm28.5 0c-0.352 0-0.7 0.295-0.845 1-0.387 1.88-0.538 3.084-0.594 3.97-0.054 0.883 0.888 1.544 1.22 0.217 0.374-1.496 0.887-2.526 1.22-3.687 0.206-0.726-0.417-1.5-1-1.5zm-14.25 1.187c-0.72 0-0.82 0.966-0.845 1.75-0.083 2.572-1.15 5.07-2.062 6.313-0.913 1.244-2.256 0.913-3.5 0.25-1.245-0.664-1.986-1.16-3.313-2.156s-2.334-0.414-0.75 1.843c4.617 6.58 9.625 12.205 9.625 22.938 0 1.39 0.242 1.813 0.844 1.813 0.6 0 0.874-0.424 0.874-1.812 0-10.732 4.976-16.356 9.594-22.937 1.583-2.257 0.577-2.84-0.75-1.843-1.327 0.995-2.07 1.492-3.313 2.156-1.244 0.663-2.588 0.994-3.5-0.25-0.913-1.244-1.98-3.74-2.062-6.313-0.026-0.784-0.125-1.75-0.844-1.75zm-35.282-1.61a0.592 0.592 0 0 0 -0.188 0.03c-0.27 0.086-0.448 0.41-0.344 0.97 0.186 1.002 0.88 2.967 1.157 3.906 0.276 0.94 1.432 0.74 1.156-0.532-0.278-1.272-0.263-1.656-0.595-3.094-0.18-0.786-0.747-1.27-1.187-1.28zm70.562 0c-0.44 0.012-1.006 0.495-1.187 1.28-0.332 1.44-0.318 1.823-0.594 3.095-0.278 1.272 0.878 1.472 1.155 0.53 0.276-0.938 0.97-2.903 1.156-3.905 0.105-0.56-0.074-0.884-0.342-0.97a0.598 0.598 0 0 0 -0.188 -0.03zm-91.53 0.406c-0.58 0.045-0.995 0.772-0.407 1.843 0.633 1.157 1.72 2.608 2.218 3.438 0.5 0.83 1.36 0.27 0.75-0.78-0.607-1.05-0.81-2.258-1.53-3.75-0.27-0.56-0.684-0.778-1.03-0.75zm112.5 0c-0.35-0.028-0.763 0.19-1.032 0.75-0.72 1.492-0.924 2.7-1.532 3.75s0.253 1.61 0.75 0.78c0.498-0.83 1.585-2.28 2.22-3.437 0.587-1.07 0.172-1.798-0.407-1.844zm-144.19 3.328c-0.667-0.035-0.876 1.17-0.25 1.97 0.914 1.16 1.55 1.776 2.595 2.718 0.83 0.746 1.07-0.222 0.656-0.97-0.413-0.745-1.013-1.504-1.842-2.75-0.455-0.68-0.853-0.95-1.157-0.968zm175.88 0c-0.303 0.016-0.7 0.287-1.156 0.97-0.83 1.244-1.43 2.003-1.844 2.75-0.414 0.746-0.173 1.714 0.657 0.968 1.046-0.942 1.68-1.558 2.593-2.72 0.627-0.797 0.418-2.003-0.25-1.968zm-170.84 1c-0.533 0.007-0.884 0.4-0.47 1.313 0.595 1.307 1.378 2.787 1.876 3.782 0.496 0.995 2.013 1.33 1.405-0.22-0.608-1.547-0.728-2.342-1.28-3.78-0.278-0.72-1-1.1-1.532-1.094zm165.81 0c-0.532-0.007-1.255 0.375-1.53 1.094-0.554 1.438-0.674 2.233-1.282 3.78-0.61 1.55 0.908 1.215 1.406 0.22 0.497-0.995 1.28-2.475 1.874-3.78 0.414-0.914 0.063-1.307-0.47-1.314zm-175.56 0.344c-0.774 0.008-0.84 0.784-0.157 1.28 0.913 0.665 2 1.4 3.063 2.25 1.243 0.997 1.725 0.08 1.06-0.75-0.662-0.828-1.308-1.67-2.967-2.5-0.415-0.206-0.743-0.282-1-0.28zm185.31 0c-0.258-0.003-0.585 0.074-1 0.28-1.66 0.83-2.305 1.672-2.97 2.5-0.662 0.83-0.18 1.747 1.064 0.75 1.06-0.85 2.15-1.585 3.06-2.25 0.685-0.496 0.62-1.272-0.155-1.28zm-109.66 0.72c-0.434 0.06-0.808 0.55-0.626 1.186 0.33 1.16 0.708 2.392 0.937 3.594 0.223 1.162 1.566 1.176 1.345 0.125-0.22-1.05-0.332-2.365-0.72-3.97-0.144-0.6-0.447-0.89-0.75-0.936a0.62 0.62 0 0 0 -0.186 0zm33.81 0c-0.3 0.046-0.604 0.335-0.75 0.936-0.385 1.604-0.497 2.92-0.717 3.97-0.222 1.05 1.122 1.036 1.343-0.126 0.23-1.202 0.606-2.433 0.938-3.594 0.18-0.635-0.192-1.127-0.625-1.187a0.62 0.62 0 0 0 -0.19 0zm-63.905-1.986c-0.34 0.094-0.536 0.744-0.28 1.656 1.41 5.06 1.84 7.724 1.593 8.97-0.25 1.243-0.932 1.413-1.844 1a18.844 18.844 0 0 1 -2.813 -1.595c-0.828-0.58-1.69 0.114-0.5 1.094 6.056 4.977 10.253 10.665 11.876 17.563 0.332 1.41 1.218 1.576 0.97 0-1.373-8.69-1.637-15.833 0.437-20.312 0.78-1.683-0.006-3.3-1.25-0.562-0.83 1.825-2.172 2.545-3.25 0.97-1.08-1.577-3.306-5.78-3.97-7.69-0.248-0.714-0.555-1.045-0.812-1.092a0.352 0.352 0 0 0 -0.155 0zm94.03 0c-0.255 0.047-0.562 0.378-0.81 1.093-0.665 1.907-2.892 6.11-3.97 7.687-1.08 1.576-2.42 0.856-3.25-0.97-1.244-2.736-2.03-1.12-1.25 0.564 2.074 4.48 1.81 11.623 0.438 20.313-0.25 1.576 0.637 1.41 0.968 0 1.624-6.898 5.82-12.586 11.876-17.562 1.192-0.98 0.33-1.674-0.5-1.093-0.83 0.58-1.9 1.18-2.812 1.594-0.912 0.415-1.595 0.245-1.844-1-0.25-1.244 0.184-3.91 1.594-8.968 0.254-0.912 0.058-1.562-0.28-1.656a0.352 0.352 0 0 0 -0.158 0zm-124.47 2.422c-0.547 0.007-1 0.39-0.75 1.22 0.398 1.328 1.223 2.764 1.5 3.593 0.276 0.83 1.165 0.443 1-0.718-0.166-1.16-0.248-1.853-0.47-3.125-0.11-0.636-0.734-0.976-1.28-0.97zm155.06 0c-0.546-0.007-1.17 0.333-1.28 0.97-0.223 1.27-0.304 1.963-0.47 3.124-0.166 1.16 0.723 1.548 1 0.72 0.276-0.83 1.1-2.266 1.5-3.595 0.25-0.83-0.204-1.212-0.75-1.22zm-136.28-1.735c-0.636-0.114-0.728 1.524-0.19 2.188 0.72 0.886 1.72 1.955 2.72 3.157 0.83 0.995 1.342 0.11 0.844-0.72s-1.236-1.71-2.563-3.81c-0.33-0.527-0.6-0.776-0.81-0.814zm117.5 0c-0.213 0.038-0.482 0.287-0.814 0.813-1.327 2.1-2.065 2.982-2.562 3.812-0.498 0.83 0.014 1.714 0.844 0.72 1-1.203 2-2.272 2.718-3.157 0.54-0.663 0.448-2.3-0.187-2.187zm-132 3.954c-0.395-0.027-0.73 0.292-0.564 1.094 0.232 1.117 0.567 2.044 0.844 3.095 0.276 1.05 1 0.87 1-0.125 0-0.996-0.178-2.106-0.344-3.157-0.083-0.525-0.543-0.878-0.937-0.906zm146.5 0c-0.395 0.028-0.856 0.38-0.94 0.906-0.165 1.05-0.342 2.16-0.342 3.157 0 0.995 0.723 1.175 1 0.125 0.276-1.05 0.612-1.978 0.843-3.094 0.167-0.8-0.167-1.12-0.56-1.093zm-133.41 1.42c-0.62 0.095-1.164 0.693-0.438 1.626 1.16 1.493 2.432 2.54 2.875 3.094 0.442 0.553 1.563 0.35 0.844-0.813-0.735-1.186-1.846-2.615-2.344-3.5-0.187-0.33-0.566-0.462-0.937-0.406zm120.06 0c-0.272 0.03-0.548 0.16-0.687 0.407-0.498 0.885-1.61 2.314-2.344 3.5-0.72 1.162 0.4 1.366 0.844 0.813 0.442-0.553 1.713-1.6 2.875-3.094 0.725-0.933 0.18-1.53-0.438-1.625a0.873 0.873 0 0 0 -0.25 0zm-140.72 4.174c-0.487-0.043-0.656 0.35 0 1.25 1.494 2.047 3.14 5.143 3.25 6.47 0.112 1.327-0.544 1.312-1.155 1.312-1.825 0-2.716-1.332-4.375-1.72-1.66-0.386-1.9 0.487-0.72 1.345 6.084 4.424 12.18 9.36 14.626 13.844 0.996 1.826 2.342 2.493 1.595 0.75-2.287-5.336-2.84-9.856-2.344-12.593 0.5-2.737 1.178-4.58 1.095-6.156-0.083-1.575-0.977-1.467-1.344 0-0.248 0.996-0.73 2.315-1.06 2.813-0.333 0.498-1.667 0.777-2.94-0.937-1.27-1.714-4.48-5.015-5.53-5.844-0.394-0.31-0.8-0.505-1.094-0.53zm161.63 0c-0.292 0.027-0.7 0.22-1.092 0.532-1.05 0.83-4.26 4.13-5.532 5.844s-2.606 1.435-2.937 0.937c-0.333-0.498-0.815-1.817-1.064-2.812-0.367-1.467-1.26-1.575-1.343 0-0.083 1.577 0.595 3.42 1.093 6.157s-0.056 7.257-2.343 12.594c-0.747 1.743 0.598 1.076 1.593-0.75 2.447-4.484 8.543-9.42 14.625-13.843 1.182-0.858 0.942-1.73-0.717-1.344-1.66 0.387-2.55 1.72-4.375 1.72-0.61 0-1.268 0.014-1.157-1.313 0.112-1.327 1.758-4.423 3.25-6.47 0.658-0.9 0.49-1.293 0-1.25z" fill="#000"/>
<path d="m150.13 212.65l1.95 6.175m2.06-7.344l1.728 6.24m2.605-6.952l1.187 6.365m2.833-7.17l1.27 6.35m3.886-6.858l1.032 6.392m4.452-6.385l1.112 6.378m4.242-8.19l0.803 6.426m4.234-6.1l0.804 6.425m4.07-7.073l0.805 6.424m4.088-6.928l0.442 6.46m4.786-6.462l0.384 6.463m4.357-6.79l0.326 6.467m4.9-6.793l0.272 6.47m5.74-6.632l0.272 6.47m79.044 0.176l-1.95 6.175m-2.06-7.344l-1.728 6.24m-2.604-6.952l-1.187 6.365m-2.832-7.17l-1.27 6.35m-3.886-6.858l-1.033 6.392m-4.453-6.385l-1.112 6.378m-4.24-8.19l-0.805 6.426m-4.233-6.1l-0.804 6.425m-4.07-7.073l-0.804 6.424m-4.09-6.928l-0.442 6.46m-4.787-6.462l-0.382 6.463m-4.357-6.79l-0.326 6.467m-4.9-6.793l-0.27 6.47m-5.742-6.632l-0.27 6.47m-7.203-6.89v7.122"/>
</g>
</g>
</svg>
