<svg xmlns="http://www.w3.org/2000/svg" xmlns:xlink="http://www.w3.org/1999/xlink" viewBox="0 0 1200 600">
<path fill="#ffb700" d="M0 0h1200v600H0z"/>
<path d="M50 300L215 50h165v500H215z" fill="#ff5b00"/>
<path fill="#005641" d="M50 50h165v500H50z"/>
<path fill="#8d2029" d="M430 50h725v500H430z"/>
<path id="a" stroke-width="2.126" stroke="#000" fill="#ffb700" d="M1086.1 466.06s6.798 13.84 14.31 19.48c11.127 8.356 33.944 7.752 43.628 17.5 11.604 11.495-.9 26.682-.796 28l.636 8.02s-7.824.095-11.12.61c-4.952.77-6.885 4.802-16.108 4.203-23.19-1.505-22.254-22.397-23.566-40.25-1.164-6.798-3.86-15.662-5.39-22.458-1.313-5.828-1.594-15.105-1.594-15.105z"/>
<use xlink:href="#a" transform="matrix(-1 0 0 1 1585 0)"/>
<use xlink:href="#a" transform="matrix(1 0 0 -1 0 600)"/>
<use xlink:href="#a" transform="rotate(180 792.5 300)"/>
<use stroke-width="5.56" stroke="#000" xlink:href="#b"/>
<g id="b" fill="#ffb700">
<path d="M681.54 479.56l4.36-2.517 1.864 2.522c2.485 3.36 9.36 3.32 13.92-.078l3.49-2.598 2.92 2.59c3.84 3.41 11.012 3.42 15.59.01 3.207-2.39 3.654-2.44 5.774-.62 1.264 1.08 4.97 2.31 8.237 2.74 5.882.76 5.97.72 9.413-4.44 2.883-4.33 3.334-6.08 2.646-10.27-.456-2.78-.947-7.26-1.092-9.95-.26-4.87-.233-4.9 6.86-7.37 3.917-1.37 8.452-3.2 10.076-4.07 2.833-1.52 10.643-10.7 10.643-12.51 0-.48-3.05-1.22-6.78-1.63-14.83-1.67-17.34-9.63-7.7-24.43 15.73-24.13 25.22-47.63 25.28-62.6.03-6.69.41-8.94 1.27-7.49 3.52 5.95-2.78 30.88-12.31 48.78l-3.84 7.21 3.67-.85c2.02-.46 13.86-5.46 26.33-11.11 34.12-15.46 45.84-18.48 67.91-17.55 18.5.78 26.38 4.39 39.44 18.09 6.92 7.25 13.58 12.45 25.78 20.08 25.98 16.26 27.06 17.66 28.3 36.78 1.25 19.38.63 20.43-14.02 23.66-12.53 2.77-20.38 8.61-22.48 16.72-1.12 4.33 1.24 4.46 7.56.4l4.63-2.97 2.06 2.97c2.71 3.91 8.46 3.93 13.23.04l3.61-2.94 3.69 2.94c5.73 4.56 13.35 3.45 15.5-2.26.41-1.1 1.51-.75 3.75 1.19 4.18 3.63 14.91 5.19 16.07 2.33.44-1.09-.4-3.79-1.87-5.99-6.25-9.36-8.2-13.83-8.28-18.92-.11-7.09 2-10.51 10.06-16.27 9.79-7 12.82-16.03 5.37-16.03-4.59 0-9.23-4.06-12.18-10.69-6.01-13.46-4.83-28.55 4.18-53.65 9.16-25.5 10.18-30.2 10.21-47.25.03-13.79-.31-16.18-3.45-23.74-1.92-4.62-5.81-11.51-8.65-15.3l-5.16-6.89 6.63-5.49c20.24-16.77 16.1-44.2-8.26-54.77-7.45-3.24-9.31-3.52-22.37-3.43-7.83.05-19.78 1.08-26.55 2.29-6.9 1.23-18.57 2.22-26.58 2.25-12.73.05-14.89-.26-19.79-2.87-5.11-2.72-5.99-4.02-6.99-10.31-.21-1.3-1.11-2.59-2.01-2.87-1.74-.55-9.77 6.42-10.96 9.51-.59 1.52-1.07 1.42-2.78-.62-1.14-1.35-2.74-4.45-3.54-6.89-2.03-6.14.46-10.73 7.67-14.18l5.6-2.67-3.3-2.05c-6.81-4.23-18.39-1.34-22.57 5.63-1.18 1.97-2.48 3.59-2.87 3.6-.39 0-2.65-1.88-5-4.18-8.79-8.59-5.76-21.3 5.99-25.18 6.27-2.07 11.82-.49 12.98 3.69 1.76 6.38 7.24-2.01 6.26-9.59-.65-5.04-.56-5.21 2.93-5.21 4.85 0 15.16 6.36 18.36 11.32 3.71 5.75 3.44 14.82-.64 21.58l-3.2 5.3 4.19-.84c6.14-1.23 12.11-5.05 15.13-9.67 3.19-4.89 3.54-14.42.71-19.56-2.74-4.98-2.43-5.78 1.63-4.09 6.9 2.86 10.58 6.02 13.35 11.43 2.49 4.87 2.63 6.08 1.28 11.15-.83 3.13-2.68 7.25-4.11 9.15-2.23 2.96-2.31 3.46-.53 3.46 3.3 0 10.2-3.13 12.66-5.74 1.23-1.32 3.04-4.56 4.01-7.21l1.76-4.81 2.02 3.67c2.86 5.19 8.42 9.86 15.21 12.77 7.3 3.13 10.33 3.3 6.52.38-2.57-1.98-7.31-15.88-5.87-17.24.85-.8 10.75 6.82 22.05 16.97 10.7 9.6 17.42 12.74 27.24 12.74 12.55 0 19.86-10.92 14.22-21.25-3.29-6.02-10.61-6.86-14.9-1.7-1.97 2.37-2.51 4.26-1.93 6.74.71 3.05.43 3.46-2.34 3.46-3.65 0-10.84-4.67-23.6-15.32-19.47-16.25-43.13-30.02-60.22-35.05-10.96-3.23-34.38-4.49-45.53-2.45-12.06 2.2-26.33 9.11-34.1 16.5-13.78 13.09-13.99 30.52-.58 46.38l3.84 4.54-2.6 4.04c-3.79 5.88-3.46 13.79.8 19.61 1.88 2.57 3.77 4.67 4.21 4.66.44 0 .92-1.65 1.07-3.66.38-5.09 2.56-8.51 6.32-9.86 3.38-1.22 5.56-.64 21.05 5.54 16.29 6.5 43.08 6.95 71.56 1.2 13.96-2.82 30.43-2.66 37.67.38 13.28 5.56 16.36 20.03 6.6 31.02-4.22 4.76-8.3 6.69-21.98 10.45-10.41 2.85-12.88 3.04-36.54 2.81-20.22-.2-27.49.18-35.74 1.91-8.96 1.87-14.47 2.06-40.79 1.39l-30.43-.76 3.38 2.79c1.86 1.54 4.48 3.43 5.83 4.2 2.29 1.32 2.22 1.5-1.19 2.76-2.01.74-6.46 1.35-9.89 1.35h-6.25l-.84 5.31c-.46 2.92-.43 6.32.08 7.57.74 1.84.46 2.1-1.47 1.4-1.32-.48-4.97-1.42-8.13-2.09-3.16-.67-7.41-2.03-9.44-3.03-3.42-1.68-3.8-1.63-5.06.6-1.13 1.99-11.7 9.86-13.26 9.86-.25 0-.57-1.52-.72-3.37-.14-1.85-1.67-6.68-3.39-10.73-1.72-4.05-3.51-8.46-3.99-9.81-.72-2.03-1.04-2.14-1.9-.61-.57 1.01-1.41 3.77-1.86 6.13-.45 2.36-2.05 6.2-3.54 8.52l-2.73 4.23-1.73-3.61c-1.87-3.88-4.97-7.91-6.09-7.91-.38 0-1.03 1.24-1.43 2.76-.86 3.17-8.2 11.96-9.99 11.96-.66 0-1.2-2.48-1.2-5.52s-.59-5.52-1.3-5.52-1.3.79-1.3 1.75c0 2.33-6.27 9.29-8.37 9.29-.92 0-2.39.83-3.28 1.84-2.31 2.64-4.2 2.27-3.23-.63.46-1.36.16-4.53-.66-7.05l-1.93-5.96c-.31-.95-2.56-.7-7.32.82-7.68 2.46-10.26 2.02-6.3-1.07 1.45-1.13 3.65-5.05 4.89-8.71 1.24-3.66 3.07-6.91 4.07-7.22 1.4-.43 1.32.1-.32 2.33-1.17 1.59-2.14 3.73-2.14 4.76 0 1.03-.89 3.47-1.97 5.43-1.07 1.96-1.75 3.75-1.5 3.99.25.23 3.18-.88 6.5-2.47l6.04-2.9.03 2.59c.01 1.42.74 5.19 1.62 8.36l1.6 5.76 4.11-1.89c4.21-1.93 8.19-8.82 8.19-14.16 0-2.64 1.52-2.24 2.14.57.18.82 1.13 3.91 2.11 6.87l1.78 5.37 2.82-3.39c1.55-1.87 3.49-5.53 4.32-8.14 1.43-4.53 3.68-6.47 3.68-3.19 0 2.37 6.46 10.86 7.71 10.13.6-.35 1.8-3.54 2.67-7.08 1.8-7.37 4.7-12.38 6.54-11.3.69.41.96 1.19.6 1.75s1.12 5.35 3.31 10.65a4638.94 4638.94 0 0 1 4.87 11.85c.8 1.97 1.52 1.68 6.2-2.45 2.91-2.57 5.55-5.45 5.87-6.39.48-1.43 1.13-1.38 3.85.31 3.81 2.37 16.61 6.17 17.597 5.24.37-.35.75-3.71.84-7.47l.17-6.83 3.68.76c2.02.42 6.28.39 9.46-.06l5.77-.82-5.15-3.54c-2.83-1.94-5.7-4.46-6.365-5.59-.71-1.2-3.23-2.22-6.09-2.47-7.72-.66-21.39-8.33-21.39-12 0-.69 1.89.49 4.206 2.61 5.14 4.71 12.27 7.66 18.5 7.66h4.66l-2.88-3.84c-1.65-2.2-3.14-6.38-3.49-9.82-.56-5.48-1.13-6.35-6.86-10.33-3.44-2.39-7.69-5.97-9.46-7.96l-3.21-3.62-1.64 4.29c-.9 2.36-2 4.29-2.44 4.29-.44 0-2.17-1.38-3.85-3.06s-3.37-3.06-3.78-3.05c-.41.01-1.89 2.28-3.29 5.05l-2.55 5.03-1.97-2.9c-1.083-1.59-3.64-4.42-5.683-6.27s-3.12-3.37-2.39-3.37 3.25 1.93 5.6 4.3l4.27 4.292 1.74-3.15c1.03-1.87 1.42-4.74.95-7.06-.68-3.38-.59-3.57.71-1.45.82 1.35 3.32 3.94 5.56 5.75l4.06 3.29 2.8-5.14c2.79-5.11 2.81-5.12 4.08-2.07 1.7 4.08 13.98 14.15 24.438 20.03 1.62.91.94-2.21-2.04-9.38-.78-1.9-1.43-5.32-1.43-7.61 0-3.39-.98-4.9-5.31-8.2-6.26-4.76-8.28-8.15-9.46-15.83-.48-3.12-1.57-6.58-2.43-7.7-1.28-1.66-1.49-.73-1.15 5.05.23 3.893-.28 8.74-1.13 10.76l-1.542 3.68-1.2-3.07c-.66-1.69-3.56-4.62-6.46-6.52-2.89-1.9-4.92-3.77-4.51-4.16.41-.39 3.39 1.34 6.616 3.84 4.913 3.81 6 4.23 6.68 2.55.8-1.97 0-10.56-1.54-16.56-.77-3-.707-2.98 2.99.71 2.73 2.723 4.24 5.98 5.402 11.65 1.484 7.21 2.23 8.41 8.896 14.26 4 3.51 7.48 6.19 7.74 5.95.25-.24.76-9.33 1.12-20.2.69-20.84-.09-25.8-5.11-32.24l-2.58-3.31 4.05-4.37c5.29-5.71 7.72-10.28 8.77-16.52l.86-5.08-4.57 4.33c-3.75 3.55-5.53 4.33-9.87 4.33-4.29 0-5.97-.72-8.87-3.81-3.47-3.706-9.63-7.27-15.55-9-2.18-.64-2.91-.36-2.91 1.12 0 1.08-1.2 4.21-2.68 6.95l-2.68 4.98-5.62-5.555c-3.45-3.41-7.54-6.07-10.59-6.87-7.78-2.04-8.2-1.84-8.2 3.96 0 8.8-3.75 10.43-10.51 4.59-5.15-4.45-9.42-5.42-19.19-4.35l-7.54.83 1.36 3.4c1.13 2.85.88 4.05-1.55 7.28-3.94 5.24-9.06 7.51-16.95 7.51-3.63 0-8.18.75-10.1 1.67-1.92.92-6.7 1.972-10.62 2.35-3.92.37-8.09 1.04-9.28 1.48-1.85.69-2.06.12-1.46-4.1.92-6.46-3.59-11.22-10.62-11.22-9.12 0-13.33 8.16-9.76 18.92.69 2.07 1.59 5.34 2 7.26.43 1.99 4.54 7.28 9.57 12.32 4.85 4.85 9.44 9.9 10.19 11.22.75 1.32 3.24 3.43 5.53 4.7l4.16 2.307-.55-4.45c-.6-4.89.46-5.66 3.07-2.21.93 1.23 3.29 3.23 5.25 4.43 3.08 1.89 3.56 1.93 3.56.283 0-1.044.63-3.453 1.4-5.35l1.4-3.454 2.42 4.694c1.34 2.58 5.67 8.45 9.64 13.05 7.7 8.91 12.39 18.87 9.97 21.16-.98.93-3.63.86-9.13-.25-4.27-.86-9.54-1.31-11.73-1.01-4.454.62-4.81.04-2.064-3.39 2.89-3.62 2.43-4.22-3.25-4.22-6.58 0-22.9-3.15-29.17-5.63-6.1-2.41-7.5-1.81-9.3 3.97-.81 2.6-2.29 7.31-3.29 10.47l-1.82 5.74 6.6-.635c3.62-.35 8.29-1.14 10.36-1.768 2.076-.62 3.96-.95 4.19-.73.23.22-.694 2.46-2.054 4.99l-2.47 4.6 4.11-.84c2.26-.46 5.66-1.59 7.56-2.5 3.3-1.6 3.56-1.48 6.17 2.7 3.2 5.14 5.76 4.93 6.33-.52.59-5.638 2.44-4.8 5.928 2.66 3.35 7.18 6.84 9.71 7.51 5.452.23-1.41 2.03-3.71 4.02-5.11 4.01-2.827 7.04-1.98 8.77 2.46 1.8 4.6-2.21 9.333-13.85 16.392-23.33 14.14-36.89 33.48-40.76 58.13-3.49 22.23 7.41 45.21 29.29 61.71 10.47 7.894 27.1 16.23 26.04 13.05-4.49-13.506-4.34-39.275.25-43.62.69-.655.45 2.034-.53 5.97-3.64 14.67-2.06 26.365 7.29 53.765 8.45 24.78 7.28 35.375-4.68 42.376-3.84 2.25-6.32 2.62-16.65 2.5-11.204-.13-12.43.09-16.023 2.96-3.48 2.78-8.01 11.91-8.01 16.167 0 2.3 2.57 2 7.6-.91z"/>
<path d="M863.45 479.06l4.7-3.02 3.19 3.02c4.18 3.958 9.077 3.87 13.095-.237 1.754-1.792 3.33-3.033 3.5-2.76.17.275.953 1.604 1.737 2.953.994 1.707 3.036 2.566 6.723 2.826 4.44.313 5.634-.117 7.4-2.668l2.103-3.04 4.627 2.974c12.67 8.142 19.42-.4 13.758-17.41-2.88-8.65-1.296-13.513 7.983-24.522 3.913-4.643 7.118-9.598 7.122-11.01 0-2.255-.724-2.557-5.932-2.454-4.983.1-6.44-.436-9.064-3.323-4.266-4.7-4.013-10.08.756-16.05l3.81-4.77-6.76-4.59c-3.717-2.53-10.42-8.5-14.898-13.27-10.054-10.72-19.94-15.8-32.975-16.96l-8.74-.78.012 6.61c.017 8.51 4.014 16.71 14.924 30.58 12.41 15.78 13.28 18.22 13.78 38.84l.43 17.44-3.59 3.4c-3.24 3.07-4.7 3.47-15.17 4.07-9.96.57-12.05 1.09-14.98 3.68-3.88 3.44-5.04 5.31-6.24 10.06-.7 2.76-.41 3.37 1.59 3.37 1.34 0 4.55-1.36 7.14-3.02zm-266.63-45.08c1.11-1.5 2.016-3.92 2.016-5.38 0-2.205.985-2.793 5.83-3.48l5.833-.83-3.89-3.1c-4.62-3.68-5.05-6.557-.98-6.563 4.05 0 10.92-4.212 11.97-7.328.48-1.45.18-3.39-.69-4.38-2.28-2.6-6.55-2.21-7.35.67-.86 3.09-2.29 3.1-5.53.03-4.88-4.62-4.98-14.17-.23-19.73 2.24-2.62 2.22-2.8-.64-5.5-3.08-2.91-5.27-8.68-3.83-10.05.46-.44 2.89-.09 5.39.77 3.57 1.22 4.97 1.24 6.44.08 4.45-3.5-.37-8-7.51-7.01-2.87.4-4.06 0-4.47-1.49-.31-1.13-2.83-2.61-5.66-3.32-5.06-1.28-5.1-1.27-5.1 2.22 0 3.82-2.18 4.54-6.32 2.09-3.36-1.99-6.63-.45-6.63 3.14 0 3.34 3.37 4.99 9.39 4.6 4.62-.3 4.8 3.14.41 8.08l-3.16 3.55 2.5 3.59c3.7 5.32 3.39 14.16-.66 18.54l-3.17 3.44-2.08-2.76c-2.9-3.83-6.85-3.58-7.94.52-.71 2.68-.13 3.9 3.23 6.74 2.25 1.9 5.54 3.47 7.31 3.47 4.38 0 4.2 3.44-.35 6.92l-3.56 2.72 5.51.85c3.02.47 5.5 1.35 5.5 1.96 0 2.34 3.81 9.61 5.04 9.61.71 0 2.19-1.23 3.3-2.73z"/>
<path d="M668.48 402.92c5-1.97 15.82-11.134 15.82-13.398 0-.712-2.986-3.997-6.636-7.3-7.683-6.95-16.04-18.657-18.204-25.5-1.13-3.57-6.585-9.68-21.95-24.582l-20.45-19.832-5.893 1.493c-3.24.83-7.196 1.52-8.788 1.54-2.75.04-2.7.2.95 3.02l3.85 2.98 5.39-2.99c5.23-2.9 5.41-2.92 6.06-.58.37 1.37-.44 3.74-1.89 5.48-1.4 1.69-2.2 3.6-1.78 4.26.42.65-.92 2.02-2.99 3.03-3.84 1.88-6.51 8.07-3.48 8.07 2.72 0 8.73-7.41 8.04-9.92-.36-1.28-.18-2.61.38-2.94 2.34-1.37 2.19 4.46-.18 7.32-1.41 1.69-2.2 3.6-1.78 4.26.42.65-.92 2.02-2.99 3.03-3.82 1.87-6.51 8.07-3.51 8.07 2.94 0 8.85-7.08 8.12-9.74-.39-1.38-.24-2.79.33-3.12 1.57-.92 2.42 3.68 1.09 5.93-.71 1.21-.7 2.86.02 4.16 1.31 2.37-.02 6.91-2.43 8.33-1.03.61-.33 1.8 2.18 3.69 3.63 2.74 3.7 3.03 3.7 15.13 0 10.11.41 12.72 2.26 14.48 2.08 1.98 2.26 1.99 2.26.09 0-2.07 3.63-4.6 6.6-4.6.87 0 6.35 4.64 12.17 10.32 5.85 5.71 11.97 10.56 13.7 10.87 1.72.31 3.59.63 4.14.73.56.1 3.18-.68 5.83-1.73zM605.96 354c0-3.26-6.724-6.74-14.767-7.64-6.493-.73-6.6-.69-6.6 2.554 0 2.685 1.022 3.74 5.504 5.693 7.202 3.135 15.863 2.804 15.863-.608z"/>
<path d="M613.33 353.7c3.28-2.976 4.834-6.516 2.86-6.516-2.27 0-8.292 5.406-8.292 7.442 0 3.18 1.118 2.988 5.432-.926zm-6.99-9.64c.278-1.84-.86-3.067-4.27-4.607-7.355-3.322-16.15-4.86-18.268-3.196-3.9 3.067-1.3 7.183 5.003 7.924 2.538.3 5.98 1.08 7.648 1.72 4.846 1.89 9.454 1.03 9.887-1.84zm0-9.85c.396-2.624-1.282-3.563-14.978-8.383-10.225-3.6-14.752-1.902-11.484 4.305 1.138 2.163 3.05 3.15 7.334 3.792 3.187.478 7.543 1.41 9.68 2.074 5.707 1.772 9.005 1.148 9.448-1.788zm6.86-9.23c2.067-2.095 3.757-4.567 3.757-5.494 0-3.006-8.16 2.313-9.2 5.996-1.25 4.42.774 4.232 5.443-.502zm-6.86-.62c.45-2.99-4.52-5.688-14.294-7.762-7.17-1.522-10.334-.66-9.797 2.673.29 1.82 2.68 3.15 9.45 5.27 10.84 3.39 14.1 3.35 14.63-.17zm9.56-13.91c12.525-5.575 13.608-19.635 1.798-23.326-4.904-1.533-8.035-.707-9.912 2.615-1.437 2.54-.476 7.16 1.49 7.16.664 0 1.208.85 1.208 1.9 0 4.88-19.123 7.09-26.965 3.12-2.76-1.4-3.96-5.02-1.67-5.02 1.71 0 2.9-3.7 2.02-6.31-1.2-3.56-4.78-4.8-9.99-3.43-11.74 3.07-11.41 16.86.54 22.71 9.8 4.8 31.28 5.09 41.46.56z"/>
<path d="M608.11 299.64c.725-.687.41-1.742-.806-2.698-2.663-2.093-2.52-5.206.4-8.77 2.193-2.675 2.467-6.68 3.222-47.073 1.3-69.62 6.478-121.97 13.3-134.53 2.717-5.01 2.336-5.03-4.683-.25-9.042 6.15-15.926 14.16-22.026 25.63C586 153.6 582 182.73 582 244.91c0 35.306.24 39.925 2.25 43.244 1.91 3.15 2.012 4.312.67 7.68-.87 2.183-1.264 4.27-.877 4.635 2.57 2.43 21.302 1.79 24.067-.83zm105.23-66.38c.392-.6-.475-3.636-1.926-6.745-2.264-4.847-3.176-5.652-6.4-5.652-10.102 0-26.34-4.514-43.083-11.976-9.66-4.31-13-5.3-14.16-4.2-2.96 2.8 1.96 9.45 9.57 12.945 6.76 3.1 25.64 6.91 34.25 6.91 5 0 5.12.226 2.27 4.336l-2.09 3.023 5.65.15c3.11.08 7.4.57 9.54 1.08 5.55 1.34 5.6 1.34 6.39.14z"/>
<path d="M772.35 264.63c0-1.8-5.284-6.675-10.638-9.817-4.205-2.467-4.9-2.542-4.91-.53-.013 3.055-2.73 10.73-3.797 10.73-.6 0-1.49-1.5-1.977-3.332-.486-1.83-2.524-5.44-4.53-8.02l-3.645-4.69-2.84 4.35c-2.646 4.06-7.23 8.03-9.266 8.03-.486 0-.58-2.13-.21-4.74.4-2.83.09-5.08-.772-5.59-.793-.46-1.443-.3-1.443.36 0 1.53-6.367 8.75-7.714 8.75-.555 0-1.332-2.07-1.727-4.6-.39-2.53-1.06-6.53-1.49-8.89-.42-2.36.49-.76 2.02 3.56l2.79 7.85 3.06-4.78c1.68-2.63 3.06-5.5 3.07-6.39 0-.88.57-1.27 1.27-.87.69.41 1.66 3.57 2.14 7.03l.88 6.29 3.37-3.69c1.85-2.03 4.02-4.74 4.82-6.03 1.43-2.3 1.51-2.3 4.35.11 1.59 1.35 4.04 4.58 5.44 7.17 1.4 2.6 2.73 4.53 2.96 4.29.23-.23.74-2.91 1.14-5.94.4-3.03.76-5.63.79-5.77.2-.75 10.14 5.71 13.82 8.98 2.36 2.1 4.61 3.53 4.99 3.17.38-.36.69-3.46.69-6.89 0-5.31-.56-6.74-3.81-9.65-3.74-3.34-3.84-3.36-5.23-.91-1.79 3.18-3.91 3.22-3.91.09 0-2.29-7.06-11.08-8.9-11.08-.47 0-1.96 1.93-3.3 4.29-1.34 2.36-2.78 4.29-3.21 4.29-1.81-.01-11.77-11.11-11.77-13.12 0-1.59.68-1.19 2.42 1.48 1.33 2.03 3.98 5.05 5.89 6.71 3.88 3.38 5.28 2.56 6.78-3.95.43-1.85 1.17-3.37 1.65-3.37 1.66 0 10.33 9.21 11.55 12.27l1.22 3.07.93-3.37c1.14-4.12 2.39-4.28 4.2-.51.76 1.58 4.5 4.84 8.31 7.27l6.92 4.41 1.39-4.43c.77-2.44 1.78-3.84 2.25-3.11.71 1.08-1.09 8.43-2.45 10-.2.24-2.45-1.07-4.99-2.91l-4.61-3.33-.02 5.97c-.01 3.29-.36 7.21-.79 8.73-.84 2.97-3.07 3.8-3.07 1.15zm-34.53-47.6c-8.23-6.872-9.48-8.445-9.3-11.702l.195-3.467.537 3.35c.314 1.96 2.506 4.89 5.27 7.05l4.73 3.7 2.908-3.36c1.6-1.85 2.93-4.05 2.955-4.89.067-2.2.46-2.01 6.034 2.82 4.95 4.3 5.02 4.32 5.76 1.54.41-1.55.26-4.47-.33-6.49-1.62-5.55-1.3-6.39 1.15-3.04 1.22 1.67 3.18 4.03 4.36 5.24 2.05 2.12 2.17 2.09 2.94-.61.44-1.55.8-4.39.81-6.31l.02-3.49 4.46 5.06c4.17 4.73 4.55 4.9 5.82 2.65.75-1.32 1.37-4.51 1.38-7.09.01-3.32.36-4.16 1.21-2.9 1.41 2.12.43 7.87-2.18 12.78l-1.87 3.52-2.46-3.82c-3.14-4.89-4.19-4.81-6.2.47-1.91 4.99-3.15 5.37-5 1.54-1.21-2.48-1.43-2.18-2.29 3.04l-.95 5.8-5.68-4.4-5.68-4.41-2.56 2.9c-1.41 1.6-2.58 3.59-2.6 4.44-.05 1.83-1.42 1.89-3.5.15zm73.22-25.6c-2.996-2.7-5.06-5.275-4.587-5.723.474-.448 1.007-.577 1.185-.285.178.29 2.627 2.866 5.442 5.723 6.483 6.576 5.15 6.762-2.04.285zm-97.53-10.08c-2.725-3.685-2.537-6.127.78-10.12 2.398-2.887 3.493-3.28 7.68-2.747 2.684.34 8.463 2.713 12.84 5.272 5.056 2.955 10.285 4.935 14.335 5.427 3.507.426 6.376.587 6.376.357 0-.23-1.45-2.61-3.23-5.28-4.23-6.35-4.08-7.03.69-3.23 4.9 3.9 10.75 5.04 23.84 4.64l6.4-.2-3.71-3.67c-5.18-5.13-3.59-5.59 2.14-.62 5.37 4.66 5.04 4.99-6.27 6.12-4.81.48-9.97.13-14.27-.96-6.43-1.64-6.67-1.61-5.46.54.7 1.24 1.84 2.25 2.53 2.25s1.25.63 1.25 1.4c0 2.36-13.88.28-20.51-3.08-15.15-7.67-17.06-8.34-20.66-7.2-2.01.63-4.02 2.48-4.71 4.34-2.31 6.18 6.47 10.99 10.09 5.52 1.05-1.59.81-2.67-1.04-4.6-2.52-2.64-2.29-3.02 1.12-1.78 2.42.88 2.75 6.69.5 8.82-2.57 2.44-8.45 1.75-10.67-1.25z" fill="#000"/>
<path d="M773.19 166.07c-1.895-1.794-.41-2.234 8.085-2.392 10.508-.196 16.89-1.947 24.42-6.7 6.033-3.81 7.67-3.06 1.942.89-5.224 3.602-13.372 6.37-21.24 7.218-3.808.41-8.15.978-9.646 1.263-1.49.28-3.09.15-3.56-.28z" fill="#000"/>
</g>
</svg>
