<svg viewBox="0 0 1800 900" xmlns="http://www.w3.org/2000/svg" xmlns:xlink="http://www.w3.org/1999/xlink">
<path fill="#cc092f" d="M0 0h1800v900H0z"/>
<path fill="#ffd200" d="M0 0h1200v900H0z"/>
<path fill="#0046ae" d="M0 0h600v900H0z"/>
<path d="M847.69 183.24c-3.223 0-6.038.822-7.68 2.1 2.61.76 4.506 3.166 4.506 6.092v7.423h-7.422c-2.907 0-5.315-1.87-6.093-4.454-1.27 1.65-2.09 4.46-2.09 7.68 0 3.23.82 6.04 2.1 7.68.76-2.61 3.17-4.5 6.09-4.5h7.42v35.68c0 2.81-1.75 5.14-4.2 5.99 3.54.48 6.59 5.24 7.43 7.84.84-2.59 3.89-7.35 7.43-7.83a6.28 6.28 0 0 1-4.25-5.99v-35.69h7.42c2.91 0 5.32 1.87 6.1 4.46 1.28-1.64 2.1-4.46 2.1-7.68 0-3.22-.82-6.04-2.1-7.68-.76 2.61-3.16 4.51-6.09 4.51h-7.42v-7.42c0-2.91 1.87-5.31 4.46-6.09-1.64-1.28-4.46-2.1-7.68-2.1z"/>
<path d="M847.69 184.78a14.26 14.26 0 0 0-4.402.716c1.664 1.447 2.765 3.544 2.765 5.94v7.422c0 .106-.03.207-.052.308v1.177h-1.17c-.1.02-.2.05-.3.052h-7.43c-2.36 0-4.44-1.083-5.88-2.713-.42 1.26-.77 2.697-.77 4.403 0 1.678.32 3.156.72 4.402 1.45-1.664 3.55-2.763 5.94-2.763h8.96c-.01.154-.05.303-.05.46v.767c.02.1.05.21.05.31v35.68c0 2.32-1.19 4.14-2.76 5.58a11.976 11.976 0 0 1 2.92 2.56c.74.89 1.03 1.75 1.54 2.66.51-.9.8-1.77 1.54-2.66a12.036 12.036 0 0 1 2.87-2.51c-1.59-1.43-2.77-3.3-2.77-5.63v-37.16h1.23c.1-.02.2-.05.31-.05h7.42c2.36 0 4.44 1.09 5.88 2.72.42-1.26.77-2.69.77-4.4a14.26 14.26 0 0 0-.72-4.4c-1.45 1.67-3.54 2.77-5.94 2.77h-7.42c-.1 0-.2-.03-.3-.05h-1.18v-1.17c-.02-.1-.05-.2-.05-.31v-7.42c0-2.36 1.09-4.44 2.72-5.88-1.26-.41-2.7-.77-4.4-.77" fill="#f5d402"/>
<path d="M940.61 313.99c-4.535-3.22-8.258-6.862-10.904-11.11-6.372-10.223-9.06-22.773-9.06-35.527 0-5.39 6.04-11.46 6.04-15.82 0-6.59-.615-10.544-.615-10.544 2.15.29 5.89 4.09 5.89 4.09s-.13-10.94-3.58-12.85 1.4-1.44 6.45-1.59c-1.42-3.6-8.44-7.99-8.44-7.99.35-.63 1-1.18 1.84-1.64 1.77-.98 4.25-1.62 6.15-2-2.02-.42-4.35-1.06-6.91-1.9-5.84-1.9-12.72-4.7-19.14-7.78-11.73-5.63-20.67-5.99-25.59-5.99-3.57 0-8.84.1-11.92 2.15-2.83 1.87-2.6 4.31-3.58 5.17-2.33 2.01-6.32 1.94-8.24 1.94-12.44 0-12.9 13.31-12.9 13.31s3.18-4.82 8.8-4.82c9.35 0 16.43 5.09 16.43 7.01 0 .77-.96.92-1.02.92-6.11 0-15.33-3.52-20.22-3.69v2.4c10.93 3.8 22.02 9.18 22.02 32.91 0 14.94-1.79 30.19-9.27 42.18-2.64 4.25-6.41 7.88-10.95 11.11l44.39 8z"/>
<g id="a">
<path d="M896.22 303.99l-44.383 10c-2.02-.61-11.513-3.56-18.174-7.27-11.726-6.53-17.806-13.03-31.74-13.668v-10.598c0-5.662 2.05-10.763 2.05-16.177-5.875-1.575-22.18-21.51-37.22-30.358-22.13 14.33-39.264 37.86-39.264 48.68 0 0 .66 232.51 0 313.51 0 4.67-2.82 11.26-2.82 11.26 8.08-3.42 22.89-23.68 26-31.38v3.68c12.2-5.57 21.13-20.19 25.13-27.75l.25 3.84c10.9-9.56 24.77-66.04 24.77-66.04l23.12 22.72s-8.37 16.97-11.62 20.01 2.18.27 4.65.25c-1.53 2.19-13.15 18.92-16.79 25.24-3.41 5.91-5.82 3.28-11.06 3.28-4.35 0-14.2 6.92-15.82 9.72-1.7 2.95-2.97 6.52-2.97 9.47 0 3.24 3.43 7.68 3.43 7.68.37-1.55 1.02-2.1 1.02-2.1s9.01 11.23 10.34 12.7c1.03 1.14 5.64 1.89 7.27.41 4.06-3.7 8-6.28 11.62-11.62 1.86-2.75 2-5.9 4.14-8.86 7.16-9.88 21.41-28.8 24.67-33.12.22 1.2.4 2.2.61 3.43 3.69-7.46 21.45-21.71 21.45-21.71l18.58 8.55s-34.68 79.74-65.47 92 13.39 5.69 29.84 14.23a447.91 447.91 0 0 1 7.37 3.94 206.97 206.97 0 0 0 6.4-8.14c9.83-13.16 19.45-28.42 19.45-28.42.67 3.96-4.52 16.19-13.31 31.28-1.73 2.96-3.53 6.06-5.53 9.21a335.84 335.84 0 0 1 6.66 3.89c16.29 9.8 31.6 21.07 37.27 31.43l4-10.01-4-10.01V317.26l2-5z"/>
<g fill="#b07f55">
<path d="M896.2 667.22c-5.75-6.236-17.77-13.855-31.278-20.886 16.334-29.316 24.428-75.655 20.63-84.88 0 0-6.705 24.033-14.898 37.73-7.586 12.683-16.925 26.95-25.954 37.525-7.428-3.17-14.63-5.83-20.785-7.68 27.058-20.85 54.726-89.75 54.726-89.75l-28.61-13.26s-10.7 12.48-14.18 14.79-1.48-6.21-2.35-8.4-4.1 3.1-6.34 3.17c0 0-.67-4.21-1.18-6.96-2.82 1.88-7.52 1.48-7.52 1.48 4.13-1.96 9.01-13.93 9.01-13.93l-27.32-36.34s-9.59 46.11-20.52 55.59V336.87l8.65 8.035 13.11-12.235v-9.317l-11.62 10.852V306.1a94.373 94.373 0 0 0 3.79-6.194c1.88 3.278 7.96 13.328 15.1 19.504 1.18-4.778 8.91-9.318 8.91-9.318s2.77 7.508 7.01 9.368c1.5-2.628 10.4-8.446 10.4-8.446s-7.61 1.157-10.7 4.045c-2.65-.6-3.32-11.06-3.32-11.06s-11.21 5.46-13.16 9.37c-2.13-.58-5.46-8.99-6.76-12.44a74.752 74.752 0 0 1 8.35-.46c3.2 0 7.29 1.51 11.57 3.53 4.71 2.21 9.63 5.02 14.03 7.01 5.63 2.55 14.15 3.06 16.64 3.17-2.85 2-5.97 3.82-9.37 5.53 0 0 13.41-.13 22.83-4.82 3.36-2.17 6.85-4.32 9.83-6.86-1.29 3.59-3.3 7.84-6.45 11.46 13.84-1.17 20.73-9.08 22.68-11.73.92 2.37 2.55 6.18 5.12 9.47h5v340zM794.25 267.3l.255 6.348v18.687c-5.02-1.727-11.326-9.973-14.384-14.334v-2.56c0-2.4 1.42-4.16 2.46-5.11l-3.02-1.07c-1.15 1.32-2.4 3.27-2.4 5.79v1.49l-9.01 9.68-8.85-13.41v-3.27c0-2.21 1.7-4.67 3.13-6.35l-2.97-1.07c-1.5 1.94-3.07 4.56-3.07 7.01v2.66a9421.86 9421.86 0 0 1-10.19 10.5l-5.17-11.11c6.21-8.59 16.27-18.22 25.75-25.12 0 0 20.57 18.88 27.49 21.29zm-52.12 18.12v15.41l-7.167 6.655v-22.883c0-2.19.918-4.83 2.457-7.73z"/>
<path d="M764.45 291.36v9.522l-8.24 7.73V278.82zm-11.16 17.2l-8.243-7.68v-11.158l8.243-8.652zm37.62-11.57c-1.914 2.705-6.927 9.32-12.337 12.236v-26.16c1.24 2.064 6.934 11.274 12.337 13.924zm-15.25-12.59v24.163l-8.243-7.68v-8.548zm-33.53 25.75v24.113l-7.167-6.707v-10.7zm11.15 7.73v8.65l-8.244 7.68V310.2zm11.16-7.68v24.01l-8.24-7.73v-8.55zm11.21 7.73v8.55l-8.243 7.73V310.2zm11.16 16.33l-8.244-7.73v-8.037c2.843-1.735 5.702-4.924 8.243-8.293zm-20.89 10.65l8.703-8.09v198.63s.607 9.857 1.024 16.28l-18.43 18.634v-233.6zm-13.67 218.03c0 6.385-11.66 21.273-17.303 24.675v-250.74l8.6 8.036 8.703-8.09z"/>
</g>
<g fill="#d10429">
<path d="M824.54 541.39l6.348-4.352s.423 2.1.972 4.967c-2.718 3.716-18.33 25.024-26.057 35.425-1.92 2.584-3.534 9.163-3.534 9.163s-2.82-1.33-2.82-3.736c0-2.362.31-5.17.31-5.17s-2.1 2.405-5.74 2.405c0-2.903 5.61-6.052 5.83-10.186-4.28 3.174-8 1.545-12.95 3.072-5.4 1.66-6.9 3.927-8.55 3.84-.98-.053-1.86-1.733-1.49-2.765.64-1.787 7.31-6.733 11.97-7.627 1.11-.214 9.9 1.912 11.67-.82l20.27-31.277c.75-.18 1.44-.38 1.99-.72 0 0-.07 5.75 1.74 7.78z"/>
<path d="M783.72 576.45c.353.408.322 1.006-.053 1.33l-2.866 2.508c-.37.324-.97.255-1.33-.154-.35-.408-.32-1.006.06-1.33l2.87-2.51a.85.85 0 0 1 .67-.203c.24.03.49.16.67.36zm4.35 3.02c.857.988.802 2.388-.103 3.175l-6.962 6.09c-.906.79-2.367.63-3.226-.356-.86-.99-.81-2.44.1-3.23l6.96-6.04c.34-.3.8-.48 1.23-.52.71-.06 1.46.25 1.99.87zm3.99 4.71c.857.988.803 2.387-.103 3.174l-7.012 6.092c-.906.787-2.316.63-3.175-.358-.858-.987-.803-2.438.104-3.224l6.96-6.04a2.07 2.07 0 0 1 1.18-.514c.71-.058 1.51.252 2.046.87zm2.4 3.74a2.37 2.37 0 0 1 1.997.82c.858.987.803 2.438-.102 3.224l-6.963 6.042c-.906.787-2.316.63-3.174-.36s-.854-2.387.05-3.174l7.015-6.09c.338-.297.75-.428 1.177-.462z"/>
</g>
</g>
<use xlink:href="#a" transform="matrix(-1 0 0 1 1792.4 0)"/>
<path d="M885.93 206.64c11.458 0 19.517 5.224 30.36 10.033 2.84 1.26 5.45 2.28 7.778 3.07-1.46 1.294-2.594 2.593-2.918 3.688 0 0 4.86.9 7.064 4.97 0 0-4.62.53-5.375 3.23 2.58.2 5.15 3.46 5.17 6.61l-6.56-2.05s1.58 7.36 1.58 15.36c0 4.09-5.89 8.9-5.89 15.82 0 21.74 5.47 30.09 9.37 36.81 1.52 2.63 2.76 5.66 5.32 7.94-11.22-5.97-19.56-13.44-19.56-20.37v-26.27h-2.92v26.27c0 5.03 1.22 7.37 1.22 7.37 1.76 5.57 5.32 14.15 7.52 17.61-10.32-5.58-15.56-12.56-15.56-15.15v-36.1h-2.92v36.61l.56 2.51c-1.25 1.88-2.88 4.11-4 4.87-1.12-.75-2.69-2.98-3.95-4.86l.56-2.5V265.5h-2.92v36.092c0 2.59-5.24 9.577-15.56 15.155 2.2-3.46 5.76-12.046 7.52-17.61 0 0 1.23-2.342 1.23-7.372v-26.27h-2.92v26.264c0 6.92-8.3 14.4-19.5 20.37 2.53-2.28 3.75-5.32 5.27-7.93 4.26-7.35 9.52-16.69 9.52-43.26 0-9.98-1.48-16.76-4.05-21.5-.78-1.57-1.84-5.74 4.14-5.74 3.1 0 10.19 5.47 10.19 5.47s-.29-4.37-3.89-6.86c-.6-.42-1.59-1.71-1.59-2.92 0-.91 1.55-3.14 2.76-3.69.83-.38-12.18-2.65-12.18-8.55 0-1.23.77-2.05 3.48-2.05 3.54 0 9.31 4.25 14.44 4.25 3.79 0 5.28-.93 9.16-.93 4.74 0 14.64 8.98 18.02 8.65-3.78-2.37-9.89-11.36-19.15-11.36-3.21 0-6.12.71-9.11.71-3.84 0-7.63-3.54-11.78-3.54-2.78 0-5.89.16-6.35-.56-.81-1.26-.08-1.99.66-3.02 1.4-1.96 5.36-2.53 9.26-2.66a77.25 77.25 0 0 1 3.43-.06c1.09.01 2.1.05 2.97.05z" fill="#b07f55"/>
<path d="M848.73 220.69s2.42-4.58 8.534-4.58c2.556 0 10.992-.178 10.992-.178 1.124 2.92 6.25 7.802 6.25 12.878 0 0-5.203-9.377-19.724-9.377-3.65 0-6.054 1.256-6.054 1.256z" fill="#cc092f"/>
<path d="M872.34 230.6s-3.093 3.258-3.765 4.997c-3.06-1.16-8.4-6.66-8.4-6.66s4.526 2.64 12.164 1.663z" fill="#d10429"/>
<path d="M867.44 221.97s-3.568-1.144-3.568-2.342c0-1.526 1.733-1.526 2.77-.337.712.82.797 2.68.797 2.68z"/>
<ellipse cy="222.06" cx="882.8" rx="5.112" ry="4.043"/>
<circle cy="222.06" cx="882.8" r="3.56" fill="#f5d402"/>
<circle cy="222.06" cx="882.8" r="1.511"/>
<path d="M801.375 591.952l16.2 8.838-3.93 18.03-16.2-8.84z"/>
<path d="M725.9 418.73l-5.836 2.663L786 565.813h7.014zm77.762 170.32l-4.76 4.915 2.97 6.553 5.783-2.662z"/>
<path d="M746.39 532.6s5.554 11.472 9.775 13.045c-2.183-.595-9.27 2.006-9.27 2.006s12.498 11.17 23.1 11.9c8.99.62 13.354-3.87 13.354-3.87l-1.81-9.52s-5.5-6.64-14.3-9.7c-8.9-3.09-20.86-3.84-20.86-3.84zm41.87-20.55s-7.67 6.565-9.768 14.17c-2.1 7.604 1.368 16.246 1.368 16.246l6.444 12.02s8.93-4.752 12.73-11.86c3.8-7.107 2.406-16.697 2.406-16.697s-7.075 2.63-7.975 3.8c1.493-7.89-5.206-17.68-5.206-17.68zm-24.65-3.07s-8.722 2.948-17.192 2.438c-8.068-.487-14.777-7.262-14.777-7.262s6.69-4.526 9.99-3.923c-3.63-1.327-8.89-10.423-8.89-10.423s7.48-2.26 14.12.24c6.64 2.503 12.42 9.77 12.42 9.77l4.34 9.16zm3-42.6s4.362 9.032 3.328 12.17c1.353-2.09 6.474-5.344 6.474-5.344s3.096 14.624.135 23.656c-2.96 9.03-11.974 12.47-11.974 12.47l-9.943-19.337s-1.48-7.164 1.62-12.837 10.36-10.78 10.36-10.78zm-56.75-23.91s9.427-.99 18.05 2.583c7.21 2.993 9.42 8.433 9.42 8.433l3.552 9.52s-10.26 3.848-18.368.906c-8.108-2.945-14.065-12.68-14.065-12.68s5.66-2.15 7.82-1.343c-3.14-1.39-6.41-7.42-6.41-7.42zm29.65-17.67s4.137 5.313 4.26 11.424c1.104-3.25 6.27-6.84 6.27-6.84s5.31 12.855 4.145 21.982c-1.166 9.128-8.81 14.527-8.81 14.527l-9.53-18.092s-3.106-7.41-2.19-13.16c.915-5.75 5.855-9.83 5.855-9.83zm-32.65-34.6s-1.71 9.854 1.2 15.53c2.597 5.065 4.25 6.176 4.25 6.176-4.953-3.27-12.443-3.55-12.443-3.55s2.666 10.72 9.037 15.61 16.195 3.75 16.195 3.75 6.46-8.6 6.01-17.866c-.45-9.265-7.81-19.197-7.81-19.197s-2.9 6.02-3.16 10.514c-1.88-4.633-13.29-10.966-13.29-10.966zm77 165.07l.265 3.537c5.875.055 6.75-.53 8.256 1.322 1.01 1.23 3.39 2.31 5.79 1.21s3.48-3.98 2.38-6.38-3.32-2.92-5.47-2.5c-1.32.26-2.18 1.31-3.3 1.89-2.13 1.1-7.91.91-7.91.91z"/>
<path d="M783.35 552.57l2.86 2.095c-3.068 5.014-4.025 5.446-3.252 7.705.515 1.504.166 4.097-2.035 5.553-2.2 1.455-5.214.84-6.67-1.358-1.453-2.2-.714-4.366.784-5.965.92-.982 2.27-1.16 3.353-1.803 2.062-1.223 4.96-6.228 4.96-6.228zm-19.9-42l.264 3.537c5.876.054 6.75-.53 8.256 1.32 1.002 1.234 3.39 2.312 5.787 1.216 2.4-1.095 3.476-3.976 2.38-6.375-1.096-2.4-3.326-2.92-5.475-2.496-1.32.26-2.187 1.313-3.305 1.89-2.13 1.102-7.91.91-7.91.91z"/>
<path d="M764.64 511.82l2.5 2.517c-3.81 4.474-4.824 4.753-4.41 7.104.275 1.57-.474 4.08-2.875 5.17-2.4 1.1-5.28.03-6.376-2.37s-.03-4.42 1.7-5.77c1.06-.82 2.42-.79 3.59-1.26 2.22-.88 5.86-5.38 5.86-5.38zm-20.97-43.1l.265 3.537c5.876.054 6.75-.53 8.257 1.323 1.003 1.23 3.388 2.31 5.788 1.213 2.398-1.095 3.474-3.975 2.38-6.377-1.098-2.4-3.327-2.92-5.477-2.495-1.32.27-2.187 1.32-3.306 1.9-2.128 1.1-7.908.91-7.908.91z"/>
<path d="M745.3 467.98l2.5 2.516c-3.81 4.475-4.823 4.754-4.412 7.105.276 1.57-.473 4.08-2.873 5.17-2.4 1.1-5.28.02-6.376-2.38s-.03-4.42 1.7-5.77c1.06-.82 2.42-.79 3.59-1.26 2.22-.88 5.86-5.38 5.86-5.38zm-22.7-43.44l.264 3.536c5.876.055 6.75-.53 8.256 1.32 1.004 1.235 3.39 2.312 5.788 1.218 2.4-1.097 3.475-3.977 2.38-6.377s-3.326-2.92-5.476-2.496c-1.318.27-2.186 1.32-3.305 1.9-2.128 1.1-7.91.91-7.91.91z"/>
<path d="M724.23 423.8l2.498 2.517c-3.808 4.475-4.823 4.753-4.41 7.105.276 1.566-.474 4.074-2.873 5.17-2.4 1.094-5.28.02-6.375-2.38-1.096-2.4-.028-4.427 1.7-5.77 1.06-.826 2.424-.794 3.593-1.26 2.226-.887 5.866-5.38 5.866-5.38z"/>
<path d="M803.71 597.062l10.048 5.482-2.438 11.183-10.05-5.482zm-43.99-96.972c-2.106.874-5.23-8.295-7.524-13.318-2.353-5.155-7.13-13.1-5.774-13.72 1.49-.68 3.45 3.492 5.86 8.767 2.407 5.27 9.41 17.44 7.438 18.26zm-21.63-48.29c-2.105.877-4.41-5.127-6.703-10.15-2.353-5.155-4.645-8.796-3.288-9.416 1.49-.68 3.69 3.837 5.61 8.055 1.86 4.08 6.35 10.69 4.37 11.51zm50.04 109.49c-1.653.442-8.87-14.662-14.703-27.442s-10.177-23.12-8.82-23.736c1.49-.68 6.213 11.39 12.05 24.172 5.834 12.78 12.712 26.673 11.474 27.006z" fill="#f5d402"/>
<path d="M709.76 396.19s-.255 7.2 2.127 11.285c2.383 4.086 7.704 5.715 7.704 5.715s.26-7.2-2.12-11.283c-2.38-4.086-7.7-5.717-7.7-5.717zm-4.98 16.29s6.255.368 9.868 3.136c3.61 2.768 5.01 8.535 5.01 8.535s-4.147.43-7.757-2.34c-3.61-2.77-7.12-9.32-7.12-9.32zm19.63-14.54s-2.08 4.77-1.84 9.912c.24 5.143 3.24 10.937 3.24 10.937s2.713-6.18 2.474-11.32c-.238-5.15-3.147-8.08-3.874-9.53zm-10.53 46.36s3.07 4.288 7.8 6.626c4.727 2.337 11.772 2.424 11.772 2.424s-3.516-4.562-8.245-6.9c-4.728-2.337-11.327-2.152-11.327-2.152zm1.52 9.96s2.257 4.42 6.384 6.316c4.13 1.896 12.574 1.74 12.574 1.74s-3.24-4.13-7.368-6.027c-4.128-1.9-11.59-2.03-11.59-2.03zm23.77-23.58s-2.495 4.123-2.25 8.666c.244 4.545 3.226 9.51 3.226 9.51s2.097-5.692 1.852-10.236c-.244-4.545-2.83-7.94-2.83-7.94zm9.19 5.83s-4.27 5.73-4.882 11.62c-.613 5.89 2.428 11.943 2.428 11.943s5.157-5.178 5.77-11.068c.613-5.892-3.316-12.493-3.316-12.493zm-11.77 54.4s.513 2.118 2.297 4.367c1.783 2.25 4.836 4.632 4.836 4.632s2.95-.95 6.615-.16c3.665.79 8.54 4.06 8.54 4.06s-5.247-7.83-10.695-10.88c-5.448-3.05-11.59-2.03-11.59-2.03zm-.54 13.46s6.793-2.902 12.387-2.153c5.595.75 10.64 5.17 10.64 5.17s-7.562 2.617-13.156 1.87c-5.59-.75-9.87-4.887-9.87-4.887zm28.71-31.58s-6.007 6.364-6.51 11.887c-.504 5.522 4.87 10.67 4.87 10.67s-.264-3.543.66-5.875c.927-2.332 2.894-4.822 2.894-4.822s.838-2.843.514-5.123c-.453-3.186-2.428-6.737-2.428-6.737zm8.62 7.37s-5.662 5.73-7.158 11.864c-1.497 6.135 1.17 12.676 1.17 12.676s5.15-4.062 6.646-10.196c1.497-6.135-.66-14.344-.66-14.344zm14.18 36.98s2.565 5.355 3.215 9.833c.652 4.477.048 6.027.048 6.027s-2.652 2.607-3.84 4.14c-1.53 1.97-1.753 5.576-1.753 5.576s-5.325-7.916-4.504-13.703c.82-5.786 6.834-11.874 6.834-11.874zm11.22 12.39s-6.818 4.503-9.523 9.123c-2.708 4.617-1.304 9.35-1.304 9.35s4.858-.43 7.566-5.047c2.7-4.618 3.26-13.427 3.26-13.427zm-44.8 19.02s9.826-.268 15.832 1.21c6.006 1.474 8.192 4.694 8.192 4.694s-6.753 3.162-12.76 1.686c-6.005-1.475-11.265-7.59-11.265-7.59zm-1.66-11.66s4.433 6.873 10.164 9.367c7.898 3.435 17.043 1.77 17.043 1.77s-4.968-6.09-11.804-8.777c-6.838-2.687-15.403-2.36-15.403-2.36z" fill="#097754"/>
<path d="M1088.7 401.94l1.28 2.712s-2.08.714-3.02 2.56.614 4.454.614 4.454-10.804-.943-12.49.154c-1.53.99.646 8.474-.36 14.795-1.402 8.81-4.875 8.07-5.017 9.777-.138 1.66 1.33 4.25 1.33 4.25s-2.025.637-2.457 1.484c-.695 1.362.484 3.875-.358 5.528-4.7 9.223-11.64 22.836-16.228 31.843-.64 1.257-2.363 1.737-3.226 3.43-.796 1.562-.153 3.84-.153 3.84s-3.04.18-4.096 2.252c-1.13 2.2-.47 5.17-.47 5.17s-1.93.24-2.87 2.09c-1.01 1.98.7 3.02.26 3.89-6.17 12.1-13.44 26.37-17.87 35.07-1.63 3.2-7.34 3.84-10.65 10.34-3.22 6.3 1.38 10.95 1.38 10.95s-4.77.43-6.04 2.92c-1.29 2.53-.27 6.38 3.17 8.14s7.2.33 8.5-2.2c1.26-2.49-1.28-6.61-1.28-6.61s6.46.93 9.67-5.38c3.31-6.5.52-11.44 2.15-14.64l17.86-35.07c.44-.87 2.27-.12 3.27-2.1.94-1.85 0-3.53 0-3.53s2.82-1.23 3.94-3.43c1.05-2.07-.56-4.66-.56-4.66s2.22-.8 3.02-2.36c.86-1.7.23-3.35.87-4.61 4.59-9.01 11.53-22.62 16.23-31.84.84-1.66 3.55-2.22 4.25-3.59.43-.85-.26-2.87-.26-2.87s2.99-.3 4.25-1.38c1.3-1.12-1.34-3.52 4.96-9.83 4.52-4.53 11.81-7.19 11.72-9.01-.11-2.01-7.22-10.19-7.22-10.19s3-.26 3.94-2.1c.94-1.85.3-4 .3-4l2.97-.52V393.6zm-98.136 196.07a3.498 3.498 0 0 0 0 3.12s-3.583-1.12-4.812-.51c-1.158.572 0 17.457 0 17.457s14.295-9.018 14.077-10.29c-.23-1.352-3.23-3.635-3.23-3.635a3.428 3.428 0 0 0 2.51-1.79c.47-.926.53-3.57-2.72-5.224-1.22-.62-2.3-.804-3.18-.716-1.46.147-2.37 1.01-2.66 1.588z"/>
<g fill="#f5d402">
<path d="M1091.3 402.51l6.757 3.43-.1-8.14zm-2.6 4.91c-.868 1.704-.025 3.886 1.894 4.863 1.92.977 4.148.373 5.018-1.33.868-1.704.023-3.885-1.895-4.863a4.2 4.2 0 0 0-2.2-.46c-1.21.08-2.274.725-2.817 1.79zm-11.6 6.2c-.71.46.256 6.545.05 11.722-.193 4.882-1.755 6.257-2.61 7.935-.79 1.55-3.634 3.38-3.634 3.38l2.354 2.354s1.532-2.38 3.942-7.11c2.843-5.58 2.75-15.69 3.585-16.22.725-.47 6.655-1.94 6.655-1.94s-5.442-.29-8.447-.25c-1.003.01-1.73.05-1.895.16z"/>
<path d="M1077.7 441.72s.787-2.188 3.533-7.577c3.31-6.5 10.38-11.213 10.544-12.39.172-1.21-2.457-6.91-2.457-6.91s-6.235 1.196-7.117 2.05c-.852.822-.476 9.266-3.788 15.766-2.744 5.38-4.094 7.37-4.094 7.37z"/>
<path d="M1093.6 422.22c.052.99-8.163 6.86-11.007 12.44-2.41 4.73-3.43 7.372-3.43 7.372l3.277.512s-.226-3.367.563-4.915c.854-1.68 1.08-3.74 4.915-6.76 4.068-3.21 9.567-6.02 9.522-6.86-.04-.79-6.144-8.35-6.144-8.35s2.257 5.69 2.304 6.55zm-24 36.5c4.936-9.688 6.444-10.348 7.065-11.57.67-1.31.51-3.077-1.69-4.198-.823-.42-1.53-.526-2.15-.46-1.032.112-1.783.768-2.2 1.587-.622 1.22-.285 2.85-5.223 12.54l-11.212 21.96s-1.175 2.15 1.024 3.27c2.2 1.12 3.174-1.13 3.174-1.13zm-19.8 25.19c-.61 1.2.436 2.964 2.355 3.943 1.92.976 3.996.79 4.607-.41.61-1.2-.486-2.964-2.406-3.943-.96-.49-1.935-.687-2.764-.613-.83.072-1.486.424-1.792 1.023zm-4.2 6.24c-.792 1.553.443 3.783 2.765 4.968 2.322 1.183 4.84.886 5.63-.667.793-1.55-.443-3.78-2.764-4.96-.87-.44-1.73-.67-2.56-.71-1.37-.06-2.57.41-3.07 1.38zm-2.6 6.97c-.61 1.2.437 2.963 2.355 3.94 1.92.98 3.995.792 4.608-.408.61-1.2-.437-2.964-2.355-3.942-.96-.49-1.986-.688-2.816-.615-.828.073-1.485.424-1.792 1.025zm-1.7 6.65s-12.448 24.5-16.84 33.12c-1.404 2.755-7.312 4.47-9.625 9.012-2.33 4.568-.686 8.844 2.354 10.392 3.03 1.55 7.5.423 9.83-4.146 2.31-4.54.23-10.353 1.63-13.106 4.39-8.624 16.84-33.122 16.84-33.122s1.22-2.156-.98-3.276a2.372 2.372 0 0 0-1.44-.256c-1.21.156-1.8 1.382-1.8 1.382zm-31.5 56.88c-.933 1.83.134 4.27 2.405 5.426 2.272 1.158 4.904.6 5.837-1.228.933-1.83-.186-4.27-2.457-5.427-.852-.43-1.72-.63-2.56-.61-1.4.04-2.643.7-3.225 1.84zm-16.54 37.42c-.71.024-1.298.25-1.535.717-.477.935.508 2.413 2.2 3.276 1.694.862 3.465.782 3.943-.154.477-.94-.51-2.42-2.2-3.28-.848-.43-1.696-.59-2.408-.57zm-5.84 4.61v12.082l9.83-7.065s-1.333-2.354-4.25-3.84c-2.917-1.485-5.58-1.178-5.58-1.178z"/>
</g>
<path d="M993.64 333.6c0-6.626 8.703-13.157 8.703-13.157h-212.25s8.703 6.53 8.703 13.157v157.99c0 4.162 1.286 6.872 3.328 9.52 2.04 2.854 6.39 6.796 10.903 9.728 13.94 9.053 37.246 18.6 54.88 26.62 14.694 6.685 20.67 9.382 28.31 18.84 7.638-9.458 13.666-12.154 28.36-18.84 17.63-8.02 40.938-17.567 54.88-26.62 4.514-2.932 8.863-6.873 10.903-9.727 2.042-2.64 3.276-5.35 3.276-9.52z" fill="#f5d402"/>
<path d="M803.82 422.98v-89.385c0-5.06-2.56-8.14-2.56-8.14h189.93s-2.56 3.082-2.56 8.14l.054 89.385-92.43 28z" fill="#d10429"/>
<path d="M988.68 422.98l-57.234-1.075h-70.393l-57.234 1.075v68.6c0 3.45 3.57 11.526 24.21 21.808 34.11 16.998 60.33 24.934 68.19 34.607 7.85-9.673 34.07-17.61 68.19-34.607 20.63-10.282 24.21-18.36 24.21-21.807z" fill="#0b45bb"/>
<path d="M930.06 419.4s33.02-8.326 33.02-43.617c0-27.563-33.104-41.237-34.045-47.814-3.235 11.38 11.058 27.1 11.058 45.71 0 24.08-17.764 25.24-17.764 25.24-4.16 0-5.85 2.96-7.48 2.96-3.5-.37-5.15-4.82-8.6-4.82-3.25 0-5.74 5.01-10.04 5.01-4.3 0-6.74-5.02-9.99-5.02-3.46 0-5.11 4.45-8.6 4.81-1.64 0-3.32-2.97-7.48-2.97 0 0-17.76-1.15-17.76-25.24 0-18.62 14.29-34.34 11.05-45.72-.94 6.57-34.04 20.25-34.04 47.81 0 35.29 33.02 43.62 33.02 43.62L853 436.54s13.647.68 20.89 6.86c8.734 7.447 7.884 23.23 7.884 34.71 0 9.043-1.144 18.59-5.785 22.52-6.23 5.288-10.45 5.68-10.45 11.88 0 5.18 3.97 6.216 10.44 9.63 8.29 4.374 7.9 10.24 20.22 10.24 12.32 0 11.98-5.865 20.27-10.24 6.47-3.413 10.44-4.45 10.44-9.624 0-6.2-4.22-6.594-10.45-11.878-4.64-3.94-5.78-13.48-5.78-22.527 0-11.48-.85-27.26 7.88-34.71 7.24-6.17 20.88-6.86 20.88-6.86z"/>
<path d="M896.22 330.42l-5.735 16.28-15.614-7.423 7.43 15.615-16.28 5.784 16.28 5.785-7.42 15.57 15.62-7.42 5.74 16.28 5.79-16.28 15.61 7.43-7.42-15.56 16.28-5.78-16.28-5.78 7.42-15.61-15.61 7.43-5.78-16.28zm-35.17 91.49s-20.387-4.984-28.002-15.05c-13.313 11.975-29.232 16.125-29.232 16.125s16.607 7.498 29.232 17.048c5.817-8.336 28.002-18.123 28.002-18.123zm70.39 0s22.186 9.786 28.004 18.123c12.623-9.55 29.23-17.048 29.23-17.048s-15.918-4.15-29.23-16.126c-7.615 10.06-28.004 15.05-28.004 15.05zm-62.04 21.7l-7.935 7.934 7.935 7.935 7.935-7.94-7.935-7.94zm53.7 0l-7.934 7.934 7.934 7.935 7.935-7.94-7.935-7.94zm-55.7 46.33c0 10.025-.972 15.307-.972 15.307s11.186-3.293 13.414-14.64c1.044-5.32 2.207-24.92-3.175-28.26l-14.59-2.867c1.575 3.9 5.322 15.977 5.322 30.46zm48.43-27.59c-5.38 3.34-4.218 22.938-3.174 28.26 2.227 11.347 13.413 14.64 13.413 14.64s-.98-5.282-.98-15.307c0-14.483 3.74-26.562 5.32-30.46zm-82.83.57c-5.03 1.262-8.07 6.385-6.808 11.416.193.77.51 1.48.87 2.15a9.254 9.254 0 0 0-2.304-.46 9.55 9.55 0 0 0-.972 0c-4.76.16-8.73 3.902-9.06 8.754-.355 5.174 3.578 9.63 8.754 9.983a9.393 9.393 0 0 0 2.25-.103 9.217 9.217 0 0 0-1.124 1.996c-1.937 4.813.41 10.35 5.222 12.288 4.812 1.935 10.298-.46 12.234-5.273.296-.73.46-1.45.564-2.2a9.304 9.304 0 0 0 1.586 1.69c3.98 3.33 9.93 2.8 13.26-1.17a9.364 9.364 0 0 0-1.18-13.2c-.6-.5-1.27-.9-1.944-1.23a9.316 9.316 0 0 0 2.098-.97c4.395-2.75 5.725-8.61 2.97-13-1.895-3.02-5.223-4.57-8.55-4.35a9.45 9.45 0 0 0-4.403 1.44 9.33 9.33 0 0 0-1.79 1.44 9.49 9.49 0 0 0-.257-2.3 9.417 9.417 0 0 0-9.522-7.12 9.522 9.522 0 0 0-1.894.26zm99.82 27.33c1.017 9.587 8.808 17.62 18.43 19.914-1.644-2.687-2.736-5.682-3.073-8.856-1.205-11.37 7.588-20.58 19.607-20.58 1.894 0 3.73.233 5.528.666-4.237-6.947-12.215-11.775-20.887-11.774-12.018 0-20.813 9.262-19.605 20.63z"/>
<g fill="#ffd200">
<path d="M847.59 373.68c0 18.128 9.667 28.82 22.576 28.82 2.462 0 5.155 3.33 7.475 3.33 3.79 0 6.3-4.2 8.61-4.2 2.93 0 4.9 4.608 9.98 4.608 5.09 0 7.11-4.607 10.04-4.607 2.3 0 4.82 4.2 8.6 4.2 2.32 0 5.01-3.33 7.48-3.33 12.91 0 22.58-10.69 22.58-28.82 0-14.78-12.41-32.81-11.05-35.73 0 0 24.22 17.37 24.22 37.83 0 32.97-33.43 41.11-33.43 41.11l7.53 16.95s-10.36 1.56-16.69 6.66c-8.44 6.81-8.55 25.19-8.55 37.63 0 14.65.55 20.86 5.84 24.83 5.58 4.19 9.78 5.1 9.78 9.37 0 3.73-4.34 5.25-9.98 7.73-6.41 2.83-7.05 7.74-16.33 7.74-9.28 0-9.86-4.9-16.28-7.73-5.63-2.48-9.98-4.01-9.98-7.73 0-4.27 4.2-5.18 9.78-9.37 5.29-3.97 5.84-10.18 5.84-24.83 0-12.43-.11-30.82-8.55-37.62-6.32-5.1-16.68-6.66-16.68-6.66l7.52-16.94s-33.42-8.14-33.42-41.11c0-20.46 24.21-37.83 24.21-37.83 1.36 2.92-11.06 20.95-11.06 35.73zm35.988 136.13c-6.567 0-10.75 1.386-10.75 3.38 0 1.993 4.184 3.327 10.75 3.327 1.75 0 3.737-1.02 3.737-3.328s-1.988-3.38-3.737-3.38zm25.34 0c-1.75 0-3.737 1.07-3.737 3.38 0 2.308 1.99 3.327 3.74 3.327 6.57 0 10.75-1.333 10.75-3.328 0-2-4.18-3.38-10.75-3.38z"/>
<path d="M896.28 341.38l3.686 10.394 9.93-4.76-4.71 9.98 10.343 3.688-10.35 3.686 4.71 9.93-9.93-4.71-3.74 10.342-3.69-10.34-9.93 4.71 4.71-9.932-10.34-3.686 10.34-3.687-4.71-9.982 9.93 4.76 3.74-10.393zm-46.13 81.15c-.002 0-17.1 12.696-17.1 12.696l-.205.255-.358-.3-18.94-11.87s12.086-4.16 19.197-11.41c6.728 7.71 17.406 10.65 17.406 10.65zm128.8.77s-12.61 6.28-18.943 11.877l-.357.307-.204-.255c-5.986-6.88-17.098-12.7-17.098-12.7s10.676-2.95 17.404-10.65c7.112 7.25 19.198 11.41 19.198 11.41zM869.4 447.4l4.147 4.145-4.147 4.2-4.198-4.2 4.198-4.145zm53.7 0l4.2 4.145-4.2 4.2-4.146-4.2 4.146-4.145zm-48.07 18.12c2.897 3.998 2.405 10.462 2.405 19.455 0 9.067-6.808 12.54-6.808 12.54 0-21.793-2.247-27.033-3.43-33.633zm50.27-1.64c-1.185 6.602-3.43 11.84-3.43 33.634 0 0-6.808-3.474-6.808-12.54 0-8.994-.492-15.456 2.406-19.455l7.832-1.64z"/>
<path id="b" d="M842.83 472.13c.204.816.226 1.618.153 2.407-.06.654-.234 1.248-.46 1.842-1.133-.42-2.36-.62-3.635-.62-3.16 0-5.987 1.39-7.935 3.58a7.308 7.308 0 0 1-1.33-1.54c-.42-.65-.775-1.36-.973-2.15-.982-3.92 1.41-7.88 5.324-8.86a7.32 7.32 0 0 1 1.484-.21 7.29 7.29 0 0 1 7.372 5.53z"/>
<use xlink:href="#b" transform="rotate(72 838.89 486.47)"/>
<use xlink:href="#b" transform="rotate(144 838.89 486.47)"/>
<use xlink:href="#b" transform="rotate(216 838.89 486.47)"/>
<use xlink:href="#b" transform="rotate(-72 838.89 486.47)"/>
<circle cy="486.47" cx="838.89" r="7.065"/>
<path d="M962.92 476.94c-11.73 2.268-20.17 12.628-18.942 24.727-3.738-3.096-6.473-7.266-6.962-11.877-.95-8.98 5.57-15.922 15.41-15.922 3.76 0 7.375 1.152 10.494 3.072z"/>
</g>
</svg>
