<svg xmlns="http://www.w3.org/2000/svg" xmlns:xlink="http://www.w3.org/1999/xlink" viewBox="0 0 640 320">
<path fill="#d3ae3b" d="M0 0h640v320H0z"/>
<path fill="#c40308" d="M16 16h608v288H16z"/>
<path d="M389.64 157.4c1.874-.53 8.39-2.433 12.98-6.158 4.592-3.726 5.488-6.71 5.86-8.323.367-1.62.526-2.88-.66-1.96-1.188.92-4.75 3.72-7.177 5.07-2.43 1.34-4.672 1.98-5.99 2.35-1.32.36-2.376.6-1.108.1 1.265-.5 5.41-1.96 8.602-5.15s5.714-7.99 5.768-10.93c.053-2.94-.157-2.73-1.103-2s-4.308 4.88-6.198 6.46c-1.89 1.58-4.938 3.68-6.46 4.57-1.525.89-3.678 1.89-.684-.16 2.994-2.05 8.666-6.88 10.98-13.14 2.31-6.25 1.89-9.93 1.837-10.56-.052-.63-.578-1.89-1.103-.74s-4.31 8.72-7.354 11.97c-3.048 3.26-2.312 2.63-2.995 3.15-.682.52-1.84 1.47-.366-.37 1.47-1.84 4.51-6.1 6.09-10.3 1.57-4.21 1.99-8.41 2.04-10.82.05-2.42-1-5.78-1.47-6.78-.48-1-.95-1.73-1.11-.58-.16 1.16-2.58 8.62-3.89 12.24-1.32 3.62-3.94 7.72-4.47 8.51-.53.79-1.89 2.42-.42-.31 1.47-2.74 4.3-10.77 4.67-18.39.36-7.62-.69-11.82-1.74-13.92-1.05-2.11-1.96-2.85-1.96-2.85s.18 5.2-1.37 12.67-3.82 11.41-3.82 11.41-.96 1.08-.3-.71c.44-1.2 1.35-3.86 1.77-8.36.44-4.72.49-10.09-.89-14.66-1.5-4.98-4.11-7.53-4.11-7.53-.73 7.14-.58 16.34-3.2 23.8-.49-.44-1.14-1.25-1.4.4-.48 2.45-1.44 7.05-4.66 12.91-3.23 5.86-4.54 6.63-4.54 6.63s-.6-1.43-1.02-2.21c-.42-.78-.66-1.19-1.2-.12-.54 1.08-2.33 5.2-6.27 9.74-3.94 4.55-6.15 6.76-6.03 10.16.12 3.41 1.91 5.14 4.3 6.7 2.39 1.56 2.81 2.39 2.45 4.24-.36 1.85-2.51 2.51-4.35 2.57-1.85.06-4.18-.12-5.02.35-.83.48-.89 1.68-1.73 2.51-.83.84-1.19 1.32-1.97 1.44-.27.04-.49.06-.67.08-.17-8.98 3.31-12.99 3.31-12.99L341.78 136a32.76 32.76 0 0 1-1.51.694 2.723 2.723 0 0 0-.285-.43c-1.296-1.655-1.72-3.06-1.72-5.18.484.05 1.46.4 2.34.22.88-.17.22-1.06-.046-1.9-.27-.84-.53-3.76-.36-4.863.18-1.1.26-1.55.26-1.55s1.41 1.55 2.29 1.55c.88 0 .79-.88.92-1.85.2-1.47.89-3.32 2.03-4.34 0 0 1.54 1.06 3.31 1.06 1.76 0 4.14-.48 6.04-2.3 1.9-1.81 1.85-2.25 1.85-2.25s3.52 1.24 6.21 1.37c2.69.13 5.56-.31 6.93-3.14s-.4-5.44-.71-5.88c-.31-.44-1.19-.8-1.19 0s.05 2.92-1.59 3.98c-1.63 1.06-2.91 1.02-4.45.53s-3.7-1.11-6.17-.75c-2.21.32-2.51.5-2.55.53.11-.12 2.13-2.18 4.1-2.78 2.03-.62 3.22.22 3.88 1.02s1.23 2.08 1.76.22c.53-1.85.22-3.98-.66-5.35-.88-1.37-2.78-2.25-4.76-2.03-1.98.22-2.69.53-2.69.53s-1.01-2.87-3.57-3.4c-3.12-.65-6.56.53-9.26 2.04 0 0-2.12.49-4.28-.13-1.41-.41-2.83-1.27-3.64-1.81.25-.83.73-2.36.73-2.36s.62-.19 1.27-.43.51-.46.59-1c.08-.54-1.22-1.47-1.22-1.47s-.19-1.62 1.94-2.72c2.13-1.11 1.9-.92 1.9-.92s1.24.23 1.75-.14.51-.6.51-.6.94-.31 1.29-.88c.34-.57.41-1.39.16-2.05-.25-.66-.57-.79-.22-1.1.34-.32.66-1.08.69-1.61.03-.54.03-.66.03-.66s.72-.26.69-1.36c-.03-1.11-.63-1.55-.98-1.64-.35-.1-.57-.1-.57-.1s-.06-.66-.63-1.54c-.57-.88-.95-1.26-.95-1.26s.41-.31.19-1.04c-.22-.72-.73-1.16-1.23-1.32-.51-.16-1.04 0-1.04 0s-1.67-1.01-2.46-1.42c-.79-.41-.98-.5-.98-.5s-.03-.7-.32-1.08-.94-.54-1.29-.54-.72.19-.72.19-2.83-.72-3.99-.91c-1.16-.19-1.23-.28-1.23-.28s-2.52-1.2-3.49-1.38c-.98-.19-1.26-.28-1.26-.28s1.02-1.23 1.08-2.65c.07-1.42-.88-2.76-1.88-3.36-.57-.33-.87-.39-1.06-.51l-.02-.97 1.89.19.16-3.04-1.84.24.28-1.83-3.86-.05.28 1.83-1.86-.12.16 3 1.95-.25-.19 1.13s-.72.12-1.32.57c-1.01.6-1.86 1.77-1.8 3.19.06 1.42.91 2.68.91 2.68s-.25.07-1.22.25c-.98.19-3.49 1.39-3.49 1.39s-.07.1-1.23.29c-1.16.19-4 .92-4 .92s-.38-.19-.73-.19-1.01.16-1.29.54-.31 1.07-.31 1.07l-.98.51c-.79.41-2.45 1.42-2.45 1.42s-.54-.16-1.04 0-1.01.6-1.23 1.32.18 1.04.18 1.04-.38.38-.94 1.26c-.56.89-.63 1.55-.63 1.55s-.22 0-.57.09-.94.53-.98 1.64c-.03 1.1.69 1.36.69 1.36s0 .13.03.66c.04.54.35 1.3.7 1.61.35.32.03.44-.22 1.11s-.19 1.49.16 2.05c.35.57 1.29.88 1.29.88s0 .23.51.6 1.75.14 1.75.14-.23-.18 1.89.92c2.12 1.11 1.94 2.73 1.94 2.73s-1.29.94-1.21 1.47c.08.54-.06.75.59 1s1.26.43 1.26.43.48 1.53.73 2.36c-.81.55-2.23 1.41-3.64 1.81-2.16.62-4.28.14-4.28.14-2.7-1.51-6.14-2.69-9.26-2.04-2.56.53-3.57 3.4-3.57 3.4s-.71-.31-2.69-.53c-1.99-.22-3.88.66-4.77 2.04-.88 1.37-1.19 3.49-.66 5.35.53 1.86 1.1.57 1.76-.22.66-.8 1.85-1.64 3.88-1.02 1.97.6 3.98 2.67 4.09 2.78-.04-.03-.34-.2-2.55-.52-2.47-.35-4.63.27-6.18.75s-2.82.53-4.45-.53c-1.63-1.06-1.59-3.19-1.59-3.98s-.88-.44-1.19 0-2.07 3.05-.71 5.88 4.23 3.27 6.92 3.14c2.69-.14 6.22-1.38 6.22-1.38s-.04.45 1.85 2.26 4.28 2.3 6.04 2.3 3.31-1.06 3.31-1.06c1.14 1.02 1.83 2.87 2.03 4.33.13.97.04 1.86.93 1.86.88 0 2.29-1.55 2.29-1.55s.084.44.26 1.55c.18 1.1-.087 4.02-.35 4.86-.26.84-.927 1.73-.04 1.9.88.18 1.85-.17 2.33-.22 0 2.12-.43 3.53-1.72 5.18a2.88 2.88 0 0 0-.27.41 35.92 35.92 0 0 1-1.45-.67l-9.73 11.43s3.5 4.02 3.31 13.06v-.06a12.957 12.957 0 0 1-.71-.09c-.78-.12-1.13-.6-1.97-1.43-.836-.836-.896-2.03-1.73-2.51s-3.16-.3-5.01-.357c-1.85-.06-4-.72-4.36-2.57-.36-1.85.06-2.69 2.45-4.24 2.39-1.55 4.18-3.29 4.3-6.69.12-3.41-2.09-5.62-6.03-10.16-3.94-4.54-5.73-8.67-6.27-9.74s-.777-.66-1.19.12c-.42.77-1.02 2.21-1.02 2.21s-1.31-.78-4.54-6.64c-3.22-5.86-4.18-10.46-4.65-12.91-.26-1.65-.9-.84-1.39-.4-2.62-7.46-2.475-16.66-3.2-23.81 0 0-2.6 2.55-4.1 7.53-1.37 4.57-1.32 9.94-.88 14.66.42 4.5 1.33 7.157 1.77 8.36.66 1.79-.3.72-.3.72s-2.27-3.943-3.82-11.42c-1.55-7.47-1.37-12.67-1.37-12.67s-.91.75-1.96 2.85c-1.05 2.1-2.1 6.31-1.74 13.92.37 7.62 3.21 15.66 4.68 18.39 1.47 2.73.11 1.11-.42.32-.52-.79-3.15-4.89-4.46-8.51-1.31-3.63-3.73-11.09-3.89-12.24-.16-1.16-.63-.42-1.11.58-.47.995-1.52 4.36-1.47 6.77.05 2.417.47 6.62 2.05 10.82 1.58 4.206 4.62 8.46 6.09 10.3 1.47 1.84.32.895-.37.37s.06.1-2.99-3.15-6.83-10.82-7.36-11.975c-.52-1.16-1.05.1-1.1.73-.06.63-.48 4.3 1.84 10.56 2.31 6.25 7.98 11.08 10.97 13.13 3 2.05.84 1.05-.68.16s-4.57-2.99-6.46-4.57c-1.89-1.58-5.25-5.73-6.2-6.46-.94-.74-1.15-.95-1.1 1.99s2.58 7.74 5.77 10.93c3.19 3.2 7.34 4.65 8.6 5.16 1.27.5.21.26-1.11-.11-1.31-.37-3.56-1-5.99-2.35s-5.99-4.15-7.18-5.07c-1.19-.92-1.03.348-.66 1.96.37 1.61 1.27 4.6 5.86 8.32 4.59 3.73 11.11 5.63 12.98 6.16 1.88.53.56.53.56.53s-.74-.1-4.53-.95c-3.8-.842-9.55-3.853-11.11-4.83-1.56-.98-1.79-1.344-1.58.717.21 2.06 2.4 6.47 5.91 8.53s9.84 3.12 11.48 3.2c1.63.08 1.21.32.47.37-.74.05-2.56.05-5.54-.29-2.447-.28-6.077-1.47-7.31-1.89a22.23 22.23 0 0 1-.32-1.35c-.146-.78-.55-.67-.814-.49-.26.17-.41.32-1.27.756-.87.44-.9-.09-.93-.35-.03-.26-.2-1.4-.23-1.98-.03-.58-.35-.61-.76-.44-.41.18-2.35.99-3.08 1.314-.73.32-.06.9.32 1.6.38.7.96 1.72.96 1.72s-1.83.49-2.41.64c-.58.14-.41.55-.26.96.14.41 1.04 2.448 1.28 3.03s.75.238.75.238l1.83-1.07.64 2.44c-.03.04-.85.19-1.77.84-.93.65-.69 1.48.41 1.81 1.11.32 2.41.88 3.84 3.47 1.43 2.6 1.8 7.28 2.68 14.65.88 7.37 5.59 11.13 6.24 11.59s.28.84.28.84-.65.93-.37 2.37 1.52 2.27 2.17 2.51c.64.23.46.88.46.88s-.33 1.57 0 4.45c.32 2.87 2.68 6.11 3.32 6.67.65.55.7.83.6 1.06-.09.23-.51.04-1.29.65s-1.66 1.44-2.22 2.46c-.56 1.02-.37 1.62-.19 3.01.19 1.39 2.22 2.64 2.22 2.64s-.37.1-.46 1.11c-.09 1.02.65 2.18 1.57 2.92.93.74 2.68 1.11 2.68 1.11s.14.88.23 1.48c.1.607 1.25 1.207 1.99 1.625.74.42 2.17.19 2.77-.09.6-.28 1.02.04 1.39.65.38.6.24 2.92.24 3.85 0 .93-.558 1.9-.23 2.36.32.46 1.2.13 2.08-.37.88-.52 1.11-.14 1.89.37.784.51 2.03.97 2.355.92.33-.043.19-.88.19-1.57s.13-2.27.45-2.5c.15-.11 1.51-.21 2.55-.65.49-.21 1.11-.42 1.16-.88.05-.464-.64-.464-2.17-1.25-1.52-.79-1.8-1.26-2.77-1.9-.97-.65-.51-.88-.51-1.16 0-.28.46-.6.65-.974s.1-1.205.1-1.205.787-.79 1.156-1.206c.37-.42.84-1.07 1.34-1.48s1.3-2.41 1.81-3.06c.5-.65 1.66-1.34 2.35-2.22.69-.88 2.54-2.32 3.6-3.01 1.07-.69 3.93-2.04 3.93-2.04s-.05 1.72.69 2.55c.74.84 1.71-.64 4.99-2.96 3.28-2.32 5.78-3.15 5.78-3.15s.7 1.06 1.57 2.18c.88 1.11 1.67-.05 5.69-5.61 3.17-4.39 7.35-8.4 8.97-9.9l.89.4c-.07.22-.16.46-.24.72-.37 1.16-.96 1.89-1.75 3.5s-1.98 1.98-3.36 4.15c-1.38 2.16-1.56 3.63-1.7 5.85-.14 2.21 1.1 2.67 1.1 2.67s-2.02 1.98-2.62 3.45c-.6 1.47-.92 4.46-.92 4.46s-.32.14-1.06 1.66-2.07 1.75-4.01 3.68c-1.94 1.94-4.1 2.77-5.11 3.36-1.02.6-.74 1.2-.46 1.98.27.78 1.65 1.57 3.27 2.17 1.61.6 2.16.37 3.27.32 1.1-.047.23.83-.23 1.29-.46.46-1.06 2.07-.97 3.87.09 1.8 1.43 1.38 3.08 1.1 1.66-.27 3.59-1.1 3.59-1.1l-.18.51c-.19.51-.28.87-.28 2.3 0 1.42.23 2.11.65 2.48.41.37 1.24-.41 1.84-.597.6-.19 1.61-.78 3.09-1.11 1.48-.326 2.03-.97 2.03-.97s-.37.46-.46 1.47c-.1 1.02-.05 2.53.18 3.41.23.88.88 1.94 1.89 2.86 1.01.922 1.24.51 1.98-.644.73-1.15 2.25-2.62 2.25-2.62s.09.37 1.1 3.64 4.33 5.99 4.33 5.99 3.318-2.71 4.33-5.98c1.01-3.27 1.1-3.64 1.1-3.64s1.52 1.48 2.26 2.63c.74 1.15.97 1.57 1.98.65s1.66-1.98 1.89-2.852c.23-.876.27-2.39.18-3.41-.09-1.01-.46-1.47-.46-1.47s.557.64 2.03.97c1.47.32 2.48.92 3.08 1.1.6.18 1.43.96 1.84.59.417-.37.65-1.06.65-2.48 0-1.43-.09-1.79-.28-2.3l-.183-.51s1.93.83 3.59 1.11 2.99.69 3.08-1.11c.09-1.79-.51-3.4-.97-3.87-.47-.46-1.34-1.33-.23-1.29 1.1.05 1.65.28 3.26-.32 1.61-.6 2.99-1.38 3.27-2.16.28-.78.55-1.38-.46-1.98-1.01-.6-3.18-1.43-5.11-3.36-1.93-1.94-3.27-2.16-4.01-3.69-.73-1.52-1.06-1.65-1.06-1.65s-.32-2.99-.92-4.46c-.6-1.48-2.62-3.45-2.62-3.45s1.243-.46 1.11-2.67c-.14-2.21-.32-3.68-1.7-5.848-1.38-2.17-2.58-2.54-3.36-4.15-.78-1.61-1.38-2.35-1.75-3.5a21.097 21.097 0 0 0-.24-.7c.4-.18.8-.35 1.19-.52 1.61 1.48 5.81 5.51 8.99 9.91 4.02 5.56 4.81 6.72 5.684 5.61.88-1.11 1.57-2.18 1.57-2.18s2.49.83 5.78 3.15c3.28 2.32 4.25 3.8 4.99 2.96.39-.44.47-1.16.52-1.72 0 0 1.88.55 4.04 1.31a69.7 69.7 0 0 1 3.8 1.48c2.84 1.2 3.15 1.82 5.41 3.605s5.48 1.61 8.53.69c3.04-.93 11.16-3.61 14.42-5.01 3.25-1.41 5.58-2.65 5.92-3.3.34-.65.72-2.48.72-3.13 0-.65-.72-1.61-.96-1.79-.24-.17-.14-.69-.07-1.1.07-.41-.13-1.65-.65-2.2-.51-.55-.44-.75-.37-2.34.15-3.35-2.25-7.57-5.63-8.92 0 0-.09-.39-.37-.62-.27-.23-.73-.43-.73-.43s.07-1.93.042-2.34c-.02-.41.16-.36.39-.25.23.12.6.58 1.14.71.55.135.89-.26 1.01-.874.12-.62.57-1.86.78-2.48.21-.62-.05-.71-.3-.78-.25-.07-1.07-.16-1.46-.25-.39-.09-.39-.11-.3-.32.1-.2.23-.53.73-1.31.51-.78.05-.81-.43-.97-.48-.16-2.65-.823-3.24-.92-.6-.09-.74.417-.74.67 0 .25.02 1.35.04 1.767s-.36.3-.59.19a8.447 8.447 0 0 1-1.17-.76c-.41-.32-.71-.02-.87.44-.16.46-.66 2.34-.82 2.89-.16.55-.11.986.12 1.08.23.09 1.3 0 1.94 0 .64 0 .28.36.28.36s-.69 1.123-.92 1.56c-.23.44-.62.504-1.14.504s-1.41-.01-1.41-.01-3.517.14-6.1 2.06c-2.59 1.93-3.32 3.52-3.717 4.45-.4.93-.86.73-1.26 1.06-.4.34-1.52 1.53-1.52 2.26s.26 1.12-.86 1.85c-1.13.73-2.06 3.92-.54 5.57 1.52 1.66 2.12 3.32 2.58 4.11.468.8 0 1.13-.393 1.13s-1.23-.68-1.93-1.19-4.19-3.255-5.7-4.38c-1.5-1.12-.4-.99-.4-.99s.39.04 1.27-.33 1.02-.83.14-1.11c-.88-.28-2.59-1.25-3.05-1.72-.46-.464-.69-.974.18-1.44.87-.46 2.82-1.714 1.29-2.13-1.52-.42-3.324-.74-4.8-1.16-1.48-.42-1.62-.834-1.62-.834l.97-1.39s.78-1.11-.14-1.25-3.14-.42-5.18-1.3c-4.06-1.76-6.61-4.74-7.55-8.38l.07-.09c.76 1.5 2.52 4.31 5.19 4.39 3.64.12 4.05-1.02 3.22-2.21s-1.79-2.27-2.03-2.63c-.24-.36-.3-.84.65.06s2.77 3.95 8.26 3.59c5.49-.35 5.47-1.43 5.47-1.73 0-1.05-1.12-1.22-1.78-1.88-.35-.34-.56-.85.55-.42s3.82.92 7.52.13c1.46-.31 5.32-2 5.7-3.96 0 0-2.46-.14-4.17-.88-1.72-.74-2.75-1.35-.93-.98 1.82.37 5.36 1.103 8.47.05 1.82-.62 4.17-2.09 4.17-4.78 0 0-3.38-.72-4.62-1.17-1.24-.45-1.63-.79-1.63-.79s4.82 1.53 9.21-.68c4.38-2.22 4.56-5.26 4.56-5.97s-.1-.92-.1-.92-3.99.98-6.97.95c-2.98-.03-3.9-.29-3.9-.29s8.34-.24 12.54-2.8c4.2-2.568 4.43-7.61 4.43-7.61s-4.75 1.69-7.73 2.03c-2.99.34-4.81.34-5.55.29-.74-.05-1.16-.29.48-.37 1.64-.08 7.97-1.14 11.48-3.2 3.51-2.06 5.7-6.47 5.91-8.53.21-2.06-.02-1.69-1.58-.71s-7.31 3.99-11.1 4.84c-3.8.85-4.54.95-4.54.95s-1.46-.07.42-.59zm-150.1 9.58c-.406.233-1.683.96-1.683.96s-.668-1.368-.842-1.775c-.174-.408-.087-.583.144-.583.23 0 .93-.203 1.48-.26a1.8 1.8 0 0 0 .21-.037c.18.525.42 1.094.74 1.665-.02.02-.04.03-.06.04zm51.18 29.97c-1.017 1.902-3.79 3.895-5.822 4.775s-4.25 1.16-5.175 1.297c-.924.14-.14 1.252-.14 1.252l.97 1.392s-.137.416-1.616.834c-1.48.416-3.28.74-4.805 1.158-1.525.416.416 1.668 1.293 2.133.878.47.647.98.185 1.44-.462.47-2.17 1.44-3.05 1.72s-.74.75.14 1.12c.877.37 3.28.84 3.28.84s-.046.1-1.524 1.21c-1.48 1.11-4.067 1.86-5.776 1.95a76.73 76.73 0 0 1-7.84.05c-3.428-.15-3.822-.23-3.822-.23s-.118-1.14-.355-2.84c-.236-1.69-1.26-4.09-2.048-5.2a277 277 0 0 0-2.442-3.31s.04-.47.157-1.02.04-1.14-.36-2.18c-.402-1.04-2.404-2.56-2.404-2.56s-.08-1.12-.08-2.16-.72-5.12-1.363-7.04c-.64-1.92-3.764-6.97-5.206-9.37-1.442-2.4-2.298-5.96-2.734-8.73-.436-2.77-.26-3.67-.116-4.4.064-.32.2-.61.328-.86a8.59 8.59 0 0 0 2.318 2.08c4.195 2.57 12.533 2.81 12.533 2.81s-.924.26-3.905.29c-2.98.03-6.96-.95-6.96-.95s-.1.21-.1.92.19 3.75 4.57 5.97c4.38 2.22 9.21.69 9.21.69s-.39.34-1.63.79-4.61 1.16-4.61 1.16c0 2.7 2.35 4.17 4.17 4.79 3.11 1.06 6.65.32 8.47-.05 1.82-.37.79.24-.92.98s-4.17.88-4.17.88c.38 1.97 4.24 3.65 5.7 3.96 3.7.8 6.41.3 7.52-.13s.9.08.56.43c-.66.66-1.77.82-1.77 1.88 0 .3-.03 1.37 5.46 1.73s7.31-2.69 8.27-3.59c.96-.9.9-.42.66-.06s-1.19 1.44-2.03 2.63c-.83 1.2-.41 2.33 3.23 2.21 2.68-.09 4.46-2.93 5.21-4.42l.05.07.15.2c-.34.88-.93 2.32-1.58 3.54zM335 78.19c-.496-.945-.76-1.39-.76-1.39s2.07.97 3.3 2.36c1.23 1.394 1.203 2.128 1.387 2.812.184.683 0 1.942-.183 3.124-.184 1.18-.184 1.89.053 2.31.235.42.445.63.445.63s-.918.237-1.78.58c-.865.34-1.99.655-2.618.13-.63-.525-.785-.893-.392-1.234.392-.342 1.857-.762 2.04-3.282.18-2.52-.99-5.094-1.49-6.04zm-11.28 6.857c.472-1.197.666-2.34.305-4.792-.303-2.06-.703-3.826-.805-6.047 0 0 1.528.335 3.723 2.34 2.193 2.007 2.695 4.07 2.695 5.073 0 1.01-.53 2.23-.612 3.21-.083.98.277 1.84.277 1.84s-.806.33-1.527.84c-.722.5-1.222.81-2.333.76-1.112-.05-1.78-.55-2.418-.89s-1.054-.39-1.054-.39 1.27-.72 1.74-1.92zm-10.7-8.498c2.195-2.01 3.722-2.35 3.722-2.35-.1 2.22-.5 3.98-.806 6.04-.36 2.45-.166 3.59.306 4.79.473 1.2 1.75 1.92 1.75 1.92s-.416.05-1.056.39c-.638.33-1.305.83-2.417.89-1.12.05-1.62-.25-2.34-.76-.73-.5-1.53-.84-1.53-.84s.36-.87.27-1.84c-.09-.98-.61-2.2-.61-3.21.01-1.01.51-3.07 2.7-5.07zm-7.91 12.19c-.63.52-1.754.21-2.62-.13-.863-.35-1.78-.58-1.78-.58s.21-.21.446-.63c.236-.42.236-1.13.052-2.31-.183-1.18-.367-2.44-.183-3.13.183-.69.157-1.42 1.387-2.81 1.23-1.39 3.3-2.36 3.3-2.36s-.263.44-.76 1.39c-.498.94-1.676 3.52-1.492 6.04.184 2.52 1.65 2.94 2.042 3.28.39.34.23.71-.4 1.23zm29.24 21.08c-2.162 1.19-3.396.93-3.308 1.81.09.88 2.027 1.55 2.027 1.55s-1.99 2.12-3.53 3.09c-1.54.97-3.36 1.59-3.36 1.59s-.62.09-.27 1.06c.35.97.97 1.63 1.45 1.9.48.26.75.35.75.35s-2.69 2.87-3.88 3.8c-1.19.93-1.86 1.24-2.83 1.64-.97.4-.49 1.99-.27 2.7.22.7 1.05 1.68 1.54 1.81s.66.48.04 1.46c-.46.72-2 2.66-2.74 3.72l-.05.02c-.73-1.06-2.29-3.02-2.75-3.75-.62-.98-.44-1.33.04-1.46s1.32-1.11 1.54-1.81c.22-.71.7-2.3-.27-2.7-.97-.4-1.63-.71-2.82-1.64-1.19-.93-3.88-3.81-3.88-3.81s.26-.09.75-.35c.48-.27 1.1-.93 1.45-1.91s-.27-1.06-.27-1.06-1.81-.62-3.35-1.59c-1.54-.97-3.53-3.1-3.53-3.1s1.94-.67 2.03-1.55c.09-.89-1.15-.62-3.31-1.81s-2.87-2.7-2.87-2.7 2.51-.84 3.75-3.36c.43-.89.54-1.7.49-2.39l.1.04c4.01 1.3 8.7 1.83 12.9 1.83 4.19 0 8.88-.53 12.88-1.83l.09-.03c-.05.68.05 1.5.49 2.39 1.23 2.52 3.75 3.36 3.75 3.36s-.7 1.51-2.86 2.71z" fill="#B96B29"/>
<path d="M347.47 158.5c0-6.785 3.122-11.076 3.122-11.076l-8.493-9.73c-8.09 3.127-15.5 3.317-22.1-.04-6.6 3.357-14.01 3.167-22.1.04l-8.5 9.73s3.12 4.29 3.12 11.076c0 6.786-1.32 11.82-2.08 15.103-.77 3.283-1.42 9.41.33 13.79 1.75 4.376 3.61 8.207 11.16 11.38s11.49 4.815 14.12 7.005c2.62 2.187 3.94 3.938 3.94 3.938s1.31-1.752 3.94-3.938c2.62-2.19 6.56-3.83 14.11-7.004 7.55-3.174 9.41-7.005 11.16-11.38 1.75-4.38 1.09-10.508.32-13.79-.76-3.28-2.07-8.31-2.07-15.1z" fill="#D4AF3A"/>
<path d="M344.8 161.3c-1.065-6.48 2.67-12.19 2.67-12.19l-7.27-8.5c-5.602 3.147-13.398 2.724-20.174-.393-6.774 3.116-14.573 3.54-20.173.393l-7.27 8.5s3.735 5.71 2.668 12.19c-1.06 6.48-3.36 16.736-2.78 20.92.58 4.183 3.53 9.023 6.57 11.566s7.55 4.677 10.75 5.825c3.2 1.15 6.32 3.37 7.8 4.52 1.48 1.15 2.46 2.14 2.46 2.14s.99-.98 2.46-2.13 4.6-3.36 7.8-4.51c3.2-1.14 7.71-3.28 10.75-5.82 3.04-2.54 5.99-7.38 6.56-11.57.57-4.2-1.73-14.45-2.8-20.93z" fill="#B96B29"/>
<path d="M344.1 162.07c-1.053-6.998 2.104-12.635 2.104-12.635l-6.563-7.308c-5.54 2.85-12.28 2.113-19.63-.434-7.34 2.547-14.08 3.282-19.63.434l-6.56 7.308s3.16 5.637 2.11 12.635-2.66 14.924-2.35 19.57c.02.32.06.644.1.972h5.98s.35-.403 1.01-.687c.67-.287.86-.478.86-.478s.13-1.207.86-1.46c.73-.256 1.05-.256 1.33-.256s.51-.06.86-.41 1.3-1.2 1.71-2.41.67-1.68.67-2.48c0-.79.29-2.06.29-2.06s-.16-.38-.76-.16-.69-.38-.76-.98c-.06-.6-.03-1.84.32-2.41s.48-.76.48-.76l-.25-.95s-3.8.76-4.46-2.19-.79-4.38-.88-4.7c-.09-.32-.19-.48-.7-.44-.5.03-1.58-.31-2.34-1.84-.76-1.52-.82-2.16-.6-2.76.22-.6.63-.38.76-.19s1.14 1.65 1.55 1.24c.41-.41.19-.41-.38-1.56s-.38-1.52-.32-2.09c.07-.57-.19-1.33-.19-1.65 0-.32.35-.57.7-.41.35.16.67.42.83.61.16.19.22.48.54.29s.13-1.24.13-1.59c0-.35.41-.6.92-.32.5.29.76.83.76 1.21 0 .39.03.73.22.73s.41-.57.44-.95c.03-.38.25-.95.6-.47s.48 1.18.35 1.91.13.35-.13 1.62c-.25 1.27-.38 1.84-.34 2.8.04.95.07 1.49.54 2.67.48 1.18.86 2.54 1.74 2.57.89.03 1.14.03 1.14.03s.99-1.9 1.75-2.35c.76-.44 1.84-.51 2.6-.6.76-.1 1.08-.32 1.08-.51s-.25-.25-1.17-.38c-.92-.13-1.68-.35-1.71-1.05-.03-.7.16-1.3-.44-1.33-.6-.03-2.09-.51-2.63-1.49s-.41-1.2-.35-1.74c.07-.54.76-1.62 1.21-.6s.73 1.14 1.11 1.36c.38.23.89.29.63-.41s-.41-1.14-.35-1.65c.07-.51.41-.73.83-.82.41-.09 1.65-.48 2.28-.6.63-.12.67-.19.67-.19s.07-.44.89-.7a5.958 5.958 0 0 1 1.97-.28c.6 0 1.05.09 1.84-.29s1.42-.44 1.93-.41c.51.03.89.22 1.27.48s.25.6.25.95.07.54.6.54c.54 0 1.02 0 1.52.19s1.2.47.76 1.01c-.44.54-.47 1.15-.76 1.11-.28-.03-.25.29-.38.48s-.22.35.1.54c.32.19.35.38.79.79.45.41 1.11.86.45 1.53-.67.67-1.84 1.21-1.84 1.21s-.67.32.09.76 1.11 1.36 1.4 1.52c.29.16.57.41.76.51.19.09.16.73.16.73s-.41.28-.98.51c-.57.22-1.17.47-1.71.47s-.82 0-.6.51c.22.51.61 1.05.7 1.34.1.28.22.79.22.79s.88.19 1.68.19c.79 0 1.14.03 2.88-.16s2.25-.25 3.93-.06c1.68.19 1.93.13 2.37.29.44.16.89.38.89.38s2.38-.04 3.68-.32c1.3-.29 1.61-1.12 1.43-1.56-.19-.44-.16-1.11-2.44-1.43-2.28-.32-3.2-.19-5-.54-1.81-.35-4.63-1.27-5.13-3.52-.51-2.26 1.33-3.21 2.25-3.65.91-.45 2.91-1.15 3.83-1.53.91-.38 2.59-.76 4.37-.51 1.77.25 2.78.73 3.48.32.69-.42 1.26-.1 1.14.54-.13.64-.83 1.94-2.82 2.54-2 .61-4.4.67-5.7.32-1.3-.35-2.28-.86-3.07-.57-.8.28-1.68 1.27-.83 2.44.85 1.18 5.22 1.52 6.39 1.65 1.18.13 5.51-.19 6.75 1.97 1.24 2.16.26 4.57-1.2 5.11-1.45.54-2.69.89-3.8 1.04s-1.11.16-1.11.16.51 1.15.51 1.62c0 .48-.06 1.37.48 1.72a3.4 3.4 0 0 0 2.22.51c.92-.09 2.03.54 2.09 1.37.06.83.32 1.97.41 3.62.1 1.65 0 3.02 0 3.02s-.06.64-.28 1.24c-.22.6-1.36 2.94-1.36 2.94h6.38c.05-.32.08-.65.1-.97.26-4.71-1.35-12.63-2.4-19.63z" fill="#1D5E91"/>
<path d="M294.42 185.72c1.25 3.57 3.826 7.187 7.748 9.55 5.45 3.28 7.804 2.848 12.944 6.192 5.14 3.344 4.83 3.902 4.893 3.902s-.248-.56 4.894-3.902c5.14-3.345 7.49-2.91 12.94-6.193 3.92-2.37 6.5-5.98 7.74-9.55h-51.16z" fill="#6D8C3E"/>
<path d="M298.88 158.13c.585.615 1.017.802 1.91.71.894-.095 1.11.555 1.263 1.263.154.71.154 2.372.8 3.912.647 1.54 2.804 1.633 2.804 1.633.06-.743.32-1.742.647-2.557.058-.14.338-.83-.432-.83s-.74-.31-1.2-1.04c-.462-.74-1.356-2.71-1.57-3.97-.216-1.26.184-3.14.4-3.82.215-.67.246-1.14 0-1.26-.248-.12-.74 0-.74 0s.185.59-.032.68c-.215.1-.4-.3-.553-.73-.155-.43-.34-.37-.647-.34-.308.03-.308.31-.092.62.215.31.092.86.092.86s-.678-.49-.955-.61c-.277-.12-.924.12-.986.49-.07.37.24 1.33.83 1.82.58.49.58 1.51.4 1.97-.19.46-1.05.4-1.23.19a.525.525 0 0 0-.81 0c-.25.28-.5.44.09 1.05zm-.34-1.63s-.34-.276-.462-.43c-.123-.156-.37-.495-.37-.495s-.062.154-.062.524.4.77.4.77l.49-.37zm1.29-4.28c.278-.123.493-.186.278-.493-.216-.308-.4-.647-.617-.71-.21-.06-.4-.03-.4-.03s.25.556.31.895c.06.34.16.46.43.34zm1.61-1.3c-.03.277.03.4.277.277.247-.124.34-.462.215-.71-.123-.245-.4-.43-.4-.43l-.185-.124c-.02 0 .11.71.08.98zm2.3.37c.03-.308-.093-.646-.093-.646s0 .37-.154.586c-.154.215-.123.154.03.34.15.19.18.03.21-.28zm3.62 15.66c.453 1.05 1.604-.595 2.65-1.925 1.045-1.33 1.01-.313.87.77-.138 1.085.28 2.24.7 2.975.417.732.766.313.94-.212.174-.522.313-1.607.662-2.132s.697-.07.732.384.592 1.47 1.115 2.063c.52.596.76-.21.94-.943s.38-1.854.52-2.31c.14-.454.62-.07.62-.07s.35.35 1.04 1.015c.69.666.76-.385.83-.907.07-.526-.11-1.68.1-1.856.21-.174.8.246 1.71.702.9.453.87-.42.76-.91-.11-.49-.63-1.61-1.36-2.238-.73-.63-.84-1.364-.59-1.68.24-.313 1.11-.035 1.67-.104.56-.07.83-.14 1.25-.208.41-.07.41-.49.41-.49s-.31-.525-.91-1.05-.94-.943-1.68-1.12c-.73-.174-1.74 0-1.74 0l-.11-.21c-.1-.208-.31-.208-.45 0-.14.21-.49.49-.77.735-.28.24-.45.38-.63.27-.17-.11.14-.35.14-.35s.38-.28.73-.98.46-1.37.18-1.68c-.28-.32-1.05 0-1.47 0-.42 0-.66.07-.7-.14-.04-.21.42-.11.94-.18.52-.07.84-.7 1.01-1.23s.31-.46.63-.14c.31.31.59.24.66.03.07-.21.35-.74.69-1.26.35-.53.55-1.26.17-1.75-.39-.49-1.33-.43-1.71-.11-.38.31-.63.62-.73 1.39-.11.77-.32.35-.32.1s-.31-.63-.17-.95c.14-.31 0-.66 0-.66s-.07-.66-.8-.81-1.57.03-2.3.21-.6.8-.6.8-.56.03-1.15.1c-.59.07-1.29.31-1.85.45-.55.14-.76.21-.76.49s.1.73.1.73.45 0 .7.14c.24.14.1.38-.18.49-.28.1-.39.14-.39.49s.14.42.42.42.87 0 1.57.31c.7.31.87.94.8 1.29-.07.35-1.04.8-1.53.8s-.63.1-.63.42c0 .31.59.28.59.28s.59.03 1.74.17 1.32.38 1.85.84c.52.45.14.56-.11.7-.25.14-.63.45-1.01.59-.39.14-.63.42-.98.49s-1.22.03-2.82.66-2.16 2.73-2.16 2.73.21-.08.94-.46c.73-.39 1.64-.81 2.48-1.33.83-.52.83.25.42.98-.42.73.38.59.62.38.24-.21.56-.42 1.36-.84s.52.25.52.25-.25.49-.31 1.64c-.07 1.15 1.15.07 1.71-.67s.8 0 .38.84c-.42.84-1.22 1.5-1.67 1.5-.46 0-.8-.49-.84-.77s.14-1.12-.14-1.33c-.28-.21-1.08.04-1.67.38-.6.35-.74.07-.87-.25-.14-.32.21-.42.07-.63-.14-.21-.46 0-.7.1-.25.1-.8.42-1.88.98-1.09.55-1.01.87-1.01 1.67s.2.99.65 2.04z" fill="#D4AF3A"/>
<path d="M317.82 149.44c.227-.144.64-.31.64-.31s.514-.122.987-.185c.473-.062.39-.33.287-.555-.102-.23-.287-.31-.903-.31-.61 0-1.01.31-1.36.452-.35.145-.76.248-.76.248s.09.103.31.433c.22.35.57.39.79.24zm2.52 2.5c.247 0 .515-.145.515-.145s.45-.227.865-.37c.41-.145.576-.207.822-.7.247-.495-.268-.495-.987-.68-.72-.187-1.07.06-1.152.33-.084.267-.063.575-.35 1.09-.29.51.04.47.29.47zm-.23.63c-.7 0-1.48 1.05-1.77 1.235s-.124.37-.124.37.206.433.287.844c.084.41.104 1.11.104 1.11s.103.04.514.04c.42 0 .66-.21 1.06-.5s.7-.4 1.26-.5c.56-.1.83-.21 1.44-.54.62-.33-.33-.91-.98-1.44-.66-.51-1.07-.62-1.77-.62zm-9.31 2.42c.554-.062.8-.338.8-.646s-.28-.647-.985-.585c-1.735.15-3.417-.47-3.727-2.19 0 0-.585 1.07.493 2.28 1.09 1.2 2.87 1.2 3.43 1.14zm-5.91 27.32a.755.755 0 0 0 .306.305h2.658c.453-.127.456-.544.478-.832.026-.343.29-1.317.657-3.084.36-1.77.99-3.03 1.26-3.74s-.27-.95-.45-1.4c-.19-.45-.48-1.24-.55-1.63-.08-.4-.71-.35-1.05-.32s-.4.58-.45 1.1c-.05.52-.29 2.08-.55 3.42-.27 1.34-1.79 3.13-2.21 3.53-.42.39-.76.55-1.05.55s-.92 0-1.24.18c-.32.18-.63.68-.66 1.08-.03.39.6.6.6.6s.5-.29.68-.53c.18-.24.6-.29 1.02-.37.42-.08.47.07.31.28-.16.2-.11.25.21.81zm-4.07-.14c-.2.07-.348.27-.44.437h1.738a.934.934 0 0 0-.168-.437c-.21-.26-.77-.13-1.13 0z" fill="#D4AF3A"/>
<path d="M303.18 182.12c-.212.115-.468.303-.598.49h1.87c.066-.175.087-.408-.142-.595-.42-.35-.84-.06-1.13.1zm16.22-.77c-.204 0-.385.182-.68.385-.292.204-.382.52-.427.77a.17.17 0 0 0 .01.11h.795a.145.145 0 0 0 .053-.11c0-.227.09-.43.43-.725.35-.3.03-.43-.17-.43zm1.56.86c0-.248-.09-.475-.27-.452s-.475.34-.723.52c-.138.102-.24.236-.317.337h1.174c.07-.14.14-.29.14-.41z" fill="#D4AF3A"/>
<path d="M328.18 173.58c.563-.408.474-.52.495-.95.022-.432.022-.567-.203-.725-.226-.16-1.06-.52-1.85-.52s-2.28.18-2.845.564c-.565.38-.836 1.76-.836 2.49s.12.83.32.83.54-.52.54-.52.75.97 1.2 1.65c.45.68.25.95.05 1.47s-.95 1.9-1.53 2.19c-.59.29-1.04.02-1.74-.09-.7-.12-1.08.09-1.49.49s-.02.72.23.72.59-.03.86.31c.19.23.06.77-.03 1.08h3.46c.59-.26 1-1.07 1.16-1.52.18-.5.93-1.16 1.29-1.5.36-.34.41-.57.41-1.32s-.2-1.18-.47-1.7c-.27-.52-.47-1.27-.38-1.7.06-.46.81-.93 1.37-1.34z" fill="#D4AF3A"/>
<path d="M322.49 164.95c.346.562.174.67-.323.776a5.694 5.694 0 0 1-1.81.13c-.776-.065-.756.043-.776.432-.02.388-.08 1.208-.54 1.81-.45.605-1.01.368-1.35.13s-.54-.173-.67.26-.36.733-.73 1.38c-.36.646-.6.668-.86.603s-.49-.45-.75-.47-.67-.54-1.05-1.16c-.39-.62-.58.07-.84.61s-.51.93-1.01.86c-.49-.06-1.05-.99-1.33-1.55s-.45-1.1-.88-1.08c-.43.02-1.14.93-1.62 1.17-.47.24-.6.15-.82-.15-.21-.3-.49.11-.77.82s.02 1.32.41 1.51c.39.2 1.17-.37 1.68-.71.52-.34.76-.26 1.3-.26s.49.89.73 2.18c.24 1.3.99 1.47.99 1.47s.26.22.84-.77c.59-.99.65-1.96 1.21-1.96.56 0 .61.13 1.17.91s1.04 1.36 1.36.78c.32-.58.61-1.44.97-1.74.36-.3.71-.39.32.18-.39.56-.56 1.17.24.93s3.84-1.46 5.07-1.7 1.45-.24 3.11-.32c1.66-.09 2.07-.2 2.71-.2.65 0 .67-.06.72-.5.04-.43-.3-.34-1.51-.34s-2.05.15-2.89.28c-.84.13-1.23.11-1.08-.11.15-.21.39-.36 1.36-.51.97-.15 2.95-.26 3.99-.28 1.03-.02.71.3.62.99-.08.69.09 1.71.15 2.35.07.65.09.84.65 1.75s2.5 1.46 3.06 1.77c.56.3.48 0 .46-.54-.02-.54.43-.52.93-.24s1.32.52 1.9.67c.58.15.67.26.67.56s.07.97.13 1.6c.07.63.04.82-.21 1.21s-1.36 1.51-1.36 1.51-.49 0-1.55.26-1.38.76-1.49 1.19.2.56.24.73c.02.1.01.33 0 .52h.25c.09-.15.21-.35.38-.56.37-.48 1.29-.58 1.9-.3.39.19.4.6.36.86h2.41c.32-.63 1.1-2.13 1.3-2.59.26-.58.41-.95.43-1.74s.11-3.88-.04-4.05c-.15-.17.04-.69 0-1.55-.05-.86 0-1.51-1.6-1.66-1.6-.15-2.09-.82-2.63-1.36-.54-.54-.41-1.79-.84-3.3-.43-1.51-1.49-1.75-3.36-2.11-1.88-.36-3.26-.41-4.66-.28s-3.15.33-4.12.24c-.95-.12-.8.16-.45.72z" fill="#D4AF3A"/>
<path d="M331.55 182.27a1.183 1.183 0 0 0-.346.342h1.63a.636.636 0 0 0-.16-.472c-.24-.3-.72-.13-1.12.13zm2.92-.11a1.48 1.48 0 0 0-.54.452h1.652a.644.644 0 0 0-.01-.19c-.05-.26-.55-.54-1.1-.26zm-40.72 1.03c.092.512.212 1.03.36 1.553h51.786c.15-.52.27-1.04.36-1.553H293.75zm34.9-24.74c1.636 1.09 6.83 1.147 9.27 1.636 2.438.487 2.268 2.353 1.52 3.328-.746.977-4.177 1.094-4.792 1.176.332.23.832.947.832.947s.374-.027 1.406-.115c1.032-.085 2.84-.343 4.075-1.377 1.24-1.032 1.15-2.696.06-3.815-1.09-1.12-2.9-1.234-4.73-1.435-1.83-.2-3.27-.345-5.33-.69-2.06-.343-3.07-1.175-3.07-2.38 0-1.206 1.12-1.837 1.93-2.067.81-.23 2.1-.572 3.24-.144 1.15.43 2.5.487 4.77.202 2.27-.288 2.79-1.866 2.79-1.866s-.29.144-1.44.172c-1.15.028-1.98-.487-4.07-.518-2.1-.028-2.84.72-3.82 1.063-.97.345-3.58.604-4.36 2.296-.77 1.7.12 2.5 1.76 3.59z" fill="#D4AF3A"/>
<ellipse cy="150.64" cx="315.04" rx=".977" ry=".962" fill="#B96B29"/>
<path d="M336.02 152.28c-1.293-.114-2.986.23-2.986.23s.315.258.746.23c.43-.03 1.206-.06 2.468.17 1.263.23 2.18-.373 2.18-.373s-1.12-.14-2.41-.26z" fill="#B96B29"/>
<path d="M323.74 176.38c-.316-.498-.407-.452-.77-.135-.36.316-.725-.77-.77-1.45-.045-.676.27-2.758.27-2.758s-1.764.362-2.713.678c-.95.317-1.854.408-2.623.59s-1.176.36-1.583.27c-.4-.09-1.26-.135-1.94-.135s-.63.136-1.31.814c-.68.677-.86 1.04-1.4 2.307-.54 1.27-.72 2.45-.9 3.98-.12 1.01-.31 1.71-.43 2.07h8.11c.1-.26.23-.58.34-.83.21-.46.66-.76.98-.91s.6-.15.74-.5c.15-.36.56-.66.98-.85s1.17-.08 1.85.11c.68.19.91-.27 1.1-.53.19-.25.28-.61.64-1.08.36-.47.09-.89.09-.89s-.33-.22-.65-.72zm13.01.22c-.105-.468-.063-.53-.34-.596-.276-.064-.743-.148-1.146-.317-.403-.17-.36.913-.36.913s-.958.104-2.04-.02c-1.083-.13-2.357-1.105-2.804-1.425-.445-.318-.935-1.04-.935-1.04s-.34.318-.68.51-.53.87-.594 1.55c-.06.68.79 1.508.85 2.188.07.68-.74 2.04-1.14 2.592-.27.38-.63 1.186-.83 1.657h3.92a2 2 0 0 1 .42-.658c.4-.404 1.09-.49 1.09-.49s0-.17.15-.53.56-.785 1.53-1.168c.98-.382 2.15-.446 2.15-.446s.47-.382.81-.913c.34-.53.09-1.33-.02-1.8z" fill="#1D5E91"/>
<path d="M304.15 219.77c.73.243 2.09-.29 2.772-1.118.68-.827.924-2.093 1.41-2.82.486-.73.84-1.272.84-1.272s-.105 1.202-.75 2.813c-.615 1.536-.722 3.637-.576 4.537.292 1.8 1.46 2.09 2.14 1.847.517-.184 1.3-.98 2.02-2.177.226-.38.385-.903.607-1.324.462-.875.875-2.31 1.08-2.27.45.09.16 1.102-.01 1.783-.34 1.36-1.02 3.35-1.07 4.57s.1 3.4 1.314 3.5c1.216.09 1.848-.98 2.528-3.46.68-2.48.828-3.26 1.12-3.26.29 0 .29 1.7.29 2.43 0 .25.01.94.11 1.63.19 1.33.577 2.92.96 3.27.584.53 1.07.43 1.07.43s.486.1 1.07-.44c.584-.54 1.07-4.19 1.07-4.92s0-2.43.29-2.43c.295 0 .44.78 1.12 3.26.682 2.48 1.313 3.55 2.53 3.45 1.215-.1 1.362-2.29 1.313-3.5s-.73-3.21-1.07-4.57c-.342-1.37.145-1.27 1.07.48.288.54.587 1.21.88 1.68.648 1.03 1.278 1.65 1.746 1.81.68.24 1.848-.05 2.14-1.85.292-1.81-1.07-6.96-1.07-6.96l.584.87c.486.73.73 1.99 1.41 2.82.68.83 2.044 1.36 2.773 1.12s.83-1.61.3-4.04c-.53-2.43-2.72-3.8-4.28-5.74-1.43-1.79-2.53-4.94-2.7-5.43-1.96.97-3.68 2.07-5.23 3.69-3.22 3.36-3.92 4.2-3.92 4.2s-.7-.84-3.92-4.2c-1.56-1.63-3.29-2.74-5.26-3.71-.18.41-1.52 3.42-2.96 5.23-.72.9-1.71 1.58-2.41 2.44-.81 1-1.31 2.21-1.6 3.51-.52 2.42-.42 3.78.31 4.03z" fill="#D4AF3A"/>
<path d="M304.06 228.01c.942-.83 1.427-1.286 1.427-1.286s.685-.57.514.515c-.17 1.08-.54 3.31-.31 4.28.23.97.34 1.79 1.54 1.08 1.2-.72 1.49-1.14 2.06-1.74.57-.6 1.17-.86 1.03.08-.14.94-.57 2.36-.37 4.28.2 1.91 1.14 2.19 2.37.57a21.51 21.51 0 0 0 2.34-3.91c.37-.8 1.12-1.49 1.12 0 0 3.19.74 7.83 4.25 9.07 3.53-1.24 4.26-5.88 4.26-9.08 0-1.49.74-.8 1.11 0 .37.8 1.12 2.28 2.34 3.91 1.23 1.62 2.17 1.34 2.37-.57.2-1.92-.23-3.34-.37-4.28s.46-.69 1.03-.09c.57.6.86 1.02 2.06 1.74 1.2.71 1.32-.12 1.54-1.09.23-.97-.14-3.2-.31-4.28-.17-1.09.52-.52.52-.52s.49.46 1.43 1.29c.94.83 2.23.88 2.23.88s.61-3.35-.79-5.35-1.91-2.65-1.91-2.65-.79-.05-1.39-.28c-.6-.23-1.19-.67-1.19-.67v1.85s1.71 1.62 2.11 2.11c.4.48 1.2 1.31.03.51s-2.14-1.6-2.14-1.6-.23 1.68-.71 2.11c-.48.42-1.17.48-1.45.37l-.28-.12-.08.65s1.06 1.97 1.2 2.77c.15.8-.08.71-.57-.32-.48-1.03-1.42-2.34-1.85-3.06s-1.05-1.2-1-.29c.06.91-.31 2.57-.62 3.17-.31.6-.51.8-.51.8s.66 2.31.74 2.74c.09.42.03.91-.34.37-.37-.55-1.43-2.83-1.43-2.83s-1.39-.06-1.79-.46c-.4-.4-1.03-1.94-1.03-1.94s-.57 1.96-1.05 2.6c-.47.63-1.57 1.26-1.57 1.26s-.08 3.41-.16 4.02c-.08.6-.1.86-.36.86-.25 0-.28-.26-.36-.87-.07-.61-.15-4.02-.15-4.02s-1.1-.63-1.57-1.26-1.04-2.6-1.04-2.6-.63 1.54-1.03 1.94c-.4.4-1.8.45-1.8.45s-1.05 2.28-1.42 2.82c-.37.54-.42.06-.34-.37s.74-2.74.74-2.74-.2-.2-.51-.8c-.31-.6-.68-2.25-.62-3.17.06-.92-.57-.43-1 .28s-1.37 2.03-1.85 3.05-.71 1.11-.57.31 1.2-2.77 1.2-2.77l-.08-.66-.29.12c-.29.11-.97.05-1.46-.37-.48-.43-.71-2.11-.71-2.11s-.97.8-2.14 1.6c-1.17.8-.37-.03.03-.52s2.11-2.11 2.11-2.11v-1.85s-.59.43-1.19.67c-.61.23-1.4.27-1.4.27s-.51.65-1.91 2.65-.79 5.35-.79 5.35 1.3-.04 2.24-.86zm17.17 22.31c-.902-1.055-1.203-1.58-1.203-1.58s-.3.525-1.202 1.58c-.904 1.053-3.01 2.708-3.01 2.708s.188 2.784 1.204 4.287c.85 1.27 1.67 2.43 3 3.31 1.33-.88 2.15-2.04 3.01-3.31 1.01-1.503 1.2-4.287 1.2-4.287s-2.11-1.66-3.01-2.71z" fill="#D4AF3A"/>
<path d="M319.57 253.73c.083.646.028 2.28.42 2.28s.337-1.635.422-2.28c.083-.646.11-2.195.11-2.195h-1.066c.01-.01.04 1.54.12 2.19z" fill="#B96B29"/>
<path d="M319.98 100.87c-3.766.064-8.184-.456-10.615-1.36l-2.592.57c4.007 1.51 7.355 2.094 13.207 2.153 5.853-.06 9.2-.644 13.206-2.153l-2.593-.57c-2.43.9-6.85 1.42-10.62 1.36zm13.7-3.143c-.3-.25-2.013-1.47-2.46-1.694-.447-.225-.1-.822-.024-1.07.074-.25 2.012-.8 3.08-1.073 1.068-.274.895-.5.895-.5s-.62-.722-4.49-1.145c-3.87-.423-10.68-.324-10.68-.324s-6.8-.1-10.68.33c-3.87.43-4.49 1.15-4.49 1.15s-.17.23.9.5c1.07.28 3.01.82 3.08 1.07.08.25.42.85-.02 1.07-.45.23-2.16 1.45-2.46 1.7-.3.25-.32.65.15.68.47.03.48.02 1.81-.25 3.99-.79 7.75-1.01 11.73-1.07 3.98.06 7.74.28 11.73 1.07 1.33.27 1.34.28 1.82.25.47-.02.45-.42.15-.67z" fill="#D4AF3A"/>
<path d="M329.27 99.373c-2.66-.315-4.347-.66-9.27-.615-4.922.043-6.61.3-9.27.615 1.675.672 4.384 1.01 9.27 1.01 4.89 0 7.6-.34 9.27-1.007zM319.18 62.89l2.03-.165-.19-1.774 2.18.31.09-1.75-2.29.21.4-1.89-2.52-.02.44 1.92-2.22-.21v1.75l2.2-.25zm4.43 2.87h-2.726v-2.325a4.018 4.018 0 0 0-.805-.08 3.98 3.98 0 0 0-.72.064v2.34h-2.82a3.05 3.05 0 0 0-.12 1.33h7.3c.02-.13.02-.27.02-.4a3.59 3.59 0 0 0-.16-.94z" fill="#D4AF3A"/>
<path d="M320.08 70.032c1.62 0 2.997-.954 3.485-2.276h-6.972c.49 1.323 1.87 2.276 3.49 2.276zm1.5-6.384v1.598h1.808c-.37-.706-1.01-1.275-1.81-1.598zm-3.01 0c-.79.323-1.434.892-1.81 1.598h1.81v-1.598z" fill="#1D5E91"/>
<path d="M322.17 93.312c-.688-.325-2.188-.966-2.188-.966s-1.426.703-2.2 1.092c-.776.388-.676.275-.914.84s.024.765.362.915c.338.15 2.79 1.406 2.79 1.406s2.426-1.13 3.013-1.41c.59-.28.478-.55.314-.98-.16-.43-.49-.58-1.17-.9z" fill="#B96B29"/>
<path fill="#D4AF3A" d="M317.64 94.027l2.4 1.222 2.37-1.23-2.43-1.14zm2.34-9.38s-.202.848-.473 1.207c-.27.36-.476.68-.398 1.12.07.436.57.728.87.728.29 0 .79-.292.87-.73.08-.437-.13-.758-.4-1.118-.26-.36-.47-1.206-.47-1.206z"/>
<circle cy="88.56" cx="320" r=".451" fill="#D4AF3A"/>
<path d="M318.39 86.24s.78-.866 1.068-1.415c.29-.548.524-1.04.524-1.04s.234.492.523 1.04c.29.548 1.068 1.415 1.068 1.415s1.097-.578 1.73-2.684c.637-2.107-.145-4.33-.433-6.724s-.52-6.52-.52-6.52c-.83.475-1.616.677-2.37.69-.754-.014-1.54-.216-2.37-.69 0 0-.23 4.125-.52 6.52-.29 2.396-1.068 4.617-.433 6.724.64 2.106 1.73 2.684 1.73 2.684z" fill="#D4AF3A"/>
<ellipse cy="81.506" cx="319.98" rx="1.894" ry="1.828" fill="#B96B29"/>
<ellipse cy="77.22" cx="319.98" rx="1.822" ry="1.759" fill="#B96B29"/>
<ellipse cy="73.121" cx="319.98" rx="1.738" ry="1.677" fill="#B96B29"/>
<ellipse cy="81.178" cx="319.98" rx="1.004" ry=".968" fill="#D4AF3A"/>
<ellipse cy="76.905" cx="319.98" rx=".966" ry=".931" fill="#D4AF3A"/>
<ellipse cy="72.82" cx="319.98" rx=".847" ry=".817" fill="#D4AF3A"/>
<path d="M319.93 224.04c.117.024.14-.277.163-.835.022-.556.094-1.9.23-2.688.14-.79-.208-.742-.417-.695-.208.046-.323.648-.323.997 0 .34.092 2.34.092 2.75s.14.44.255.46z" fill="#b96b29"/>
<g id="a">
<path d="M300.28 239.41c.84-.534 1.57-1.126 3.478-2.392 1.907-1.267 2.608-2.673 2.608-2.673h-.673c-.365 0-.673-.507-.7-1.013-.03-.507 0-1.547.14-2.757.14-1.21-.197-2.194-.197-2.194s-.813.76-2.047 1.41c-1.24.65-1.74.34-1.74.34l-.31-1.23s-.54 1.13-1.29 2.45c-.76 1.32-2.81 2.79-4.27 3.88-1.46 1.1-3.06 2.26-4.27 2.68-1.21.42-.51.99-.51.99s1.2 1.21 4.32 1.77 4.6-.7 5.44-1.23z" fill="#d4af3a"/>
<path d="M311.17 238.2c-1.112-.117-1.777-.537-1.992-1.745-.14-.787.057-3.798.057-3.798s-.365.31-.786.817c-.43.505-1.38.618-1.38.618s-.14.422-.56 1.096c-.42.677-.96 1.493-2.02 2.167-1.07.676-2.3 1.464-3.12 2.14-.82.675-1.77 1.463-2.84 2.053-1.07.59-2.02 1.548-2.39 3.122-.37 1.575-.09 2.082 1.15 1.998 1.23-.085 1.37.028 3.36-.48 1.99-.505 4.82-2.727 6.9-4.05 2.08-1.322 3.59-3.938 3.59-3.938z" fill="#d4af3a"/>
<path d="M316.69 240.02s-.842-1.067-1.15-2.28c-.31-1.208-.897-3.6-.897-3.6s-.28.76-.954 2.193c-.68 1.436-1.83 1.774-1.83 1.774s-.06.618-1.01 1.828c-.96 1.21-2.36 2.334-3.79 3.18-1.43.842-3.29 1.998-4.3 3.432-1.01 1.435-1.1 2.925-.62 3.572.47.64 1.15-.09 2.1-.57s3.67-.9 7.43-2.93c3.76-2.03 4.99-6.61 4.99-6.61z" fill="#d4af3a"/>
<path d="M318.32 248.44c1.038-1.547 1.207-5.315 1.207-5.315s-.364-.253-.87-.677c-.504-.422-1.486-1.912-1.486-1.912s-.61 1.293-1.29 2.503c-.67 1.21-1.01 1.63-2.41 2.92s-3.31 2.56-4.12 3.94c-.81 1.37-.36 4.13.17 5.06.53.93 1.29.62 2.08-.14s1.04-.96 2.41-2.14 3.29-2.71 4.32-4.25z" fill="#d4af3a"/>
<path d="M305.98 216.89c.552-1.128 1.176-2.496 1.68-3.19.503-.697.863-1.49.863-1.49s-1.344 1.225-1.872 2.09a9.388 9.388 0 0 0-1.1 2.64c-.24.934-.12 1.077.44-.05zm5.33.96c.216-.745.337-1.24.337-1.24s.217-.72.097-.768c-.12-.05-.673.447-1.057 1.67-.385 1.225-.96 3-.84 3.07.12.074 1.247-1.988 1.463-2.732zm4.2 3.38c.24-.527.24-.55.24-.55s.432-1.393.432-1.68c0-.288-.144-.624-.503.095-.37.72-.39 1.415-.46 1.728-.07.312-.48 1.392-.36 1.488.12.1.41-.55.65-1.08zm-13.04 12.8l-.562-.338s-.336.45-.813.957c-.477.5-1.01.7-1.375 1.18-.364.48-.926 1.07-1.795 1.52s-1.206.59-1.037.73c.168.14.757-.2.757-.2s.252-.03 1.29-.65 1.29-.96 1.963-1.55 1.572-1.66 1.572-1.66zm4.55 5.38c.393-.422.813-.704.59-.93-.226-.224-.506-.196-.87.113-.365.31-1.403 1.293-1.88 1.716-.477.42-.87.67-1.346 1.04-.477.36-1.515.92-2.02 1.21-.504.28-.027.31-.027.31s.393-.2.813-.34c.42-.14 1.626-.68 1.626-.68s.477-.23 1.122-.68c.645-.45 1.6-1.35 1.992-1.77zm5.24 3.63c.336-.674-.028-.48-.59-.252-.56.225-1.822 1.604-2.55 2.11s-1.348.702-1.964 1.013c-.617.31-.617.48-.588.62.027.14.28.14.532.03.253-.11 1.122-.62 1.122-.62s.365-.11.702-.14c.337-.03.813-.39 1.57-1.04.756-.65 1.43-1.04 1.766-1.71zm2.44 4.81c-.926.563-2.524 1.828-2.945 2.673-.422.845-.702 1.435-.562 1.575.14.14.59-.14.786-.48.19-.336.61-.843.61-.843s1.6-1.574 2.18-1.94 1.54-1.406 1.77-2.025c.22-.62.05-.956.05-.956s-.98 1.433-1.91 1.996z" fill="#b96b29"/>
<path d="M289.99 113.28c-.848-.498-3.128-1.473-5.556-1.68-2.426-.204-4.302.16-6.316.705-1.443.39-2.612.45-3.768.14-1.737-.463-3.084-2.03-3.542-3.952 0 0-1.602 2.054.036 4.283.787 1.072 1.812 1.742 2.856 1.953 3.4.68 6.733-1.39 9.564-1.58 2.72-.18 4.854 1.54 4.854 1.54s.643.53 1.55 0 1.17-.94.322-1.43z" fill="#c52126"/>
<path d="M280.2 211.66s-.334-.033-.802-.1c-.468-.068-1.47-.403-1.772-.538-.3-.133-.77-.167-1.07.168-.3.336-2.742 1.777-2.742 1.777h4.046c1.404 0 2.34-1.307 2.34-1.307z" fill="#d4af3a"/>
<path d="M291.59 210.97v-.404l-.54-1.16s-.628.394-1.24 1.028c-.79.82-1.64 1.97-2.018 2.456-.674.863-1.616 1.675-.808.296.808-1.378 1.077-1.972 1.723-2.89.647-.92 1.132-1.324 1.052-1.38-.09-.053-.6-.133-2.3-.35-1.7-.217-2.75-.864-3.53-1.324-.78-.46-2.19-1.215-2.19-1.215s-2.88 1.215-3.96 1.485-1.73.432-.68.946c1.05.513 1.94.675 2.45.998.51.326 2.1.838 3.07.838.97 0 2.61.026 1.96.702-.65.677-1.38 1.974-2.08 3.944-.7 1.974-.73 3.73-.73 4.594s.1 1.728.1 1.728 1.18-1.322 4.36-3.32c3.18-2 4.36-2.676 4.95-2.947.59-.27.89-.27.78-1.025-.11-.757-.43-2.62-.43-3z" fill="#d4af3a"/>
<path d="M303.73 201.31c-.192-.086-.39-.175-.59-.268a.698.698 0 0 0-.146.052c-.373.187-2.312 1.492-3.095 2.76-.79 1.268-1.57 1.38-.71 0 .85-1.38 1.49-2.163 2.16-2.76.26-.23.49-.422.67-.57-1.56-.75-3.26-1.662-4.9-2.803-.21.43-.62 1.18-1.08 1.66-.67.71-2.17 1.31-2.17 1.31s1.19-1.23 1.6-2.16a9.56 9.56 0 0 0 .52-1.62 21.093 21.093 0 0 1-3.21-3.06c-.2.81-.85 2.77-2.76 4.91-2.5 2.8-7.49 4.22-7.49 4.22s-1.76.19-.34.56 2.42 1.01 5.18.52c2.76-.48 2.94-.59 3.32-.7.37-.11 1.38-.04 0 .48s-4.59 1.01-5.82.9c-1.23-.11-2.91-.37-1.16.56s2.5 1.31 3.58 1.31 1.53.34 2.57.34 1.34-.18 2.09-.33c.74-.15 1.23.11 1.23.41s-1.01 1.12-.97 3.17c.03 2.05.18 3.4.37 3.99.19.6.63 1.57.93 2.13.29.56.41 1.12.7-.07.29-1.19.97-2.91 1.23-4.06.26-1.16.41-1.19.52-1.79.11-.6.74-1.04.44.04s-.64 2.46-.86 3.43c-.23.97-.75 2.76.15 1.35.89-1.41 4.25-5.18 4.81-5.85s1-1.31 1.41-1.86c.41-.56 1.57-1.3 2.13-2.12.5-.74 1.99-2.19 2.62-2.7-.95-.4-1.95-.83-3.01-1.3zm-46.36-86.08c.09 2.055 2.364 5.987 3.658 8.087 1.294 2.1 1.65 2.947 1.428 3.082-.224.13-.76-.94-1.473-1.88-.714-.94-2.096-3.13-3.256-4.78s-2.855-5.59-3.078-5.94c-.23-.36-.32-.58-.9-.14-.58.44-1.7 4.78-.36 7.73 1.34 2.95 3.34 5.09 4.19 6.12.84 1.02 1.96 2.63 1.78 2.77-.18.13-.49-.27-1.52-1.34s-2.72-2.91-3.84-4.25c-.91-1.09-2.14-3.3-2.57-4.09-.17-.3-.38-.22-.53-.06-.37.37-.96 1.22-.7 3.57.36 3.26 2.05 5.14 3.57 6.79 1.51 1.65 3.03 3.04 2.81 3.26s-1.79-1.16-2.86-2.19c-1.07-1.03-3.71-3.58-4.28-4.29-.58-.72-1.43-.36-1.39 2.45s3.16 5.67 4.46 7.24c1.29 1.56 2.9 2.5 2.76 2.81-.14.31-1.43-.49-2.28-1.07-.85-.58-4.02-2.64-4.64-3.08-.63-.45-.94.4-.14 3.08.8 2.68 3.12 4.82 4.51 5.8 1.38.98 3.61 2.19 3.48 2.5-.14.31-1.07-.09-2.37-.72a26.06 26.06 0 0 0-3.97-1.52c-1.12-.31-1.12.49-1.12.49s-.23 2.28 1.42 4.11 3.52 2.55 5.31 2.86c1.78.31 2.05.4 2.01.67-.05.27-.23.31-.63.31s-2.05.18-3.57.18-2.32.35-2.32 1.02-.04 1.56 2.23 3.08c2.28 1.52 4.82 1.74 5.89 1.97 1.07.22 1.12.31.89.62-.22.31-.71.27-2.41.44-1.69.17-2.72.85-2.94 1.29-.22.45.13 1.79 1.52 2.72 1.38.94 3.17 1.25 5.84 1.07 2.67-.18 3.34-.23 3.43.22.09.45-.81.58-2.14.81-1.34.22-2.37.22-3.13.85-.76.62-.18 1.92 1.11 2.86s4.51.93 5.85.84 3.39-.58 3.52-.22-.98.89-2.36 1.38c-1.39.49-1.79.8-2.06 1.38-.27.58-.04 1.12 1.61 1.74 1.65.63 4.06.63 5.31.05s1.92-.8 2.14-.58c.22.23 0 .45-.27.76s-1.34 1.16-2.72 1.52-1.52.36-2.01 1.47c-.49 1.11.76 2.01 3.25 2.1 2.5.09 5.84-.89 6.91-1.52 1.07-.63 1.47-.76 1.65-.54.17.23.13.36-.4.76-.54.41-2.24 1.61-3.08 1.83-.85.22-.94.85-.94 1.43s-.22 1.74 2.01 2.28 4.86.14 7.27-1.56c.77-.55 1.22-1 1.48-1.39-.2-2.28-.09-3.85.18-5.29a8.813 8.813 0 0 1-2.29-.56c-1.34-.54-1.88-1.79-2.19-2.46-.32-.67-.76-.67-1.3-.49-.54.18-1.07.4-1.83.36s-2.37-.45-3.53-1.83c-1.16-1.38-.94-2.72-.99-3.39-.05-.67-1.12-.18-1.65-.18-.54 0-2.1-.23-3.53-1.21-1.43-.99-1.43-2.33-1.56-2.86-.13-.54-.71-.9-1.16-1.08-.45-.18-1.16-.36-2.14-1.16-.98-.81-1.34-2.37-1.38-2.9-.05-.54-.63-.58-2.63-1.61s-1.83-3.17-1.74-4.02c.09-.85 1.03-1.56 1.03-1.88 0-.31-.67-.4-1.34-.8s-2.37-1.08-2.41-3.58c-.05-2.5 1.6-2.77 1.6-2.77s-.32-.14-.98-.54c-.67-.41-2.5-1.66-2.5-3.13s.66-2.15 1.16-2.51c.49-.35 1.82-.71 1.82-.71s-.85-.53-1.21-1.7c-.36-1.16-.49-2.59.36-3.61s2.27-1.02 3.03-1.02 1.43.4 1.69.18c.27-.23.31-.4.05-.98s-.31-2.01-.09-2.5c.22-.5.27-1.48 2.19-2.1 1.91-.63 3.92.67 4.55 1.02s.35-.5.35-1.12c0-.63-1.29-2.19-2.77-4.42-1.47-2.24-2.14-3.4-3.79-6.79s-2.72-7.78-2.94-8.89c-.22-1.12-.67-.59-.67-.59s-.45.18-1.47 2.77-1.2 4.96-1.12 7.01z" fill="#d4af3a"/>
<path d="M291.02 160.92c-1.15-.058-2.643-.69-3.792-2.358-1.148-1.67-2.873-2.073-5.86-2.016-2.99.058-4.368-1.38-5.115-3.45-.747-2.074.115-4.434 3.16-5.93s4.425-3.165 4.54-5.753c.114-2.59-3.045-5.813-6.206-9.438s-5.63-8.748-5.63-8.748-.92 1.21-.92 2.417.46 2.474 0 2.82c-.46.345-.632-.518-2.47-1.324-1.84-.806-3.333-.92-4.482.403s0 3.625 1.034 4.72c1.03 1.092 1.89 1.9 1.6 2.302s-1.84-.633-2.36-.98-1.73-1.667-3.51-1.495-2.42.69-2.59 2.187c-.17 1.496 1.61 2.818 2.76 3.395 1.14.574 1.6 1.093 1.32 1.322-.29.23-.58 0-1.1-.17-.52-.174-1.96-.346-2.87 0-.92.344-2.42 1.61-1.04 3.164s4.25 2.13 4.83 2.243c.57.12.86-.05.92.41.05.46-1.21.46-2.76.52s-2.01 1.56-1.78 2.71 2.81 2.42 4.25 2.65c1.44.23 1.95 0 2.07.4.11.4-.17.58-.98.81-.81.23-2.36.41-2.65 1.67-.29 1.27-.35 1.84.86 2.94 1.2 1.09 3.16.92 3.73.81.57-.11 1.26-.75 1.84-.17.57.58-.52 1.04-1.5 1.73s-.92 2.02.75 2.94c1.66.92 3.33.57 4.02.35s1.61-1.32 2.07-.63c.46.69-1.44.92-2.24 1.9-.81.98-.52 2.59 1.09 3.57s4.25.29 4.71-.11c.46-.4 1.03-.57 1.38-.23.34.34-.17 1.26-.52 2.07-.34.81-.98 3.17 1.44 4.09 2.41.92 4.6-1.15 5-1.55.4-.4.8-.46 1.15-.28.35.18.17.52-.11.92s-.92 2.13.8 3.34c1.18.83 2.46.76 3.16.64.36-1.34.83-2.78 1.31-4.8H290c-.23 0-.28.35-.28.48s.07.26-.14.26c-.204 0-.23.12-.53.33-.3.21-.57.46-.734.35-.16-.11.62-.53.83-.78.204-.25.62-.64.64-.92.024-.27.16-.44.576-.78.13-.1.23-.23.31-.36.28-1.34.55-2.91.797-4.81a38.08 38.08 0 0 0 .3-3.65l-.76-.04zm-49.11-35.87c2.567 5.193 6.192 8.117 6.192 8.117s-.476-1.29-.687-2.177c-.21-.888-.046-1.892-.046-1.892s-.91-1.167-2.6-3.758-2.57-6.42-2.57-6.42 1.56 3.83 2.77 5.86a31.43 31.43 0 0 0 2.61 3.69s.49-1.797.84-1.89c.35-.094.6.186.91.582.3.397.56.36.56.36s-.42-.857-1.06-1.885c-.29-.467-.72-.97-1.02-1.443-.96-1.512-3.02-4.385-4.08-7.26-1.05-2.874-3.37-10.082-3.77-12.2-.4-2.118-.81-.96-1.21.605-.41 1.56-.96 3.78-.61 7.1s1.16 7.41 3.72 12.6zm3.32 14.02c.956.706 2.366 1.663 2.366 1.663s-.223-.52-.364-1.146-.2-1.912-.2-1.912-1.127-.988-1.91-1.672c-.785-.685-1.77-1.57-3.72-3.987-1.95-2.417-.383-.966 1.205.766s4.625 4.248 4.625 4.248 0-.04.02-.563c.02-.523.182-.906.463-1.268.282-.37.133-.42-1.58-1.73-1.71-1.31-6.14-6.3-7.953-9.28-1.813-2.98-3.776-7.01-3.776-7.01s-.956 5.95 2.67 12.5c3.623 6.55 7.198 8.67 8.154 9.37zm19.02 37.53c1.986-.77 1.442-2.73 1.442-2.76s-1.218.385-2.338.8c-1.122.42-3.877 1.22-4.966 1.252-1.088.032-1.088-.127-1.12-.288-.033-.16.832 0 2.4-.288 1.57-.29 4.326-1.733 4.806-2.053.48-.322.416-.387-.288-.45-.705-.064-1.313-.386-1.57-.61-.255-.224-.992.098-2.786.516-1.795.41-5.51 1.05-8.362 1.05s-5.51-.48-5.958-.58c-.45-.1-.93.16.45 2.47 1.376 2.31 6.214 3.56 9.577 3.53 3.363-.04 6.727-1.83 8.713-2.6zm-8.94-4.77c3.47.03 4.764-1.002 4.764-1.002s0-.177-.47-.883-.382-1.914-.382-1.914-.824.15-2.265.36c-1.44.21-3.117.41-4.97.09s-1.058-.53.412-.35c1.47.18 4.29-.35 5.2-.67.91-.32.53-.62-.09-.82-.62-.2-2.3-1.26-2.3-1.26s-4.21.53-8.12.09c-3.91-.44-6.38-1.44-7.18-1.56s-.77.21-.77.21-.21.35 1.14 2.47 4 3.51 6.23 4.16c2.23.65 5.29 1.09 8.76 1.12zm-.89-8.13s-.147-.206-.353-.914c-.206-.707.382-1.236.382-1.236s-.8-.235-3.39-.56c-2.59-.324-2.74-.53-4.33-.884-1.59-.353-2.65-.824-2.62-1s.53.088 1.47.44c.94.354 4.91.766 6.58 1.002 1.68.235 2.62.413 2.91.235.29-.177 1.32-.442 1.32-.442s-.71-.2-1.59-.35a5.607 5.607 0 0 1-2.15-.85c-.47-.32-.62-.41-2.74-.64-2.12-.23-3.83-.91-7.62-2.3-3.8-1.38-6.65-3.03-7.41-3.65-.77-.62-.71-.17-.5.62.2.8.17 1.8 2.08 4.04 1.91 2.24 2.85 3.21 7.67 4.98 4.82 1.77 10.24 1.53 10.24 1.53zm-14.26-11.75c4.264 3.004 9.26 4.107 10.32 4.24.24-.278-.257-1.276-.03-1.885.277-.73.737-.736 1.766-.795 1.03-.06.353-.266.118-.266s-.294-.03-2-.47c-1.706-.44-3.44-.708-5.792-1.592-2.353-.883-3.058-1.53-3-1.708.06-.176 1.088.56 3.265 1.385 2.176.82 4.705 1.14 6.087 1.44 1.382.29.176-.3-.47-.68-.648-.39-1.56-1.8-1.56-1.8s-1.53-.27-4.028-1.03c-2.5-.77-4.587-1.62-6.675-2.8-.71-.41-1.41-.93-2.15-1.47-1.43-1.03-2.87-2.08-3.43-2.48-.85-.62-.59-.12-.5.26s.68 2.15 2.03 4.09c1.36 1.94 1.8 2.53 6.06 5.53zm-.7-8.45c4.205 3.33 7.82 4.357 8.44 4.623.616.266.558-.088.44-.44-.118-.355-.207-1.502-.207-1.502s-1.5-.85-3.176-1.82c-1.676-.97-3.528-2.29-4.763-3.15-1.235-.85-.5-.79-.118-.47.382.33 2.088 1.33 3.793 2.39s4.29 2.59 4.29 2.59.06-.56.41-.91 1.23-.26 1.23-.26-.44-.44-.71-.85c-.27-.41-1.65-.85-3.21-1.59-1.56-.73-4.36-2.79-6.41-4.53-2.06-1.73-6.06-6.09-6.33-6.45-.27-.35-.44-.29-.47.15-.03.44-.18.73.26 2.74.44 2 2.3 6.19 6.5 9.51zm14.88-31.47c.477.99 1 1.738 1.375 2.383.568.974.888 1.605.888 1.605s.114-.343.024-.928-.18-1.396-.022-2.363c.083-.518.195-1.034.167-1.494-.033-.523-.208-.975-.28-1.273-.134-.564-.74-3.016-1.033-4.748-.3-1.733-.61-4.208-.59-6.392.02-2.183.33-1.08.33-.022s.11 2.68.45 5.176c.33 2.498 1.39 6.3 1.39 6.3s.06-.584.38-1.417.83-1.777 1.23-2.813c.4-1.035.26-1.208.26-1.208s-1.48-7.066-1.87-10.406c-.39-3.34-1.01-12.116-1.01-12.116-2.16 2.173-3.77 7.892-4.05 13.3-.22 4.076.44 7.848.63 9.377.38 3.03.9 5.4 1.7 7.04zm-4.79 11.15c.067-1.6.435-2.81 1.467-3.166 0 0-.913-1.6-1.71-3.883-.546-1.56-.997-3.56-1.226-5.1-.56-3.78-1.01-7.69.12-1.3 1.13 6.39 2.49 8.65 2.49 8.65l1.64 2.66c-.24-1.16-.28-1.98-.22-3.26s.23-3 .62-4.37-1.97-3.95-3.21-8.7-1.95-9.07-1.97-11.64c-.11-2.49-.17-3.45-.17-3.45s-2.03 1.53-2.7 9.27c-.68 7.75 1.35 15.15 2.37 17.98 1.01 2.83 2.54 6.33 2.54 6.33zm22.16 59.06s-.32-.224-1.28-.834c-.962-.608-.673-2.438-.673-2.438s-.256.192-.962.674c-.705.48-1.505 1.025-2.466 1.41s-1.45.643-2.05.835c-.61.193-.45-.063.06-.353.51-.288.67-.45 1.95-.962 1.28-.514 3.84-2.76 3.84-2.76s-.61-.064-1.67-.096-2.41-.577-2.41-.577-1.06.96-5.32 2.79-7.88 2.31-7.88 2.31.45 2.18 2.5 2.92c1.7.73 4.04 1.18 8.62.09 4.58-1.09 7.72-3.02 7.72-3.02zm5.61 4.37c.353-1.8-.673-3.05-.673-3.05s-.224.128-.864.706-1.57 1.67-3.364 2.566-2.44.834-.71-.097 4.26-3.56 4.26-3.56l-.67-.258c-.68-.257-1.83.192-6.64 3.08-4.81 2.887-7.63 2.984-7.63 2.984s2.14 2.6 7.97 2.41c5.83-.19 7.94-2.98 8.29-4.77zm11.02-2.09s-.64.897-1.506 1.475-3.17.93-3.17.93-.097.258-.545.835c-.45.578-1.45 1.958-2.47 2.696-1.03.738-2.63 1.218-2.73 1.025s.93-.57 1.92-1.18c.99-.61 1.89-1.73 2.56-2.5.67-.77-.29-.64-.29-.64s-1.22.03-2.34-.06c-1.12-.1-.9 0-1.22.55s-.77 1.03-1.6 1.99c-1.02 1.18-1.98 2.24-2.95 3.4-.64.77-.16 1-.16 1s.29.48 2.88.77c1.6.18 3.34-.02 5.16-1.08 1.13-.65 2.3-1.69 3.49-3 3.1-3.4 2.94-6.19 2.94-6.19zm1.38 7.02c-.64.835-.994 1.188-.994 1.188s.45-1.38.833-2.022c.2-.342.42-.667.59-.894-.43-.964-.78-2-1.04-3.117-.29.923-1.18 3.63-2.28 5.392-1.35 2.148-2.53 2.92-1.76 3.495.77.578 2.27.707 3.97-.128 1.64-.805 2.11-2.21 2.34-3.346a17.23 17.23 0 0 1-.81-1.394c-.21.13-.52.376-.87.826z" fill="#d4af3a"/>
<ellipse cy="105.75" cx="289.34" rx="1.192" ry="1.092" fill="#d4af3a"/>
<path d="M286.83 103.69c1.088-.026 1.673-.54 2.874-.425 1.417.138 3.337.964 5.67 2.202 1.822.824 4.23 1.236 6.547.57.65-.186 1.3-.54 1.92-.89 2.84-1.607 2.15-4.772 2.15-4.772-2.09 1.51-4.68 2.32-7.09 2.156 0 0 .19.14.6.56.41.42 1.17.9.92 1.1-.25.21-1.28-.78-2.15-1.42-.87-.64-2.15-1.51-4.34-2.15-2.19-.64-4.66-.69-6.31.23-1.64.92-1.78 2.07-1.55 2.53.13.26.43.34.79.34zm30.81 23.11c-.503-.138-1.37-.275-2.514-1.33-1.144-1.054-3.887-4.082-4.208-4.632-.32-.55-.183-1.055.595-1.377.777-.32 1.326-1.33 1.326-1.33s-1.7-.64-2.84-1.46c-1.15-.82-3.8-3.21-4.16-3.8s-.19-.69.36-.87c.55-.18.68-.55.68-.55s-1.24-.78-2.38-1.69c-1.15-.91-2.7-2.43-2.7-2.43-1.71.69-4.4.4-5.85.14-2.56-.45-4.44-1.51-4.44-1.51s-.1.42-.42 1.2c-.32.78-1.51 1.24-2.7.46-1.19-.78-.92-2.47-.92-2.47s-.96-.59-2.93-1.33-3.57-.82-5.17-.09c-1.6.74-2.38 2.94-2.38 4.59s.87.97 1.05.74c.18-.23.55-1.42 2.56-1.74 2.01-.32 3.84.65 6.12 2.52 2.28 1.88 2.79 2.02 3.93 3.21 1.14 1.2.23 1.84-1.74 2.48s-4.48-.64-4.57-.59c-.38.19.84 1.94 2.54 2.6 1.7.66 3.86.23 5.55-.44 1.14-.46 1.36.02 1.69.37 1.86 1.96 2.34 3.78 2.65 6.01.95-.29 1.61-1.24 1.74-2.02.06-.37.18-1.19.82-.59.64.6 1.14 3.9 1.14 5.41s-.46 3.53-.46 3.53l.46-.04c.27-.04.82-.36 1.55-.78.73-.41.78.05.78.87s.27 2.39 1.37 5.19 2.7 3.72 2.7 3.72.32-.55.64-1.65c.32-1.1.55-3.26.55-5.14s-.51-5.92-.51-5.92 2.28 2.8 4.66 3.49c2.38.69 4.76.27 5.76-.87 1-1.15.08-1.65-.42-1.79zM302 134.04s-.722 1.597-1.116 2.166-.57.658-.57.658.723.612 1.774.94c1.05.33 1.992.525 1.992.525s-1.183-1.63-1.598-2.76c-.416-1.14-.482-1.53-.482-1.53z" fill="#d4af3a"/>
<path d="M316.28 133.1c-.35-.897-.57-1.4-.57-1.4-1.458.29-4.226-.394-5.428-1.117 0 0 1.095 2.23 2.19 2.998 1.094.77 1.247.81 1.247.81s-1.1.18-2.57-1.26c-1.47-1.44-2.13-3.11-2.13-3.11s.33 3.86-.27 6.22-.72 2.67-.72 2.67 3.1.55 6.56-.41c3.46-.96 3.72-1.27 3.72-1.27s.41-.11-.13-.83c-.55-.72-1.58-2.38-1.93-3.28z" fill="#d4af3a"/>
<path d="M310 124.64c-1.064-1.223-1.17-1.516-1.17-1.516s-.372.372-.054.905c.32.53 1.835 1.86 2.872 2.44a7.4 7.4 0 0 0 2.074.77l-.053-.21s-2.61-1.17-3.67-2.39zm-4.22 8.03s-.266-4.84-.266-5.558-.452-.532-.452-.532l-.53.24 1.04 7.076c.112.762.487.697.68.663-.38-.2-.456-1.67-.472-1.89zm-6.53-20.95c-.395-.394-1.283-.69-.427.264.855.954 1.975 2.14 2.303 3.128.33.987.527 2.204-.032 1.94-.56-.263-.955-.263-1.547-.756-.593-.494-1.71-1.318-2.172-1.448-.46-.132-1.283 0-.625.723.658.73 1.383 1.42 2.633 2.34 1.25.92 1.975 1.32 2.633 1.78.658.46 1.316.86 1.316.86s-.593-3.95-1.68-5.69-2.007-2.73-2.402-3.12zm-21.34 66.15c-.802.608-1.853.857-1.853.857s-.498-.026-.498.167.58 0 1.18-.11 1.44-.72 1.74-.94c.3-.223.74-.5.6-.888s-.39.305-1.19.914zm6.89 3.69c-.166.192-1.493 1.19-1.493 1.19s-.415.276-.858.442c-.45.167-.56.417-.56.417s.08.1.55-.03c.47-.14 1.85-1.11 2.29-1.5.44-.39.63-.5.47-.67-.17-.17-.25-.06-.42.14zm-27.93-49.63c.248.302.55.715.688.577.138-.137-.028-.275-.358-.66-.33-.386-.522-.58-.522-.58s-.467-.743-.743-1.02c-.275-.274-.688-.412-.165.22.523.636.853 1.16 1.1 1.463zm-2.12 4.65c.302.277.577.523.907.88s.578.744.77.552c.193-.193-.495-.605-.797-.992-.303-.386-.55-.633-.936-.936s-.853-.55-.853-.55.61.77.91 1.046zm.79 7.51c.525.553 1.3.72 1.41.5.11-.223-.055-.4-.496-.62-.44-.22-1.155-.69-1.513-.937a7.612 7.612 0 0 1-.96-.77c-.24-.25-.54-.472-.63-.388-.09.085.73.968.98 1.107.25.138.69.554 1.22 1.108zm1.52 6.01c0-.22.054-.33-.388-.36-.442-.027-1.05-.11-1.05-.11s-.858-.332-.914-.166c-.055.167.72.5 1.05.555.333.05.747.16.94.27.195.11.362.02.362-.2zm.66 6.53c-.94 0-1.742-.223-1.797-.084s.442.36.913.526c.47.167 1.356.222 1.964.25s.72-.11.69-.415c-.027-.306-.83-.277-1.77-.277zm7.36 7.15c-.138-.138-.47-.027-.996.083-.524.112-1.382.278-1.88.25s-1.576-.055-1.576-.055l-.608.138c0 .14.8.11 1.963.25 1.16.138 1.935-.11 2.488-.195.56-.08.75-.33.61-.47zm3.04 5.09c-.58.222-.995.276-1.438.276-.442 0-1.493.194-1.493.194s-.5.056-.42.25c.08.193.25 0 .69-.056.44-.056.77 0 1.55-.027.77-.028 1.21-.223 1.68-.305.47-.084.99-.333.74-.638-.25-.303-.75.084-1.33.306zm5.92 3.85c-.332.333-1.604 1.19-1.604 1.19s-.25.195-.747.444-.47.36-.39.5.38-.195.66-.306 1.19-.722 1.66-1.107c.47-.39 1.07-.69.96-.97-.11-.27-.22-.08-.55.25zm-9.85-49.85s.11.253 1.13 1.53c1.023 1.278.476.073.22-.253-.256-.33-1.75-2.444-2.262-3.03-.51-.583-.583-.29-.328.073.256.365 1.24 1.68 1.24 1.68zm-2.15 6.56c.146-.146-.183-.292-.766-1.02-.584-.73-1.75-2.226-1.75-2.226s-.33-.693-.44-.62c-.108.072.402 1.166.876 1.642.475.474 1.094 1.386 1.423 1.787s.51.583.657.437zm2.83 12.3c0-.357-1.155-.303-1.677-.413-.523-.11-1.458-.303-1.458-.303s-1.1-.193-1.128-.055c-.028.13.22.27.825.38.605.11 1.513.38 2.2.49s1.238.25 1.238-.11zm-2.83-6.64a10.2 10.2 0 0 0 1.678 1.13c.4.22.73.55.95.293.218-.257-.184-.438-.84-.73-.657-.292-.985-.547-.985-.547s-.365-.182-.694-.365c-.33-.18-.88-.4-.11.22zm6.6-4.38c-.475-.4-.876-.622-.876-.622s-.583-.547-.693-.365c-.1.184.66.73 1.03 1.058.37.33 1.02 1.28 1.35 1.1.33-.18-.33-.76-.8-1.16zm-4.31 17.14s-.637.165-1.05.276-.443.306.304.306 1.05-.194 1.797-.334c.75-.138 1-.22.89-.47-.11-.25-.5-.166-.8-.083s-1.13.305-1.13.305zm1.16 6.21c-.055.14.525 0 .912-.138.387-.14 1.19-.553 1.66-.692.47-.138.47-.222.47-.5 0-.275-.5-.055-1.106.14-.608.194-1.383.804-1.383.804s-.498.248-.553.386zm7.99 3.76c.554-.334.665-.582.47-.75-.193-.164-.36-.137-.8.223-.444.36-1.3.97-1.3.97s-.443.166-.775.332-.747.443-.636.61c.11.165.8 0 1.16-.306.36-.31 1.32-.75 1.88-1.08zm3.77 4.99c.22-.195.884-.414 1.19-.637.303-.222.497-.886.248-.97s-.387.277-.912.664c-.526.39-2.323 1.58-2.323 1.58l-.47.193c-.5.193-.277.333.138.277.42-.057.7-.057 1.19-.442.5-.388.72-.47.94-.665zm5.58 4.73c.47-.193 1.162-.803 1.494-1.106.33-.306.746-.693.498-.887-.25-.193-.525.056-.913.414-.39.37-1.42 1.45-1.42 1.45s-.14.03-.69.47c-.56.45.02.36.22.17.19-.19.33-.3.8-.5z" fill="#b96b29"/>
<path fill="#d4af3a" d="M305.58 96.588l2.25-1.598-2.65-.68-1.7 1.358z"/>
<ellipse rx="2.146" ry="2.069" cy="94.716" cx="312.78" fill="#b96b29"/>
<ellipse cy="94.278" cx="312.78" rx="1.295" ry="1.237" fill="#d4af3a"/>
<path d="M308.3 87.608c.552.205 1.27.115 1.27.115s.217-.952-.308-1.416c-.525-.462-1-.796-1.308-1.105-.308-.31-.384-.413-.384-.413s0 .82-.04 1.33c-.037.51.22 1.27.77 1.48z" fill="#d4af3a"/>
<ellipse cy="88.65" cx="309.44" rx=".394" ry=".373" fill="#d4af3a"/>
<path d="M306.51 88.25c-.167.232-.525.604-.525.604s.436.013.795.27c.36.258.82.476 1.244.425a.586.586 0 0 0 .513-.74c-.09-.29-.294-.58-.987-.84-.693-.26-.873.04-1.04.27z" fill="#d4af3a"/>
<path d="M308.01 90.756c-1.348.12-3.13-1.37-3.13-1.37-.165 1.198-.905 1.82-2.04 2.046l.105.053s1.054.54 2.3.728c.562.086 1.063-.01 1.668-.132.73-.14 1.55-.35 1.995-.63.813-.5.57-1.8.57-1.8s-.12.99-1.468 1.11zm-5.25-1.352c-.553-.208-1.383-.607-1.73-.625-.345-.02-.847-.11-.76.53.086.64.743.95 1.382.97.64.02.97-.23 1.35-.42.38-.19.31-.26-.242-.47zm-4.22-2.29c-.604-.433-1.142-.554-1.142-.554s-.397 1.04-.173 1.683c.225.642.692.814 1.262.796.57-.02 1.418-.32 1.176-.75-.24-.43-.518-.75-1.123-1.18z" fill="#d4af3a"/>
<ellipse cy="90.041" cx="299.09" rx=".466" ry=".336" fill="#d4af3a"/>
<path d="M300.38 84.865c-.374-1.774-.31-3.704 1.37-6.163 1.682-2.46 4.607-3.456 4.607-3.456s.093-.187 1.027-1.182c.934-.997 2.833-2.24 2.833-2.24s-2.204.543-3.457.944v.066c0 .85-.675 1.54-1.51 1.54a1.49 1.49 0 0 1-.858-.273c-.68.14-2.944 1.49-3.523 1.97a1.6 1.6 0 0 1 .22.81c0 .85-.68 1.54-1.51 1.54-.25 0-.49-.06-.7-.17a6.392 6.392 0 0 0-.2.33 15.45 15.45 0 0 0-1.09 2.48c.38.27.64.77.64 1.34 0 .85-.58 1.54-1.28 1.54-.05.5-.05.85-.03 1 .06.5.25.81 1.12 1.06.87.25 2.05 1.78 2.05 1.78.08 0 .71-1.12.25-2.89z" fill="#d4af3a"/>
<path d="M305.74 73.506c.318-.258.374-.653.12-.88-.25-.226-.71-.2-1.028.06-.317.26-.373.656-.12.882.25.226.71.2 1.028-.062zm-5.64 3.81c.357-.325.42-.82.136-1.103-.283-.284-.803-.25-1.162.076-.358.32-.42.81-.136 1.1.283.28.803.25 1.162-.08z" fill="#d4af3a"/>
<ellipse cy="82.109" cx="296.74" rx=".871" ry=".856" fill="#d4af3a"/>
<path d="M315.54 70.017c-.452.1-1.288.37-2.54 1.026h.024c.87 0 1.546.556 1.546 1.276s-.79 1.5-1.66 1.5-1.46-.76-1.46-1.48c0-.17.04-.34.11-.48-.37.23-.767.48-1.19.76-2.77 1.87-3.423 2.77-4.792 5.32-1.37 2.55-1.868 5.35-1.277 7 .6 1.65 2.78 1.99 2.81 1.99s-.25-.25-.28-.56c-.03-.32.06-.47.16-1.09.1-.63.03-1.37.03-1.37s.5-.07.78.28c.28.34.69.74.97 1.09.28.34 1.03.99 1.03.99s.44-.62.44-1.37c0-.75-.49-1.56-.59-2.86s.59-3.65 1.87-5.36c1.28-1.72 3.68-3.27 4.39-3.61.72-.35.84-.88.87-1.19.03-.31.1-.53.16-1.31.07-.78-.65-.75-1.36-.6z" fill="#d4af3a"/>
<path d="M312.79 72.973c.49 0 .936-.44.936-.845 0-.405-.38-.717-.872-.717-.49 0-.888.33-.888.74s.333.83.824.83zm4.12 16.277c.668.27 1.422.118 1.777-.12.355-.237.475-.842.054-1.188-.41-.345-1.04-.333-1.43-.118-.39.216-1.26.83-1.26.83s.2.325.86.595z" fill="#d4af3a"/>
<path d="M319.05 90c-.24.37-.42.597-1.16.63s-1.548-.017-2.032-.502c-.484-.484-.822-1.164-.822-1.164l-.838-.016s-.273 1.165-.644 1.486c-.37.324-1.66.373-2.225-.048s-1.08-.938-1.18-.873 0 .485.58.986c.58.5.98.8 1.92.8h5.32s1.08.06 1.38-.59c.3-.65.32-1.05.17-1.21-.15-.16-.24.11-.49.48z" fill="#d4af3a"/>
<path d="M310.96 89.098c.798.443 1.24.173 1.53-.184.29-.356.344-.518.344-.518s-.754-.27-1.12-.487c-.367-.22-.614-.43-.98-.38-.367.04-.42.1-.42.1s-.15 1.02.646 1.46z" fill="#d4af3a"/>
<ellipse cy="81.24" cx="307.11" rx="1.775" ry="1.759" fill="#b96b29"/>
<path d="M310.19 75.144c-.71-.478-1.753-.287-2.33.426-.577.715-.468 1.683.244 2.16.71.48 1.755.287 2.332-.426.576-.712.466-1.68-.246-2.16z" fill="#b96b29"/>
<ellipse cy="81.012" cx="307.04" rx="1.031" ry=".983" fill="#d4af3a"/>
<path d="M309.45 75.338c-.457-.125-1.022.1-1.26.502-.238.403.014.832.623.956 1.12.23 1.655-1.18.637-1.458z" fill="#d4af3a"/>
</g>
<path d="M282.34 212.67s-2.742 1.31-3.61 1.543c-.87.237-1.07.237-1.07.237s-1.874 1.71-3.245 2.513c-1.44.848-3.093 1.463-4.748 1.646-2.14.23-8.025.16-10.667.06s-4.28.53-5.417 1.81c-1.137 1.27-1.404 3.12.034 4.53s3.042.7 3.578-.17c.534-.88.267-1.98.033-2.48-.233-.51.47-.67 1.204-.71.736-.04 1.973.06 3.11.23 1.137.16 3.144.84 4.013 1.31.87.47.368.53-.234.43s-1.27-.34-2.34-.74c-1.07-.4-1.97-.61-2.64-.64-.67-.03-.43.33-.3.57.14.23.5.8.6 1.07.1.27-.2 1.27-.2 1.27l.34.64s.4-.64.54-.98c.14-.34-.03-.98.1-1.28s.7-.31 1.14.2c.44.5.94 1.11 1.17 2.38.24 1.27-.2 2.18-.2 2.18s.54.44.64.74c.1.3-.13 1.51-.13 1.51s.37.23.71-.47c.34-.71.74-1.95.84-2.38.1-.44.4-1.24.94-.64s.91 1.34 1.01 1.71c.1.37.1.67.1.67s1.21-1.18 1.61-1.85 1.24-1.68 2.38-2.62c1.14-.94 3.11-2.82 4.08-3.46.97-.64 3.45-1.98 4.21-2.45s.91-.5 1.04-1.81.77-2.48 1.07-3.39c.29-.91.36-1.24.36-1.24zm-43.85-49.15c-.022-.223-.468-1.006-.58-1.408-.11-.4-.512-.157-.512-.157s-.87.492-1.516.67-.736-.065-.803-.4c-.07-.338-.23-1.387-.34-2.125-.11-.736-.27-.69-.54-.582-.27.113-1.07.403-1.63.65-.56.245-.38.514-.2.826.17.314.82 1.632 1.11 2.102.29.47.02.67-.32.828-.34.156-.83.223-1.5.446s-.63.38-.56.604c.06.225.51 1.14.76 1.564.24.425.46.135.46.135s.71-.647 1.31-.94c.6-.288.64-.2.8.248.16.45.85 2.8.98 3.25.13.45.36.4.67.27.31-.13.73-.2 1.09-.31.36-.11.49-.82.49-.82s-1.31-2.37-1.67-2.97c-.36-.6 0-.74.27-.78.26-.04 1.04-.15 1.71-.31.66-.17.48-.55.46-.78zm14.86 64.38c-.1-.57 0-1.142-.435-1.577-.435-.437-.97-1.308-1.17-2.012-.2-.7.167-1.04.1-1.44-.066-.4-.602-.4-1.136.04-.54.44-1.24.84-1.24 2.11s.47 2.79 2.24 3.32c1.77.54 1.74.14 1.64-.43zm1.8-.61s-.368-.234-.535.1-.134.505.334 1.242.77.906 1.3 1.24c.53.336.16-.334.1-.536-.07-.202 0-.47-.14-.638-.14-.168-.21-.37-.21-.904 0-.53-.87-.5-.87-.5z" fill="#D4AF3A"/>
<path d="M257.32 233.33c.334-.505.636-.638 1.438-1.006s2.273-.57 2.774-.604c.502-.034 1.64-1.006 1.47-2.014-.166-1.006-.902-1.408-1.537-1.542s-1.204-.134-1.404.167c-.2.31-.56.71-1.27.94s-.8.47-1.23.61c-.43.14-.1.41-.47.71s-.87 0-1.44-.17c-.57-.16-.6-.26-1.23-.3-.63-.03-2.3-.13-2.3-.13s-.06-.03-.43-.03-.4.07-.57.47c-.16.41.04 1.41.44 1.92.4.5 1.71.74 2.58 1.01.87.27 1.31.37 2.04.5.76.13.86-.01 1.19-.51zm8.13.8c.702-.47.3-1.275.134-1.777-.167-.504-1.137-.604-1.64-.604s-.768 0-1.036.23-.635.57-1.37.8c-.735.23-1.305.5-2.308.9s-1.305 1.07-1.74 1.34c-.434.26-1.27 0-1.27 0s-.602-.17-.802 0c-.2.16 0 .5.4.93.403.44 1.17.4 2.04.67.87.27 1.037.06 1.372-.17.334-.24.602-.74 1.204-1.11s1.906-.44 2.54-.5c.65-.07 1.79-.27 2.49-.74zm0-3.05c.3.27.635.64.903.2.268-.434.702-1.34.4-1.876-.3-.536-.667-1.007-.667-1.007s-.502 1.543-.736 1.946c-.22.41-.19.47.11.74zm-2.71-4.63c0-.873-.602-1.946-.602-1.946s-.2.805-.568 1.51c-.368.703-.736 1.073-.736 1.073s.87.234 1.204.234.71.01.71-.86zm-5.01 1.85c.936-.2 1.438-.57 1.84-.905s.635-1.242.367-1.71c-.267-.472-.936-.973-1.203-.973h-.502s-.268.872-.635 1.308c-.368.437-.802.737-.77 1.308.03.56-.04 1.16.9.96zm1.9-4.26a1.593 1.593 0 0 0-.435-1.207c-.3-.302-.502-.502-.502-.502s-.067.67-.133 1.04c-.067.37-.1.44-.1.44s.268.27.502.37c.23.09.63.3.66-.14zm-11.56-23.79l.632-3.952c-.475-3.95-2.53-7.69-4.162-10.274-1.634-2.58-3.32-6.638-4.058-8.8-.737-2.16-1.232-5.118-1.232-6.666 0-1.55.66-2.347.66-2.347s.288-.42.023-.68c-.265-.26-.683-.02-1.103.4s-.86 1.2-1.037 1.75c-.177.56-.177.76-.177.76s-.838-.2-2.184-.08c-1.346.11-1.985.22-2.03.51-.044.29.177.51 1.147.93.97.42 1.58.6 2.07 1.18.48.58 1.72 3.47 2.1 4.86.38 1.4 1.19 5.18 1.52 8.15s1.33 6.57 2.73 9.58c.46.99 2.97 5.67 5.09 4.73zm2.45 6.96c-.915.51-.88 4.25-.475 6.188.407 1.94 2.305 4.353 2.88 5 .578.645.713.645 1.02.475.305-.17.44-.17.44-.17s.813-.27 1.424-.747c.6-.477.37-1.667.27-2.72-.11-1.057-.92-3.165-2.41-5.61-1.48-2.45-2.23-2.93-3.14-2.42zm1.01-3.03c0-1.22-1.058-2.142-2.274-2.142-.575 0-1.082.145-1.396.428-1.234 1.113-.49 3.89 1.293 3.89.646 0 1.4-.107 1.868-.554.42-.39.51-1.04.51-1.62zm17.68 35.14c-.487-.086-.774-.285-1.492-.773-.717-.487-1.865-1.492-2.066-1.98-.202-.488-.202-.517-.89-.286-.69.23-1.665.2-2.41.23-.746.03.085.86.602 1.64.517.78.344 3.39.344 3.39s0 .23-.115.61c-.115.37-.028.63.172.72.2.09.315-.08.832-.69.517-.6 1.464-2.18 1.464-2.18s.15.03.95.23 2.1.09 2.76-.11c.68-.2.36-.69-.13-.78z" fill="#D4AF3A"/>
<path d="M266.14 241.34c-.344-.058-.487-.087-.66.14-.17.232-.315.664-.4.892-.087.23-.06.432.143.604.2.173.488.373.488.373s.29.31.58.45.35-.29.35-.6c0-.32.17-.89.17-1.27s-.3-.55-.65-.6z" fill="#D4AF3A"/>
<path d="M396.62 216.11c-.84-.2-1.195-.518-1.195-.518s-.36-.04-.64.48c-.277.516-1.355 1.194-1.355 1.194s-1.515.4-1.715 1.438c-.2 1.036.52 1.395 1.236 1.275.72-.12 2.48-.48 3.23-1.4.76-.92.88-1.44 1.04-1.8.14-.35.23-.47-.61-.67zm2.35-8.26c-.545-2.306-2.034-5.155-4.905-6.582 0 0-1.077 3.79-1.396 4.987-.32 1.195-.32 1.156.59 1.396.91.24 3.86.88 4.46 1.04s1.6.67 1.24-.85zm-13.68-2.15c.677.12.598-.16.837-1.077l1.435-5.463s-3.03-.12-5.662 1.155c-2.633 1.276-3.79 3.63-3.79 3.63s.68.278 2.475.678c1.8.39 4.03.95 4.71 1.07zm-7.02 6.26c-1.075-.2-1.475-.32-1.475-.32s.678 2.592 1.795 4.03c1.116 1.435 2.353 2.154 4.666 2.193 2.313.04 4.067-1.236 4.347-2.233.28-.998.758-1.754.758-1.754s-4.18-.56-5.9-.96c-1.74-.4-3.13-.76-4.21-.96z" fill="#1D5E91"/>
<path d="M377.55 210.32c1.038.24 9.572 1.874 10.29 2.034.72.158 1.316.318 1.516.118.2-.198.32-.318 1.077-.6.758-.276.72-1.035.72-1.035s.198-.72.276-1.436c.08-.71.48-.95 1.31-.07.84.88.99 2.15 1.15 3.39.16 1.24 2.11 1.56 2.87 1.68.76.12 1.11-.12 1.55-.83.44-.71.68-2.15.79-3.07.12-.91.04-.84-.92-1.07-.96-.24-5.38-1.23-6.18-1.43-.8-.2-.64-.71-.52-1.27s1.87-6.18 1.87-6.18c-1.25-.77-3.01-1.23-5.11-1.47 0 0-1.28 5.74-1.52 6.62-.24.88-.8.88-1.72.72-.92-.16-7.54-1.71-7.54-1.71l-.52 1.24c-.52 1.24-.76 2.72-.76 3.47s.27.74 1.3.97z" fill="#D4AF3A"/>
<path d="M400.2 215.51c-.88-.575-1.527-.727-1.985.344-.46 1.07-.496 2.64-1.642 3.748-1.146 1.11-2.75 2.256-4.354 2.142-1.61-.115-2.52-.498-2.14-2.333.38-1.83 2.82-2.4 3.4-3.36s.42-2.06-.43-2.79c-.84-.73-2.06-.88-2.41-.65-.35.23-1.34 1.07-1.83 2.45-.5 1.38-.8 2.49-1.87 3.37-1.07.88-3.82 1.76-5.96 1.26-2.14-.49-2.9-1.14-3.71-3.25-.81-2.1-1.76-5.58-2.18-5.96-.42-.38-.96-.69-1.87-.04-.92.65-.99 1.61-1.11 2.38-.12.77 0 1.65.91 2.76.92 1.11 1.87 2.22 2.21 3.37.34 1.15 1.37 2.91-.08 2.98-1.45.08-2.1.12-3.21-.95-1.11-1.07-5.43-4.01-6.61-4.97-1.19-.95-1.68-1.26-1.68-1.26-2-.03-4-.85-6-2.21 0 0 1.14 2.94 1.37 4.05.23 1.11.19 1.72.19 1.72s4.35 2.22 6.07 3.06c1.72.84 5.19 2.83 6.87 3.86 1.68 1.03 3.09 2.64 6.07 2.03 2.98-.61 9.01-2.45 10.96-3.02 1.95-.57 7.33-1.91 9.31-3.29s2.18-1.3 2.52-2.68c.34-1.35 0-2.11-.88-2.69zm-11.49-20.59c.33-.044.464-.09 1.48-.22 1.016-.135.64.84.462 1.215-.176.375-.485 1.127-.903 1.834-.43.71.13.82.41.93.28.11.7.15 1.52.37s.66-.38.68-.69c.02-.31.06-1.93.15-2.5.08-.58.61-.42.81-.31s.71.39 1.13.61c.41.22.61-.02.7-.27s.28-.69.46-1.33c.17-.64-.22-.51-.62-.51s-.97 0-1.64-.02c-.66-.02-.24-.67-.24-.67s.48-.8.86-1.4c.37-.6.24-.69-.13-.8-.38-.11-1.55-.38-1.88-.47-.33-.09-.49-.05-.49.17s-.05 1.37-.05 1.81c0 .44-.04.7-.62.73-.57.02-.93-.32-1.39-.82-.46-.51-.66-.31-.71-.11-.05.2-.42 1.66-.51 2.05-.11.39.11.37.44.32zm3.2 14.49s-.04 1.157-.16 1.555c-.12.4-.398.998.08 1.157.48.16.917.358 1.194.28.28-.08.16-.64 0-1.117-.158-.48-.397-1.078-.757-1.476l-.35-.39zm7.02 4.62c.16.358.48.438.72.52.238.078.558.078.558-.36s.08-.997-.278-1.476c-.36-.48-.55-.828-.758-.12-.21.72-.4 1.09-.24 1.44zm-24.45-4.66c.2.04.957.28.957.28s0-1.118.16-1.876c.158-.756.478-1.275.2-1.275s-.44.23-.64.55c-.2.32-.76.4-.957 1.31-.2.91.08.95.28.99z" fill="#D4AF3A"/>
<circle cy="207.45" cx="379.27" r="1.556" fill="#B96B29"/>
<circle cy="208.53" cx="383.65" r="1.595" fill="#B96B29"/>
<circle cy="211.24" cx="396.42" r="1.596" fill="#B96B29"/>
<circle cy="209.57" cx="388.04" r="1.596" fill="#B96B29"/>
<circle cy="205.74" cx="389.2" r="1.596" fill="#B96B29"/>
<circle cy="201.91" cx="390.32" r="1.596" fill="#B96B29"/>
<circle cy="207.3" cx="379.38" r=".777" fill="#D4AF3A"/>
<circle cy="208.37" cx="383.77" r=".798" fill="#D4AF3A"/>
<circle cy="211.08" cx="396.54" r=".797" fill="#D4AF3A"/>
<circle cy="209.41" cx="388.16" r=".797" fill="#D4AF3A"/>
<circle cy="205.58" cx="389.32" r=".797" fill="#D4AF3A"/>
<circle cy="201.75" cx="390.44" r=".798" fill="#D4AF3A"/>
<use xlink:href="#a" transform="matrix(-1 0 0 1 639.97 0)" height="320" width="640"/>
</svg>
