<svg viewBox="0 0 4800 2400" xmlns="http://www.w3.org/2000/svg">
<g fill="#f9cf02">
<g transform="scale(5)">
<path fill="#c4272f" d="M0 0h960v480H0z"/>
<path fill="#015197" d="M320 0h320v480H320z"/>
<circle cy="164" cx="160" r="44"/>
<circle cy="144" cx="160" r="48" fill="#c4272f"/>
<circle cy="152" cx="160" r="32"/>
<path d="M140 92a20 20 0 0 0 40 0c0-8-5-9-5-12s3-7-3-12c3 5-2 6-2 11s2 5 2 9a4 4 0 0 1-8 0c0-4 4-8 4-14s-1-8-4-13-8-9-4-13c-6 2-3 10-3 15s-4 8-4 14 3 7 3 11a4 4 0 0 1-8 0c0-4 2-4 2-9s-5-6-2-11c-6 5-3 9-3 12s-5 4-5 12zM72 216v192h40V216zm136 0v192h40V216zm-88 32v16h80v-16zm0 112v16h80v-16zm0-144h80l-40 24zm0 168h80l-40 24z"/>
</g>
<g stroke="#c4272f" stroke-width="24">
<circle cy="1560" cx="800" r="212"/>
<path d="M800 1348a106 106 0 0 1 0 212 106 106 0 0 0 0 212" fill="none"/>
</g>
</g>
<g fill="#c4272f">
<circle cy="1454" cx="800" r="40"/>
<circle cy="1666" cx="800" r="40"/>
</g>
</svg>
