<svg viewBox="0 0 1000 500" xmlns="http://www.w3.org/2000/svg">
<path fill="#0071bc" d="M0 0h1000v500H0z"/>
<g stroke="#000" stroke-width="1.935" fill="none">
<path d="M557.82 395.54s17.632-18.65 34.585-15.09c5.086-19.665 24.244-21.19 24.244-21.19s-1.87-21.702 22.71-26.45c.68-14.75 15.59-26.955 15.59-26.955s-3.05-22.887 12.54-28.143c-9.5-18.14 3.22-31.365 3.05-31.704-.17-.34-16.11-28.652-1.87-36.79-15.09-12.714-10.18-27.125-10.18-27.125s-16.45-4.24-10.51-23.905c-13.56-2.373-16.28-24.244-16.28-24.244s-20.86 4.238-23.4-13.902c-13.73 2.204-15.26-11.36-15.43-11.36-.17 0-27.3 7.29-32.72-13.223-10.51 5.42-15.09-4.24-15.09-4.24s-15.09 7.46-24.08-6.95c-17.97 11.18-27.98-.51-27.98-.51s-23.57 15.59-31.37 3.56c-13.9 14.07-26.28 7.97-26.28 7.97s-10.51 18.64-27.46 13.9c-3.9 17.29-23.4 17.63-23.4 17.63s2.03 15.26-21.37 19.33c-3.05 17.97-15.26 21.02-15.26 21.02s1.19 17.46-9.83 23.05c3.9 9.83-6.27 21.87-6.27 21.87s10.85 13.56-3.9 28.82c14.24 3.73 3.9 28.31 3.9 28.31s19.66 8.81 7.29 25.09c14.07 4.58 9.66 15.77 9.83 22.38 8.99 4.07 16.96 2.03 13.06 20.17 27.63 3.05 14.58 18.31 14.58 18.31s12.88.5 7.8 10.68c23.56-.51 26.95 17.63 26.95 17.63s21.87-5.77 24.75 2.71c2.88 8.47-9.5 65.61-9.5 65.61s-18.48 0-32.22-14.75c-32.21-.85-25.09-22.04-25.6-22.04-.51 0-10.68 3.9-15.936-13.73-21.53 4.4-20.85-13.74-21.02-13.91-.17-.17-9.66-4.41-6.1-13.39-22.21 2.03-20.52-19.67-20.52-19.67-4.86-1.98-6.67-6.5-5.935-11.02-2.886-1.02-22.55-1.36-12.38-27.3-18.82-11.36-7.12-24.42-7.12-24.42s-25.94-13.39-5.94-28.82C258.895 240.72 275 229.7 275 229.7s-20.68-21.022.34-35.94c-3.39-31.87 15.6-39.5 15.6-39.5s-10-25.94 17.126-36.79c1.695-26.28 20.684-26.957 20.684-26.957s.51-20.855 30.35-18.82c5.76-18.65 26.11-14.92 26.11-14.92s6.27-22.548 33.9-11.698c14.07-27.46 34.93-13.39 34.93-13.39s13.22-8.648 19.835-5.935c8.396-14.43 26.27-.56 37.827 2.23 4.19-1.63 19.14-12.912 30.67 1.33 15.26-10 28.316 7.97 28.316 7.97s21.02-10.68 30.857 13.733c44.59-4.07 38.146 25.09 38.146 25.09s35.1-7.968 27.47 26.957c31.88 2.2 28.66 23.224 28.66 23.224s20.18 15.253 11.36 28.99c17.97.843 11.36 18.14 11.36 18.14s13.73 5.25 2.37 26.61c26.28 21.024 5.09 41.88 4.92 41.71-.17-.17 14.08 16.953 1.19 36.62 3.9 31.194-11.87 39.162-11.87 39.162s4.07 20.177-13.56 25.94c-.34 23.736-22.71 26.618-22.71 26.618s5.93 10.31-16.28 21.16c-.87 15.884-24.07 17.157-24.07 17.157s-2.2 29.16-31.7 21.37c-7.16 23.4-41.71 16.44-42.38 16.11-.68-.34-6.61-50.18-6.61-50.35z" fill="#fff"/>
<path d="M599.01 420.07s-2.616 5.032 7.85 9.46m13.08-21.34s11.673-2.818 19.522 0m15.298-29.38c0 .2-1.61 5.233 7.648 12.478M661.4 365.73s6.843 5.032 18.315 4.83m-87.345 9.86s.402 13.283-6.44 19.522m29.38-40.052s11.27 2.818 20.53-1.81m51.72-17.71s2.415 3.42 14.893 2.818M638.86 332.52c.402.2 14.692 4.83 23.75.604m4.82-55.354s.604-.805 5.032 14.692M678.5 234.1s-.604 8.252-7.245 11.874m49.715-45.684s-9.66 7.85-7.85 11.07m-40.25-16.71s5.032 8.453-3.22 14.29m-21.13-50.51s8.654-.403 12.478 7.044m5.632-61.784c0 .2 1.81 1.81-1.61 5.233m-60.18-4.433s4.63 7.245 3.824 16.1m22.946-40.653c2.013-.2 8.855-3.22 8.855-3.22m-38.645-25.56c-.2 0-2.616 9.057 1.81 12.277m-12.88 28.98c0 9.66 7.648 7.246 2.415 16.504M572.04 84.365c-.2 0-12.075 9.258-12.075 10.868m-18.925-15.9s5.032 5.03 3.824 11.874M499.58 73.295c-.2.403-4.227 9.057-7.044 10.667M462.96 73.497c.2 0 4.025 8.05-1.006 13.887M397.75 106.91c.2.402 10.264 2.013 10.264 2.013M372.59 130.25c.2-.2 12.277-3.824 12.277-3.824M353.07 145.35c.403 0 8.453 1.41 10.465.403m-16.105 7.037s2.616 1.41.403 14.893M308.19 117.37l4.83 7.245M291.68 154.6c0-.2 4.83 7.245 11.27 8.654m26.77 29.186c.2 0 7.85-1.61 9.057-2.415M326.3 219.81c.2 0-.2-5.032 6.038-8.453M318.05 232.29c0 .2 5.837 7.447 9.862 8.453m-13.282 5.437c.604-.2 6.843-5.636 14.088-5.233M312.61 264.89s.2 6.24 18.717 4.63m-16.897 17.31c0-.2 5.434-12.478 16.503-17.107m-1.613 32.807s1.61-5.233 10.868-8.855m-.608 29.585s6.642-5.434 9.057-6.24m-.797 22.34s4.025 4.226 14.088-3.02m-62.598 6.44c1.208-.2 15.9-3.623 20.93 4.025m-15.09 8.055s15.497-2.013 17.51-.402m37.83 3.622s-2.013 4.227 17.107-2.818m6.643 10.468c-3.42 5.836.805 10.465-3.623 13.082M326.1 373.78c.604-.402 7.044-2.616 6.038-11.874m-.198 25.754c.805-.2 11.472-4.83 13.686-2.415m7.244 15.905s1.41-9.46 4.428-10.465m11.672 24.755s8.855-.2 12.68-3.02m4.42-28.98c.2.2 8.252 4.428 25.36.2m-18.92 38.24s2.415 12.277 2.214 15.094M632.21 133.87h6.642M526.35 75.308s-2.616 7.648-6.038 9.66M454.5 31.836c.2.2.805 6.24-3.02 11.472m-33.2 2.214c0 .2 1.61 6.843-9.057 9.057"/>
</g>
<g stroke-linejoin="round" stroke="#000" fill-rule="evenodd" fill="#f7df73">
<path stroke-width="2.419" d="M561.72 423.68s100.53-28.397 130.89-151.78c-17.626 126.65-127.63 166.79-127.63 166.79l-3.264-15.015z"/>
<path stroke-width="2.429" d="M429.95 421.01s-99.612-28.908-129.69-154.51c17.464 128.92 126.46 169.79 126.46 169.79l3.234-15.285z"/>
</g>
<g fill="#8c1800">
<path d="M572.03 431.37c3.107 0 10.794-8.505 15.21-9.486 4.416-.98 4.907-5.397-.164-5.56-5.07-.164-9.485 5.724-9.485 5.724s-4.41 3.76-8.99 4.252c-4.58.49-1.63 6.215 3.44 5.07zm21.42-15.7s-3.108-1.145 4.907-4.252c8.013-3.108 7.523-6.706 10.14-8.178 2.616-1.472 8.177-5.397 9.322-3.107 1.14 2.29-5.89 6.87-7.53 7.36-1.64.49-9.65 7.85-11.94 8.504-2.29.654-3.93.327-4.91-.327zm-173.71 13.17c-3.08 0-10.695-8.658-15.07-9.656-4.377-1-4.863-5.495.16-5.66 5.024-.168 9.4 5.826 9.4 5.826s4.375 3.83 8.913 4.33c4.537.498 1.62 6.325-3.403 5.16zm-21.23-15.98s3.08-1.165-4.862-4.33c-7.94-3.162-7.454-6.825-10.047-8.323-2.59-1.5-8.1-5.494-9.23-3.164s5.84 6.993 7.46 7.493 9.56 7.99 11.83 8.657c2.27.666 3.89.333 4.86-.333z"/>
<path stroke="#8c1800" stroke-width="2.419" d="M629.92 388.19s-10.467 6.05-8.995 7.523c1.472 1.472 10.794-5.724 10.958-5.887.163-.164 3.925-4.743-1.963-1.636z"/>
<path stroke="#8c1800" stroke-width="2.429" d="M362.37 384.89s10.37 6.16 8.913 7.658c-1.46 1.5-10.695-5.827-10.857-5.993-.162-.167-3.89-4.828 1.944-1.665z"/>
</g>
<g stroke="#8c1800" stroke-linecap="round" fill="none">
<path stroke-width="3.144" d="M645.46 372.82c-6.87 7.687-6.87 7.523-6.87 7.523"/>
<path stroke-width="2.902" d="M655.76 360.23l-6.542 8.014"/>
<path stroke-width="2.66" d="M666.07 343.87l-7.36 11.776"/>
<path stroke-width="2.419" d="M674.74 327.19l-6.05 12.103m9.97-20.933l-1.963 4.252"/>
<path stroke-width="1.451" d="M683.08 306.75l-1.636 5.07"/>
<path stroke-width="3.158" d="M346.98 369.24c6.806 7.825 6.806 7.66 6.806 7.66"/>
<path stroke-width="2.915" d="M336.77 356.42l6.482 8.158"/>
<path stroke-width="2.672" d="M326.56 339.77l7.293 11.987"/>
<path stroke-width="2.429" d="M317.97 322.79l5.996 12.32m-9.886-21.31l1.945 4.33"/>
<path stroke-width="1.457" d="M309.71 301.98l1.62 5.16"/>
</g>
<path d="M343.56 115.74c.086 0 7.477 6.41 6.096 16.07-1.38 9.66-6.96 23.09-5.837 33.095.68 4.01.42 11.198.42 11.198s-6.7-9.52-6.79-19.698 7.25-19.842 7.25-27.346c0-7.51-1.33-13.5-1.16-13.32zm-3.66 2.88s-9.698 9.258-10.947 18.255c-.922 4.638-1.28 26.247-1.39 35.84-.217 2.942-1.437 14.557-1.696 18.784-.258 4.22 7.134-7.22 7.557-16.53-.23-9.65-.232-29.96.75-33.01.87-3.93.68-8.26 2.03-12.2 1.784-5.46 3.782-11.07 3.696-11.15z" stroke-linejoin="round" stroke="#000" stroke-width="1.935" fill="#217900"/>
<g stroke-linejoin="round" stroke="#6b18b5" fill="none">
<path stroke-width="1.935" d="M276.41 180.31s6.574 9.102 7.754 14.328c1.18 5.225 3.37 15.508 6.237 19.722 2.87 4.214 19.22 27.644 20.06 37.42.17 6.406-6.74 17.363-17.02 17.53-6.4-.167-22.92-4.38-23.6-18.54-.67-14.16 5.06-14.498 5.73-23.094.68-8.597.85-47.197.85-47.366z"/>
<path d="M389.35 56.36s-6.806.486-12.046 3.327c-4.06 2.503-10.937 6.105-15.743 12.77-12.22 9.528-30.61 13.974-36.41 21.89-3.47 5.386-3.26 18.338 5.44 23.823 5.56 3.184 21.87 8.165 29.8-3.583s3.21-15.014 7.1-22.71c6.42-17.64 21.78-35.372 21.87-35.517zm165.09-17.194s-5.083-4.552-10.77-6.34c-4.622-1.175-12.32-.664-20.287-1.446-15.348-2.153-31.17-13.253-40.892-11.912-6.28 1.252-15.44 10.416-13.33 20.48 1.58 6.21 8.53 18.77 22.49 16.295 13.96-2.474 13.84-5.52 22.07-8.078 20.09-11.262 40.56-8.96 40.73-9zM718.18 198.3c1.146-2.62-.965-7.542-2.464-13.31-1.455-4.543-3.627-11.593-8.94-17.86-6.316-14.153-5.234-33.563-11.525-41.093-4.39-4.663-17.01-7.567-24.43-.44-4.42 4.633-13.17 19.264-3.68 29.785 9.5 10.52 13.64 6.558 20.18 12.182 15.58 10.466 23.21 28.816 30.86 30.736zm-5.59 123.64c2.128-2.946 5.938-8.625 5.485-13.354-.36-3.746 1.717-15.1 1.944-20.055 1.4-15.43 11.06-27.96 8.44-41.37-1.56-6.21-10.66-15.08-20.61-12.49-6.13 1.88-19.77 9.39-16.62 23.21 3.14 13.82 7.61 13.6 10.56 21.7 8.48 16.75 3.05 36.65 10.79 42.37z"/>
</g>
<g fill="#6b18b5">
<path d="M491.8 26.96c0-2.178-2.45-3.943-5.47-3.943s-5.473 1.765-5.472 3.943c0 2.178 2.45 3.943 5.47 3.943s5.473-1.765 5.472-3.943zm2.34 9.173c0-2.088-2.522-3.782-5.632-3.782s-5.632 1.7-5.632 3.79 2.52 3.78 5.632 3.78 5.632-1.69 5.632-3.78zm7-10.863s-6.437 4.83-3.78 6.76c2.652 1.93 9.974-4.184 9.974-4.184l-6.195-2.575zM690.31 135.8c.002-1.372-.64-2.64-1.687-3.328a3.03 3.03 0 0 0-3.38 0c-1.045.687-1.69 1.956-1.687 3.328-.002 1.372.642 2.64 1.687 3.328 1.046.687 2.334.687 3.38 0s1.69-1.956 1.687-3.328zm-2.45-9.21c0-2.29-1.58-4.144-3.53-4.144-1.95 0-3.53 1.855-3.53 4.144 0 2.29 1.58 4.144 3.53 4.144s3.53-1.855 3.53-4.144zm1.69 18.73c0-1.187-.618-2.15-1.38-2.15-.764 0-1.383.963-1.383 2.15s.62 2.15 1.382 2.15c.76 0 1.38-.963 1.38-2.15zm5.68-16.73c0-1.356-.618-2.456-1.38-2.456-.764 0-1.383 1.1-1.383 2.456s.62 2.456 1.382 2.456c.76 0 1.38-1.1 1.38-2.456zm-15.51 1.69c0-1.102-.618-1.995-1.38-1.995-.764 0-1.383.893-1.383 1.995s.62 1.995 1.382 1.995c.76 0 1.38-.893 1.38-1.995zm2.46 13.2c0-1.78-1.305-3.225-2.916-3.225-1.61 0-2.917 1.444-2.917 3.225 0 1.78 1.306 3.225 2.917 3.225 1.61 0 2.917-1.444 2.916-3.225zm-7.68-5.84c0-1.526-1.1-2.763-2.456-2.763-1.356 0-2.456 1.237-2.456 2.763 0 1.526 1.1 2.763 2.456 2.763s2.456-1.237 2.456-2.763zm-1.22-7.82c0-.823-.408-1.585-1.074-1.996a2.026 2.026 0 0 0-2.15 0c-.665.41-1.075 1.173-1.074 1.996 0 .823.41 1.585 1.074 1.996a2.026 2.026 0 0 0 2.15 0c.666-.41 1.075-1.173 1.074-1.996zm34.99 39.8c-3.17-4.184-8.246-5.947-11.337-3.938-3.09 2.01-3.026 7.03.144 11.215 3.17 4.184 8.247 5.947 11.337 3.938 3.09-2.01 3.026-7.03-.144-11.215zm9.01 77.19c.614-5.135-1.89-9.656-5.593-10.1-3.704-.442-7.204 3.36-7.82 8.495-.613 5.135 1.89 9.656 5.595 10.1 3.703.443 7.204-3.36 7.818-8.495zm1.9 44.94c1.055-5.062-1.05-9.783-4.7-10.544-3.652-.76-7.468 2.725-8.523 7.787-1.056 5.063 1.05 9.784 4.7 10.545 3.652.76 7.467-2.726 8.523-7.788zm8.66-42.06c0-2.034-1.374-3.684-3.07-3.684-1.695 0-3.07 1.65-3.07 3.684s1.375 3.684 3.07 3.684c1.696 0 3.07-1.65 3.07-3.684zm-7.52 8.44l-6.293 7.137s-5.91.154-5.603 2.073c.307 1.918 8.136 7.674 8.06 9.977-.078 2.302 5.218-.538 5.218-.538s4.22-12.82 4.22-12.9c0-.08-.23-8.9-2.532-8.75-2.303.15-2.926 2.83-3.07 2.99zm-413.94-2.82a2.995 2.995 0 1 0-5.99 0 2.995 2.995 0 0 0 5.99 0zm2.83-9.15c0-1.746-1.34-3.162-2.995-3.162-1.654 0-2.995 1.416-2.995 3.162s1.34 3.162 2.995 3.162c1.654 0 2.995-1.416 2.995-3.162zm-24.6-43.53c-1.123-2.518-3.463-3.92-5.225-3.135-1.762.786-2.28 3.465-1.157 5.982s3.462 3.922 5.225 3.135c1.762-.786 2.28-3.464 1.157-5.982zm7.43 27.12c-1.543-3.263-4.757-5.082-7.178-4.063s-3.132 4.49-1.59 7.754 4.757 5.09 7.178 4.07 3.133-4.49 1.59-7.75zm7.95 19.88c.5-4.076-1.19-7.82-3.772-8.363-2.584-.542-5.083 2.322-5.583 6.397-.5 4.076 1.19 7.82 3.772 8.363 2.584.543 5.083-2.32 5.583-6.397zm-12.76 2.91c1.598-3.783 1-7.846-1.336-9.076s-5.524.84-7.122 4.622c-1.598 3.783-1 7.846 1.336 9.076s5.524-.84 7.122-4.622z"/>
<path d="M281.42 243.99c0-1.93-1.49-3.494-3.328-3.494-1.838 0-3.328 1.564-3.328 3.494s1.49 3.494 3.328 3.494c1.838 0 3.328-1.564 3.328-3.494zm-2.66-8.65c0-1.746-1.34-3.162-2.995-3.162s-2.995 1.416-2.995 3.162 1.34 3.162 2.995 3.162c1.654 0 2.995-1.416 2.995-3.162zm2.82-16.64c0-2.94-1.304-5.325-2.912-5.325-1.608 0-2.912 2.384-2.912 5.325s1.304 5.325 2.912 5.325 2.912-2.384 2.912-5.325zm8.96-1.28c.388-2.915-.59-5.45-2.184-5.662-1.594-.213-3.2 1.98-3.59 4.894-.387 2.915.59 5.45 2.185 5.662 1.6.212 3.21-1.98 3.59-4.894zm63.85-127.378c1.187-4.128-.037-8.277-2.734-9.267-2.697-.99-5.845 1.554-7.032 5.682-1.187 4.13.037 8.278 2.734 9.268 2.697.99 5.845-1.555 7.032-5.683zm-12.12 18.378c3.557-3.027 5.076-7.212 3.394-9.35-1.683-2.135-5.93-1.413-9.486 1.614s-5.076 7.213-3.394 9.35 5.93 1.413 9.486-1.614zm-7.08-10.203c3.517-2.6 5.02-6.192 3.356-8.025-1.664-1.834-5.863-1.214-9.38 1.384-3.518 2.6-5.02 6.192-3.356 8.026 1.663 1.833 5.863 1.214 9.38-1.385zm27.27-17.937c2.372-1.812 3.385-4.32 2.263-5.6s-3.954-.846-6.326.967c-2.372 1.814-3.385 4.32-2.263 5.6s3.954.847 6.326-.966z"/>
<path d="M348.25 97.66c1.622-2.507 1.73-5.21.243-6.036-1.487-.826-4.008.535-5.63 3.042s-1.73 5.208-.243 6.035 4.008-.53 5.63-3.04zm20.51-10.74c2.55-2.15 3.544-4.997 2.22-6.36s-4.467-.725-7.017 1.425c-2.55 2.15-3.545 4.997-2.22 6.36s4.466.725 7.017-1.425zm-37.07 25.05c2.384-.12 4.184-1.307 4.02-2.653-.164-1.346-2.23-2.34-4.614-2.222-2.385.12-4.185 1.307-4.02 2.653.164 1.346 2.23 2.34 4.614 2.222zm44.88-38.364c1.622-2.506 1.73-5.208.243-6.035-1.487-.82-4.008.54-5.63 3.05s-1.73 5.21-.243 6.04c1.487.83 4.008-.53 5.63-3.04z"/>
</g>
<g stroke="#ef8a10" stroke-width="1.935" fill="#ffd200">
<path d="M553.24 88.375s12.574-5.8 16.17-16.603c3.593-10.802-10.883-10.906-12.796-7.473-1.912 3.43 1.63 11.98.72 14.24-.914 2.26-6.03 7.71-4.094 9.83z"/>
<path stroke-width="2.419" d="M441.8 92.316s8.163-11.186 6.047-22.372c-2.117-11.186-14.814-4.233-14.814-.302s7.255 9.674 7.558 12.093c.31 2.418-1.51 9.674 1.21 10.58zm-22.07 6.65s8.163-11.185 6.046-22.37-14.814-4.234-14.814-.303 7.256 9.674 7.56 12.093c.3 2.418-1.513 9.674 1.208 10.58zm-24.49 7.564s8.163-11.186 6.047-22.372c-2.117-11.186-14.814-4.233-14.814-.302s7.255 9.674 7.558 12.093c.31 2.41-1.51 9.67 1.21 10.58zm-17.23 17.23s8.163-11.186 6.046-22.372-14.814-4.233-14.814-.302 7.256 9.674 7.56 12.093c.3 2.41-1.513 9.67 1.208 10.58zm-18.14 16.63s8.163-11.186 6.046-22.372-14.814-4.233-14.814-.302 7.256 9.674 7.56 12.093c.3 2.41-1.513 9.67 1.208 10.58z"/>
<path d="M401.57 43.52s-10.87 8.578-11.84 19.92c-.97 11.344 13.13 8.062 14.187 4.276 1.057-3.785-4.387-11.27-4.028-13.68.36-2.41 4.05-8.91 1.68-10.517zm36.28-11.187s-10.87 8.58-11.84 19.922c-.97 11.343 13.13 8.06 14.187 4.275 1.057-3.786-4.387-11.27-4.028-13.68.36-2.41 4.05-8.91 1.68-10.517zM302.66 130.27s2.296 13.656 11.776 19.96 13.38-7.638 10.57-10.385c-2.812-2.747-11.992-1.57-13.933-3.045-1.94-1.474-5.863-7.843-8.414-6.53zm-18.12 46.37s.112 13.847 8.48 21.568c8.365 7.72 14.417-5.43 12.075-8.586-2.343-3.157-11.592-3.445-13.277-5.206-1.684-1.762-4.552-8.67-7.278-7.776zm41.8 51.8s-4.942-12.936-15.48-17.248c-10.535-4.312-11.612 10.125-8.315 12.264 3.298 2.14 12.065-.823 14.26.24 2.193 1.063 7.293 6.533 9.535 4.744zm-8.68-22.39s8.38-11.025 6.48-22.25-14.728-4.52-14.804-.59c-.076 3.93 7.066 9.813 7.32 12.237.256 2.424-1.698 9.643 1.004 10.603zM578.94 99.56s12.574-5.8 16.17-16.602c3.593-10.802-10.883-10.906-12.796-7.473-1.912 3.434 1.63 11.983.72 14.243-.914 2.26-6.03 7.716-4.094 9.833zm38.03 18.97s7.396-11.707 4.537-22.726-15.064-3.233-14.8.69c.262 3.92 7.885 9.167 8.35 11.56.462 2.393-.863 9.754 1.913 10.477zm103.77 107.74s-4.96-12.93-15.502-17.226c-10.542-4.298-11.6 10.14-8.3 12.275 3.302 2.13 12.065-.84 14.26.22 2.195 1.06 7.303 6.52 9.542 4.73zM670 234.3s.288-13.845 8.75-21.46c8.465-7.613 14.35 5.613 11.967 8.74-2.382 3.125-11.635 3.296-13.342 5.037-1.706 1.74-4.66 8.61-7.375 7.683zm-8.17-146.816s-12.945-4.917-23.175.08c-10.23 4.996-.17 15.405 3.622 14.366 3.79-1.038 7.414-9.553 9.667-10.485 2.253-.93 9.73-1.097 9.886-3.962zm-29.62-24.79s-12.945-4.918-23.175.08c-10.23 4.995-.17 15.404 3.622 14.365 3.79-1.04 7.414-9.56 9.667-10.49 2.253-.93 9.73-1.1 9.886-3.96zm-44.19-23.64s-10.975 8.444-12.084 19.774c-1.11 11.33 13.03 8.22 14.133 4.45 1.1-3.774-4.25-11.323-3.86-13.73.38-2.407 4.16-8.86 1.81-10.495zm-28.75-6.924s-5.005 12.913-.077 23.176 15.404.273 14.39-3.525c-1.012-3.79-9.503-7.47-10.418-9.73-.916-2.26-1.032-9.73-3.895-9.91zm-81.61 49.757s8.952-10.565 7.65-21.875c-1.3-11.31-14.467-5.295-14.752-1.375-.285 3.92 6.536 10.174 6.662 12.61.126 2.434-2.21 9.54.44 10.64z"/>
</g>
<g stroke="#000" stroke-width="2.383" fill="#de2010">
<path d="M701.62 233.11c-.502-4.05-2.454-7.607-5.117-9.332-2.663-1.724-5.633-1.353-7.79.974s-3.172 6.256-2.663 10.304c.502 4.05 2.454 7.607 5.117 9.332 2.663 1.724 5.634 1.353 7.79-.974 2.157-2.327 3.172-6.256 2.663-10.304z"/>
<path d="M699.95 212.66c-.502-4.05-2.454-7.607-5.117-9.332-2.663-1.724-5.633-1.353-7.79.974s-3.172 6.256-2.663 10.304c.502 4.05 2.454 7.607 5.117 9.332 2.663 1.724 5.634 1.353 7.79-.974 2.157-2.327 3.172-6.256 2.663-10.304z"/>
<path d="M695.8 190.82c-.856-3.99-3.113-7.362-5.917-8.846s-5.73-.853-7.675 1.655c-1.944 2.5-2.61 6.51-1.746 10.49.856 3.99 3.112 7.36 5.917 8.84s5.73.85 7.67-1.66c1.94-2.51 2.61-6.51 1.74-10.5z"/>
<path d="M688.23 168c-1.845-3.64-4.887-6.325-7.977-7.045-3.09-.72-5.758.636-7 3.556-1.24 2.93-.863 6.97.988 10.6 1.85 3.64 4.89 6.33 7.98 7.05 3.09.72 5.76-.63 7-3.55 1.24-2.92.87-6.96-.99-10.59z"/>
<path d="M680.14 149.69c-1.845-3.64-4.887-6.325-7.977-7.045-3.09-.72-5.758.636-7 3.556-1.24 2.93-.863 6.97.988 10.6 1.85 3.64 4.89 6.33 7.98 7.05 3.09.72 5.76-.63 7-3.55 1.24-2.92.87-6.96-.99-10.59z"/>
<path d="M668.64 131.28c-2.147-3.47-5.405-5.89-8.545-6.344s-5.684 1.12-6.672 4.136c-.99 3.015-.272 7.01 1.88 10.475 2.147 3.47 5.405 5.89 8.545 6.344 3.14.46 5.684-1.12 6.673-4.13.99-3.01.28-7.01-1.88-10.47z"/>
<path d="M655.85 113.54c-2.472-3.246-5.95-5.34-9.118-5.49-3.17-.147-5.55 1.668-6.242 4.765-.692 3.096.408 7.002 2.885 10.244 2.472 3.24 5.95 5.33 9.118 5.48 3.17.15 5.55-1.67 6.242-4.76.692-3.1-.407-7-2.885-10.25z"/>
<path d="M640.59 96.996c-2.916-2.854-6.66-4.42-9.817-4.11-3.158.312-5.25 2.454-5.486 5.618-.236 3.164 1.418 6.87 4.34 9.717 2.916 2.86 6.66 4.42 9.817 4.11 3.157-.31 5.25-2.45 5.485-5.61.23-3.16-1.42-6.87-4.34-9.72z"/>
<path d="M623.41 81.776c-3.167-2.573-7.038-3.79-10.154-3.188-3.115.6-5 2.925-4.946 6.097s2.044 6.71 5.215 9.277c3.167 2.573 7.038 3.79 10.154 3.188 3.11-.6 5-2.925 4.94-6.097s-2.05-6.71-5.22-9.277z"/>
<path d="M605.21 69.628c-3.55-2.012-7.57-2.568-10.542-1.458-2.973 1.11-4.446 3.714-3.865 6.833s3.13 6.277 6.683 8.283c3.55 2.012 7.57 2.568 10.542 1.458 2.972-1.11 4.446-3.714 3.865-6.833s-3.13-6.27-6.683-8.28z"/>
<path d="M584.84 58.844c-3.718-1.68-7.772-1.868-10.63-.493-2.86 1.38-4.09 4.11-3.228 7.16.863 3.06 3.688 5.97 7.41 7.64 3.717 1.68 7.77 1.87 10.63.5 2.86-1.37 4.09-4.1 3.227-7.15-.87-3.05-3.69-5.96-7.41-7.64z"/>
<path d="M564.86 50.8c-3.822-1.428-7.88-1.344-10.64.22-2.76 1.563-3.805 4.37-2.74 7.357s4.08 5.706 7.905 7.126c3.822 1.428 7.88 1.343 10.64-.22 2.76-1.564 3.805-4.37 2.74-7.358s-4.08-5.705-7.905-7.126z"/>
<path d="M544.56 44.43c-3.92-1.13-7.96-.738-10.592 1.032-2.633 1.77-3.46 4.647-2.17 7.545 1.29 2.9 4.503 5.378 8.425 6.502 3.92 1.13 7.96.73 10.592-1.04 2.633-1.77 3.46-4.65 2.17-7.55-1.29-2.9-4.503-5.38-8.425-6.5z"/>
<path d="M522.21 40.62c-4.048-.514-7.978.497-10.307 2.65-2.33 2.155-2.704 5.125-.982 7.79 1.73 2.665 5.28 4.62 9.33 5.128 4.05.514 7.98-.497 10.31-2.652 2.33-2.154 2.71-5.124.98-7.79-1.72-2.664-5.27-4.62-9.32-5.126z"/>
<path d="M500.15 39.375c-4.077-.167-7.906 1.175-10.043 3.52-2.137 2.345-2.257 5.336-.315 7.844 1.942 2.5 5.652 4.15 9.73 4.31 4.076.17 7.905-1.18 10.042-3.52 2.137-2.35 2.257-5.34.315-7.85-1.95-2.51-5.66-4.16-9.73-4.32z"/>
<path d="M479.94 40.09c-4.077-.168-7.906 1.174-10.043 3.52-2.137 2.344-2.257 5.335-.315 7.843 1.942 2.51 5.652 4.154 9.73 4.314 4.076.168 7.905-1.175 10.042-3.52 2.137-2.344 2.257-5.335.315-7.844-1.95-2.51-5.66-4.154-9.73-4.314z"/>
<path d="M456.25 42.895c-3.978.906-7.323 3.204-8.772 6.026-1.45 2.83-.782 5.75 1.75 7.66s6.542 2.53 10.52 1.62c3.977-.9 7.322-3.2 8.77-6.02 1.45-2.82.782-5.74-1.75-7.65s-6.54-2.53-10.518-1.61z"/>
<path d="M434.7 48.296c-3.89 1.23-7.034 3.797-8.245 6.73s-.306 5.785 2.375 7.482 6.728 1.98 10.616.744c3.89-1.23 7.034-3.797 8.245-6.73s.31-5.785-2.37-7.482-6.73-1.98-10.61-.744z"/>
<path d="M415.04 56.715c-3.716 1.685-6.53 4.607-7.385 7.663-.853 3.056.386 5.78 3.25 7.147 2.863 1.366 6.916 1.166 10.63-.526 3.714-1.69 6.53-4.61 7.383-7.67s-.385-5.78-3.25-7.15c-2.863-1.37-6.915-1.17-10.628.52z"/>
<path d="M395.43 66.766c-3.56 1.996-6.114 5.148-6.704 8.265-.59 3.12.877 5.73 3.847 6.85s6.99.57 10.546-1.43c3.55-1.99 6.11-5.15 6.7-8.26.59-3.12-.88-5.72-3.85-6.84s-6.99-.57-10.55 1.43z"/>
<path d="M376.88 79.35c-3.32 2.37-5.52 5.78-5.766 8.944-.247 3.163 1.494 5.598 4.568 6.385 3.073.78 7.01-.2 10.328-2.57 3.32-2.37 5.52-5.78 5.766-8.95.247-3.17-1.494-5.6-4.568-6.39s-7.01.19-10.328 2.57z"/>
<path d="M359.71 92.358c-3.108 2.643-5.01 6.228-4.99 9.4s1.964 5.452 5.093 5.977c3.13.524 6.97-.785 10.073-3.434 3.108-2.64 5.01-6.22 4.99-9.4-.023-3.17-1.964-5.45-5.093-5.97-3.13-.52-6.97.79-10.073 3.44z"/>
<path d="M344.56 108.19c-2.91 2.86-4.55 6.57-4.302 9.734.25 3.163 2.35 5.297 5.508 5.595 3.158.29 6.895-1.29 9.8-4.15 2.91-2.86 4.55-6.57 4.302-9.74-.248-3.17-2.348-5.3-5.507-5.6-3.15-.3-6.89 1.28-9.8 4.14z"/>
<path d="M331.51 125.79c-2.66 3.093-3.984 6.93-3.472 10.06.513 3.13 2.784 5.08 5.956 5.115s6.765-1.855 9.42-4.953c2.66-3.093 3.985-6.93 3.472-10.06-.513-3.13-2.784-5.08-5.956-5.115s-6.764 1.855-9.42 4.953z"/>
<path d="M319.58 143.81c-2.316 3.36-3.223 7.314-2.38 10.373.845 3.06 3.31 4.755 6.47 4.45 3.157-.305 6.526-2.565 8.836-5.93 2.316-3.358 3.223-7.313 2.38-10.372-.844-3.05-3.31-4.75-6.468-4.45-3.158.31-6.528 2.57-8.838 5.93z"/>
<path d="M309.64 164.24c-1.704 3.707-1.918 7.76-.562 10.628 1.357 2.868 4.077 4.116 7.136 3.273 3.06-.84 5.99-3.64 7.688-7.35 1.705-3.7 1.918-7.76.562-10.63-1.357-2.87-4.077-4.11-7.136-3.27-3.06.85-5.99 3.65-7.688 7.36z"/>
<path d="M301.77 185.59c-1.36 3.846-1.207 7.9.404 10.635 1.61 2.733 4.434 3.73 7.403 2.613s5.635-4.177 6.99-8.026c1.36-3.846 1.207-7.9-.404-10.635-1.61-2.733-4.434-3.73-7.404-2.613s-5.64 4.177-6.99 8.026z"/>
<path stroke-width="2.133" d="M294.94 226.01c-.38 3.257.76 6.378 2.99 8.188s5.21 2.03 7.817.58c2.607-1.45 4.443-4.35 4.817-7.606.38-3.257-.76-6.38-2.99-8.188s-5.21-2.03-7.817-.58c-2.607 1.448-4.444 4.35-4.817 7.606z"/>
<path d="M296.76 207.14c-.91 3.977-.29 7.988 1.623 10.518 1.914 2.53 4.833 3.196 7.655 1.745 2.82-1.45 5.117-4.797 6.02-8.776.91-3.977.292-7.987-1.623-10.518-1.914-2.53-4.832-3.2-7.654-1.75-2.82 1.45-5.11 4.79-6.02 8.77z"/>
</g>
<path d="M685.33 197.47c2.485-2.66 4.798-3.413 7.724-2.443-1.032-7.02-3.253-9.4-5.96-8.555-2.705.845-3.93 4.453-1.764 10.998zm3.8 21.19c2.68-2.466 5.042-3.042 7.886-1.854-.5-7.077-2.535-9.62-5.297-8.98-2.77.64-4.26 4.145-2.59 10.834zm-8.99-40.52c1.728-3.205 3.774-4.52 6.85-4.324-2.78-6.527-5.533-8.267-7.936-6.762-2.402 1.505-2.67 5.306 1.086 11.086zm-9.43-19.28c1.728-3.205 3.774-4.52 6.85-4.324-2.78-6.527-5.533-8.266-7.936-6.762-2.402 1.505-2.67 5.306 1.086 11.086zm-22.61-35.32c1.19-3.44 2.998-5.067 6.066-5.37-3.793-5.994-6.79-7.268-8.92-5.397s-1.782 5.666 2.854 10.767zm-14.78-15.39c1.06-3.483 2.805-5.177 5.86-5.595-4.018-5.847-7.06-7.007-9.118-5.057-2.057 1.95-1.568 5.73 3.258 10.652zm-31.06-26.215c-.064-3.64 1.074-5.79 3.85-7.127-5.622-4.326-8.874-4.492-10.23-2.003-1.356 2.49.273 5.933 6.38 9.13zm16.16 12.122c.567-3.597 2.06-5.516 5.027-6.353-4.79-5.234-7.963-5.96-9.73-3.744-1.767 2.216-.758 5.89 4.703 10.097zm-34.61-22.3c-.44-3.615.47-5.87 3.095-7.487-6.04-3.723-9.29-3.553-10.384-.937-1.09 2.615.89 5.873 7.29 8.423zm-18.85-8.23c-.952-3.513-.374-5.875 1.992-7.85-6.51-2.82-9.704-2.188-10.41.557-.708 2.745 1.714 5.687 8.418 7.294zm-20.31-6.292c-1.246-3.42-.87-5.824 1.32-7.993-6.725-2.26-9.854-1.357-10.326 1.438-.472 2.795 2.19 5.52 9.006 6.555zm-19.95-3.862c-1.49-3.322-1.29-5.745.74-8.067-6.873-1.767-9.928-.64-10.196 2.18-.27 2.823 2.584 5.35 9.456 5.887zm-21.13-1.62c-1.827-3.15-1.878-5.58-.102-8.1-7.017-1.045-9.94.39-9.914 3.226.026 2.83 3.125 5.05 10.016 4.87zm-41.36 3.117c-2.532-2.617-3.167-4.964-2.052-7.838-7.062.678-9.552 2.777-8.843 5.52.708 2.746 4.25 4.15 10.895 2.317zm20.36-2.68c-2.155-2.936-2.467-5.347-.972-8.043-7.09-.285-9.84 1.458-9.51 4.273.33 2.815 3.65 4.686 10.482 3.77zm-40.34 6.995c-2.88-2.226-3.846-4.458-3.154-7.462-6.892 1.684-9.055 4.118-7.96 6.732 1.094 2.615 4.8 3.497 11.114.73zm-38.25 17.587c-3.252-1.637-4.624-3.645-4.516-6.725-6.446 2.963-8.106 5.764-6.535 8.123 1.57 2.36 5.37 2.52 11.05-1.398zm18.44-9.422c-3.03-2.02-4.147-4.18-3.666-7.224-6.758 2.16-8.746 4.737-7.473 7.27 1.28 2.532 5.04 3.154 11.14-.046zm-52.75 33.31c-3.522-.924-5.282-2.6-5.818-5.637-5.687 4.242-6.727 7.328-4.7 9.307 2.03 1.98 5.787 1.344 10.518-3.67zm16.37-13.397c-3.44-1.196-5.062-3.007-5.36-6.075-6 3.784-7.28 6.78-5.412 8.91 1.868 2.133 5.663 1.793 10.772-2.835zm-30.91 27.727c-3.59-.6-5.497-2.11-6.307-5.084-5.277 4.74-6.033 7.908-3.832 9.695 2.2 1.79 5.89.82 10.14-4.61zm-13.04 16.91c-3.63-.27-5.666-1.603-6.742-4.49-4.826 5.2-5.29 8.423-2.937 10.002 2.36 1.58 5.94.275 9.68-5.512zm-10.9 17.3c-3.63.288-5.844-.716-7.35-3.405-3.972 5.878-3.938 9.134-1.37 10.335 2.567 1.2 5.905-.638 8.72-6.93zm-9.58 18.47c-3.562.757-5.888.048-7.73-2.423-3.176 6.344-2.72 9.568-.018 10.425 2.702.858 5.773-1.398 7.748-8.002zm-7.66 18.95c-3.397 1.31-5.806.98-8.016-1.167-2.13 6.767-1.17 9.878 1.634 10.297 2.804.418 5.478-2.296 6.382-9.13zm-5.13 21.13c-3.3 1.536-5.727 1.367-8.076-.628-1.673 6.894-.506 9.934 2.32 10.164 2.825.23 5.312-2.657 5.756-9.536zm-2.09 17.58c-3.108 1.646-5.53 1.84-8.07.596-.924 5.62.556 7.84 3.38 7.64 2.824-.2 4.98-2.795 4.69-8.236zm355.57-83.65c1.243-3.422 3.075-5.02 6.147-5.276-3.702-6.052-6.68-7.372-8.837-5.533-2.157 1.84-1.868 5.64 2.69 10.81zm29.15 98.44c2.68-2.466 5.042-3.042 7.886-1.854-.5-7.077-2.535-9.62-5.297-8.98-2.77.64-4.26 4.145-2.59 10.834z" fill="#ffe300"/>
<path stroke="#ef8a10" stroke-width="1.008" d="M646.9 149.66s7.396-11.707 4.537-22.726-15.064-3.233-14.8.69c.262 3.92 7.885 9.167 8.35 11.56.462 2.393-.863 9.754 1.913 10.477z" fill="#ffd200"/>
<g stroke-linejoin="round" stroke="#000" stroke-width="2.419" fill="#217900">
<path stroke-width="1.935" d="M663.67 124.92c-.086 0-8.022 7.935-6.64 17.596 1.38 9.66 7.502 21.564 6.38 31.57-1.12 10.005-2.93 16.646-2.93 16.646s9.313-10.61 9.4-20.787-6.384-23.548-6.384-31.052c0-7.504.346-14.146.173-13.973zm14.75 32.43s-6.21 4.572-5.606 15.095c.603 10.523 11.472 29.844 11.472 29.844s7.935 16.3 7.676 20.52c-.26 4.22 1.466-4.06.69-13.37-.776-9.32-12.766-29.85-12.766-29.85s-2.587-4.23-2.33-11.22c.26-6.99.95-10.96.864-11.04z"/>
<path d="M505.65 52.293s26.653 1.035 26.825 18.286c-.086 2.67 0 5.86-.95 13.54 5.263-2.85 8.8-10.78 8.11-15.87.085-17.51-23.807-29.5-33.985-15.96z"/>
<path d="M488.75 51.517s21.477-4.485 21.65 12.766c.173 17.25-6.814 20.01-6.814 20.01s16.475-3.536 16.56-21.045c.087-17.51-21.217-25.272-31.396-11.73zM697.38 249.19c.494 7.74 8.07 15.15 5.105 28.652-3.788 15.314-17.125 51.705-14.82 58.127-3.952-5.44-3.294-10.54-3.623-18.12-.33-7.58 11.032-35.73 12.02-45.29 0-8.56.824-20.26 1.318-23.38z"/>
<path d="M697.38 249.36s12.35 15.643 11.69 27.993c-.658 12.35-7.574 26.84-5.268 33.262-3.952-5.434-4.94-8.892-5.27-16.467-.33-7.574 6.093-15.973 4.776-24.206-1.318-8.233-6.093-20.583-5.928-20.583zm-404.56 3.45c-.494 7.74-6.257 14.655-3.294 28.158 3.788 15.314 17.29 34.744 15.15 56.974 3.95-5.434 5.104-11.527 5.433-19.102.33-7.574-14.99-33.098-15.98-42.648 0-8.562-.83-20.254-1.32-23.382z"/>
<path d="M292.82 252.98s-12.02 15.15-11.362 27.5c.165 8.232 15.314 42.647 13.01 49.07 3.95-5.435 5.104-4.777 4.94-13.01-4.447-21.077-12.35-34.58-11.033-42.813 1.317-8.233 4.61-20.748 4.446-20.748z"/>
</g>
<g stroke="#000" stroke-width="1.935" fill="none">
<path d="M526.38 104.56s21.457 1.35 22.508 13.655c1.05 12.304-5.102 19.807-5.102 19.807s2.7 26.56-18.306 34.36c-22.508 2.702-57.77.6-57.77.6s-10.353 2.552-14.554-18.905c-4.2-21.457-5.402-36.612-5.402-36.612s2.1-12.004 17.256-12.754c15.155-.75 61.22.15 61.37-.15z" fill="#8c8a8c"/>
<path stroke-linecap="round" d="M543.63 137.87s-11.554 14.405-10.353 20.257"/>
<path d="M528.18 171.63c2.85 2.4 5.552 5.102 6.152 13.955l1.2 17.706 15.005 135.05 13.204 97.69.91 15.16s-3.15 11.11-12 12.01c-6.45 13.5-41.41 17.4-44.86 17.25-3.15-.15-14.25-4.8-21-4.2-6.75.6-18.45 5.1-23.7 4.35s-17.11-4.8-19.21-13.35c-14.7-4.65-17.1-15.9-17.1-15.9l15.91-112.99 15.46-142.85s1.8-19.05 9.46-21.91c7.95-.75 49.07.75 60.62-1.95z" fill="#8c8a8c"/>
<path d="M447.15 367.15L444 467.084m100.23-86.734l8.853 82.378"/>
<path stroke-linejoin="round" stroke-width="2.016" d="M498.19 114.45l29.923 92.093 96.82.004-78.327 56.92 29.916 92.095-78.33-56.915-78.332 56.914 29.916-92.09-78.327-56.92h96.82z" fill="#fff"/>
</g>
</svg>
