<svg viewBox="0 0 1200 600" xmlns="http://www.w3.org/2000/svg">
<clipPath id="a">
<path d="M0 0v150h700v150H600zm600 0H300v350H0v-50z"/>
</clipPath>
<path fill="#00247d" d="M0 0h1200v600H0z"/>
<path stroke="#fff" stroke-width="60" d="M0 0l600 300m0-300L0 300"/>
<path stroke="#cf142b" stroke-width="40" d="M0 0l600 300m0-300L0 300" clip-path="url(#a)"/>
<path stroke="#fff" stroke-width="100" d="M300 0v350M0 150h700"/>
<path stroke="#cf142b" stroke-width="60" d="M300 0v350M0 150h700"/>
<path d="M0 300h600V0h600v600H0z" fill="#00247d"/>
<path d="M769.47 147.53h256.88l-.306 182.79c2.137 73.48-43.662 119.08-127.93 139.63-59.834-14.86-128.84-45.596-128.94-137.55l.305-184.87z" fill="#fff"/>
<path stroke="#000" stroke-width="1.813" d="M775.15 153.04h245.49l-.29 175.16c2.04 70.41-41.728 114.1-122.26 133.8-57.19-14.237-123.13-43.692-123.23-131.8l.29-177.15z" fill="#00a2bd"/>
<path d="M1018.7 348.94c-8.93 67.21-60.692 96.576-120.66 112.16-53.073-14.238-110.17-36.968-121.24-111.82l241.9-.338z" fill="#a53d08"/>
<path d="M888.36 185.66l-.342-22.075 17.455.17.17 21.905h47.744l.17 17.113-47.913.17-.383 201.82-17.02.11-.21-202.09-47.58.17.01-17.455z"/>
<g stroke="#000" stroke-width=".968" fill="#ff9a08">
<path d="M849.71 357.27l43.703 45.338c15.112-16.61 4.63-78.696-15.247-90.13-2.382 7.352-6.434 16.166-10.74 19.008-9.474 6.457-32.692 14.006-24.932 18.84 1.77-2.45 6.4-4.765 8.577.682 2.59 8.576-9.66 9.122-9.66 9.122s-7.76-.955-9.12-8.85c-1.36-7.897 11.56-15.106 12.66-15.657 1.09-.41 17.97-4.9 20.83-19.878 3.54-14.705 7.22-12.525 7.9-12.798 22.06 2.178 36.49 41.662 37.31 69.436.82 27.774-11.3 46.154-13.48 47.38-2.17 1.224-52.55-59.77-52.55-59.77l4.77-2.722z" fill-rule="evenodd"/>
<path d="M881.57 315.06l.27 81.825m-5.17-80.325l.27 74.338m-5.58-63.588l.27 59.088M867 331.53l.273 48.88m-4.893-46.7v41.253m-5.04-37.983v32.675m-4.36-30.085v25.05"/>
<g stroke="#ffdf00" stroke-width="1.813" stroke-linecap="round" fill="none">
<path stroke-width=".968" d="M849.03 362.44l45.065 51.6"/>
<path d="M896.28 329.9s20.424 44.658 1.498 81.417M843.72 353.05s1.498-3.948 3.404-2.314m-6.944-9.126s-8.17 7.215-3.676 11.845"/>
</g>
</g>
<g stroke="#000" stroke-width=".399">
<path d="M905.78 228.04c3.025-2.595 4.595-4.18 6.468-3.893 1.874.288 4.425.144 6.298-.432 1.88-.578 11.177-1.73 15-.433 1.298.144 3.025.865 5.69 3.1 2.67 2.235 6.563 6.128 5.266 16.942s-.873 15.44-1.443 21.483c-1.01 10.67-3.38 19.455-7.64 18.744 5.76 10.1 6.34 18.75 10.09 25.67 3.75 6.92 6.05 21.05 4.61 36.34-1.44 15.29-5.48 49.6 6.63 72.67-2.02 1.44-6.92 0-11.25-4.61s-6.23-4.46-9.81-1.73c-10.96 8.37-21.22 18.44-36.33 8.37-3.47-2.3-4.56-5.07-2.02-12.11 6.34-17.59 9.42-41.72 8.42-53.06V228.04z" fill="#008021"/>
<path d="M916.17 217.23c.79 2.45 1.222 5.623-.076 8.507-1.298 2.883-1.582 6.344.576 10.525 3.462-4.902 8.367-3.892 11.247-6.776 2.886-2.884 3.462-5.623 5.627-6.2-2.165-1.874-5.48-3.893-4.76-9.372.722-5.48 8.36-9.948 1.443-18.312-4.468-5.398-10.962-3.893-13.772-1.802-1.323.982-2.45 2.378-2.88 3.316-.436.937.108 3.07-.943 4.326a14.172 14.172 0 0 1-2.595 2.45c-.645.47-1.05 1.153-.36 1.948.278.317.784.385 1.34.578-.32.65-.69 1.296-1.05 1.765-.34.44-.195.86.216 1.217-.544 1.73.506 1.918-.215 3.216-.627 1.122-1.475 2.45.867 3.75.645.36 3.715 1.07 5.335.864zm-28.04 28.69c-4.038 1.01-10.526-.72-15.43-.144-2.166.255-3.894-.865-3.602-3.028.285-2.163.576-5.48.14-8.507-.672-4.71 1.588-11.24 4.76-18.45 3.17-7.21 4.758-11.24 4.758-14.63 0-2.23.215-4.75 2.234-6.05 1.494-.96 1.78-1.89 2.31-2.66 1.222-1.8 2.374-2.23 2.52-1.15.088.65-.146 1.23-.722 2.09 1.298-1.08 3.5-2.34 4-2.7.506-.36 3.07-2.16 3.21-.47 1.012-.5 1.695-.47 1.948.07.273.59.108.83-.398 1.26.72-.14 1.55 1.12.107 2.24.76-.25 1.513 1.01.184 2.17-1.38 1.19-2.96 2.02-3.47 2.96-.51.94-3.93 3.57-5.3 4.15-1.38.58-1.45 1.37-1.45 3.39 0 22.2-2.67 20.4-2.67 25.74 0 1.45-.29 2.74 1.15 2.31 1.44-.43 3.53-1.08 5.69-1.08v12.54zm.86 47.87c6.52-3.258 13.988-4.47 17.88-5.48 3.893-1.008 10.095-4.035 13.12-5.62 3.032-1.588 5.48-3.75 7.21-4.327 1.733-.577 3.67-1.77 4.76-3.893 5.62-10.958 8.65-19.752 8.65-27.396 0-5.046-1.297-10.67-6.202-6.632-4.608 3.795-9.627 11.11-10.956 16.437-2.02 8.07-3.747 9.8-4.184 11.39-.43 1.58-2.063 1.58-4.038 2.01-8.506 1.87-10.526 3.17-16.867 7.93-6.34 4.76-13.266 8.94-17.88 11.53-4.613 2.59-5.474 2.88-6.487 4.97-1.006 2.09-1.943 3.67-2.81 4.61-.867.93-1.114 2.03-.937 3.17.14.93-.3 5.26-.37 6.7-.08 1.44.28 1.8.86 1.87.57.07 1.37-.22 1.66-1.95-.29 1.73 2.08 1.15 2.23-.15-.08 1.87 2.45.79 2.59-.94 0 1.22 1.91.38 2.09-.22.43-1.44.79-3.03 1.36-4.18.84-1.68 1.74-3.84 3.39-5.05 1.87-1.37 1.01-2.89 4.9-4.83zm46.71 118.09c.437 1.586 1.228 3.39 1.513 4.47.29 1.08-.215 1.42-.5 2.02-1.513 3.17-3.14 8.227-3.393 10.957-.14 1.586-1.22 3.1-1.728 4.037-.557 1.034-.34 1.83.937 2.812.61.468 2.59-.145 2.81-1.154.72.72 2.01.433 2.59-.65.65.65 1.73.217 2.45-.864.64.433 1.58-.433 1.94-1.01 1.01.505 2.09-.107 2.12-2.09 0-.398.25-1.08.54-1.55.28-.47.39-1.37.36-2.163-.04-.793.47-2.38 1.15-3.496.68-1.12 1.87-3.1 1.36-4.98-.47-1.75-1.23-1.59-1.88-4.11-1.59-1.66-3.75-3.97-5.98-4.11-2.24-.15-3.54 1.37-4.33 1.87zm-41.02 12.4c2.02 2.018 6.563 2.09 9.734-1.298-1.15-.505-3.677-1.658-4.83-2.595-1.587 1.586-3.39 3.388-4.904 3.893z" fill="#ffe1cf"/>
<path d="M915.09 195.03c.79-5.12 4.418-4.998 6.703-4.47.936.217 3.247.433 5.405-.144 4.28-1.14 7.5.36 7.07 4.47 1.152.865 2.373 2.883 2.158 4.614-.215 1.73.146 2.45 1.734 2.667 1.583.217 4.975 2.163 2.734 4.902 2.165 1.29 3.823 4.61 2.67 6.84-1.15 2.23-4.613 2.59-6.056.57-1.582.72-4.183.86-5.766-.79-1.082 1.29-3.823 1.15-4.33 0-.5-1.16-1.353-1.77-2.372-2.09-1.16-.36-1.228-3.53.5-3.9-.216-.94-.14-2.02.29-2.53s.07-1.44-.936-2.24c-1.013-.8-1.873-3.82-.867-5.48-1.728.57-5.55-1.08-6.342-2.24-.797-1.16-1.873-1.23-2.595-.22z" fill="#870f00"/>
<g fill="none">
<path d="M916.17 217.23c2.81-.36 3.747-2.09 5.836-1.947M910.18 209.4c.184.162.418.294.684.44.57.308 1.19.344 1.765.415m-1.61-3.835c.39.135.81.333 1.18.72m5.33-12.11c-1.66-1.586 2.81-4.83 7.5-.216.87.86 3.09.865 3.74.648m-4.76 2.018c2.16-.505 5.4-.505 6.34 1.946.94 2.452 2.81.865 4.33 3.75 1.51 2.883 3.89 6.127 6.19 3.892m-9.16 6.632c-.66-.865-.94-2.74-.51-4.038-.87-1.01-.51-3.1 0-4.11m-5.7 2.158c.07.865 1.23 2.45 3.03 2.74m8.94 4.04c-1.01-1.298-.87-2.45-.65-4.037"/>
<path d="M926.98 200.14c-.07 1.298.722 3.028 2.09 3.604.29.72 1.733 2.74 4.613 2.452m.587-11.316c-1.582-1.228-3.728-2.74-6.563-3.115M916.67 236.26c-2.45 3.317-4.038 7.93-2.88 14.42 1.152 6.488 3.026 16.004-1.734 20.33m23.364 12.55c-3.317-.72-8.076-.72-10.67 1.154s-6.925 2.018-9.805.576"/>
<path d="M928.42 283.34c-2.886.504-4.253 2.523-4.253 7.858 0 5.335-1.152 13.12-.146 20.762m-.86-26.39c-1.87.504-3.81.576-3.45 5.623m-6.27.147c.07-3.1 1.16-5.984 3.17-5.48m17.59 6.06c.15-6.85-1.36-8.795-3.38-8.723 2.74.072 4.61.407 5.77 11.607.87 8.363 2.62 11.323 4.62 17.88 5.19 17.014 2.6 43.255 5.19 52.483m-16.15-71.227c5.48 15.86 8.36 33.45-.57 61.71 6.05 16.727 12.11 28.838 13.26 35.76m-29.99-59.99c1.01-3.604-2.59-4.037.58-16.725 1.38-5.496 1.59-8.795.72-10.526m.01 7.5c-1.29 5.62 4.19 16.15 1.45 23.79m-6.77 1.44c0 4.9 1.15 11.24.87 16.15-.29 4.9 1.71 7.17 4.04 11.82 8.36 16.72 14.05 28.66 13.26 44.41-.14 2.88.87 8.94-2.16 10.67m-15.79 4.26c.87.07 1.81-.36 2.89-2.96s4.55-18.17 3.1-28.84m1.73 12.11c.43 3.31.43 10.09-1.73 15.42m7.21-25.38c1.3 7.06 1.16 13.41.15 17.88m-3.03 0c.15 2.88 1.45 10.09-.72 10.67m11.5-44.11c5.33 8.36 9.52 28.98 13.98 33.3m-9.37-3.31c-.14-2.31-.29-5.48-1.59-6.92m-56.01-94.01c.07-1.59-.21-3.1 1.52-5.55m-4.13 6.49c.22-5.55.14-6.06 1.73-7.57m-3.96 7.72c.07-3.97-.44-5.34 1.15-7.86M892.3 190.2c-.614.396-4.215 3.135-5.728 4.29m7.278-2.96c-.684.108-2.665 1.73-6.196 4.47m6.306-2.24c-1.114.504-3.24 2.56-5.19 3.93m-3.67-4.32c-.538.396-1.582 1.55-2.09 1.946m52.33 239.704c-.323-.36-.323-1.623.253-3.028m2.347 2.378c-.392-.396 0-2.127.4-3.244m2.05 2.384c-.468-.216-.614-1.226.07-2.596m1.88 1.586c-.323-.108-.468-.65.108-2.234"/>
</g>
<path d="M913.97 199.57c1.044 1.37 2.127 1.225 2.317 2.108.19.884.33.946.53 1.208.204.262-.493.21-.834.068-.336-.14-1.184-.126-1.703-.12-.513.01-1.126-.598-.74-.67.38-.07.33-.19.272-.46-.057-.267.215-.692.373-.77.165-.077.05-.063-.095-.423-.152-.36-.342-1.23-.12-.94zm.63-1.26c1.17.137 3.19.77 4.285 1.982.86.953.158.7-.28.736-.435.036-1.29-.273-1.72-.815-.424-.54-1.696-1.227-2.374-1.405-.41-.107-.79-.602.09-.498z" stroke="none"/>
</g>
</svg>
