<svg xmlns="http://www.w3.org/2000/svg" xmlns:xlink="http://www.w3.org/1999/xlink" viewBox="0 0 900 600">
<path fill="#cf142b" d="M0 0h900v600H0z"/>
<path fill="#fff" d="M0 0h450v600H0z"/>
<path d="M22.222 82.828v45.457h45.455c0 7.574 7.576 15.15 15.152 15.15v45.455h45.45v-45.454c7.57 0 15.15-7.577 15.15-15.15h45.45v-45.46h-45.45c0-7.573-7.58-15.15-15.15-15.15V22.223H82.83v45.454c-7.577 0-15.153 7.577-15.153 15.15H22.222z" fill="#e60d2e"/>
<path d="M25.254 85.857v39.397h45.452c0 7.574 7.576 15.15 15.152 15.15v45.454h39.392v-45.454c7.576 0 15.152-7.577 15.152-15.15h45.452V85.857h-45.452c0-7.574-7.576-15.15-15.152-15.15V25.25H85.858v45.454c-7.576 0-15.152 7.577-15.152 15.15H25.254z" fill="#96877d"/>
<path d="M26.77 87.373v36.364h45.452c0 7.574 7.576 15.153 15.152 15.153v45.454h36.362V138.89c7.576 0 15.152-7.58 15.152-15.153h45.452V87.373h-45.452c0-7.574-7.576-15.15-15.152-15.15V26.77H87.374v45.453c-7.576 0-15.152 7.577-15.152 15.15H26.77z" fill="#ccc"/>
<g id="a" fill="#d0d0d0">
<path d="M84.536 71.68c2.663 2.664 1.943 7.7-1.607 11.25s-8.59 4.27-11.25 1.61c-2.67-2.662-1.95-7.7 1.6-11.25s8.58-4.27 11.25-1.607z" fill="#96877d"/>
<path d="M71.143 79.715l1.07-1.072 4.287 2.142-2.143-4.285 1.07-1.072 4.287 8.57-8.57-4.285zm6.43-6.428l1.07-1.07 6.43 6.427L84 79.714z"/>
</g>
<use xlink:href="#a" transform="rotate(90 105.56 105.56)"/>
<use xlink:href="#a" transform="rotate(180 105.56 105.56)"/>
<use xlink:href="#a" transform="rotate(-90 105.56 105.56)"/>
<g stroke="#96877d" stroke-width=".514" fill="none">
<circle cy="105.56" cx="105.56" r="31.822"/>
<circle cy="105.56" cx="105.56" r="24.245"/>
</g>
<circle cy="131.31" cx="93.434" r="1.515"/>
<circle cy="131.31" cx="117.68" r="1.515"/>
<path d="M104.55 131.31v1.58h-2.02c-2.02 0-2.02 1.58 0 1.58h2.02v1.58c.007 1.636 1.763 1.835 1.892.137l.128-1.708h2.02c2.02 0 2.02-1.58 0-1.58h-2.02v-1.58c0-1.58-2.02-1.58-2.02 0zM75.954 113.4l2.084-.497-.23-.965c-.053-.222-.14-.372-.263-.452-.122-.08-.332-.102-.63-.067l-.034-.15 1.8-.43.04.14c-.2.05-.35.11-.43.19a.52.52 0 0 0-.16.26c-.03.1-.02.24.02.42l.23.96 1.67-.4c.27-.07.44-.13.52-.18a.36.36 0 0 0 .13-.21.762.762 0 0 0 .01-.38l-.04-.19.15-.04.55 2.27-.14.03-.04-.19c-.05-.22-.15-.36-.3-.43-.1-.04-.3-.03-.62.05l-3.42.81c-.27.06-.44.12-.52.17a.362.362 0 0 0-.13.2.747.747 0 0 0-.01.38l.05.18-.14.03-.94-3.94 1.15-.33.03.14c-.23.12-.39.25-.49.36a.8.8 0 0 0-.17.39c-.02.14 0 .35.07.63l.28 1.17zm-1.342-9.402c.04-.706.342-1.303.908-1.79.565-.488 1.25-.71 2.052-.664.826.047 1.498.346 2.014.9.516.55.754 1.198.712 1.94a2.514 2.514 0 0 1-.905 1.842c-.56.48-1.264.695-2.11.647-.863-.048-1.552-.382-2.064-1a2.608 2.608 0 0 1-.61-1.875zm.288.093c-.027.49.132.89.476 1.21.43.39 1.077.61 1.943.66.88.05 1.58-.1 2.08-.45a1.41 1.41 0 0 0 .61-1.12 1.58 1.58 0 0 0-.53-1.3c-.38-.35-1-.55-1.86-.6-.93-.05-1.64.09-2.12.43-.38.28-.59.67-.62 1.19zm7.894-9.95l-.517 1.36-3.038.82a8.805 8.805 0 0 1-.16.42 4.25 4.25 0 0 1-.05.12l1.48.57c.32.12.53.17.63.12.14-.05.25-.17.33-.36l.07-.2.14.06-.83 2.18-.14-.05.07-.19c.08-.21.07-.39-.04-.54-.06-.08-.23-.18-.52-.29l-3.29-1.25c-.32-.12-.54-.16-.64-.12-.15.06-.26.18-.33.38l-.08.19-.14-.05.7-1.85c.2-.54.4-.92.57-1.15.17-.23.4-.39.68-.49s.56-.09.86.02c.31.12.54.33.7.62.15.29.19.67.12 1.13l1.86-.49c.42-.11.73-.23.9-.36.18-.13.33-.33.47-.59l.14.05zM78.8 96.76a3.78 3.78 0 0 1 .084-.21c.184-.485.22-.89.102-1.218a1.08 1.08 0 0 0-.663-.676c-.318-.12-.614-.12-.89.004-.274.123-.474.35-.598.677a3.47 3.47 0 0 0-.154.616l2.12.807zm11.596-18.053l1.053 1.367-.12.077c-.35-.28-.68-.45-.99-.51-.44-.08-.88.01-1.31.29-.59.38-.88.9-.88 1.55 0 .56.17 1.1.52 1.64a3.3 3.3 0 0 0 1.02 1.03c.4.25.79.37 1.17.36a1.91 1.91 0 0 0 1-.29 2.215 2.215 0 0 0 .78-.86l-.86-1.32c-.15-.23-.27-.37-.35-.41a.42.42 0 0 0-.26-.05c-.1.01-.24.08-.43.2l-.08-.13 1.77-1.14.08.13-.09.06c-.17.12-.26.25-.25.41.01.11.1.29.25.54l.91 1.4a4.083 4.083 0 0 1-.57.8c-.21.23-.47.45-.78.64-.88.58-1.74.73-2.57.46a2.705 2.705 0 0 1-1.47-1.14 2.93 2.93 0 0 1-.46-1.34 2.95 2.95 0 0 1 .29-1.62c.2-.41.54-.76.99-1.06a2.8 2.8 0 0 1 .48-.25 4.94 4.94 0 0 1 .69-.2 1.12 1.12 0 0 0 .3-.09.16.16 0 0 0 .07-.13.6.6 0 0 0-.1-.27l.13-.08zm8.873.614l-2.04.55-.14.93c-.04.23-.04.4-.01.5.02.08.08.14.17.18s.27.04.52-.01l.04.15-1.66.44-.04-.14c.21-.1.34-.19.38-.26.1-.16.17-.45.23-.87l.7-4.82.13-.03 2.99 3.9c.24.31.43.51.58.58.14.07.33.09.55.04l.03.15-2.08.55-.04-.15c.21-.06.34-.13.4-.21a.28.28 0 0 0 .05-.25c-.03-.11-.13-.28-.3-.5l-.52-.67zm-.19-.25l-1.46-1.89-.35 2.37 1.81-.48zm9.62-.03l.13.04-.53 1.46-4.22-.16v-.15l.2.01c.23.01.39-.06.5-.2.06-.08.09-.28.1-.59l.14-3.51c.01-.34-.02-.55-.09-.64-.1-.12-.25-.18-.46-.19l-.21-.01v-.15l2.46.1-.01.15c-.29-.01-.49.01-.61.06a.49.49 0 0 0-.24.21c-.05.09-.08.29-.09.61l-.14 3.42c-.01.23.01.38.05.46.03.06.08.1.15.13.06.03.27.05.62.07l.39.02c.42.02.71 0 .88-.05a1.1 1.1 0 0 0 .47-.31c.15-.15.3-.39.45-.72zm7.26 1.94l.11.07-.91 1.26-4.01-1.32.04-.14.19.07c.22.08.4.06.54-.05.08-.06.17-.24.26-.54l1.11-3.33c.1-.32.14-.54.09-.64-.06-.15-.19-.25-.38-.32l-.2-.06.04-.14 2.34.78-.05.14c-.28-.09-.48-.13-.6-.11a.492.492 0 0 0-.3.13c-.07.06-.15.25-.26.56l-1.08 3.25c-.07.21-.1.37-.08.46a.292.292 0 0 0 .1.16c.05.05.25.13.58.24l.38.13c.39.13.68.19.86.19.18 0 .36-.06.54-.17.18-.1.39-.29.63-.57zm5.85 3.1l-1.73-1.22-.8.49c-.2.12-.33.22-.39.31-.05.07-.06.15-.03.25s.14.23.34.4l-.09.12-1.4-.99.09-.12c.21.1.36.14.45.13.18-.02.46-.15.82-.37l4.15-2.55.11.09-1.07 4.8c-.09.39-.11.66-.07.82.04.16.14.31.32.45l-.09.12-1.76-1.24.09-.12c.18.12.32.17.42.17a.28.28 0 0 0 .22-.12c.06-.09.13-.28.19-.55l.18-.83zm.08-.31l.51-2.33-2.05 1.25 1.53 1.08zm6.46 1.19l.88 1.19-1.3 5.11 2.52-1.87c.27-.2.41-.35.43-.46.03-.14-.02-.3-.15-.47l-.12-.15.12-.08 1.12 1.53-.12.09-.11-.15c-.14-.19-.29-.28-.46-.27-.1 0-.28.1-.52.28l-3.69 2.74-.09-.11 1.39-5.5-2.7 2c-.27.2-.42.35-.44.46-.03.15.02.31.14.48l.11.15-.12.09-1.13-1.52.12-.09.11.15c.14.19.29.28.46.27.1 0 .27-.09.52-.27l3.04-2.26a2.62 2.62 0 0 0 .08-.5 1.39 1.39 0 0 0-.09-.38 1.28 1.28 0 0 0-.18-.3l.12-.09zm6.87 12.66l-1.19.49-.05-.14c.2-.1.34-.19.41-.27a.81.81 0 0 0 .21-.42 1.152 1.152 0 0 0-.08-.55l-.26-.72-3.93 1.39c-.32.12-.5.22-.56.32-.08.13-.08.3 0 .5l.06.18-.14.05-.77-2.17.14-.05.06.18c.08.22.2.35.36.39.1.03.3-.01.58-.11l3.92-1.39-.22-.62c-.08-.24-.16-.4-.23-.49a.745.745 0 0 0-.4-.24c-.17-.04-.37-.03-.61.03l-.05-.14 1.22-.36 1.49 4.2zm-4.32 9.67l-.08-1.45 2.45-1.97a8.874 8.874 0 0 1-.03-.44v-.12l-1.58.08c-.35.02-.56.07-.64.15-.11.11-.16.26-.15.47l.01.22-.15.01-.12-2.33h.15l.01.21c.01.23.09.39.25.48.09.06.28.07.59.06l3.51-.18c.34-.01.55-.06.63-.14.11-.11.16-.27.15-.48l-.01-.2.15-.01.1 1.98c.03.58.01 1.01-.06 1.29-.07.28-.22.52-.43.72a1.22 1.22 0 0 1-.8.33 1.272 1.272 0 0 1-.89-.28c-.26-.2-.45-.53-.58-.98l-1.5 1.21c-.35.28-.57.51-.68.7s-.17.44-.19.73l-.15.01zm2.59-4.01v.23c.02.52.16.91.4 1.16.23.25.53.37.88.35.34-.02.61-.14.81-.36.2-.22.29-.51.27-.86a3.54 3.54 0 0 0-.11-.62l-2.27.12zm1.5 11.21l-.49 1.84-.15-.03.02-.1c.02-.07.01-.17-.01-.32s-.08-.28-.17-.42a3.617 3.617 0 0 0-.44-.53l-1.67-1.79-1.32-.34c-.33-.09-.54-.1-.64-.05-.14.07-.23.21-.29.42l-.05.17-.15-.04.58-2.24.15.04-.05.19c-.06.23-.03.4.08.53.06.08.25.15.54.23l1.25.33 2.59-.86a4.86 4.86 0 0 0 .57-.22c.08-.04.19-.15.33-.32a.535.535 0 0 0 .1-.21l.14.04-.59 2.26-.15-.04.03-.12a.707.707 0 0 0 .01-.36.286.286 0 0 0-.22-.22c-.09-.02-.28.01-.57.11l-1.99.65 1.35 1.46c.2.22.36.35.48.38a.36.36 0 0 0 .38-.13.81.81 0 0 0 .13-.3l.15.03z"/>
<g stroke="#000" stroke-width=".203" fill="#96877d">
<path d="M122.85 110.19c.532-.135 1.41-.026 1.41-.026s.076.365-.155.487c.257.15 1.18.11 1.18.11s-.36.28-.54.39c.334.03.744.46.744.46s-.77.13-1.11-.05c.2.41.18.77.18.77s-1.25-.31-1.69-1.13m-2.11-1.7c-.3.75-2.51-.64-2.51-.64s.97 1.55 2.43 1.72m-27.51 13.09h25.88l2-1.59-3.33-1.79-5.13-1.74-2.05-1.12-3.79.21-3.18 1.69-4.36.52-1.03 1.18-3.23.26-5.08-.1 8.45 1.33-6.97-.36 1.79 1.54z"/>
<path d="M107.12 116.23c-3.24-1.742-4.19 2.55-5.585 3.587 1.883.32 3.305-1.448 4.92-2.306 1.223 3.34 3.15 1.13 3.15 1.13s2.01 3.19 4.69 1.75c.73.55 1.536.05 1.536.05s.98.18 1.18-.25c.52.18 1.08-.46 1.08-.46s1.12.01 1.33-.56c1.66.3 3.85-3.38 3.85-3.38l.67-1.28.98-.2s.07-.64-.46-.61c-.01-.38-.34-.59-.82-.51.09-.23-.25-.41-.25-.41-.92.23-.97 2.57-.97 2.57s-1.61 1.23-2.2 1.54c-.03-1.33-2.25-3.14-1.79-3.99.46-.86 1.91 1.32 3.18.92 1.27-.4 1.89-2.05 1.95-3.33-.36-.87-1.23-2.3-1.23-2.3l-.82-.05-.72-1.74s-1.51.99-1.48 1.85c.03.86 1.59 1.59 1.59 1.59s-.9.57-1.74.31c-.07.87 1.03.71 1.44.72.21.63.82.97.82.97s.39.96-.61.87c-1-.09-2.18-2.39-3.59-1.33-1.5 1.13.67 3.18.67 3.18s-1.32.69-2.1 2.46c-3.19-2.69-5.06-1.43-8.61-.71z"/>
<path d="M102.46 111.67c1.332 1.255.403 3.342.922 3.74.55.423 1.333-.204 1.333-.204 1.396.37 3.894-.41 3.894-.41 1.09.615.66-.293 1.33-.256.59 1.51 2.56 1.23 2.56 1.23s-1.81-1.845-2.92-2.358c-.86.513-3.36.59-3.79.513-.49-.086-.18-.68-.41-1.025.92-.894.19-3.113-.31-3.946-2.04-1.356-4.47.968-2.62 2.716zm-8.86-3.75c-1.677.453-4.584-2.165-5.943-1.16s-.725 3.48.18 4.71c.886 1.205-1.294 1.64-1.883 2.356-.554.673.18 1.45.18 1.45l.617.398-.1.906.33 1.087s.3.262.4-.073c.28.28.03 1.093.73 1.196-.25-.52.18-1.957.18-1.957s1.22.09 1.53-.434c.31-.53-.29-1.67-.29-1.67h.36c-.41-.28-.54-1.13-.54-1.13s1.69-.54 1.67-1.82c-.01-1.28-2.73-2.64-1.74-3.3 1.11-.74 3.03 1.9 4.68.69 1.63-1.2.58-.04.58-.04s.75-1.68-.9-1.24zm8.65-17.95c-2.242-.934-6.822-.992-9.377-2.254-1.12.07-1.62.955-1.666 1.307-1.172-.058-1.966 1.787-1.793 2.152-2.133-.864-3.126 2.51-2.434 3.203-1.82.077-1.595 2.402-1.768 3.05-.583 1.414.13 1.89 1.28 1.382.174.615-.068.96-.588 1.076 3.157 3.614 4.942-2.223 7.712-2.203 3.458-1.012 4.816-2.716 4.816-2.716l1.358.18 2.46-5.176z"/>
<circle cy="87.384" cx="105.14" r="3.305"/>
<path d="M99.33 113.41c-2.05-.372-5.444-2.498-5.79-5.278 1.908-7.494 11.755-3.58 12.604-9.217-.217-3.72.45-7.4 2.512-10.51.96-1.218 2.203-1.538 2.203-1.538s.22.793-.11 1.332c1.62-.18 3.85.73 5.38.82.45.9.41 1.24.3 1.79-.1.55-.72.41-.72.41-.4.37-.88.76-1.95.56-.81.61-2.51.77-2.51.77s3.56 3.75 2.97 4.92c.74.34 1.84 2 1.84 2s2.43-1.28 3.23-2.46c1.41 0 3.71 1.47 4.87 1.64 1.41 1.14 2.82 2.3 2.82 2.3s-1.68 1.1-2.41-.36c-.89.08-2.8-2.04-5.43-1.38-.08 2.34-2.67 3.99-2.67 3.99s2.41-.34 3.74.46a139.033 139.033 0 0 0 3.38 2.72l1.79 3.07s-1.64.28-2.26-1.85c-.62 1.71-.64-1.07-3.08-2.36-.75.09-1.12.14-1.75-.36-1.76.47-3.83 1.5-6.31 1.23-1.76.55-3.04 2.01-4.82 2.82-1.78.8-2.31.41-2.31.41l-1.44.05c-.21.86-.09 2.18-.87 2.41.5.53-.36 2.83-1.23 3.22.41 1.47 1.61 1.92 2.87 2.66 0 0 1.11-.51 1.84.15s1.48 2.56 1.48 2.56-1.52.1-2-.11c-.48-.2-.53-.7-1.08-.56-3.48-3.09-5.31-1.86-5.64-2.56-.35-.72.82-2.6.46-3.79z"/>
<path d="M90.99 99.655c.18-.226 1.45.254 1.45.254l2.318 1.44 4.71 3.04 1.667 2.42-3.007-.98-4.167-3.59-2.24-1.45s-.9-.94-.72-1.16zm27.86 7.715c-1.627-.41-5.637 4.458-5.637 4.458l3.024 3.28s.09-5.586 2.613-7.738z"/>
<path d="M99.023 93.79c-.887 1.136-.967 3.428.188 4.352.11 1.39 1.3 4.197 2.22 4.46 1.02.288 5.08 1.23 6.67.974-.3 2.575 1.72 4.64 3.59 5.995-.01.24-.01.52.2.8.21.28 1.19.33 1.24.18.44.62 2.55.88 2.7.61.15-.26-3.1-2.53-3.82-3.22-.61-1.14-1.77-3.69-2.05-5.74-1.59-1.9-4.34-1.86-4.34-1.86l.09-3.72.16-4.2-1.48-.77s.3-.13.46-.3c.36.16 1.04-.57 1.13-.77.34.12.65.12.71-.06.05-.16.11-.87.24-1.25 1.12-.98-.16-3.08-1.88-3.11-1.69-.03-2.07 2.03-2.04 2.18.16.65.12.97 0 1.13-.13.16-.72.52-.72.52s-.95-.45-2.1 0-2.45 1.05-2.51 1.79c-.53.08-1.38.76-1.54 1.33-.46-.09-1.06.3-2.05 1.9-1.77.78-1.87 4.56-1.87 4.56s-.48.7-.5 1.07c-.02.37.17.71.4.64.02.25.34.46.48.39.06.25.41.38.62.35.02.17.7.13.76-.02.06-.17-.06-1 .02-1.06.07-.06.64.38.79.26.15-.11-.03-.48-.12-.63-.08-.12-.57-.27-.68-.87s.31-1.43.31-1.43 1.93-1.51 2.14-2.81c1.45.14 2.22-1.12 2.63-1.6z"/>
<path d="M95.68 88.37c.438-1.073 2.023-.974 2.023-.974s.567-1.492 2.703-.602c.804-.62 2.92.27 2.92.27s.794-1.057 1.833-.936c1.92.224 2.24 1.99 2.12 2.293-1.06.27-2.88-.85-4.27-.53-.81.46-2.13.94-2.62 1.6-1.29.14-2.66-1.18-4.73-1.11zm4.01 1.78c.48-.294 1.658-.812 2.46-.178.838.903 2.125 1.742 2.125 1.742l1.46.615.667.41-.436 6.68c-1.352-1.39-2.62-1.63-3.587-3.26-.52-.7-.13-2.38-1.03-3.49-.91-1.11-1.87-1.86-1.67-2.54z"/>
<path d="M103.2 92.082s.765-.145.978.036c.268.09.526.168.598.4.29.085.49.234.49.452.27.072.38.56.38.56l-.254.382s-.29-.272-.326-.562c-.183-.09-.59-.186-.688-.453-.317-.03-.52-.195-.58-.47-.295.067-.598-.345-.598-.345z"/>
<path d="M109.68 87.717c-.436-.487-1.204-.128-1.204-.128l-2.05 3.53-.897.74-.08 2.76.74 2.58-.26 2s1.03-.97 1.15-1.52c.11-.52-.39-2.21-.39-2.21s-.62-1.05.13-3c.74-1.95 2.43-3.56 2.84-4.79z"/>
<path d="M114.74 90.868s-3.2 4.573-8.44 6.2c-1.447.346-.922-3.382-.922-3.382l-.36.103s-.806 3.65 1.128 3.68c5.266-1.04 9.216-6.58 9.216-6.58l-.63-.03zm2.17 26.292s-.487.36-1.127 0c-.333-.77-1.23-.82-1.23-.82s-.578-1.66-1.486-1.178c-.14-.86-1.127-.41-1.127-.41s-.026-1.243-1.18-1.076c.385-1.423-1.588-1.333-1.588-1.333s-.064-1.6-2.972-1.28c6.265-2.806 11.222 4.406 11.222 4.406m2.458 2.3s1.448 1.62 2.203 1.64c.756.01.82-1.59.82-1.59s.244.69.615.51c-.038.48.46.61.46.61s-1.305 3.03-5.02.15m-10.408-.71l-.512 2.1s-.654.59-.462.72c.193.13 1.23-.21 1.23-.21s1.614-.19 2.1-.67c.334.75 1.077.82 1.077.82s.05-.32-.05-.51c.358.06.665-.06.665-.06s.205-.59-.256-.82c.05-.44.27-.82-.512-.77-.577.62-2 1.32-2.358 1.08-.358-.24 1.41-1.03.923-2.05"/>
</g>
</svg>
