<svg xmlns="http://www.w3.org/2000/svg" xmlns:xlink="http://www.w3.org/1999/xlink" viewBox="0 0 2800 1400">
<path fill="#cc0001" d="M0 0h2800v1400H0z"/>
<path id="a" fill="#fff" d="M0 1300h2800v100H0z"/>
<use xlink:href="#a" transform="translate(0 -200)"/>
<use xlink:href="#a" transform="translate(0 -400)"/>
<use xlink:href="#a" transform="translate(0 -600)"/>
<use xlink:href="#a" transform="translate(0 -800)"/>
<use xlink:href="#a" transform="translate(0 -1000)"/>
<use xlink:href="#a" transform="translate(0 -1200)"/>
<path fill="#010066" d="M0 0h1400v800H0z"/>
<path fill="#fc0" d="M576 100c-166.15 0-301 134.41-301 300s134.85 300 301 300c60.03 0 115.95-17.56 162.93-47.78-27.36 9.44-56.71 14.6-87.27 14.6-147.33 0-266.9-119.17-266.9-266.01S504.33 134.8 651.66 134.8c32.55 0 63.74 5.81 92.6 16.47C696.22 118.91 638.3 100 576 100z"/>
<path fill="#fc0" d="M1075.18 556.18l-126.794-66.153 37.487 135.386-84.81-113.248-26.456 137.845-26.024-137.932-85.153 113 37.908-135.275L674.34 555.57l94.35-105.83-143.684 5.515 132.08-55.43-131.902-55.83 143.66 5.95-94.007-106.117L801.63 309.98l-37.487-135.385 84.797 113.248 26.457-137.846L901.42 287.93l85.167-113-37.92 135.274 126.997-65.767-94.338 105.83 143.685-5.515-132.09 55.432 131.92 55.83-143.67-5.952z"/>
</svg>
