<svg id="mozambique_flag" xmlns="http://www.w3.org/2000/svg" viewBox="0 0 900 600">
<rect width="900" height="600"/>
<rect width="900" fill="#fff" height="206.25"/>
<rect width="900" fill="#007168" height="187.5"/>
<rect y="393.5" width="900" fill="#fff" height="206.5"/>
<rect y="412.5" width="900" fill="#fce100" height="187.5"/>
<path d="m0 0v600l393.75-300z" fill="#d21034"/>
<path fill="#fce100" d="m189.55 214.57l-60.76-42.57-58.859 45.07 21.712-70.94-61.055-42.05 74.182-1.27 21.12-71.06 24.13 70.16 74.11-1.88-59.26 44.64z" transform="matrix(1.2218 .025428 -.025428 1.2218 -21.76 145.51)"/>
<path stroke-linejoin="round" d="m77.112 167.91h41.838c3.36 3.78 10.87 5.32 18.03-0.04 13.11-7.18 38.47 0.04 38.47 0.04l5-5.3-12.18-39.97-4.37-4.68s-9.36-5.62-27.16-3.74c-17.79 1.87-24.04-0.63-24.04-0.63s-15.607 1.87-19.978 4.06c-0.481 0.39-4.995 4.99-4.995 4.99z" fill-rule="evenodd" transform="matrix(1.2597 0 0 1.2597 -29.416 140.9)" stroke="#000" stroke-linecap="round" stroke-width="1.25" fill="#fff"/>
<path stroke-linejoin="round" d="m85.542 157.61s39.958-4.99 51.508 10.3c-6.52 4.47-12.26 4.83-18.42 0.32 0.98-1.64 14.37-15.61 48.39-10.93" transform="matrix(1.2597 0 0 1.2597 -29.416 140.9)" stroke="#000" stroke-linecap="round" stroke-width="1.25" fill="none"/>
<path stroke-linejoin="round" d="m128.31 117.65l-0.31 44.02m35.9-43.4l7.5 34.97m-78.266-35.52l-4.158 18.04" transform="matrix(1.2597 0 0 1.2597 -29.416 140.9)" stroke="#000" stroke-linecap="round" stroke-width="1.25"/>
<path stroke-linejoin="round" d="m49.942 172.71l9.838 11.53c1.155 0.69 2.181 0.65 3.208 0l14.58-17.5 6.124-7.58c0.948-1.12 1.251-2.37 1.166-3.5l11.708-10.4c0.957 0.07 1.528 0.18 2.486 0.24-1.132-0.29-1.962-0.84-1.071-2.08l2.619-2.04 2.05 2.62s-2.92 3.79-3.211 3.79h-3.208l-6.124 5.54 2.677 2.37 4.03 11.04 4.956-3.5-3.206-11.37 6.996-7.58-2.62-4.08 1.75-2.33s24.22 15.24 33.55 11.16c0.25 0.09 0.57-10.87 0.57-10.87s-25.08-2.63-25.67-7.59c-0.58-4.95 5.54-5.54 5.54-5.54l-2.62-3.79 0.58-2.04 4.38 5.54 9.91-8.45 58.32 66.48c3.19-1.29 3.87-2.07 4.09-5.25-0.08-0.08-57.16-65.61-57.16-65.61l4.38-4.66c0.86-0.98 1.16-1.39 1.16-2.92l6.71-5.832c2.02 0.693 3.3 1.902 4.37 3.502l18.44-15.63c0.49 0.486 1.96 0.972 2.97 0.426l30.48-29.262-33.22 23.468-1.17-0.875c0-0.972 1.2-1.213 0-2.916-1.29-1.549-3.21 1.458-3.5 1.458s-4.81-1.597-5.8-3.619l-0.32 5.368-8.46 7.874-6.42-0.292-9.33 9.04-1.16 3.5 1.45 2.92s-4.95 4.37-4.95 4.08-1.01-1.29-1.05-1.42l4.26-3.83 0.58-2.625-1.42-2.216c-0.43 0.312-5.87 6.011-6.16 5.421-0.49-0.54-15.75-17.786-15.75-17.786l0.87-3.208-9.91-10.789c-3.614-1.248-9.332-1.458-10.498 6.415-0.908 1.85-8.457 0.292-8.457 0.292l-4.082 0.875-23.038 32.661 12.831 15.45 26.245-33.239 0.779-9.418 5.51 6.157c1.83 0.236 3.58 0.257 5.25-0.583l15.55 17.353-2.59 2.53c0.87 0.97 1.47 1.59 2.35 2.56 0.87-0.58 1.71-1.28 2.58-1.86 0.3 0.39 0.78 1.13 1.07 1.51-1.3 0.71-2.21 1.66-3.52 2.37-2.08-1.36-4.09-3.05-3.94-5.75l-8.75 7.29-0.29 1.46-25.955 21.58-2.333 0.29-0.583 6.71 16.913-14v-2.04l1.748 1.46 13.12-10.5s0.88 1.17 0.59 1.17-11.67 10.5-11.67 10.5l-0.29 1.16-2.04 1.75-1.166-0.87-15.747 13.99h-2.333l-8.748 8.75c-2.256 0.2-4.212 0.44-6.124 1.75z" fill-rule="evenodd" transform="matrix(1.2597 0 0 1.2597 -29.416 140.9)" stroke="#000" stroke-linecap="round" stroke-width="1.25"/>
</svg>
