<svg xmlns="http://www.w3.org/2000/svg" viewBox="0 0 900 600">
<path d="M0 0h900v600H0z"/>
<path fill="#fff" d="M0 0h900v206.25H0z"/>
<path fill="#007168" d="M0 0h900v187.5H0z"/>
<path fill="#fff" d="M0 393.5h900V600H0z"/>
<path fill="#fce100" d="M0 412.5h900V600H0z"/>
<path d="M0 0v600l393.75-300z" fill="#d21034"/>
<path fill="#fce100" d="M204.376 412.492l-73.154-53.558-73.06 53.57 28.332-86.122-73.528-52.93 90.668.335 27.61-86.284 27.7 86.335 90.594-.412-73.54 53.034z"/>
<path stroke-linejoin="round" d="M67.722 352.416h52.703c4.233 4.762 13.693 6.702 22.713-.05 16.514-9.045 48.46.05 48.46.05l6.3-6.676-15.344-50.35-5.505-5.896s-11.8-7.08-34.22-4.71c-22.41 2.355-30.29-.795-30.29-.795s-19.66 2.35-25.17 5.11c-.61.49-6.29 6.28-6.29 6.28z" fill-rule="evenodd" stroke="#000" stroke-linecap="round" stroke-width="1.575" fill="#fff"/>
<path stroke-linejoin="round" d="M78.34 339.44s50.336-6.285 64.886 12.976c-8.213 5.63-15.444 6.085-23.204.403 1.235-2.07 18.102-19.67 60.957-13.77" stroke="#000" stroke-linecap="round" stroke-width="1.575" fill="none"/>
<path stroke-linejoin="round" d="M132.216 289.104l-.39 55.452m45.223-54.67l9.44 44.05M87.9 289.192l-5.237 22.725" stroke="#000" stroke-linecap="round" stroke-width="1.575"/>
<path stroke-linejoin="round" d="M33.496 358.463l12.393 14.524c1.45.87 2.74.82 4.04 0l18.36-22.045 7.71-9.548c1.19-1.41 1.57-2.986 1.47-4.41l14.74-13.1c1.2.088 1.92.227 3.13.302-1.43-.365-2.48-1.058-1.35-2.62l3.3-2.57 2.58 3.3s-3.68 4.775-4.05 4.775H91.8l-7.714 6.98 3.373 2.99 5.07 13.91 6.24-4.41-4.04-14.32 8.81-9.55-3.3-5.14 2.2-2.93s30.51 19.2 42.26 14.06c.31.11.72-13.69.72-13.69s-31.6-3.31-32.34-9.56c-.73-6.23 6.98-6.98 6.98-6.98l-3.3-4.77.73-2.57 5.51 6.98 12.48-10.64 73.46 83.75c4.02-1.63 4.87-2.61 5.15-6.61-.1-.1-72.01-82.65-72.01-82.65l5.52-5.87c1.08-1.23 1.46-1.75 1.46-3.67l8.45-7.34c2.54.88 4.16 2.4 5.5 4.42l23.23-19.69c.62.61 2.47 1.22 3.74.54l38.4-36.86L186.53 243l-1.473-1.1c0-1.225 1.515-1.53 0-3.674-1.62-1.95-4.04 1.84-4.406 1.84s-6.06-2.014-7.31-4.56l-.4 6.76-10.66 9.92-8.09-.37-11.75 11.39-1.46 4.41 1.83 3.68s-6.23 5.504-6.23 5.14-1.27-1.626-1.32-1.79l5.37-4.825.73-3.3-1.79-2.79c-.54.39-7.4 7.57-7.76 6.83-.62-.68-19.84-22.4-19.84-22.4l1.09-4.04-12.48-13.59c-4.55-1.57-11.75-1.83-13.22 8.08-1.14 2.33-10.65.37-10.65.37l-5.14 1.1-29.02 41.15 16.16 19.46 33.06-41.87.98-11.86 6.94 7.76c2.31.3 4.51.33 6.62-.73l19.59 21.86-3.26 3.19c1.1 1.22 1.85 2 2.96 3.22 1.1-.73 2.16-1.61 3.25-2.34.38.49.98 1.43 1.35 1.9-1.63.9-2.78 2.09-4.43 2.99-2.62-1.71-5.15-3.84-4.96-7.24l-11.02 9.18-.36 1.84-32.66 27.14-2.94.37-.73 8.45 21.32-17.63v-2.57l2.2 1.84 16.53-13.22s1.11 1.48.75 1.48-14.7 13.23-14.7 13.23l-.36 1.46-2.57 2.21-1.47-1.09-19.84 17.62H72L60.98 338.9c-2.84.25-5.3.56-7.71 2.21z" fill-rule="evenodd" stroke="#000" stroke-linecap="round" stroke-width="1.575"/>
</svg>
