<svg xmlns="http://www.w3.org/2000/svg" viewBox="0 0 920 460">
<path fill="#007934" d="M0 0h920v460H0z"/>
<path fill="#fff" d="M280 0h360v460H280z"/>
<path d="M463.32 30.575l-2.414 26.116c-2.948.45-5.895.89-8.842 1.33 0 0 6.14 3.45 7.213 6.92.172.56.103 1.02-.145 1.36a1.944 1.944 0 0 1-.32.32c-1.78 1.37-7.04.73-7.04.73s6.97 5.88 7.505 8.01c.012.05.028.1.03.15-.002.04.007.11 0 .15-.01.03-.047.09-.06.12a1.108 1.108 0 0 1-.232.32c-1.638 1.52-9.365 1.94-9.365 1.94s8.567 6.11 9.103 9.57c.486 3.14.08 4.98 0 5.29-.598-.51-14.415-12.12-23.327-8.73-.443.23-.706.45-.814.67a.55.55 0 0 0-.03.35c.625 1.93 13.228 3.91 22.02 11.51-.22 1.91-25.056-6.05-25.974-1.07.777 1.41 26.73 5.15 28.65 8.54-9.56.36-29.304-2.1-28.65 1.04-1.997 3.63 18.65 1.58 27.31 4.54 2.54 2.87 2.295 5.28-2.122 5.58-8.35-3.97-27.034-6.91-27.08-1.85v.03c.003.01.028.03.03.03.008.02.016.05.03.06.03.03.095.06.144.09 2.11 1.06 19.51.54 26.06 4.86-9.287 2.1-40.78-4.26-40.98-1.16.896 1.45 5.88 7.82 14.455 7.55s28.414 3.47 29.755 6.13a.36.36 0 0 1 .03.24c-.58 1.86-26.127-5.67-35.95-1.04-10.183 4.8 29.197 1.89 35.63 7.75 6.43 5.86-12.857-.55-12.857-.55s-26.783-3.71-30.802-1.85c-4.02 1.87-8.58 6.13-8.58 6.13s2.68 5.32 5.36 4.25c.41-.16.69-.19.85-.14h.03c.01 0 .03.03.03.03.01 0 .02.02.03.03l.03.03.03.03a.538.538 0 0 1 .03.12c.06.8-1.83 3.12-1.83 3.12s37.53 9.04 45.84 17.04c8.31 8-47.7-12.52-47.7-12.52s-22.51 8.26 1.34 8.79c-2.66 3.87 1.1 6.25 1.34 6.39 0 0 39.67 8.27 43.69 14.67 4.02 6.4-27.06-6.14-34.03-9.6-6.72-3.34-25.43 1.77-26.49 3.33a.56.56 0 0 0-.03.06c0 .01.01.03 0 .03a.388.388 0 0 0 0 .06v.03c.01.01 0 .03 0 .03l.03.03v.03a.97.97 0 0 0 .06.09c.01.01.03.02.03.03 1.2 1.31 9.55 3.12 9.81 5.38v.03a.863.863 0 0 1-.09.37c-1.05 2.03-11.01 2.89-11.43 4.8 0 .04-.03.09-.03.12 0 2.13 50.13 12.52 63.53 23.72s-39.38-13.34-39.38-13.34 2.95 4 0 5.06c-2.95 1.07-13.42-14.92-30.57-5.06-3.12 4.06 14.98 7.28 19.58 7.72-1.57 4.02-2.94 5.35 3.49 9.35.71.44 1.1.7 1.25.84l.03.03.03.03v.06h-.06c-.99-.15-12.55-6.06-13.76-6.3h-.09c0 .54 1.34 6.94 1.34 6.94-5.94-4.79-13.11-6.24-19.84-1.33-.01.29-.06 4.89 6.69 7.73-3.8 7.73 4.3 5.33 17.16 12.52-19.11-4.96-20.64 4.26-6.98 6.4s51.19 3.46 60.04 14.92c1.87 2.41 2.37 3.63 2.01 4.02-1.47 1.33-15.04-8.43-17.01-8.8h-.03l-.03.03a.898.898 0 0 0-.09.15c-.48 1.06-.93 5.67-.93 5.67-5.71-3.29-10.96-6.24-17.8-7.64-.53 1.07-.42 2.58-.96 3.65-6.2-4.45-11.61-7.58-20.62-8.01-.36 1.42-.72 2.86-1.07 4.28 0 0-7.51-9.32-22.25 0-8.23 5.87 31.09 2.13 37.52 9.05 6.43 6.93 1.34 7.99 1.34 7.99-5.36-1.95-10.69-3.88-16.05-5.84 0 0-19.05-3.48-24.41.78-5.36 4.27 78.24 14.66 80.65 26.12 1.63 6.22-19.64-6.5-38.04-11.97-.71 2.04-1.44 4.07-2.15 6.11-.43-.43-7.55-7.31-15.53-8.5 0 0-.03.02-.03.03v.06c.01.87 1.63 7.11 1.63 7.11s-20.61-9.6-31.06-4.54 36.44 7.73 40.72 12.53c.47.52.67.9.64 1.15a.55.55 0 0 1-.06.14c-1.03 1.51-15.01-4.06-16.4-1.3-1.61 3.2-24.38-5.86-24.11-1.59.27 4.27 3.23 6.65 3.23 6.65s47.43 4.53 49.04 10.12c1.61 5.6-26.26-3.18-26.26-3.18s-2.69 3.98-.55 5.84a1.6 1.6 0 0 1 .18.18v.03h-.03c-.97-.32-16.07-10.15-14.6-2.6-5.91-2.34-21.17-9.58-19.02-3.99 2.11 5.51 41.91 13.36 43.08 13.59-1.05.08-17.88 1.48-17.1 5.87-22.55-13.66-22.5-5.47-21.99-4.83v.03c-1.26-.2-29.01-7.07-6.95 4.8 11.83 6.37 14.72 8.85 14.78 9.81v.09a.506.506 0 0 1-.03.09c0 .01-.02.03-.03.03-.01.02-.01.05-.02.06l-.03.03-.03.03-.03.03c-.01.01-.02.03-.03.03-.46.29-1.57.17-1.89.18h-.06a.133.133 0 0 0-.03.03l.03.03c.32.47 2.05 5.17 1.95 5.99a.15.15 0 0 1-.03.06v.03h-.03s.01.03 0 .03h-.06c-.96-.25-15.58-8.01-20.59-8.53-5.09-.54-29.21 6.65-3.49 17.84s41.53-2.67 55.73-1.07c14.2 1.6 20.92 4 19.58 8.53-1.34 4.53-14.53-14.85-28.39 1.91-15.77-3.1-26.46-4.9-18.33 6.62-25.75-9.57-41.47 2.92-9.05 7.98 31.86.94 51.45-7.72 51.45-7.72s5.37 9.88 13.14 2.95c7.41-6.6 7.99 1.8 8.26 2.6 0 .01.02.02.03.03v.03h.03c.57-.14 7.48-3.21 7.48-3.21h1.89v63.94c8.66.09 17.31.17 25.97.26 0 0-8.31-55.67-3.75-63.13 4.41-7.23 8.58-6.45 8.84-6.39 0 0 16.88 5.05 18.76 4.25.02-.01.07-.02.09-.03.01-.01.04-.02.05-.03a1.123 1.123 0 0 0 .15-.12c1.38-1.24-.02-6.16 8.55-5.4 2.65-.96 1.64-5.16 3.35-6.19.03-.02.09-.04.12-.06.06-.03.16-.07.23-.09.1-.03.23-.04.35-.05 2.68-.27 54.39 14.38 65.64.52-2.95-7.73-13.14-.53-15.82-.26-2.41 0-12.6-4.8-18.5 0-5.36-4-29.72-6.65-29.72-6.65-3.21-3.19 58.15 1.59 61.64-.81 7.24-7.19-13.39-6.39-16.61-3.99-5.71-3.46-12.9-3.21-17.27-.81-2.1-4.99-22.02-2.83-33.1-4.25-3.54-2.07-2.95-3.25-.55-4.54 23.14.98 46.15 3.98 69.4 2.95 6.29-8.15-7.91-11.22-16.61-4.28-5.1-8.35-15.54-.27-22.51-1.07-6.96-.8-3.75-9.31 5.09-7.98 8.84 1.34 24.66-.54 27.6-4.54 2.95-3.99-1.76-8.04-16.34-4.25-4.94-4.8-15.79-.01-20.88 1.59-6.77-3.76-22.53-.52-27.89.81-5.24-3.24 27.61-8.53 27.61-8.53 12.68-.22 19.83-2.4 23.85-3.47 19.17-10.22-.27-11.3-10.32-3.88-6.24-4.85-12.17.42-17.8 2.29-5.27 1.75-15.03 3.02-16.23 2.52a.63.63 0 0 1-.06-.03.212.212 0 0 1-.03-.03l-.03-.03v-.06a.473.473 0 0 1 .03-.06c.79-1.21 15.24-10.03 15.24-10.03s18.76-1.34 22.51-1.88c2.29-.32 10.3-4.09 10.3-5.49-.07-.87-3.41-.79-13.53 1.76-9.11.8-14.46.29-17.94.55-5.6-.57-7.96-1.16-8.43-1.68a.658.658 0 0 1-.06-.08.277.277 0 0 1 .06-.29 1.19 1.19 0 0 1 .09-.09c1.37-1.09 10.23-1.88 10.23-1.88s27.07-2.47 28.86-3.88l.03-.03a.263.263 0 0 0 .03-.05c0-.01.03-.02.03-.03.55-11-22.96-5.92-23.59-5.84.07-7.74-21.22-.12-22.22 0H517c-.92-.54-1.32-1.1-1.4-1.62-.02-.2 0-.42.06-.61.54-1.6 3.76-2.84 3.76-2.84 5.89-1.42 14.71-1.86 17.01-3.73 0 0 16.64-.14 18.61-4.54-4.085-11.2-35.215 1.99-39.38 3.99-.84 0-1.35-.21-1.6-.55-1.37-1.98 5.383-8.53 5.61-8.76l.03-.03c1.03-.29 25.884-1.55 37.753-17.55.84-9.89-14.2 5.58-14.2 5.58-1.12-12.83-16.34.82-25.19 1.88-8.84 1.07-9.1-4-2.94-4.8 6.16-.79 13.12-.27 16.61-9.6 3.48-9.32 13.95.55 15.82-2.92 1.82-3.35-3.42-6.22-3.75-6.39 0 0 7.77-8.01-4.83-7.75-12.47.27-28.59-1.55-28.91-1.59.78-.29 13.48-5.06 25.42-4.8 12.33.27 5.62-8.79-6.17-8.79s-17.95-4.02-17.95-4.02l20.1-7.46-1.34-5.58s11.79-9.33-4.83-7.2c-16.61 2.13-18.5 2.4-18.5 2.4s-32.7 4.98-33.47 5.06h-.03c-.31-.05-3.55-1.05-4.16-2.29a1.567 1.567 0 0 1-.06-.14 1.126 1.126 0 0 1-.03-.17.928.928 0 0 1 0-.2c.14-.65 1.15-1.35 3.73-1.99 8.57-2.13 38.87-8.25 43.42-6.65.588.2 1.017.16 1.28-.06 1.71-1.54-3.973-11.34-17.92-12.73-16.074-1.59-25.97 3.99-25.97 3.99s-10.46-3.74-.813-6.94c9.646-3.19 24.926 1.07 24.926 1.07s17.14-5.07 2.94-7.2-18.68 1.92-25.18 2.14c-2.6-3.22 22.29-3.98 23.85-6.65-2.63-4.8-18.03 0-27.05 0-3.84-1.62-4.1-4.25.26-5.87 9.2-.35 17.85.18 27.05-.17-.27-4.89 0-10.68-.26-15.56-11.67-2.12-25.36 1.55-31.91 1.24 1.75-5.33 26.95-6.7 29.75-8.15 5.79-7.19-24.167-.11-24.897 0-5.32-.78-5-4.12-1.63-6.13 7.77-.89 25.19 1.13 23.88-4.11-1.01-4.91-12.09-2.28-16.64-1.22-4.56 1.07-11.26.26-11.26.26-2.91-3.9 26.27-2.3 26.01-5.32-.38-3.46-18.5-1.07-24.67-.81-4.74-3.25 22.28-5.41 23.56-5.84l.03-.03c1-8.85-18.76 0-22.52 0-.65 0-1.13-.16-1.49-.43a2.222 2.222 0 0 1-.23-.23c-1.29-1.49-.15-4.91-.15-4.91s7.04-3.14 7.47-3.9c0-.01.03-.03.03-.03v-.06l-.03-.03a.576.576 0 0 0-.09-.09c-.83-.63-5.67-2.23-6.31-2.29h-.03a.142.142 0 0 1-.03-.03.223.223 0 0 1-.03-.02.146.146 0 0 0-.03-.03c-.37-.74.08-6.04.08-6.04s5.58-4.16 5.93-5.81v-.27l-.03-.06v-.03a.14.14 0 0 0-.03-.03l-.03-.03c-.01-.01-.02-.04-.03-.05l-.03-.025a.938.938 0 0 0-.09-.06l-.06-.03c-1.41-.67-7.24 1.33-7.24 1.33v-5.4s5.11-.55 5.64-2.95c.03-.14.02-.28 0-.4-.01-.05-.01-.124-.03-.17a1.346 1.346 0 0 0-.14-.32c-.01-.01-.05-.04-.06-.06-1.17-1.5-5.94-1.702-5.94-1.702l-2.67-27.96zm-4.77 91.332v3.673s-6.01-.306-7.126-1.244c-.006-.004-.024-.024-.03-.03l-.028-.027-.03-.03-.03-.03c-.01-.02-.02-.05-.028-.06-.002-.01.002-.03 0-.03-.002-.01-.028-.03-.03-.03 0-.01.002-.03 0-.03v-.09c.002-.01 0-.02 0-.03.007-.02.02-.07.03-.09.002-.01.026-.03.03-.03a.798.798 0 0 1 .057-.09l.03-.03c.012-.01.045-.05.058-.06.04-.04.093-.08.145-.12 2.016-1.41 6.042-1.37 6.835-1.59h.03c.006 0 .024-.03.03-.03h.028c.01 0 .03-.03.03-.03zm8.522 4.888c.208 0 11.97.1 13 1.62.01.01.024.044.03.057.008.02.025.067.03.087.002.01 0 .04 0 .05 0 .02.004.06 0 .08a.973.973 0 0 1-.03.08c-.898 1.89-12.798 3.03-12.798 3.03l-.232-5.04zm-.67 7.26c.005 0 .026-.003.03 0 .004 0 .023-.003.03 0 .698.182 5.57.34 6.166 1.155.006.008.024.022.03.03 0 .003-.003.024 0 .028.003.008.025.02.028.03v.144c-.002.004-.028.024-.03.03 0 .003.003.023 0 .027l-.028.05-.03.03c-.004 0 .004.02 0 .03-1.01 1.22-5.505 1.56-5.73 1.56h-.03s.003-.03 0-.03c-.003-.01-.024-.02-.028-.03-.205-.42-.407-3.07-.407-3.07zm-35.862 9.658c3.84-.198 11.462.7 25.77 4.628 0 .31.29 4 .175 4.6 0 .01-.028.03-.03.03v.03c-.002 0-.025.03-.03.03-.223-.11-26.03-7.48-28.387-7.37a1.147 1.147 0 0 1-.203 0 1.945 1.945 0 0 1-.175-.03c-.064-.01-.147-.06-.203-.08-.02-.01-.068-.02-.088-.03a.107.107 0 0 1-.03-.03.826.826 0 0 1-.21-.2c-.01 0-.03-.02-.03-.03l-.03-.06v-.03a.185.185 0 0 1-.03-.05v-.14a.703.703 0 0 1 .03-.11.873.873 0 0 1 .17-.26c.39-.38 1.38-.77 3.28-.86zm13.38 10.903c4.113-.146 13.968 2.21 14.513 2.083 0 .78.436 4.47-.058 5.23a.168.168 0 0 0-.03.03.14.14 0 0 0-.028.03c-.006 0-.024.02-.03.03a.685.685 0 0 1-.058.03c-.01 0-.03-.01-.03 0h-.06c-.01-.01-.02 0-.03 0-.84-.21-15.38-4.81-15.94-6.69-.01-.03 0-.09 0-.12a.383.383 0 0 1 .08-.2l.03-.03a.21.21 0 0 1 .03-.03c.28-.22.85-.35 1.6-.38zm40.486 10.122c3.928-.076 6.702.258 5.672 1.446-2.805 3.236-22.192 5.9-22.192 5.9l-.35-5.9c.417-.06 10.268-1.317 16.87-1.446zm-55.495 18.394c3.3-.174 10.98 1.626 28.07 8.82l.12 4.253s-28.95-8.73-29.96-10.18c-.5-.714-1.42-2.723 1.78-2.893zm56.72 6.334c.88-.045 1.5.044 1.72.26l.03.03c.01.02.02.065.03.086.01.022.03.063.03.087-.01.12-.1.28-.26.46-2.69 3.01-17.16 6.01-17.16 6.01v-3.9h.03c.66-.03 11.28-2.82 15.59-3.04zm-63.46.52c4.32-.227 14.08 2.052 35.95 12.35 0 .106.2 3.658.12 3.99h-.03c-1.29-.415-39.35-13.707-39.35-13.707-.04-.15-.61-2.43 3.32-2.64zm72.45 16.63c1.11-.046 1.83.05 2.01.29a.332.332 0 0 1 .03.116c0 .115-.1.263-.29.433-3.45 3.1-25.45 6.854-26.23 6.912h-.03s-.02.002-.03 0l-.03-.03a.41.41 0 0 1-.02-.056v-.02c0-.01-.02-.04-.03-.06-.14-.72.32-3.23.35-3.58v-.03h.03c.01 0 .03.03.03.03h.03c1.41-.02 18.27-3.74 24.2-3.99zm-64.68 9.69c6.55-.337 26.4 8.712 27.37 8.993h.03c-.1.4-.12 3.67-.2 4.19v.06h-.03c-.53-.29-27.73-11.51-28.94-10.62-.75-1.77.03-2.54 1.78-2.63zm58.52 2.37c1.37-.06 2.36 0 2.68.174a.248.248 0 0 1 .09.087v.03a.39.39 0 0 1 0 .028c0 .012.01.046 0 .058 0 .006-.02.022-.03.03a.78.78 0 0 1-.08.085c-2.02 1.786-20.77 5.466-20.77 5.466s-.09-3.453-.09-3.788c.54-.113 12.64-1.925 18.21-2.17zm-1.51 11.945c1.32-.04 2.26.04 2.48.26l.03.03c.01.01 0 .05 0 .06 0 .01.03.03.03.03 0 .01-.03.02-.03.03 0 .01.01.05 0 .06a.107.107 0 0 1-.03.03.54.54 0 0 1-.05.09 1.19 1.19 0 0 1-.09.09c-2.02 1.74-17.91 5.06-17.91 5.06s-.43-3.79-.43-3.9c.44.01 11.07-1.66 16.03-1.82zm-67.07.96c3.84-.24 13.34 1.33 36.8 9.81l.79 4.57s-39.05-12.53-40.16-12.93v-.17a.986.986 0 0 1 .21-.46c.28-.33.91-.71 2.39-.81zm51.45 9.92c.47.1 7.02.32 8.24 1.33l.03.03.03.03a.163.163 0 0 0 .03.03c.02.02.02.04.03.06l.03.03c.01.02.03.07.03.09v.15a.28.28 0 0 1-.03.06c0 .01.01.03 0 .03a.24.24 0 0 1-.03.06c-1.01 1.57-7.85 2.14-7.85 2.14s-.33-3.06-.49-4.02zm15.86 8.91c1.53-.03 2.62.14 2.85.58.13.3-.12.74-.84 1.33-5.61 4.58-17.83 5.47-17.83 5.47v-5.03h.03c.7-.08 10.73-2.22 15.8-2.34zm15.56 4.69c1.94-.07 2.78.25 3.03.7.02.04.05.11.06.15a.98.98 0 0 1 .03.26c-.06.58-.69 1.26-1.16 1.71-1.9 1.79-32.31 11.37-32.31 11.37s-.23-6.35-.11-6.91c17.78-5.36 26.47-7.11 30.48-7.26zm-19.66 17.99c1.94-.07 3.45.04 3.9.49.03.03.07.09.09.12.01.02.02.07.03.09.01.02 0 .07 0 .09 0 .04.01.11 0 .15a1.09 1.09 0 0 1-.15.29c-2.6 2.54-15.24 2.92-15.24 2.92v-3.15c2.38-.08 7.66-.84 11.37-.98zm12.65 5.18c.61-.01.97.09 1.02.26a.28.28 0 0 1 0 .06c-.03.15-.2.37-.58.64-5.05 3.57-24.02 7.23-24.02 7.23s.24-2.49.35-3.09c.53 0 18.7-4.98 23.24-5.09zm10.65 3.97c2.24-.02 3.95.31 4.92 1.02h.03v.12c-.09.69-1.51 3.95-6.51 5.35-6.23-.55-32.69 7.23-33.21 7.35h-.03v-.06c-.01-.49.35-3.18.35-3.18 9.12-5.42 25.69-10.5 34.47-10.58zm-67.74 15.27h.18c11.45 1.23 15.72 5.49 16.93 7.2-2.28 3.99-20.37-4.94-18.47-6.85.22-.19.67-.33 1.37-.34zm65.59.76c.46-.02.87.08 1.16.26.12.08.24.19.32.32.11.18.19.42.21.7-1.19 1.84-7.38 1.04-7.76.99.31-.11 3.88-2.17 6.08-2.25zm-24.52 12.38c.85-.03 1.56.05 1.95.29.05.03.11.08.15.12a.46.46 0 0 0 .06.06l.06.09c.01.02.02.07.03.09.07.22.05.52-.14.87-1.79 3.35-9.65 2.11-9.65 2.11v-2.34h.03c.44.04 4.78-1.16 7.54-1.27zm-46.3 8.82c2.42-.12 4.54 1.46 6.75 2.72 4.94-1 15.07.78 15.07.78v4.46a.112.112 0 0 1-.03.03h-.03c-.92.16-12.79-.35-15.44-2.02-2.16 0-8.28-3.21-8.75-4.86a.13.13 0 0 0-.03-.06v-.23c0-.01.03-.04.03-.05v-.03c.85-.45 1.67-.68 2.45-.72zm51.92 2.2c1.86-.1 2.65.47 1.19 2.52-4.03 5.69-14.48 3.36-14.48 3.36l-.43-3.53c3.69.14 10.42-2.16 13.73-2.34zm-39.03 11.53c4.23-.19 8.82 1.48 8.82 1.48.11.21 2.27 4.45.35 5.87-.07.05-.15.1-.23.14-2.36 1.23-13.62-.96-14.28-5.46 1.33-1.39 3.29-1.93 5.35-2.02zm-43.54 2.2c3.86-.23 8.18 2.14 8.67 2.37.01.01.03 0 .03 0 0 .14-.15 4.28-.15 4.28s-7.65-2.12-10.06-6.39a7.58 7.58 0 0 1 1.51-.26zm73.56.58c4.31-.02 9.52.98 10.27 2.43.15.3.1.63-.17.96-2.13 2.57-14.25.23-14.25.23v-3.12c1.08-.31 2.57-.48 4.16-.49z" fill="#007934"/>
</svg>
