<svg viewBox="0 0 1000 600" xmlns="http://www.w3.org/2000/svg" xmlns:xlink="http://www.w3.org/1999/xlink">
<defs>
<linearGradient id="e" y2="283.42" gradientUnits="userSpaceOnUse" x2="500.63" y1="289.06" x1="498.74">
<stop stop-color="#510000" offset="0"/>
<stop stop-color="#8a0000" offset=".3"/>
<stop stop-color="#a00" offset="1"/>
</linearGradient>
<linearGradient id="f" y2="287.45" gradientUnits="userSpaceOnUse" x2="502.93" y1="291.37" x1="501.44">
<stop stop-color="#ff2a2a" offset="0"/>
<stop stop-color="red" offset="1"/>
</linearGradient>
<linearGradient id="j" y2="317.65" gradientUnits="userSpaceOnUse" x2="484.76" y1="311.71" x1="484.76">
<stop stop-color="#F5F549" offset="0"/>
<stop stop-color="#97C924" offset="1"/>
</linearGradient>
<linearGradient id="a">
<stop stop-color="#025" offset="0"/>
<stop stop-color="#04a" offset=".5"/>
<stop stop-color="#025" offset="1"/>
</linearGradient>
<linearGradient id="g" y2="317.49" xlink:href="#a" gradientUnits="userSpaceOnUse" x2="634.41" y1="317.49" x1="444.51"/>
<clipPath id="b">
<path d="M500 226.38l-63.702 110.33h127.4z"/>
</clipPath>
</defs>
<path fill="#0067C6" d="M0 0h1000v600H0z"/>
<path fill="#fff" d="M0 200h1000v200H0z"/>
<path d="M410 299.33l9.98.667c.032-.486.063-.972.097-1.458l-3.925-.27c.1-1.61.233-3.21.304-4.81 1.388-1.01 2.778-2.01 4.162-3.02l.123-1.85-4.38 3.18c-.15-1.04-.72-2.11-1.76-2.47-.91-.33-2.03-.39-2.82.26-1 .74-1.18 2.06-1.31 3.2-.17 2.18-.29 4.36-.45 6.54zm1.52-1.362c.12-1.638.194-3.28.35-4.914.124-.808.272-1.742.98-2.257.64-.424 1.584-.108 1.846.614.522 1.25.29 2.63.223 3.94l-.19 2.84-3.21-.21zm-.22-13.958l9.738 2.274 2.213-9.478-1.38-.324-1.88 8.063c-.99-.23-1.97-.46-2.96-.692l1.7-7.266-1.37-.32-1.69 7.265-2.62-.613 1.82-7.76-1.39-.33-2.14 9.17zm3.51-13.08l9.445 3.285.48-1.38c-1.24-.43-2.477-.86-3.715-1.292.485-1.43 1.016-2.842 1.462-4.284.32-1.18.567-2.56-.126-3.65-.562-.81-1.562-1.33-2.55-1.3-1.088.04-1.975.84-2.458 1.77-.714 1.34-1.113 2.82-1.634 4.24l-.904 2.6zm1.825-.912c.506-1.417.963-2.852 1.51-4.254.34-.75.755-1.637 1.617-1.875.708-.17 1.45.38 1.513 1.1.173 1.33-.41 2.59-.82 3.83l-.78 2.24c-1.014-.35-2.027-.71-3.04-1.06zm3.385-11.188c1.78 1.033 3.546 2.093 5.338 3.107 1.01.543 2.29.854 3.347.246 1.44-.798 2.343-2.27 3.05-3.707.56-1.21.963-2.714.252-3.95-.765-1.236-2.156-1.804-3.343-2.54l-3.457-2.023-.734 1.254c1.694.998 3.4 1.975 5.086 2.986.8.49 1.47 1.38 1.33 2.37-.16 1.177-.84 2.21-1.51 3.163-.56.77-1.49 1.393-2.47 1.185-1.03-.19-1.87-.87-2.77-1.35l-3.4-1.99-.74 1.26zm7.21-11.77c2.647 2.026 5.295 4.05 7.942 6.077 1.232-1.61 2.46-3.223 3.7-4.824.713-1.022 1.37-2.35.887-3.604-.44-1-1.47-1.77-2.57-1.83-.5-.07-1.15.31-1.42.47.28-1.07-.59-2.07-1.57-2.35-1.18-.42-2.38.34-3.17 1.18-.92 1-1.69 2.13-2.53 3.19l-1.28 1.67zm2.014-.298c.93-1.19 1.81-2.422 2.783-3.576.453-.504 1.18-1.075 1.882-.705.64.28.79 1.09.49 1.67-.49 1.04-1.29 1.89-1.96 2.81l-1.09 1.43-2.12-1.61zm3.236 2.476c.965-1.233 1.873-2.513 2.89-3.703.52-.544 1.173-1.23 1.997-1.072.705.162 1.217.926.974 1.636-.39 1.3-1.37 2.31-2.16 3.39l-1.24 1.62c-.82-.63-1.63-1.26-2.45-1.88zm3.75-12.778l6.867 7.27 5.883-5.56-.976-1.032-4.705 4.446-.13.114-.09-.092-5.81-6.144zm8.81-7.71l6.095 7.928 1.19-.915-6.096-7.927zm8.95-6.08c-.988.615-1.784 1.335-2.398 2.175-.61.838-.94 1.71-.99 2.623-.046.912.197 1.794.734 2.657a5.146 5.146 0 0 0 1.976 1.844c.82.43 1.706.6 2.676.49.966-.11 2.056-.54 3.27-1.29 1.165-.73 1.99-1.57 2.5-2.53.488-.93.625-1.91.416-2.95l-1.383.54c.37 2-.92 2.96-2.37 3.87-2.25 1.37-4.46 1.27-5.8-.79-1.4-2.33.13-4.25 2.05-5.5 1.37-.85 2.71-1.43 3.99-.62l1.08-.97c-.74-.52-1.59-.76-2.55-.7-1.01.05-2.07.43-3.19 1.12zm11.82-5.9l-1.047 11.206 1.557-.628.315-3.474.006-.003 5.06-2.04 2.64 2.29 1.56-.63-8.52-7.34-1.56.63zm1.368 1.15l3.325 2.877-3.723 1.5.398-4.378zm20.552-7.33l.624 9.98c1.805-.12 3.612-.206 5.414-.355 1.418-.163 2.94-.53 3.908-1.66 1.25-1.387 1.43-3.46.88-5.188-.458-1.52-1.826-2.67-3.374-2.963-1.525-.293-3.08-.06-4.614.008-.946.06-1.892.12-2.838.178zm1.54 1.327c1.436-.075 2.87-.216 4.31-.224a3.675 3.675 0 0 1 2.287.7c1 .685 1.588 1.917 1.457 3.126-.072 1.39-1.094 2.66-2.444 3.02-.773.2-1.576.25-2.368.34l-2.796.17-.447-7.14zM501.66 210l-.57 9.984 9.717.555.08-1.42c-2.755-.16-5.51-.32-8.265-.47l.173-3.04 7.45.42.08-1.41a6081.05 6081.05 0 0 0-7.45-.43c.05-.9.103-1.79.154-2.69l7.95.45.08-1.43-9.41-.54zm26.11 4.17l-3.616 9.323 1.286.5 2.867-7.393.15-.384.16.426 3.447 9.92 1.684.652 3.616-9.323-1.29-.5-2.865 7.39-.15.38-.16-.42-3.46-9.91zm13.44 5.77l-4.546 8.907-1.336-.682 4.546-8.907zm7.54 4.42c-.97-.64-1.958-1.065-2.978-1.272-1.016-.206-1.947-.14-2.795.196-.85.337-1.55.926-2.11 1.775a5.145 5.145 0 0 0-.85 2.56c-.057.93.164 1.8.668 2.63.5.83 1.344 1.64 2.537 2.43 1.147.75 2.25 1.15 3.338 1.22a4.335 4.335 0 0 0 2.852-.86l-1.07-1.03c-1.665 1.16-3.075.39-4.51-.54-2.19-1.48-3.02-3.52-1.705-5.61 1.532-2.25 3.917-1.66 5.854-.43 1.35.88 2.44 1.86 2.23 3.36l1.33.58c.16-.89.02-1.76-.43-2.62-.47-.9-1.25-1.7-2.35-2.43zm9.52 7.18l-10.454 4.17 1.268 1.1 3.237-1.3.01.004 4.12 3.575-.83 3.38 1.27 1.1 2.66-10.94-1.27-1.1zm-.4 1.74l-1.048 4.272-3.032-2.632 4.08-1.64zm7.95 5.21l-7.716 6.363.93 1.127 3.034-2.502c1.028 1.233 2.03 2.49 3.08 3.706-.322 1.683-.644 3.366-.957 5.05l1.18 1.43 1.01-5.33c.87.708 2.13 1.064 3.16.503.89-.42 1.67-1.228 1.72-2.257.11-1.38-.87-2.496-1.66-3.52l-3.77-4.57zm-.17 2.034c1.08 1.334 2.214 2.626 3.246 3.998.475.708 1.068 1.702.523 2.528-.45.707-1.44.645-2.04.187-1.23-.824-2.04-2.087-2.99-3.184l-1.23-1.483 2.48-2.047zm11.87 13.876l-11.243.515.838 1.456 3.484-.17v.01l2.72 4.73-1.9 2.93.84 1.46 6.09-9.46-.84-1.45zm-.948 1.514l-2.39 3.69-2.002-3.478 4.392-.212zm7.368 11.726c-.625-1.697-1.61-3.434-3.28-4.282-1.856-.933-4.328-.48-5.644 1.155-1.147 1.36-1.206 3.282-.9 4.952.362 1.918 1.242 3.744 2.563 5.186l-.75.27.48 1.33 4.68-1.68-1.82-5.06-1.08.39 1.34 3.73-1.59.57c-1.4-1.2-2.18-2.98-2.59-4.75-.3-1.32-.32-2.91.69-3.96 1.15-1.2 3.2-1.57 4.59-.55 1.36 1 2.13 2.62 2.52 4.24.26 1.06.22 2.32-.58 3.15-.23.17.13.4.19.61.13.21.25.42.38.63a3.528 3.528 0 0 0 1.34-2.79c.02-1.06-.21-2.12-.57-3.12zm2.87 7.81l-5.593 1.088c-1.037.202-1.815.53-2.334.968-.518.437-.85 1.052-1.01 1.87-.157.81-.135 1.804.098 3.012l.01.027c.24 1.207.59 2.136 1.04 2.828.46.7.99 1.146 1.64 1.356.65.21 1.49.22 2.53.02l5.59-1.09-.27-1.43-5.46 1.06c-2.45.47-3.27-.82-3.69-3.02v-.03c-.44-2.21-.15-3.71 2.3-4.19l5.46-1.06-.27-1.43zm3.07 17.02l-10.348-4.425.12 1.675 3.213 1.362v.007l.394 5.44-2.99 1.81.12 1.67 9.6-5.87-.12-1.68zm-1.512.95l-3.757 2.286-.29-4.004 4.05 1.72zm-170.62 24.917l-1.45.38 1.604 6.094 1.45-.38zm164.534.003l1.45.38-1.604 6.094-1.45-.382zM433.22 343.99l-11.18 1.286.935 1.395 3.464-.4v.01l3.04 4.53-1.7 3.05.93 1.4 5.43-9.86-.94-1.39zm-.842 1.576l-2.13 3.846-2.237-3.333 4.37-.52zm5.122 4.534l-7.127 6.665.952 1.018 6.006-5.617-3.15 8.67 1.09 1.167 8.62-2.614-5.9 5.51.95 1.01 7.13-6.67-1.44-1.55-8.75 2.61 3.28-8.47zm10.38 10.59l-6.016 7.988 7.776 5.855.854-1.135-6.614-4.98 1.83-2.432 5.962 4.488.85-1.13-5.96-4.487 1.62-2.152 6.366 4.794.86-1.15-7.528-5.67zm9.78 7.16l-4.71 8.823c.43.23.86.458 1.288.688l1.853-3.47c1.43.75 2.83 1.53 4.26 2.26.35 1.68.69 3.36 1.04 5.04l1.64.87-1.1-5.31c1.07.33 2.37.18 3.12-.74.63-.7 1.06-1.69.76-2.63-.35-1.3-1.63-1.98-2.71-2.62-1.8-.97-3.61-1.93-5.41-2.89zm.617 1.945c1.507.822 3.048 1.585 4.525 2.46.684.463 1.553 1.096 1.467 2.027-.08.818-.96 1.254-1.71 1.08-1.46-.24-2.69-1.11-3.99-1.76l-1.82-.97 1.51-2.837zm10.683 3.965l-3.78 9.26 1.39.565 3.78-9.258zm9.02 3.11c-1.105-.367-2.167-.52-3.206-.455-1.034.065-1.917.37-2.65.915-.73.546-1.255 1.297-1.575 2.26a5.145 5.145 0 0 0-.16 2.7c.18.91.62 1.696 1.33 2.373.7.673 1.72 1.24 3.08 1.69 1.3.432 2.47.534 3.54.31 1.02-.214 1.86-.735 2.53-1.562l-1.3-.71c-1.31 1.56-2.87 1.18-4.5.65-2.5-.86-3.83-2.61-3.11-4.97.89-2.56 3.35-2.61 5.54-1.93 1.52.51 2.83 1.17 3.02 2.68l1.43.22c-.08-.9-.44-1.7-1.1-2.41-.69-.74-1.65-1.31-2.9-1.73zm10.05 2.25l-6.54 9.16 1.662.24 2.02-2.845h.006l5.398.782 1.13 3.3 1.66.24-3.674-10.636-1.662-.24zm.605 1.68l1.427 4.16-3.974-.575 2.547-3.584zm22.835-1.61c-1.143.22-2.144.607-3.018 1.172-.87.563-1.49 1.26-1.863 2.094-.38.834-.46 1.746-.27 2.744a5.145 5.145 0 0 0 1.18 2.43c.61.703 1.37 1.172 2.32 1.418.94.245 2.11.236 3.51-.035 1.35-.26 2.42-.745 3.24-1.46a4.32 4.32 0 0 0 1.44-2.604l-1.49.01c-.38 1.99-1.93 2.43-3.6 2.77-2.6.47-4.62-.41-5.14-2.82-.47-2.68 1.64-3.93 3.88-4.4 1.58-.31 3.04-.37 3.94.85l1.36-.52c-.51-.75-1.22-1.28-2.14-1.57-.96-.31-2.08-.34-3.38-.09zm6.68-1.18l2.844 9.587 9.33-2.77c-.133-.453-.268-.907-.403-1.36l-7.93 2.354c-.29-.97-.58-1.94-.86-2.91l7.16-2.12-.4-1.35-7.15 2.13-.76-2.58 7.64-2.27c-.14-.45-.27-.91-.41-1.37l-9.03 2.68zm10.82-3.4c1.4 3.025 2.8 6.05 4.198 9.076l1.252-.58-3.5-7.57c3.236 1.47 6.454 2.98 9.683 4.465.216.19.43.07.646-.05l1.25-.58-4.2-9.07-1.26.58 3.49 7.56c-3.33-1.5-6.63-3.05-9.95-4.57l-1.64.76zm10.98-5.16l.783 1.19 3.572-2.35.136-.09.07.103 4.65 7.06 1.22-.8-4.64-7.06-.06-.102.14-.09 3.59-2.36-.78-1.19zm10.06-6.89l6.777 7.355c.36-.33.716-.66 1.075-.99l-2.666-2.892c1.175-1.095 2.376-2.163 3.532-3.28 1.698.23 3.396.458 5.095.68l1.362-1.256-5.376-.712c.66-.902.94-2.183.32-3.183-.47-.863-1.32-1.6-2.35-1.59-1.39-.03-2.45 1.012-3.43 1.854L550 362.56zm2.04.058c1.273-1.15 2.5-2.355 3.814-3.46.68-.514 1.64-1.16 2.496-.662.73.41.722 1.398.298 2.026-.756 1.27-1.975 2.147-3.018 3.163l-1.41 1.3-2.18-2.367zm9.59-11.698l4.473 10.327 1.064-1.3-1.396-3.197.01-.005 3.46-4.22 3.41.733 1.07-1.3-11.01-2.338-1.06 1.3zm1.752.35l4.3.922-2.542 3.107-1.758-4.03zm2.608-6.02l8.39 5.44 4.403-6.79-1.192-.772-3.52 5.43-.09.14-.1-.07-7.09-4.597z" fill="#c8a400"/>
<g clip-path="url(#b)">
<path d="M500 226.41l-31.48 54.536-15.42 26.702h93.8l-14.714-25.484L500 226.41z" fill="#fff"/>
<g id="d">
<g id="c">
<path opacity=".62" stroke="#17c0eb" stroke-width=".129" d="M500 226.41l-2.357 4.082L500 285.47l2.357-54.978z" fill="#17c0eb"/>
<path d="M500 277.48l-.134.003.134 3.11.134-3.11c-.045 0-.09-.003-.134-.003z" fill="#fff"/>
</g>
<use xlink:href="#c" transform="rotate(72 500 285.47)"/>
<use xlink:href="#c" transform="rotate(144 500 285.47)"/>
<use xlink:href="#c" transform="rotate(216 500 285.47)"/>
<use xlink:href="#c" transform="rotate(-72 500 285.47)"/>
</g>
<use xlink:href="#d" transform="rotate(8 500 285.47)"/>
<use xlink:href="#d" transform="rotate(16 500 285.47)"/>
<use xlink:href="#d" transform="rotate(24 500 285.47)"/>
<use xlink:href="#d" transform="rotate(32 500 285.47)"/>
<use xlink:href="#d" transform="rotate(40 500 285.47)"/>
<use xlink:href="#d" transform="rotate(48 500 285.47)"/>
<use xlink:href="#d" transform="rotate(56 500 285.47)"/>
<use xlink:href="#d" transform="rotate(64 500 285.47)"/>
<path d="M500 265.84a44.237 44.237 0 0 0-28.97 10.75l-14.655 25.406c-.5 2.67-.75 5.434-.75 8.25h5.03c0-21.726 17.618-39.344 39.345-39.344 21.726 0 39.344 17.617 39.344 39.344h5.03c0-2.813-.248-5.582-.75-8.25L528.97 276.59A44.25 44.25 0 0 0 500 265.84z" fill="red"/>
<path d="M500 266.66c-11.764 0-22.44 4.675-30.28 12.25l-12.032 20.844a43.596 43.596 0 0 0-1.28 10.5h4.25c0-21.726 17.616-39.344 39.343-39.344 21.73 0 39.35 17.617 39.35 39.344h4.25a43.91 43.91 0 0 0-1.28-10.53l-12.03-20.814c-7.84-7.57-18.51-12.25-30.28-12.25z" fill="#f60"/>
<path d="M500 267.47c-12.702 0-24.1 5.522-31.938 14.312l-8.72 15.094a42.732 42.732 0 0 0-2.124 13.375h3.438c0-21.72 17.617-39.34 39.344-39.34 21.726 0 39.344 17.62 39.344 39.35h3.437c0-4.67-.74-9.16-2.12-13.37l-8.72-15.09c-7.83-8.78-19.23-14.31-31.93-14.31z" fill="#ff0"/>
<path d="M500 268.25c-14.55 0-27.372 7.414-34.906 18.656l-2.813 4.875a41.818 41.818 0 0 0-4.28 18.47h2.66c0-21.72 17.62-39.34 39.35-39.34s39.35 17.62 39.35 39.35H542a41.83 41.83 0 0 0-4.28-18.43l-2.845-4.93c-7.535-11.23-20.337-18.63-34.875-18.63z" fill="#0f0"/>
<path d="M500 269.06c-22.747 0-41.188 18.44-41.188 41.188h1.844c0-21.726 17.617-39.344 39.344-39.344 21.726 0 39.344 17.617 39.344 39.344h1.844c0-22.747-18.44-41.188-41.188-41.188z" fill="#0cf"/>
<path d="M500 269.84c-22.306 0-40.375 18.1-40.375 40.406h1.344c0-21.56 17.47-39.03 39.03-39.03s39.03 17.47 39.03 39.03h1.37c0-22.306-18.1-40.406-40.41-40.406z" fill="#00f"/>
<path d="M500 270.66c-21.864 0-39.59 17.725-39.59 39.59 0 .244.004.49.008.733h.8c-.004-.244-.006-.49-.006-.734 0-21.43 17.366-38.79 38.788-38.79s38.788 17.36 38.788 38.79c0 .24-.002.49-.007.73h.8c.01-.25.01-.49.01-.74 0-21.87-17.72-39.59-39.58-39.59z" fill="purple"/>
<path d="M500.4 288.13c-.644-.124-1.226-.484-1.775-.61-.756.725-.835 1.457-.73 2.08.26.14.31.353.877.86s.496.773.462 1.965c-.015.503.07 1.58.58 1.682.547.11.93-.346 1.09-1.16.15-.79.416-1.216.697-1.702.31-1.852-.19-2.508-1.2-3.115z" fill="#510000"/>
<path d="M497.17 283.52c-.595.015-1.528 1.012-1.943.475-.24-.308-.28-.902-.037-1.4.56-1.15 1.124-1.716 2.167-2.33 2.378-1.4 3.89-.95 5.074 1.062 1.1 1.773 2.16 3.73 2.25 5.372.03.5.29 1.4-.15 1.86-1.34 1.38-4.59-1.44-6.49-.99-.64.15-1.37.61-1.98.22-.47-.31-.08-1 .27-1.3.61-.52 1.5-2.37 1.38-3.17-.06-.45-.08.18-.52.19z" fill="red"/>
<path d="M496.93 282.55c-1.083.445-.966 1.076-1.51 1.59.154.058.766.31 1.364-.3.258-.215.548-.294.677-.364-.3.222-.52.555-.68.685-.4.33-1.03 1.09-1.34 1.85-.3.77-.43 1.68-.37 1.78.06.11.43.78 1.57 1.23 2.03.81 2.42 2.44 4.48 2.44 1.62 0 1.36-1.05 2.65-.83 1.12.2 1.72-.69.64-1.23-1.37-.47-4.09-.19-5.37.04-.41-4.08-.05-2.65-.15-4.4-.09-1.75-.62-1.86.07-3.28-.57.87-1.27.74-2 .81z" fill="url(#e)"/>
<path d="M500.94 279.8c-.04.223-.077.516-.056.6.087.34.175.693.278.994.115.336.162.58.24.928.082.36.4.5.694.722.37.28.084 1.037.315 1.07.19.024.49-1.073.49-1.248 0-.237 0-.427-.03-.647a15.3 15.3 0 0 0-.42-.88c0-.01 0-.01-.01-.01a3.652 3.652 0 0 0-.19-.33 4.204 4.204 0 0 0-.78-.87.82.82 0 0 1-.05-.05 3.736 3.736 0 0 0-.26-.19 3.94 3.94 0 0 0-.19-.12z" fill="#ff2a2a"/>
<path d="M501.25 287.4c-.718-.188-1.426-.543-2.037-.725-1.2-.36-2.48-1.134-3.366-.814-.317.15-.29.46-.39.91-.042.54-.596 1.32-.136 1.07.69-.38 2.5.74 3.1 1.11.29.18.89.53 1.08 1.02.19.5.09 1.76.04 2.3-.05.57.12 1.84.69 1.99.61.17 1.08-.32 1.32-1.23.23-.88.41-1.38.76-1.91s.76-.76 1.32-.86c.57-.1 1.39.47 1.39-.2 0-.43-.38-.85-.22-1.45.13-.47-.4-.38-.84-.57-1.03-.32-1.97-.42-2.68-.6z" fill="url(#f)"/>
<path d="M498.36 288.9c-.327-.178-2.315-1.478-3.043-1.07-.23.128-.317-.017-.32-.258-.004-.24.11-.594.184-.866.08-.273.2-.792.52-1.062.69-.58 2.27.575 3.11.886-.07.436-.47 2.356-.44 2.37z" fill="#910000"/>
<path d="M501.76 291.36c.916-1.603 1.508-1.397 2.613-1.374.37.008.477-.33.393-.667-.278.62-1.662-.07-2.415.26-1.57.69-1.28 3.77-2.02 4.07.78.65 1.13-1.75 1.44-2.29z" fill="#ff3a3a"/>
<g fill="url(#g)">
<path d="M453.1 307.64l-9.955 17.237h113.71L546.9 307.64h-93.8z" fill="#fff"/>
<g id="i">
<path id="h" d="M449.7 321.36c-1.658 0-3.197.167-4.71.353l-.486.846c2.433-.22 4.697-.65 7.14-.71 3.293.08 6.283.83 9.786.83 1.518.01 3.027-.03 4.526 0 3.5 0 6.49-.75 9.783-.83 3.29.08 6.3.83 9.8.83 1.51 0 3.17-.03 4.53 0 3.5 0 6.47-.75 9.76-.83 3.29.08 6.27.83 9.77.83 1.53.01 3.03-.03 4.54 0 3.5 0 6.49-.75 9.78-.83 3.29.08 6.28.83 9.78.83 1.51.01 3.03-.03 4.53 0 3.5 0 6.47-.75 9.76-.83 2.55.06 4.92.51 7.48.72l-.52-.9c-1.41-.17-2.84-.32-4.37-.32-1.53-.02-3.04.03-4.55 0-3.5 0-6.48.74-9.77.83-3.3-.08-6.29-.83-9.79-.83-1.52-.02-3.03.03-4.53 0-3.5 0-6.5.75-9.79.83-3.3-.08-6.29-.83-9.79-.83-1.52-.02-3.04.03-4.55 0-3.5 0-6.48.75-9.77.83-3.29-.08-6.27-.83-9.77-.83-1.52-.02-3.03.03-4.53 0-3.5 0-6.49.75-9.78.83-3.3-.09-6.29-.83-9.79-.83-1.52-.02-3.05.03-4.55 0z"/>
<use y="-1.113" xlink:href="#h"/>
<use y="-2.23" xlink:href="#h"/>
</g>
<use y="-3.344" xlink:href="#i"/>
<use y="-6.691" xlink:href="#i"/>
<path d="M453.23 307.46l-.123.215h93.79l-.124-.215H453.23zm-.22.377l-.126.22h94.235l-.13-.22h-93.98zm-.2.346l-.204.356h94.792l-.205-.36H452.81zm-.317.55l-.25.434h95.518l-.25-.433H452.5zm-.4.692l-.25.434h96.317l-.25-.44h-95.816zm-.398.69l-.247.432h97.106l-.246-.43h-96.612zm-.398.693l-.25.43h97.91l-.25-.43h-97.41zm-.43.744l-.304.53h98.877l-.303-.53h-98.27zm6.493.738c3.45.662 3.782 0 3.782 0zm81.503 0s.332.662 3.782 0z"/>
</g>
<g fill="#ccd11e">
<g id="k">
<path d="M530.63 297.04c-1.71 0-2.232.862-2.232.862-2.736 10.576-11.808 21.333-22.6 21.333h-8.08v10.768c0 .003.01 0 .016 0h61.498l-6.186-10.954c-9.708-1.45-17.64-11.38-20.167-21.15-.01 0-.54-.86-2.25-.86z" fill="url(#j)"/>
<path d="M530.63 297.46c-.784 0-1.26.18-1.538.355-.264.165-.315.276-.32.288 0 .007-.016.01-.02.016-1.4 5.32-4.35 10.66-8.333 14.7-4.02 4.07-9.07 6.83-14.61 6.83h-7.68v9.92h60.85l-5.68-10.06c-4.69-.61-8.98-3.17-12.46-6.7-3.99-4.04-6.94-9.39-8.34-14.71l-.02-.02c-.01-.02-.07-.11-.34-.27-.29-.18-.76-.38-1.54-.38z" fill="#97c924"/>
<path d="M530.63 297.46c.147 0 .28.02.406.034.024 3.017 0 8.11 0 10.8-.03 2.34-.83 4.224-2.012 6.442-.548 1.554-.986.962-2.35 2.857-1.83.654-3.186.908-5.138 1.216-2.517.39-8.12.75-10.887.13 3.64-1.07 6.96-3.27 9.77-6.12a30.59 30.59 0 0 0 2.13-2.4 33.665 33.665 0 0 0 3.01-4.48 33.79 33.79 0 0 0 .99-1.89 33.87 33.87 0 0 0 1.25-2.94 29.7 29.7 0 0 0 .35-1 30.5 30.5 0 0 0 .59-2c0-.01.01-.01.02-.02 0-.02.06-.13.32-.29a2.23 2.23 0 0 1 .57-.24h.01a3.58 3.58 0 0 1 .94-.12z" fill="#ede71f"/>
<path d="M529.94 298.9c-.412 6.034-2.277 13.192-6.644 17.81-1.607 1.338-3.66 2.55-5.646 2.256 6.77-5.51 10.885-13.947 12.29-20.065z" fill="#c6cb24"/>
<path d="M524.49 309.28c-1.002 2.72-4.788 6.747-8.84 10.045-1.15.035-1.76.1-2.804.038 2.468-.225 8.22-5.083 11.644-10.083z" fill="#9ecb34"/>
</g>
<use x="-15.341" xlink:href="#k"/>
<g fill="#c6cb24">
<path d="M502.22 297.91c2.735 10.576 11.79 21.333 22.583 21.333h8.088v10.768c0 .01-.01 0-.01 0h-65.8s-.01.01-.01 0v-10.76h8.07c10.8 0 19.87-10.75 22.6-21.33 0 0 .54-.86 2.25-.86s2.25.87 2.25.87z" fill="url(#j)"/>
<path d="M499.98 297.46c.784 0 1.255.196 1.538.372.27.166.332.26.34.27l.016.017c1.4 5.32 4.348 10.66 8.333 14.7 4.017 4.07 9.087 6.83 14.623 6.83h7.64v9.92h-64.98v-9.92h7.675c5.536 0 10.593-2.76 14.605-6.83 3.982-4.04 6.934-9.39 8.334-14.71.003-.01.015-.01.017-.02.01-.01.06-.13.33-.29.28-.18.76-.36 1.54-.36z" fill="#97c924"/>
<path d="M499.26 297.53a3.4 3.4 0 0 0-.242.055H499c-.243.066-.436.15-.572.236-.264.17-.314.28-.32.29-.003.01-.017.01-.018.02a31.73 31.73 0 0 1-.593 2 29.6 29.6 0 0 1-.356 1 33.58 33.58 0 0 1-1.24 2.94 34.21 34.21 0 0 1-1 1.9 33.64 33.64 0 0 1-3.01 4.48 31.12 31.12 0 0 1-2.13 2.41c-2.81 2.85-6.13 5.05-9.77 6.12 2.77.62 4.04-.05 6.55-.45 1.95-.3 4.21-.56 6.05-1.21 1.37-1.89.9-1.3 1.45-2.85 1.18-2.21 2.91-4.22 3.34-6.68 1.62-3.02 1.9-8.61 1.9-10.21z" fill="#ede71f"/>
<path d="M499.28 298.9c-.412 6.034-2.277 13.192-6.644 17.81-1.606 1.338-3.66 2.55-5.646 2.256 6.77-5.51 10.885-13.947 12.29-20.065z"/>
<path d="M493.83 309.28c-1.002 2.72-4.788 6.747-8.84 10.045-1.15.035-1.76.1-2.804.037 2.468-.225 8.222-5.082 11.644-10.083z" fill="#9ecb34"/>
<path d="M500.95 297.58h.018c.242.067.435.15.57.236.265.165.316.274.322.286.002.006.016.01.018.018.175.665.37 1.333.592 1.996.11.332.234.665.357.995a32.3 32.3 0 0 0 2.247 4.85 33.64 33.64 0 0 0 3.01 4.48 30.51 30.51 0 0 0 2.13 2.4c2.81 2.85 6.128 5.45 9.768 6.51-7.245.03-10.39-.63-13.022-4.01-2.633-3.38-3.606-4.87-4.14-6.93-.535-2.07-2.026-6.57-1.87-10.8z" fill="#ede71f"/>
<path d="M501.48 298.9c.412 6.034 2.22 12.006 6.587 16.625 1.607 1.337 3.66 2.55 5.646 2.255-7.335-5.002-10.83-12.762-12.233-18.88z"/>
</g>
<g id="l">
<path d="M484.75 297.04c-1.71 0-2.248.862-2.248.862-2.523 9.747-11.825 22.318-21.496 23.81l-4.79 8.29h49.014v-11.348c-8.825-2.37-15.89-11.63-18.248-20.752 0 0-.523-.862-2.232-.862z" fill="url(#j)"/>
<path d="M484.75 297.46c-.784 0-1.255.196-1.538.372-.27.166-.332.26-.338.27l-.017.017c-1.402 5.32-4.678 10.7-8.08 14.98s-9.72 8.62-14.042 9.07l-4.283 7.39h48.06v-10.69c-3.554-1.09-6.8-3.27-9.552-6.06-3.982-4.04-6.934-9.39-8.334-14.71-.002-.01-.015-.01-.017-.02-.01-.02-.06-.13-.33-.29-.28-.18-.76-.36-1.54-.36z" fill="#97c924"/>
<path d="M483.44 298.9c-.617 9.043-5.653 20.454-11.34 22.42-1.854.64-5.098.863-6.227 1.008 9.95-4.732 15.828-15.854 17.568-23.428z" fill="#93bc30"/>
<path d="M484.75 297.46c-.147 0-.28.02-.406.034-.023 3.017 0 8.11 0 10.8.03 2.34.83 4.224 2.012 6.442a4.8 4.8 0 0 0 .203.49c.41 1.086.71 1.463 2.28 2.654 4.98 3.786 11.17 4.353 14.81 4.04-1.14-.898-2.36-1.715-3.44-2.468 1.71-.055 3.35-.25 4.51-.507-3.64-1.067-6.96-3.27-9.77-6.12a30.51 30.51 0 0 1-1.41-1.555c-.21-.29-.5-.697-.59-.81-1.12-1.402-2.27-2.948-3.15-4.515a34.148 34.148 0 0 1-1-1.893 34.032 34.032 0 0 1-1.61-3.938 31.665 31.665 0 0 1-.6-1.995c0-.01-.01-.02-.01-.02-.01-.01-.06-.13-.33-.29a2.207 2.207 0 0 0-.58-.24h-.02a3.614 3.614 0 0 0-.95-.12z" fill="#ede71f"/>
<path d="M485.45 298.9c.412 6.034 2.277 13.192 6.644 17.81 1.606 1.338 3.66 2.55 5.646 2.256-6.77-5.51-10.885-13.947-12.29-20.065z"/>
<path d="M489.61 307.25c2.37 5.837 8.37 11.29 14.543 14.954 1.15.035 1.49.003 2.536-.06-4.42-2.37-11.54-5.754-17.08-14.894z" fill="#9ecb34"/>
</g>
<use x="-15.43" xlink:href="#l" fill="#c6cb24"/>
</g>
<path d="M556.5 324.69c-.574.203-4.42-.19-6.433-.044l-1.28.336c-1.123-.008-2.238.024-3.33 0-3.602 0-6.65.948-10.075.948-3.432 0-6.47-.948-10.075-.948-1.12-.008-2.233.025-3.33 0-3.6 0-6.646.948-10.075.948-3.43 0-6.473-.948-10.075-.948-1.13-.007-2.24.023-3.348 0-3.61 0-6.64.948-10.06.948-3.43 0-6.46-.948-10.06-.948-.27 0-.52.01-.78.017a10.18 10.18 0 0 0-.56-.02c-.12 0-.23-.01-.34 0-.12-.01-.24 0-.36 0-.18 0-.35.01-.52.01a19.93 19.93 0 0 0-.78-.02c-3.61 0-6.65.95-10.08.94-3.43 0-6.48-.95-10.08-.95-.27 0-.52.01-.78.01-.18-.01-.34-.02-.53-.02-.12 0-.25-.01-.37 0-.12-.01-.24 0-.36 0-.18 0-.36.01-.54.01-.26-.01-.51-.02-.78-.02-2.88 0-6.22.6-8.94.85l-6.28 10.86 62.97-.01 64.37.01z" fill="#fff"/>
<path d="M547.99 323.11c-.2 0-.398 0-.596.007-3.24.095-5.564 1.115-11.2 1.115-5.638 0-6.22-1.02-12.585-.88-5.95.132-8.45 1.263-11.67 1.218-3.23-.044-8.48-.697-12.51-.275-4.04.423-8.83 1.284-11.98 1.29-3.91-.016-7.82-.73-11.91-.323-4.09.406-6 1.5-11.07 1.485-4.36-.012-9.09-.698-12.75-.695-3.44.003-7.27.957-10.09 1.443l-.85 1.464c2.24-.27 8.55-1.22 10.8-1.28 2.34-.06 10.71.48 15.33.32 4.61-.16 5.15-1.17 10.61-1.17 3.8 0 6.67.4 10.57.4 2.43 0 4.64-1.24 8.34-1.24l2.79-.09c3.12-.52 8.38.04 12.05.23 3.31.17 5.46-.62 8.91-.73 1.49-.07 2.99-.07 4.47-.15 3.46-.12 6.42.64 9.68.62 3.25-.2 6.4-.93 9.86-1.04 1.51-.08 2.99-.08 4.49-.15 2.28-.08 5.83.08 8.27.5l-.84-1.45c-2.38-.08-5.32-.64-8.18-.64z" fill="url(#a)"/>
<g id="n">
<path id="m" d="M450.31 334.75c-3.457 0-6.402.853-9.652.945-1.21-.033-2.367-.183-3.535-.345l-.49.85c.486.032.975.063 1.488.063 1.51.018 3-.036 4.48 0 3.46 0 6.38-.852 9.64-.945 3.26.092 6.21.945 9.67.945 1.5.02 3-.036 4.48 0 3.46 0 6.41-.853 9.67-.945 3.26.092 6.23.945 9.69.945 1.5.018 3-.036 4.47 0 3.46 0 6.4-.853 9.66-.945 3.26.092 6.19.945 9.65.945 1.51.02 3-.036 4.49 0 3.46 0 6.41-.853 9.67-.945 3.26.092 6.21.945 9.67.945 1.5.018 2.99-.036 4.47 0 3.46 0 6.4-.853 9.65-.945 3.26.092 6.21.945 9.67.945 1.5.018 3-.036 4.48 0 .61 0 1.2-.034 1.78-.077l-.46-.797c-1.06.14-2.13.27-3.23.3-3.25-.09-6.19-.95-9.65-.95-1.51-.02-3 .03-4.49 0-3.46 0-6.4.85-9.65.94-3.26-.09-6.2-.95-9.66-.95-1.49-.02-2.99.03-4.47 0-3.46 0-6.41.85-9.67.94-3.25-.09-6.21-.95-9.66-.95-1.5-.02-3 .03-4.49 0-3.46 0-6.4.85-9.65.94-3.25-.1-6.19-.95-9.65-.95-1.51-.02-2.99.03-4.47 0-3.46 0-6.41.85-9.66.94-3.25-.1-6.21-.95-9.66-.95-1.5-.02-3 .03-4.49 0z" fill="url(#a)"/>
<use y="-1.289" xlink:href="#m"/>
<use y="-2.575" xlink:href="#m"/>
</g>
<use y="-3.867" xlink:href="#n"/>
<use y="-7.729" xlink:href="#n"/>
<path d="M443.85 324.7l-2.427 4.19c2.84-.47 7.102-1.702 10.634-1.705 3.663-.003 8.082.903 12.437.916 5.066.02 6.976-1.07 11.063-1.48 4.087-.4 7.998.53 11.906.55 3.145 0 7.936-1.09 11.973-1.51 4.037-.42 7.737.29 12.603.37 4.86.08 5.63-1.18 11.57-1.31 6.36-.14 6.94.88 12.58.88 4.24.23 7.88-.85 11.66-1.12 3.78-.27 5.54.05 8.3.11l-1.84-3.25-.09.01-101.25 2.23z" fill="#97c924"/>
<path d="M550.07 324.65s2.71.148 3.848.276c1.137.127 2.954.253 2.954.253l-.37-.49c-.573.2-4.42-.19-6.432-.05z" fill="#fff"/>
</g>
<path d="M500 224.87l-32.142 55.686-32.858 56.9 64.298-.008 65.702.007-32.153-55.683L500 224.87zm0 3.002l31.55 54.652 30.85 53.428-63.102-.004-61.7.004 31.56-54.645z" fill="#c8a400"/>
</svg>
