<svg id="nepal_flag" xmlns="http://www.w3.org/2000/svg" xmlns:xlink="http://www.w3.org/1999/xlink" viewBox="-17.582 -4.664 71.571 87.246">
<use id="use3409" opacity=".96" xlink:href="#b" stroke="#003893" stroke-width="5.1647"/>
<path id="b" fill="#DC143C" d="m-15 37.574h60l-60-37.574v80h60l-60-60z"/>
<g id="g4282" fill="#fff" transform="matrix(.098583 0 0 .098583 -15.849 -4.2043)">
<path id="path4284" d="m160.77 402.08c66.948 0 121.22-54.271 121.22-121.22-10.615 27.01-29.863 49.493-54.438 64.171l-10.372-7.761 20.427-15.283-24.713-6.302-0.003-0.009 13.018-21.929-25.25 3.636 3.636-25.25-21.93 13.018c-0.003-0.001-0.006-0.002-0.009-0.004l-6.302-24.712-15.283 20.426-15.284-20.426-6.301 24.712c-0.003 0.001-0.006 0.002-0.009 0.003l-21.931-13.017 3.637 25.25-25.25-3.636 13.019 21.93c-0.001 0.003-0.002 0.006-0.004 0.009l-24.712 6.302 20.426 15.283-10.378 7.766c-23.913-14.26-43.46-36.258-54.433-64.176-0.002 66.948 54.271 121.22 121.22 121.22z"/>
<polygon id="polygon4286" points="102.36 580.55 102.36 580.55 102.36 580.55 47.97 573.84 80.973 617.58 80.971 617.59 30.52 638.96 80.971 660.34 80.973 660.35 47.97 704.09 102.36 697.37 102.36 697.37 95.644 751.76 139.38 718.76 139.39 718.76 160.77 769.21 182.14 718.76 182.15 718.76 225.89 751.76 219.18 697.37 219.18 697.37 273.56 704.09 240.56 660.35 240.56 660.34 291.01 638.96 240.56 617.59 240.56 617.58 273.56 573.84 219.18 580.55 219.18 580.55 219.18 580.55 219.18 580.55 225.89 526.17 182.15 559.17 182.14 559.17 160.77 508.72 139.39 559.17 139.38 559.17 95.644 526.17"/>
</g>
</svg>
