<svg xmlns="http://www.w3.org/2000/svg" xmlns:xlink="http://www.w3.org/1999/xlink" viewBox="-17.582 -4.664 71.571 87.246">
<use opacity="1" xlink:href="#a" stroke="#003893" stroke-width="5.165"/>
<path id="a" fill="#DC143C" d="M-15 37.574h60L-15 0v80h60l-60-60z"/>
<path d="M0 35.434c6.6 0 11.95-5.35 11.95-11.95a12.84 12.84 0 0 1-5.366 6.326l-1.023-.765 2.02-1.507-2.43-.62v-.002l1.29-2.162-2.49.36.36-2.49-2.16 1.283h-.01l-.62-2.437L0 23.484l-1.506-2.014-.622 2.436-2.163-1.283.35 2.49-2.49-.36 1.28 2.163-2.44.622 2.01 1.507-1.03.765a12.784 12.784 0 0 1-5.37-6.326c0 6.6 5.35 11.95 11.95 11.95zm-5.758 17.594l-5.362-.66 3.254 4.31v.002l-4.974 2.106 4.973 2.108-3.253 4.313 5.362-.662-.662 5.36 4.31-3.252h.002L0 71.627l2.107-4.974 4.313 3.253-.662-5.36 5.36.66-3.252-4.31v-.002l4.974-2.108-4.974-2.106 3.253-4.313-5.37.66.66-5.36L2.1 50.92 0 45.947l-2.108 4.973-4.312-3.253z" fill="#fff"/>
</svg>
