<svg xmlns="http://www.w3.org/2000/svg" xmlns:xlink="http://www.w3.org/1999/xlink" viewBox="0 0 1200 600">
<style>
.st6{fill:#c8102e}.st7{fill:#ffffff}
</style>
<path fill="#012169" d="M0 0h1200v600H0z"/>
<defs>
<path id="a" d="M0 0h600v300H0z"/>
</defs>
<clipPath id="b">
<use xlink:href="#a" overflow="visible"/>
</clipPath>
<path d="M0 0l600 300M0 300L600 0" clip-path="url(#b)" stroke="#fff" stroke-width="60"/>
<defs>
<path id="c" d="M0 0l300 150H0V0zm300 0h300L300 150V0zm0 150h300v150L300 150zm0 0v150H0l300-150z"/>
</defs>
<clipPath id="d">
<use xlink:href="#c" overflow="visible"/>
</clipPath>
<path d="M0 0l600 300M0 300L600 0" clip-path="url(#d)" stroke="#cc142b" stroke-width="40"/>
<defs>
<path id="e" d="M0 0h600v300H0z"/>
</defs>
<clipPath id="f">
<use xlink:href="#e" overflow="visible"/>
</clipPath>
<path d="M300 0v300M0 150h600" clip-path="url(#f)" stroke="#fff" stroke-width="100"/>
<defs>
<path id="g" d="M0 0h600v300H0z"/>
</defs>
<clipPath id="h">
<use xlink:href="#g" overflow="visible"/>
</clipPath>
<path d="M300 0v300M0 150h600" clip-path="url(#h)" stroke="#c8102e" stroke-width="60"/>
<path fill="#fff" d="M978.4 210.2l25 18.2-9.5 29.3 24.9-18.2 25 18.2-9.5-29.4 24.9-18.1h-30.8l-9.6-29.4-9.5 29.4z"/>
<path class="st6" d="M1018.8 197l5.9 18.2h19.1l-15.4 11.2 5.9 18.2-15.5-11.3-15.4 11.3 5.9-18.2-15.5-11.2h19.1z"/>
<path class="st7" d="M900 427l-11.9 36.6h-38.5l31.1 22.7-11.8 36.6 31.1-22.7 31.1 22.7-11.9-36.8 31.2-22.5h-38.5z"/>
<path class="st6" d="M865 468.6h26.7l8.3-25.4 8.3 25.4H935l-21.6 15.7 8.2 25.5-21.6-15.7-21.6 15.7 8.2-25.5z"/>
<path class="st7" d="M716 244.7l28 20.4-10.7 33 28.1-20.4 28 20.4-10.7-33 28.1-20.4h-34.7l-10.7-33-10.8 33z"/>
<path class="st6" d="M779.9 285l-7.1-21.8 18.6-13.5h-23l-7-21.8-7.1 21.8h-22.9l18.5 13.5-7.1 21.8 18.7-13.6z"/>
<path class="st7" d="M871.9 158.6l28.1-20.4 28.1 20.4-10.8-33 28.1-20.4h-34.7L900 72.3 889 105l-34.4.2 28.1 20.4z"/>
<path class="st6" d="M918.5 145.5l-7-21.8 18.5-13.4h-22.9L900 88.5l-7.1 21.8H870l18.5 13.4-7 21.8 18.7-13.6z"/>
</svg>
