<svg xmlns="http://www.w3.org/2000/svg" xmlns:xlink="http://www.w3.org/1999/xlink" viewBox="0 0 1200 600">
<path fill="#db161b" d="M0 0h1200v600H0z"/>
<path fill="#fff" d="M300 0h900v200H300z"/>
<path fill="green" d="M300 400h900v200H300z"/>
<g id="a" stroke="#db161b" stroke-width=".352" fill="#fff" fill-rule="evenodd">
<rect rx="3.215" ry="3.015" height="21.217" width="38.669" y="102.64" x="65.854" stroke-width=".378"/>
<rect rx="3.05" ry="2.764" height="19.449" width="36.686" y="103.52" x="66.846"/>
<path stroke-width=".222" d="M83.904 108.83l1.853.06.084.84 1.52.77 1.18-.96 1.43.77-1.34.84.34 1.16 1.69-.06v1.55l-1.34-.07-.67.97 1.52 1.1-1.18.9-1.26-.97-1.85.39.09 1.42-2.02.13-.25-1.36-1.69-.71-.93.97-1.43-.71.85-1.1-1.01-.71h-1.43l-.08-2 1.43.13 1.01-1.16-1.18-.9 1.52-1.04 1.1.84 1.86-.25.26-.84z"/>
<ellipse rx="11.049" ry="9.944" transform="matrix(.18418 0 0 .1752 71.766 38.246)" cy="426.78" cx="68.944" stroke-width="1pt"/>
<path d="M71.803 104.41l-2.974 2.65m4.95-2.65l-2.98 2.65m4.96-2.65l-2.98 2.65m4.95-2.65l-2.97 2.65m4.95-2.65l-2.98 2.65m4.96-2.65l-2.98 2.65m4.95-2.65l-2.98 2.65m4.95-2.65l-2.98 2.65m4.96-2.65l-2.98 2.65m4.95-2.65l-2.98 2.65m4.95-2.65l-2.98 2.65m4.96-2.65l-2.97 2.65m-4.96-2.65l-2.98 2.65m12.89-2.65l-2.98 2.65m4.96-2.65l-2.98 2.65m4.96-2.65l-2.98 2.65m4.96-2.65l-2.973 2.65m0-2.65l2.977 2.65m-4.96-2.65l2.976 2.65m-4.96-2.65l2.97 2.65m-4.95-2.65l2.97 2.65m-4.96-2.65l2.98 2.65m-4.96-2.65l2.98 2.65m-4.96-2.65l2.97 2.65m-4.955-2.65l2.98 2.65m-4.96-2.65l2.98 2.65m-4.96-2.65l2.98 2.65m-4.955-2.65l2.975 2.65m-4.96-2.65l2.98 2.65m4.96-2.65l2.972 2.65m-12.89-2.65l2.972 2.65m-4.96-2.65l2.974 2.65m-4.96-2.65l2.975 2.65m-4.95-2.65l2.97 2.65m0 12.37l-2.975 2.66m4.95-2.66l-2.97 2.66m4.957-2.66l-2.976 2.66m4.956-2.66l-2.97 2.66m4.95-2.66l-2.97 2.66m4.96-2.66l-2.97 2.66m4.96-2.66l-2.97 2.66m4.96-2.66l-2.97 2.66m4.96-2.66l-2.98 2.66m4.95-2.66l-2.97 2.66m4.96-2.66l-2.975 2.66m4.96-2.66l-2.97 2.66m-4.96-2.66l-2.974 2.66m12.89-2.66l-2.973 2.66m4.956-2.66l-2.98 2.66m4.96-2.66l-2.977 2.66m4.96-2.66l-2.98 2.66m0-2.66l2.97 2.66m-4.96-2.66l2.975 2.66m-4.96-2.66l2.98 2.66m-4.96-2.66l2.97 2.66m-4.96-2.66l2.972 2.66m-4.957-2.66l2.97 2.66m-4.96-2.66l2.97 2.66m-4.96-2.66l2.98 2.66m-4.96-2.66l2.98 2.66m-4.96-2.66l2.97 2.66m-4.96-2.66l2.97 2.66m-4.96-2.66l2.974 2.66m4.96-2.66l2.97 2.66m-12.89-2.66l2.975 2.66m-4.96-2.66l2.98 2.66m-4.955-2.66l2.97 2.66m-4.953-2.66l2.97 2.66"/>
</g>
<use x="-300" xlink:href="#a" transform="scale(-1 1)"/>
<g id="b" stroke="#db161b">
<path stroke-width=".565" fill="#fff" d="M126.51 147.12c-48.114 47.05-68.638 53-59.006 56.79s40.616-20.49 72.856-52.75c32.24-32.25 51.98-60.956 42.35-64.747-9.63-3.792-5.03 10.662-56.2 60.707z" fill-rule="evenodd"/>
<path stroke-width=".33" fill="#fff" d="M86.008 181.31l16.852 4.42C87 200.76 69.152 206.95 64.195 204.3c-4.958-2.65 8.923-8.84 21.813-22.99z" fill-rule="evenodd"/>
<path stroke-width=".33" fill="#fff" d="M86.008 183.08l13.88 3.54c-15.452 14.45-30.736 18.56-34.69 16.8-3.978-1.77 8.254-6.74 20.81-20.34z" fill-rule="evenodd"/>
<path stroke-width=".33" d="M137.79 145.06c-.04.23-.15 1.24-.25 1.64 0 .56-.06.98-.12 1.42-.16.38-.13.73-.62.87-.33.46-.54.58-.98.77-.3.23-.76.46-1.24.65-.49.19-.94.21-1.47.11-.44-.27-.75-.54-1.11-.76-.09-.35-.16-.86-.25-1.2.13.35.23.91.25 1.41-.05.55-.25.79-.49 1.2m1.72 1.2c-.04-.03-.08-.07-.12-.11.29.26.17.14-.5-.21-.47-.22-.98-.34-1.6-.44h-1.72c-.67 0-1.12.09-1.6.22-.35.31-.87.48-1.23.76-.38.23-.54.5-.74.87-.34.3-.56.76-.87.99-.13.5-.42.48-.61.87.58.04 1.05.11 1.35.43.52.24-.43-.23-.61-.43-.41-.11-.51-.22-1.11-.22-.56-.16-.9.13-1.48.22-.33.17-.43.22-.86.22m5.05 2.29c-.25.01-1.4.2-1.85 0-.5-.12-.8-.36-1.11-.77-.15-.29 0 .53 0 .88-.05.64-.27.65-.61 1.09-.36.2-.74.49-1.11.65-.31.24-.69.4-1.11.55-.37.15-.81.31-1.11.54-.41.26-.37.58-.61.98.04.54.14.84.49 1.1.14.36.47.73.74.98.3.5.64.73-.13.87-.42.16-.65.03-1.1 0m-.25.76c-.3-.06-1.38-.38-1.85-.54h-1.72c-.67.04-.8.22-1.36.43-.36.33-.61.56-1.11.77-.26.3-.78.81-.98 1.2-.15.37-.25.87-.25 1.42.01.63.2.74.25 1.31.14.46.36.89.74 1.3.05.14.09.18.24.22m.17 1.43c-.05 0-.17.28-.35.52-.39.4-.44.43-1.05.43-.54-.02-.49-.21-.87-.35-.18-.27-.41-.49-.61-.86-.14-.22-.27-.57-.44-.77-.16-.26-.36-.45-.53-.69-.16-.07-.22-.14-.43-.17.5.08.54.25.87.51.15.25.31.5.44.78.05.37.17.66.17 1.12 0 .47 0 .81-.17 1.2-.21.22-.36.44-.61.61-.21.19-.46.45-.62.68-.27.17-.47.31-.78.52-.27.15-.55.31-.96.35-.52-.04-.67-.18-1.05-.35-.33-.24-.59-.39-.88-.6-.23-.16-.46-.47-.61-.69-.47-.12-.77-.07-1.05.17-.24.16-.45.37-.61.6-.15.07-.38.28-.53.35m1.04.2c.14.06.64.41.87.54.14.45.36.7.43 1.18.12.47.11.98.11 1.51-.12.55-.35.95-.54 1.39-.35.24-.52.4-.98.65-.43.06-.86.11-1.41.11-.34.11-.98.16-1.31 0-.48-.07-.843-.26-1.194-.43-.402-.23-.65-.44-1.088-.65-.213-.31-.544-.59-.87-.97-.27-.36-.47-.56-.652-.96.16.46.405.86.544 1.29.247.45.39.62.435 1.18.15.45.11.99.11 1.5-.05.35-.074 1.01-.22 1.29v.33m-10.313 1.71v.16c0-.42-.01-.21.175.62.33.37 1.104.47 1.75.31.565-.41.547-.73 1.573-.93.99.06 1.37.32 1.924.62.658.29.962.44 1.4 1.09.216.53.337.89-.35 1.09-.548.35-1.198.54-1.925.63-.81 0-1.39-.09-1.75.31-.56.51-.53.82-.53 1.71-.19.28-.23 1.1-.35 1.41-.49.2-.77.31-1.58.31-.19-.48-.4-1.35-.53-1.87-.14-.56-.18-1.34-.53-1.72a4.51 4.51 0 0 0-1.22-1.09c-.22-.27-.62-.49-1.05-.62.68.31.78.65.87 1.4-.61.27-.77.46-1.75.47-.97-.07-1.2-.29-1.58-.78-.07.78-.35 1.04-.53 1.72-.36.47-.52.95-.88 1.55.15.76.48.79.52 1.72.23.61.2 1.19.7 1.56.22.24.39.29.87.31-1.02 0-1.61-.1-2.28-.47-.52-.28-.91-.64-1.4-.93-.62-.4-1.39-.77-2.1-.94-.81 0-1.39-.08-1.75.31-.5.32-.83.86-1.05 1.56-.16.81-.23 1.35.17 1.87.3.61.36.84 0 1.56-.41.51-1.01.57-1.92.78a6.678 6.678 0 0 1-1.75-.31" fill="none"/>
<path stroke-width=".447" fill="#fff" d="M181.41 104.66c21.35-36.858 35.52-68.222 31.62-70.014-3.89-1.79-24.37 26.665-45.72 63.518l14.1 6.496z" fill-rule="evenodd"/>
<path stroke-width=".393" fill="#fff" d="M180 104.01c20.59-35.557 34.78-65.574 31.67-67.007s-22.35 26.258-42.95 61.81" fill-rule="evenodd"/>
<path stroke-width=".446" fill="#fff" d="M176.46 85.46c-2.51 4.158-5.16 8.91-7.74 13.353L180 104.01c2.57-4.448 5.38-9.13 7.73-13.356l-11.27-5.193z" fill-rule="evenodd"/>
<path stroke-width=".446" fill="#fff" d="M177.41 86.895c-2.5 4.157-4.25 7.338-6.82 11.782l8.45 3.893c2.58-4.442 4.48-7.554 6.83-11.78l-8.46-3.895z" fill-rule="evenodd"/>
<path transform="matrix(-.90832 -.41827 -.50125 .8653 0 0)" stroke-width=".447" fill="#fff" d="M-205.69 6.56h6.207v9.984h-6.207z"/>
<path stroke-width=".446" fill="#fff" d="M183.55 91.712l-10.64 6.043m5.63 2.595l-.63-11.235m31.12-41.388l-5.64-2.597" fill-rule="evenodd"/>
<ellipse transform="matrix(-.449 .1132 .10134 .39387 444.35 -55.798)" rx="3.543" ry="3.543" cy="92.126" cx="545.67" stroke-width="1pt" fill="#db161b"/>
</g>
<use x="-300" xlink:href="#b" transform="scale(-1 1)"/>
<path stroke="#db161b" stroke-width=".407" fill="#fff" d="M135.26 84.958c0 30.942.18 42.602-2.1 44.202-2.16 1.71-62.348 0-62.348 8.84s49.578 17.68 64.448 17.68c19.83 0 29.75-8.84 29.75-26.52V84.958h-29.75z" fill-rule="evenodd"/>
<path stroke="#db161b" stroke-width=".352" fill="#fff" d="M135.26 93.798v4.42a100.628 100.628 0 0 0 29.75 0v-4.42a100.628 100.628 0 0 1-29.75 0zm0-8.84v4.42a100.695 100.695 0 0 0 29.75 0v-4.42a100.695 100.695 0 0 1-29.75 0z" fill-rule="evenodd"/>
<path stroke="#db161b" stroke-width=".352" fill="#fff" d="M135.26 89.378v4.42a100.628 100.628 0 0 0 29.75 0v-4.42a100.695 100.695 0 0 1-29.75 0zm0 8.84v4.422c9.92 1.47 19.83 1.47 29.75 0v-4.422a100.628 100.628 0 0 1-29.75 0z" fill-rule="evenodd"/>
<ellipse transform="matrix(.15263 0 0 .03588 97.403 84.326)" rx="8.858" stroke="#db161b" ry="26.575" cy="210.83" cx="256.89" stroke-width="4.463" fill="#fff"/>
<ellipse transform="matrix(.15263 0 0 .03588 97.403 83.53)" rx="8.858" stroke="#db161b" ry="26.575" cy="246.26" cx="292.32" stroke-width="4.463" fill="#fff"/>
<ellipse transform="matrix(.15263 0 0 .03588 97.403 83.372)" rx="8.858" stroke="#db161b" ry="26.575" cy="263.98" cx="327.76" stroke-width="4.463" fill="#fff"/>
<ellipse transform="matrix(.15263 0 0 .03588 97.403 83.372)" rx="8.858" stroke="#db161b" ry="26.575" cy="263.98" cx="363.19" stroke-width="4.463" fill="#fff"/>
<ellipse transform="matrix(.15263 0 0 .03588 97.403 83.53)" rx="8.858" stroke="#db161b" ry="26.575" cy="246.26" cx="398.62" stroke-width="4.463" fill="#fff"/>
<ellipse transform="matrix(.15263 0 0 .03588 97.403 84.326)" rx="8.858" stroke="#db161b" ry="26.575" cy="210.83" cx="434.06" stroke-width="4.463" fill="#fff"/>
<path d="M135.26 107.06l29.75 23.87m-26.78-23.87l26.78 21.21m-22.81-20.33l22.81 17.68m-19.83-17.68l19.83 15.03m-16.86-15.03l16.86 12.38m-13.89-12.38l13.89 9.73m-10.91-9.73l10.91 7.07m-7.94-7.07l7.94 5.31m-4.96-5.31l4.96 3.54m-1.99-3.54l1.99 1.77m-29.75 0l29.75 23.87m0-26.52l-32.72 26.52m29.74-26.52l-28.75 22.98m24.79-22.1l-22.81 17.68m19.83-17.68l-19.83 15.03m16.86-15.03l-16.86 12.38m13.88-12.38l-13.88 9.73m10.91-9.73l-10.91 7.07m7.93-7.07l-7.93 5.31m4.96-5.31l-4.96 3.54m1.98-3.54l-1.98 1.77m29.75 0l-32.72 26.52m32.72-23.87l-32.72 26.52m32.72-23.87l-32.72 26.53m32.72-23.87l-32.72 26.52m32.72-23.87l-32.72 26.52m32.72-23.87l-32.72 26.52m32.72-23.87l-32.72 26.52m32.72-23.86l-32.72 26.52m32.72-23.87l-30.74 24.75m30.74-22.1l-27.77 22.1m26.77-18.56L142.2 154.8m20.82-14.15l-17.84 14.15m15.86-9.73l-8.92 7.07m-16.86-39.78l28.75 22.99m-28.75-20.34L164.01 138m-28.75-20.33l27.76 22.1m-27.76-19.45l27.76 22.1m-27.76-19.45l26.77 21.22m-27.76-19.45l26.77 21.22m-26.77-18.57l24.79 19.45m-25.78-17.68l24.79 19.45m-25.78-17.68l23.79 18.56m-23.79-15.91l22.8 17.68m-22.8-15.03l19.83 15.91m-16.86-49.5v4.42c9.92 1.47 19.83 1.47 29.75 0v-4.42c-9.92 1.47-19.83 1.47-29.75 0zm-2.97 36.24l17.84 14.15m-17.84-11.49l15.86 12.37m-15.86-9.72l13.88 10.61m-13.88-7.96l9.91 7.96m-9.91-5.31l7.93 6.19m-7.93-3.54l4.95 3.54" stroke="#db161b" stroke-width=".352" fill="#fff" fill-rule="evenodd"/>
<ellipse transform="matrix(.15263 0 0 .03588 97.403 97.586)" rx="8.858" stroke="#db161b" ry="26.575" cy="210.83" cx="256.89" stroke-width="4.463" fill="#fff"/>
<ellipse transform="matrix(.15263 0 0 .03588 97.403 96.79)" rx="8.858" stroke="#db161b" ry="26.575" cy="246.26" cx="292.32" stroke-width="4.463" fill="#fff"/>
<ellipse transform="matrix(.15263 0 0 .03588 97.403 96.632)" rx="8.858" stroke="#db161b" ry="26.575" cy="263.98" cx="327.76" stroke-width="4.463" fill="#fff"/>
<ellipse transform="matrix(.15263 0 0 .03588 97.403 96.632)" rx="8.858" stroke="#db161b" ry="26.575" cy="263.98" cx="363.19" stroke-width="4.463" fill="#fff"/>
<ellipse transform="matrix(.15263 0 0 .03588 97.403 96.79)" rx="8.858" stroke="#db161b" ry="26.575" cy="246.26" cx="398.62" stroke-width="4.463" fill="#fff"/>
<ellipse transform="matrix(.15263 0 0 .03588 97.403 97.586)" rx="8.858" stroke="#db161b" ry="26.575" cy="210.83" cx="434.06" stroke-width="4.463" fill="#fff"/>
<path d="M92.625 148.61l35.695-18.57m-37.678 17.68l33.708-17.68m-34.7 15.92l30.74-15.92m-31.73 14.15l26.77-14.15m-28.754 12.38l24.784-12.38m-23.792 9.73l16.852-8.84M86.676 138l12.89-7.07m-12.89 4.42l8.924-4.42m0 18.56l33.71-17.68m-30.736 18.57l31.726-16.8m-28.75 17.68l29.74-15.91m-26.77 16.79l24.79-13.26m-20.82 13.26l21.81-11.49m-18.84 12.38l18.84-9.73m-15.86 10.61l14.87-7.95m-10.91 7.95l11.9-6.19m-7.93 7.08l7.93-4.42m-3.96 4.42l4.95-2.66m1.99-22.98h-4.96a71.66 71.66 0 0 0 0 26.52h4.96a71.236 71.236 0 0 1 0-26.52zm-58.502 12.38l11.898-8.84m-11.898 2.65l11.898 10.61" stroke="#db161b" stroke-width=".352" fill="#fff" fill-rule="evenodd"/>
<path stroke="#db161b" stroke-width=".251" fill="#fff" d="M92.625 130.93l-5.95.88c-1.32 5.6-1.32 10.31 0 15.91l5.95 1.77c-1.322-5.6-1.322-12.96 0-18.56z" fill-rule="evenodd"/>
<path stroke="#db161b" stroke-width=".431" fill="#fff" d="M164.97 86.726V82.27c-4.45.036-7.43-2.616-7.43-5.306L142.69 77c0 2.654-2.97 5.306-7.43 5.306v4.42h29.71z" fill-rule="evenodd"/>
<path stroke="#db161b" stroke-width=".364" fill="#fff" d="M143.75 71.697h12.734V77H143.75zm1.06-5.304h10.612v5.304H144.81zm0-5.303h10.612v5.303H144.81zm1.06-7.073h8.49v7.072h-8.49z"/>
<path stroke="#db161b" stroke-width=".38" fill="#fff" d="M145.51 47.83h9.22v6.187h-9.22z"/>
<ellipse transform="matrix(.28916 0 0 .2495 81.983 1.86)" rx="42.52" stroke="#db161b" ry="33.661" cy="161.22" cx="237.4" stroke-width="1pt" fill="#fff"/>
<path stroke="#db161b" stroke-width=".358" fill="#fff" d="M156.78 41.64c0 2.32 3.07 6.19 3.07 6.19-2.23 1.52-5.83 2.65-9.22 2.65s-7.62-.63-9.22-2.65 3.07-3.87 3.07-6.19c0-2.318-3.07-5.304-3.07-5.304 2.22-1.52 5.83-2.652 9.22-2.652s6.99 1.132 9.22 2.652-3.07 2.986-3.07 5.304z" fill-rule="evenodd"/>
<path stroke="#db161b" stroke-width=".358" fill="#fff" d="M154.73 41.64c0 2.32 3.07 7.073 3.07 7.073-2.22 1.52-3.78 1.768-7.17 1.768s-5.57.26-7.17-1.76 3.07-4.75 3.07-7.07c0-2.31-3.07-6.18-3.07-6.18 2.22-1.52 3.78-1.77 7.17-1.77s4.95.25 7.17 1.77-3.07 3.87-3.07 6.19z" fill-rule="evenodd"/>
<ellipse transform="matrix(.28916 0 0 .2495 81.983 .975)" rx="10.63" stroke="#db161b" ry="10.63" cy="166.54" cx="194.88" stroke-width="1pt" fill="#fff"/>
<ellipse transform="matrix(.28916 0 0 .2495 106.57 .975)" rx="10.63" stroke="#db161b" ry="10.63" cy="166.54" cx="194.88" stroke-width="1pt" fill="#fff"/>
<ellipse transform="matrix(.28916 0 0 .2495 94.278 .975)" rx="10.63" stroke="#db161b" ry="10.63" cy="166.54" cx="194.88" stroke-width="1pt" fill="#fff"/>
<ellipse transform="matrix(.28916 0 0 .2495 94.278 -7.865)" rx="10.63" stroke="#db161b" ry="10.63" cy="166.54" cx="194.88" stroke-width="1pt" fill="#fff"/>
<ellipse transform="matrix(.29948 0 0 .2495 83.264 42.524)" rx="10.63" stroke="#db161b" ry="10.63" cy="166.54" cx="194.88" stroke-width="1pt" fill="#fff"/>
<ellipse transform="matrix(.29948 0 0 .2495 100.24 42.524)" rx="10.63" stroke="#db161b" ry="10.63" cy="166.54" cx="194.88" stroke-width="1pt" fill="#fff"/>
<path stroke="#db161b" stroke-width=".364" fill="#fff" d="M142.69 77h14.85l-7.42 7.958L142.69 77z" fill-rule="evenodd"/>
<ellipse transform="matrix(.3993 0 0 .33266 72.298 27.79)" rx="10.63" stroke="#db161b" ry="10.63" cy="166.54" cx="194.88" stroke-width="1pt" fill="#fff"/>
<rect rx="1.238" ry=".938" height="5.304" width="22.805" stroke="#db161b" y="109.72" x="133.77" stroke-width=".33" fill="#fff"/>
<path stroke="#db161b" stroke-width=".33" fill="#fff" d="M163.52 105.3c-2.75 0-4.96 2.06-4.96 4.62v4.02c0 2.56 2.21 4.62 4.96 4.62s4.96-2.06 4.96-4.62v-4.02c0-2.56-2.21-4.62-4.96-4.62zm0 1.77c-1.65 0-2.98 1.65-2.98 3.7v2.33c0 2.05 1.33 3.69 2.98 3.69s2.97-1.64 2.97-3.69v-2.33c0-2.05-1.32-3.7-2.97-3.7zm-25.78-.88c-1.65 0-2.97 1.64-2.97 3.69v4.1c0 2.05 1.32 3.7 2.97 3.7s2.97-1.65 2.97-3.7v-4.1c0-2.05-1.32-3.69-2.97-3.69zm0-1.77c-2.75 0-4.96 2.06-4.96 4.62v5.79c0 2.56 2.21 4.62 4.96 4.62s4.96-2.06 4.96-4.62v-5.79c0-2.56-2.21-4.62-4.96-4.62z" fill-rule="evenodd"/>
<path stroke="#db161b" stroke-width=".33" fill="#fff" d="M129.81 107.95c-1.65 0-2.98 1.65-2.98 3.7v.96c0 2.05 1.33 3.7 2.98 3.7s2.97-1.65 2.97-3.7v-.96c0-2.05-1.32-3.7-2.97-3.7zm0-1.76c-2.75 0-4.96 2.06-4.96 4.62v2.65c0 2.56 2.21 4.62 4.96 4.62 2.74 0 4.96-2.06 4.96-4.62v-2.65c0-2.56-2.22-4.62-4.96-4.62z" fill-rule="evenodd"/>
<path stroke="#db161b" stroke-width=".33" fill="#fff" d="M117.91 105.51c-2.97 0-5.35 1.84-5.35 4.13v4.58c0 2.29 2.38 4.13 5.35 4.13s5.35-1.84 5.35-4.13v-4.58c0-2.29-2.38-4.13-5.35-4.13zm0-1.98c-4.94 0-8.92 2.31-8.92 5.17v6.47c0 2.86 3.98 5.16 8.92 5.16s8.92-2.3 8.92-5.16v-6.47c0-2.86-3.98-5.17-8.92-5.17zm64.45 2.86c-2.97 0-5.36 1.85-5.36 4.14v4.58c0 2.29 2.39 4.13 5.36 4.13 2.96 0 5.35-1.84 5.35-4.13v-4.58c0-2.29-2.39-4.14-5.35-4.14zm0-1.97c-4.95 0-8.93 2.3-8.93 5.16v6.47c0 2.86 3.98 5.16 8.93 5.16 4.94 0 8.92-2.3 8.92-5.16v-6.47c0-2.86-3.98-5.16-8.92-5.16z" fill-rule="evenodd"/>
<rect rx=".646" ry=".938" height="5.304" width="11.898" stroke="#db161b" y="109.72" x="165.5" stroke-width=".33" fill="#fff"/>
<rect rx=".377" ry="1.251" height="7.072" width="6.941" stroke="#db161b" y="108.84" x="154.6" stroke-width=".33" fill="#fff"/>
<rect rx=".377" ry="1.251" height="7.072" width="6.941" stroke="#db161b" y="108.84" x="121.88" stroke-width=".33" fill="#fff"/>
<rect rx=".753" ry="1.563" height="8.84" width="13.881" stroke="#db161b" y="107.95" x="100.06" stroke-width=".33" fill="#fff"/>
<rect rx=".7" ry="1.563" height="8.84" width="12.89" stroke="#db161b" y="108.84" x="186.32" stroke-width=".33" fill="#fff"/>
</svg>
