<svg xmlns="http://www.w3.org/2000/svg" xmlns:xlink="http://www.w3.org/1999/xlink" viewBox="0 0 600 400">
<clipPath id="a">
<ellipse cy="201" cx="300" rx="85.849" ry="88.189"/>
</clipPath>
<path fill="#ce1126" d="M0 0h600v400H0z"/>
<path fill="#fff" d="M0 100h600v200H0z"/>
<g clip-path="url(#a)">
<path d="M277.29 191.02l-14.575-.42v-5.762l14.575 6.182zm-.06-1.68l-14.515-7.383v-9.602s-1.7.24-1.458-1.68c.08-4.002 10.667 7.302 16.093 10.983l-.12 7.682zm-62.86 25.03l30.606.24v-18.966l-34.98-1.67 4.373 20.405zm-1.46-26.17l32.55 3.12-.24-13.443-31.823-12.484-.487 22.807zm6.56-26.88l25.02 12.003 3.574-3.686s-2.3-1.567-2.187-3.01c.043-1.457 2.314-1.678 2.358-3.26.04-1.46-2.573-1.634-2.602-3.093-.17-1.58 2.016-3.277 2.016-3.277l-22.6-19.447-5.59 23.77zm164.21 53.29h-32.307l-.242-18.485 35.47-2.64-2.91 21.126zm.79-26.7c-.408-3-.836-5.995-1.53-8.938a91.583 91.583 0 0 0-3.564-11.594c-.106-.278-.265-.534-.375-.812l-27.62 11.562.25 13.688 32.85-3.906zm-18.88-44.44l-16.53 12.5c.026 1.196 1.218 2.116 1.547 3.26.763 1.607-.753 3.027-1.692 4.162-.76 1.047.88 1.58 1.424 2.2 1.2 1.23.15 3.16-1.13 3.878 1.54.92 2.32 2.645 2.65 4.344l24.75-12.875c-2.96-6.24-6.65-12.14-11.03-17.47zm-46.03 47.97l13.845-.6.242-5.523-14.088 6.123zm-.01-3l-.06-6.24s13.116-11.704 15.91-13.865c0 2.4-1.518 4.26-1.518 4.26v9.124l-14.332 6.72zm-85.01-52.57c.242.24 14.718 16.14 14.718 16.14.406-1.507 3.744-1.736 7.144-1.495 3.402.24 6.113-.226 6.113 2.175 0 2.4-1.726 2.06-1.726 3.74s2.58 1.54 2.58 3.7-1.88 1.72-1.89 3.392c-.01 1.383 1.95 1.456 1.95 1.456l13.78 13.205.06-14.105-28.42-44.052-14.33 15.845zm22.74-16.68c.216.64 19.25 38.906 19.25 38.906s.216-35.913 3.46-37.837l-5.406-9.84-17.303 8.76zm62.13-4.13l-7.188 24.844c2.24.267 4.504.34 6.756.214 2.025.174.448 2.072.556 3.195l-.03 15.278 20.312-35.87c-4.67-2.44-9.627-4.25-14.616-5.9a67.174 67.174 0 0 0-5.79-1.75zm25.28 10.38l-25.125 38.625-.03 14.875c5.593-5.322 11.216-10.617 16.793-15.957 1.058-1.5-3.36-2.233-1.152-4.06 2-.63 2.34-3.862.233-4.483-1.74-2.548 1.57-3.9 3.65-3.62 2.9.133 5.89-.63 8.72.174 1.56 1.493 3-2.255 4.53-3.1 3.03-3.046 6.06-6.09 9.05-9.172a80.56 80.56 0 0 0-16.69-13.282z" fill="#ff9c10"/>
<g stroke="#083d9c" stroke-width="1.932" fill="#083d9c">
<path stroke-width="2.057" d="M279.88 275.41c-6.178.35-12.334 4.518-15.22 6.75 5.18 2.267 10.71 4.037 16.595 5.25 9.375 1.574 18.75 1.563 28.125 1.563 1.53-.193 3.045-.41 4.53-.657l19.75-6.656s-9.5-6.27-17.03-6c-7.53.27-12.615 7.638-18.688 7.094-6.072-.544-8.505-7.344-17.25-7.344-.273 0-.54-.015-.812 0z"/>
<path d="M244.01 270.31l112.23.48s-9.716-10.323-21.134-10.563c-11.417-.24-8.258 4.802-17.003 5.52-8.744.722-10.932-5.28-18.948-5.04-8.015.24-12.632 5.04-18.703 5.282-6.073.23-13.846-6.01-18.462-5.77-4.616.24-21.134 7.2-21.134 7.2l3.158 2.88zm-14.33-13.21l138.46.48c2.186-3.12-6.802-10.562-15.06-11.283-6.804.24-11.66 6.962-17.247 7.203-5.587.24-11.902-6.963-18.22-6.72-6.314.238-12.873 6.72-19.19 6.72-6.314 0-10.93-6.963-18.945-6.963-8.016 0-11.66 7.682-17.733 7.203-6.074-.48-11.418-7.682-17.247-7.682-5.83 0-15.546 8.642-17.49 8.16-1.942-.478 2.43 3.603 2.673 2.882zm53.53-13.24l30.908-.018c.24-.24-6.92-10.55-15.45-9.823-9.5.24-15.955 9.84-15.458 9.84zm98.56-.74h-42.294s5.474-3.197 6.966-6.147c2.736 1.475 1.99 2.95 7.464 3.196 5.473.24 10.697-6.15 15.923-5.9 5.22.24 11.94 9.09 11.94 8.85zm-166.67 0h42.294s-5.474-3.197-6.966-6.147c-2.736 1.475-1.99 2.95-7.464 3.196-5.472.24-10.697-6.15-15.923-5.9-5.22.24-11.94 9.09-11.94 8.85zm3.16-13.14l30.12.24s-1.942-4.08-2.184-9.122c-7.776-2.64-14.09 5.76-19.677 6-5.59.24-11.42-6-11.42-6l3.15 8.882zm160.81 0l-30.122.24s1.944-4.08 2.186-9.122c7.775-2.64 14.09 5.76 19.677 6 5.59.24 11.42-6 11.42-6l-3.15 8.882zm-88.18.24l15.302-.48s.244-4.56-7.773-4.56-7.29 5.28-7.53 5.04z"/>
</g>
<path d="M282.87 181l31.823 8.403v-44.895c-14.576.72-26.72-27.368-.972-29.288-25.26-3.6-28.17 2.88-31.09 9.843l.24 55.937zm7.07 40.58c-6.92 11.33-25.425 7.97-29.752.06-1.296-.363-.53-48.8-.53-48.8s-2.067-.93-2.163-2.42c-.094-1.504 2.812-1.64 2.812-3.565 0-1.924-2.968-1.17-3.027-3.106.012-1.86 3.168-1.6 3.027-3.31-.167-1.93-3.534-1.65-3.677-3.42-.11-1.42 2.408-2.65 3.108-3.28-.453.02-2.34-.03-2.35-.04l-5.3.1c-3.766 0 .064.81.01 2.96-.035 1.4-1.91 2.33-2.078 3.55-.06 1.25 2.683 2.13 2.717 3.63.032 1.34-2.694 1.43-2.596 2.67.17 2.11 2.42 2.57 2.38 3.85-.03 1.27-3.02 1.76-3.02 2.78.11 1.96.43 49.8.43 49.8 4.76 24.37 32.23 30.57 40.02-1.5zm18.11 0c6.92 11.33 25.424 7.97 29.75.06 1.297-.363.53-48.8.53-48.8s2.07-.93 2.164-2.42c.094-1.504-2.63-1.64-2.63-3.565 0-1.924 2.787-1.17 2.845-3.106-.02-1.86-2.93-1.72-2.79-3.43.16-1.93 2.45-1.71 2.58-3.48.11-1.53-1.44-2.47-2.14-3.1.45.02 2.21-.03 2.23-.04l5.3.1c3.76 0-.07.81-.01 2.96.03 1.4 1.91 2.33 2.07 3.55.06 1.25-2.69 2.13-2.72 3.63-.03 1.34 2.69 1.43 2.59 2.68-.17 2.11-2.42 2.57-2.38 3.85.03 1.27 3.02 1.76 3.03 2.77-.11 1.97-.43 49.8-.43 49.8-4.76 24.37-32.23 30.57-40.02-1.5z" stroke-linejoin="round" stroke="#630810" stroke-width="1.932" fill="#ce1126"/>
<g stroke="#630810" stroke-width="2.792" stroke-linecap="round" fill="#630810">
<path d="M281.66 223.73c2.672-1.442 5.1-2.88 6.802-6.243l-10.446.24s-4.856 2.882-7.287 6.003h10.93zm33.76 0c-2.672-1.442-5.1-2.88-6.8-6.243l10.444.24s4.857 2.882 7.286 6.003h-10.93zm-52.71-10.08l71.903.24"/>
<path d="M266.11 196.61l8.502 11.284m-8.502-.004l9.232-11.043m-4.372-.967l-.243 6.962" id="b"/>
<use x="13.604" xlink:href="#b"/>
<use x="27.45" xlink:href="#b"/>
<use x="41.782" xlink:href="#b"/>
<use x="55.628" xlink:href="#b"/>
</g>
</g>
</svg>
