<svg xmlns="http://www.w3.org/2000/svg" xmlns:xlink="http://www.w3.org/1999/xlink" viewBox="0 0 768 576">
<path d="M0 0h768v576H0z"/>
<path d="M0 0h768v576z" fill="#ce1126"/>
<path d="M475.48 167.35c-5.67 7.33-19.09-7.37-35.17-7.7-16.08-.34-27.47 15.41-32.16 20.77s-19.76 33.5-19.43 36.51c.33 3.02 9.38-8.37 12.73-10.38.33 4.02-3.69 8.71-2.68 10.05s11.72-8.04 15.41-8.38c1 2.68-2.01 5.36-1.01 9.38 1.35 1.34 7.38-6.7 11.4-8.37.66 3.01-3.69 8.71-1.35 12.39 1.68.34 11.73-11.39 15.08-12.73s-1.68 11.06 0 12.06c3.01-2.01 12.4-12.73 15.41-14.07 3.02-1.34-.33 13.74 1.01 13.74 3.68-2.68 13.06-15.41 14.07-17.42 1-2.01-1.01 19.43 9.37 30.82 10.39 11.39 26.14 24.45 27.81 24.45 2.01-3.68-.67-11.39 1.01-11.05 4.68 5.02 13.4 12.39 15.4 12.39 2.02 0-1.34-8.04 1.34-8.04 5.37 5.03 20.78 24.79 50.92 33.84-2-5.7-6.36-10.72-6.7-13.4 2.01.33 9.05 3.68 10.39 3.35 1.34-.34-14.74-20.1-13.73-22.78 3.68-.34 5.36 2.01 6.7.33-1.68-2.68-15.75-18.42-15.75-22.11 0-3.68 4.36.67 5.7 0 1.33-.67-5.36-14.74-4.02-16.41 1.33-1.68 16.07 9.04 19.76 9.04s1-13.06 2.68-13.73 14.07 7.03 16.75 7.03 2.34-5.69 3.35-5.02 30.15 29.81 20.1 63.98c-10.05 24.46-30.15 37.52-59.63 26.8 1.67 2.68 17.42 15.75 34.5 11.06 17.09-4.69 37.86-18.09 35.51-51.59-2.34-33.5-13.4-38.19-15.07-43.22-1.67-5.02 2.68 1.34 6.37 2.68 3.68 1.35-.67-7.03-1.68-10.72-1.01-3.68 11.05 7.71 14.07 8.71 3.02 1.01-7.04-27.47-10.05-29.48s3.01.67 5.03 1.34c2 .67-18.43-31.15-22.79-31.15-4.35 0 3.69-1.68 6.03-1.68 2.35 0-23.44-20.77-27.8-20.77s9.38-5.36 10.72-5.69c2.35.33-29.81-17.09-58.62.33-1.68-1.34 13.56-11.89 14.06-16.41.17-1.17-5.02-3.69-5.35-5.03-.34-1.34 8.04-5.36 8.37-8.37-2.01-2.68-5.7-1.68-7.71-2.35-.5-2.508 7.04-8.706 6.37-11.385-.5-1.508-6.03-2.01-7.37-1.005s3.52-7.035 2.68-9.38c-.67-1.005-3.35-.335-6.03.335-1.68-.335 8.71-14.74 6.7-16.75s-30.15 14.74-40.54 33.5c-10.38 18.755-2.34 33.835-3.68 40.195-1.34 6.37-3.02 12.73-7.37 12.73s-14.4-6.7-17.75-10.05c-3.36-3.35-4.02-5.69-8.72-7.03-4.69-1.34-15.4 2.68-19.42 3.01-4.02.34-19.77-3.01-20.78-2.01-1 1.01 15.41 7.04 19.1 9.05s4.02 4.69 6.7 6.36c2.68 1.68 27.8 9.05 19.76 19.43zm98.16 47.24c8.04 8.04 62.31 44.22 62.31 88.44s-39.53 42.88-50.92 41.54c12.73 10.72 60.97 8.71 60.97-41.54 0-44.22-62.31-88.44-70.35-92.46s-10.05-4.02-2.01 4.02z" fill="#fcd116"/>
<g fill="#fff">
<path d="M220.25 418.6l11.46-36.85L243.16 419 213 396.17h37.418z"/>
<path id="a" d="M192.42 178.5l-22.91 73.702 60.328-44.862h-74.836l60.327 45.664z"/>
<use y="112.504" x="-88" xlink:href="#a"/>
<use y="104.504" x="87.582" xlink:href="#a"/>
<use y="264.504" xlink:href="#a"/>
</g>
</svg>
