<svg viewBox="0 0 1050 700" xmlns="http://www.w3.org/2000/svg" xmlns:xlink="http://www.w3.org/1999/xlink">
<linearGradient id="a" y2="168.15" gradientUnits="userSpaceOnUse" x2="159.22" gradientTransform="matrix(.7645 0 0 1.1676 32.856 473.27)" y1="168.86" x1="162.59">
<stop offset="0"/>
<stop stop-color="#00F" offset="1"/>
</linearGradient>
<linearGradient id="b" y2="148.15" gradientUnits="userSpaceOnUse" x2="155.32" gradientTransform="matrix(.667 0 0 1.3383 38.416 466.99)" y1="148.85" x1="160.19">
<stop offset="0"/>
<stop stop-color="#00F" offset="1"/>
</linearGradient>
<linearGradient id="c" y2="177.02" gradientUnits="userSpaceOnUse" x2="130.88" gradientTransform="matrix(.8667 0 0 1.03 27.033 478.41)" y1="180.08" x1="136.42">
<stop offset="0"/>
<stop stop-color="#00F" offset="1"/>
</linearGradient>
<linearGradient id="d" y2="191.68" gradientUnits="userSpaceOnUse" x2="123.58" gradientTransform="matrix(1.026 0 0 .87 17.956 484.29)" y1="197.23" x1="141.31">
<stop offset="0"/>
<stop stop-color="#00F" offset="1"/>
</linearGradient>
<linearGradient id="e" y2="163.21" gradientUnits="userSpaceOnUse" x2="290.82" gradientTransform="matrix(.732 0 0 1.2193 34.706 471.41)" y1="164.08" x1="294.98">
<stop offset="0"/>
<stop stop-color="#00F" offset="1"/>
</linearGradient>
<linearGradient id="f" y2="151.72" gradientUnits="userSpaceOnUse" x2="288.41" gradientTransform="matrix(.6637 0 0 1.345 38.603 466.75)" y1="153.84" x1="294.37">
<stop offset="0"/>
<stop stop-color="#00F" offset="1"/>
</linearGradient>
<linearGradient id="g" y2="183.5" gradientUnits="userSpaceOnUse" x2="231.63" gradientTransform="matrix(.835 0 0 1.07 28.84 476.97)" y1="188.47" x1="233.91">
<stop offset="0"/>
<stop stop-color="#00F" offset="1"/>
</linearGradient>
<linearGradient id="h" y2="205.83" gradientUnits="userSpaceOnUse" x2="202.48" gradientTransform="matrix(1.0214 0 0 .874 18.216 484.13)" y1="210.72" x1="204.14">
<stop offset="0"/>
<stop stop-color="#00F" offset="1"/>
</linearGradient>
<linearGradient id="i" y2="171.94" gradientUnits="userSpaceOnUse" x2="42.068" gradientTransform="matrix(.8945 0 0 .998 25.953 479.56)" y1="175.46" x1="47.983">
<stop offset="0"/>
<stop stop-color="#00F" offset="1"/>
</linearGradient>
<linearGradient id="j" y2="172.14" gradientUnits="userSpaceOnUse" x2="22.539" gradientTransform="matrix(.8 0 0 1.116 31.342 475.22)" y1="176.25" x1="29.443">
<stop offset="0"/>
<stop stop-color="#00F" offset="1"/>
</linearGradient>
<linearGradient id="k" y2="199.91" gradientUnits="userSpaceOnUse" x2="31.181" gradientTransform="matrix(1.0448 0 0 .8544 17.38 484.85)" y1="203.73" x1="37.595">
<stop offset="0"/>
<stop stop-color="#00F" offset="1"/>
</linearGradient>
<linearGradient id="l" y2="171.16" gradientUnits="userSpaceOnUse" x2="36.648" gradientTransform="matrix(.7606 0 0 1.1737 33.585 473.06)" y1="174.48" x1="42.218">
<stop offset="0"/>
<stop stop-color="#00F" offset="1"/>
</linearGradient>
<linearGradient id="m" y2="131.77" gradientUnits="userSpaceOnUse" x2="24.661" gradientTransform="matrix(1.0293 0 0 .8672 17.763 484.42)" y1="131.77" x1="15.001">
<stop offset="0"/>
<stop stop-color="#00F" offset="1"/>
</linearGradient>
<linearGradient id="n" y2="121.83" gradientUnits="userSpaceOnUse" x2="8.99" gradientTransform="matrix(.8 0 0 1.116 30.84 475.22)" y1="121.83" x1="-.753">
<stop offset="0"/>
<stop stop-color="#00F" offset="1"/>
</linearGradient>
<linearGradient id="o" y2="121.3" gradientUnits="userSpaceOnUse" x2="37.646" gradientTransform="matrix(.9458 0 0 .9438 22.525 481.59)" y1="121.3" x1="27.642">
<stop offset="0"/>
<stop stop-color="#00F" offset="1"/>
</linearGradient>
<linearGradient id="p" y2="104.84" gradientUnits="userSpaceOnUse" x2="41.309" gradientTransform="matrix(.7175 0 0 1.244 35.538 470.48)" y1="104.84" x1="33.559">
<stop offset="0"/>
<stop stop-color="#00F" offset="1"/>
</linearGradient>
<linearGradient id="q" y2="185.55" gradientUnits="userSpaceOnUse" x2="92.129" gradientTransform="matrix(1.063 0 0 .8398 -3.22 474.3)" y1="207.73" x1="91.962">
<stop stop-color="#4A0000" offset="0"/>
<stop stop-color="#FFCF00" offset="1"/>
</linearGradient>
<linearGradient id="r" y2="164.97" gradientUnits="userSpaceOnUse" x2="62.98" gradientTransform="matrix(.9378 0 0 .9518 3.91 470.18)" y1="178.06" x1="49.019">
<stop stop-color="#4A0000" offset="0"/>
<stop stop-color="#FFCF00" offset="1"/>
</linearGradient>
<linearGradient id="s" y2="166.26" gradientUnits="userSpaceOnUse" x2="103.97" gradientTransform="matrix(.789 0 0 1.1312 12.387 448.25)" y1="159.46" x1="104.85">
<stop offset="0"/>
<stop stop-color="#00F" offset="1"/>
</linearGradient>
<linearGradient id="t" y2="167.45" gradientUnits="userSpaceOnUse" x2="64.6" gradientTransform="matrix(.924 0 0 .9662 4.705 469.63)" y1="179.01" x1="52.271">
<stop stop-color="#4A0000" offset="0"/>
<stop stop-color="#FFCF00" offset="1"/>
</linearGradient>
<linearGradient id="u" y2="211.28" gradientUnits="userSpaceOnUse" x2="55.467" gradientTransform="matrix(1.143 0 0 .78 -7.79 461.21)" y1="221.73" x1="44.325">
<stop stop-color="#4A0000" offset="0"/>
<stop stop-color="#FFCF00" offset="1"/>
</linearGradient>
<path fill="#FFF" d="M0 233.33h286v233.33H0z"/>
<path d="M278.44 351.2c-.7.86-1.508 2.476-1.67 3.498-.215 1.077-.86 2.96-1.4 4.198-1.4 3.122-1.345 5.76.162 8.02 1.885 2.852 5.06 2.8 6.568-.054 1.4-2.637 1.023-6.35-.86-9.15-1.67-2.422-1.885-4.628-.81-7.158.71-1.44-.53-1.07-1.99.65zm6.68 17.07c-1.023.43-2.153 1.184-2.53 1.723-3.015 3.93 3.822 8.234 8.775 5.597 5.33-2.906 5.49-2.96 8.022-2.1 2.153.7 2.26.7 1.83-.16-.86-1.615-2.207-2.37-7.43-4.145-5.98-1.99-6.19-1.99-8.67-.91zm-20.57 1.29c-2.477 1.67-5.114 2.045-7.053 1.023-1.507-.808-1.668-.323-.43 1.29.646.81 2.1 1.67 3.39 1.993 1.24.323 3.393 1.076 4.793 1.614 3.23 1.346 6.137 1.346 8.344 0 4.47-2.69 1.67-7.535-4.307-7.535-1.72 0-3.01.43-4.74 1.62zm12.98 5.86c-.27.592-.538 2.206-.538 3.66-.108 9.633-3.93 18.73-11.144 26.587-1.56 1.668-2.853 3.175-2.853 3.39 0 .54 8.075.377 9.152-.215.97-.484 1.076-.323 1.4 1.56.43 2.585 1.884 5.06 3.66 6.244 1.13.754 1.562.808 2.8.162 2.153-1.023 3.553-3.23 3.822-6.028.26-2.1.48-2.476 1.18-2.1.48.216 2.91.485 5.38.593l4.52.215-2.37-2.798c-4.47-5.275-5.92-7.266-7.7-10.765-2.48-4.79-3.5-8.557-3.93-14.262-.17-2.69-.54-5.382-.76-6.082-.54-1.45-1.89-1.56-2.64-.16zM94.514 351.57c-.7.86-1.507 2.476-1.67 3.5-.214 1.075-.86 2.96-1.398 4.197-1.4 3.12-1.346 5.76.16 8.02 1.885 2.852 5.062 2.798 6.57-.055 1.4-2.637 1.022-6.35-.862-9.15-1.67-2.42-1.884-4.628-.808-7.158.7-1.45-.538-1.07-1.992.65zm6.676 17.06c-1.023.43-2.154 1.184-2.53 1.722-3.015 3.93 3.822 8.234 8.775 5.597 5.33-2.91 5.49-2.96 8.02-2.1 2.155.7 2.262.7 1.832-.16-.862-1.62-2.207-2.37-7.43-4.15-5.98-1.98-6.19-1.98-8.67-.91zm-20.565 1.29c-2.477 1.67-5.115 2.045-7.053 1.023-1.507-.807-1.67-.323-.43 1.292.646.807 2.1 1.668 3.39 1.99 1.24.324 3.393 1.077 4.793 1.616 3.23 1.35 6.137 1.35 8.344 0 4.46-2.69 1.66-7.53-4.31-7.53-1.72 0-3.02.43-4.74 1.61zm12.975 5.87c-.27.592-.54 2.206-.54 3.66-.107 9.634-3.93 18.73-11.143 26.587-1.56 1.67-2.854 3.176-2.854 3.39 0 .54 8.076.378 9.153-.214.97-.485 1.076-.323 1.4 1.56.43 2.584 1.884 5.06 3.66 6.244 1.13.753 1.56.807 2.8.16 2.153-1.02 3.553-3.228 3.822-6.027.27-2.1.484-2.476 1.184-2.1.485.216 2.907.486 5.384.593l4.522.215-2.37-2.798c-4.467-5.275-5.92-7.266-7.697-10.764-2.47-4.79-3.5-8.558-3.93-14.263-.16-2.69-.53-5.382-.75-6.082-.54-1.45-1.88-1.56-2.64-.16zm91.93-24.44c-.7.86-1.507 2.476-1.67 3.5-.214 1.075-.86 2.96-1.4 4.197-1.398 3.12-1.345 5.76.163 8.02 1.884 2.852 5.06 2.798 6.568-.055 1.4-2.637 1.03-6.35-.86-9.15-1.67-2.42-1.88-4.628-.8-7.158.7-1.44-.54-1.07-1.99.65zm6.67 17.07c-1.023.43-2.154 1.184-2.53 1.722-3.016 3.93 3.822 8.234 8.774 5.597 5.33-2.91 5.492-2.96 8.022-2.1 2.153.7 2.26.7 1.83-.16-.86-1.62-2.207-2.37-7.43-4.15-5.98-2-6.19-2-8.67-.92zm-20.56 1.29c-2.476 1.67-5.114 2.045-7.052 1.023-1.508-.807-1.67-.323-.43 1.292.645.807 2.1 1.668 3.39 1.99 1.24.324 3.392 1.077 4.792 1.616 3.23 1.35 6.137 1.35 8.345 0 4.468-2.69 1.67-7.53-4.307-7.53-1.73-.01-3.02.42-4.74 1.61zm12.97 5.86c-.27.592-.54 2.206-.54 3.66-.106 9.634-3.93 18.73-11.143 26.587-1.56 1.67-2.853 3.176-2.853 3.39 0 .54 8.075.378 9.152-.214.97-.485 1.077-.323 1.4 1.56.43 2.584 1.884 5.06 3.66 6.244 1.13.753 1.562.807 2.8.16 2.154-1.02 3.553-3.228 3.822-6.027.27-2.1.485-2.476 1.185-2.1.484.216 2.907.486 5.383.593l4.523.215-2.37-2.798c-4.47-5.275-5.93-7.266-7.7-10.764-2.48-4.79-3.5-8.558-3.93-14.263-.16-2.69-.54-5.382-.76-6.082-.54-1.45-1.89-1.56-2.64-.16zM5.36 351.2c-.7.86-1.508 2.476-1.67 3.498-.215 1.077-.86 2.96-1.4 4.198-1.4 3.122-1.345 5.76.162 8.02 1.884 2.852 5.06 2.8 6.568-.054 1.4-2.637 1.023-6.35-.86-9.15-1.67-2.422-1.886-4.628-.81-7.158.7-1.44-.537-1.07-1.99.65zm6.675 17.07c-1.023.43-2.154 1.184-2.53 1.723-3.015 3.93 3.822 8.234 8.775 5.597 5.33-2.906 5.49-2.96 8.02-2.1 2.155.7 2.262.7 1.832-.16-.862-1.615-2.208-2.37-7.43-4.145-5.975-1.99-6.19-1.99-8.667-.91zm265.125-168.1c-.7.86-1.507 2.476-1.67 3.498-.214 1.077-.86 2.96-1.4 4.198-1.398 3.122-1.345 5.76.163 8.02 1.884 2.852 5.06 2.8 6.568-.054 1.4-2.637 1.03-6.35-.86-9.15-1.67-2.422-1.88-4.628-.8-7.158.71-1.45-.53-1.07-1.99.65zm6.68 17.06c-1.023.43-2.154 1.184-2.53 1.723-3.016 3.93 3.822 8.234 8.774 5.597 5.33-2.906 5.492-2.96 8.022-2.1 2.153.7 2.26.7 1.83-.16-.86-1.615-2.207-2.37-7.43-4.145-5.98-1.99-6.19-1.99-8.67-.91zm-20.57 1.29c-2.476 1.67-5.114 2.045-7.052 1.023-1.508-.808-1.67-.323-.43 1.29.645.81 2.1 1.67 3.39 1.993 1.24.323 3.392 1.076 4.792 1.614 3.23 1.346 6.137 1.346 8.345 0 4.468-2.69 1.67-7.535-4.307-7.535-1.72.01-3.01.44-4.74 1.62zm12.98 5.87c-.27.592-.54 2.206-.54 3.66-.106 9.633-3.93 18.73-11.143 26.587-1.56 1.668-2.853 3.175-2.853 3.39 0 .54 8.075.377 9.152-.215.97-.484 1.077-.323 1.4 1.56.43 2.585 1.884 5.06 3.66 6.244 1.13.754 1.562.808 2.8.162 2.154-1.023 3.553-3.23 3.822-6.028.27-2.1.485-2.476 1.185-2.1.484.216 2.907.485 5.383.593l4.523.215-2.37-2.798c-4.47-5.275-5.93-7.266-7.7-10.765-2.48-4.79-3.5-8.557-3.93-14.262-.16-2.69-.54-5.382-.76-6.082-.54-1.45-1.89-1.56-2.64-.16zM93.235 200.54c-.7.86-1.508 2.476-1.67 3.5-.215 1.075-.86 2.96-1.4 4.197-1.4 3.12-1.345 5.76.163 8.02 1.884 2.852 5.06 2.798 6.568-.055 1.4-2.637 1.022-6.35-.862-9.15-1.67-2.42-1.884-4.628-.807-7.158.7-1.45-.54-1.08-1.992.65zm6.675 17.06c-1.023.43-2.153 1.184-2.53 1.722-3.015 3.93 3.822 8.234 8.775 5.597 5.33-2.91 5.49-2.96 8.022-2.1 2.153.7 2.26.7 1.83-.16-.86-1.62-2.207-2.37-7.43-4.15-5.98-2-6.19-2-8.67-.92zm-20.565 1.29c-2.476 1.67-5.114 2.045-7.052 1.023-1.508-.807-1.67-.323-.43 1.292.645.807 2.1 1.668 3.39 1.99 1.24.324 3.392 1.077 4.792 1.616 3.23 1.35 6.137 1.35 8.344 0 4.46-2.69 1.66-7.53-4.31-7.53-1.73-.01-3.02.42-4.74 1.61zm12.975 5.87c-.27.592-.54 2.206-.54 3.66-.107 9.634-3.93 18.73-11.143 26.587-1.56 1.67-2.853 3.176-2.853 3.39 0 .54 8.075.378 9.152-.214.97-.485 1.077-.323 1.4 1.56.43 2.584 1.884 5.06 3.66 6.244 1.13.753 1.562.807 2.8.16 2.153-1.02 3.553-3.228 3.822-6.027.27-2.1.485-2.476 1.185-2.1.484.216 2.907.486 5.383.593l4.522.215-2.368-2.798c-4.47-5.275-5.922-7.266-7.7-10.764-2.475-4.79-3.498-8.558-3.93-14.263-.16-2.69-.537-5.382-.753-6.082-.538-1.46-1.884-1.56-2.638-.16zm91.93-24.44c-.7.86-1.507 2.476-1.67 3.5-.214 1.075-.86 2.96-1.398 4.197-1.4 3.12-1.346 5.76.16 8.02 1.885 2.852 5.062 2.798 6.57-.055 1.4-2.637 1.022-6.35-.862-9.15-1.67-2.42-1.884-4.628-.808-7.158.7-1.45-.54-1.07-1.99.65zm6.67 17.06c-1.023.43-2.153 1.184-2.53 1.722-3.015 3.93 3.822 8.234 8.775 5.597 5.33-2.91 5.49-2.96 8.02-2.1 2.155.7 2.262.7 1.832-.16-.862-1.62-2.207-2.37-7.43-4.15-5.97-2-6.19-2-8.67-.92zm-20.56 1.29c-2.477 1.67-5.115 2.045-7.053 1.023-1.507-.807-1.67-.323-.43 1.292.646.807 2.1 1.668 3.39 1.99 1.24.324 3.393 1.077 4.793 1.616 3.23 1.35 6.137 1.35 8.344 0 4.468-2.69 1.67-7.53-4.307-7.53-1.73 0-3.02.43-4.74 1.61zm12.97 5.87c-.27.592-.538 2.206-.538 3.66-.108 9.634-3.93 18.73-11.144 26.587-1.56 1.67-2.853 3.176-2.853 3.39 0 .54 8.075.378 9.152-.214.97-.485 1.076-.323 1.4 1.56.43 2.584 1.884 5.06 3.66 6.244 1.13.753 1.56.807 2.8.16 2.153-1.02 3.553-3.228 3.822-6.027.26-2.1.48-2.476 1.18-2.1.48.216 2.9.486 5.38.593l4.52.215-2.37-2.798c-4.47-5.275-5.92-7.266-7.7-10.764-2.48-4.79-3.5-8.558-3.93-14.263-.17-2.69-.54-5.382-.76-6.082-.54-1.45-1.88-1.56-2.64-.16zM4.08 200.17c-.7.86-1.508 2.476-1.67 3.498-.215 1.077-.86 2.96-1.4 4.198-1.4 3.122-1.345 5.76.162 8.02 1.885 2.852 5.06 2.8 6.568-.054 1.4-2.637 1.023-6.35-.86-9.15-1.67-2.422-1.885-4.628-.81-7.158.7-1.45-.537-1.07-1.99.65zm6.675 17.06c-1.023.43-2.153 1.184-2.53 1.723-3.015 3.93 3.822 8.234 8.775 5.597 5.33-2.906 5.49-2.96 8.022-2.1 2.153.7 2.26.7 1.83-.16-.86-1.615-2.207-2.37-7.43-4.145-5.975-1.99-6.19-1.99-8.667-.91zm-6.607 7.16c-.27.592-.538 2.206-.538 3.66-.054 4.816-1.437 10.3-3.308 14.76.132 6.864.34 9.873-.138 16.563.43 2.584 1.885 5.06 3.66 6.243 1.132.754 1.562.808 2.8.162 2.154-1.023 3.554-3.23 3.823-6.028.27-2.1.485-2.476 1.184-2.1.49.216 2.91.485 5.39.593l4.52.215-2.37-2.798c-4.46-5.275-5.92-7.266-7.69-10.765-2.47-4.79-3.5-8.557-3.93-14.262-.16-2.69-.53-5.382-.75-6.082-.54-1.45-1.88-1.56-2.64-.16zM232.59 429.26c-.7.86-1.507 2.476-1.67 3.498-.214 1.077-.86 2.96-1.398 4.198-1.4 3.122-1.346 5.76.16 8.02 1.885 2.852 5.062 2.798 6.57-.054 1.4-2.637 1.022-6.35-.862-9.15-1.67-2.422-1.884-4.628-.808-7.158.7-1.45-.54-1.07-1.99.65zm6.67 17.06c-1.023.43-2.153 1.184-2.53 1.723-3.015 3.928 3.822 8.234 8.775 5.597 5.33-2.906 5.49-2.96 8.02-2.1 2.155.7 2.262.7 1.832-.16-.862-1.615-2.207-2.37-7.43-4.145-5.98-1.99-6.19-1.99-8.67-.92zm-20.56 1.3c-2.477 1.668-5.115 2.045-7.053 1.023-1.507-.808-1.67-.323-.43 1.29.646.81 2.1 1.67 3.39 1.993 1.24.323 3.393 1.076 4.793 1.614 3.23 1.346 6.137 1.346 8.344 0 4.468-2.69 1.67-7.535-4.307-7.535-1.73 0-3.02.43-4.74 1.62zm12.97 5.86c-.27.592-.538 2.207-.538 3.66-.108 9.634-3.93 18.73-11.144 26.588-1.56 1.668-2.853 3.175-2.853 3.39 0 .54 8.075.377 9.152-.215.97-.484 1.076-.323 1.4 1.56.43 2.585 1.884 5.06 3.66 6.244 1.13.754 1.56.808 2.8.162 2.153-1.03 3.553-3.23 3.822-6.03.26-2.1.48-2.48 1.18-2.1.48.21 2.9.48 5.38.59l4.52.21-2.37-2.8c-4.47-5.28-5.92-7.27-7.7-10.77-2.48-4.79-3.5-8.56-3.93-14.26-.17-2.69-.54-5.38-.76-6.08-.54-1.45-1.89-1.56-2.64-.16zM48.657 429.63c-.7.86-1.507 2.476-1.67 3.5-.214 1.075-.86 2.96-1.4 4.197-1.398 3.12-1.344 5.758.163 8.02 1.884 2.85 5.06 2.798 6.568-.055 1.4-2.637 1.023-6.35-.86-9.15-1.67-2.42-1.886-4.628-.81-7.158.7-1.45-.537-1.07-1.99.65zm6.676 17.06c-1.023.43-2.154 1.185-2.53 1.723-3.015 3.93 3.822 8.234 8.775 5.597 5.33-2.906 5.49-2.96 8.02-2.1 2.155.7 2.262.7 1.832-.16-.862-1.615-2.208-2.368-7.43-4.145-5.976-1.99-6.19-1.99-8.667-.91zm-20.565 1.29c-2.477 1.67-5.115 2.045-7.053 1.023-1.507-.808-1.67-.323-.43 1.29.645.81 2.1 1.67 3.39 1.993 1.24.323 3.393 1.076 4.792 1.614 3.23 1.346 6.138 1.346 8.345 0 4.468-2.69 1.67-7.534-4.307-7.534-1.723 0-3.015.43-4.737 1.61zm12.974 5.87c-.27.592-.538 2.206-.538 3.66-.108 9.633-3.93 18.73-11.144 26.587-1.562 1.67-2.854 3.176-2.854 3.39 0 .54 8.076.378 9.152-.214.97-.485 1.077-.323 1.4 1.56.43 2.584 1.884 5.06 3.66 6.244 1.13.753 1.562.807 2.8.16 2.154-1.022 3.553-3.228 3.823-6.027.27-2.1.49-2.476 1.19-2.1.49.216 2.91.485 5.39.593l4.52.215-2.36-2.798c-4.47-5.275-5.92-7.266-7.7-10.765-2.47-4.79-3.5-8.557-3.93-14.262-.16-2.69-.54-5.382-.75-6.082-.54-1.45-1.88-1.56-2.63-.16zm91.928-24.44c-.7.86-1.508 2.476-1.67 3.5-.215 1.075-.86 2.96-1.4 4.197-1.4 3.12-1.345 5.758.163 8.02 1.884 2.85 5.06 2.798 6.568-.055 1.4-2.637 1.03-6.35-.86-9.15-1.67-2.42-1.88-4.628-.8-7.158.7-1.45-.54-1.07-1.99.65zm6.67 17.06c-1.023.43-2.153 1.185-2.53 1.723-3.015 3.93 3.822 8.234 8.775 5.597 5.33-2.906 5.492-2.96 8.022-2.1 2.153.7 2.26.7 1.83-.16-.86-1.615-2.207-2.368-7.43-4.145-5.97-1.98-6.19-1.98-8.67-.91zm-20.56 1.29c-2.476 1.67-5.114 2.045-7.052 1.023-1.508-.808-1.67-.323-.43 1.29.645.81 2.1 1.67 3.39 1.993 1.24.323 3.392 1.076 4.792 1.614 3.23 1.346 6.137 1.346 8.345 0 4.468-2.69 1.668-7.534-4.307-7.534-1.72 0-3.02.43-4.74 1.61zm12.98 5.87c-.27.592-.54 2.206-.54 3.66-.107 9.633-3.93 18.73-11.143 26.587-1.56 1.67-2.853 3.176-2.853 3.39 0 .54 8.075.378 9.152-.214.97-.485 1.077-.323 1.4 1.56.43 2.584 1.884 5.06 3.66 6.244 1.13.753 1.562.807 2.8.16 2.153-1.022 3.553-3.228 3.822-6.027.27-2.1.485-2.476 1.185-2.1.484.216 2.907.485 5.383.593l4.522.215-2.368-2.798c-4.47-5.275-5.922-7.266-7.7-10.765-2.475-4.79-3.498-8.557-3.93-14.262-.16-2.69-.537-5.382-.753-6.082-.55-1.45-1.89-1.56-2.64-.16z"/>
<path fill="#CA0000" d="M0 466.67h286V700H0z"/>
<path fill="#0092C8" d="M286.06 0H1050v700H286.06z"/>
<g id="v">
<g stroke="#650000" fill="none">
<path d="M150.87 666.4c-.837 1.353 1.46 7.356 5.01 7.204-2.316-3.712-2.072-8.03-2.072-8.03l-2.94.83z" fill="url(#a)"/>
<path d="M142.06 659.9c-1.28.19-4.37 8.08.556 10.896.157-4.9 2.476-7.807 2.476-7.807l-2.546-2.2-.48-.9z" fill="url(#b)"/>
<path d="M141.45 655.19c-1.244-1.307-6.62 2.49-6.4 8.157 3.305-3.778 7.217-3.483 7.217-3.483l-.82-4.67z" fill="url(#c)"/>
<path d="M147.67 650.61c-.088-1.777-4.765-3.83-7.22-.278 3.53.402 5.543 3.718 5.543 3.718l1.68-3.44z" fill="url(#d)"/>
<path d="M241.99 667.14c-.086 1.628.33 2.195 1.13 3.11.8.913 1.706 3.63 1.706 3.63s2.562-7.155 1.92-8.115c-.65-.96-4.6 1.33-4.76 1.37z" fill="url(#e)"/>
<path d="M228.44 664.18c-1.275-.245-3.687 5.67-1.68 9.726 1.01-4.7 3.767-6.747 3.767-6.747l-2.09-2.98z" fill="url(#f)"/>
<path d="M222.22 662.4c-.993-1.133-5.286 2.157-5.11 7.068 2.638-3.273 5.76-3.017 5.76-3.017l-.65-4.05z" fill="url(#g)"/>
<path d="M225.48 654.81c-.684-1.51-5.507-.266-6.46 4.47 3.25-1.95 6.153-.342 6.153-.342l.31-4.13z" fill="url(#h)"/>
<path d="M65.17 651.49c.464-1.662-3.145-6.263-6.457-4.483 3.076 2.433 3.885 6.616 3.885 6.616l2.572-2.13z" fill="url(#i)"/>
<path d="M51.34 661.88c-1.203-1.5-6.256 2.768-5.954 9.22 3.08-4.268 6.806-3.894 6.806-3.894l-.85-5.33z" fill="url(#j)"/>
<path d="M51.78 652.75c-.517-2.124-6.432-1.834-8.454 3.993 4.197-1.627 7.31 1.228 7.31 1.228l1.145-5.22z" fill="url(#k)"/>
<path d="M57.806 669.98c-.324 1.57 0 2.242.648 3.363s1.134 4.036 1.134 4.036 3.563-6.28 3.077-7.4c-.485-1.12-4.697 0-4.86 0z" fill="url(#l)"/>
<path d="M43.127 597.79c0-2.242-5.67-4.586-8.933.04 4.352.316 6.642 4.4 6.642 4.4l2.29-4.44z" fill="url(#m)"/>
<path d="M37.24 606.72c-1.203-1.5-6.255 2.768-5.954 9.22 3.082-4.268 6.807-3.894 6.807-3.894l-.852-5.33z" fill="url(#n)"/>
<path d="M57.825 597.02c.548-2.11-4.216-6.97-8.416-4.146 4.01 2.336 5.17 7.25 5.17 7.25l3.24-3.1z" fill="url(#o)"/>
<path d="M64.55 604.72c.946-1.21-.83-7.54-4.37-7.96 1.988 4.06 1.383 8.308 1.383 8.308l2.988-.35z" fill="url(#p)"/>
<path d="M83.455 612.15c-3.56-4.143-.042-11.7 3.15-8.476-1.672-3.092 1.062-5.54 2.302-3.99-.577-2.518 2.045-4.186 3.33-1.863-.46-2.8 3.427-4.45 4.435-1.38.068-2.76 3.868-4.93 4.707-.89.74-3.11 4.97-3.51 5.32.9 1.23-2.57 4.41-2.38 4.59 1.36 1.37-1.75 4.92.87 4.31 3.98 2.19-.47 4.87 3.96 2.19 7.23 4.74-2.53 5.86 5.67 2.98 9.39 1.49.91 1.62.11 2.93.79s3.7 1.81 5.88 2.29c1.97 0 9.2-.23 10.67-.45 1.48-.23 3.5-1 5.91-1.82 2.53-.82 6.18-.85 9.52-1.66 2.64-.29 76.87 1.21 79 .98 2.14-.23 5.25-2.28 5.09-4.78-.17-2.5-2.63-4.31-5.09-4.54-2.46-.22-15.11-.22-17.41.23-2.3.46-5.58 1.6-7.23 3.19-.79.51-2.1 2.44-3.2 3.7-1.04.87-3.96 1-3.96-.13 0-.74-.25.15-.96.43-.93.59-5.14.75-4.95 0 .33-.84-.02-1.1-1.13-.22-.83.68-6.63.93-7.7.26.64-1.07.64-1.01-1.1-.13-1.11.49-5.69.87-6.01-.07-.05-.73-.57-.37-1.21-.16-5.19 1.36-5.69-.21-4.87-.9.82-.68 2.06-4.58.75-4.36s-9.53 1.82-12.32 2.28c-2.79.46-23 0-25.79-.22-2.79-.23-5.91-2.86-6.08-6.59-.29-6 4.6-7.5 7.56-8.41 2.96-.91 10.35-2.27 13.3-2.27s11.39 1.05 13.69.14c2.29-.91 9.28-3.45 11.25-3.64 2.91-.27 11.25.72 15.22 5.5-2.07.94-3.04 1.5-.69.65 2.13-.45 11.3-2.36 13.43-2.86 7.39-.32 5.45.82 1.83 1.73-1.21 3.85-12.07 9.21-15.52 9.9-3.45.68-10.77.18-12.41-.11-1.65-.12-9.42-.51-12.25-2.34-4.57-3.1-13.02-5.14-16.72-5.07-3.47.07-13.35 1.11-13.31 4.55-.05 6.04 9.2 6.37 13.14 6.14 3.94-.23 13.8-.68 16.59-1.82s8.83-1.42 12.11-1.42 8.08.73 9.56.5c1.47-.22 4.92-.28 6.57-1.41s5.21-2.33 8.82-2.33 30.43-1.03 34.04-.81c5.23-.04 8.93 5.68 8.99 10.54.03 2.28-1.08 5.64-2.03 6.16 1.63.15 5.69.61 7.03.89 2.51.5 6.59 3.27 7.06 5.8-1.91-1.16-5-2.91-7.78-3.1-.54.01-59.07-.09-63.67-.07 12.51 1.48 22.07 11.12 24.45 16.63 2.13 3.41 7.39 2.05 9.36 1.59 1.97-.45 4.27-2.5 5.91-4.09 1.64-1.59 4.21-1.99 5.37-1.59 2.55-.23 3 2.5 2.02 3.87-.99 1.36.16.8 2.79.8s4.94.98 6.49 3.04c-1.48 1.36-2.22.24-.09.47 2.13.23 4.71 4.14 3.12 5.25-1.4.69-1.81.44 0 .66 2.69.23 3.42 1.97 3.77 5.07-2.28.42-1.15-.3 0 .84s2.83 6.17-1.31 6.37c-1.48-.68-1.45-.81-1.14.74.3 1.59-.5 5.41-2.8 5.41-3.18.62-6.08-1.13-6.4-3.18-.33-2.05-.29 3.95-4.8 4.89-4.27.95-6.53-1.48-6.86-2.62-.33-1.14-.17-.23-1.81-.45-1.64-.23-3.71-.25-4.6-2.95 0-1.59.32-3.69 3.25-3.97 1.31-.23 1.68-1.94.69-2.17-.98-.22-.16-3.63 1.97-2.72 2.13.91 7.06 1.14 8.21 2.27 1.15 1.14 1.48-.91-.33-2.73-1.81-1.82-12.81-5.46-15.77-4.09-6.89 3.47-18.4 2.95-20.37 2.5-1.97-.45-7.67.79-10.35-7.5-2.18-8.47-10.45-12.65-14.23-13.11-18.63-1.75-17.62-.4-5.53.17-.09 1.58-.53 4.82 1.43 5.29 3.28-.45 10.12-1.9 11.76-.54 1.64 1.37 3.28 2.5 2.95 5.69-.33 3.18.17 2.28-1.31 3.64-1.48 1.36-.82 4.09 1.48 5 2.3.91 3.29 2.05 4.76 3.41s-.66 4.09-1.97 3.19c-1.32-.91-1.32-.91-1.48.91-.17 1.82-1.8 5.26-4.58 5.51-.58-.22-.42-1.16-.36-1.87.16-1.59-.56 1.98-1.42 2.97-.55.67-5.2 1.98-6.51 1.3.59-1.42.25-.84-.9-.16-1.12.45-7.17 1.29-4.48-1.6.7-1.05-.96 1.32-1.88 1.73-.77.48-4.36.78-4.36-.59-1.14 1-3.85 1-4.27.23-.82-.91-.9.68-2.38.91-1.48.23-4.69-.23-4.85-2.05s.33-.68-1.48-.45c-4.4 2.92-6.57-1.14-6.57-2.5s-.16-2.96.33-3.86c.49-.91-3.06-1.18-1.97-2.97 1.22-2.19 2.51-3.8 4.93-3.39 1.15.23.99-.45.5-1.36-.5-.91 1.31-1.36 3.45-.45 2.13.91 3.61 3.18 4.27 5.23s5.75.45 7.88.68 2.3-3.41.98-4.55c-1.31-1.14-4.93-5.23-6.4-6.6s-.49-6.14.82-7.27c7.65-5.17 3.45-6.82.66-6.36-2.8.45-9.97 3.33-12.27 5.83-2.3 2.5-20.16 14.76-21.81 16.12-1.65 1.366-4.03 1.7-5.02.106-.99-1.59-1.65-.457-1.48 1.82 1.3 8.59-6.41 11.32-7.76 11.213-.94-.1-2.29-.62-3.26-1.43-.96 4.8-5.2 5.28-9.03 4.8-.06-.57.71-1.63.29-1.22-1.26 1.65-5.15 1.47-8.49 1.22-.22-1 1.15-2.22.49-1.54-1.12 2.11-3.05 1.73-6.18 1.51-.03-.44 1.45-1.93.76-1.04-1.37 1.5-4.216 1.03-6.427 1.064-.26-.33 1.14-2.68-.14-1.13-1.23 1.33-3.83 1.55-6.32 1.19-.44-1.11.52-1.12.78-1.83.66-1.13-.32 0-1.146 0-.82 0-1.97.23-2.46-.91-.5-1.13-.21 1.14-.69 1.76-.48.54-1.02 1.8-2.66 2.26-1.64.456-5.92.91-6.57-1.14-.89-.94-1.32-2.953-.66-4.09s-3.13 2.19-4.76 2.5c-4.81.93-5.42-6.6-3.29-7.28 2.13-.69 1.8-1.82.65-2.73-1.15-.91-1.803-4.55-.33-5.69 1.48-1.133 4.9-1.77 7.067-.45 1.27.87 3.98 3.85 3.45 1.59-.36-1.394.57-3.17 1.62-3.934.91-.84 3.71-1.05 4.46.75 1.73 4.19 2.95 5.99 5.09 5.91 4.55-1.24 10.696-2.65 12.5-2.65 2.316-.55 14.59-1.75 14.59-2.89-7.36 2.55-10.34-.75-11.16-.52-.82.23-2.84-.74-2.84-1.37 0-1.36 1.85-1.2-.78-.744-1.57-.13-2.97-.2-4.3-1.84-.21-.84 1.74-3.725 2.45-6.15-1.69-.46-5.44 2.6-6.67 5.29-.86-1.03-1.21-.09-4.29.66-1.45.64-3.81.41-5.13-.27-1.31-.685-6.46-4.586-3.97-5.09-.66-.32-1.41-.51-1.91-.644-1.8-.77-3.51-2.27-2.99-2.68-.45-.68.53-.68-.2-.81-.98-.23-3.41-2-2.79-2.68-.62-.41-2.1-1.05-2.72-1.37-1.15-.68-2.3-3.05-2.466-4.19-1.06.1-3.32-1.9-2.3-2.5-1.72-1.28-3.19-3.39-2.04-4.072-1.01-.79-1.71-2.24-1.01-1.7-1.05-1.28-.72-2.64.1-2.64s.49-3.633-.99-3.633-3.85 1.15-5.58 0c-1.42-1.09-2.63-5.91-1.31-7.96 1.31-2.04 3.94-4.32 5.25-4.09 1.31.23.66.69.33-1.36s1.85-3.59 3.28-4.09c1.735-.79 5.09-.23 6.08.68.984.91 1.31.91 1.31-.68 0-1.12 1.27-1.7 2.4-1.99 1.88-.45 3.35.09 4 .85 1.02 1.46 1.64 3.18.33 4.55-1.31 1.37-.17.21 1.96-.24 1.38-.46 3.86.13 4.28 1.61.57 1.59.99 4.32-.49 5.68s-3.61 4.78-2.46 5.91 4.76 6.14 5.587 6.82c.82.69 1.804 2.28 3.12 2.05s2.79-.45 3.94-.68c4.56-.914 6.62-1.39.76-1.204 1.314-1.86 4.07-2.41 5.263-2.74-1.01-1.57 2.89-4.92 2.89-5.37z" fill="#FFCD00"/>
<path stroke-width="1.081" d="M83.464 630.6c-3.148-.496-11.112 6.404-8.543 14.985"/>
<path stroke="url(#q)" stroke-width="1.067" d="M83.943 622.91c-4.25 26.888 21.825 16.473 22.004 7.416"/>
<path stroke-width=".992" d="M104.45 634.21c.348 3.532.553 13.4-3.097 15.923s-8.22 2.82-11.787 1.61"/>
<path d="M96.373 639.68c-.36 3.473-3.84 12.12-10.626 10.933m-44.24-48.133c3.547.35 5.32 3.157 6.08 5.613a96.94 96.94 0 0 0 1.268 3.858m-4.325 10.51c1.52.7 4.307 0 4.307 0"/>
<path stroke-width=".909" d="M46.01 626.24c3.356 1.052 6.712-.702 6.712-.702"/>
<path stroke="url(#r)" stroke-width="1.017" d="M53.507 634.53c9.17 0 13.064-12.936 13.064-12.936" stroke-opacity=".261"/>
<path stroke-width="1.232" d="M72.167 628.44c-2.534 6.665-2.28 6.665-5.574 8.068l-3.295 1.404" stroke-opacity=".089"/>
<path d="M61.778 641.42c3.548-1.052 5.828-3.157 5.828-3.157m-9.628-37.343c-2.027 2.456-1.774 7.016-1.774 7.016m43.584-6.856c.507 4.56-1.52 7.016-2.788 7.016-1.267 0-2.68 1.702-1.903 4.438m9.983-12.154c-2.28 3.157-2.787 6.665-2.027 9.472.76 2.806.04 3.622.04 3.622"/>
<path stroke-width="1.244" d="M77.996 626.34c-4.055 1.088-5.706 8.508-3.546 12.498"/>
<path d="M115.24 615.81h-2.787s-1.774 3.86-4.815 2.806c-3.04-1.052-.253 0-.253 0M100.3 612.6c4.338.113 3.466 3.57.253 3.218.254 4.21-4.795 3.68-4.363.454-3.036.092-4.282-4.167.128-3.577m106.662 3.125c.893-2.72 5.003-5.195 5.003-5.195m-10.973 5.055c1.787-3.215 5.003-5.194 5.003-5.194m-13.723 5.494c2.715-1.636 3.477-2.282 4.37-3.125.96-.942 2.858-2.72 2.858-2.72"/>
<path stroke-width=".951" d="M180.72 615.87c1.99-1.04 3.528-1.65 4.86-2.635 1.67-1.173 2.826-2.76 2.826-2.76"/>
<path d="M182.35 607.28c-6.318-2.15-9.143-6.42-9.143-6.42m19.653-2.68c-4.183 1.745-12.687.99-13.044.99m-62.646 54.19c1.25-4.443 3.596-5.443 6.53-6.896 3.038-1.237 7.662-4.978 4.803-2.257s-6.984 4.453-8.413 5.442c-1.43.99-2.323 3.19-1.594 4.2"/>
<path stroke-linecap="round" d="M111.17 636.54c2.68 4.452 1.024 10.65-2.37 12.38"/>
<path d="M120.11 621.2c4.35 1.807 4.506 6.06 5.133 8.573-1.534-.71-2.648-.37-3.8-.892"/>
<path stroke-width=".913" d="M118.39 623.65c2.955 4.043 4.08 6.516 4.252 7.925.278 2.446.293 8.478-6.693 8.38.65-1.797 1.47-6.542.35-8.447"/>
<path d="M116.75 635.84c0 3.958-2.734 5.582-3.985 6.077m-6.595-23.677c.178 4.7-8.4 8.163-8.22.99"/>
<path stroke-width="1.007" d="M97.926 619.47c-.18 3.463-4.9 4.205-6.534 1.236-1.27-1.98-1.997-2.968-2.905-3.215-.907-.24-.805-3.12-.99-3.55-.11-.57-.697-2.06-.99-2.62"/>
<path stroke-width="1.052" d="M91.11 620.47c2.192 3.827 7.418 1.53 8.767 3.06 1.35 1.532-1.31 6.864-2.153 9.925-1.948 2.636-6.286 2.465-7.882.507.86-3.656.93-11.45 1.1-11.706l.168-1.79z" fill="url(#s)"/>
<path d="M51.8 598.13c.357 2.226-.18 2.72-.715 4.7s.178 5.442.178 5.442m-.406 51.948c1.787-.495 5.54 0 5.54 0m1.12 5.85c1.073-1.98 3.574-3.71 3.574-3.71m16.49 6.34c.9-1.236.9-5.194.9-5.194m5.63 5.164c1.42-1.623 1.5-5.106 1.5-5.106m3.68 5.016c1.43-2.72 1.2-5.865 1.2-5.865m6.93 6.165c.9-1.485.9-4.948.9-4.948m57.02-2.902c-3.21-.742-5.18 3.71-5.18 3.71m9.4-4.43c-.35 3.216-2.86 6.184-2.86 6.184m7.93-6.454c-.18 2.72-3.03 6.43-3.03 6.43m9.35-7.52c-.47 3.62-3.04 6.332-3.04 6.332m7.69-7.602c.18 3.216-1.43 8.163-2.5 9.152m8.04-7.782c.53 1.732 0 4.205 0 4.205M146.15 652.3c2.144.495 3.395 2.968 3.395 2.968m-7.055 3.242c1.127-3.895 5.982-1.992 6.57-.947m85.13-16.993c-1.787-.247-4.467.742-4.467.742m12.777 2.668c-2.502.99-5.36 1.237-5.36 1.237m8.57 4.473c-2.144-.247-3.753-.247-3.753-.247m7.923 5.617c-2.144-.248-5.54 0-5.54 0m3.89 6.96c-.715-1.98-2.86-2.474-2.86-2.474m-18.2 7.074c.536-2.97 4.087-5.348 6.053-5.348h1.966m-10.97-1.212c2.14-.742 5.54-.99 5.54-.99M85.21 648.39c2.145-1.732 3.832-5.298 3.832-5.298m22.308-37.972c-2.144 2.227-2.322 2.474-2.322 2.474m4.472 1.736c-2.86.247-3.014.12-3.014.12"/>
<path stroke-width="1.132" d="M103.32 607.66c2.114-.776 7.033-.123 6.962 1.68.003 2.213-1.923 2.348-7.005.254l.043-1.626v-.3z"/>
<path stroke-width=".92" d="M96.654 607.89c.263-2.63-4.872-5.223-6.123-3.757-1.52 2.425 2.8 4.586 3.95 4.586 1.07 0 .44.13.44.13"/>
<path d="M111.9 627.6c1.62 3.14 2.097 8.47.266 11.055" stroke-opacity=".3"/>
<path d="M110.6 617.74c-1.944 5.38-.324 10.314-.324 10.314M87.6 619.08c-1.618 1.345-2.914.897-2.914.897"/>
<path d="M106.07 634.78c1.62.897 3.888 6.278 3.564 8.072l-.324 1.794m-3.89-7.626c.97 2.69 2.267 6.727 1.943 8.072l-.324 1.345m-7.46-6.727c.65 2.69.32 7.175-.65 8.072l-.98.897m0-8.52c-.97 3.14-1.95 7.62-1.95 7.62" stroke-opacity=".3"/>
<path stroke-width="2.161" stroke-linecap="round" d="M83.714 620.88c-1.944 2.69-4.535 5.38-4.535 5.38" stroke-opacity=".102"/>
<path d="M82.418 631.64c-1.62 1.345-3.887 4.484-3.887 4.484m5.84-.004c-2.59-1.794-5.5 1.345-5.5 1.345" stroke-opacity=".299"/>
<path stroke-width="1.232" d="M68.243 640.92c-.648 1.794-5.507 3.14-5.507 3.14" stroke-opacity=".095"/>
<path stroke-width="1.94" stroke-linecap="round" d="M108.04 608.27l-.324 2.028"/>
<path stroke-width="1.574" stroke-linecap="round" d="M94.71 604.61c-.38 1.526-1.055 3.094-1.055 3.094"/>
</g>
<path stroke="#650000" d="M79.487 620.44c-5.967 3.142-6.986 5.92-6.056 12.536" fill="none"/>
<path stroke="#600" stroke-width="1.197" d="M120.03 611.39c-1.71.776-1.456 4.827-1.456 4.827" fill="none"/>
<path stroke="#600" stroke-width="1.05" d="M83.695 605.75c1.824 1.288 1.094 5.152 1.094 5.152" fill="none"/>
<path fill-opacity=".599" d="M71.694 667.96c-.133 3.857-3.762 2.836-5.307 2.847l1.34-2.518c.19-.01.627.24 1.15-.15l2.817-.18z" fill="#390000"/>
<path fill-opacity=".1" d="M103.56 634.84c.415 1.852.383 3.086.235 5.094-.474 3.214-.618 3.316-1.93 5.97-.465.74-.236-.05-1.458 2.433l-4.274-2.948c.23.93 0-.69.207-1.01.66-1.29.623-1.49.84-3.07.09-1.44 1.213-3.85 1.86-1.5l4.517-4.97zm-15.147 12.07c.977.282 3.384-.536 4.432-.76 1.676-.566.135-.857 1.503-2.14.38-.444.724-1.992 1.06-2.48l-1.817-.12c-.23 1.557-1.69.293-1.86.49-.66.643-.59.238-1.41.503-.75.145-1.57-.112-.33.35l-1.56 4.15zm94.417-9.59c-.55 3.09-1.313 4.69-2.676 7.156-2.492 3.596-4.814 5.54-8.056 7.148-1.032.304-2.036.5-3.086.61l-.483-10.393c.46-.03.89-.1 1.34-.22 1.6-.74 2.62-1.69 3.83-3.48.95-1.79 1.38-4.42.84-.33l8.27-.48z" fill="#390000"/>
<path stroke="url(#t)" stroke-width="1.405" d="M57.086 637.57c7.016-1.663 10.924-11.018 10.924-11.018" stroke-opacity=".261" fill="none"/>
<path stroke="url(#u)" stroke-width="1.405" d="M48.897 629.22c7.112.42 12.355-7.585 12.355-7.585" stroke-opacity=".261" fill="none"/>
<path stroke="#700" stroke-width="2.556" d="M218.62 649.93l.35-.966c-.77 2.128-.576 1.145 2.094-.967h5.237c2.18.03 3.27.48 5.24.967 1.21.666 2.31 1.67 3.49 2.416" stroke-opacity=".102" fill="none"/>
<path fill-opacity=".1" d="M82.04 642.6c-.223 1.066 2.53 2.533 4.14 2.604 1.687-1.048 1.746-1.45 2.91-3.203.298-.58-.06-.19.178-.81l-3.58-3.43c-.453.28-.735.53-.863.79-.555.88-.543 1.37-1.378 1.87-.786.35-.87.16-.273.47l-.605.99-.53.73zm31.45-.17c1.003-1.1 1.41-2.066 1.996-3.706.735-2.805.906-5.123.738-8.126a31.62 31.62 0 0 0-.497-2.665l-3.92 1.79c.096.386.173.76.234 1.156.11 1.47 0 2.51-.38 3.88-.43 1.16-1.29 2.07.08.76l1.75 6.91z" fill="#390000"/>
<path d="M116.17 624.21c1.286.152 2.005.66 3.133 1.614 1.7 1.84 2.727 3.71 3.72 6.44.234.893.422 1.772.58 2.702l-4.07 1.574a13.422 13.422 0 0 0-.235-1.185c-.47-1.356-.96-2.17-1.802-3.053-.816-.66-1.905-.756-.224-.723l-1.1-7.37z" fill-opacity=".1"/>
<path fill-opacity=".1" d="M109.89 647.75c1.082-1.773 1.972-.74 2.297-2.94.182-3.632-.288-6.422-1.445-9.85a29.86 29.86 0 0 0-1.52-2.87l-4.996 3.99c.252.404.476.802.684 1.237.598 1.67.762 2.94.65 4.72-.257 1.567.034 2.065 1.223 2.56l3.11 3.15z" fill="#390000"/>
<path stroke="#700" stroke-width="2.556" d="M243.38 656.53c2.174.03 3.266.48 5.237.967 1.204.666 2.313 1.67 3.492 2.416m-18.97-17.293c2.13-.555 3.27-.408 5.27-.46 1.27.33 2.5 1.016 3.76 1.43" stroke-opacity=".102" fill="none"/>
<path stroke="#700" stroke-width="1.926" d="M199.25 648.44c-1.41.043-2.126-.315-3.412-.68-.79-.543-1.522-1.385-2.297-2" stroke-opacity=".102" fill="none"/>
<path stroke="#700" stroke-width="2.119" d="M212.89 622.21c-7.002-.215-12.234-.332-16.93-.463-4.53-.114-12.034-.35-16.95-.48" stroke-opacity=".102" fill="none"/>
<path stroke="#700" stroke-width="1.926" d="M156.54 628.01c1.296-.773 2.056-.812 3.347-1.143.88.094 1.786.494 2.67.662" stroke-opacity=".102" fill="none"/>
<path fill-opacity=".1" d="M48.576 618.56c-.58 1.234-1.02 1.75-1.75 2.5-1.21.96-1.82.87-2.975.755-.33-.13-.32-2.84-.64-3.06l.63-1.846c.14.1.28.18.42.24.57.08.99-.08 1.59-.57.52-.56 1.01-1.61.29.07l2.46 1.9z" fill="#390000"/>
<path stroke="#650000" stroke-width="1.052" d="M90.752 619.32c-.2 4.915-2.863 7.536-2.863 7.536" fill="none"/>
<path stroke="#650000" stroke-width="1.161" d="M88.065 617.04c-1.37 5.356.385 9.66.385 9.66" fill="none"/>
<path stroke="#650000" stroke-width="1.047" d="M101.63 623.31c-.325 4.862 2.033 7.888 2.033 7.888" fill="none"/>
<path stroke="#650000" stroke-width="1.156" d="M104.54 621.52c.787 5.494-1.412 9.425-1.412 9.425" fill="none"/>
<path fill-opacity=".1" d="M85.286 665.35c-.185 3.943-5.24 2.9-7.39 2.91l.603-1.035c.26 0 2.13-1.288 2.86-1.69l3.92-.18z" fill="#390000"/>
<path fill-opacity=".1" d="M90.18 663.57c-.16 5.564-4.47 4.09-6.305 4.107l.516-1.46c.23-.004 1.83-1.82 2.45-2.386l3.35-.27zm7.882.25c-.216 8.267-6.138 6.08-8.66 6.102l.71-2.17c.31-.005 2.5-2.703 3.356-3.545l4.594-.39z" fill="#390000"/>
<path fill-opacity=".1" d="M105.86 663.69c-.216 8.268-6.14 6.08-8.66 6.103l.71-2.172c.31 0 2.5-2.7 3.356-3.54l4.59-.39zm-28.216 0c-.185 8.268-5.24 6.08-7.39 6.103l.603-2.172c.266 0 2.136-2.7 2.866-3.54l3.92-.39z" fill="#390000"/>
<path fill-opacity=".599" d="M81.433 641.12c-.697 2.097-1.845 3.72-1.663 5.022l-1.075-.488c.843.3-.958-3.39-1.393-2.696l1.008-.735.234-.404.502-.26 2.387-.44z" fill="#390000"/>
<path stroke="#650000" d="M120.78 618.42c.53.265 1.89.022 4.39 1.07-1.034 1.524-3.7 2.41-4.74 1.964" fill="none"/>
<path stroke="#700" stroke-width="2.066" d="M182.83 653.6c-1.59.406-2.453.238-3.963.213-.977-.33-1.935-.97-2.906-1.374" stroke-opacity=".102" fill="none"/>
<path stroke="#700" stroke-width="3.17" d="M167.22 659.18c2.984.806 4.688.78 7.61 1.052 1.958-.2 3.944-.77 5.905-1.06" stroke-opacity=".102" fill="none"/>
<path stroke="#650000" stroke-linecap="round" d="M126.98 651.13c-3.075 1.05-4.516 1.122-5.52.194" fill="none"/>
<path stroke="#650000" stroke-width=".965" stroke-linecap="round" d="M130.41 648.55c-2.697 1.05-4.234 1.41-5.573.553" fill="none"/>
<path stroke="#650000" stroke-width=".787" stroke-linecap="round" d="M134.97 645.39c-1.794 1.05-2.815 1.41-3.706.553" fill="none"/>
<path stroke="#650000" stroke-width=".871" stroke-linecap="round" d="M138.14 642.95c-2.196 1.05-3.446 1.41-4.536.553" fill="none"/>
<path stroke="#650000" d="M51.537 598.13c.357 2.226-.18 2.72-.715 4.7s.18 5.442.18 5.442m7.328-7.352c-2.03 2.456-1.775 7.016-1.775 7.016" fill="none"/>
<path stroke="#650000" stroke-width="1.011" d="M41.77 602c3.63.35 5.447 3.157 6.226 5.613a95.386 95.386 0 0 0 1.297 3.858" fill="none"/>
</g>
<use xlink:href="#v" transform="translate(0 -98.596)"/>
<path stroke="#000" stroke-width="1.151" d="M694.31 57.143c-2.18 2.18-2.906 4.357-2.47 7.262.58 4.212.58 4.212-5.23 3.05-11.04-1.888-31.67-.872-44.453 2.323-17.288 4.357-25.568 4.067-45.616-2.033-2.32-.726-2.17 0 1.46 6.68 4.36 7.99 6.39 9.586 16.56 13.217l6.54 2.324-11.76 3.05c-6.39 1.743-12.78 3.195-14.09 3.195-4.79 0-2.47 2.62 4.36 4.94 9.88 3.34 20.34 2.91 41.7-2.18 15.11-3.48 21.5-4.35 30.94-3.92 6.54.15 12.35 1.02 12.93 1.6.73.58-2.76 4.65-7.41 9.01-7.12 6.39-9.73 7.85-13.94 7.99-2.9 0-7.41.44-9.88.87-4.35.87-4.5 1.16-4.5 9.3v8.43l-33.7 31.66c-18.59 17.43-36.03 32.83-38.64 34.42-2.61 1.6-5.23 3.93-5.95 5.23-1.6 2.91.29 8.14 3.34 9.3 1.89.73.73 3.2-5.81 12.2-9.44 13.07-16.7 27.02-22.37 42.56l-4.07 10.9-2.32-7.99c-3.78-12.78-6.68-31.37-6.68-43.57 0-11.18 0-11.18 7.56-21.93 9.15-13.07 30.65-35.43 42.56-44.44 4.8-3.63 12.93-8.57 18.16-11.04 11.63-5.37 14.53-7.84 14.53-11.91 0-4.79-3.49-7.11-9.01-5.95-3.19.58-16.12-1.45-38.2-5.95-18.3-3.63-33.56-6.82-33.7-6.82 0-.14 1.46-6.39 3.49-13.94 2.33-8.86 4.79-15.1 7.12-17.57 4.36-4.65 4.5-10.02.14-14.09-7.26-6.82-18.15-.87-16.56 9.01l.73 4.94-9.59 1.02c-5.23.58-17.72 3.2-27.6 5.96-20.04 5.52-35.73 6.39-46.05 2.76-3.19-1.16-5.95-2.18-6.1-2.18-.29 0-.44 1.6-.44 3.63 0 6.25 3.92 11.76 10.32 14.96l6.1 3.05-4.06 1.01c-2.18.58-8.71.58-14.67.14-5.95-.44-10.75-.44-10.75 0 0 3.05 7.12 11.18 11.77 13.51 10.17 5.23 31.38 3.34 54.92-4.94 11.77-4.06 27.02-5.23 26-2.03-.58 1.74-21.06 17.14-56.22 42.26-17.72 12.64-20.48 16.12-17.72 22.22 1.45 3.34 1.02 4.65-3.34 11.91-9.44 15.98-18.31 43.43-18.31 57.37 0 6.97-.43 7.56-10.02 17.72-19.61 20.63-57.96 68.7-66.24 83.08l-2.61 4.5-2.76-3.49c-5.52-6.97-17.14-3.05-17.14 5.81 0 6.1 3.78 9.59 10.61 9.59 3.78 0 11.33 2.9 24.41 9.58l19.03 9.44-3.63 3.93c-6.98 7.55-8.43 13.5-4.8 18.59 1.74 2.32 3.92 2.76 12.06 2.76 8.72 0 11.62.72 21.65 5.66 9.88 4.94 13.66 7.99 28.19 23.09 44.89 46.91 55.93 56.64 82.8 73.2 15.55 9.58 43.87 23.52 57.82 28.61 45.33 16.26 95.3 19.31 142.51 8.71 21.79-4.94 37.77-10.6 58.69-21.06 11.63-5.95 17.29-7.99 17.58-6.82.44 1.02 1.75 5.23 3.05 9.3 2.47 7.99 9.74 20.19 12.79 21.35 1.02.29 24.26-2.9 51.86-7.11s50.55-7.7 51.14-7.84c2.76-.14 6.1-15.97 6.1-28.32 0-12.63-.29-13.5-6.39-25.41-7.84-15.11-19.76-27.6-31.23-32.83l-8.13-3.77 3.49-4.5c16.13-21.35 35.16-51.99 42.57-68.4l4.21-9.44 7.55-.15c4.07 0 7.85-.58 8.28-1.3.44-.58-.14-6.68-1.3-13.36-1.16-6.68-2.18-12.34-2.18-12.63 0-.14 2.62-.29 5.81-.29h5.82v-33l25.08-47.8c13.66-26.29 26.44-49.38 28.33-51.12 4.5-4.5 3.92-11.33-1.45-15.25-3.34-2.47-4.5-2.61-8.13-1.16-4.5 1.89-7.99 7.55-6.68 10.75.43 1.16-.73 4.36-2.33 7.26-2.61 4.5-3.77 5.08-6.97 4.5-2.18-.44-18.74-3.2-36.9-6.25L904 208.51l-16.13 29.048c-8.86 15.98-15.98 29.195-15.832 29.486.29.147 17.14 1.454 37.48 2.76s37.338 2.76 37.63 3.05c.29.146-4.65 9.296-10.896 20.19l-11.33 19.61H891.5c-29.053 0-33.41.29-35.01 2.324-1.45 2.03-2.18-.146-4.94-12.636-4.5-21.06-8.86-48.8-8.86-56.06 0-7.12 6.394-21.786 18.016-41.54 17.29-29.335 41.987-57.8 51.866-59.69 8.424-1.6 14.38-6.1 14.38-10.89 0-4.94-2.327-7.26-8.138-7.99-3.93-.436-55.21-20.623-57.53-22.656-1.45-1.16 5.81-26.14 8.42-29.19 7.7-8.712-7.114-21.202-15.395-12.924-3.2 3.193-3.78 10.02-1.02 12.924 1.45 1.456-.15 1.6-7.7.58-14.67-1.74-28.62-1.012-41.69 2.328-14.53 3.775-25.86 3.92-38.64.29-5.52-1.45-9.74-2.03-9.74-1.307 0 3.34 6.24 12.347 10.6 15.25 2.62 1.745 7.26 3.78 10.46 4.36l5.65 1.3-8.72 2.47c-4.65 1.307-11.48 3.196-15.11 4.067l-6.54 1.746 5.81 2.613c8.72 3.92 23.97 3.488 42.57-1.16 10.6-2.614 19.75-3.776 28.91-3.92 11.47-.146 16.99.87 14.81 2.468-19.47 15.4-86.44 66.09-93.99 71.17-11.62 7.85-13.37 10.17-13.37 17 0 3.78.73 4.94 4.21 6.25l4.21 1.45-5.09 7.99c-2.91 4.36-7.41 12.93-10.17 19.03l-5.09 11.03-2.61-5.08c-2.47-5.09-4.94-14.67-6.39-25.56-.73-5.09 0-7.41 6.1-17.87 8.57-14.96 22.37-33.55 30.22-40.81 3.34-3.05 6.53-6.39 7.12-7.26 1.16-2.04-3.2-7.26-6.11-7.26-2.18 0-54.19-36.02-54.19-37.47 0-4.07 7.84-24.98 10.17-27.16 1.59-1.45 2.9-4.5 2.9-6.83-.05-8.69-11.23-13.19-17.62-6.8zm29.78 65.207c10.75 7.552 19.612 14.088 19.757 14.523 0 1.017-38.062 14.67-38.788 13.943-.29-.29 1.74-5.23 4.5-10.893 2.9-5.664 5.23-11.183 5.23-12.345 0-2.178-13.95-9.585-18.02-9.585-3.49 0-4.07-2.47-2.18-8.714l1.74-5.81 4.06 2.61c2.18 1.31 12.78 8.72 23.68 16.27zm182.46 5.81c0 .872-58.4 19.026-59.127 18.445-.29-.29 8.136-30.063 10.46-36.89.436-1.16 8.57 1.598 24.55 7.99 13.23 5.38 24.12 10.03 24.12 10.46zm-225.9-16.12c-.436.872-1.598 1.598-2.47 1.598-.87 0-.87-.87.29-2.178 2.04-2.47 3.78-1.89 2.18.58zm155.88 20.04c-3.196 10.31-6.392 19.17-6.973 19.752-.872 1.016-20.92 7.552-53.75 17.573-10.606 3.195-11.913 3.34-8.717 1.016 2.033-1.59 19.32-14.95 38.497-29.77 19.176-14.67 35.3-26.87 35.737-26.87.58-.14-1.6 8.14-4.79 18.3zm-275.73-3.05c30.507 6.245 31.088 6.39 25.423 7.988-2.325.726-16.997 4.792-32.396 9.15l-28.183 7.842 1.017-3.92c3.2-13.363 6.98-26.29 7.7-26.29.58 0 12.35 2.33 26.44 5.23zm-44.31 6.69a758.69 758.69 0 0 1-3.632 12.2l-2.905 10.456-11.332 3.05c-6.1 1.597-15.68 4.357-21.21 5.955-5.52 1.46-9.58 2.47-9.29 2.04 1.16-1.01 48.23-35.43 48.67-35.43.15-.01.15.86-.29 1.74zm137.14 6.53c1.744-.436 3.05-.436 3.05-.145 0 2.324-26.874 36.308-29.49 37.325-1.742.726-10.314 3.776-18.885 6.97l-15.834 5.665 12.06-11.328c6.69-6.1 19.32-17.864 28.04-26.142 10.46-9.876 16.27-14.378 17-13.216.58 1.02 2.33 1.31 4.07.87zm13.07 11.91l-4.358 13.07-11.04 3.632c-6.102 2.033-11.187 3.63-11.332 3.34-.29-.145 5.084-7.697 11.767-16.7 9.733-12.927 12.93-16.268 15.69-16.268h3.63l-4.35 12.93zm32.55-4.36l4.068 2.614-12.494 4.357c-6.828 2.47-12.203 3.64-11.912 2.76.29-.87 1.743-5.08 3.05-9.15l2.47-7.69 5.375 2.33c2.91 1.16 7.12 3.34 9.45 4.79zm19.17 88.3l3.777 7.698-3.632 11.91c-4.358 14.813-7.408 29.48-9.733 47.49-1.453 11.62-2.615 14.96-7.554 23.092-3.05 5.23-6.392 11.33-7.118 13.652-2.615 7.407-4.068 2.324-4.94-17.718-1.017-21.785.872-43.86 5.375-64.63 3.05-13.796 10.315-36.308 14.092-43.57l2.18-4.356 1.888 9.295c1.17 5.23 3.64 12.92 5.67 17.13zm-189.72.15c.145 8.423 3.777 25.125 8.135 38.05 2.906 8.57 3.34 11.62 2.18 16.557-.727 3.196-2.035 13.07-2.906 21.64-2.76 27.74 1.74 54.172 13.65 78.717 3.63 7.116 6.83 14.668 7.41 16.556l1.01 3.486-4.07-3.05c-12.06-8.57-24.7-25.416-31.67-42.118-4.36-10.31-4.65-11.91-1.6-11.91 1.89 0 2.18-3.05 2.18-18.153V319.87h-4.36c-3.78 0-4.5-.725-6.1-6.244-1.16-3.63-1.89-13.943-1.89-25.707 0-21.5 2.03-30.5 11.33-51.27 4.94-11.05 6.54-10.61 6.69 1.59zm311.02 26.72c1.89 13.36 7.554 42.117 10.75 54.317 1.89 7.407 1.89 8.714-.726 16.266-1.598 4.502-2.47 9.005-2.18 9.876.437 1.01-2.47 5.22-6.246 9.44-6.828 7.55-6.973 7.69-8.716 4.5-6.973-13.22-9.588-46.77-5.23-69.57 1.888-10.02 9.297-36.75 10.17-36.75.3 0 1.17 5.38 2.18 11.91zm-413.3 26.87l2.034 8.86-12.05 44.15-12.203 44.005-4.64-.436c-6.1-.73-49.39-20.63-49.39-22.81 0-5.52 41.41-58.82 64.65-83.37l8.72-9.15.44 4.79c.29 2.77 1.46 9.01 2.47 13.95zm45.76-1.45c0 .727-1.89 7.407-4.068 14.96l-4.068 13.797-9.878.435c-5.52.29-10.605-.145-11.477-1.016-2.04-2.034.14-12.49 3.77-17.864 3.77-5.664 14.23-11.328 20.92-11.328 2.63 0 4.8.44 4.8 1.02zm31.38 20.48c2.76 3.63 4.94 7.117 4.94 7.698 0 .726-5.957 1.307-13.22 1.307h-13.22l.87-4.067c.582-2.178 2.035-7.407 3.197-11.618l2.18-7.553 5.083 3.922c2.91 2.17 7.41 6.82 10.17 10.31zm-67.98 7.98c2.615 6.1 3.196 10.457 3.196 22.51v14.815h9.443l.29 12.78c.14 6.972 1.59 17.865 3.19 24.11 2.9 12.344 2.32 18.3-2.33 18.3-1.31 0-9.01-3.922-17.14-8.715-7.99-4.793-16.57-9.295-19.04-10.166l-4.36-1.598 10.89-39.794c5.95-21.93 11.33-39.94 11.76-39.94.57.01 2.31 3.49 4.06 7.7zm275.72 49.38c3.34 16.847 9.443 32.677 18.885 49.234 4.504 7.842 7.99 14.523 7.7 14.814-1.453 1.307-16.27 3.63-17.578 2.904-2.034-1.307-10.17-18.88-15.69-33.984-6.247-16.993-11.912-40.52-10.895-44.878.436-2.033 3.632-9.294 6.973-16.12l5.956-12.345 1.17 14.233c.58 7.84 2.03 19.61 3.48 26.14zm108.81-4.79c5.666 2.905 7.264 4.357 6.973 6.826-.29 2.614.436 3.195 4.358 3.63 7.7.727 6.4 4.213-5.66 14.67-6.24 5.373-11.91 9.73-12.78 9.73-3.34 0-17.58-17.283-22.22-26.868l-4.79-10.167 3.93-1.01c8.43-2.04 22.67-.59 30.22 3.19zM800.5 393.5l8.426 8.424-3.777 2.614c-5.09 3.486-38.5 19.897-39.23 19.316-.29-.29 3.34-13.36 7.84-29.047l8.42-28.61 4.94 9.44c2.76 5.23 8.71 13.22 13.36 17.86zm-49.39 9.44c-4.213 12.925-8.136 24.254-8.717 24.98-1.888 1.888-3.34-8.57-2.324-16.266 1.74-11.764 5.23-20.188 11.33-27.16 3.19-3.63 6.1-6.39 6.53-5.954.29.3-2.76 11.33-6.83 24.4zm-160.09-21.78c-.436 1.017-3.487 10.312-6.973 20.77-3.342 10.31-6.683 19.46-7.264 20.04-.58.727-3.632 0-6.828-1.596-4.794-2.47-5.956-3.922-7.554-10.312-1.74-7.116-1.74-7.697 1.89-13.942 4.65-7.843 11.48-13.217 19.18-15.105 7.84-1.89 8.27-1.89 7.55.14zm24.55 2.03c2.615.726 3.632 2.904 5.666 12.78 1.743 7.552 5.375 17.138 10.314 26.87l7.554 14.958-7.554-.872c-4.213-.436-14.237-2.324-22.227-3.92l-14.818-3.05 3.487-11.184c1.888-6.1 5.23-16.702 7.41-23.818 3.78-12.64 4.36-13.36 10.17-11.77zm32.1 12.2l15.11 7.262-6.684 7.552c-3.777 4.212-7.845 10.602-9.152 14.233-1.308 3.63-2.76 7.117-3.34 7.697-2.616 2.905-18.887-34.856-18.887-43.715 0-3.05 5.38-1.31 22.95 6.97zm30.51 16.12c15.98 9.73 37.335 25.852 34.43 26.142-.727 0-9.008.58-18.16 1.307-9.152.58-23.39.87-31.524.43l-14.818-.87.872-4.51c1.307-6.97 5.81-15.11 12.348-22.08 3.196-3.49 6.1-6.39 6.392-6.39.44 0 5.09 2.61 10.46 5.95z" fill="#FFCF00"/>
<path d="M694.42 57.298c-2.034 2.178-2.905 4.647-2.47 7.407l.582 3.92-7.41-1.016c-12.638-1.89-29.926-1.02-42.128 2.32-14.237 3.77-24.842 3.92-37.626.29-5.375-1.45-9.733-2.04-9.733-1.31 0 2.47 4.067 9.15 7.7 12.49 1.888 1.89 6.682 4.5 10.46 5.95l7.117 2.76-8.716 2.47c-4.65 1.3-10.75 2.76-13.365 3.19-7.11 1.16-6.82 2.61 1.31 5.37 10.46 3.34 17.73 2.9 40.82-2.18 15.69-3.49 22.81-4.36 31.67-3.93 6.25.14 11.92 1.01 12.64 1.74.58.58-2.76 4.65-7.55 9-6.39 5.81-9.88 7.84-13.07 7.84-2.32 0-6.83.43-9.73.87l-5.52 1.01v16.71l-33.12 31.08c-18.16 17.14-35.73 32.97-39.22 35-4.94 3.2-6.1 4.79-6.1 8.28 0 2.76 1.02 4.79 2.91 5.81 2.62 1.45 2.33 2.18-5.37 12.78-9.59 13.36-13.65 21.2-20.92 39.5l-5.37 13.8-3.05-10.17c-4.07-13.8-5.96-26.58-5.96-41.25 0-12.06 0-12.2 6.39-21.06 19.47-27.02 47.36-52.14 65.09-58.39 7.7-2.62 11.33-5.96 11.33-10.17 0-4.07-4.5-6.83-9.3-5.52-2.61.58-70.17-11.62-71.62-13.07-.29-.14 1.31-6.54 3.34-14.09 2.33-8.71 5.09-14.96 7.27-17.43 4.36-4.64 4.5-10.02.15-14.08-7.26-6.83-18.16-.58-16.41 9.29l.87 4.5-12.06 1.74c-6.53.87-18.88 3.63-27.16 6.1-18.16 5.37-34.86 6.25-44.16 2.32-7.11-3.05-6.68-3.2-6.68 1.74 0 5.52 4.94 11.47 12.21 14.81l5.81 2.61-4.07 1.01c-2.18.44-9.15.58-15.54.29-6.24-.43-11.47-.14-11.47.44 0 2.61 9.59 12.05 14.09 13.8 9.74 4.07 31.53 1.45 54.77-6.54 9.73-3.49 24.7-4.21 23.83-1.31-.44 1.02-15.69 12.78-34 26-18.3 13.36-35.01 25.85-37.19 27.88-4.5 4.06-5.23 8.57-2.03 11.47 1.75 1.6 1.6 2.47-.87 5.81-9.44 13.36-21.5 48.8-21.5 63.17 0 6.1-.73 7.26-12.78 20.48-24.26 26.58-53.46 63.18-61.89 77.56l-3.92 6.68-3.48-3.49c-4.21-4.21-9.88-4.5-13.8-.58-6.39 6.39-1.45 15.97 7.99 15.97 3.34 0 11.48 3.2 24.12 9.44l18.89 9.59-4.36 5.08c-10.46 11.76-5.81 22.66 8.57 20.19 12.93-2.18 32.84 9.88 53.32 32.39 32.54 35.58 50.55 51.56 76.7 67.68 7.27 4.5 13.8 8.57 14.53 9.29 3.05 2.47 35.45 17.58 45.47 21.21 45.33 16.27 95.45 19.32 142.51 8.71 21.79-4.94 37.77-10.6 58.69-21.06 11.62-5.95 17.29-7.99 17.58-6.83.44 1.02 1.74 5.23 3.05 9.3 2.47 7.99 9.74 20.19 12.79 21.35 1.02.29 24.26-2.91 51.86-7.12s50.56-7.7 51.14-7.85c2.76-.15 6.1-15.98 6.1-28.32 0-12.64-.29-13.51-6.39-25.27-7.84-14.96-19.32-27.16-30.94-32.82-7.55-3.63-8.13-4.21-6.54-6.68 1.02-1.45 6.11-8.42 11.19-15.4 11.04-15.4 27.75-43.14 33.56-56.21l4.36-9.59h7.99c7.56 0 7.99-.15 7.27-3.34-1.01-4.79-3.63-20.19-3.63-21.64 0-.58 2.76-1.16 6.11-1.16h5.95l-.87-15.4-.87-15.54 25.55-48.8c14.09-26.87 27.02-50.4 28.91-52.58 5.96-6.25 3.78-13.8-4.65-16.41-4.65-1.46-10.75 4.06-10.75 9.58 0 2.47-1.45 6.68-3.05 9.44-2.61 4.07-3.78 4.79-6.97 4.21-14.96-3.2-67.4-11.19-68.86-10.6-1.88.73-31.52 53.3-31.52 56.06 0 .88 2.18 1.6 4.79 1.6 2.47 0 17.72 1.02 33.7 2.18 15.98 1.16 30.8 2.18 32.98 2.18 3.78 0 3.78.14-7.84 20.33L925 312.58h-33.7c-33.703 0-33.85 0-34.575 3.2-.58 1.74-1.164 2.905-1.6 2.47-1.31-1.162-9.45-43.28-11.63-60.13l-2.18-15.98 8.57-17.57c17.43-36.02 49.97-77.267 62.46-79.59 8.427-1.46 14.53-5.96 14.53-10.75 0-4.94-2.325-7.56-6.83-7.56-3.34 0-56.654-20.92-58.98-23.1-1.45-1.45 5.376-25.27 8.427-29.63 3.05-4.505 2.76-8.716-1.16-12.35-4.36-4.065-9.88-4.065-13.805.147-3.34 3.48-4.36 10.31-1.743 11.91 3.34 2.03 1.02 3.19-3.92 2.03-9.88-2.33-32.25-1.6-44.745 1.592-14.67 3.63-28.48 3.63-39.81.14-4.94-1.46-8.86-2.47-8.86-2.18 0 .43.87 2.76 2.03 5.37 2.9 6.82 9.29 12.05 17.43 14.37l6.97 2.03-10.6 3.05c-5.96 1.74-12.64 3.63-15.11 4.06l-4.36 1.16 5.08 2.18c9.59 4.21 22.66 3.92 44.74-1.02 19.32-4.21 33.12-5.38 40.67-3.34 2.91.87-2.9 5.81-41.4 35.29-24.7 18.88-48.09 36.45-52.01 39.07-9.01 5.95-12.2 9.87-12.35 14.67 0 3.92 3.92 8.57 7.12 8.57 1.16 0 .73 1.45-1.16 4.06-3.78 5.37-16.13 29.92-16.13 32.1 0 .87-.58 1.59-1.31 1.59-2.33 0-7.12-13.65-8.87-24.98l-1.6-11.33 7.41-12.49c7.99-13.65 22.81-33.26 31.09-41.1 6.25-6.1 6.68-9.73 1.31-12.06-5.52-2.32-54.33-36.3-55.2-38.19-.87-2.61 6.25-23.38 9.59-27.74 3.78-4.94 3.92-9.87.14-13.65-3.9-3.89-10.72-3.75-14.5.32zm11.62 3.34c2.76 3.34.436 8.278-3.922 7.697-4.94-.58-7.41-4.502-4.94-7.552 2.47-2.904 6.54-3.05 8.86-.145zm159.8 4.357c2.034 2.47.727 7.407-2.324 8.57-3.196 1.16-7.845-1.6-7.845-4.65 0-5.518 6.69-8.132 10.17-3.92zm-176.07 8.278c4.94.872 9.298 2.034 9.734 2.615.29.58-.727 5.083-2.325 10.02-2.47 7.262-3.49 8.86-5.52 7.99-1.31-.582-6.25-1.89-11.05-2.906-10.03-2.324-19.76-1.307-45.04 4.502-8.72 1.888-18.6 3.63-21.79 3.486l-5.81-.145 4.36-1.453c14.38-4.793 19.61-7.407 19.61-10.02 0-2.325-1.16-2.76-6.83-2.76-7.7 0-17.29-3.776-20.78-7.988-2.04-2.47-1.89-2.614.72-1.598 6.39 2.614 26 2.76 35.59.145 17.43-4.64 30.07-5.22 49.1-1.88zM543.92 77.63c1.89 3.05-.29 7.407-3.777 8.133-2.324.436-6.973-3.34-6.973-5.518 0-2.18 4.65-5.955 6.973-5.52 1.16.29 2.91 1.598 3.78 2.905zm305.36 2.76c4.65 1.016 9.152 2.178 9.733 2.76 1.308 1.16-3.05 18.88-4.648 18.88-.436 0-4.068-1.017-7.99-2.18-10.75-3.34-23.825-2.613-45.47 2.18-10.606 2.323-22.228 4.357-25.57 4.21h-6.1l8.716-3.34c13.66-5.227 13.95-5.518 13.51-7.987-.29-1.597-2.76-2.614-8.42-3.195-7.99-.87-16.41-4.212-18.16-7.262-.72-1.016 1.02-1.16 5.96-.29 10.32 1.597 21.65.87 34-2.324 12.48-3.194 31.66-3.92 44.44-1.45zM536.07 94.042c0 .435-1.308 6.245-3.05 12.926l-3.052 12.054-12.493-.726c-11.186-.58-14.237-.145-26.44 3.776-26.44 8.423-43.146 9.73-51.862 3.776l-4.068-2.76 11.622-.87c6.392-.437 15.108-1.89 19.466-3.34l7.99-2.76-11.912-3.777c-10.6-3.48-18.01-7.69-16.12-9.29.29-.29 5.23.15 10.75.87 11.04 1.6 14.82 1.02 43.58-6.82 11.9-3.34 35.58-5.23 35.58-3.05zm156.46 7.118c-.436 1.162-1.598 4.648-2.615 7.988s-2.615 5.955-3.632 5.955c-1.89 0-1.453-1.598 3.05-14.233.29-.872 1.308-1.743 2.325-1.743.87-.002 1.31.87.87 2.033zm27.6 18.44c12.64 8.714 23.1 16.557 23.39 17.137.435 1.162-37.48 15.105-38.498 14.088-.29-.29 1.89-5.52 4.94-11.764l5.52-11.18-3.342-2.61c-1.743-1.45-6.392-3.77-10.17-5.23-3.776-1.3-7.408-3.05-7.99-3.48-1.016-.87 1.6-13.07 2.762-13.07.3 0 10.76 7.26 23.39 16.12zm132.64-11.18c0 1.162-1.308 6.1-2.76 11.183-1.6 5.083-4.214 13.942-5.812 19.606-2.324 7.84-3.777 10.6-6.1 11.18-2.035.58-2.76.14-2.325-1.02.435-1.02 3.486-10.6 6.827-21.35 3.342-10.75 6.392-19.9 6.828-20.63 1.01-1.74 3.34-1.16 3.34 1.02zm53.75 19.9c0 .87-58.255 19.17-58.98 18.3-.437-.436 7.99-30.935 10.168-36.89.58-1.162 8.426 1.307 24.696 7.988 13.22 5.37 24.12 10.02 24.12 10.6zm-226.05-15.54c-.436 1.307-1.453 1.888-2.324 1.452-.727-.435-.58-1.743.435-2.904 2.18-2.62 3.2-1.89 1.89 1.45zm156.17 19.17c-3.196 10.31-6.682 19.46-7.554 20.333-1.598 1.452-17.578 6.535-51.572 16.7-7.554 2.18-13.22 3.632-12.784 3.197 1.89-1.89 77.14-59.546 77.43-59.256.29 0-2.32 8.57-5.52 19.03zm-166.92-5.96c-1.162 10.747-2.906 11.764-2.906 1.743 0-6.39-.436-8.278-2.18-8.278-1.597 0-1.392 1.77-1.683 8.016l-1.07 8.69-1.74-4.9c-.43-3.92.01-10.34-.87-11.36-1.16-1.45-.14-1.88 4.94-1.88h6.39l-.87 7.99zm7.7-6.97c.29.726-.29 5.083-1.162 9.876l-1.743 8.714-.58-9.876c-.437-6.826-.147-9.73 1.16-9.73.87-.01 1.89.43 2.32 1.01zm-20.77 9.15c0 4.792-.58 8.714-1.453 8.714-.87 0-1.452-3.922-1.452-8.714 0-4.793.58-8.714 1.452-8.714.87 0 1.45 3.92 1.45 8.71zm29.34-6.24c-.87 1.452-1.888 5.373-2.47 8.714-.58 3.485-1.597 6.245-2.47 6.245s-1.16-1.75-.58-4.51c.436-2.47.872-6.39.872-8.72 0-3.2.726-4.21 2.905-4.21 2.47 0 2.76.58 1.74 2.47zm16.86 3.34c3.34 1.452 6.1 3.486 6.1 4.357s-1.742 4.938-3.776 9.005c-2.47 4.937-4.213 6.826-5.23 5.81-.87-.873-.435-3.34 1.6-7.263 1.742-3.34 3.05-6.98 3.05-8.28 0-4.36-3.05-2.04-6.102 4.64-4.068 8.57-3.923 8.28-4.794 7.4-.436-.44.29-3.49 1.453-6.97 2.62-7.56 2.76-10.17.29-10.17-1.01 0-3.19 3.77-4.64 8.28-3.05 9.29-4.65 7.55-2.32-2.47.73-3.49 1.02-6.97.58-7.7-1.16-1.9 5.82-.16 13.81 3.33zm-175.49 1.16c0 4.793-7.118 28.32-9.007 29.482-2.905 1.888-3.05.58-.58-7.988 1.307-4.502 3.34-11.763 4.648-16.12 2.18-7.7 4.94-10.74 4.94-5.37zm34.14 2.47c14.383 2.905 27.167 5.52 28.33 6.1 1.16.435-12.495 4.792-30.51 9.876-18.012 4.938-32.976 8.86-33.266 8.568-.29-.29.436-4.21 1.743-8.86 1.308-4.646 3.05-11.182 3.923-14.667.87-3.34 2.033-6.1 2.614-6.1.58 0 12.78 2.32 27.17 5.08zm361 4.21c0 3.05-3.342 5.228-12.64 7.988-4.648 1.452-28.037 9.585-52.007 18.154s-57.237 20.478-73.944 26.432c-22.81 8.133-31.82 10.748-36.32 10.457-4.36-.29-6.1-1.16-6.39-3.05-1.02-5.22 5.52-9.58 22.08-14.81 69.73-22.07 151.96-47.05 155.3-47.05 2.32-.14 3.92.58 3.92 1.89zm-408.51 12.05c-1.598 6.245-3.486 11.764-3.922 12.345-.872 1.017-13.51 4.793-37.045 11.183-3.196.87-5.084.87-4.358.29 2.034-1.888 47.214-35 47.795-35 .29 0-.87 5.08-2.47 11.18zm97.63-6.82c0 2.324-4.794 4.067-48.812 17.283-93.846 28.03-109.54 32.387-111.72 31.66-1.743-.725-1.888-1.597-.436-4.5 1.744-4.068 2.47-4.358 35.302-13.072 10.46-2.76 40.095-10.89 66.1-18.15 58.69-16.26 57.09-15.83 58.544-15.1.59.29 1.03 1.16 1.03 1.89zm43.43 3.34c2.615-.58.29 3.196-10.605 18.01l-13.94 18.88-18.45 6.68c-10.17 3.63-18.594 6.535-18.885 6.39-.145-.29 12.203-11.91 27.457-26.142 19.757-18.3 28.182-25.416 29.345-24.4 1.01.87 3.19 1.01 5.08.58zm11.62 12.49l-4.358 12.925-10.896 3.922c-5.956 2.178-11.186 3.776-11.33 3.485-.29-.29 4.793-7.842 11.33-16.847 9.88-13.652 12.35-16.266 15.69-16.41h3.922l-4.36 12.92zm12.5-11.18c-5.52 18.01-6.974 21.494-9.007 21.494-1.163 0-1.89-.87-1.598-1.888.435-.87 2.18-6.1 3.922-11.62 2.034-5.808 4.068-9.73 5.375-9.73 1.02-.01 1.74.86 1.31 1.74zm74.09-.44c-.872.726-18.45 7.988-39.224 16.12s-57.092 22.367-80.626 31.516c-23.535 9.295-45.18 17.43-47.94 18.01-5.957 1.452-10.17.435-10.17-2.18 0-2.468 5.666-4.792 50.846-21.058 20.338-7.262 55.64-20.042 78.447-28.32 37.19-13.64 52.73-18 48.67-14.08zm-54.05 7.26l4.068 2.614-12.058 4.357c-6.682 2.47-12.203 4.36-12.348 4.22-.29-.29.58-3.63 1.89-7.55 1.306-3.92 2.468-7.98 2.904-9 .58-2.04 7.7.43 15.54 5.37zm190.46 7.7c-44.018 46.184-75.25 125.05-69.005 173.99.872 6.97 2.906 16.41 4.504 21.06 1.59 4.646 2.9 8.568 2.9 8.858 0 .145-3.2-1.017-6.98-2.76l-6.98-3.195-6.54-22.075c-3.49-12.055-6.54-21.785-6.83-21.495-.44.436 6.1 33.55 7.84 40.23.58 2.18-.15 2.614-4.36 2.614-5.67 0-4.36 2.905-13.51-29.627-2.18-7.843-4.22-13.652-4.36-12.926-.29.726 1.45 10.457 3.78 21.64 2.32 11.037 4.21 20.187 4.06 20.478-.15.145-2.04.58-4.07 1.16-3.78.873-3.78.728-10.03-21.057-3.49-11.91-6.39-21.64-6.68-21.35-.44.436 5.37 32.823 7.41 41.247.58 2.323-.15 3.63-2.33 4.937-4.07 2.17-4.36 1.74-10.03-18.59-2.62-9.01-5.09-16.12-5.38-15.83-.44.29 1.02 9 3.05 19.31l3.92 18.59-3.34 2.61c-3.78 3.19-3.93 3.05-8.43-13.07-1.89-6.68-3.64-11.77-3.93-11.48-.29.29.44 6.39 1.6 13.36 2.91 16.41 2.91 17.57-.43 19.46-2.62 1.31-3.05.72-5.38-7.26-3.05-11.19-4.22-10.31-1.89 1.45 1.31 7.11 1.31 9.58-.15 12.49-2.61 4.79-3.78 4.35-5.52-2.04-1.45-5.08-1.45-4.79-.87 2.61.72 8.86-1.16 13.94-3.92 10.16-1.16-1.6-1.31-1.02-.73 2.91.43 2.76 0 9-1.02 13.8l-1.89 8.57-5.23-10.75c-12.06-24.69-16.13-43.57-16.27-75.53 0-18.73.72-27.74 3.19-40.95 8.57-46.04 30.22-91.21 43.58-91.21 1.31 0 1.6 1.02 1.02 3.2-.73 2.76-.44 2.47 2.03-1.02 1.6-2.33 4.21-4.79 5.95-5.38 2.9-1.02 2.9-1.02.58 3.34-1.16 2.47-1.89 4.79-1.45 5.23.29.43 1.74-1.31 2.9-3.63 5.37-10.31 10.75-12.05 6.53-2.18-3.34 7.99-2.76 7.55 3.63-1.89 2.47-3.78 5.96-7.41 7.7-7.99 3.2-1.16 3.05-.73-1.74 8.86-2.76 5.66-4.94 10.16-4.5 10.16.29 0 3.92-5.23 7.99-11.48 4.21-6.24 8.86-11.76 10.31-12.2 2.32-.58 1.89 1.02-3.05 10.75-3.05 6.25-5.38 11.48-5.09 11.48.29 0 3.92-5.23 8.13-11.76 6.97-10.61 11.91-15.83 14.81-15.83.58 0-2.32 5.66-6.25 12.63-13.65 23.67-13.22 23.96 2.33 1.16 6.25-9.15 12.35-16.7 13.36-16.7 1.74 0 1.45 1.02-.73 4.65-9.3 15.68-17.58 30.21-17 30.21.29 0 6.54-8.72 13.8-19.47 8.14-11.77 14.53-19.75 16.42-20.33 1.74-.44 3.19-.58 3.48-.44.15.29-5.08 8.86-11.62 19.31-19.46 30.35-18.74 30.21 3.34-.58 12.93-18.01 19.32-24.98 21.07-23.24.29.29-4.8 8.57-11.04 18.59-13.51 21.06-15.11 23.82-13.37 22.8.58-.44 7.99-10.6 16.42-22.66 11.18-15.98 16.41-22.22 19.47-23.39 2.32-.73 4.5-1.17 4.94-.87.29.43-7.7 12.78-17.73 27.59-10.17 14.81-18.16 27.01-17.73 27.01.29 0 10.46-13.22 22.52-29.48l21.79-29.48 9.15-3.05c5.08-1.74 9.44-3.2 9.73-3.2.27-.16-3.36 3.91-8.01 8.85zm-154.14 4.36c-23.39 29.482-40.24 67.098-47.94 107.62-3.63 19.46-3.63 67.534.146 87.43 3.34 18.155 10.75 42.7 17.432 58.385 2.76 6.68 4.794 12.054 4.504 12.054-1.308 0-14.527-10.46-15.4-12.2-.58-.88-6.39-20.34-13.074-43.28-6.682-22.95-12.348-41.54-12.638-41.25-.146.29 4.067 18.59 9.588 40.66 5.52 22.07 9.733 40.08 9.442 40.08-.435 0-2.47-1.02-4.648-2.33-3.487-2.04-5.085-6.1-14.673-38.49-5.96-19.75-10.9-35.87-11.19-35.58-.29.14 3.19 15.25 7.55 33.26 4.36 18.15 7.99 33.25 7.99 33.69s-1.89-.15-4.22-1.45c-4.65-2.33-4.65-2.18-17-44.59-3.05-10.31-5.67-18.3-5.96-18.01-.29.29 2.32 12.78 5.95 27.88 3.49 15.1 6.25 27.59 6.1 27.88-.29.14-2.62-.58-5.38-1.74-4.94-2.04-5.09-2.33-12.06-27.6-3.92-14.09-7.41-25.27-7.7-24.98-.29.14 1.74 11.03 4.5 23.81 5.08 24.25 4.94 25.27-1.74 21.49-2.62-1.45-4.8-5.81-9.01-18.45-6.25-18.59-7.12-18.45-2.91.72 1.6 7.11 2.61 13.21 2.32 13.5-.29.29-2.76 0-5.38-.58-4.51-1.16-5.38-2.33-9.01-12.2-2.18-6.1-3.63-8.57-3.2-5.67.58 2.76 1.3 7.26 1.74 9.73.72 4.36.43 4.79-2.62 4.79-4.94 0-6.25-1.31-9.88-8.72-2.91-6.24-3.05-5.81-1.02 3.2.87 3.78.58 4.07-4.07 4.07-3.49 0-5.23-.73-5.67-2.62-.58-1.89-.73-1.89-.87.58-.15 3.63-7.41 5.81-9.16 3.05-.73-1.16-1.16-1.02-1.16.43 0 1.16-2.18 3.63-4.8 5.37-2.61 1.89-6.39 5.96-8.28 9.15-2.03 3.2-4.21 5.81-4.79 5.81-1.75 0-9.45-18.15-12.79-30.35-4.35-15.97-5.37-46.04-2.03-65.5 4.65-28.17 16.71-56.64 32.25-76.83 7.56-9.73 9.45-11.18 18.6-14.96 5.52-2.32 10.89-3.77 11.91-3.48 1.02.43 1.89.14 1.89-.73 0-1.31 5.96-4.36 6.97-3.49.14.14-.29 2.18-1.16 4.5l-1.45 4.21 2.61-3.49c7.11-10.16 10.6-11.91 7.55-3.77-2.47 6.39-.58 5.95 2.76-.58 1.75-3.2 4.36-6.54 5.96-7.41 2.76-1.45 2.76-1.45-.14 5.23-4.06 9.58-2.47 9.44 2.91 0 2.47-4.36 5.81-8.72 7.41-9.59 3.78-2.03 3.78-1.74-1.45 10.32-2.33 5.52-3.92 10.02-3.63 10.02.29 0 3.77-5.52 7.84-12.2s8.42-12.49 9.59-13.07c2.91-1.02 2.91-1.16-3.49 12.93-3.2 6.82-5.52 12.34-5.38 12.34.29 0 3.92-5.67 8.28-12.64 4.21-6.97 8.86-13.8 10.32-15.25 6.1-6.1 5.23-1.6-2.32 12.63-4.5 8.42-7.84 15.25-7.55 15.25.29 0 5.67-7.84 11.77-17.43 9.73-15.11 13.8-19.9 13.8-16.56 0 .58-3.92 8.42-8.86 17.43-4.79 9.15-8.43 16.55-8.14 16.55.44 0 6.1-8.56 12.64-19.02 10.17-16.12 16.27-22.95 18.6-20.92.44.43-12.78 23.67-22.66 39.94-5.81 9.44 2.18-1.46 15.54-21.35 12.78-18.88 18.01-25.13 19.9-23.39.14.29-4.22 8.28-9.88 17.87-16.71 28.75-17.29 29.77-16.56 29.77.29 0 8.13-11.62 17.29-25.86 13.66-20.91 17.73-26.14 21.5-27.45 2.62-1.01 4.94-1.74 5.09-1.45.14.15-5.09 8.86-11.63 19.17-20.92 33.26-24.11 38.49-23.53 38.49.29 0 10.02-13.65 21.5-30.5 17-24.83 21.65-30.79 25.86-32.53 8.99-3.76 8.99-2.6.42 8.15zm-158.05-2.91c-23.97 19.752-45.616 46.91-58.255 73.053-10.024 20.768-14.09 37.18-14.09 57.803 0 12.926-.292 15.25-1.89 13.942-1.162-.87-2.034-4.647-2.18-8.423 0-3.63-.58-10.02-1.306-13.943-1.02-6.97-1.02-6.97-1.31 3.922 0 6.245-.44 11.328-.73 11.328-4.51 0-5.23-2.18-5.38-15.83-.15-11.765-.44-12.927-1.46-7.408-.58 3.63-1.16 9.295-1.16 12.636-.15 4.647-.58 5.954-2.18 5.373-1.31-.58-2.33-5.228-3.2-15.54l-1.31-14.813-.44 13.36c-.15 7.408-.58 13.508-1.02 13.508-3.93 0-5.09-2.47-5.23-10.748-.15-12.635-2.47-18.88-2.62-7.406-.29 10.892-1.31 15.25-3.93 15.25-1.45 0-2.03-1.89-2.18-6.246 0-3.34-.58-8.714-1.16-11.91-1.16-4.937-1.31-4.066-1.45 6.1-.15 9.296-.58 12.055-2.18 12.055-2.47 0-3.63-4.357-3.92-14.523-.29-7.843-.29-7.843-1.45 2.904-1.46 12.345-2.04 14.524-4.22 14.524-.73 0-1.45-3.34-1.45-7.698 0-5.373-.43-6.97-1.45-5.373-.73 1.162-1.45 5.52-1.45 9.73 0 4.067-.58 7.988-1.46 8.424-.87.59-1.46-1.01-1.46-3.92 0-3.63-.44-4.21-1.45-2.61-.73 1.16-1.46 3.92-1.46 6.1 0 5.81-1.6 9.15-3.05 6.68-.87-1.16-1.31.29-1.31 4.22 0 3.49-.58 6.25-1.16 6.25-3.2 0-7.85-21.35-8.57-38.48-.58-15.39-.29-19.17 3.05-31.66 3.77-14.96 14.23-38.34 20.05-44.87 1.74-2.03 4.94-4.21 6.83-4.79 3.05-.87 3.34-.72 2.47 1.6-.73 2.04 0 1.74 3.05-1.31 4.94-4.5 9.3-5.66 6.1-1.45-1.16 1.6-.44 1.31 1.6-.58 4.21-3.63 11.62-6.82 11.62-4.79 0 .73-.58 1.75-1.45 2.18-.73.44-2.18 2.33-3.05 4.07-1.02 1.89 1.45.29 5.66-3.78 10.9-10.17 12.93-9.44 4.79 1.89-2.76 3.92-1.75 3.34 5.08-3.05 7.7-7.41 13.65-11.33 13.65-9.15 0 .58-2.47 3.92-5.52 7.69-10.17 12.35-9.44 12.49 2.32.44 6.54-6.54 12.49-11.91 13.37-11.91 2.03 0 1.3 1.31-8.43 13.8l-7.7 10.16 12.78-13.36c10.89-11.33 19.32-17.57 19.32-14.23 0 .44-5.23 6.97-11.62 14.38-6.4 7.55-11.63 13.94-11.63 14.38 0 .44 5.37-4.94 11.91-11.76 18.31-19.46 19.03-20.33 22.81-21.35 2.76-.87 1.6 1.31-5.96 10.32-17.44 21.35-20.92 26.43-9.74 14.38 21.21-22.95 26.73-28.17 31.09-29.19 4.07-1.01 4.21-1.01 2.18 1.89-1.16 1.75-9.3 11.48-18.02 21.79-27.17 31.95-26.44 31.52 4.79-2.47 20.2-22.07 26.3-27.16 32.83-27.45.87-.16-1.75 2.6-5.81 5.94zm419.83 46.33c2.034 6.1-6.537 9.585-8.862 3.485-1.452-3.63.582-6.535 4.36-6.535 2.33 0 3.92 1.02 4.5 3.05zm-278.77 32.1l4.068 8.28-3.922 12.78c-4.94 16.12-7.845 30.353-9.734 47.345-1.307 10.457-2.47 14.67-5.81 19.897-2.18 3.63-5.666 9.586-7.41 13.362-1.888 3.92-3.776 6.97-4.358 6.97-1.743 0-3.196-27.738-2.324-45.747 1.453-28.32 7.264-54.9 17.288-79.008l4.648-11.04 1.744 9.44c.87 5.23 3.48 13.21 5.81 17.72zM945.6 220.4c21.064 3.486 38.497 6.68 38.933 6.97.58.727-19.176 38.633-20.92 40.376-.87.726-68.86-3.195-81.352-4.792-2.76-.436-2.03-2.324 9.45-22.947 12.79-22.657 14.82-26.142 15.26-26.142.14 0 17.57 2.9 38.64 6.54zm44.16-4.22c1.453 1.453-1.743 6.39-4.068 6.39-2.615 0-2.615-.726-.726-4.502 1.59-2.76 3.19-3.48 4.79-1.89zm-460.95 18.59c0 10.457 3.632 29.337 8.135 41.682 3.632 9.876 3.632 10.167 1.308 21.785-2.76 14.814-2.906 45.458-.145 59.69 2.76 14.234 5.665 22.513 13.51 38.488 3.632 7.407 6.247 14.233 5.956 15.105-.726 2.033-11.767-7.117-19.03-15.83-6.393-7.553-14.092-21.06-18.305-31.952-3.06-7.552-3.06-7.552-.15-7.552 2.76 0 2.9-1.017 2.9-18.155v-18.17h-4.36c-3.63 0-4.5-.72-5.96-5.51-.87-2.9-2.04-12.92-2.33-22.07-.58-13.5-.15-19.02 2.32-29.33 3.05-12.92 12.64-36.01 14.82-36.01.73 0 1.31 3.49 1.31 7.84zm312.92 41.54c2.034 12.345 5.375 29.192 7.41 37.325l3.485 14.814-2.76 8.27c-1.598 4.5-2.47 8.71-2.034 9.44.44.72-2.46 4.79-6.53 9l-7.26 7.55-2.76-6.68c-9.44-21.79-8.42-57.66 2.76-93.53 1.6-5.38 3.2-9.44 3.49-9.15.27.14 2.16 10.59 4.2 22.94zm-415.34 14.52l2.034 10.893-12.058 43.57-12.058 43.57-4.94-.436c-5.955-.435-49.247-20.478-49.247-22.8 0-5.665 35.74-52.14 64.65-83.8 8.28-9.15 8.72-9.44 9.15-5.81.15 2.18 1.31 8.86 2.47 14.81zm533.88-16.26c0 .29-4.36 9.15-9.734 19.316-9.588 18.155-10.024 18.735-14.527 18.735-2.62 0-4.8-.43-4.8-.87 0-.58 4.94-9.58 11.04-20.04 10.02-17.28 11.47-19.17 14.53-18.59 1.89.28 3.49 1.01 3.49 1.45zm-488.84 19.02c-.436 2.324-2.324 9.004-4.067 14.96l-3.342 10.6-11.18.437c-10.75.435-11.18.29-11.18-2.905 0-14.814 11.48-27.16 25.14-27.304 5.37 0 5.52.15 4.65 4.21zm11.33 4.36c-4.94 20.042-5.376 21.204-9.734 21.64-3.486.435-4.067 0-3.486-2.18 7.844-28.32 7.118-26.43 10.75-24.834 2.76 1.3 3.19 2.32 2.47 5.37zm21.5 13.65c2.324 3.195 4.213 6.39 4.213 7.116 0 .58-5.81 1.162-13.075 1.162-7.118 0-13.074-.436-13.074-.87 0-1.018 4.213-17.865 5.084-20.624 1.01-2.61 11.33 5.52 16.85 13.22zm-69.15 5.67c3.05 6.68 3.632 9.876 3.632 23.237v15.686h9.733v11.183c.145 6.245 1.598 17.282 3.34 24.69 3.343 14.232 2.616 19.315-2.613 19.315-1.453 0-8.862-3.63-16.416-8.13-7.41-4.5-15.98-9.29-18.886-10.6l-5.23-2.32 11.04-40.23c6.103-22.22 11.187-40.37 11.478-40.37.29-.01 2.03 3.48 3.92 7.55zm504.82 4.35c0 2.614.436 8.278.872 12.345l1.017 7.697h-88.91l3.63-10.602c1.89-5.664 3.77-11.328 4.21-12.345.43-1.307 9.88-1.743 39.95-1.743h39.22l.01 4.65zm-421.29 15.69v13.07h-75.542v-26.14h75.542v13.07zm190.45 15.68c2.76 23.528 10.17 46.33 21.355 64.484 9.007 14.96 9.007 15.104.29 16.993-4.067.87-8.28 1.597-9.297 1.597-4.068 0-22.517-46.91-27.02-68.695-1.89-9.74-1.018-13.66 7.118-29.34l5.23-10.17.29 5.81c.29 3.2 1.16 11.92 2.03 19.32zm221.98 3.34c.87 5.81 1.452 10.602 1.162 10.892-.29.436-21.936.436-47.94.29l-47.504-.435 9.152-10.457 9.007-10.457h37.19l37.19-.145 1.75 10.31zM506.15 368.1c12.493 38.34 44.744 66.08 90.214 78.135 28.91 7.553 59.998 9.876 95.88 7.407 73.508-5.083 107.36-19.17 149.92-62.16l19.176-19.316h27.602c18.013 0 27.747.58 27.747 1.453 0 4.21-19.04 37.61-32.84 57.51-10.61 15.25-13.37 17.28-38.5 27.3-30.95 12.34-75.69 22.07-121.88 26.43-30.08 2.9-100.82 2.03-125.66-1.46-32.54-4.79-57.24-10.46-82.23-19.17-20.34-7.12-29.06-11.19-52.88-24.84-25.71-14.82-40.68-22.22-54.48-27.31-13.22-4.79-25.43-5.37-30.95-1.74-4.36 2.9-4.94 1.45-1.75-4.8 3.63-6.97 11.76-11.62 20.48-11.62 9.88 0 16.42 2.47 34.14 12.92 16.71 9.87 21.35 10.74 25.86 5.08 3.77-4.8 3.77-6.1.14-21.21-1.6-6.68-2.91-17.14-2.91-23.38v-11.18h48.96l3.91 11.91zm10.17-2.04c8.57 22.22 25.422 43.28 43.29 53.737 24.552 14.523 58.255 22.366 104.6 24.4 69.15 3.05 135.4-20.334 174.47-61.725 5.812-6.1 10.897-10.312 12.64-10.312 1.598 0 2.905.58 2.905 1.453 0 2.614-29.78 31.515-41.402 40.084-35.738 26.287-79.03 37.325-147.45 37.325-27.893 0-42.565-1.597-64.647-7.116-49.102-12.2-80.626-39.504-92.83-80.17l-2.178-7.55h3.486c2.9 0 3.92 1.6 7.12 9.87zm305.65-2.03c6.246 3.195 7.41 4.357 6.1 5.955-1.306 1.597-.87 2.033 2.326 2.47 2.18.29 4.648 1.596 5.52 2.903 1.743 2.905-2.324 7.843-14.673 17.283-8.86 6.98-9.878 6.69-20.047-4.79-5.375-6.24-15.254-23.09-15.254-26.28 0-1.59 6.683-2.17 17.433-1.88 8.42.29 12.63 1.31 18.59 4.36zm-483.76-1.74c2.76 2.76 2.034 6.68-1.162 7.698-3.196 1.016-7.264-1.307-7.264-4.212 0-2.18 2.906-5.228 5.085-5.228.87 0 2.32.72 3.34 1.74zm430.15 34.27l-9.007 30.5-5.52 1.45c-3.196.727-5.666 1.018-5.666.437 0-.436 4.068-13.798 9.007-29.628 8.862-28.18 9.152-28.91 14.237-31.52 2.76-1.45 5.23-2.47 5.52-2.18.3.15-3.63 14.1-8.57 30.94zm18.31-22.07c2.18 4.502 8.136 12.635 13.22 18.01l9.298 9.875-10.46 6.1c-12.203 7.407-32.25 16.266-32.832 14.668-.145-.58 3.196-13.216 7.7-28.175 4.358-14.96 7.99-27.45 7.99-27.885-.01-2.19 1.45.14 5.08 7.4zm-399.65 13.36c2.47.727 2.47.872-.727 2.47-3.05 1.742-5.375.87-23.39-8.134-14.38-7.26-19.756-10.602-19.175-12.054.582-1.598 5.23 0 20.63 7.407 10.9 5.23 21.06 9.87 22.66 10.31zm364.2 14.81c-4.358 14.378-8.57 26.142-9.152 26.142-1.744 0-3.05-10.02-2.034-17.137 1.598-11.91 5.23-20.333 12.057-27.885 3.64-3.92 6.69-7.262 6.98-7.262.15 0-3.34 11.76-7.84 26.14zm-160.23-21.49c-.436 1.016-3.487 10.31-6.973 20.768-3.34 10.312-6.683 19.46-7.264 20.042-.58.727-3.777-.145-6.973-1.742-4.94-2.615-5.956-3.922-7.554-10.167-1.453-6.24-1.308-7.69 1.162-12.63 4.068-7.84 10.46-13.5 17.87-15.83 8.13-2.46 10.45-2.61 9.73-.43zm13.07.43c.29.29-2.76 10.893-6.973 23.674l-7.263 23.382-4.358-1.452c-2.325-.872-3.923-2.324-3.632-3.195.29-1.02 3.34-10.32 6.682-20.63 7.554-23.68 7.845-24.4 11.913-23.1 1.74.44 3.34 1.17 3.63 1.31zm15.11 4.07c.58.87 1.162 3.34 1.162 5.374 0 5.81 7.99 26.868 13.656 36.453 2.905 4.938 4.94 9.295 4.503 9.73-.87 1.018-20.62-1.887-33.99-4.937-7.12-1.452-10.31-2.905-9.88-4.067.44-1.016 3.92-11.763 7.7-23.963l6.98-22.22 4.36.87c2.47.58 4.94 1.74 5.52 2.76zm24.26 7.55c21.5 9.15 20.484 7.988 13.51 15.976-6.246 7.116-11.912 17.283-11.912 21.494 0 4.793-2.76 2.324-7.844-6.68-5.375-9.44-12.494-29.192-12.494-34.275 0-1.743.727-3.05 1.598-3.05.87.01 8.57 2.91 17.14 6.54zm36.32 19.17c6.1 3.776 16.125 10.747 22.517 15.54l11.33 8.714-4.066 1.307c-4.94 1.6-59.41 2.18-60.87.73-.58-.43 0-4.5 1.31-9 1.75-5.66 4.51-10.31 9.74-15.97 4.07-4.5 7.85-8.13 8.28-8.13.44.01 5.67 3.06 11.77 6.83zm-272.68 4.22c13.366 4.792 28.474 12.345 54.042 27.013 30.798 17.72 51.427 26.142 84.985 34.566 39.078 9.73 73.943 13.5 122.9 13.5 76.123 0 137.86-11.48 195.39-36.31 1.163-.58-.145 1.89-3.05 5.52-3.05 3.77-8.426 7.99-13.075 10.31-11.622 5.81-37.19 13.79-59.416 18.59-17.288 3.77-18.45 4.21-9.443 3.48 19.03-1.45 41.838-7.12 65.373-15.83 1.743-.73.58 1.3-3.487 5.52-5.52 5.66-8.43 7.26-20.34 11.18-7.7 2.47-27.02 6.68-43 9.29-15.98 2.76-27.61 5.08-26.01 5.08 6.97.29 47.65-5.96 60.87-9.3 7.84-2.04 14.52-3.34 14.81-3.05.43.29-3.05 3.48-7.41 7.11-8.43 6.83-15.69 9.3-39.52 13.36-6.98 1.16-9.45 1.89-6.4 2.03 2.76 0 11.04-1.16 18.16-2.62 7.26-1.46 13.22-2.47 13.51-2.33.87.73-18.6 12.34-33.12 19.61-17.58 8.86-42.42 17.43-63.92 22.07-22.38 4.79-73.51 4.79-95.88 0-45.33-9.88-100.96-37.32-131.47-64.92l-7.26-6.53 9.44 4.36c10.6 4.79 30.8 10.74 40.67 12.2 4.07.58 1.01-.73-7.99-3.49-21.94-6.68-48.09-20.04-58.69-29.92-4.94-4.5-8.86-8.71-8.86-9.29s7.4 2.61 16.41 7.26c20.34 10.6 39.37 17.57 64.35 24.11 23.68 5.95 31.67 6.39 11.48.58-48.38-14.09-92.11-35.15-114.62-55.04-14.82-13.07-27.75-19.61-38.94-19.75-4.5 0-7.85-.44-7.41-1.16 1.44-2.46 16.69-.86 26.86 2.77zm460.66 45.89c-.727 1.016-3.923 5.083-6.973 9.15l-5.666 7.26 9.01-8.568c10.03-9.73 13.22-10.02 5.96-.58l-4.79 6.244 6.54-5.954c7.12-6.826 11.48-7.262 7.56-.872-2.47 3.922-2.47 3.922.44 1.307 1.6-1.307 3.49-2.47 4.07-2.47s4.65 3.342 9.01 7.408c9.3 9.005 17.44 23.964 19.32 35.873 1.31 8.424 1.17 11.62-1.45 23.673l-1.45 6.54-47.94 7.55c-35.15 5.52-48.81 7.12-50.7 6.1-3.78-2.03-9.44-12.05-12.06-21.35l-2.18-7.4 13.22-9.73c7.85-5.66 22.81-19.31 35.89-32.68 20.91-21.5 25.71-26 22.22-21.5z"/>
<path d="M865.59 330.77v6.535h13.075v-13.07H865.59v6.54zm26.15 0v6.535h13.075v-13.07H891.74v6.54zm26.15 0v6.535h13.075v-13.07H917.89v6.54zm-56.65 27.6v6.536h13.075v-13.07H861.24v6.53zm42.12 0v6.536h13.075v-13.07H903.36v6.53zm-47.94 31.95c0 5.084 0 5.084 6.537 5.084 6.538 0 6.538 0 6.538-5.084 0-5.083 0-5.083-6.538-5.083-6.54 0-6.54 0-6.54 5.08zm30.51 0c0 5.084 0 5.084 6.538 5.084 6.537 0 6.537 0 6.537-5.084 0-5.083 0-5.083-6.537-5.083-6.54 0-6.54 0-6.54 5.08zm-335.58 62.45v9.44h13.075v-18.88H550.35v9.44zm220.82 5.81v9.44h13.074v-18.88H771.17v9.44zm-108.96 13.07v9.44h13.075v-18.88H662.21v9.44zM451.57 338.03v6.536h13.074v-13.07H451.57v6.53zm26.15 0v6.536h13.074v-13.07H477.72v6.53zm26.14 0v6.536h13.074v-13.07H503.86v6.53zm277.46 184.82c.968.323 2.905.323 4.035 0 .97-.484.162-.807-2.098-.807s-3.07.33-1.94.81zM232.29 276.27c-.7.86-1.507 2.476-1.67 3.498-.214 1.077-.86 2.96-1.4 4.198-1.398 3.122-1.344 5.76.163 8.02 1.884 2.852 5.06 2.798 6.568-.054 1.4-2.638 1.03-6.35-.86-9.15-1.67-2.422-1.88-4.628-.8-7.158.71-1.45-.53-1.08-1.99.65zm6.68 17.06c-1.023.43-2.154 1.184-2.53 1.722-3.015 3.93 3.822 8.235 8.775 5.598 5.33-2.907 5.49-2.96 8.02-2.1 2.155.7 2.262.7 1.832-.16-.862-1.615-2.208-2.37-7.43-4.145-5.98-1.99-6.19-1.99-8.67-.91zm-20.57 1.29c-2.477 1.668-5.115 2.045-7.053 1.022-1.507-.807-1.67-.323-.43 1.292.645.807 2.1 1.67 3.39 1.99 1.24.324 3.393 1.078 4.792 1.616 3.23 1.346 6.13 1.346 8.34 0 4.47-2.69 1.67-7.535-4.31-7.535-1.72 0-3.01.44-4.74 1.62zm12.98 5.87c-.27.592-.538 2.207-.538 3.66-.108 9.634-3.93 18.73-11.144 26.588-1.562 1.668-2.854 3.175-2.854 3.39 0 .54 8.076.377 9.152-.215.97-.484 1.077-.323 1.4 1.56.43 2.584 1.884 5.06 3.66 6.244 1.13.754 1.562.807 2.8.162 2.154-1.03 3.554-3.23 3.823-6.03.26-2.1.48-2.48 1.18-2.1.48.21 2.9.48 5.38.59l4.52.21-2.37-2.8c-4.47-5.28-5.92-7.27-7.7-10.77-2.48-4.79-3.5-8.56-3.93-14.27-.17-2.69-.54-5.38-.76-6.08-.54-1.45-1.89-1.56-2.64-.16zM48.365 276.63c-.7.86-1.508 2.476-1.67 3.498-.214 1.077-.86 2.96-1.4 4.198-1.398 3.122-1.345 5.76.163 8.02 1.884 2.852 5.06 2.798 6.568-.054 1.4-2.637 1.023-6.35-.862-9.15-1.67-2.422-1.884-4.628-.807-7.158.7-1.45-.54-1.07-1.992.65zm6.675 17.06c-1.022.43-2.153 1.184-2.53 1.723-3.015 3.928 3.823 8.234 8.775 5.597 5.33-2.906 5.492-2.96 8.022-2.1 2.153.7 2.26.7 1.83-.16-.86-1.615-2.207-2.37-7.43-4.145-5.975-1.98-6.19-1.98-8.666-.91zm-20.565 1.3c-2.476 1.668-5.114 2.045-7.052 1.023-1.508-.808-1.67-.323-.43 1.29.645.81 2.1 1.67 3.39 1.993 1.24.323 3.392 1.076 4.792 1.614 3.23 1.346 6.137 1.346 8.345 0 4.468-2.69 1.67-7.535-4.307-7.535-1.723-.01-3.015.42-4.738 1.61zm12.975 5.86c-.27.592-.54 2.207-.54 3.66-.106 9.634-3.93 18.73-11.143 26.588-1.56 1.668-2.853 3.175-2.853 3.39 0 .54 8.075.377 9.152-.215.97-.484 1.077-.323 1.4 1.56.43 2.585 1.884 5.06 3.66 6.244 1.13.754 1.562.808 2.8.162 2.154-1.03 3.553-3.23 3.822-6.03.27-2.1.485-2.48 1.185-2.1.484.21 2.907.48 5.383.59l4.523.21-2.37-2.8c-4.47-5.28-5.93-7.27-7.7-10.77-2.48-4.79-3.5-8.56-3.93-14.26-.16-2.69-.54-5.38-.76-6.08-.54-1.45-1.89-1.56-2.64-.16zm91.93-24.43c-.7.86-1.508 2.476-1.67 3.498-.215 1.077-.86 2.96-1.4 4.198-1.4 3.122-1.345 5.76.162 8.02 1.885 2.852 5.06 2.798 6.568-.054 1.4-2.637 1.023-6.35-.86-9.15-1.67-2.422-1.885-4.628-.81-7.158.7-1.45-.54-1.08-1.99.65zm6.67 17.06c-1.023.43-2.153 1.184-2.53 1.723-3.015 3.928 3.822 8.234 8.775 5.597 5.33-2.906 5.49-2.96 8.022-2.1 2.153.7 2.26.7 1.83-.16-.86-1.615-2.207-2.37-7.43-4.145-5.98-2-6.19-2-8.67-.92zm-20.56 1.29c-2.477 1.668-5.114 2.045-7.053 1.023-1.507-.808-1.668-.323-.43 1.29.646.81 2.1 1.67 3.39 1.993 1.24.323 3.393 1.076 4.793 1.614 3.23 1.346 6.137 1.346 8.344 0 4.47-2.69 1.67-7.535-4.307-7.535-1.73-.01-3.02.42-4.74 1.61zm12.97 5.87c-.27.592-.538 2.207-.538 3.66-.108 9.634-3.93 18.73-11.144 26.588-1.56 1.668-2.853 3.175-2.853 3.39 0 .54 8.075.377 9.152-.215.97-.484 1.076-.323 1.4 1.56.43 2.585 1.884 5.06 3.66 6.244 1.13.754 1.562.808 2.8.162 2.153-1.03 3.553-3.23 3.822-6.03.26-2.1.48-2.48 1.18-2.1.48.21 2.91.48 5.38.59l4.52.21-2.37-2.8c-4.47-5.28-5.92-7.27-7.7-10.77-2.48-4.79-3.5-8.56-3.93-14.26-.17-2.69-.54-5.38-.76-6.08-.54-1.46-1.88-1.56-2.64-.16zM4.287 375.78c-.27.592-.538 2.206-.538 3.66-.06 4.816-1.44 10.3-3.31 14.76.13 6.864.34 9.873-.14 16.563.43 2.584 1.88 5.06 3.66 6.244 1.13.753 1.56.807 2.8.16 2.15-1.022 3.55-3.228 3.82-6.027.27-2.1.48-2.476 1.18-2.1.48.216 2.9.485 5.38.593l4.52.215-2.37-2.798c-4.47-5.275-5.92-7.266-7.7-10.764-2.48-4.79-3.5-8.558-3.93-14.263-.16-2.69-.54-5.382-.75-6.082-.54-1.45-1.89-1.56-2.64-.16z"/>
<path d="M1050 523.04V700H286.06V512.18c.753 2.997 12.45 6.692 20.73 9.69 15.052 5.246 16.182 5.246 30.86-4.496 19.945-13.115 32.364-12.74 54.944 1.498 33.87 21.358 42.903 21.733 53.064 2.998 7.527-14.613 24.462-14.613 53.44.375 12.42 6.37 25.215 11.24 28.978 11.24 3.387 0 11.667-5.995 18.065-13.114 14.31-16.48 22.58-15.36 59.47 6 29.73 17.61 39.89 18.74 42.91 4.12 4.14-18.36 7.53-21.36 24.84-21.36 10.54.38 26.35 4.87 42.53 12.37 13.93 6.75 28.23 11.99 30.86 11.99 3.01 0 6.4-5.24 7.91-11.61 1.13-6.37 6.02-13.86 10.16-16.86 10.16-6.37 20.7-3.74 53.82 13.12 33.12 16.49 42.53 14.99 42.53-7.12 0-6.74 7.15-11.24 18.07-11.24 3.39 0 17.31 6.75 31.24 15.36 30.11 17.99 38.39 17.99 41.02-.37 2.64-18.73 15.06-19.11 47.42-2.24 24.12 13.12 51.12 18.41 51.12 10.54z" fill="#0091C8"/>
<path stroke-linejoin="round" d="M293.07 522.59c.753 2.998 8.656 7.494 16.935 10.49 15.054 5.247 16.183 5.247 30.86-4.495 19.946-13.114 32.365-12.74 54.945 1.5 33.87 21.356 42.903 21.73 53.064 2.996 7.527-14.61 24.462-14.61 53.44.38 12.42 6.37 25.215 11.24 28.98 11.24 3.386 0 11.665-5.99 18.063-13.11 14.3-16.48 22.58-15.36 59.46 6 29.732 17.61 39.893 18.74 42.904 4.12 4.14-18.36 7.53-21.35 24.84-21.35 10.54.38 26.35 4.87 42.53 12.37 13.93 6.75 28.23 11.99 30.86 11.99 3.01 0 6.4-5.24 7.91-11.61 1.13-6.37 6.02-13.86 10.16-16.86 10.16-6.37 20.7-3.74 53.82 13.12 33.12 16.49 42.53 14.99 42.53-7.12 0-6.74 7.15-11.24 18.07-11.24 3.39 0 17.32 6.75 31.24 15.36 30.11 17.99 38.39 17.99 41.02-.37 2.64-18.73 15.06-19.11 47.42-2.25 24.09 13.11 46.67 17.61 46.67 9.74" stroke="#FFF" stroke-linecap="round" stroke-width="8.762" fill="none"/>
<path stroke-linejoin="round" d="M289.92 513.3c.752 2.997 8.656 7.493 16.935 10.49 15.054 5.247 16.183 5.247 30.86-4.495 19.946-13.115 32.365-12.74 54.945 1.498 33.87 21.358 42.903 21.733 53.064 2.998 7.527-14.61 24.462-14.61 53.44.38 12.42 6.37 25.215 11.24 28.98 11.24 3.386 0 11.665-5.99 18.063-13.11 14.3-16.48 22.58-15.36 59.46 6 29.732 17.61 39.893 18.74 42.904 4.12 4.14-18.36 7.53-21.36 24.84-21.36 10.54.38 26.35 4.88 42.53 12.37 13.93 6.75 28.23 11.99 30.86 11.99 3.01 0 6.4-5.24 7.91-11.61 1.13-6.37 6.02-13.86 10.16-16.86 10.16-6.37 20.7-3.74 53.82 13.12 33.12 16.49 42.53 14.99 42.53-7.12 0-6.74 7.15-11.24 18.07-11.24 3.39 0 17.32 6.75 31.24 15.37 30.11 17.99 38.39 17.99 41.02-.37 2.64-18.74 15.06-19.11 47.42-2.25 24.09 13.12 46.67 17.61 46.67 9.74" stroke="#000" stroke-linecap="round" stroke-width="8.762" fill="none"/>
<path d="M359.14 574.34c-6.447 4.126-5.73 4.444 5.73 2.857 9.672-1.27 16.12.317 29.015 7.618 24.715 14.283 35.103 15.236 51.58 5.078 19.7-11.744 27.58-13.966 42.983-10.792 11.82 2.23 12.895 2.23 8.24-1.9-10.03-9.2-29.73-9.2-47.283 0-20.06 10.16-29.73 10.48-52.296.32-20.41-9.2-27.93-9.84-37.97-3.17zm369.66 9.52c-13.61 7.936-28.655 14.284-33.67 14.284s-20.417-6.03-34.03-13.33c-23.28-12.38-25.43-13.015-36.176-9.206-29.73 10.792-49.073 14.283-63.4 10.792-16.478-3.81-17.91-1.27-3.583 6.348 13.97 7.3 26.15 6.983 53.38-1.587 22.57-6.98 22.93-6.98 34.03-.95 44.78 23.81 57.67 25.08 80.95 8.57 26.87-19.04 37.97-20.63 76.3-9.52 22.93 6.67 24.72 6.67 35.82 1.91l11.82-5.39h-14.69c-8.24-.32-25.79-3.81-38.68-8.25-13.25-4.44-28.29-7.93-33.67-7.93-5.72.01-20.41 6.04-34.38 14.29zm210.62-1.59c-4.298 1.587-8.955 4.127-10.388 6.03-2.865 4.445-21.49 4.445-31.52 0-6.09-2.538-5.732-1.586 2.148 4.762 12.18 9.84 21.134 10.475 36.894 1.905 11.104-6.348 12.537-6.348 25.074-1.587 21.134 7.618 25.074 5.396 8.24-4.76-16.84-10.16-18.99-10.47-30.45-6.35zm-112.47 41.27c-10.388 6.983-22.925 12.697-27.58 12.697-4.3 0-17.91-4.444-29.373-9.84l-21.492-10.157-13.61 6.983c-7.523 3.81-17.91 8.57-23.284 10.475-5.73 2.22-10.02 5.078-10.02 6.348 0 4.76 11.46 2.54 27.22-5.714 17.55-9.205 27.58-8.57 44.78 1.905 23.64 15.236 31.17 14.6 57.31-3.81 16.48-11.743 27.94-12.06 55.88-1.27 20.78 7.62 23.28 7.937 34.03 3.81l11.82-4.444-12.54-.317c-6.8-.317-22.92-4.76-35.1-9.84-12.53-5.396-26.5-9.522-30.8-9.522-4.3-.01-16.83 5.7-27.22 12.69zm-293.36 1.58c-16.835 13.65-27.58 13.967-45.133 1.587-16.118-11.427-26.864-11.744-48.356-1.587-12.17 5.714-14.68 7.936-10.02 9.523 3.23 1.27 10.75-.318 16.84-2.857 15.76-7.3 23.64-6.348 43.7 6.03 10.03 6.032 19.7 11.11 21.14 11.11s9.32-4.443 17.56-9.522c25.08-16.188 30.09-16.823 54.45-7.935 22.21 8.57 28.66 7.93 39.41-3.5 4.66-5.08 4.3-5.08-2.86-1.91-11.46 5.39-19.7 4.76-41.19-4.13-24.72-10.16-29.02-10.16-45.49 3.17zm-195.58 20.95c-4.3 1.904-9.672 6.03-11.82 9.522-4.3 5.714-3.94 6.03 2.507 3.174 8.954-4.443 24.357-4.443 27.222 0 1.43 1.905 8.95 7.618 16.83 12.697 18.62 11.744 34.03 12.062 53.01.952 14.33-8.253 24-8.887 44.77-2.857 5.01 1.588 4.3-.317-3.58-6.03-13.62-10.475-27.58-10.475-48.36 0-18.99 9.522-25.43 8.57-49.07-8.253-19.7-13.65-20.41-13.97-31.52-9.21zm256.11 14.29c-6.806 4.444-15.044 9.205-17.91 10.793-2.865 1.587-4.298 3.49-3.224 4.443 1.075 1.27 9.672-1.587 18.985-6.03 9.32-4.444 19.71-7.936 22.93-7.936 3.58 0 13.97 5.714 24 13.014 19.7 14.284 25.79 14.6 48 .952 16.48-9.84 20.06-9.522 39.76 1.905 20.42 12.07 28.66 12.07 53.01-.31 21.85-10.79 29.73-10.47 51.58 2.22 7.52 4.13 16.12 7.62 18.99 7.62 8.24 0 24-7.93 32.24-15.87l7.17-6.98-12.53 6.67c-16.83 8.89-27.22 8.25-48.35-2.86-22.56-11.74-29.01-11.74-48.71 0-20.06 11.75-30.44 12.06-50.15 0-20.06-11.74-30.44-12.06-48.35 0-17.55 11.75-21.85 11.75-37.25.64-14.68-10.79-26.5-16.5-32.95-16.5-2.5.32-10.38 3.81-17.19 8.26z" fill="#FFF"/>
<path fill="#DC241F" d="M.248.1h286v233.243h-286z"/>
<path d="M286.3 29.264L286.047 0l-34.75.36L.427 203.452l-.13 29.89 35-.152 251-203.928v.002z" fill="#009543"/>
<path d="M.297 29.264L.55 0l34.742.36 250.88 203.092.13 29.89-35.01-.15L.3 29.26l-.004.003z" fill="#009543"/>
<path fill="#FFF" d="M.036 140.137L0 93.454l286.3-.25.03 46.68z"/>
<path fill="#FFF" d="M119.85.03L167.33 0l.25 233.603-47.48.03z"/>
</svg>
