<svg viewBox="0 0 30 15" xmlns="http://www.w3.org/2000/svg">
<clipPath id="a">
<path d="M0 0v75h350v75h-50zm300 0H150v200H0v-50z"/>
</clipPath>
<path fill="#00247D" d="M0 0h30v15H0z"/>
<path stroke="#fff" stroke-width="1.5" d="M0 0l15 7.5M15 0L0 7.5"/>
<path stroke="#cf142b" stroke-width="20" d="M0 0l300 150m0-150L0 150" clip-path="url(#a)" transform="scale(.05)"/>
<path stroke="#fff" stroke-width="2.5" d="M7.5 0v10M0 3.75h17.5"/>
<path stroke="#cf142b" stroke-width="1.5" d="M7.5 0v10M0 3.75h17.5"/>
<path d="M15 0v7.5H0V15h30V0z" fill="#00247d"/>
<g stroke="#000" stroke-width=".015" fill="#F7E017">
<path d="M20.018 7.954c-.32.27-.625.667-.7 1.025-.21 1-.49 1.23-.923 1.01 0 .54.474.58.682.26 0 .5.184.94.6 1.32.174.16.207.05.124-.13s-.08-.74-.24-1.07c.27.19.66.08.63-.44-.34.2-.68.19-.71-.29-.04-.56.18-1.37.56-1.72zm-.405-4.004c.023-.2-.02-.406-.166-.535-.282-.248-.558-.166-.764.034-.308-.17-.47.42-.82.32.058.19.15.27.324.21-.183.16 0 .36-.216.56.4.12.6-.09.59-.47a.36.36 0 0 0 .51-.03c-.2-.07-.21-.25-.12-.42.13-.25.71-.24.68.31z"/>
<path d="M20.515 6.842c-.44.233-1.247.133-1.322-.44s.482-.833.632-.907c.233-.117.416.09.34.333a.377.377 0 0 0 .192-.565c.34.025.657-.233.79-.6-.12.115-.446.038-.714.02.083-.09.082-.268.057-.36-.282.29-.69.157-1.23.997.083-.29.24-.873.333-1.256a.748.748 0 0 0 .02-.115c.033-.55-.552-.56-.677-.31.137.15.065.33.016.6-.058.32-.183 1.07-.29 1.32-.034-.39-.292-.42-.342-.61-.075.05-.116.18-.1.27-.092-.1-.408.02-.524-.13-.125.25.075.5.283.6-.13 0-.15.15-.29.15.18.21.36.29.57.31s.37.09.5.35c.2.42 1 .69 1.74.31z" fill="#337321"/>
<path d="M21.613 6.334c-.25.69-.93 1.18-1.24 1.256-.523.127-1.59.646-1.877.913a.332.332 0 0 1-.118-.048c-.14-.1-.258-.424-.008-.7.782-.73 1.622-.415 2.146-.914-.44.24-1.247.14-1.322-.44a2.03 2.03 0 0 0 2.012-.6c.09.11.357.42.407.54z"/>
<path d="M20.018 7.954c-.395.335-.6 1.158-.558 1.715.012.15.055.26.12.32.03-.32.25-1.14.81-1.5.475-.31 1.215-1 1.49-1.79a.634.634 0 0 0-.29-.34c-.274.74-1.003 1.1-1.572 1.58z" fill="#337321"/>
<path d="M21.36 6.014c-.142.212-.463.503-.77.62a.403.403 0 0 0 .09-.25c-.39.15-1.172.134-1.488.018a2.03 2.03 0 0 0 2.012-.6c.068.075.126.14.155.212z" fill="#316D3A"/>
<path d="M18.37 7.756c-.636.595-.216 1.114.033 1.23-.066.417.324.367.316.716.15-.09.2-.333.17-.524.2.216.7-.025.81.374.06-.44-.28-.88-.7-.84.17-.158.07-.416-.09-.482-.04.324-.4.324-.54.225-.15-.1-.26-.424-.01-.7z" fill="#337321"/>
<path d="M19.746 11.54c-.07.04-.064.13-.02.187.086.116-.063.38.22.437.082.017.146-.034.178-.13.087-.26-.19-.29-.216-.415s-.104-.12-.162-.08z"/>
<path d="M19.983 12.03c-.093.044-.175.105-.137.404.015.124.008.424-.1.428.066.033.208.07.266-.008.056.094.183.067.233-.05.066.054.158-.037.158-.116.058.037.175-.017.145-.195.07.025.162-.025.195-.07-.104-.022-.366-.163-.428-.275-.062-.113-.224-.167-.332-.117z"/>
<path d="M18.542 3.62c.042-.062.09-.12.14-.17m1.442 1.27c.073-.04.185-.046.31-.038m-.422 8.172c-.03-.042-.04-.216-.02-.322m.253.272a.493.493 0 0 1-.148-.262m.306.146c-.058-.027-.2-.21-.23-.328m.375.132a.825.825 0 0 1-.366-.297" fill="none"/>
<path d="M24.382 7.765c1.023.857 1.09 1.538.93 1.938-.082-.374-.506-.956-.947-1.106l.017-.832z"/>
<path d="M22.553 7.282h1.896v2.245c0 1.913-1.07 3.044-2.15 3.642-1.08-.6-2.15-1.73-2.15-3.65V7.28h1.33a.73.73 0 0 0 .15.466c.31-.03.67-.266.91-.466z" fill="#337321"/>
<path d="M24.45 7.282v2.245c0 .577-.098 1.084-.263 1.525l-1.883-3.455-1.883 3.455a4.327 4.327 0 0 1-.26-1.525V7.282h4.29z" fill="#006EC7"/>
<path stroke="none" d="M24.244 10.887a4.274 4.274 0 0 1-.14.37l-1.8-3.347-1.8 3.346a3.97 3.97 0 0 1-.14-.37l1.94-3.597 1.94 3.59z"/>
<path d="M23.16 12.118c.05.025.14.07.182.088.1-.2.116-.482.083-.732-.108.275-.474.266-.574.432.07.03.12.07.17.106-.12.125-.41.334-.58.384v-1.784c0-.125-.04-.23-.04-.333v-.37c0-.09-.01-.21-.09-.21-.07 0-.09.12-.09.2v.37c0 .1-.04.22-.04.33v1.78c-.09-.27-.45-.18-.61-.44a.466.466 0 0 1 .2-.01c-.12-.43-.46-.46-.53-.58 0 .17-.07.58.05.75a.437.437 0 0 1 .12-.09c.14.3.78.31.93.81.12-.19.55-.4.85-.73z"/>
<path d="M22.303 10.634c.14 0 .59-.046.753-.046.042 0 .077-.063.077-.14s-.034-.142-.077-.142c-.162 0-.61-.046-.753-.046-.14 0-.59.046-.753.046-.042 0-.077.063-.077.14s.034.142.077.142c.163 0 .612.046.753.046zm-.09-.73a.18.18 0 0 0-.114-.04c-.1 0-.18.07-.18.156s.07.156.17.156c.09 0 .17-.07.17-.156 0-.067.1-.067.1 0 0 .135-.12.244-.27.244-.15 0-.27-.11-.27-.244s.12-.244.26-.244a.3.3 0 0 1 .12.027.62.62 0 0 0-.01.1z"/>
<path d="M21.55 10.588c.043 0 .077-.063.077-.14s-.034-.142-.076-.142"/>
<path d="M21.613 10.588c.042 0 .076-.063.076-.14s-.04-.142-.08-.142m.41.31c.05 0 .09-.075.09-.17s-.04-.17-.09-.17m.09.348c.05 0 .09-.08.09-.178s-.04-.178-.1-.178m.32.358c.05 0 .09-.08.09-.18s-.05-.18-.1-.18m.1.354c.05 0 .09-.077.09-.173s-.05-.174-.1-.174m.45.317c.04 0 .08-.064.08-.144s-.04-.144-.08-.144m-1.61 1.728a.6.6 0 0 1 .17-.074m1.51.09l-.05-.034m.14.106a1.19 1.19 0 0 0 .26-.428"/>
<path d="M21.922 8.87c0-.04.033-.058.072-.087.047-.035.066-.052.108-.052h.546c.04 0 .05.01.05.05v.74c0 .04-.01.05-.05.05h-.726v-.7" fill="#FFF"/>
<path d="M22.513 9.633c.072 0 .06-.002.11-.052.052-.05.047-.04.047-.09v-.68c0-.03-.01-.04-.046-.04h-.505c-.04 0-.06.02-.1.05-.04.03-.07.05-.07.08v.74h.56z" fill="#E5E5E5"/>
<path d="M22.567 9.617c0 .037-.01.048-.05.048h-.546c-.04 0-.04-.01-.04-.048v-.742c0-.037.01-.048.05-.048h.55c.04 0 .05.01.05.048v.742z" fill="#FFF"/>
<path d="M23.625 6.847a.42.42 0 0 1 .083.434h-.158c.066-.2.025-.39-.258-.41-.423-.03-.915.78-1.655.88-.216-.25-.205-.75.07-.98-.142-.41-.44-.86-.65-1.05a2.03 2.03 0 0 0-.393-.02c.108-.23.416-.48.666-.58.04-.06.084-.11.124-.16.025-.32 1.547-.17 1.87.03.002.36.143 1.56.3 1.88z" fill="#96877D"/>
<path d="M21.78 7.066a2.025 2.025 0 0 0-.574-1.322c.15.042.457.042.665-.108.28-.183.99-.503 1.26-.366a.4.4 0 0 1 .02.216c-.06-.166-.75.09-.94.17-.18.087-.27.204-.2.466-.11-.09-.07-.18-.18-.245.05.108.08.303.1.46-.04-.11-.11-.352-.28-.494.15.274.27.933.21 1.283.11 0 .36-.11.46-.19-.09.126-.34.213-.5.246-.07.087-.12.312-.12.437-.01-.16.04-.53.12-.56zm1.845-.22c-.138-.152-.395-.235-.723-.146.05-.025.158-.067.254-.083-.012-.087-.09-.462-.104-.553l.092-.037c.046.225.104.482.14.586.03.008.097.02.155.05a7.874 7.874 0 0 1-.17-.782l.12-.06c.05.34.13.84.22 1.04z" stroke="none" fill="#000"/>
<path d="M23.55 7.282c.067-.2.026-.39-.257-.415-.22-.02-.457.194-.738.415h.996zM21.713 5.49a1.648 1.648 0 0 1-.545-.054.64.64 0 0 1 .04-.118c-.086.058-.252.172-.315.25.2.043.612.064.82-.078z" fill="#96877D"/>
<path d="M21.708 6.766c.046.133.076.26.08.375m-.458-2.03a1.06 1.06 0 0 0-.162.33c.14.05.42.07.545.06" fill="none"/>
<path d="M21.06 5.713c.053.01.103.02.146.03.15.043.457.043.665-.107s.78-.615 1.42-.665" fill="none"/>
<path d="M20.894 5.57c.2.04.612.06.82-.08.48-.328.947-.52 1.413-.545" fill="none"/>
<path d="M24.382 7.765c.698.482 1.214.948 1.364 1.696s.433.95.782.75c-.083.43-.516.48-.88.15.032.5-.167 1.1-.683 1.32-.033-.3.165-.53.108-.78-.025-.1-.033-.35.108-.47-.27.09-.7-.08-.74-.49.32.15.73.18.88-.22.16-.39.09-1.08-.93-1.93zm.882-3.892c.216-.565.782-.507.973-.266.557-.316.632.4 1.106.258-.008.133-.166.258-.34.25.182.165-.076.415.315.564-.333.16-.798-.01-.923-.47-.108.21-.5.21-.657.04.34-.09.316-.41.125-.53-.193-.13-.533-.08-.6.15zm-1.687 1.245c.155.5.476.966.822 1.283.39.37 1 .28 1.33-.07.01.7-.72.75-1.12.53-.18-.09-.32-.04-.15.11.26.24.82.41 1.49.55 1.16.25.75 1.17.41 1.17.09 0 .17-.1.03-.23-1.01-.91-3.07-.55-3.03-2.58-.22.53-1.11.33-.69-.31.13.11.36.12.43-.05.05-.13.01-.35-.22-.54.04 0 .12 0 .11-.09.01.06.06.14.19.11.03.06.07.1.13.08.01 0 .04-.02.03-.08.01.12.14.16.21.15z" fill="#337321"/>
<path d="M24.623 6.858c.482.316 1.028.316 1.53-.266.158-.183.407-.34.582-.358s.166-.183.3-.216c-.084-.025-.117-.125-.242-.112.312-.108.22-.358.374-.478-.125.046-.32-.14-.5.096.047-.108-.016-.237-.06-.287.016.125-.246.15-.296.466-.02.177-.12.166-.14-.108-.01-.2-.1-.757-.22-1.04-.11-.282-.14-.67.02-.728a.308.308 0 0 0-.09-.102c-.19-.126-.53-.075-.6.15-.21.565.39.89.34 1.505-.09-.457-.83-.574-.82-1.023-.24.108-.2.308-.11.466-.15-.233-.49.15-.78-.166-.03.416.33.574.63.59-.15.266.05.49.25.565.01-.466.96-.275.97.524.01.68-.72.738-1.11.522zm1.34.657c1.163.25.75 1.173.407 1.164-.217-.01-.424-.19-.437-.35-.25.13-.183.39.008.5-.52-.07-.74.28-.75.66.1-.18.39-.19.5-.15s.39.06.5-.07c-.09.08.06.26-.07.4.44-.02.63-.43.55-.61.57-.52.46-1.36-.69-1.56zm-.887 3.95c.076.048.066.148.015.21-.1.127.06.428-.26.48-.09.014-.16-.046-.19-.153-.08-.296.23-.316.26-.455.04-.138.12-.12.19-.08z"/>
<path d="M24.79 12.003c.102.052.19.124.136.456-.023.13-.028.47.093.48-.08.03-.24.06-.3-.02-.07.1-.21.06-.26-.07-.08.05-.18-.05-.17-.14-.07.04-.2-.03-.16-.23-.08.02-.18-.04-.22-.09.11-.02.41-.17.49-.29a.3.3 0 0 1 .37-.12z"/>
<path d="M24.72 12.92c.035-.044.055-.24.036-.358m-.292.293a.545.545 0 0 0 .176-.286m-.348.14c.066-.03.232-.23.272-.36m-.426.13a.933.933 0 0 0 .42-.32" fill="none"/>
<path d="M23.376 5.87c-.014.85.34 1.283.83 1.563-.18-.11-.102-.483-.348-.604.058-.01.15.07.295.04-.07-.16-.187-.4-.457-.43.07-.01.225.01.324-.02-.14-.22-.515-.12-.644-.56zm-.088-.812c-.03-.01-.055-.04-.08-.08-.13.03-.182-.054-.192-.11.008.096-.074.092-.113.095.234.194.268.42.216.548-.07.17-.3.16-.44.05-.02.36.44.47.6.03 0 .08.09.07.12.17.12-.19.03-.46-.13-.69z"/>
<path d="M22.557 3.37a.994.994 0 0 1-.295-.694c.008-.183.083-.383.35-.3-.084 0-.026.167-.113.184.07.025.16-.033.17-.07.01.057.12.04.13.107.04-.033-.01-.195-.07-.23.04-.024.07-.153.05-.215-.04.008-.11.067-.12.15.02-.067-.01-.233-.13-.258a.224.224 0 0 0 0 .22c-.11-.025-.27.046-.31.137.01-.11.02-.26.09-.36.02-.03-.04-.09-.08-.01-.08-.16-.3-.24-.4-.16s-.22-.03-.3.09c-.08.13-.35.14-.34.27.01.08-.01.2-.05.25-.1.11.04.19.07.29-.02-.31.48-.93.99-.69a1.15 1.15 0 0 0-.1.43c-.02.29.02.69.29.92l.11-.03z" fill="#337321"/>
<path d="M22.706 2.38c-.003-.075.127-.172.3-.17.21.002.373.193.54.175.17-.02.086.075.05.1s-.055.062-.043.108-.01.076-.077.033c-.15-.094-.3.037-.497-.035-.17-.06-.27-.09-.28-.21z" fill="#CF142B"/>
<path d="M21.85 4.343c-.083-.262-.4-.55-.553-.615l-.008-.14c.08-.034.28-.192.37-.28.62.3 1.47-.125 1.86-.565l.15.09-.08.1-.08-.04a4.777 4.777 0 0 1-.56.522c.14.037.34.062.4.06.35-.25.62-.475.75-.492l.11.15-.1.07-.08-.045c-.38.308-.8.98-.97 1.43-.23-.05-1.07-.017-1.24-.245z" fill="#96877D"/>
<path d="M22.96 3.415a.607.607 0 0 1-.128-.045c-.067.062-.233.116-.445.125" fill="none"/>
<path d="M21.883 4.25c-.056-.31.033-.652.19-.756.346.23.937.23 1.286-.02" fill="none"/>
<path d="M21.883 4.09c.266-.01.844.036.985.057s.378.08.345.15m-1.207-.252l.077-.076-.077-.08-.076.07.076.07z" fill="none"/>
<path d="M22.187 2.497c-.096-.133-.36-.175-.416.004-.02.08-.06.17-.12.2-.06.04-.05.16-.02.2.07.13.01.24.14.32 0-.09.14-.19.26-.22s.31-.13.33-.25c.03-.12.07-.22-.16-.24z" fill="#337321"/>
<path d="M21.588 3.694h.033l.01.227a.075.075 0 0 1 .02.01l.2-.11.02.03-.19.12V4l.2.113-.01.03-.2-.113a.047.047 0 0 1-.02.01v.225h-.03v-.23a.075.075 0 0 1-.02-.01l-.19.114-.01-.03.2-.11v-.03l-.19-.12.01-.03.2.11a.047.047 0 0 1 .02-.02V3.7z" fill="#96877D"/>
<path d="M21.884 4.25a.393.393 0 1 1 .033-.517.887.887 0 0 0-.046.21.27.27 0 1 0-.26.297.276.276 0 0 0 .27-.202c0 .052.01.17.02.212z" fill="#96877D"/>
<path d="M21.438 4.625c-.025-.03-.07-.108-.066-.166a.217.217 0 0 1 .14.05c-.003-.04-.02-.14-.01-.18a.38.38 0 0 1 .174.13.603.603 0 0 1-.008-.22c.05.03.133.11.15.16a.716.716 0 0 1 .058-.26c.037.03.096.07.133.12 0-.07.04-.15.09-.17a.483.483 0 0 1 .1.24.396.396 0 0 0 .11-.11.24.24 0 0 1 .03.16c.04-.04.1-.1.11-.15a.32.32 0 0 1 .11.15c-.01-.05-.01-.15-.02-.2a.24.24 0 0 1 .12.15.514.514 0 0 1 .08-.19.455.455 0 0 1 .06.21c.02-.04.05-.12.08-.13.03.04.02.14.01.2a.4.4 0 0 1 .11-.11.348.348 0 0 1 0 .11.54.54 0 0 0 .12-.19.29.29 0 0 1 .12.17.452.452 0 0 0 .15-.14c0 .03.01.1-.01.17a.467.467 0 0 0 .06-.1.403.403 0 0 1-.02.19.22.22 0 0 1 .12-.06c0 .07-.05.19-.09.29-.4-.11-1.24-.16-2.08-.2z" fill="#337321"/>
<path stroke="none" d="M22.83 2.423c-.002-.03.066-.1.19-.1.146.002.282.11.4.102.117-.008.06.03.034.04s-.04.027-.03.045c.008.02-.007.03-.055.014-.11-.038-.21.015-.35-.014-.12-.027-.19-.04-.19-.087z"/>
<path d="M21.567 4.875c-.125.15-.25.125-.274.03s.067-.142.033-.226c-.033-.09.054-.13.096-.09.042.03.175-.09.233.04s.104.21.07.26c-.033.05-.133.02-.158-.03zm.536-.225c-.023-.055.106-.16.173-.085s.17-.08.23.037c.057.12.076.18.105.247.03.06-.15.1-.21.04.01.04-.16.07-.21-.04a3.43 3.43 0 0 0-.08-.2zm.865.07c-.03-.06.12-.142.2-.036.02-.044.17-.052.18.075l.02.25c.004.05-.09.09-.16-.03-.123.02-.18-.05-.193-.12a.54.54 0 0 0-.047-.15z"/>
<path d="M21.648 4.636c-.02-.042.106-.125.19-.062.086.062.204-.054.255.058.102.227.108.243.077.287s-.164.02-.198-.04c-.006.04-.12.03-.18 0-.07-.04-.117-.18-.144-.25zm.875.01c-.03-.064.166-.12.252-.008.044-.04.14-.042.193.08s.062.192.023.223c-.02.03-.12.04-.16-.01-.04.03-.18.01-.22-.07a1.733 1.733 0 0 0-.08-.2zm.827.124c-.003-.06.103-.086.142 0 .04.084.166.007.177.15 0 .026-.02.13-.06.18s-.24 0-.25-.106a2.42 2.42 0 0 1-.02-.225z" fill="#337321"/>
<path d="M21.567 4.875c-.046-.062-.108-.162-.187-.054m.593.07a.49.49 0 0 1-.075-.14m.497.15a.345.345 0 0 1-.095-.1m.05-.11c.07.01.12.08.142.11.023.03.07.09.11.1m.22.05a.417.417 0 0 1-.06-.1m.003-.18a.483.483 0 0 1 .06.1m.373.24a.345.345 0 0 0-.13-.14m.113-.08c.01.12.17.13.18.22m.13-.19c.02.03.03.06.03.11" fill="none"/>
</g>
</svg>
