<svg xmlns="http://www.w3.org/2000/svg" viewBox="0 0 600 330">
<path fill="#0038a8" d="M0 0h600v330H0z"/>
<path fill="#fff" d="M0 0h600v220H0z"/>
<path fill="#d52b1e" d="M0 0h600v110H0z"/>
<g stroke="#000" fill="none">
<circle cx="300" cy="165" stroke-width="1.076" r="42.2"/>
<circle cx="300" cy="165" stroke-width=".478" r="34.67"/>
<circle cx="300" cy="165" stroke-width=".438" r="26.56"/>
</g>
<path d="M277.53 181.28l-4.893 2.905-1.496-2.52c-.27-.467-.44-.848-.51-1.142a1.326 1.326 0 0 1 .09-.862c.13-.28.35-.51.66-.69.27-.16.54-.24.81-.24s.52.07.77.2c.16.08.33.22.51.42a1.753 1.753 0 0 1-.05-.5 1.73 1.73 0 0 1 .12-.39 2.15 2.15 0 0 1 .18-.39l.98-1.57 1.02 1.71-1.01 1.7c-.13.22-.2.39-.21.5a.74.74 0 0 0 .11.44l.08.14 1.99-1.18zm-3.812.21l-.38-.638a2.65 2.65 0 0 0-.303-.36.465.465 0 0 0-.3-.155.526.526 0 0 0-.34.074c-.157.1-.25.22-.274.37s.05.37.21.64l.4.67zm-4.608-3.78l-1.487-4.47 1.153-.385.93 2.8.86-.286-.865-2.6 1.11-.37.87 2.59 1.07-.36-.95-2.88 1.23-.41 1.51 4.55zm-1.95-6.65l-.332-2.904c-.073-.632.024-1.123.288-1.472.265-.35.675-.556 1.23-.62.57-.065 1.037.055 1.397.362.36.306.582.812.662 1.516l.11.957 2.098-.25.2 1.75zm2.21-2.03l-.05-.428c-.038-.337-.124-.567-.256-.69a.57.57 0 0 0-.473-.153.632.632 0 0 0-.43.22c-.11.13-.14.36-.11.69l.06.5zm-2.39-8.65l.188-1.744 3.373.363c.34.03.65.12.94.25.29.13.53.33.73.57s.33.49.4.75c.09.35.11.77.06 1.24a8.09 8.09 0 0 1-.15.89 2.37 2.37 0 0 1-.32.79c-.13.21-.32.39-.55.55a1.8 1.8 0 0 1-.69.3c-.37.07-.69.09-.97.06l-3.37-.36.19-1.75 3.46.37c.31.03.56-.03.75-.18.19-.15.31-.38.34-.69.03-.3-.03-.55-.18-.74-.15-.19-.38-.3-.7-.34zm.76-4.17l1.086-3.107c.18-.518.448-.87.802-1.058a1.32 1.32 0 0 1 1.098-.083c.317.11.555.305.713.582.1.185.15.42.15.705.23-.36.48-.59.77-.69.29-.11.6-.1.94.02a1.515 1.515 0 0 1 1.02 1.17c.03.16.01.39-.05.69a7.575 7.575 0 0 1-.19.77l-1 2.86zm2.692-.938l.253-.722c.09-.26.108-.455.055-.587-.054-.133-.165-.228-.334-.287-.156-.055-.296-.047-.42.024s-.228.23-.316.483l-.256.733zm2.11.738l.297-.847c.09-.286.11-.505.05-.657a.543.543 0 0 0-.35-.32c-.16-.055-.31-.04-.45.04s-.26.27-.36.56l-.3.843zm-2.112-6.64l.908-1.505 3.673 2.216 1.42-2.35 1.2.73-2.32 3.86zm3.44-5.21l1.128-1.354 4.37 3.643-1.127 1.35zm7.65-2.94l1.472-.65c.203.394.315.774.335 1.14.02.364-.047.71-.2 1.037-.155.327-.425.656-.812.988-.47.403-.91.665-1.325.784-.415.11-.878.09-1.39-.06-.51-.16-.995-.51-1.456-1.04-.614-.72-.896-1.43-.846-2.14.05-.71.423-1.37 1.118-1.96.543-.47 1.065-.73 1.565-.77.5-.05 1.03.09 1.57.41l-.95 1.27a1.33 1.33 0 0 0-.37-.18 1.012 1.012 0 0 0-.47 0 1.02 1.02 0 0 0-.43.23c-.3.26-.43.58-.38.96.04.28.22.62.55 1 .41.48.77.74 1.07.8.3.05.58-.04.84-.26s.39-.46.4-.71c.01-.26-.07-.55-.25-.87zm6.06-2.18l-1.767.942.198.96-1.58.844-.79-6.027 1.69-.91 4.57 4.01-1.62.86zm-.904-.912l-1.517-1.51.41 2.1zm5.374-5.828l2.574-.445c.508-.087.93-.09 1.265-.006a2 2 0 0 1 .87.46c.25.22.45.49.6.82.15.32.26.68.32 1.06.1.6.11 1.07.03 1.43a2.36 2.36 0 0 1-.43.93 1.88 1.88 0 0 1-.71.58 4.08 4.08 0 0 1-1.01.33l-2.58.44zm1.952.97l.53 3.064.424-.073c.362-.06.612-.14.752-.25s.234-.27.286-.48c.052-.21.04-.54-.038-.99-.102-.59-.27-.98-.5-1.17-.233-.18-.573-.24-1.022-.16zm5.358-1.95l4.708.2-.052 1.215-2.947-.126-.04.9 2.73.11-.05 1.16-2.74-.12-.05 1.12 3.03.13-.06 1.29-4.8-.21zm6.85.54l1.708.418-1.02 4.166 2.666.653-.333 1.36-4.37-1.07zm9.13 3.03l2.516 1.487c.548.324.88.697 1 1.12.12.42.036.873-.248 1.354-.293.5-.67.8-1.132.9-.462.11-.998-.02-1.608-.38l-.83-.49-1.073 1.82-1.52-.9zm.286 2.987l.37.22c.292.172.527.242.705.21a.57.57 0 0 0 .41-.284.632.632 0 0 0 .08-.482c-.04-.16-.2-.33-.48-.5l-.43-.25zm4.934 6.633l-1.467-1.364-.84.5-1.317-1.224 5.44-2.71 1.405 1.306-2.3 5.623-1.34-1.25zm.568-1.152l.933-1.926-1.85 1.072zm.682 3.782l4.692-3.22 1.658 2.417c.307.448.504.817.59 1.106.085.29.074.58-.034.866-.11.28-.313.53-.61.74a1.6 1.6 0 0 1-.79.29 1.56 1.56 0 0 1-.773-.14 2.13 2.13 0 0 1-.534-.38c.06.21.08.37.08.49 0 .08-.03.21-.09.4a2.237 2.237 0 0 1-.15.4l-.88 1.63-1.13-1.64.9-1.76c.12-.23.18-.4.18-.51a.738.738 0 0 0-.14-.43l-.09-.13-1.91 1.31zm3.79-.46l.42.613c.045.066.154.18.327.34a.465.465 0 0 0 .31.134.524.524 0 0 0 .333-.095c.152-.104.235-.232.25-.384.016-.15-.068-.36-.25-.624l-.436-.637zm1.76 8.52l-.742-1.86-.975.092-.666-1.67 6.078-.122.71 1.78-4.492 4.096-.682-1.708zm1.006-.798l1.667-1.343-2.13.17zm1.484 6.218l1.17-.175.403 2.687-2.4.36c-.427-.463-.734-.882-.92-1.26-.185-.375-.32-.835-.4-1.377-.1-.668-.067-1.23.097-1.685.165-.455.455-.832.87-1.13.417-.3.917-.493 1.5-.58.614-.092 1.167-.045 1.66.14a2.49 2.49 0 0 1 1.2.958c.24.355.407.854.504 1.5.093.62.106 1.094.04 1.42a1.832 1.832 0 0 1-.41.846 2.33 2.33 0 0 1-.83.593l-.552-1.632a.92.92 0 0 0 .435-.425c.088-.182.113-.4.075-.656-.057-.382-.235-.666-.534-.853-.3-.18-.735-.23-1.308-.15-.61.09-1.027.27-1.254.54-.227.27-.31.61-.248 1.02.03.2.085.38.168.55.082.17.21.36.378.57l.53-.08zm3.72 8.26l-.156 1.748-3.38-.302a2.86 2.86 0 0 1-.934-.24 2.06 2.06 0 0 1-.737-.56 1.967 1.967 0 0 1-.407-.745c-.096-.35-.123-.76-.08-1.24a7.53 7.53 0 0 1 .138-.89 2.37 2.37 0 0 1 .303-.79 2.08 2.08 0 0 1 .542-.56 1.75 1.75 0 0 1 .68-.31 3.4 3.4 0 0 1 .97-.07l3.38.3-.16 1.75-3.46-.31c-.31-.03-.56.04-.75.19-.19.16-.3.39-.33.69-.03.31.04.55.19.74.15.19.39.3.7.33zm-6.29 6.02l.626-1.903-.807-.555.56-1.707 4.73 3.81-.6 1.82-6.07.255.57-1.748zm1.284.034l2.14.042-1.748-1.233zm2.036 4.626l-1.004 1.675-2.238-.002 1.057 1.973-.998 1.664-1.7-3.597-2.043-1.226.906-1.51 2.044 1.224z"/>
<g stroke="#000" stroke-width=".1" fill="#009b3a">
<path d="M305.58 145.3s16.052 6.916 13.25 21.207-11.74 14.195-15.245 15.775c-3.504 1.58-5.922 3.84-7.305 3.523-1.382-.316-3.21-1.383-3.21-1.383s-.146 2.347 2.668 2.775 6.515-3.705 8.292-4.164c1.777-.46 12.688-1.644 15.343-16.185 3.098-15.522-13.693-21.092-13.792-21.548z"/>
<path d="M313.68 148.34a2.204.522 75.104 0 1-1.057.08 2.204.522 75.104 1 1 1.057-.08z"/>
<path d="M313.13 148.49a2.27.506 63.335 1 1-.957.35 2.27.506 63.335 0 1 .957-.35zm-1.61 1.06a2.15.535 17.053 0 1-.1 1.086 2.15.535 17.053 0 1 .1-1.086z"/>
<path d="M311.76 148.96a2.26.51 34.225 1 1-.462.916 2.26.51 34.225 1 1 .462-.916z"/>
<path d="M312.44 148.68a2.3.5 46.194 1 1-.7.716 2.3.5 46.194 0 1 .7-.716z"/>
<path d="M313.56 150.7c.01.01-.62.35-.762.4-.142.05-.335-.19-.744.02-.41.21-.69.593-.78.818-.09.225.116.32.61.08.496-.242.626-.622.864-.772.24-.15.64-.37.867-.45.098-.215.418-.676.584-.94.16-.266.81-.703 1.05-1.212.2-.42.13-.78-.15-.63-.28.15-.64.573-.8.877-.17.31-.03.7-.21.98-.15.21-.5.84-.54.84zm4.97 1.64a3.305.742 88.415 1 1-1.49-.357 3.305.742 88.415 1 1 1.49.357z"/>
<path d="M317.7 152.31a3.443.712 77.49 1 1-1.442.072 3.443.712 77.49 1 1 1.442-.072z"/>
<path d="M315.13 153.11a3.207.764 34.91 1 1-.5 1.51 3.207.764 34.91 1 1 .5-1.51z"/>
<path d="M315.65 152.38a3.43.715 50.904 0 1-.943 1.105 3.43.715 50.904 1 1 .943-1.105z"/>
<path d="M316.69 152.28a3.504.7 61.837 1 1-1.205.713 3.504.7 61.837 1 1 1.205-.713z"/>
<path d="M317.57 155.67c.01.018-.973.223-1.187.232-.214.01-.402-.422-1.038-.304s-1.152.54-1.35.823c-.198.29.055.51.82.39.764-.12 1.07-.61 1.45-.71.38-.1 1.006-.24 1.35-.25.206-.26.803-.78 1.12-1.08.316-.3 1.36-.64 1.856-1.26.43-.51.44-1.06.01-.97-.43.09-1.06.54-1.39.9-.33.36-.26.98-.61 1.31-.27.23-.96.97-1.02.96zm3.57 3.33a.738 3.32 8.74 1 1-1.393-.64.738 3.32 8.74 1 1 1.393.64z"/>
<path d="M320.35 158.8a3.465.707 87.95 1 1-1.422-.205 3.465.707 87.95 1 1 1.422.205z"/>
<path d="M317.69 159.1a3.223.76 46.026 1 1-.76 1.397 3.223.76 46.026 1 1 .76-1.397z"/>
<path d="M318.33 158.48a3.455.71 61.79 1 1-1.12.91 3.455.71 61.79 1 1 1.12-.91z"/>
<path d="M319.35 158.58a3.53.694 72.543 1 1-1.306.473 3.53.694 72.543 1 1 1.306-.473z"/>
<path d="M319.61 162.09c.006.02-.99.033-1.202 0-.21-.032-.316-.493-.96-.5-.643-.005-1.223.314-1.468.554-.244.24-.038.513.732.54.77.024 1.157-.398 1.547-.43.39-.034 1.02-.047 1.36.004.25-.22.92-.617 1.29-.858.36-.24 1.44-.37 2.04-.89.5-.424.61-.963.18-.956-.44.007-1.14.326-1.53.618-.39.293-.43.916-.83 1.17-.31.175-1.12.773-1.17.747m1.73 4.33a.738 3.32 31.31 0 1-1.02-1.17.738 3.32 31.31 0 1 1.01 1.17"/>
<path d="M320.69 165.91a.703 3.487 20.618 0 1-1.208-.778.703 3.487 20.618 0 1 1.208.778m-2.52-.82a3.276.748 69.934 0 1-1.23.98 3.276.748 69.934 0 1 1.23-.98"/>
<path d="M318.99 164.78a3.51.698 85.137 0 1-1.368.38 3.51.698 85.137 1 1 1.368-.38"/>
<path d="M319.88 165.3a.685 3.578 5.55 1 1-1.366-.102.685 3.578 5.55 1 1 1.366.102"/>
<path d="M318.75 168.66c-.002.02-.91-.38-1.09-.496-.177-.117-.093-.588-.673-.86-.58-.27-1.23-.216-1.544-.094-.315.122-.234.46.453.802.686.34 1.2.11 1.567.24.367.132.948.383 1.234.57.312-.1 1.078-.19 1.502-.262.42-.072 1.45.254 2.19.018.62-.182.93-.636.53-.81-.4-.176-1.16-.17-1.63-.06-.47.11-.75.67-1.21.74-.35.037-1.32.256-1.35.212m.59 5.29a.864 3.782 48.457 1 1-.73-1.656.864 3.782 48.457 1 1 .73 1.656"/>
<path d="M318.79 173.16a.82 3.982 37.466 1 1-1.073-1.296.82 3.982 37.466 1 1 1.073 1.296"/>
<path d="M316.29 171.34a3.81.858 86.522 1 1-1.677.638 3.81.858 86.522 1 1 1.677-.638"/>
<path d="M317.29 171.29a.806 4.054 11.633 0 1-1.63-.075.806 4.054 11.633 1 1 1.63.075"/>
<path d="M318.1 172.18a.795 4.11 22.12 1 1-1.47-.607.795 4.11 22.12 1 1 1.47.607"/>
<path d="M315.75 175.49c-.01.022-.878-.748-1.035-.94-.158-.195.09-.685-.46-1.195s-1.282-.683-1.67-.662c-.386.02-.407.423.236 1.05.65.624 1.29.555 1.65.832.36.277.92.765 1.17 1.075.38 0 1.25.18 1.74.254.49.074 1.52.805 2.41.814.75.025 1.24-.365.86-.703-.38-.338-1.22-.605-1.76-.65-.55-.048-1.04.47-1.57.38-.39-.085-1.53-.194-1.55-.255m-1.58 5.05a.967 4.17 79.752 1 1 .2-1.998.967 4.17 79.752 1 1-.2 1.998"/>
<path d="M314.09 179.47a.923 4.37 68.504 0 1-.328-1.853.923 4.37 68.504 0 1 .328 1.853"/>
<path d="M312.66 176.29a.964 4.183 26.238 0 1-1.966-.363.964 4.183 26.238 1 1 1.966.363"/>
<path d="M313.66 176.83a.91 4.434 41.823 0 1-1.533-1.014.91 4.434 41.823 0 1 1.533 1.014"/>
<path d="M313.95 178.15a.897 4.495 52.67 1 1-1.088-1.427.897 4.495 52.67 0 1 1.088 1.427"/>
<path d="M309.87 179.93c-.02.016-.44-1.22-.485-1.494-.046-.275.46-.6.208-1.4-.252-.803-.865-1.392-1.25-1.596-.383-.204-.624.166-.345 1.134.28.967.938 1.273 1.134 1.744.196.472.468 1.258.543 1.7.363.22 1.107.894 1.54 1.247.433.354 1.023 1.643 1.882 2.17.707.454 1.392.366 1.207-.176-.185-.55-.846-1.29-1.35-1.65-.504-.36-1.263-.16-1.725-.55-.34-.31-1.37-1.07-1.36-1.14"/>
<path d="M307.4 184.24a1.212 4.22 89.068 0 1 .007-2.425 1.212 4.22 89.068 0 1-.007 2.425"/>
<path d="M306.84 180.45a1.17 4.366 37.587 0 1-1.8-1.504 1.17 4.366 37.587 1 1 1.8 1.504"/>
<path d="M307.43 182.38a1.197 4.27 66.472 0 1-.857-2.24 1.197 4.27 66.472 0 1 .857 2.24m1.15-36.72a2.62.533 41.126 0 1-.995.542 2.62.533 41.126 1 1 .995-.542m-1.29 1.09a2.654.526 8.163 0 1 .202 1.09 2.654.526 8.163 1 1-.202-1.09"/>
<path d="M307.81 146.06a2.776.503 26.817 1 1-.526.86 2.776.503 26.817 0 1 .526-.86m-19.02 34.07s3.536.758 6.61 1.875c3.074 1.118 7.744 4.952 9 5.17 1.407.063 3.36-.417 4.1-2.45-2.167.578-3.468 1.457-5.538.32-.73-.278-3.126-2.458-5.752-3.626s-7.92-2.5-7.92-2.5l-.5 1.21m3.77-31.97c-.013-.03 4.07-2.15 4.07-2.15l-4.488 1.14-.522.79.94.21"/>
<path d="M296.42 149.15c-1.576-.286-4-.816-5.542-.94 1.066-1.18 2.536-3.18 3.442-4.405-.598 1.17-1.537 2.712-1.908 3.83 1.087.588 2.794 1.047 4.008 1.515"/>
<path d="M291.83 148.41c-.018-.028 3.617-2.8 3.617-2.8l-4.2 1.88-.375.867.958.053"/>
<path d="M295.69 149.11c-1.587-.302-4.03-.858-5.58-.99 1.048-1.218 2.485-3.277 3.37-4.54-.577 1.206-1.49 2.796-1.84 3.95 1.1.61 2.823 1.092 4.05 1.58"/>
<path d="M291.23 148.64c-.01-.03 4.26-1.784 4.26-1.784l-4.587.755-.592.74.92.29"/>
<path d="M295.21 149.15c-1.605-.134-4.086-.433-5.635-.4.893-1.35 2.072-3.6 2.8-4.98-.43 1.288-1.146 3.004-1.357 4.217 1.16.5 2.92.8 4.192 1.163"/>
<path d="M290.79 148.66c-.023-.024 2.885-3.516 2.885-3.516l-3.656 2.734-.17.932.94-.15"/>
<path d="M295.19 149.38c-1.72-.033-4.387-.184-6.03-.038.813-1.538 1.84-4.076 2.474-5.635-.327 1.437-.915 3.36-1.018 4.7 1.285.463 3.186.667 4.574.973"/>
<path d="M290.21 149.49c-.022-.03 3.504-3.362 3.504-3.362l-4.24 2.346-.29 1.005 1.026.01"/>
<path d="M294.42 149.49c-1.848.007-4.694-.093-6.497.11 1.196-1.716 2.83-4.537 3.837-6.27-.65 1.59-1.684 3.725-2.07 5.202 1.288.478 3.296.656 4.73.958"/>
<path d="M289.03 149.74c-.018-.033 4.476-3.79 4.476-3.79l-5.06 2.69-.52 1.113 1.104-.013"/>
<path d="M293.75 149.6c-1.83.264-4.664.562-6.422 1.01.94-1.838 2.154-4.816 2.904-6.645-.417 1.642-1.135 3.865-1.307 5.36 1.346.286 3.36.18 4.825.275"/>
<path d="M288.43 150.49c-.026-.027 3.45-4.777 3.45-4.777l-4.305 3.892-.23 1.192 1.085-.307"/>
<path d="M292.74 150.17c-1.843.172-4.69.327-6.47.686 1.04-1.788 2.42-4.7 3.273-6.49-.51 1.62-1.35 3.804-1.607 5.286 1.328.354 3.347.35 4.804.518"/>
<path d="M287.81 150.99c-.018-.034 4.39-3.8 4.39-3.8l-4.98 2.685-.504 1.122 1.094-.007"/>
<path d="M292.2 150.36c-1.837.387-4.687.878-6.442 1.442.858-1.876 1.937-4.896 2.604-6.75-.34 1.646-.955 3.887-1.054 5.372 1.375.19 3.407-.056 4.892-.064"/>
<path d="M287.08 151.19c-.03-.02 2.804-5.207 2.804-5.207l-3.795 4.502-.07 1.19 1.05-.485"/>
<path d="M292.2 150.66c-1.97.513-5.042 1.185-6.902 1.89.714-2.132 1.53-5.552 2.037-7.654-.172 1.855-.574 4.386-.502 6.048 1.534.152 3.737-.21 5.367-.284"/>
<path d="M286.53 152.39c-.03-.03 3.533-5.218 3.533-5.218l-4.518 4.217-.19 1.31 1.175-.32"/>
<path d="M291.42 151.25c-1.937.613-4.962 1.443-6.78 2.24.61-2.146 1.265-5.57 1.67-7.673-.085 1.842-.366 4.364-.217 6.003 1.533.067 3.708-.41 5.327-.57"/>
<path d="M285.82 153.16c-.034-.024 2.686-5.76 2.686-5.76l-3.82 4.96.018 1.325 1.116-.525"/>
<path d="M290.68 152.04c-1.985.452-5.072 1.032-6.954 1.68.803-2.09 1.764-5.45 2.36-7.514-.252 1.83-.762 4.32-.762 5.966 1.52.193 3.73-.105 5.356-.132"/>
<path d="M285.18 153.71c-.024-.035 4.388-4.508 4.388-4.508l-5.173 3.338-.42 1.266 1.205-.096"/>
<path d="M289.8 152.82c-1.966.264-5.017.548-6.894 1.02.913-2.047 2.058-5.37 2.765-7.412-.35 1.837-1 4.32-1.11 5.996 1.48.347 3.65.263 5.24.396"/>
<path d="M284.31 153.26c-.032-.027 2.986-5.64 2.986-5.64l-4.05 4.746-.063 1.344 1.127-.45"/>
<path d="M290.04 152.15c-2.138.876-5.478 2.096-7.48 3.175.656-2.538 1.348-6.56 1.778-9.03-.077 2.14-.367 5.086-.187 6.97 1.7-.053 4.1-.79 5.89-1.115"/>
<path d="M283.9 154.97c-.035-.03 3.574-6.473 3.574-6.473l-4.718 5.477-.13 1.53 1.274-.534"/>
<path d="M289.22 152.95c-2.095.985-5.374 2.377-7.326 3.555.543-2.538 1.055-6.54 1.374-8.998.02 2.114-.14 5.032.123 6.88 1.7-.15 4.06-1.015 5.83-1.437"/>
<path d="M283.17 155.95c-.04-.022 2.608-6.966 2.608-6.966l-3.903 6.22.1 1.51 1.195-.764"/>
<path d="M288.3 153.53c-2.09 1-5.363 2.42-7.308 3.613.527-2.54 1.014-6.543 1.317-9.003.03 2.112-.11 5.03.16 6.873 1.69-.164 4.05-1.047 5.82-1.483"/>
<path d="M282.58 156.78c-.032-.034 4.035-6.143 4.035-6.143l-5.087 5.028-.248 1.523 1.3-.408"/>
<path d="M288.11 153.21c-1.864 1.488-4.812 3.675-6.492 5.31-.003-2.565-.347-6.518-.554-8.95.468 2.014.932 4.84 1.584 6.535 1.642-.585 3.798-2.03 5.462-2.895"/>
<path d="M282.78 157.07c-.045-.006.467-7.36.467-7.36l-1.943 7.155.542 1.35.934-1.145"/>
<path d="M287.58 153.89c-1.87 1.478-4.825 3.65-6.512 5.276.008-2.566-.32-6.522-.516-8.955.46 2.02.91 4.85 1.557 6.55 1.64-.57 3.8-2.01 5.47-2.86"/>
<path d="M282.31 158.32c-.042-.018 1.88-7.193 1.88-7.193l-3.253 6.615.256 1.477 1.117-.9"/>
<path d="M287.37 154.06c-1.766 1.74-4.578 4.322-6.14 6.19-.276-2.63-1.054-6.647-1.528-9.118.698 2.012 1.48 4.86 2.335 6.523 1.634-.788 3.707-2.516 5.333-3.595"/>
<path d="M282.32 159.24c-.046-.007.352-7.65.352-7.65l-1.88 7.433.585 1.403.943-1.186"/>
<path d="M286.81 155.33c-1.89 1.563-4.884 3.862-6.582 5.576-.06-2.665-.5-6.77-.768-9.294.527 2.088 1.068 5.02 1.778 6.775 1.682-.623 3.874-2.142 5.572-3.057"/>
<path d="M281.76 160.11c-.04-.025 2.663-7.195 2.663-7.195l-3.993 6.375.104 1.58 1.226-.76"/>
<path d="M286.78 155.36c-1.673 1.77-4.337 4.396-5.815 6.296-.264-2.667-1.004-6.74-1.455-9.242.663 2.038 1.406 4.923 2.218 6.608 1.548-.805 3.51-2.563 5.052-3.662"/>
<path d="M281.86 160.48c-.047 0-.315-7.607-.315-7.607l-1.232 7.576.706 1.31.84-1.29"/>
<path d="M285.96 155.93c-1.62 1.786-4.2 4.437-5.622 6.35-.343-2.666-1.2-6.735-1.725-9.24.722 2.037 1.55 4.92 2.41 6.6 1.52-.82 3.43-2.596 4.937-3.71"/>
<path d="M281.43 161.24c-.043-.013.85-7.728.85-7.728l-2.266 7.31.45 1.5.966-1.082"/>
<path d="M285.61 156.23c-1.48 1.933-3.856 4.822-5.13 6.865-.543-2.62-1.71-6.585-2.422-9.023.876 1.954 1.92 4.74 2.906 6.327 1.457-.97 3.227-2.92 4.646-4.17"/>
<path d="M281.4 161.96c-.044-.002-.49-7.737-.49-7.737l-.974 7.676.7 1.35.764-1.29"/>
<path d="M285.46 156.67c-1.39 2.025-3.63 5.058-4.806 7.182-.68-2.61-2.05-6.54-2.89-8.96.978 1.922 2.167 4.673 3.238 6.22 1.416-1.046 3.096-3.105 4.458-4.442"/>
<path d="M281.88 162.68c-.043-.014.787-7.772.787-7.772l-2.215 7.305.467 1.53.96-1.063"/>
<path d="M285.18 157.39c-1.197 2.206-3.15 5.533-4.127 7.808-.91-2.5-2.626-6.217-3.677-8.504 1.144 1.774 2.573 4.343 3.776 5.73 1.312-1.234 2.796-3.516 4.028-5.034"/>
<path d="M281.61 163.32c-.043.012-2.172-7.37-2.172-7.37l.734 7.768.98 1.096.458-1.494"/>
<path d="M285.13 158.25c-1.248 2.2-3.28 5.517-4.3 7.785-.917-2.493-2.65-6.2-3.714-8.48 1.162 1.77 2.61 4.33 3.836 5.715 1.358-1.232 2.9-3.506 4.178-5.02"/>
<path d="M281.71 164.71c-.046 0-.797-7.75-.797-7.75l-.718 7.75.775 1.33.74-1.33"/>
<path d="M285.26 158.93c-1.283 2.17-3.37 5.44-4.426 7.683-.875-2.515-2.55-6.26-3.574-8.566 1.133 1.796 2.54 4.39 3.742 5.804 1.377-1.19 2.956-3.43 4.258-4.92"/>
<path d="M281.64 165.33c-.046.005-1.438-7.61-1.438-7.61l-.07 7.794.882 1.227.626-1.41"/>
<path d="M284.71 160.03c-1.384 2.078-3.622 5.198-4.784 7.366-.753-2.572-2.245-6.43-3.16-8.802 1.047 1.872 2.327 4.562 3.46 6.056 1.43-1.103 3.113-3.23 4.484-4.62"/>
<path d="M280.97 166.18c-.045-.012.644-7.78.644-7.78l-2.12 7.377.512 1.504.964-1.1"/>
<path d="M284.79 160.22c-1.183 2.25-3.118 5.65-4.073 7.96-.987-2.452-2.83-6.08-3.957-8.314 1.213 1.718 2.735 4.216 4 5.547 1.32-1.288 2.796-3.626 4.03-5.193"/>
<path d="M280.71 166.83c-.044.014-2.387-7.25-2.387-7.25l.92 7.71 1.027 1.05.44-1.51"/>
<path d="M284.47 160.8c-.826 2.47-2.22 6.234-2.812 8.712-1.34-2.194-3.7-5.357-5.146-7.305 1.452 1.423 3.327 3.545 4.772 4.576 1.107-1.554 2.207-4.174 3.186-5.983"/>
<path d="M282.83 167.42c-.044.016-2.585-7.15-2.585-7.15l1.13 7.668 1.056 1.007.4-1.525"/>
<path d="M284.45 161.56c-.808 2.478-2.175 6.257-2.75 8.74-1.355-2.18-3.737-5.317-5.198-7.25 1.463 1.408 3.352 3.51 4.805 4.526 1.096-1.566 2.177-4.197 3.143-6.016"/>
<path d="M282.85 168.64c-.042.022-3.326-6.687-3.326-6.687l1.937 7.425 1.16.835.24-1.573"/>
<path d="M284.2 162.18c-.517 2.573-1.438 6.515-1.722 9.06-1.596-1.967-4.32-4.737-5.99-6.443 1.612 1.186 3.728 3 5.286 3.798.907-1.71 1.677-4.473 2.426-6.415"/>
<path d="M283.07 169.69c-.045.01-1.793-7.498-1.793-7.498l.295 7.785.94 1.164.558-1.45"/>
<path d="M284.21 162.98c-.273 2.63-.82 6.678-.865 9.25-1.767-1.743-4.727-4.133-6.544-5.606 1.72.962 3.98 2.482 5.6 3.068.74-1.824 1.25-4.678 1.81-6.712"/>
<path d="M283.16 170.24c-.035.035-4.74-5.413-4.74-5.413l3.572 6.556 1.305.446-.137-1.59"/>
<path d="M284.31 163.9c-.284 2.628-.847 6.673-.902 9.243-1.76-1.752-4.71-4.16-6.52-5.642 1.705.98 3.968 2.51 5.586 3.1.747-1.82 1.266-4.67 1.836-6.7"/>
<path d="M283.69 171.49c-.04.024-3.64-6.525-3.64-6.525l2.286 7.324 1.195.78.16-1.58"/>
<path d="M284.52 164.98c-.173 2.644-.566 6.72-.513 9.293-1.83-1.644-4.875-3.87-6.745-5.244 1.744.86 4.066 2.26 5.706 2.76.67-1.87 1.068-4.75 1.552-6.81"/>
<path d="M284.15 172.69c-.037.032-4.5-5.704-4.5-5.704l3.282 6.77 1.285.528-.067-1.594"/>
<path d="M284.57 166.2c-.157 2.646-.525 6.726-.457 9.3-1.84-1.63-4.898-3.83-6.775-5.187 1.75.853 4.08 2.227 5.72 2.71.66-1.87 1.04-4.755 1.512-6.823"/>
<path d="M284.56 173.66c-.043.02-3.154-6.877-3.154-6.877l1.745 7.53 1.14.903.28-1.556"/>
<path d="M284.69 166.99c.09 2.655.105 6.766.412 9.317-1.977-1.373-5.215-3.152-7.205-4.25 1.815.615 4.255 1.67 5.93 1.928.478-1.95.588-4.873.863-6.995"/>
<path d="M285.11 173.39c-.027.043-5.762-3.945-5.762-3.945l4.885 5.383 1.357.07-.48-1.508"/>
<path d="M284.87 167.27c.23 2.643.46 6.74.9 9.27-2.052-1.293-5.387-2.944-7.437-3.962 1.85.543 4.347 1.5 6.038 1.696.38-1.962.34-4.88.5-7.004"/>
<path d="M285.73 174.86c-.035.034-4.8-5.518-4.8-5.518l3.635 6.625 1.314.48-.15-1.587"/>
<path d="M285.29 168.28c.34 2.632.742 6.72 1.288 9.226-2.098-1.172-5.492-2.623-7.577-3.52 1.87.434 4.4 1.243 6.09 1.336.3-1.987.13-4.904.2-7.042"/>
<path d="M286.69 175.79c-.027.043-5.718-4.04-5.718-4.04l4.823 5.46 1.358.095-.463-1.515"/>
<path d="M285.47 169.4c.512 2.6 1.183 6.652 1.89 9.11-2.16-.975-5.626-2.105-7.756-2.805 1.88.256 4.447.826 6.134.76.16-2.016-.2-4.92-.267-7.065"/>
<path d="M287.32 176.59c-.036.033-4.73-5.606-4.73-5.606l3.55 6.69 1.308.504-.128-1.588"/>
<path d="M285.78 170.12c.75 2.53 1.793 6.486 2.724 8.845-2.228-.683-5.762-1.348-7.933-1.762 1.89.004 4.48.23 6.14-.063-.03-2.034-.66-4.886-.92-7.02"/>
<path d="M287.57 176.6c-.01.052-6.606-1.415-6.606-1.415l6.282 3.123 1.27-.478-.946-1.23"/>
<path d="M286.21 170.91c.74 2.533 1.768 6.495 2.69 8.86-2.226-.697-5.758-1.382-7.928-1.808 1.884.015 4.474.255 6.137-.028-.03-2.034-.64-4.89-.9-7.024"/>
<path d="M288.65 177.3c-.02.047-6.32-3.053-6.32-3.053l5.668 4.596 1.36-.127-.708-1.416"/>
<path d="M285.88 171.35c1.255 2.308 3.09 5.948 4.487 8.05-2.315-.177-5.9-.047-8.105.027 1.84-.41 4.413-.762 5.974-1.415-.45-1.983-1.653-4.634-2.356-6.662"/>
<path d="M289.65 177.99c-.012.05-6.568-1.814-6.568-1.814l6.164 3.49 1.296-.395-.892-1.28"/>
<path d="M286.56 172.33c1.27 2.3 3.126 5.926 4.535 8.018-2.316-.157-5.897.002-8.1.096 1.836-.428 4.406-.8 5.96-1.467-.462-1.98-1.68-4.623-2.395-6.647"/>
<path d="M290.48 178.53c-.023.044-6.12-3.66-6.12-3.66l5.347 5.116 1.375.014-.602-1.47"/>
<path d="M287.07 172.91c1.47 2.146 3.646 5.55 5.232 7.47-2.29.143-5.79.77-7.945 1.15 1.76-.668 4.25-1.378 5.712-2.25-.65-1.93-2.1-4.43-3-6.37"/>
<path d="M290.93 179.07c-.002.054-6.607-.156-6.607-.156l6.537 1.932 1.162-.722-1.092-1.054m3.83-32.01c0-.02 4.753-.793 4.753-.793l-4.73.11-.824.424.8.26"/>
<path d="M297.37 148.07c-1.38-.417-3.463-1.115-4.88-1.423 1.506-.597 3.732-1.658 5.102-2.31-1.054.66-2.587 1.51-3.404 2.17.79.537 2.222 1.083 3.182 1.563"/>
<path d="M294.55 147.22c-.005-.02 4.6-1.263 4.6-1.263l-4.766.607-.718.493.884.163"/>
<path d="M297.59 148.41c-1.61-.152-4.083-.46-5.673-.477 1.198-1.06 2.878-2.835 3.912-3.925-.72 1.024-1.81 2.383-2.28 3.35 1.08.435 2.81.725 4.03 1.052"/>
<path d="M292.84 147.55c.004-.02 4.78-.54 4.78-.54l-4.658-.15-.87.384.748.306"/>
<path d="M296.38 148.59c-1.465-.28-3.692-.768-5.174-.942 1.408-.69 3.46-1.88 4.724-2.61-.943.712-2.335 1.642-3.04 2.336.893.443 2.436.842 3.49 1.216"/>
<path d="M292.43 147.5c-.012-.018 4.207-1.81 4.207-1.81l-4.608 1.216-.56.56.95.034"/>
<path d="M296.24 149.12c-1.22-.504-3.088-1.357-4.294-1.712.934-.87 2.25-2.392 3.06-3.326-.563.934-1.424 2.14-1.805 3.066.81.69 2.12 1.366 3.04 1.972"/>
<path d="M292.67 147.81c-.01-.028 3.273-1.418 3.273-1.418l-3.564.488-.44.635.73.295m-2.74 30.65c0 .052-6.79.05-6.79.05l6.87 1.68 1.12-.738-1.21-.992"/>
<path d="M291.15 178.9c-.008.05-6.89-1.602-6.89-1.602l6.616 3.243 1.297-.41-1.023-1.22"/>
<path d="M292.28 179.36c0 .052-6.84-.345-6.84-.345l6.84 2.062 1.172-.665-1.172-1.052"/>
<path d="M287.94 174.53c1.78 1.96 4.445 5.086 6.312 6.815-2.297.347-5.757 1.276-7.886 1.843 1.692-.813 4.114-1.73 5.476-2.714-.918-1.825-2.728-4.13-3.902-5.944"/>
<path d="M293.22 179.71c-.013.048-6.837-2.237-6.837-2.237l6.425 3.82 1.346-.284-.934-1.3"/>
<path d="M288.57 174.98c1.94 1.77 4.864 4.608 6.865 6.13-2.202.635-5.474 2-7.488 2.837 1.562-1.03 3.825-2.258 5.048-3.423-1.086-1.737-3.09-3.85-4.425-5.544"/>
<path d="M293.78 180.13c.01.053-6.487 1.276-6.487 1.276l6.836.466.96-.953-1.32-.79"/>
<path d="M292.43 179.72c.007.052-6.767.52-6.767.52l6.982 1.2 1.07-.815-1.285-.905"/>
<path d="M293.68 180.08c-.005.05-6.997-1.122-6.997-1.122l6.847 2.776 1.263-.505-1.113-1.15z"/>
<path d="M294.84 180.46c.004.052-6.853.128-6.853.128l6.982 1.583 1.12-.74-1.25-.97z"/>
<path d="M290.14 175.94c1.923 1.832 4.82 4.763 6.812 6.357-2.267.505-5.65 1.67-7.732 2.38 1.627-.926 3.975-2.007 5.26-3.082-1.052-1.756-3.032-3.93-4.34-5.655z"/>
<path d="M295.81 180.74c-.01.05-6.992-1.758-6.992-1.758l6.7 3.364 1.32-.376-1.028-1.23z"/>
<path d="M290.81 176.34c2.068 1.63 5.2 4.257 7.312 5.637-2.15.784-5.314 2.37-7.26 3.343 1.48-1.135 3.647-2.514 4.78-3.76-1.213-1.656-3.373-3.625-4.832-5.22z"/>
<path d="M296.4 181.12c.015.052-6.38 1.72-6.38 1.72l6.86-.008.89-1.016-1.37-.696z"/>
</g>
<path stroke="#000" stroke-width=".299" d="M305.21 171.52l-5.21-3.602-5.213 3.602 1.955-5.762-4.56-3.602h5.862l1.955-5.762 1.95 5.762h5.86l-4.56 3.602 1.95 5.762z" fill="#fedf00"/>
</svg>
