<svg viewBox="0 0 750 500" xmlns="http://www.w3.org/2000/svg">
<path fill="#006c35" d="M0 0h750v500H0z"/>
<path fill="#fff" d="M323.28 118.09c-.388-.01-.968.205-1.78.688-1.83 1.225-5.453 5-5.564 9.343-.11 2.46-.573 2.45 1.03 4 1.16 1.68 2.318 1.51 4.658.29 1.343-.99 1.797-1.62 2.25-3.28.557-2.78-2.93 1.32-3.375-1.78-.78-2.87 1.44-4.06 3.56-6.84.05-1.31.07-2.38-.78-2.4zm34.062.188c-.653.087-1.453.925-2.563 2.937-.8 2.108-4.23 5.297-1.75 11.875 2.02 4.17 2.85 10.95 1.93 18.5-1.41 2.146-1.73 2.885-3.57 5.03-2.59 2.78-5.39 2.07-7.53 1.032-2.01-1.352-3.59-2.046-4.5-6.343.16-6.85.56-18.06-.69-20.44-1.85-3.69-4.89-2.37-6.19-1.25-6.25 5.71-9.33 15.35-11.22 23.03-1.73 5.59-3.58 3.97-4.88 1.72-3.16-2.96-3.38-26.09-7.19-22.28-6.11 17.44 3.5 36.54 10.15 34.68 4.8 1.99 7.85-7.15 9.81-17.16 1.34-2.81 2.37-3.13 3.06-1.69-.18 13.3.95 16.27 4.37 20.31 7.63 5.88 13.94.74 14.44.25l5.94-5.94c1.32-1.39 3.07-1.48 4.94-.25 1.81 1.65 1.58 4.49 5.47 6.47 3.27 1.31 10.25.32 11.87-2.5 2.18-3.74 2.71-5.02 3.72-6.44 1.55-2.08 4.22-1.16 4.22-.5-.25 1.15-1.82 2.29-.75 4.37 1.85 1.39 2.28.5 3.37.19 3.87-1.85 6.78-10.25 6.78-10.25.17-3.13-1.61-2.9-2.75-2.25-1.48.91-1.57 1.21-3.06 2.12-1.89.28-5.56 1.53-7.38-1.28-1.86-3.38-1.87-8.1-3.28-11.5 0-.25-2.48-5.36-.19-5.69 1.15.21 3.64.85 4.03-1.22 1.21-2.03-2.62-7.76-5.22-10.66-2.26-2.48-5.38-2.79-8.41-.25-2.12 1.95-1.81 4.12-2.22 6.18-.54 2.37-.44 5.3 1.96 8.44 2.11 4.17 5.95 9.51 4.69 17.06 0 0-2.23 3.59-6.15 3.12-1.64-.36-4.31-1.07-5.72-11.53-1.08-7.93.27-19.02-3.1-24.22-.76-1.96-1.41-3.87-2.5-3.72zm-10.78.84c-1.017.088-2.144 1.273-3.063 3.562-.79 1.74-1.75 10.844-1.6 10.844-.63 2.71 2.83 3.857 4.4.375 2.36-6.39 2.37-9.11 2.53-11.82-.37-2.07-1.27-3.06-2.28-2.97zm39.812.718c-1.045.095-1.877.707-2.188 2.25-.416 3.63-.203 5.603.407 8.625.467 2.02 3.4 5.39 4.844 7.35 6.896 9.27 13.53 18.59 19.938 28.22a294.127 294.127 0 0 1 2.218 21.13c1.04 15.29 1.354 34.31.407 50.41 2.863.12 7.45-4.62 9.062-11.56 1.047-9.59-.373-29.18-.47-34.84-.066-2.35-.21-5.16-.374-8.09a526.562 526.562 0 0 1 21.78 39.25c2.59-1.23 2.015-15.79.5-17.84-5.68-12.22-13.528-24.29-16.03-28.93-.903-1.67-3.98-6.35-7.625-11.75-.67-7.7-1.4-14.22-1.875-16.19-1.172-8.14 3.345.92 2.72-3.81-1.466-8.12-5.952-13.65-11.25-21.09-1.71-2.42-1.676-2.91-4.313.59-1.577 3.58-1.556 6.56-1.094 9.35a49.55 49.55 0 0 0-2.78-3.69c-4.57-3.92-4.86-4.14-8.65-7.34-1.19-.85-3.47-2.16-5.22-2zm118 1.22c-.51-.08-1.063.17-1.688 1.093-1.193 1.04-2.476 2.94-2.437 5.37.29 4.29 1.05 8.68 1.34 12.97.1.57.21 1.14.31 1.72a16.723 16.723 0 0 0-1.1-1.28c-8.36-8.79 3.84-1.44-1.6-8.22-4.6-5.05-5.94-6.66-9.88-9.69-1.98-1.28-3.17-3.71-3.82.44-.26 3.64-.53 7.86-.28 10.94-.02 1.7 1.75 4.92 3.28 6.81a731.007 731.007 0 0 1 17 21.75c1.2 15.51 1.52 29.74 2.75 45.28-.18 6.65-2.22 15.48-4.16 16.31 0 0-2.96 1.7-4.94-.19-1.44-.58-7.19-9.6-7.19-9.6-2.95-2.7-4.91-1.93-7 0-5.78 5.57-8.39 16.02-12.32 23.22-1.01 1.6-3.86 2.97-7.03-.13-8.05-11-3.34-26.65-4.35-22.63-7.17 8.08-4 21.46-2.38 24.34 2.36 4.73 4.27 7.75 8.87 10.09 4.19 3.08 7.45 1.16 9.25-1 4.21-4.37 4.27-15.54 6.25-17.75 1.39-4.06 4.86-3.36 6.56-1.56 1.64 2.36 3.59 3.9 6 5.18 3.93 3.46 8.63 4.09 13.25.93 3.16-1.78 5.21-4.08 7.06-8.63 1.98-5.31 1-33.15.56-48.63a628.83 628.83 0 0 1 8.81 12.78c1.28 13.59 1.86 26.98 1.44 39.81-.3 2.55 8.9-7.62 8.84-12.44-.04-4.22.01-8.04 0-11.59 4.46 7.13 8.79 14.38 12.87 21.72 2.53-1.34 1.66-15.68.06-17.66-4.28-7.18-9.75-14.94-14-20.94-.84-7.58-1.98-16.51-2.5-19.25-.81-4.27-1.62-10.69-2.84-15.75-.33-1.98-1.35-8.3-1.03-8.91.5-1.41 2.39.04 3.31-1.59 1.39-1.52-4.81-17.6-7.96-22.19-1.13-2.06-3.18-1.35-5.72 2-2.35 2.2-1.49 7.22-.59 12 2.33 12.17 4.41 24.57 6.06 36.94A1362.076 1362.076 0 0 0 513 157.8c-.097-.51-.467-2.38-.467-2.4 0-.22-.503-9.96-.936-12.28-.08-.945-.3-1.217.683-1.097 1.05.88 1.19.93 1.847 1.22 1.06.19 1.98-1.6 1.35-3.25-3.27-6.037-6.545-12.097-9.815-18.13-.39-.39-.832-.798-1.34-.877zm-304.53.312c-1.812-.052-3.812 1.07-3.03 3.25-.456 1.187 3.546 5.2 4.25 7.406.63 1.57-.626 6.627.686 7.094 1.207.523 2.868-3.5 3.5-7.22.35-2.036.085-9.007-4.656-10.437a3.886 3.886 0 0 0-.75-.09zm346.91.04c-.413.04-.916.708-1.687 2.343-1.855 3.04-2.493 8.48-1.75 13.29 4.465 30.21 7.783 59.45 8.468 86.22-.384 2.54-.496 3.89-1.687 7.1-2.636 3.38-5.543 7.62-8.28 9.66-2.74 2.04-8.565 3.99-10.47 5.5-6.044 3.5-6.074 7.51-1.188 7.66 8.42-.97 18.386-1.67 25.25-12.03 1.837-2.9 4-10.77 4.094-15.59.642-28.25-.362-55.87-4.594-76.28-.27-1.99-1.15-6.56-.812-7.16.545-1.4 3.3.14 4.28-1.47 1.44-1.47-7.125-12.43-10.124-17.12-.6-1.18-.97-2.15-1.5-2.09zm-88.312.468c-.348.06-.86.59-1.812 1.844-2.353 7.692-3.18 13.973-2.282 18.75 6.043 31.534 12.234 60.263 11.25 90.28 2.866.02 6.18-6.554 7.594-13.06.775-8.965-.517-14.42-.75-19.69-.232-5.267-5.964-48.013-7.125-52-1.4-7.536 5.574-.99 4.813-5.374-2.41-5.526-8.43-13.574-10.312-18.375-.708-1.28-.796-2.47-1.375-2.37zm-215.03.594c-.743.13-1.46.74-1.72 1.75-.162.66.287 1.76-.31 2.094-.345.347-1.65.114-1.595-1.72 0-.583-.43-1.192-.688-1.56-.26-.172-.44-.22-.91-.22-.58.023-.56.174-.88.656-.14.49-.32.97-.32 1.53-.07.652-.34.873-.81.97-.54 0-.41.057-.85-.22-.26-.282-.57-.393-.57-.875 0-.5-.13-1.295-.28-1.625-.23-.3-.59-.457-1-.562-2.25.008-2.41 2.59-2.28 3.562-.17.183-.26 4.76 2.81 6.03 4.11 1.963 11.83 1.133 11.5-5.5 0-.585-.13-2.555-.19-3.093-.42-.977-1.2-1.347-1.94-1.218zm55.188.063a9.19 9.19 0 0 0-3.75 1.03c-2.726 2.61-3.366 6.796-1.22 9.407 2.09.987 4.175 3.09 2.782 4.25-5.908 6.31-21.287 16.857-22.062 18.78-.006.017-.027.05-.03.063-.003.014 0 .05 0 .063 0 .006-.002.026 0 .03a.29.29 0 0 0 .03.064c.004.004.027.027.032.03.005.004.025-.002.03 0 .007.004.025.03.032.032.007.002.023-.002.03 0 .003.002.03.03.032.03.782.525 10.404.513 11.47.032.007-.004.024-.027.03-.03.004-.003.03 0 .032 0 .002-.003-.002-.03 0-.032 3.307-1.22 19-19.156 19-19.156-.814-.696-1.563-1.21-2.375-1.906-.87-.754-.783-1.495 0-2.25 3.886-2.262 2.655-7.238.625-9.5-1.683-.755-3.266-1.01-4.688-.938zm144.25.062c-.413.04-.916.677-1.687 2.313-1.855 3.037-3.115 8.328-2.97 13.28 4.018 27.815 5.25 52.155 7.876 79.97.21 2.69-.19 6.598-1.97 8.156-6.62 6.906-16.15 15.424-26.53 19.344-1.12 1.254 2.77 6.6 7.81 6.594 8.42-.978 15.82-5.705 22.69-18.156 1.83-2.904 5.06-9.12 5.15-13.938.64-28.247-1.43-50.21-5.66-70.625-.27-1.99-.09-4.34.25-4.938.54-.65 2.39.015 3.37-1.594 1.44-1.46-3.85-13.65-6.85-18.34-.6-1.17-.97-2.11-1.5-2.06zm-223.47.85c-1.162.136-2.256 1.082-2.78 2.344-.196 4.46-.222 8.92.28 13.03 2.03 7.21 2.672 13.55 3.656 20.93.273 9.89-5.71 4.28-5.437-.63 1.38-6.37 1-16.4-.22-18.94-.98-2.54-2.1-3.17-4.47-2.75-1.88-.12-6.74 5.17-8.1 13.93 0 0-1.13 4.5-1.63 8.5-.67 4.52-3.66 7.73-5.75-.63-1.81-6.07-2.92-21.03-5.94-17.53-.87 11.68-1.9 32.23 8.03 34.34 12 1.15 5.37-20.29 9.72-24.19.82-1.93 2.34-1.96 2.47.47v18.21c-.11 5.92 3.78 7.68 6.81 8.91 3.15-.24 5.23-.16 6.47 2.9.49 10.5 1.01 21.03 1.5 31.53 0 0 7.27 2.09 7.62-17.72.35-11.63-2.32-21.39-.75-23.66.05-2.23 2.9-2.34 4.87-1.25 3.14 2.21 4.53 4.93 9.4 3.84 7.42-2.05 11.89-5.65 12-11.35-.44-5.42-1.06-10.84-3.41-16.25.33-.99-1.42-3.55-1.1-4.54 1.33 2.09 3.35 1.91 3.81 0-1.26-4.16-3.23-8.15-6.41-9.88-2.63-2.31-6.47-1.82-7.88 3-.66 5.56 2.01 12.15 6.06 17.53.86 2.1 2.06 5.6 1.53 8.75-2.15 1.23-4.29.72-6.09-1.19 0 0-5.91-4.42-5.91-5.41 1.57-10.04.34-11.19-.53-13.97-.61-3.85-2.43-5.06-3.91-7.69-1.48-1.57-3.48-1.57-4.44 0-2.61 4.52-1.39 14.24.5 18.59 1.36 4 3.45 6.5 2.47 6.5-.81 2.26-2.5 1.74-3.72-.88-1.74-5.4-2.09-13.44-2.09-17.06-.52-4.5-1.11-14.1-4.06-16.53-.79-1.08-1.72-1.45-2.63-1.35zm42.156.063c-.596.075-1.254.414-2.03.593-2.553.82-4.943 3.02-4.19 7.32 3.018 18.33 4.985 32.33 8 50.66.465 2.15-1.335 4.98-3.655 4.69-3.94-2.67-4.92-8.07-11.65-7.84-4.87.06-10.43 5.36-11.12 10.47-.81 4.06-1.1 8.46 0 12 3.43 4.12 7.53 3.68 11.13 2.75 2.96-1.22 5.39-4.13 6.44-3.44.01.01.03 0 .03 0 .01.01 0 .03 0 .04.65 1.13-.06 10.66-13.93 18.03-8.53 3.83-15.31 4.75-18.97-2.22-2.26-4.35.17-20.92-5.4-17.09-16.47 42.47 38.6 48.4 44.75 1.75.4-1.31 1.62-2.63 2.47-2.31.38.16.72.67.85 1.63-1.27 42.23-42.6 45.13-49.62 31.84-1.74-3.13-2.26-10.1-2.44-14.28-.32-2.53-.95-3.98-1.68-4.56-1.68-1.26-3.93 2.02-4.41 7.72-.7 4.58-.5 5.84-.5 10.25 2.21 33.36 55.39 19.03 64.03-8.53 4.28-14.24-.08-24.99 1.35-26.31.01-.01.05-.02.06-.03a.26.26 0 0 1 .06-.03c.02 0 .05-.02.06-.03a.9.9 0 0 1 .19-.03c5.28 5.69 12.69.73 14.31-1.25.7-.98 2.44-1.62 3.66-.34 4.12 2.96 11.34 1.57 12.85-3.65.87-5.1 1.61-10.36 1.78-15.81-2.68.83-4.84 1.46-5.72 2.38-.2.23-.36.48-.4.75-.23 1.51-.45 3.02-.69 4.53a1.15 1.15 0 0 1-.13.35 1.455 1.455 0 0 1-.5.47c-.95.52-2.6.22-2.69-1.16-1.27-5.8-6.52-6.56-9.72 2.44-2.14 1.74-6.06 2.08-6.46-.53.52-6.03-1.91-6.84-6.78-4-1.57-11.95-3.12-23.36-4.69-35.31 2.03-.06 3.89 1.42 5.75-.9-2.01-6.25-6.26-18.96-8.66-20.15l-.06-.03a3.182 3.182 0 0 0-.5-.47 2.62 2.62 0 0 0-.16-.09 1.73 1.73 0 0 0-.31-.12 1.614 1.614 0 0 0-.66-.06zm164.34.093c-2.108-.06-4.44 1.27-3.53 3.91-.53 1.44 4.527 6.33 5.343 9 1.46 4.11-1.13 8.03.4 8.6 1.4.64 3.36-4.24 4.09-8.75.84-3.64-1.76-11.11-5.44-12.65a4.367 4.367 0 0 0-.88-.09zm-128.03 4.5c.96-.09 2.12.79 2.688 2.04.605 1.33.3 2.6-.688 2.85-.99.25-2.27-.64-2.875-1.97-.6-1.33-.3-2.63.69-2.87a1.35 1.35 0 0 1 .19-.03zm237.5 6.16c-1.92-.06-4.016 1.39-3.187 4.25-.49 1.56 4.1 6.86 4.84 9.75.67 2.06-1.02 8.7.37 9.32 1.28.69 3.08-4.58 3.75-9.47.37-2.67-1.61-12.04-4.97-13.71a3.524 3.524 0 0 0-.82-.12zm-131.31 3.25c.176.79.35 1.58.47 2.38.393 1.73.732 3.45 1.093 5.16-1.52-2.09-2.78-3.77-3.32-4.37-3.43-4.08.07-2.68 1.75-3.15zm30.25 14.88c-.743.13-1.46.77-1.72 1.78-.162.66.32 1.73-.28 2.06-.344.35-1.68.15-1.625-1.68 0-.58-.42-1.22-.68-1.59-.26-.17-.43-.22-.9-.22-.57.03-.56.18-.87.66-.13.49-.31.98-.31 1.53-.07.66-.3.88-.78.97-.53 0-.44.06-.87-.22-.26-.28-.56-.39-.56-.87 0-.5-.13-1.3-.28-1.62-.23-.3-.59-.43-1-.53-2.25.01-2.38 2.56-2.25 3.54-.17.18-.28 4.79 2.78 6.06 4.12 1.96 11.86 1.1 11.53-5.53 0-.59-.16-2.56-.22-3.1-.42-.97-1.19-1.34-1.93-1.21zm-138.12 1.38c-.507-.05-1.172.14-1.937.6-3.64 1.97-5.05 7.81-2.79 11.22 2.11 3.01 5.46 1.91 5.9 1.91 3.56.45 5.68-6.69 5.68-6.69s.1-2-4.13 1.78c-1.78.34-2.03-.31-2.47-1.31-.37-1.85-.29-3.73.56-5.59.39-1.11 0-1.82-.85-1.9zm195.25.91c-2.02-.1-4.17 1.21-4.72 3.97.01 1.63.736 2.52.595 4-.21.85-1.08 1.4-3.15.41.33-.3-1.34-2.65-1.34-2.65-1.62-.99-3.78.05-5.18.97-.77 1.41-1.34 3.82-.47 6.29 2.33 4.29 10.3 11.62 14.1 11.69.07-3.87.45-9.02.66-12.22.09-1.21.37-2.54 1.53-2.84 1.16-.31 3.17 1.16 3.19-.1-.21-2.46-.7-6.09-2.09-7.81-.71-1.05-1.88-1.62-3.09-1.68zm-161.62 13.47c-.054.02-.107.07-.156.09l-.094.07c-.402.3-.877 1-1.937 1.75-1.79 2.04-2.11 3.45-2 7.53.1.44 3.39 9.6 6.18 16.03 1.88 6.7 3.62 14.36 2.34 21.6-4.41 9.57-13.27 18.15-21.82 22.81-4.36 1.4-8.12.92-9.13-.03a.39.39 0 0 1-.03-.03c-2.51-1.68-2.56-4.67-2.41-5.19v-.03l.03-.03c7.21-5.02 15.45-9.09 21.9-22.65 1.9-5.18 2.48-8.3.59-16.31-.74-2.99-1.65-5.44-3.69-7.56l.03-.03c1.23-.59 4.41 1.76 4.91.28-.76-3.82-3.35-8.96-6.28-11.59-2.57-2.33-5.37-2.6-7.72-.47-2.65 1.48-3.22 6.77-1.94 11.41 1.41 3.49 5.24 4.1 7.97 11.13v.03c.05.44.93 5.25-.44 7.19-1.12 3.48-15.43 14.76-16.44 15.44-.01.01-.09.05-.1.06l-.03.03-.03.04-.03.03h-.06a.706.706 0 0 1-.03-.03v-.03l-.04-.06c-.05-.28.03-1 0-2.15-.1-2.11.78-6.9.72-7.72v-.03l-.03-.03v-.03H300c-4.73 3.06-6.29 12.42-7.16 15.19-11.973 8.28-25.572 14.43-33.404 22.81-4.08 6.37 28.105-7.31 31.845-8.97.04.03.07.07.1.1.71.78.77 3.51 2.91 5.97 3.35 4.53 10.46 7.32 17.38 5.59 11.61-4.19 18.29-12.1 25.1-20.87.97-1.41 2.5-2.53 3.91-1.44 4.68 10.47 18.16 17.92 35.6 18.69 4.03-4.9 2.1-7.32.47-8.34-.51-.34-8.67-3.52-9.94-6.69-.8-2.95 1.14-5.56 5.03-7.53 11.19-1.35 22.2-2.86 32.84-6.28.11-3.58 2.22-8.93 3.63-11.25.98-1.61 1.61-1.77 1.84-2l.03-.03.03-.03.03-.03v-.06a.99.99 0 0 0-.03-.31l-1.81-1.06-35.72-.15c-.44-.17-.77-.34-.97-.5a1.218 1.218 0 0 1-.07-.07l-.03-.03-.03-.03a.412.412 0 0 1-.03-.06l-.03-.03v-.03l-.03-.03v-.25l.03-.03a.468.468 0 0 1 .03-.06c.18-.23.6-.46 1.13-.66 8.53-1.16 23.68-3.64 24.69-18.22-.16-7.59-3.25-12.56-12.56-13.93-6.85.53-11.73 7.15-10.94 14.44-.33 1.96.66 5.81-1.35 6.25-13.12 1.2-27.45 9.42-27.93 15.31h-.03a.448.448 0 0 1-.03.03l-.06.03h-.06l-.09.03h-.09a1.513 1.513 0 0 1-.1 0 .904.904 0 0 1-.12-.03c-.85-.24-1.95-1.65-1.78-3.62-.5-10.18-3.81-21.69-9-30.56-1.85-1.85-2.66-2.6-3.19-2.68-.02-.01-.04 0-.06 0h-.19zm34.188 5.38c-.743.13-1.46.74-1.72 1.75-.162.66.32 1.76-.28 2.1-.344.35-1.68.15-1.625-1.68 0-.58-.43-1.22-.69-1.59-.26-.17-.41-.22-.88-.22-.58.03-.59.18-.91.66-.14.49-.32.98-.32 1.53-.07.66-.3.88-.78.97-.54 0-.41.06-.85-.22-.26-.28-.6-.39-.6-.87 0-.5-.1-1.29-.25-1.62-.23-.3-.62-.42-1.03-.53-2.25.01-2.38 2.56-2.25 3.53-.17.19-.28 4.79 2.78 6.07 4.11 1.97 13.92.81 11.53-5.53 0-.58-.16-2.55-.22-3.09-.42-.97-1.2-1.34-1.94-1.22zm137.97 5.66a.68.68 0 0 0-.344.03s-19.06 13.56-19.53 14.03c-1.89 1.68-.945 7.59 0 6.91 1.365.53 20.553-12.48 20.187-14 .837.05 1.24-6.69-.312-6.97zm-119.96 2.01c.778-.08 1.798.18 2.78.75 1.424.82 2.3 2.07 2.19 2.97-.005.02.004.07 0 .09-.007.03-.057.07-.064.1l-.03.1-.032.06-.03.07a1.25 1.25 0 0 1-.19.22c-.683.64-2.26.55-3.75-.31-1.41-.81-2.28-2.07-2.186-2.97.003-.02.026-.07.03-.09a1.1 1.1 0 0 1 .126-.31c.02-.03.038-.09.062-.12l.032-.03a1.43 1.43 0 0 1 .156-.15 1.79 1.79 0 0 1 .906-.34zm-166.91 3.44c-9.876.18-24.338 12.95-24.72 20.03 10.422-5 20.658-9.82 31.25-15-1.708-2.55-.103-4.85-6.53-5.03zm32 4.44c.968.01 1.99.49 2.53 1.85.49 1.24.024 2.54-.56 3.19-.004.01.002.03 0 .03-.01.02-.023.05-.032.06-.415.54-1.87.32-2.907.32-1.254-.05-1.872-.26-2.625-1.28-.36-1.13.736-2.25 1.22-3.09.004-.01.025-.02.03-.03a1.56 1.56 0 0 1 .22-.25c.374-.34 1.023-.66 1.718-.75a2.39 2.39 0 0 1 .406-.03zm251.16 3.93c-1.756.22-3.425 1.88-2.656 4.53-.482 1.56 2.382 7.01 3.125 9.91.668 2.06-.86 7.89.53 8.5 1.282.69 4.65-3.46 4.532-8.65.37-2.67-.953-12.51-4.312-14.19a3.164 3.164 0 0 0-1.22-.09zm-213.31 9.63c-1.552.11-2.937.94-2.312 3.13-.094 1.59 4.385 3.52 4.656 7.19.64 1.52-.958 6.36.375 6.82 1.223.5 2.92-3.35 3.562-6.94.355-1.96-1.536-8.83-4.75-10.06a5.5 5.5 0 0 0-1.53-.13zm63.844 8.72c.118-.01.222 0 .344 0h.062c3.98 1.08 9.846 1.19 14.938 1.72 4.148.26 6.197 3.51 2.313 4.87-3.832 1.31-7.514 2.34-7.53 7.88.502 2.75.396 4.18-.033 4.85a1.4 1.4 0 0 1-.125.16l-.03.03-.032.04-.03.03-.032.03-.063.03a1.07 1.07 0 0 1-.187.09.738.738 0 0 1-.188.03c-.91.14-2.234-.73-3.22-1.25-2.36-1.69-8.992-5.8-9.936-14.62-.14-1.99 1.35-3.71 3.75-3.88zm-155.94 6.78c-.25.01-.746.75-1.406 1.6-5.875 9.36-6.398 23.33-3.156 27.5 1.722 1.97 4.562 2.84 6.656 2.22 3.69-1.6 5.313-9.07 4.437-11.81-1.24-1.93-2.21-2.23-3.44-.59-2.6 5.28-3.68 1.67-3.91-1.28-.4-5.59.14-10.73.75-14.81.32-2.09.31-2.82.06-2.81zm200.16 12.29a2.695 2.695 0 0 0-1.375.28c-.093 0-4.206 2.78-5.53 4.72-.81.62-.718 1.15-.47 2.22.63 1.45 1.74.99 3 .31 1.672-.23 2.48.87 2.344 2.88-.772 2.51.344 3.44.344 3.6 0 .16 1.61 1.54 3.5.44 3.99-1.52 6.48-3.01 12.07-4.22 1.47-.03 1.38-3.95-.94-4.09-3.02.15-5.82.31-8.84 2.69-1.86.43-2.18-.7-2.59-1.72-.47-2.52 1.07-4.3.75-6.19.09.09-.94-.83-2.25-.9zm128.16 4.78c-.742.03-1.524.13-2.656.22-1.225.26-1.652.8-1.875 2.28.088 2.25 1.465 2.14 2.875 3.03.816 1.04 1.347 1.98-.063 3.69-1.34 1.23-2.29 1.9-3.63 3.13-.63 1.08-1.03 2.73.9 3.25 3.56 1 11.81-4.35 11.81-4.47 1.33-1 .89-2.9.78-2.9-.78-.89-2.54-.35-3.72-.5-.56 0-2.41-.27-1.53-1.9.73-1.01 1-1.62 1.5-2.87.55-1.22.06-2.05-1.94-2.72-1.02-.18-1.73-.24-2.47-.22zm-53.54 108.4c-.008.01-.023.03-.03.03-5.93 1.52-5.745 7.68-1.94 10.38-62.593 0-158.65-1.06-179.25-1.06-11.524 0-47.986-1.37-48.687-1.37 7.82 11.44 19.15 13.77 33.97 14 27.81 0 156.62-.34 193.28-.34-2.6 4.63.24 12.08 2.28 13.44a1.342 1.342 0 0 0 .41.19c.03.01.07 0 .1 0 2.43.58 3.5-1.18 4.32-2.46 3.94.35 26.1.67 28.13-.03a.27.27 0 0 0 .03-.03c1.38 2.02 2.74 3.93 5.35 3.59 4.57-.98 8.17-1.47 8.28-10.75 0 0-.47-15.8-10.84-14.81-2.45.37-9.34 1.06-9.34 1.06-7.97-.95-13.82-1.05-22.78-1.38.83-1.05 2.29-5.3.5-6.84-.47-.39-1.16-.6-2.13-.53h-.09a.117.117 0 0 0-.03-.03c-.02-.01-.07-.01-.09-.03a.946.946 0 0 1-.15-.15c-.01-.02-.05-.05-.06-.07-.45-.66-.7-2.28-1-2.69l-.03-.03-.03-.03a.506.506 0 0 0-.06-.03h-.06zm4.25 22.6c.01 0 .02.01.03 0 9.133.45 17.713.09 26.845.53 1.448 1.23.724 4.05-.22 4.57a.887.887 0 0 1-.155.06c-.034.01-.09 0-.125 0-.034 0-.09.01-.125 0-2.97-.07-4.687-.14-7.656-.22a1.716 1.716 0 0 0-.063-.44c-.71-2.08-5.8-1.94-7-.31a2.54 2.54 0 0 0-.07.1 1.204 1.204 0 0 0-.13.29.955.955 0 0 0-.03.22c-.01.08-.04.17-.03.25-4.01.48-7.62-.13-11.63-.28-1.18-1.46-1.04-4.11.34-4.75z" fill-rule="evenodd"/>
</svg>
