<svg id="svg548" xmlns="http://www.w3.org/2000/svg" version="1.1" viewBox="0 0 640 480">
<defs id="defs550">
<clipPath id="clipPath15551" clipPathUnits="userSpaceOnUse">
<rect id="rect15553" fill-opacity=".67" height="512" width="682.67" y="0" x="0"/>
</clipPath>
</defs>
<g id="flag" stroke-width="1pt" clip-path="url(#clipPath15551)" transform="scale(.9375)" fill-rule="evenodd">
<path id="path1338" fill="#0000d6" d="m0.000065516 507.17 987.43-507.17h-987.43v507.17z"/>
<path id="path552" fill="#006000" d="m1024 0.0000021658-996.83 512h996.83v-512z"/>
<path id="path558" fill="#fc0" d="m1024 0.000057287h-54.858l-969.14 485.36v26.64h54.857l969.14-484.4v-27.596z"/>
<polygon id="polygon1350" points="533.78 256.9 555.61 324.28 626.44 324.23 569.1 365.81 591.04 433.16 591.04 433.16 533.77 391.48 476.5 433.15 498.45 365.81 441.12 324.21 511.95 324.28" fill="#fff" transform="matrix(.54314 0 0 .51115 -218.52 -122.19)"/>
<polygon id="polygon1351" points="533.78 256.9 555.61 324.28 626.44 324.23 569.1 365.81 591.04 433.16 591.04 433.16 533.77 391.48 476.5 433.15 498.45 365.81 441.12 324.21 511.95 324.28" fill="#fff" transform="matrix(.54314 0 0 .51115 -27.378 -122.19)"/>
<polygon id="polygon1352" points="533.78 256.9 555.61 324.28 626.44 324.23 569.1 365.81 591.04 433.16 591.04 433.16 533.77 391.48 476.5 433.15 498.45 365.81 441.12 324.21 511.95 324.28" fill="#fff" transform="matrix(.54314 0 0 .51115 -27.378 22.289)"/>
<polygon id="polygon1353" points="533.78 256.9 555.61 324.28 626.44 324.23 569.1 365.81 591.04 433.16 591.04 433.16 533.77 391.48 476.5 433.15 498.45 365.81 441.12 324.21 511.95 324.28" fill="#fff" transform="matrix(.54314 0 0 .51115 -122.39 -49.108)"/>
<polygon id="polygon1354" points="533.78 256.9 555.61 324.28 626.44 324.23 569.1 365.81 591.04 433.16 591.04 433.16 533.77 391.48 476.5 433.15 498.45 365.81 441.12 324.21 511.95 324.28" fill="#fff" transform="matrix(.54314 0 0 .51115 -218.52 22.289)"/>
</g>
</svg>
