<svg xmlns="http://www.w3.org/2000/svg" viewBox="0 0 1200 600">
<path fill="#00247d" d="M1200 600.07V.076H-.01V600.07H1200z"/>
<path d="M-.008 100.04h126.534L-.008 36.538V.078h72.412l177.03 88.212V.077h99.66V88.29L526.124.077h73.04v36.46l-127.16 63.503h127.158v100.006H472.004l127.158 63.504v36.502h-73.037l-177.03-88.297v88.297h-99.66v-88.297l-177.03 88.297H-.01V263.55l126.534-63.504H-.008V100.04z" fill="#fff"/>
<path fill="#cf142b" d="M552.04.077L352.053 100.082h47.872L599.162.077H552.04zm47.122 299.975L399.717 200.046h48.08l151.365 76.17v23.836zm-398.807-199.97L-.008.077v23.876l152.074 76.13h48.29zm-.417 99.964L-.008 300.052h47.872L247.85 200.046h-47.91z"/>
<path fill="#cf142b" d="M-.008 120.792h270.65V.077h58.58v120.715h269.94v58.545h-269.94v120.715h-58.58V179.337H-.008v-58.545z"/>
<path d="M399.67 640.77c-.05 16.33-2.63 33.93-23.77 42.31-21.14-8.38-23.72-25.98-23.76-42.31h47.53z" stroke-width="1.009" fill="#8fc5ff" transform="matrix(4.1664 0 0 4.167 -666.17 -2413.1)" stroke="#fff"/>
<path fill="#366cc9" d="M375.9 683.08c9.59-3.8 15.36-9.49 18.8-16.1-.51.02-1.59-.02-2.06-.05-.52-.03-20.27-2.02-22.61-2.87-2.03-.75-9.8.63-13.42 1.92 3.38 7.04 9.23 13.11 19.29 17.1z" transform="matrix(4.1664 0 0 4.167 -666.17 -2413.1)" stroke="#000"/>
<path fill="#5d3100" d="M361.13 672.95c.32-.1.94-.08 1.18-.03.29.05.34.08.44-.24.11-.31.34-.23.52-.07.19.15.65.07.83-.19.19-.26.24-.23.42-.05s.26.13.44.08.5-.26.65-.55c.16-.28.39-.38.52-.23.13.16.26.23.44.21.19-.03.24.16.21.39-.02.23.08.28.52-.08.39.39.52.23.52-.18 0-.42-.1-1.95-.26-2.16-.15-.21-.31-.8-.34-1.27-.04-.88-.05-.94-1.11-1.48 0-.32-.08-.44-.83-.39.02-.11-.11-.42-.26-.55-.16-.13-.19-.18-.11-.54.31.02.65-.03.83-.29s.78-.21 1.15-.05c.36.15.83.18 1.53.08.26-.21.7-.45 1.17-.71s.6-.36.62-.72c.07-.94-.26-2.01-.52-2.5s-.33-1.12-.7-1.9c-.39-.85-.39-1.06-.83-1.58-.12-.14-.26-.26-.29-.55a1.47 1.47 0 0 0-.44-.96c-.78-.72-1.09-3.04-1.4-4.75-.18-.99-.05-3.3-.47-3.67-.7-.57-1.04-.47-1.51-.65-.33-.47-.49-1.4-.8-2.23-.5.08-.83.6-1.17.78s-.39.18-.39.65c0 .46-.26 1.11-.73 1.84s-1.25.52-1.9 1.61c-1.43-1.74-1.45-2.23-1.56-2.73-.1-.49-.33-.59-1.14-1.29 0-.21-.1-1.04-.02-1.51-.6-.5-1.04-.42-1.33-.05-.29.36-.49.9-.94 1.11-.26.34-1.06 1.19-1.71 2.2.59 9.05 2.63 18.02 8.77 25.2z" transform="matrix(4.1664 0 0 4.167 -666.17 -2413.1)" stroke-width=".125" stroke="#000"/>
<path d="M399.67 640.77c.02-6.15-.33-12.12-.17-17.36-7.9-3.53-18.3-4.26-23.6-4.26s-15.69.73-23.59 4.26c.15 5.24-.19 11.21-.17 17.36h47.53z" stroke-width=".98" transform="matrix(4.1664 0 0 4.167 -666.17 -2413.1)" stroke="#fff" fill="#ff0"/>
<path d="M806.32 286.658c1.082 1.75 3.04 4.708 3.25 6.333.79-1.54 1.374-2.25 1.54-3.25.167-.95 1.292-2.87.875-3.87-.458-1.04-.79-1.83.417-1.08 1.167.75.958 2.04.708 4-.708 5.3-2.916 6.38-3.25 9.96 3.21 7.54.792 10.25 4.292 17.59.5.34 1.958-.25 2.416-.12 1.834-1.29 3.21-.83 5.792-.29s4 2.38 4 4 0 2.05.54 3.05c.543.96 1.626 2.5 1.418 3.59s.208 1.71.54 2.25-.124 1.75-.415 2.5c-.334.75-.25 1.75 1.083 3.34 1.292 1.63 4.29 8.46 4.29 12.46 0 4.04.25 5.88 1.876 6.63s2.167 1.42 1.958 3.13c-.25 1.75.75 10.71.96 12.13s.75 1.08 1.415 1.83c.625.79 1.084 1.63 3.25 1.63s4.25-.29 5.666-.04c1.92 2.71 3.13 6.37 3.55 8.67.46 2.25.42 5.37 1.17 5.37s1.5.08 1.29-2.71c-.2-2.83-.41-3.25-1.37-4.66-1-1.42-1.54-2.04-1-2.92s.67-2.29.42-3.37c-.21-1.08-.5-2.71 1.34-.54s2.38 2.71 2.92 3.46c.54.79.75 2.17.67 3.5-.12 1.29.08 1.83.83 1.17.75-.62 1.75.46 1.3 1.84-.41 1.42.13 2.29 1.42 2.71 1.29.46 1.84.75 2.17 1.75.34.96 1.42 1.41 1.42-.54s-.75-6.08-1.29-7.38-1-4.13-1.08-5.75c-.13-1.63-.46-2.04-1.21-2.38-.75-.29-1.42-.87-1.5-1.62-.12-.75-.75-1-1.25-1s-.92-.41-1.21-.91c-.25-.58-.54-.62-1.08-.67s-1.37.25-1.67-.58c-.25-.88-.66-2.13-1.16-2.84-.58-.71-1.04-.91-1.08-3.33-.08-2.46-.12-2.79-.87-3.66-.79-.83-2.08-3.12-2.62-4.08-.54-1-1.08-1.95-1.08.09 0 2.09 0 3.17 1.33 3.92 1.3.76 1.59.76 1.09 1.84-.58 1.08 0 1.83.21 2.58.21.79.63 1.54 0 2.29-.67.75-1.29.54-1.21-.67.13-1.17-.33-2.58-.87-3.54-.54-1-.96-1.63-1.62-1.08-.62.54-1.17-.12-.75-.54.46-.46.33-.79 0-1.08-.33-.33-.42-.67.13-1.33.54-.63.54-.96.21-2.46-.33-1.54-2.71-9.13-3.79-10.84-1.08-1.75-.96-3.04.42-1.29 1.42 1.71 2.62 3.25 2.71 4.62.13 1.42.46 2.29.88 2.84.46.54.75.33 1-.87.21-1.21 1.08-.75-.46-3.04-1.5-2.25-4.33-6.04-5.42-12.87s-1.5-11.37-2.58-13.21-1.42-2.25-1.5-4c-.13-1.75 0-3.46-.79-4.75-.75-1.34-1.3-1.542-1.38.41-.12 1.96.08 6.29.63 7.04s.21 2.71.12 3.79c-.12 1.08-1.83 2.17 1.71 4.34 1.42.87 1.21 2.04 1 2.79-.21.79-.46.66-1.21-.54-.75-1.17-1.5-2.17-2.25-2.8-.79-.67-.87-1.09-.79-2.63.13-1.5.46-2.582 0-3.13-.42-.54-.62-.13-.87.75-.2.87-.41 3.25-.83 3.92-.46.63-.67.21-1-1.202s.13-3.58.88-6.04c.75-2.5 1.21-5.13.54-8.33-.66-3.25-.33-4.25-2.83-6.96-2.46-2.71-5.29-5.29-6.46-8.67-1.21-3.33-1.41-6.25-2.71-7.79-1.33-1.5-3.16-3.46-4.33-4v-4.96c0-1.21-.54-1.96-1.96-1.75s-2.29 1.41-3.12 3.04c-.87 1.62-1.54.87-2.71 3.67-1.21 2.83-2.96 4.21-2.96 7.25z" fill="#cf6200"/>
<path d="M814.152 318.41c.833.542 1.666.875 2.958.25 1.333-.667 2.875-2.542 4.625-.708 1.708 1.833 2.666 4.875 2.666 7.25 0 2.417 0 6.834 2.71 9.334s4.13 5.084 4.25 8.334c.09 3.25 1.29 8.25 1.63 9.543s1.09 2.792 1.92 3.667c.88.875 1.54 3.375 1.67 5.96.09 2.582-.33 4.416 0 5.75.29 1.29 0 2.374-1 1.708-.96-.625-1.16-.96-1.75-2.042-.5-1.084-1.16-.875-.62.75s2.17 3.125 3.59 3.125c1.38 0 1.84.25 2.71 1.09.84.88.96 1.34 2.46 1.34 1.54 0 1.75 0 3.17.42s1.42.21 2.17 0 1.5.42 2.04 1.84 1.84 5.29 1.84 6.38 0 2.17.75 3.25c.79 1.09.58 2.17-.29 1.54-.87-.66-.87-.46-1.54-.33-.63.13-1.08-.21-1.92-.75-.87-.54-.33-.46-1.21-1.75s-1.41-1.71-1.41-.75-.08 2.17-.75 1.63-.95-.54-1.5 0-.79 1-1.41-.08c-.66-1.08-1.41-1.08-2.08-1.33-.62-.2-.62-.2-.95-1.16-.34-1-1.3-1.21-2.17-1.21s-1.29-.41-1.42-1.08c-.08-.62-.62-1.08-1.08-1.41-.41-.29-.21-1.08-.33-1.83-.08-.75-.75-.42-1.17-.63-.42-.25-.75-.12-.75-1.21s-.46-1.42-.75-2.17c-.33-.75 0-1.5.21-2.37s.08-1.41-.54-2.16c-.66-.75-.12-1.5-1.83-3.04-1.75-1.5-2.62-.2-3.16-3.79s-1.62-10.91-2.58-12.12c-1-1.21-1.63-2.05-2.59-2.38-1-.34-1.67-.13-1.75-2.17-.12-2.04-.75-4.66-2.08-5.96-1.29-1.29-1.83-1.75-2.46-2.29-.67-.54-.87-1.5 0-3.33s.54-4.33.42-5.54c-.12-1.17-.42-2.71-.21-4s.08-2.92-.21-3.79c-.33-.88-.79-1.09-.21-1.71zm26.082-30.794c-1.46 1.875-3.042 3.46-5.042 4.917-2.04 1.417-4.624 2.584-3.208 5.042 1.458 2.46 2.625 2.75 2.917 4.626s.71 3.46 2.17 3.88c1.42.46 2 .17 2 3.21 0 3 0 4.17 1.29 5.34 1.29 1.13 1.17 2.29 1.75 5.04s.59 8.67 2.29 12.71c1.75 4.05 5.67 11.71 5.21 13.3-.41 1.59-1 2.71.71 4.63 1.75 1.88 2.92 4.58 3.04 6.17.17 1.63.46 2.17 2.17 1.63 1.75-.58 2.63-1.17 3.17-1.87.59-.75 1.75-.58 3.34.25 1.59.88 4.04 1.75 5.5.88 1.42-.87 2.17-2.16 3.46-2.16 2-1.41 2.75-4.46 3.17-5.33s.17-.87-.71-1.71c-.87-.87-.46-2.33-.58-3.75-.12-1.46-.71-3.62-2.46-6.79-1.75-3.21-2.75-7.08-3.91-8.08-1.12-1.04-1.7-3.5-1.87-4.62-.12-1.17-1.42-2.17-2.29-3.04s-1.75-2.16-2.75-7.21c-1-5.08-1.71-8.66-1.71-9.54s-.17-1-1.04-1.29c-.83-.29-1.29-1.75-1-2.46s-.29-1.45-.58-2.29c-.29-.87 0-2.46.58-3.33s.42-3.33-.12-5.33c-.58-2.04-1.16-3.75-3.5-4.08-2.29-.25-2.7-.83-3.58-2.71s-1.75-5.21-2.04-5.92c-.29-.75-.71-.87-2.46.55-1.7 1.46-2.29 1.96-2.29 4.62 0 1.75.29 2.34.88 3.34s.71 1.29 1.13 4.04c.46 2.75 2.92 7.08-.25 9.54-3.21 2.46-2.75 3.04-2.63 4.75.17 1.75-.87 2.88-1.46.46-.54-2.46 0-3.92 1.75-5.08s3.33-2.58 2.17-4.16-1.58-5.33-1.75-7.08c-.12-1.75-.41-2.33-1.41-1z" fill="#cf6200"/>
<path d="M814.485 324.41c-.04 1.167.21 2.46.292 3.5.125 1.21.458 3.71-.417 5.543s-.666 2.792 0 3.334c.042.04.042.083.084.083 1.79-.583 2-2.542 1.54-3.5-.5-1-.374-2.25.21-3.25s.583-1.584.083-2.292c-.542-.75-.542-.75.04-2.75.543-1.792-.75-1.792-1.832-.667zm18.5 28.003c-.334-1.292-1.543-6.292-1.626-9.543-.13-3.25-1.55-5.833-4.25-8.334-2.09-1.958-2.55-5.083-2.67-7.5-1.59-.96-2.25-.5-2.13 1.292.16 1.958 2.08 2.875 1.83 5.708-.29 2.792-.29 2.084 1.08 3.46 1.33 1.374 1.83 2.666 1.12 3.25s-.8 1.583.2 1.958c1.04.333 1.08 1.417.96 2.417-.17 1.05.79 1.25 1.37 1.96.58.75.62 2.46.08 3.46-.59 1.04-.67 2.63.33 1.75s1.46-.08 2.25 1.29c.66 1.21 1.25.84 2 .46a9.603 9.603 0 0 1-.59-1.62zm14.08 25.21c-.665 1.292-1.415.875-2.082.21-.625-.626-1.416-.626-1.083-1.835.333-1.167.208-1.417-.625-2.042-.125-.083-.208-.166-.333-.208h-1c-1.5 0-1.625-.458-2.458-1.334-.21-.166-.375-.333-.542-.458-.042.208 0 .458 0 .792 0 1.208 0 1-1.208 1.292-1.167.333-.96-1.167-1.167-2.167-.083-.25-.167-.417-.208-.584-1.3-.25-2.67-1.63-3.17-3.09-.54-1.63.12-1.84.62-.75.58 1.08.79 1.41 1.75 2.04 1 .66 1.29-.42 1-1.71-.13-.42-.17-.92-.13-1.46-.25-.42-.54-.75-.96-.96-1.75-.75-1.21-.96-1.09-2.38.08-1.38-.25-1.38-1.34-.63s-1.17-.13-1.17-2.29-1.42-2.17-1.75-.63c-.33 1.5-.87.54-1.5-1.63-.67-2.17-1.54-2.71-1.62-.67-.09 1.75-.59 2.17-1.71 1.21a123.2 123.2 0 0 1 .5 3.33c.54 3.58 1.41 2.29 3.16 3.79 1.71 1.54 1.16 2.29 1.83 3.04.62.75.75 1.29.54 2.16s-.54 1.62-.21 2.37c.29.75.75 1.08.75 2.16s.34.96.75 1.21c.25.13.63.04.88.17.29-.38.54-.83.87-1.17 1.29-1.29 3.25.13 3.87 1.75.67 1.63 1.42 2.04 2.37.75 1-1.29.66-1.08 1.75.13 1.08 1.16 1.5.95 1.5.95s1.08-.42 1.83.21c.79.66 1.21.54 2.62-1.5 1.37-2.09-.67-1.42-1.29-.13zm3.835-59.42c.458-3.168.166-6.335 1.458-7.5s2.875-3.46 2.75 1.457c-.167 4.917-.292 4.625-1.292 5.75-1.042 1.167-1.916 1.46-.875 3.334 1 1.875 1.13 2.042 1 4.917s-.12 4.05 1 5.5c1.17 1.42 1.46 1.59 1.75 3.17s1.3 3.75 2.59 4.92c1.29 1.13 2.75 4.46 2.88 6.79.17 2.29 2.17 2.88 4.09 4.46 1.88 1.59-.46 2.75-1.91 2-1.41-.71-.83 0-1.71 1.04-.87 1-1.16 1.13-1.87-.58-.71-1.75-3.17-2.91-4.33-3.33s-2.17-2.29-3.17-4.16c-.87-1.62-2.58-2.79-4.16-2.91.42 1.21.67 2.17.54 2.63-.42 1.59-1 2.71.71 4.63 1.75 1.88 2.92 4.59 3.04 6.17.16 1.63.46 2.17 2.16 1.63 1.75-.58 2.63-1.16 3.17-1.87.59-.75 1.75-.58 3.34.25 1.59.88 4.04 1.75 5.5.88 1.42-.87 2.17-2.16 3.46-2.16 2-1.42 2.75-4.46 3.17-5.33s.17-.87-.71-1.71c-.87-.87-.46-2.33-.58-3.75-.12-1.45-.71-3.62-2.46-6.79-1.75-3.21-2.75-7.08-3.91-8.08-1.12-1.04-1.7-3.5-1.87-4.63-.12-1.17-1.42-2.17-2.29-3.04s-1.75-2.16-2.75-7.21c-.79-3.95-1.42-7.04-1.62-8.58-1.04 1.67-1.75 2.04-2.12.92-.42-1.29-1-2-1.58-1.17-.58.88-.71-.71-.71-1.41 0-.75-.16-.87-.87-.87-.75 0-.16-1.16-.46-3.33s-.7-2.46-1 .17c-.29 2.58-1.7 4.17-1.12 4.75.54.58.25 1.75-.33 3.46-.54 1.75-.25 2.75.17 3.92.42 1.12-.29 3.29-.58 5.17-.29 1.91 1.17 3.75 1.59.58zm-26.374-25.92c-1.083.042-1.79 1-1.208 4.292.417 2-1.125 1.584-1.708.542-.584-1-1-3.167-2.167-5.042s-.583 1.292-.708 3.042c-.167 1.75 1 1.75 2 3.167 1 1.458.166 2.04-1 2.04s-.583 2.293-.292 3.877-.29 1.88-1.166.59-.292-3.33-.125-5.75c.125-2.46.29-1.91-1.334-2.46-1.583-.58-1.29-.87-.708-2.33s1.167-2.16.458-2.87c-.75-.75-.583-1.16.542-1.29 1.167-.17.75-1.04 1.75-1.33s1.458.17 1.583-1.7c.125-1.58.667-2.54 1.833-2.04.71 2.38 1.625 6.17 2.25 7.29zm14.54 17c0 3 0 4.168 1.293 5.335 1.29 1.125 1.16 2.292 1.74 5.042s.58 8.668 2.29 12.71c.54 1.208 1.25 2.75 1.95 4.333.96-.75 1.79-2.083 2.08-2.75.46-1-.83-3.042-1.88-4.75-1-1.75.17-2.334 1.17-4.5s-.13-2.293-1.75-2.876c-1.59-.583-1.59-2.042-2.42-4.334-.88-2.29-.75-3.333-.17-4.625s.16-2.292-1-2.583-.88-1.167-.46-2.626c.46-1.42.75-1.71-1-1.3-1.29.33-1.63.58-2 1.04.08.42.12 1 .12 1.87z" fill="#00b800"/>
<path fill="#5d3100" d="M855.69 315.327c-.166 1.75-.166 2.583-.582 3.167-.46.583-.167 1.458.29 2.333.418.875.71 2 .293 3.584-.45 1.59.3 2.92 1.13 3.34.88.42 1.34 0 1.04 2.04-.29 2 .84 4.17 1.88 5.04 1 .88 1.71 2.29 1.59 3.17-.16.88.71 1.75 1.71 2.17 1.04.42.88.59.88 1.17s.42.59 1.59.88c1.17.25 2.04 1 3.34 2.59s3.17 2.46 2.88.71c-.29-1.71 0-2.87-1.7-3.75-1.75-.87-3.04-5.04-3.75-7.96-.75-2.87-3.04-6.75-4.33-7.5-.17-2 .12-3-1.17-4.04-1.29-1-1.75-2.29-1.75-3.29 0-1.04-.71-2.33-1.29-2.62s-.87-1-.87-1.87-1-.71-1.12.88z"/>
<path d="M848.025 392.79c2.583-.207 9.624-2.29 10.374-2.916 1.75 1.167 4.79 2.792 6.08 2.792-2.5.542-4.13.25-4.75-.208.29.75 1.16 1.958 1.71 2.083-2.38-.12-5.09-.66-5.96-1.54-2.04.88-5.5 1.09-7.46-.21zm4.665 3.25c.918.25 5.5 1.043 6.126 1.043-1.542 1.292-.25 2.542 2.29 2.292-1.207.167-2.582.667-1.665.833 2.21.417 8.25-1.208 9.42-1.833-2.04 2.667-12.04 5.084-16.16-2.334zm4.126 6.585c1.208-.625 4.29-.416 5.75.292-1.584.583-4.792.583-5.75-.292z" fill="#00d860"/>
<path d="M861.44 402.542c2.21-.375 8.5 1.125 10.708-.208-.75 2-4.708 2.25-6.04 1.833-1.376-.458-2.668-.958-3.584-.917.5-.29-.333-.333-1.083-.708z"/>
<path d="M863.732 405.625c1.667.25 7.666-.5 9.5-1.208 1.958.667 5.832 1.71 6.666 1.584-1.834 1.13-5.333.5-6.5 0-3.25 1.09-5.874 1.42-9.666-.37z" fill="#00d860"/>
<path d="M866.607 406.626c2.375.54 4.458.166 6.79-.625.75.34 2.5.71 4.126.63 1.083.63 2.54 1.5 3.958 1.59-1.45.63-6.83 0-7.91-.58-2.71.04-7.33.67-8.5 1.59-.04-.75.46-1.83 1.54-2.58z" fill="#00d860"/>
<path d="M863.732 394.416c1.875.625 8.666.334 12.124-1.292 1.375-.666 2.208.417.625.96-5.62 1.957-10.04 2.707-13.29 1-1.29-.71-1.41-1.334.55-.668z"/>
<path d="M896.98 385.207c-8.333 3.917-13.874 5.084-25.457 1.5-1.083-.333-1.833 0-.666.792 1.208.75 7.582 2.45 9.124 2.58 1.5.12.96.79.05 1.08s-1.21.91.04.41c1.25-.46 8.21-.67 11.04.83 1.25.62 1.59.54 1.46.04-.08-.5.54-.8 1.46-.92.96-.09 1.46-.42.79-.71-.7-.25-.83-.42-.29-.71.54-.25.59-.54-.21-.71-.83-.13-1.37-.38-.58-.75.75-.38 1.88-.63 2.75-.75.21-.59-.16-2.17.5-2.71z" fill="#00d860"/>
<path d="M883.106 386.207c4.75.334 13.54-1.875 18.207-6.417 1.583 1 3.875 2.084 5.083 2.292 1.167.208 2.25 1.292.417 1.292s-4.417-.75-5.625-1.292c-6.166 3.792-13.416 5.042-17.957 4.625-1.33-.083-1.62-.625-.12-.5z"/>
<path d="M869.023 360.205c1.625 1.125 4.5 3 8.25 2.75 1.833 1.46 4.708 2.71 6 3-2.5 1-5.21 1.876-5.917 2.668-1.125-1.084-2.583-.917-2.958-1.46-1.083.876-.917 1.418-.208 1.876.708.41 6.166 1.33 7.5.95 1.374-.38 1.707.75.624 1.12-2.958 1.04-8.624.08-10.582-3.09-1.96-3.13-3.625-4.34-8.917-1.46-.624-1.5-.624-1.88-1.624-1.88-1.04 0-2.95-1.38-1.45-1.34 1.46.08 5.79-.59 9.29-3.17z" fill="#00d860"/>
<path d="M870.315 367.164c-.875.25-3.458 1.625-4.375 1.75s-2.54 1.417-.875 1.46 3.833-1.793 5.042-1.96 1.29-1.5.208-1.25zm5.25 5.5c-.625.084-3.417.75-4.167.71-.75-.084-1.5.124-1.458.666s.292.875-.875.79c-1.125-.124-2.083.293-2.375.626-.25.334-.458.667.667.75 1.125.125 1.708.25 3.04-.375 1.293-.58 2.543-1.5 3.918-1.54 1.416-.08 2.833-1.91 1.25-1.62z" fill="#00d860"/>
<path d="M871.69 375.998c1.166.792 7.04 2.792 9.124 2.625 2.125-.166 1.75.834.125 1.167-3.3.708-7.34-.75-10.09-2.917-1.34-1.083-.09-1.458.83-.875z"/>
<path d="M899.396 378.873c-4.458 1.417-9.04.917-10.874.417-1.833-.458-3.54-.583-2.29.625 1.25 1.167 5.248 2 7.54 1.375-8.083 1.875-10.166 1.71-12.166 1.375-2.042-.333-5.79-.25-7.375-.125-1.2.125-2.83-.04-3.54-.458-.7-.458-.91-1.25 1.21-1.042s2.38-.208.54-.5c-1.83-.25-4.37.5-1.87 2.084 2.46 1.54 7.92-.125 11.42.833 3.46 1 10.84 1.71 17.79-3.917.38-.292 1-1.083-.37-.667zm-21.998-6.583c.167.5.167 1.125 0 1.5-.125.375-.125.875.583.333.67-.542 1.13-1.208 1.84-.833s2.5.333 3.29.208c.79-.083 1.09-.25-.12-.75-1.16-.46-2.37-.625-3-.584a5.042 5.042 0 0 1-2-.333c-.58-.2-.7-.12-.58.46z" fill="#00d860"/>
<path d="M888.94 374.373c-.918.083-2.543-.542-3.418-.917-.833-.375-2.083-.416-1.166.834s4.916 1.916 6.333 1.333.79-1.25 2.2-.375 2.87 1.46 3.91 1.46c1 0 1.41 0 .25-.668-1.13-.625-1.67-.792-1.79-1.334-.09-.54-.25-.875.79-.54 1 .332 2.21.915 3 .5.83-.46 2.33-1.418 3.71-1.418l.29-.834c-1.92-.125-3.17.46-3.71.667s-1.54.34-2.54.17c-1.04-.16-2.42-.29-2.71-.54-.33-.29-.33-.5.54-.66.83-.16 1.12-.75-.09-.54-1.17.21-4.38.13-6.04-.42s-2.38-.58-3.09-.33c-.71.29-.63 1.04.41 1.08s3.37.3 4.17 1.05c.83.75.71.79-.21.42s-2.58-.17-.88 1.08zm14.123-1.96l-.292.835c2-.042 6.88.417 8.42 1.417 1.54-1.21 1.25-1.584 2.34-1.375s2.46.583 3.04.29c.59-.332 1.04-.29 1.67-.165.67.083 2.09-.167 2.88-.667.84-.46 2.5-1.125 3.46-1.125 1 0 2.17-.21.38-.5-1.79-.25-4.46.29-5.41.583-.91.333-3.66.583-5.29.583s-3.83.79-5.66.29c-1.83-.46-4.41-.17-5.5-.17z" fill="#00d860"/>
<path d="M928.145 371.456c-3.25 2.375-7.167 2.917-11.79 3.25-1.376.084-.96.5.207.584 4.875.5 10.5-1.292 12.333-3.25.54-.542.5-1.5-.75-.584z"/>
<path d="M906.02 376.998c1.376.042 6.25 1.292 7.834 1.834 1.208-.125 1.5-.375 1.29-.834-.207-.416-.374-.916 1.793-.79 2.167.082 7.166.04 8.083.04.75-.333 2.416-1.625 3.166-1.667-1.916.09-10.04.55-11.082.42-1.042-.08-1.584 0-2.21.38-.665.38-1.04.54-1.832.25-.833-.33-2.29-.79-3.083-.29-.84.5-2.5.05-3.96.67z" fill="#00d860"/>
<path d="M925.02 377.248c.75-.333 2.416-1.625 3.166-1.667 1.417-.12 3.042.46 3.792.59s1.583-.04 1.04-.62c-.54-.62-.04-1.66 2.168-1.37s3.375.67 5.54.42c2.168-.2 3.126 1.42 7.25-.2-.333 1.63.417 1.75 1.167 1.42s1.625-.21 2.917.75c1.333 1 9.208 1.08 11.082.75 1.834-.29 2.792.67 1.375 1.08-1.375.46-1.708 1.09-1.375 1.54.292.42.625.96-1.083.75-1.75-.21-2.09.34-2.96.96-.88.67-1.09.88-3.46.46-2.38-.46-2.79-.12-4.13.09-1.29.21-1.63.21-2.92-.21s-4.13-.87-5.84-.33c-1.75.54-3.05 1.09-4.55.67-1.54-.41-1.63-.2-.67-1.2 1-.96 1.21-.87 3.04-1.08s3.25-.75 1.96-1.5c-1.34-.75-1.75-.66-3.5.21-1.71.88-2.59 1.42-4.54.34-1.92-1.08-2.92-.87-4.21-.54s-3.46-.41-5.29-1.25zm6.5 3.25c-2.5.376-3.167-1.25-5.75-.916-.875.125-2.333 1.208-.334 1.04s4.167.918 6.125.752 1.09-1.042-.04-.876zm-2.875 1.876c1.29-.46 4 .458 5.124.25 1.12-.25 2.2.458 1.04.833-1.21.417-4.09-.667-5.38-.292s-2.59-.125-.79-.79zm-25.875 7c1.793.084 8.21-.208 10.75-5.625.21-.42.376-.59 1.21-.05.79.54 3.79 2.33 9.373 2.79 1.542.16 3.25.91.084.7-3.125-.21-8.125-1.09-9.79-2.09-2.835 4.41-7.876 4.96-11.626 4.83-2.29-.04-1.75-.63 0-.59z" fill="#00d860"/>
<path d="M916.687 382c-.875 1.207-3.875 3.25-5.208 3.374-1.38.125-5.42-.25-6.46-.667-1.04-.375-2.25-.25-.79.792 1.45 1 5.08 1.7 6.54 1.37 1.46-.29 3.12-.79 4.29-.09 1.12.71 3.25 2.04 4.46 1.79 1.25-.29 3.79-.29 4.62.08.79.37 2.21 1.54.08.87-2.09-.67-3.84-.13-4.79-.54 1.08 1.5 3.54 3.96 5.62 3.96.5 0 .83.87-.21 1.33 1.04.5 3.41.87 4.62-.25-.29.41-.13.71.41.96.54.29 1.16.66.21.79-1 .08-3.21.37-3.84.08 2.08 1.33 7.54 3.5 13.12 2.41 1.08-.17 1.62-.63-.09-.59-3.58.12-3.79.08-4.46-.34-.63-.38-.54-.67.5-1s3.62-.71 4.71-.71 2.16-.46-.04-.46c-2.25 0-4.96 0-6.04-.38s-1.88-.83-.75-1.63c1.16-.75 2.33-.54 2.87-1.25-3.58-.04-7.96-1.92-5.54-3.67.58-.42.42-.42-.5-.54-.96-.09-3.67-.88-4.79-1.5-1.13-.67-.38-1.21.54-1.38-2.08.37-6.33-.75-9.12-2.88zm31.748-.085c-1.958 1.46-5.625 2.042-7.208 2.042-1.54 0-1.75.542-.5.708 1.208.167 2.583.334 3.125.167s.875-.208 1.667.167c.83.37 2.54.58 4.08.12 1.5-.5 4-.71 5-.67 1.04.04 2.16.08.12-.5s-5.42-.17-6.21.08c-.84.21-3.04.04-1.88-.34 1.21-.38 2.25-1 2.83-1.46-.42-.13-.71-.25-1.04-.34zm-1 4.21c-1.708 1.25-4.125 2.457-6.625 2.54 2.292.834 4.167 3.168 5.625 3.043-.708.416-1.54 1.083-2.458 1.208 1.375.375 3.75-.083 5.708-1.167 3.25.91 7.458.33 8.874-.88-2.09 0-4.63-.75-5.8-1.71 1.04 0 2-.67 2.5-1.25-2.42.41-6.63-.75-7.84-1.79z" fill="#00d860"/>
<path d="M943.977 392.916c.917-.125 1.75-.792 2.458-1.208-1.79.583-9.583-.667-11.916-2.71-2.3-2.04-2.3-.5-.71.96 1.66 1.5 4.5 3.708 10.16 2.958zm5.708 4.96c-.958.54-5.625.874-7.125.54-1.54-.333-2.166-.166-1.79.46.374.582.54 1.124-.71.957s-3.458.125-4.374.417c-.917.333-2.083 1.167-.125.833s3.75-.708 5.21-.333 6.67.5 7.67.042c1.04-.417.34-.417-.16-.417-.46 0-.71-.333 0-.667s1.25-1.25 1.42-1.833zm-45.04-6.293c-1.957.875-8.457 2.625-10.165 2.708-2.166 1-3.916 1.55-5 1.55.75.63 3.71 1.29 4.875.96-.625.67-2.166 1.42-2.708 1.75 1.75-.25 3.79.21 4.666.34-2.29 1.29-5.416 1.71-7.04 1.5.54.75 1.29 1.5 2.29 1.5-2.083.54-4.582.54-5.874.13.54 1.09 1.08 1.71 1.87 1.84-1.75.21-3.92.54-5.75-.54 1.41 1.83 4.54 2.5 9.21 1.96 4.62-.54 8.54-2.62 9.62-3.46-1.96.21-4.54.34-5.84.09 2.58-.62 8.21-3 9.16-4-1.09 0-2.13-.33-2.92-.87 1.54.21 6.83-.41 8.46-1.08a6.086 6.086 0 0 1-3.67-2.38c6.79 2.17 14.42 1.46 18.08.55.87-.21.96-1.29-.79-1.17-3 .21-8.88-.67-10.38-1.42 1.41 1.09 3.12 1.71 4.33 1.96-2.84.75-6.71 1.29-12.46-1.87z" fill="#00d860"/>
<path d="M891.647 398.542c.542-.334 2.083-1.084 2.708-1.75-1.166.333-4.125-.334-4.875-.96 1.084 0 2.834-.54 5-1.54-3.916-.084-6.624-.084-8-.834-1.416-.792-4.04-.542-5-.334s-.666 1.834 3.46 1.417c-1.71 1.17-6.376 1.63-8.125 1.17.458 1.42.75 2.84.333 3.59 2.29 1.29 8.25 2.92 11.166 2.71-2.625-.95-4-2.04-1.833-2.29 2.17-.21 3.34-.62 5.17-1.16z" fill="#00d860"/>
<path d="M884.94 405.584c5.207-.46 12.123-.542 17.665-5.21 1.375-1.207 2.333-.79.958.418-2.917 2.625-10.166 6.167-17.082 6.292-2.83.042-4.12-1.292-1.54-1.5z"/>
<path d="M923.77 397c-1.292.5-4.958 1.083-6 .917-1.083-.125-2.666-.21-3.54.333s-.918.875.29 1c1.167.083 2.71.208 3.46.125-1 .583-1.626 1.333-1.835 1.667 1.71-.46 4.917.29 5.833.833-.708.25-1.5-.04-2.125-.375 2.917 3.084 11.583 3.084 13 2.542-.625.5-1.25 1-1.875 1.167 2.416.41 5.25.37 8-1.25-.917.16-3.667-.13-4.375-.17.54-.54 1.333-1.04 2.083-1.25-1.084-.21-4.458-.13-5.292.33.334-.67.917-1.46 1.584-1.75-4.292 0-9.5-.04-11.375-1.09 3.042.33 6.375-1.46 7.792-1.46-2.375-.04-5-.58-5.625-1.58zm-10.874 2.375c-2.125.458-5.333 1.333-6.167 1.792-.88.5-1.8.792.08.792 1.91 0 7.04.2 8.16.37-2.88-.46-6.75-.54-7.5-.54s-1.63-.09-.25-.5c1.41-.42 3.25-1.42 5.66-1.92zm-4.292 5.042c.75 0 4.042 0 5.375-1.125 1.33 1.042 3.91 2.5 5.62 2.5 1.66 0 1.5.417.04.584s-4.33-.71-5.79-1.792c-1.96.708-3.59.125-5.25-.167zm-25.082 14.585c3.375 1.29 7.792 2.29 11.04 1.208 1.876 1.583 5.668 1.708 7.71 1.292 2.04-.46 3.874-.667 6.166.083 2.29.792 6.916.833 8.25 1.917-1.21.042-3.75 0-4.334.167-.625.12-.292.54.792 1.12-3.667-.21-10 1.33-11.958 3.04.708-1.71 2.875-3.96 6.29-3.96-1.957-.71-8.165-.75-10.206.5-.584-.67-1.292-1.75-1.334-2.17-3.29 1.87-9.79-.84-12.416-3.21zm-8.582-6.084c4-.542 6.708-1.834 7.874-3 .708.625 3.667 1.29 6.833.29-.625.5-.708 1.418-.417 1.918-2.124.042-6.124 1.083-7.5 1.792-1.332.708-5.29 1.167-6.582.458-1.292-.667-1.333-1.292-.208-1.458z" fill="#00d860"/>
<path d="M889.23 412.126c-2.124.042-6.124 1.083-7.5 1.792.293.542.46 1.375.5 2 3.917-1.417 12.833-2.292 16.25-1.75-1.625.125-4.708 1.792-6.458 2 4.25-.292 8.374.542 9.416.833 1.083.25 1.333 1.09.5 1.84-.792.75-1.167.88.542.92 1.75.04 5.333-.16 6.916-1.71-.625-.7-2.292-.45-2.792-.95 1.125-.37 2.417-1.16 2.917-1.79-2.91-.04-4-.08-4.95-.29-1-.21-1.71-.5-.5-1.12 1.17-.66 1.71-1.21 2.09-1.66-2.08.63-5.37 1.09-8.16-1.08 1.04.29 3.46.13 4.34-.25-.91-.5-1.66-.87-2.41-.87 2.21-1.08 6.59-2.04 12 .13 2.71-.21 5.63-.13 7.71.41.88-.87 2.71-2.91 3.67-3.46-6.37.55-17.87-.66-17.62-4-2.08 2.71-6.83 4.21-8.91 3.8-.2.96.67 2.17 1.42 2.79-2.16.46-5.83.8-7.58.46 1 .96 2.83 1.84 3.91 1.71-2.29 0-3.45.46-5.25.29z" fill="#00d860"/>
<path d="M902.48 419.752c1.75.04 5.333-.167 6.916-1.71-.625-.707-2.292-.457-2.792-.957 1.125-.375 2.417-1.167 2.917-1.792 4.55-.333 8.63-.125 10.55-.75 1.96-.584 6.96-.25 7.92-.542-4.33.71-5.21 1.09-5.41 1.8s1.42 1.29 2.46 1.29c-1.95-.08-4.41 1.96-4.62 2.79-2.58-1.54-3.83.25-4.08.84-1.08-.41-4.66-.29-6.5 1.25-2.41-.66-3.96-1.08-6.33-.66 1.46-.33 1.17-1.33-1-1.54zm20.79-12.668c1.458-.042 4.666.125 5.79-.042-.75.375-1.707 1.084-1.957 1.417 3.708-.46 8.708-.71 10.208-.5-1.79-.3-3.62.87-4.58 1.45-.91.58-.37.96.88 1.12s2.96 1.16.67.83-6.79-.34-7.87-.17-1.66-.38-.08-.59c1.59-.25 2.67-.8 3.42-1.21-1.33.33-3.79.33-4.54.12-.79-.25-1.25-.67-.37-.88.84-.21.25-.54-.66-.46-.91.12-3.25 1.08-4.54 2.33 1.38-1.46 2.63-2.75 3.67-3.46z" fill="#00d860"/>
<path d="M906.77 409.542c1.793 2 3.876 3.126 7.25 3.25.71 0 2 .96.334 1-4.542.167-6.833-.916-8.833-3.833-.41-.59.34-1.46 1.25-.42zm27.124-37.878c2.375 1.126 7.208 2.126 10.916 1.96.667-.043 1.958.666.334.832-4.21.375-8-.25-11.54-2.167-.96-.59-.626-1.05.29-.63z"/>
<path d="M936.31 371.623c3.71-.125 6.46-.042 7.584 1.042 2.124-.667 5.916-1.042 6.79-.876.834.16 1.834-.21-.166-.71s-6.666-.67-8.124-.38c-1.46.25-6 .41-7.54.25.665.12 1.082.25 1.457.66zm14.292 1.457c1.75-.916 6.707-.04 8.25-.707-1.084 1.292 3.457 1.417 7.415.375-1.54 1-4.79 1.125-6.166 1.75-1.41.583-2.16.167-3.25-.333s-3.87-1.46-6.24-1.084z" fill="#00d860"/>
<path d="M966.267 372.748c-3.958 1.042-8.5.917-7.416-.375-1.54.667-6.5-.21-8.24.708 1.79-1.08 3.17-.2 4.46-2.45.79.17 2.71.29 3.34-.58 1.17.29 3.17.75 3.75 1.38.59.59 1.5-.16.75-1.08 1.79-.66.67.75 4.83-.29.88-.21 2.96-.58 3.67-.62-1.41 1.13-3.08 2.38-5.12 3.34z" fill="#00d860"/>
<path d="M373.36 664.19c-.02-1.96-.21-18.42-.21-22.22 0-.91-.47-.73-.47 0v22.12c.22.04.51.08.68.1zm7.23-23.42l.81 23.46-.14.19-.47.01-.52-23.66h.32zm6.84 19.81c-.07-2.39-.37-13.45-.48-18.9-.02-.73-.45-.6-.44.03.04 4.39.31 16.67.35 18.88.17 0 .47-.01.57-.01z" transform="matrix(4.1664 0 0 4.167 -666.17 -2413.1)" stroke-width=".125" stroke="#000" fill="#ff0"/>
<path fill="#fff" d="M376.6 644.67l-6.91-.1c-.39 1.4 1.35 1.37 2 1.01.76.57 1.33.52 1.75.05.59.49 1.35.37 1.66.05.83.63 1.69 0 1.5-1.01zm.52 3.48l-7.06-.02c-1.22 1.17.36 1.74 1.71.93.18.39 1.01.62 1.67.31.59.47 1.35.13 1.74-.26.72.34 1.58.45 1.94-.96zm-.2 4.42l-6.81-.05c-.13 1.22 1.25 1.06 1.79.75.52.81 1.66.63 2.11.16.65.44 1.24.33 1.58-.08.76.65 1.38-.18 1.33-.78zm.34 4.42l-7.62-.13c-.42 1.3.75 1.53 1.3 1.22.18.75 1.2.49 1.46-.05.38.39.88.18 1.11-.08.11.7.99.73 1.67.13 1.37.96 2.67-.16 2.08-1.09zm6.75-1.82l-6.34-.05c.29 1.3.91 1.63 1.92.88.76.78 2.01.49 2.32.1 1.37 1.12 2.13-.18 2.1-.93zm-.65-4.34l-6.13-.18c.1 1.56 1.58 1.5 2.34.83.57.73 1.58.52 1.95 0 .78.78 2.05.31 1.84-.65zm.81-4.89h-6.6c.07 1.09 1.53 1.72 2.65.68.31 1.25 1.5.86 2.02.36.76.96 2.5-.13 1.93-1.04zm-.39-3.32l-5.9.08c-.1.96 1.3 1.37 1.82.59.28.5 1.27.44 1.56-.02.46.72 1.04.23 1.22 0 .67.49 1.4.26 1.3-.65zm6.91 2.15l-7.22-.07c-.03.75.75 1.06 1.22.75 0 .73 1.01.96 1.66.39.44.62 1.74.8 2.26-.05 1.07.88 2.21.26 2.08-1.02zm-.1 5.93l-7.07-.03c.05.99 1.19 1.33 1.84.81.16.83 1.04.88 1.56.47.63.7 1.67.75 2.24-.03.86.31 1.5-.42 1.43-1.22zm-.37 5.33l-5.58-.08c0 .99 1.16 1.12 1.68.6.55.65 1.38.65 1.85.13.75.65 1.9.46 2.05-.65z" transform="matrix(4.1664 0 0 4.167 -666.17 -2413.1)" stroke-width=".125" stroke="#000"/>
<path d="M381.26 664.42c-3.02.05-6.08.05-8.16-.26s-2.74-.6-4.16-1.46c-2.13-1.27-2.65-1.58-5.67-3.35-.46-.27-.96.07-.31.5 3.04 2 4.19 2.74 5.64 3.69 1.51.98 2.48 1.86 3.4 2.91 1.2 1.35 2.08 1.37 2.63 1.17.55-.21 1.4-.5 2.26-.29s2 .23 2.6.13c.55.5 1.79.39 2.49.24.71-.16 1.23-.24 1.72-.14.49.11 1.25.03 1.74-.05.5-.07 1.79-.21 2.7-.07.91.12 1.85.05 2.45-.14.59-.18 1.69-.12 2.05-.02.52-.39.78-.88.91-1.4.61-.08.81-.16.95-.51.24-.65.48-1.29.56-1.57h.24l.08-.59-.5-.58.18-1.12.54-.13c.03-.34-.13-.86-.23-1.07-3.28.13-6.49.24-8.79.29-.26.21-.54.75-.59 1.09-1.41.23-2.24.34-2.6.42-.37.07-.57.1-.86.49-.47.62-.91 1.35-1.27 1.82z" transform="matrix(4.1664 0 0 4.167 -666.17 -2413.1)" stroke-width=".125" stroke="#000"/>
<path d="M391.78 660.45c.16-.55.58-2.03 1.35-4.84.13-.47-.32-.65-.49-.05-.92 3.27-1.26 4.5-1.38 4.91.18 0 .43-.02.52-.02z" transform="matrix(4.1664 0 0 4.167 -666.17 -2413.1)" stroke-width=".125" stroke="#000"/>
<path d="M396.85 654.96c-1.11.57-1.64.79-2.14.6-.47-.18-1.15-.28-1.56-.08 0 .04 0 .08-.02.13a218.7 218.7 0 0 1-1.05 3.77c.82.29 2.23.33 2.56-.03.34-.36 1.26-.28 1.73-.26.3-.39.41-.87.34-1.1-.08-.24-.05-.65.06-.98.12-.32.27-1.37.08-2.05z" transform="matrix(4.1664 0 0 4.167 -666.17 -2413.1)" stroke-width=".125" stroke="#000" fill="#fff"/>
<path d="M371.69 645.58c-1.22 3.53-5.45 11.46-8.01 14.01m1.96 1.16c2.9-2.25 10.24-9.53 11.48-12.6m-7.01 4.37c-.34 2.68-1.11 7.45-1.53 9.97m2.66-4.01c-.98.97-2.38 2.65-3.42 3.56m12.72-8.9c-.83.81-1.78 1.75-2.61 1.98m3.09-1.85c.73.78 1.77 1.66 2.63 1.89m-3.2-6.2c-.75.65-1.87 1.41-2.88 1.7m3.31-1.55c.65.55 1.34 1.35 2.17 1.71m-5.33-4.88c.81-.23 2.01-.86 2.63-1.5m.36-.13c.7.8 2.05 1.45 2.73 1.63m-5.56-3.24c.83-.19 1.86-.63 2.41-1.41m.31-.21c.7.6 1.93 1.46 2.74 1.54m3.19.79c-.45.47-1.56 1.31-2.26 1.29m2.72-1.33c.32.52 1.14 1.32 1.61 1.38m-4.8 5.92c.91-.31 2.19-1.05 2.82-1.82m.5.06c.27.48 1.28 1.56 1.86 1.78m-4.1 5.26c.42-.09 1.55-.65 1.86-1.31m.52-.37c.43.53 1.48 1.51 2.13 1.74m-18.81.86c1.27-.4 3.84-1.96 5.12-3.44m-2.44 1.87c1.07.75 2.31 1.51 3.25 1.68m-6.17-4.46c.7-.3 1.63-.81 2.34-1.55m.54-.1c.28.4 2.38 1.68 3.28 1.7m-3.82-5.85c-.54.44-1.86 1.24-2.49 1.41m2.99-1.38c.73.51 2.16 1.4 3.15 1.4m-3.65-5.49c-.58.66-1.57 1.68-2.39 1.92m2.86-1.77c.46.73 1.67 1.71 2.47 1.84m8.05 2.53c1.82 3.36 5.2 7.47 8.62 9.63m-14.09-13.35c2.77 3.98 8.2 12.7 13.37 15.92m.95-3.41a18.23 18.23 0 0 1-4.79 4.61m4.48-3.51c-1.74-2.78-2.64-6.29-3.94-10.92m-14.12 12.36l2.14 5.9m-2.54-6.04l1.9 6.02m-2.31-6.3l1.76 6.26m-1.94-6.16l1.36 6.13m-.05-.22h1.7m-.22-.64h-1.61m1.43-.5h-1.55m1.37-.5h-1.48m1.28-.54h-1.4m-.1-.48h1.33m-1.43-.44h1.26m-1.37-.48h1.2m-1.29-.43h1.13m-1.23-.44h1.07m-1.16-.41h1.02m-1.12-.38h.99m-1.05-.32h.93m-2.6.01l-1.21 4.93m1.56-5.02l-1.03 5.21m1.31-5.4l-.84 5.55m1.2-5.66l-.61 5.8m.73-.33h-1.92m1.92-.53h-2.22m2.22-.55h-2.09m2.09-.52h-1.96m1.96-.53h-1.84m1.84-.59h-1.69m1.69-.51h-1.57m1.57-.52h-1.44m1.44-.5h-1.32m1.32-.44h-1.21m1.21-.35h-1.12m1.12 5.5v-5.88m6.47-1.94l-4.03 8.08m4.28-8.21l-3.43 8.25m3.68-8.34l-2.72 8.39m2.89-8.24l-2.11 8.23m.09-.37h-2.53m2.73-.74h-2.36m2.47-.6h-2.17m2.38-.65h-2.06m2.16-.52h-1.9m2.08-.6h-1.78m1.96-.7h-1.62m1.76-.53h-1.49m1.64-.61h-1.34m1.45-.41h-1.25m1.35-.39h-1.14m1.24-.4h-1.05m1.14-.35h-.96m1.05-.35h-.88m.98-.36h-.8m.88-.33h-.72m3.34-.12l1.76 5.58m-1.42-5.46l2.14 5.35m-1.84-5.34l2.51 5.24m.6-.45l-2.77-4.89m2.77 4.88h-2.2m1.82-.66h-2.02m1.65-.66h-1.86m1.48-.67h-1.69m1.32-.66h-1.53m1.15-.66h-1.36m.99-.66h-1.2m.82-.67h-1.03m3.29.16l-1.72 5.17m2.24-5.4l-1.6 5.3m.74-.12l1.18-4.99m.3.17l-.99 4.75m-1.67-.3h1.73m-1.51-.65h1.64m-1.43-.64h1.57m-1.36-.64h1.5m-1.28-.65h1.41m-1.19-.64h1.32m-1.11-.64h1.25m-1.04-.65h1.03m.92.11l.84 3.55m-.53-3.72l1.17 3.7m-.77-3.71l1.27 3.7m-.75-3.5l1.28 3.48m-.12-.31h-1.63m1.44-.52h-1.55m1.36-.52h-1.49m1.3-.52h-1.43m1.23-.52h-1.35m1.16-.52h-1.28m1.09-.52h-1.22" transform="matrix(4.1664 0 0 4.167 -666.17 -2413.1)" stroke-width=".125" stroke="#000" fill="none"/>
<path d="M885.272 363.205c3.375-2.125 9.083-1.708 12 .46 3.5-1.96 9.75-1.418 12.707 1.207 4.41-3.042 8.2-3.5 12.54-.583 3.37-2.38 8.54-2.59 12.54.25 3.91-1.84 8.25-3.38 12.04.62-2.29-1.63-7.17-3.04-12.04.79-3.8-3.84-10.38-2.42-12.54.21-2.84-3.38-8.79-3.92-12.34.21-3.92-3.25-9.75-3.38-12.92-.88-2.46-1.96-6.17-3.59-12-2.29z" fill="#00b800"/>
<path d="M944.435 358.58c-17.207 2.96-54.705.875-62.954-1.208-2.83-.71-2.04-1.71.34-1.167 9.46 2.125 29.71 2.167 40.88 1.625 2.17-2.875 5.59-7.75 6.59-9.126 1.04-1.333 1.5-1.458 3.63-1.833 3.88-.66 6.05-1 9.38-1.58.04.46.04 1 .04 1.34-.25.21-.5.59-.75.67 0 2.25.46 7.67.88 9.59.46-.04.96-.21 1.25-.25.75-.21 1.5 1.75.75 1.96z" fill="#cf6200"/>
<path d="M972.642 359.413c.625-.04 1.916-.04 2.29-.083.71 0 1.668-.5 2.126-1.583.417-1.084 1.75-5.084 2.25-6.75l-1.75-2.626c.417-2.16.875-5.08.917-5.66.875-.33 1.79-.66 2.25-.79.083-.5-.125-1.83-.542-2.25-7.416.29-29.623 1.04-33.706 1.09-.958 0-1.375-.04-1.75 1.38-2.083 7.67.792 18.46 8.54 24.67.543.46 1.21.09.334-.75-1.29-1.16-3.29-3.62-4.66-6.04 1.5 0 4.59-.08 5.5-.12.46 1.84 1.84 5.67 2.13 6.34.25.67.92.75.59-.25-.71-2.25-1.12-4.83-1.46-6.08 1.42-.04 4.09 0 5.71-.12.09 2.09.3 4.84.34 5.59.09.75.71.84.75-.04v-5.63c1.84-.04 4.17-.12 5.04-.12-.12 1.17-.33 4.96-.41 5.59-.12.88.34 1.29.54.04s.67-4.17.75-5.63c.75-.04 2.67-.12 3.5-.12-.08 1.13-1.16 4.67-1.5 5.59s.21.96.59.08c.37-.92 1.58-4.42 1.67-5.67z" fill="#cf6200"/>
<path d="M948.06 358.538c-.583-1.208-2.416-5.458-2.583-8.542 1.583-.042 5.5-.083 7.374-.125.3 2.34 1 7.34 1.38 8.51-2.21.09-4.91.13-6.16.17zm6.083-8.708c.208 1.79 1.167 7.875 1.292 8.583 1.624-.083 5.333-.125 6-.166-.084-1.625-.334-7.71-.376-8.584-1.67.04-6.05.166-6.92.166zm-8.375-7.543c-.29 1.542-.374 4.875-.29 6.292 1.915.04 6.582-.05 7.248-.13-.166-1.59-.416-4.54-.583-6.34-1.54.04-5.333.12-6.375.16zm7.75-.207c.042 1.5.375 5.207.5 6.374 1.625-.083 5.625-.166 7-.208-.084-1.375-.292-5.834-.334-6.376-2.166.042-5.79.167-7.166.21zm8.582-.25c.084 1.415.25 5.374.21 6.416 1.75-.042 5.04-.083 6.082-.167.083-1.42.292-5.46.208-6.5a674.71 674.71 0 0 1-6.5.25zm7.667-.293c0 1.208-.125 5.375-.208 6.542 1.75-.09 5.66-.21 6.66-.25.25-1.38.79-5 .96-6.55-1.63.04-6.21.25-7.42.25zm6.708 7.71c-2.208.04-5.79.166-7 .207-.166 2.75-.5 7.46-.666 8.543 1.95-.042 5.91-.167 6.74-.167.66-1.333 2.08-5.375 2.41-6.626-.5-.75-.88-1.166-1.5-1.958zm-14.125.373c0 1 .167 7.96.21 8.543 1.25-.04 4.582-.083 5.04-.125.25-2.708.625-7.917.71-8.584-2.25.084-4.46.125-5.96.167zm-28.747-1.666l-2.792.5c-1.33 2.084-6.12 8.584-6.7 9.376 3.34-.125 8.59-.208 9.84-.333-.08-1.75-.29-8.668-.33-9.543zm1.25-.25c.083 2.25.29 8.167.333 9.75 1.666-.124 4.75-.332 6-.416-.292-2.792-.834-9.46-.96-10.292-1.374.25-4.124.75-5.373.958z"/>
<path d="M377.29 656.93c.09 0 .11.08 0 .07l-7.67-.09c-.11 0-.1-.08 0-.08l7.67.1zm6.04-6.15c.09.01.1.08 0 .08l-6.09-.16c-.1-.01-.09-.09 0-.08l6.09.16zm-6.42 1.76c.09 0 .1.07 0 .07l-6.81-.05c-.1 0-.09-.08 0-.08l6.81.06zm.2-4.42c.09 0 .11.08 0 .08l-7.12-.04c-.1 0-.09-.08 0-.08l7.12.04zm-.49-3.49c.09 0 .1.08 0 .08l-6.92-.11c-.1 0-.09-.08 0-.07l6.92.1z" transform="matrix(4.1664 0 0 4.167 -666.17 -2413.1)" stroke-width=".125" stroke="#000"/>
<path fill="#fff" d="M383.78 642.59c.1 0 .11.07 0 .07l-5.93.06c-.11 0-.09-.08 0-.08l5.93-.05z" transform="matrix(4.1664 0 0 4.167 -666.17 -2413.1)" stroke-width=".125" stroke="#000"/>
<path d="M384.15 645.91c.09 0 .1.08 0 .08h-6.56c-.11 0-.09-.08 0-.08h6.56zm6.44 4.73c.09 0 .11.08 0 .08h-7.07c-.1 0-.09-.08 0-.08h7.07zm.1-5.91c.09 0 .1.08 0 .08l-7.23-.07c-.1-.01-.08-.08.01-.08l7.22.07zm-6.68 10.39c.09 0 .11.08 0 .08l-6.35-.04c-.11 0-.1-.08 0-.08l6.35.04zm6.21.86c.09 0 .11.08 0 .08l-5.58-.07c-.11 0-.09-.08 0-.08l5.58.07z" transform="matrix(4.1664 0 0 4.167 -666.17 -2413.1)" stroke-width=".125" stroke="#000"/>
<path d="M395.26 657.05c.16-.35.18-1.15.09-1.45-.24.05-.44.04-.64-.04-.11-.04-.22-.08-.35-.11-.02.4-.16 1.43-.34 1.82-.32.09-.95-.01-1.31-.12-.09.34-.18.65-.26.94.45.1 1.01.09 1.45-.01-.04.6-.11 1.15-.44 1.52.53.02 1.01-.06 1.18-.25a.12.12 0 0 0 .05-.05c.25-.4.26-.94.31-1.3.19.01.42-.04.52-.14.11-.11.28-.16.45-.14.15.01.39-.02.69-.15.01-.18.05-.38.11-.56.04-.09.07-.25.1-.44-.38.19-1.25.49-1.61.48z" transform="matrix(4.1664 0 0 4.167 -666.17 -2413.1)" stroke-width=".125" stroke="#000" fill="#ef072d"/>
<path d="M370.46 623.2c-.79.02-2.51.03-2.87.24-.36.2-.52.29.11.4.63.12 1.7.42 2.29.78s1.08 1 .92 1.91c-.49 2.75.95 5.39 3.03 6.38.2.1.24.17.2.54-.05.37-.18 1-.3 1.15-.11.16-.16.42.2.3-.25.46-.8 1.39-.97 1.63-1.67-.21-3.02.02-3.15 1.76-.01.17.05.44.31.01s.55-.84 1.27-.95c-.42.65-.56 1.22-.49 1.6.07.37.17.59.35.12s.51-.92.87-1.19c.13-.1.23-.12.12.17-.1.3.05.93.25 1.15.21.21.31.12.25-.23-.05-.35.03-1.09.46-1.31.63-.33 1.16-.16 1.41.27.24.43.46.02.19-.47-.27-.48-.56-.82-1.01-.85.4-.71.86-1.55.96-1.72s.26-.25.4-.15c.13.1.22.09.36-.19.13-.28.37-1.12.71-1.46.17-.05.44-.11.54-.2.44.64.84 1.35.94 1.51s.21.23.11.56c-.1.32-.45 1.36-.5 1.59-1.24.05-1.8.07-2.2.76-.17.3.1.41.4.26.29-.16.71-.3.92-.26.22.03.32.14.11.25-.76.37-1.23.84-1.2 1.5.01.24.11.35.29.03.26-.45.74-.9 1.31-1.03-.03.56.09 1.37.43 1.54s.36 0 .24-.33c-.2-.52.01-1.04.26-1.32.53-.59 1.74.23 1.96.43.23.2.44.29.31-.24-.17-.7-1.16-1.1-2.01-1.22.24-1.14.87-3.44 1.21-4.24.49.28.88-.44 1.71-.13 1.4.52 3.51 1.83 3.87 2.12.36.3.49.23.68.07.18-.16.49 0 .74.05.25.04.48.11.16-.52-.32-.64-1.09-1.75-2.37-2.6.76.06 1.8.06 1.8-.14s-1.19-.59-1.69-.63c.47-.12 1.2-.39 1.54-.77.2-.23-.04-.28-.75-.29-2.17-.05-3.25-.03-4.38-.68-1.81-1.04-2.84-2.14-3.73-2.6-.47-.25-.76-.83-.95-1.32-.58-1.58-.55-2.3-1.93-2.82s-2.97.12-3.69.78z" transform="matrix(4.1664 0 0 4.167 -666.17 -2413.1)" stroke-width=".125" stroke="#000"/>
<path d="M370.55 623.56c-.35-.02-1.04-.1-1.61-.04-.13.01-.29.07.02.11.32.04 1.16.25 1.46.35.3.11.17.26-.09.2-.26-.07-.36.03-.14.18 1.1.78 1.22 1.08.93 3.76.21.14.38.24.56.33s.13.22-.06.17c-.2-.05-.38.07-.07.13.31.07.45.21.16.2-.3-.02-.65.24-.07.18.59-.07.82.21.13.22s-.43.23-.06.23c.65 0 .45.19.28.19s-.24.22.19.18c.42-.04.59-.05.75-.03.15.03.22.16-.01.17-.24.01-.23.18.12.18.36 0 .5.11.19.17-.13.03-.31.09.06.14.65.1.68.25.47.28-.21.02-.23.14.06.17.3.02.56.11.32.18-.25.06-.38.21-.07.23.31.03.57.14.34.22s-.29.22.01.21.42.16.21.27c-.21.12-.35.2-.48-.01s-.21-.27-.25-.12c-.04.16-.13.06-.23-.18-.11-.23-.29-.3-.23-.11.05.18-.19.2-.41.11.82.83 2.03 1.59 3.95.81.17-.07.2 0 .33.27s.49.87.62 1.09.23.02.3-.19c.26-.86.45-1.5.53-1.73.08-.24.44-.47.33.35.28-.2 1.55-.38 2.53-.01 1.08.4 2.16 1.02 2.72 1.44.1.08.23.17.49.14.26-.02.33-.06-.17-.52-.49-.45-.28-.67.03-.45s.48.09.24-.19c-.23-.27-.79-.8-.97-.93s-.21-.18-.62-.21c-.42-.02-1.3-.02-1.56-.02s-.34.02.23.23 1.74.96 2 1.14c.26.19.44.6-.13.24-.57-.37-2.36-1.48-3.56-1.9-2.73.18-4.88.55-6.5-1.22-.77-.85-.8-2.78.5-3.59-.26-.22-.22-.35-.12-.4s.14-.1.04-.24c-.1-.12-.09-.24 0-.29-.28-.16-.42-.34-.4-.54-.35-.07-.51-.49-.98-.36-.46.13-.7.03-.84-.09s-.26-.17-.52-.14c-.26.02-.47-.08-.48-.21-.02-.13.22-.19.57-.04.74.32 1.34.48 1.79-.13.46-.61-.13-1.18-1-1.35s-1.5.47-1.83.77z" transform="matrix(4.1664 0 0 4.167 -666.17 -2413.1)" stroke-width=".125" stroke="#000" fill="#fff"/>
<path d="M374.92 623.33c-.27-.28-.73-.54-.96-.62-.24-.08-.26.16-.14.27-.1.16-.14.54.04.64.19.1.19.25.02.34-.26.13-.18.82.22.62.13-.06.23-.04.2.07-.02.1.03.23.15.26.11.02.1.19.08.26-.03.06.01.09.14.1s.14.33-.09.43c.28 0 .36-.05.44.18s.39.29.39.57c0 .29-.05.34-.39.29s-.47.05-.57.18c-.11.13-.13.26.13.27.26.02.31.13.05.25s-.69.04-.75.29c-.07.24 0 .36.19.27.2-.09.6-.26.75-.35.16-.09.3-.11.43.1s.03.44-.19.26-.33-.01-.46.09c-.13.11-.32.17-.53.17s-.35.03-.32.49c.07 1.41 1.17 2.45 3.17 2.42 2-.02 2.99-.05 3.28-.01-.66-.37-1.07-.56-1.31-.53-.23.02-.43.06-.32-.12.1-.18-.02-.18-.12-.26s-.23-.18-.44.04-.7.47-.95.52-.55.04-.31-.2c.23-.23.75-.31.91-.41.15-.11.15-.17.15-.25s-.03-.3.26-.13c.6.34 1.54.85 1.78.83.25-.01.42-.12.2-.26s-.29-.35-.22-.43c.06-.07.1-.15.49.07s1.03.5 1.26.61c.24.1.55.06.07-.29s-1.98-1.34-2.39-1.65c-.42-.31-.24.07-.2.19.04.11-.28.26-.45.11-.17-.14-.29-.3-.06-.43.24-.13.29-.14-.06-.45s-.45-.29-.38-.03c.08.26.11.55-.26.4-.36-.14-.54-.31-.31-.45.24-.14.53-.22.14-.55-.39-.32-.27 0-.36.19-.09.18-.39.18-.56.04-.17-.15-.25-.29-.13-.41.12-.11.11-.18.27-.09.17.09.43.04.12-.23-.31-.28-.43-.16-.36 0 .06.15-.18.43-.57.06-.19-.17-.19-.4.01-.44.19-.04.21-.14.08-.34-.8-1.15-.47-2.09-1.26-2.95z" transform="matrix(4.1664 0 0 4.167 -666.17 -2413.1)" stroke-width=".125" stroke="#000" fill="#fff"/>
<path d="M896.438 184.983c-.29.417-.375.417-.916.75-.667.458-.792 1.667.29 1.542.75-.125 1.168-.584 1.5-.917a12.49 12.49 0 0 0-.874-1.375zm-3.374-2.71c-.834.793-1 1.168-.584 1.168.5 0 .292.05-.083.63-.333.59.75.88 1.167.46.458-.46.5-.58.75 0 .166.46.874 0 1.333-.46-.75-.71-1.75-1.37-2.583-1.79z" fill="#cf6200"/>
<path d="M891.564 186.94c-1.084.543-.75 3.418.916 2.585.542-.25.96-.167.834.292a.966.966 0 0 0 .125.666 4.794 4.794 0 0 0 1.79-1.292c1-1.12.08-1.08-1.46-1.08-1.5 0-1.92-.29-.5-1.12 1.29-.79.46-1.33-1.34-1.08.25.38.12.79-.38 1.04zm6.208 6.377c-.792-.875-.292-1.292.54-1.71.25-.124.376-.25.5-.415-.25-.96-.457-1.875-.707-2.75-.458.124-1 1.125-1.125 1.625-.25.708-.458 1.166-1.167.958-.666-.208-1.29.5-1.416 1.292.083.04.25.04.458.083.292.042.458.458.375.875 1.917-.083 2.25 1.292 2.583 2.21.375 1 .834.874 1.083.29.292-.583-.333-1.583-1.124-2.458z" fill="#cf6200"/>
<path d="M898.313 204.65c-.333.793-.333.71-1.5.793s-2.583.29-3.25.958c-.333.34-2.333.46-2.333 1.34s0 1.63.875 1.67c.834.05.96.17.625.8-.333.67-.54 1.75 1 1.88 1.5.09 2.583-.37 2.958.46.375.88-.04 2.25.292 2.79.292.5 1.292.84 2.916 1.34 1.042.29 5.042.5 6.25.38 1.25-.16.792-.91-.458-1-1.21-.12-2.125-.29-2.417-1.21-.29-.87-.54-1.37.17-2.12.67-.75 1.38-1.33.96-2.58s-1.04-2.75-2.5-3.16c-1.41-.37-.96-2.33-2.41-2.54-.54-.08-1-.08-1.16.25z" fill="#ff0"/>
<path d="M891.314 216.402c1.25.083 2.333.458 1.333.75-1.042.25-1.583.875-.292.958 1.292.125 2.375.584 1.417.917s-1.208.917.04.875 1.75.667.876 1.125c-.875.5-1.458.834-2-.04s-.874-1.126-1.04-.5c-.168.665-.543.25-.96-.75-.458-.96-1.208-1.25-.958-.46.21.75-.79.834-1.708.46.917.915 1.958 1.832 3.083 2.582 1.334-.46 2.792-.09 3.292-.05.583.08 2.25.46 3.166.91.917.5 1.5-.38 1.125-1.34-.375-1-.416-.67-.916-.13s-.584-.21-.542-1.34c.042-.96-.583-.71-.792-.13-.25.58-.708-.38-.458-.96.292-.63-.042-.84-.542-.67-.458.17-.54 0-.583-1.08s-.542-.92-.708-.46c-.167.41-.583-.17-1.25-1.04-.583-.75-1.208-.34-2.333.12.125.08.375.16.75.2z" fill="#cf6200"/>
<path d="M904.48 223.11c-5.917 2.376-10.167 1.334-13.375-.79 1.334-.46 2.792-.084 3.292-.043.583.084 2.25.46 3.166.917.917.5 1.5-.375 1.125-1.333.833 1 1.417 1.71 2.375 1.67 1-.04 2.625-.21 3.416-.41zm-12.625-27.25c-.375-1.25-.75-1.543-1.375-1.46-.666.084-.958-.083-1.666-.375-.75-.25-1.667.084-1.833 1.375-.12 1.292-.91 1.96-2 2.75s-1.75 1.46-1.75 2.75-.25 1.668-1 2.584c-.33.417-.75.917-1.2 1.417.5.3.92.55 1.38.75.75.38.54.92-.25.71-.83-.21-1.58.29-.29.54 1.3.3 1.88.88.67.84-1.25-.08-2.71 1-.29.75 2.46-.29 3.42.88.54.92s-1.79.96-.25.96c2.71 0 1.88.79 1.17.79s-1 .92.79.75h.05c.29-.29.46-.62.63-1.04.25-.87.54-3.37 1.59-4.12 1-.71 1.5-1.71 1.5-2.46 0-.7 1.5-3.87 2.55-4.66 1-.79 1.42-2.54 1.08-3.75z" fill="#ff0"/>
<path d="M889.73 195.9c-1-.666-2-.29-2 1.042 0 1.292-.666 1.667-1.54 2.084-.834.416-1.626 1.5-1.793 2.54-.125 1.002.167 1.627-.583 2.46-.708.75-.79 1.417-.292 1.833.542.45.542.54.75 1.16.21.66 1.417-.09 1.417-.79s.29-.71 1.08-1.13c.79-.46 2.12-2.54 1.83-3.13s-1.04-1.09-.09-1.88c.91-.8 1.96-.88 1.96-1.67s.29-1.09.58-1.38c.25-.29-.67-.71-1.34-1.17z" fill="#cf6200"/>
<path d="M889.73 194.86c-.666-.293-1.083 1.124-.125 1.332.917.25 1.084-1 .125-1.333zm-.166 1.832c-.75.083-1.542 1-.334.833 1.167-.166 1.667-1 .334-.833zm-1.417 1.75c-.75.375-.583 1.375.5.667s1.333-1.59-.5-.67zm-1.167 1.5c-.75.375-.583 1.375.5.667s1.334-1.59-.5-.67z"/>
<path d="M885.48 200.65c-.75.376-.29 1.334.792.626 1.084-.667 1.042-1.542-.79-.625zm.917.917c-.75.376-.25 1.334.834.626s1-1.584-.83-.626z"/>
<path d="M885.106 201.943c-.75.375-.292 1.375.79.666s1.043-1.59-.79-.67zm.834 1.04c-.75.376-.293 1.376.79.668s1.042-1.58-.79-.66z"/>
<path d="M884.69 203.61c-.75.374-.293 1.333.79.666 1.084-.708 1.042-1.583-.79-.667z"/>
<path d="M884.772 204.568c-.708.375-.25 1.375.834.666s1-1.583-.834-.666z"/>
<path d="M884.19 213.693c-.75.084-1.21 1.126-.293 1.376.917.2 1.167.29 1.167 1s.292 1.7 1.292 1.79 1.875-1.09 1-1.42c-.875-.38-1.667-.67-1.71-1.46-.082-.79-.874-1.38-1.457-1.29z" fill="#cf6200"/>
<path d="M910.77 207.485c.126.166.292.333.5.5.71.625 2.042 0 1.876-.46-.167-.5-.917-2.082.833-.79 1.7 1.29 7.95 5.417 9.95 6.875s.71 1.625-.29 1.21c-.96-.46-3.63-1.627-5.25-2.543s-1.79-.584-2.04-.292-.05.958.54 1.5c-.96.125-2.54-.083-3-1.125-.54-1.208-1.84-2.75-2.75-3.917-.34-.458-.46-.75-.38-.958z" fill="#ff0"/>
<path d="M964.476 384.874c-1.334.917-3.125 2.542-1.96 4.834.126-.084.293-.167.418-.25a132.11 132.11 0 0 0 13.708-20.127c.04-.25.083-.5.125-.7-1.542 1.34-3.917 2.63-4.875 2.96.666 1.71-2.375 4-4 4.63.625 1.09.417 2.71-1 3.04.333.96-.75.96-2.04 1.55-1.293.5-1.96.96-2.376 1.59.708-.37 1.666-.66 2.208-.5.542.13.667.96-.333 1.17-.95.21-1.62.75-1.95 1.21 1.42-.54 3.42-.29 2.09.63z" fill="#00d860"/>
<path d="M375.97 628.41c-.39-.33-.48-.13-.33.08.16.21.04.31-.3.37-.33.05-.84.11-1.05.11s-.45.29.04.26c.49-.02 1.33-.19 1.55-.28s.4-.26.09-.54zm.75.59c-.32-.29-.43-.21-.35 0s-.06.25-.27.31c-.21.07-1.03.34-1.38.38s-.43.28.09.27 1.52-.43 1.64-.51c.12-.07.15-.23.29-.15.12.08.24-.07-.02-.3z" transform="matrix(4.1664 0 0 4.167 -666.17 -2413.1)" stroke-width=".125" stroke="#000"/>
<path d="M376.96 629.83c-.23.14-.81.39-1.04.45-.24.07-.43.33.06.29.5-.04 1.08-.49 1.24-.58.15-.09.23-.16.36-.15.13.02.36-.16-.06-.4-.43-.23-.69-.12-.49.07.21.18.06.24-.07.32z" transform="matrix(4.1664 0 0 4.167 -666.17 -2413.1)" stroke-width=".125" stroke="#000"/>
<path d="M887.522 184.15c-2.666-1.75-5.666 1.916-2.75 3.916 2.542 1.75 5.25-2.25 2.75-3.917z"/>
<path d="M884.23 185.733l.75.042c-.166.833.667 2.04 1.917 1.75-1 .75-2.958-.125-2.666-1.792zm10.25 39.46c.792.21 3.583.5 4.5.543-.458 1-.875 1.667-1.167 2.375s-.416.75-.458-.33-.667-1.79-1.208-.66c-.584 1.13-.875 1.55-1.167 2-.25.5-.708.67-.542-.5.125-1.16.084-2.41.042-3.41z" fill="#fff"/>
<path d="M399.67 640.77c-.05 16.33-2.63 33.93-23.77 42.31-21.14-8.38-23.72-25.98-23.76-42.31h47.53zm0 0c.02-6.15-.33-12.12-.17-17.36-7.9-3.53-18.3-4.26-23.6-4.26s-15.69.73-23.59 4.26c.15 5.24-.19 11.21-.17 17.36h47.53z" transform="matrix(4.1664 0 0 4.167 -666.17 -2413.1)" stroke="#000" stroke-width=".25" fill="none"/>
</svg>
