<svg id="saint_helena_flag" xmlns:rdf="http://www.w3.org/1999/02/22-rdf-syntax-ns#" xmlns="http://www.w3.org/2000/svg" viewBox="0 0 1200 600">
<g id="g6" fill="none" stroke="#000" transform="matrix(4.1664 0 0 4.1669 -666.59 -2414.1)"></g>
<g id="g10" fill="none" stroke="#000" transform="matrix(4.1664 0 0 4.1669 -666.59 -2414.1)"></g>
<g id="g14" transform="matrix(4.1664 0 0 4.1669 -666.59 -2414.1)"></g>
<g id="g18" fill="#00009e" transform="matrix(4.1664 0 0 4.1669 -666.59 -2414.1)">
<path id="path20" fill="#00247d" d="m448.01 723.36v-143.99h-288.02v143.99h288.02z"/>
</g>
<g id="g22" fill="#00009e" stroke="#000" transform="matrix(4.1664 0 0 4.1669 -666.59 -2414.1)"></g>
<g id="g26" fill="#fff" transform="matrix(4.1664 0 0 4.1669 -666.59 -2414.1)">
<path id="path28" d="m159.99 603.36h30.37l-30.37-15.24v-8.75h17.38l42.49 21.17v-21.17h23.92v21.17l42.49-21.17h17.53v8.75l-30.52 15.24h30.52v24h-30.52l30.52 15.24v8.76h-17.53l-42.49-21.19v21.19h-23.92v-21.19l-42.49 21.19h-17.38v-8.76l30.37-15.24h-30.37v-24z"/>
</g>
<g id="g30" fill="#ef072d" transform="matrix(4.1664 0 0 4.1669 -666.59 -2414.1)">
<path id="path32" fill="#cf142b" d="m292.49 579.37l-48 24h11.49l47.82-24h-11.31z"/>
</g>
<g id="g34" fill="#ef072d" transform="matrix(4.1664 0 0 4.1669 -666.59 -2414.1)">
<path id="path36" fill="#cf142b" d="m303.8 651.36l-47.87-24h11.54l36.33 18.28v5.72z"/>
</g>
<g id="g38" fill="#ef072d" transform="matrix(4.1664 0 0 4.1669 -666.59 -2414.1)">
<path id="path40" fill="#cf142b" d="m208.08 603.37l-48.09-24v5.73l36.5 18.27h11.59z"/>
</g>
<g id="g42" fill="#ef072d" transform="matrix(4.1664 0 0 4.1669 -666.59 -2414.1)">
<path id="path44" fill="#cf142b" d="m207.98 627.36l-47.99 24h11.49l48-24h-11.5z"/>
</g>
<g id="g46" fill="#ef072d" transform="matrix(4.1664 0 0 4.1669 -666.59 -2414.1)">
<path id="path48" fill="#cf142b" d="m159.99 608.34h64.96v-28.97h14.06v28.97h64.79v14.05h-64.79v28.97h-14.06v-28.97h-64.96v-14.05z"/>
</g>
<g id="g3684" transform="matrix(4.1664 0 0 4.1669 -666.17 -2413.1)">
<g id="g50" stroke="#fff" fill="#4fa8ff">
<path id="path52" d="m399.67 640.77c-0.05 16.33-2.63 33.93-23.77 42.31-21.14-8.38-23.72-25.98-23.76-42.31h47.53z" stroke="#fff" stroke-width="1.009" fill="#8fc5ff"/>
</g>
<g id="g54" stroke="#000" fill="#fff">
<path id="path56" fill="#366cc9" d="m375.9 683.08c9.59-3.8 15.36-9.49 18.8-16.1-0.51 0.02-1.59-0.02-2.06-0.05-0.52-0.03-20.27-2.02-22.61-2.87-2.03-0.75-9.8 0.63-13.42 1.92 3.38 7.04 9.23 13.11 19.29 17.1z"/>
</g>
<g id="g58" stroke-width=".125" stroke="#000">
<path id="path60" fill="#5d3100" d="m361.13 672.95c0.32-0.1 0.94-0.08 1.18-0.03 0.29 0.05 0.34 0.08 0.44-0.24 0.11-0.31 0.34-0.23 0.52-0.07 0.19 0.15 0.65 0.07 0.83-0.19 0.19-0.26 0.24-0.23 0.42-0.05s0.26 0.13 0.44 0.08 0.5-0.26 0.65-0.55c0.16-0.28 0.39-0.38 0.52-0.23 0.13 0.16 0.26 0.23 0.44 0.21 0.19-0.03 0.24 0.16 0.21 0.39-0.02 0.23 0.08 0.28 0.52-0.08 0.39 0.39 0.52 0.23 0.52-0.18 0-0.42-0.1-1.95-0.26-2.16-0.15-0.21-0.31-0.8-0.34-1.27-0.04-0.88-0.05-0.94-1.11-1.48 0-0.32-0.08-0.44-0.83-0.39 0.02-0.11-0.11-0.42-0.26-0.55-0.16-0.13-0.19-0.18-0.11-0.54 0.31 0.02 0.65-0.03 0.83-0.29s0.78-0.21 1.15-0.05c0.36 0.15 0.83 0.18 1.53 0.08 0.26-0.21 0.7-0.45 1.17-0.71s0.6-0.36 0.62-0.72c0.07-0.94-0.26-2.01-0.52-2.5s-0.33-1.12-0.7-1.9c-0.39-0.85-0.39-1.06-0.83-1.58-0.12-0.14-0.26-0.26-0.29-0.55-0.02-0.28-0.13-0.67-0.44-0.96-0.78-0.72-1.09-3.04-1.4-4.75-0.18-0.99-0.05-3.3-0.47-3.67-0.7-0.57-1.04-0.47-1.51-0.65-0.33-0.47-0.49-1.4-0.8-2.23-0.5 0.08-0.83 0.6-1.17 0.78s-0.39 0.18-0.39 0.65c0 0.46-0.26 1.11-0.73 1.84s-1.25 0.52-1.9 1.61c-1.43-1.74-1.45-2.23-1.56-2.73-0.1-0.49-0.33-0.59-1.14-1.29 0-0.21-0.1-1.04-0.02-1.51-0.6-0.5-1.04-0.42-1.33-0.05-0.29 0.36-0.49 0.9-0.94 1.11-0.26 0.34-1.06 1.19-1.71 2.2 0.59 9.05 2.63 18.02 8.77 25.2z"/>
</g>
<g id="g62" stroke="#fff" stroke-width=".25" fill="#ff0">
<path id="path64" d="m399.67 640.77c0.02-6.15-0.33-12.12-0.17-17.36-7.9-3.53-18.3-4.26-23.6-4.26s-15.69 0.73-23.59 4.26c0.15 5.24-0.19 11.21-0.17 17.36h47.53z" stroke="#fff" stroke-width="0.98"/>
</g>
<g id="g66" fill="#cf6200">
<path id="path68" d="m353.42 647.89c0.26 0.42 0.73 1.13 0.78 1.52 0.19-0.37 0.33-0.54 0.37-0.78 0.04-0.23 0.31-0.69 0.21-0.93-0.11-0.25-0.19-0.44 0.1-0.26 0.28 0.18 0.23 0.49 0.17 0.96-0.17 1.27-0.7 1.53-0.78 2.39 0.77 1.81 0.19 2.46 1.03 4.22 0.12 0.08 0.47-0.06 0.58-0.03 0.44-0.31 0.77-0.2 1.39-0.07s0.96 0.57 0.96 0.96 0 0.49 0.13 0.73c0.13 0.23 0.39 0.6 0.34 0.86s0.05 0.41 0.13 0.54-0.03 0.42-0.1 0.6c-0.08 0.18-0.06 0.42 0.26 0.8 0.31 0.39 1.03 2.03 1.03 2.99 0 0.97 0.06 1.41 0.45 1.59s0.52 0.34 0.47 0.75c-0.06 0.42 0.18 2.57 0.23 2.91s0.18 0.26 0.34 0.44c0.15 0.19 0.26 0.39 0.78 0.39s1.02-0.07 1.36-0.01c0.46 0.65 0.75 1.53 0.85 2.08 0.11 0.54 0.1 1.29 0.28 1.29s0.36 0.02 0.31-0.65c-0.05-0.68-0.1-0.78-0.33-1.12-0.24-0.34-0.37-0.49-0.24-0.7s0.16-0.55 0.1-0.81c-0.05-0.26-0.12-0.65 0.32-0.13s0.57 0.65 0.7 0.83c0.13 0.19 0.18 0.52 0.16 0.84-0.03 0.31 0.02 0.44 0.2 0.28 0.18-0.15 0.42 0.11 0.31 0.44-0.1 0.34 0.03 0.55 0.34 0.65 0.31 0.11 0.44 0.18 0.52 0.42 0.08 0.23 0.34 0.34 0.34-0.13s-0.18-1.46-0.31-1.77-0.24-0.99-0.26-1.38c-0.03-0.39-0.11-0.49-0.29-0.57-0.18-0.07-0.34-0.21-0.36-0.39-0.03-0.18-0.18-0.24-0.3-0.24s-0.22-0.1-0.29-0.22c-0.06-0.14-0.13-0.15-0.26-0.16s-0.33 0.06-0.4-0.14c-0.06-0.21-0.16-0.51-0.28-0.68-0.14-0.17-0.25-0.22-0.26-0.8-0.02-0.59-0.03-0.67-0.21-0.88-0.19-0.2-0.5-0.75-0.63-0.98-0.13-0.24-0.26-0.47-0.26 0.02 0 0.5 0 0.76 0.32 0.94 0.31 0.18 0.38 0.18 0.26 0.44-0.14 0.26 0 0.44 0.05 0.62 0.05 0.19 0.15 0.37 0 0.55-0.16 0.18-0.31 0.13-0.29-0.16 0.03-0.28-0.08-0.62-0.21-0.85-0.13-0.24-0.23-0.39-0.39-0.26-0.15 0.13-0.28-0.03-0.18-0.13 0.11-0.11 0.08-0.19 0-0.26-0.08-0.08-0.1-0.16 0.03-0.32 0.13-0.15 0.13-0.23 0.05-0.59-0.08-0.37-0.65-2.19-0.91-2.6-0.26-0.42-0.23-0.73 0.1-0.31 0.34 0.41 0.63 0.78 0.65 1.11 0.03 0.34 0.11 0.55 0.21 0.68 0.11 0.13 0.18 0.08 0.24-0.21 0.05-0.29 0.26-0.18-0.11-0.73-0.36-0.54-1.04-1.45-1.3-3.09s-0.36-2.73-0.62-3.17-0.34-0.54-0.36-0.96c-0.03-0.42 0-0.83-0.19-1.14-0.18-0.32-0.31-0.37-0.33 0.1-0.03 0.47 0.02 1.51 0.15 1.69s0.05 0.65 0.03 0.91c-0.03 0.26-0.44 0.52 0.41 1.04 0.34 0.21 0.29 0.49 0.24 0.67-0.05 0.19-0.11 0.16-0.29-0.13-0.18-0.28-0.36-0.52-0.54-0.67-0.19-0.16-0.21-0.26-0.19-0.63 0.03-0.36 0.11-0.62 0-0.75-0.1-0.13-0.15-0.03-0.21 0.18-0.05 0.21-0.1 0.78-0.2 0.94-0.11 0.15-0.16 0.05-0.24-0.29s0.03-0.86 0.21-1.45c0.18-0.6 0.29-1.23 0.13-2-0.16-0.78-0.08-1.02-0.68-1.67-0.59-0.65-1.27-1.27-1.55-2.08-0.29-0.8-0.34-1.5-0.65-1.87-0.32-0.36-0.76-0.83-1.04-0.96v-1.19c0-0.29-0.13-0.47-0.47-0.42s-0.55 0.34-0.75 0.73c-0.21 0.39-0.37 0.21-0.65 0.88-0.29 0.68-0.71 1.01-0.71 1.74z"/>
</g>
<g id="g70" fill="#cf6200">
<path id="path72" d="m355.3 655.51c0.2 0.13 0.4 0.21 0.71 0.06 0.32-0.16 0.69-0.61 1.11-0.17 0.41 0.44 0.64 1.17 0.64 1.74 0 0.58 0 1.64 0.65 2.24s0.99 1.22 1.02 2c0.02 0.78 0.31 1.98 0.39 2.29s0.26 0.67 0.46 0.88c0.21 0.21 0.37 0.81 0.4 1.43 0.02 0.62-0.08 1.06 0 1.38 0.07 0.31 0 0.57-0.24 0.41-0.23-0.15-0.28-0.23-0.42-0.49-0.12-0.26-0.28-0.21-0.15 0.18s0.52 0.75 0.86 0.75c0.33 0 0.44 0.06 0.65 0.26 0.2 0.21 0.23 0.32 0.59 0.32 0.37 0 0.42 0 0.76 0.1s0.34 0.05 0.52 0 0.36 0.1 0.49 0.44 0.44 1.27 0.44 1.53 0 0.52 0.18 0.78c0.19 0.26 0.14 0.52-0.07 0.37-0.21-0.16-0.21-0.11-0.37-0.08-0.15 0.03-0.26-0.05-0.46-0.18-0.21-0.13-0.08-0.11-0.29-0.42s-0.34-0.41-0.34-0.18-0.02 0.52-0.18 0.39-0.23-0.13-0.36 0-0.19 0.24-0.34-0.02c-0.16-0.26-0.34-0.26-0.5-0.32-0.15-0.05-0.15-0.05-0.23-0.28-0.08-0.24-0.31-0.29-0.52-0.29s-0.31-0.1-0.34-0.26c-0.02-0.15-0.15-0.26-0.26-0.34-0.1-0.07-0.05-0.26-0.08-0.44-0.02-0.18-0.18-0.1-0.28-0.15-0.1-0.06-0.18-0.03-0.18-0.29s-0.11-0.34-0.18-0.52c-0.08-0.18 0-0.36 0.05-0.57s0.02-0.34-0.13-0.52c-0.16-0.18-0.03-0.36-0.44-0.73-0.42-0.36-0.63-0.05-0.76-0.91s-0.39-2.62-0.62-2.91c-0.24-0.29-0.39-0.49-0.62-0.57-0.24-0.08-0.4-0.03-0.42-0.52-0.03-0.49-0.18-1.12-0.5-1.43-0.31-0.31-0.44-0.42-0.59-0.55-0.16-0.13-0.21-0.36 0-0.8s0.13-1.04 0.1-1.33c-0.03-0.28-0.1-0.65-0.05-0.96s0.02-0.7-0.05-0.91c-0.08-0.21-0.19-0.26-0.05-0.41z"/>
</g>
<g id="g74" fill="#cf6200">
<path id="path76" d="m361.56 648.12c-0.35 0.45-0.73 0.83-1.21 1.18-0.49 0.34-1.11 0.62-0.77 1.21 0.35 0.59 0.63 0.66 0.7 1.11s0.17 0.83 0.52 0.93c0.34 0.11 0.48 0.04 0.48 0.77 0 0.72 0 1 0.31 1.28 0.31 0.27 0.28 0.55 0.42 1.21s0.14 2.08 0.55 3.05c0.42 0.97 1.36 2.81 1.25 3.19-0.1 0.38-0.24 0.65 0.17 1.11 0.42 0.45 0.7 1.1 0.73 1.48 0.04 0.39 0.11 0.52 0.52 0.39 0.42-0.14 0.63-0.28 0.76-0.45 0.14-0.18 0.42-0.14 0.8 0.06 0.38 0.21 0.97 0.42 1.32 0.21 0.34-0.21 0.52-0.52 0.83-0.52 0.48-0.34 0.66-1.07 0.76-1.28s0.04-0.21-0.17-0.41c-0.21-0.21-0.11-0.56-0.14-0.9-0.03-0.35-0.17-0.87-0.59-1.63-0.42-0.77-0.66-1.7-0.94-1.94-0.27-0.25-0.41-0.84-0.45-1.11-0.03-0.28-0.34-0.52-0.55-0.73s-0.42-0.52-0.66-1.73c-0.24-1.22-0.41-2.08-0.41-2.29s-0.04-0.24-0.25-0.31c-0.2-0.07-0.31-0.42-0.24-0.59s-0.07-0.35-0.14-0.55c-0.07-0.21 0-0.59 0.14-0.8s0.1-0.8-0.03-1.28c-0.14-0.49-0.28-0.9-0.84-0.98-0.55-0.06-0.65-0.2-0.86-0.65s-0.42-1.25-0.49-1.42c-0.07-0.18-0.17-0.21-0.59 0.13-0.41 0.35-0.55 0.47-0.55 1.11 0 0.42 0.07 0.56 0.21 0.8s0.17 0.31 0.27 0.97c0.11 0.66 0.7 1.7-0.06 2.29-0.77 0.59-0.66 0.73-0.63 1.14 0.04 0.42-0.21 0.69-0.35 0.11-0.13-0.59 0-0.94 0.42-1.22s0.8-0.62 0.52-1-0.38-1.28-0.42-1.7c-0.03-0.42-0.1-0.56-0.34-0.24z"/>
</g>
<g id="g78" fill="#00b800">
<path id="path80" d="m355.38 656.95c-0.01 0.28 0.05 0.59 0.07 0.84 0.03 0.29 0.11 0.89-0.1 1.33s-0.16 0.67 0 0.8c0.01 0.01 0.01 0.02 0.02 0.02 0.43-0.14 0.48-0.61 0.37-0.84-0.12-0.24-0.09-0.54 0.05-0.78s0.14-0.38 0.02-0.55c-0.13-0.18-0.13-0.18 0.01-0.66 0.13-0.43-0.18-0.43-0.44-0.16z"/>
</g>
<g id="g82" fill="#00b800">
<path id="path84" d="m359.82 663.67c-0.08-0.31-0.37-1.51-0.39-2.29-0.03-0.78-0.37-1.4-1.02-2-0.5-0.47-0.61-1.22-0.64-1.8-0.38-0.23-0.54-0.12-0.51 0.31 0.04 0.47 0.5 0.69 0.44 1.37-0.07 0.67-0.07 0.5 0.26 0.83 0.32 0.33 0.44 0.64 0.27 0.78s-0.19 0.38 0.05 0.47c0.25 0.08 0.26 0.34 0.23 0.58-0.04 0.25 0.19 0.3 0.33 0.47 0.14 0.18 0.15 0.59 0.02 0.83-0.14 0.25-0.16 0.63 0.08 0.42s0.35-0.02 0.54 0.31c0.16 0.29 0.3 0.2 0.48 0.11-0.06-0.13-0.11-0.27-0.14-0.39z"/>
</g>
<g id="g86" fill="#00b800">
<path id="path88" d="m363.2 669.72c-0.16 0.31-0.34 0.21-0.5 0.05-0.15-0.15-0.34-0.15-0.26-0.44 0.08-0.28 0.05-0.34-0.15-0.49-0.03-0.02-0.05-0.04-0.08-0.05h-0.24c-0.36 0-0.39-0.11-0.59-0.32-0.05-0.04-0.09-0.08-0.13-0.11-0.01 0.05 0 0.11 0 0.19 0 0.29 0 0.24-0.29 0.31-0.28 0.08-0.23-0.28-0.28-0.52-0.02-0.06-0.04-0.1-0.05-0.14-0.31-0.06-0.64-0.39-0.76-0.74-0.13-0.39 0.03-0.44 0.15-0.18 0.14 0.26 0.19 0.34 0.42 0.49 0.24 0.16 0.31-0.1 0.24-0.41-0.03-0.1-0.04-0.22-0.03-0.35-0.06-0.1-0.13-0.18-0.23-0.23-0.42-0.18-0.29-0.23-0.26-0.57 0.02-0.33-0.06-0.33-0.32-0.15s-0.28-0.03-0.28-0.55-0.34-0.52-0.42-0.15c-0.08 0.36-0.21 0.13-0.36-0.39-0.16-0.52-0.37-0.65-0.39-0.16-0.02 0.42-0.14 0.52-0.41 0.29 0.05 0.3 0.09 0.58 0.12 0.8 0.13 0.86 0.34 0.55 0.76 0.91 0.41 0.37 0.28 0.55 0.44 0.73 0.15 0.18 0.18 0.31 0.13 0.52s-0.13 0.39-0.05 0.57c0.07 0.18 0.18 0.26 0.18 0.52s0.08 0.23 0.18 0.29c0.06 0.03 0.15 0.01 0.21 0.04 0.07-0.09 0.13-0.2 0.21-0.28 0.31-0.31 0.78 0.03 0.93 0.42 0.16 0.39 0.34 0.49 0.57 0.18 0.24-0.31 0.16-0.26 0.42 0.03 0.26 0.28 0.36 0.23 0.36 0.23s0.26-0.1 0.44 0.05c0.19 0.16 0.29 0.13 0.63-0.36 0.33-0.5-0.16-0.34-0.31-0.03z"/>
</g>
<g id="g90" fill="#00b800">
<path id="path92" d="m364.12 655.46c0.11-0.76 0.04-1.52 0.35-1.8s0.69-0.83 0.66 0.35c-0.04 1.18-0.07 1.11-0.31 1.38-0.25 0.28-0.46 0.35-0.21 0.8 0.24 0.45 0.27 0.49 0.24 1.18s-0.03 0.97 0.24 1.32c0.28 0.34 0.35 0.38 0.42 0.76s0.31 0.9 0.62 1.18c0.31 0.27 0.66 1.07 0.69 1.63 0.04 0.55 0.52 0.69 0.98 1.07 0.45 0.38-0.11 0.66-0.46 0.48-0.34-0.17-0.2 0-0.41 0.25-0.21 0.24-0.28 0.27-0.45-0.14-0.17-0.42-0.76-0.7-1.04-0.8s-0.52-0.55-0.76-1c-0.21-0.39-0.62-0.67-1-0.7 0.1 0.29 0.16 0.52 0.13 0.63-0.1 0.38-0.24 0.65 0.17 1.11 0.42 0.45 0.7 1.1 0.73 1.48 0.04 0.39 0.11 0.52 0.52 0.39 0.42-0.14 0.63-0.28 0.76-0.45 0.14-0.18 0.42-0.14 0.8 0.06 0.38 0.21 0.97 0.42 1.32 0.21 0.34-0.21 0.52-0.52 0.83-0.52 0.48-0.34 0.66-1.07 0.76-1.28s0.04-0.21-0.17-0.41c-0.21-0.21-0.11-0.56-0.14-0.9-0.03-0.35-0.17-0.87-0.59-1.63-0.42-0.77-0.66-1.7-0.94-1.94-0.27-0.25-0.41-0.84-0.45-1.11-0.03-0.28-0.34-0.52-0.55-0.73s-0.42-0.52-0.66-1.73c-0.19-0.95-0.34-1.69-0.39-2.06-0.25 0.4-0.42 0.49-0.51 0.22-0.1-0.31-0.24-0.48-0.38-0.28-0.14 0.21-0.17-0.17-0.17-0.34 0-0.18-0.04-0.21-0.21-0.21-0.18 0-0.04-0.28-0.11-0.8s-0.17-0.59-0.24 0.04c-0.07 0.62-0.41 1-0.27 1.14 0.13 0.14 0.06 0.42-0.08 0.83-0.13 0.42-0.06 0.66 0.04 0.94 0.1 0.27-0.07 0.79-0.14 1.24-0.07 0.46 0.28 0.9 0.38 0.14z"/>
</g>
<g id="g94" fill="#00b800">
<path id="path96" d="m357.79 649.24c-0.26 0.01-0.43 0.24-0.29 1.03 0.1 0.48-0.27 0.38-0.41 0.13-0.14-0.24-0.24-0.76-0.52-1.21s-0.14 0.31-0.17 0.73c-0.04 0.42 0.24 0.42 0.48 0.76 0.24 0.35 0.04 0.49-0.24 0.49s-0.14 0.55-0.07 0.93-0.07 0.45-0.28 0.14-0.07-0.8-0.03-1.38c0.03-0.59 0.07-0.46-0.32-0.59-0.38-0.14-0.31-0.21-0.17-0.56s0.28-0.52 0.11-0.69c-0.18-0.18-0.14-0.28 0.13-0.31 0.28-0.04 0.18-0.25 0.42-0.32s0.35 0.04 0.38-0.41c0.03-0.38 0.16-0.61 0.44-0.49 0.17 0.57 0.39 1.48 0.54 1.75z"/>
</g>
<g id="g98" fill="#00b800">
<path id="path100" d="m361.28 653.32c0 0.72 0 1 0.31 1.28 0.31 0.27 0.28 0.55 0.42 1.21s0.14 2.08 0.55 3.05c0.13 0.29 0.3 0.66 0.47 1.04 0.23-0.18 0.43-0.5 0.5-0.66 0.11-0.24-0.2-0.73-0.45-1.14-0.24-0.42 0.04-0.56 0.28-1.08s-0.03-0.55-0.42-0.69c-0.38-0.14-0.38-0.49-0.58-1.04-0.21-0.55-0.18-0.8-0.04-1.11s0.04-0.55-0.24-0.62-0.21-0.28-0.11-0.63c0.11-0.34 0.18-0.41-0.24-0.31-0.31 0.08-0.39 0.14-0.48 0.25 0.02 0.1 0.03 0.24 0.03 0.45z"/>
</g>
<g id="g102">
<path id="path104" fill="#5d3100" d="m365.27 654.77c-0.04 0.42-0.04 0.62-0.14 0.76-0.11 0.14-0.04 0.35 0.07 0.56 0.1 0.21 0.17 0.48 0.07 0.86-0.11 0.38 0.07 0.7 0.27 0.8 0.21 0.1 0.32 0 0.25 0.49-0.07 0.48 0.2 1 0.45 1.21 0.24 0.21 0.41 0.55 0.38 0.76-0.04 0.21 0.17 0.42 0.41 0.52 0.25 0.1 0.21 0.14 0.21 0.28s0.1 0.14 0.38 0.21c0.28 0.06 0.49 0.24 0.8 0.62s0.76 0.59 0.69 0.17c-0.07-0.41 0-0.69-0.41-0.9-0.42-0.21-0.73-1.21-0.9-1.91-0.18-0.69-0.73-1.62-1.04-1.8-0.04-0.48 0.03-0.72-0.28-0.97-0.31-0.24-0.42-0.55-0.42-0.79 0-0.25-0.17-0.56-0.31-0.63s-0.21-0.24-0.21-0.45-0.24-0.17-0.27 0.21z"/>
</g>
<g id="g106" fill="#00d860">
<path id="path108" d="m363.43 673.36c0.62-0.05 2.31-0.55 2.49-0.7 0.42 0.28 1.15 0.67 1.46 0.67-0.6 0.13-0.99 0.06-1.14-0.05 0.07 0.18 0.28 0.47 0.41 0.5-0.57-0.03-1.22-0.16-1.43-0.37-0.49 0.21-1.32 0.26-1.79-0.05z"/>
</g>
<g id="g110" fill="#00d860">
<path id="path112" d="m364.55 674.14c0.22 0.06 1.32 0.25 1.47 0.25-0.37 0.31-0.06 0.61 0.55 0.55-0.29 0.04-0.62 0.16-0.4 0.2 0.53 0.1 1.98-0.29 2.26-0.44-0.49 0.64-2.89 1.22-3.88-0.56z"/>
</g>
<g id="g114" fill="#00d860">
<path id="path116" d="m365.54 675.72c0.29-0.15 1.03-0.1 1.38 0.07-0.38 0.14-1.15 0.14-1.38-0.07z"/>
</g>
<g id="g118">
<path id="path120" d="m366.65 675.7c0.53-0.09 2.04 0.27 2.57-0.05-0.18 0.48-1.13 0.54-1.45 0.44-0.33-0.11-0.64-0.23-0.86-0.22 0.12-0.07-0.08-0.08-0.26-0.17z"/>
</g>
<g id="g122" fill="#00d860">
<path id="path124" d="m367.2 676.44c0.4 0.06 1.84-0.12 2.28-0.29 0.47 0.16 1.4 0.41 1.6 0.38-0.44 0.27-1.28 0.12-1.56 0-0.78 0.26-1.41 0.34-2.32-0.09z"/>
</g>
<g id="g126" fill="#00d860">
<path id="path128" d="m367.89 676.68c0.57 0.13 1.07 0.04 1.63-0.15 0.18 0.08 0.6 0.17 0.99 0.15 0.26 0.15 0.61 0.36 0.95 0.38-0.35 0.15-1.64 0-1.9-0.14-0.65 0.01-1.76 0.16-2.04 0.38-0.01-0.18 0.11-0.44 0.37-0.62z"/>
</g>
<g id="g130">
<path id="path132" d="m367.2 673.75c0.45 0.15 2.08 0.08 2.91-0.31 0.33-0.16 0.53 0.1 0.15 0.23-1.35 0.47-2.41 0.65-3.19 0.24-0.31-0.17-0.34-0.32 0.13-0.16z"/>
</g>
<g id="g134" fill="#00d860">
<path id="path136" d="m375.18 671.54c-2 0.94-3.33 1.22-6.11 0.36-0.26-0.08-0.44 0-0.16 0.19 0.29 0.18 1.82 0.59 2.19 0.62 0.36 0.03 0.23 0.19 0.01 0.26s-0.29 0.22 0.01 0.1c0.3-0.11 1.97-0.16 2.65 0.2 0.3 0.15 0.38 0.13 0.35 0.01-0.02-0.12 0.13-0.19 0.35-0.22 0.23-0.02 0.35-0.1 0.19-0.17-0.17-0.06-0.2-0.1-0.07-0.17 0.13-0.06 0.14-0.13-0.05-0.17-0.2-0.03-0.33-0.09-0.14-0.18 0.18-0.09 0.45-0.15 0.66-0.18 0.05-0.14-0.04-0.52 0.12-0.65z"/>
</g>
<g id="g138">
<path id="path140" d="m371.85 671.78c1.14 0.08 3.25-0.45 4.37-1.54 0.38 0.24 0.93 0.5 1.22 0.55 0.28 0.05 0.54 0.31 0.1 0.31s-1.06-0.18-1.35-0.31c-1.48 0.91-3.22 1.21-4.31 1.11-0.32-0.02-0.39-0.15-0.03-0.12z"/>
</g>
<g id="g142" fill="#00d860">
<path id="path144" d="m368.47 665.54c0.39 0.27 1.08 0.72 1.98 0.66 0.44 0.35 1.13 0.65 1.44 0.72-0.6 0.24-1.25 0.45-1.42 0.64-0.27-0.26-0.62-0.22-0.71-0.35-0.26 0.21-0.22 0.34-0.05 0.45 0.17 0.1 1.48 0.32 1.8 0.23 0.33-0.09 0.41 0.18 0.15 0.27-0.71 0.25-2.07 0.02-2.54-0.74-0.47-0.75-0.87-1.04-2.14-0.35-0.15-0.36-0.15-0.45-0.39-0.45-0.25 0-0.71-0.33-0.35-0.32 0.35 0.02 1.39-0.14 2.23-0.76z"/>
</g>
<g id="g146" fill="#00d860">
<path id="path148" d="m368.78 667.21c-0.21 0.06-0.83 0.39-1.05 0.42s-0.61 0.34-0.21 0.35 0.92-0.43 1.21-0.47 0.31-0.36 0.05-0.3z"/>
</g>
<g id="g150" fill="#00d860">
<path id="path152" d="m370.04 668.53c-0.15 0.02-0.82 0.18-1 0.17-0.18-0.02-0.36 0.03-0.35 0.16s0.07 0.21-0.21 0.19c-0.27-0.03-0.5 0.07-0.57 0.15-0.06 0.08-0.11 0.16 0.16 0.18 0.27 0.03 0.41 0.06 0.73-0.09 0.31-0.14 0.61-0.36 0.94-0.37 0.34-0.02 0.68-0.46 0.3-0.39z"/>
</g>
<g id="g154">
<path id="path156" d="m369.11 669.33c0.28 0.19 1.69 0.67 2.19 0.63 0.51-0.04 0.42 0.2 0.03 0.28-0.79 0.17-1.76-0.18-2.42-0.7-0.32-0.26-0.02-0.35 0.2-0.21z"/>
</g>
<g id="g158" fill="#00d860">
<path id="path160" d="m375.76 670.02c-1.07 0.34-2.17 0.22-2.61 0.1-0.44-0.11-0.85-0.14-0.55 0.15 0.3 0.28 1.26 0.48 1.81 0.33-1.94 0.45-2.44 0.41-2.92 0.33-0.49-0.08-1.39-0.06-1.77-0.03-0.29 0.03-0.68-0.01-0.85-0.11-0.17-0.11-0.22-0.3 0.29-0.25s0.57-0.05 0.13-0.12c-0.44-0.06-1.05 0.12-0.45 0.5 0.59 0.37 1.9-0.03 2.74 0.2 0.83 0.24 2.6 0.41 4.27-0.94 0.09-0.07 0.24-0.26-0.09-0.16z"/>
</g>
<g id="g162" fill="#00d860">
<path id="path164" d="m370.48 668.44c0.04 0.12 0.04 0.27 0 0.36-0.03 0.09-0.03 0.21 0.14 0.08 0.16-0.13 0.27-0.29 0.44-0.2s0.6 0.08 0.79 0.05c0.19-0.02 0.26-0.06-0.03-0.18-0.28-0.11-0.57-0.15-0.72-0.14-0.16 0.01-0.36-0.03-0.48-0.08-0.14-0.05-0.17-0.03-0.14 0.11z"/>
</g>
<g id="g166" fill="#00d860">
<path id="path168" d="m373.25 668.94c-0.22 0.02-0.61-0.13-0.82-0.22-0.2-0.09-0.5-0.1-0.28 0.2s1.18 0.46 1.52 0.32 0.19-0.3 0.53-0.09 0.69 0.35 0.94 0.35c0.24 0 0.34 0 0.06-0.16-0.27-0.15-0.4-0.19-0.43-0.32-0.02-0.13-0.06-0.21 0.19-0.13 0.24 0.08 0.53 0.22 0.72 0.12 0.2-0.11 0.56-0.34 0.89-0.34l0.07-0.2c-0.46-0.03-0.76 0.11-0.89 0.16s-0.37 0.08-0.61 0.04c-0.25-0.04-0.58-0.07-0.65-0.13-0.08-0.07-0.08-0.12 0.13-0.16 0.2-0.04 0.27-0.18-0.02-0.13-0.28 0.05-1.05 0.03-1.45-0.1s-0.57-0.14-0.74-0.08c-0.17 0.07-0.15 0.25 0.1 0.26s0.81 0.07 1 0.25c0.2 0.18 0.17 0.19-0.05 0.1s-0.62-0.04-0.21 0.26z"/>
</g>
<g id="g170" fill="#00d860">
<path id="path172" d="m376.64 668.47l-0.07 0.2c0.48-0.01 1.65 0.1 2.02 0.34 0.37-0.29 0.3-0.38 0.56-0.33s0.59 0.14 0.73 0.07c0.14-0.08 0.25-0.07 0.4-0.04 0.16 0.02 0.5-0.04 0.69-0.16 0.2-0.11 0.6-0.27 0.83-0.27 0.24 0 0.52-0.05 0.09-0.12-0.43-0.06-1.07 0.07-1.3 0.14-0.22 0.08-0.88 0.14-1.27 0.14s-0.92 0.19-1.36 0.07c-0.44-0.11-1.06-0.04-1.32-0.04z"/>
</g>
<g id="g174">
<path id="path176" d="m382.66 668.24c-0.78 0.57-1.72 0.7-2.83 0.78-0.33 0.02-0.23 0.12 0.05 0.14 1.17 0.12 2.52-0.31 2.96-0.78 0.13-0.13 0.12-0.36-0.18-0.14z"/>
</g>
<g id="g178" fill="#00d860">
<path id="path180" d="m377.35 669.57c0.33 0.01 1.5 0.31 1.88 0.44 0.29-0.03 0.36-0.09 0.31-0.2-0.05-0.1-0.09-0.22 0.43-0.19 0.52 0.02 1.72 0.01 1.94 0.01 0.18-0.08 0.58-0.39 0.76-0.4-0.46 0.02-2.41 0.13-2.66 0.1-0.25-0.02-0.38 0-0.53 0.09-0.16 0.09-0.25 0.13-0.44 0.06-0.2-0.08-0.55-0.19-0.74-0.07-0.2 0.12-0.6 0.01-0.95 0.16z"/>
</g>
<g id="g182" fill="#00d860">
<path id="path184" d="m381.91 669.63c0.18-0.08 0.58-0.39 0.76-0.4 0.34-0.03 0.73 0.11 0.91 0.14s0.38-0.01 0.25-0.15c-0.13-0.15-0.01-0.4 0.52-0.33s0.81 0.16 1.33 0.1c0.52-0.05 0.75 0.34 1.74-0.05-0.08 0.39 0.1 0.42 0.28 0.34s0.39-0.05 0.7 0.18c0.32 0.24 2.21 0.26 2.66 0.18 0.44-0.07 0.67 0.16 0.33 0.26-0.33 0.11-0.41 0.26-0.33 0.37 0.07 0.1 0.15 0.23-0.26 0.18-0.42-0.05-0.5 0.08-0.71 0.23-0.21 0.16-0.26 0.21-0.83 0.11-0.57-0.11-0.67-0.03-0.99 0.02-0.31 0.05-0.39 0.05-0.7-0.05s-0.99-0.21-1.4-0.08c-0.42 0.13-0.73 0.26-1.09 0.16-0.37-0.1-0.39-0.05-0.16-0.29 0.24-0.23 0.29-0.21 0.73-0.26s0.78-0.18 0.47-0.36c-0.32-0.18-0.42-0.16-0.84 0.05-0.41 0.21-0.62 0.34-1.09 0.08-0.46-0.26-0.7-0.21-1.01-0.13s-0.83-0.1-1.27-0.3z"/>
</g>
<g id="g186" fill="#00d860">
<path id="path188" d="m383.47 670.41c-0.6 0.09-0.76-0.3-1.38-0.22-0.21 0.03-0.56 0.29-0.08 0.25s1 0.22 1.47 0.18 0.26-0.25-0.01-0.21z"/>
</g>
<g id="g190" fill="#00d860">
<path id="path192" d="m382.78 670.86c0.31-0.11 0.96 0.11 1.23 0.06 0.27-0.06 0.53 0.11 0.25 0.2-0.29 0.1-0.98-0.16-1.29-0.07s-0.62-0.03-0.19-0.19z"/>
</g>
<g id="g194" fill="#00d860">
<path id="path196" d="m376.57 672.54c0.43 0.02 1.97-0.05 2.58-1.35 0.05-0.1 0.09-0.14 0.29-0.01 0.19 0.13 0.91 0.56 2.25 0.67 0.37 0.04 0.78 0.22 0.02 0.17-0.75-0.05-1.95-0.26-2.35-0.5-0.68 1.06-1.89 1.19-2.79 1.16-0.55-0.01-0.42-0.15 0-0.14z"/>
</g>
<g id="g198" fill="#00d860">
<path id="path200" d="m379.91 670.77c-0.21 0.29-0.93 0.78-1.25 0.81-0.33 0.03-1.3-0.06-1.55-0.16-0.25-0.09-0.54-0.06-0.19 0.19 0.35 0.24 1.22 0.41 1.57 0.33 0.35-0.07 0.75-0.19 1.03-0.02 0.27 0.17 0.78 0.49 1.07 0.43 0.3-0.07 0.91-0.07 1.11 0.02 0.19 0.09 0.53 0.37 0.02 0.21-0.5-0.16-0.92-0.03-1.15-0.13 0.26 0.36 0.85 0.95 1.35 0.95 0.12 0 0.2 0.21-0.05 0.32 0.25 0.12 0.82 0.21 1.11-0.06-0.07 0.1-0.03 0.17 0.1 0.23 0.13 0.07 0.28 0.16 0.05 0.19-0.24 0.02-0.77 0.09-0.92 0.02 0.5 0.32 1.81 0.84 3.15 0.58 0.26-0.04 0.39-0.15-0.02-0.14-0.86 0.03-0.91 0.02-1.07-0.08-0.15-0.09-0.13-0.16 0.12-0.24s0.87-0.17 1.13-0.17 0.52-0.11-0.01-0.11c-0.54 0-1.19 0-1.45-0.09s-0.45-0.2-0.18-0.39c0.28-0.18 0.56-0.13 0.69-0.3-0.86-0.01-1.91-0.46-1.33-0.88 0.14-0.1 0.1-0.1-0.12-0.13-0.23-0.02-0.88-0.21-1.15-0.36-0.27-0.16-0.09-0.29 0.13-0.33-0.5 0.09-1.52-0.18-2.19-0.69z"/>
</g>
<g id="g202" fill="#00d860">
<path id="path204" d="m387.53 670.75c-0.47 0.35-1.35 0.49-1.73 0.49-0.37 0-0.42 0.13-0.12 0.17 0.29 0.04 0.62 0.08 0.75 0.04s0.21-0.05 0.4 0.04c0.2 0.09 0.61 0.14 0.98 0.03 0.36-0.12 0.96-0.17 1.2-0.16 0.25 0.01 0.52 0.02 0.03-0.12s-1.3-0.04-1.49 0.02c-0.2 0.05-0.73 0.01-0.45-0.08 0.29-0.09 0.54-0.24 0.68-0.35-0.1-0.03-0.17-0.06-0.25-0.08z"/>
</g>
<g id="g206" fill="#00d860">
<path id="path208" d="m387.29 671.76c-0.41 0.3-0.99 0.59-1.59 0.61 0.55 0.2 1 0.76 1.35 0.73-0.17 0.1-0.37 0.26-0.59 0.29 0.33 0.09 0.9-0.02 1.37-0.28 0.78 0.22 1.79 0.08 2.13-0.21-0.5 0-1.11-0.18-1.39-0.41 0.25 0 0.48-0.16 0.6-0.3-0.58 0.1-1.59-0.18-1.88-0.43z"/>
</g>
<g id="g210" fill="#00d860">
<path id="path212" d="m386.46 673.39c0.22-0.03 0.42-0.19 0.59-0.29-0.43 0.14-2.3-0.16-2.86-0.65-0.55-0.49-0.55-0.12-0.17 0.23 0.4 0.36 1.08 0.89 2.44 0.71z"/>
</g>
<g id="g214" fill="#00d860">
<path id="path216" d="m387.83 674.58c-0.23 0.13-1.35 0.21-1.71 0.13-0.37-0.08-0.52-0.04-0.43 0.11 0.09 0.14 0.13 0.27-0.17 0.23s-0.83 0.03-1.05 0.1c-0.22 0.08-0.5 0.28-0.03 0.2s0.9-0.17 1.25-0.08 1.6 0.12 1.84 0.01c0.25-0.1 0.08-0.1-0.04-0.1-0.11 0-0.17-0.08 0-0.16s0.3-0.3 0.34-0.44z"/>
</g>
<g id="g218" fill="#00d860">
<path id="path220" d="m377.02 673.07c-0.47 0.21-2.03 0.63-2.44 0.65-0.52 0.24-0.94 0.37-1.2 0.37 0.18 0.15 0.89 0.31 1.17 0.23-0.15 0.16-0.52 0.34-0.65 0.42 0.42-0.06 0.91 0.05 1.12 0.08-0.55 0.31-1.3 0.41-1.69 0.36 0.13 0.18 0.31 0.36 0.55 0.36-0.5 0.13-1.1 0.13-1.41 0.03 0.13 0.26 0.26 0.41 0.45 0.44-0.42 0.05-0.94 0.13-1.38-0.13 0.34 0.44 1.09 0.6 2.21 0.47 1.11-0.13 2.05-0.63 2.31-0.83-0.47 0.05-1.09 0.08-1.4 0.02 0.62-0.15 1.97-0.72 2.2-0.96-0.26 0-0.51-0.08-0.7-0.21 0.37 0.05 1.64-0.1 2.03-0.26-0.47-0.1-0.75-0.39-0.88-0.57 1.63 0.52 3.46 0.35 4.34 0.13 0.21-0.05 0.23-0.31-0.19-0.28-0.72 0.05-2.13-0.16-2.49-0.34 0.34 0.26 0.75 0.41 1.04 0.47-0.68 0.18-1.61 0.31-2.99-0.45z"/>
</g>
<g id="g222" fill="#00d860">
<path id="path224" d="m373.9 674.74c0.13-0.08 0.5-0.26 0.65-0.42-0.28 0.08-0.99-0.08-1.17-0.23 0.26 0 0.68-0.13 1.2-0.37-0.94-0.02-1.59-0.02-1.92-0.2-0.34-0.19-0.97-0.13-1.2-0.08s-0.16 0.44 0.83 0.34c-0.41 0.28-1.53 0.39-1.95 0.28 0.11 0.34 0.18 0.68 0.08 0.86 0.55 0.31 1.98 0.7 2.68 0.65-0.63-0.23-0.96-0.49-0.44-0.55 0.52-0.05 0.8-0.15 1.24-0.28z"/>
</g>
<g id="g226">
<path id="path228" d="m372.29 676.43c1.25-0.11 2.91-0.13 4.24-1.25 0.33-0.29 0.56-0.19 0.23 0.1-0.7 0.63-2.44 1.48-4.1 1.51-0.68 0.01-0.99-0.31-0.37-0.36z"/>
</g>
<g id="g230" fill="#00d860">
<path id="path232" d="m381.61 674.37c-0.31 0.12-1.19 0.26-1.44 0.22-0.26-0.03-0.64-0.05-0.85 0.08s-0.22 0.21 0.07 0.24c0.28 0.02 0.65 0.05 0.83 0.03-0.24 0.14-0.39 0.32-0.44 0.4 0.41-0.11 1.18 0.07 1.4 0.2-0.17 0.06-0.36-0.01-0.51-0.09 0.7 0.74 2.78 0.74 3.12 0.61-0.15 0.12-0.3 0.24-0.45 0.28 0.58 0.1 1.26 0.09 1.92-0.3-0.22 0.04-0.88-0.03-1.05-0.04 0.13-0.13 0.32-0.25 0.5-0.3-0.26-0.05-1.07-0.03-1.27 0.08 0.08-0.16 0.22-0.35 0.38-0.42-1.03 0-2.28-0.01-2.73-0.26 0.73 0.08 1.53-0.35 1.87-0.35-0.57-0.01-1.2-0.14-1.35-0.38z"/>
</g>
<g id="g234" fill="#00d860">
<path id="path236" d="m379 674.94c-0.51 0.11-1.28 0.32-1.48 0.43-0.21 0.12-0.43 0.19 0.02 0.19 0.46 0 1.69 0.05 1.96 0.09-0.69-0.11-1.62-0.13-1.8-0.13s-0.39-0.02-0.06-0.12c0.34-0.1 0.78-0.34 1.36-0.46z"/>
</g>
<g id="g238" fill="#00d860">
<path id="path240" d="m377.97 676.15c0.18 0 0.97 0 1.29-0.27 0.32 0.25 0.94 0.6 1.35 0.6 0.4 0 0.36 0.1 0.01 0.14s-1.04-0.17-1.39-0.43c-0.47 0.17-0.86 0.03-1.26-0.04z"/>
</g>
<g id="g242" fill="#00d860">
<path id="path244" d="m371.95 679.65c0.81 0.31 1.87 0.55 2.65 0.29 0.45 0.38 1.36 0.41 1.85 0.31 0.49-0.11 0.93-0.16 1.48 0.02 0.55 0.19 1.66 0.2 1.98 0.46-0.29 0.01-0.9 0-1.04 0.04-0.15 0.03-0.07 0.13 0.19 0.27-0.88-0.05-2.4 0.32-2.87 0.73 0.17-0.41 0.69-0.95 1.51-0.95-0.47-0.17-1.96-0.18-2.45 0.12-0.14-0.16-0.31-0.42-0.32-0.52-0.79 0.45-2.35-0.2-2.98-0.77z"/>
</g>
<g id="g246" fill="#00d860">
<path id="path248" d="m369.89 678.19c0.96-0.13 1.61-0.44 1.89-0.72 0.17 0.15 0.88 0.31 1.64 0.07-0.15 0.12-0.17 0.34-0.1 0.46-0.51 0.01-1.47 0.26-1.8 0.43-0.32 0.17-1.27 0.28-1.58 0.11-0.31-0.16-0.32-0.31-0.05-0.35z"/>
</g>
<g id="g250" fill="#00d860">
<path id="path252" d="m373.32 678c-0.51 0.01-1.47 0.26-1.8 0.43 0.07 0.13 0.11 0.33 0.12 0.48 0.94-0.34 3.08-0.55 3.9-0.42-0.39 0.03-1.13 0.43-1.55 0.48 1.02-0.07 2.01 0.13 2.26 0.2 0.26 0.06 0.32 0.26 0.12 0.44-0.19 0.18-0.28 0.21 0.13 0.22 0.42 0.01 1.28-0.04 1.66-0.41-0.15-0.17-0.55-0.11-0.67-0.23 0.27-0.09 0.58-0.28 0.7-0.43-0.7-0.01-0.96-0.02-1.19-0.07-0.24-0.05-0.41-0.12-0.12-0.27 0.28-0.16 0.41-0.29 0.5-0.4-0.5 0.15-1.29 0.26-1.96-0.26 0.25 0.07 0.83 0.03 1.04-0.06-0.22-0.12-0.4-0.21-0.58-0.21 0.53-0.26 1.58-0.49 2.88 0.03 0.65-0.05 1.35-0.03 1.85 0.1 0.21-0.21 0.65-0.7 0.88-0.83-1.53 0.13-4.29-0.16-4.23-0.96-0.5 0.65-1.64 1.01-2.14 0.91-0.05 0.23 0.16 0.52 0.34 0.67-0.52 0.11-1.4 0.19-1.82 0.11 0.24 0.23 0.68 0.44 0.94 0.41-0.55 0-0.83 0.11-1.26 0.07z"/>
</g>
<g id="g254" fill="#00d860">
<path id="path256" d="m376.5 679.83c0.42 0.01 1.28-0.04 1.66-0.41-0.15-0.17-0.55-0.11-0.67-0.23 0.27-0.09 0.58-0.28 0.7-0.43 1.09-0.08 2.07-0.03 2.53-0.18 0.47-0.14 1.67-0.06 1.9-0.13-1.04 0.17-1.25 0.26-1.3 0.43s0.34 0.31 0.59 0.31c-0.47-0.02-1.06 0.47-1.11 0.67-0.62-0.37-0.92 0.06-0.98 0.2-0.26-0.1-1.12-0.07-1.56 0.3-0.58-0.16-0.95-0.26-1.52-0.16 0.35-0.08 0.28-0.32-0.24-0.37z"/>
</g>
<g id="g258" fill="#00d860">
<path id="path260" d="m381.49 676.79c0.35-0.01 1.12 0.03 1.39-0.01-0.18 0.09-0.41 0.26-0.47 0.34 0.89-0.11 2.09-0.17 2.45-0.12-0.43-0.07-0.87 0.21-1.1 0.35-0.22 0.14-0.09 0.23 0.21 0.27s0.71 0.28 0.16 0.2-1.63-0.08-1.89-0.04-0.4-0.09-0.02-0.14c0.38-0.06 0.64-0.19 0.82-0.29-0.32 0.08-0.91 0.08-1.09 0.03-0.19-0.06-0.3-0.16-0.09-0.21 0.2-0.05 0.06-0.13-0.16-0.11-0.22 0.03-0.78 0.26-1.09 0.56 0.33-0.35 0.63-0.66 0.88-0.83z"/>
</g>
<g id="g262">
<path id="path264" d="m377.53 677.38c0.43 0.48 0.93 0.75 1.74 0.78 0.17 0 0.48 0.23 0.08 0.24-1.09 0.04-1.64-0.22-2.12-0.92-0.1-0.14 0.08-0.35 0.3-0.1z"/>
</g>
<g id="g266">
<path id="path268" d="m384.04 668.29c0.57 0.27 1.73 0.51 2.62 0.47 0.16-0.01 0.47 0.16 0.08 0.2-1.01 0.09-1.92-0.06-2.77-0.52-0.23-0.14-0.15-0.25 0.07-0.15z"/>
</g>
<g id="g270" fill="#00d860">
<path id="path272" d="m384.62 668.28c0.89-0.03 1.55-0.01 1.82 0.25 0.51-0.16 1.42-0.25 1.63-0.21 0.2 0.04 0.44-0.05-0.04-0.17s-1.6-0.16-1.95-0.09c-0.35 0.06-1.44 0.1-1.81 0.06 0.16 0.03 0.26 0.06 0.35 0.16z"/>
</g>
<g id="g274" fill="#00d860">
<path id="path276" d="m388.05 668.63c0.42-0.22 1.61-0.01 1.98-0.17-0.26 0.31 0.83 0.34 1.78 0.09-0.37 0.24-1.15 0.27-1.48 0.42-0.34 0.14-0.52 0.04-0.78-0.08s-0.93-0.35-1.5-0.26z"/>
</g>
<g id="g278" fill="#00d860">
<path id="path280" d="m391.81 668.55c-0.95 0.25-2.04 0.22-1.78-0.09-0.37 0.16-1.56-0.05-1.98 0.17 0.43-0.26 0.76-0.05 1.07-0.59 0.19 0.04 0.65 0.07 0.8-0.14 0.28 0.07 0.76 0.18 0.9 0.33 0.14 0.14 0.36-0.04 0.18-0.26 0.43-0.16 0.16 0.18 1.16-0.07 0.21-0.05 0.71-0.14 0.88-0.15-0.34 0.27-0.74 0.57-1.23 0.8z"/>
</g>
<g id="g282" stroke-width=".125" stroke="#000" fill="#ff0">
<path id="path284" d="m373.36 664.19c-0.02-1.96-0.21-18.42-0.21-22.22 0-0.91-0.47-0.73-0.47 0v22.12c0.22 0.04 0.51 0.08 0.68 0.1z"/>
</g>
<g id="g286" stroke-width=".125" stroke="#000" fill="#ff0">
<path id="path288" d="m380.59 640.77l0.81 23.46-0.14 0.19-0.47 0.01-0.52-23.66h0.32z"/>
</g>
<g id="g290" stroke-width=".125" stroke="#000" fill="#ff0">
<path id="path292" d="m387.43 660.58c-0.07-2.39-0.37-13.45-0.48-18.9-0.02-0.73-0.45-0.6-0.44 0.03 0.04 4.39 0.31 16.67 0.35 18.88 0.17 0 0.47-0.01 0.57-0.01z"/>
</g>
<g id="g294" stroke-width=".125" stroke="#000" fill="#ff0">
<path id="path296" fill="#fff" d="m376.6 644.67l-6.91-0.1c-0.39 1.4 1.35 1.37 2 1.01 0.76 0.57 1.33 0.52 1.75 0.05 0.59 0.49 1.35 0.37 1.66 0.05 0.83 0.63 1.69 0 1.5-1.01z"/>
</g>
<g id="g298" stroke-width=".125" stroke="#000" fill="#ff0">
<path id="path300" fill="#fff" d="m377.12 648.15l-7.06-0.02c-1.22 1.17 0.36 1.74 1.71 0.93 0.18 0.39 1.01 0.62 1.67 0.31 0.59 0.47 1.35 0.13 1.74-0.26 0.72 0.34 1.58 0.45 1.94-0.96z"/>
</g>
<g id="g302" stroke-width=".125" stroke="#000" fill="#ff0">
<path id="path304" fill="#fff" d="m376.92 652.57l-6.81-0.05c-0.13 1.22 1.25 1.06 1.79 0.75 0.52 0.81 1.66 0.63 2.11 0.16 0.65 0.44 1.24 0.33 1.58-0.08 0.76 0.65 1.38-0.18 1.33-0.78z"/>
</g>
<g id="g306" stroke-width=".125" stroke="#000" fill="#ff0">
<path id="path308" fill="#fff" d="m377.26 656.99l-7.62-0.13c-0.42 1.3 0.75 1.53 1.3 1.22 0.18 0.75 1.2 0.49 1.46-0.05 0.38 0.39 0.88 0.18 1.11-0.08 0.11 0.7 0.99 0.73 1.67 0.13 1.37 0.96 2.67-0.16 2.08-1.09z"/>
</g>
<g id="g310" stroke-width=".125" stroke="#000" fill="#ff0">
<path id="path312" fill="#fff" d="m384.01 655.17l-6.34-0.05c0.29 1.3 0.91 1.63 1.92 0.88 0.76 0.78 2.01 0.49 2.32 0.1 1.37 1.12 2.13-0.18 2.1-0.93z"/>
</g>
<g id="g314" stroke-width=".125" stroke="#000" fill="#ff0">
<path id="path316" fill="#fff" d="m383.36 650.83l-6.13-0.18c0.1 1.56 1.58 1.5 2.34 0.83 0.57 0.73 1.58 0.52 1.95 0 0.78 0.78 2.05 0.31 1.84-0.65z"/>
</g>
<g id="g318" stroke-width=".125" stroke="#000" fill="#ff0">
<path id="path320" fill="#fff" d="m384.17 645.94h-6.6c0.07 1.09 1.53 1.72 2.65 0.68 0.31 1.25 1.5 0.86 2.02 0.36 0.76 0.96 2.5-0.13 1.93-1.04z"/>
</g>
<g id="g322" stroke-width=".125" stroke="#000" fill="#ff0">
<path id="path324" fill="#fff" d="m383.78 642.62l-5.9 0.08c-0.1 0.96 1.3 1.37 1.82 0.59 0.28 0.5 1.27 0.44 1.56-0.02 0.46 0.72 1.04 0.23 1.22 0 0.67 0.49 1.4 0.26 1.3-0.65z"/>
</g>
<g id="g326" stroke-width=".125" stroke="#000" fill="#ff0">
<path id="path328" fill="#fff" d="m390.69 644.77l-7.22-0.07c-0.03 0.75 0.75 1.06 1.22 0.75 0 0.73 1.01 0.96 1.66 0.39 0.44 0.62 1.74 0.8 2.26-0.05 1.07 0.88 2.21 0.26 2.08-1.02z"/>
</g>
<g id="g330" stroke-width=".125" stroke="#000" fill="#ff0">
<path id="path332" fill="#fff" d="m390.59 650.7l-7.07-0.03c0.05 0.99 1.19 1.33 1.84 0.81 0.16 0.83 1.04 0.88 1.56 0.47 0.63 0.7 1.67 0.75 2.24-0.03 0.86 0.31 1.5-0.42 1.43-1.22z"/>
</g>
<g id="g334" stroke-width=".125" stroke="#000" fill="#ff0">
<path id="path336" fill="#fff" d="m390.22 656.03l-5.58-0.08c0 0.99 1.16 1.12 1.68 0.6 0.55 0.65 1.38 0.65 1.85 0.13 0.75 0.65 1.9 0.46 2.05-0.65z"/>
</g>
<g id="g338" stroke-width=".125" stroke="#000">
<path id="path340" d="m381.26 664.42c-3.02 0.05-6.08 0.05-8.16-0.26s-2.74-0.6-4.16-1.46c-2.13-1.27-2.65-1.58-5.67-3.35-0.46-0.27-0.96 0.07-0.31 0.5 3.04 2 4.19 2.74 5.64 3.69 1.51 0.98 2.48 1.86 3.4 2.91 1.2 1.35 2.08 1.37 2.63 1.17 0.55-0.21 1.4-0.5 2.26-0.29s2 0.23 2.6 0.13c0.55 0.5 1.79 0.39 2.49 0.24 0.71-0.16 1.23-0.24 1.72-0.14 0.49 0.11 1.25 0.03 1.74-0.05 0.5-0.07 1.79-0.21 2.7-0.07 0.91 0.12 1.85 0.05 2.45-0.14 0.59-0.18 1.69-0.12 2.05-0.02 0.52-0.39 0.78-0.88 0.91-1.4 0.61-0.08 0.81-0.16 0.95-0.51 0.24-0.65 0.48-1.29 0.56-1.57h0.24l0.08-0.59-0.5-0.58 0.18-1.12 0.54-0.13c0.03-0.34-0.13-0.86-0.23-1.07-3.28 0.13-6.49 0.24-8.79 0.29-0.26 0.21-0.54 0.75-0.59 1.09-1.41 0.23-2.24 0.34-2.6 0.42-0.37 0.07-0.57 0.1-0.86 0.49-0.47 0.62-0.91 1.35-1.27 1.82z"/>
</g>
<g id="g342" stroke-width=".125" stroke="#000">
<path id="path344" d="m391.78 660.45c0.16-0.55 0.58-2.03 1.35-4.84 0.13-0.47-0.32-0.65-0.49-0.05-0.92 3.27-1.26 4.5-1.38 4.91 0.18 0 0.43-0.02 0.52-0.02z"/>
</g>
<g id="g346" stroke-width=".125" stroke="#000" fill="#fff">
<path id="path348" d="m396.85 654.96c-1.11 0.57-1.64 0.79-2.14 0.6-0.47-0.18-1.15-0.28-1.56-0.08 0 0.04 0 0.08-0.02 0.13-0.47 1.73-0.81 2.95-1.05 3.77 0.82 0.29 2.23 0.33 2.56-0.03 0.34-0.36 1.26-0.28 1.73-0.26 0.3-0.39 0.41-0.87 0.34-1.1-0.08-0.24-0.05-0.65 0.06-0.98 0.12-0.32 0.27-1.37 0.08-2.05z"/>
</g>
<g id="g350" stroke-width=".125" stroke="#000" fill="none">
<path id="path352" d="m371.69 645.58c-1.22 3.53-5.45 11.46-8.01 14.01"/>
</g>
<g id="g354" stroke-width=".125" stroke="#000" fill="none">
<path id="path356" d="m365.64 660.75c2.9-2.25 10.24-9.53 11.48-12.6"/>
</g>
<g id="g358" stroke-width=".125" stroke="#000" fill="none">
<path id="path360" d="m370.11 652.52c-0.34 2.68-1.11 7.45-1.53 9.97"/>
</g>
<g id="g362" stroke-width=".125" stroke="#000" fill="none">
<path id="path364" d="m371.24 658.48c-0.98 0.97-2.38 2.65-3.42 3.56"/>
</g>
<g id="g366" stroke-width=".125" stroke="#000" fill="none">
<path id="path368" d="m380.54 653.14c-0.83 0.81-1.78 1.75-2.61 1.98"/>
</g>
<g id="g370" stroke-width=".125" stroke="#000" fill="none">
<path id="path372" d="m381.02 653.27c0.73 0.78 1.77 1.66 2.63 1.89"/>
</g>
<g id="g374" stroke-width=".125" stroke="#000" fill="none">
<path id="path376" d="m380.45 648.96c-0.75 0.65-1.87 1.41-2.88 1.7"/>
</g>
<g id="g378" stroke-width=".125" stroke="#000" fill="none">
<path id="path380" d="m380.88 649.11c0.65 0.55 1.34 1.35 2.17 1.71"/>
</g>
<g id="g382" stroke-width=".125" stroke="#000" fill="none">
<path id="path384" d="m377.72 645.94c0.81-0.23 2.01-0.86 2.63-1.5"/>
</g>
<g id="g386" stroke-width=".125" stroke="#000" fill="none">
<path id="path388" d="m380.71 644.31c0.7 0.8 2.05 1.45 2.73 1.63"/>
</g>
<g id="g390" stroke-width=".125" stroke="#000" fill="none">
<path id="path392" d="m377.88 642.7c0.83-0.19 1.86-0.63 2.41-1.41"/>
</g>
<g id="g394" stroke-width=".125" stroke="#000" fill="none">
<path id="path396" d="m380.6 641.08c0.7 0.6 1.93 1.46 2.74 1.54"/>
</g>
<g id="g398" stroke-width=".125" stroke="#000" fill="none">
<path id="path400" d="m386.53 643.41c-0.45 0.47-1.56 1.31-2.26 1.29"/>
</g>
<g id="g402" stroke-width=".125" stroke="#000" fill="none">
<path id="path404" d="m386.99 643.37c0.32 0.52 1.14 1.32 1.61 1.38"/>
</g>
<g id="g406" stroke-width=".125" stroke="#000" fill="none">
<path id="path408" d="m383.8 650.67c0.91-0.31 2.19-1.05 2.82-1.82"/>
</g>
<g id="g410" stroke-width=".125" stroke="#000" fill="none">
<path id="path412" d="m387.12 648.91c0.27 0.48 1.28 1.56 1.86 1.78"/>
</g>
<g id="g414" stroke-width=".125" stroke="#000" fill="none">
<path id="path416" d="m384.88 655.95c0.42-0.09 1.55-0.65 1.86-1.31"/>
</g>
<g id="g418" stroke-width=".125" stroke="#000" fill="none">
<path id="path420" d="m387.26 654.27c0.43 0.53 1.48 1.51 2.13 1.74"/>
</g>
<g id="g422" stroke-width=".125" stroke="#000" fill="none">
<path id="path424" d="m370.58 656.87c1.27-0.4 3.84-1.96 5.12-3.44"/>
</g>
<g id="g426" stroke-width=".125" stroke="#000" fill="none">
<path id="path428" d="m373.26 655.3c1.07 0.75 2.31 1.51 3.25 1.68"/>
</g>
<g id="g430" stroke-width=".125" stroke="#000" fill="none">
<path id="path432" d="m370.34 652.52c0.7-0.3 1.63-0.81 2.34-1.55"/>
</g>
<g id="g434" stroke-width=".125" stroke="#000" fill="none">
<path id="path436" d="m373.22 650.87c0.28 0.4 2.38 1.68 3.28 1.7"/>
</g>
<g id="g438" stroke-width=".125" stroke="#000" fill="none">
<path id="path440" d="m372.68 646.72c-0.54 0.44-1.86 1.24-2.49 1.41"/>
</g>
<g id="g442" stroke-width=".125" stroke="#000" fill="none">
<path id="path444" d="m373.18 646.75c0.73 0.51 2.16 1.4 3.15 1.4"/>
</g>
<g id="g446" stroke-width=".125" stroke="#000" fill="none">
<path id="path448" d="m372.68 642.66c-0.58 0.66-1.57 1.68-2.39 1.92"/>
</g>
<g id="g450" stroke-width=".125" stroke="#000" fill="none">
<path id="path452" d="m373.15 642.81c0.46 0.73 1.67 1.71 2.47 1.84"/>
</g>
<g id="g454" stroke-width=".125" stroke="#000" fill="none">
<path id="path456" d="m383.67 647.18c1.82 3.36 5.2 7.47 8.62 9.63"/>
</g>
<g id="g458" stroke-width=".125" stroke="#000" fill="none">
<path id="path460" d="m378.2 643.46c2.77 3.98 8.2 12.7 13.37 15.92"/>
</g>
<g id="g462" stroke-width=".125" stroke="#000" fill="none">
<path id="path464" d="m392.52 655.97c-0.83 1.16-2.32 2.97-4.79 4.61"/>
</g>
<g id="g466" stroke-width=".125" stroke="#000" fill="none">
<path id="path468" d="m392.21 657.07c-1.74-2.78-2.64-6.29-3.94-10.92"/>
</g>
<g id="g470" stroke-width=".125" stroke="#000" fill="none">
<path id="path472" d="m374.15 658.51l2.14 5.9"/>
</g>
<g id="g474" stroke-width=".125" stroke="#000" fill="none">
<path id="path476" d="m373.75 658.37l1.9 6.02"/>
</g>
<g id="g478" stroke-width=".125" stroke="#000" fill="none">
<path id="path480" d="m373.34 658.09l1.76 6.26"/>
</g>
<g id="g482" stroke-width=".125" stroke="#000" fill="none">
<path id="path484" d="m373.16 658.19l1.36 6.13"/>
</g>
<g id="g486" stroke-width=".125" stroke="#000" fill="none">
<path id="path488" d="m374.47 664.1h1.7"/>
</g>
<g id="g490" stroke-width=".125" stroke="#000" fill="none">
<path id="path492" d="m375.95 663.46h-1.61"/>
</g>
<g id="g494" stroke-width=".125" stroke="#000" fill="none">
<path id="path496" d="m375.77 662.96h-1.55"/>
</g>
<g id="g498" stroke-width=".125" stroke="#000" fill="none">
<path id="path500" d="m375.59 662.46h-1.48"/>
</g>
<g id="g502" stroke-width=".125" stroke="#000" fill="none">
<path id="path504" d="m375.39 661.92h-1.4"/>
</g>
<g id="g506" stroke-width=".125" stroke="#000" fill="none">
<path id="path508" d="m373.89 661.44h1.33"/>
</g>
<g id="g510" stroke-width=".125" stroke="#000" fill="none">
<path id="path512" d="m373.79 661h1.26"/>
</g>
<g id="g514" stroke-width=".125" stroke="#000" fill="none">
<path id="path516" d="m373.68 660.52h1.2"/>
</g>
<g id="g518" stroke-width=".125" stroke="#000" fill="none">
<path id="path520" d="m373.59 660.09h1.13"/>
</g>
<g id="g522" stroke-width=".125" stroke="#000" fill="none">
<path id="path524" d="m373.49 659.65h1.07"/>
</g>
<g id="g526" stroke-width=".125" stroke="#000" fill="none">
<path id="path528" d="m373.4 659.24h1.02"/>
</g>
<g id="g530" stroke-width=".125" stroke="#000" fill="none">
<path id="path532" d="m373.3 658.86h0.99"/>
</g>
<g id="g534" stroke-width=".125" stroke="#000" fill="none">
<path id="path536" d="m373.24 658.54h0.93"/>
</g>
<g id="g538" stroke-width=".125" stroke="#000" fill="none">
<path id="path540" d="m371.57 658.55l-1.21 4.93"/>
</g>
<g id="g542" stroke-width=".125" stroke="#000" fill="none">
<path id="path544" d="m371.92 658.46l-1.03 5.21"/>
</g>
<g id="g546" stroke-width=".125" stroke="#000" fill="none">
<path id="path548" d="m372.2 658.27l-0.84 5.55"/>
</g>
<g id="g550" stroke-width=".125" stroke="#000" fill="none">
<path id="path552" d="m372.56 658.16l-0.61 5.8"/>
</g>
<g id="g554" stroke-width=".125" stroke="#000" fill="none">
<path id="path556" d="m372.68 663.63h-1.92"/>
</g>
<g id="g558" stroke-width=".125" stroke="#000" fill="none">
<path id="path560" d="m372.68 663.1h-2.22"/>
</g>
<g id="g562" stroke-width=".125" stroke="#000" fill="none">
<path id="path564" d="m372.68 662.55h-2.09"/>
</g>
<g id="g566" stroke-width=".125" stroke="#000" fill="none">
<path id="path568" d="m372.68 662.03h-1.96"/>
</g>
<g id="g570" stroke-width=".125" stroke="#000" fill="none">
<path id="path572" d="m372.68 661.5h-1.84"/>
</g>
<g id="g574" stroke-width=".125" stroke="#000" fill="none">
<path id="path576" d="m372.68 660.91h-1.69"/>
</g>
<g id="g578" stroke-width=".125" stroke="#000" fill="none">
<path id="path580" d="m372.68 660.4h-1.57"/>
</g>
<g id="g582" stroke-width=".125" stroke="#000" fill="none">
<path id="path584" d="m372.68 659.88h-1.44"/>
</g>
<g id="g586" stroke-width=".125" stroke="#000" fill="none">
<path id="path588" d="m372.68 659.38h-1.32"/>
</g>
<g id="g590" stroke-width=".125" stroke="#000" fill="none">
<path id="path592" d="m372.68 658.94h-1.21"/>
</g>
<g id="g594" stroke-width=".125" stroke="#000" fill="none">
<path id="path596" d="m372.68 658.59h-1.12"/>
</g>
<g id="g598" stroke-width=".125" stroke="#000" fill="none">
<path id="path600" d="m372.68 664.09v-5.88"/>
</g>
<g id="g602" stroke-width=".125" stroke="#000" fill="none">
<path id="path604" d="m379.15 656.27l-4.03 8.08"/>
</g>
<g id="g606" stroke-width=".125" stroke="#000" fill="none">
<path id="path608" d="m379.4 656.14l-3.43 8.25"/>
</g>
<g id="g610" stroke-width=".125" stroke="#000" fill="none">
<path id="path612" d="m379.65 656.05l-2.72 8.39"/>
</g>
<g id="g614" stroke-width=".125" stroke="#000" fill="none">
<path id="path616" d="m379.82 656.2l-2.11 8.23"/>
</g>
<g id="g618" stroke-width=".125" stroke="#000" fill="none">
<path id="path620" d="m377.8 664.06h-2.53"/>
</g>
<g id="g622" stroke-width=".125" stroke="#000" fill="none">
<path id="path624" d="m378 663.32h-2.36"/>
</g>
<g id="g626" stroke-width=".125" stroke="#000" fill="none">
<path id="path628" d="m378.11 662.72h-2.17"/>
</g>
<g id="g630" stroke-width=".125" stroke="#000" fill="none">
<path id="path632" d="m378.32 662.07h-2.06"/>
</g>
<g id="g634" stroke-width=".125" stroke="#000" fill="none">
<path id="path636" d="m378.42 661.55h-1.9"/>
</g>
<g id="g638" stroke-width=".125" stroke="#000" fill="none">
<path id="path640" d="m378.6 660.95h-1.78"/>
</g>
<g id="g642" stroke-width=".125" stroke="#000" fill="none">
<path id="path644" d="m378.78 660.25h-1.62"/>
</g>
<g id="g646" stroke-width=".125" stroke="#000" fill="none">
<path id="path648" d="m378.92 659.72h-1.49"/>
</g>
<g id="g650" stroke-width=".125" stroke="#000" fill="none">
<path id="path652" d="m379.07 659.11h-1.34"/>
</g>
<g id="g654" stroke-width=".125" stroke="#000" fill="none">
<path id="path656" d="m379.18 658.7h-1.25"/>
</g>
<g id="g658" stroke-width=".125" stroke="#000" fill="none">
<path id="path660" d="m379.28 658.31h-1.14"/>
</g>
<g id="g662" stroke-width=".125" stroke="#000" fill="none">
<path id="path664" d="m379.38 657.91h-1.05"/>
</g>
<g id="g666" stroke-width=".125" stroke="#000" fill="none">
<path id="path668" d="m379.47 657.56h-0.96"/>
</g>
<g id="g670" stroke-width=".125" stroke="#000" fill="none">
<path id="path672" d="m379.56 657.21h-0.88"/>
</g>
<g id="g674" stroke-width=".125" stroke="#000" fill="none">
<path id="path676" d="m379.66 656.85h-0.8"/>
</g>
<g id="g678" stroke-width=".125" stroke="#000" fill="none">
<path id="path680" d="m379.74 656.52h-0.72"/>
</g>
<g id="g682" stroke-width=".125" stroke="#000" fill="none">
<path id="path684" d="m382.36 656.4l1.76 5.58"/>
</g>
<g id="g686" stroke-width=".125" stroke="#000" fill="none">
<path id="path688" d="m382.7 656.52l2.14 5.35"/>
</g>
<g id="g690" stroke-width=".125" stroke="#000" fill="none">
<path id="path692" d="m383 656.53l2.51 5.24"/>
</g>
<g id="g694" stroke-width=".125" stroke="#000" fill="none">
<path id="path696" d="m386.11 661.32l-2.77-4.89"/>
</g>
<g id="g698" stroke-width=".125" stroke="#000" fill="none">
<path id="path700" d="m386.11 661.31h-2.2"/>
</g>
<g id="g702" stroke-width=".125" stroke="#000" fill="none">
<path id="path704" d="m385.73 660.65h-2.02"/>
</g>
<g id="g706" stroke-width=".125" stroke="#000" fill="none">
<path id="path708" d="m385.36 659.99h-1.86"/>
</g>
<g id="g710" stroke-width=".125" stroke="#000" fill="none">
<path id="path712" d="m384.98 659.32h-1.69"/>
</g>
<g id="g714" stroke-width=".125" stroke="#000" fill="none">
<path id="path716" d="m384.61 658.66h-1.53"/>
</g>
<g id="g718" stroke-width=".125" stroke="#000" fill="none">
<path id="path720" d="m384.23 658h-1.36"/>
</g>
<g id="g722" stroke-width=".125" stroke="#000" fill="none">
<path id="path724" d="m383.86 657.34h-1.2"/>
</g>
<g id="g726" stroke-width=".125" stroke="#000" fill="none">
<path id="path728" d="m383.48 656.67h-1.03"/>
</g>
<g id="g730" stroke-width=".125" stroke="#000" fill="none">
<path id="path732" d="m385.74 656.83l-1.72 5.17"/>
</g>
<g id="g734" stroke-width=".125" stroke="#000" fill="none">
<path id="path736" d="m386.26 656.6l-1.6 5.3"/>
</g>
<g id="g738" stroke-width=".125" stroke="#000" fill="none">
<path id="path740" d="m385.4 661.78l1.18-4.99"/>
</g>
<g id="g742" stroke-width=".125" stroke="#000" fill="none">
<path id="path744" d="m386.88 656.96l-0.99 4.75"/>
</g>
<g id="g746" stroke-width=".125" stroke="#000" fill="none">
<path id="path748" d="m384.22 661.41h1.73"/>
</g>
<g id="g750" stroke-width=".125" stroke="#000" fill="none">
<path id="path752" d="m384.44 660.76h1.64"/>
</g>
<g id="g754" stroke-width=".125" stroke="#000" fill="none">
<path id="path756" d="m384.65 660.12h1.57"/>
</g>
<g id="g758" stroke-width=".125" stroke="#000" fill="none">
<path id="path760" d="m384.86 659.48h1.5"/>
</g>
<g id="g762" stroke-width=".125" stroke="#000" fill="none">
<path id="path764" d="m385.08 658.83h1.41"/>
</g>
<g id="g766" stroke-width=".125" stroke="#000" fill="none">
<path id="path768" d="m385.3 658.19h1.32"/>
</g>
<g id="g770" stroke-width=".125" stroke="#000" fill="none">
<path id="path772" d="m385.51 657.55h1.25"/>
</g>
<g id="g774" stroke-width=".125" stroke="#000" fill="none">
<path id="path776" d="m385.72 656.9h1.03"/>
</g>
<g id="g778" stroke-width=".125" stroke="#000" fill="none">
<path id="path780" d="m387.67 657.01l0.84 3.55"/>
</g>
<g id="g782" stroke-width=".125" stroke="#000" fill="none">
<path id="path784" d="m387.98 656.84l1.17 3.7"/>
</g>
<g id="g786" stroke-width=".125" stroke="#000" fill="none">
<path id="path788" d="m388.38 656.83l1.27 3.7"/>
</g>
<g id="g790" stroke-width=".125" stroke="#000" fill="none">
<path id="path792" d="m388.9 657.03l1.28 3.48"/>
</g>
<g id="g794" stroke-width=".125" stroke="#000" fill="none">
<path id="path796" d="m390.06 660.2h-1.63"/>
</g>
<g id="g798" stroke-width=".125" stroke="#000" fill="none">
<path id="path800" d="m389.87 659.68h-1.55"/>
</g>
<g id="g802" stroke-width=".125" stroke="#000" fill="none">
<path id="path804" d="m389.68 659.16h-1.49"/>
</g>
<g id="g806" stroke-width=".125" stroke="#000" fill="none">
<path id="path808" d="m389.49 658.64h-1.43"/>
</g>
<g id="g810" stroke-width=".125" stroke="#000" fill="none">
<path id="path812" d="m389.29 658.12h-1.35"/>
</g>
<g id="g814" stroke-width=".125" stroke="#000" fill="none">
<path id="path816" d="m389.1 657.6h-1.28"/>
</g>
<g id="g818" stroke-width=".125" stroke="#000" fill="none">
<path id="path820" d="m388.91 657.08h-1.22"/>
</g>
<g id="g822" fill="#00b800">
<path id="path824" d="m372.37 666.26c0.81-0.51 2.18-0.41 2.88 0.11 0.84-0.47 2.34-0.34 3.05 0.29 1.06-0.73 1.97-0.84 3.01-0.14 0.81-0.57 2.05-0.62 3.01 0.06 0.94-0.44 1.98-0.81 2.89 0.15-0.55-0.39-1.72-0.73-2.89 0.19-0.91-0.92-2.49-0.58-3.01 0.05-0.68-0.81-2.11-0.94-2.96 0.05-0.94-0.78-2.34-0.81-3.1-0.21-0.59-0.47-1.48-0.86-2.88-0.55z"/>
</g>
<g id="g826" fill="#cf6200">
<path id="path828" d="m386.57 665.15c-4.13 0.71-13.13 0.21-15.11-0.29-0.68-0.17-0.49-0.41 0.08-0.28 2.27 0.51 7.13 0.52 9.81 0.39 0.52-0.69 1.34-1.86 1.58-2.19 0.25-0.32 0.36-0.35 0.87-0.44 0.93-0.16 1.45-0.24 2.25-0.38 0.01 0.11 0.01 0.24 0.01 0.32-0.06 0.05-0.12 0.14-0.18 0.16 0 0.54 0.11 1.84 0.21 2.3 0.11-0.01 0.23-0.05 0.3-0.06 0.18-0.05 0.36 0.42 0.18 0.47z"/>
</g>
<g id="g830" fill="#cf6200">
<path id="path832" d="m393.34 665.35c0.15-0.01 0.46-0.01 0.55-0.02 0.17 0 0.4-0.12 0.51-0.38 0.1-0.26 0.42-1.22 0.54-1.62l-0.42-0.63c0.1-0.52 0.21-1.22 0.22-1.36 0.21-0.08 0.43-0.16 0.54-0.19 0.02-0.12-0.03-0.44-0.13-0.54-1.78 0.07-7.11 0.25-8.09 0.26-0.23 0-0.33-0.01-0.42 0.33-0.5 1.84 0.19 4.43 2.05 5.92 0.13 0.11 0.29 0.02 0.08-0.18-0.31-0.28-0.79-0.87-1.12-1.45 0.36 0 1.1-0.02 1.32-0.03 0.11 0.44 0.44 1.36 0.51 1.52 0.06 0.16 0.22 0.18 0.14-0.06-0.17-0.54-0.27-1.16-0.35-1.46 0.34-0.01 0.98 0 1.37-0.03 0.02 0.5 0.07 1.16 0.08 1.34 0.02 0.18 0.17 0.2 0.18-0.01v-1.35c0.44-0.01 1-0.03 1.21-0.03-0.03 0.28-0.08 1.19-0.1 1.34-0.03 0.21 0.08 0.31 0.13 0.01s0.16-1 0.18-1.35c0.18-0.01 0.64-0.03 0.84-0.03-0.02 0.27-0.28 1.12-0.36 1.34s0.05 0.23 0.14 0.02c0.09-0.22 0.38-1.06 0.4-1.36z"/>
</g>
<g id="g834">
<path id="path836" d="m387.44 665.14c-0.14-0.29-0.58-1.31-0.62-2.05 0.38-0.01 1.32-0.02 1.77-0.03 0.07 0.56 0.24 1.76 0.33 2.04-0.53 0.02-1.18 0.03-1.48 0.04z"/>
</g>
<g id="g838">
<path id="path840" d="m388.9 663.05c0.05 0.43 0.28 1.89 0.31 2.06 0.39-0.02 1.28-0.03 1.44-0.04-0.02-0.39-0.08-1.85-0.09-2.06-0.4 0.01-1.45 0.04-1.66 0.04z"/>
</g>
<g id="g842">
<path id="path844" d="m386.89 661.24c-0.07 0.37-0.09 1.17-0.07 1.51 0.46 0.01 1.58-0.01 1.74-0.03-0.04-0.38-0.1-1.09-0.14-1.52-0.37 0.01-1.28 0.03-1.53 0.04z"/>
</g>
<g id="g846">
<path id="path848" d="m388.75 661.19c0.01 0.36 0.09 1.25 0.12 1.53 0.39-0.02 1.35-0.04 1.68-0.05-0.02-0.33-0.07-1.4-0.08-1.53-0.52 0.01-1.39 0.04-1.72 0.05z"/>
</g>
<g id="g850">
<path id="path852" d="m390.81 661.13c0.02 0.34 0.06 1.29 0.05 1.54 0.42-0.01 1.21-0.02 1.46-0.04 0.02-0.34 0.07-1.31 0.05-1.56-0.47 0.02-1.22 0.05-1.56 0.06z"/>
</g>
<g id="g854">
<path id="path856" d="m392.65 661.06c0 0.29-0.03 1.29-0.05 1.57 0.42-0.02 1.36-0.05 1.6-0.06 0.06-0.33 0.19-1.2 0.23-1.57-0.39 0.01-1.49 0.06-1.78 0.06z"/>
</g>
<g id="g858">
<path id="path860" d="m394.26 662.91c-0.53 0.01-1.39 0.04-1.68 0.05-0.04 0.66-0.12 1.79-0.16 2.05 0.47-0.01 1.42-0.04 1.62-0.04 0.16-0.32 0.5-1.29 0.58-1.59-0.12-0.18-0.21-0.28-0.36-0.47z"/>
</g>
<g id="g862">
<path id="path864" d="m390.87 663c0 0.24 0.04 1.91 0.05 2.05 0.3-0.01 1.1-0.02 1.21-0.03 0.06-0.65 0.15-1.9 0.17-2.06-0.54 0.02-1.07 0.03-1.43 0.04z"/>
</g>
<g id="g866">
<path id="path868" d="m383.97 662.6l-0.67 0.12c-0.32 0.5-1.47 2.06-1.61 2.25 0.8-0.03 2.06-0.05 2.36-0.08-0.02-0.42-0.07-2.08-0.08-2.29z"/>
</g>
<g id="g870">
<path id="path872" d="m384.27 662.54c0.02 0.54 0.07 1.96 0.08 2.34 0.4-0.03 1.14-0.08 1.44-0.1-0.07-0.67-0.2-2.27-0.23-2.47-0.33 0.06-0.99 0.18-1.29 0.23z"/>
</g>
<g id="g874" stroke-width=".125" stroke="#000">
<path id="path876" d="m377.29 656.93c0.09 0 0.11 0.08 0 0.07l-7.67-0.09c-0.11 0-0.1-0.08 0-0.08l7.67 0.1z"/>
</g>
<g id="g878" stroke-width=".125" stroke="#000">
<path id="path880" d="m383.33 650.78c0.09 0.01 0.1 0.08 0 0.08l-6.09-0.16c-0.1-0.01-0.09-0.09 0-0.08l6.09 0.16z"/>
</g>
<g id="g882" stroke-width=".125" stroke="#000">
<path id="path884" d="m376.91 652.54c0.09 0 0.1 0.07 0 0.07l-6.81-0.05c-0.1 0-0.09-0.08 0-0.08l6.81 0.06z"/>
</g>
<g id="g886" stroke-width=".125" stroke="#000">
<path id="path888" d="m377.11 648.12c0.09 0 0.11 0.08 0 0.08l-7.12-0.04c-0.1 0-0.09-0.08 0-0.08l7.12 0.04z"/>
</g>
<g id="g890" stroke-width=".125" stroke="#000">
<path id="path892" d="m376.62 644.63c0.09 0 0.1 0.08 0 0.08l-6.92-0.11c-0.1 0-0.09-0.08 0-0.07l6.92 0.1z"/>
</g>
<g id="g894" stroke-width=".125" stroke="#000">
<path id="path896" fill="#fff" d="m383.78 642.59c0.1 0 0.11 0.07 0 0.07l-5.93 0.06c-0.11 0-0.09-0.08 0-0.08l5.93-0.05z"/>
</g>
<g id="g898" stroke-width=".125" stroke="#000">
<path id="path900" d="m384.15 645.91c0.09 0 0.1 0.08 0 0.08h-6.56c-0.11 0-0.09-0.08 0-0.08h6.56z"/>
</g>
<g id="g902" stroke-width=".125" stroke="#000">
<path id="path904" d="m390.59 650.64c0.09 0 0.11 0.08 0 0.08h-7.07c-0.1 0-0.09-0.08 0-0.08h7.07z"/>
</g>
<g id="g906" stroke-width=".125" stroke="#000">
<path id="path908" d="m390.69 644.73c0.09 0 0.1 0.08 0 0.08l-7.23-0.07c-0.1-0.01-0.08-0.08 0.01-0.08l7.22 0.07z"/>
</g>
<g id="g910" stroke-width=".125" stroke="#000">
<path id="path912" d="m384.01 655.12c0.09 0 0.11 0.08 0 0.08l-6.35-0.04c-0.11 0-0.1-0.08 0-0.08l6.35 0.04z"/>
</g>
<g id="g914" stroke-width=".125" stroke="#000">
<path id="path916" d="m390.22 655.98c0.09 0 0.11 0.08 0 0.08l-5.58-0.07c-0.11 0-0.09-0.08 0-0.08l5.58 0.07z"/>
</g>
<g id="g918" stroke-width=".125" stroke="#000" fill="#ef072d">
<path id="path920" d="m395.26 657.05c0.16-0.35 0.18-1.15 0.09-1.45-0.24 0.05-0.44 0.04-0.64-0.04-0.11-0.04-0.22-0.08-0.35-0.11-0.02 0.4-0.16 1.43-0.34 1.82-0.32 0.09-0.95-0.01-1.31-0.12-0.09 0.34-0.18 0.65-0.26 0.94 0.45 0.1 1.01 0.09 1.45-0.01-0.04 0.6-0.11 1.15-0.44 1.52 0.53 0.02 1.01-0.06 1.18-0.25 0.02-0.01 0.04-0.03 0.05-0.05 0.25-0.4 0.26-0.94 0.31-1.3 0.19 0.01 0.42-0.04 0.52-0.14 0.11-0.11 0.28-0.16 0.45-0.14 0.15 0.01 0.39-0.02 0.69-0.15 0.01-0.18 0.05-0.38 0.11-0.56 0.04-0.09 0.07-0.25 0.1-0.44-0.38 0.19-1.25 0.49-1.61 0.48z"/>
</g>
<g id="g922" stroke-width=".125" stroke="#000">
<path id="path924" d="m370.46 623.2c-0.79 0.02-2.51 0.03-2.87 0.24-0.36 0.2-0.52 0.29 0.11 0.4 0.63 0.12 1.7 0.42 2.29 0.78s1.08 1 0.92 1.91c-0.49 2.75 0.95 5.39 3.03 6.38 0.2 0.1 0.24 0.17 0.2 0.54-0.05 0.37-0.18 1-0.3 1.15-0.11 0.16-0.16 0.42 0.2 0.3-0.25 0.46-0.8 1.39-0.97 1.63-1.67-0.21-3.02 0.02-3.15 1.76-0.01 0.17 0.05 0.44 0.31 0.01s0.55-0.84 1.27-0.95c-0.42 0.65-0.56 1.22-0.49 1.6 0.07 0.37 0.17 0.59 0.35 0.12s0.51-0.92 0.87-1.19c0.13-0.1 0.23-0.12 0.12 0.17-0.1 0.3 0.05 0.93 0.25 1.15 0.21 0.21 0.31 0.12 0.25-0.23-0.05-0.35 0.03-1.09 0.46-1.31 0.63-0.33 1.16-0.16 1.41 0.27 0.24 0.43 0.46 0.02 0.19-0.47-0.27-0.48-0.56-0.82-1.01-0.85 0.4-0.71 0.86-1.55 0.96-1.72s0.26-0.25 0.4-0.15c0.13 0.1 0.22 0.09 0.36-0.19 0.13-0.28 0.37-1.12 0.71-1.46 0.17-0.05 0.44-0.11 0.54-0.2 0.44 0.64 0.84 1.35 0.94 1.51s0.21 0.23 0.11 0.56c-0.1 0.32-0.45 1.36-0.5 1.59-1.24 0.05-1.8 0.07-2.2 0.76-0.17 0.3 0.1 0.41 0.4 0.26 0.29-0.16 0.71-0.3 0.92-0.26 0.22 0.03 0.32 0.14 0.11 0.25-0.76 0.37-1.23 0.84-1.2 1.5 0.01 0.24 0.11 0.35 0.29 0.03 0.26-0.45 0.74-0.9 1.31-1.03-0.03 0.56 0.09 1.37 0.43 1.54s0.36 0 0.24-0.33c-0.2-0.52 0.01-1.04 0.26-1.32 0.53-0.59 1.74 0.23 1.96 0.43 0.23 0.2 0.44 0.29 0.31-0.24-0.17-0.7-1.16-1.1-2.01-1.22 0.24-1.14 0.87-3.44 1.21-4.24 0.49 0.28 0.88-0.44 1.71-0.13 1.4 0.52 3.51 1.83 3.87 2.12 0.36 0.3 0.49 0.23 0.68 0.07 0.18-0.16 0.49 0 0.74 0.05 0.25 0.04 0.48 0.11 0.16-0.52-0.32-0.64-1.09-1.75-2.37-2.6 0.76 0.06 1.8 0.06 1.8-0.14s-1.19-0.59-1.69-0.63c0.47-0.12 1.2-0.39 1.54-0.77 0.2-0.23-0.04-0.28-0.75-0.29-2.17-0.05-3.25-0.03-4.38-0.68-1.81-1.04-2.84-2.14-3.73-2.6-0.47-0.25-0.76-0.83-0.95-1.32-0.58-1.58-0.55-2.3-1.93-2.82s-2.97 0.12-3.69 0.78z"/>
</g>
<g id="g926" stroke-width=".125" stroke="#000" fill="#fff">
<path id="path928" d="m370.55 623.56c-0.35-0.02-1.04-0.1-1.61-0.04-0.13 0.01-0.29 0.07 0.02 0.11 0.32 0.04 1.16 0.25 1.46 0.35 0.3 0.11 0.17 0.26-0.09 0.2-0.26-0.07-0.36 0.03-0.14 0.18 1.1 0.78 1.22 1.08 0.93 3.76 0.21 0.14 0.38 0.24 0.56 0.33s0.13 0.22-0.06 0.17c-0.2-0.05-0.38 0.07-0.07 0.13 0.31 0.07 0.45 0.21 0.16 0.2-0.3-0.02-0.65 0.24-0.07 0.18 0.59-0.07 0.82 0.21 0.13 0.22s-0.43 0.23-0.06 0.23c0.65 0 0.45 0.19 0.28 0.19s-0.24 0.22 0.19 0.18c0.42-0.04 0.59-0.05 0.75-0.03 0.15 0.03 0.22 0.16-0.01 0.17-0.24 0.01-0.23 0.18 0.12 0.18 0.36 0 0.5 0.11 0.19 0.17-0.13 0.03-0.31 0.09 0.06 0.14 0.65 0.1 0.68 0.25 0.47 0.28-0.21 0.02-0.23 0.14 0.06 0.17 0.3 0.02 0.56 0.11 0.32 0.18-0.25 0.06-0.38 0.21-0.07 0.23 0.31 0.03 0.57 0.14 0.34 0.22s-0.29 0.22 0.01 0.21 0.42 0.16 0.21 0.27c-0.21 0.12-0.35 0.2-0.48-0.01s-0.21-0.27-0.25-0.12c-0.04 0.16-0.13 0.06-0.23-0.18-0.11-0.23-0.29-0.3-0.23-0.11 0.05 0.18-0.19 0.2-0.41 0.11 0.82 0.83 2.03 1.59 3.95 0.81 0.17-0.07 0.2 0 0.33 0.27s0.49 0.87 0.62 1.09 0.23 0.02 0.3-0.19c0.26-0.86 0.45-1.5 0.53-1.73 0.08-0.24 0.44-0.47 0.33 0.35 0.28-0.2 1.55-0.38 2.53-0.01 1.08 0.4 2.16 1.02 2.72 1.44 0.1 0.08 0.23 0.17 0.49 0.14 0.26-0.02 0.33-0.06-0.17-0.52-0.49-0.45-0.28-0.67 0.03-0.45s0.48 0.09 0.24-0.19c-0.23-0.27-0.79-0.8-0.97-0.93s-0.21-0.18-0.62-0.21c-0.42-0.02-1.3-0.02-1.56-0.02s-0.34 0.02 0.23 0.23 1.74 0.96 2 1.14c0.26 0.19 0.44 0.6-0.13 0.24-0.57-0.37-2.36-1.48-3.56-1.9-2.73 0.18-4.88 0.55-6.5-1.22-0.77-0.85-0.8-2.78 0.5-3.59-0.26-0.22-0.22-0.35-0.12-0.4s0.14-0.1 0.04-0.24c-0.1-0.12-0.09-0.24 0-0.29-0.28-0.16-0.42-0.34-0.4-0.54-0.35-0.07-0.51-0.49-0.98-0.36-0.46 0.13-0.7 0.03-0.84-0.09s-0.26-0.17-0.52-0.14c-0.26 0.02-0.47-0.08-0.48-0.21-0.02-0.13 0.22-0.19 0.57-0.04 0.74 0.32 1.34 0.48 1.79-0.13 0.46-0.61-0.13-1.18-1-1.35s-1.5 0.47-1.83 0.77z"/>
</g>
<g id="g930" stroke-width=".125" stroke="#000" fill="#fff">
<path id="path932" d="m374.92 623.33c-0.27-0.28-0.73-0.54-0.96-0.62-0.24-0.08-0.26 0.16-0.14 0.27-0.1 0.16-0.14 0.54 0.04 0.64 0.19 0.1 0.19 0.25 0.02 0.34-0.26 0.13-0.18 0.82 0.22 0.62 0.13-0.06 0.23-0.04 0.2 0.07-0.02 0.1 0.03 0.23 0.15 0.26 0.11 0.02 0.1 0.19 0.08 0.26-0.03 0.06 0.01 0.09 0.14 0.1s0.14 0.33-0.09 0.43c0.28 0 0.36-0.05 0.44 0.18s0.39 0.29 0.39 0.57c0 0.29-0.05 0.34-0.39 0.29s-0.47 0.05-0.57 0.18c-0.11 0.13-0.13 0.26 0.13 0.27 0.26 0.02 0.31 0.13 0.05 0.25s-0.69 0.04-0.75 0.29c-0.07 0.24 0 0.36 0.19 0.27 0.2-0.09 0.6-0.26 0.75-0.35 0.16-0.09 0.3-0.11 0.43 0.1s0.03 0.44-0.19 0.26-0.33-0.01-0.46 0.09c-0.13 0.11-0.32 0.17-0.53 0.17s-0.35 0.03-0.32 0.49c0.07 1.41 1.17 2.45 3.17 2.42 2-0.02 2.99-0.05 3.28-0.01-0.66-0.37-1.07-0.56-1.31-0.53-0.23 0.02-0.43 0.06-0.32-0.12 0.1-0.18-0.02-0.18-0.12-0.26s-0.23-0.18-0.44 0.04-0.7 0.47-0.95 0.52-0.55 0.04-0.31-0.2c0.23-0.23 0.75-0.31 0.91-0.41 0.15-0.11 0.15-0.17 0.15-0.25s-0.03-0.3 0.26-0.13c0.6 0.34 1.54 0.85 1.78 0.83 0.25-0.01 0.42-0.12 0.2-0.26s-0.29-0.35-0.22-0.43c0.06-0.07 0.1-0.15 0.49 0.07s1.03 0.5 1.26 0.61c0.24 0.1 0.55 0.06 0.07-0.29s-1.98-1.34-2.39-1.65c-0.42-0.31-0.24 0.07-0.2 0.19 0.04 0.11-0.28 0.26-0.45 0.11-0.17-0.14-0.29-0.3-0.06-0.43 0.24-0.13 0.29-0.14-0.06-0.45s-0.45-0.29-0.38-0.03c0.08 0.26 0.11 0.55-0.26 0.4-0.36-0.14-0.54-0.31-0.31-0.45 0.24-0.14 0.53-0.22 0.14-0.55-0.39-0.32-0.27 0-0.36 0.19-0.09 0.18-0.39 0.18-0.56 0.04-0.17-0.15-0.25-0.29-0.13-0.41 0.12-0.11 0.11-0.18 0.27-0.09 0.17 0.09 0.43 0.04 0.12-0.23-0.31-0.28-0.43-0.16-0.36 0 0.06 0.15-0.18 0.43-0.57 0.06-0.19-0.17-0.19-0.4 0.01-0.44 0.19-0.04 0.21-0.14 0.08-0.34-0.8-1.15-0.47-2.09-1.26-2.95z"/>
</g>
<g id="g934" fill="#cf6200">
<path id="path936" d="m375.05 623.49c-0.07 0.1-0.09 0.1-0.22 0.18-0.16 0.11-0.19 0.4 0.07 0.37 0.18-0.03 0.28-0.14 0.36-0.22-0.06-0.11-0.13-0.22-0.21-0.33z"/>
</g>
<g id="g938" fill="#cf6200">
<path id="path940" d="m374.24 622.84c-0.2 0.19-0.24 0.28-0.14 0.28 0.12 0 0.07 0.01-0.02 0.15-0.08 0.14 0.18 0.21 0.28 0.11 0.11-0.11 0.12-0.14 0.18 0 0.04 0.11 0.21 0 0.32-0.11-0.18-0.17-0.42-0.33-0.62-0.43z"/>
</g>
<g id="g942" fill="#cf6200">
<path id="path944" d="m373.88 623.96c-0.26 0.13-0.18 0.82 0.22 0.62 0.13-0.06 0.23-0.04 0.2 0.07-0.01 0.05 0 0.11 0.03 0.16 0.15-0.06 0.31-0.17 0.43-0.31 0.24-0.27 0.02-0.26-0.35-0.26-0.36 0-0.46-0.07-0.12-0.27 0.31-0.19 0.11-0.32-0.32-0.26 0.06 0.09 0.03 0.19-0.09 0.25z"/>
</g>
<g id="g946" fill="#cf6200">
<path id="path948" d="m375.37 625.49c-0.19-0.21-0.07-0.31 0.13-0.41 0.06-0.03 0.09-0.06 0.12-0.1-0.06-0.23-0.11-0.45-0.17-0.66-0.11 0.03-0.24 0.27-0.27 0.39-0.06 0.17-0.11 0.28-0.28 0.23-0.16-0.05-0.31 0.12-0.34 0.31 0.02 0.01 0.06 0.01 0.11 0.02 0.07 0.01 0.11 0.11 0.09 0.21 0.46-0.02 0.54 0.31 0.62 0.53 0.09 0.24 0.2 0.21 0.26 0.07 0.07-0.14-0.08-0.38-0.27-0.59z"/>
</g>
<g id="g950" fill="#ff0">
<path id="path952" d="m375.5 628.21c-0.08 0.19-0.08 0.17-0.36 0.19s-0.62 0.07-0.78 0.23c-0.08 0.08-0.56 0.11-0.56 0.32s0 0.39 0.21 0.4c0.2 0.01 0.23 0.04 0.15 0.19-0.08 0.16-0.13 0.42 0.24 0.45 0.36 0.02 0.62-0.09 0.71 0.11 0.09 0.21-0.01 0.54 0.07 0.67 0.07 0.12 0.31 0.2 0.7 0.32 0.25 0.07 1.21 0.12 1.5 0.09 0.3-0.04 0.19-0.22-0.11-0.24-0.29-0.03-0.51-0.07-0.58-0.29-0.07-0.21-0.13-0.33 0.04-0.51 0.16-0.18 0.33-0.32 0.23-0.62s-0.25-0.66-0.6-0.76c-0.34-0.09-0.23-0.56-0.58-0.61-0.13-0.02-0.24-0.02-0.28 0.06z"/>
</g>
<g id="g954" fill="#cf6200">
<path id="path956" d="m373.82 631.03c0.3 0.02 0.56 0.11 0.32 0.18-0.25 0.06-0.38 0.21-0.07 0.23 0.31 0.03 0.57 0.14 0.34 0.22s-0.29 0.22 0.01 0.21 0.42 0.16 0.21 0.27c-0.21 0.12-0.35 0.2-0.48-0.01s-0.21-0.27-0.25-0.12c-0.04 0.16-0.13 0.06-0.23-0.18-0.11-0.23-0.29-0.3-0.23-0.11 0.05 0.18-0.19 0.2-0.41 0.11 0.22 0.22 0.47 0.44 0.74 0.62 0.32-0.11 0.67-0.02 0.79-0.01 0.14 0.02 0.54 0.11 0.76 0.22 0.22 0.12 0.36-0.09 0.27-0.32-0.09-0.24-0.1-0.16-0.22-0.03s-0.14-0.05-0.13-0.32c0.01-0.23-0.14-0.17-0.19-0.03-0.06 0.14-0.17-0.09-0.11-0.23 0.07-0.15-0.01-0.2-0.13-0.16-0.11 0.04-0.13 0-0.14-0.26s-0.13-0.22-0.17-0.11c-0.04 0.1-0.14-0.04-0.3-0.25-0.14-0.18-0.29-0.08-0.56 0.03 0.03 0.02 0.09 0.04 0.18 0.05z"/>
</g>
<g id="g958" fill="#ff0">
<path id="path960" d="m376.98 632.64c-1.42 0.57-2.44 0.32-3.21-0.19 0.32-0.11 0.67-0.02 0.79-0.01 0.14 0.02 0.54 0.11 0.76 0.22 0.22 0.12 0.36-0.09 0.27-0.32 0.2 0.24 0.34 0.41 0.57 0.4 0.24-0.01 0.63-0.05 0.82-0.1z"/>
</g>
<g id="g962" fill="#ff0">
<path id="path964" d="m373.95 626.1c-0.09-0.3-0.18-0.37-0.33-0.35-0.16 0.02-0.23-0.02-0.4-0.09-0.18-0.06-0.4 0.02-0.44 0.33-0.03 0.31-0.22 0.47-0.48 0.66s-0.42 0.35-0.42 0.66-0.06 0.4-0.24 0.62c-0.08 0.1-0.18 0.22-0.29 0.34 0.12 0.07 0.22 0.13 0.33 0.18 0.18 0.09 0.13 0.22-0.06 0.17-0.2-0.05-0.38 0.07-0.07 0.13 0.31 0.07 0.45 0.21 0.16 0.2-0.3-0.02-0.65 0.24-0.07 0.18 0.59-0.07 0.82 0.21 0.13 0.22s-0.43 0.23-0.06 0.23c0.65 0 0.45 0.19 0.28 0.19s-0.24 0.22 0.19 0.18h0.01c0.07-0.07 0.11-0.15 0.15-0.25 0.06-0.21 0.13-0.81 0.38-0.99 0.24-0.17 0.36-0.41 0.36-0.59 0-0.17 0.36-0.93 0.61-1.12 0.24-0.19 0.34-0.61 0.26-0.9z"/>
</g>
<g id="g966" fill="#cf6200">
<path id="path968" d="m373.44 626.11c-0.24-0.16-0.48-0.07-0.48 0.25 0 0.31-0.16 0.4-0.37 0.5-0.2 0.1-0.39 0.36-0.43 0.61-0.03 0.24 0.04 0.39-0.14 0.59-0.17 0.18-0.19 0.34-0.07 0.44 0.13 0.11 0.13 0.13 0.18 0.28 0.05 0.16 0.34-0.02 0.34-0.19s0.07-0.17 0.26-0.27c0.19-0.11 0.51-0.61 0.44-0.75s-0.25-0.26-0.02-0.45c0.22-0.19 0.47-0.21 0.47-0.4s0.07-0.26 0.14-0.33c0.06-0.07-0.16-0.17-0.32-0.28z"/>
</g>
<g id="g970">
<path id="path972" d="m373.44 625.86c-0.16-0.07-0.26 0.27-0.03 0.32 0.22 0.06 0.26-0.24 0.03-0.32z"/>
</g>
<g id="g974">
<path id="path976" d="m373.4 626.3c-0.18 0.02-0.37 0.24-0.08 0.2 0.28-0.04 0.4-0.24 0.08-0.2z"/>
</g>
<g id="g978">
<path id="path980" d="m373.06 626.72c-0.18 0.09-0.14 0.33 0.12 0.16s0.32-0.38-0.12-0.16z"/>
</g>
<g id="g982">
<path id="path984" d="m372.78 627.08c-0.18 0.09-0.14 0.33 0.12 0.16s0.32-0.38-0.12-0.16z"/>
</g>
<g id="g986">
<path id="path988" d="m372.42 627.25c-0.18 0.09-0.07 0.32 0.19 0.15 0.26-0.16 0.25-0.37-0.19-0.15z"/>
</g>
<g id="g990">
<path id="path992" d="m372.64 627.47c-0.18 0.09-0.06 0.32 0.2 0.15s0.24-0.38-0.2-0.15z"/>
</g>
<g id="g994">
<path id="path996" d="m372.33 627.56c-0.18 0.09-0.07 0.33 0.19 0.16s0.25-0.38-0.19-0.16z"/>
</g>
<g id="g998">
<path id="path1000" d="m372.53 627.81c-0.18 0.09-0.07 0.33 0.19 0.16s0.25-0.38-0.19-0.16z"/>
</g>
<g id="g1002">
<path id="path1004" d="m372.23 627.96c-0.18 0.09-0.07 0.32 0.19 0.16 0.26-0.17 0.25-0.38-0.19-0.16z"/>
</g>
<g id="g1006">
<path id="path1008" d="m372.25 628.19c-0.17 0.09-0.06 0.33 0.2 0.16s0.24-0.38-0.2-0.16z"/>
</g>
<g id="g1010" fill="#cf6200">
<path id="path1012" d="m372.11 630.38c-0.18 0.02-0.29 0.27-0.07 0.33 0.22 0.05 0.28 0.07 0.28 0.24s0.07 0.41 0.31 0.43 0.45-0.26 0.24-0.34c-0.21-0.09-0.4-0.16-0.41-0.35-0.02-0.19-0.21-0.33-0.35-0.31z"/>
</g>
<g id="g1014" fill="#ff0">
<path id="path1016" d="m378.49 628.89c0.03 0.04 0.07 0.08 0.12 0.12 0.17 0.15 0.49 0 0.45-0.11-0.04-0.12-0.22-0.5 0.2-0.19 0.41 0.31 1.91 1.3 2.39 1.65s0.17 0.39-0.07 0.29c-0.23-0.11-0.87-0.39-1.26-0.61s-0.43-0.14-0.49-0.07-0.01 0.23 0.13 0.36c-0.23 0.03-0.61-0.02-0.72-0.27-0.13-0.29-0.44-0.66-0.66-0.94-0.08-0.11-0.11-0.18-0.09-0.23z"/>
</g>
<g id="g1018" fill="#00d860">
<path id="path1020" d="m391.38 671.46c-0.32 0.22-0.75 0.61-0.47 1.16 0.03-0.02 0.07-0.04 0.1-0.06 1.27-1.54 2.36-3.15 3.29-4.83 0.01-0.06 0.02-0.12 0.03-0.17-0.37 0.32-0.94 0.63-1.17 0.71 0.16 0.41-0.57 0.96-0.96 1.11 0.15 0.26 0.1 0.65-0.24 0.73 0.08 0.23-0.18 0.23-0.49 0.37-0.31 0.12-0.47 0.23-0.57 0.38 0.17-0.09 0.4-0.16 0.53-0.12 0.13 0.03 0.16 0.23-0.08 0.28-0.23 0.05-0.39 0.18-0.47 0.29 0.34-0.13 0.82-0.07 0.5 0.15z"/>
</g>
<g id="g1022" stroke-width=".125" stroke="#000">
<path id="path1024" d="m375.97 628.41c-0.39-0.33-0.48-0.13-0.33 0.08 0.16 0.21 0.04 0.31-0.3 0.37-0.33 0.05-0.84 0.11-1.05 0.11s-0.45 0.29 0.04 0.26c0.49-0.02 1.33-0.19 1.55-0.28s0.4-0.26 0.09-0.54z"/>
</g>
<g id="g1026" stroke-width=".125" stroke="#000">
<path id="path1028" d="m376.72 629c-0.32-0.29-0.43-0.21-0.35 0s-0.06 0.25-0.27 0.31c-0.21 0.07-1.03 0.34-1.38 0.38s-0.43 0.28 0.09 0.27 1.52-0.43 1.64-0.51c0.12-0.07 0.15-0.23 0.29-0.15 0.12 0.08 0.24-0.07-0.02-0.3z"/>
</g>
<g id="g1030" stroke-width=".125" stroke="#000">
<path id="path1032" d="m376.96 629.83c-0.23 0.14-0.81 0.39-1.04 0.45-0.24 0.07-0.43 0.33 0.06 0.29 0.5-0.04 1.08-0.49 1.24-0.58 0.15-0.09 0.23-0.16 0.36-0.15 0.13 0.02 0.36-0.16-0.06-0.4-0.43-0.23-0.69-0.12-0.49 0.07 0.21 0.18 0.06 0.24-0.07 0.32z"/>
</g>
<g id="g1034">
<path id="path1036" d="m372.91 623.29c-0.64-0.42-1.36 0.46-0.66 0.94 0.61 0.42 1.26-0.54 0.66-0.94z"/>
</g>
<g id="g1038" fill="#fff">
<path id="path1040" d="m372.12 623.67l0.18 0.01c-0.04 0.2 0.16 0.49 0.46 0.42-0.24 0.18-0.71-0.03-0.64-0.43z"/>
</g>
<g id="g1042" fill="#fff">
<path id="path1044" d="m374.58 633.14c0.19 0.05 0.86 0.12 1.08 0.13-0.11 0.24-0.21 0.4-0.28 0.57s-0.1 0.18-0.11-0.08-0.16-0.43-0.29-0.16c-0.14 0.27-0.21 0.37-0.28 0.48-0.06 0.12-0.17 0.16-0.13-0.12 0.03-0.28 0.02-0.58 0.01-0.82z"/>
</g>
<g id="g1046" stroke="#000" stroke-width=".25" fill="none">
<path id="path1048" stroke="#000" d="m399.67 640.77c-0.05 16.33-2.63 33.93-23.77 42.31-21.14-8.38-23.72-25.98-23.76-42.31h47.53z"/>
</g>
<g id="g3680" stroke="#000" stroke-width=".25" fill="none">
<path id="path3682" d="m399.67 640.77c0.02-6.15-0.33-12.12-0.17-17.36-7.9-3.53-18.3-4.26-23.6-4.26s-15.69 0.73-23.59 4.26c0.15 5.24-0.19 11.21-0.17 17.36h47.53z" stroke="#000" stroke-width=".25" fill="none"/>
</g>
</g>
</svg>
