<svg xmlns="http://www.w3.org/2000/svg" viewBox="0 0 9 6">
<path fill="#ee1c25" d="M0 0h9v6H0z"/>
<path fill="#0b4ea2" d="M0 0h9v4H0z"/>
<path fill="#fff" d="M0 0h9v2H0z"/>
<path d="M3.163 4.635c-.538-.26-1.307-.773-1.307-1.79s.048-1.48.048-1.48H4.42s.05.463.05 1.48-.77 1.53-1.307 1.79z" fill="#fff"/>
<path d="M3.163 4.5c-.494-.238-1.2-.71-1.2-1.643S2.008 1.5 2.008 1.5h2.31s.044.424.044 1.357c0 .934-.706 1.405-1.2 1.643z" fill="#ee1c25"/>
<path d="M3.268 2.613c.134.002.394.007.626-.07 0 0-.006.083-.006.18 0 .096.006.18.006.18-.212-.072-.475-.074-.626-.072v.52h-.21v-.52c-.15 0-.414 0-.627.08 0 0 .01-.08.01-.18v-.18c.24.08.5.08.63.07v-.33a1.48 1.48 0 0 0-.49.07s.01-.08.01-.18V2c.2.07.38.08.5.08A2.91 2.91 0 0 0 3 1.61s.122.01.172.01c.05 0 .172-.01.172-.01s-.06.26-.066.464c.12 0 .296-.004.494-.07 0 0-.006.083-.006.18 0 .096.006.18.006.18a1.48 1.48 0 0 0-.496-.07v.322z" fill="#fff"/>
<path d="M3.163 3.29c-.25 0-.382.346-.382.346s-.07-.164-.27-.164c-.13 0-.24.122-.3.235.25.397.65.642.96.793.32-.15.71-.396.96-.793-.06-.113-.16-.235-.3-.235-.2 0-.28.164-.28.164s-.13-.345-.38-.345z" fill="#0b4ea2"/>
</svg>
