<svg xmlns="http://www.w3.org/2000/svg" xmlns:xlink="http://www.w3.org/1999/xlink" viewBox="0 0 800 600">
<path fill="#5eb6e4" d="M0 0h800v600H0z"/>
<path fill="#fff" d="M0 0h800v300H0z"/>
<g stroke="#000" stroke-width=".933" fill="none">
<g fill="#fff">
<circle cy="171.23" cx="459.44" r="4.044"/>
<circle cy="157.02" cx="461.69" r="5.081"/>
<circle cy="141.72" cx="376.39" r="3.909"/>
<circle cy="157.02" cx="338.47" r="5.081"/>
<circle cy="143.37" cx="361.67" r="4.218"/>
<circle cy="171.23" cx="340.72" r="4.044"/>
<circle cy="147.12" cx="346.87" r="4.885"/>
<circle cy="141.72" cx="423.77" r="3.909"/>
<circle cy="143.37" cx="438.49" r="4.218"/>
<circle cy="147.12" cx="453.29" r="4.886"/>
</g>
<g stroke-width="1.09">
<circle cy="171.23" cx="459.44" r="4.458"/>
<circle cy="157.02" cx="461.69" r="5.602"/>
<circle cy="141.72" cx="376.39" r="4.31"/>
<circle cy="157.02" cx="338.47" r="5.602"/>
<circle cy="143.37" cx="361.67" r="4.65"/>
<circle cy="171.23" cx="340.72" r="4.458"/>
<circle cy="147.12" cx="346.87" r="5.386"/>
<circle cy="141.72" cx="423.77" r="4.309"/>
<circle cy="143.36" cx="438.49" r="4.65"/>
<circle cy="147.12" cx="453.29" r="5.387"/>
</g>
<g stroke-linejoin="round" stroke-linecap="round" fill="#000">
<path d="M392.49 132.02c-13.483 15.54-37.154 7.948-47.953 13.998-18.784 10.523 1.65 35.486 5.496 40.258l20.47-5.343c-7.515-6.013-22.587-16.227-18.048-24.525 4.653-8.51 29.37.124 40.18-18.04 2.275-3.82.533-7.127-.144-6.35z"/>
<path d="M392.49 132.48c-13.483 15.542-36.39 8.094-47.186 14.145-18.785 10.524 2.43 34.876 6.28 39.65l17.68-5.346c-7.517-6.02-21.8-16.54-17.26-24.84 4.65-8.51 29.822-.03 40.632-18.2 2.273-3.82.53-6.2-.145-5.42z" fill="#f1bf31"/>
<path stroke-width=".633" d="M393.71 133.68c-14.603 19.717-36.523 9.764-45.943 17.455-10.642 8.69 4.863 25.795 12.343 32.562l1.17-.43c-6.07-5.753-24.06-22.84-12.63-32.064 8.22-6.636 31.332 2.02 45.11-17.055z"/>
<path stroke="none" d="M357.83 171.31c-.358.68-.895 1.85-1.256 3.332-6.242-7.435-10.917-15.14-5.998-21.504 4.478-5.796 15.453-3.173 26.878-7.187 5.233-1.55 10.37-4.31 14.743-9.49-.42 1.14-.855 2.51-1.338 3.88-11.6 14.77-34.76 7.69-39.17 15.76-2.61 4.77 1.09 10.26 6.14 15.22z" fill="#d99f31"/>
<path stroke="none" d="M352.11 169.98c1.303-.376 1.968-1.098 2.693-1.942.296.358.602.713.918 1.067-.49.662-1.06 1.31-1.92 1.76-1.03.542-2.17.68-3.23.68-.35-.476-.7-.96-1.03-1.445.86.086 1.83.098 2.58-.12zm-2.812-5.77c1.135-.18 1.594-.295 2.493-.803.16.343.33.687.52 1.03-.76.44-1.38.705-2.43.92-1.05.218-2.15.154-3.12-.008a21.95 21.95 0 0 1-.57-1.34c.95.18 2.18.34 3.12.19zm1.54-4.815c-2.074-.198-4.086-1.283-5.496-2.828.1-.413.23-.82.393-1.22.81 1.014 2.57 2.77 5.186 2.997a7.38 7.38 0 0 0-.08 1.05zm1.805-4.554c-1.482-.86-2.705-2.22-3.457-3.77a8.95 8.95 0 0 1 .867-.54c.55 1.17 1.583 2.74 3.39 3.65a6.53 6.53 0 0 0-.8.68zm3.983-6.15a5.355 5.355 0 0 0 2.146 3.45 27.8 27.8 0 0 0-1.116.26 6.262 6.262 0 0 1-1.93-3.58c.295-.04.595-.09.9-.13zm7.098-.62c.37 1.05 1.112 1.97 2.092 2.71a.44.44 0 0 1 .182.29l-1.107.14c-.99-.85-1.74-1.89-2.1-3.06l.94-.07zm6.924-.68a8.144 8.144 0 0 0 2.685 2.55 66.72 66.72 0 0 1-1.278.25 8.893 8.893 0 0 1-2.397-2.66c.33-.04.66-.08.99-.13zm6.187-1.26c.895.87 2.03 1.51 3.24 1.92a34.43 34.43 0 0 1-1.297.47c-1.117-.51-2.14-1.21-2.95-2.11a24.57 24.57 0 0 0 1.007-.27zm6.23-2.39c.83.6 1.92 1 2.897 1.24-.33.23-.666.45-1.005.67-.997-.31-2.018-.78-2.797-1.46.302-.14.604-.29.905-.44zm4.59-2.9c.66.33 1.43.57 2.183.73a23 23 0 0 1-.727.77c-.79-.2-1.57-.49-2.25-.89.27-.19.54-.39.8-.59z"/>
<path stroke-width=".604" d="M393.76 134.46c.044.954-.226 1.776-1.125 3.29-10.812 18.163-36.292 9.84-40.944 18.35-4.47 8.18 9.65 18.517 17.24 24.572-1.33.48-2.74.903-4.21 1.26l-1.32.718-1.96.62c-6.07-5.755-24.04-22.684-12.61-31.908 8.22-6.636 31.18 2.174 44.96-16.902z" fill="none"/>
<path d="M407.52 132.02c13.485 15.54 37.156 7.948 47.952 13.998 18.785 10.523-1.648 35.486-5.493 40.258l-20.48-5.343c7.52-6.013 22.59-16.227 18.05-24.525-4.65-8.51-29.37.124-40.19-18.04-2.28-3.82-.53-7.127.14-6.35z"/>
<path d="M407.67 132.48c13.483 15.542 36.39 8.094 47.186 14.145 18.784 10.524-2.43 34.876-6.28 39.65l-17.68-5.346c7.518-6.02 21.8-16.54 17.26-24.84-4.65-8.51-29.823-.03-40.632-18.2-2.273-3.82-.53-6.2.145-5.42z" fill="#f1bf31"/>
<path stroke-width=".633" d="M438.88 183.27c6.07-5.754 24.058-22.84 12.628-32.065-8.22-6.636-31.332 2.02-45.108-17.055l.05-.468c14.602 19.717 36.523 9.763 45.943 17.455 10.626 8.675-4.95 25.737-12.46 32.528z"/>
<path stroke="none" d="M442.33 171.31c.358.68.894 1.85 1.256 3.332 6.24-7.435 10.917-15.14 5.998-21.504-4.478-5.796-15.455-3.173-26.88-7.188-5.233-1.552-10.368-4.315-14.742-9.493.42 1.132.854 2.504 1.337 3.876 11.59 14.768 34.75 7.692 39.17 15.765 2.6 4.763-1.1 10.258-6.14 15.213z" fill="#d99f31"/>
<path stroke="none" d="M448.05 170.6c-1.502-.373-2.248-1.03-3.233-1.925-.296.34-.6.68-.915 1.02.69.664 1.397 1.316 2.462 1.79.92.408 1.89.564 2.814.61a53.44 53.44 0 0 0 1.013-1.368c-.73.045-1.51.03-2.14-.127zm2.813-6.393c-1.136-.178-1.594-.292-2.493-.8-.155.343-.33.687-.518 1.03.758.44 1.376.705 2.427.92 1.05.218 2.15.154 3.12-.008.21-.45.4-.89.57-1.34-.95.18-2.18.34-3.12.19zm-1.538-4.812c2.074-.2 4.084-1.284 5.493-2.828a8.6 8.6 0 0 0-.392-1.22c-.81 1.015-2.57 2.768-5.185 2.996.06.35.09.7.09 1.052zm-1.805-4.554c1.48-.86 2.702-2.22 3.455-3.77a8.773 8.773 0 0 0-.867-.54c-.55 1.17-1.584 2.74-3.388 3.65.29.21.556.44.8.68zm-3.986-6.15a5.358 5.358 0 0 1-2.145 3.45c.38.08.75.17 1.11.26a6.26 6.26 0 0 0 1.93-3.58 41.682 41.682 0 0 0-.9-.13zm-7.098-.62c-.37 1.05-1.11 1.97-2.092 2.71a.443.443 0 0 0-.182.29l1.108.14c1-.85 1.745-1.89 2.103-3.06l-.937-.07zm-6.923-.68a8.143 8.143 0 0 1-2.686 2.55c.427.09.853.17 1.28.25a8.897 8.897 0 0 0 2.394-2.66 58.96 58.96 0 0 1-.98-.13zm-6.188-1.26c-.895.87-2.03 1.51-3.24 1.92.43.17.863.32 1.297.47 1.12-.51 2.14-1.21 2.95-2.11a39.268 39.268 0 0 1-1.007-.27zm-6.228-2.39c-.83.6-1.92 1-2.898 1.24.33.23.66.45 1 .67.99-.31 2.01-.78 2.79-1.45a28.97 28.97 0 0 1-.91-.44zm-4.593-2.9c-.66.33-1.43.57-2.18.73.237.27.48.52.726.77.79-.21 1.577-.49 2.252-.89a29.492 29.492 0 0 1-.798-.59z"/>
<path stroke-width=".604" d="M406.4 134.46c-.044.954.227 1.776 1.128 3.29 10.81 18.163 36.29 9.84 40.942 18.35 4.47 8.18-9.644 18.517-17.24 24.572 1.334.48 2.74.903 4.218 1.26l1.327.718 1.966.62c6.07-5.755 24.05-22.684 12.62-31.908-8.22-6.636-31.18 2.174-44.95-16.902z" fill="none"/>
</g>
<path d="M400.08 166.7h-6.842s.81-6.522-.105-10.94c-.74-3.574-3.592-7.675-3.592-10.682 0-3.006 3.26-11.453 3.26-11.453h14.57s3.1 8.447 3.1 11.453c0 3.007-2.69 7.108-3.44 10.68-.91 4.42-.1 10.942-.1 10.942h-6.84z" fill="#000"/>
<path stroke="none" d="M400.08 166.7h-6.842s1.053-6.51.204-10.94c-.69-3.605-3.125-6.402-3.446-10.058-.457-5.158 4.042-12.076 4.042-12.076h12.084s4.343 6.918 3.888 12.076c-.32 3.656-2.6 6.453-3.293 10.057-.848 4.42.204 10.94.204 10.94h-6.84z" fill="#f1bf31"/>
<path stroke="none" d="M389.98 144.4c.43-.146.886-.25 1.318-.25 1.5 0 2.095.982 2.095.982s3.932-.91 6.69-.91c2.757 0 6.69.91 6.69.91s.594-.98 2.095-.98c.38 0 .78.078 1.163.198.03.46.03.91-.01 1.35-.32 3.657-2.6 6.452-3.29 10.056-.42 2.19-.37 4.886-.22 7.055l-6.41 3.05-6.41-3.05c.16-2.17.2-4.86-.22-7.05-.69-3.6-3.12-6.4-3.44-10.05a9.116 9.116 0 0 1-.02-1.3z" fill="#d99f31"/>
<path stroke="none" d="M407.09 146.82c-.3.943-.778 2.453-1.194 3.975-.415 1.522-.768 3.054-.816 4.045-.19 3.87.473 8.07 1.242 11.863h-.28c-1.085-3.318-2.344-8.43-2.295-11.87.027-2.095 1.352-6.153 2.03-8.094.98-2.81.777-4.7.088-6.58-.69-1.89-1.87-3.76-2.84-6.5a.05.05 0 0 1 .003-.05h1.298c.99 2.69 2.103 4.58 2.766 6.49.673 1.93.885 3.89-.002 6.7zm-13.25 19.883c.773-3.826 1.417-7.972 1.242-11.863-.043-.99-.396-2.52-.816-4.045-.415-1.524-.896-3.033-1.194-3.974-.89-2.8-.18-6.13.746-8.75a28.762 28.762 0 0 1 2.016-4.44h1.347c-.41.68-4.64 7.83-2.79 13.11.68 1.94 2 6 2.03 8.09.05 3.44-1.21 8.56-2.3 11.88h-.27z" fill="#000"/>
<path d="M400.08 166.7h-6.842s1.053-6.51.204-10.94c-.69-3.605-3.125-6.402-3.446-10.058-.457-5.158 4.042-12.076 4.042-12.076h12.084s4.343 6.918 3.888 12.076c-.32 3.656-2.6 6.453-3.293 10.057-.848 4.42.204 10.94.204 10.94h-6.84z"/>
<ellipse rx="3.409" ry="2.507" cy="140.64" cx="400" stroke-width=".915" fill="#fff"/>
<ellipse cx="400" cy="140.49" stroke-width="1.029" rx="3.835" ry="2.735"/>
<circle cx="400" cy="148.23" stroke-width=".915" r="3.683" fill="#fff"/>
<circle cx="400" cy="148.23" stroke-width="1.029" r="4.143"/>
<path stroke-width=".904" d="M360.41 204.28s-1.057-1.065-1.378-1.935c-.256-.685-.28-1.855-.28-1.855l-3.786-6.07 8.507-8.088 16.176-4.64 20.39-1.458h.03l20.4 1.457 16.17 4.65 8.5 8.09-3.79 6.07s-.03 1.17-.28 1.86c-.33.87-1.38 1.94-1.38 1.94l-18.97-6.41-20.67-.92-20.69.93-18.98 6.41z"/>
<path d="M360.87 203.6s-.758-.947-1.046-1.655c-.418-1.024-.364-2.814-.364-2.814l-4.493-4.7 8.507-8.09 16.175-4.64 20.42-1.45 20.43 1.46 16.17 4.64 8.5 8.09-4.49 4.71s.05 1.79-.37 2.82c-.29.71-1.05 1.66-1.05 1.66l-18.52-5.72-20.69-.93-20.69.93-18.52 5.73z" fill="#f1bf31"/>
<path d="M358.83 207.29a41.168 12.777 0 1 1 82.34 0 41.168 10.824 0 1 1-82.34 0z" fill="#000"/>
<path d="M360.21 207.29a39.792 12.312 0 1 1 79.58 0 39.792 10.523 0 1 1-79.58 0z" fill="#f1bf31"/>
<ellipse cy="208.42" cx="400" rx="36.785" ry="9.395" fill="#d99f31"/>
<path stroke-width="1.09" d="M436.52 209.68c-6.886 2.946-20.432 4.527-36.47 4.527-16.04 0-29.585-1.58-36.47-4.527"/>
<path stroke-width="1.01" d="M435.91 206.26c-7.056 2.688-20.282 4.033-35.86 4.03-15.577 0-28.8-1.343-35.857-4.03"/>
<path d="M432.46 203.88c-7.495 2.174-19.092 3.403-32.41 3.402-13.316 0-24.91-1.228-32.406-3.402"/>
<path d="M427.48 202.07c-7.23 1.427-16.78 2.213-27.428 2.213s-20.196-.786-27.428-2.213m46.466-1.75c-5.66.624-12.118.956-19.042.956-6.924 0-13.382-.332-19.042-.956"/>
<ellipse cy="208.42" cx="400" rx="36.475" ry="9.093"/>
<path stroke-linejoin="round" d="M354.76 192.76c-3.61-4.803-6.83-8.073-14.65-10.834 1.074-.864 2.972-1.65 4.795-2.097 2.975-.74 6.016-.34 7.97.68-1.552-5.56 1.43-11.1 1.43-11.1s4.817-.28 9.698 3.64c.16-6.73 2.132-9.92 2.132-9.92s5.07.24 10.257 5.39c.988-6.96 4.742-10.74 4.742-10.74s6.23 1.95 9.79 8.52c2.373-9.52 9.157-13.25 9.157-13.25s6.79 3.73 9.16 13.25c3.56-6.58 9.79-8.53 9.79-8.53s3.73 3.64 4.75 10.73c5.19-5.16 10.26-5.4 10.26-5.4s1.98 3.19 2.14 9.92c4.88-3.93 10.18-2.47 10.18-2.47s2.5 4.35.95 9.91c1.96-1.03 5-1.42 7.97-.69 1.83.45 3.72 1.23 4.8 2.1-7 2.54-11.19 6.03-14.8 10.83-3.38-6.91-21.45-14.5-45.17-14.5-23.71 0-41.94 7.59-45.32 14.49z" fill="#000"/>
<path stroke-linejoin="round" d="M354.76 191.99c-3.088-4.84-7.545-8.382-12.17-10.172 1.074-.863 2.96-1.194 4.956-1.333 2.342-.162 4.29.166 5.945.95-1.55-5.55.97-11.23.97-11.23s4.97.02 9.85 3.942c.16-6.727 2.3-10.064 2.3-10.064s4.76.53 9.94 5.684c1.12-6.945 4.75-10.866 4.75-10.866s6.23 1.94 9.79 8.51c2.38-9.52 9-12.92 9-12.92s6.63 3.41 9.01 12.93c3.56-6.57 9.79-8.5 9.79-8.5s3.75 3.51 4.75 10.87c5.19-5.15 9.94-5.68 9.94-5.68s2.13 3.34 2.3 10.07c4.88-3.92 10.47-2.85 10.47-2.85s1.9 4.6.35 10.15c1.65-.78 3.6-1.11 5.94-.95 2 .14 3.89.47 4.96 1.33-4.62 1.79-9.08 5.33-12.17 10.17-3.38-6.9-21.61-13.86-45.32-13.86s-41.94 6.96-45.32 13.86z" fill="#f1bf31"/>
<path d="M353 194.16c0-8.754 20.9-16.185 47.053-16.185 26.156 0 46.282 7.73 46.282 15.41 0 1.84-1.626 3.423-3.77 4.77.207-.578.31-1.168.31-1.764 0-7.68-16.666-13.9-42.82-13.9s-42.82 6.23-42.82 13.91c0 .6.104 1.19.31 1.77-2.145-1.35-4.545-2.16-4.545-4z" fill="#000"/>
<path stroke-width=".904" d="M354.22 193.38c0-6.642 19.675-14.945 45.828-14.945 26.154 0 45.83 8.303 45.83 14.945 0 1.84-2.048 2.024-2.233 1.458-2.198-6.734-17.442-12.668-43.596-12.668-26.16 0-41.4 5.934-43.6 12.668-.19.566-2.23.382-2.23-1.458z" fill="#f1bf31"/>
<path stroke-linejoin="round" stroke-width=".45" d="M399.58 172.09c.152-2.35.463-7.57.463-7.57.007-.05.073-.825.08-.772 0 0 .292 5.99.433 8.34.14 2.343.29 6.014.29 6.014a.04.04 0 0 1-.04.04l-1.504.008a.04.04 0 0 1-.04-.04s.167-3.674.318-6.018zm38.456 13.55a84.65 84.65 0 0 0 1.287-2.655c.753-1.656 2.11-4.305 2.11-4.305a.04.04 0 0 0-.07-.034s-1.7 2.402-2.654 3.894a93.01 93.01 0 0 1-1.73 2.567zm-12.812-4.644c.228-.51 1.295-2.89 2.124-4.416.986-1.814 2.77-4.512 2.77-4.512.028-.045.09-.01.066.038 0 0-1.28 2.73-2.014 4.512-.718 1.74-1.714 4.512-1.714 4.512l-.66.01zm-11.6-2.087c.283-1.12.858-3.37 1.317-4.96a103.3 103.3 0 0 1 1.79-5.64.04.04 0 0 1 .08.02c-.42 2.25-.65 3.53-1.03 5.79a475.832 475.832 0 0 0-.8 4.95zm-39.31 2.24h-.57c-.038-.03-1.032-2.8-1.75-4.54-.736-1.78-2.015-4.51-2.015-4.51-.03-.05.03-.09.06-.04 0 0 1.78 2.7 2.77 4.51.83 1.52 1.89 3.9 2.12 4.41zm10.883-2.08a530.1 530.1 0 0 0-.803-4.95 293.87 293.87 0 0 0-1.036-5.79c-.01-.06.058-.07.075-.02a103.74 103.74 0 0 1 1.79 5.64c.458 1.58 1.033 3.83 1.316 4.95zm-23.187 6.63a84.958 84.958 0 0 1-1.316-2.72c-.756-1.66-2.11-4.31-2.11-4.31a.04.04 0 0 1 .07-.04s1.698 2.4 2.653 3.89a95.8 95.8 0 0 0 1.76 2.62z" fill="#000"/>
<g stroke-linejoin="round" stroke-width=".777" stroke-linecap="round">
<path stroke-width=".719" d="M361.6 197.42c-.337-1.906-1.985-3.44-3.256-3.217-1.268.223-3.072 2.123-2.736 4.027.335 1.905 2.717 3.29 3.988 3.07 1.27-.226 2.34-1.976 2.004-3.88z" fill="#d99f31"/>
<path stroke="none" d="M359.49 195.08a2.393 2.393 0 0 1-3.027 3.62 2.868 2.868 0 0 1-.147-.528c-.29-1.652.97-3.144 2.07-3.338.08-.014.16-.02.24-.02.296 0 .59.094.864.266z" fill="#f1bf31"/>
<path d="M360.9 197.47c-.29-1.65-1.418-2.828-2.516-2.635-1.1.193-2.36 1.688-2.073 3.337.3 1.648 2.06 2.848 3.16 2.655 1.1-.193 1.73-1.71 1.44-3.357z"/>
<path d="M375.4 192.85l-.598-3.583-2.413-1.217s-2.6.704-4.21 1.28c-1.68.593-4.21 1.73-4.21 1.73l-.61 1.053.75 4.053 1.35 1.203 9.02-2.71.91-1.82z" fill="#d99f31"/>
<path stroke="none" d="M365.46 195.44l7.226-2.287.45-.748-.625-3.752-.26-.257-8.02 2.944.61 3.402z" fill="#f1bf31"/>
<path stroke-width="1.09" d="M365.46 195.44l7.226-2.287.45-.748-.475-3m2.56 3.44l-2.08-.442"/>
<path stroke="none" d="M385.72 189a1.503 1.503 0 0 1 1.367-1.628 1.502 1.502 0 1 1 .264 2.994 1.505 1.505 0 0 1-1.63-1.366zm-3.482 3.322zm-3.554-2.668a1.502 1.502 0 0 1 1.366-1.627c.826-.074 1.406.54 1.478 1.366.073.828-.388 1.557-1.216 1.63a1.505 1.505 0 0 1-1.628-1.37zm3.03-3.322a1.504 1.504 0 1 1 1.63 1.366 1.504 1.504 0 0 1-1.63-1.366z" fill="#f1bf31"/>
<path stroke="none" d="M385.81 189.4a1.503 1.503 0 0 1 2.818 0 1.505 1.505 0 0 1-2.818 0zm-4.005-2.667a1.502 1.502 0 0 0 2.816-.002 1.504 1.504 0 0 0-2.81.01zm-3.032 3.32c.23.62.85 1.033 1.54.975.585-.052.988-.433 1.147-.945-.188-.633-.71-1.06-1.41-1a1.504 1.504 0 0 0-1.277.97zm3.556 2.668a1.5 1.5 0 0 0 2.81 0 1.505 1.505 0 0 0-2.82 0z" fill="#d99f31"/>
<path stroke-width=".933" d="M385.72 189a1.503 1.503 0 0 1 1.367-1.628 1.502 1.502 0 1 1 .264 2.994 1.505 1.505 0 0 1-1.63-1.366zm-3.482 3.322zm-3.554-2.668a1.502 1.502 0 0 1 1.366-1.627c.826-.074 1.406.54 1.478 1.366.073.828-.388 1.557-1.216 1.63a1.505 1.505 0 0 1-1.628-1.37zm3.03-3.322a1.504 1.504 0 1 1 1.63 1.366 1.504 1.504 0 0 1-1.63-1.366z"/>
<path stroke="none" d="M392.85 190.39v-3.893l2.27-2.114h9.918l2.27 2.113v3.892l-2.27 1.964h-9.918z" fill="#d99f31"/>
<path stroke="none" d="M405.24 184.85l-.798.814v3.717l-.633.63-7.51-.05-.63-.62v-3.57l-.67-.91z" fill="#f1bf31"/>
<path d="M392.85 190.39v-3.893l2.27-2.114h9.918l2.27 2.113v3.892l-2.27 1.964h-9.918z"/>
<path stroke-width="1.09" d="M393.46 190.23l2.21-.85m10.994.91l-2.226-.913m-9.05 2.728l.9-2.104m8.42 2.11l-.9-2.1m.63-4.34v3.72l-.63.63-7.513-.05-.624-.62v-3.71"/>
<path stroke="none" d="M414.37 189a1.5 1.5 0 0 0-1.366-1.628 1.502 1.502 0 0 0-.26 2.994A1.503 1.503 0 0 0 414.37 189zm3.483 3.322a1.505 1.505 0 0 0-2.996-.26 1.51 1.51 0 0 0 1.368 1.63 1.507 1.507 0 0 0 1.628-1.37zm3.554-2.668a1.502 1.502 0 0 0-1.366-1.627c-.82-.074-1.4.54-1.47 1.366-.07.828.39 1.557 1.22 1.63.83.07 1.56-.54 1.63-1.37zm-3.03-3.322z" fill="#f1bf31"/>
<path stroke="none" d="M414.28 189.4a1.505 1.505 0 0 0-2.818 0 1.504 1.504 0 0 0 2.818 0zm1.19-2.668a1.504 1.504 0 0 0 2.816 0 1.504 1.504 0 0 0-2.817 0zm3.16 3.35c.16.513.562.894 1.15.946a1.503 1.503 0 0 0 1.537-.975 1.503 1.503 0 0 0-1.277-.97c-.698-.062-1.22.367-1.41 1zm-3.686 2.64a1.504 1.504 0 0 0 2.82.002 1.505 1.505 0 0 0-2.82-.003z" fill="#d99f31"/>
<path stroke-width=".933" d="M414.37 189a1.5 1.5 0 0 0-1.366-1.628 1.502 1.502 0 0 0-.26 2.994A1.503 1.503 0 0 0 414.37 189zm3.483 3.322a1.505 1.505 0 0 0-2.996-.26 1.51 1.51 0 0 0 1.368 1.63 1.507 1.507 0 0 0 1.628-1.37zm3.554-2.668a1.502 1.502 0 0 0-1.366-1.627c-.82-.074-1.4.54-1.47 1.366-.07.828.39 1.557 1.22 1.63.83.07 1.56-.54 1.63-1.37zm-3.03-3.322z"/>
<path d="M424.7 192.85l.598-3.583 2.413-1.217s2.6.704 4.21 1.28c1.68.593 4.21 1.73 4.21 1.73l.61 1.053-.75 4.053-1.35 1.203-9.02-2.71-.9-1.82z" fill="#d99f31"/>
<path stroke="none" d="M434.64 195.44l-7.223-2.287-.453-.748.627-3.752.26-.257 8.03 2.944-.61 3.402z" fill="#f1bf31"/>
<path stroke-width="1.09" d="M434.64 195.44l-7.223-2.287-.453-.748.476-3m-1.884 4.95l1.86-1.2"/>
<path stroke-width=".719" d="M438.4 197.42c.337-1.906 1.985-3.44 3.253-3.217 1.27.223 3.076 2.123 2.742 4.027-.337 1.905-2.72 3.29-3.99 3.07-1.27-.226-2.34-1.976-2.005-3.88z" fill="#d99f31"/>
<path stroke="none" d="M439.95 196.63c0-.59.214-1.13.568-1.548.274-.172.568-.266.863-.266.08 0 .16.007.24.02 1.1.194 2.36 1.687 2.07 3.338-.03.182-.08.36-.14.53a2.394 2.394 0 0 1-3.59-2.074z" fill="#f1bf31"/>
<path d="M439.11 197.47c.29-1.65 1.42-2.828 2.517-2.635 1.1.193 2.363 1.688 2.072 3.337-.3 1.648-2.06 2.848-3.16 2.655-1.1-.193-1.73-1.71-1.44-3.357z"/>
<path stroke-width=".833" d="M424.28 192.88l.652-3.893 2.562-1.27s2.777.755 4.508 1.37c1.79.635 4.508 1.844 4.508 1.844l.645 1.13-.805 4.35-1.45 1.29-9.66-2.9-.96-1.92zm-31.907-6.532l2.397-2.242h10.625l2.395 2.242.004 4.21-2.4 2.083H394.77l-2.397-2.08v-4.21zm-16.55 6.532l-.652-3.893-2.56-1.27s-2.77.755-4.51 1.37c-1.79.635-4.5 1.844-4.5 1.844l-.64 1.13.81 4.35 1.45 1.29 9.66-2.9.96-1.92z"/>
</g>
<g stroke-linejoin="round" stroke-linecap="round">
<path stroke-width=".952" d="M408.13 95.85c1.776 0 3.07 1.584 3.07 3.364.003 1.78-1.293 3.524-3.07 3.524-2.32 0-5.685-2.744-5.57-.56l.055 1.103 1.23 10.15c3.023.68-10.553.68-7.532 0l1.235-10.19.054-1.06c.112-2.18-3.34.56-5.57.56-1.777 0-3.07-1.74-3.07-3.52s1.293-3.36 3.07-3.36c1.75 0 3.684 1.63 4.923.87 1.95-1.2-.397-3.9-.397-5.73 0-1.77 1.745-3.22 3.524-3.22 1.778 0 3.524 1.45 3.524 3.23 0 1.82-2.363 4.45-.395 5.73 1.18.77 3.11-.86 4.92-.86z" fill="#d99f31"/>
<path stroke="none" d="M397.49 91.508a2.576 2.576 0 0 1-.462-.81c.378-1.32 1.66-2.37 3.053-2.37.61 0 1.2.202 1.7.54-.1.36-.91.434-1.68 1.077-1.1.92-1.69 2.66-2.61 1.563zm.505 5.096c.142.198.22.41.22.63 0 1.1-1.9 1.99-4.245 1.99-1.964 0-3.616-.626-4.1-1.476a3.25 3.25 0 0 1 2.692-1.473c1.636 0 3.874 1.393 5.033.68.17-.106.3-.223.4-.35zm3.268.167c0-.51.243-.99.666-1.4-.11.63.02 1.19.63 1.59 1.09.72 3.33-.68 5.03-.68a3.26 3.26 0 0 1 2.66 1.43c-.65 1.04-2.36 1.79-4.36 1.79-2.57 0-4.64-1.21-4.64-2.72z" fill="#f1bf31"/>
<path d="M407.6 96.276c1.66 0 3.158 1.355 3.158 3.016 0 1.66-1.5 3.015-3.158 3.015s-5.737-2.902-5.64-.69l.055 1.182.697 9.78c2.824.63-8.083.63-5.26 0l.7-9.83.05-1.14c.098-2.21-4.104.69-5.634.69-1.66 0-3.16-1.36-3.16-3.02s1.5-3.02 3.16-3.02c1.634 0 3.874 1.39 5.032.68 1.822-1.13-.683-3.77-.683-5.47 0-1.66 1.506-3.16 3.166-3.16 1.662 0 3.167 1.5 3.167 3.15 0 1.7-2.516 4.27-.68 5.47 1.096.71 3.338-.68 5.03-.68z"/>
<circle cx="400" cy="116.29" stroke-width="1.703" r="7.901" fill="#f1f1f2"/>
<path stroke="none" d="M401.46 121.28c.53-.663 1.115-1.504 1.358-2.288.18-.573.775-.304.646.184-.226.854-.746 1.747-1.254 2.45zm-8.695-4.654c.137-.115.292-.26.477-.408.183-.148.398-.305.654-.45.334-.225.102-.744-.305-.547-.42.21-.78.43-1.01.59zm-.05 1.172l.41.735c.578-.61 1.544-1.5 1.697-1.642.357-.33-.106-.72-.41-.51a13.5 13.5 0 0 0-1.22.97 30.44 30.44 0 0 0-.478.45zm.597 1.763l.513.6c1.213-.94 2.29-2.08 2.465-2.27.343-.37-.054-.87-.46-.5-.194.21-1.767 1.61-2.507 2.18l-.01.01zm10.783 1.34c.382-.43.797-1.03.934-1.73.05-.24.22-.36.4-.33.17.04.29.22.25.45-.14.85-.58 1.56-1 2.04zm-6.057.77c1.108-1.26 1.915-2.35 2.644-3.56.11-.18.31-.23.456-.15.156.08.23.26.122.48a15.154 15.154 0 0 1-1.618 2.59c-.547.69-.952 1.17-.952 1.17zm-2.24-1.37c.74-.68 1.59-1.55 2.058-2.12.278-.34.882-.07.537.44a12.724 12.724 0 0 1-1.758 2.05z" fill="#000"/>
<path d="M406.14 133.63h-6.057l-6.033-.002c-1.024 1.73-4.257 2.903-6.903 1.522-1.878-.982-2.263-3.212-2.263-3.212s5.062.185 5.09-4.294c0-4.54 2.607-7.504 6.355-7.055 1.63.19 2.74 1.02 3.75 1.93 1.01-.92 2.12-1.75 3.76-1.94 3.74-.45 6.35 2.51 6.35 7.02s5.09 4.33 5.09 4.33-.39 2.22-2.27 3.2c-2.66 1.38-5.91.19-6.88-1.52z" fill="#d99f31"/>
<path stroke="none" d="M406.14 133.62h-.418c-1.12 1.04-2.884 2.095-5.64 2.705-2.76-.61-4.52-1.665-5.642-2.705h-.395s-4.24 3.006-7.213.752c-1.1-.83-1.33-1.977-1.33-1.977s5.088-.278 5.088-4.795c0-4.503 2.444-6.4 5.733-6.4 1.437 0 2.744.71 3.758 1.63 1.02-.92 2.33-1.63 3.76-1.63 3.29 0 5.74 1.897 5.74 6.4 0 4.517 5.09 4.795 5.09 4.795s-.23 1.146-1.33 1.977c-2.97 2.254-7.19-.752-7.19-.752z" fill="#d99f31"/>
<path stroke="#f1bf31" stroke-width=".904" d="M391.16 125.04c-.265.64.156 2.864.156 2.864s.138 2.02-1.45 3.556c-1.11 1.073-3.647 1.54-3.647 1.54m22.77-7.96c.26.64-.16 2.864-.16 2.864s-.14 2.02 1.45 3.556c1.11 1.073 3.64 1.54 3.64 1.54"/>
<path stroke="none" d="M399.98 135.87c-6.296-1.43-7.112-5.33-6.937-5.286.413.102 1.866 2.946 7.034 4.383 5.168-1.437 6.62-4.28 7.035-4.383.174-.044-.642 3.856-6.937 5.286h-.195zm-7.736-11.12c0-1.525 2.527-2.803 5.935-3.153a6.773 6.773 0 0 1 1.89 1.24 6.72 6.72 0 0 1 1.89-1.238c3.4.35 5.92 1.62 5.92 3.15 0 3.61-4.13 5.35-7.83 5.35s-7.82-1.75-7.82-5.36z" fill="#f1bf31"/>
<path d="M406.14 133.62h-.418c-1.12 1.04-2.884 2.095-5.64 2.705-2.76-.61-4.52-1.665-5.642-2.705h-.395s-4.24 3.006-7.213.752c-1.1-.83-1.33-1.977-1.33-1.977s5.088-.278 5.088-4.795c0-4.503 2.444-6.4 5.733-6.4 1.437 0 2.744.71 3.758 1.63 1.02-.92 2.33-1.63 3.76-1.63 3.29 0 5.74 1.897 5.74 6.4 0 4.517 5.09 4.795 5.09 4.795s-.23 1.146-1.33 1.977c-2.97 2.254-7.19-.752-7.19-.752z"/>
<path d="M407.62 130.62s-.752 5.052-7.545 6.555c-6.796-1.503-7.548-6.555-7.548-6.555s.752 4.208 7.548 5.712c6.793-1.504 7.545-5.712 7.545-5.712z" fill="#000"/>
</g>
</g>
<g stroke-linejoin="round" stroke-width=".933" stroke-linecap="round">
<path d="M398.79 227.49c13.54-.237 71.818-10.008 71.818 70.925 0 77.306-70.56 108.05-70.56 108.05s-70.563-29.78-70.563-113.91c0-75.068 69.306-65.06 69.306-65.06z" fill="#a0cfeb"/>
<path d="M421.68 348.39a28.545 28.545 0 0 1 13.953-3.62c8.237 0 15.66 3.475 20.89 9.037-20.587 37.015-56.474 52.66-56.474 52.66s-34.96-14.756-55.67-52.832c5.22-5.46 12.57-8.864 20.73-8.864a28.53 28.53 0 0 1 15.42 4.5c5.23-5.62 12.7-9.14 21-9.14 7.85 0 14.96 3.16 20.14 8.27z" fill="#94bb79"/>
<path d="M433.97 345.16c3.554.41 9.773 3.758 12.78 8.27-2.336 3.86-6.823 9.993-9.3 13.374-5.496-8.067-16.882-18.868-16.093-18.087.114.11.592-.278.73-.355 1.097-.612 2.12-1.167 3.122-1.64a28.482 28.482 0 0 1 6.35-1.67 16.17 16.17 0 0 1 2.4.108zm-24.18 50.77a123.403 123.403 0 0 1-9.738 4.63 122.487 122.487 0 0 1-9.738-4.63c-8.708-7.05-26.64-23.508-39.267-47.43a28.09 28.09 0 0 1 13.762-3.58c.4 0 2.1.495 3.34 1.078 7.93 3.73 17.75 14.435 14.14 16.482-2.66 1.5-10.26-.96-10.66 1.98-.15 1.112 14.09 8.938 22.19 15.83 6.63 5.648 17 14.795 15.96 15.64zm17.297-7.032c-9.063-8.896-29.447-26.996-46.503-39.676 4.727-5.062 11.265-8.407 18.583-9.007l.384.052c9.85 1.41 18.76 11.963 15.14 14.01-2.65 1.5-10.25-.96-10.65 1.98-.13.98 10.19 7.22 16.24 12.418 5.94 5.102 9.82 8.767 14.22 13.576a136.38 136.38 0 0 1-7.4 6.65z" fill="#658d5c"/>
<path d="M422.07 347.94c1.886 1.78 2.708 3.262 2.714 3.272.18.3-.02.992-.563.486 0 0-.75-.715-2.95-2.86-2.96-2.893-8.09-6.55-12.34-7.264-.4-.07-.58-.27-.53-.565.05-.3.31-.58.71-.52.08.01 6.35 1.19 12.96 7.44zm-34.874 5.554c.195.175.247.416.14.595-.115.18-.356.22-.56.08-3.586-2.55-5.335-3.62-7.414-4.92-.164-.11-.273-.28-.15-.46.08-.12.25-.2.41-.25.325-.1.817-.11 1.133.09 2.106 1.32 3.52 2.46 6.44 4.86z"/>
<path stroke="#000" stroke-width="1.244" d="M421.68 348.39c4.13-2.305 8.89-4.084 13.953-4.084 8.277 0 15.733 3.636 20.966 9.366m-112.31-.225c5.22-5.683 12.62-9.295 20.82-9.295 5.68 0 10.97 2.27 15.42 5.118 5.23-5.63 12.7-9.767 21-9.767 7.85 0 14.96 3.775 20.14 8.887" fill="none"/>
<path stroke="#4c819a" stroke-width=".777" d="M367.91 230.52h66.967m-75.914 3.712h84.12m-90.252 3.713h95.8m-100.44 3.715h104.63m-108.33 3.712h111.65m-114.66 3.712h117.37m-119.86 3.713h122.1m-124.17 3.712h126.05m-127.76 3.71h129.33m-130.75 3.71h132.08m-133.25 3.71h134.36m-135.3 3.71H467.9m-50.247 3.71h51.006m-137.73 0h51.35m51.98 3.71h35m-138.92 0h35.44m74.93 3.71h29.01m-139.82 0h29.23m87.87 3.71h23.08m-140.46 0h22.99m100.6 3.71h17.11m-140.86 0h17.1m111.11 3.71h12.8m-141.03 0h13.03m119.3 3.71h8.77m-141.03 0H338" fill="none"/>
<g fill="none">
<path d="M356.66 300.4l-.017-7.225 7.75-3.024 7.75 2.1.015 8.16z" fill="#000"/>
<path d="M373.24 333.22l3.394 13.948a28.586 28.586 0 0 0-11.516-2.406l-.728-57.564 3.098.89v6.053l3.875 1v-5.99l5.27 1.39v9.84l-3.393 5.04v27.81z" fill="#fff"/>
<path d="M364.39 332.15v-44.943l-3.1 1.355v5.966l-3.875 1.544v-5.99l-5.27 2.237v9.53l3.788 4.54.09 27.39-3.877 14.08a28.528 28.528 0 0 1 12.244-3.09v-12.63z" fill="#bdbfc1"/>
<path stroke="#000" stroke-width="1.09" d="M364.25 332.04l-8.23 1.744m-1.74 8.67l10.048-2.124 10.864 1.168m-11.225-5.225l-8.868 1.807m17.65-24.683l-8.37-1.736-8.49 2.59m16.84 3.1l-8.37-1.59-8.49 2.45m0-7.85l8.48-2.74 8.36 1.77M355.9 322.1l8.482-2.263 8.364 1.488m-16.77 4.664l8.403-2.08 8.44 1.38m-16.85 4.6l8.4-1.89 8.52 1.27m-3.1-24.41v3.83m-3.1-.59v3.91m3.1.83v3.91m-7.91-4.29v3.91m0 4.11v3.91m-3.72 1.36v3.6m0-19.42v3.6m3.72-9.11v3.91m2.49-10.99l12.23 2.98m-12.23-2.98l-12.26 4.44"/>
<path stroke="#000" stroke-width="1.244" d="M364.39 344.78v-57.572"/>
<path d="M370.59 334.68l-3.723-.513.004-11.78c0-1.45.89-2.337 1.68-2.337 1.41 0 2.05 1.584 2.05 2.957z" fill="#000"/>
<path stroke="#000" d="M373.24 333.22l3.394 13.948a28.586 28.586 0 0 0-11.516-2.406 28.536 28.536 0 0 0-12.972 3.098l3.874-14.08-.09-27.392-3.783-4.544v-9.532l5.268-2.237v5.988l3.875-1.544v-5.97l3.1-1.36 3.098.89v6.05l3.875.99v-6l5.27 1.39v9.84l-3.393 5.04v27.81zm3.1 13.42c-3.41-1.41-7.302-2.186-11.22-2.186-4.472 0-8.863 1.01-12.647 2.822l3.848-13.413-.07-27.478a.976.976 0 0 0-.07-.197l-3.71-4.456v-9.215l4.65-1.975v5.52c0 .254.19.383.43.288l3.88-1.543c.08-.03.19-.2.19-.287v-5.764l2.82-1.23 2.77.797v5.818c0 .11.13.28.24.3l3.88 1c.22.06.39-.07.39-.3v-5.59l4.65 1.23v9.51l-3.34 4.96a1.03 1.03 0 0 0-.05.18v27.81l3.41 13.42zm1.215.455c.075.31-.756.02-1.046-.108a28.264 28.264 0 0 0-11.39-2.38 28.25 28.25 0 0 0-12.84 3.063c-.3.152-1.15.43-1.06.106l4.48-14.038-.09-27.24-3.72-4.457a.93.93 0 0 1-.07-.19v-9.53c0-.08.11-.25.18-.28l5.27-2.24c.24-.1.43.03.43.29v5.53l3.25-1.29v-5.75c0-.08.11-.25.18-.28l3.1-1.35a.92.92 0 0 1 .21-.01l3.1.89c.1.03.22.19.22.3v5.82l3.25.83v-5.59c0-.22.17-.35.39-.3l5.27 1.39c.1.03.23.19.23.3v9.84a.95.95 0 0 1-.05.17l-3.35 4.96v27.68l4 13.92zm-13.148-43.577l8.364 1.89m-8.36-1.89l-8.47 2.87"/>
</g>
<g fill="none">
<path d="M391.53 294.98l-.017-7.383 7.75-2.79 7.748 2.403.02 7.77z" fill="#000"/>
<path d="M408.11 328.11l3.395 13.79a28.578 28.578 0 0 0-9.964-1.78c-.81 0-1.61.033-2.41.1l.14-58.44 3.1 1.046v6.05l3.88 1.076v-5.916l5.27 1.695v9.81l-3.39 4.84v27.74z" fill="#fff"/>
<path d="M399.26 340.19v-58.41l-3.098 1.2v6.046l-3.877 1.385v-5.98l-5.27 2.08v9.64l3.787 4.64.09 27.58-3.877 15.7a28.483 28.483 0 0 1 12.245-3.85v-.02z" fill="#bdbfc1"/>
<path stroke="#000" stroke-width="1.09" d="M398.8 330.83l-8.575 1.647m19.482 3.87l-10.502-1.32-10.357 1.97m4.224-21.012v3.757m3.72 3.4v3.915m0-28.17v3.915m-3.72 1.433v3.757m3.72-1.008v3.913m7.904-3.315v3.913m-3.1-8.656v3.91m3.1-7.09v3.83m-13.828 20.88l8.405-1.82 8.52 1.58m-17.002-7.64l8.49-2.11 8.37 1.8m-16.84-3.58l8.49-2.3 8.37 1.91m-16.85-3.57l8.49-2.44 8.37 2.05m-16.85-3.58l8.49-2.54 8.37 2.15m.08 15.86l-8.44-1.69-8.4 2m8.39 6.17l-8.37 1.71m20.62-32.82l-12.24-3.56-12.24 4.16m20.62 4.21l-8.36-2.26-8.47 2.67"/>
<path stroke="#000" stroke-width="1.244" d="M399.26 340.19v-58.412"/>
<path d="M405.46 329.41l-3.722-.59.004-11.78c0-1.45.88-2.258 1.675-2.258 1.404 0 2.043 1.582 2.043 2.27z" fill="#000"/>
<path stroke="#000" d="M411.22 341.41c-2.983-1.038-6.343-1.603-9.68-1.603-5.097 0-10.042 1.317-14.205 3.627l3.856-15-.07-27.655a.942.942 0 0 0-.07-.2l-3.71-4.55v-9.32l4.65-1.84v5.53c0 .24.18.37.42.29l3.88-1.39c.09-.03.21-.2.21-.29v-5.83l2.8-1.09 2.78.94v5.83c0 .1.13.27.23.3l3.88 1.07c.22.06.4-.07.4-.3v-5.49l4.65 1.49v9.48l-3.34 4.75a1.426 1.426 0 0 0-.05.18v27.74l3.42 13.3zm1.206.41c.073.298-.743.008-1.03-.1a28.304 28.304 0 0 0-9.856-1.757 28.23 28.23 0 0 0-14.366 3.9c-.294.176-1.16.458-1.077.124l4.485-15.666-.09-27.43-3.715-4.55a.906.906 0 0 1-.07-.19v-9.64c0-.08.114-.25.197-.29l5.268-2.08c.236-.09.423.04.423.29v5.55l3.256-1.16V283c0-.09.12-.26.2-.29l3.1-1.203c.02-.01.19-.01.21-.004l3.1 1.047c.09.03.21.192.21.29v5.82l3.26.9v-5.51c0-.238.18-.37.41-.296l5.27 1.693c.1.03.22.194.22.293v9.81c0 .02-.04.166-.05.18l-3.33 4.755v27.6l4.01 13.75zm-4.315-13.712l3.4 13.79a28.578 28.578 0 0 0-9.96-1.78 28.53 28.53 0 0 0-14.52 3.945l3.88-15.703-.09-27.58-3.78-4.637v-9.64l5.27-2.08v5.987l3.88-1.39v-6.043l3.1-1.2 3.1 1.046v6.05l3.88 1.077v-5.916l5.27 1.694v9.81l-3.39 4.836v27.734z"/>
</g>
<g fill="none">
<path d="M426.4 300.55l-.015-8.156 7.75-2.17 7.747 2.556.017 7.77z" fill="#000"/>
<path d="M442.98 333.53l3.394 13.313a28.586 28.586 0 0 0-10.74-2.08c-.547 0-1.09.015-1.63.045l.127-57.61 3.1 1.044v6.053l3.88 1.308v-5.918l5.27 1.774v9.68l-3.39 4.8v27.58z" fill="#fff"/>
<path d="M434.13 332.15v-44.944l-3.098.968v6.044l-3.876 1.154v-5.987l-5.27 1.696v9.77l3.785 4.85.1 27.55-3.87 15.03a28.507 28.507 0 0 1 12.25-3.46v-12.66z" fill="#bdbfc1"/>
<path stroke="#000" stroke-width="1.09" d="M423.57 342l10.506-1.63 10.695 1.408m-11.09-5.557l-8.85 1.36m6.82-33.42v3.92m-3.72 1.28v3.76m0 12.14V329m3.72-8.65v3.915m0-12.014v3.92m7.91-3.08V317m-3.1-8.734v3.915m3.1-7.01V309m-13.82 20.42l8.41-1.427 8.52 1.582m-17-11.998l8.48-1.83 8.37 1.986m0 3.968l-8.36-1.87-8.48 1.72m16.85-7.76l-8.36-2.12-8.48 1.97m16.85-3.81l-8.36-2.23-8.48 2.08m16.86-3.7l-8.36-2.43-8.47 2.17m-3.78-4.85l12.26-3.44 12.23 3.75m-12.23 30.89l-8.38 1.36m-.03-7.88l8.41-1.61 8.44 1.77"/>
<path stroke="#000" stroke-width="1.244" d="M434.13 344.81v-57.603"/>
<path d="M440.33 334.91l-3.723-.59.002-11.78c0-1.452.88-2.26 1.67-2.26 1.4 0 2.04 1.585 2.04 2.27z" fill="#000"/>
<path stroke="#000" d="M446.08 346.34c-3.198-1.215-6.82-1.88-10.444-1.88-4.784 0-9.452 1.16-13.427 3.21l3.85-14.35-.08-27.623a.864.864 0 0 0-.07-.19l-3.72-4.768v-9.44l4.65-1.5v5.56c0 .23.17.36.4.29l3.87-1.16c.1-.03.22-.19.22-.3v-5.81l2.79-.87 2.79.94v5.83c0 .09.11.26.21.29l3.87 1.31c.23.07.41-.06.41-.3v-5.48l4.65 1.57v9.36l-3.34 4.72a1.423 1.423 0 0 0-.06.18v27.57l3.41 12.8zm-3.1-12.804l3.394 13.313a28.586 28.586 0 0 0-10.74-2.09 28.54 28.54 0 0 0-13.747 3.5l3.874-15.03-.08-27.55-3.78-4.86v-9.76l5.27-1.7v5.99l3.88-1.16v-6.05l3.1-.97 3.1 1.04v6.05l3.88 1.31v-5.92l5.27 1.77v9.69l-3.39 4.81v27.58zm4.314 13.235c.077.31-.746.02-1.036-.1a28.31 28.31 0 0 0-10.622-2.05 28.24 28.24 0 0 0-13.6 3.47c-.298.17-1-.17-.914-.5l4.33-14.37-.088-27.4-3.72-4.76a.89.89 0 0 1-.068-.19v-9.77c0-.1.12-.26.217-.29l5.267-1.69c.23-.07.408.06.408.3v5.57l3.253-.97v-5.81c0-.1.12-.26.22-.3l3.1-.96a.943.943 0 0 1 .19 0l3.1 1.05c.1.03.21.2.21.3v5.83l3.26 1.1v-5.49c0-.24.18-.37.41-.29l5.27 1.78c.09.03.21.2.21.29v9.69c0 .01-.04.16-.05.18l-3.33 4.73v27.44l4.01 13.28z"/>
</g>
<g id="a" stroke="#000">
<path d="M369.42 268.7c-.283-2.57-1.282-6.73-4.716-6.2.175 4.47 5.862 21.29-.637 22.453l-.218-.232c.08-7.63-7.55-15.97-6.07-22.62.98-4.37 4.29-6.74 8.7-6.74 8.04 0 9.15 10 3.28 13.51l-.35-.15z"/>
<path d="M369.85 267.53c-.654-2.87-2.232-6.61-5.845-5.97l-.237.31c.166 4.805 6.19 19.418.457 22-.154-8.368-7.695-13.8-5.76-21.642.538-2.174 2.706-4.875 4.816-5.668.99-.374 2.12-.684 3.19-.663 7.26.15 9.15 7.672 3.38 11.634z" fill="#fff"/>
<path stroke="none" d="M359.57 264.71c.62-1.698 2.653-3.42 4.466-3.635.377-.046.68.292.83.71l-.174-.003c-.208 0-.41.027-.615.075.01.31.036.633.075.966-.85.053-2.326.395-3.83 2.238-.696.86-1.066.51-.752-.35z"/>
<path stroke-width="1.09" d="M360 265.23l4.25-1.736m-3.928 3.27l4.2-1.815m-3.862 3.43l4.2-1.98m-3.392 3.52l3.785-1.96m-2.516 3.38l2.948-1.68m-.822 2.7l1.29-.72"/>
<path stroke="none" d="M369.14 259.59c-2.228-3.283-7.832-1.437-9.277.644-.103.15-.473-.075-.68-.16a.475.475 0 0 1-.078-.037c.388-.645.872-1.297 1.425-1.884 2.714-1.734 7.436-2.083 9.337.982.147.24.04.478-.135.586a.427.427 0 0 1-.592-.13z"/>
</g>
<use y="-5.423" x="35.338" xlink:href="#a"/>
<use x="70.673" xlink:href="#a"/>
<g stroke="#000">
<path d="M446.26 240.53c3.264 2.153 14.81 8.644 16.52 45.635 3.33 72.096-58.017 114.16-58.017 114.16s77.622-33.05 77.622-114.23c0-34.173-13.567-71.19-40.476-71.19l-14.8.045L405.63 225c-1.125-1.568-3.272-2.59-5.35-2.59-2.076 0-4.226 1.022-5.35 2.59l-21.485-10.05-15.255-.046c-26.91 0-40.477 37.018-40.477 71.19 0 81.176 77.62 114.23 77.62 114.23s-61.346-42.065-58.015-114.16c1.71-36.99 13.255-43.48 16.52-45.634l18.13 6.048 22.914-13.41c1.495 1.597 3.04 2.734 5.4 2.73 2.36 0 3.682-.927 5.397-2.73l22.76 13.566z"/>
<path d="M431.45 214.14l-31.172 13.544-31.17-13.544-10.92.768c-26.91 0-40.478 37.018-40.478 71.19 0 81.176 77.62 114.23 77.62 114.23s-62.12-42.065-58.792-114.16c1.71-36.99 13.567-44.41 16.83-46.565l19.977 5.56 26.933-15.922 26.93 15.93 19.513-5.56c3.27 2.16 15.13 9.58 16.84 46.57 3.33 72.1-58.79 114.16-58.79 114.16s77.62-33.05 77.62-114.23c0-34.17-13.56-71.19-40.47-71.19z" fill="#d99f31"/>
<path stroke="none" d="M437.34 228.91c-3.716.438-6.318 2.93-6.45 6.735-.072 2.04.9 5.067 2.302 6.347l-.837.916c-1.655-1.514-2.868-4.887-2.782-7.31.15-4.267 3.146-7.24 7.616-7.764zm-74.51-1.076c4.47.523 7.467 3.497 7.616 7.763.085 2.424-1.128 5.797-2.782 7.31l-.837-.915c1.402-1.28 2.373-4.308 2.302-6.347-.14-3.805-2.74-6.297-6.46-6.735zm-8.734 7.447c-5.4 3.49-10.292 10.1-13.035 16.93-.15.36-.38.47-.62.38-.21-.07-.3-.38-.2-.68 2.59-7.17 7.44-13.66 13.54-18.18l.33 1.57zm7.2-12.85c-13.215 0-23.02 9.31-29.64 26.47-.15.32-.455.57-.783.45-.26-.09-.29-.46-.172-.8 6.63-17.49 16.73-27.2 30.6-27.2 6.04 0 11.23 1.49 15.67 4.75l.24 1.61c-4.46-3.63-9.73-5.27-15.91-5.27zm0 3.57c-11.53 0-20.52 9.72-26.183 24.02-.162.34-.394.52-.71.4-.245-.1-.272-.46-.147-.77 5.377-14.46 14.815-24.72 27.04-24.72 6.132 0 11.387 1.94 15.81 6.2l-.206 1.38c-4.335-4.45-9.53-6.49-15.605-6.49zm13.22 12.59c-2.302-6.87-6.058-9.51-13.38-9.51-9.654 0-17.602 8.78-22.855 22.04-.12.3-.35.48-.64.39-.25-.08-.29-.42-.17-.73 5.12-13.48 13.32-23.08 23.68-23.08 7.69 0 11.79 3.16 14.02 9.85l-.63 1.06zm51.045.1l-.67-.96c2.21-6.8 6.3-10.02 14.01-10.04 12.43.06 21.97 14.06 26.93 32.33.1.36.04.75-.29.81-.31.06-.56-.18-.65-.52-4.97-18.03-14.43-31.17-25.9-31.23-7.38.02-11.11 2.69-13.41 9.61zm43.39 21.77c.11.41.07.76-.29.85-.29.08-.56-.15-.66-.58-4.77-20.38-14.97-34.36-29.18-34.36-6.11 0-11.32 1.53-15.64 5.97l-.2-1.43c4.43-4.27 9.7-5.69 15.84-5.69 15.13 0 25.64 14.93 30.14 35.26zm3.83.54c.08.39-.05.75-.39.81-.31.06-.57-.22-.65-.59-4.69-22.3-15.78-38.72-33.15-38.72-6.1 0-11.33 2.1-15.72 5.76l.17-1.6c4.43-3.41 9.58-5.31 15.56-5.31 18.29 0 29.69 17.3 34.19 39.67zm-31.65-28.22c9.51 1.16 18.06 12.31 21.67 26.99.09.38 0 .75-.32.83-.31.09-.58-.11-.71-.59-4.11-15.82-12.26-24.67-20.76-25.75l.13-1.46z"/>
<path d="M419.35 240.51c-.732-.866-2.93-3.99-2.93-10.27m-.293 8.365c-.684-.916-2.325-3.61-2.325-8.365m-.86 6.482c-.582-.89-1.76-3.114-1.76-6.482m-1.35 4.645c-.4-.798-1.117-2.524-1.117-4.645m-27.504 10.27c.74-.866 2.93-3.99 2.93-10.27m.3 8.365c.69-.916 2.33-3.61 2.33-8.365m.87 6.48c.58-.893 1.76-3.115 1.76-6.48m1.35 4.645c.4-.798 1.12-2.524 1.12-4.645" fill="none"/>
<circle stroke="none" cx="400.28" r="6.199" cy="229.24" fill="#d99f31"/>
<path d="M394.14 227.78c.66-2.803 3.14-4.89 6.146-4.89a6.353 6.353 0 0 1 5.847 3.868m.33 4.062a6.38 6.38 0 0 1-6.177 4.77 6.353 6.353 0 0 1-5.928-4.072m7.562 1.628a4.235 4.235 0 0 1-5.863-3.744m7.872 1.995a4.24 4.24 0 0 1-2.01 1.75m-1.2-1.9a2.057 2.057 0 0 1-2.49-1.798m-2.12-1.24c.12-.56.36-.89.47-1.05" fill="none"/>
<path d="M394.14 227.78c0-2.917 2.558-5.36 6.146-5.36 2.738 0 5.847 1.926 5.847 4.338m.33 4.062c0 2.695-3.214 5.08-6.177 5.08-2.703 0-5.928-1.966-5.928-4.382" fill="none"/>
<path d="M423.34 242.22c3.266 4.33 8.31 7.07 13.965 7.07 7.398 0 13.03-4.596 13.03-11.944-.17-3.893-2.798-8.702-9.017-8.702-4.04 0-7.47 3.896-7.47 7.936 0 2.234.428 3.584 1.8 5.264-5.536-1.78-9.198-4.73-9.198-11.01 0-6.442 4.27-11.056 11.268-11.637 23.385-1.944 37.675 24.015 40.428 59.894 3.924 51.18-23.678 91.98-65.637 115.27-5.86 3.26-10.45 5.86-12.44 6.7l-.03 6.37c15.97-6.1 34.49-17.89 46.04-28.44 21.99-20.09 42.97-54.07 39.79-99.85-2.01-28.9-11.02-48.29-22.07-57.87-18.89-16.38-44.65-9.84-44.65 9.58 0 4.24 1.66 8.23 4.17 11.39zm-46.592 0c-3.266 4.33-8.31 7.07-13.967 7.07-7.39 0-13.02-4.596-13.02-11.944.17-3.893 2.8-8.702 9.02-8.702 4.04 0 7.47 3.896 7.47 7.936 0 2.234-.43 3.584-1.8 5.264 5.54-1.78 9.2-4.73 9.2-11.01 0-6.442-4.27-11.056-11.26-11.637-23.38-1.944-37.67 24.015-40.43 59.894-3.92 51.18 23.68 91.98 65.64 115.27 5.86 3.26 10.45 5.86 12.44 6.7l.03 6.37c-15.97-6.1-34.49-17.89-46.04-28.44-21.99-20.09-42.97-54.07-39.79-99.85 2.01-28.9 11.01-48.29 22.06-57.87 18.89-16.38 44.65-9.84 44.65 9.58 0 4.24-1.66 8.23-4.17 11.39z"/>
<path d="M400.05 406.96c-15.975-6.107-34.496-18.668-46.046-29.218-21.992-20.09-41.578-53.303-38.395-99.078 2.01-28.905 10.55-47.207 21.59-56.785 18.89-16.38 43.26-8.93 43.26 8.95 0 9.84-7.99 17.84-17.83 17.84-5.96 0-12.26-4.84-11.64-12.1a7.317 7.317 0 0 1 14.62.32c0 2.23-1.47 4.38-3.04 5.73 6.22-.23 11.68-5.51 11.68-11.79 0-6.44-4.89-11.83-11.89-12.41-23.39-1.95-38.5 24.63-41.05 60.67-3.63 51.2 24.29 92.59 66.25 115.89 5.88 3.26 10.49 5.25 12.46 6.08 1.97-.83 6.58-2.82 12.46-6.09 41.96-23.29 69.88-64.69 66.25-115.89-2.55-36.04-17.66-62.61-41.05-60.67-7 .58-11.89 5.97-11.89 12.41 0 6.28 5.45 11.56 11.67 11.78-1.57-1.34-3.04-3.5-3.04-5.73a7.32 7.32 0 0 1 14.63-.32c.62 7.26-5.67 12.1-11.63 12.1-9.85 0-17.83-8-17.83-17.84 0-17.88 24.36-25.34 43.26-8.96 11.05 9.58 19.59 27.88 21.6 56.78 3.18 45.78-16.4 78.99-38.4 99.08-11.55 10.55-30.07 23.11-46.05 29.22z" fill="#f1bf31"/>
</g>
</g>
<g stroke-linejoin="round" stroke="#000" stroke-linecap="round" stroke-width=".933">
<path d="M302.44 357.77s-3.285-1.326-4.74-2.053c-2.524-1.263-8.214-8.266-14.573-11.955-9.758-5.663-19.204-4.203-27.833-7.91 1.933 9.037 8.02 17.2 18.1 21.522 8.282 3.552 21.642.498 23.096.62 1.454.122 6.07 1.903 6.07 1.903l-.12-2.127zm-35.22 11.27l.087-.264c5.338-.726 10.338-1.936 15.53-3.253 11.506-2.915 16.895-.548 26.22 5.833.583.4 1.274.956 1.943 1.208 1.51.57 2.48.172 3.94.172l.134.027 2.186 1.71c.166.13.066.243-.09.277-1.905.392-4.505.386-6.498.206-3.006-.274-9.194 6.85-18.002 6.85-11.16 0-18.494-4.938-25.45-12.766z"/>
<path d="M316.3 374.32c-1.742.062-3.6.062-5.318.35-5.132.865-10.214 6.456-18.018 6.68-10.385.3-16.943-4.592-24.04-11.573 10.327-1.553 18.31-7.516 28.966-4.163 5.463 1.72 11.885 8.6 17.014 7.614l1.397 1.092z" fill="#658d5c"/>
<path stroke-width=".45" d="M309.88 372.95s-9.11 1.497-14.785 1.512c-9.165.02-23.193-3.8-23.193-3.8s13.986 4.232 23.193 4.418c5.662.115 14.785-1.2 14.785-1.2v-.93z"/>
<path stroke-width=".777" d="M284.54 262.68c.075-.287.02-.634-.16-1.063-.183-.445-.465-.918-.764-1.42-.31-.526-.642-1.078-.903-1.653-.264-.586-.467-1.213-.51-1.867l1.417-.405c.102.794.58 1.813 1.12 2.614.268.4.54.727.77.935.116.11.21.17.27.2.034.02.428.45.428.45l-1.172 2.62c-.087.2-.604.02-.496-.4z" fill="none"/>
<path stroke-width=".777" d="M338.06 388.95c-.046-1.9.33-1.192 2.377-.357.436.176.115.604-.26.837-1.222.764-2.302 2.383-2.82 2.02-1.41-.985-.522-1.02.703-2.5z"/>
<path d="M289.16 254.94c-6.025 15.32-8.06 42.444-5.975 54.76 6.407 37.868 37.596 73.37 66.146 79.107 24.84 4.99 39.97 16.116 49.86 27.982 6.46 7.75 9.91 11.27 19.19 26.72 3.39 5.64-2.41 6.78-4.8 2.1-6.53-12.77-10.04-18.44-19.04-28.48-9.66-10.78-23.86-20.45-47.06-25.08-27.65-5.52-60.05-41.09-66.45-78.95-2.08-12.32-.26-41.73 6.07-57.28l2.08-.9"/>
<path d="M330.29 387.33c-4.302.472-7.21 6.718-11.528 10.648-7.948 7.234-20.685 7.957-28.805 3.125-.34-.204-.513-.656-.128-.745 10.09-2.29 11.41-16.07 32.46-14.713 2.46.16 3.51.664 5.98.664l2.01 1.02zm-15.98-64.06l.14.068c.106 6.155 4.773 14.55 5.917 21.318.987 5.83-.436 10.703-2.67 16.134-.56 1.353-1.87 4.074-1.92 5.407-.048 1.24.73 2.39 1.388 3.417.23.362 1.624 2.19 1.48 2.546-5.576-4.83-2.296-1.682-4.617-6.134-1.196-2.296-2.622-4.38-3.808-6.693-6.26-12.21-6.376-26.064 4.09-36.064zm40.25 66.7c-2.74-.885-5.528-1.976-7.03-4.78-2.526-4.705-1.985-8.508-4.575-13.377-4.912-9.238-14.37-10.232-19.143-18.795-.968 7.88-2.024 19.652 10.242 28.072 4.32 2.963 10.905 3.643 12.49 4.833 1.59 1.19 2.545 2.89 2.545 2.89l5.47 1.157z"/>
<path d="M349.24 388.53c-.9-.96-1.912-1.925-2.982-2.7-2.503-1.81-7.924-1.98-12.018-4.98-5.716-4.192-8.678-8.09-10.267-14.997-.963-4.19-.222-7.54-.025-11.023 5.15 7.48 14.094 8.183 18.88 17.13 2.91 5.436 2.523 13.704 8.484 17.01l-2.072-.44z" fill="#658d5c"/>
<path stroke-width=".777" d="M300.36 347.4s-.34.41-.82 1.778c-.214.614 1.133 2.464 1.023 1.822-.274-1.57.5-2.674.5-2.674l-.703-.926z"/>
<path d="M302.44 357.77s-3.285-.707-4.74-1.432c-2.524-1.265-8.113-8.596-14.573-12.265-9.26-5.26-17.327-4.16-26.438-6.824 2.58 9.72 7.52 15.53 16.7 19.65 8.22 3.69 21.64.5 23.09.62 1.45.12 6.07 2.06 6.07 2.06l-.12-1.82z" fill="#658d5c"/>
<path d="M315.48 368.91c-.406-2.893-3.694-7.056-5.07-9.748-2.016-3.948-3.53-8.256-3.98-12.683-.972-9.54 1.216-14.69 7.493-21.75.046 2.07.324 2.79.95 4.72 2.626 8.09 6.303 14.78 5.11 23.57-.586 4.33-4.123 10.5-4.284 13.14-.09 1.37.69 2.98 1.37 4.13l-1.6-1.4z" fill="#466343"/>
<path d="M291.92 343.12c-6.736-11.197-22.534-6.18-32.887-15.58-5.024-4.563-7.27-11.432-8.272-17.965-.29-1.945-1.12-9.657-.67-11.154.09-.27.37-.34.58-.13 3.43 3.36 6.88 5.53 10.85 8.22 9.44 6.39 13.32 12.39 18.18 22.35 6.37 13.05 12.15 5.61 12.23 14.27z"/>
<path stroke-width=".45" d="M312.93 328.1s-2.138 11.202-1.815 18.407c.333 7.36 3.597 18.55 3.597 18.55h-.622s-3.383-11.183-3.593-18.55c-.208-7.238 2.433-18.407 2.433-18.407z"/>
<path d="M281.96 336.01c-3.63-1.15-7.785-1.85-12.202-2.914-4.14-.997-7.52-3.258-10.677-6.102-4.9-4.42-6.52-10.342-7.47-16.698a48.74 48.74 0 0 1-.44-10.622c.4.695.9 1.382 1.55 1.85 3.22 2.304 6.57 3.91 9.79 6.237 2.82 2.04 4.81 3.38 7.12 5.98 2.92 3.29 5.35 6.85 7.4 10.74 1.62 3.07 3.01 6.66 5.1 9.45z" fill="#658d5c"/>
<path d="M282.12 333.91c1.084 1.445 5.457 3.322 7.047 3.526l1.547 3.858c-2.272-2.66-5.267-4.18-8.748-5.284z" fill="#a48253"/>
<circle cy="304.79" cx="271.96" r="4.417" fill="#d99f31"/>
<path stroke="none" d="M272.47 300.88a4.54 4.54 0 0 0-.36 1.78c0 1.95 1.15 3.532 2.563 3.532a1.99 1.99 0 0 0 1.094-.343 3.96 3.96 0 0 0 .14-1.05 3.95 3.95 0 0 0-3.437-3.92z" fill="#f1bf31"/>
<circle cx="271.96" cy="304.79" stroke-width="1.244" r="4.719" fill="none"/>
<path d="M285.01 302.83s2.062-7.676 4.003-12.426c4.59-11.246 12.552-11.67 16.61-20.574 2.32 6.012 4.176 13.743.12 22.413-4.685 10.016-16.67 15.894-16.67 15.894l-4.063-5.307z"/>
<path d="M305.59 271.85c5.982 16.33-1.916 28.088-16.42 36.197l-3.82-5.28c2.493-10.488 4.283-15.65 12.296-23.104 3.168-2.946 5.944-3.903 7.944-7.813z" fill="#466343"/>
<path d="M288.71 255.67c-5.97 15.695-7.736 41.94-5.68 54.084 6.424 37.957 37.527 73.59 66.234 79.357 24.755 4.98 39.555 16.13 49.75 27.65a125.092 125.092 0 0 1 11.763 15.59c2.72 4.26 5.05 8.91 7.338 12.59.37.6-2.72 1.87-3.046 1.35-2.42-3.91-4.65-8.84-7.43-13.35-3.17-5.13-8.62-10.39-13.36-15.98-10.08-11.9-23.5-20.84-46.76-25.48-27.51-5.49-59.51-40.62-65.9-78.39-2.08-12.27-.55-40.75 4.92-55.78l2.16-1.6z" fill="#a48253"/>
<path d="M285.72 329.93c-1.234-1.182-3.01-2.31-4.194-3.54-11.027-11.445-8.13-31.437 3.963-41.202.41-.33.72-.175.78.31.48 4.03 1.11 7.82 2.72 12.257 3.69 10.134 4.29 15.947.94 24.575-2.05 5.26 0 9.898 0 9.898l-4.23-2.298z"/>
<path stroke-width=".623" d="M324.6 379.21c-7.055-2.412-14.343-1.765-20.21-7.855-6.77-7.024-8.237-17.89-6.468-24.164.087-.3.324-.55.515-.31 1.503 1.84 2.3 3.17 4.277 4.63 7.068 5.22 15.745 7.83 18.74 15.79.598 1.59.796 3.25 1.354 4.85 1.908 5.47 5.04 7.13 9.574 10.11l-7.782-3.03z"/>
<path d="M330.12 382.12c-6.6-5.598-18.497-3.588-25.58-11.18-5.202-5.576-7.394-14.367-6.105-21.99 6.287 5.6 13.597 7.14 19.316 13.43 6.73 7.403 1 12.372 13.67 19.576l-1.3.164z" fill="#658d5c"/>
<path d="M294.86 341.94l.02-.172c1.64-1.954.5-7.823-.037-10.176-.927-4.055-1.042-7.54-.367-11.67.78-4.77 3.39-9.076 6.068-13.025 1.193-1.76 5.07-7.257 5.472-9.248.033-.18.214-.16.29 0 1.477 3.22 2.25 7.14 2.846 10.63.833 4.88 1.094 9.31-.6 14.86-1.516 4.96-3.553 8.18-6.674 11.52-1.32 1.41-4.427 4.52-4.88 6.2-.084.3-.61 2.54-.495 4.18l-1.643-3.12z"/>
<path stroke-width=".948" d="M283.94 277.75s.21.03 1.094-.562c.884-.592 1.956-1.61 2.41-2.884.455-1.27 3.643-11.862 7.9-18.417 4.972-7.66 10.135-11.094 16.397-16.714.99 6.07 1.13 15.96-4 23.898-4.7 7.27-16.61 12.45-17.99 12.99-1.38.54-3.75.94-5.11 2.75-.77 1.02-1.3 3.01-1.3 3.01l.6-4.05z"/>
<path d="M282.44 278.76s-.517-.025-1.186-.967c-.666-.946-1.336-2.403-1.336-3.9 0-3.166 3.002-12.642 1.513-19.816-2.84-13.69-7.14-19.18-7.8-24.262-.26-2.027-11.44 13.83-8.04 28.545 1.69 7.292 10.16 15.444 11.35 16.515 1.19 1.07 2.82 2.46 3.59 4.6.8 2.208.63 4.72.63 4.72l1.29-5.436zm6.56-23.55c.804-1.96 2.132-4.283 3.362-5.31 3.022-2.526 11.49-8.815 14.382-13.4 6.438-10.207 5.14-22.78 4.466-24.968-5.583 4.855-10.678 8.057-16.37 16.092-4.968 7.014-6.054 20.73-6.436 23.33-.42 2.838-1.68 5.905-1.68 5.905l2.276-1.65z"/>
<path stroke-width=".948" d="M284 279.97l.224-1.972c1.532-.586 2.895-2.112 3.514-3.59 2.668-6.385 4.294-12.876 8.04-18.772 4.866-7.654 10.077-10.63 15.336-14.835.245 6.77 1.437 13.89-3.95 22.76-3.06 5.04-11.98 10.02-17.53 12.21-2.484.98-4.26 1.78-5.634 4.21z" fill="#658d5c"/>
<path d="M261.12 266.48c8.51 7.088 10.938 10.403 13.442 21.368.293 1.284 1.923 6.834 2.268 7.518.82 1.632 2.516 2.404 3.56 3.743.115.14.398 3.03.44 3.41.028.23-.15.22-.28.1-1.324-1.21-2.02-3.11-3.564-4.24-1.33-.98-5.82-1.94-7.756-2.73-4.945-2.05-8.98-5.86-11.845-10.34-3.78-5.91-4.208-13.94-3.3-20.71.21-1.56.42-3.43.97-4.9.078-.21.198-.16.3 0 2.018 3.14 3.313 4.71 5.766 6.75z"/>
<path d="M279.99 299.39l.235 2.006c-4.04-5.467-5.392-3.852-10.978-6.165-4.863-2.01-8.81-5.76-11.636-10.15-4.21-6.56-4.14-16.27-2.35-23.67 2.27 4.47 11.13 8.95 14.53 14.52 2.19 3.59 3.55 7.85 4.63 11.89.54 2.02 1.16 6.1 1.99 7.76.62 1.25 2.51 2.92 3.59 3.82zm15.38 42.66c1.508-2.302.187-8.137-.295-10.778-.743-4.087-.797-7.616-.13-11.74 1.088-6.74 5.354-11.257 9.123-16.72.743-1.078 1.484-2.168 2.068-3.342 4.33 12.192 5.545 24.646-3.893 34.886-1.425 1.545-4.85 4.524-5.376 6.4-.282 1.006-.38 2.073-.46 3.112l-1.037-1.818z" fill="#658d5c"/>
<path d="M331.32 385.46s-.534.85-3.04.85l1.243 1.218c.25-.078.507-.145.77-.2 2.397-.493 3.135-.42 4.694.184" fill="#a48253"/>
<path d="M328.28 386.31c-2.506 0-10.344-1.302-16.615.337-9.455 2.47-13.36 11.316-20.466 14.46 10.79 4.648 18.69 3.504 27.68-3.682 3.62-2.895 5.92-8.418 10.64-9.896z" fill="#466343"/>
<path d="M405.4 431s.1-1.378 1.69-1.93a1.763 1.763 0 0 1 2.082.614" fill="none"/>
<path stroke-width=".777" d="M340.48 388.88s-.85.495-1.1.72c-.58.518-1.342.9-1.578 1.324l-.923-.086c.57-.477 1.18-1.293 1.5-1.69.19-.23 0-1.107 0-1.107l2.09.84z" fill="#a48253"/>
<path stroke="none" d="M287.56 255.57c1.697-4.804 1.658-10.15 2.608-15.138 2.002-10.517 4.99-13.936 12.587-20.97 2.42-2.24 4.9-3.87 7.532-5.86.427 3.025.625 5.565.318 8.603-1.495 14.86-7.823 18.367-18.435 27.455-2.058 1.76-2.59 4.227-4.61 5.91z" fill="#658d5c"/>
<path stroke="none" d="M287.96 254.32c.277-.405.543-.638.686-.57.115.054.13.288.062.617-.333.43-.706.84-1.15 1.21.146-.415.28-.834.402-1.257z" fill="#a48253"/>
<path d="M287.56 255.57c1.697-4.804 1.658-10.15 2.608-15.138 2.002-10.517 4.99-13.936 12.587-20.97 2.42-2.24 4.9-3.87 7.532-5.86.427 3.025.625 5.565.318 8.603-1.495 14.86-7.823 18.367-18.435 27.455-2.058 1.76-2.59 4.227-4.61 5.91z" fill="none"/>
<path stroke="none" d="M288.22 256.12s.382-1.165.957-2.652c.575-1.486.428.4.428.4l-.34 1.62-1.045.632z"/>
<path stroke="none" d="M282.06 278.96l-.777 2.493c-.435-3.244-1.802-4.69-4.14-6.806-10.18-9.21-14.53-20.05-10.26-32.725 1.496-4.43 2.935-6.874 6.084-10.33 1.99 3.408 2.953 5.447 4.332 9.145 3.49 9.384 4.88 14.69 3.5 25.44-.49 3.796-2.31 8.42.21 11.796.27.367.61.797 1.05.986z" fill="#658d5c"/>
<path d="M282.06 278.96l-.777 2.493c-.435-3.244-1.802-4.69-4.14-6.806-10.18-9.21-14.53-20.05-10.26-32.725 1.496-4.43 2.935-6.874 6.084-10.33 1.99 3.408 2.953 5.447 4.332 9.145 3.49 9.384 4.88 14.69 3.5 25.44-.49 3.796-2.31 8.42.21 11.796.27.367.61.797 1.05.986z" fill="none"/>
<path stroke="none" d="M281.76 284.47s.246-2.464-.136-3.963c-.19-.746-.684-1.846-.684-1.846s1.225.63 1.506.57c.28-.05-.686 5.24-.686 5.24zm4.16-24.14c-.587.24-2.392-2.304-2.61-4.026-.21-1.636-.88-.953-.8.347.147 2.42 3.037 5.01 2.636 6.55.544-1.32.8-2.27.774-2.86z" fill="#a48253"/>
<path stroke-width=".777" d="M285.92 260.33c-.587.24-2.392-2.304-2.61-4.026-.21-1.636-.88-.953-.8.347.147 2.42 2.727 4.57 2.327 6.1" fill="none"/>
<circle stroke="none" cx="281.44" r="4.416" cy="253.51" fill="#d99f31"/>
<path stroke="none" d="M281.71 253.09c-1.196-.84-1.722-2.155-1.17-2.942.55-.785 1.965-.743 3.163.096 1.198.838 1.72 2.154 1.17 2.94s-1.965.743-3.163-.094z" fill="#f1bf31"/>
<circle cx="281.4" cy="253.64" stroke-width="1.315" r="4.607" fill="none"/>
<circle stroke="none" cx="303.96" r="4.572" cy="344.42" fill="#d99f31"/>
<path stroke="none" d="M303.43 343.97c-.976-1.343-1.01-2.982-.074-3.66.934-.676 2.48-.14 3.457 1.205.973 1.342 1.008 2.98.074 3.66-.934.678-2.48.14-3.457-1.204z" fill="#f1bf31"/>
<circle cx="303.96" cy="344.42" stroke-width="1.4" r="4.805" fill="none"/>
<path d="M406.8 432.55s.05-1.39 1.69-1.778c1.496-.35 2.083.926 2.083.926m7.228 15.614c-2.98.617-4.81-3.133-3.79-4.056.68-.6 2.33-.473 3.54.12 2.17 1.056 1.59 3.662.26 3.936z" fill="none"/>
<path stroke="none" d="M417.8 447.31c-2.482.63-4.43-2.7-3.787-3.436.593-.677 1.85-.712 3.062-.123 2.168 1.06 2.043 3.23.725 3.56z" fill="#a48253"/>
<path d="M417.8 447.31c-2.482.63-4.43-2.7-3.787-3.436.593-.677 1.85-.712 3.062-.123 2.168 1.06 2.043 3.23.725 3.56z" fill="none"/>
<path stroke-width=".45" d="M287.44 256.18c3.143-9.16 4.896-15.598 10.1-24.544 3.54-6.084 10.484-14.694 10.484-14.694s-6.54 8.835-9.93 14.96c-4.795 8.66-5.87 12.387-9.697 23.458l-.957.82zm-14.89-20.36s-1.148 14.387.66 23.294c1.626 8.002 7.273 19.632 7.273 19.632s.316.234-1.318-4.076c-1.68-4.427-3.82-9.323-5.18-15.58-1.93-8.885-1.435-23.27-1.435-23.27zM259.1 273.2s1.904 4.98 3.536 7.955c4.48 8.172 8.326 12.448 15.973 17.773l.22-.688c-7.38-5.234-10.84-9.414-15.58-17.086-1.84-2.977-4.16-7.954-4.16-7.954zm27.38 3.34s9.156-8.454 13.838-15.066c4.138-5.846 9.103-16.21 9.103-16.21s-4.53 10.492-8.55 16.374c-4.51 6.604-13.15 14.902-13.15 14.902h-1.24zm8.97 66.25c1.742-4.197 4.362-9.975 6.318-16.632 2.455-8.353 3.912-12.423 4.193-21.928-.14 9.49-1.15 12.772-3.16 20.678-1.71 6.73-4.05 12.637-5.79 16.83l-1.55 1.052zm-5.21-42.12s6.897-6.03 9.98-11.43c4.06-7.116 4.743-12.828 4.743-12.828s-.066 5.743-4.126 12.858c-3.08 5.4-10.323 12.288-10.323 12.288l-.274-.89zm-7.86 34.21s-5.95-3.77-9.213-6.52c-12.657-10.66-20.587-25.03-20.587-25.03s7.247 15.173 20.12 25.652c3.424 2.784 9.68 6.673 9.68 6.673v-.775z"/>
<path d="M283.2 336.41s-1.14-.487-.546-1.572" fill="none"/>
<path stroke-width=".45" d="M328.64 380c-5.585-3.51-13.444-8.74-20.527-16.016-2.425-2.492-5.915-6.67-5.915-6.67s2.832 4.42 5.14 6.825c6.315 6.57 14.988 12.73 20.573 16.25l.73-.39zm19.33 6.7s-10.506-7.537-15.232-14.114c-2.57-3.576-3.82-5.785-5.56-9.832 2.09 4.055 3.506 6.254 6.336 9.832 4.732 5.985 14.456 13.184 14.456 13.184v.93zm-52.02 13.51c15.448-2.147 21.456-11.173 34.614-13.222-1.387.073-1.133-.47-2.394-.206-11.603 2.448-18.697 11.225-32.22 13.428z"/>
<circle stroke="none" cx="314.8" r="4.572" cy="382.21" fill="#d99f31"/>
<path stroke="none" d="M319.29 381.34c-.04.148-.1.292-.178.428-.67 1.16-2.506 1.353-4.1.434-1.593-.92-2.343-2.606-1.672-3.767.19-.33.477-.583.825-.753a4.573 4.573 0 0 1 5.125 3.658z" fill="#f1bf31"/>
<circle cx="314.8" cy="382.21" stroke-width="1.399" r="4.805" fill="none"/>
<path stroke="none" d="M330.8 384.33s.43.243.693.542c.266.3.364.656.18.884 0 0 .107.262.45.51.458.335 1.062.31 1.73.413.848.13 1.444.25 2.046.43.6.17 1.36.49 1.36.49l-3.43-1.71-3.04-1.56z" fill="#a48253"/>
<path stroke-width=".45" d="M297.76 357.55s-8.527-2.236-19.42-6.3c-10.896-4.07-18.238-10.873-18.238-10.873s7.342 6.183 18.237 10.25c10.89 4.068 19.42 5.993 19.42 5.993v.93z"/>
<circle cx="334.69" cy="394.97" stroke-width="1.244" r="4.882" fill="#d99f31"/>
<path stroke="none" d="M338.15 397.95c-1.46.554-3.392-.396-4.476-2.276-1.172-2.027-.915-4.367.572-5.227l.064-.035a4.573 4.573 0 0 1 3.84 7.538z" fill="#f1bf31"/>
<circle cy="394.97" cx="334.68" r="4.572" fill="none"/>
<path stroke="none" d="M289.6 332.55s.52 1.59.924 2.577c.3.733.836 1.852.836 1.852s-1.118.23-1.118.11c0-.13-.872-4.53-.872-4.53l.23-.02z" fill="#a48253"/>
<path stroke="none" d="M289.01 333.47c-1.65-2.53-5.162-5.342-7.147-7.404-3.413-3.544-5.53-7.606-6.31-12.49-1.838-11.547 1.52-19.313 9.946-27.118.53 8.1 5.16 14.815 6.14 22.904 1.4 11.603-5.98 13.79-.85 25.144L289 333.47z" fill="#658d5c"/>
<path stroke="none" d="M287.89 331.17s.1.5.237 1.12c.33.4.627.795.88 1.183l1.463.85-.78-2.667-1.8-.486z" fill="#a48253"/>
<path d="M289.01 333.47c-1.65-2.53-5.162-5.342-7.147-7.404-3.413-3.544-5.53-7.606-6.31-12.49-1.838-11.547 1.52-19.313 9.946-27.118.53 8.1 5.16 14.815 6.14 22.904 1.4 11.603-5.98 13.79-.85 25.144" fill="none"/>
<path stroke-width=".45" d="M289 331.08c-3.356-5.047-4.012-7.514-5.43-12.716-2.668-9.77-2.685-21.632-.174-25.966-2.51 4.333-3.028 16.137-.6 25.975 1.366 5.543 2.453 8.436 5.564 13.54l.64-.833z"/>
<path d="M288.59 332.89c-.82-.957.23-2.53 1.17-1.142" fill="none"/>
</g>
<g stroke-linejoin="round" stroke="#000" stroke-linecap="round" stroke-width=".933">
<path stroke-width=".777" d="M514.67 257.68a.63.63 0 0 1 .04-.268s.296-.434.6-1.146c.306-.724.613-1.72.63-2.834l1.66.34c-1.383 4.94-1.44 6.69-1.44 6.69-.012.416-.483.48-.606.083l-.884-2.865z"/>
<path d="M519.12 275.31c1.323-.868 1.768-3.11 1.85-4.56.148-2.605-2.022-4.91-2.134-7.322-.07-1.548 1.266-1.707 1.52-2.914.224-1.077-3.962-4.856-2.832-7.833.808-2.12 2.504-1.08 3.152-3.3.682-2.35-1.435-5.72 1.287-7.31 1.322-.77 3.264.35 3.84-1.71.585-2.1.12-6.27 3.143-6.56 4.01-.39 4.63 7.82 5.37 8.4.765.6 1.79-.5 2.883-.06 2.94 1.17-.21 6.61-1.23 8.42 7.47.31.64 4.95-.51 7.02.31.75 2.23 1.03 2.54 2.18.2.76-.36 1.42-.89 1.89-1.68 1.48-4.17 2.04-5.99 3.23l-.25.18c-.06.68 1.83 2.68-.72 3.53-4.77 1.59-7.8 2.63-9.64 7.44-.5 1.29-.67 5.26-.76 4.85l-.66-5.53z"/>
<path d="M519.85 279.07l-.828-3.638c.224-.12.415-.302.598-.476.97-.932 1.432-3.51 1.507-4.802.162-2.81-1.877-4.42-1.98-6.757-.05-1.212 1.295-1.646 1.513-2.794.276-1.462-3.756-4.996-2.7-7.76.72-1.872 2.46-.905 3.165-3.344.612-2.13-1.225-5.92 1.073-7.2 1.388-.77 3.384.46 4.055-2 .51-1.86.117-5.03 2.743-5.3 3.57-.36 4.107 6.81 5.035 7.52 1.03.79 1.85-.24 2.84.15 1.5.58 1.13 2.64.79 3.83-.39 1.38-1.06 2.52-1.63 3.8-.11.25-.11.49.19.61.94.35 1.74.2 2.07 1.44.45 1.67-2.12 3.5-2.69 4.82-.44 1.03 1.29 1.29 1.52 2.66.32 1.93-6.15 4.09-6.65 4.99-.06 1.26 1.62 2.57-.42 3.25-5.12 1.72-10.24 4.95-10.18 10.96z" fill="#658d5c"/>
<path stroke-width=".45" d="M519.4 275.86s6.528-11.623 8.415-19.874c1.304-5.712 1.88-14.958 1.88-14.958s-.283 9.213-1.414 14.94c-1.72 8.706-8.47 20.987-8.47 20.987l-.41-1.094z"/>
<path stroke-width=".777" d="M519.61 286.9a.61.61 0 0 1 .08-.266s1.276-1.34 2.034-2.198a3.12 3.12 0 0 0 .59-1.063c.105-.318.138-.55.138-.55.03-.206.208-.318.405-.252l2.17.72c.297.1.336.37.08.55-.013.01-1.667 1.18-2.264 1.9-1.32 1.58-1.668 2.17-2.2 3.8-.124.38-.535.35-.6-.04l-.433-2.57z"/>
<path stroke-width=".777" d="M520.35 289.42c.546-1.67.915-2.3 2.255-3.896.63-.752 2.325-1.95 2.325-1.95l-2.17-.716s-.14 1.026-.803 1.778c-.76.86-2.04 2.207-2.04 2.207l.433 2.577z" fill="#a48253"/>
<path d="M511.69 247.35s2.726 5.434 5.072 13.79c4.838 17.25 5.465 39.648 3.38 51.967-6.407 37.867-40.662 73.276-68.315 78.796-23.192 4.628-36.872 14.513-46.593 25.236-7.558 8.73-10.48 13.94-17.333 27.9-2.11 4.3-9.01 5.14-6.04-.91 5.38-9.49 10.48-18.26 18.35-27.59 10.24-11.57 24.94-22.91 49.77-27.9 28.55-5.74 61.44-41.09 67.85-78.95 2.09-12.32 1.44-39.17-5.52-56.44l-.61-5.91"/>
<path stroke-width=".846" d="M497.26 240.33s-8.048-.305-4.178-6.4c-3.683-1.812-8.124-5.095-3.372-7.804-.213-.924-3.022-1.81-2.81-3.99.122-1.25 1.706-1.823 1.843-2.36-.523-.988-4.196-5.703-2.923-7.11 1.954-2.16 6.175.44 8.097 1.6.478-.293 1.186-.888 1.662-1.204 2.8-1.86 2.99 2.637 3.75 4.073.35.66 2.56-1.124 4.06-.334 2.58 1.37 1.44 4.71 2.09 6.96.64-.07 1.57-.6 2.22-.64 4.19-.28 1.92 7.1 1.74 9.42 6.66-.96 1.54 5.88 1.9 11.75.1 1.62-.4 5.21-1.65 3.83-3.95-4.34-14.9-3.15-12.46-7.77z"/>
<path stroke-width=".977" d="M496.32 264.53c-1.442-.116-4.57-.56-5.185-1.925-.974-2.168 1.56-2.913 1.434-3.077-.89-1.18-5-1.935-5.02-3.588-.02-1.16 1.92-1.99 1.58-3.048-.47-1.447-3.24-3.648-2.17-5.257 1.3-1.945 4.03.668 5.35.652.62-.008 1.51-1.397 2.71-1.42 1.77-.028 2.84 3.415 3.51 3.32.74-.1 1.19-1.116 1.92-1.333 2.21-.667 2.85 1.73 3.37 3.29 1.03 3.086 2.14-.577 3.81.15 4.21 1.84 2.48 10.093 3.7 11.084.73.595 2.11.52 2.66 1.362 1.15 1.794-.43 5.42.46 8.664.36 1.312 4.45 5.124 4.45 5.124s.63 3.818.53 3.62c-1.85-3.552-2.25-4.394-5.55-6.92-3.18-2.424-8-.5-9.11-1.772-1.24-1.416.19-2.708-.45-3.328-.25-.235-3.98.15-4.54.095-2.65-.266-5.08-2.676-3.5-5.693z"/>
<path stroke-width=".977" d="M518.51 278.2l.428 2.377c-6.796-9.72-12.34-5.86-13.8-7.44-1.108-1.202.305-2.067-.6-3.01-.957-.998-6.67 1.115-8.365-3.32-.353-.922.907-2.446.27-2.57-1.445-.283-3.393-.243-4.385-1.55-.414-.548-.77-1.295-.23-1.885.282-.305.612-.564.846-.91.883-1.314-4.487-2.327-4.503-4.28-.01-1.12 1.47-1.525.93-2.903-.47-1.21-2.1-3.21-1.27-4.52 1.01-1.59 3.28.41 4.54.55.62.07 1.67-1.39 2.69-1.42 1.63-.05 2.32 2.97 3.57 2.85 1.22-.12 2.59-2.01 3.92-.37.93 1.14.91 4.47 3.07 3.51.52-.23 1.29-.86 1.87-.61 3.47 1.5 2.58 7.07 3.44 10.03.47 1.59 2.12 1.24 2.71 2.22.29.48.53 1.03.58 1.59.04.48-.03.95-.1 1.43-.27 1.92-.08 3.64.4 5.52.39 1.5 2.5 4.27 4.03 4.68z" fill="#658d5c"/>
<path d="M520.09 307.84l.34-.28c1.198-.02 2.027-2.498 2.388-3.445 1.5-3.935-1.196-10.462 3.347-10.442.232-1.628.565-5.625 2.045-6.69 1.074-.774 2.126.2 3.152-.106.76-1.532 1.12-4.44 3.303-4.848.692-.13 2.144.99 2.384.87.59-.3 1.3-3.42 3.04-3.89 1.07-.29 2.09.82 2.48.57.64-.41 1.26-1.08 1.79-1.65 2.28-2.44 5.12-2.48 5.04.77-.03 1.15-.77 2.79-1.18 3.84-.14.35 1.43 1.1 1.67 1.56.8 1.53-2.03 3.35-2.66 4.56.04.2 1.5.49 1.72.8 1.88 2.63-3.57 5.52-4.95 7.15-.55.63 1.32 2.05 1.06 3.16-1.05 4.42-7.87 2.79-9.38 3.48-.53.24-.69 2.61-1.13 3.21-1.92 2.59-9.53-.58-11.26 1.05-1.58 1.48-2.1 4.01-3.1 5.81-.22.39-.64.27-.6-.14l.46-5.38z"/>
<path d="M520.54 308.03c1.408-.07 2.286-2.633 2.71-3.748.556-1.453.803-2.902.86-4.45.084-2.252-1.525-6.205 1.97-5.67 0 0 .736-5.275 2.247-6.492.986-.79 2.744-.342 3.17-.656 1.007-.743.617-3.96 2.79-4.37.84-.16 2.35.67 2.992.352.8-.4 1.09-2.814 2.63-3.224.96-.256 2.23.782 2.86.39 1.32-.827 2.33-3.443 4.2-2.917 2.11.59 1.36 3.8.83 5.116-.39.94.68 1.29 1.06 1.98.71 1.3-1.65 3.36-1.95 4.51-.12.43.92.95 1.19 1.23 1.57 1.68-2.48 4.65-3.57 5.58-.33.28-1.03.83-1.07 1.27-.09.95.93 1.63.67 2.78-.89 3.9-6.32 2.75-8.45 3.46-.86.29-.99 2.04-1.52 2.76-1.71 2.35-9.19.08-11.2 1.92-1.2 1.1-2.17 2.99-2.83 4.46l.37-4.25z" fill="#658d5c"/>
<path stroke-width=".45" d="M521.66 307.03c.236-.066 9.067-7.095 14.027-12.483 4.062-4.412 9.458-12.12 9.458-12.12s-5.332 7.86-9.302 12.43c-5.02 5.778-13.945 13.5-14.18 13.568-.238.066-.24-1.33 0-1.395z"/>
<path d="M523.69 284.44c-2.078-1.208-1.77-7.674 1.27-10.608 2.557-2.47 9.707 4.8 7.488 7.806-1.227 1.664-6.568 4.075-8.758 2.802z"/>
<path d="M532.5 280.53c-1.286 1.057-4.27-.324-5.787-1.84-1.39-1.39-2.233-3.52-1.4-4.5 1.636-1.944 6.2-4.735 8.393-2.895 2.182 1.83-.042 8.278-1.206 9.235z"/>
<path d="M532.08 281.37c-1.167 1.58-6.262 3.617-8.15 2.52-1.642-.954-1.623-6.837 1.36-9.716 1.88-1.815 8.89 4.35 6.79 7.196z" fill="#a48253"/>
<path stroke-width="1.09" d="M533.25 271.81c1.82 1.527.058 7.455-1.05 8.363-.94.775-3.61-.26-5.16-1.807-1.407-1.41-2.078-3.38-1.532-4.028 1.684-1.997 5.924-4.054 7.742-2.528z" fill="#d99f31"/>
<path stroke="none" d="M531.89 271.84c-.527.557-.875 1.51-.875 2.594 0 1.684.843 3.057 1.89 3.11a13.5 13.5 0 0 0 .376-1.438c.17-.857.26-1.73.19-2.438-.06-.707-.29-1.21-.58-1.453l-.01-.016c-.24-.2-.57-.32-.97-.36h-.01z" fill="#f1bf31"/>
<path stroke-width=".863" d="M493.75 286.8c-.58-1.792-3.343-3.027-3.633-5.184-.13-.98.942-2.648.853-2.938-.478-1.558-3.075-3.566-1.744-5.503 1.717-2.502 4.163.08 6.198.673.334-.127.446-1.246 1.24-1.457 3.118-.82 5.83 4.24 6.65 4.54 2.416.92 4.312-3.35 5.626 5.99 1.034-.24 2.44-.5 3.063.56 2.57 4.41 1.07 13.9 6.206 16.45l.16.34c-.07.38-.24 3.18-.99 2.27-1.3-1.57-2.32-3.81-4.58-4.21-2.39-.42-12.81 3.35-13.09-1.38-.04-.56.72-1.32.47-1.87-.6-1.3-6.86-.84-7.51-4.34-.26-1.37.71-2.62 1.06-3.91z"/>
<path stroke-width=".863" d="M517.58 301.94c-3.83-5.944-5.544-3.702-11.362-3.264-1.327.1-5.802.286-5.722-1.954.023-.638.506-.806.11-1.574-.846-1.645-6.09-1.343-6.878-4.39-.408-1.575.458-3.7.237-4.293-.73-1.98-3.986-3.83-3.02-6.42.13-.345.32-.662.383-1.032.195-1.144-2.143-3.764-1.102-5.453 1.21-1.963 3.32-.412 4.927.316 1.15.522.86-.496 1.62-.747 1.328-.45 2.983.82 3.872 1.67.498.48 2.074 2.36 2.475 2.54.938.43 2.533-.06 3.62.32.98.34 1.64 4.45 1.79 5.49l.188.13c.89-.19 2.203-.19 2.736.68 2.43 3.96 1.236 13.42 6.447 16.29l-.32 1.66z" fill="#658d5c"/>
<path stroke-width=".45" d="M517.28 301.66s-6.918-11.443-12.89-17.428c-3.81-3.816-10.64-8.83-10.64-8.83s6.895 5.232 10.64 9.262c5.448 5.86 11.495 16.997 11.495 16.997h1.395z"/>
<path d="M509.88 319.28c.31.147.967.033 1.378.143 3.05.833-1.314 9.672-1.56 11.613-.065.517.267 2.19.234 2.3l-.665 3.763c-.118.39.073-3.75-.527-4.78-1.063-1.83-4.414-.84-6.135-1.11-2.847-.44-.626-2.87-1.86-3.37-2.042-.82-6.3.35-6.807-2.69-.19-1.14.558-2.35.48-3.32-1.462-1.7-5.22-2.08-4.786-5.05.15-1.03 1.654-2.13 1.613-2.8-.052-.81-3.15-3.08-2.41-4.74.452-1.01 1.326-1.02 1.41-1.61.086-.61-2.513-4.51-.327-5.57 2.622-1.27 4.79 1.69 6.678 1.83.956.07 1.802-1.5 3.25-1.17 1.526.34 1.696 2.39 2.39 3.52.676.03 1.338-.7 2.088-.77 3.197-.34 2.703 4.79 3.525 6.55.1.21 1.06-.37 1.45-.21.67.26.91 1 1.01 1.66.28 1.91-.75 3.97-.44 5.78zm20.26 7.68c.6 6.038-7.585.09-12.086 2.49-1.343.713-4.485 3.118-4.256 2.54l1.133-2.852c.38-.316 1.59-.32 2.01-.513.98-.444 2.31-1.99 3.21-3.665 1.24-2.323.4-4.95 1.15-6.656 1.16-2.61 2.96-.21 3.74-.775 1.44-1.05 1.69-6.33 5.21-6.38.93-.02.91.16 1.55.47.74-1.07.97-2.38 2.4-2.83 1.03-.32 1.73.59 2.68.58.68-.54 3.32-4.96 5.48-4.44 2.44.58.97 4.91.79 6.49.27.29.61.28 1.03.85 1.68 2.24-.95 4.63-1.85 6.39.24.53.92.5 1.06 1.17.6 2.73-4.59 3.07-5.13 3.8 0 .25.4.54.36 1.12-.26 3.35-8.02 2.45-8.44 2.17zm-52.55 19.91c.154-1.145-2.24-2.88-1.235-4.452.815-1.275 2.678-.616 3.427-1.272.646-2.027-.427-4.76 2.387-5.39 1.42-.316 2.21 1.13 2.67 2.232.17.408.81 2.935 1.05 3.023.53.19 1.92-.81 2.62-.71 1.9.28.4 3.84.98 4.85.4.71 1.42.15 2.07.38 1.92.66.43 3.86.43 5.23 0 .84 1.38 1.09 1.5 2.52.2 2.55-1.95 2.82-3.18 4.47-.17.23-.21.34-.02.58 2.1 2.57.91 3.82-1.42 5.52-2.75 1.99-6.98 3.27-5.42 7.53 0 0-1.39 2.85-1.54 1.9-.22-1.39.45-2.82.07-4.34-.42-1.62-5.37-3.74-5.56-5.49-.14-1.23 1.28-1.41 1.4-2.52.13-1.26-4.3-2.42-3.78-4.92.28-1.35 1.72-1.74 2.35-2.83-.1-1.06-5.04-4.83-.71-5.81.54-.12 1.41-.11 1.88-.45z"/>
<path d="M481.75 372.92c.168-1.23.318-2.89.004-4.097-.452-1.744-4.296-3.94-4.466-5.45-.11-.964.625-1.215.78-2.42.207-1.622-3.79-2.66-3.317-4.895.29-1.368 2-2.022 1.84-3.237-.09-.67-2.11-2.34-1.68-4.08.35-1.4 1.88-.84 2.76-1.55.97-.77-1.9-3.13-.98-4.55.73-1.12 2.72-.63 3.28-1.43.59-.82-.46-4.26 2.3-4.91 2.19-.5 2.64 4.2 3.57 4.88.88.65 1.28-.51 2.65-.32 1.36.19.31 3.5.85 4.49.58 1.08 1.5.22 2.44.56 1.51.54.02 3.75.02 4.86 0 1.17 1.24 1.16 1.34 2.54.18 2.24-1.95 2.81-3.07 4.19-.31.38-.34.73.01 1.11 2.03 2.19.6 3.5-1.37 4.93-3.06 2.22-6.66 3.44-5.12 7.9l-1.79 1.51z" fill="#658d5c"/>
<path d="M531.06 337.06c1.524-.392 3.617-1.88 5.09-.703 2.79 2.23-2.07 6.133-2.968 8.222-.017.76 1.553 1.02 1.45 2.55-.178 2.7-3.77 2.12-5.46 3.08-.135.48.617.9.617 1.38 0 3.82-5.77 2.37-7.97 3.09-.7.23.48 2.25-2.02 3.19-1.08.4-2.63-.02-3.72-.22-1.33-.24-2.68-.51-4.04-.44-.56.03-1.13.17-1.69.13-.25-.03-.42-.14-.33-.41l6.3-18.59c.13-.4 2.87.64 3.48.64.67 0 1.34-1.43 1.81-1.86 1.64-1.5 2.44.63 3.81.64 1 0 3.81-5.59 5.61-.74z"/>
<path stroke-width=".777" d="M499.83 340.09c-.05-.785-1.63 1.605-1.63 1.605s1.124 1.106 1.888 1.762c.943.812 2.523 1.954 2.523 1.954l.16-1.17s-2.79-1.95-2.93-4.14z"/>
<path d="M498.15 332.52c.428.606.16 1.424-.133 2.032-.32.67-.51 1.072-.95 1.655-1.436 1.904-4.626 3.605-6.067 2.617-1.313-.9-3.995-8.78-1.896-10.14 1.997-1.292 7.178 1.188 9.046 3.836z"/>
<path d="M490.57 336.03c.623-.943 1.533-1.66 2.422-2.336 1.264-.968 4.48-2.678 5.9-1.308 1.863 1.8 2.76 7.24.596 9.13-2.85 2.49-7.464-.378-9.26-2.845-.62-.84-.17-1.86.342-2.64z"/>
<path d="M493.29 334.18c1.948-1.447 4.16-2.25 4.997-1.37 2.247 2.37 2.36 6.904.8 8.228-1.572 1.334-5.224 1.227-8.376-2.755-.66-.84.62-2.64 2.58-4.103z" fill="#a48253"/>
<path stroke-width="1.09" d="M497.65 332.26c1.052 1.935-4.688 7.333-6.603 6.055-1.33-.885-3.14-7.68-1.835-8.854 1.84-1.66 7.524 1.12 8.438 2.8z" fill="#d99f31"/>
<path stroke="none" d="M490.64 329.5c-.47.03-.837.156-1.063.36-.028.025-.067.12-.11.234.783.386 2.178.736 3.61 1.375 2.046.91 3.46 2.1 4.063 1.76.096-.33.1-.59.03-.72-.144-.27-.628-.75-1.28-1.19a12.12 12.12 0 0 0-2.312-1.22c-.845-.33-1.714-.56-2.438-.61a3.77 3.77 0 0 0-.5 0z" fill="#f1bf31"/>
<path d="M512.04 356.94c2.87-.14 5.617 1.136 7.352.51 2.585-.93 1.007-2.943 2.253-3.055 1.246-.115 7.533.346 7.527-2.782 0-.603-.507-.838-.28-1.516.226-.68 4.956-.45 5.126-2.978.108-1.62-1.36-1.63-1.134-2.61.226-.98 5.293-5.77 2.768-7.76-1.738-1.37-4.587 1.02-4.855.32-.35-.91-.43-1.67-1.582-1.78-1.667-.15-2.674 2.5-3.762 2.5-1.09 0-1.586-1.09-2.703-.99-1.462.13-1.682 2.36-2.928 2.36-1.245 0-3.19-.69-3.19-.69l-6.298 18.58s1.04-.1 1.706-.13z" fill="#466343"/>
<path stroke-width=".623" d="M515.12 349.61s5.916-2.24 9.39-4.267c3.323-1.937 8-5.716 8-5.716m-17.39 9.983s5.915-1.93 9.39-3.956c3.323-1.94 8-6.027 8-6.027" fill="none"/>
<path stroke-width=".777" d="M477.3 379.03s2.342-.568 3.28-.568c.94 0 1.493.455 1.493.455l1.066-1.957s-3.19.377-4.13.292l-1.71 1.778z"/>
<path d="M463.17 400.05c-1.86-2.27 4.31-8.154 6.607-6.49 1.645 1.195 3.712 6.315 2.075 7.844-1.828 1.7-7.203.452-8.682-1.354z" fill="none"/>
<path stroke-width=".777" d="M460.32 392.57l-.686-.047c-1.204-1.502-1.642-1.562-3.407-2.044-.56-.16-.64-.75-.033-.91l2.135-.56c.33-.09 1.24.72 1.5.91.4.3 2.47.75 1.72 1.48l-1.23 1.16z"/>
<path d="M459.86 391.23c.872-1.312 6.285-1.624 9.44 1.158 1.942 1.714.38 4.13-1.46 5.69-1.823 1.544-4.583 2.82-5.717 1.828-3.216-2.813-3.312-7.098-2.263-8.676z" fill="none"/>
<path d="M513.11 333.13s2.617-2.724 4.726-3.785c4.092-2.06 10.743 1.256 11.73-.61.505-.95-.256-1.647.38-1.9.632-.254 7.89 1.186 8.177-2.096.054-.6-.755-.89-.126-1.53.63-.63 5.213-.94 4.754-3.11-.14-.7-1.14-.89-.88-1.58.26-.7 3.69-3.96 2.22-5.96-.43-.59-1.51-.47-1.42-1.19.26-2.22 1-5.65-.83-5.83-1.97-.19-4.27 3.81-5.03 3.97-.95.19-1.52-.75-2.47-.45-1.58.5-1.83 2.85-2.47 2.85-.63 0-.58-.66-1.6-.64-3.11.06-3.37 5.05-4.92 6.27-.88.69-1.41-.25-2.28-.07-2.15.44-1.51 5.83-2.66 7.54-1.14 1.71-3.61 3.74-4.12 4-.5.25-1.5.25-1.5.25l-1.64 3.82z" fill="#658d5c"/>
<path stroke-width=".777" d="M455.15 389.99s1.972.663 3.28.733c.88.048 2.257-.126 2.257-.126s-.54.114-1.125-.3c-.19-.135-1.542-1.332-1.542-1.332l-2.87 1.025z" fill="#a48253"/>
<path d="M460.4 391.64c1.453-1.647 5.66-1.47 8.745 1.25 1.532 1.35.52 3.382-1.3 4.99-1.835 1.617-4.165 2.518-4.954 1.83-3.08-2.695-3.55-6.862-2.49-8.07z" fill="#a48253"/>
<path stroke-width="1.09" d="M463.52 399.9c-.69-.79.413-3.208 1.883-4.532 1.302-1.176 3.422-1.98 3.88-1.487 1.8 1.94 3.64 5.37 2.213 7.07-1.433 1.71-6.42.73-7.976-1.05z" fill="#d99f31"/>
<path stroke="none" d="M469.06 394.48c-.046.006-.094.02-.14.03-1.493.32-2.34 2.28-1.89 4.392.2.944.63 1.762 1.17 2.344.003.002.014-.002.016 0 1.296.1 2.438-.154 2.86-.657.524-.63.488-1.69.015-2.91-.43-1.13-1.24-2.31-2.03-3.21z" fill="#f1bf31"/>
<path stroke-width=".777" d="M515.85 260.45s.052-1.77 1.45-6.762a2.71 2.71 0 0 1 .902-1.352l-2.606-.357s.664.63.653 1.45c-.04 2.33-1.29 4.15-1.29 4.15l.88 2.86z" fill="#a48253"/>
<path stroke-width=".846" d="M512.96 255.11s-1.694-4.952-3.142-6.76c-1.532-1.916-2.632-2.318-5.415-3.207-2.46-.787-6.304-1.42-6.466-3.35-.163-1.927.063-1.562-.64-1.747-2.257-.594-5.08-1.34-4.542-3.578.54-2.238 1.373-2.586.405-3.056-1.428-.69-5.185-2.876-4.736-4.79.447-1.916 2.118-1.942 1.414-3.117-.506-.84-2.317-1.763-2.172-3.295.1-1.044 1.423-1.383 1.383-2.313-.04-.932-3.59-5.064-1.51-6.79 1.9-1.57 5.26 1.238 6.12 1.593.86.355 1.85-1.468 3.11-1.168 1.62.386 1.7 2.81 2.18 3.67.87 1.568 2.66-.47 4.06.28 2.33 1.255 1.52 5.567 2.15 6.44.62.87 2.35-.522 3.57.15 1.9 1.05.27 7.347.4 8.38.12 1.037 1.5.146 2.29.76 2.1 1.637-.46 6.6-.06 10.79.14 1.446.49 3.695.49 3.695l1.08 7.413z" fill="#658d5c"/>
<path d="M496.89 399.13c.66 1.135 1.86 1.918 2.417 3.085.785 1.64.05 3.308-1.93 3.185-.858-.052-1.648-.714-2.47-.78-.664-.052-2.566 2.49-4.41 2.408-2.513-.11-3.71-3.177-5.243-4.745-1.22-.257-2.117 1.54-3.473 1.296-2.78-.51-2.65-4.93-3.61-6.88-.77-.57-1.93.63-3.47-.46-2.38-1.69-1.13-6.99-3.7-8.47-2.25-1.31-7.02-.44-6.61-.66l2.66-1.38c.17-.09.68.15.84.18 4.36.87 10.19.15 14.66.15 2.14 0 1.8 1.73 2.14 2.08l.18.02c2.23.15 4.88-.01 6.78 1.39 2.3 1.7.13 3.23.12 3.61l.11.05.49.16 1.5.44c1.16.37 2.46.88 3.24 1.87 1.13 1.44-.14 2.11-.17 3.4z"/>
<path d="M467.19 386.19c.96.608 13.786.204 15.508.204 1.862 0 1.254 1.47 1.89 2.026.772.35 9.58.058 7.574 3.387-.23.382-.532.727-.727 1.127l.045.37c.9.745 4.022.804 5.382 2.556.81 1.046-1.337 2.726-.417 3.388 1.765 1.27 5.712 6.915-1.452 5.22-1.723-.41-3.763 4.396-7.512.096-.45-.523-1.51-2.048-1.94-2.35-1.04-.722-2.38.96-3.66.75-2.36-.39-2.51-4.53-3.35-6.266-1.17-.818-2.15.156-3.55-.83-3.17-2.236.72-9.908-9.53-8.762l1.76-.916z" fill="#466343"/>
<path stroke-width=".45" d="M466.26 386.41s9.654 1.955 15.2 4.75c5.092 2.567 11.92 8.464 11.92 8.464s-6.656-6.267-11.763-8.928c-5.287-2.754-14.582-4.596-14.582-4.596l-.774.31z"/>
<path d="M491.11 376.21c2.504 2.32-1.283 10.045-4.126 9.56-4.53-.77-7.018-5.887-6.164-8.068.91-2.335 7.585-3.997 10.29-1.492z"/>
<path d="M486.6 384.99c-1.28-.918-.788-4.17.345-6.133 1.038-1.8 2.514-2.928 3.644-2.575 3.21 1.003 6.33 5.228 5.13 7.802-1.19 2.537-7.85 1.817-9.12.906z" fill="none"/>
<path d="M490.9 376.44c2.3 2.13-1.352 9.146-3.862 8.718-4.317-.735-5.872-5.18-5.35-7.01.54-1.893 6.658-4.073 9.212-1.708z" fill="#a48253"/>
<path d="M505.92 381.75c-.41.544-1.275 1.555-2.176 1.547-3.844-.037-3.575-3.318-5.594-5.498-.677-.17-1.177.63-2.5.33-1.734-.4-1.84-4.82-4.436-5.72-1.313-.46-4.97-.48-7 1.43l3.633-2.83c3.512 1.38 6.676-6.1 10.697-5.11 1.143.28 1.18 1.03 2.5.91 2.936-.26 5.922-2.19 9.456-1.02 2.114.69-.633 3.53 2.04 3.2 1.72-.21 4.28-.2 4.79 1.93.282 1.17-.323 1.7-.194 2.55.346.27 6.798 2.51 3.384 4.24.54 1.51 3.133 2.53 1.76 4.39-1.286 1.74-4.03-.19-4.79.53-.313.3-.3 1.14-.576 1.48-1.138 1.41-4.133-1.46-5.41-1.73-1.27 4.31-3.57 2.28-5.584-.67z"/>
<path d="M491.45 372.42c2.666.75 2.74 4.864 4.276 5.25 1.536.383 1.496-.427 2.458-.205.89.204 1.786 5.388 6.083 4.853 1.095-.137 1.643-1.3 1.643-1.3s1.572 2.576 3.224 2.808c2.378.335 1.697-1.805 2.3-1.876.967-.112 2.743 1.937 4.52 1.937 1 0 .857-1.706 1.913-1.706 1.057 0 3.144 1.01 4.004-.23 1.13-1.61-1.49-3.51-1.68-4.08-.19-.57.75-.59.65-1.15-.36-2.05-3.7-2.38-3.98-3.1-.29-.72.47-1.47.19-2.59-.47-1.91-3.19-1.98-4.42-1.71-2.85.64-.26-2.4-2.29-3.25-3.49-1.47-8.57 1.32-9.87.77-.87-.36-1.2-.47-1.95-.6-3.14-.54-6.04 4.05-8.03 5l.99 1.21z" fill="#658d5c"/>
<path stroke-width=".45" d="M490.47 370.99s9.65-.594 15.31 1.377c4.9 1.704 11.364 6.91 11.364 6.91s-6.966-5.123-12.148-6.628c-5.575-1.62-14.867-.74-14.867-.74l.34-.93zm-8.53.68s1.845-12.28 1.686-20.172c-.096-4.745-1-12.123-1-12.123s1.268 7.65 1.465 12.59c.3 7.337-1.37 18.774-1.37 18.774l-.77.93z"/>
<path d="M472.62 371.22c.177.525 1.962 1.042 1.8 3.03-.195 2.44-3.868 1.69-5.577 2.835-.646.436.766 2.53.025 3.522-1.327 1.77-5.834.714-6.162 1.154-.605.81 1.47 3.04-.717 4.27-3.04 1.71-9.46-.99-12.92 2.08-.21.19-1.55 1.7-1.6 1.71-1.98.52-7.22 1.6-6.61 1.35 3.07-1.3 8.02-2.56 8.99-4.68.82-1.8.2-5.2.54-7.15.5-2.91 2.64-1.74 3.34-2.66.57-.74-.49-4.8 1.81-6.71 1.61-1.34 3.35-.42 4.82-1.48 1.54-1.11-.79-4.81 2.26-5.87 1.83-.63 3.73 1.42 4.15 1.33 1.14-.24 2.47-3.67 4.78-3.21 2.3.46 1.27 3.5 1.17 4.9 3.86.48 1.77 3.35-.14 5.63z"/>
<path d="M441.42 390.86s8.207-3.43 8.878-5.15c1.032-2.64-.094-6.637 1.343-7.592.94-.625 1.88-.312 2.49-1.2.62-.89-.18-5.196 2.04-6.935 1.39-1.09 2.64-.113 4.34-1.302 1.83-1.28-.48-4.46 2.31-5.5 1.64-.61 3.29 1.4 4.11 1.18 1.57-.41 2.4-3.53 4.71-3.2 1.86.27.95 2.16.83 3.94-.07 1.03 1.54.55 2.02 1.99.35 1.05-1.08 3.3-2.04 4.13-.54.48 1.67 1.32 1.53 2.8-.19 2.14-4.31 2.29-5.27 2.63-1.23.44-.12 2.29-.96 3.36-1.34 1.72-4.78.66-5.39 1.48-.56.75.69 2.68-.89 3.87-1.64 1.23-8.01.45-9.05.84a77.213 77.213 0 0 0-5.57 2.31l-5.4 2.38z" fill="#658d5c"/>
<path stroke-width=".45" d="M450.21 386.04s8.972-6.453 13.56-12.223c2.53-3.183 5.875-8.018 5.875-8.018s-3.237 5.01-5.72 8.32c-4.53 6.04-13.567 12.95-13.567 12.95l-.148-1.04zm67.05-57.41c3.45-1.864 9.71-5.09 14.825-9.757 3.44-3.14 7.925-8.934 7.925-8.934s-4.454 6.09-7.925 9.39c-5.22 4.97-11.84 8.51-15.29 10.37l.464-1.09z"/>
<path d="M509.94 333.26l-.79 2.633c0-3.636-.145-5.368-4.45-5.14-.668.034-1.355.108-2.017.005-2.188-.343-.502-1.657-1.198-2.658-.852-1.22-6.61-.124-7.082-3.01-.18-1.118 1.064-2.447.15-3.323-1.38-1.324-4.825-2.472-4.457-4.9.154-1 1.49-1.723 1.298-2.654-.258-1.24-2.733-3.395-2.128-4.757.48-1.086 1.364-.735 1.447-1.76.095-1.144-1.908-4-.123-4.87 2.355-1.144 3.95 1.09 5.97 1.255 1.17.1 1.966-1.3 3.19-1.02 1.58.35 1.59 2.9 2.61 3.42.373.19 1.494-.76 2.02-.82 2.835-.32 2.192 5.17 3.157 6.46.35.47 1.098 0 1.605.16 1.773.55-.126 6.57.605 7.37.248.28 1.15.12 1.544.23 1.49.42.45 4.24.21 5.18-.55 2.11-2.45 6.25-1.55 8.22z" fill="#466343"/>
<path stroke-width=".45" d="M509.83 332.84s-2.747-10.935-6.646-16.812c-3.23-4.867-10.303-10.867-10.303-10.867s6.77 6.05 9.84 10.87c3.77 5.91 6.34 16.81 6.34 16.81h.78zm5.96-57.15s-6.492-10.546-12.074-16.03c-4.556-4.482-12.983-9.994-12.983-9.994s8.03 5.67 12.362 10.166c5.294 5.493 11.455 15.86 11.455 15.86h1.24z"/>
<path d="M512.96 250.46c1.082 2.708 2.633 6.896 3.664 10.806 4.84 18.336 5.287 39.524 3.215 51.766-6.39 37.706-40.67 72.786-68.11 78.263-23.3 4.65-37.07 14.746-46.85 25.535-4.64 5.114-8.34 10.215-11.21 15.077-2.85 4.82-4.71 8.952-7.23 13.104a.922.922 0 0 1-.14.06 4.81 4.81 0 0 1-.66.17 13.85 13.85 0 0 1-1.92.22c-.68.03-1.28 0-1.65-.08l-.09-.02c.35-.55.7-1.09 1.05-1.65 2.4-3.96 4.5-7.83 7.25-12.42 2.74-4.57 5.98-9.4 10.4-14.39 10.17-11.5 24.64-22.63 49.35-27.59 28.77-5.78 61.63-41.46 68.06-79.48 2.1-12.38 2.05-33.76-5.82-56.92l.65-2.39z" fill="#a48253"/>
<path stroke-width=".45" d="M511.84 248.25c-2.386-6.082-4.065-9.424-7.52-14.968-4.463-7.162-13.528-16.88-13.528-16.88s8.577 9.758 12.797 16.85c4.46 7.504 6.5 12.122 9.07 20.468l-.82-5.47z"/>
<path stroke="none" d="M513.23 254.08s-.366-.91-.555-1.508c-.394-1.24-.712-3.26-.712-3.26s.588 1.415.98 2.347c.345.82.895 2.45.895 2.45l-.608-.03z" fill="#a48253"/>
<path d="M514.38 317c-1.778-1.476-6.65-5.97-6.65-8.266 0-2.736 2.554-2.265 3.168-2.666-.11-1.108-3.858-3.845-2.355-6.312.99-1.628 3.244-1.17 4.078-1.835.64-1.74-1.83-6.27.15-8.72 1.18-1.45 2.09-.37 2.64-.5.11-.76.09-1.54.18-2.31.15-1.35.64-2.69 2.22-2.77 2.21-.11 3.7 2.72 4.75 4.27.23-.13 1.38-.29 1.63-.41 2.71-1.32 1.73 7.08 1.81 8.38.63-.02 1.92-.37 2.48-.04 2.91 1.72-2.86 10.72-3.48 12.84-.25.88 3.05.17.51 3.37-1.47 1.87-3.36 3.52-4.99 5.25l-6.1-.25z"/>
<path d="M515.3 323.97c1.103-2.905.71-5.737-1.48-7.323-2.347-1.7-5.476-5.732-5.47-8.068.006-2.77 2.75-1.08 2.876-2.39.096-.98-3.606-3.9-2.286-6.04.86-1.4 3.15-1.24 3.73-1.94.963-1.17-1.427-6.33.465-8.74 1.04-1.32 1.846.08 2.54-.41.67-.48-.406-4.43 2.14-4.54 2.452-.11 4.256 4 4.65 3.87.792-.26 1.734-1.09 2.627-.24.87.82.598 7.84.598 7.84s1.668-.16 2.2.16c2.218 1.36-1.764 9.33-2.885 11.51-.957 1.86 1.846 2.1.41 4.01-2.365 3.16-7.09 6.94-7.84 11.58" fill="#658d5c"/>
<path stroke-width=".45" d="M518.03 321.92s1.775-11.42 2.267-17.446c.403-4.94-.696-13.074-.696-13.074s.64 7.824.24 12.765c-.49 6.024-3.13 20.356-3.13 20.356l1.34-2.6z"/>
<path d="M492.06 364.36c.994-2.554-1.933-10.044.276-11.355 1.262-.752 2.06.66 3.29-.55 1.57-1.554-.888-7.402 1.986-9.253 1.67-1.073 2.992.474 4.6-.984 1.066-.97 1.113-4.886 3.826-5.564 1.802-.45 2.63.776 4.227.997 1.353.19 5.95-6.21 8.805-4.68 2.992 1.61.343 5-.26 7.28-.315 1.19 2.233 1.02 1.994 3.02-.217 1.82-2.3 3.65-2.302 4.41 0 .82 2.105 1.37 2.19 2.9.168 2.96-4.607 3.38-6.212 4.64-.84.66 1.083 2.79-.104 4.75-1.26 2.09-6.617.62-7.508 1.07-.724.37-.017 3.9-.92 5.15-1.467 2.04-8.465.13-11.056.55-3.47.57-4.985 1.28-7.167 3.87l4.335-6.22z"/>
<path d="M487.66 368.46s2.734-1.416 3.72-2.996c.968-1.56 1.094-2.12 1.056-4.584-.023-1.497-1.327-6.65.14-7.47 1.207-.672 1.876.647 3.38-.773 1.833-1.732-.856-7.724 1.754-9.342 1.574-.976 2.995.75 4.815-.878 1.24-1.11 1.03-4.846 3.473-5.458 1.532-.39 2.75.8 4.2 1 1.772.24 5.81-5.65 8.34-4.28 1.11.6 1.438 1.45 1.234 2.67-.22 1.31-.963 2.47-1.247 3.75-.365 1.65 1.866 1.5 1.665 3.25-.19 1.65-2.15 3.24-2.15 4.31 0 1.17 1.768 1.94 1.882 3.38.216 2.74-5.515 2.79-5.978 4.29-.46 1.49.656 2.6-.427 4.36-1.17 1.89-5.204.21-6.78.86-1.315.53-.52 3.5-1.316 4.69-2.2 3.28-12.85-1.33-17.22 4.68l-.53-1.51z" fill="#658d5c"/>
<path stroke-width=".45" d="M487.98 368.84s11.323-9.636 17.535-16.775c4.784-5.493 11.246-14.916 11.246-14.916s-6.03 9.53-10.62 15.07c-5.61 6.76-15.99 15.86-15.99 15.86l-2.16.75z"/>
<path stroke="none" d="M486.96 369.09l1.856-.537s-.68.8-.955 1.046a76.61 76.61 0 0 0-.84.77l-.06-1.29z" fill="#a48253"/>
<path stroke-width="1.09" d="M486.87 384.76c-.918-.658-.68-3.67.477-5.68 1.05-1.818 2.68-2.7 3.354-2.385 2.49 1.165 5.59 5.063 4.6 7.186-.98 2.11-7.21 1.75-8.42.88z" fill="#d99f31"/>
<path stroke="none" d="M491.36 377.72c-.278.117-.53.275-.734.5-1.02 1.134-.543 3.226 1.062 4.672.816.734 1.768 1.16 2.64 1.25.004-.002.013.002.016 0 .22-.152.375-.317.453-.484.35-.75-.026-2.096-.937-3.407a10.716 10.716 0 0 0-2.5-2.53z" fill="#f1bf31"/>
<path d="M516.64 254.59c-2.355-.813-3.964-5.166-2.984-9.028.972-3.823 10.73-2.266 9.68 2.288-.83 3.594-4.698 7.43-6.696 6.74z"/>
<path d="M523.07 246.46c-.347 2.292-3.367 2.548-4.765 2.263-1.487-.3-4.292-1.88-3.964-3.777.7-4.028 3.95-7.133 5.87-6.83 2.1.33 3.43 4.652 2.87 8.344z"/>
<path d="M516.85 253.84c-1.983-.307-3.534-4.4-2.585-8.133.89-3.503 9.233-1.287 8.475 1.995-.828 3.59-3.952 6.437-5.89 6.138z" fill="#a48253"/>
<path stroke-width="1.09" d="M520.13 238.73c1.628.257 3.356 3.926 2.79 7.66-.273 1.803-3.086 1.704-4.524 1.413-1.548-.314-4.154-1.35-3.907-2.778.68-3.982 4.14-6.534 5.64-6.295z" fill="#d99f31"/>
<path stroke="none" d="M519.86 239.27a1.77 1.77 0 0 0-.25.047c.1.654.514 1.614.703 2.72.25 1.462.22 3.85 1.234 3.67.63-.11.9-.61.907-1.578v-.02a9.46 9.46 0 0 0-.61-2.64c-.527-1.33-1.348-2.14-1.796-2.21a.83.83 0 0 0-.188 0z" fill="#f1bf31"/>
<path d="M382.27 446.7c-.77-1.134.992-4.616 4.682-4.197 1.617.185.835 2.527-1.173 3.93-1.41.98-2.74 1.402-3.51.267z" fill="none"/>
<path d="M382.27 446.7c-.77-1.134.35-3.572 4.064-3.73 1.332-.058 1.453 2.06-.555 3.462-1.41.98-2.74 1.403-3.51.268z" fill="#a48253"/>
<path d="M394.92 431s-.1-1.38-1.69-1.93c-1.37-.48-2.238.614-2.238.614m2.377 3.177s-.05-1.39-1.69-1.77c-1.5-.35-2.09.93-2.09.93" fill="none"/>
</g>
<path d="M401.7 427.16c7.69-.09 13.472-.82 20.047-2.12-1.55 5.273-4.653 15.304 7.745 15.304 9.02 0 18.598-5.425 27.897-.653 20.31 10.42 35.64 2.98 48.04-10.97 0 0-9.17 1.96-18.6 1.55 0 0 7.06-6.02 7.75-13.95-6.2 4.65-12.4 5.33-18.6 5.33-6.2 0-10.16-3.74-18.28-5.02a420.86 420.86 0 0 1 1.68-9.6c.79-4.3-.39-7.79-6.65-8.52-13.62-1.6-26.8 6.26-50.9 6.64-24.26-.37-40.88-8.23-54.5-6.63-6.26.74-7.44 4.23-6.65 8.53.73 3.94 1.22 6.8 1.67 9.6-8.11 1.29-12.08 5.03-18.27 5.03-6.21 0-12.4-.68-18.6-5.33.68 7.93 7.75 13.95 7.75 13.95-9.43.41-18.6-1.55-18.6-1.55 12.4 13.95 27.73 21.39 48.04 10.97 9.3-4.77 18.87.66 27.89.66 12.39 0 9.29-10.03 7.74-15.3 7.03 1.39 14.82 2.16 23.35 2.16v-.03z" fill="#fff"/>
<path d="M337.7 427.3c-.9.417-1.364-.162-.348-.68.72-.37 3.83-1.725 6.08-2.167a.155.155 0 0 1 .18.133l.083.6a.16.16 0 0 1-.127.172c-2.116.376-5.112 1.59-5.868 1.942zm.52 2.946c-.902.417-1.367-.162-.35-.68.72-.37 3.987-1.976 6.237-2.418.063-.012.153.037.175.097l.226.6c.036.096-.016.187-.118.206-2.117.38-5.417 1.85-6.17 2.2zm32.313 5.392c-3.864-.4-8.427-1.57-13.272-2.246-6.13-.856-11.46-.538-17.85 2.356-.35.16-.54.176-.67.18-.12.005-.3-.027-.33-.205-.03-.137.07-.265.15-.35.1-.096.24-.185.42-.277 5.94-3.037 12.16-3.583 18.4-2.734 4.84.658 9.44 1.67 13.3 2.07 2.17.224 4.65-.14 5.47-1.447.21-.34.83.396.63.716-1.23 1.98-4.11 2.16-6.22 1.94zm-33.608-11.044a1.363 1.363 0 0 1-.434.104c-.09 0-.25-.025-.3-.17-.04-.135.04-.253.11-.323.08-.08.2-.16.35-.228 2.34-1.075 2.95-1.264 6.37-2.176.29-.07.51.1.55.32a.445.445 0 0 1-.35.54c-2.67.64-3.97 1.05-6.28 1.95zm-.527-3c-.152.06-.295.097-.41.093-.107-.004-.238-.046-.287-.175a.334.334 0 0 1 .08-.322.894.894 0 0 1 .32-.228c2.36-1.04 3.3-1.377 6.59-2 .28-.053.5.098.58.296.09.217-.02.466-.32.523-3.21.61-4.34.95-6.54 1.82zm34.142 9.008c-2.637-.273-5.64-.862-8.82-1.38a.492.492 0 0 1-.417-.58.49.49 0 0 1 .58-.416c3.16.515 6.143 1.102 8.76 1.374a6.256 6.256 0 0 0 2.93-.377.487.487 0 0 1 .653.284c.09.226.026.53-.285.652a7.19 7.19 0 0 1-3.4.44zm-13.876 5.25c-5.264-.82-11.754.068-16.78 2.572-.22.11-.42.148-.57.162-.122.01-.305.006-.384-.135a.253.253 0 0 1-.008-.22.51.51 0 0 1 .118-.17c.1-.1.262-.21.476-.32 7.408-3.59 13.064-3.35 17.47-2.85 4.723.54 8.868 1.56 13.388 1.9.393.03.5.38.602.69.094.28.265.8-1.148.65-4.474-.47-8.57-1.55-13.163-2.26zm13.833-2.98c-5.002-.52-11.64-2.227-18.004-2.51-.328-.014-.535-.234-.537-.485-.002-.262.21-.47.545-.457 6.39.284 13.11 1.806 18.13 2.325 1.86.193 3.88-.174 4.86-1.046.29-.27 1.05.72.77.97-1.29 1.16-3.74 1.4-5.75 1.2zm-31.732.107c-.9.41-1.364-.17-.35-.69.823-.42 5.343-2.56 7.754-2.72a.613.613 0 0 1 .64.41c.07.26-.07.53-.43.55-2.17.14-6.76 2.03-7.63 2.43zm123.625-5.68c.9.41 1.366-.17.35-.68-.722-.37-3.83-1.73-6.08-2.17a.156.156 0 0 0-.183.13l-.082.6a.16.16 0 0 0 .127.17c2.116.37 5.112 1.59 5.868 1.94zm-.518 2.94c.9.41 1.364-.16.35-.68-.72-.37-3.99-1.98-6.24-2.42-.06-.01-.15.03-.174.09l-.225.6c-.038.09.014.18.118.2 2.12.37 5.42 1.84 6.17 2.19zm-32.315 5.39c3.864-.4 8.428-1.57 13.272-2.25 6.13-.86 11.46-.54 17.85 2.35.35.16.54.17.67.18.12 0 .3-.03.33-.21.03-.14-.07-.27-.15-.35a1.732 1.732 0 0 0-.42-.28c-5.94-3.04-12.16-3.59-18.4-2.74-4.84.66-9.44 1.67-13.3 2.07-2.17.22-4.65-.14-5.46-1.45-.22-.34-.83.39-.63.71 1.23 1.98 4.12 2.16 6.22 1.94zm33.608-11.05c.162.06.318.1.435.1.097 0 .252-.03.303-.17.046-.14-.042-.26-.108-.33-.08-.08-.2-.16-.35-.23-2.337-1.08-2.943-1.27-6.367-2.18-.29-.08-.505.09-.553.31a.445.445 0 0 0 .355.53c2.672.63 3.974 1.05 6.285 1.94zm.527-3c.152.06.295.09.41.09.107-.01.238-.05.287-.18a.324.324 0 0 0-.08-.32.89.89 0 0 0-.32-.23c-2.36-1.04-3.3-1.38-6.59-2a.503.503 0 0 0-.58.29c-.09.22.02.47.32.52 3.21.61 4.35.94 6.54 1.81zm-34.142 9.01c2.637-.28 5.64-.86 8.82-1.38a.493.493 0 0 0 .417-.58.49.49 0 0 0-.58-.42c-3.16.51-6.142 1.1-8.76 1.37a6.254 6.254 0 0 1-2.93-.38.486.486 0 0 0-.652.28.487.487 0 0 0 .284.65 7.19 7.19 0 0 0 3.4.44zm13.876 5.25c5.264-.82 11.756.07 16.78 2.57.22.11.42.14.57.16.122.01.305 0 .384-.14a.255.255 0 0 0 .008-.22.532.532 0 0 0-.116-.17 1.955 1.955 0 0 0-.478-.33c-7.408-3.59-13.064-3.35-17.47-2.85-4.723.53-8.868 1.55-13.385 1.9-.4.02-.51.38-.61.68-.1.28-.27.8 1.15.64 4.47-.47 8.57-1.55 13.16-2.27zm-13.834-2.98c5.003-.52 11.64-2.23 18.004-2.51.328-.02.536-.24.537-.49.003-.26-.213-.47-.545-.46-6.385.28-13.102 1.8-18.122 2.32-1.854.19-3.88-.18-4.855-1.05-.29-.27-1.04.72-.76.97 1.29 1.16 3.74 1.4 5.75 1.2zm31.733.1c.9.41 1.366-.17.35-.69-.825-.42-5.344-2.56-7.756-2.72a.613.613 0 0 0-.65.41c-.08.26.07.53.42.56 2.16.14 6.76 2.02 7.62 2.43z"/>
<g stroke-linejoin="round" stroke="#000" stroke-linecap="round">
<path stroke-width=".933" d="M400.04 427.33c-10.344 0-17.105-1.58-26.346-3.253-21.515-3.893-26.193-.935-26.193 2.788 0 1.194 1.11 1.547 1.91 1.188.41-.185.75-.87.75-.87-.76-.008-1.25-.31-1.09-1.248.46-2.718 6.05-3.955 24.64-.928 9.27 1.507 16.01 2.788 26.36 2.788l-.01-.465zm.017 0c10.345 0 17.105-1.58 26.347-3.253 21.515-3.893 26.193-.935 26.193 2.788 0 1.194-1.105 1.547-1.902 1.188-.408-.185-.744-.87-.744-.87.76-.008 1.26-.31 1.1-1.248-.46-2.718-6.04-3.955-24.64-.928-9.27 1.507-16.01 2.788-26.35 2.788l.01-.465z"/>
<path d="M342.37 416.79c-3.41.546-6.536 1.71-9.73 2.965-8.71 3.42-18.7 2.896-26.44-2.608.54 3.912 2.256 7.317 4.764 10.305.613.727 2.492 2.588 2.492 2.588.313.325.257.533-.187.545-5.93.254-11.32.177-17.14-.91 13.76 15.133 27.58 18.9 46.43 9.743 9.9-4.81 18.15.62 28.03.62 10.49 0 9.5-6.866 7.19-14.623l1.25.136c1.69 4.77 4.34 16.53-8.45 15.58-9.86-.73-17.75-5.75-27.69-1.01-15.3 7.3-26.35 7.19-39.66-2.68-2.72-2.01-7.09-5.63-8.95-8.39-.46-.67 0-1.07.68-.86 5.05 1.57 12.7 1.58 16.59 1.47-3.16-3.17-6.7-9.05-6.55-13.27.02-.54.28-.65.74-.41 7.21 3.74 9.91 5.24 18.32 5.24 4.95 0 15.06-5.59 18.07-5.01l.19.62z"/>
<path stroke-width=".933" d="M457.72 416.79c3.408.546 6.534 1.71 9.732 2.965 8.708 3.42 18.7 2.896 26.438-2.608-.54 3.912-2.257 7.317-4.765 10.305-.61.727-2.49 2.588-2.49 2.588-.313.325-.258.533.187.545 5.926.254 11.31.177 17.14-.91-13.764 15.133-27.586 18.9-46.433 9.743-9.9-4.81-18.15.62-28.04.62-10.49 0-9.5-6.866-7.2-14.623l-1.26.136c-1.69 4.77-4.34 16.53 8.45 15.58 9.85-.73 17.75-5.75 27.68-1.01 15.29 7.3 26.34 7.19 39.65-2.68 2.71-2.01 7.08-5.63 8.95-8.39.45-.67-.01-1.07-.69-.86-5.05 1.57-12.7 1.58-16.6 1.47 3.15-3.17 6.69-9.05 6.54-13.27-.02-.54-.28-.65-.74-.41-7.21 3.74-9.91 5.24-18.32 5.24-4.95 0-15.06-5.59-18.07-5.01l-.19.62z"/>
<path d="M399.47 405.15c-11.826.086-21.8-2.067-30.125-3.945-6.9-1.557-14.935-3.337-22.01-2.396-5.152.69-7.256 2.96-6.375 8.16 1.096 6.45 2.06 12.96 3.233 19.4.676 3.71 2.655 4.21 6.146 3.59 5.02-.89 21.14-4.5 24.76.08 3.47 4.39.09 7.56-4.75 7.64-.68.01-.46-.47-.23-.47 4.63 0 7.88-2.68 4.89-6.79-3.15-4.33-18.23-1.16-24.38.28-3.91.91-6.51.4-7.23-4.39-.99-6.61-1.6-11.15-3.7-19.7-3.54-14.45 22.24-7.76 29.66-6.03 10.12 2.35 18.58 3.86 30.58 4.22 12.03-.36 20.48-1.87 30.6-4.22 7.42-1.73 33.21-8.42 29.67 6.03-2.1 8.54-2.71 13.08-3.7 19.69-.72 4.79-3.32 5.29-7.22 4.38-6.15-1.44-21.23-4.61-24.38-.28-2.99 4.1.27 6.78 4.9 6.78.23 0 .44.47-.23.46-4.84-.08-8.23-3.25-4.75-7.64 3.62-4.58 19.74-.98 24.77-.09 3.49.61 5.47.12 6.14-3.6 1.17-6.44 2.13-12.95 3.23-19.41.88-5.2-1.23-7.47-6.38-8.16-7.08-.95-15.11.83-22.01 2.39-8.32 1.88-18.3 4.03-30.12 3.94h-1.05z"/>
</g>
<path d="M361.53 417.23c-1.62-.14-4.225-.284-4.225-.284l-.945-12.882 3.13.373.65 10.052c.32.01 1.724.11 2.66.21 1.066.11 2.785.38 2.785.38l.197 2.58s-2.626-.31-4.252-.45zm6.76.72l-.706-12.422 3.155.484.7 12.422zm9.52-5.77l1.07.183c1.598.272 1.72-.278 1.71-.95-.017-.81-.393-1.307-2.006-1.583l-.82-.14.046 2.49zm.114 4.938l1.492.255c1.74.295 2.162-.027 2.145-.9-.01-.998-.62-1.598-2.49-1.917l-1.19-.204.06 2.766zm1.834 2.765l-5-.853-.225-12.27 4.495.765c3.086.525 4.75 1.88 4.794 4.21.017.975-.533 1.622-1.135 1.97.868.485 2.1 1.594 2.132 3.22.04 2.28-1.35 3.59-5.07 2.958zm11.772 1.687c-1.67-.158-4.34-.53-4.34-.53l-.122-6.182-.12-6.207 7.122.74.022 1.22.025 1.24-3.983-.41.05 2.55 4.186.43.046 2.31-4.185-.43.05 2.62c.32.05 1.75.27 2.72.36 1.08.1 2.86.14 2.86.14l.05 2.47s-2.7-.13-4.36-.29zm10.39-6.34c1.663-.03 2.392-.737 2.37-1.87-.02-1.188-.535-1.687-2.042-1.66l-1.395.023.06 3.524 1.007-.017zm6.962 6.418c-2.457-.08-3.78-1.313-5.075-2.766l-1.37-1.536c-.195.016-.405.02-.617.024l-.812.015.073 4.33-3.07.05-.21-12.386 4.78-.09c2.75-.05 4.77 1.18 4.82 3.94.03 1.34-.59 2.53-1.85 3.31l1.19 1.24c.67.69 1.42 1.15 2.73 1.47l-.57 2.39zm.108-9.968l-.015-2.45 10.952-1.512.015 2.452-3.904.538.058 9.887-3.143.433-.06-9.886zm17.63-2.48a193.41 193.41 0 0 1-1.18 4.023c.86-.086 1.76-.24 2.587-.487a155.38 155.38 0 0 1-1.078-3.598l-.33.062zm3.35 8.996l-1.216-3.324c-.645.237-1.34.376-2.04.482-.706.106-1.417.178-2.09.282l-1.33 3.815-3.185.6 3.84-10.62-1.35.26-.03-2.45a178.46 178.46 0 0 0 8.36-1.57l.11 2.43-1.36.26 3.54 9.24-3.28.62zm8.33-.796c-2.023.035-3.092-.314-4.013-.806l.86-2.296c1.15.384 1.817.544 3.16.52 1.475-.026 2.198-.49 2.208-1.16.008-.448-.334-.762-.918-1.046-.584-.284-1.362-.52-2.14-.822-1.562-.608-3.167-1.503-3.13-3.64.044-2.425 2.752-3.662 4.926-3.7 1.954-.035 3.05.365 4 .766l-.79 2.226c-.96-.26-1.927-.486-3.162-.463-1.22.02-1.93.65-1.94 1.1 0 .35.34.63.94.91.59.28 1.39.54 2.18.87 1.59.66 3.22 1.63 3.18 3.63-.05 2.76-2.82 3.85-5.35 3.89z"/>
</svg>
