<svg viewBox="0 0 675 450" xmlns="http://www.w3.org/2000/svg">
<path d="M0 0l298.57 225.24H675V0z" fill="#dc171d"/>
<path d="M0 0l299 225.75L0 450z" stroke="#fff" fill="#fff"/>
<path d="M0 450l298.57-224.76H675V450z" fill="#012a87"/>
<path d="M150.82 170.33l.09-3.485s-1.87-2.98.3-6.18c0 0-4.612-2.44-3.538-6.262 0 0-4.17-1.067-3.863-5.655 0 0-4.51-.312-4.97-4.144 0 0-4.5.74-6.49-2.993 0 0-4.39.86-5.63-2.22 0 0-4.27 1.48-6.8-2.14 0 0-4.51 1.83-6.4-1.59-1.87 3.41-6.38 1.6-6.38 1.6-2.51 3.61-6.8 2.11-6.8 2.11-1.2 3.09-5.58 2.22-5.58 2.22-1.98 3.74-6.47 3-6.47 3-.44 3.82-4.94 4.14-4.94 4.14.35 4.6-3.81 5.65-3.81 5.65 1.1 3.82-3.51 6.26-3.51 6.26 2.22 3.22.37 6.18.37 6.18l-.1 3.21 74.5.35" fill="#ff0"/>
<path stroke-width=".271" d="M377.18 843.11l.09-3.458s-1.856-2.958.3-6.136c0 0-4.58-2.422-3.513-6.215 0 0-4.14-1.05-3.835-5.61 0 0-4.468-.31-4.93-4.11 0 0-4.47.74-6.435-2.97 0 0-4.36.85-5.588-2.2 0 0-4.24 1.47-6.76-2.12 0 0-4.48 1.81-6.35-1.58-1.85 3.38-6.33 1.59-6.33 1.59-2.49 3.58-6.75 2.09-6.75 2.09-1.19 3.07-5.54 2.2-5.54 2.2-1.96 3.71-6.43 2.97-6.43 2.97-.44 3.8-4.9 4.11-4.9 4.11.35 4.57-3.78 5.61-3.78 5.61 1.09 3.8-3.48 6.21-3.48 6.21 2.21 3.2.37 6.13.37 6.13l-.1 3.19 73.95.34h-.02z" stroke="#000" fill="#f9d90f" transform="matrix(1.0075 0 0 1.0074 -229.19 -679.02)"/>
<path d="M149.076 165.977c-11.702-1.172-25.177-3.95-35.578 1.908-6.973-4.11-16.682-3.858-24.95-3.053-4.488.803-9.768.803-14.46 1.57l-.736.103c-8.512.565-16.234-1.95-23.63-5.256 2.348 13.33 4.955 26.99 6.237 40.95 2.79 20.67-9.79 38.02-4.63 58.45 3.08 9.8 13.85 15.49 23.71 16.62 9.55.56 19.43 2.12 28.26 4.04 1.68.35 3.67 1.13 4.83 1.63 2.43 1.02 4.22 2.51 5.78 4.11 5.33-5.56 13.15-7.11 20.87-7.92 13.9-1.63 31.04-.74 39.56-13.34v-.71c4.62-6.97 4.01-17.6 2-25.49-.14-2.76-.87-5.19-1.27-7.81-8.5-22.44-1.22-47.66 2.43-70.28-4.47 2.44-9.45 3.59-14.41 4.81-3.96.52-8.38.28-12.39.07l-1.66-.45m17.48 64.38" fill="#dc171d"/>
<path d="M166.556 230.36c-.055 1.477.743 2.637 1.03 4.003 1.626 9.806 3.196 22.795-6.9 28.88-11.167 7.1-25.813 4.058-38.735 7.817-2.58.717-6.13 3.092-7.95 4.77-1.16-.766-2.33-1.943-3.84-2.635-10.63-5.655-24.46-3.76-36.46-6.814-6.03-1.9-12.31-6.6-13.84-12.77-3.92-16.19 5.48-29.99 4.37-46.05-.71-12.26-2.77-24.04-5.61-35.53 9.39 4.38 20.25 5.1 30.8 3.01 7.82-1.09 16.91-1.11 24.23 2.19 4.04-1.73 8.76-2.51 13.11-2.99 8.27.81 17.16 2.3 25.67 2.24 5.69-.29 10.85-1.93 15.79-4.12-2.93 19.01-8.56 38.91-1.64 58.03" fill="#62afe1"/>
<path d="M149.67 234.148l-.09-17.87h2.2l-27.316-17.643-.05-9.168h2.638l-13.66-9.78-13.59 9.774h2.63l.05 9.17-27.17 17.62 2.172.01.092 17.86 72.087.05" fill="#fff"/>
<path stroke-width="1.164" d="M376.04 906.46l-.09-17.74h2.184l-27.114-17.51-.048-9.1h2.618l-13.557-9.71-13.49 9.703h2.61l.05 9.095-26.967 17.49 2.155.012.1 17.727 71.55.05.01-.014z" stroke="#000" fill="none" transform="matrix(1.0075 0 0 1.0074 -229.19 -679.02)"/>
<path d="M158.073 257.62l.006 5.592-88.01-.097-.04-5.568 88.04.074" fill="#fff"/>
<path stroke-width="1.164" d="M384.38 929.76l.006 5.55-87.347-.096-.04-5.527 87.38.074h-.01z" stroke="#000" fill="none" transform="matrix(1.0075 0 0 1.0074 -229.19 -679.02)"/>
<path d="M75.92 257.288l-.072-18.925 3.563-.007-.19 19.145.22-18.99-5.13-.14v-4.06l78.65.09.04 4.03h-4.85l.09 19.17-.17-19.16h3.61l.08 18.95" fill="#fff"/>
<path stroke-width="1.164" d="M302.84 929.43l-.073-18.786 3.537-.007-.195 19.005.21-18.852-5.1-.146v-4.03l78.06.086.03 3.993h-4.81l.09 19.023-.17-19.023H378l.08 18.81m-58.48-4.7l-.057-13.1h-10.48l.06 13.086 10.472.01-.056-13.1h-10.48l.06 13.08 10.47.01-.06-13.1h-10.48l.06 13.08 10.47.01-.06-13.1h-10.48l.06 13.08 10.48.01-.06-13.1h-10.48l.06 13.09 10.47.01m-7.68-10.37l.03 7.61h4.8l-.03-7.61h-4.8m58.92 10.41l-.06-13.09-10.44-.01.05 13.1h10.46m-7.68-10.36l.05 7.58h4.8l-.04-7.59h-4.8m7.6-10.97l-.06-13.1h-10.46l.04 13.1h10.49-.01zm-7.68-10.35l.03 7.59h4.79l-.01-7.6h-4.82m-43.57 10.3l-.07-13.07-10.47-.01.05 13.08h10.49zm-7.68-10.34l.02 7.59 4.81.01-.04-7.6h-4.79m26.65 10.36l-.05-13.08-10.47-.01.05 13.09h10.47m-7.67-10.35l.03 7.58 4.8.02-.03-7.61h-4.79m22.29 10.38l-.07-13.1-10.46-.02.05 13.09 10.49.02m-7.68-10.37l.04 7.61h4.8l-.03-7.61h-4.81" stroke="#000" fill="none" transform="matrix(1.0075 0 0 1.0074 -229.19 -679.02)"/>
<path d="M129.198 227.126l.117 30.423-30.56-.05-.112-30.4 30.55.02" fill="#fff"/>
<path stroke-width="1.164" d="M355.72 899.49l.116 30.2-30.333-.05-.11-30.174 30.32.024h.007zm-30.51 8.62l30.54.024m-30.54-.02l30.54.024m-30.54-.02l30.54.024m-30.54-.02l30.54.024m-30.54-.02l30.54.024m-26.73 21.55l-.103-21.342m23.22 21.35l-.103-21.33m14.75-21.73l-17.08-12.473-19.194-.024-16.947 12.45 53.222.05m-34.8-22.83l.03 7.61 16.144.01-.03-7.61-16.15-.01.03 7.61 16.14.01-.03-7.61-16.15-.01" stroke="#000" fill="none" transform="matrix(1.0075 0 0 1.0074 -229.19 -679.02)"/>
<path stroke-width="1.164" d="M331.99 863.8l.03 7.61 16.144.01-.03-7.608-16.144-.012" stroke="#000" fill="none" transform="matrix(1.0075 0 0 1.0074 -229.19 -679.02)"/>
<path stroke-width="1.164" d="M336.37 865.69l.024 3.792h7.414l-.024-3.792h-7.414m3.67-10.55l8.98 6.348-17.892-.024 8.912-6.325 8.98 6.34-17.892-.03 8.912-6.33 8.98 6.35-17.892-.03 8.912-6.33 8.98 6.35-17.892-.03 8.912-6.33 8.98 6.35-17.892-.03 8.912-6.33" stroke="#000" fill="none" transform="matrix(1.0075 0 0 1.0074 -229.19 -679.02)"/>
<path d="M149.973 178.116c2.57-.06 3.232 10.585 3.238 15.86 2.21.618 7.11 3.697 9.27 6.48l-24.82-.036c2.14-2.747 7-5.838 9.18-6.456 0-5.28.54-15.92 3.14-15.86" fill="#fff"/>
<path stroke-width="1.164" d="M376.34 850.84c2.55-.06 3.208 10.507 3.214 15.742 2.19.615 7.05 3.67 9.198 6.434l-24.642-.036c2.118-2.727 6.94-5.795 9.113-6.41 0-5.24.536-15.802 3.117-15.74m-49.53 49.51h2.21l-.645 1.185m-1.57-1.19h2.21l-.645 1.186m-1.57-1.19h2.21l-.645 1.19m-1.57-1.19h2.21l-.645 1.19m-1.57-1.19H329l-.645 1.19s1.065 1.37.018 2.94l.578 1.09h-2.13l.58-1.03s-1.09-1.82.05-2.99l-.66-1.19m4.5.01h2.21l-.64 1.19s1.07 1.34.01 2.94l.57 1.09h-2.12l.57-1.03s-1.06-1.82.06-2.99l-.65-1.19m4.91.01h2.21l-.65 1.19s1.08 1.37.02 2.94l.58 1.12-2.11-.02.57-1.04s-1.08-1.81.04-2.99l-.64-1.19zm5.55.01h2.22l-.65 1.2s1.07 1.35.01 2.92l.6 1.11h-2.14l.57-1.03s-1.06-1.83.08-2.99l-.67-1.2zm4.93 0h2.21l-.65 1.2s1.07 1.35.01 2.92l.59 1.11h-2.12l.56-1.03s-1.07-1.82.09-3l-.67-1.2m4.9 0l2.21-.01-.65 1.2s1.09 1.34.03 2.92l.55 1.11h-2.13l.57-1.03s-1.06-1.82.08-2.99l-.65-1.18" stroke="#000" fill="none" transform="matrix(1.0075 0 0 1.0074 -229.19 -679.02)"/>
<path d="M114.065 296.546c11.444.037 25.52-2.3 32.112-5.71l14.48-1.28.288 17.667c-12.266 6.763-40.588 8.216-46.82 8.168-6.237.05-34.908-1.42-47.23-8.21l.16-17.68 14.51 1.31c6.593 3.4 21.097 5.75 32.53 5.75h-.03" fill="#f9d90f"/>
<path stroke-width=".271" d="M340.7 968.4c11.36.037 25.33-2.283 31.873-5.667l14.372-1.273.286 17.538c-12.17 6.714-40.28 8.156-46.47 8.108-6.19.05-34.65-1.418-46.88-8.156l.16-17.55 14.41 1.297c6.55 3.367 20.94 5.704 32.29 5.704h-.03" stroke="#000" fill="none" transform="matrix(1.0075 0 0 1.0074 -229.19 -679.02)"/>
<path d="M29.617 221.183l12.757 4.06-3.858 20.654-12.076 1.876s-2.036-10.86 3.177-26.603" fill="#f9d90f"/>
<path stroke-width=".271" d="M256.88 893.59l12.662 4.03-3.83 20.503-11.985 1.862s-2.02-10.78 3.153-26.407v.012z" stroke="#000" fill="none" transform="matrix(1.0075 0 0 1.0074 -229.19 -679.02)"/>
<path d="M38.513 245.672l-12.07 2.104 7.636-10.86 4.43 8.756" fill="#7e7e7e"/>
<path stroke-width=".271" d="M265.71 917.9l-11.98 2.088 7.58-10.78 4.4 8.692" stroke="#000" fill="#f9b60f" transform="matrix(1.0075 0 0 1.0074 -229.19 -679.02)"/>
<path d="M21.99 236.062l12.296.888c.276 10.42 1.54 50.182 49.02 52.34l-1.477 14.467c-57.8.6-62.19-48.77-59.84-67.695" fill="#f9d90f"/>
<path stroke-width=".271" d="M249.31 908.36l12.205.882c.274 10.343 1.528 49.813 48.656 51.956l-1.46 14.36c-57.36.596-61.72-48.413-59.39-67.198zm44.8 70.14l14.384-3.14m-14.38 3.14l14.384-3.142m-14.38 3.14l14.384-3.14m-14.38 3.14l14.384-3.142m-14.38 3.14l14.384-3.14" stroke="#000" fill="none" transform="matrix(1.0075 0 0 1.0074 -229.19 -679.02)"/>
<path d="M197.506 221.334l-12.707 4.022 4.02 20.624 12.1 1.943s1.94-10.854-3.43-26.6" fill="#ff0"/>
<path stroke-width=".271" d="M423.52 893.74l-12.613 3.993 4 20.472 12.01 1.93s1.93-10.775-3.398-26.407v.012z" stroke="#000" fill="#f9d90f" transform="matrix(1.0075 0 0 1.0074 -229.19 -679.02)"/>
<path d="M188.822 245.763l12.1 2.17-7.74-10.865-4.36 8.695" fill="#7e7e7e"/>
<path stroke-width=".271" d="M414.9 917.99l12.01 2.155-7.682-10.786-4.328 8.63" stroke="#000" fill="#f9b60f" transform="matrix(1.0075 0 0 1.0074 -229.19 -679.02)"/>
<path d="M205.274 236.223l-12.314.84c-.18 10.408-1.086 50.188-48.568 52.297l1.613 14.455c57.785.667 61.76-48.68 59.27-67.598" fill="#f9d90f"/>
<path stroke-width=".271" d="M431.23 908.52l-12.223.835c-.177 10.33-1.077 49.818-48.206 51.912l1.61 14.348c57.36.663 61.3-48.322 58.83-67.1v.004zm-44.19 70.06l-14.42-3.16" stroke="#000" fill="none" transform="matrix(1.0075 0 0 1.0074 -229.19 -679.02)"/>
<path d="M106.378 305.25c-.325.21-.767.264-1.275.24l-2.295-.118.197-2.863 2.275.12c.447.03.803.11 1.024.25.46.24.662.68.62 1.29-.03.53-.215.87-.552 1.07m-3.852 4.5l.227-3.49 2.674.18c.87.06 1.51-.16 1.95-.6.46-.43.69-1 .72-1.64.06-.75-.13-1.35-.57-1.8-.42-.43-1.02-.66-1.78-.73l-3.82-.24-.53 8.22 1.14.07m8.33-6.87l2.8.03m-2.8-.03l2.8.03m-2.8-.03l2.8.03m-2.8-.03l2.8.03m-2.8-.03l2.8.03c.41.04.72.08.96.19.43.2.63.61.63 1.2 0 .55-.16.92-.47 1.14-.3.2-.73.29-1.25.29l-2.68-.03.03-2.83m-.04 7.28l.03-3.51 2.63.04c.47 0 .81.03 1.05.15.39.18.58.55.6 1.07l.07 1.38c.02.33.02.53.04.67.04.09.05.2.1.27h1.41l-.02-.18a.703.703 0 0 1-.34-.5c-.05-.16-.07-.4-.08-.7l-.02-1.1c-.02-.5-.1-.84-.3-1.03a1.474 1.474 0 0 0-.74-.53c.39-.21.69-.45.9-.74.2-.33.31-.74.31-1.24 0-.94-.38-1.59-1.17-1.94-.42-.19-.96-.29-1.6-.3l-3.94-.04-.03 8.24h1.13m8.74-1.74c-.5-.62-.77-1.38-.83-2.29-.05-1.14.17-2.01.69-2.6.53-.64 1.21-.95 2.1-1 .9-.05 1.63.24 2.18.8.56.55.87 1.32.93 2.27.03.92-.13 1.74-.56 2.45-.41.73-1.11 1.14-2.13 1.17-1.06.06-1.86-.19-2.37-.81m-1.35-5.19c-.53.81-.74 1.76-.69 2.9.08 1.23.46 2.25 1.18 3.01.8.76 1.85 1.15 3.15 1.08 1.39-.07 2.44-.59 3.15-1.56.58-.88.86-1.9.79-3.15-.08-1.13-.4-2.04-1.01-2.72-.76-.92-1.89-1.32-3.41-1.26-1.43.09-2.49.62-3.17 1.68M157 291.3c.79-.13 1.48-.1 2.11.12.92.29 1.54.97 1.925 2.01l-1.13.16c-.244-.56-.594-.95-1.066-1.17-.46-.2-1.04-.25-1.7-.16a2.648 2.648 0 0 0-1.83 1.12c-.43.663-.56 1.55-.36 2.673.16.934.5 1.725 1.06 2.25.52.54 1.28.73 2.29.59.74-.12 1.35-.42 1.77-.94.44-.49.57-1.23.42-2.19l-2.64.41-.13-.906 3.68-.564.72 4.36-.73.11-.45-1.005c-.31.46-.62.81-.89 1.01-.46.35-1.07.58-1.84.69-.99.15-1.9-.028-2.72-.55-.9-.67-1.48-1.66-1.7-3.04-.24-1.36-.03-2.52.6-3.43.59-.88 1.46-1.4 2.62-1.568m8.32-.615l2.64-.95c.36-.135.68-.18.95-.15.48.035.84.32 1.04.9.19.49.19.92-.03 1.22-.22.31-.58.54-1.1.73l-2.48.89-1.03-2.64m2.64 6.816l-1.29-3.3 2.46-.88c.46-.15.78-.23 1.02-.2.43.06.76.32.98.82l.56 1.25c.12.31.22.5.3.59.03.11.11.18.18.25l1.33-.49-.08-.17c-.2 0-.39-.11-.53-.33-.1-.15-.2-.37-.34-.63l-.44-1.03c-.2-.44-.4-.72-.63-.89a2.106 2.106 0 0 0-.88-.24c.27-.31.46-.62.54-.99.08-.37.04-.79-.14-1.25-.33-.88-.95-1.36-1.82-1.42-.46-.04-.99.06-1.6.27l-3.71 1.32 3 7.75 1.09-.4m9.63-4.11l-4.7-6.86 5.16-3.29.57.83-4.23 2.71 1.44 2.1 3.91-2.51.53.8-3.91 2.52 1.59 2.32 4.31-2.75.57.81-5.26 3.36m4.13-12.14l1.35-1.48c.62-.66 1.28-.96 2.01-.88.72.06 1.46.44 2.24 1.13a4.235 4.235 0 0 1 1.27 1.85c.11.49.09.94-.09 1.37-.11.21-.29.47-.57.77l-1.35 1.47-4.88-4.24m7.13 3.23c.96-1.05 1.17-2.19.61-3.47a5.874 5.874 0 0 0-1.51-1.96c-.87-.76-1.77-1.16-2.72-1.23-1.05-.08-1.95.3-2.73 1.16l-2.3 2.47 6.34 5.53 2.3-2.48m4.9-6.41l-7.3-4.29.6-.94 7.31 4.26-.6.98m2.87-4.99L188.7 270l2.325-5.54.96.364-1.9 4.57 2.38.93 1.77-4.21.91.37-1.76 4.2 2.604 1.1 1.94-4.62.95.36-2.368 5.645m3.62-9.68l-8.29-1.83.27-1.28 7.66-2.59-6.73-1.48.25-1 8.3 1.79-.26 1.25-7.67 2.65 6.73 1.46-.24 1.07M199.5 253l.11-1.04c.48.01.89-.06 1.19-.23.6-.33.95-.94 1.05-1.86.03-.43.016-.8-.08-1.16-.18-.69-.57-1.07-1.19-1.13-.46-.05-.79.06-1.03.31-.21.29-.44.71-.61 1.3l-.38 1.08c-.24.71-.47 1.202-.713 1.48-.39.513-.94.69-1.65.642-.75-.08-1.366-.38-1.8-.96-.45-.53-.63-1.29-.52-2.22.07-.85.354-1.57.86-2.15.46-.53 1.19-.78 2.11-.68l-.08 1.04c-.46 0-.82.08-1.08.27-.48.26-.75.82-.83 1.635-.07.67.02 1.13.28 1.47.26.29.58.47.96.5.41.036.73-.09.95-.41.16-.21.35-.68.606-1.43l.38-1.14c.19-.52.41-.93.667-1.22.46-.48 1.06-.68 1.81-.62.92.1 1.57.48 1.91 1.18.33.71.46 1.48.38 2.37-.11 1-.43 1.79-1.03 2.31-.6.54-1.35.73-2.26.65m-171.89-.51l.19 1.03c-.46.09-.83.28-1.1.52-.49.45-.65 1.13-.49 2.06.07.39.21.78.39 1.09.36.62.84.87 1.45.77.44-.08.74-.25.88-.57.13-.31.23-.79.26-1.4l.05-1.16c.03-.72.11-1.28.27-1.596.25-.57.73-.92 1.43-1.03a2.454 2.454 0 0 1 1.99.46c.57.4.95 1.09 1.1 2.01.17.85.09 1.6-.24 2.28-.32.66-.93 1.07-1.87 1.24l-.19-1.04c.44-.16.76-.31.98-.53.37-.41.48-1 .34-1.82-.11-.66-.34-1.09-.68-1.3-.34-.25-.68-.35-1.05-.28-.41.06-.68.29-.81.65-.08.25-.14.76-.2 1.54l-.05 1.2c-.03.57-.12 1.03-.31 1.35-.3.59-.81.95-1.55 1.07-.94.16-1.66-.06-2.18-.66-.53-.59-.85-1.29-1.02-2.17-.18-1.04-.05-1.85.37-2.5.43-.67 1.09-1.05 2-1.18m-.51 10.86l8.11-2.44 1.89 5.71-.99.32-1.54-4.69-2.46.746 1.43 4.33-.95.3-1.42-4.35-2.74.82 1.57 4.8-.97.273-1.92-5.82m3.6 9.903l7.46-3.956.8 1.39-5.127 5.42 7.49-1.28.77 1.38-7.44 3.93-.53-.91 4.4-2.31c.16-.09.4-.23.76-.42.35-.16.74-.37 1.13-.58l-7.45 1.27-.547-.97 5.09-5.4-.25.128c-.16.09-.44.22-.81.44a6.053 6.053 0 0 1-.82.44l-4.38 2.35-.54-.93m13.89 11c-.374-.08-.74-.3-1.104-.67l-1.58-1.63 2.11-1.97 1.59 1.62c.31.3.5.6.61.85.145.49 0 .93-.45 1.348-.4.37-.81.527-1.19.435m-5.99.75l2.6-2.39 1.85 1.87c.6.61 1.2.88 1.84.87a2.597 2.597 0 0 0 1.7-.75c.55-.49.82-1.07.82-1.69 0-.6-.28-1.17-.79-1.69l-2.65-2.71-6.17 5.66.8.8m7.46 6.63l4.47-7.01 5.29 3.21-.55.83-4.34-2.6-1.34 2.12 4 2.42-.52.8-4-2.41-1.52 2.37 4.4 2.642-.53.83-5.35-3.22m13.24-1.36l2.68.85c.38.11.65.26.84.42.34.326.43.79.23 1.355-.166.49-.42.81-.81.95-.35.06-.79.06-1.307-.1l-2.54-.81.89-2.67m-2.32 6.88l1.12-3.34 2.5.82c.45.12.77.28.93.44.305.28.4.69.245 1.2l-.37 1.33c-.083.326-.13.54-.162.64 0 .11 0 .22.02.29l1.32.43.08-.19c-.14-.11-.22-.31-.22-.56.03-.16.07-.4.16-.68l.32-1.07c.13-.47.18-.82.06-1.07a1.678 1.678 0 0 0-.54-.73c.42-.07.78-.2 1.083-.43.29-.25.53-.6.68-1.09.3-.89.13-1.63-.53-2.2-.33-.294-.8-.55-1.42-.78l-3.75-1.16-2.62 7.82 1.1.34m11.39-142.3" fill="#012a87"/>
<path d="M68.345 154.865c.97-2.337 9.948-8.71 39.41-5.918 0 0 4.98 3.04 7.906 2.65 1.67-.216-.98.103-3.15-1.706-2.22-1.8-2.69-5.51 2.38-5.42 5.05.13 23.95 1.2 24.3 2.9.34 1.72-9.99 2.44-13.83 2.34-3.85-.1-3.41 1.85.43 1.7 12-.43 25.09-4.65 38.92 5.13 1.65 1.19-4.17 1.38-8.67-.53 0 0-12.2.63-17.47-.23 0 0-4.05 3.3-9.33 2.98.69 1.71-1.95 8.1-18.55 3.29-2.74.84-12.73 2.52-11.64-.45-2.63 0-7.24.85-7.93-.65-.66-1.47 8.12-3.7 9.66-5.29 0 0-18.57.18-22.09-1.1 0 0-10.96 2.46-10.31.33" fill="#bc715f"/>
<path d="M74.3 180.876c.398-.538.557-1.508 1.404-1.483 1.84.49 3.09 3.856 5.354 1.673.803-.178 1.11.915 1.772 1.043.423 1.87 1.925-.38 3.047-.26 2.398-1.07 5.366-1.32 8.207-.79.085 1.83-1.35 3.85-3.153 4.9.04 1.84 1.72 3.03 1.69 4.88-.29.69-.05 1.78-1.1 2.01-1.33-.24-2.64-.38-3.74-1.13-.13-.14-.24-.4-.52-.31-.13.62.84 1.23 1.22 1.86-.67 1.14-1.78.1-2.71.11-.27.65-.01 1.48-.68 1.91-1.18-.04-1.42-1.32-2.14-1.96-.74.8.52 1.28.7 1.92-.45 2.41-.39 4.77-2.81 6.36l-1.62.8c-.44-1.22-.16-3.06-.46-4.33-.96 1.56-1.7 2.92-3.11 4.24-1.64-.54-2.6-2.48-2.96-4.08-.69-1.87-.29-4.11 1.18-5.47-.5-.98-2.22-.76-2.47-2.15-2.58-1.68-4.01 2.94-5.68.54-.54-2.25.11-5.04 1.73-6.71-.36-.92-1.56-.68-2.27-1.21-1.62-1.38-3.97-2.84-3.85-5.33 4.45-1.68 9.77-.45 13 2.93" fill="#008830"/>
<path d="M76.606 180.625c-.103 2.035 1.375.55 2.472 1.784-.86-.34-1.484 1.48-2.325.44l-.527.5c.306.7.9.79.282 1.55-.92.35-1.105-.81-1.534-1.26-.073-.2.14-.58-.196-.72-.52.44-1.067.6-1.784.53-.197-.4-.577-.91-.19-1.21.704-.95 1.796.34 2.33-.33.085-.59-.43-1.31.238-1.71.46.08 1.05-.17 1.24.4m5.49 1.67c.056.39-.202.94.313 1.22.67-.37 1.38-.09 1.766.57 0 .35.11.82-.36.99l-1.04-.2c.08-.2-.26-.33-.38-.53-.46-.14-.73.23-1.07.46.26.39.86.61.71 1.11-.61.61-.91-.53-1.59-.24-.46-.18.17-1.14-.55-1.42-.85 0-.28 1.41-1.38.86-.39-.44-.78-1.04-.35-1.54.46-.31 1.24-.23 1.63.17.67-.75.74-3.61 2.34-1.48m-6.85 2.95c.45.64-.1 1.52.47 2.23.9-1.67 1.76.36 2.83.2.33.4.11.95.17 1.4-1.31.35-2.9.76-4.07-.29l-.32.37c.7.64 1.35 1.37.8 2.45-.99.22-2.51.24-3.01-.78-.26-.84.6-1.45-.31-2.12-.65.81-.62 1.91-1.99 1.16-.84-.47-1.1-1.43-.67-2.24.89-1.39 2.43.04 3.39-.64.14-1.2-.3-2.24.79-2.9.94-.17 1.38.54 1.95 1.13" fill="#f9d90f"/>
<path d="M78.994 185.984c-.44 2.036-1.975-.104-2.692-.19.957-1.7 1.558.552 2.692.19m4.776 2.216c-1.067.3-.902-1.03-1.43-1.552l.412-.374c.387.467.68 1.307 1.02 1.926" fill="#fff"/>
<path d="M82.33 187.787c.305.705-.694 1.27.158 1.784.27-.22.602-.54.743-.66.73.22 1.58.35 2.09 1.07.55 1.5-.97 1.46-1.82 1.88l-.85-.03c.21-.41-.36-.59-.51-.88-.39-.09-.71.03-.93.36.19.95 1.35 1.69.16 2.54-1.01-.07-2.58.33-2.49-1.07-.38-.79 1.03-2.01-.47-2.06-.5 1.07-1.04 2.1-2.34 1.09l.16-1.52c1.24.04 2.71.26 3.26-1.13.36-1-.62-1.93.26-2.73 1.27-.28 1.98.56 2.62 1.4" fill="#f9d90f"/>
<path d="M81.422 190.074c.32.755-.54.804-.944 1.178-.546.043-.926-.172-1.257-.54-.24-.914.44-1.006.96-1.367.61-.252.86.453 1.25.73"/>
<path d="M80.677 190.568c-.135.178-.326.123-.528.17l-.2-.912c.4.037.93.165.72.742" fill="#fff"/>
</svg>
