<svg xmlns="http://www.w3.org/2000/svg" xmlns:xlink="http://www.w3.org/1999/xlink" viewBox="0 0 600 400">
<path fill="#3e5eb9" d="M0 0h600v400H0z"/>
<path fill="#ffd900" d="M0 75h600v250H0z"/>
<path fill="#b10c0c" d="M0 100h600v200H0z"/>
<g stroke="#000" stroke-width="1.008" fill="#ffd900">
<g id="a">
<path d="M492.85 154.28l-24.285 8.57 24.285 8.572 24.285-8.57-24.285-8.572z" fill="#fff"/>
<rect rx="3.106" ry="2.857" height="5.714" width="357.13" y="160" x="122.85"/>
<path d="M471.44 165.71c1.427 0 2.86-1.43 2.86-2.857s-1.432-2.857-2.86-2.857m-2.86 5.714c1.427 0 2.86-1.43 2.86-2.857s-1.432-2.857-2.86-2.857"/>
<path d="M465.72 165.71c1.427 0 2.86-1.43 2.86-2.857s-1.432-2.857-2.86-2.857"/>
</g>
<use y="17.15" x="-23.27" xlink:href="#a"/>
<rect rx="4.224" ry="4.286" height="8.571" width="485.7" y="195.72" x="59.812" stroke-width="1.08"/>
</g>
<path stroke="#000" stroke-width="1.008" d="M442.85 200c-28.57 28.57-66.668 85.71-142.86 85.71-66.668 0-114.28-57.14-142.86-85.71 28.57-28.574 76.188-85.716 142.86-85.716 76.188 0 114.28 57.142 142.86 85.716z" fill="#fff"/>
<path d="M290.02 144.1c7.6 8.55 1.254 11.996 9.3 12.557 8.485.623 3.675 9.034 10.812 9.326 4.99.218-.498 20.15 4.305 26.73 4.893 6.856 8.99 2.008 9.077 6.962.085 5.124-13.317 4.607-13.552 20.39-.393 9.096-11.31 9.678-11.83 15.53-.65 5.506 21.506 8.596 21.21 13.524-.304 4.91-23.922 4.14-24.95 9.74-.527 5.03 32.446 9.16 35.098 23.71-4.92 1.61-18.92 3.12-29.5 3.13-66.656.05-114.28-57.15-142.85-85.72 28.573-28.57 76.19-85.71 142.86-85.71 0 0-19.788 18.08-9.97 29.81z"/>
<g stroke="#FFF">
<g id="d" stroke-width="6.927">
<g id="c">
<path id="b" d="M213.93 192.38v-22.86m13.85 0v22.857m13.86-22.86v22.857"/>
<use y="38.1" xlink:href="#b"/>
</g>
<use x="41.56" xlink:href="#c"/>
</g>
</g>
<use x="104.76" xlink:href="#d" stroke="#000"/>
<g fill="#a70000">
<path stroke="#000" stroke-width=".855" d="M511.35 196.6c-4.328 7.496 3.32-2.493 21.985 10.056 3.46 2.33 6.48 8.49 6.48 12.76-.877-.588-1.53-1.895-2.496-2.744-1.36 1.357 1.29 7.577 1.68 10.517-2.92-1.64-2.64-2.41-3.61-4.42.19 2.42-.5 9.1.66 11.68-2.3-.66-2.15-2.51-3.35-2.88.81 2.91-.71 6.08-.31 9.35-1.35-1.33-2.78-2.37-3.4-2.91-.11 1.56-2.59 5.65-2.64 7.13-1.14-.69-1.45-1.76-1.64-2.49-1.42 1.78-6.46 8.36-6.78 10.36-3.88-3.43-13.83-11.78-15.12-16.21-1.15 2.51-2.8 3.36-6.08 5.2-1.29-7.03-6.13-14.92-3.54-20.94-1.84 1.08-3.34 2.17-5.18 3.51 1.73-10.17 10.58-22.1 23.32-28z" fill="#3d5da7"/>
<path d="M495.21 233.72c1.797-3.592 3.452-4.73 4.613-7.044 2.05-4.065 2.344-7.3 4.13-6.825s1.786 2.14-.53 6.14-3.415 4.85-8.213 7.74zm12.15 8.56c-.23-2.735.562-3.877.418-5.638-.247-3.1-1.514-5.226.134-5.377s2.418.906 2.423 4.03-.478 3.942-2.974 6.986zm9.22 5.36c-.72-3.818-.18-5.51-.642-7.97-.802-4.33-2.39-7.178-.862-7.574s2.45 1.004 3.027 5.393.273 5.59-1.523 10.15zm9.59-26.75c-2.252-1.71-3.566-1.824-5.018-2.922-2.558-1.927-3.852-3.99-4.675-2.966s-.24 2.144 2.442 3.922c2.68 1.778 3.58 1.918 7.25 1.966zm-1.59 12.67c-1.187-2.465-2.436-3.09-3.204-4.676-1.357-2.787-1.36-5.198-2.83-4.58s-1.59 1.88-.017 4.578c1.57 2.697 2.39 3.186 6.05 4.678z"/>
<path stroke="#000" stroke-width="1.067" d="M80.783 203.82c-.242-2.183.225-2.444-1.118-4.09 1.955.818 2.03 2.992 4.406 1.45.88-.453 1.26-.467.2-2.892 2.48.115 10.6 2.9 11.9 2.963 3.42.16 9.65-3.58 13.97 1.02 4.15 4.2 2.77 8.55 2.77 14.36-1.67-.8-.86-1.19-2.63-3.27 1.33 5.08-.07 14.24-.07 19.63-.68-1.3-.58-.73-1.24-2.08-1.77 4.92-3.89 5.93-3.89 11.74-.64-2.28-.02-1.79-.73-2.99-1.72 3.74-13.26 6.93-8.81 10.69-4.01-2.35-5.77-2.1-7.59-4.22-.78.51-1.4 1.47-2.13 2.78-7.05-3.24-4.53-10.25-10.06-14.93-.95 1.96-.52 1.68-1.55 4.87-1.12-4.43-1.42-7.25-2.68-10.51-1.09 1.81-.99 1.12-2.96 3.85-.82-5.4-2.15-6.67-1.62-10.25-2.1 1.48-.72.88-2.82 2.7 1.99-13.84 10.56-24.06 16.71-20.79z" fill="#3d5da7"/>
<path d="M72.1 226.41c1.82-4.456 3.458-5.855 4.633-8.724 2.075-5.042 2.413-9.073 4.156-8.458s1.71 2.69-.62 7.645-3.43 6.005-8.17 9.536zm6.885 11.15c.73-3.995 1.88-5.45 2.352-8.023.84-4.524.37-7.893 1.99-7.715 1.62.177 1.987 1.885.91 6.385-1.08 4.5-1.823 5.566-5.253 9.353zm8.235 7.75c.204-3.873 1.112-5.385 1.248-7.88.246-4.388-.6-7.53.946-7.547s2.095 1.56 1.622 5.953-1.045 5.49-3.817 9.474zm17.68-25.33c-3.38-3.368-5.425-3.997-7.606-6.163-3.842-3.804-5.698-7.376-7.066-6.11s-.545 3.164 3.5 6.784c4.045 3.62 5.452 4.15 11.172 5.49zM102.84 233c-2.202-3.382-3.818-4.258-5.24-6.434-2.507-3.824-3.37-7.11-4.79-6.296-1.422.814-1.104 2.53 1.613 6.238 2.717 3.706 3.81 4.388 8.417 6.493z"/>
<path stroke="#000" stroke-width=".826" d="M253.8 129.5c-3.958 7.655 6.93-2.546 23.998 10.27 3.163 2.38 7.697 11.786 7.697 16.146-3.634-.773-10.07-4.36-10.07-4.36s7.553 7.564 7.553 16.284c-2.668-1.668-4.003-1.418-4.89-3.466 0 2.823 2.373 4.622 2.373 8.982a35.292 35.292 0 0 0-5.18-3.46c2.52 4.36-4.58 12.818-1.03 15.64-6.22-.898-12.58-4.87-15.09-9.23-1.33.898-1.48 2.31-1.53 3.815.2.17-9.46-7.17-8.58-9.98-1.29 1.82-1.48 2.82-1.77 4.87-3.55-3.5-6.8-7-7.98-11.52-1.58 2.05-1.67 2.05-3.25 4.1-1.18-7.17-1.18-6.91 1.18-13.06-1.67 1.11-3.05 2.22-4.73 3.59 1.59-10.38 9.68-22.56 21.33-28.59z" fill="#3d5da7"/>
<path d="M244.04 166.9c.633-5.275 2.012-7.262 2.424-10.66.735-5.973-.137-10.34 1.98-10.23 2.117.11 2.727 2.315 1.68 8.277-1.046 5.96-1.93 7.41-6.084 12.614zm11.05 9.66c-.43-4.45.393-6.345.12-9.212-.47-5.044-2.028-8.46-.183-8.775s2.778 1.378 2.977 6.47-.294 6.45-2.915 11.517zm17.25 7.88c-1.876-3.85-3.488-5-4.7-7.478-2.138-4.356-2.585-7.913-4.235-7.27-1.65.646-1.56 2.486.824 6.75s3.46 5.134 8.11 7.998zm5.97-34.49c-4.778-2.515-7.232-2.547-10.31-4.163-5.423-2.834-8.58-6.035-9.7-4.273-1.12 1.762.376 3.514 5.966 6.09s7.307 2.698 14.045 2.346zm1.75 14.41c-3.48-2.894-5.536-3.32-7.78-5.182-3.953-3.267-5.92-6.476-7.24-5.175-1.32 1.3-.44 3.02 3.71 6.097s5.568 3.46 11.31 4.26z"/>
</g>
</svg>
