<svg id="turks_and_caicos_islands_flag" xmlns="http://www.w3.org/2000/svg" viewBox="0 0 1200 600">
<clipPath id="c">
<path d="m0 0v150h700v150h-100zm600 0h-300v350h-300v-50z"/>
</clipPath>
<rect width="1200" fill="#00247d" height="600"/>
<path stroke="#fff" stroke-width="60" d="m0 0 600 300m0-300-600 300"/>
<path stroke="#cf142b" stroke-width="40" d="m0 0 600 300m0-300-600 300" clip-path="url(#c)"/>
<path stroke="#fff" stroke-width="100" d="m300 0v350m-300-200h700"/>
<path stroke="#cf142b" stroke-width="60" d="m300 0v350m-300-200h700"/>
<path d="m0 300h600v-300h600v600h-1200z" fill="#00247d"/>
<path d="m1008.9 170.99v85.175c0 69.928-27.467 133.94-108.95 172.85-81.488-38.909-108.96-102.92-108.96-172.85v-85.175h217.91z" fill="#fff"/>
<path d="m1001.6 179.67v79.444c0 65.223-25.619 124.93-101.62 161.22-76.004-36.291-101.62-95.996-101.62-161.22v-79.444h203.25z" fill="#fdc300"/>
<g stroke="#000" stroke-width=".2604" fill="#ff9e3d">
<path d="m852.67 214.49c-1.4707-1.1034-3.0665-1.7776-5.2705-1.8388 0.48747-5.3944-3.4331-7.7237-6.2538-8.7046-2.8165-0.98088-3.7998-2.0843-4.2872-4.291-0.49163-2.2068-1.9624-3.5552-4.5372-4.2906-2.5748-0.73587-4.783-3.3102-5.7621-4.5365-0.9791-1.2259-1.3499-0.98088-2.0832 1.1034-0.73746 2.0843-3.6789 6.0074-0.98327 6.1303-1.9582 1.5934-3.0623 3.4327-1.8374 5.8845-1.3499 1.1034-2.329 2.6972-0.49164 3.3102 1.8416 0.61294 2.329 1.1034 2.454 1.5938-1.6541 0-2.0832 3.3102 1.8374 4.0456-0.85828 0.1225-1.2249 2.8197 0.37081 2.8197-2.2082 0-4.0497 3.3106-6.8662 3.3106-2.8206 0-4.2914 0.61253-4.4122 1.8388-0.12499 1.2259-1.5957 2.6968-2.329 3.3102 2.0832 0.24501 3.429 0 4.533-0.85837 1.1041-0.85838 2.9415-1.1034 4.1706-0.12251 1.2249 0.98088 3.7998 1.4709 5.0247 1.2259-2.6957 1.8393-4.658 4.291-4.9039 6.6203-0.24582 2.3297-1.8374 5.0265-3.6789 5.7624-1.8374 0.73545-4.2872 2.6972-5.1455 5.0265 2.329 5.762 5.633 7.1854 8.9453 8.7042 5.8871 2.6976 9.5619 4.659 12.016 7.3562 2.4498 2.6972 3.4331 0.73546 7.1079 5.394 3.6789 4.659 7.112 13.486 10.787 14.957 3.6789 1.4709 8.337 0.49044 11.033-4.1685 2.6998-4.6586 4.4164-51.736-9.4369-59.583z"/>
<path d="m858.92 194.87c-3.4331 3.6781-7.8495 7.3562-7.1121 13.976 0.73746 6.6203 1.4707 17.409-4.658 21.087-6.1288 3.6781-9.0703 12.996-1.7166 18.39 7.3537 5.3949 7.5995 12.015 8.8244 18.145 1.2291 6.1299 4.4164 11.034 9.3202 6.8654 4.8997 0.73545 7.5995-1.2259 7.5995-5.149s0.24582-6.1299 3.9206-7.3562c3.6789-1.2259 4.658-2.4522 6.3746-5.762 1.7166-3.3102 2.6957-4.7815 1.7166-6.7433-0.97911-1.9614-1.3499-6.007-0.61247-8.9496 0.73746-2.9422-0.9791-4.5361-1.9624-6.3749-0.97911-1.8388-1.3458-3.4327-0.85828-5.8849 0.49163-2.4522-0.73329-4.0456-2.4498-5.2719-1.7166-1.2259-2.454-2.4518-2.0832-4.4136 0.36665-1.9614-1.2291-3.1872-3.0665-4.6586-1.8374-1.4713-3.1873-3.4327-3.1873-6.3749 0-2.9426-5.6372-9.8084-10.049-11.525z" fill="#ff927f"/>
<path d="m860.27 274.93c8.212-2.0843 7.4787-15.57 6.2538-21.209-1.2291-5.6399-4.3789-13.717-1.9624-20.106 3.4331-9.0721-4.1706-17.654-2.2082-21.087 1.9624-3.4331 1.7166-5.2719 1.4708-6.3753-0.24166-1.1034-2.0832-1.9614-2.204 0.36793-0.125 2.3293-0.73746 3.1872-2.2082 4.6586s-1.1041 4.6586 0 8.2142c1.1041 3.5552 3.4331 8.95-0.24582 16.06-3.6748 7.1108-2.1624 10.279-0.73329 13.609 2.204 5.149 7.4787 23.049 1.8374 25.868z" fill="#ff9ee1"/>
<path d="m823.49 198.06c0.92077 0 2.6998-0.36835 2.6998 0.85796"/>
<path d="m821.65 203.94c1.1041-0.79712 3.0665 0.12251 5.0247-1.0421"/>
<path d="m823.62 208.85c1.4707 0 3.4331-0.0613 5.2705-1.5326"/>
<path d="m825.45 212.89c1.3499 0 3.8623-0.85796 4.4747-2.6356"/>
<path d="m825.82 215.71c2.6332-0.12251 6.1288 0.85838 6.6163-0.0613"/>
<path d="m825.94 224.42c1.8374-1.7163 6.1913-2.881 7.1704-4.6586"/>
<path d="m830.6 197.08c3.0623 0.9813 1.7957 2.8756 3.3081 4.046 2.6998 2.0843 0.24582 4.4136 2.454 5.0265 2.204 0.61294 2.1665 0.98546 1.5916 3.4327-0.67495 2.8814 2.0832 3.0035 1.1041 4.904"/>
<path d="m847.4 212.65c-1.2249 0-4.8414 0.12251-6.3746 3.3714"/>
<path d="m821.22 248.02c1.4124 0.24543 2.1165-0.55753 2.5123-1.3484 0.42914-0.85838 0.61247-1.4713 1.8999-1.5326 1.2874-0.0617 3.2498-0.42919 3.6789-1.4101 0.42914-0.98047 1.9624-0.0613 3.2498-2.636 1.2874-2.5743 2.1457-5.6394 5.5747-6.7428"/>
</g>
<g stroke="#000" stroke-width=".2604">
<g fill="#00a728">
<path d="m918.48 301.59c1.3874 2.0159-0.05 4.1952 2.304 5.0669 2.7582 1.0209 0.34998 4.6486 3.6039 5.927 2.8832 1.1342 0.0208 4.6023 3.1373 6.1599 2.7873 1.3946-0.46664 4.649 3.254 6.5087 3.7164 1.8593-0.69995 6.0432 2.0915 7.6704 2.7873 1.6272-0.92911 5.8111 2.3248 7.4383 3.254 1.6267-1.3957 4.8811 1.6249 7.2058 3.0206 2.3243-0.69579 5.8107 2.3249 7.9029 3.0206 2.0922-1.854 4.8857 1.1624 7.9033 2.3248 2.3243-0.83745 4.6006 0.92911 8.1354 1.1624 2.3243-1.1624 11.622-7.6704 10.692-2.3249 3.9519-11.387 7.4383-14.641 6.2762-3.254 2.3243-13.712 5.5786-19.061 0.46502-5.3413 5.1136-15.803 1.8593-19.057-0.46502-3.254 1.1621-12.316-2.3243-14.641-6.2762-6.5079 0.93004-8.8328-8.3679-7.6704-10.692 1.7666-3.5348-1.3958-5.8111 0.92911-8.1354 3.0165-3.0177-1.8582-5.8111 1.1624-7.9033s-0.69579-5.5786 2.3248-7.9029c3.0206-2.3247-1.6291-5.579 1.6249-7.2058 3.254-1.6272-0.46247-5.8111 2.3249-7.4383 2.7915-1.6272-1.6249-5.8111 2.0915-7.6704 3.7206-1.8597 0.46664-5.114 3.254-6.5087 3.1165-1.5576 0.25415-5.0257 3.1373-6.1599 3.254-1.2784 0.84578-4.9061 3.604-5.927 2.3915-0.88546 0.86661-3.1206 2.3748-5.1632 6.9204 2.7226 28.344 4.6765 37.156 0.0962z"/>
<path d="m887.54 302.24c-2.5582 2.5568 0.46664 4.4165-2.0915 7.4379-2.5582 3.0222-0.23332 4.649-2.3249 7.4383-2.0915 2.7893 0.92911 4.1844-1.3958 7.2058-2.3207 3.0218 0.46664 4.8815-2.0915 7.4383-2.554 2.5568 0.46663 4.8815-2.0915 7.6708-2.554 2.7893 0.46664 4.6486-2.0915 7.2054-2.554 2.5572 0.46664 5.3465-2.0915 7.9029-2.554 2.5572 0.46663 5.8111-2.3249 8.8334-2.7873 3.0214 0.46664 5.3457-1.8582 7.6704-2.3248 2.3243-0.23332 4.6486-1.8582 6.2757-1.6291 1.6272-1.8582 3.894-1.1624 4.8815"/>
<path d="m892.42 303.17c-2.3207 3.0218 1.1624 4.4165-0.92911 6.9733-2.0915 2.5572 0.92911 3.4868-0.69579 6.5087s1.1624 3.7189-0.92911 6.7408c-2.0915 3.0218 1.1624 5.3461-1.1624 8.3679-2.3249 3.0218 1.1624 4.6486-0.92911 7.6708-2.0915 3.0214 0.92911 4.6486-0.92911 6.9733-1.8624 2.3243 1.3916 4.6486-0.92911 7.4379-2.3248 2.7897 0.92911 4.8815-0.93327 7.4383-1.8582 2.5568 0.69995 5.3461-0.92911 7.4379-1.6249 2.0922 1.1624 5.114-1.1624 7.9033s0.46664 4.649-0.92911 6.5087c-1.3957 1.8593-2.4957 4.5906-1.1624 5.3461"/>
<path d="m899.86 305.96c-1.1583 4.8598 1.6291 9.18 0 13.23-1.6249 4.0502 1.1624 5.6703 0.23332 8.91-0.92911 3.2402 1.1624 5.6703-0.23332 9.18-1.3916 3.5102 1.8624 6.2099 0 10.8-1.8582 4.5902 1.1999 5.7328 0 10.26-1.3916 5.2657 2.3249 8.055 0 11.774-2.3207 3.7189 2.0957 4.649 0.23332 8.8325-1.8582 4.1844 1.1624 5.8111-0.23332 9.9955"/>
<path d="m912.18 302.24c2.5582 2.5568-0.46663 4.4165 2.0915 7.4379 2.5582 3.0222 0.23332 4.649 2.3249 7.4383 2.0915 2.7893-0.92911 4.1844 1.3957 7.2058 2.3207 3.0218-0.46664 4.8815 2.0915 7.4383 2.554 2.5568-0.46664 4.8815 2.0915 7.6708 2.554 2.7893-0.46664 4.6486 2.0915 7.2054 2.554 2.5572-0.46664 5.3465 2.0915 7.9029 2.554 2.5572-0.46664 5.8111 2.3248 8.8334 2.7873 3.0214-0.46663 5.3457 1.8582 7.6704 2.3249 2.3243 0.23332 4.6486 1.8582 6.2757 1.6291 1.6272 1.8624 3.894 1.1624 4.8815"/>
<path d="m907.3 303.17c2.3207 3.0218-1.1624 4.4165 0.92911 6.9733 2.0915 2.5572-0.92911 3.4868 0.69579 6.5087 1.6291 3.0218-1.1624 3.7189 0.92911 6.7408 2.0915 3.0218-1.1624 5.3461 1.1624 8.3679 2.3249 3.0218-1.1624 4.6486 0.92911 7.6708 2.0915 3.0214-0.92911 4.6486 0.92911 6.9733 1.8624 2.3243-1.3916 4.6486 0.93328 7.4379 2.3207 2.7897-0.93328 4.8815 0.92911 7.4383 1.8582 2.5568-0.69996 5.3461 0.92911 7.4379 1.6249 2.0922-1.1624 5.114 1.1624 7.9033 2.3249 2.7893-0.46663 4.649 0.92911 6.5087 1.3958 1.8593 2.4998 4.5906 1.1624 5.3461"/>
</g>
<g fill="#fcc300">
<path d="m884.12 313.74c0.004 1.0438-0.0208 2.0834-0.98744 3.3706-2.0915 2.7893 0.92911 4.1844-1.3958 7.2058-2.3207 3.0218 0.46664 4.8815-2.0915 7.4383-2.554 2.5568 0.46663 4.8815-2.0915 7.6708-2.554 2.7893 0.46664 4.6486-2.0915 7.2054-2.554 2.5572 0.46664 5.3465-2.0915 7.9029-2.554 2.5572 0.46663 5.8111-2.3249 8.8334-2.7873 3.0214 0.46664 5.3457-1.8582 7.6704-2.3248 2.3243-0.23332 4.6486-1.8582 6.2757 2.7873-2.0918 2.7873-5.3457 4.8789-6.9728 2.0915-1.6276-0.69579-3.9519 0.46664-5.114 1.1624-1.1622 0.23331-6.0436 2.3248-8.3679 2.0915-2.3247 0.23332-6.9733 2.0915-8.6004 1.8582-1.6272 0.46247-6.5082 2.7873-8.1354s0-5.5786 1.8582-7.6708c1.8624-2.0918 0-5.3461 1.8624-7.9029 1.8582-2.5568 0.0833-4.8782 1.3916-6.9733 0.58329-0.92963 0.58329-7.6704-0.87078-3.8356z"/>
<path d="m890.8 316.65c-1.6249 3.0218 1.1624 3.7189-0.92911 6.7408-2.0915 3.0218 1.1624 5.3461-1.1624 8.3679-2.3249 3.0218 1.1624 4.6486-0.92911 7.6708-2.0915 3.0214 0.92911 4.6486-0.92911 6.9733-1.8624 2.3243 1.3916 4.6486-0.92911 7.4379-2.3248 2.7897 0.92911 4.8815-0.93327 7.4383-1.8582 2.5568 0.69995 5.3461-0.92911 7.4379-1.6249 2.0922 1.1624 5.114-1.1624 7.9033s0.46664 4.649-0.92911 6.5087c2.7915-0.93004 1.7457-4.7652 2.7915-5.5786 1.0458-0.81379-0.34998-6.1599 1.2749-7.5546 1.6291-1.3946-1.0458-5.697 0.46663-7.5545 2.5582-3.1377 0.34998-5.2298 1.8582-7.6704 1.5124-2.441-0.57496-5.574 0.5833-7.2058 1.9749-2.7893-0.87495-5.3036 0.57913-7.322 2.0915-2.9056-0.40414-5.2982 1.0458-7.2058 2.2082-2.9056-0.23332-5.8111 0.69995-7.322 0.92911-1.5109 2.4374-8.0192-0.46663-9.065z"/>
<path d="m899.86 319.19c-1.6249 4.0502 1.1624 5.6703 0.23332 8.91-0.92911 3.2402 1.1624 5.6703-0.23332 9.18-1.3916 3.5102 1.8624 6.2099 0 10.8-1.8582 4.5902 1.1999 5.7328 0 10.26-1.3916 5.2657 2.3249 8.055 0 11.774-2.3207 3.7189 2.6623 4.9502 0.23332 8.8325-1.1624 1.8597 0.11666 6.6249 1.9749 0.93004 1.8624-5.6949-1.3916-6.392 0.23332-8.7167 1.6291-2.3247-0.57913-8.4842 0.11666-11.738 0.69996-3.2543-1.6249-7.6708-0.11666-11.157 1.5124-3.4864-2.3249-7.2054-0.81245-10.228 1.5124-3.0214-0.69579-6.7408 0.69579-9.1813 1.3958-2.4405-1.0458-5.6949-0.46247-7.0895 0.57913-1.3947-0.5833-6.547-1.8624-2.5764z"/>
</g>
<path d="m917.29 304.33c0-26.266-3.7164-35.331-17.432-35.331-13.712 0-17.428 9.065-17.428 35.331h34.86z" fill="#ef072d"/>
<path d="m882.43 304.33c0-26.266 3.7164-35.331 17.428-35.331-6.2746 0-10.108 4.8807-11.154 8.135-1.0458 3.2543-0.46664 3.0218 0.92911 1.7434s0.69579 1.5109-0.46247 3.0218c-1.1624 1.5109-2.3249 5.8111-0.69996 4.4165 1.6291-1.3946 2.904 0.23252 1.1624 2.6731-1.7416 2.4405-3.254 8.1354-1.5124 6.1599 1.7457-1.9759 2.0915 1.2784 1.0499 2.9056-1.0499 1.6272-0.93328 3.0214 0 2.3243 0.92911-0.69711 0.81245 2.673-0.11666 3.9514h-6.6246z"/>
<path d="m914.62 302.82c0-20.571-2.554-26.731-7.6662-28.823-2.8957-1.1863-2.979-0.92963-1.5957 0.92963 1.3832 1.8593 1.1708 4.5327-0.10832 2.673-1.2749-1.8593-1.6999-2.208-2.2332-1.3942-0.5333 0.81337 1.4874 4.6486 2.979 8.1354 1.1999 2.8043 0.42498 4.1835-1.3832 1.3942s-1.8082-0.26251-0.22082 2.0922c2.0374 3.0218 1.9749 12.203 1.9749 16.038l8.2537-1.0459z"/>
<path d="m899.86 308.17c5.4622 0 11.441-0.97338 15.457-2.533 4.7664-1.8505 5.0205-3.4764 3.3706-5.5524-1.1624-1.4613-3.7206-0.5842-6.158 0.4871-2.4415 1.0713-9.1828 1.7534-12.67 1.7534-3.4831 0-10.224-0.68211-12.666-1.7534-2.4373-1.0713-4.9955-1.9484-6.158-0.4871-1.6499 2.0759-1.3957 3.7018 3.3706 5.5524 4.0122 1.5597 9.9952 2.533 15.453 2.533z" fill="#ef072d"/>
</g>
<g stroke="#000" stroke-width=".2976" fill="#b95a1e">
<path d="m952.86 273.39s3.5776 6.1765 6.2016 10.679c2.6236 4.5016 4.7498 5.5272 6.65 4.1919 1.8998-1.3359 0.28699-5.005-1.2351-6.746-1.5224-1.7416-9.8923-9.9117-9.8923-9.9117l-1.7242 1.7871z"/>
<path d="m952 273.87s1.4176 7.0815 2.4661 12.249c1.0484 5.1669 2.728 6.882 4.9418 6.2921 2.2136-0.59058 1.8546-4.6169 0.97094-6.7938-0.88385-2.1776-6.1879-12.825-6.1879-12.825l-2.191 1.0777z"/>
<path d="m950.5 274.09s-0.008 7.2376 0 12.522c0.008 5.2838 1.3132 7.3294 3.5949 7.2372 2.2817-0.0929 2.7235-4.1101 2.2877-6.4331-0.43573-2.3237-3.5272-13.901-3.5272-13.901l-2.3554 0.57443z"/>
<path d="m948.15 273.39s-3.5776 6.1765-6.2016 10.679c-2.6236 4.5016-4.7498 5.5272-6.65 4.1919-1.8998-1.3359-0.28699-5.005 1.2351-6.746 1.5224-1.7416 9.8923-9.9117 9.8923-9.9117l1.7242 1.7871z"/>
<path d="m949 273.87s-1.4176 7.0815-2.4661 12.249c-1.0484 5.1669-2.728 6.882-4.9418 6.2921-2.2136-0.59058-1.8546-4.6169-0.97094-6.7938 0.88385-2.1776 6.1879-12.825 6.1879-12.825l2.191 1.0777z"/>
<path d="m950.5 274.09s0.008 7.2376 0 12.522c-0.008 5.2838-1.3132 7.3294-3.5949 7.2372-2.2817-0.0929-2.7235-4.1101-2.2877-6.4331 0.43573-2.3237 3.5272-13.901 3.5272-13.901l2.3554 0.57443z"/>
<path d="m954.46 218.4s5.8266-6.1888 16.023-12.378c10.196-6.1887 17.573-10.949 18.936-9.902 0 1.2378-8.7399 7.4265-16.023 12.378-7.2831 4.951-16.023 12.378-16.023 12.378l-2.9133-2.4755z"/>
<path d="m955.14 223.35s5.7595-3.6347 16.804-8.6642c10.872-4.4656 26.219-3.7133 26.219-2.4755-1.4561 1.2377-14.566 1.2377-23.306 4.951-8.3426 3.5443-16.804 8.6643-16.804 8.6643l-2.9133-2.4755z"/>
<path d="m955.2 231.88s5.0709-2.45 16.804-6.1888c11.652-3.7132 27.122-1.2378 27.122 0-1.4561 1.2377-14.013 0.48543-22.753 2.4755-9.0436 1.9392-18.26 6.1888-18.26 6.1888l-2.9133-2.4755z"/>
<path d="m955.76 240.54s5.8441-4.9587 18.292-6.1888c12.524-1.2377 22.721 6.1888 22.721 7.4265-1.4561 1.2378-13.11-5.4476-21.85-4.4915-9.2594 0.95395-16.25 5.7292-16.25 5.7292l-2.9133-2.4755z"/>
<path d="m952.86 213.3s9.39-6.1888 9.39-11.14c0-4.951-4.1397-9.902-5.3134-12.378 2.3475 0 7.6609 7.4265 7.6609 12.378 0 5.4105-8.8241 13.615-8.8241 13.615l-2.9133-2.4755z"/>
<path d="m952.86 213.3s-1.1738-3.7132-1.1738-11.14c0-8.6643 5.1799-14.175 7.0424-16.091 0.48494 1.9158-4.6949 8.6643-4.6949 16.091 0 5.4105 1.7395 13.615 1.7395 13.615l-2.9133-2.4755z"/>
<path d="m946.54 218.4s-5.8266-6.1888-16.023-12.378c-10.196-6.1887-17.573-10.949-18.936-9.902 0 1.2378 8.7399 7.4265 16.023 12.378 7.2831 4.951 16.023 12.378 16.023 12.378l2.9133-2.4755z"/>
<path d="m945.86 223.35s-5.7595-3.6347-16.804-8.6642c-10.872-4.4656-26.219-3.7133-26.219-2.4755 1.4561 1.2377 14.566 1.2377 23.306 4.951 8.3426 3.5443 16.804 8.6643 16.804 8.6643l2.9133-2.4755z"/>
<path d="m945.8 231.88s-5.0709-2.45-16.804-6.1888c-11.652-3.7132-27.122-1.2378-27.122 0 1.4561 1.2377 14.013 0.48543 22.753 2.4755 9.0436 1.9392 18.26 6.1888 18.26 6.1888l2.9133-2.4755z"/>
<path d="m945.25 240.54s-5.8441-4.9587-18.292-6.1888c-12.524-1.2377-22.721 6.1888-22.721 7.4265 1.4561 1.2378 13.11-5.4476 21.85-4.4915 9.2594 0.95395 16.25 5.7292 16.25 5.7292l2.9133-2.4755z"/>
<path d="m948.15 213.3s-9.39-6.1888-9.39-11.14c0-4.951 4.1397-9.902 5.3134-12.378-2.3475 0-7.6609 7.4265-7.6609 12.378 0 5.4105 8.8241 13.615 8.8241 13.615l2.9133-2.4755z"/>
<path d="m948.15 213.3s1.1738-3.7132 1.1738-11.14c0-8.6643-5.1799-14.175-7.0424-16.091-0.48494 1.9158 4.6949 8.6643 4.6949 16.091 0 5.4105-1.7395 13.615-1.7395 13.615l2.9133-2.4755z"/>
<g stroke="#fdc301" stroke-width=".7501">
<path d="m981.02 302.42c-3.6481-8.5458-4.695-23.517-4.695-25.993 0-6.9712 2.1828-40.878 2.3475-54.461 0.16463-13.583-8.2161-21.042-16.432-21.042-7.0424 0-11.737 4.951-11.737 12.378h3.5212c0-4.951 3.5212-8.6642 8.2162-8.6642 7.0424 0 12.455 5.8504 12.911 17.328 0.50384 13.266-1.4122 47.713-1.1738 56.936 0.23844 9.2237 3.3943 17.447 7.0424 23.517z"/>
<path d="m919.98 302.42c3.6481-8.5458 4.695-23.517 4.695-25.993 0-6.9712-2.1828-40.878-2.3475-54.461-0.16463-13.583 8.2161-21.042 16.432-21.042 7.0424 0 11.737 4.951 11.737 12.378h-3.5212c0-4.951-3.5212-8.6642-8.2162-8.6642-7.0424 0-12.455 5.8504-12.911 17.328-0.50384 13.266 1.4122 47.713 1.1738 56.936-0.23844 9.2237-3.3943 17.447-7.0424 23.517z"/>
</g>
<path d="m950.51 273.95c6.5604-0.0974 7.2839-2.4754 7.2839-2.4754s1.4567-4.951 0.72837-6.1888c-0.72841-1.2377-8.0123-1.2377-8.0123-1.2377v9.902z"/>
<path d="m950.51 269c7.0424 0 8.2162-2.4754 8.2162-2.4754s2.3473-4.951 1.1737-6.1888c-1.1738-1.2377-9.3899-1.2377-9.3899-1.2377v9.902z"/>
<path d="m950.51 264.05c5.8687 0 9.39-2.4755 9.39-2.4755s2.3473-4.951 1.1737-6.1888c-1.1738-1.2377-10.564-1.2376-10.564-1.2376v9.902z"/>
<path d="m950.51 257.86c10.572-0.0974 10.564-3.1794 10.564-3.1794s2.3473-4.951 1.1737-6.1888c-1.1738-1.2377-11.737-0.53376-11.737-0.53376v9.902z"/>
<path d="m950.51 252.91c10.572-0.0974 11.737-2.4754 11.737-2.4754s2.3473-4.951 1.1737-6.1888c-1.1738-1.2377-12.911-1.2377-12.911-1.2377v9.902z"/>
<path d="m950.51 246.72c10.572-0.0974 12.911-2.4755 12.911-2.4755s2.3473-4.951 1.1737-6.1888c-1.1738-1.2377-14.085-1.2377-14.085-1.2377v9.902z"/>
<path d="m950.51 240.54c10.572-0.0974 14.085-2.4755 14.085-2.4755s1.1736-4.951 0-6.1888c-1.1738-1.2377-14.085-1.2377-14.085-1.2377v9.902z"/>
<path d="m950.51 234.35c10.572-0.0974 14.085-2.4755 14.085-2.4755s0-4.951-1.1737-6.1888c-1.1738-1.2377-12.911-1.2377-12.911-1.2377v9.902z"/>
<path d="m950.51 228.16c10.572-0.0974 12.911-2.4755 12.911-2.4755s0-4.951-1.1737-6.1888c-1.1738-1.2377-11.737-1.2377-11.737-1.2377v9.902z"/>
<path d="m950.51 212.63c8.2242 0.01 11.777 7.1533 11.757 7.0076l-2.3674 2.3298c-1.2578 1.2378-9.3899 1.2378-9.2889 1.2314l-0.10097-10.569z"/>
<path d="m950.5 273.95c-6.5604-0.0974-7.2839-2.4754-7.2839-2.4754s-1.4567-4.951-0.72837-6.1888c0.72841-1.2377 8.0123-1.2377 8.0123-1.2377v9.902z"/>
<path d="m950.5 269c-7.0424 0-8.2162-2.4754-8.2162-2.4754s-2.3473-4.951-1.1737-6.1888c1.1738-1.2377 9.3899-1.2377 9.3899-1.2377v9.902z"/>
<path d="m950.5 264.05c-5.8687 0-9.39-2.4755-9.39-2.4755s-2.3473-4.951-1.1737-6.1888c1.1738-1.2377 10.564-1.2376 10.564-1.2376v9.902z"/>
<path d="m950.5 257.86c-10.572-0.0974-10.564-3.1794-10.564-3.1794s-2.3473-4.951-1.1737-6.1888c1.1738-1.2377 11.737-0.53376 11.737-0.53376v9.902z"/>
<path d="m950.5 252.91c-10.572-0.0974-11.737-2.4754-11.737-2.4754s-2.3473-4.951-1.1737-6.1888c1.1738-1.2377 12.911-1.2377 12.911-1.2377v9.902z"/>
<path d="m950.5 246.72c-10.572-0.0974-12.911-2.4755-12.911-2.4755s-2.3473-4.951-1.1737-6.1888c1.1738-1.2377 14.085-1.2377 14.085-1.2377v9.902z"/>
<path d="m950.5 240.54c-10.572-0.0974-14.085-2.4755-14.085-2.4755s-1.1736-4.951 0-6.1888c1.1738-1.2377 14.085-1.2377 14.085-1.2377v9.902z"/>
<path d="m950.5 234.35c-10.572-0.0974-14.085-2.4755-14.085-2.4755s0-4.951 1.1737-6.1888c1.1738-1.2377 12.911-1.2377 12.911-1.2377v9.902z"/>
<path d="m950.5 228.16c-10.572-0.0974-12.911-2.4755-12.911-2.4755s0-4.951 1.1737-6.1888c1.1738-1.2377 11.737-1.2377 11.737-1.2377v9.902z"/>
<path d="m950.5 212.63c-8.2242 0.01-11.777 7.1533-11.757 7.0076l2.3674 2.3298c1.2578 1.2378 9.3899 1.2378 9.2889 1.2314l0.10097-10.569z"/>
</g>
</svg>
