<svg xmlns="http://www.w3.org/2000/svg" viewBox="0 0 1200 600">
<clipPath id="a">
<path d="M0 0v150h700v150H600zm600 0H300v350H0v-50z"/>
</clipPath>
<path fill="#00247d" d="M0 0h1200v600H0z"/>
<path stroke="#fff" stroke-width="60" d="M0 0l600 300m0-300L0 300"/>
<path stroke="#cf142b" stroke-width="40" d="M0 0l600 300m0-300L0 300" clip-path="url(#a)"/>
<path stroke="#fff" stroke-width="100" d="M300 0v350M0 150h700"/>
<path stroke="#cf142b" stroke-width="60" d="M300 0v350M0 150h700"/>
<path d="M0 300h600V0h600v600H0z" fill="#00247d"/>
<path d="M1008.9 170.99v85.175c0 69.928-27.467 133.94-108.95 172.85-81.488-38.91-108.96-102.92-108.96-172.85V170.99h217.91z" fill="#fff"/>
<path d="M1001.6 179.67v79.444c0 65.223-25.62 124.93-101.62 161.22-76.004-36.29-101.62-95.996-101.62-161.22V179.67h203.25z" fill="#fdc300"/>
<g stroke="#000" stroke-width=".26" fill="#ff9e3d">
<path d="M852.67 214.49c-1.47-1.103-3.067-1.778-5.27-1.84.487-5.393-3.434-7.722-6.254-8.703-2.817-.98-3.8-2.085-4.287-4.29-.5-2.208-1.97-3.557-4.54-4.292-2.58-.736-4.79-3.31-5.76-4.537-.98-1.225-1.35-.98-2.09 1.104-.74 2.084-3.68 6.007-.99 6.13-1.96 1.594-3.07 3.433-1.84 5.885-1.35 1.103-2.33 2.697-.49 3.31s2.32 1.103 2.45 1.594c-1.66 0-2.09 3.31 1.83 4.05-.86.13-1.23 2.82.37 2.82-2.21 0-4.05 3.31-6.87 3.31-2.82 0-4.29.62-4.42 1.84-.13 1.23-1.6 2.7-2.33 3.31 2.08.25 3.43 0 4.53-.86 1.1-.85 2.94-1.1 4.17-.12 1.22.98 3.8 1.47 5.02 1.23-2.7 1.84-4.66 4.29-4.9 6.62-.25 2.33-1.84 5.03-3.68 5.77-1.84.74-4.29 2.7-5.14 5.03 2.32 5.76 5.63 7.19 8.94 8.71 5.89 2.7 9.56 4.66 12.02 7.36 2.45 2.7 3.43.74 7.11 5.39 3.68 4.66 7.11 13.49 10.78 14.96 3.68 1.47 8.33.49 11.03-4.16 2.7-4.66 4.41-51.74-9.44-59.58z"/>
<path d="M858.92 194.87c-3.433 3.678-7.85 7.356-7.112 13.976.737 6.62 1.47 17.41-4.658 21.087-6.13 3.678-9.07 12.996-1.717 18.39 7.354 5.395 7.6 12.015 8.825 18.145 1.23 6.13 4.416 11.034 9.32 6.865 4.9.736 7.6-1.226 7.6-5.15s.245-6.13 3.92-7.355c3.68-1.226 4.658-2.452 6.375-5.762 1.716-3.31 2.695-4.78 1.716-6.743-.98-1.962-1.35-6.007-.62-8.95.73-2.942-.98-4.536-1.97-6.375-.98-1.838-1.35-3.432-.86-5.885.49-2.452-.74-4.045-2.45-5.27-1.72-1.227-2.46-2.453-2.09-4.415.36-1.96-1.23-3.187-3.07-4.66-1.84-1.47-3.19-3.43-3.19-6.374 0-2.942-5.64-9.808-10.05-11.525z" fill="#ff927f"/>
<path d="M860.27 274.93c8.212-2.084 7.48-15.57 6.254-21.21-1.23-5.64-4.38-13.716-1.963-20.105 3.44-9.072-4.17-17.654-2.2-21.087s1.72-5.272 1.47-6.375c-.24-1.104-2.08-1.962-2.2.368-.12 2.33-.73 3.19-2.2 4.66s-1.1 4.66 0 8.22c1.11 3.56 3.44 8.95-.24 16.06-3.67 7.11-2.16 10.28-.73 13.61 2.21 5.15 7.48 23.05 1.84 25.87z" fill="#ff9ee1"/>
<path d="M823.49 198.06c.92 0 2.7-.368 2.7.858m-4.54 5.022c1.104-.797 3.067.123 5.025-1.042m-3.055 5.952c1.47 0 3.433-.06 5.27-1.533m-3.44 5.573c1.35 0 3.862-.858 4.475-2.636m-4.105 5.456c2.633-.123 6.13.858 6.616-.06m-6.496 8.77c1.837-1.716 6.19-2.88 7.17-4.66m-2.51-22.68c3.062.98 1.796 2.876 3.308 4.046 2.7 2.084.246 4.414 2.454 5.027 2.204.612 2.167.985 1.592 3.432-.675 2.882 2.083 3.004 1.104 4.904m8.342-1.84c-1.225 0-4.84.12-6.375 3.37m-19.805 32c1.412.24 2.116-.56 2.512-1.35.43-.86.613-1.47 1.9-1.54 1.288-.07 3.25-.43 3.68-1.41.428-.99 1.96-.07 3.25-2.64 1.286-2.58 2.145-5.64 5.574-6.75"/>
</g>
<g stroke="#000" stroke-width=".26">
<g fill="#00a728">
<path d="M918.48 301.59c1.387 2.016-.05 4.195 2.304 5.067 2.758 1.02.35 4.648 3.604 5.927 2.883 1.134.02 4.602 3.137 6.16 2.787 1.394-.466 4.65 3.254 6.508 3.71 1.86-.7 6.044 2.09 7.67 2.78 1.628-.93 5.812 2.32 7.44 3.25 1.626-1.4 4.88 1.62 7.205 3.02 2.324-.7 5.81 2.32 7.903 3.02 2.092-1.86 4.886 1.16 7.903 2.32 2.324-.84 4.6.93 8.136 1.16 2.32-1.17 11.62-7.67 10.69-2.33 3.95-11.39 7.44-14.64 6.27-3.26 2.32-13.72 5.58-19.06.46-5.34 5.11-15.81 1.86-19.06-.47-3.26 1.16-12.32-2.33-14.64-6.28-6.51.93-8.83-8.37-7.67-10.69 1.76-3.54-1.4-5.82.93-8.14 3.01-3.02-1.86-5.81 1.16-7.91s-.7-5.58 2.32-7.91c3.02-2.33-1.63-5.58 1.62-7.21s-.46-5.81 2.33-7.44-1.63-5.81 2.09-7.67c3.72-1.86.46-5.12 3.25-6.51 3.12-1.56.25-5.03 3.14-6.16 3.25-1.28.84-4.91 3.6-5.93 2.39-.89.86-3.12 2.37-5.17 6.92 2.72 28.34 4.67 37.15.09z"/>
<path d="M887.54 302.24c-2.558 2.557.467 4.417-2.09 7.438-2.56 3.022-.236 4.65-2.327 7.438-2.092 2.79.93 4.185-1.396 7.206-2.32 3.022.466 4.882-2.092 7.438-2.554 2.557.467 4.882-2.09 7.67-2.555 2.79.465 4.65-2.093 7.207-2.554 2.557.467 5.346-2.09 7.902-2.555 2.55.465 5.81-2.326 8.83-2.787 3.02.467 5.34-1.858 7.67-2.326 2.32-.235 4.65-1.86 6.27-1.63 1.62-1.858 3.89-1.162 4.88m26.264-79.03c-2.32 3.02 1.162 4.41-.93 6.97-2.09 2.55.93 3.48-.695 6.51s1.162 3.71-.93 6.74c-2.09 3.02 1.163 5.34-1.16 8.36-2.326 3.02 1.16 4.65-.93 7.67-2.092 3.02.93 4.65-.93 6.97-1.862 2.32 1.392 4.65-.93 7.44-2.324 2.79.93 4.88-.932 7.44-1.858 2.55.7 5.34-.93 7.44-1.624 2.09 1.163 5.11-1.162 7.9s.47 4.65-.92 6.51c-1.39 1.86-2.49 4.59-1.16 5.34m19.06-82.52c-1.16 4.86 1.63 9.18 0 13.23-1.62 4.05 1.16 5.67.24 8.91-.93 3.24 1.17 5.67-.23 9.18-1.39 3.51 1.86 6.21 0 10.8-1.86 4.59 1.2 5.73 0 10.26-1.39 5.26 2.33 8.05 0 11.77-2.32 3.72 2.1 4.65.24 8.83s1.16 5.81-.23 9.99m12.32-86.7c2.56 2.56-.46 4.42 2.09 7.44 2.56 3.02.24 4.65 2.33 7.44s-.93 4.18 1.4 7.2c2.32 3.02-.47 4.88 2.09 7.44 2.56 2.56-.46 4.88 2.09 7.67s-.46 4.65 2.1 7.21c2.56 2.56-.46 5.34 2.09 7.9s-.46 5.81 2.33 8.83c2.79 3.02-.46 5.34 1.86 7.67 2.33 2.32.23 4.65 1.86 6.27 1.63 1.62 1.86 3.89 1.16 4.88m-26.27-79.02c2.32 3.02-1.16 4.42.93 6.97 2.09 2.56-.93 3.49.7 6.51 1.63 3.02-1.16 3.72.93 6.74s-1.16 5.35 1.16 8.37c2.33 3.03-1.16 4.65.93 7.67 2.1 3.03-.93 4.65.93 6.98 1.87 2.33-1.39 4.65.94 7.44 2.32 2.79-.93 4.88.93 7.44 1.86 2.56-.7 5.35.93 7.44 1.63 2.09-1.16 5.11 1.16 7.9s-.47 4.65.93 6.51c1.4 1.86 2.5 4.59 1.16 5.35"/>
</g>
<path d="M884.12 313.74c.004 1.044-.02 2.083-.987 3.37-2.092 2.79.93 4.185-1.396 7.206-2.32 3.022.466 4.882-2.092 7.44-2.554 2.556.467 4.88-2.09 7.67-2.555 2.79.465 4.648-2.093 7.205-2.554 2.56.467 5.35-2.09 7.91-2.555 2.56.465 5.81-2.326 8.84-2.787 3.02.467 5.35-1.858 7.67-2.325 2.33-.234 4.65-1.86 6.28 2.79-2.09 2.79-5.34 4.88-6.97 2.092-1.62-.695-3.95.467-5.11 1.162-1.16.233-6.04 2.325-8.37 2.09-2.32.233-6.97 2.09-8.6 1.86-1.63.464-6.51 2.79-8.13s0-5.58 1.857-7.67c1.862-2.09 0-5.34 1.862-7.9 1.85-2.56.08-4.88 1.39-6.97.58-.93.58-7.67-.87-3.83zm6.68 2.91c-1.625 3.022 1.162 3.72-.93 6.74-2.09 3.023 1.163 5.347-1.162 8.37-2.324 3.02 1.163 4.647-.93 7.67-2.09 3.02.93 4.648-.928 6.973-1.862 2.324 1.392 4.648-.93 7.438-2.324 2.79.93 4.89-.932 7.44-1.858 2.56.7 5.35-.93 7.44-1.624 2.09 1.163 5.12-1.162 7.91s.467 4.65-.93 6.51c2.793-.93 1.747-4.76 2.793-5.58 1.04-.81-.35-6.16 1.27-7.55 1.63-1.39-1.05-5.69.46-7.55 2.55-3.13.35-5.23 1.85-7.67 1.51-2.44-.58-5.57.58-7.2 1.97-2.79-.88-5.3.58-7.32 2.09-2.9-.41-5.3 1.04-7.2 2.21-2.9-.24-5.81.7-7.32.93-1.51 2.43-8.02-.47-9.06zm9.06 2.54c-1.625 4.05 1.162 5.67.233 8.91-.93 3.24 1.163 5.67-.233 9.18-1.392 3.51 1.862 6.21 0 10.8-1.858 4.59 1.2 5.733 0 10.26-1.392 5.266 2.325 8.055 0 11.774-2.32 3.72 2.662 4.95.233 8.833-1.162 1.86.117 6.624 1.975.93 1.863-5.695-1.39-6.392.234-8.717 1.63-2.325-.58-8.484.116-11.738.7-3.254-1.625-7.67-.116-11.157 1.512-3.487-2.325-7.206-.813-10.228 1.51-3.022-.7-6.74.69-9.18 1.39-2.442-1.05-5.696-.47-7.09.58-1.396-.59-6.548-1.86-2.577z" fill="#fcc300"/>
<path d="M917.29 304.33c0-26.266-3.716-35.33-17.432-35.33-13.712 0-17.428 9.064-17.428 35.33h34.86z" fill="#ef072d"/>
<path d="M882.43 304.33c0-26.266 3.716-35.33 17.428-35.33-6.275 0-10.108 4.88-11.154 8.134-1.046 3.254-.467 3.022.93 1.743s.695 1.51-.463 3.022c-1.16 1.51-2.32 5.81-.7 4.41 1.63-1.4 2.91.23 1.17 2.67-1.74 2.44-3.25 8.13-1.51 6.16 1.75-1.98 2.09 1.27 1.05 2.9-1.05 1.62-.93 3.02 0 2.32.93-.7.82 2.67-.11 3.95h-6.62zm32.19-1.51c0-20.57-2.554-26.73-7.666-28.823-2.896-1.186-2.98-.93-1.596.93 1.383 1.86 1.17 4.532-.108 2.673-1.275-1.86-1.7-2.208-2.233-1.395-.534.814 1.487 4.65 2.98 8.136 1.198 2.81.424 4.19-1.385 1.4s-1.808-.26-.22 2.09c2.037 3.02 1.974 12.21 1.974 16.04l8.254-1.04z"/>
<path d="M899.86 308.17c5.462 0 11.44-.973 15.457-2.533 4.766-1.85 5.02-3.476 3.37-5.552-1.162-1.462-3.72-.585-6.157.487-2.442 1.07-9.183 1.753-12.67 1.753-3.484 0-10.224-.682-12.666-1.753-2.438-1.072-4.996-1.95-6.158-.487-1.65 2.076-1.396 3.7 3.37 5.552 4.012 1.56 9.995 2.533 15.453 2.533z" fill="#ef072d"/>
</g>
<g stroke="#000" stroke-width=".298" fill="#b95a1e">
<path d="M952.86 273.39s3.578 6.176 6.202 10.68c2.623 4.5 4.75 5.526 6.65 4.19 1.9-1.335.287-5.004-1.236-6.745-1.522-1.742-9.892-9.912-9.892-9.912l-1.724 1.787z"/>
<path d="M952 273.87s1.418 7.082 2.466 12.25c1.048 5.166 2.728 6.88 4.942 6.29 2.213-.59 1.854-4.616.97-6.793-.883-2.177-6.187-12.825-6.187-12.825L952 273.87z"/>
<path d="M950.5 274.09s-.008 7.238 0 12.522 1.313 7.33 3.595 7.237c2.282-.1 2.723-4.11 2.288-6.44-.436-2.33-3.528-13.9-3.528-13.9l-2.355.57zm-2.35-.7s-3.578 6.176-6.202 10.68c-2.623 4.5-4.75 5.526-6.65 4.19-1.9-1.335-.287-5.004 1.236-6.745 1.522-1.742 9.892-9.912 9.892-9.912l1.724 1.787z"/>
<path d="M949 273.87s-1.418 7.082-2.466 12.25c-1.048 5.166-2.728 6.88-4.942 6.29-2.213-.59-1.854-4.616-.97-6.793.883-2.177 6.187-12.825 6.187-12.825l2.19 1.078z"/>
<path d="M950.5 274.09s.008 7.238 0 12.522-1.313 7.33-3.595 7.237c-2.282-.1-2.723-4.11-2.288-6.44.436-2.33 3.528-13.9 3.528-13.9l2.355.57zm3.96-55.69s5.827-6.19 16.023-12.378c10.196-6.19 17.573-10.95 18.936-9.902 0 1.238-8.74 7.426-16.03 12.378-7.29 4.95-16.03 12.378-16.03 12.378l-2.92-2.476zm.68 4.95s5.76-3.635 16.804-8.664c10.872-4.466 26.22-3.714 26.22-2.476-1.457 1.238-14.567 1.238-23.307 4.95-8.343 3.546-16.804 8.666-16.804 8.666l-2.913-2.476zm.06 8.53s5.07-2.45 16.804-6.19c11.652-3.712 27.122-1.237 27.122 0-1.456 1.24-14.013.487-22.753 2.477-9.044 1.94-18.26 6.19-18.26 6.19l-2.913-2.477zm.56 8.66s5.844-4.96 18.292-6.19c12.524-1.236 22.72 6.19 22.72 7.428-1.455 1.238-13.11-5.448-21.85-4.492-9.258.954-16.25 5.73-16.25 5.73l-2.912-2.476zm-2.9-27.24s9.39-6.19 9.39-11.14-4.14-9.902-5.313-12.378c2.347 0 7.66 7.427 7.66 12.378 0 5.41-8.824 13.615-8.824 13.615l-2.913-2.475z"/>
<path d="M952.86 213.3s-1.174-3.713-1.174-11.14c0-8.664 5.18-14.175 7.043-16.09.48 1.915-4.7 8.663-4.7 16.09 0 5.41 1.74 13.615 1.74 13.615l-2.92-2.475zm-6.32 5.1s-5.827-6.19-16.023-12.378c-10.196-6.19-17.573-10.95-18.936-9.902 0 1.238 8.74 7.426 16.03 12.378 7.29 4.95 16.03 12.378 16.03 12.378l2.92-2.476zm-.68 4.95s-5.76-3.635-16.804-8.664c-10.872-4.466-26.22-3.714-26.22-2.476 1.457 1.238 14.567 1.238 23.307 4.95 8.343 3.546 16.804 8.666 16.804 8.666l2.913-2.476zm-.06 8.53s-5.07-2.45-16.804-6.19c-11.652-3.712-27.122-1.237-27.122 0 1.456 1.24 14.013.487 22.753 2.477 9.044 1.94 18.26 6.19 18.26 6.19l2.913-2.477zm-.55 8.66s-5.844-4.96-18.292-6.19c-12.524-1.236-22.72 6.19-22.72 7.428 1.455 1.238 13.11-5.448 21.85-4.492 9.258.954 16.25 5.73 16.25 5.73l2.912-2.476zm2.9-27.24s-9.39-6.19-9.39-11.14 4.14-9.902 5.313-12.378c-2.347 0-7.66 7.427-7.66 12.378 0 5.41 8.824 13.615 8.824 13.615l2.913-2.475z"/>
<path d="M948.15 213.3s1.174-3.713 1.174-11.14c0-8.664-5.18-14.175-7.043-16.09-.48 1.915 4.7 8.663 4.7 16.09 0 5.41-1.74 13.615-1.74 13.615l2.92-2.475z"/>
<path d="M981.02 302.42c-3.648-8.546-4.695-23.517-4.695-25.993 0-6.97 2.183-40.878 2.347-54.46.165-13.584-8.216-21.043-16.432-21.043-7.042 0-11.737 4.95-11.737 12.378h3.522c0-4.95 3.52-8.664 8.216-8.664 7.05 0 12.46 5.85 12.92 17.328.51 13.266-1.41 47.713-1.17 56.936.24 9.224 3.4 17.447 7.04 23.517zm-61.04 0c3.648-8.546 4.695-23.517 4.695-25.993 0-6.97-2.183-40.878-2.347-54.46-.165-13.584 8.216-21.043 16.432-21.043 7.042 0 11.737 4.95 11.737 12.378h-3.522c0-4.95-3.52-8.664-8.216-8.664-7.05 0-12.46 5.85-12.92 17.328-.51 13.266 1.41 47.713 1.17 56.936-.24 9.224-3.4 17.447-7.04 23.517z" stroke="#fdc301" stroke-width=".75"/>
<path d="M950.51 273.95c6.56-.097 7.284-2.475 7.284-2.475s1.457-4.95.728-6.19c-.728-1.237-8.012-1.237-8.012-1.237v9.902z"/>
<path d="M950.51 269c7.042 0 8.216-2.475 8.216-2.475s2.347-4.95 1.174-6.19c-1.174-1.237-9.39-1.237-9.39-1.237V269z"/>
<path d="M950.51 264.05c5.87 0 9.39-2.475 9.39-2.475s2.347-4.95 1.174-6.19c-1.174-1.237-10.564-1.237-10.564-1.237v9.902z"/>
<path d="M950.51 257.86c10.572-.097 10.564-3.18 10.564-3.18s2.347-4.95 1.174-6.188c-1.174-1.238-11.737-.534-11.737-.534v9.902z"/>
<path d="M950.51 252.91c10.572-.097 11.737-2.475 11.737-2.475s2.347-4.95 1.174-6.19c-1.17-1.237-12.91-1.237-12.91-1.237v9.902z"/>
<path d="M950.51 246.72c10.572-.097 12.91-2.475 12.91-2.475s2.348-4.952 1.175-6.19c-1.174-1.237-14.085-1.237-14.085-1.237v9.902z"/>
<path d="M950.51 240.54c10.572-.097 14.085-2.475 14.085-2.475s1.174-4.952 0-6.19c-1.174-1.237-14.085-1.237-14.085-1.237v9.902z"/>
<path d="M950.51 234.35c10.572-.097 14.085-2.475 14.085-2.475s0-4.952-1.174-6.19c-1.17-1.237-12.91-1.237-12.91-1.237v9.902z"/>
<path d="M950.51 228.16c10.572-.097 12.91-2.475 12.91-2.475s0-4.952-1.173-6.19c-1.174-1.237-11.737-1.237-11.737-1.237v9.902z"/>
<path d="M950.51 212.63c8.224.01 11.777 7.153 11.757 7.008l-2.367 2.33c-1.258 1.237-9.39 1.237-9.29 1.23l-.1-10.568zm-.01 61.32c-6.56-.097-7.284-2.475-7.284-2.475s-1.457-4.95-.728-6.19c.728-1.237 8.012-1.237 8.012-1.237v9.902z"/>
<path d="M950.5 269c-7.042 0-8.216-2.475-8.216-2.475s-2.347-4.95-1.174-6.19c1.174-1.237 9.39-1.237 9.39-1.237V269z"/>
<path d="M950.5 264.05c-5.87 0-9.39-2.475-9.39-2.475s-2.347-4.95-1.174-6.19c1.174-1.237 10.564-1.237 10.564-1.237v9.902z"/>
<path d="M950.5 257.86c-10.572-.097-10.564-3.18-10.564-3.18s-2.347-4.95-1.174-6.188c1.174-1.238 11.737-.534 11.737-.534v9.902z"/>
<path d="M950.5 252.91c-10.572-.097-11.737-2.475-11.737-2.475s-2.347-4.95-1.174-6.19c1.17-1.237 12.91-1.237 12.91-1.237v9.902z"/>
<path d="M950.5 246.72c-10.572-.097-12.91-2.475-12.91-2.475s-2.348-4.952-1.175-6.19c1.174-1.237 14.085-1.237 14.085-1.237v9.902z"/>
<path d="M950.5 240.54c-10.572-.097-14.085-2.475-14.085-2.475s-1.174-4.952 0-6.19c1.174-1.237 14.085-1.237 14.085-1.237v9.902z"/>
<path d="M950.5 234.35c-10.572-.097-14.085-2.475-14.085-2.475s0-4.952 1.174-6.19c1.17-1.237 12.91-1.237 12.91-1.237v9.902z"/>
<path d="M950.5 228.16c-10.572-.097-12.91-2.475-12.91-2.475s0-4.952 1.173-6.19c1.174-1.237 11.737-1.237 11.737-1.237v9.902z"/>
<path d="M950.5 212.63c-8.224.01-11.777 7.153-11.757 7.008l2.367 2.33c1.258 1.237 9.39 1.237 9.29 1.23l.1-10.568z"/>
</g>
</svg>
