<svg id="french_southern_and_antarctic_lands_flag" xmlns="http://www.w3.org/2000/svg" xmlns:xlink="http://www.w3.org/1999/xlink" viewBox="0 0 600 400">
<defs>
<path id="s" d="m0-1l0.58779 1.809-1.5388-1.118 1.9021-0.00002-1.5389 1.118z" fill="#fff" transform="scale(21)"/>
</defs>
<rect width="600" height="400" fill="#002395"/>
<rect width="244" height="164" fill="#fff"/>
<rect width="80" height="160" fill="#002395"/>
<rect width="80" height="160" x="160" fill="#ED2939"/>
<path d="m355 183l12.875 20.5h36.625v71.5l-27.5-43-37 59h18l19-34 39 70 39-70 19 34h18l-37-59-27.5 43v-39.5h16.5l12.25-19.5h-28.75v-12.5h36.625l12.875-20.5h-122zm43 87.5h-40v14h40zm76 0h-40v14h40z" fill="#fff"/>
<use y="362" x="416" xlink:href="#s"/>
<use y="328" x="371" xlink:href="#s"/>
<use y="328" x="461" xlink:href="#s"/>
<use y="227" x="333" xlink:href="#s"/>
<use y="227" x="499" xlink:href="#s"/>
</svg>
