<svg id="svg548" xmlns="http://www.w3.org/2000/svg" version="1.1" viewBox="0 0 640 480">
<defs id="defs550">
<clipPath id="clipPath7468" clipPathUnits="userSpaceOnUse">
<rect id="rect7470" fill-opacity=".67" height="512" width="682.67" y="-.000013091" x="0"/>
</clipPath>
</defs>
<g id="flag" fill-rule="evenodd" transform="matrix(.93750 0 0 .93750 0 .000012273)" clip-path="url(#clipPath7468)">
<rect id="rect558" height="512" width="767.63" y="-.000013369" x="0" stroke-width="1pt" fill="#ffe300"/>
<rect id="rect555" height="102.81" width="767.63" y="208.14" x="0" stroke-width="1pt" fill="#118600"/>
<rect id="rect570" height="102.81" width="767.63" y=".24819" x="0" stroke-width="1pt" fill="#118600"/>
<rect id="rect554" height="310.71" width="306.51" y=".24813" x="0" stroke-width="1pt" fill="#d80000"/>
<path id="path567" fill="#fff" d="m134.42 128.43c0-0.85625 18.836-53.083 18.836-53.083l17.124 52.227s57.365 1.7125 57.365 0.85625-45.378 34.248-45.378 34.248 21.404 59.933 20.549 58.221c-0.85625-1.7125-49.659-35.96-49.659-35.96s-49.658 34.248-48.802 34.248c0.85625 0 18.835-56.508 18.835-56.508l-44.522-33.392 55.652-0.85625z"/>
<rect id="rect569" height="102.81" width="767.63" y="409.19" x="0" stroke-width="1pt" fill="#118600"/>
</g>
</svg>
