<svg id="svg1" xmlns="http://www.w3.org/2000/svg" xml:space="preserve" height="480px" viewBox="-159 41 640 480" width="640px" version="1.1" y="0px" x="0px" enable-background="new -159 41 640 480">
<rect id="background" height="480" width="640" y="41" x="-159" fill="#00247D"/>
<g id="boat" fill="#FED100">
<path d="m-50.9 395.6c-6.7-0.1 62.8-37 120.9-84.4 76.2-62.1 240.3-161.4 288.6-177.6 5-1.7-10.3 8.6-12.3 11.9-51.5 61-10.4 176 54 233.9 19.4 14.8 18.4 15.6 54.3 17v3.4l-505.5-4.2z"/>
<path d="m-55.1 402.3s-4.9 3.5-4.9 6.1c0 2.9 5.5 6.7 5.5 6.7l498.5 5.5 9.2-6.1-12.8-7.9-495.5-4.3z"/>
</g>
<g id="stars" fill="#fff">
<polygon points="-52.2 150.1 -56.2 162.3 -45.8 154.8 -35.5 162.3 -39.4 150.1 -29.1 142.6 -41.9 142.6 -45.8 130.4 -49.8 142.6 -62.6 142.6"/>
<polygon points="25.9 207.5 34.5 201.2 23.8 201.2 20.5 191.1 17.2 201.2 6.6 201.2 15.2 207.5 11.9 217.6 20.5 211.3 29.2 217.6"/>
<polygon points="-119.3 220.5 -123.3 208.3 -127.2 220.5 -140 220.5 -129.7 228 -133.6 240.2 -123.3 232.7 -112.9 240.2 -116.9 228 -106.5 220.5"/>
<polygon points="-41.2 342.8 -45.8 328.6 -50.4 342.8 -65.4 342.8 -53.3 351.5 -57.9 365.8 -45.8 357 -33.7 365.8 -38.4 351.5 -26.3 342.8"/>
</g>
</svg>
