<svg viewBox="0 0 900 600" xmlns="http://www.w3.org/2000/svg" xmlns:xlink="http://www.w3.org/1999/xlink">
<path fill="#28ae66" d="M0 0h900v600H0z"/>
<g fill="#fff">
<path d="M446.82 66.542c26.6 11.42 45.236 37.85 45.236 68.628 0 41.224-33.43 74.655-74.654 74.655-18.455 0-35.345-6.704-48.377-17.805a74.442 74.442 0 0 0 26.15 5.95c41.185 1.8 76.042-30.14 77.84-71.326 1.044-23.91-9.287-45.688-26.195-60.102z"/>
<path id="a" d="M375.62 121.42l8.458-26.033-22.145 16.09h27.373l-22.145-16.09z"/>
<use y="-38.4" xlink:href="#a" height="600"/>
<use y="-18.722" x="37.937" xlink:href="#a"/>
<use y="18.722" x="-37.936" xlink:href="#a"/>
<use y="38.4" xlink:href="#a" height="600"/>
</g>
<g fill="#383739">
<path fill="#ca3745" d="M108 0h162v600H108z"/>
<g id="c">
<g id="b">
<path d="M108-39.62v5.88l9.11 8.528-3.072 2.86 6.515 6.038-2.86 2.595v-3.76h-5.562v4.51l12.56 11.75h6.36l.69-4.13h-3.65l3.97-3.7L142.01 0l-9.96 9.11-3.97-3.707h3.652l-.69-4.185h-6.36l-12.55 11.76v4.502h5.56v-3.77l2.86 2.59-6.51 6.04 3.07 2.91-9.11 8.49v5.878l15.413-14.354-3.072-2.913 6.47-6.03-5.56-5.19 3.71-3.39 7.1 6.57L147.618 0l-15.57-14.302-7.1 6.62-3.71-3.442 5.56-5.19-6.46-6.038 3.07-2.86L108-39.62zm0 28.55v22.14l3.602-3.655v-4.29h3.813L118.487 0l-3.072-3.072h-3.813v-4.343L108-11.07zm26.27 7.84l-.53 3.018.53 3.072 3.285-3.072-3.284-3.02z"/>
<path d="M108-38.983v4.66l9.746 9.11-3.072 2.86 6.515 6.04-3.92 3.654v-4.39h-4.72v3.92l12.34 11.49h5.72l.58-3.28h-4.24l5.08-4.77L142.64 0l-10.594 9.693-5.085-4.714h4.24l-.58-3.34h-5.72l-12.34 11.49v3.92h4.72v-4.39l3.92 3.65-6.51 6.04 3.08 2.91-9.75 9.06v4.66l14.78-13.72-3.07-2.92 6.46-6.04-5.56-5.19 4.35-4.03 7.1 6.62L146.93 0l-14.885-13.717-7.098 6.62-4.343-4.024 5.56-5.19-6.46-6.04 3.072-2.86L108-38.98zm0 28.55v20.868l3.178-3.178V2.65h4.078l2.65-2.65-2.65-2.648h-4.078v-4.608L108-10.434zm26.59 8.05l-.372 2.17.37 2.173 2.332-2.172-2.33-2.17z" fill="#faae29"/>
</g>
<use y="109.207" xlink:href="#b"/>
<use y="222.005" xlink:href="#b"/>
<use y="334.802" xlink:href="#b"/>
<use y="447.598" xlink:href="#b"/>
</g>
<use xlink:href="#c" transform="matrix(-1 0 0 1 378 0)"/>
<path id="d" fill="#faae29" d="M121.14 530.82c.8 3.407 3.508 5.98 4.154 9.513 1.292-3.685 2.484-6.773 1.594-10.804-.637-2.89-3.062-4.94-3.343-7.91-2.644 2.37-3.213 5.75-2.405 9.19zm-.67 14.276c2.243 3.075 5.36 5.434 8.803 7.006-.678-2.693.594-4.72 2.006-6.86 1.7-2.574 2.53-5.102 1.14-8.066-.65 1.54-1.52 2.82-2.54 4.138-1.51 2.056-2.5 3.883-2.73 6.52-1.75-1.29-2.51-3.22-3.44-5.086-1.42-2.673-3.71-4.907-6.35-6.368.7 2.998 1.24 6.168 3.09 8.716zm12.578 9.166c-.48 1.707-.893 3.4-.8 5.185-1.483-1.596-3.45-2.798-5.206-4.084-2.39-1.934-5.178-3.298-7.133-5.76.29 3.624 1.84 6.578 4.78 8.783 3.11 2.33 6.86 3.583 9.93 6.03-.46-3.297.75-5.938 1.78-8.967.86-2.9.02-5.84-1.94-8.05.03 2.44-.74 4.54-1.43 6.85zm6.986 11.133c.645 2.5 2.436 4.534 3.66 6.764-3.3-1.03-6.21-2.82-9.192-4.5-3.552-1.94-7.41-3.17-10.624-5.72 1.6 5.92 5.566 9.36 11.368 11.11 3.967 1.2 7.31.6 12.124 2.54-.552-3.26-1.524-6.78-3.065-9.72-1.196-2.13-2.522-4.22-3.26-6.56-1.07 1.92-1.577 3.87-1.012 6.07zm12.14 9.065a15.21 15.21 0 0 0 4.493 4.875c-4.683.298-8.45-2.67-13.017-2.798-2.82-.08-5.497.796-8.373.533 3.413 2.303 6.986 4.313 11.14 4.85 5.402.7 10.383-.66 16.342-.128-2.79-1.965-4.18-4.595-5.92-7.424-2.26-3.532-4.4-6.05-8.79-6.618 1.76 1.984 2.79 4.44 4.11 6.71zm16.63 7.773c-8.25 1.402-16.156 3.217-24.58 3.3 9.43 3.29 18.317 3.883 27.67.488 5.056-1.83 8.932-2.81 12.75-2.54 5.58.4 12.36 2.6 19.864 10.52l2.95-2.36c-10.756-9.58-24.83-11.75-38.654-9.4z"/>
<use xlink:href="#d" transform="matrix(-1 0 0 1 378.04 0)"/>
<path d="M128.27 70.34l-12.98-7.96V43.243l12.98-7.96V25.16l12.267-7.39h9.8l18.647-10.488h40.033l18.648 10.49h9.8l12.268 7.387v10.12l12.98 7.96v19.14l-12.98 7.96v10.12l-12.267 7.38h-9.8l-18.648 10.49h-40.033l-18.647-10.49h-9.8l-12.268-7.38z"/>
<path d="M169.07 7.733L150.426 18.22h-9.746l-11.97 7.203V35.54l-12.977 7.944v18.644l12.977 7.945v10.17l11.917 7.203h9.8l18.643 10.487h39.83l18.644-10.487h9.8l11.97-7.203v-10.17l12.976-7.945V43.484l-12.977-7.945V25.42l-11.97-7.203h-9.8L208.9 7.732h-39.83zm1.112 3.866h37.66l18.643 10.48h9.746l9.06 5.45v10.12l13.03 7.94V60l-13.03 7.945v10.12l-9.05 5.455h-9.74l-18.65 10.49h-37.66l-18.65-10.487h-9.74l-9.11-5.455V67.96l-12.97-7.945v-14.41l12.98-7.945V27.54l9.11-5.456h9.75L170.18 11.6z" fill="#28ae66"/>
<path d="M188.78 53.025V12.017h-18.506l-18.65 10.49h-9.72l-8.796 5.295v10.1l-12.98 7.96v6.735h69.08v41.01h18.507l18.648-10.49h9.723l8.794-5.295v-10.1l12.98-7.96v-6.736z" fill="#faae29"/>
<path d="M120.13 53.025v6.736l12.98 7.96v10.1l8.795 5.3h9.722l18.648 10.49h18.506V52.6h69.09v-6.74l-12.98-7.96V27.8l-8.79-5.295h-9.72l-18.65-10.49h-18.51v41.01z" fill="#fff"/>
<g id="f">
<g id="e">
<path d="M148.45 26.28l-3.196-2.978-3.166 1.952 3.2 2.984-4.11 2.547h8.97l7.73 7.29 2.472-2.61-7.515-7.09v-4.812z"/>
<path d="M163.57 24.972l-3.196-2.978-3.166 1.952 3.2 2.984-4.11 2.547h8.97l7.73 7.29 2.472-2.61-7.515-7.09v-4.812zm-16.23 9.864l-3.196-2.978-3.165 1.952 3.2 2.984-4.11 2.547h8.97l7.72 7.29 2.47-2.61-7.52-7.09v-4.81z"/>
<path d="M189 11.59h-8.093l-4.235 4.08h-8.255l-6.1 3.166 1.422 3.467 5.44-2.858h2.38l8.34 9.647 9.1-5.54z"/>
<path d="M145.2 23.838l2.872 2.677-2.406 1.49-2.876-2.68 2.41-1.487zm7.205.495v4.227l7.338 6.922-1.884 1.99-7.55-7.115h-7.64l9.72-6.024zm7.915-1.803l2.872 2.676-2.406 1.49-2.876-2.68 2.41-1.487zm7.205.494v4.227l7.338 6.93-1.884 1.99-7.55-7.11h-7.63l9.72-6.02z" fill="#ca3745"/>
<path d="M144.09 32.393l2.87 2.677-2.405 1.49-2.875-2.68 2.41-1.487zm7.205.495v4.227l7.337 6.922-1.883 1.99-7.55-7.114h-7.64l9.72-6.025zm37.485-20.87h-7.706l-4.235 4.08h-8.33l-5.66 2.94 1.09 2.667 5.11-2.687h2.68l8.23 9.52 8.79-5.356z" fill="#ca3745"/>
</g>
<use xlink:href="#e" transform="matrix(1 0 0 -1 0 105.62)"/>
<path d="M143.05 39.71l-3.86-1.44-.09.063-4.983 3.458v.93l-7.98 10.09 7.98 10.1v.93l5.074 3.52 3.86-1.44-2.35-1.56v-2.97l.94-1.12h4.18V45.36h-4.18l-.93-1.12v-2.97z"/>
<path d="M134.55 42.014l4.706-3.265 2.862 1.06-1.846 1.22v3.35l1.164 1.39h3.952v14.06h-3.952l-1.164 1.39v3.35l1.846 1.22-2.862 1.07-4.706-3.27v-.86l-7.862-9.94 7.863-9.94z" fill="#ca3745"/>
</g>
<use xlink:href="#f" transform="matrix(-1 0 0 1 377.99 0)"/>
<path d="M136.2 61.282l-2.173-1.88v-.906l-4.66-5.685 4.66-5.68v-.9l2.174-1.88 3.91 3.18-2.25-.02 3.33 3.38h7.61l5.98-4.68V33.87h14.96l17.37-10.66v-2.8l-2.65-1.77h-.84l-2.89 1.936-.45 1.444-2.27-3.09 4.4-3.695h.7l4.97-3.64h1.87l4.97 3.64h.71l4.4 3.7-2.26 3.09-.44-1.444-2.9-1.93h-.84l-2.66 1.77v2.8l17.37 10.66h14.96V46.2l5.98 4.676h7.61l3.33-3.378-2.26.018 3.91-3.174 2.17 1.88v.907l4.66 5.68-4.66 5.68v.9l-2.17 1.88-3.9-3.18 2.25.01-3.33-3.38h-7.61l-5.98 4.68v12.33H208.3L190.9 82.4v2.8l2.66 1.77h.84l2.892-1.94.45-1.45 2.27 3.09-4.4 3.69h-.7L189.95 94h-1.87l-4.96-3.64h-.7L178 86.68l2.264-3.09.447 1.445 2.9 1.938h.84l2.66-1.77v-2.79l-17.38-10.66h-14.96v-12.33l-5.98-4.68h-7.6l-3.33 3.38 2.25-.017z"/>
<path d="M189.21 87.32l1.9 1.453-1.9 1.454V87.32zm-6.044 2.643h.07l4.964 3.643h.58v-2.842l-2.604-1.99 2.604-1.993v-5.33l-18.59-11.41h-13.74V58.58l-7.096-5.55h-10.702l-2.69 3.042-2.69-3.04h-3.175l4.36 5.316v.863l1.726 1.5 2.775-2.16-1.63.01v-.54l3.63-3.7h7.974l6.262 4.9v12.11h14.65l17.68 10.85v3.27l-2.955 1.97h-1.11l-3.13-2.09-.24-.77-1.53 2.08 3.97 3.34h.61zm-47.2-39.76l2.117 2.394h-4.236l2.118-2.394zm52.815-34.807l-1.9 1.454 1.9 1.453v-2.907zm51.13 37.63l2.12 2.394 2.12-2.394h-4.23zM194.76 15.66l-4.964-3.643h-.58v2.84l2.606 1.993-2.607 1.993v5.336l18.59 11.4h13.74v11.47l7.094 5.54h10.7l2.69-3.04 2.69 3.04h3.17l-4.36-5.32v-.87l-1.73-1.5-2.78 2.16 1.63-.02v.54l-3.63 3.7h-7.98l-6.26-4.9v-12.1h-14.65l-17.68-10.85v-3.26l2.95-1.97h1.1l3.12 2.09.24.77 1.53-2.08-3.98-3.34h-.69z" fill="#faae29"/>
<path d="M188.78 90.226l-1.9-1.453 1.9-1.453v2.906zm-50.698-37.2l-2.118 2.393-2.118-2.4h4.236zm56.74 36.937h-.07l-4.963 3.643h-.58v-2.84l2.6-1.993-2.61-1.993v-5.336l18.59-11.408h13.74V58.574l7.09-5.55h10.7l2.69 3.042 2.69-3.04h3.17l-4.36 5.317v.863l-1.73 1.5-2.77-2.16 1.63.013v-.54l-3.63-3.7h-7.98l-6.26 4.89v12.12h-14.65l-17.68 10.85v3.26l2.95 1.97h1.1l3.12-2.1.24-.77 1.52 2.08-3.98 3.33h-.62zm47.203-39.76l-2.118 2.394h4.237l-2.12-2.394zm-58.79-34.544l4.965-3.65h.58v2.84l-2.606 1.99 2.606 1.99v5.33l-18.59 11.41h-13.74v11.47l-7.096 5.54H138.65l-2.69-3.04-2.69 3.04h-3.173l4.36-5.32v-.86l1.727-1.5 2.774 2.16-1.63-.02v.54l3.63 3.7h7.974l6.262-4.9v-12.1h14.65l17.68-10.85v-3.26l-2.954-1.97h-1.103l-3.127 2.1-.24.77-1.524-2.08 3.973-3.34h.68zm5.973 2.64l1.902-1.46-1.902-1.46v2.91z" fill="#fff"/>
<path d="M188.78 53.025V24.68l-18.47 11.334h-13.434v11.243l-6.828 5.34h39.16V80.94l18.467-11.332h13.435V58.365l6.828-5.34z" fill="#28ae66"/>
<path d="M150.05 53.025l6.83 5.34v11.243h13.433l18.47 11.334V52.596h39.158l-6.82-5.34v-11.24h-13.44L189.21 24.68v28.345z" fill="#ca3745"/>
<path d="M169.12 39.064l-3.195-2.978-3.166 1.95 3.2 2.986-4.11 2.546h8.97l7.72 7.29 2.47-2.61-7.52-7.09v-4.81zm39.75 27.496l3.196 2.977 3.165-1.952-3.2-2.984 4.11-2.54h-8.97l-7.72-7.29-2.47 2.61 7.52 7.09v4.81zm-39.75 0l-3.196 2.977-3.165-1.952 3.2-2.984-4.11-2.54h8.97l7.72-7.29 2.47 2.61-7.52 7.09v4.81zm39.75-27.496l3.196-2.978 3.165 1.95-3.2 2.986 4.11 2.546h-8.97l-7.72 7.29-2.47-2.61 7.52-7.09v-4.81z"/>
<path d="M212.12 69.002l-2.87-2.677 2.405-1.49 2.875 2.68-2.41 1.487zm-7.205-.495V64.28l-7.337-6.92 1.884-1.99 7.54 7.113h7.637l-9.73 6.024zM165.868 36.62l2.872 2.678-2.407 1.49-2.875-2.68 2.41-1.487zm7.206.497v4.226l7.337 6.922-1.88 1.99-7.54-7.114h-7.63l9.73-6.02z" fill="#ca3745"/>
<path d="M212.12 36.62l-2.87 2.677 2.405 1.49 2.875-2.68-2.41-1.487zm-7.205.496v4.226l-7.337 6.922 1.884 1.99 7.54-7.114h7.637l-9.73-6.024zm-39.047 31.886l2.87-2.677-2.405-1.49-2.875 2.68 2.41 1.487zm7.205-.495V64.28l7.337-6.92-1.883-1.992-7.54 7.115h-7.638l9.72 6.024z" fill="#28ae66"/>
<path d="M208.86 52.812L189 66.047l-19.86-13.235L189 39.576z"/>
<path d="M188.78 40.233l-18.55 12.364h37.53l-18.55-12.364V65.39l18.552-12.364H170.23l18.55 12.364z" fill="#fff"/>
<path d="M194.31 57.363v3.64h-10.62v-3.64h-6.875V48.26h6.874v-3.64h10.62v3.64h6.87v9.103z"/>
<path d="M184.12 45.048v3.64h-6.873v3.91h11.54v-7.55h-4.667zm5.096 7.55h11.54v-3.91h-6.873v-3.64h-4.667v7.55zm-11.97.427v3.91h6.874v3.64h4.668v-7.55h-11.54zm11.97 7.55h4.668v-3.64h6.873v-3.91h-11.54v7.55z" fill="#ca3745"/>
<path d="M222.88 203.61v-5.83h15.988v-5.83h15.988v-52.68h-15.988v-5.832H222.88v-5.83h-15.988v-5.83H171.11v5.83h-15.988v5.83h-15.99v5.83h-15.987v52.682h15.988v5.83h15.99v5.83h15.987v5.83h35.782v-5.83z"/>
<path d="M171.56 122.19v5.826h-15.996v5.827h-15.996v5.826h-15.996v51.85h15.996v5.82h15.996v5.82h15.996V209h34.903v-5.825h15.997v-5.825h15.997v-5.827h15.995V139.67h-15.995v-5.827H222.46v-5.827h-15.997v-5.826H171.56zm4.237 4.237h26.43v5.826h15.996v5.827h15.997v5.826h15.995v43.38H234.22v5.826h-15.997v5.825h-15.997v5.826h-26.43v-5.826H159.8v-5.825h-15.994v-5.827H127.81v-43.38h15.995v-5.825H159.8v-5.827h15.997v-5.826z" fill="#ca3745"/>
<path d="M160.21 198.52v-5.83h-15.988v-5.83h-15.99v-42.5h15.99v-5.83h15.988v-5.83h15.988v-5.83h25.6v5.83h15.99v5.83h15.988v5.83h15.99v42.5h-15.99v5.83h-15.988v5.83h-15.99v5.83h-25.6v-5.83z" fill="#ca3745"/>
<path d="M163.92 137.01l-4.14-3.13v6.01l-3.967 2.52-.01-3.762-3.803 3.416-3.804-3.416-.01 3.763-4.394-2.79v5.58l-3.552 2.57-.01-3.41-4.22 3.06-4.218-3.05-.01 3.42-3.98-2.88v16.88h-4.662v7.69h4.662v16.89l3.98-2.88.01 3.42 4.22-3.05 4.218 3.06.01-3.42 3.55 2.57v5.58l4.396-2.79.01 3.77L152 189.2l3.8 3.42.01-3.766 3.964 2.52v6.01l4.142-3.13.01 4.193 4.056-3.63 4.06 3.63.008-4.2 3.714 2.81v6.41l5.55-5.06v5.945l7.68-4.93 7.677 4.94v-5.95l5.55 5.06v-6.41l3.72-2.81.01 4.2 4.06-3.63 4.06 3.63.01-4.2 4.14 3.13v-6.01l3.97-2.52.01 3.76 3.81-3.42 3.81 3.42.01-3.77 4.4 2.796v-5.573l3.56-2.57.01 3.42 4.22-3.058 4.22 3.056.01-3.414 3.98 2.88V169.5h4.66v-7.69h-4.66v-16.9l-3.98 2.88-.01-3.418-4.22 3.054-4.22-3.052-.01 3.416-3.55-2.57v-5.57l-4.39 2.79-.01-3.77-3.8 3.41-3.8-3.416-.01 3.763-3.96-2.52v-6.01l-4.14 3.13-.01-4.2-4.06 3.63-4.06-3.63-.01 4.2-3.72-2.803v-6.41l-5.55 5.06v-5.948l-7.68 4.93-7.68-4.94v5.945l-5.55-5.06v6.41l-3.71 2.81-.01-4.2-4.06 3.63-4.06-3.63z"/>
<path d="M132.21 148.6l.01-3.418 3.793 2.748.127-.093 3.665-2.655.01 3.418 3.978-2.88v39.77l-3.978-2.88-.01 3.417-3.792-2.748-3.793 2.74-.01-3.42-3.978 2.88v-16.47h-4.662v-6.83h4.662v-16.47zm32.15-14.83l3.632 3.248 3.633-3.248.01 4.102 4.138-3.13v61.728l-4.14-3.13-.008 4.103-3.633-3.248-3.632 3.248-.008-4.102-4.14 3.13v-61.72l4.14 3.13zm49.28 0l-3.632 3.248-3.633-3.248-.01 4.102-4.137-3.13v61.728l4.138-3.13.01 4.103 3.632-3.248 3.632 3.248.01-4.102 4.138 3.13v-61.72l-4.14 3.13zm32.15 14.83l-.01-3.418-3.793 2.748-.128-.093-3.67-2.655-.01 3.418-3.98-2.88v39.77l3.97-2.88.01 3.417 3.79-2.748 3.79 2.74.01-3.42 3.97 2.88v-16.47h4.66v-6.83h-4.66v-16.47z" fill="#28ae66"/>
<path d="M148.62 139.61l3.377 3.034 3.378-3.034.01 3.583 4.392-2.792v50.42l-4.392-2.79-.01 3.58-3.378-3.03-3.377 3.04-.01-3.58-4.393 2.79v-50.42l4.393 2.8zm33.13-5.78l-5.55-5.06v73.682l5.55-5.06v6.132l7.25-4.66 7.248 4.66v-6.132l5.552 5.06V128.77l-5.552 5.06v-6.13L189 132.36l-7.25-4.66zm47.62 5.78l-3.377 3.034-3.378-3.034-.01 3.583-4.393-2.792v50.42l4.394-2.79.01 3.58 3.377-3.03 3.377 3.04.01-3.58 4.393 2.79v-50.42l-4.393 2.8z" fill="#faae29"/>
<g id="h">
<g id="g">
<path d="M134.29 158.37c.485.49 1.066.737 1.724.737.66 0 1.24-.247 1.725-.737 1.51-1.53 1.56-4.297 1.55-6.29l-2.07 2.19-1.21-2.082-1.21 2.083c-.32-.33-2.07-2.19-2.07-2.19-.02 2 .03 4.76 1.55 6.29zm16.68-4.29l-1.28-1.278v-2.546l-2.937 2.722 5.25 5.252 5.253-5.252-2.938-2.722v2.546l-1.28 1.278v-4.51l2.266-1.946-3.3-2.834-3.3 2.834 2.266 1.945zm15.98-5.06l-1.28-1.28v-2.545l-2.936 2.723 5.25 5.25 5.252-5.25-2.937-2.723v2.546l-1.28 1.28v-4.51l2.26-1.94-3.3-2.83-3.3 2.84 2.26 1.95z"/>
<path d="M136.01 153.04l1.123 1.94s1.213-1.283 1.71-1.806c-.06 2.25-.554 4.026-1.413 4.89-.402.406-.88.612-1.42.612-.54 0-1.018-.206-1.42-.61-.86-.866-1.353-2.643-1.412-4.892l1.708 1.806 1.124-1.94zm32.59-8.73v5.743l2.136-2.135v-1.743l1.89 1.754-4.632 4.63-4.634-4.64 1.89-1.76v1.74l2.137 2.13v-5.74l-2.035-1.75 2.642-2.27 2.642 2.27z" fill="#fff"/>
<path d="M152.61 149.37v5.743l2.136-2.136v-1.742l1.89 1.753-4.633 4.634-4.633-4.634 1.89-1.753v1.742l2.137 2.136v-5.743l-2.035-1.748 2.64-2.268 2.644 2.268z" fill="#ca3745"/>
</g>
<use xlink:href="#g" transform="matrix(-1 0 0 1 378 0)"/>
<path d="M195.28 150.94l-1.72-2.377 4.41-4.072-4.112-3.38v2.4l-1.72 1.47v-4.34l3.885-2.86-7.03-5.18-7.028 5.18 3.887 2.87v4.34l-1.72-1.47v-2.39l-4.114 3.38 4.412 4.08-1.72 2.38z"/>
<path d="M183.55 150.51l1.45-2.006-4.328-3.996 3.032-2.49v1.683l2.577 2.21v-5.49l-3.59-2.64 6.31-4.65 6.31 4.65-3.59 2.65v5.49l2.58-2.2v-1.68l3.03 2.49-4.33 4 1.46 2.01z" fill="#ca3745"/>
<path d="M185.78 137.77l3.212 2.367 3.212-2.367-3.212-2.368-.127.095z"/>
<path d="M189 135.93l2.49 1.835L189 139.6c-.212-.156-2.114-1.56-2.49-1.835l2.49-1.835z" fill="#28ae66"/>
</g>
<use xlink:href="#h" transform="matrix(1 0 0 -1 0 331.22)"/>
<path d="M245.9 163.15h-7.037v-2.805h-21.51l-14.975-9.836h-26.765l-14.974 9.83h-21.52v2.8h-7.04v4.91h7.03v2.8h21.51l14.97 9.83h26.76l14.97-9.84h21.51v-2.81h7.04z"/>
<path d="M175.74 150.95l-14.99 9.8h-21.185v2.806h-7.045v4.078h7.045v2.807h21.186l14.99 9.86h26.54l14.94-9.85h21.24v-2.8h7.05v-4.08h-7.04v-2.8h-21.24l-14.93-9.8zm.318 1.43h25.848l13.718 9.004v1.377h15.307v5.73h-15.3v1.38l-13.71 8.95h-25.85l-13.66-8.95v-1.37h-15.36v-5.72h15.36v-1.38z" fill="#ca3745"/>
<path d="M201.8 152.83l13.38 8.783v1.56h15.33v4.88h-15.33v1.56l-13.38 8.782h-25.604l-13.38-8.783v-1.56h-15.33v-4.88h15.33v-1.56l13.38-8.782z" fill="#ca3745"/>
<path d="M169.55 170.6l5.793 4.35 3.81-2.863-2.215-1.663-1.595 1.198-1.362-1.022 21.82-16.38h-4.43zm12.645 6.4h4.43l21.816-16.378-5.79-4.348-3.81 2.86 2.22 1.663 1.6-1.198 1.36 1.02zm9.17 0h4.43l-21.814-16.378 1.37-1.023 1.6 1.19 2.22-1.67-3.81-2.86-5.79 4.35zm12.646-6.4l-1.36 1.022-1.59-1.198-2.21 1.663 3.81 2.862 5.8-4.35-21.81-16.38h-4.43zm-38.85-4.99l3.9 2.586 3.9-2.586-3.89-2.586z"/>
<path d="M185.1 165.61l3.893 2.586 3.894-2.586-3.894-2.586zm27.73 0l-3.893 2.586-3.894-2.586 3.894-2.586z"/>
<path d="M207.73 170.6l-5.078 3.813-3.098-2.326 1.502-1.127 1.596 1.198 2.075-1.558-21.245-15.95h3.003zm-13.216 5.972h-3.002l-21.245-15.95 5.08-3.813 3.095 2.32-1.5 1.12-1.596-1.2-2.076 1.56zm-8.03 0h-3.002l21.245-15.95-2.075-1.56-1.596 1.2-1.502-1.128 3.098-2.325 5.078 3.81zm5.028-21.922h3.002L173.27 170.6l2.076 1.558 1.595-1.198 1.51 1.127-3.09 2.326-5.08-3.813z" fill="#faae29"/>
<path d="M169.06 163.54l3.12 2.07-3.12 2.072-3.12-2.07zm19.94 0l3.12 2.07-3.12 2.072-3.118-2.07zm19.94 0l-3.12 2.07 3.12 2.072 3.118-2.07z" fill="#28ae66"/>
<path d="M120.51 274.15l-1.528 2.16 2.74 2.095-2.74 2.094 1.527 2.16 3.18.37 3.08-2.38 7.68 4.87v-4.05l-4.84-3.07 4.83-3.07v-4.06l-7.68 4.88-3.08-2.38z"/>
<path d="M120.51 260.07l-1.528 2.16 2.74 2.095-2.74 2.094 1.527 2.16 3.18.37 3.08-2.38 7.68 4.88v-4.06l-4.84-3.07 4.83-3.07v-4.05l-7.68 4.88-3.08-2.38zm0 36.67l-1.528-2.16 2.74-2.095-2.74-2.094 1.527-2.16 3.18-.37 3.08 2.38 7.68-4.87v4.05l-4.84 3.07 4.83 3.07v4.06l-7.68-4.88-3.08 2.38zm136.97-22.59l1.528 2.16-2.74 2.095 2.74 2.094-1.528 2.16-3.18.37-3.082-2.38-7.683 4.87v-4.05l4.836-3.07-4.83-3.07v-4.06l7.69 4.88 3.08-2.38z"/>
<path d="M257.48 260.07l1.528 2.16-2.74 2.095 2.74 2.094-1.528 2.16-3.18.37-3.082-2.38-7.683 4.88v-4.06l4.836-3.07-4.83-3.07v-4.05l7.69 4.88 3.08-2.38zm0 36.67l1.528-2.16-2.74-2.095 2.74-2.094-1.528-2.16-3.18-.37-3.082 2.38-7.683-4.87v4.05l4.836 3.07-4.83 3.07v4.06l7.69-4.88 3.08 2.38zm-30.75-61.01v5.856h4.26v2.588h4.184v-4.713h-3.732v-3.73h-4.712zm12.55 9.23v5.855h4.255v2.59h4.19v-4.714h-3.733v-3.73h-4.712zm-88.01-9.23v5.856h-4.26v2.588h-4.184v-4.713h3.732v-3.73h4.712zm75.46 85.35v-5.856h4.26v-2.588h4.184v4.712h-3.732v3.732h-4.712zm-75.46 0v-5.856h-4.26v-2.588h-4.184v4.712h3.732v3.732h4.712zm88.01-9.23v-5.855h4.255v-2.59h4.19v4.713h-3.733v3.732h-4.712zm-100.57-66.89v5.855h-4.256v2.59h-4.188v-4.714h3.732v-3.73h4.712zm0 66.89v-5.855h-4.256v-2.59h-4.188v4.713h3.732v3.732h4.712zm66.04-76.26l-3.25-3.156-3.194 2.96 2.783 2.7-3.6 3.488h5.33l1.92-1.863 1.92 1.86H212l-3.593-3.49 2.782-2.7-3.2-2.96a1619.71 1619.71 0 0 0-3.25 3.15zm-15.75 0c-.27-.264-3.25-3.156-3.25-3.156l-3.193 2.96 2.783 2.7-3.593 3.488h5.334l1.92-1.863 1.92 1.86h5.34l-3.59-3.49 2.79-2.7-3.19-2.96-3.25 3.15zm-15.76 0l3.25-3.156 3.194 2.96-2.783 2.7 3.6 3.488h-5.33l-1.92-1.863-1.92 1.86H166l3.594-3.49-2.782-2.7 3.194-2.96c1.087 1.05 2.17 2.1 3.25 3.15zm31.51 85.63l-3.25 3.155-3.194-2.958 2.783-2.7-3.6-3.49h5.33l1.92 1.864 1.92-1.86H212l-3.593 3.49 2.782 2.7-3.2 2.96a1619.71 1619.71 0 0 1-3.25-3.15zm-15.75 0l-3.25 3.155-3.193-2.958 2.783-2.7-3.593-3.49h5.334l1.92 1.864 1.92-1.86h5.34l-3.59 3.49 2.79 2.7-3.19 2.96-3.25-3.15zm-15.76 0l3.25 3.155 3.194-2.958-2.783-2.7 3.6-3.49h-5.33l-1.92 1.864-1.92-1.86H166l3.594 3.49-2.782 2.7 3.194 2.96c1.087-1.05 2.17-2.1 3.25-3.15z"/>
<path d="M134.03 281.71v3.037l-7.278-4.623-3.18 2.458-2.82-.327-1.177-1.668 2.856-2.184-2.85-2.184 1.18-1.67 2.82-.33 3.18 2.46 7.28-4.63v3.03l-5.2 3.3zm0-14.07v3.037l-7.278-4.623-3.18 2.458-2.82-.327-1.177-1.668 2.856-2.184-2.85-2.183 1.18-1.667 2.82-.328 3.18 2.458 7.28-4.623v3.037l-5.2 3.306zm0 21.54v-3.037l-7.278 4.623-3.18-2.458-2.82.327-1.177 1.668 2.856 2.184-2.85 2.184 1.18 1.67 2.82.33 3.18-2.46 7.28 4.63v-3.04l-5.2-3.3zm109.94-7.47v3.037l7.278-4.623 3.18 2.458 2.818-.327 1.18-1.668-2.857-2.184 2.85-2.184-1.18-1.67-2.82-.33-3.18 2.46-7.28-4.63v3.03l5.2 3.3zm0-14.07v3.037l7.278-4.623 3.18 2.458 2.818-.327 1.18-1.668-2.857-2.184 2.85-2.183-1.18-1.667-2.82-.328-3.18 2.458-7.28-4.623v3.037l5.2 3.306zm0 21.54v-3.037l7.278 4.623 3.18-2.458 2.818.327 1.18 1.668-2.857 2.184 2.85 2.184-1.18 1.67-2.82.33-3.18-2.46-7.28 4.63v-3.04l5.2-3.3zm-12.96-53.02v3.732h3.73v3.855h-3.325v-2.588h-4.26v-5h3.855zm12.56 9.23v3.73h3.73v3.857h-3.326v-2.588h-4.26v-5h3.856zm-96.59-9.23v3.732h-3.73v3.855h3.326v-2.588h4.26v-5h-3.856zm84.03 84.49v-3.73h3.73v-3.856h-3.325v2.587h-4.26v5h3.855zm-84.03 0v-3.73h-3.732v-3.856h3.327v2.587h4.26v5h-3.855zm96.59-9.23v-3.73h3.73v-3.856h-3.326v2.587h-4.26v5h3.856zm-109.14-66.03v3.73h-3.73v3.857h3.326v-2.588h4.26v-5h-3.856zm0 66.03v-3.73h-3.732v-3.856h3.327v2.587h4.26v5h-3.855zm67.07-78.39l3.257 3.162 3.257-3.162 2.564 2.375-2.776 2.694 3.15 3.06h-4.1l-2.095-2.04-2.094 2.03h-4.102l3.16-3.06-2.77-2.7 2.57-2.38zm-15.76 0l3.257 3.162 3.257-3.162 2.563 2.375-2.775 2.694 3.15 3.06h-4.102l-2.093-2.04-2.094 2.03H182.8l3.152-3.06-2.776-2.7 2.564-2.38zm-9.24 0l-3.257 3.162-3.257-3.162-2.564 2.375 2.776 2.694-3.15 3.06h4.1l2.095-2.04 2.094 2.03h4.102l-3.16-3.06 2.77-2.7-2.57-2.38zm25 90.75c.266-.26 3.257-3.163 3.257-3.163l3.257 3.163 2.564-2.375-2.776-2.694 3.15-3.06h-4.1l-2.095 2.04-2.094-2.03h-4.102l3.16 3.06-2.77 2.7 2.57 2.38zm-15.76 0c.266-.26 3.257-3.163 3.257-3.163l3.257 3.163 2.563-2.375-2.775-2.694 3.15-3.06h-4.102l-2.093 2.04-2.094-2.03H182.8l3.152 3.06-2.776 2.7 2.564 2.38zm-9.24 0c-.266-.26-3.257-3.163-3.257-3.163l-3.257 3.163-2.564-2.375 2.776-2.694-3.15-3.06h4.1l2.095 2.04 2.094-2.03h4.102l-3.16 3.06 2.77 2.7-2.57 2.38z" fill="#28ae66"/>
<path d="M146.58 306.42v9.234h84.836v-9.234h12.55v-56.03h-12.55v-9.233H146.58v9.234h-12.55v56.03z"/>
<path d="M147.03 241.58v9.217h-12.553v55.19h12.553v9.217h83.95v-9.217h12.555v-55.19H230.98v-9.217h-83.95zm5.402 3.55h73.148v8.898l3.018 2.225h11.388v44.332h-11.44l-2.967 2.17v8.952h-73.15v-8.898l-3.02-2.23h-11.44v-44.33h11.38l3.07-2.23v-8.9z" fill="#ca3745"/>
<path d="M152.86 245.55v8.158l11.017-8.158H152.86zm61.228 0l11.017 8.158v-8.158h-11.017zm-75.635 11.124v7.627l10.38-7.62h-10.38zm90.68 0l10.433 7.68v-7.68h-10.434zm10.433 35.75l-10.434 7.735h10.434v-7.74zm-101.11.054v7.68h10.38l-10.38-7.68zm14.407 10.647v8.103h10.964l-10.964-8.103zm72.245 0l-10.963 8.103h10.963v-8.103z" fill="#ca3745"/>
<path d="M213.38 245.56l26.188 19.342v27.01c-.172.128-26.075 19.26-26.188 19.342h-48.76l-26.187-19.342v-27.01l26.187-19.342h48.76z" fill="#28ae66"/>
<path d="M144.67 295.02l-3.01-3.494 2.826-3.28-2.827-3.28 2.82-3.28-2.83-3.28 2.82-3.28-2.83-3.28 2.82-3.28-2.83-3.28 3.01-3.495h88.66l3.01 3.5-2.83 3.28 2.82 3.28-2.83 3.28 2.83 3.28-2.83 3.28 2.83 3.28-2.83 3.28 2.83 3.28-3.01 3.5zm60.946-45.236l-3.494-3.01-3.28 2.826-3.28-2.827-3.28 2.827-3.28-2.827-3.28 2.827-3.282-2.827-3.28 2.827-3.28-2.827-3.494 3.01v57.244l3.495 3.01 3.28-2.825 3.28 2.826 3.28-2.827 3.28 2.83 3.28-2.82 3.28 2.83 3.28-2.82 3.29 2.83 3.5-3.01z"/>
<g fill="#faae29">
<path d="M198.62 249.98l-3.065-2.642-3.066 2.642v56.85l3.06 2.64 3.06-2.64zm-13.12 0l-3.066-2.642-3.065 2.642v56.85l3.06 2.64 3.06-2.64z"/>
<path d="M144.86 294.59l-2.64-3.066 2.64-3.066h88.27l2.64 3.066-2.64 3.066zm88.27-19.25l2.642 3.066-2.642 3.065h-88.268l-2.642-3.06 2.642-3.06zm0-6.99l2.64-3.066-2.64-3.065h-88.27l-2.64 3.06 2.64 3.06z"/>
</g>
<g fill="#ca3745">
<path d="M205.18 249.98l-3.065-2.642-3.066 2.642v56.85l3.06 2.64 3.06-2.64zm-26.24 0l-3.066-2.642-3.066 2.642v56.85l3.066 2.64 3.066-2.64z"/>
<path d="M144.86 288.03l-2.642-3.066 2.642-3.066h88.268l2.642 3.066-2.642 3.066zm0-13.12l-2.642-3.066 2.642-3.066h88.268l2.642 3.066-2.642 3.066z"/>
<path d="M192.06 306.83l-3.066 2.64-3.066-2.64v-56.85l3.066-2.642 3.066 2.642z"/>
</g>
<path d="M218.63 251.09h-59.48v4.724h-7.6V301h7.6v4.722h59.695V301h7.6v-45.186h-7.6v-4.724h-.214z"/>
<path d="M159.59 251.54v4.715h-7.627v44.332h7.627v4.714h6.25l-12.447-10.43v-32.89l12.447-10.43h-6.25zm52.596 0l12.393 10.434v32.893l-12.4 10.433h6.25v-4.713H226v-44.332h-7.576v-4.715h-6.25z" fill="#ca3745"/>
<g fill="#28ae66">
<path d="M166.52 251.54l-12.712 10.646v32.468c.15.127 12.594 10.547 12.712 10.646h44.968c.118-.1 12.508-10.52 12.66-10.646v-32.468c-.152-.126-12.542-10.547-12.66-10.646zm.636 1.8H210.8l11.547 9.694v30.773l-11.547 9.64h-43.644l-11.494-9.64v-30.773z"/>
<path d="M178.72 294.29l1.954.844.36 2.282-2.46 2.164 3.572 3.454h-3.437l-2.46-2.366-2.46 2.366h-3.44l3.57-3.454-2.46-2.164.36-2.282 1.95-.844 2.47 1.975.13-.107zm12.75 0l1.953.844.36 2.282-2.46 2.164 3.573 3.454h-3.437l-2.46-2.366-2.46 2.366h-3.44l3.57-3.454-2.46-2.164.36-2.282 1.95-.844 2.47 1.975.13-.107zm7.81 0l-1.953.844-.36 2.282 2.46 2.164-3.573 3.454h3.437l2.46-2.366 2.46 2.366h3.44l-3.57-3.454 2.46-2.164-.36-2.282-1.95-.844-2.47 1.975-.13-.107zm-20.56-31.77l1.954-.844.36-2.28-2.46-2.165 3.572-3.45h-3.437l-2.46 2.37-2.46-2.36h-3.44l3.57 3.46-2.46 2.17.36 2.29 1.95.84 2.47-1.97.13.11zm12.75 0l1.953-.844.36-2.28-2.46-2.165 3.573-3.45h-3.437l-2.46 2.37-2.46-2.36h-3.44l3.57 3.46-2.46 2.17.36 2.29 1.95.84 2.47-1.97.13.11zm7.81 0l-1.953-.844-.36-2.28 2.46-2.165-3.573-3.45h3.437l2.46 2.37 2.46-2.36h3.44l-3.57 3.46 2.46 2.17-.36 2.29-1.95.84-2.47-1.97-.13.11zm22.62 3.65l-1.95 1.615 1.95 1.614v2.67l-3-2.47-2.15 1.95a763.37 763.37 0 0 0-2.31-.29c-.084-.16-.69-1.28-.812-1.5l1.986-1.98-1.986-1.98.813-1.5c.2-.03 2.14-.27 2.31-.29l2.15 1.95 3-2.47v2.67zm0 10.62l-1.95 1.615 1.95 1.613v2.677l-3-2.47-2.15 1.95c-.174-.023-2.117-.268-2.31-.29-.084-.16-.69-1.278-.812-1.5l1.986-1.98-1.986-1.98c.12-.224.728-1.343.813-1.5.2-.024 2.14-.27 2.31-.29l2.15 1.95 3-2.47v2.675zm0 13.86l-1.95-1.615 1.95-1.614v-2.67l-3 2.47-2.15-1.95c-.174.02-2.117.27-2.31.29l-.812 1.5 1.986 1.98-1.986 1.98.813 1.5c.2.03 2.14.27 2.31.29l2.15-1.95 3 2.47v-2.67zm-65.8-24.48l1.95 1.615-1.95 1.614v2.67l3-2.47 2.15 1.95 2.31-.29c.084-.16.69-1.28.812-1.5l-1.986-1.98 1.986-1.98-.813-1.5c-.2-.03-2.14-.27-2.31-.29l-2.15 1.95-3-2.47v2.67zm0 10.62l1.95 1.615-1.95 1.613v2.677l3-2.47 2.15 1.95c.173-.023 2.117-.268 2.31-.29.084-.16.69-1.278.812-1.5l-1.986-1.98 1.986-1.98-.813-1.5c-.2-.024-2.14-.27-2.31-.29l-2.15 1.95-3-2.47v2.675zm0 13.86l1.95-1.615-1.95-1.614v-2.67l3 2.47 2.15-1.95c.173.02 2.117.27 2.31.29l.812 1.5-1.986 1.98 1.986 1.98-.813 1.5c-.2.03-2.14.27-2.31.29l-2.15-1.95-3 2.47v-2.67z"/>
</g>
<path d="M167.32 253.76c-.116.097-10.602 8.876-11.07 9.27.945.783 1.86 1.602 2.807 2.383.24-.217 2.066-1.855 2.066-1.855l2.7.37 1.06 1.96-1.906 1.908c.26.257 1.906 1.907 1.906 1.907l-1.06 1.96-2.7.317s-1.826-1.584-2.066-1.8l-2.966 2.49v.846c1 .826 1.97 1.665 2.97 2.49.24-.217 2.07-1.8 2.07-1.8l2.7.317 1.06 1.96-1.9 1.906c.26.25 1.91 1.9 1.91 1.9l-1.06 2.01-2.7.31-2.06-1.86-2.97 2.49v.9l2.97 2.49a1487.6 1487.6 0 0 1 2.07-1.86l2.7.37 1.06 1.96-1.9 1.91c.26.25 1.91 1.9 1.91 1.9l-1.06 1.96-2.7.37-2.06-1.86c-.94.77-1.86 1.55-2.81 2.33l11.07 9.27h2.44l3.55-3.44-2.28-2.02.43-2.76 2.38-1 2.44 1.9 2.39-1.91 2.38 1.01.48 2.75-2.33 2.01 3.44 3.28 3.44-3.29-2.33-2.02.43-2.76 2.44-1.01 2.38 1.91 2.44-1.91 2.38 1 .42 2.75-2.28 2.01 3.39 3.34 3.45-3.34-2.28-2.01.42-2.76 2.44-1.01 2.38 1.91 2.38-1.91 2.43 1.01.43 2.75-2.27 2.02 3.55 3.443h2.38l11.07-9.27c-.94-.78-1.86-1.55-2.81-2.33a856.34 856.34 0 0 0-2.01 1.85l-2.7-.37-1.11-1.96 1.91-1.91-1.91-1.903 1.118-1.96 2.7-.37s1.774 1.64 2.014 1.853l2.96-2.49v-.9l-2.97-2.49a876.16 876.16 0 0 0-2.014 1.85l-2.7-.32-1.11-2.01 1.91-1.9-1.91-1.91 1.11-1.96 2.7-.32 2.01 1.8c1-.82 1.98-1.62 2.97-2.44v-.96l-2.97-2.44c-.24.22-2.016 1.8-2.016 1.8l-2.7-.32-1.11-1.96 1.9-1.904-1.907-1.91 1.11-1.96 2.7-.37s1.78 1.64 2.02 1.855c.95-.78 1.91-1.548 2.86-2.33l-11.13-9.32h-2.387l-3.55 3.444 2.28 2.01-.42 2.75-2.44 1.06-2.38-1.91-2.38 1.91-2.44-1.06-.423-2.75 2.28-2.01-3.39-3.29-3.443 3.28 2.28 2.02-.42 2.76-2.39 1.06-2.44-1.91-2.38 1.91-2.44-1.06-.42-2.75 2.33-2.01-3.445-3.284-3.444 3.28 2.33 2.01-.48 2.753-2.382 1.06-2.385-1.91-2.43 1.91-2.38-1.06-.42-2.76 2.28-2.02-3.6-3.44zm-11.23 23.57v2.172l1.272-1.113z" fill="#ca3745"/>
<path d="M176.27 301.27l-1.854 1.747h3.654l-1.8-1.747zm12.71 0l-1.8 1.747h3.654l-1.854-1.747zm12.77 0l-1.853 1.747h3.707l-1.854-1.747zm-27.39-47.51l1.907 1.8 1.854-1.8h-3.76zm12.77 0l1.854 1.8 1.907-1.8h-3.76zm12.77 0l1.853 1.8 1.854-1.8H199.9zm21.98 12.98l-1.27 1.06 1.27 1.006v-2.066zm0 10.59l-1.27 1.06 1.27 1.06v-2.12zm0 10.65l-1.27 1.06 1.27 1.06v-2.12zm-65.79-21.3v2.17l1.27-1.058-1.27-1.112zm0 10.65v2.17l1.27-1.11-1.27-1.06zm0 10.59v2.17l1.27-1.058-1.27-1.112z" fill="#fff"/>
<path d="M199.9 274.86v-3.79h-3.837v-4.158H181.93v4.157h-3.836v3.79h-5.3v7.09h5.3v3.79h3.837v4.16h14.14v-4.16h3.84v-3.79h5.3v-7.1z"/>
<path d="M188.78 267.34v4.285l-6.074 3.453v3.116h-9.485v-2.906h5.3v-3.79h3.84v-4.158zm.43 22.14v-4.285l6.074-3.453v-3.116h9.485v2.906h-5.3v3.79h-3.84v4.158z" fill="#faae29"/>
<path d="M195.29 278.19v-3.116l-6.074-3.453v-4.28h6.423v4.16h3.83v3.79h5.3v2.91zm-22.07.43h9.484v3.116l6.075 3.453v4.28h-6.43v-4.16h-3.84v-3.79h-5.3z" fill="#fff"/>
<path d="M183.14 278.62v2.888l5.645 3.21v-6.098z" fill="#ca3745"/>
<path d="M188.78 272.09l-5.645 3.21v2.888h5.645z" fill="#28ae66"/>
<path d="M194.86 278.19v-2.888l-5.645-3.21v6.098z" fill="#ca3745"/>
<path d="M189.21 284.72l5.645-3.21v-2.888h-5.645z" fill="#28ae66"/>
<path d="M137.65 353.73v11.717h-11.165v10.627h-11.317v30.26h11.317v10.626h11.165v11.717h40.598l7.14 4.29-3.43 2.06H167.48l-1.248-1.407h13.12l-3.697-3.722H156.89l8.502 8.852h17.598l6.01-3.612 6.012 3.612h17.6l8.5-8.852h-18.765l-3.696 3.722h13.12l-1.24 1.408h-14.48l-3.43-2.06 7.14-4.29h40.6V416.96h11.17v-10.627h11.32v-30.26h-11.32v-10.626h-11.17V353.73h-40.6l-7.14-4.29 3.43-2.06h14.48l1.25 1.407h-13.12l3.7 3.722h18.76l-8.5-8.86h-17.6l-6.01 3.61-6.01-3.62h-17.6l-8.5 8.85h18.77l3.7-3.73h-13.12l1.25-1.41h14.48l3.43 2.06-7.14 4.29z"/>
<path d="M199.63 428.23h40.307v-11.706h11.123v-10.646h11.335v-29.396H251.06V365.89h-11.123v-11.707H199.63l-16.737-10.116h-17.32l-7.68 7.998h17.585l2.86-2.86h-13.083l2.013-2.278h14.83l18.962 11.44h34.64v11.707h11.176v10.646h11.335v20.975h-11.33v10.646H235.7v11.71h-34.64l-18.962 11.39h-14.83l-2.013-2.22h13.083l-2.86-2.86h-17.585l7.68 8h17.32zm-22.722-4.184h-34.64V412.34h-11.123v-10.646H119.81V380.72h11.335v-10.647h11.123v-11.706h34.64l19.015-11.44H210.7l2.014 2.276h-13.03l2.86 2.86h17.585l-7.68-7.998h-17.32l-16.74 10.115h-40.31v11.707h-11.17v10.593h-11.34v29.396h11.33v10.646h11.17v11.706h40.3l16.74 10.116h17.32l7.68-7.997h-17.58l-2.86 2.86h13.03l-2.02 2.224H195.9z" fill="#ca3745"/>
<path d="M188.98 351.59l-11.97 7.203h-34.322V370.5h-11.123v10.645H120.23v20.127h11.335v10.646h11.123v11.706h34.322l11.97 7.15 11.97-7.15h34.322v-11.706h11.176v-10.646h11.335v-20.127h-11.335V370.5h-11.176v-11.707H200.95zm0 2.966l11.282 6.78h32.52v11.706h11.177v10.593h11.28v15.095h-11.28v10.646h-11.18v11.706h-32.52l-11.29 6.78-11.23-6.78h-32.52v-11.706h-11.17V398.73h-11.33v-15.095h11.33v-10.593h11.17v-11.706h32.52z" fill="#faae29"/>
<path d="M232.34 408.95v11.717h-32.2l-11.144 6.696-11.144-6.696h-32.2V408.95h-11.166v-10.628H123.17v-14.246h11.316v-10.628h11.166v-11.716h32.2l11.143-6.696 11.144 6.696h32.2v11.716h11.16v10.628h11.31v14.246H243.5v10.628z" fill="#28ae66"/>
<path d="M149.87 404.85v11.34h17.7l-17.7-11.74zm0-27.29v-11.34h17.7l-17.7 11.74zm78.26 27.29v11.34h-17.7l17.7-11.74zm0-27.29v-11.34h-17.7l17.7 11.74z"/>
<path d="M150.3 405.25l15.85 10.513H150.3zm0-28.09c.616-.41 14.77-9.797 15.85-10.513H150.3v10.513zm77.4 28.09l-15.85 10.513h15.85V405.25zm0-28.09l-15.85-10.513h15.85v10.513z" fill="#ca3745"/>
<g id="i">
<path d="M172.44 388.09v-5.79h-1.975l-9.477-5.926-.113.07-9.362 5.855h-1.976v5.79h-4.455v6.22h4.455v5.79h1.976l9.475 5.92 9.477-5.93h1.975v-5.79h6.782v-6.22z"/>
<path d="M160.99 376.88l8.668 5.42h-17.335l8.667-5.42zm8.667 23.22l-8.667 5.42-8.666-5.42h17.333zm-2.097-11.58v5.363h-10.81v-5.363z" fill="#ca3745"/>
<path d="M172.02 394.31v5.363h-10.81v-5.363zm-11.24 0v5.363h-10.81v-5.363zm18.02-5.79v5.363h-10.81v-5.363zm-22.48 0v5.363h-10.81v-5.363zm15.7-5.79v5.362h-10.81v-5.362zm-11.24 0v5.362h-10.81v-5.362z" fill="#faae29"/>
<path d="M153.35 389.71v2.98h-4.855v-2.98zm4.45-5.79v2.98h-4.855v-2.98zm11.24 0v2.98h-4.855v-2.98zm-4.46 5.79v2.98h-4.855v-2.98zm11.24 0v2.98h-4.855v-2.98zm-6.78 5.79v2.98h-4.855v-2.98zm-11.24 0v2.98h-4.855v-2.98z"/>
<path d="M152.89 390.17h-3.94v2.065h3.94zm4.46-5.79h-3.94v2.065h3.94zm11.23 0h-3.94v2.065h3.94zm-4.45 5.79h-3.94v2.065h3.94zm11.23 0h-3.94v2.065h3.94zm-6.78 5.79h-3.94v2.065h3.94zm-11.23 0h-3.94v2.065h3.94z" fill="#fff"/>
</g>
<use xlink:href="#i" transform="matrix(-1 0 0 1 378 0)"/>
<g id="j">
<path d="M200.45 378.42v5.79h-1.975l-9.477 5.926-.113-.07-9.362-5.855h-1.976v-5.79h-5.618v-6.22h5.61v-5.79h1.97l9.47-5.92 9.47 5.93h1.97v5.79h5.61v6.22z"/>
<path d="M189 389.63l8.668-5.42h-17.335l8.667 5.42zm8.667-23.22L189 360.99l-8.666 5.42h17.333z" fill="#faae29"/>
<path d="M200.02 372.2v-5.362h-10.81v5.362zm-11.24 0v-5.362h-10.81v5.362zm16.86 5.79v-5.363h-10.81v5.363zm-11.24 0v-5.363h-10.81v5.363zm-11.24 0v-5.363h-10.808v5.363zm16.86 5.79v-5.363h-10.81v5.363zm-11.24 0v-5.363h-10.81v5.363z" fill="#ca3745"/>
<path d="M185.81 368.03v2.98h-4.855v-2.98zm11.23 0v2.98h-4.855v-2.98zm-16.85 5.79v2.98h-4.855v-2.98zm11.24 0v2.98h-4.855v-2.98zm11.23 0v2.98h-4.855v-2.98zm-16.85 5.79v2.98h-4.855v-2.98zm11.23 0v2.98h-4.855v-2.98z"/>
<path d="M185.35 368.49h-3.94v2.065h3.94zm11.24 0h-3.94v2.065h3.94zm-16.86 5.79h-3.94v2.065h3.94zm11.24 0h-3.94v2.065h3.94zm11.23 0h-3.94v2.065h3.94zm-16.85 5.79h-3.94v2.065h3.94zm11.24 0h-3.94v2.065h3.94z" fill="#fff"/>
</g>
<use y="31.788" xlink:href="#j"/>
<path d="M127.68 479.35l42.052-22.63h38.54l42.05 22.63v37.29l-42.05 22.63h-38.54l-42.052-22.63z"/>
<path d="M169.86 457.15l-41.738 22.458v36.758l41.738 22.458h38.293l41.74-22.458v-36.758l-41.74-22.458H169.86zm.74 3.02h36.813l39.514 21.238v33.21l-39.514 21.24H170.58l-39.513-21.24v-33.21z" fill="#28ae66"/>
<path d="M189.21 497.78v37.64h18.095l39.183-21.087V498.21H188.78v-37.64h-18.094l-39.184 21.085v16.124z" fill="#faae29"/>
<path d="M188.78 497.78v37.64h-18.095L131.5 514.333V498.21h57.708v-37.64h18.095l39.183 21.085v16.124z" fill="#fff"/>
<path d="M192.51 533.32v-10.88l-3.517 2.232-3.518-2.23v10.878h-10.942l7.383-5.414v-7.723l-11.26-7.144h-7.868v-30.08h7.868l11.26-7.15v-7.72l-7.383-5.42h10.942v10.88l3.518-2.24 3.517 2.23v-10.88h10.942l-7.384 5.41v7.72l11.26 7.14h7.868V513h-7.868l-11.26 7.146v7.725l7.384 5.42z"/>
<path d="M192.96 463.14v11.23l-3.76-2.384v3.178l17.213 10.963h5.668v11.654h2.71v-14.4h-7.57l-11.54-7.31v-8.15l6.52-4.76h-9.21zm-29.714 35.064v14.407h7.52l11.6 7.37v8.16l-6.514 4.77h9.217v-11.23l3.7 2.39v-3.28l-17.22-10.86h-5.62v-11.71h-2.7z" fill="#faae29"/>
<path d="M175.85 463.14l6.515 4.766v8.158l-11.6 7.31h-7.52v14.407h2.7v-11.65h5.615l17.214-10.91v-3.23l-3.707 2.39v-11.23h-9.217zm36.23 35.064v11.705h-5.67l-17.213 10.85v3.28l3.76-2.39v11.23h9.216l-6.513-4.77v-8.16l11.546-7.36h7.574v-14.4h-2.7z" fill="#fff"/>
<path d="M166.35 509.46h5.338l17.308 10.98 17.307-10.98h5.338v-22.916h-5.33L189 475.564l-17.31 10.98h-5.34z" fill="#ca3745"/>
<path d="M200.98 503.44h3.695v-1.748h-2.78v-3.18h5.942v8.107h-5.696l.01 5.52h-11.73v-7.94h5.16v3.18h-2v1.59h5.41v-3.04l-21.96-13.39h-3.69v1.74h2.78v3.18h-5.94v-8.11h5.7v-5.53h11.73v7.94h-5.16v-3.17h2V487h-5.4v3.04zm-2-13.383v-3.038h-5.402v1.58h2v3.18h-5.16v-7.95h11.724v5.53h5.695v8.1h-5.94v-3.18h2.78v-1.75h-3.697l-21.96 13.38v3.04h5.4v-1.59h-1.998v-3.17h5.16v7.94h-11.724v-5.53h-5.696v-8.1h5.942v3.18h-2.78v1.74h3.695z"/>
<path d="M199.41 505.7v3.707h-6.26v-2.446h2v-2.32h-4.303v7.09h10.867v-5.53h5.696v-7.24h-5.085v2.32h2.78v2.61h-4.244l-22.27-13.57v-3.71h6.26v2.45h-1.99v2.32h4.3v-7.09h-10.87v5.53h-5.69v7.25h5.09v-2.32h-2.78v-2.6h4.25zm1.45-13.57h4.246v2.604h-2.78v2.322h5.084v-7.248h-5.695v-5.53h-10.867v7.088h4.302v-2.32h-1.998V486.6h6.258v3.705l-22.27 13.57h-4.244v-2.604h2.78v-2.32h-5.084v7.25h5.696v5.53h10.867v-7.09h-4.303v2.32h2v2.45h-6.26v-3.71z" fill="#fff"/>
<path d="M238.04 499.88v11.762h-5.005v-4.154h-5.046v4.154h-5.01V499.88h5v4.154h5.04v-4.154zm-17.91 15.62v11.762h-5.005v-4.154h-5.046v4.154h-5.01V515.5h5v4.154h5.04V515.5zm17.91-19.39v-11.762h-5.005v4.154h-5.046v-4.154h-5.01v11.762h5v-4.154h5.04v4.154zm-98.09 3.77v11.762h5.005v-4.154H150v4.154h5.006V499.88H150v4.154h-5.045v-4.154zm0-3.77v-11.762h5.005v4.154H150v-4.154h5.006v11.762H150v-4.154h-5.045v4.154zm80.18-15.61v-11.762h-5.005v4.154h-5.046v-4.154h-5.01V480.5h5v-4.154h5.04v4.154zm-62.27 35v11.762h5.005v-4.154h5.046v4.154h5.01V515.5h-5v4.154h-5.04V515.5zm0-35v-11.762h5.005v4.154h5.046v-4.154h5.01V480.5h-5v-4.154h-5.04v4.154zm65.26-8.24v8.932h16.597zm-68.24 51.48v-8.932h-16.597zm0-51.48v8.932h-16.597zm68.24 51.48v-8.932h16.597z"/>
<path d="M233.46 507.06v4.154h4.148V500.31h-4.148v4.154h-5.903v-4.154h-4.148v10.904h4.14v-4.154zm-17.9 15.62v4.154h4.148V515.93h-4.148v4.154h-5.903v-4.154h-4.148v10.904h4.14v-4.154zm17.9-33.75v-4.154h4.148v10.904h-4.148v-4.154h-5.903v4.154h-4.148v-10.904h4.14v4.154zm-88.93 18.13v4.154h-4.148V500.31h4.148v4.154h5.903v-4.154h4.148v10.904h-4.14v-4.154zm0-18.13v-4.154h-4.148v10.904h4.148v-4.154h5.903v4.154h4.148v-10.904h-4.14v4.154zm71.03-15.61v-4.154h4.148v10.905h-4.148v-4.15h-5.903v4.16h-4.148v-10.91h4.14v4.16zm-53.12 49.36v4.154h-4.148V515.93h4.148v4.154h5.903v-4.154h4.148v10.904h-4.14v-4.154zm0-49.36v-4.154h-4.148v10.905h4.148v-4.15h5.903v4.16h4.148v-10.91h-4.14v4.16z" fill="#ca3745"/>
<path d="M223.57 472.99v7.786h14.46l-14.46-7.786zm-83.58 42.268l14.46 7.786v-7.786h-14.46z" fill="#faae29"/>
<path d="M154.45 472.99l-14.46 7.786h14.46v-7.786zm69.12 42.268v7.786l14.46-7.786h-14.46z" fill="#fff"/>
</g>
</svg>
