<svg id="turkmenistan_flag" viewBox="0 0 900 600" xmlns="http://www.w3.org/2000/svg" xmlns:xlink="http://www.w3.org/1999/xlink">
<rect width="900" height="600" fill="#28ae66"/>
<g fill="#fff">
<path id="crescent" d="m446.82 66.542c26.6 11.42 45.236 37.851 45.236 68.628 0 41.224-33.431 74.655-74.654 74.655-18.455 0-35.345-6.7044-48.377-17.805 8.0616 3.4572 16.87 5.5458 26.15 5.9508 41.185 1.7982 76.042-30.142 77.84-71.327 1.044-23.911-9.2868-45.688-26.195-60.102z"/>
<path id="star" d="m375.62 121.42 8.4582-26.033-22.145 16.089h27.373l-22.145-16.089z"/>
<use y="-38.400051" xlink:href="#star" height="600"/>
<use y="-18.722051" x="37.936928" xlink:href="#star"/>
<use y="18.721949" x="-37.936072" xlink:href="#star"/>
<use y="38.399949" xlink:href="#star" height="600"/>
</g>
<g id="carpets" fill="#383739">
<rect width="162" height="600" x="108" fill="#ca3745"/>
<g id="ornm5">
<g id="ornm">
<path d="m108-39.619v5.8793l9.1102 8.5275-3.0722 2.8602 6.5149 6.0381-2.8602 2.5953v-3.7606h-5.5615v4.5021l12.553 11.758h6.3559l0.68864-4.1314h-3.6548l3.9724-3.7076 9.9576 9.0572-9.9576 9.1102-3.9724-3.7076h3.6548l-0.68864-4.1843h-6.3559l-12.553 11.759v4.5021h5.5615v-3.7606l2.8602 2.5953-6.5149 6.0381 3.0722 2.913-9.1102 8.4746v5.8793l15.413-14.354-3.072-2.913 6.4619-6.0381-5.5615-5.1907 3.7078-3.3898 7.0973 6.5678 15.572-14.301-15.572-14.301-7.0973 6.6208-3.7078-3.4428 5.5615-5.1907-6.4619-6.0381 3.072-2.8602-15.413-14.407zm0 28.549v22.14l3.6017-3.6547v-4.2902h3.8136l3.0719-3.125-3.0719-3.072h-3.8136v-4.3432l-3.6017-3.6547zm26.271 7.839-0.52983 3.0191 0.52983 3.072 3.2837-3.072-3.2837-3.0191z"/>
<path d="m108-38.983v4.661l9.7458 9.1102-3.0722 2.8602 6.5149 6.0381-3.9195 3.6547v-4.3962h-4.7141v3.9195l12.341 11.494h5.7203l0.58254-3.2839h-4.2373l5.0848-4.767 10.593 9.6928-10.593 9.6928-5.0848-4.714h4.2373l-0.584-3.3369h-5.7203l-12.341 11.494v3.9195h4.7141v-4.3962l3.9195 3.6547-6.5149 6.0381 3.0722 2.913-9.7458 9.0573v4.661l14.777-13.718-3.072-2.913 6.4619-6.0381-5.5615-5.1907 4.3434-4.0254 7.0973 6.6208 14.884-13.718-14.884-13.718-7.0973 6.6208-4.3434-4.0254 5.5615-5.1907-6.4619-6.0381 3.072-2.8602-14.777-13.771zm0 28.549v20.869l3.178-3.178v-4.608h4.0783l2.6483-2.6483-2.6483-2.6483h-4.0783v-4.608l-3.178-3.178zm26.589 8.0508-0.37068 2.1716 0.37068 2.1716 2.3305-2.1716-2.3305-2.1716z" fill="#faae29"/>
</g>
<use y="109.20679" xlink:href="#ornm"/>
<use y="222.0051" xlink:href="#ornm"/>
<use y="334.80173" xlink:href="#ornm"/>
<use y="447.59835" xlink:href="#ornm"/>
</g>
<use xlink:href="#ornm5" transform="matrix(-1 0 0 1 378 0)"/>
<path id="branch" d="m121.14 530.82c0.7992 3.4074 3.5082 5.979 4.1538 9.513 1.2924-3.6846 2.484-6.7734 1.5942-10.804-0.6366-2.883-3.0618-4.9392-3.3426-7.902-2.6442 2.3772-3.2136 5.7492-2.4054 9.1932zm-0.67021 14.276c2.2428 3.075 5.3604 5.4336 8.8032 7.0062-0.678-2.6934 0.594-4.7214 2.0058-6.8598 1.701-2.574 2.5302-5.1024 1.1436-8.0664-0.6462 1.5408-1.5144 2.8206-2.5332 4.1382-1.5066 2.0556-2.4972 3.8832-2.7294 6.5196-1.7424-1.2912-2.508-3.2196-3.4398-5.0856-1.4202-2.673-3.7122-4.9074-6.345-6.3684 0.6996 2.9982 1.2384 6.1686 3.0948 8.7162zm12.578 9.1656c-0.47939 1.7076-0.8928 3.4008-0.8004 5.1858-1.482-1.5966-3.45-2.7984-5.2056-4.0848-2.391-1.9338-5.178-3.2976-7.1328-5.76 0.2916 3.624 1.8426 6.5784 4.7874 8.7834 3.1128 2.3298 6.867 3.5826 9.933 6.0288-0.459-3.2958 0.7518-5.9364 1.7844-8.9658 0.86041-2.895 0.0276-5.8344-1.9356-8.0406 0.0294 2.4456-0.74221 4.5456-1.4304 6.8532zm6.9858 11.133c0.64501 2.5002 2.4366 4.5342 3.66 6.7644-3.2988-1.023-6.2094-2.8122-9.1914-4.4958-3.552-1.9338-7.4088-3.165-10.624-5.7186 1.6002 5.9244 5.5662 9.3588 11.368 11.11 3.9672 1.1982 7.3104 0.6006 12.124 2.5458-0.552-3.2586-1.5246-6.7758-3.0654-9.714-1.1958-2.1252-2.5218-4.221-3.2604-6.5616-1.0698 1.9224-1.5762 3.8784-1.011 6.0696zm12.139 9.0654c1.1358 1.9458 2.6352 3.5832 4.4946 4.875-4.683 0.29819-8.4516-2.6694-13.017-2.7984-2.82-0.0792-5.4972 0.7962-8.373 0.5334 3.4128 2.3028 6.9858 4.3134 11.141 4.851 5.4012 0.69841 10.382-0.66059 16.341-0.129-2.7846-1.965-4.1778-4.5954-5.9136-7.4238-2.2602-3.5322-4.3932-6.0498-8.7894-6.618 1.7646 1.9836 2.7918 4.4406 4.1166 6.7098zm16.631 7.773c-8.25 1.4022-16.156 3.2172-24.581 3.3006 9.4314 3.288 18.318 3.8826 27.672 0.4878 5.055-1.8348 8.931-2.817 12.749-2.5434 5.5794 0.4008 12.36 2.6022 19.864 10.517l2.9496-2.3604c-10.755-9.5831-24.828-11.753-38.653-9.4024z" fill="#faae29"/>
<use xlink:href="#branch" transform="matrix(-1 0 0 1 378.04 0)"/>
<g id="carp1">
<path d="m128.27 70.339-12.981-7.9602v-19.135l12.981-7.9602v-10.125l12.267-7.3872h9.8004l18.647-10.489h40.033l18.648 10.489h9.8004l12.267 7.3872v10.125l12.981 7.9602-0.0006 19.135-12.98 7.9602v10.125l-12.267 7.3872h-9.8004l-18.648 10.489h-40.033l-18.647-10.489h-9.8004l-12.267-7.3872z"/>
<path d="m169.07 7.7328-18.644 10.487h-9.7458l-11.97 7.2034v10.116l-12.977 7.9449v18.644l12.977 7.9449v10.17l11.917 7.2034h9.7988l18.644 10.487h39.83l18.644-10.487h9.7987l11.97-7.2034v-10.17l12.977-7.9449v-18.644l-12.977-7.9449v-10.116l-11.97-7.2034h-9.7987l-18.644-10.487h-39.83zm1.1123 3.8665h37.659l18.644 10.487h9.7458l9.0572 5.4555v10.116l13.03 7.9449v14.407l-13.03 7.9449v10.116l-9.0572 5.4555h-9.7458l-18.644 10.487h-37.659l-18.644-10.487h-9.7458l-9.1101-5.4555v-10.116l-12.977-7.9449v-14.407l12.977-7.9449v-10.116l9.1101-5.4555h9.7458l18.644-10.487z" fill="#28ae66"/>
<path d="m188.78 53.025v-41.008h-18.506l-18.649 10.489h-9.7218l-8.7948 5.2962v10.1l-12.98 7.9596v6.7356l69.081-0.00066v41.01h18.506l18.648-10.489h9.7224l8.7942-5.2962v-10.1l12.981-7.9602v-6.7356z" fill="#faae29"/>
<path d="m120.13 53.025-0.0006 6.7356 12.981 7.9602v10.1l8.7942 5.2962h9.7224l18.648 10.489h18.506v-41.01l69.081 0.000661v-6.7356l-12.981-7.9596v-10.1l-8.7942-5.2962h-9.7224l-18.648-10.489h-18.506v41.008z" fill="#fff"/>
<g id="carp1h">
<g id="carp1q">
<path d="m148.45 26.28-3.1956-2.9784-3.1662 1.9524 3.201 2.9844-4.11 2.5464h8.9688l7.7292 7.2906 2.4726-2.6112-7.515-7.089v-4.812z"/>
<path d="m163.57 24.972-3.1956-2.9784-3.1662 1.9524 3.201 2.9844-4.11 2.5464h8.9688l7.7292 7.2906 2.4726-2.6112-7.515-7.089v-4.812z"/>
<path d="m147.34 34.836-3.1956-2.9784-3.1656 1.9524 3.2004 2.9844-4.1094 2.5464h8.9688l7.7286 7.2906 2.4726-2.6112-7.515-7.089v-4.812z"/>
<path d="m189 11.589h-8.0931l-4.2348 4.0812h-8.2554l-6.1002 3.1662 1.4226 3.4662 5.4402-2.8572h2.3826l8.3412 9.6468 9.0972-5.5398z"/>
<path d="m145.2 23.838 2.8716 2.6766-2.406 1.4904-2.8758-2.6808 2.4102-1.4862zm7.2054 0.495v4.227l7.3374 6.9216-1.884 1.9896-7.5414-7.1142h-7.6356l9.7236-6.024z" fill="#ca3745"/>
<path d="m160.32 22.529 2.8716 2.6766-2.406 1.4904-2.8752-2.6808 2.4096-1.4862zm7.2054 0.495v4.227l7.3374 6.9216-1.884 1.9896-7.5414-7.1136h-7.6356l9.7236-6.0246z" fill="#ca3745"/>
<path d="m144.09 32.393 2.871 2.6766-2.406 1.4904-2.8752-2.6808 2.4102-1.4862zm7.2048 0.495v4.227l7.3374 6.9216-1.8834 1.9896-7.5414-7.1136h-7.6362l9.7236-6.0246z" fill="#ca3745"/>
<path d="m188.78 12.017h-7.706l-4.2348 4.0812h-8.3238l-5.6604 2.9376 1.095 2.6688 5.1168-2.6868h2.685l8.232 9.5208 8.7962-5.3562z" fill="#ca3745"/>
</g>
<use xlink:href="#carp1q" transform="matrix(1 0 0 -1 0 105.62)"/>
<path d="m143.05 39.711-3.8586-1.4418-0.0924 0.0642-4.9824 3.4572v0.9294l-7.98 10.091 7.98 10.091v0.93l5.0748 3.5208 3.8586-1.4418-2.355-1.5594v-2.967l0.93599-1.1196h4.1814v-14.909h-4.1814l-0.93599-1.1196v-2.967z"/>
<path d="m134.55 42.014 4.7064-3.2652 2.862 1.0692-1.8468 1.2228v3.3522l1.164 1.392h3.9528v14.053h-3.9528l-1.164 1.392v3.3522l1.8468 1.2228-2.862 1.0692-4.7064-3.2652 0.0006-0.855-7.863-9.9426 7.863-9.9432z" fill="#ca3745"/>
</g>
<use xlink:href="#carp1h" transform="matrix(-1 0 0 1 377.99 0)"/>
<path d="m136.2 61.282-2.1726-1.8798v-0.906l-4.6608-5.685 4.6614-5.6856v-0.9054l2.1726-1.8798 3.9024 3.1734-2.2524-0.0174 3.3282 3.378h7.605l5.9808-4.677v-12.334h14.959l17.372-10.661v-2.796l-2.6568-1.7706h-0.8418l-2.8932 1.9362-0.4482 1.4442-2.2632-3.09 4.3986-3.6954h0.7032l4.9638-3.642h1.8714l4.9632 3.642h0.70381l4.3986 3.6954-2.2632 3.09-0.44821-1.4442-2.8932-1.9362h-0.8418l-2.6568 1.7706v2.796l17.372 10.661h14.959v12.334l5.9808 4.677h7.605l3.3282-3.378-2.2524 0.0174 3.9024-3.1734 2.1726 1.8798v0.9054l4.6614 5.6856-4.6614 5.685v0.906l-2.1726 1.8798-3.9024-3.1734 2.2524 0.0174-3.3282-3.3786h-7.605l-5.9808 4.6776v12.334h-14.959l-17.372 10.661v2.796l2.6568 1.7706h0.8418l2.8932-1.9362 0.44821-1.4442 2.2632 3.0894-4.3986 3.696h-0.70381l-4.9632 3.642h-1.8714l-4.9638-3.642h-0.7032l-4.3992-3.696 2.2638-3.0894 0.4482 1.4442 2.8926 1.9362h0.8418l2.6574-1.7706v-2.796l-17.372-10.661h-14.959v-12.334l-5.9814-4.6776h-7.6044l-3.3282 3.3786 2.2524-0.0174z"/>
<path d="m189.21 87.319 1.9014 1.4538-1.9014 1.4538v-2.9076zm-6.0438 2.6442h0.0702l4.9638 3.6426h0.5796v-2.8416l-2.604-1.9914 2.6046-1.9914v-5.3376l-18.589-11.408h-13.742v-11.462l-7.095-5.5488h-10.702l-2.6898 3.0414-2.6898-3.0414-3.1758 0.0006 4.3596 5.3172v0.8634l1.7268 1.5 2.7744-2.16-1.6284 0.0126v-0.54l3.6288-3.699h7.974l6.2622 4.8972v12.115h14.651l17.679 10.849v3.264l-2.9556 1.9698h-1.1022l-3.1266-2.0928-0.24061-0.7764-1.5246 2.0808 3.9732 3.3372h0.6174zm-47.201-39.76 2.118 2.394h-4.2366l2.1186-2.394zm52.816-34.807-1.9002 1.4538 1.9002 1.4532v-2.907zm51.127 37.63 2.118 2.394 2.118-2.394h-4.236zm-45.154-37.367-4.9638-3.642h-0.5796v2.8404l2.6052 1.9926-2.6058 1.9926v5.3364l18.589 11.408h13.742v11.462l7.095 5.5488h10.7l2.6904-3.0408 2.6904 3.0402h3.1764l-4.3596-5.3172v-0.8634l-1.7268-1.5-2.7744 2.16 1.6284-0.0132v0.5406l-3.6288 3.6984h-7.974l-6.2616-4.8972v-12.114h-14.652l-17.679-10.849v-3.2646l2.9556-1.9692h1.1022l3.1266 2.0928 0.2406 0.7764 1.5246-2.0808-3.9732-3.3378h-0.6876z" fill="#faae29"/>
<path d="m188.78 90.226-1.9002-1.4532 1.9002-1.4532v2.9064zm-50.698-37.201-2.118 2.394-2.118-2.394h4.236zm56.741 36.938h-0.0702l-4.9638 3.6426h-0.5796v-0.744-2.0964l2.6052-1.9926-2.6058-1.9926v-5.3364l18.589-11.408h13.742v-11.462l7.095-5.5488h10.7l2.6898 3.0414 2.6898-3.0414 3.177 0.000599-4.3596 5.3172v0.8634l-1.7268 1.5-2.7744-2.16 1.6284 0.0126v-0.54l-3.6288-3.699h-7.974l-6.2616 4.8972v12.115h-14.652l-17.679 10.849v3.264l2.9556 1.9698h1.1022l3.1266-2.0928 0.2406-0.7764 1.5246 2.0808-3.9732 3.3372h-0.6174zm47.202-39.76-2.118 2.394h4.2366l-2.1186-2.394zm-58.789-34.544 4.9638-3.642h0.5802v2.8404l-2.6058 1.9926 2.6058 1.9926 0.0006 5.3364-18.59 11.408h-13.741v11.462l-7.0956 5.5488h-10.703l-2.6898-3.0408-2.6904 3.0402h-3.174l4.3602-5.3172v-0.8634l1.7268-1.5 2.7738 2.16-1.6284-0.0132v0.5406l3.6294 3.6984h7.9734l6.2622-4.8972v-12.114h14.651l17.68-10.849v-3.2646l-2.9556-1.9692h-1.1028l-3.1266 2.0928-0.2406 0.7764-1.524-2.0808 3.9732-3.3378h0.687zm5.9724 2.6448 1.9014-1.4538-1.9014-1.4538v2.9076z" fill="#fff"/>
<path d="m188.78 53.025v-28.345l-18.469 11.334h-13.435v11.243l-6.828 5.34 39.16-0.00066v28.345l18.467-11.333h13.435v-11.243l6.828-5.34z" fill="#28ae66"/>
<path d="m150.05 53.025 6.8286 5.34v11.243h13.434l18.469 11.334v-28.346l39.159 0.000661-6.828-5.34v-11.243h-13.435l-18.467-11.333v28.344z" fill="#ca3745"/>
<path d="m169.12 39.064-3.195-2.9784-3.1662 1.9518 3.201 2.9844-4.11 2.5464h8.9688l7.7292 7.2912 2.4726-2.6118-7.515-7.089v-4.8114z"/>
<path d="m208.87 66.559 3.1956 2.9784 3.1656-1.9524-3.2004-2.9844 4.11-2.5458h-8.9694l-7.7286-7.2912-2.4726 2.6112 7.515 7.0896v4.8114z"/>
<path d="m169.12 66.559-3.1956 2.9784-3.1656-1.9524 3.2004-2.9844-4.1094-2.5458h8.9688l7.7286-7.2912 2.4726 2.6112-7.515 7.0896v4.8114z"/>
<path d="m208.87 39.064 3.1956-2.9784 3.1656 1.9518-3.2004 2.9844 4.11 2.5464h-8.9694l-7.7286 7.2912-2.4726-2.6118 7.515-7.089v-4.8114z"/>
<path d="m212.12 69.002-2.871-2.6766 2.406-1.4904 2.8752 2.6808-2.4102 1.4862zm-7.2048-0.495v-4.2264l-7.3374-6.9216 1.884-1.9902 7.5414 7.1142h7.6356l-9.7236 6.024zm-39.047-31.886 2.8716 2.6766-2.4066 1.491-2.8752-2.6808 2.4102-1.4868zm7.2054 0.4956v4.2264l7.3374 6.9216-1.884 1.9902-7.5414-7.1142h-7.6356l9.7236-6.024z" fill="#ca3745"/>
<path d="m212.12 36.62-2.871 2.6766 2.406 1.491 2.8752-2.6808-2.4102-1.4868zm-7.2048 0.4956v4.2264l-7.3374 6.9216 1.884 1.9902 7.5414-7.1142h7.6356l-9.7236-6.024zm-39.047 31.886 2.871-2.6766-2.406-1.4904-2.8752 2.6808 2.4102 1.4862zm7.2048-0.495v-4.2264l7.3374-6.9216-1.8834-1.9902-7.5414 7.1142h-7.6362l9.7236 6.024z" fill="#28ae66"/>
<path d="m208.86 52.812-19.86 13.235-19.86-13.235 19.86-13.236z"/>
<path d="m188.78 40.233-18.551 12.364h37.532l-18.551-12.364v25.157l18.552-12.364h-37.533l18.552 12.364z" fill="#fff"/>
<path d="m194.31 57.363v3.639h-10.621v-3.639h-6.8736v-9.1032h6.8736v-3.639h10.621v3.639h6.873v9.1032z"/>
<path d="m184.12 45.048v3.639h-6.873v3.9096h11.54v-7.5486h-4.6674zm5.0964 7.5486h11.54v-3.9096h-6.873v-3.639h-4.6674v7.5486zm-11.969 0.4284v3.9096h6.873v3.639h4.6674v-7.5486h-11.54zm11.969 7.5486h4.6674v-3.639h6.873v-3.9096h-11.54v7.5486z" fill="#ca3745"/>
</g>
<g id="carp2">
<path d="m222.88 203.61v-5.8302h15.988v-5.8302h15.988v-52.681h-15.988v-5.8302h-15.988v-5.8302h-15.988v-5.8302h-35.782v5.8302h-15.988v5.8302h-15.989v5.8302h-15.988v52.681h15.988v5.8302h15.989v5.8302h15.988v5.8302h35.782v-5.8302z"/>
<path d="m171.56 122.19v5.8261h-15.996v5.8264h-15.996v5.8261h-15.996v51.854h15.996v5.8271h15.996v5.8254h15.996v5.8254h34.903v-5.8254h15.997v-5.8254h15.997v-5.8271h15.995v-51.854h-15.995v-5.8261h-15.997v-5.8264h-15.997v-5.8261h-34.903zm4.2373 4.2373h26.429v5.8261h15.997v5.8264h15.997v5.8261h15.995v43.379h-15.995v5.8271h-15.997v5.8254h-15.997v5.8254h-26.429v-5.8254h-15.996v-5.8254h-15.996v-5.8271h-15.996v-43.379h15.996v-5.8261h15.996v-5.8264h15.996v-5.8261z" fill="#ca3745"/>
<path d="m160.21 198.52v-5.8308h-15.988v-5.8296h-15.989v-42.5h15.989v-5.8302h15.988v-5.8302h15.988v-5.8296h25.601v5.8296h15.989v5.8302h15.988v5.8302h15.989v42.5h-15.989v5.8296h-15.988v5.8308h-15.989v5.8296h-25.601v-5.8296z" fill="#ca3745"/>
<path d="m163.92 137.01-4.1412-3.1302v6.0108l-3.9654 2.52-0.0102-3.7626-3.8034 3.4164-3.8034-3.4164-0.0102 3.7626-4.3944-2.7924v5.5728l-3.5514 2.571-0.01-3.417-4.2192 3.0558-4.2192-3.0558-0.01 3.417-3.9798-2.8812v16.882h-4.662v7.6842h4.662v16.882l3.9798-2.8818 0.01 3.4176 4.2192-3.0558 4.2186 3.0558 0.0102-3.4176 3.5514 2.571v5.5734l4.3944-2.7924 0.0102 3.7626 3.8034-3.4164 3.8034 3.4164 0.0102-3.7626 3.9654 2.5194v6.0114l4.1412-3.1302 0.009 4.1982 4.0584-3.6294 4.059 3.6294 0.009-4.1982 3.7128 2.8062v6.411l5.5512-5.0598v5.946l7.6776-4.9362 7.6782 4.9362v-5.946l5.5512 5.0598v-6.411l3.7122-2.8062 0.009 4.1982 4.059-3.6294 4.059 3.6294 0.009-4.1982 4.14 3.1302v-6.0114l3.9666-2.5194 0.01 3.7626 3.804-3.4164 3.8034 3.4164 0.01-3.7626 4.395 2.7924v-5.5734l3.5514-2.571 0.01 3.4176 4.2186-3.0558 4.2192 3.0558 0.01-3.4176 3.9798 2.8812v-16.881h4.662v-7.6842h-4.662v-16.882l-3.9798 2.8812-0.01-3.417-4.2192 3.0558-4.2192-3.0558-0.009 3.417-3.5514-2.571v-5.5728l-4.395 2.7924-0.01-3.7626-3.8034 3.4164-3.804-3.4164-0.01 3.7626-3.9666-2.5206v-6.0102l-4.14 3.1296-0.009-4.1982-4.059 3.63-4.059-3.63-0.009 4.1988-3.7122-2.8074v-6.4098l-5.5512 5.0598v-5.946l-7.6782 4.9362-7.6776-4.9362v5.946l-5.5512-5.0598v6.4104l-3.7128 2.8068-0.009-4.1988-4.059 3.63-4.0584-3.63z"/>
<g fill="#28ae66">
<path d="m132.21 148.6 0.01-3.4176 3.7926 2.7474 0.1278-0.093 3.6648-2.6544 0.01 3.4176 3.978-2.8794v39.768l-3.978-2.8794-0.01 3.4176-3.7926-2.7474-3.7926 2.7474-0.01-3.4176-3.978 2.8794v-16.471h-4.662v-6.8268h4.662v-16.471z"/>
<path d="m164.36 133.77 3.6324 3.2484 3.6324-3.2484 0.009 4.1022 4.1388-3.129v61.727l-4.1388-3.129-0.009 4.1022-3.6324-3.2484-3.6324 3.2484-0.008-4.1022-4.1388 3.129v-61.727l4.1388 3.129z"/>
<path d="m213.64 133.77-3.6324 3.2484-3.6324-3.2484-0.009 4.1022-4.1382-3.129v61.727l4.1382-3.129 0.009 4.1022 3.6324-3.2484 3.6324 3.2484 0.009-4.1022 4.1388 3.129v-61.727l-4.1388 3.129z"/>
<path d="m245.79 148.6-0.01-3.4176-3.7926 2.7474-0.1284-0.093-3.6648-2.6544-0.01 3.4176-3.9774-2.8794v39.768l3.9774-2.8794 0.01 3.4176 3.7932-2.7474 3.7926 2.7474 0.01-3.4176 3.9774 2.8794v-16.471h4.662v-6.8268h-4.662v-16.471z"/>
</g>
<g fill="#faae29">
<path d="m148.62 139.61 3.3774 3.0342 3.3774-3.0342 0.01 3.5832 4.3926-2.7918v50.413l-4.3926-2.7912-0.01 3.5826-3.3774-3.0336-3.3774 3.0336-0.01-3.5826-4.3926 2.7912v-50.413l4.3926 2.7918z"/>
<path d="m181.75 133.83-5.5512-5.0598v73.682l5.5512-5.0598v6.1314l7.2486-4.6602h0.0006 0.0006l7.2486 4.6602v-6.1314l5.5512 5.0598v-73.682l-5.5512 5.0598v-6.1314l-7.2486 4.6602h-0.0006-0.0006l-7.2486-4.6602z"/>
<path d="m229.37 139.61-3.3774 3.0342-3.378-3.0342-0.009 3.5832-4.3932-2.7918v50.413l4.3932-2.7912 0.009 3.5826 3.378-3.0336 3.3774 3.0336 0.01-3.5826 4.3926 2.7912v-50.413l-4.3926 2.7918z"/>
</g>
<g id="carp2h">
<g id="carp2q">
<path d="m134.29 158.37c0.4854 0.4896 1.0656 0.7374 1.7244 0.7374 0.6582 0 1.2384-0.2478 1.7244-0.7374 1.5186-1.53 1.5696-4.2972 1.5546-6.2886 0 0-1.7556 1.8552-2.0724 2.19-0.2208-0.38159-1.2066-2.0838-1.2066-2.0838s-0.9858 1.7022-1.2072 2.0838c-0.3168-0.33479-2.0724-2.19-2.0724-2.19-0.015 1.9914 0.0366 4.7586 1.5552 6.2886z"/>
<path d="m150.97 154.08-1.2792-1.278v-2.5464l-2.9376 2.7228 5.2512 5.2512 5.2512-5.2512-2.9376-2.7228v2.5464l-1.2786 1.278v-4.5114l2.265-1.9446-3.3-2.8338-3.3 2.8338 2.2656 1.9446z"/>
<path d="m166.95 149.02-1.2786-1.2786v-2.5464l-2.9376 2.7228 5.2512 5.2512 5.2512-5.2512-2.9376-2.7228v2.5464l-1.2792 1.2786v-4.512l2.2656-1.9446-3.3-2.8332-3.3 2.8332 2.265 1.9446z"/>
<path d="m136.01 153.04c0.2622 0.4524 1.1232 1.9398 1.1232 1.9398s1.2132-1.2828 1.7088-1.8054c-0.0594 2.2488-0.5532 4.0254-1.4118 4.89-0.4026 0.4056-0.8802 0.6114-1.4202 0.6114-0.5406 0-1.0182-0.2058-1.4202-0.6108-0.85861-0.8652-1.3524-2.6418-1.4118-4.8906 0.495 0.5232 1.7082 1.8054 1.7082 1.8054 0.37439-0.6468 0.7494-1.2936 1.1238-1.9398z" fill="#fff"/>
<path d="m168.6 144.31v5.7432l2.136-2.1354v-1.7424l1.8912 1.7532-4.6332 4.6332-4.6338-4.6332 1.8912-1.7532v1.7424l2.136 2.1354v-5.7432l-2.0358-1.7478 2.6424-2.2686 2.6418 2.2686z" fill="#fff"/>
<path d="m152.61 149.37v5.7432l2.136-2.136v-1.7418l1.8912 1.7526-4.6338 4.6338-4.6332-4.6338 1.8912-1.7526v1.7418l2.136 2.136v-5.7432l-2.0358-1.7478 2.6418-2.2686 2.6424 2.2686z" fill="#ca3745"/>
</g>
<use xlink:href="#carp2q" transform="matrix(-1 0 0 1 378 0)"/>
<path d="m195.28 150.94-1.7202-2.3772 4.4112-4.0722-4.113-3.3792v2.394l-1.7202 1.4718v-4.3422l3.8856-2.8638-7.029-5.181-7.029 5.181 3.8862 2.8638v4.3422l-1.7202-1.4718v-2.394l-4.1136 3.3792 4.4118 4.0722-1.7202 2.3772z"/>
<path d="m183.55 150.51 1.4508-2.0058-4.329-3.996 3.0318-2.4912v1.6842l2.5776 2.2056v-5.49l-3.5922-2.6472 6.3066-4.6482 6.3066 4.6482-3.5916 2.6472v5.49l2.577-2.2056v-1.6842l3.0324 2.4912-4.329 3.996 1.4514 2.0058z" fill="#ca3745"/>
<path d="m185.78 137.77 3.2118 2.367 3.2124-2.367-3.2124-2.3676-0.1272 0.0942z"/>
<path d="m189 135.93c0.2124 0.156 2.1144 1.5582 2.49 1.8348-0.3756 0.2766-2.2776 1.6788-2.49 1.8348-0.2118-0.15601-2.1144-1.5582-2.4894-1.8348 0.375-0.2766 2.2776-1.6788 2.4894-1.8348z" fill="#28ae66"/>
</g>
<use xlink:href="#carp2h" transform="matrix(1 0 0 -1 0 331.22)"/>
<path d="m245.9 163.15h-7.0374v-2.805h-21.511l-14.974-9.8358h-0.0636-26.701l-14.974 9.8358h-21.511v2.805h-7.0374v4.9176h7.0374v2.805h21.511l14.974 9.8364h26.765l14.974-9.8364h21.511v-2.805h7.0374z"/>
<path d="m175.74 150.95-14.989 9.7987h-21.186v2.8072h-7.0445v4.0784h7.0445v2.8072h21.186l14.989 9.8517h26.536l14.936-9.8517h21.239v-2.8072h7.0445v-4.0784h-7.0445v-2.8072h-21.239l-14.936-9.7987zm0.31779 1.4301h25.848l13.718 9.0042v1.3771h15.307v5.7203h-15.307v1.3771l-13.718 8.9513h-25.848l-13.665-8.9513v-1.3771h-15.36v-5.7203h15.36v-1.3771z" fill="#ca3745"/>
<path d="m201.8 152.83 13.379 8.7834v1.5588h15.332v4.8804h-15.332v1.5594l-13.379 8.7834h-25.604l-13.379-8.7834v-1.5594h-15.332v-4.8804h15.332v-1.5588l13.379-8.7834z" fill="#ca3745"/>
<path d="m169.55 170.6 5.793 4.3488 3.8106-2.8614-2.2152-1.6632-1.5954 1.1982-1.362-1.0224 21.815-16.379h-4.4304zm12.645 6.4008h4.4304l21.816-16.379-5.7924-4.3482-3.8112 2.8608 2.2152 1.6626 1.596-1.1982 1.362 1.023zm9.171 0h4.4298l-21.815-16.379 1.362-1.023 1.5954 1.1982 2.2152-1.6626-3.8106-2.8608-5.793 4.3482zm12.645-6.4008-1.362 1.0224-1.596-1.1982-2.2152 1.6632 3.8112 2.8614 5.7924-4.3488-21.816-16.379h-4.4304z"/>
<path d="m165.16 165.61 3.8934 2.586 3.8934-2.586-3.8934-2.586z"/>
<path d="m185.1 165.61 3.8934 2.586 3.8934-2.586-3.8934-2.586z"/>
<path d="m212.83 165.61-3.8934 2.586-3.8934-2.586 3.8934-2.586z"/>
<path d="m207.73 170.6-5.0784 3.813-3.0978-2.3256 1.5018-1.1274 1.596 1.1982 2.0754-1.5582-21.245-15.95h3.003zm-13.216 5.9718h-3.0024l-21.245-15.95 5.079-3.813 3.0966 2.3256-1.5012 1.1268-1.5954-1.1982-2.076 1.5588zm-8.0286 0h-3.003l21.245-15.95-2.0754-1.5588-1.596 1.1982-1.5018-1.1268 3.0978-2.3256 5.0784 3.813zm5.0262-21.922h3.0024l-21.244 15.95 2.076 1.5582 1.5954-1.1982 1.5012 1.1274-3.0966 2.3256-5.079-3.813z" fill="#faae29"/>
<path d="m169.06 163.54 3.1188 2.0712-3.1188 2.0712-3.1188-2.0712z" fill="#28ae66"/>
<path d="m189 163.54 3.1188 2.0712-3.1188 2.0712-3.1182-2.0712z" fill="#28ae66"/>
<path d="m208.94 163.54-3.1188 2.0712 3.1188 2.0712 3.1182-2.0712z" fill="#28ae66"/>
</g>
<g id="carp3">
<path d="m120.51 274.15-1.5276 2.1606 2.7384 2.094-2.739 2.0946 1.5276 2.1606 3.1818 0.3696 3.081-2.3808 7.6818 4.8798v-4.0524l-4.8348-3.0714 4.8348-3.0708v-4.0524l-7.6818 4.8798-3.081-2.3802z"/>
<path d="m120.51 260.07-1.5276 2.1612 2.7384 2.094-2.739 2.094 1.5276 2.1612 3.1818 0.369 3.081-2.3808 7.6818 4.8804v-4.053l-4.8348-3.0708 4.8348-3.0714v-4.0524l-7.6818 4.8798-3.081-2.3802z"/>
<path d="m120.51 296.74-1.5276-2.1606 2.7384-2.094-2.739-2.0946 1.5276-2.1606 3.1818-0.369 3.081 2.3802 7.6818-4.8798v4.0524l-4.8348 3.0714 4.8348 3.0708v4.0524l-7.6818-4.8798-3.081 2.3808z"/>
<path d="m257.48 274.15 1.5276 2.1606-2.7384 2.094 2.7384 2.0946-1.5276 2.1606-3.1812 0.3696-3.081-2.3808-7.6824 4.8798v-4.0524l4.8354-3.0714-4.8354-3.0708v-4.0524l7.6824 4.8798 3.081-2.3802z"/>
<path d="m257.48 260.07 1.5276 2.1612-2.7384 2.094 2.7384 2.094-1.5276 2.1612-3.1812 0.369-3.081-2.3808-7.6824 4.8804v-4.053l4.8354-3.0708-4.8354-3.0714v-4.0524l7.6824 4.8798 3.081-2.3802z"/>
<path d="m257.48 296.74 1.5276-2.1606-2.7384-2.094 2.7384-2.0946-1.5276-2.1606-3.1812-0.369-3.081 2.3802-7.6824-4.8798v4.0524l4.8354 3.0714-4.8354 3.0708v4.0524l7.6824-4.8798 3.081 2.3808z"/>
<path d="m226.73 235.73v5.856h4.2594v2.5878h4.1844v-4.7124h-3.732v-3.7314h-4.7118z"/>
<path d="m239.28 244.96v5.8554h4.2552v2.5884h4.1886v-4.7124h-3.7314v-3.7314h-4.7124z"/>
<path d="m151.27 235.73v5.856h-4.2606v2.5878h-4.1832v-4.7124h3.7314v-3.7314h4.7124z"/>
<path d="m226.73 321.08v-5.856h4.2594v-2.5878h4.1844v4.7118h-3.732v3.732h-4.7118z"/>
<path d="m151.27 321.08v-5.856h-4.2606v-2.5878h-4.1832v4.7118h3.7314v3.732h4.7124z"/>
<path d="m239.28 311.85v-5.8554h4.2552v-2.5884h4.1886v4.7118h-3.7314v3.732h-4.7124z"/>
<path d="m138.71 244.96v5.8554h-4.2564v2.5884h-4.1874v-4.7124h3.7314v-3.7314h4.7124z"/>
<path d="m138.71 311.85v-5.8554h-4.2564v-2.5884h-4.1874v4.7118h3.7314v3.732h4.7124z"/>
<path d="m204.75 235.59c-0.27181-0.264-3.2508-3.156-3.2508-3.156l-3.1932 2.9586s2.502 2.4282 2.7834 2.7018l-3.5928 3.4878h5.334l1.9194-1.8636 1.9194 1.8636h5.3334l-3.5928-3.4878c0.2814-0.2736 2.7828-2.7018 2.7828-2.7018l-3.1926-2.9586c-1.0848 1.0506-2.1672 2.1036-3.2502 3.156z"/>
<path d="m189 235.59c-0.2712-0.264-3.2502-3.156-3.2502-3.156l-3.1932 2.9586s2.5014 2.4282 2.7834 2.7018l-3.5928 3.4878h5.3334l1.9194-1.8636 1.9194 1.8636h5.3334l-3.5922-3.4878c0.2814-0.2736 2.7828-2.7018 2.7828-2.7018l-3.1926-2.9586c-1.0848 1.0506-2.1672 2.1036-3.2508 3.156z"/>
<path d="m173.24 235.59c0.2718-0.264 3.2508-3.156 3.2508-3.156l3.1932 2.9586s-2.502 2.4282-2.7834 2.7018l3.5928 3.4878h-5.334l-1.9194-1.8636-1.9194 1.8636h-5.3334l3.5928-3.4878c-0.28139-0.2736-2.7834-2.7018-2.7834-2.7018l3.1932-2.9586c1.0848 1.0506 2.1672 2.1036 3.2502 3.156z"/>
<path d="m204.75 321.22c-0.27181 0.2634-3.2508 3.1554-3.2508 3.1554l-3.1932-2.9586s2.502-2.4276 2.7834-2.7012l-3.5928-3.4878h5.334l1.9194 1.8636 1.9194-1.8636h5.3334l-3.5928 3.4878c0.2814 0.2736 2.7828 2.7012 2.7828 2.7012l-3.1926 2.9586c-1.0848-1.0506-2.1672-2.1036-3.2502-3.1554z"/>
<path d="m189 321.22c-0.2712 0.2634-3.2502 3.1554-3.2502 3.1554l-3.1932-2.9586s2.5014-2.4276 2.7834-2.7012l-3.5928-3.4878h5.3334l1.9194 1.8636 1.9194-1.8636h5.3334l-3.5922 3.4878c0.2814 0.2736 2.7828 2.7012 2.7828 2.7012l-3.1926 2.9586c-1.0848-1.0506-2.1672-2.1036-3.2508-3.1554z"/>
<path d="m173.24 321.22c0.2718 0.2634 3.2508 3.1554 3.2508 3.1554l3.1932-2.9586s-2.502-2.4276-2.7834-2.7012l3.5928-3.4878h-5.334l-1.9194 1.8636-1.9194-1.8636h-5.3334l3.5928 3.4878c-0.28139 0.2736-2.7834 2.7012-2.7834 2.7012l3.1932 2.9586c1.0848-1.0506 2.1672-2.1036 3.2502-3.1554z"/>
<g fill="#28ae66">
<path d="m134.03 281.71v3.0366l-7.278-4.623-3.1806 2.4582-2.8182-0.327-1.1784-1.6674 2.856-2.184-2.856-2.184 1.179-1.6674 2.8176-0.327 3.1806 2.4576 7.278-4.623v3.0366l-5.2062 3.3072z"/>
<path d="m134.03 267.64v3.0372l-7.278-4.623-3.1806 2.4576-2.8182-0.327-1.1784-1.6674 2.856-2.184-2.856-2.1834 1.179-1.6674 2.8176-0.3276 3.1806 2.4576 7.278-4.6224v3.0366l-5.2062 3.3066z"/>
<path d="m134.03 289.18v-3.0366l-7.278 4.623-3.1806-2.4582-2.8182 0.327-1.1784 1.6674 2.856 2.184-2.856 2.184 1.179 1.6674 2.8176 0.327 3.1806-2.4576 7.278 4.623v-3.0366l-5.2062-3.3072z"/>
<path d="m243.97 281.71v3.0366l7.278-4.623 3.18 2.4582 2.8182-0.327 1.1784-1.6674-2.856-2.184 2.856-2.184-1.1784-1.6674-2.8182-0.327-3.18 2.4576-7.278-4.623v3.0366l5.2056 3.3072z"/>
<path d="m243.97 267.64v3.0372l7.278-4.623 3.18 2.4576 2.8182-0.327 1.1784-1.6674-2.856-2.184 2.856-2.1834-1.1784-1.6674-2.8182-0.3276-3.18 2.4576-7.278-4.6224v3.0366l5.2056 3.3066z"/>
<path d="m243.97 289.18v-3.0366l7.278 4.623 3.18-2.4582 2.8182 0.327 1.1784 1.6674-2.856 2.184 2.856 2.184-1.1784 1.6674-2.8182 0.327-3.18-2.4576-7.278 4.623v-3.0366l5.2056-3.3072z"/>
<path d="m231.01 236.16v3.732h3.7314v3.855h-3.3264v-2.5878h-4.26v-4.9992h3.855z"/>
<path d="m243.57 245.39v3.7314h3.7314v3.8556h-3.327v-2.5878h-4.2594v-4.9992h3.855z"/>
<path d="m146.98 236.16v3.732h-3.7314v3.855h3.327v-2.5878h4.2594v-4.9992h-3.855z"/>
<path d="m231.01 320.65v-3.7314h3.7314v-3.855h-3.3264v2.5878h-4.26v4.9986h3.855z"/>
<path d="m146.98 320.65v-3.7314h-3.732v-3.855h3.327v2.5878h4.26v4.9986h-3.855z"/>
<path d="m243.57 311.42v-3.7314h3.7314v-3.855h-3.327v2.5878h-4.2594v4.9986h3.855z"/>
<path d="m134.43 245.39v3.7314h-3.7314v3.8556h3.327v-2.5878h4.2594v-4.9992h-3.855z"/>
<path d="m134.43 311.42v-3.7314h-3.732v-3.855h3.327v2.5878h4.26v4.9986h-3.855z"/>
<path d="m201.5 233.03c0.26579 0.258 3.2574 3.162 3.2574 3.162s2.991-2.904 3.2568-3.162c0.25199 0.2328 2.2854 2.1168 2.5638 2.3748-0.288 0.279-2.7762 2.6946-2.7762 2.6946l3.1512 3.0594h-4.1022l-2.0934-2.0328-2.094 2.0328h-4.1022l3.1512-3.0594s-2.4882-2.4156-2.7762-2.6946c0.2784-0.258 2.3118-2.142 2.5638-2.3748z"/>
<path d="m185.74 233.03c0.2658 0.258 3.2568 3.162 3.2568 3.162s2.991-2.904 3.2574-3.162c0.252 0.2328 2.2848 2.1168 2.5632 2.3748-0.2874 0.279-2.7756 2.6946-2.7756 2.6946l3.1512 3.0594h-4.1028l-2.0934-2.0328-2.0934 2.0328h-4.1028l3.1512-3.0594s-2.4882-2.4156-2.7756-2.6946c0.2784-0.258 2.3118-2.142 2.5638-2.3748z"/>
<path d="m176.5 233.03c-0.2664 0.258-3.2574 3.162-3.2574 3.162s-2.991-2.904-3.2568-3.162c-0.25199 0.2328-2.2854 2.1168-2.5638 2.3748 0.28799 0.279 2.7762 2.6946 2.7762 2.6946l-3.1512 3.0594h4.1022l2.0934-2.0328 2.094 2.0328h4.1022l-3.1512-3.0594s2.4882-2.4156 2.7762-2.6946c-0.2784-0.258-2.3118-2.142-2.5638-2.3748z"/>
<path d="m201.5 323.78c0.26579-0.2586 3.2574-3.1626 3.2574-3.1626s2.991 2.904 3.2568 3.1626c0.25199-0.2334 2.2854-2.1174 2.5638-2.3748-0.288-0.27959-2.7762-2.6946-2.7762-2.6946l3.1512-3.0594h-4.1022l-2.0934 2.0322-2.094-2.0322h-4.1022l3.1512 3.0594s-2.4882 2.415-2.7762 2.6946c0.2784 0.2574 2.3118 2.1414 2.5638 2.3748z"/>
<path d="m185.74 323.78c0.2658-0.2586 3.2568-3.1626 3.2568-3.1626s2.991 2.904 3.2574 3.1626c0.252-0.2334 2.2848-2.1174 2.5632-2.3748-0.2874-0.27959-2.7756-2.6946-2.7756-2.6946l3.1512-3.0594h-4.1028l-2.0934 2.0322-2.0934-2.0322h-4.1028l3.1512 3.0594s-2.4882 2.415-2.7756 2.6946c0.2784 0.2574 2.3118 2.1414 2.5638 2.3748z"/>
<path d="m176.5 323.78c-0.2664-0.2586-3.2574-3.1626-3.2574-3.1626s-2.991 2.904-3.2568 3.1626c-0.25199-0.2334-2.2854-2.1174-2.5638-2.3748 0.28799-0.27959 2.7762-2.6946 2.7762-2.6946l-3.1512-3.0594h4.1022l2.0934 2.0322 2.094-2.0322h4.1022l-3.1512 3.0594s2.4882 2.415 2.7762 2.6946c-0.2784 0.2574-2.3118 2.1414-2.5638 2.3748z"/>
</g>
<path d="m146.58 306.42v9.234h84.836v-9.234h12.551v-56.029h-12.551v-9.234h-84.836v9.234h-12.551v56.029z"/>
<path d="m147.03 241.58v9.217h-12.553v55.19h12.553v9.217h83.951v-9.217h12.554v-55.19h-12.554v-9.217h-83.951zm5.4025 3.5492h73.147v8.8983l3.0186 2.2254h11.388v44.332h-11.441l-2.9661 2.1712v8.9508h-73.146v-8.8983l-3.0192-2.2237h-11.441v-44.332h11.388l3.072-2.2254v-8.8983z" fill="#ca3745"/>
<path d="m152.86 245.55v8.1576l11.017-8.1576h-11.017zm61.228 0 11.017 8.1576v-8.1576h-11.017zm-75.635 11.124v7.6271l10.381-7.6271h-10.381zm90.679 0 10.434 7.6797v-7.6797h-10.434zm10.434 35.751-10.434 7.7339h10.434v-7.7339zm-101.11 0.0525v7.6814h10.381l-10.381-7.6814zm14.407 10.647v8.1034h10.964l-10.964-8.1034zm72.245 0-10.963 8.1034h10.963v-8.1034z" fill="#ca3745"/>
<path d="m213.38 245.56c0.1128 0.0828 26.015 19.214 26.188 19.342v27.01c-0.1722 0.1278-26.075 19.259-26.188 19.342h-48.76c-0.11221-0.0834-26.015-19.214-26.187-19.342v-27.01c0.1722-0.1272 26.075-19.259 26.187-19.342h48.76z" fill="#28ae66"/>
<path d="m144.67 295.02-3.0108-3.4944 2.8266-3.2802-2.8266-3.2802 2.8266-3.2796-2.8266-3.2802 2.8266-3.2802-2.8266-3.2802 2.826-3.2802-2.826-3.2802 3.0108-3.4938h88.661l3.0108 3.4938-2.8266 3.2802 2.8266 3.2802-2.8266 3.2802 2.8266 3.2802-2.8266 3.2802 2.8266 3.2796-2.8266 3.2802 2.8266 3.2802-3.0108 3.4944zm60.946-45.236-3.4944-3.0108-3.2808 2.8266-3.2796-2.8266-3.2802 2.8266-3.2802-2.8266-3.2802 2.8266-3.2802-2.8266-3.2796 2.8266-3.2802-2.8266-3.4944 3.0108v57.243l3.4944 3.0114 3.2802-2.8266 3.2796 2.826 3.2802-2.8266 3.2802 2.8266 3.2802-2.8266 3.2802 2.8266 3.2796-2.826 3.2808 2.8266 3.4944-3.0114z"/>
<g fill="#faae29">
<path d="m198.62 249.98-3.0654-2.6418-3.066 2.6418v56.85l3.066 2.6412 3.0654-2.6412z"/>
<path d="m185.5 249.98-3.066-2.6418-3.0654 2.6418v56.85l3.0654 2.6412 3.066-2.6412z"/>
<path d="m144.86 294.59-2.6412-3.066 2.6412-3.066h88.269l2.6412 3.066-2.6412 3.066z"/>
<path d="m233.13 275.34 2.6418 3.066-2.6418 3.0654h-88.268l-2.6418-3.0654 2.6418-3.066z"/>
<path d="m233.13 268.35 2.6412-3.066-2.6412-3.0654h-88.269l-2.6412 3.0654 2.6412 3.066z"/>
</g>
<g fill="#ca3745">
<path d="m205.18 249.98-3.0654-2.6418-3.066 2.6418v56.85l3.066 2.6412 3.0646-2.6406z"/>
<path d="m178.94 249.98-3.066-2.6418-3.066 2.6418v56.85l3.066 2.6412 3.066-2.6412z"/>
<path d="m144.86 288.03-2.6418-3.066 2.6418-3.066h88.268l2.6418 3.066-2.6418 3.066z"/>
<path d="m144.86 274.91-2.6418-3.066 2.6418-3.066h88.268l2.6418 3.066-2.6418 3.066z"/>
<path d="m192.06 306.83-3.066 2.6412-3.066-2.6412v-56.85l3.066-2.6418 3.066 2.6418z"/>
</g>
<path d="m218.63 251.09h-59.48v4.7238h-7.6014v45.185h7.6014v4.7232h59.695v-4.7232h7.6014v-45.185h-7.6014v-4.7238h-0.2142z"/>
<path d="m159.59 251.54v4.7152h-7.6271v44.332h7.6271v4.7136h6.2502l-12.447-10.434v-32.893l12.447-10.434h-6.2502zm52.596 0 12.393 10.434v32.893l-12.393 10.434h6.2492v-4.7136h7.5746v-44.332h-7.5746v-4.7152h-6.2492z" fill="#ca3745"/>
<g fill="#28ae66">
<path d="m166.52 251.54c-0.1176 0.099-12.561 10.52-12.712 10.646v32.468c0.1506 0.12661 12.594 10.547 12.712 10.646h44.968c0.11813-0.099 12.508-10.52 12.659-10.646v-32.468c-0.15068-0.12594-12.541-10.547-12.659-10.646zm0.63559 1.8008h43.644l11.547 9.6928v30.773l-11.547 9.6398h-43.644l-11.494-9.6398v-30.773z"/>
<path d="m178.72 294.29 1.9536 0.8442 0.3594 2.2818-2.4594 2.1636 3.5724 3.4542h-3.4374l-2.4576-2.3658-2.4582 2.3658h-3.4374l3.573-3.4542-2.46-2.1636 0.36-2.2818 1.953-0.8442 2.4696 1.9746 0.1338-0.10681z"/>
<path d="m191.47 294.29 1.953 0.8442 0.36 2.2818-2.4594 2.1636 3.5724 3.4542h-3.4374l-2.4582-2.3658-2.4576 2.3658h-3.438l3.573-3.4542-2.4594-2.1636 0.36-2.2818 1.953-0.8442 2.469 1.9746 0.1338-0.10681z"/>
<path d="m199.28 294.29-1.953 0.8442-0.36 2.2818 2.4594 2.1636-3.5724 3.4542h3.4374l2.4582-2.3658 2.4576 2.3658h3.4374l-3.5724-3.4542 2.4594-2.1636-0.36-2.2818-1.953-0.8442-2.469 1.9746-0.1344-0.10681z"/>
<path d="m178.72 262.52 1.9536-0.8442 0.3594-2.2812-2.4594-2.1636 3.5724-3.4542h-3.4374l-2.4576 2.3652-2.4582-2.3652h-3.4374l3.573 3.4542-2.46 2.163 0.36 2.2818 1.953 0.8442 2.4696-1.974 0.1338 0.1068z"/>
<path d="m191.47 262.52 1.953-0.8442 0.36-2.2812-2.4594-2.1636 3.5724-3.4542h-3.4374l-2.4582 2.3652-2.4576-2.3652h-3.438l3.573 3.4542-2.4594 2.163 0.36 2.2818 1.953 0.8442 2.469-1.974 0.1338 0.1068z"/>
<path d="m199.28 262.52-1.953-0.8442-0.36-2.2812 2.4594-2.1636-3.5724-3.4542h3.4374l2.4582 2.3652 2.4576-2.3652h3.4374l-3.5724 3.4542 2.4594 2.163-0.36 2.2818-1.953 0.8442-2.469-1.974-0.1344 0.1068z"/>
<path d="m221.9 266.17-1.95 1.6146 1.95 1.614v2.6766l-2.9988-2.4714s-2.0166 1.827-2.1522 1.95c-0.1728-0.0216-2.1156-0.2658-2.3076-0.2898-0.0858-0.1578-0.6924-1.2762-0.813-1.5 0.201-0.2004 1.986-1.9794 1.986-1.9794s-1.785-1.7796-1.986-1.98c0.1206-0.2238 0.7272-1.3428 0.813-1.5 0.192-0.024 2.1348-0.2688 2.3076-0.2904 0.1356 0.123 2.1522 1.9506 2.1522 1.9506l2.9988-2.4708v2.676z"/>
<path d="m221.9 276.79-1.95 1.6146 1.95 1.6134v2.6772l-2.9988-2.4714s-2.0166 1.827-2.1522 1.95c-0.1728-0.0216-2.1156-0.26639-2.3076-0.28979-0.0858-0.15781-0.6924-1.2768-0.813-1.5 0.201-0.20041 1.986-1.9794 1.986-1.9794s-1.785-1.7802-1.986-1.9806c0.1206-0.2232 0.7272-1.3422 0.813-1.5 0.192-0.0234 2.1348-0.26819 2.3076-0.28979 0.1356 0.12299 2.1522 1.95 2.1522 1.95l2.9988-2.4702v2.676z"/>
<path d="m221.9 290.65-1.95-1.6146 1.95-1.614v-2.6766l-2.9988 2.4714s-2.0166-1.8276-2.1522-1.9506c-0.1728 0.0216-2.1156 0.2664-2.3076 0.2898-0.0858 0.15781-0.6924 1.2768-0.813 1.5 0.201 0.20101 1.986 1.98 1.986 1.98s-1.785 1.7796-1.986 1.98c0.1206 0.2232 0.7272 1.3422 0.813 1.5 0.192 0.024 2.1348 0.26821 2.3076 0.2898 0.1356-0.12299 2.1522-1.95 2.1522-1.95l2.9988 2.4708v-2.676z"/>
<path d="m156.1 266.17 1.9494 1.6146-1.9494 1.614v2.6766l2.9988-2.4714s2.0166 1.827 2.1522 1.95c0.1722-0.0216 2.1156-0.2658 2.3076-0.2898 0.0858-0.1578 0.6918-1.2762 0.813-1.5-0.20099-0.2004-1.986-1.9794-1.986-1.9794s1.785-1.7796 1.986-1.98c-0.1212-0.2238-0.7272-1.3428-0.813-1.5-0.192-0.024-2.1354-0.2688-2.3076-0.2904-0.1356 0.123-2.1522 1.9506-2.1522 1.9506l-2.9988-2.4708v2.676z"/>
<path d="m156.1 276.79 1.9494 1.6146-1.9494 1.6134v2.6772l2.9988-2.4714s2.0166 1.827 2.1522 1.95c0.1722-0.0216 2.1156-0.26639 2.3076-0.28979 0.0858-0.15781 0.6918-1.2768 0.813-1.5-0.20099-0.20041-1.986-1.9794-1.986-1.9794s1.785-1.7802 1.986-1.9806c-0.1212-0.2232-0.7272-1.3422-0.813-1.5-0.192-0.0234-2.1354-0.26819-2.3076-0.28979-0.1356 0.12299-2.1522 1.95-2.1522 1.95l-2.9988-2.4702v2.676z"/>
<path d="m156.1 290.65 1.9494-1.6146-1.9494-1.614v-2.6766l2.9988 2.4714s2.0166-1.8276 2.1522-1.9506c0.1722 0.0216 2.1156 0.2664 2.3076 0.2898 0.0858 0.15781 0.6918 1.2768 0.813 1.5-0.20099 0.20101-1.986 1.98-1.986 1.98s1.785 1.7796 1.986 1.98c-0.1212 0.2232-0.7272 1.3422-0.813 1.5-0.192 0.024-2.1354 0.26821-2.3076 0.2898-0.1356-0.12299-2.1522-1.95-2.1522-1.95l-2.9988 2.4708v-2.676z"/>
</g>
<path d="m167.32 253.76c-0.11581 0.097-10.602 8.8761-11.07 9.2691 0.94518 0.78343 1.8595 1.6029 2.8072 2.3835 0.23983-0.21695 2.0656-1.8542 2.0656-1.8542l2.7013 0.37076 1.0593 1.9598s-1.6476 1.6488-1.9068 1.9068c0.2592 0.2574 1.9068 1.9068 1.9068 1.9068l-1.0593 1.9597-2.7013 0.3178s-1.8257-1.5836-2.0657-1.8008l-2.9661 2.4894v0.84746c0.99787 0.82593 1.9647 1.6644 2.9661 2.4894 0.23999-0.21659 2.0657-1.8008 2.0657-1.8008l2.7013 0.31779 1.0593 1.9598s-1.6476 1.6488-1.9068 1.9068c0.2592 0.25741 1.9068 1.9068 1.9068 1.9068l-1.0593 2.0127-2.7013 0.3178s-1.8257-1.6366-2.0657-1.8538l-2.9661 2.4894v0.90042l2.9661 2.4894c0.23999-0.21659 2.0657-1.8538 2.0657-1.8538l2.7013 0.37076 1.0593 1.9598s-1.6476 1.6488-1.9068 1.9068c0.2592 0.258 1.9068 1.9068 1.9068 1.9068l-1.0593 1.9597-2.7013 0.37076s-1.8257-1.6366-2.0657-1.8538c-0.94385 0.77731-1.8654 1.5538-2.8072 2.3305 0.46785 0.39298 10.954 9.1716 11.07 9.2691h2.4364l3.5487-3.4428-2.2775-2.0127 0.42373-2.7542 2.3835-1.0064 2.4364 1.9068 2.3835-1.9068 2.3835 1.0064 0.4767 2.7542-2.3305 2.0127 3.4428 3.2839 3.4428-3.2839-2.3305-2.0127 0.42373-2.7542 2.4364-1.0064 2.3835 1.9068 2.4364-1.9068 2.3835 1.0064 0.42373 2.7542-2.2775 2.0127 3.3898 3.3369 3.4428-3.3369-2.2776-2.0127 0.42373-2.7542 2.4364-1.0064 2.3835 1.9068 2.3835-1.9068 2.4364 1.0064 0.42373 2.7542-2.2775 2.0127 3.5487 3.4428h2.3835c0.11577-0.0975 10.602-8.8761 11.07-9.2691-0.94351-0.77702-1.8622-1.5515-2.8072-2.3305-0.24 0.2172-2.0127 1.8538-2.0127 1.8538l-2.7013-0.37076-1.1123-1.9597s1.6482-1.6488 1.9068-1.9068c-0.2586-0.258-1.9068-1.9068-1.9068-1.9068l1.1123-1.9598 2.7013-0.37076s1.7727 1.6372 2.0127 1.8538l2.9661-2.4894v-0.90042l-2.9661-2.4894c-0.24 0.21721-2.0127 1.8538-2.0127 1.8538l-2.7013-0.3178-1.1123-2.0127s1.6482-1.6494 1.9068-1.9068c-0.2586-0.258-1.9068-1.9068-1.9068-1.9068l1.1123-1.9598 2.7013-0.31779s1.7727 1.5842 2.0127 1.8008c0.99454-0.81922 1.9738-1.6201 2.9661-2.4364v-0.95339l-2.9661-2.4364c-0.24 0.21721-2.0127 1.8008-2.0127 1.8008l-2.7013-0.3178-1.1123-1.9597s1.6482-1.6494 1.9068-1.9068c-0.2586-0.258-1.9068-1.9068-1.9068-1.9068l1.1123-1.9598 2.7013-0.37076s1.7727 1.6372 2.0127 1.8538c0.94925-0.78198 1.9112-1.5483 2.8602-2.3305-0.36468-0.30586-11.006-9.2246-11.123-9.322h-2.3835l-3.5487 3.4428 2.2775 2.0127-0.42373 2.7542-2.4364 1.0593-2.3835-1.9068-2.3835 1.9068-2.4364-1.0593-0.42373-2.7542 2.2776-2.0127-3.3898-3.2839-3.4428 3.2839 2.2775 2.0127-0.42373 2.7542-2.3835 1.0593-2.4364-1.9068-2.3835 1.9068-2.4364-1.0593-0.42373-2.7542 2.3305-2.0127-3.4428-3.2839-3.4428 3.2839 2.3305 2.0127-0.4767 2.7542-2.3835 1.0593-2.3835-1.9068-2.4364 1.9068-2.3835-1.0593-0.42373-2.7542 2.2775-2.0127-3.6017-3.4428zm-11.229 23.57v2.1716l1.2712-1.1123z" fill="#ca3745"/>
<g fill="#fff">
<path d="m176.27 301.27-1.8542 1.7474h3.6542l-1.8-1.7474z"/>
<path d="m188.98 301.27-1.8 1.7474h3.6542l-1.8542-1.7474z"/>
<path d="m201.75 301.27-1.8525 1.7474h3.7068l-1.8542-1.7474z"/>
<path d="m174.36 253.76 1.9068 1.8 1.8542-1.8h-3.761z"/>
<path d="m187.13 253.76 1.8542 1.8 1.9068-1.8h-3.761z"/>
<path d="m199.9 253.76 1.8525 1.8 1.8542-1.8h-3.7068z"/>
<path d="m221.88 266.74-1.2712 1.0593 1.2712 1.0068v-2.0661z"/>
<path d="m221.88 277.33-1.2712 1.0593 1.2712 1.0593v-2.1186z"/>
<path d="m221.88 287.98-1.2712 1.0593 1.2712 1.0593v-2.1186z"/>
<path d="m156.09 266.68v2.1712l1.2712-1.0593-1.2712-1.1119z"/>
<path d="m156.09 277.33v2.1712l1.2712-1.1119-1.2712-1.0593z"/>
<path d="m156.09 287.92v2.1712l1.2712-1.0593-1.2712-1.1119z"/>
</g>
<path d="m199.9 274.86v-3.7914h-3.837v-4.1562h-14.132v4.1562h-3.837v3.7914h-5.2992v7.098h5.2992v3.7908h3.837v4.1568h14.132v-4.1568h3.837v-3.7908h5.2986v-7.098z"/>
<path d="m188.78 267.34v4.2846l-6.0744 3.453v3.1164h-9.4842v-2.9064h5.2986v-3.7908h3.837v-4.1568z" fill="#faae29"/>
<path d="m189.21 289.48v-4.2846l6.0738-3.4536v-3.1158h9.4848v2.9058h-5.2986v3.7914h-3.837v4.1568z" fill="#faae29"/>
<path d="m195.29 278.19v-3.1164l-6.0738-3.453v-4.2846h6.423v4.1568h3.837v3.7908h5.2986v2.9064z" fill="#fff"/>
<path d="m173.22 278.62h9.4842v3.1158l6.0744 3.4536v4.2846h-6.423v-4.1568h-3.837v-3.7914h-5.2986z" fill="#fff"/>
<path d="m183.14 278.62v2.8884l5.6454 3.21v-6.0984z" fill="#ca3745"/>
<path d="m188.78 272.09-5.6454 3.2094v2.8884h5.6454z" fill="#28ae66"/>
<path d="m194.86 278.19v-2.8884l-5.6454-3.2094v6.0978z" fill="#ca3745"/>
<path d="m189.21 284.72 5.6454-3.21v-2.8884h-5.6454z" fill="#28ae66"/>
</g>
<g id="carp4">
<path d="m137.65 353.73v11.717h-11.165v10.627h-11.317v30.259h11.317v10.627h11.165v11.717h40.598l7.1394 4.29-3.4308 2.061h-14.476l-1.2486-1.4082h13.119l-3.696-3.7218h-18.766l8.5026 8.8518h17.598l6.0114-3.612 6.0114 3.612h17.599l8.502-8.8518h-18.766l-3.6966 3.7218h13.12l-1.2492 1.4082h-14.477l-3.4308-2.061 7.14-4.29h40.598v-11.717h11.165v-10.627h11.316v-30.259h-11.316v-10.627h-11.165v-11.717h-40.598l-7.14-4.2894 3.4308-2.0616h14.477l1.2492 1.4082h-13.12l3.6966 3.7218h18.766l-8.502-8.8518h-17.599l-6.0114 3.612-6.0114-3.612h-17.598l-8.5026 8.8518h18.766l3.696-3.7218h-13.119l1.2486-1.4082h14.476l3.4308 2.0616-7.1394 4.2894z"/>
<path d="m199.63 428.23h40.307v-11.706h11.123v-10.646h11.335v-29.396h-11.335v-10.593h-11.123v-11.706h-40.307l-16.737-10.116h-17.32l-7.6801 7.9979h17.585l2.8602-2.8602h-13.083l2.0127-2.2775h14.83l18.962 11.441h34.64v11.706h11.176v10.646h11.335v20.975h-11.335v10.646h-11.176v11.706h-34.64l-18.962 11.388h-14.83l-2.0127-2.2246h13.083l-2.8602-2.8602h-17.585l7.6801 7.9979h17.32zm-22.722-4.1843h-34.64v-11.706h-11.123v-10.646h-11.335v-20.975h11.335v-10.646h11.123v-11.706h34.64l19.015-11.441h14.778l2.0127 2.2775h-13.03l2.8602 2.8602h17.585l-7.6801-7.9979h-17.32l-16.737 10.116h-40.307v11.706h-11.176v10.593h-11.335v29.396h11.335v10.646h11.176v11.706h40.307l16.737 10.116h17.32l7.6801-7.9979h-17.585l-2.8602 2.8602h13.03l-2.0127 2.2246h-14.778z" fill="#ca3745"/>
<path d="m188.98 351.59-11.97 7.2034h-34.322v11.706h-11.123v10.646h-11.335v20.127h11.335v10.646h11.123v11.706h34.322l11.97 7.1504 11.97-7.1504h34.322v-11.706h11.176v-10.646h11.335v-20.127h-11.335v-10.646h-11.176v-11.706h-34.322zm0 2.9661 11.282 6.7797h32.521v11.706h11.176v10.593h11.282v15.095h-11.282v10.646h-11.176v11.706h-32.521l-11.282 6.7797-11.229-6.7797h-32.521v-11.706h-11.176v-10.646h-11.335v-15.095h11.335v-10.593h11.176v-11.706h32.521z" fill="#faae29"/>
<path d="m232.34 408.95v11.717h-32.2l-11.144 6.696-11.144-6.696h-32.2v-11.717h-11.166v-10.628h-11.316v-14.246h11.316v-10.628h11.166v-11.716h32.14 0.0594l11.144-6.696 11.144 6.696h32.2v11.716h11.165v10.628h11.316v14.246h-11.316v10.628z" fill="#28ae66"/>
<path d="m149.87 404.85v11.34h17.7l-17.7-11.74z"/>
<path d="m149.87 377.56v-11.341h17.7l-17.7 11.74z"/>
<path d="m228.13 404.85v11.34h-17.7l17.7-11.74z"/>
<path d="m228.13 377.56v-11.341h-17.7l17.7 11.74z"/>
<path d="m150.3 405.25 15.85 10.513h-15.85z" fill="#ca3745"/>
<path d="m150.3 377.16c0.6162-0.4092 14.77-9.7968 15.85-10.513h-15.85v10.513z" fill="#ca3745"/>
<path d="m227.7 405.25c-0.6168 0.4092-14.77 9.7962-15.85 10.513h15.85v-10.513z" fill="#ca3745"/>
<path d="m227.7 377.16c-0.6168-0.4086-14.77-9.7962-15.85-10.513h15.85v10.513z" fill="#ca3745"/>
<g id="carp4y">
<path d="m172.44 388.09v-5.7912h-1.9752l-9.4764-5.925-0.1134 0.0714-9.3624 5.8536h-1.9752v5.7912h-4.455v6.2196h4.455v5.7906h1.9752l9.4758 5.925 9.4764-5.925h1.9752v-5.7906h6.7818v-6.2196z"/>
<path d="m160.99 376.88 8.6682 5.4192h-17.335l8.667-5.4192zm8.667 23.221-8.667 5.4192-8.6664-5.4192h17.333z" fill="#ca3745"/>
<path d="m167.56 388.52v5.3628h-10.809v-5.3628z" fill="#ca3745"/>
<g fill="#faae29">
<path d="m172.02 394.31v5.3628h-10.809v-5.3628z"/>
<path d="m160.78 394.31v5.3628h-10.809v-5.3628z"/>
<path d="m178.8 388.52v5.3628h-10.809v-5.3628z"/>
<path d="m156.32 388.52v5.3628h-10.809v-5.3628z"/>
<path d="m172.02 382.73v5.3622h-10.809v-5.3622z"/>
<path d="m160.78 382.73v5.3622h-10.809v-5.3622z"/>
</g>
<path d="m153.35 389.71v2.9796h-4.8552v-2.9796z"/>
<path d="m157.8 383.92v2.9796h-4.8552v-2.9796z"/>
<path d="m169.04 383.92v2.9796h-4.8552v-2.9796z"/>
<path d="m164.58 389.71v2.9796h-4.8552v-2.9796z"/>
<path d="m175.82 389.71v2.9796h-4.8552v-2.9796z"/>
<path d="m169.04 395.5v2.9796h-4.8552v-2.9796z"/>
<path d="m157.8 395.5v2.9796h-4.8552v-2.9796z"/>
<g fill="#fff">
<path d="m152.89 390.17h-3.9408v2.0652h3.9408z"/>
<path d="m157.35 384.38h-3.9408v2.0652h3.9408z"/>
<path d="m168.58 384.38h-3.9408v2.0652h3.9408z"/>
<path d="m164.13 390.17h-3.9408v2.0652h3.9408z"/>
<path d="m175.36 390.17h-3.9408v2.0652h3.9408z"/>
<path d="m168.58 395.96h-3.9408v2.0652h3.9408z"/>
<path d="m157.35 395.96h-3.9408v2.0652h3.9408z"/>
</g>
</g>
<use xlink:href="#carp4y" transform="matrix(-1 0 0 1 378 0)"/>
<g id="carp4r">
<path d="m200.45 378.42v5.7906h-1.9752l-9.4764 5.925-0.1134-0.0708-9.3624-5.8542h-1.9752v-5.7906h-5.6184v-6.2196h5.6184v-5.7906h1.9752l9.4758-5.9256 9.4764 5.9256h1.9752v5.7906h5.6184v6.2196z"/>
<path d="m189 389.63 8.6676-5.4198h-17.335l8.667 5.4198zm8.667-23.221-8.667-5.4198-8.6664 5.4198h17.333z" fill="#faae29"/>
<g fill="#ca3745">
<path d="m200.02 372.2v-5.3622h-10.809v5.3622z"/>
<path d="m188.78 372.2v-5.3622h-10.809v5.3622z"/>
<path d="m205.64 377.99v-5.3628h-10.809v5.3628z"/>
<path d="m194.4 377.99v-5.3628h-10.809v5.3628z"/>
<path d="m183.16 377.99v-5.3628h-10.808v5.3628z"/>
<path d="m200.02 383.78v-5.3628h-10.809v5.3628z"/>
<path d="m188.78 383.78v-5.3628h-10.809v5.3628z"/>
</g>
<path d="m185.81 368.03v2.9796h-4.8552v-2.9796z"/>
<path d="m197.04 368.03v2.9796h-4.8552v-2.9796z"/>
<path d="m180.19 373.82v2.9796h-4.8552v-2.9796z"/>
<path d="m191.43 373.82v2.9796h-4.8552v-2.9796z"/>
<path d="m202.66 373.82v2.9796h-4.8552v-2.9796z"/>
<path d="m185.81 379.61v2.9796h-4.8552v-2.9796z"/>
<path d="m197.04 379.61v2.9796h-4.8552v-2.9796z"/>
<g fill="#fff">
<path d="m185.35 368.49h-3.9408v2.0652h3.9408z"/>
<path d="m196.59 368.49h-3.9408v2.0652h3.9408z"/>
<path d="m179.73 374.28h-3.9408v2.0652h3.9408z"/>
<path d="m190.97 374.28h-3.9408v2.0652h3.9408z"/>
<path d="m202.2 374.28h-3.9408v2.0652h3.9408z"/>
<path d="m185.35 380.07h-3.9408v2.0652h3.9408z"/>
<path d="m196.59 380.07h-3.9408v2.0652h3.9408z"/>
</g>
</g>
<use y="31.788122" xlink:href="#carp4r"/>
</g>
<g id="carp5">
<path d="m127.68 479.35 42.052-22.631h0.054 38.485l42.052 22.631v37.29l-42.052 22.631h-38.539l-42.052-22.631z"/>
<path d="m169.86 457.15-41.738 22.458v36.758l41.738 22.458h38.293l41.739-22.458v-36.758l-41.739-22.458h-38.293zm0.74067 3.0186h36.812l39.514 21.239v33.21l-39.514 21.239h-36.834l-39.512-21.239v-33.21z" fill="#28ae66"/>
<path d="m189.21 497.78v37.64h18.095l39.183-21.087v-16.124l-57.707-0.00002v-37.64h-18.095l-39.184 21.086v16.124z" fill="#faae29"/>
<path d="m188.78 497.78v37.64h-18.095l-39.184-21.087v-16.124l57.707-0.00002v-37.64h18.095l39.183 21.086v16.124z" fill="#fff"/>
<path d="m192.51 533.32v-10.879l-3.5172 2.2314-3.5178-2.2314v10.879h-10.942l7.383-5.4144v-7.7226l-11.26-7.1442h-7.8678v-30.073h7.8678l11.26-7.1442v-7.7226l-7.383-5.4144h0.6546 10.287v10.88l3.5178-2.232 3.5172 2.232v-10.88h10.942l-7.3836 5.4144v7.7226l11.26 7.1442h7.8678v30.073h-7.8678l-11.26 7.1442v7.7226l7.3836 5.4144z"/>
<path d="m192.96 463.14v11.229l-3.761-2.383v3.178l17.214 10.963h5.6678v11.654h2.7017v-14.407h-7.5746l-11.546-7.3102v-8.1576l6.5136-4.7661h-9.2152zm-29.714 35.064v14.407h7.5212l11.6 7.361v8.1576l-6.5153 4.7661h9.217v-11.229l3.7068 2.3848v-3.2848l-17.214-10.858h-5.6149v-11.705h-2.7012z" fill="#faae29"/>
<path d="m175.85 463.14 6.5153 4.7661v8.1576l-11.6 7.3102h-7.5212v14.407h2.7012v-11.654h5.6149l17.214-10.91v-3.2305l-3.7068 2.383v-11.229h-9.217zm36.229 35.064v11.705h-5.6678l-17.214 10.858v3.2848l3.761-2.3848v11.229h9.2152l-6.5136-4.7661v-8.1576l11.546-7.361h7.5746v-14.407h-2.7017z" fill="#fff"/>
<path d="m166.35 509.46h5.3376l17.308 10.981 17.307-10.981h5.3382v-22.916h-5.2758-0.0624l-17.307-10.981-17.308 10.981h-5.3376z" fill="#ca3745"/>
<path d="m200.98 503.44h3.6954v-1.7484h-2.7798v-3.1782h5.9412v8.1054h-5.6958l0.0006 5.5296h-11.725v-7.9452h5.16v3.1782h-1.9986v1.5888h5.4018v-3.0378l-21.961-13.383h-3.6954v1.7478h2.7804v3.1782h-5.9418v-8.1048h5.6958v-5.5296h0.2142 11.51v7.9452h-5.16v-3.1782h1.9986v-1.5888h-5.4012v3.0378zm-1.9998-13.383v-3.0378h-5.4018v1.5888h1.9986v3.1782h-5.16v-7.9452h11.725v5.5296h5.6952v8.1048h-5.9412v-3.1782h2.7804v-1.7478h-3.696l-21.961 13.383v3.0372h5.4012v-1.5888h-1.9986v-3.1782h5.16v7.9458h-11.724v-5.5302h-5.6958v-8.1048h5.9418v3.1782h-2.7804v1.7484h3.6954z"/>
<path d="m199.41 505.7v3.7068h-6.2592v-2.4456h1.9992v-2.3214h-4.3032v7.0878h10.867v-5.5296h5.6958v-7.2474h-5.0844v2.3208h2.7798v2.6052h-4.2438l-22.27-13.571v-3.7068h6.2592v2.4456h-1.9986v2.3214h4.3026v-7.0884h-10.867v5.5296h-5.6952v7.248h5.0838v-2.3214h-2.7798v-2.6052h4.2438zm1.4514-13.571h4.2444v2.6052h-2.7804v2.3214h5.0844v-7.248h-5.6952v-5.5296h-10.867v7.0884h4.3026v-2.3214h-1.9986v-2.4456h6.2586v3.7068l-22.27 13.571h-4.2438v-2.6052h2.7798v-2.3214h-5.0838v7.248h5.6952v5.5296h10.867v-7.0884h-4.3026v2.3214h1.9986v2.4456h-6.2592v-3.7068z" fill="#fff"/>
<path d="m238.04 499.88v11.762h-5.0052v-4.1538h-5.0454v4.1538h-5.0052v-11.762h5.0052v4.1538h5.0454v-4.1538z"/>
<path d="m220.13 515.5v11.762h-5.0052v-4.1538h-5.0454v4.1538h-5.0052v-11.762h5.0052v4.1544h5.0454v-4.1544z"/>
<path d="m238.04 496.11v-11.762h-5.0052v4.1538h-5.0454v-4.1538h-5.0052v11.762h5.0052v-4.1538h5.0454v4.1538z"/>
<path d="m139.95 499.88v11.762h5.0052v-4.1538h5.0454v4.1538h5.0052v-11.762h-5.0052v4.1538h-5.0454v-4.1538z"/>
<path d="m139.95 496.11v-11.762h5.0052v4.1538h5.0454v-4.1538h5.0052v11.762h-5.0052v-4.1538h-5.0454v4.1538z"/>
<path d="m220.13 480.5v-11.762h-5.0052v4.1538h-5.0454v-4.1538h-5.0052v11.762h5.0052v-4.1538h5.0454v4.1538z"/>
<path d="m157.86 515.5v11.762h5.0052v-4.1538h5.0454v4.1538h5.0052v-11.762h-5.0052v4.1544h-5.0454v-4.1544z"/>
<path d="m157.86 480.5v-11.762h5.0052v4.1538h5.0454v-4.1538h5.0052v11.762h-5.0052v-4.1538h-5.0454v4.1538z"/>
<path d="m223.12 472.26v8.9322h16.597z"/>
<path d="m154.88 523.74v-8.9322h-16.597z"/>
<path d="m154.88 472.26v8.9322h-16.597z"/>
<path d="m223.12 523.74v-8.9322h16.597z"/>
<g fill="#ca3745">
<path d="m233.46 507.06v4.1538h4.1484v-10.904h-4.1484v4.1538h-5.9028v-4.1538h-4.1478v10.904h4.1478v-4.1538z"/>
<path d="m215.56 522.68v4.1538h4.1478v-10.904h-4.1478v4.1538h-5.9028v-4.1538h-4.1478v10.904h4.1478v-4.1538z"/>
<path d="m233.46 488.93v-4.1538h4.1484v10.904h-4.1484v-4.1544h-5.9028v4.1544h-4.1478v-10.904h4.1478v4.1538z"/>
<path d="m144.53 507.06v4.1538h-4.1478v-10.904h4.1478v4.1538h5.9028v-4.1538h4.1478v10.904h-4.1478v-4.1538z"/>
<path d="m144.53 488.93v-4.1538h-4.1478v10.904h4.1478v-4.1544h5.9028v4.1544h4.1478v-10.904h-4.1478v4.1538z"/>
<path d="m215.56 473.32v-4.1544h4.1478v10.905h-4.1478v-4.1544h-5.9028v4.1544h-4.1478v-10.905h4.1478v4.1544z"/>
<path d="m162.44 522.68v4.1538h-4.1478v-10.904h4.1478v4.1538h5.9028v-4.1538h4.1484v10.904h-4.1484v-4.1538z"/>
<path d="m162.44 473.32v-4.1544h-4.1478v10.905h4.1478v-4.1544h5.9028v4.1544h4.1484v-10.905h-4.1484v4.1544z"/>
</g>
<path d="m223.57 472.99v7.7864h14.461l-14.461-7.7864zm-83.58 42.268 14.46 7.7864v-7.7864h-14.46z" fill="#faae29"/>
<path d="m154.45 472.99-14.46 7.7864h14.46v-7.7864zm69.12 42.268v7.7864l14.461-7.7864h-14.461z" fill="#fff"/>
</g>
</g>
</svg>
