<svg id="tunisia_flag" xmlns="http://www.w3.org/2000/svg" viewBox="-60 -40 120 80">
<g id="g3373" fill="#E70013">
<rect id="rect3375" y="-40" x="-60" height="80" width="120"/>
<circle id="circle3377" r="20" fill="#FFF"/>
<path id="circle3379" d="m600 250a150 150 0 0 0 -150 150 150 150 0 0 0 150 150 150 150 0 0 0 121.02 -61.65 120 120 0 0 1 -81.02 31.65 120 120 0 0 1 -120 -120 120 120 0 0 1 120 -120 120 120 0 0 1 81.01 31.67 150 150 0 0 0 -121.01 -61.67z" transform="matrix(.1 0 0 .1 -60 -40)"/>
<path id="path3383" transform="translate(4)scale(9)rotate(-90)" d="m0-1l0.58779 1.809-1.5388-1.118 1.9021-0.00002-1.5389 1.118z"/>
</g>
</svg>
