<svg xmlns="http://www.w3.org/2000/svg" xmlns:xlink="http://www.w3.org/1999/xlink" viewBox="0 0 1200 600">
<defs>
<clipPath id="b">
<path d="M0 0v150h700v150H600zm0 300v100h300V0h300z"/>
</clipPath>
<path id="a" d="M0-50.08l29.437 90.596-77.067-55.992h95.26l-77.067 55.993z" fill="#ffce00"/>
<use id="c" xlink:href="#a" transform="rotate(36)"/>
</defs>
<path fill="#00247d" d="M0 0h1200v600H0z"/>
<path stroke="#fff" stroke-width="60" d="M0 0l600 300M0 300L600 0"/>
<path stroke="#cf142b" stroke-width="40" d="M0 0l600 300M0 300L600 0" clip-path="url(#b)"/>
<path stroke="#fff" stroke-width="100" d="M300 0v400M0 150h700"/>
<path stroke="#cf142b" stroke-width="60" d="M300 0v400M0 150h700"/>
<path d="M0 300h600V0h600v600H0z" fill="#5b97b1"/>
<use y="540.994" x="645.34" xlink:href="#a"/>
<use y="504.516" x="788.026" xlink:href="#c"/>
<use y="382.532" x="788.026" xlink:href="#c"/>
<use y="473.684" x="914.03" xlink:href="#c"/>
<use y="208.271" x="914.03" xlink:href="#c"/>
<use y="390.046" x="996.442" xlink:href="#a"/>
<use y="172.078" x="1019.928" xlink:href="#c"/>
<use y="321.554" x="1102.836" xlink:href="#a"/>
<use y="87.486" x="1102.836" xlink:href="#a"/>
</svg>
