<svg id="uganda_flag" xmlns="http://www.w3.org/2000/svg" viewBox="0 0 900 600">
<rect width="900" height="600"/>
<rect y="100" width="900" fill="#fcdc04" height="100"/>
<rect y="200" width="900" fill="#d90000" height="100"/>
<rect y="400" width="900" fill="#fcdc04" height="100"/>
<rect y="500" width="900" fill="#d90000" height="100"/>
<circle cy="300" cx="450" r="93.5" fill="#fff"/>
<g stroke="#000">
<path d="m433.52 228.39l-6.06-11.17c2.34-2.34 6.27-4.15 12.55-4.15 0 0.43-0.64 12.24-0.64 12.24z" fill="#d90000"/>
<path d="m439.37 225.41l0.85-12.34s12.56-0.74 19.36 7.45c0.11-0.11-6.7 9.57-6.7 9.57z" fill="#fcdc04"/>
<path d="m453.1 229.99l6.17-9.58c4.14 4.36 5.85 7.45 6.48 12.13 0.11 0.11-9.78 2.45-9.78 2.34s-2.77-4.79-2.87-4.89z" fill="#d90000"/>
<path d="m436.61 388.07s11.59-13.3 34.14-10.42c-3.4-5.53-14.36-4.9-14.36-4.9s-3.4-25.85-0.74-27.12c2.66-1.28 13.93 0.1 13.93 0.1 1.49 0 4.05-4.04 2.03-6.59-2.03-2.56-7.98-12.34-5.54-14.26 2.45-1.91 15.75 1.06 15.75 1.06l-37.56-48.08s-3.82-18.09 3.83-26.81c9.26-7.66 8.3-15.96 7.98-15.85-1.27-8.41-14.04-14.47-22.66-6.7-5.1 6.17-1.7 10.85-1.7 10.85s-13.4 3.62-13.93 5.96c-0.54 2.34 15.1-0.43 15.1-0.43l-1.49 10.75s-30.42 27.65-7.13 51.59c0.22-0.11 0.75-1.06 0.75-1.06s8.19 10.1 16.81 12.34c8.08 8.3 7.34 7.02 7.34 7.02s1.59 13.08 0.11 15.64c-2.03-0.64-22.66-1.38-25.75-0.22-2.77 0.86-13.4 0.32-10.74 17.66 2.02-4.68 3.82-8.83 3.82-8.83s-0.31 6.28 2.24 8.52c-0.43-6.6 2.45-11.07 2.45-11.07s0.53 7.24 2.12 8.3c1.6 1.06 1.6-11.7 10.43-10.64s15.21 0.75 15.21 0.75 2.98 25 2.02 27.34c-6.38-1.49-21.59 0.64-22.55 4.46 8.94-0.53 13.09 0.54 13.09 0.54s-7.24 6.38-5 10.1z"/>
<path stroke="#9ca69c" d="m440.19 251.66s-22.14 24.4-12.59 43.08c0.51-2.61 0.29-4.24 0.61-4.14-0.53-0.32 2.75 2.25 2.5 1.75 0.07-1.35-1-4.24-1-4.24 1 0.25 1.99 0.5 2.99 0.74l-1.74-3.24c1.41 0.17 2.82 0.33 4.24 0.5 0 0-1.5-4-1-4s3.5 0.25 3.5 0.25c-6.3-11.29-0.36-20.68 2.49-30.7z" fill="#9ca69c"/>
<path stroke="#9ca69c" d="m447.88 230.73s1.17 8.41-3.4 10.85c-0.75 0.53-3.62 1.49-3.19 3.19 0.53 2.34 1.8 1.92 3.61 1.49 4.79-0.85 10.32-11.06 2.98-15.53z" fill="#9ca69c"/>
<circle cy="238" cx="438" r="1.8" stroke="none" fill="#fff"/>
<path d="m432.56 244.99c-1.17 0.95-7.34 7.34-1.27 9.68 6.27-1.71 4.57-2.87 5.95-4.26 0.04-2.87-3.12-3.62-4.68-5.42z" fill="#d90000"/>
<path stroke="#9ca69c" d="m445.97 305.31c-0.32 1.38-1.71 6.49 0.21 10.42 5.32-2.23 7.77-1.59 9.57-0.42-4.36-3.51-6.06-5-9.78-10z" fill="#9ca69c"/>
<path stroke="#fff" d="m455.12 329.46l0.32 11.91s4.14 0.75 6.06 0c1.91-0.74-0.11-8.3-6.38-11.91z" fill="#fff"/>
<path d="m485.22 330.94s-7.66-18.51-27.23-23.19c-19.58-4.68-17.02-25.53-15.43-26.81 0.85-1.8 1.49-4.57 7.13-1.91s31.6 15.74 35.32 16.38 0.53 35.96 0.21 35.53z" fill="#9ca69c"/>
<path d="m466.61 307.65c-0.32 0.21 26.17 15.63 18.19 28.93 7.55-5 5.1-13.72 5.1-13.72s6.17 16.06-8.83 23.94c1.6 1.38 2.66 1.06 2.66 1.06l-2.55 2.55s-1.17 1.92 8.94-2.98c-2.77 2.24-2.98 3.83-2.98 3.83s0.74 2.13 7.34-3.61c-5.32 5.74-6.49 8.72-6.49 8.61 14.36-1.27 45.64-47.97-9.89-61.81 2.97 3.09 2.55 2.66 2.55 2.66z" fill="#d90000"/>
<path d="m467.78 303.07c3.61 2.55 4.89 3.41 5.31 4.68-3.29-0.74-6.27-0.53-6.27-0.53s-7.13-6.81-8.41-7.34c-0.95 0-6.49-3.51-6.49-3.51-2.76-1.38-5.31-10.96 4.9-8.19 10.53 5 12.02 5.42 12.02 5.42 4.18 1.32 8.37 2.63 12.55 3.94 2.41 2.7 4.83 5.39 7.24 8.09 0 0-12.88-6.39-14.47-6.49 3.51 2.87 5.53 6.8 5.53 6.8-4.08-1.17-7.62-2.23-11.91-2.87z" fill="#fff"/>
<path stroke="#fff" d="m417.67 245.94s12.34-2.97 13.83-2.55"/>
</g>
</svg>
