<svg viewBox="0 0 640 480" xmlns="http://www.w3.org/2000/svg" xmlns:xlink="http://www.w3.org/1999/xlink">
<path d="m0 320h640v160h-640z" fill="#1eb53a"/>
<path d="m0 0h640v160h-640z" fill="#0099b5"/>
<path d="m0 153.6h640v172.8h-640z" fill="#ce1126"/>
<path d="m0 163.2h640v153.6h-640z" fill="#fff"/>
<circle cy="76.8" cx="134.4" r="57.6" fill="#fff"/>
<circle cy="76.8" cx="153.6" r="57.6" fill="#0099b5"/>
<g transform="matrix(1.92 0 0 1.92 261.12 122.88)" fill="#fff">
<g id="e">
<g id="d">
<g id="c">
<g id="b">
<path id="a" d="m0-6l-1.854 5.706 2.854 0.927"/>
<use width="100%" xlink:href="#a" transform="scale(-1 1)" height="100%"/>
</g>
<use width="100%" xlink:href="#b" transform="rotate(72)" height="100%"/>
</g>
<use width="100%" xlink:href="#b" transform="rotate(-72)" height="100%"/>
<use width="100%" xlink:href="#c" transform="rotate(144)" height="100%"/>
</g>
<use y="-24" width="100%" xlink:href="#d" height="100%"/>
<use y="-48" width="100%" xlink:href="#d" height="100%"/>
</g>
<use width="100%" xlink:href="#e" x="24" height="100%"/>
<use width="100%" xlink:href="#e" x="48" height="100%"/>
<use width="100%" xlink:href="#d" x="-48" height="100%"/>
<use width="100%" xlink:href="#d" x="-24" height="100%"/>
<use y="-24" width="100%" xlink:href="#d" x="-24" height="100%"/>
</g>
</svg>
