<svg id="vatican_flag" viewBox="0 0 2500 2500" xmlns="http://www.w3.org/2000/svg" xmlns:xlink="http://www.w3.org/1999/xlink">
<rect width="2500" fill="#fff" height="2500"/>
<rect width="1250" fill="#ffe000" height="2500"/>
<g id="coa" stroke-linejoin="round" stroke="#000" stroke-width="3.205">
<g id="tiara" stroke-linecap="round" fill="#ce9d09">
<g id="band">
<path d="m1781.1 990.29l16.106 3.8412 25.663 4.1691 11.76 1.2926-2.0767 49.916s-2.8084 33.178-7.6882 48.962c-3.6176 11.701-15.781 33.181-15.781 33.181l-7.6882 11.735-45.32-39.25s7.7255-10.947 10.521-16.995c3.5074-7.5891 7.6882-23.874 7.6882-23.874l4.451-25.897 2.4279-32.776zm-56.991 151.48l41.274 36.013s-8.3454 7.4281-13.353 9.7114c-9.8241 4.4794-20.767 7.5168-31.562 7.2836-7.7283-0.167-15.32-2.9727-22.35-6.1856-15.722-7.1841-33.031-14.731-43.168-28.732-3.5868-4.9543-5.0026-11.57-4.8894-17.686 0.1281-6.9328 6.2807-19.831 6.2807-19.831s2.3909 8.636 5.1333 12.022c4.513 5.5725 11.118 9.3021 17.597 12.375 4.8475 2.2989 10.144 4.0219 15.5 4.336 6.9511 0.4078 14.163-0.6737 20.637-3.2371 3.3392-1.3222 8.9021-6.0696 8.9021-6.0696z" fill="#fff"/>
<path d="m1658.6 877.67s3.2943 6.6002 4.297 10.128c1.7151 6.0333 2.9083 12.326 2.8613 18.598-0.047 6.2873-1.4684 12.539-3.1474 18.598-2.5161 9.0802-6.3199 17.783-10.3 26.324-2.5243 5.4158-6.054 10.324-8.5837 15.737-4.0792 8.7286-6.9937 17.956-10.587 26.896-2.9986 7.4609-6.8645 14.61-9.156 22.318-3.0437 10.238-4.5617 20.891-6.0086 31.474-1.2447 9.103-2.2289 18.28-2.289 27.468-0.071 10.899 0.257 21.91 2.289 32.618 2.0132 10.61 4.9766 21.204 9.7283 30.902 3.8299 7.8163 8.9314 15.104 14.878 21.46 4.9155 5.2533 10.706 9.7565 16.881 13.448 5.6111 3.3542 11.951 5.3107 18.026 7.7254 8.392 3.3358 25.433 9.3354 25.433 9.3354s-23.527-11.593-31.728-21.353c-6.7839-8.0741-10.521-18.619-12.876-28.899-2.7273-11.906-2.3831-24.473-1.1445-36.624 1.3326-13.072 5.1794-25.817 9.156-38.341 4.1968-13.217 10.096-25.835 15.451-38.627 3.8591-9.2188 8.276-18.201 12.017-27.468 4.4171-10.941 8.7643-21.934 12.303-33.19 2.1584-6.8647 4.8495-13.721 5.4303-20.894 0.6311-7.7925-0.3834-15.742-2.1702-23.354-2.5031-10.663-5.5983-21.649-11.836-30.652-3.7541-5.4185-8.8987-10.153-14.769-13.151-5.7326-2.9274-12.544-5.401-18.858-4.1538-2.1092 0.41656-5.2985 3.6779-5.2985 3.6779z" fill="#fff"/>
<path d="m1711.6 945.59s4.4543-17.991 5.2084-27.187c0.6452-7.8667 0.2242-15.822-0.6069-23.672-0.9248-8.734-1.4686-17.794-4.8557-25.897-3.5136-8.4059-9.0243-16.13-15.579-22.458-6.46-6.2369-14.294-11.305-22.66-14.567-8.8012-3.4315-18.492-4.2787-27.92-4.8557-8.0878-0.49492-16.24 0.19161-24.278 1.2139-4.6447 0.59072-9.3229 1.3312-13.758 2.8325-4.1142 1.3927-11.735 5.665-11.735 5.665l29.943 48.962s9.3726-5.5179 14.567-6.8789c5.494-1.4394 11.325-1.5458 16.995-1.2139 5.757 0.33691 11.726 0.89368 16.995 3.2371 6.7067 2.9828 12.49 7.9838 17.547 13.304 6.1021 6.42 11.548 13.787 14.959 21.961 3.1668 7.5903 3.5823 16.072 4.7213 24.217 0.2473 1.7681 0.4565 5.3365 0.4565 5.3365z" fill="#fff"/>
<path d="m1717 906.68s-5.3336-16.559-10.37-23.474c-5.8495-8.0311-13.365-15.391-22.255-19.828-9.4283-4.705-30.994-6.2169-30.994-6.2169l11.414 21.128-19.966-0.48705-10.427-17.434-19.232 8.7057-9.5679-15.645 20.431-9.4735-9.4144-15.185 20.423-1.9427 8.8924 14.7s15.874 0.0481 23.588 1.6676c5.2383 1.0998 10.385 2.9096 15.12 5.405 4.5315 2.3882 8.6981 5.5217 12.446 9.0129 4.5081 4.199 8.7319 8.8641 11.874 14.163 3.0537 5.1497 6.5418 16.727 6.5418 16.727z"/>
<path d="m1581.6 845.09l31.899 46.592m-17.97-54.736l-15.032 8.7885-14.306 10.873 30.902 47.211 13.734-10.587 14.12-8.1836z"/>
<path d="m1653.8 1035.9l17.883-36.91 19.139 7.6135 7.7552-19.059-19.026-8.8694 9.8713-21.316-14.02-6.2948-10.587 20.458-19.193-8.0241-8.4281 19.963 18.608 7.8038-17.168 36.624z"/>
<path d="m1796.9 1024.8l18.209-0.4047v21.041l17.533 0.8317-2.9826 21.358-16.357-1.0293s-2.6981 12.575-5.1215 18.495c-2.5132 6.1396-9.6623 17.4-9.6623 17.4l-19.423-4.8557s7.0265-11.048 9.7114-16.995c2.4047-5.3259 5.665-16.59 5.665-16.59l-19.939-2.5165 3.4705-20.192 18.087 1.2625z"/>
</g>
<use xlink:href="#band" transform="matrix(-1 0 0 1 3717.8 0)"/>
<path d="m1756.7 735.6l-27.42 29.446 16.881 50.93 9.6654 35.795-27.723 25.826 50.729 71.05-17.365 19.818c-1.8179 2.3289-2.4559 5.662-2.1441 8.5999 0.2858 2.6934 1.5814 5.4643 3.5766 7.2962 4.5597 4.1866 11.328 5.1331 17.311 6.724 21.065 5.6017 42.928 8.1023 64.664 9.7282 4.6678 0.3492 14.043 0 14.043 0s9.3574 0.3505 14.043 0c21.737-1.6259 43.599-4.1265 64.664-9.7282 5.9824-1.5908 12.751-2.5374 17.311-6.724 1.9952-1.8318 3.2908-4.6028 3.5766-7.2962 0.3118-2.9379-0.3262-6.271-2.1441-8.5999l-16.302-35.876 51.819-55.521-19.776-17.834-0.4354-43.258 16.881-50.93-25.412-25.724-22.943-61.258s-4.8005-17.081-8.8699-24.893c-2.433-4.6707-5.832-8.7908-9.156-12.876-3.9828-4.8944-8.0012-9.8699-12.876-13.877-4.4164-3.6306-9.5357-6.3456-14.592-9.013-5.4329-2.8658-10.892-5.9562-16.844-7.472-6.1395-1.5633-18.944-1.541-18.944-1.541s-12.787-0.026-18.944 1.541c-5.9526 1.5151-11.412 4.6061-16.844 7.472-5.0567 2.6674-10.176 5.3824-14.592 9.013-4.8745 4.0071-8.8929 8.9827-12.876 13.877-3.324 4.0848-6.723 8.2049-9.156 12.876-4.0694 7.8123-8.8699 24.893-8.8699 24.893z" fill="#fff"/>
<path d="m1963.3 933.13s-3.1773-2.8454-4.9603-3.9996c-3.7472-2.4257-7.7685-4.4727-11.937-6.0696-5.6064-2.1479-11.553-3.2884-17.4-4.6534-6.6974-1.5637-13.415-3.1394-20.232-4.0464-7.9733-1.0607-16.033-1.5378-24.076-1.6186-8.6068-0.0865-25.793 1.2139-25.793 1.2139s-17.169-1.301-25.793-1.2139c-8.0431 0.0812-16.103 0.55783-24.076 1.6186-6.8175 0.90698-13.535 2.4828-20.232 4.0464-5.8465 1.365-11.793 2.5055-17.4 4.6534-4.1684 1.597-8.1897 3.6439-11.937 6.0696-1.783 1.1542-4.9603 3.9996-4.9603 3.9996m218.71-42.692s-5.1828-5.2686-8.6021-5.919c-2.2098-0.42027-4.7416 0.21473-6.5754 1.5174-2.372 1.685-3.9554 4.5602-4.6534 7.3847-0.6248 2.5283-0.3529 5.3684 0.6069 7.7894 0.8132 2.0512 2.0996 4.3378 4.1476 5.1592 4.8004 1.9253 15.384-2.0244 15.384-2.0244zm5.1557-3.5922c5.8013 0.17064 7.9138 3.1079 9.4541 6.4743m-243.23-2.882l-0.3074 13.907s10.583 3.9496 15.384 2.0244c2.048-0.82135 3.3344-3.108 4.1476-5.1592 0.9598-2.421 1.2317-5.2611 0.6069-7.7894-0.698-2.8246-2.2814-5.6997-4.6534-7.3847-1.8338-1.3027-4.3681-1.9507-6.5754-1.5174-3.4449 0.67621-8.602 5.919-8.602 5.919zm-5.1558-3.5922c-5.8013 0.17064-7.9138 3.1079-9.4541 6.4743m198.17 1.346l-8.4468-0.94606m-130.04 0.94606l8.4468-0.94606m75.992 0.81471c-2.8651-0.42255-7.6006-4.2094-7.6006-4.2094m-22.786 4.2094c2.8651-0.42255 7.6006-4.2094 7.6006-4.2094m140.94-19.347s-4.2156 3.3472-7.2851 3.8574l-1.211 0.6445s-1.9472 5.728-3.6621 8.1738c-1.7189 2.4514-6.4648 6.25-6.4648 6.25s-4.787-4.1442-7.7442-4.9512c-1.9395-0.52925-4.1634-0.54345-6.0253 0.21485-1.9759 0.8047-3.5479 2.535-4.7364 4.3066-1.4037 2.0924-2.7058 4.5828-2.5879 7.0996 0.1411 3.0138 3.877 8.1836 3.877 8.1836l-2.5781 4.5118-3.6621 2.373c-6.3145-1.9131-12.631-3.9354-18.945-7.539-1.7321-1.8878-3.3581-4.3018-4.5214-9.0332 0 0 4.5436-2.6934 5.5957-4.9512 1.1824-2.5374 1.6683-6.006 0.2148-8.3984-1.6161-2.6604-5.2762-4.0421-8.3887-4.0918-2.2801-0.0364-4.6888 1.1406-6.25 2.8028-1.6788 1.7875-2.9748 4.4648-2.5781 6.8848 0.4042 2.4662 4.7363 5.8106 4.7363 5.8106s-1.8003 4.5578-3.8379 5.4297c-6.0115 2.572-9.9784 4.0405-15.244 4.8535-5.2104 0.80445-11.072 1.4648-16.299-0.0195-3.376-0.95875-6.845-2.7304-8.9649-5.5273-0.6311-0.83265-0.8593-3.0078-0.8593-3.0078s6.4664-1.6792 9.0429-3.6621c2.5589-1.9694 5.2823-4.5684 5.8106-7.7539 0.531-3.2012-1.1709-6.5896-3.0176-9.2578-1.8303-2.6446-4.582-4.738-7.5293-6.0254-1.3298-0.5809-4.3066-0.64455-4.3066-0.64455s-0.6294 0.5709-0.9375 0.8594c-1.2438 1.598-2.9535 2.8626-4.7657 3.8086-0.032 0.0185-0.076 0.0508-0.1074 0.0684-0.044 0.0245-0.1285 0.0438-0.1758 0.0684-0.3793 0.18905-0.7491 0.41-1.1328 0.5664-0.1998 0.0815-0.51 0.0933-0.7422 0.15625-1.269 0.42885-2.4707 0.78125-2.4707 0.78125s3.8635 1.1958 4.9512 2.7344c0.6719 0.95035 0.9629 2.1094 1.084 3.3106 0.1485 0.7129 0.2344 1.4338 0.2051 2.1289-0.047 1.1092-0.3223 2.2332-0.7032 3.33-0.3486 1.2782-0.8392 2.5073-1.6699 3.4961-0.4512 0.53715-1.0035 0.98495-1.5918 1.3868-0.028 0.0227-0.049 0.0558-0.078 0.0781-0.03 0.0231-0.086 0.0362-0.1172 0.0586-1.0379 0.67075-2.2093 1.1684-3.3789 1.4942-1.3714 0.3819-4.186 0.0793-4.2871 0.0684 0.1034 0.0002 5.51-0.01 7.666-1.5625 0.067-0.0431 0.1299-0.092 0.1953-0.1367 1.5102-1.205 2.5998-2.9762 3.2617-4.8828 0.2091-0.7666 0.415-1.5434 0.4883-2.3144 0.096-1.0138 0.1157-2.0935 0.01-3.1445-0.3302-1.5845-1.0609-3.1235-2.2168-4.1504-2.4174-2.1477-9.3244-2.4086-9.4141-2.4121-0.1069 0.004-6.99 0.2671-9.4043 2.4121-1.1559 1.0269-1.8866 2.5659-2.2168 4.1504-0.1059 1.051-0.087 2.1306 0.01 3.1445 0.073 0.7711 0.2792 1.5478 0.4883 2.3144 0.6619 1.9066 1.7515 3.6778 3.2617 4.8828 0.065 0.0447 0.1286 0.0936 0.1953 0.1367 2.1559 1.5529 7.5623 1.5627 7.666 1.5625-0.1011 0.0109-2.9156 0.31355-4.2871-0.0684-1.1696-0.32575-2.341-0.8234-3.3789-1.4942-0.031-0.0224-0.087-0.0355-0.1172-0.0586-0.029-0.0223-0.05-0.0554-0.078-0.0781-0.5883-0.4018-1.1406-0.8496-1.5918-1.3868-0.8306-0.9888-1.3213-2.218-1.6699-3.4961-0.3809-1.0969-0.6563-2.2208-0.7031-3.33-0.029-0.69505 0.057-1.416 0.205-2.1289 0.1211-1.2012 0.4219-2.3602 1.0938-3.3106 1.0878-1.5386 4.9414-2.7344 4.9414-2.7344s-1.2009-0.352-2.4707-0.78125c-0.2299-0.0625-0.5344-0.0755-0.7324-0.15625-0.3891-0.15855-0.7679-0.38405-1.1524-0.57615-0.042-0.0218-0.1172-0.0368-0.1562-0.0586-0.026-0.0145-0.062-0.0435-0.088-0.0586-1.8212-0.94695-3.5456-2.2132-4.7949-3.8184-0.3082-0.2885-0.9375-0.8594-0.9375-0.8594s-2.967 0.0637-4.2969 0.64455c-2.9473 1.2874-5.7088 3.3808-7.5391 6.0254-1.8467 2.6682-3.5486 6.0566-3.0176 9.2578 0.5283 3.1854 3.2615 5.7845 5.8204 7.7539 2.5765 1.983 9.0332 3.6621 9.0332 3.6621s-0.2283 2.1752-0.8594 3.0078c-2.1199 2.7969-5.5889 4.5686-8.9649 5.5273-5.2265 1.4844-11.088 0.824-16.299 0.0195-5.2657-0.813-9.2326-2.2814-15.244-4.8535-2.0376-0.87185-3.8379-5.4297-3.8379-5.4297s4.3321-3.3444 4.7363-5.8106c0.3967-2.42-0.8993-5.0972-2.5781-6.8848-1.5612-1.6622-3.9602-2.8392-6.2403-2.8028-3.1125 0.0497-6.7823 1.4314-8.3984 4.0918-1.4535 2.3925-0.9675 5.861 0.2149 8.3984 1.0521 2.2577 5.5957 4.9512 5.5957 4.9512-1.1633 4.7314-2.7894 7.1454-4.5215 9.0332-6.3144 3.6036-12.631 5.626-18.945 7.539l-3.6524-2.373-2.5879-4.5118s3.7359-5.1698 3.877-8.1836c0.1179-2.5168-1.1842-5.0072-2.5879-7.0996-1.1885-1.7717-2.7604-3.502-4.7363-4.3066-1.8619-0.7583-4.0859-0.7441-6.0254-0.21485-2.9572 0.80705-7.7442 4.9512-7.7442 4.9512s-4.7459-3.7986-6.4648-6.25c-1.7149-2.4458-3.6524-8.1738-3.6524-8.1738l-1.2109-0.6445c-3.0703-0.50455-7.2949-3.8574-7.2949-3.8574l-4.4434 0.9375s-4.1014 2.1952-4.1504 4.1504c-0.067 2.7002 3.7256 3.9183 5.4395 6.0058 1.4706 1.7913 2.8406 3.6673 4.1406 5.586 1.225 1.8078 2.8428 3.475 3.4375 5.5762 0.6494 2.2942-0.9739 4.972 0 7.1484 1.2278 2.7436 3.7734 5.4157 6.7188 6.0156 2.6155 0.53275 7.5879-2.5782 7.5879-2.5782l-0.1465 19.883 10.303 9.3066 9.7266 20.312-3.8575 5.1465 1.1426 10c7.4813-9.5842 20.502-13.791 32.188-17.148 15.732-4.5196 44.57-4.8416 58.008-4.7168 4.4794 0.0416 7.2559 0.13675 7.2559 0.13675s44.295-1.4418 65.254 4.58c11.686 3.3576 24.706 7.5643 32.188 17.148l1.1426-10-3.8574-5.1465 9.7265-20.312 10.303-9.3066-0.1465-19.883s4.9724 3.1109 7.5879 2.5782c2.9454-0.59995 5.4909-3.272 6.7187-6.0156 0.9739-2.1764-0.6494-4.8542 0-7.1484 0.5947-2.1012 2.2125-3.7683 3.4375-5.5762 1.3-1.9186 2.6798-3.7946 4.1504-5.586 1.7139-2.0876 5.4967-3.3057 5.4297-6.0058-0.049-1.9552-4.1504-4.1504-4.1504-4.1504l-4.4434-0.9375zm-148.33-2.6074c1.0489 0.98195 3.1026 2.8469 4.7949 3.8184 0.08 0.0418 0.1633 0.0768 0.2441 0.1172 0.5048 0.26415 1.2018 0.50155 1.8848 0.7324 2.913 0.7925 7.9353 0.26675 8.0469 0.2539h0.03c0.1114 0.0128 5.1327 0.53605 8.0468-0.2539 0.6767-0.22865 1.3711-0.46095 1.875-0.72265 0.094-0.047 0.1896-0.0878 0.2832-0.1367 1.692-0.9767 3.7202-2.8298 4.7657-3.8086 0.5223-0.6711 0.9659-1.3914 1.2988-2.1582 1.1552-2.6608 1.1017-6.1116-0.2051-8.7012-1.5377-3.0469-5.1755-4.4968-8.0859-6.2793-2.5063-1.535-7.9125-3.725-7.9981-3.7598-0.1 0.0405-5.4757 2.2268-7.9785 3.7598-2.9104 1.7826-6.558 3.2324-8.0957 6.2793-1.3068 2.5896-1.3603 6.0404-0.2051 8.7012 0.3329 0.76675 0.7765 1.4871 1.2989 2.1582z"/>
<path d="m1980.8 829.79s-10.886-5.061-16.59-6.8789c-10.413-3.3187-21.235-5.2158-31.967-7.2836-12.467-2.4022-25.26-3.0515-37.622-5.9432-3.8919-0.91037-7.5305-2.7691-11.445-3.5766-5.4002-1.114-11.061-2.8737-16.452-1.7168-2.9678 0.6369-7.8193 4.578-7.8193 4.578s-4.8672-3.94-7.8193-4.578c-5.3894-1.1648-11.052 0.6028-16.452 1.7168-3.9145 0.8075-7.5531 2.6662-11.445 3.5766-12.362 2.8917-25.155 3.5411-37.622 5.9432-10.731 2.0677-21.554 3.9649-31.967 7.2836-5.704 1.818-16.59 6.8789-16.59 6.8789m197.46-45.121s5.3501-2.8242 7.2852-5.0586c1.2834-1.482 2.5069-3.2978 2.6367-5.254 0.1511-2.277-0.6209-4.853-2.2266-6.4746-1.5608-1.5764-4.061-2.2186-6.2793-2.2266-1.8556-0.006-3.842 0.6124-5.2539 1.8164-1.63 1.39-2.7809 3.5372-3.0371 5.664-0.2186 1.8144 0.5096 3.6987 1.3672 5.3125 1.3002 2.447 5.5078 6.2207 5.5078 6.2207zm-151.12 0s4.2076-3.7738 5.5078-6.2207c0.8576-1.6138 1.5858-3.498 1.3672-5.3125-0.2562-2.1268-1.4071-4.274-3.0371-5.664-1.4119-1.204-3.3983-1.8224-5.2539-1.8164-2.2183 0.008-4.7088 0.6502-6.2696 2.2266-1.6057 1.6216-2.3776 4.1976-2.2265 6.4746 0.1298 1.9562 1.3435 3.772 2.6269 5.254 1.9351 2.2344 7.2852 5.0586 7.2852 5.0586zm-41.074 18.008l-11.934 15.576s-0.084 4.109 0.8105 5.8692c1.2312 2.4238 5.8594 5.664 5.8594 5.664l0.8496 21.387-11.309 19.6-0.9863 0.20505 7.2949 3.8574c0.342 0.0562 0.6808 0.11165 0.9863 0.0879 4.3781-0.34225 7.0688-5.2579 10.879-7.4414 4.8491-2.779 10.012-4.988 15.166-7.1484 7.1244-2.9859 14.359-5.7335 21.738-8.0176 9.3031-2.8796 18.691-5.7598 28.33-7.1484 7.298-1.0514 14.712-1.5454 22.1-1.4453 2.4625 0.0333 4.9209 0.12695 7.3731 0.29295 6.5689 0.44475 19.37 3.4042 19.473 3.4278 0.086-0.0198 12.909-2.9827 19.482-3.4278 9.8085-0.66405 19.742-0.2495 29.473 1.1524 9.639 1.3887 19.027 4.2689 28.33 7.1484 7.3794 2.2841 14.614 5.0317 21.738 8.0176 5.1546 2.1604 10.317 4.3694 15.166 7.1484 3.8101 2.1836 6.5008 7.0992 10.879 7.4414 0.3085 0.024 0.6505-0.0304 0.9961-0.0879l7.2851-3.8574-0.9863-0.20505-11.309-19.6 0.8496-21.387s4.638-3.2402 5.8692-5.664c0.8943-1.7602 0.8007-5.8692 0.8007-5.8692l-11.934-15.576c-0.0001 0-6.0157 6.0076-9.9122 7.2852-2.0507 0.67235-4.4136 0.6401-6.4746 0-2.501-0.7768-4.4344-2.811-6.4746-4.4532-4.6088-3.7096-9.2257-7.541-12.949-12.139-2.1328-2.6335-5.2637-8.7012-5.2637-8.7012s-12.908 10.142-20.635 12.139c-7.5767 1.9584-15.96 1.6057-23.467-0.6055-1.8839-0.5549-5.0293-3.0664-5.0293-3.0664-8.8263-5.6214-17.652-8.6974-26.426-7.8516-8.7738-0.8459-17.6 2.2302-26.426 7.8516 0 0-3.1552 2.5115-5.0391 3.0664-7.5068 2.2112-15.89 2.5638-23.467 0.6055-7.727-1.9972-20.635-12.139-20.635-12.139s-3.1309 6.0677-5.2637 8.7012c-3.7235 4.5976-8.3404 8.429-12.949 12.139-2.0402 1.6421-3.9736 3.6764-6.4746 4.4532-2.061 0.6401-4.4239 0.67235-6.4746 0-3.8965-1.2775-9.9121-7.2852-9.9121-7.2852z"/>
<path d="m1985.9 796.36s0.4479-5.7029-0.1618-8.455c-0.5584-2.5204-1.694-4.94-3.136-7.0812-1.5129-2.2464-5.6473-5.8416-5.6473-5.8416m-1.4343 27.69c-0.0001 0 3.3941 0.1231 4.8535-0.6055 2.6029-1.2996 6.0742-6.2695 6.0742-6.2695s6.6614 4.6074 10.312 4.043c1.8007-0.2784 3.2946-1.8848 4.248-3.4375 1.0106-1.6457 1.6515-3.7816 1.2207-5.664-0.3431-1.4992-1.6576-2.6497-2.832-3.6426-2.2813-1.9286-6.3955-1.6618-7.8906-4.248-1.1818-2.0444-0.4569-4.8105 0.1953-7.08 1.3607-4.7357 4.7512-8.6482 7.4902-12.744 1.7395-2.6012 5.2931-4.383 5.6641-7.4902 0.2006-1.6794-2.0215-4.6582-2.0215-4.6582s-5.2216-0.11815-7.6855 0.61525c-4.0775 1.2138-8.3071 2.995-11.201 6.1132-2.4056 2.5919-3.1206 6.3656-4.3848 9.668-0.9609 2.5098-2.4219 7.6856-2.4219 7.6856s-6.0411-0.013-8.7011 1.211c-3.5158 1.6175-7.1107 4.1574-8.7012 7.6855-1.2473 2.7667-1.0733 6.2726 0 9.1114 1.0815 2.8604 3.4928 5.2356 6.0742 6.875 2.8465 1.8078 9.7071 2.832 9.7071 2.832zm-234.71-27.69s-4.1344 3.5952-5.6473 5.8416c-1.442 2.1412-2.5776 4.5608-3.136 7.0812-0.6097 2.7521-0.1618 8.455-0.1618 8.455m-16.936-45.485s-2.2221 2.9788-2.0215 4.6582c0.371 3.1072 3.9246 4.889 5.6641 7.4902 2.739 4.0959 6.1295 8.0084 7.4902 12.744 0.6522 2.2696 1.3771 5.0357 0.1953 7.08-1.4951 2.5862-5.6093 2.3194-7.8906 4.248-1.1744 0.9929-2.4889 2.1434-2.832 3.6426-0.4308 1.8825 0.2101 4.0184 1.2207 5.664 0.9534 1.5528 2.4473 3.1591 4.248 3.4375 3.6511 0.5645 10.312-4.043 10.312-4.043s3.4713 4.9699 6.0743 6.2695c1.4594 0.7286 4.8535 0.6055 4.8535 0.6055s6.8703-1.0243 9.7168-2.832c2.5814-1.6394 4.9829-4.0146 6.0644-6.875 1.0733-2.8387 1.2473-6.3446 0-9.1114-1.5905-3.5281-5.1854-6.068-8.7012-7.6855-2.66-1.224-8.7011-1.211-8.7011-1.211s-1.461-5.1757-2.4219-7.6856c-1.2642-3.3024-1.9792-7.0761-4.3848-9.668-2.8941-3.1183-7.1236-4.8994-11.201-6.1132-2.4639-0.7334-7.6856-0.61525-7.6856-0.61525zm135.63 14.317l8.3246-2.4376 8.3246 2.4376m-14.493 20.082s-6.481-5.9099-7.6882-9.9138c-0.5271-1.7482-0.45-3.8492 0.4046-5.4627 1.1684-2.2059 5.8673-4.6534 5.8673-4.6534s-7.0852-3.4428-8.9021-6.6766c-1.0288-1.8312-1.1579-4.2451-0.607-6.272 0.8741-3.2153 3.2994-5.9698 5.8673-8.0929 3.185-2.6332 11.226-5.2603 11.226-5.2603s8.0266 2.62 11.226 5.2603c2.5698 2.1208 4.9932 4.8775 5.8673 8.0929 0.5509 2.0269 0.4218 4.4408-0.607 6.272-1.8169 3.2338-8.9021 6.6766-8.9021 6.6766s4.6989 2.4475 5.8673 4.6534c0.8546 1.6135 0.9317 3.7145 0.4046 5.4627-1.2072 4.0038-7.6882 9.9138-7.6882 9.9138l-6.168 0.40463zm22.672-26.888s13.437 5.7268 17.989 11.106c1.2701 1.501 2.3519 3.5005 2.2255 5.4627-0.4485 6.962-10.318 18.209-10.318 18.209l-19.928-8.2824h-12.944l-19.928 8.2824s-9.8699-11.247-10.318-18.209c-0.1264-1.9621 0.9554-3.9617 2.2255-5.4627 4.5522-5.3796 17.989-11.106 17.989-11.106"/>
<path d="m1844.4 669.25l8.0562-6.2006 6.5065 0.13988-6.6557-0.14309s-3.591-2.4476-4.578-4.2919c-0.958-1.7902-1.4152-4.0207-1.0015-6.0086 0.5525-2.6548 2.0852-5.4586 4.4277-6.8248 2.2371-1.3048 7.7551-0.47145 7.7551-0.47145s5.5027-0.84166 7.7551 0.47145c2.3428 1.3657 3.8752 4.1699 4.4277 6.8248 0.4137 1.9879-0.043 4.2184-1.0015 6.0086-0.987 1.8442-4.578 4.2919-4.578 4.2919l-6.6557 0.14309 6.5065-0.13988 8.0562 6.2006m52.584 5.0684l-2.6798 4.655m32.633-20.005l-7.5149 0.98202m8.513 8.8038l-11.517 0.60428m-1.4979-13.748c1.4677 0.93659 4.1545 2.86 4.5946 4.635 0.7761 3.1294-0.6743 7.0705-3.1391 9.1489-2.3885 2.0141-9.252 1.5011-9.252 1.5011m-181.69 33.588s11.295-2.8202 16.955-4.1778c8.0811-1.9383 16.099-4.1958 24.279-5.665 9.2622-1.6637 18.62-2.8843 28.007-3.5541 11.71-0.83564 35.216-0.57225 35.216-0.57225s23.488-0.26449 35.216 0.57225c9.3866 0.66969 18.744 1.8904 28.007 3.5541 8.1793 1.4692 16.198 3.7267 24.279 5.665 5.66 1.3576 16.955 4.1778 16.955 4.1778m-171.55-30.165l2.6798 4.655m-32.633-20.005l7.5149 0.98202m-8.513 8.8038l11.517 0.60428m-6.4754 16.076s12.542-3.1876 18.875-4.5063c6.9234-1.4417 13.873-2.8192 20.887-3.7196 8.0675-1.0357 16.2-1.5554 24.325-1.9286 9.6296-0.44228 28.917-0.36651 28.917-0.36651s19.27-0.0764 28.917 0.36651c8.1252 0.37308 16.257 0.89293 24.325 1.9286 7.0143 0.90048 13.964 2.278 20.887 3.7196 6.3328 1.3186 18.875 4.5063 18.875 4.5063m-170.24-14.539s-6.8635 0.51299-9.252-1.5011c-2.4648-2.0784-3.9152-6.0195-3.1391-9.1489 0.6108-2.4635 5.5498-5.2131 5.5498-5.2131m63.138 74.002c-11.977 0.7232-24.01 1.474-35.811 3.6418-12.293 2.2581-24.485 5.3973-36.216 9.7114-11.113 4.0872-22.869 22.643-32.096 15.222-1.983-1.595 0.7525-5.0841 1.7168-7.4393 1.8655-4.5565 4.429-8.9322 7.7254-12.59 2.4138-2.6781 7.9759-3.0271 8.5837-6.5809 0.4416-2.5814-3.4743-4.0928-4.2918-6.5809-1.0439-3.1765-1.5387-6.8135-0.5723-10.014 1.2405-4.1087 6.5254-6.1798 7.7254-10.3 1.043-3.5818-2.5475-7.8326-0.8584-11.159 2.133-4.2006 11.337-2.7775 12.017-7.4393 0.3317-2.2728-3.8251-2.9802-4.578-5.1502-0.5324-1.5345 0.3091-3.2401 0.2861-4.8641-0.031-2.2017 0.392-4.6014-0.5723-6.5809-0.857-1.7593-3.702-2.1398-4.2918-4.0058-0.5582-1.7657-0.1716-4.1336 1.1445-5.4364 1.0368-1.0264 3.6319 0.44281 4.2918-0.85837 1.3318-2.6259-2.5388-5.3143-3.7196-8.0115-1.4064-3.2126-3.2072-6.3135-4.0057-9.7283-0.6313-2.6996-2.9585-6.8861-0.5723-8.2976 2.7325-1.6163 5.4768 3.2387 8.0115 5.1502 3.3453 2.5229 7.1094 4.8171 9.4422 8.2976 1.6831 2.5114 0.7428 6.5093 2.9483 8.5771 2.6468 2.4814 7.7583 0.49134 10.5 2.8679 2.3561 2.0427 4.4414 5.5501 3.7196 8.5838-0.6897 2.8987-7.5314 2.8179-6.867 5.7225 0.7892 3.4501 6.8133 3.1792 10.3 2.5751 2.033-0.35214 3.4624-2.2468 5.1503-3.4335 1.3108-0.92157 2.389-2.2322 3.8627-2.8613 1.6908-0.72182 5.4363-0.9299 5.4363-0.9299l-2.1459-0.50072s-3.1717-2.5278-3.505-4.3634c-0.3139-1.7286 0.4369-3.7318 1.6452-5.0072 1.3551-1.4304 3.5376-2.1603 5.5079-2.1459 1.6471 0.0118 3.4459 0.66342 4.578 1.8598 1.1609 1.2268 1.8244 3.1131 1.6452 4.7926-0.1565 1.4679-1.1275 2.88-2.289 3.7912-1.2578 0.98685-4.578 1.4306-4.578 1.4306l2.289 0.64379 6.1517 8.4407 26.539-1.4541s3.2734-3.3392 2.6302-5.1592c-0.6891-1.9498-2.503-2.6678-5.665-2.529-8.5812 0.37659-10.34-6.8284-10.015-12.038 0.27-4.3335 5.4839-7.2744 9.5092-8.9021 3.8768-1.5678 10.787 3.5927 12.544-0.20233 1.5397-3.3265-5.8181-5.021-6.9801-8.4975-0.5029-1.5045-0.5077-3.336 0.2023-4.7545 1.8128-3.6216 5.7132-6.0296 9.408-7.6882 1.5569-0.69888 5.0552-0.80928 5.0552-0.80928s3.4821 0.10463 5.0552 0.80928c3.6961 1.6556 7.5952 4.0666 9.408 7.6882 0.71 1.4185 0.7052 3.2501 0.2023 4.7545-1.162 3.4765-8.5198 5.171-6.9801 8.4975 1.7566 3.795 8.6671-1.3654 12.544 0.20233 4.0253 1.6278 9.2392 4.5686 9.5092 8.9021 0.3245 5.2097-1.4338 12.415-10.015 12.038-3.162-0.13876-4.9759 0.57925-5.665 2.529-0.6432 1.82 2.6302 5.1592 2.6302 5.1592l26.539 1.4541 6.1517-8.4407 2.289-0.64379s-3.3202-0.44378-4.578-1.4306c-1.1615-0.91118-2.1325-2.3233-2.289-3.7912-0.1792-1.6795 0.4843-3.5658 1.6452-4.7926 1.1321-1.1964 2.9309-1.848 4.578-1.8598 1.9703-0.0144 4.1528 0.71551 5.5079 2.1459 1.2083 1.2754 1.9591 3.2786 1.6452 5.0072-0.3333 1.8356-3.505 4.3634-3.505 4.3634l-2.1459 0.50072s3.7455 0.20808 5.4363 0.9299c1.4737 0.62911 2.5519 1.9397 3.8627 2.8613 1.6879 1.1867 3.1173 3.0814 5.1503 3.4335 3.4872 0.60403 9.5113 0.87492 10.3-2.5751 0.6644-2.9046-6.1773-2.8238-6.867-5.7225-0.7218-3.0337 1.3635-6.541 3.7196-8.5838 2.7413-2.3766 7.8528-0.38651 10.5-2.8679 2.2055-2.0678 1.2652-6.0657 2.9483-8.5771 2.3328-3.4806 6.0969-5.7748 9.4422-8.2976 2.5347-1.9116 5.279-6.7666 8.0115-5.1502 2.3862 1.4115 0.059 5.598-0.5723 8.2976-0.7985 3.4148-2.5993 6.5157-4.0057 9.7283-1.1808 2.6972-5.0514 5.3856-3.7196 8.0115 0.6599 1.3012 3.255-0.16805 4.2918 0.85837 1.3161 1.3028 1.7027 3.6707 1.1445 5.4364-0.5898 1.8659-3.4348 2.2465-4.2918 4.0058-0.9643 1.9795-0.5415 4.3792-0.5723 6.5809-0.023 1.624 0.8185 3.3297 0.2861 4.8641-0.7529 2.17-4.9097 2.8774-4.578 5.1502 0.6804 4.6618 9.8843 3.2386 12.017 7.4393 1.6891 3.3263-1.9014 7.577-0.8584 11.159 1.2 4.1207 6.4849 6.1918 7.7254 10.3 0.9664 3.2009 0.4716 6.8379-0.5723 10.014-0.8175 2.488-4.7334 3.9995-4.2918 6.5809 0.6078 3.5538 6.1699 3.9028 8.5837 6.5809 3.2964 3.6573 5.8599 8.033 7.7254 12.59 0.9643 2.3552 3.6998 5.8443 1.7168 7.4393-9.2266 7.4211-20.982-11.135-32.096-15.222-11.73-4.3141-23.923-7.4533-36.216-9.7114-11.801-2.1678-23.834-2.9183-35.811-3.6418-6.9678-0.42091-20.938-0.40462-20.938-0.40462s-13.952-0.0172-20.938 0.40462z"/>
<path d="m1869.1 595.4l-10.184 0.11745-10.184-0.11745m16.931-33.88c2.6422-5.6008-1.9753-9.7497-6.7476-13.857-4.7723 4.1074-9.3897 8.2563-6.7475 13.857m14.066 46.73c3.8943 0.2869 8.6316 4.2676 11.588 1.7168 1.336-1.1526 0.6752-3.6632 0-5.2933-1.5743-3.8007-8.4131-4.6249-8.7268-8.7268-0.2706-3.5378 5.1908-5.2117 6.2948-8.5838 0.5489-1.6769 0.6808-3.6655 0-5.2933-2.7515-6.5777-14.493-6.9511-16.527-13.68-0.9011-2.9815 5.9324-6.4934 6.7999-6.8689 4.3393-1.8787 9.7036 2.6587 13.988 0.7993 2.899-1.2583 6.1252-4.1237 6.0696-7.2836-0.06-3.4383-3.7256-6.3164-6.8789-7.6882-6.1079-2.657-16.22 5.9042-19.978 0.40464-3.4586-5.0617 8.643-11.081 7.0297-16.995-0.7665-2.81-6.9773-5.2604-6.9773-5.2604s-6.2021 2.4382-6.9773 5.2604c-1.6239 5.9115 10.488 11.933 7.0297 16.995-3.7578 5.4996-13.87-3.0617-19.978-0.40464-3.1533 1.3718-6.8184 4.2499-6.8789 7.6882-0.056 3.1599 3.1706 6.0253 6.0696 7.2836 4.2841 1.8594 9.6484-2.678 13.988-0.7993 0.8674 0.37558 7.701 3.8874 6.7999 6.8689-2.034 6.7294-13.776 7.1028-16.527 13.68-0.6809 1.6278-0.5489 3.6164 0 5.2933 1.1039 3.3721 6.5654 5.0459 6.2948 8.5838-0.3137 4.1019-7.1525 4.9261-8.7268 8.7268-0.6753 1.6301-1.336 4.1407 0 5.2933 2.9565 2.5508 7.6937-1.4298 11.588-1.7168 2.433-0.17924 7.3187 0 7.3187 0s4.8683-0.18054 7.3186 0z"/>
<path d="m1953.7 953.5s-7.1544-3.0191-10.804-4.3401c-6.5977-2.3883-13.259-4.6321-20.03-6.4743-6.5995-1.7956-13.233-3.6891-20.03-4.4511-14.576-1.634-44.002-0.20232-44.002-0.20232s-29.408-1.4336-44.002 0.20232c-6.7969 0.76191-13.43 2.6554-20.03 4.4511-6.7706 1.8422-13.432 4.086-20.03 6.4743-3.6492 1.321-10.804 4.3401-10.804 4.3401m201.9-222.5s-11.952-4.7562-18.026-6.867c-5.1003-1.7726-10.206-3.5815-15.451-4.8641-6.3972-1.5644-12.932-2.5382-19.456-3.4335-9.3932-1.2889-18.843-2.2085-28.307-2.7845-8.5842-0.52248-25.793-0.60697-25.793-0.60697s-17.192 0.0836-25.793 0.60697c-9.4637 0.57579-18.914 1.4956-28.307 2.7845-6.5245 0.89528-13.059 1.8691-19.456 3.4335-5.2449 1.2826-10.35 3.0916-15.451 4.8641-6.0735 2.1108-18.026 6.867-18.026 6.867m-14.157 120.41s17.56-5.9185 26.406-8.671c9.1286-2.8405 18.173-6.0628 27.516-8.0928 11.184-2.4303 22.611-3.6293 33.99-4.8557 11.058-1.1918 33.279-2.4279 33.279-2.4279s22.203 1.2348 33.279 2.4279c11.379 1.2257 22.806 2.4254 33.99 4.8557 9.3424 2.0301 18.387 5.2523 27.516 8.0928 8.8459 2.7525 26.406 8.671 26.406 8.671" fill="none"/>
</g>
<g id="silverkey" fill="#ccc">
<g id="keybase">
<path d="m1533.3 904.04l101.17 86.713s-5.1334 11.214-7.279 16.989c-1.9789 5.3266-3.8171 10.727-5.1455 16.252-1.9584 8.145-4.1351 24.789-4.1351 24.789l-117.94-108.04c1.6729-24.689 15.566-33.488 33.331-36.708z"/>
<path d="m1519 958.2l-24.283 27.167 15.165 14.592-23.462 22.89-15.165-15.165-25.514 27.202-0.2368 33.743 58.084 45.494 20.029-14.878-1.1445-32.332 15.451 8.5838 15.451-9.4422 0.8583 29.185-12.59-9.1561-13.734 18.026-1.4306 32.046 43.777 38.913 53.049-47.079-4.0084-14.112-2.3054-12.678-1.2464-25.129 1.9803-27.44z"/>
<path d="m1494.7 985.36l-0.6211 29.993 15.643-15.261z"/>
<path d="m1571.9 1140.4l-1.8207 34.262m-18.61-139.68l0.6445 31.784m-14.811-17.34l0.8297 25.885m-14.425-36.34l0.5416 28.925m-21.435 15.224l0.3115 30.648m24.737-9.675l44.064 36.897 45.055-39.54m-171.02-66.875l57.579 49.193 18.884-16.881-14.878-12.59 16.595-15.737 12.876 11.159 14.592-14.878 18.884 18.312-17.151 13.447 16.006 14.593-15.165 14.02" fill="none"/>
<path d="m1901.4 1229.4l48.602 44.579 10.763 31.429-62.642-6.6732-35.664-35.276-37.969-35.175-164.04-142.14s3.4783-13.101 5.635-19.522c3.124-9.3004 6.8664-18.385 10.564-27.472 0.9279-2.2802 2.9156-6.7855 2.9156-6.7855l183.01 162.24z"/>
<path d="m1942.7 1236c27.094 37.868 72.691 73.638 86.536 90.842 13.845 17.203 22.765 33.541 2.5831 55.538-20.181 21.998-43.064 9.5153-61.135-2.5832s-49.603-51.303-94.716-81.37z"/>
<path d="m1926.7 1299.8l-35.169-15.874m40.928-38.288c2.4231 7.9655 0.5742 16.774 3.624 24.416 3.0153 7.5554 14.022 19.974 14.022 19.974s-6.9976 0.9775-10.262 2.2451c-4.731 1.8372-11.956 2.7096-13.172 7.6371-1.0633 4.3091 4.0612 8.0262 7.0898 11.271 2.9045 3.1116 6.6447 5.3721 10.316 7.5262 6.1364 3.6005 12.391 7.6535 19.393 8.9161 8.7653 1.5806 25.129-10.756 26.647-1.9791 0.6311 3.6495-7.3892 1.3125-10.713 2.9459-7.7584 3.8123-11.649 12.117-4.8208 17.894 4.3853 3.7097 11.275 2.3464 16.999 2.8209 5.4887 0.455 11.757-2.745 16.523 0.016 5.6107 3.2507 12.668 11.106 9.6914 16.867-3.0627 5.9283-14.484 5.7692-19.927 1.9095-4.0245-2.8539-2.947-9.4733-3.5417-14.371-0.1769-1.4578 0-2.937 0-4.4055"/>
<circle cy="1480.1" cx="2154.7" r="129.69"/>
<path d="m2106.1 1485.6c-22.355 0-40.478 18.123-40.478 40.478 0 22.356 18.123 40.478 40.478 40.478s40.478-18.123 40.478-40.478l14.026-0.6088c0 22.355 18.123 40.478 40.478 40.478s40.478-18.123 40.478-40.478-18.123-40.478-40.478-40.478l0.6088-7.9375c22.356 0 40.478-18.123 40.478-40.478s-18.123-40.478-40.478-40.478c-22.355 0-40.478 18.123-40.478 40.478l-14.026-1.2177c0-22.356-18.123-40.478-40.478-40.478-22.356 0-40.478 18.123-40.478 40.478s18.123 40.478 40.478 40.478z" fill="#fff"/>
<circle cy="1446.1" cx="2154.7" r="14.613"/>
<circle cy="1480.1" cx="2189.4" r="14.613"/>
<circle cy="1511.2" cx="2155.3" r="14.613"/>
<circle cy="1480.1" cx="2119.3" r="14.613"/>
<path d="m2152.2 1558.4c-5.3378 10.957-12.62 15.941-21.919 21.919 13.247 5.754 29.4 4.6966 43.838 0-9.2987-4.6497-16.041-11.996-21.919-21.919zm-76.579-80.232c-10.957-5.3378-15.941-12.62-21.919-21.919-5.7539 13.247-4.6965 29.4 0 43.838 4.6498-9.2988 11.996-16.041 21.919-21.919zm159.25 3.6531c10.957-5.3378 15.941-12.62 21.919-21.919 5.754 13.247 4.6966 29.4 0 43.838-4.6497-9.2988-11.996-16.041-21.919-21.919zm-78.405-80.841c-5.3378-10.957-12.62-15.941-21.919-21.919 13.247-5.7539 29.4-4.6965 43.838 0-9.2988 4.6498-16.041 11.996-21.919 21.919z" fill="#fff"/>
</g>
<g fill="#ce9d09">
<g id="keydeco">
<path d="m1533.5 903.82s0.7031-5.0612 0.0001-7.4392c-1.1438-3.8688-3.5741-7.4678-6.5809-10.158-2.5433-2.275-5.8071-3.9237-9.1561-4.578-3.6147-0.70621-7.4637-0.11504-11.016 0.85837-2.4196 0.6631-6.7534 3.3225-6.7534 3.3225l-14.849 6.1196-5.5107 17.667s-3.1741 5.5789-3.9314 8.6561c-0.8104 3.2929-1.4088 6.8711-0.5723 10.157 0.9826 3.8602 3.2315 7.6114 6.2948 10.157 2.8332 2.3548 6.6269 3.729 10.3 4.0058 2.8265 0.21295 8.2977-1.8598 8.2977-1.8598 1.5802-18.611 9.856-32.813 33.477-36.91z"/>
<path d="m1500.3 885.64l-38.753-17.02-3.1474 3.0043 21.119 38.202s5.9243-8.7382 9.3535-12.736c3.5106-4.0931 11.428-11.45 11.428-11.45z"/>
<circle cy="865.26" cx="1457.3" r="15.951"/>
<path d="m1566.2 932.26c3.3899 27.952 7.3216 55.904 16.025 83.856l31.069 28.459c-6.625-29.232-18.442-58.463-18.368-87.695z"/>
<path d="m1613 972.42l-85.488-6.3689 27.201 24.916 78.068 3.3797 1.1469-3.9897z"/>
<path d="m1718.4 1066.9c-22.445 8.4602-31.418 22.309-37.857 37.171-6.3529 0.5589-12.306 0.6177-14.41-4.1336 5.3477-34.7 30.21-45.551 35.753-47.747 14.95-2.8246 12.179 8.8497 16.514 14.709z"/>
<path d="m1745.9 1092.8c-22.445 8.4601-31.418 22.309-37.857 37.171-6.3529 0.5589-12.306 0.6177-14.41-4.1336 5.3477-34.7 30.21-45.551 35.753-47.747 14.95-2.8246 12.179 8.8497 16.514 14.71z"/>
<path d="m2058.7 1354.7c-7.3366-0.2015-15.078 1.5039-15.078 1.5039 0.3035 8.0206-2.9456 16.583-11.797 26.23-7.6394 8.327-15.666 11.703-23.672 12.041l-0.01 0.01s-2.8398 17.652 2.5879 23.252c6.3562 6.5581 27.119 3.877 27.119 3.877l1.7676-1.1325a129.69 129.69 0 0 1 31.914 -39.795l0.332-1.2595s3.0386-16.523-2.1484-21.5c-2.3504-2.2702-6.6137-3.0726-11.016 0z"/>
<circle cy="1375.4" cx="2254.5" r="17.657"/>
<circle cy="1580" cx="2260.6" r="17.657"/>
<circle cy="1591.6" cx="2062.1" r="17.657"/>
</g>
</g>
</g>
<g id="goldkey" transform="matrix(-1 0 0 1 3718.3 0)" fill="#ce9d09">
<use xlink:href="#keybase"/>
<use xlink:href="#keydeco" fill="#ccc"/>
</g>
<g id="cord">
<g fill="#fa0204">
<path id="piece1" d="m1869.2 1175.8c0 5.3802-4.4998 7.4585-13.243 7.4585s-12.786-2.5349-12.786-7.9152c0-5.3802 4.0432-6.6974 12.786-6.6974s13.243 1.7739 13.243 7.1541z"/>
<use y="14.309" x="6.39127" xlink:href="#piece1"/>
<path d="m1877.3 1208.7c-1.772 5.0801-6.7053 5.5604-14.96 2.681-8.255-2.8795-11.238-6.6047-9.4658-11.685 1.772-5.0801 6.0234-4.9922 14.278-2.1127 8.2551 2.8794 11.92 6.0364 10.148 11.116z"/>
<path id="piece2" d="m1877.5 1222.5c-1.065 5.2737-5.8872 6.4202-14.457 4.6895s-12.031-5.0159-10.966-10.29c1.065-5.2737 5.289-5.7645 13.859-4.0338 8.5699 1.7306 12.63 4.3602 11.564 9.634z"/>
<use y="16.1422" x="3.95963" xlink:href="#piece2"/>
<path d="m1921.7 1216.2c-2.5904-0.6912-2.3033-5.3033-1.583-7.8857 1.107-3.9686 8.3538-9.11 8.3538-9.11s1.7671 5.5627 0.9501 8.1851c-1.1615 3.7283-3.948 9.8173-7.7209 8.8106z"/>
<path d="m1912.3 1224.4c-2.8216-0.6217-3.1818-5.5227-2.444-8.3162 1.142-4.3238 9.6454-9.3253 9.6454-9.3253s1.4762 6.0417 0.5196 8.831c-1.2669 3.6937-3.9075 9.6508-7.721 8.8105z"/>
<path d="m1901.5 1240c-4.2916-1.1384-3.8048-8.7623-2.6592-13.052 0.946-3.5426 3.7155-9.1195 7.2774-8.2489 4.1673 1.0185 4.1144 8.3214 3.1027 12.49-0.9208 3.7948-3.9464 9.8117-7.7209 8.8105z"/>
<path d="m1888.7 1252.2c-4.2142-0.9262-6.0068-7.6384-5.1637-11.87 0.8851-4.4419 5.3598-10.41 9.7819-9.4309 4.4624 0.9884 6.0053 8.3528 4.9293 12.795-1.0033 4.1426-5.3845 9.4211-9.5475 8.5061z"/>
<path d="m1886.5 1259.6c-1.0768 5.087-7.5039 6.86-11.461 5.5691-4.1541-1.355-9.5785-7.1863-8.4416-12.524 1.1474-5.3859 8.1788-6.8138 12.324-5.2257 3.8656 1.4809 8.6428 7.1552 7.5791 12.18z"/>
<path d="m1801.5 1210.3s5.1379 2.5312 7.3489 4.7921c2.321 2.3733 5.1107 3.3218 3.709 6.9229-1.4145 3.6339-5.8427 2.3881-8.1269-0.1558-2.1302-2.3723-2.931-11.559-2.931-11.559z"/>
<path d="m1826.8 1219.1c5.2115 1.0469 5.1081 7.1209 2.4435 10.846-2.7971 3.9106-10.884 8.9923-16.349 7.8872-5.5156-1.1152-4.8437-7.7572-1.7951-11.658 2.843-3.6377 10.553-8.1097 15.701-7.0757z"/>
<path id="piece3" d="m1844.3 1230.6c4.8531 2.1688 3.4146 8.0709 0 11.118-3.5896 3.1987-12.597 6.3749-17.685 4.0932-5.1345-2.3024-3.0165-8.6334 0.8162-11.767 3.5744-2.9224 12.08-5.5868 16.874-3.4444z"/>
<use y="10.6607" x="13.9976" xlink:href="#piece3"/>
<path d="m1863 1250.7c4.7874 0.7544 6.069 7.4153 4.5846 11.696-1.5593 4.494-7.4731 10.669-12.496 9.8697-5.0684-0.8064-5.9818-8.1322-4.2007-12.634 1.6611-4.1985 7.3836-9.6772 12.113-8.932z"/>
<path d="m1875.1 1265.3c3.9649 2.3077 3.0331 9.5902 0.4105 13.533-2.7541 4.1391-9.845 8.622-14.002 6.1932-4.1951-2.451-2.7353-10.302 0.2157-14.379 2.7522-3.8018 9.4605-7.6274 13.377-5.3479z"/>
<path d="m1789 1225.4c4.2435-0.3761 7.1824 5.9652 7.1269 10.585-0.059 4.8498-3.317 12.403-7.771 12.79-4.4945 0.3906-7.3089-6.7007-7.0653-11.611 0.2273-4.5791 3.5185-11.393 7.7102-11.764z"/>
<path d="m1802.9 1237.6c4.1568 0.9325 5.0275 7.8673 3.5694 12.251-1.5316 4.6021-6.9326 10.806-11.293 9.82-4.4004-0.9952-4.9243-8.6065-3.1985-13.21 1.6094-4.293 6.8172-9.7825 10.923-8.8615z"/>
<path d="m1815.8 1246.2c4.9212 1.1581 5.952 9.7707 4.2258 15.215-1.8133 5.7155-8.2076 13.42-13.37 12.196-5.2096-1.2359-5.8298-10.689-3.7868-16.406 1.9054-5.3317 8.071-12.149 12.932-11.006z"/>
<path d="m1826.2 1256.8c5.0144-0.6444 9.0048 7.0573 9.301 12.761 0.3098 5.9882-2.9706 15.448-8.2344 16.115-5.3117 0.6727-9.2128-7.9599-9.3081-14.03-0.089-5.6613 3.2892-14.21 8.2424-14.847z"/>
<path id="piece4" d="m1838.6 1265.7c4.5564-0.5341 8.1822 5.85 8.4514 10.578 0.2815 4.9637-2.6993 12.805-7.4822 13.358-4.8266 0.5576-8.3713-6.5981-8.4579-11.63-0.081-4.6927 2.9887-11.779 7.4895-12.307z"/>
<use y="10.3504" x="12.7879" xlink:href="#piece4"/>
<path id="piece5" d="m1929.3 1250.9c-3.2434 2.8459-9.7124 0.3125-12.622-2.8742-3.0537-3.345-5.2098-10.486-1.8005-13.468 3.4404-3.009 10.287 0.1121 13.228 3.611 2.7423 3.263 4.3982 9.9199 1.1944 12.731z"/>
<use y="12.7922" x="-6.99906" xlink:href="#piece5"/>
<use y="23.4522" x="-19.4791" xlink:href="#piece5"/>
<path d="m1905.2 1281.2c-1.1383 4.1621-7.9325 5.6128-12.116 4.5566-4.3915-1.1087-10.126-5.8797-8.9239-10.247 1.2128-4.4066 8.646-5.5749 13.028-4.2756 4.0865 1.2117 9.1366 5.8543 8.0121 9.9656z"/>
<path d="m1887.2 1278.2c3.6414 2.5388 2.7856 10.551 0.377 14.889-2.5295 4.5537-9.0418 9.4855-12.86 6.8135-3.8529-2.6965-2.5122-11.334 0.1981-15.819 2.5276-4.1825 8.6887-8.3913 12.286-5.8835z"/>
<path d="m1869.6 1287.6c3.9649 2.3077 3.0332 9.5902 0.4105 13.533-2.7541 4.1392-9.8449 8.622-14.002 6.1932-4.1952-2.451-2.7354-10.302 0.2157-14.379 2.7522-3.8017 9.4604-7.6273 13.377-5.3479z"/>
<path id="piece6" d="m1831.3 1312.9c-3.3916 3.2346-0.7555 11.272 2.7733 15.282 3.7054 4.2091 11.794 8.1045 15.348 4.7027 3.5863-3.4329 0.2927-12.024-3.5934-16.131-3.6241-3.83-11.179-7.0483-14.529-3.8532z"/>
<use y="13.7806" x="-7.31929" xlink:href="#piece6"/>
<path id="piece7" d="m1820.8 1339.6c-4.3482 1.7486-4.8759 10.191-3.083 15.222 1.8833 5.282 7.9545 11.896 12.516 10.052 4.6026-1.8607 4.7247-11.061 2.6358-16.315-1.9481-4.8998-7.7742-10.687-12.069-8.9598z"/>
<use y="14.8521" x="-10.5477" xlink:href="#piece7"/>
<path id="piece8" d="m1802.7 1371c-4.5705 1.0369-6.4304 9.2885-5.4581 14.541 1.0218 5.5138 5.9673 13.007 10.763 11.91 4.8395-1.1073 6.4191-10.172 5.1899-15.69-1.1464-5.1468-5.981-11.785-10.496-10.76z"/>
<use y="15.9316" x="-10.1211" xlink:href="#piece8"/>
<path id="piece9" d="m1784.1 1403.3c-4.6836 0.1712-8.0416 7.9347-8.0603 13.276-0.019 5.6077 3.4514 13.888 8.3674 13.699 4.9609-0.1905 8.1942-8.8046 8.0099-14.456-0.1719-5.2701-3.6915-12.69-8.3179-12.52z"/>
<use y="19.16" x="-10.3299" xlink:href="#piece9"/>
<use y="37.02" x="-22.3899" xlink:href="#piece9"/>
<use y="52.31" x="-34.87" xlink:href="#piece9"/>
<use y="66.51" x="-47.79" xlink:href="#piece9"/>
<use y="78.14" x="-61.99" xlink:href="#piece9"/>
<use y="90.62" x="-75.5599" xlink:href="#piece9"/>
<path d="m1692.8 1500.2l-5.2618 20.595s2.9353 7.3347 5.9995 7.026c5.4811-0.552 6.9648-9.0469 8.0099-14.456 0.9476-8.4237-8.7476-13.166-8.7476-13.166z"/>
<path d="m2017.2 1513.2c1.6097 6.1241 15.26 11.314 15.26 11.314l-6.6509-27.758c-5.7168 0.154-9.4945 12.436-8.6089 16.444z"/>
<path d="m2016 1491c-4.3589-1.7217-10.549 4.0428-12.709 8.9283-2.2663 5.1293-2.4091 14.106 2.1699 15.905 4.6206 1.8154 11.038-4.7785 13.136-10.029 1.9564-4.8966 1.7085-13.105-2.5973-14.806z"/>
<path id="piece10" d="m2000.8 1478.7c-4.6803-0.2433-8.7113 7.193-9.202 12.512-0.5142 5.584 2.2105 14.139 7.124 14.385 4.9583 0.2487 8.9402-8.046 9.2562-13.691 0.2944-5.2647-2.5557-12.966-7.1789-13.206z"/>
<use y="-13.7001" x="-13.4001" xlink:href="#piece10"/>
<use y="-29.23" x="-25.88" xlink:href="#piece10"/>
<use y="-42.32" x="-38.66" xlink:href="#piece10"/>
<use y="-60.28" x="-49.01" xlink:href="#piece10"/>
<use y="-76.41" x="-60.2801" xlink:href="#piece10"/>
<use y="-93.46" x="-70.63" xlink:href="#piece10"/>
<use y="-113.25" x="-79.76" xlink:href="#piece10"/>
<use y="-131.21" x="-89.81" xlink:href="#piece10"/>
<use y="-152.52" x="-98.03" xlink:href="#piece10"/>
<path d="m1883.8 1304.6s-1.6473 26.676 8.0374 28.389c6.0386 1.0678 10.778-14.909 10.778-14.909z"/>
<path id="piece11" d="m1862 1610.8c-2.8778 3.699 0.9139 11.26 4.9952 14.706 4.2852 3.6171 12.86 6.2779 15.874 2.3895 3.0412-3.9239-1.4825-11.936-5.9313-15.426-4.149-3.2541-12.096-5.3239-14.938-1.6701z"/>
<use y="-2.15" x="18.3" xlink:href="#piece11"/>
<use y="-5.81" x="36.81" xlink:href="#piece11"/>
<path id="piece12" d="m1916.2 1603.8c-2.2897 4.0891 2.5943 10.995 7.1468 13.79 4.7797 2.9327 13.657 4.2758 16.052-0.021 2.4176-4.336-3.2579-11.578-8.1802-14.36-4.5906-2.5942-12.758-3.4473-15.02 0.592z"/>
<use y="-3.21989" x="20.0199" xlink:href="#piece12"/>
<path id="piece13" d="m1953.5 1595.4c-1.9026 4.283 3.5981 10.709 8.389 13.071 5.03 2.4789 13.993 2.9969 15.982-1.5028 2.0071-4.5407-4.3126-11.228-9.4707-13.544-4.8105-2.1594-13.022-2.255-14.901 1.9759z"/>
<use y="-5.58998" x="18.94" xlink:href="#piece13"/>
<path id="piece14" d="m1991.3 1583.9c-1.6462 4.3879 4.2246 10.478 9.1467 12.552 5.1677 2.1773 14.146 2.1649 15.865-2.4445 1.7353-4.6513-4.9685-10.953-10.254-12.96-4.9296-1.8714-13.132-1.4816-14.758 2.8528z"/>
<use y="-6.23998" x="19.16" xlink:href="#piece14"/>
<use y="-13.9899" x="37.67" xlink:href="#piece14"/>
<use y="-22.17" x="57.48" xlink:href="#piece14"/>
<use y="-28.6299" x="77.5" xlink:href="#piece14"/>
<use y="-44.34" x="79.87" xlink:href="#piece14"/>
<path d="m2066.7 1534.9s13.55 1.9917 14.789-2.8749c1.6456-6.4625-15.421-12.745-15.421-12.745z"/>
<path id="piece15" d="m1701.6 1575.6c-3.9861 2.4647-3.066 10.873-0.4409 15.525 2.7567 4.8833 9.8673 10.365 14.047 7.7697 4.2177-2.6186 2.7685-11.705-0.186-16.526-2.7555-4.4957-9.4834-9.2042-13.421-6.7695z"/>
<use y="7.75003" x="18.94" xlink:href="#piece15"/>
<use y="10.55" x="37.03" xlink:href="#piece15"/>
<use y="15.5001" x="56.83" xlink:href="#piece15"/>
<use y="18.08" x="74.7" xlink:href="#piece15"/>
<use y="21.74" x="92.35" xlink:href="#piece15"/>
<use y="26.69" x="110.43" xlink:href="#piece15"/>
<use y="29.92" x="128.3" xlink:href="#piece15"/>
<use y="32.72" x="146.6" xlink:href="#piece15"/>
<path d="m1648.2 1517.5c-4.1667-2.1454-10.898 2.9772-13.531 7.6245-2.7637 4.8794-3.7956 13.798 0.5824 16.042 4.4179 2.2645 11.457-3.6607 14.065-8.6773 2.4321-4.6785 2.9991-12.871-1.1168-14.99z"/>
<path d="m1642 1534.4c-4.4151-1.5719-10.405 4.4008-12.396 9.3572-2.0898 5.2037-1.9258 14.18 2.7119 15.822 4.6799 1.6566 10.868-5.1526 12.786-10.472 1.7879-4.9605 1.2598-13.155-3.1015-14.708z"/>
<path d="m1647.7 1549.9c-4.5395-1.1649-9.9626 5.3264-11.496 10.443-1.6092 5.3718-0.6317 14.296 4.1358 15.511 4.8109 1.2252 10.356-6.1173 11.783-11.588 1.3306-5.1022 0.061-13.215-4.4229-14.366z"/>
<path d="m1662.4 1556.3c-4.499-1.3127-10.132 4.9978-11.832 10.062-1.784 5.3163-1.0989 14.268 3.6263 15.638 4.7683 1.3819 10.55-5.7753 12.156-11.197 1.4968-5.056 0.4935-13.206-3.9506-14.503z"/>
<path id="piece16" d="m1671.9 1558.8c-4.5474 1.1337-6.2318 9.4229-5.1483 14.654 1.1385 5.4908 6.242 12.877 11.013 11.679 4.8148-1.2097 6.2017-10.306 4.8557-15.797-1.2554-5.1213-6.2297-11.655-10.722-10.535z"/>
<use y="6.23999" x="16.79" xlink:href="#piece16"/>
<use y="-11.1894" x="8.61071" xlink:href="#piece6"/>
<use y="6.47" x="4.66" xlink:href="#piece6"/>
<use y="26.6794" x="4.91148" xlink:href="#piece6"/>
<use y="47.8699" x="4.66" xlink:href="#piece6"/>
<use y="68.5699" x="5.57" xlink:href="#piece6"/>
<use y="87.7499" x="2.22005" xlink:href="#piece6"/>
<use y="109.06" x="4.66" xlink:href="#piece6"/>
<use y="126.41" x="2.22004" xlink:href="#piece6"/>
<use y="143.46" x="4.66" xlink:href="#piece6"/>
<use y="163.86" x="4.66" xlink:href="#piece6"/>
<use y="183.95" x="3.44006" xlink:href="#piece6"/>
<use y="203.13" x="3.74" xlink:href="#piece6"/>
<use y="223.52" x="4.35006" xlink:href="#piece6"/>
<use y="243.31" x="4.35006" xlink:href="#piece6"/>
<use y="263.1" x="3.74" xlink:href="#piece6"/>
<use y="283.19" x="2.52" xlink:href="#piece6"/>
<use y="305.11" x="2.52" xlink:href="#piece6"/>
<use y="327.94" x="1.92002" xlink:href="#piece6"/>
<use y="349.25" x="1.92002" xlink:href="#piece6"/>
<use y="369.04" x="1.92002" xlink:href="#piece6"/>
<use y="391.27" x="1.31006" xlink:href="#piece6"/>
<path id="piece17" d="m1882.2 1303.2c2.4423 3.7068-1.3196 10.832-5.1636 13.97-4.036 3.2931-11.912 5.4626-14.469 1.5665-2.5804-3.9315 1.8636-11.458 6.0421-14.621 3.8968-2.949 11.178-4.577 13.591-0.9154z"/>
<use y="16.13" x="2.74003" xlink:href="#piece17"/>
<use y="34.1" x="2.43002" xlink:href="#piece17"/>
<use y="52.36" x="2.13" xlink:href="#piece17"/>
<use y="69.11" x="1.82003" xlink:href="#piece17"/>
<use y="87.07" x="2.74002" xlink:href="#piece17"/>
<use y="104.42" x="1.52002" xlink:href="#piece17"/>
<path d="m1883.2 1426.1c2.6959 3.8337-1.4565 11.203-5.6994 14.448-4.4549 3.4059-13.148 5.6497-15.971 1.6202-2.8482-4.0661 2.0571-11.85 6.6693-15.121 4.3012-3.05 12.339-4.7336 15.002-0.9467z"/>
<path id="piece18" d="m1882.1 1443.6c3.3915 3.2345 0.7554 11.272-2.7734 15.282-3.7054 4.209-11.794 8.1044-15.348 4.7026-3.5863-3.4328-0.2928-12.024 3.5933-16.131 3.6241-3.83 11.179-7.0482 14.529-3.8532z"/>
<use y="20.4001" x=".610044" xlink:href="#piece18"/>
<use y="40.4901" x=".920001" xlink:href="#piece18"/>
<use y="62.11" x=".310021" xlink:href="#piece18"/>
<use y="82.2" x=".920001" xlink:href="#piece18"/>
<use y="102.6" x=".310021" xlink:href="#piece18"/>
<use y="122.99" x=".610044" xlink:href="#piece18"/>
<use y="143.69" x=".610045" xlink:href="#piece18"/>
<use y="164.4" x="-.299955" xlink:href="#piece18"/>
<use y="183.27" x=".920001" xlink:href="#piece18"/>
<use y="203.06" x=".92" xlink:href="#piece18"/>
<use y="224.37" x=".310021" xlink:href="#piece18"/>
<use y="245.37" x=".310021" xlink:href="#piece18"/>
</g>
<path d="m1849.6 1848.3c19.902 5.5241 31.759 5.236 48.219 0.4305l-17.436-27.984" fill="#fa0204"/>
<path d="m1888.3 1776.2-31.708-8.1414s0.3666-35.183 20.389-32.115c16.62 2.5464 11.985 40.341 11.319 40.257z" fill="#ce9d09"/>
<circle cy="1723" cx="1872.9" r="12.916" fill="#ce9d09"/>
<path d="m1885.4 1791.9c7.0484 17.864 11.37 33.241 4.7358 53.386m7.5972 3.4126c-10.226-8.2551-36.582-5.8322-47.981-0.3475-4.4526 0-16.445-83.24 25.722-81.183 38.721 1.8892 24.949 81.914 22.259 81.53z" fill="#fa0204"/>
<path d="m1815.2 1866.3c19.292 12.238 37.25 11.14 54.247 0.4305l-40.255-41.977" fill="#fa0204"/>
<circle cy="1738.3" cx="1843.4" r="12.916" fill="#ce9d09"/>
<path d="m1859.3 1780-32.72-0.6458s-4.2451-26.612 16.145-27.769c16.924-0.96 17.252 28.363 16.575 28.415z" fill="#ce9d09"/>
<path d="m1843.6 1860.7c-6.2615-13.91-6.9109-31.026-5.1664-49.511m-9.4716 50.372c-7.6816-13.183-9.1065-30.015-3.0137-51.233m43.404 56.636c-4.9263-6.1908-40.227-8.8289-54.096-0.3918-5.02 0-18.541-93.848 29-91.528 43.656 2.13 28.129 92.354 25.096 91.92z" fill="#fa0204"/>
</g>
</g>
</svg>
