<svg viewBox="0 0 2500 2500" xmlns="http://www.w3.org/2000/svg" xmlns:xlink="http://www.w3.org/1999/xlink">
<path fill="#fff" d="M0 0h2500v2500H0z"/>
<path fill="#ffe000" d="M0 0h1250v2500H0z"/>
<g stroke-linejoin="round" stroke="#000" stroke-width="3.205">
<g stroke-linecap="round" fill="#ce9d09">
<g id="a">
<path d="M1781.1 990.29l16.106 3.84 25.663 4.17 11.76 1.293-2.08 49.916s-2.81 33.17-7.69 48.96c-3.62 11.7-15.78 33.18-15.78 33.18l-7.69 11.73-45.32-39.25s7.72-10.95 10.52-17c3.5-7.59 7.69-23.88 7.69-23.88l4.45-25.9 2.43-32.78zm-56.99 151.48l41.273 36.013s-8.345 7.428-13.353 9.71c-9.824 4.48-20.767 7.518-31.562 7.285-7.728-.167-15.32-2.973-22.35-6.186-15.722-7.184-33.03-14.73-43.168-28.732-3.587-4.954-5.003-11.57-4.89-17.686.13-6.932 6.28-19.83 6.28-19.83s2.392 8.635 5.135 12.02c4.513 5.574 11.118 9.303 17.597 12.376 4.847 2.3 10.144 4.022 15.5 4.336 6.95.408 14.163-.673 20.637-3.237 3.33-1.33 8.9-6.07 8.9-6.07z" fill="#fff"/>
<path d="M1658.6 877.67s3.294 6.6 4.297 10.128c1.715 6.033 2.908 12.326 2.86 18.598-.046 6.287-1.467 12.54-3.146 18.598-2.51 9.08-6.32 17.783-10.3 26.324-2.52 5.416-6.05 10.324-8.58 15.737-4.08 8.73-6.99 17.956-10.58 26.896-2.99 7.47-6.86 14.61-9.15 22.32-3.04 10.24-4.56 20.89-6.01 31.48-1.24 9.11-2.23 18.28-2.29 27.47-.07 10.9.26 21.91 2.29 32.62 2.02 10.61 4.98 21.21 9.73 30.9 3.83 7.82 8.93 15.11 14.88 21.46 4.92 5.26 10.71 9.76 16.88 13.45 5.61 3.36 11.95 5.31 18.03 7.73 8.39 3.34 25.43 9.34 25.43 9.34s-23.52-11.59-31.73-21.35c-6.78-8.07-10.52-18.62-12.87-28.9-2.72-11.9-2.38-24.47-1.14-36.62 1.34-13.07 5.18-25.82 9.16-38.34 4.2-13.22 10.1-25.84 15.45-38.63 3.86-9.22 8.28-18.2 12.02-27.47 4.42-10.94 8.77-21.93 12.31-33.19 2.16-6.86 4.85-13.72 5.43-20.89.63-7.79-.38-15.74-2.17-23.35-2.5-10.66-5.6-21.65-11.83-30.65-3.75-5.42-8.9-10.15-14.77-13.15-5.73-2.93-12.54-5.4-18.86-4.15-2.11.42-5.3 3.68-5.3 3.68z" fill="#fff"/>
<path d="M1711.6 945.59s4.454-17.99 5.208-27.187c.646-7.867.225-15.822-.607-23.672-.92-8.73-1.46-17.79-4.85-25.89-3.51-8.4-9.02-16.13-15.58-22.46-6.46-6.23-14.29-11.3-22.66-14.56-8.8-3.43-18.49-4.28-27.92-4.85-8.08-.49-16.24.19-24.27 1.22-4.64.59-9.32 1.33-13.76 2.84-4.11 1.4-11.73 5.67-11.73 5.67l29.95 48.96s9.37-5.52 14.57-6.88c5.5-1.44 11.33-1.54 17-1.21 5.76.34 11.73.9 17 3.24 6.71 2.99 12.49 7.99 17.55 13.31 6.1 6.42 11.55 13.79 14.96 21.96 3.17 7.59 3.58 16.08 4.72 24.22.25 1.77.46 5.34.46 5.34z" fill="#fff"/>
<path d="M1717 906.68s-5.334-16.56-10.37-23.474c-5.85-8.03-13.365-15.39-22.255-19.828-9.428-4.705-30.994-6.217-30.994-6.217l11.42 21.13-19.96-.48-10.42-17.43-19.23 8.71-9.56-15.64 20.43-9.47-9.41-15.18 20.42-1.94 8.9 14.7s15.87.05 23.59 1.67c5.24 1.1 10.39 2.91 15.12 5.41 4.54 2.39 8.7 5.53 12.45 9.02 4.51 4.2 8.73 8.86 11.88 14.16 3.06 5.15 6.55 16.73 6.55 16.73z"/>
<path d="M1581.6 845.09l31.9 46.592m-17.97-54.736l-15.033 8.79-14.306 10.872 30.91 47.21 13.74-10.586 14.12-8.184zm58.27 198.954l17.883-36.91 19.14 7.614 7.754-19.06-19.026-8.87 9.88-21.315-14.02-6.3-10.58 20.46-19.19-8.03-8.43 19.96 18.61 7.8-17.17 36.62zm143.1-11.1l18.21-.405v21.04l17.532.833-2.983 21.358-16.36-1.03s-2.7 12.576-5.12 18.496c-2.52 6.14-9.67 17.4-9.67 17.4l-19.43-4.856s7.02-11.048 9.71-16.995c2.4-5.32 5.66-16.59 5.66-16.59l-19.94-2.51 3.47-20.19 18.08 1.27z"/>
</g>
<use xlink:href="#a" transform="matrix(-1 0 0 1 3717.8 0)"/>
<path d="M1756.7 735.6l-27.42 29.446 16.88 50.93 9.666 35.795-27.723 25.83 50.73 71.05-17.366 19.82c-1.817 2.33-2.455 5.66-2.144 8.6.286 2.7 1.582 5.47 3.577 7.3 4.56 4.19 11.328 5.14 17.31 6.73 21.066 5.6 42.93 8.1 64.665 9.73 4.668.35 14.043 0 14.043 0s9.357.35 14.043 0c21.74-1.62 43.6-4.12 64.67-9.72 5.98-1.59 12.75-2.54 17.31-6.72 2-1.83 3.29-4.6 3.58-7.29.31-2.94-.32-6.27-2.14-8.6l-16.3-35.88 51.82-55.52-19.77-17.83-.43-43.25 16.88-50.93-25.41-25.72-22.94-61.26s-4.8-17.08-8.87-24.89c-2.43-4.67-5.83-8.79-9.15-12.87-3.98-4.89-8-9.87-12.87-13.88-4.42-3.63-9.54-6.34-14.59-9.01-5.43-2.87-10.89-5.96-16.84-7.47-6.14-1.56-18.94-1.54-18.94-1.54s-12.79-.03-18.94 1.54c-5.95 1.51-11.41 4.61-16.84 7.47-5.05 2.67-10.17 5.38-14.59 9.01-4.87 4.01-8.89 8.99-12.88 13.88-3.32 4.09-6.72 8.21-9.15 12.88-4.07 7.81-8.87 24.9-8.87 24.9z" fill="#fff"/>
<path d="M1963.3 933.13s-3.177-2.845-4.96-4a64.47 64.47 0 0 0-11.937-6.07c-5.607-2.147-11.553-3.288-17.4-4.653-6.698-1.563-13.415-3.14-20.232-4.046-7.97-1.06-16.03-1.53-24.07-1.61-8.6-.08-25.79 1.22-25.79 1.22s-17.17-1.3-25.79-1.21c-8.04.08-16.1.56-24.07 1.62-6.82.91-13.53 2.48-20.23 4.05-5.84 1.37-11.79 2.51-17.4 4.66a64.482 64.482 0 0 0-11.93 6.07c-1.78 1.16-4.96 4-4.96 4m218.71-42.69s-5.18-5.27-8.6-5.92c-2.21-.42-4.74.22-6.57 1.52-2.37 1.69-3.95 4.56-4.65 7.39-.62 2.53-.35 5.37.61 7.79.82 2.05 2.1 4.34 4.15 5.16 4.8 1.93 15.39-2.02 15.39-2.02zm5.16-3.59c5.8.17 7.92 3.11 9.46 6.48m-243.23-2.88l-.3 13.91s10.59 3.95 15.39 2.03c2.05-.82 3.33-3.11 4.15-5.16.96-2.42 1.23-5.26.61-7.79-.7-2.82-2.28-5.7-4.65-7.38-1.83-1.3-4.36-1.95-6.57-1.51-3.44.68-8.6 5.92-8.6 5.92zm-5.15-3.59c-5.8.17-7.91 3.11-9.45 6.48m198.17 1.35l-8.44-.94m-130.04.95l8.45-.95m75.99.82c-2.86-.42-7.6-4.21-7.6-4.21m-22.78 4.21c2.86-.42 7.6-4.21 7.6-4.21m140.94-19.35s-4.22 3.35-7.29 3.86l-1.21.65s-1.94 5.73-3.66 8.17c-1.72 2.45-6.46 6.25-6.46 6.25s-4.79-4.14-7.74-4.95c-1.94-.53-4.16-.54-6.02.21-1.97.81-3.54 2.54-4.73 4.31-1.4 2.1-2.71 4.59-2.59 7.1.14 3.02 3.88 8.19 3.88 8.19l-2.58 4.51-3.66 2.38c-6.31-1.91-12.63-3.93-18.95-7.54-1.73-1.88-3.36-4.3-4.52-9.03 0 0 4.54-2.69 5.6-4.95 1.18-2.54 1.67-6 .21-8.4-1.61-2.66-5.27-4.04-8.38-4.09-2.28-.04-4.69 1.14-6.25 2.8-1.68 1.79-2.97 4.47-2.57 6.89.4 2.47 4.74 5.81 4.74 5.81s-1.8 4.56-3.84 5.43c-6.01 2.57-9.98 4.04-15.24 4.85-5.21.81-11.07 1.47-16.3-.02-3.37-.96-6.84-2.73-8.96-5.53-.63-.83-.86-3.01-.86-3.01s6.47-1.68 9.05-3.66c2.56-1.97 5.28-4.57 5.81-7.75.53-3.2-1.17-6.59-3.01-9.25-1.83-2.65-4.58-4.74-7.53-6.03-1.33-.58-4.3-.64-4.3-.64s-.63.57-.94.86c-1.24 1.6-2.95 2.86-4.76 3.81l-.11.07c-.04.03-.13.05-.17.07-.38.19-.75.41-1.13.57-.2.09-.51.1-.74.16-1.27.43-2.47.78-2.47.78s3.86 1.2 4.95 2.74c.67.95.96 2.11 1.09 3.31.15.72.24 1.44.21 2.13-.05 1.11-.32 2.24-.7 3.33-.35 1.28-.84 2.51-1.67 3.5-.45.54-1.01.99-1.6 1.39-.03.02-.05.06-.08.08-.03.03-.09.04-.12.06a12.408 12.408 0 0 1-3.38 1.5c-1.37.39-4.19.08-4.29.07.11 0 5.51-.01 7.67-1.56.07-.04.13-.09.2-.13 1.51-1.2 2.6-2.97 3.27-4.88.21-.76.42-1.54.49-2.31a16.18 16.18 0 0 0 .01-3.14c-.33-1.58-1.06-3.12-2.22-4.15-2.42-2.14-9.33-2.41-9.42-2.41-.11.01-6.99.27-9.4 2.41-1.16 1.03-1.89 2.57-2.22 4.15a16.11 16.11 0 0 0 .01 3.15c.07.77.27 1.55.48 2.31.66 1.91 1.75 3.68 3.26 4.88.07.04.13.09.2.14 2.15 1.56 7.56 1.57 7.66 1.57-.1.01-2.92.31-4.29-.07a12.405 12.405 0 0 1-3.38-1.49c-.03-.02-.08-.03-.12-.06-.03-.02-.05-.05-.08-.07-.59-.4-1.14-.85-1.59-1.39-.83-.99-1.32-2.22-1.67-3.49-.38-1.1-.65-2.22-.7-3.33-.03-.7.06-1.42.21-2.13.12-1.2.42-2.36 1.09-3.31 1.08-1.54 4.94-2.74 4.94-2.74s-1.2-.35-2.47-.78c-.23-.06-.54-.07-.73-.15-.39-.15-.77-.38-1.16-.57-.04-.02-.12-.04-.16-.06a.916.916 0 0 1-.09-.06c-1.82-.94-3.54-2.21-4.79-3.82-.3-.28-.93-.85-.93-.85s-2.97.06-4.3.64c-2.94 1.29-5.71 3.38-7.54 6.03-1.84 2.67-3.54 6.06-3.01 9.26.53 3.18 3.26 5.78 5.82 7.75 2.58 1.98 9.04 3.66 9.04 3.66s-.23 2.18-.86 3.01c-2.12 2.8-5.59 4.57-8.96 5.53-5.22 1.49-11.09.83-16.3.02-5.26-.81-9.23-2.28-15.24-4.85-2.04-.87-3.84-5.43-3.84-5.43s4.33-3.35 4.74-5.81c.4-2.42-.9-5.1-2.58-6.89-1.56-1.66-3.96-2.84-6.24-2.8-3.11.05-6.78 1.43-8.4 4.09-1.45 2.39-.96 5.86.22 8.4 1.05 2.26 5.6 4.95 5.6 4.95-1.17 4.73-2.79 7.15-4.52 9.03-6.32 3.61-12.63 5.63-18.95 7.54l-3.65-2.37-2.59-4.51s3.74-5.17 3.88-8.19c.12-2.52-1.19-5.01-2.59-7.1-1.19-1.77-2.76-3.5-4.74-4.31-1.86-.76-4.09-.74-6.03-.21-2.95.81-7.74 4.95-7.74 4.95s-4.74-3.8-6.46-6.25c-1.72-2.45-3.65-8.17-3.65-8.17l-1.21-.64c-3.07-.5-7.3-3.85-7.3-3.85l-4.45.94s-4.1 2.19-4.15 4.15c-.06 2.7 3.73 3.92 5.44 6a75.73 75.73 0 0 1 4.14 5.58c1.23 1.81 2.85 3.48 3.44 5.58.65 2.29-.97 4.97 0 7.15 1.23 2.74 3.77 5.41 6.72 6.01 2.61.53 7.59-2.58 7.59-2.58l-.15 19.88 10.31 9.31 9.72 20.31-3.85 5.15 1.14 10c7.48-9.58 20.5-13.79 32.19-17.14 15.73-4.52 44.57-4.84 58.01-4.72 4.48.04 7.26.14 7.26.14s44.3-1.44 65.26 4.58c11.68 3.36 24.7 7.565 32.19 17.15l1.14-10-3.86-5.146 9.73-20.31 10.3-9.307-.15-19.88s4.97 3.11 7.58 2.58c2.95-.6 5.49-3.27 6.72-6.02.977-2.17-.65-4.85 0-7.15.598-2.1 2.21-3.76 3.44-5.57a75.9 75.9 0 0 1 4.15-5.58c1.718-2.086 5.5-3.305 5.43-6.005-.05-1.96-4.15-4.15-4.15-4.15l-4.44-.94zm-148.33-2.6c1.05.99 3.1 2.85 4.79 3.82l.25.12c.51.27 1.2.5 1.89.73 2.91.79 7.93.27 8.05.25h.03c.11.02 5.13.54 8.05-.25.68-.23 1.37-.46 1.88-.72.1-.04.19-.08.29-.13 1.69-.97 3.72-2.83 4.77-3.81a9.93 9.93 0 0 0 1.3-2.15c1.16-2.66 1.1-6.11-.21-8.7-1.53-3.05-5.17-4.5-8.08-6.28-2.51-1.53-7.92-3.72-8-3.76-.1.04-5.48 2.23-7.98 3.76-2.91 1.78-6.56 3.23-8.1 6.28-1.31 2.59-1.36 6.04-.2 8.7a10.03 10.03 0 0 0 1.3 2.16z"/>
<path d="M1980.8 829.79s-10.886-5.06-16.59-6.88c-10.413-3.318-21.235-5.215-31.967-7.283-12.467-2.402-25.26-3.05-37.622-5.943-3.89-.91-7.53-2.77-11.44-3.576-5.4-1.114-11.06-2.874-16.45-1.717-2.97.64-7.82 4.58-7.82 4.58s-4.86-3.94-7.82-4.58c-5.39-1.16-11.05.61-16.45 1.72-3.91.81-7.55 2.67-11.44 3.58-12.36 2.89-25.15 3.54-37.62 5.95-10.73 2.07-21.55 3.97-31.96 7.29-5.7 1.82-16.59 6.88-16.59 6.88m197.46-45.12s5.35-2.82 7.29-5.06c1.28-1.48 2.51-3.29 2.64-5.25.16-2.28-.62-4.85-2.22-6.47-1.56-1.58-4.06-2.22-6.28-2.23-1.85 0-3.84.62-5.25 1.82-1.63 1.39-2.78 3.54-3.03 5.67-.22 1.82.51 3.7 1.37 5.31 1.3 2.45 5.51 6.22 5.51 6.22zm-151.12 0s4.21-3.77 5.51-6.22c.86-1.61 1.59-3.49 1.37-5.31-.25-2.12-1.41-4.27-3.04-5.66-1.41-1.2-3.39-1.82-5.25-1.81-2.22.01-4.71.65-6.27 2.23-1.6 1.63-2.37 4.2-2.22 6.48.13 1.96 1.35 3.77 2.63 5.26 1.94 2.24 7.29 5.06 7.29 5.06zm-41.07 18.01l-11.93 15.58s-.08 4.11.82 5.87c1.23 2.43 5.86 5.67 5.86 5.67l.85 21.39-11.31 19.6-.98.21 7.3 3.86c.35.06.68.11.99.09 4.38-.34 7.07-5.26 10.88-7.44 4.85-2.78 10.01-4.99 15.17-7.15 7.12-2.98 14.36-5.73 21.74-8.02 9.3-2.88 18.69-5.76 28.33-7.15a141.785 141.785 0 0 1 22.1-1.44c2.46.04 4.92.13 7.37.3 6.57.45 19.37 3.41 19.47 3.43.09-.02 12.91-2.98 19.48-3.43 9.81-.66 19.74-.25 29.47 1.16 9.64 1.39 19.03 4.27 28.33 7.15 7.38 2.29 14.62 5.03 21.74 8.02 5.16 2.16 10.32 4.37 15.17 7.15 3.81 2.18 6.5 7.1 10.88 7.44.31.03.65-.03 1-.09l7.29-3.86-.98-.2-11.31-19.6.85-21.38s4.64-3.24 5.87-5.66c.89-1.76.8-5.87.8-5.87l-11.94-15.58s-6.01 6.01-9.91 7.28c-2.05.68-4.42.64-6.48 0-2.5-.77-4.43-2.81-6.47-4.45-4.61-3.71-9.22-7.54-12.95-12.14-2.13-2.64-5.26-8.7-5.26-8.7s-12.91 10.14-20.64 12.14c-7.58 1.95-15.96 1.6-23.47-.61-1.88-.56-5.03-3.07-5.03-3.07-8.82-5.62-17.65-8.69-26.42-7.85-8.77-.84-17.6 2.23-26.43 7.85 0 0-3.16 2.51-5.04 3.07-7.51 2.22-15.89 2.57-23.47.61-7.73-2-20.64-12.14-20.64-12.14s-3.13 6.07-5.26 8.7c-3.72 4.6-8.34 8.43-12.95 12.14-2.04 1.64-3.97 3.68-6.47 4.46-2.06.64-4.42.67-6.47 0-3.9-1.28-9.91-7.28-9.91-7.28z"/>
<path d="M1985.9 796.36s.448-5.703-.162-8.455c-.558-2.52-1.694-4.94-3.136-7.08-1.513-2.248-5.647-5.843-5.647-5.843m-1.434 27.69s3.4.123 4.86-.605c2.61-1.3 6.08-6.27 6.08-6.27s6.66 4.608 10.31 4.043c1.8-.278 3.3-1.885 4.25-3.437 1.01-1.646 1.65-3.782 1.22-5.664-.34-1.5-1.65-2.65-2.83-3.65-2.28-1.93-6.39-1.66-7.89-4.25-1.18-2.05-.45-4.81.2-7.08 1.36-4.74 4.75-8.65 7.49-12.75 1.74-2.6 5.3-4.39 5.67-7.49.2-1.68-2.02-4.66-2.02-4.66s-5.22-.12-7.68.61c-4.08 1.21-8.3 2.99-11.2 6.11-2.4 2.59-3.12 6.37-4.38 9.67-.96 2.51-2.42 7.68-2.42 7.68s-6.04-.01-8.7 1.21c-3.51 1.62-7.11 4.16-8.7 7.69-1.24 2.77-1.07 6.27 0 9.11 1.08 2.86 3.5 5.23 6.08 6.87 2.85 1.81 9.71 2.83 9.71 2.83zm-234.71-27.69s-4.13 3.595-5.64 5.842c-1.44 2.14-2.57 4.56-3.13 7.08-.61 2.753-.16 8.456-.16 8.456m-16.93-45.485s-2.22 2.98-2.02 4.658c.37 3.107 3.93 4.89 5.67 7.49 2.74 4.096 6.13 8.01 7.49 12.744.65 2.27 1.38 5.036.2 7.08-1.5 2.587-5.61 2.32-7.89 4.248-1.18.993-2.49 2.144-2.83 3.643-.43 1.883.21 4.018 1.22 5.664.96 1.553 2.45 3.16 4.25 3.438 3.65.564 10.31-4.043 10.31-4.043s3.47 4.97 6.08 6.27c1.46.728 4.86.605 4.86.605s6.87-1.025 9.72-2.832c2.59-1.64 4.99-4.015 6.07-6.875 1.08-2.84 1.25-6.345 0-9.112-1.59-3.528-5.18-6.068-8.7-7.685-2.66-1.224-8.7-1.21-8.7-1.21s-1.46-5.177-2.42-7.687c-1.26-3.3-1.98-7.07-4.38-9.66-2.89-3.12-7.12-4.9-11.2-6.11-2.47-.73-7.69-.61-7.69-.61zm135.63 14.317l8.33-2.438 8.33 2.438m-14.49 20.082s-6.48-5.91-7.69-9.914c-.52-1.748-.45-3.85.41-5.463 1.17-2.205 5.87-4.653 5.87-4.653s-7.08-3.443-8.9-6.677c-1.03-1.83-1.15-4.245-.6-6.272.88-3.215 3.3-5.97 5.87-8.092 3.19-2.634 11.23-5.26 11.23-5.26s8.03 2.62 11.23 5.26c2.57 2.12 5 4.877 5.87 8.092.55 2.027.43 4.44-.6 6.272-1.82 3.234-8.9 6.677-8.9 6.677s4.7 2.448 5.87 4.653c.85 1.614.93 3.715.4 5.463-1.2 4.004-7.69 9.914-7.69 9.914l-6.16.405zm22.67-26.888s13.44 5.727 17.99 11.106c1.27 1.5 2.35 3.5 2.23 5.463-.44 6.962-10.31 18.21-10.31 18.21l-19.93-8.284h-12.94l-19.93 8.29s-9.87-11.24-10.32-18.21c-.12-1.96.96-3.96 2.23-5.46 4.56-5.38 17.99-11.1 17.99-11.1"/>
<path d="M1844.4 669.25l8.056-6.2 6.507.14-6.656-.144s-3.59-2.447-4.578-4.292c-.96-1.79-1.42-4.02-1.01-6.008.55-2.655 2.08-5.46 4.42-6.825 2.23-1.3 7.75-.47 7.75-.47s5.5-.84 7.75.47c2.34 1.37 3.87 4.17 4.43 6.83.41 1.99-.05 4.22-1 6.01-.99 1.85-4.58 4.29-4.58 4.29l-6.66.15 6.5-.14 8.05 6.2m52.58 5.07l-2.68 4.66m32.63-20l-7.52.98m8.51 8.81l-11.52.61m-1.5-13.75c1.47.94 4.15 2.86 4.59 4.64.78 3.13-.67 7.07-3.14 9.15-2.39 2.02-9.25 1.5-9.25 1.5m-181.69 33.59s11.3-2.82 16.96-4.17c8.08-1.94 16.1-4.2 24.28-5.66 9.26-1.66 18.62-2.88 28.01-3.55 11.71-.83 35.21-.57 35.21-.57s23.49-.26 35.21.57c9.39.67 18.74 1.89 28.01 3.56 8.18 1.47 16.2 3.73 24.28 5.66 5.66 1.36 16.95 4.18 16.95 4.18m-171.55-30.17l2.68 4.65m-32.62-20.01l7.51.98m-8.52 8.8l11.52.61m-6.48 16.08s12.54-3.19 18.87-4.51c6.93-1.44 13.88-2.82 20.89-3.72 8.06-1.04 16.2-1.56 24.32-1.93 9.63-.44 28.92-.37 28.92-.37s19.27-.07 28.91.37c8.13.37 16.26.89 24.33 1.93 7.01.9 13.96 2.28 20.89 3.72 6.33 1.32 18.87 4.5 18.87 4.5m-170.24-14.54s-6.87.52-9.26-1.5c-2.46-2.08-3.91-6.02-3.14-9.15.61-2.46 5.55-5.21 5.55-5.21m63.14 74c-11.98.73-24.01 1.48-35.81 3.64-12.29 2.26-24.49 5.4-36.22 9.72-11.11 4.08-22.87 22.64-32.1 15.22-1.98-1.6.75-5.09 1.72-7.44 1.86-4.56 4.43-8.93 7.72-12.59 2.41-2.68 7.97-3.03 8.58-6.58.44-2.58-3.47-4.1-4.29-6.58-1.04-3.18-1.54-6.82-.57-10.02 1.24-4.11 6.52-6.18 7.72-10.3 1.04-3.58-2.55-7.84-.86-11.16 2.13-4.2 11.34-2.78 12.02-7.44.33-2.27-3.83-2.98-4.58-5.15-.53-1.54.31-3.24.28-4.87-.03-2.2.39-4.6-.58-6.58-.86-1.76-3.7-2.14-4.29-4.01-.56-1.76-.17-4.13 1.14-5.43 1.04-1.03 3.63.44 4.29-.86 1.33-2.62-2.54-5.31-3.72-8.01-1.4-3.21-3.2-6.31-4-9.73-.63-2.7-2.96-6.88-.57-8.29 2.73-1.62 5.48 3.24 8.01 5.15 3.35 2.52 7.11 4.82 9.44 8.3 1.69 2.52.75 6.51 2.95 8.58 2.65 2.48 7.76.49 10.5 2.87 2.36 2.05 4.44 5.55 3.72 8.59-.69 2.9-7.53 2.82-6.86 5.72.79 3.45 6.81 3.18 10.3 2.58 2.03-.35 3.46-2.25 5.15-3.43 1.31-.92 2.39-2.23 3.86-2.86 1.69-.72 5.43-.93 5.43-.93l-2.14-.5s-3.18-2.52-3.51-4.36c-.32-1.73.43-3.73 1.64-5.01 1.36-1.43 3.54-2.16 5.51-2.14 1.65.01 3.45.66 4.58 1.86 1.16 1.23 1.82 3.11 1.64 4.79-.16 1.47-1.13 2.88-2.29 3.79-1.26.99-4.58 1.43-4.58 1.43l2.29.65 6.15 8.44 26.54-1.45s3.27-3.34 2.63-5.16c-.69-1.95-2.5-2.67-5.66-2.53-8.58.38-10.34-6.83-10.01-12.04.27-4.34 5.49-7.28 9.51-8.9 3.88-1.57 10.79 3.59 12.55-.2 1.54-3.33-5.82-5.02-6.98-8.5-.51-1.5-.51-3.33.2-4.75 1.81-3.62 5.71-6.03 9.41-7.69 1.55-.7 5.05-.81 5.05-.81s3.48.11 5.05.81c3.69 1.66 7.59 4.07 9.41 7.69.71 1.42.7 3.25.2 4.75-1.16 3.48-8.52 5.17-6.98 8.5 1.75 3.8 8.66-1.36 12.54.2 4.02 1.63 9.24 4.57 9.51 8.9.32 5.21-1.44 12.42-10.02 12.04-3.16-.14-4.97.58-5.66 2.53-.65 1.82 2.63 5.16 2.63 5.16l26.54 1.46 6.15-8.44 2.29-.64s-3.32-.44-4.58-1.43c-1.16-.91-2.13-2.32-2.29-3.79-.18-1.68.48-3.57 1.64-4.79 1.13-1.2 2.93-1.85 4.58-1.86 1.97-.02 4.15.71 5.51 2.14 1.21 1.28 1.96 3.28 1.64 5.01-.34 1.83-3.51 4.36-3.51 4.36l-2.145.5s3.74.21 5.43.93c1.48.63 2.55 1.94 3.87 2.86 1.69 1.19 3.12 3.08 5.15 3.44 3.49.6 9.51.87 10.3-2.58.66-2.91-6.18-2.83-6.87-5.72-.72-3.03 1.36-6.54 3.72-8.58 2.74-2.38 7.85-.39 10.5-2.87 2.205-2.07 1.265-6.07 2.95-8.58 2.34-3.48 6.1-5.78 9.45-8.3 2.54-1.91 5.28-6.76 8.01-5.15 2.39 1.41.06 5.6-.57 8.3-.8 3.42-2.6 6.52-4 9.73-1.18 2.7-5.05 5.38-3.72 8.01.66 1.3 3.253-.17 4.29.86 1.32 1.3 1.7 3.67 1.144 5.43-.59 1.87-3.43 2.25-4.29 4.01-.96 1.98-.54 4.38-.57 6.58-.02 1.63.82 3.33.28 4.87-.75 2.17-4.91 2.88-4.58 5.15.68 4.67 9.88 3.24 12.02 7.44 1.69 3.33-1.9 7.58-.86 11.16 1.2 4.12 6.48 6.19 7.72 10.3.97 3.2.47 6.84-.57 10.02-.82 2.49-4.74 4-4.29 6.58.6 3.56 6.17 3.91 8.58 6.58 3.3 3.66 5.86 8.04 7.73 12.59.96 2.36 3.7 5.85 1.71 7.44-9.23 7.42-20.983-11.13-32.1-15.22-11.73-4.31-23.93-7.45-36.22-9.71-11.8-2.16-23.833-2.91-35.81-3.64-6.97-.42-20.94-.4-20.94-.4s-13.95-.02-20.94.4zm31.13-133.64l-10.18.12-10.19-.12m16.93-33.88c2.64-5.6-1.98-9.75-6.75-13.85-4.77 4.11-9.39 8.25-6.75 13.86m14.06 46.73c3.89.29 8.63 4.27 11.59 1.72 1.33-1.15.67-3.66 0-5.29-1.58-3.8-8.42-4.62-8.73-8.72-.27-3.53 5.19-5.21 6.29-8.58.55-1.67.68-3.66 0-5.29-2.75-6.57-14.49-6.95-16.53-13.68-.9-2.98 5.93-6.49 6.8-6.87 4.34-1.87 9.7 2.66 13.99.8 2.9-1.25 6.13-4.12 6.07-7.28-.06-3.44-3.72-6.31-6.88-7.69-6.11-2.65-16.22 5.91-19.98.41-3.46-5.06 8.64-11.08 7.03-17-.77-2.81-6.98-5.26-6.98-5.26s-6.2 2.44-6.98 5.26c-1.62 5.91 10.49 11.94 7.03 17-3.76 5.5-13.87-3.06-19.98-.4-3.15 1.37-6.81 4.25-6.88 7.69-.05 3.16 3.18 6.02 6.07 7.28 4.29 1.86 9.65-2.68 13.99-.8.87.38 7.7 3.89 6.8 6.87-2.03 6.73-13.77 7.1-16.52 13.68-.68 1.63-.55 3.62 0 5.29 1.11 3.37 6.57 5.05 6.3 8.59-.31 4.1-7.15 4.93-8.72 8.73-.68 1.63-1.34 4.14 0 5.3 2.96 2.55 7.69-1.43 11.59-1.72 2.43-.18 7.32 0 7.32 0s4.86-.18 7.31 0z"/>
<path d="M1953.7 953.5s-7.154-3.02-10.804-4.34c-6.598-2.388-13.26-4.632-20.03-6.474-6.6-1.796-13.233-3.69-20.03-4.452-14.576-1.634-44.002-.202-44.002-.202s-29.408-1.433-44.002.203c-6.797.76-13.43 2.655-20.03 4.45-6.77 1.843-13.432 4.087-20.03 6.475-3.65 1.32-10.804 4.34-10.804 4.34m201.9-222.5s-11.952-4.756-18.026-6.867c-5.1-1.773-10.206-3.582-15.45-4.864-6.398-1.57-12.933-2.54-19.457-3.44a376.568 376.568 0 0 0-28.307-2.79c-8.584-.53-25.793-.61-25.793-.61s-17.192.08-25.793.6a376.464 376.464 0 0 0-28.307 2.78c-6.524.89-13.06 1.87-19.456 3.43-5.25 1.28-10.35 3.09-15.46 4.86-6.08 2.11-18.03 6.87-18.03 6.87m-14.16 120.41s17.56-5.92 26.4-8.67c9.13-2.85 18.17-6.07 27.51-8.1 11.18-2.43 22.61-3.63 33.99-4.86 11.05-1.19 33.28-2.43 33.28-2.43s22.2 1.23 33.27 2.43c11.38 1.22 22.81 2.42 33.99 4.85 9.34 2.03 18.39 5.25 27.52 8.09 8.85 2.75 26.41 8.67 26.41 8.67" fill="none"/>
</g>
<g fill="#ccc">
<g id="b">
<path d="M1533.3 904.04l101.17 86.713s-5.133 11.214-7.28 16.99c-1.978 5.326-3.816 10.726-5.145 16.25-1.958 8.146-4.135 24.79-4.135 24.79l-117.94-108.04c1.673-24.69 15.566-33.488 33.33-36.708zM1519 958.2l-24.283 27.167 15.165 14.592-23.462 22.89-15.165-15.17-25.514 27.2-.23 33.74 58.09 45.49 20.03-14.88-1.14-32.34 15.45 8.58 15.45-9.44.86 29.18-12.59-9.16-13.73 18.02-1.43 32.04 43.78 38.91 53.05-47.08-4.01-14.11-2.3-12.68-1.24-25.13 1.98-27.44z"/>
<path d="M1494.7 985.36l-.62 29.993 15.642-15.26z"/>
<path d="M1571.9 1140.4l-1.82 34.262m-18.61-139.68l.644 31.784m-14.81-17.34l.83 25.885m-14.426-36.34l.54 28.93m-21.434 15.23l.312 30.65m24.737-9.67l44.064 36.9 45.055-39.54m-171.02-66.87l57.58 49.2 18.883-16.88-14.878-12.59 16.595-15.74 12.876 11.16 14.592-14.88 18.884 18.32-17.15 13.45 16.005 14.6-15.17 14.02" fill="none"/>
<path d="M1901.4 1229.4l48.602 44.58 10.763 31.428-62.642-6.673-35.664-35.276-37.97-35.18-164.04-142.14s3.47-13.1 5.63-19.52c3.12-9.3 6.86-18.39 10.56-27.47.92-2.28 2.91-6.79 2.91-6.79l183.01 162.24z"/>
<path d="M1942.7 1236c27.094 37.868 72.69 73.638 86.536 90.842 13.845 17.203 22.765 33.54 2.583 55.538-20.19 21.998-43.07 9.515-61.14-2.583s-49.61-51.303-94.72-81.37z"/>
<path d="M1926.7 1299.8l-35.17-15.874m40.93-38.288c2.422 7.965.573 16.774 3.623 24.416 3.015 7.555 14.022 19.974 14.022 19.974s-6.998.977-10.262 2.245c-4.73 1.837-11.956 2.71-13.172 7.637-1.06 4.31 4.07 8.026 7.09 11.27 2.91 3.113 6.65 5.373 10.32 7.527 6.14 3.6 12.39 7.654 19.4 8.916 8.77 1.58 25.13-10.756 26.65-1.98.63 3.65-7.39 1.314-10.71 2.947-7.76 3.813-11.65 12.117-4.82 17.894 4.39 3.71 11.28 2.347 17 2.82 5.49.456 11.76-2.744 16.52.017 5.61 3.26 12.67 11.11 9.69 16.87-3.06 5.93-14.48 5.77-19.92 1.91-4.02-2.85-2.95-9.47-3.54-14.37-.17-1.46 0-2.94 0-4.4"/>
<circle cy="1480.1" cx="2154.7" r="129.69"/>
<path d="M2106.1 1485.6c-22.355 0-40.478 18.123-40.478 40.478 0 22.356 18.123 40.478 40.478 40.478s40.478-18.123 40.478-40.478l14.026-.61c0 22.356 18.123 40.48 40.478 40.48s40.478-18.124 40.478-40.48-18.123-40.477-40.478-40.477l.61-7.93c22.355 0 40.477-18.12 40.477-40.48s-18.13-40.48-40.48-40.48c-22.36 0-40.48 18.13-40.48 40.48l-14.03-1.22c0-22.35-18.13-40.48-40.48-40.48-22.36 0-40.48 18.13-40.48 40.48s18.12 40.48 40.48 40.48z" fill="#fff"/>
<circle cy="1446.1" cx="2154.7" r="14.613"/>
<circle cy="1480.1" cx="2189.4" r="14.613"/>
<circle cy="1511.2" cx="2155.3" r="14.613"/>
<circle cy="1480.1" cx="2119.3" r="14.613"/>
<path d="M2152.2 1558.4c-5.338 10.957-12.62 15.94-21.92 21.92 13.248 5.753 29.4 4.696 43.84 0-9.3-4.65-16.042-11.997-21.92-21.92zm-76.58-80.232c-10.956-5.338-15.94-12.62-21.918-21.92-5.754 13.248-4.697 29.4 0 43.84 4.65-9.3 11.996-16.042 21.92-21.92zm159.25 3.653c10.958-5.33 15.942-12.62 21.92-21.91 5.754 13.25 4.697 29.4 0 43.84-4.65-9.3-11.996-16.04-21.92-21.92zm-78.404-80.84c-5.338-10.95-12.62-15.94-21.92-21.92 13.248-5.75 29.4-4.69 43.84 0-9.3 4.65-16.042 12-21.92 21.92z" fill="#fff"/>
</g>
<g fill="#ce9d09">
<g id="c">
<path d="M1533.5 903.82s.703-5.06 0-7.44c-1.144-3.868-3.574-7.467-6.58-10.157-2.544-2.275-5.808-3.924-9.157-4.578-3.615-.706-7.464-.115-11.016.858-2.42.663-6.753 3.323-6.753 3.323l-14.85 6.12-5.51 17.666s-3.174 5.58-3.93 8.656c-.812 3.293-1.41 6.87-.574 10.157.983 3.86 3.232 7.612 6.295 10.157 2.833 2.355 6.627 3.73 10.3 4.006 2.827.213 8.298-1.86 8.298-1.86 1.58-18.61 9.856-32.813 33.477-36.91z"/>
<path d="M1500.3 885.64l-38.753-17.02-3.147 3.004 21.12 38.202s5.923-8.738 9.352-12.736c3.51-4.093 11.428-11.45 11.428-11.45z"/>
<circle cy="865.26" cx="1457.3" r="15.951"/>
<path d="M1566.2 932.26c3.39 27.952 7.322 55.904 16.025 83.856l31.07 28.46c-6.626-29.233-18.443-58.464-18.37-87.696z"/>
<path d="M1613 972.42l-85.488-6.37 27.2 24.917 78.07 3.38 1.146-3.99zm105.4 94.48c-22.445 8.46-31.418 22.31-37.857 37.17-6.353.56-12.306.62-14.41-4.133 5.348-34.7 30.21-45.55 35.753-47.747 14.95-2.824 12.18 8.85 16.514 14.71zm27.5 25.9c-22.445 8.46-31.418 22.31-37.857 37.17-6.353.56-12.306.62-14.41-4.133 5.348-34.7 30.21-45.55 35.753-47.747 14.95-2.824 12.18 8.85 16.514 14.71zm312.8 261.9c-7.337-.202-15.078 1.504-15.078 1.504.303 8.02-2.946 16.583-11.797 26.23-7.64 8.327-15.666 11.703-23.672 12.04l-.01.01s-2.84 17.653 2.588 23.253c6.36 6.558 27.12 3.877 27.12 3.877l1.77-1.133a129.69 129.69 0 0 1 31.92-39.79l.34-1.26s3.04-16.52-2.15-21.5c-2.35-2.27-6.61-3.07-11.01 0z"/>
<circle cy="1375.4" cx="2254.5" r="17.657"/>
<circle cy="1580" cx="2260.6" r="17.657"/>
<circle cy="1591.6" cx="2062.1" r="17.657"/>
</g>
</g>
</g>
<g transform="matrix(-1 0 0 1 3718.3 0)" fill="#ce9d09">
<use xlink:href="#b"/>
<use xlink:href="#c" fill="#ccc"/>
</g>
<g fill="#fa0204">
<path id="d" d="M1869.2 1175.8c0 5.38-4.5 7.458-13.243 7.458s-12.786-2.534-12.786-7.915c0-5.38 4.05-6.697 12.79-6.697s13.25 1.774 13.25 7.154z"/>
<use y="14.309" x="6.391" xlink:href="#d"/>
<path d="M1877.3 1208.7c-1.772 5.08-6.705 5.56-14.96 2.68-8.255-2.88-11.238-6.604-9.466-11.684 1.772-5.08 6.024-4.992 14.278-2.113 8.255 2.88 11.92 6.037 10.148 11.116z"/>
<path id="e" d="M1877.5 1222.5c-1.065 5.274-5.887 6.42-14.457 4.69s-12.03-5.016-10.966-10.29c1.065-5.274 5.29-5.765 13.86-4.034 8.57 1.73 12.63 4.36 11.563 9.634z"/>
<use y="16.142" x="3.96" xlink:href="#e"/>
<path d="M1921.7 1216.2c-2.59-.69-2.303-5.303-1.583-7.886 1.107-3.968 8.354-9.11 8.354-9.11s1.77 5.563.95 8.185c-1.16 3.72-3.94 9.81-7.72 8.81z"/>
<path d="M1912.3 1224.4c-2.822-.622-3.182-5.523-2.444-8.316 1.142-4.324 9.645-9.325 9.645-9.325s1.48 6.04.52 8.83c-1.26 3.69-3.9 9.65-7.72 8.81zm-10.8 15.6c-4.292-1.138-3.805-8.762-2.66-13.052.947-3.543 3.716-9.12 7.278-8.25 4.167 1.02 4.115 8.322 3.103 12.49-.92 3.796-3.94 9.813-7.72 8.812z"/>
<path d="M1888.7 1252.2c-4.214-.926-6.007-7.638-5.164-11.87.885-4.442 5.36-10.41 9.782-9.43 4.463.987 6.005 8.352 4.93 12.794-1.004 4.143-5.385 9.42-9.548 8.506zm-2.2 7.4c-1.077 5.087-7.504 6.86-11.46 5.57-4.155-1.356-9.58-7.187-8.443-12.525 1.148-5.386 8.18-6.814 12.324-5.226 3.87 1.48 8.65 7.15 7.58 12.18zm-85-49.3s5.138 2.53 7.35 4.792c2.32 2.373 5.11 3.322 3.708 6.923-1.415 3.634-5.843 2.388-8.127-.156-2.13-2.38-2.93-11.56-2.93-11.56zm25.3 8.8c5.212 1.047 5.108 7.12 2.443 10.846-2.797 3.91-10.883 8.992-16.348 7.887-5.516-1.115-4.844-7.757-1.796-11.658 2.84-3.638 10.55-8.11 15.7-7.076z"/>
<path id="f" d="M1844.3 1230.6c4.853 2.17 3.415 8.07 0 11.118-3.59 3.2-12.597 6.375-17.685 4.093-5.135-2.3-3.017-8.63.816-11.76 3.58-2.92 12.08-5.58 16.88-3.44z"/>
<use y="10.661" x="13.998" xlink:href="#f"/>
<path d="M1863 1250.7c4.787.754 6.07 7.415 4.585 11.696-1.56 4.494-7.474 10.67-12.496 9.87-5.07-.807-5.99-8.133-4.21-12.634 1.66-4.2 7.38-9.678 12.11-8.932z"/>
<path d="M1875.1 1265.3c3.965 2.308 3.033 9.59.41 13.533-2.754 4.14-9.845 8.622-14.002 6.193-4.195-2.45-2.735-10.302.216-14.38 2.752-3.8 9.46-7.626 13.377-5.347zm-86.1-39.9c4.244-.376 7.182 5.965 7.127 10.585-.06 4.85-3.317 12.403-7.77 12.79-4.496.39-7.31-6.7-7.066-11.61.23-4.58 3.52-11.394 7.71-11.765z"/>
<path d="M1802.9 1237.6c4.157.932 5.027 7.867 3.57 12.25-1.532 4.603-6.933 10.807-11.294 9.82-4.4-.994-4.924-8.606-3.198-13.21 1.61-4.292 6.817-9.782 10.923-8.86z"/>
<path d="M1815.8 1246.2c4.92 1.158 5.952 9.77 4.226 15.215-1.814 5.715-8.208 13.42-13.37 12.196-5.21-1.23-5.83-10.68-3.787-16.4 1.9-5.33 8.07-12.15 12.93-11z"/>
<path d="M1826.2 1256.8c5.014-.644 9.005 7.057 9.3 12.76.31 5.99-2.97 15.45-8.233 16.116-5.312.673-9.213-7.96-9.31-14.03-.088-5.66 3.29-14.21 8.244-14.847z"/>
<path id="g" d="M1838.6 1265.7c4.556-.534 8.182 5.85 8.45 10.578.283 4.964-2.698 12.805-7.48 13.358-4.827.558-8.372-6.598-8.46-11.63-.08-4.693 2.99-11.78 7.49-12.307z"/>
<use y="10.35" x="12.788" xlink:href="#g"/>
<path id="h" d="M1929.3 1250.9c-3.243 2.846-9.712.313-12.622-2.874-3.054-3.345-5.21-10.486-1.8-13.468 3.44-3.01 10.286.112 13.227 3.61 2.743 3.264 4.4 9.92 1.195 12.732z"/>
<use y="12.792" x="-6.999" xlink:href="#h"/>
<use y="23.452" x="-19.479" xlink:href="#h"/>
<path d="M1905.2 1281.2c-1.138 4.162-7.933 5.613-12.116 4.557-4.39-1.11-10.126-5.88-8.924-10.247 1.213-4.407 8.646-5.575 13.028-4.276 4.087 1.212 9.137 5.854 8.012 9.966z"/>
<path d="M1887.2 1278.2c3.64 2.54 2.786 10.55.377 14.89-2.53 4.553-9.042 9.485-12.86 6.813-3.853-2.697-2.512-11.335.198-15.82 2.528-4.182 8.69-8.39 12.286-5.883z"/>
<path d="M1869.6 1287.6c3.965 2.308 3.033 9.59.41 13.533-2.754 4.14-9.844 8.622-14.002 6.193-4.195-2.45-2.735-10.302.216-14.38 2.752-3.8 9.46-7.626 13.377-5.347z"/>
<path id="i" d="M1831.3 1312.9c-3.392 3.235-.755 11.272 2.773 15.282 3.706 4.21 11.794 8.104 15.348 4.703 3.59-3.433.3-12.024-3.59-16.13-3.62-3.83-11.18-7.05-14.53-3.855z"/>
<use y="13.781" x="-7.319" xlink:href="#i"/>
<path id="j" d="M1820.8 1339.6c-4.348 1.75-4.876 10.19-3.083 15.222 1.883 5.282 7.954 11.896 12.516 10.052 4.603-1.86 4.725-11.06 2.636-16.315-1.95-4.9-7.78-10.69-12.07-8.96z"/>
<use y="14.852" x="-10.548" xlink:href="#j"/>
<path id="k" d="M1802.7 1371c-4.57 1.037-6.43 9.29-5.458 14.54 1.022 5.515 5.967 13.008 10.763 11.91 4.84-1.106 6.42-10.17 5.19-15.69-1.147-5.146-5.98-11.784-10.496-10.76z"/>
<use y="15.932" x="-10.121" xlink:href="#k"/>
<path id="l" d="M1784.1 1403.3c-4.684.17-8.042 7.935-8.06 13.276-.02 5.608 3.45 13.888 8.367 13.7 4.96-.19 8.194-8.806 8.01-14.457-.172-5.27-3.692-12.69-8.318-12.52z"/>
<use y="19.16" x="-10.33" xlink:href="#l"/>
<use y="37.02" x="-22.39" xlink:href="#l"/>
<use y="52.31" x="-34.87" xlink:href="#l"/>
<use y="66.51" x="-47.79" xlink:href="#l"/>
<use y="78.14" x="-61.99" xlink:href="#l"/>
<use y="90.62" x="-75.56" xlink:href="#l"/>
<path d="M1692.8 1500.2l-5.262 20.595s2.935 7.335 6 7.026c5.48-.55 6.964-9.04 8.01-14.45.947-8.42-8.748-13.16-8.748-13.16zm324.4 13c1.61 6.124 15.26 11.314 15.26 11.314l-6.65-27.758c-5.718.154-9.495 12.436-8.61 16.444z"/>
<path d="M2016 1491c-4.36-1.722-10.55 4.043-12.71 8.928-2.265 5.13-2.408 14.106 2.17 15.905 4.622 1.816 11.04-4.778 13.137-10.03 1.956-4.895 1.708-13.104-2.597-14.805z"/>
<path id="m" d="M2000.8 1478.7c-4.68-.243-8.71 7.193-9.202 12.512-.514 5.584 2.21 14.14 7.124 14.385 4.958.25 8.94-8.046 9.256-13.69.295-5.266-2.556-12.967-7.18-13.207z"/>
<use y="-13.7" x="-13.4" xlink:href="#m"/>
<use y="-29.23" x="-25.88" xlink:href="#m"/>
<use y="-42.32" x="-38.66" xlink:href="#m"/>
<use y="-60.28" x="-49.01" xlink:href="#m"/>
<use y="-76.41" x="-60.28" xlink:href="#m"/>
<use y="-93.46" x="-70.63" xlink:href="#m"/>
<use y="-113.25" x="-79.76" xlink:href="#m"/>
<use y="-131.21" x="-89.81" xlink:href="#m"/>
<use y="-152.52" x="-98.03" xlink:href="#m"/>
<path d="M1883.8 1304.6s-1.647 26.676 8.037 28.39c6.04 1.067 10.778-14.91 10.778-14.91z"/>
<path id="n" d="M1862 1610.8c-2.878 3.7.914 11.26 4.995 14.706 4.285 3.617 12.86 6.278 15.874 2.39 3.04-3.924-1.49-11.937-5.94-15.427-4.15-3.26-12.1-5.33-14.94-1.67z"/>
<use y="-2.15" x="18.3" xlink:href="#n"/>
<use y="-5.81" x="36.81" xlink:href="#n"/>
<path id="o" d="M1916.2 1603.8c-2.29 4.09 2.594 10.995 7.147 13.79 4.78 2.933 13.657 4.276 16.052-.02 2.41-4.337-3.26-11.58-8.18-14.36-4.6-2.595-12.76-3.448-15.02.59z"/>
<use y="-3.22" x="20.02" xlink:href="#o"/>
<path id="p" d="M1953.5 1595.4c-1.903 4.283 3.598 10.71 8.39 13.07 5.03 2.48 13.992 2.998 15.98-1.502 2.008-4.54-4.312-11.228-9.47-13.544-4.81-2.16-13.022-2.255-14.9 1.976z"/>
<use y="-5.59" x="18.94" xlink:href="#p"/>
<path id="q" d="M1991.3 1583.9c-1.646 4.388 4.225 10.478 9.147 12.552 5.167 2.177 14.146 2.165 15.865-2.445 1.735-4.65-4.97-10.953-10.254-12.96-4.93-1.87-13.132-1.48-14.758 2.853z"/>
<use y="-6.24" x="19.16" xlink:href="#q"/>
<use y="-13.99" x="37.67" xlink:href="#q"/>
<use y="-22.17" x="57.48" xlink:href="#q"/>
<use y="-28.63" x="77.5" xlink:href="#q"/>
<use y="-44.34" x="79.87" xlink:href="#q"/>
<path d="M2066.7 1534.9s13.55 1.992 14.79-2.875c1.645-6.462-15.422-12.745-15.422-12.745z"/>
<path id="r" d="M1701.6 1575.6c-3.986 2.465-3.066 10.873-.44 15.525 2.756 4.883 9.866 10.365 14.046 7.77 4.218-2.62 2.77-11.705-.186-16.526-2.755-4.5-9.483-9.21-13.42-6.77z"/>
<use y="7.75" x="18.94" xlink:href="#r"/>
<use y="10.55" x="37.03" xlink:href="#r"/>
<use y="15.5" x="56.83" xlink:href="#r"/>
<use y="18.08" x="74.7" xlink:href="#r"/>
<use y="21.74" x="92.35" xlink:href="#r"/>
<use y="26.69" x="110.43" xlink:href="#r"/>
<use y="29.92" x="128.3" xlink:href="#r"/>
<use y="32.72" x="146.6" xlink:href="#r"/>
<path d="M1648.2 1517.5c-4.167-2.145-10.898 2.977-13.53 7.625-2.765 4.88-3.797 13.797.58 16.04 4.42 2.266 11.458-3.66 14.066-8.676 2.433-4.68 3-12.88-1.116-14.99z"/>
<path d="M1642 1534.4c-4.415-1.572-10.405 4.4-12.396 9.357-2.09 5.204-1.926 14.18 2.712 15.822 4.68 1.65 10.868-5.16 12.786-10.48 1.788-4.96 1.26-13.16-3.102-14.71z"/>
<path d="M1647.7 1549.9c-4.54-1.165-9.963 5.326-11.496 10.443-1.61 5.372-.632 14.296 4.136 15.51 4.81 1.226 10.356-6.116 11.783-11.587 1.33-5.102.06-13.215-4.423-14.366z"/>
<path d="M1662.4 1556.3c-4.5-1.313-10.132 4.998-11.832 10.062-1.784 5.316-1.1 14.268 3.626 15.638 4.77 1.382 10.55-5.775 12.156-11.197 1.497-5.056.494-13.206-3.95-14.503z"/>
<path id="s" d="M1671.9 1558.8c-4.547 1.134-6.232 9.423-5.148 14.654 1.138 5.49 6.242 12.877 11.013 11.68 4.814-1.21 6.2-10.307 4.855-15.798-1.255-5.12-6.23-11.655-10.722-10.535z"/>
<use y="6.24" x="16.79" xlink:href="#s"/>
<use y="-11.189" x="8.611" xlink:href="#i"/>
<use y="6.47" x="4.66" xlink:href="#i"/>
<use y="26.679" x="4.911" xlink:href="#i"/>
<use y="47.87" x="4.66" xlink:href="#i"/>
<use y="68.57" x="5.57" xlink:href="#i"/>
<use y="87.75" x="2.22" xlink:href="#i"/>
<use y="109.06" x="4.66" xlink:href="#i"/>
<use y="126.41" x="2.22" xlink:href="#i"/>
<use y="143.46" x="4.66" xlink:href="#i"/>
<use y="163.86" x="4.66" xlink:href="#i"/>
<use y="183.95" x="3.44" xlink:href="#i"/>
<use y="203.13" x="3.74" xlink:href="#i"/>
<use y="223.52" x="4.35" xlink:href="#i"/>
<use y="243.31" x="4.35" xlink:href="#i"/>
<use y="263.1" x="3.74" xlink:href="#i"/>
<use y="283.19" x="2.52" xlink:href="#i"/>
<use y="305.11" x="2.52" xlink:href="#i"/>
<use y="327.94" x="1.92" xlink:href="#i"/>
<use y="349.25" x="1.92" xlink:href="#i"/>
<use y="369.04" x="1.92" xlink:href="#i"/>
<use y="391.27" x="1.31" xlink:href="#i"/>
<path id="t" d="M1882.2 1303.2c2.442 3.707-1.32 10.832-5.164 13.97-4.036 3.293-11.912 5.463-14.47 1.567-2.58-3.932 1.865-11.46 6.043-14.622 3.89-2.95 11.17-4.577 13.59-.915z"/>
<use y="16.13" x="2.74" xlink:href="#t"/>
<use y="34.1" x="2.43" xlink:href="#t"/>
<use y="52.36" x="2.13" xlink:href="#t"/>
<use y="69.11" x="1.82" xlink:href="#t"/>
<use y="87.07" x="2.74" xlink:href="#t"/>
<use y="104.42" x="1.52" xlink:href="#t"/>
<path d="M1883.2 1426.1c2.696 3.834-1.456 11.203-5.7 14.448-4.454 3.406-13.147 5.65-15.97 1.62-2.85-4.066 2.057-11.85 6.67-15.12 4.3-3.05 12.338-4.734 15-.948z"/>
<path id="u" d="M1882.1 1443.6c3.392 3.235.755 11.272-2.773 15.282-3.706 4.21-11.794 8.104-15.348 4.703-3.59-3.433-.3-12.024 3.59-16.13 3.62-3.83 11.18-7.05 14.53-3.855z"/>
<use y="20.4" x=".61" xlink:href="#u"/>
<use y="40.49" x=".92" xlink:href="#u"/>
<use y="62.11" x=".31" xlink:href="#u"/>
<use y="82.2" x=".92" xlink:href="#u"/>
<use y="102.6" x=".31" xlink:href="#u"/>
<use y="122.99" x=".61" xlink:href="#u"/>
<use y="143.69" x=".61" xlink:href="#u"/>
<use y="164.4" x="-.3" xlink:href="#u"/>
<use y="183.27" x=".92" xlink:href="#u"/>
<use y="203.06" x=".92" xlink:href="#u"/>
<use y="224.37" x=".31" xlink:href="#u"/>
<use y="245.37" x=".31" xlink:href="#u"/>
</g>
<path d="M1849.6 1848.3c19.902 5.524 31.76 5.236 48.22.43l-17.437-27.984" fill="#fa0204"/>
<path d="M1888.3 1776.2l-31.708-8.14s.367-35.184 20.39-32.116c16.62 2.546 11.984 40.34 11.318 40.257z" fill="#ce9d09"/>
<circle cy="1723" cx="1872.9" r="12.916" fill="#ce9d09"/>
<path d="M1885.4 1791.9c7.048 17.864 11.37 33.24 4.736 53.386m7.597 3.413c-10.226-8.26-36.582-5.84-47.98-.35-4.454 0-16.446-83.24 25.72-81.19 38.722 1.89 24.95 81.91 22.26 81.53z" fill="#fa0204"/>
<path d="M1815.2 1866.3c19.292 12.238 37.25 11.14 54.247.43l-40.255-41.977" fill="#fa0204"/>
<circle cy="1738.3" cx="1843.4" r="12.916" fill="#ce9d09"/>
<path d="M1859.3 1780l-32.72-.646s-4.245-26.612 16.145-27.77c16.924-.96 17.252 28.364 16.575 28.416z" fill="#ce9d09"/>
<path d="M1843.6 1860.7c-6.26-13.91-6.91-31.026-5.166-49.51m-9.472 50.37c-7.682-13.182-9.107-30.014-3.014-51.232m43.404 56.636c-4.926-6.19-40.227-8.83-54.096-.392-5.02 0-18.54-93.848 29-91.528 43.656 2.13 28.13 92.354 25.096 91.92z" fill="#fa0204"/>
</g>
</svg>
