<svg viewBox="0 0 1200 600" xmlns="http://www.w3.org/2000/svg" xmlns:xlink="http://www.w3.org/1999/xlink">
<defs>
<linearGradient id="b" y2="107.76" gradientUnits="userSpaceOnUse" x2="92.551" gradientTransform="matrix(.99614 0 0 2.2526 703.84 -75.047)" y1="111.28" x1="103.08">
<stop stop-color="red" offset="0"/>
<stop stop-color="#ff0" offset="1"/>
</linearGradient>
<clipPath id="a">
<path d="M0 0v150h700v150H600zm600 0H300v350H0v-50z"/>
</clipPath>
</defs>
<path fill="#00247d" d="M0 0h1200v600H0z"/>
<path stroke="#fff" stroke-width="60" d="M0 0l600 300m0-300L0 300"/>
<path stroke="#cf142b" stroke-width="40" d="M0 0l600 300m0-300L0 300" clip-path="url(#a)"/>
<path stroke="#fff" stroke-width="100" d="M300 0v350M0 150h700"/>
<path stroke="#cf142b" stroke-width="60" d="M300 0v350M0 150h700"/>
<path d="M0 300h600V0h600v600H0z" fill="#00247d"/>
<path d="M776.26 144.07l250.4-.93-.465 222.99s8.827 33.914-104.99 85.48c40.882-4.18 85.48-47.85 85.48-47.85s18.118-23.227 26.945-10.22c8.827 13.01 17.19 19.513 23.693 24.623 6.504 5.11 11.614 19.047 1.86 29.268s-25.088 11.62-29.27-.92c-6.503 3.25-46.456 51.57-128.22 53.89-83.156-1.39-128.68-54.35-128.68-54.35s-11.15 17.66-26.944 3.72c-15.34-18.12-3.72-29.73-3.72-29.73s13.01-7.43 16.72-12.54c6.04-6.97 7.9-16.26 18.12-16.26 12.08.93 16.72 10.69 16.72 10.69s41.81 44.13 86.87 49.71c-101.73-48.8-105.44-78.99-104.98-86.43l.46-221.13z" fill="#fff"/>
<path stroke="#000" stroke-width="1.887" d="M782.3 150.11l238.79-1.394v214.63c.464 27.874-46.457 56.212-119.86 92.45-75.724-39.025-119.39-62.717-119.86-92.914l.93-212.77z" fill="#006129"/>
<g id="c" stroke="#000" stroke-width=".944" fill="#f7c600">
<path stroke="#f7c600" stroke-width="1.887" d="M814.79 181.83l14.095-20.7 14.164 20.744" fill="none"/>
<path d="M831.72 174.09a2.8 2.8 0 1 1-2.8-2.8 2.8 2.8 0 0 1 2.8 2.8z"/>
<path d="M817.44 197.12l21.852.062s.343-2.836-2.283-4.56c11.44-1.573 8.47-11.668 18.05-12.24 1.86.285-5.01 4.29-5.01 4.29s-5.78 4.08-3.15 6.152c2.09 1.647 3-1 3.29-3.004.28-2.003 9.3-3.29 8.01-9.013-2.15-4.72-14.74 3.147-14.74 3.147l-8.99-.05c-.56-1.008-3.04-5.05-5.6-5.07-3.03.112-5.17 5.12-5.17 5.12h-20.3s-.7 5.213 9.6 6.214c2.32 3.03 4.11 3.876 6.13 4.66-1.35 1.12-1.73 2.475-1.72 4.292zm1.58-4.44l18.2-.062m-26.54-10.668s1.456 8.513 8.176 10.53"/>
<path d="M809.56 181.84c.672-3.248 1.904-3.808 3.248-7.952.224-4.033-3.248-3.585-2.24-6.16 1.792-2.8.896-5.49-2.464-7.617.672 3.7-4.368 7.17-4.368 10.2 0 3.03 2.576 2.35 2.24 6.95.224 2.69-.672 2.02-.896 4.6h4.48z" fill="url(#b)"/>
<path d="M831.5 161.66a2.575 2.575 0 1 1-2.575-2.576 2.575 2.575 0 0 1 2.575 2.576z"/>
</g>
<use y="41.304" x="-.772" xlink:href="#c"/>
<use y="82.013" x="-1.089" xlink:href="#c"/>
<use y="126.099" x="25.627" xlink:href="#c"/>
<use y="162.163" x="-4.574" xlink:href="#c"/>
<use y="204.773" x="-3.782" xlink:href="#c"/>
<use y=".672" x="146.28" xlink:href="#c"/>
<use y="41.218" x="144.936" xlink:href="#c"/>
<use y="82.661" x="143.144" xlink:href="#c"/>
<use y="123.431" x="145.16" xlink:href="#c"/>
<use y="164.201" x="144.712" xlink:href="#c"/>
<use y="205.195" x="144.936" xlink:href="#c"/>
<g stroke="#000" stroke-width=".944" fill="#ffc6b5">
<path d="M915.84 406.32s5.702 13.147 12.197 5.07c6.494-8.08 4.12-11.564 4.12-11.564l-14.574-7.92-4.277 9.03 2.534 5.384z" fill="#f7c600"/>
<path d="M928.36 404.57s.95.16 1.742-1.267c.792-1.426-1.742-2.06-2.85-3.644l-1.268 2.53 2.376 2.37zm-32.95-3.48l-12.83 6.97s-6.336 1.267-6.81 0c-.476-1.268.157-2.376 3.483-2.535 3.327-.158 12.355-8.395 12.355-8.395l3.802 3.96zm.16-227.94s.317 3.01.475 4.594c.16 1.584-2.534 4.91-2.693 4.752s-1.425.158-1.267 1.108c.16.95 2.06 1.268 2.06 1.268s-.793 3.326 0 3.484c.79.16-2.06 4.277 0 5.386 2.06 1.11 5.543 2.534 7.127 2.218 1.584-.317 0 6.177 0 6.177l-4.435 9.504 24.394-2.53-5.06-8.08s-2.37-1.58-1.74-6.18c.64-4.59-.31-25.34-.31-25.34l-17.42-2.37-1.11 6.02zm-4.44 36.11s-7.92 3.643-7.603 13.464c-2.06 9.504-3.168 19.008-3.168 19.008s-9.35 10.613-12.2 14.414c-2.85 3.802-7.13 11.563-8.71 13.622-1.59 2.06-7.77 8.87-7.61 11.405.16 2.534-1.43 13.78 4.75 15.048 1.58.64 6.65-12.98 6.65-12.98s.31-5.86-1.43-6.97c-1.75-1.11 3.8-4.91 3.8-4.91s10.61-7.76 12.99-9.66c2.37-1.9 8.87-9.18 8.87-9.18l3.64-43.24z"/>
<path d="M900.16 201.82s2.06 5.544 6.653 4.594c4.593-.95 9.98-5.228 9.98-5.228s4.276-.158 4.91.476c.633.633 11.563 11.246 11.246 14.573-.32 3.326-5.07 2.376-6.82 4.593-1.74 2.218-4.6 7.762-3.8 11.88.79 4.12 3.16 9.504 2.85 11.563-.32 2.06-2.06 2.7-2.06 3.81 0 1.11 1.42 3.01 1.42 5.07s-1.9 5.07-1.59 7.13c.31 2.06.47 8.08.47 8.08l-.48 27.88s1.58.95 1.74 2.54c.15 1.59 10.77 47.68 10.77 47.68s-.48 1.43-1.59 1.27c-1.11-.16 4.27 7.13 4.43 9.19.16 2.06 5.54 18.22 5.38 20.44-.16 2.22-.95 7.13-1.43 7.29-.48.16 3.48 10.14 2.85 11.72-.63 1.59-7.13 1.43-7.13 1.43l-1.74-.31s.16 2.06-1.11 2.22-10.61-.47-10.61-.47-2.7 4.12-4.28 3.96c-1.59-.16-3.64-3.01-4.12-2.53-.48.47 1.42 3.17.95 3.96-.48.79-8.56 2.53-10.14-1.27-1.59-3.8.95-2.85.47-3.64-.47-.79-4.12-2.85-5.23-2.21-1.11.63 2.85 1.58 2.69 3.17-.16 1.58-3.49 3.96-4.75 3.96s-4.28-5.86-8.72-5.23-7.29 1.74-7.29 1.74-5.23 2.22-7.45 1.75c-2.22-.47-3.17-2.22-3.17-3.17 0-.95 1.58-5.07 1.42-6.33s-1.42-2.53-1.42-4.44c0-1.9 3.64-8.39 3.64-8.39l-.15-29.15s-3.32 0-3.48-2.06 5.07-46.09 5.86-48.94c.79-2.85 2.85-12.99 2.85-12.99s-2.38 1.11-2.53 0c-.16-1.11 7.13-26.29 7.13-26.29s1.27-12.52 1.27-15.84c0-3.33-.63-7.92-.63-7.92s-6.5-2.75-6.65-6.97c-.6-6.71 6.18-10.46 6.97-12.67l3.17-8.87s3.48-6.02 9.18-6.97z" fill="#fff"/>
<path d="M897.78 402.99s-15.365 8.08-17.582 8.712c-2.218.634-3.643-2.693-1.426-3.326 2.218-.634 5.703-.95 5.703-.95s-5.227-4.12-5.07-4.278c.16-.158 7.13-2.692 7.287-2.692s2.218 4.118 3.644 3.8c1.425-.316 5.544-3.483 5.544-3.483s2.217 2.534 1.9 2.217z" fill="#f7c600"/>
<path d="M919.43 407.42c1.453 1.874 2.02 5.123 5.347 3.223 3.326-1.9-1.704-5.43-1.704-5.43l-3.643 2.207z"/>
<path d="M925.5 407.11s1.584 1.267 3.01-.158-2.852-4.436-2.852-4.436l-2.06 2.376 1.902 2.218zm6.82-190.15c.158 0 5.227 15.682 5.86 19.642.634 3.96 2.694 19.8 1.902 22.018s-8.87 12.83-9.82 15.523c-.952 2.693-6.654 12.99-6.654 12.99s-1.426 10.137-2.06 10.612c-.633.475 1.636 2.963 1.426 3.802-.314.942-4.593 5.385-6.494 4.91-1.9-.475-4.91-2.693-5.07-4.752s.16-8.87 1.585-10.613c1.426-1.742 8.87-19.325 9.346-20.434.48-1.11 6.82-14.89 6.97-17.266.16-2.376-1.97-7.87-4.21-9.886-4.98-14.673-3.02-23.522 7.22-26.546z"/>
<path d="M895.09 172.2s3.485.475 5.386-.634c1.9-1.108 4.118-1.584 5.702.634s2.693 2.06 2.693 2.06-2.37 5.86 0 6.494c2.38.633 3.49.633 3.65 1.425.16.79-2.06 2.53-1.42 3.32.64.79 1.75 1.74 1.9 2.37.16.63-1.42 3.32-.95 3.96.48.63 1.9 3.17 2.85 3.17s.32 3.96 3.17 3.01 2.7-3.49 2.7-3.49 3.01-.48 3.81-3.17c.79-2.7 2.69-3.33 2.69-3.33s3.81-2.06-1.26-5.23c0-22.18-14.57-19.8-14.57-19.8s-1.74-3.96-4.59-3.49-3.01 3.8-5.07 3.48c-2.06-.32-2.53-1.74-2.69-1.59-.16.15-1.9 3.32-1.9 4.11 0 .79-5.54-1.11-5.07 3.01.48 4.11 3.17 3.96 3.01 3.64z" fill="#9c5100"/>
<g fill="none">
<path d="M920.75 208s-14.098 9.03-13.78 12.197m16.95-10.617s-3.168 3.485-3.326 3.485m7.606.315s-6.97 5.702-5.86 9.346M895.25 207.2s-2.06 4.277-1.584 5.702c.475 1.426 3.96 6.812 4.435 10.138.48 3.327 0 5.703 0 5.703m-6.49-13.623s.64 5.07 1.59 6.02c.95.95 3.49 5.226 3.8 6.97m-6.65 8.08s4.12 2.06 7.92-5.86m6.18-5.54c-.15 0-3.01 7.762 2.06 10.613 5.07 2.85 8.87 2.534 11.09 1.742 2.22-.792 4.6-2.217 4.6-2.217m-19.96-.638s.32 10.455 15.68 20.75m-15.05-10.93s-.16 9.187 5.86 13.306m-9.02-24.076s-4.59 13.622-8.23 15.048m6.81-5.068s-.16 9.82-1.43 13.306M895.57 259s3.168 3.96 6.653 3.643c3.485-.316 4.91-4.435 7.286-3.8 2.37.632 4.59 2.533 10.13 2.058m-7.93 4.12s0 8.08 1.42 8.87.79 8.24.79 8.24m-21.53-20.91s-.16 7.61-1.11 10.3c-.95 2.7-2.85 7.29-2.54 11.25m-6.02 4.44c.79-.31 3.48-2.69 3.48-2.69m1.42 1.75s-6.81 29.15-4.91 46.57m6.49-45.15s-3.49 21.86-1.9 25.98m.16-26.61c.15 0 13.3.95 13.3.95m1.9-1.74s3.64 1.9 8.71 1.59m-10.3 9.03s-.63 37.39-1.58 45.62m21.07-37.07s4.12 32.79 6.49 35.8m-14.42-31.68s2.53 28.99 3.96 31.52m-39.92 10.14s4.91-1.58 9.34-6.33c5.07 6.81 12.83.32 12.83.32s12.04 8.24 17.42-.95c8.23 5.39 12.35-.79 12.35-.79s3.01 4.6 5.22 4.12m-13.15 3.17s6.17 28.99 15.36 37.23m-47.2-40.24s.79 24.24 2.22 41.35m-3.33-13.94s-.79 15.84-1.74 16.95m-7.61 1.58s1.74 6.81 10.45.48c8.71-6.34 8.87 2.38 9.18 3.33.32.95 1.75 7.76 5.07 2.06m6.97-9.34s-1.42 14.1 11.09 3.8c12.52-10.29 14.58-.16 14.89 3.01M910.3 166.81s-1.11 6.97 6.336 6.336c-.95 3.802 1.9 5.07 1.9 5.07m5.544 4.284c.16 0 3.326 2.06-.158 4.594m-10.612.946s1.584 1.9 3.326 1.426c1.743-.475 4.594 1.742 4.594 1.742s2.376.792 2.693.317m-20.273 2.535s5.386 2.06 8.87-6.494m-18.85-2.536l3.168.158M858.52 284.92l.248 6.942m-6.758-7.452s4.45 7.443 4.08 11.41"/>
<path stroke-linejoin="round" d="M894.14 188.2h2.85l-2.533 1.11m17.203 110.65s3.328-.35 3.223 5.206c2.125-6.902 6.446-7.066 6.446-7.066"/>
<path stroke-linejoin="round" stroke-width="1.699" d="M898.1 179.33c.475 0 2.217-.634 2.534-.158.317.475-1.9.792-2.534.158z"/>
</g>
</g>
<g stroke="#000" stroke-width="1.887" fill="none">
<path d="M900.3 458.58c66.898-1.858 110.1-50.173 109.64-50.638-.465-.465 8.827-13.472 16.26-11.614 7.433 1.858 18.118 23.693 31.126 28.338 6.504 10.22-1.858 19.512-4.646 21.37-2.787 1.858-15.33 6.97-17.19-.465-1.857-7.43-5.573-6.03-5.573-6.03s-59.464 58.07-128.22 55.75c-71.08.47-129.61-55.74-129.61-55.74l-5.11 5.58s-5.575 6.04-8.363 5.58c-2.787-.46-14.866-8.36-15.795-16.26-.93-7.9 7.43-13.01 7.43-13.01s20.44-15.79 22.76-24.15c4.64-4.65 13.47 3.25 13.47 3.25s53.89 61.79 113.82 58.07z" fill="#f7c600"/>
<path d="M748.86 422.65s5.528-1.474 7.555.83c2.027 2.303 15.94 15.938 15.94 15.938"/>
<path d="M761.48 429.1l-5.528 4.146s13.912 2.764 10.78 11.885m285.568-22.95s-2.764-1.47-7.094 1.75c-4.33 3.23-15.294 15.48-15.294 15.48"/>
<path d="M1039.9 428.73l5.99 4.606s-12.533.83-9.768 12.714"/>
</g>
<path d="M819.66 437.4c-.362 1.052-1.32-.03-2.117.183-2.094.08-3.834 1.445-5.628 2.377l-18.408 10.73c-.62-.202-.472-.703-.32-1.205 1.635-7.663 3.333-15.313 4.924-22.986.27-1.35.69-3.01-.6-3.99-.55-.38.3-1.14.66-.45l9.41 6.71c-.3.88-.83.26-1.37-.1-1.3-1.26-2.87-.1-2.83 1.49-1.12 5.05-2.21 10.11-3.32 15.16 4.17-2.48 8.38-4.88 12.51-7.41 1.48-.66 2.56-2.63 1.03-3.86-.58-.35-1.54-1.28-.58-1.43l6.67 4.75zm6.62 31.98c-.168.572-.466.698-.922.286l-11.074-6.056c.168-.572.466-.698.922-.286 1 .68 2.635.938 3.364-.255 1.465-2.36 2.7-4.84 4.058-7.26 1.847-3.42 3.77-6.8 5.56-10.25.856-1.22-.1-2.73-1.297-3.25-.4-.22-1-.38-.49-.87.25-.31.78.34 1.13.42l10.62 5.8c-.17.57-.46.7-.92.28-1-.68-2.64-.94-3.38.24-1.46 2.35-2.7 4.84-4.06 7.25-1.84 3.42-3.77 6.8-5.56 10.24-.85 1.23.1 2.75 1.32 3.26l.74.4zm42.6-9.99l-3.007 8.443c-1.232-.13-.413-1.708-.796-2.54-.44-3.8-3.243-7.347-7.06-8.16-2.92-.795-6 .708-7.715 3.082-2.59 3.537-4.165 7.853-4.387 12.235-.147 2.49.995 5.046 3.17 6.357 1.723 1.136 3.816 1.593 5.863 1.536.722-2.13 1.586-4.215 2.187-6.38.247-1.41-1.21-2.26-2.375-2.584-.182-.41.27-.92.745-.48l11.037 3.93c-.132 1.35-1.667-.11-2.517.43-1.36.52-1.476 2.15-1.992 3.34l-1.345 3.77c-4.946.35-10.043-.7-14.348-3.19-4.185-2.64-7.015-7.73-6.192-12.72.638-4.28 3.302-8.28 7.242-10.17 3.62-1.93 8.037-1.92 11.796-.39 2.056.69 3.83 1.96 5.42 3.41.964 1.3 2.83 1.3 3.62-.18l.654.23m17.96 28.81c-.022.45-.072.86-.61.61l-12.638-1.92c.022-.45.072-.86.61-.61 1.096.22 2.564.2 3.093-.98.535-1.69.64-3.48.95-5.22.723-4.86 1.495-9.71 2.186-14.57.27-1.05-.09-2.24-1.17-2.64-.61-.29-1.3-.34-1.96-.45.03-.45.08-.86.61-.61l12.64 1.91c-.02.45-.07.86-.61.61-1.1-.23-2.56-.2-3.11.97-.53 1.69-.64 3.47-.95 5.21-.72 4.85-1.49 9.7-2.18 14.56-.26 1.04.1 2.25 1.19 2.65.62.28 1.31.33 1.97.44zm34.11-8.29l-.5 8.96-22.546 1.15c-.138-.55.01-.84.606-.73 1.133.03 2.593-.45 2.737-1.75.1-2.23-.15-4.46-.225-6.68-.243-4.45-.418-8.89-.71-13.33.125-1.33-1.065-2.3-2.32-2.26-.397-.2-1.474.41-1.367-.31-.18-.59.635-.28.98-.39l12.542-.64c.138.55-.01.84-.606.72-1.15-.01-2.66.27-2.98 1.58-.18 1.92.09 3.86.14 5.79.26 4.62.44 9.25.74 13.87-.09 1.21.88 2.28 2.13 2.04 1.83-.09 3.7-.01 5.49-.47 2.51-.67 3.88-3.15 4.56-5.47.45-.63.08-2.2 1.07-2.11.09 0 .18-.01.27-.01m17.58-21.69c-.59.01-.33.77-.48 1.17-1 7.48-1.94 14.96-2.97 22.43-.25 1.65-.66 3.59-2.29 4.42-.6.21-.07 1.16.48.63l7.53-2.26c-.09-1.27-1.54-.12-2.35-.34-1.72 0-1.98-2.1-1.74-3.41l.31-2.66 8.63-2.59c1.1 1.38 2.31 2.69 3.31 4.15.75 1.41-1.07 2.05-2.13 2.32-.49.05-.06 1.08.39.6l11.34-3.4c-.03-1.29-1.67-.08-2.37-.94-2.12-1.59-3.64-3.81-5.4-5.78l-12.23-14.38zm-.06 8.97l6.13 7.31-7.34 2.19c.41-3.17.81-6.34 1.22-9.5zm38.64-25.81l3.26 6.06c-1.01.87-1.54-1.15-2.46-1.46-1.5-1.27-3.78-1.51-5.45-.43-.68.36-1.36.73-2.05 1.09 3.28 6.07 6.51 12.16 9.82 18.21.51 1.55 2.42 1.84 3.65.97.48-.35.91-.54 1.06.19-1.66.96-3.48 1.88-5.2 2.82l-6.51 3.5c-.51-.53-.16-.8.41-1.01 1.55-.57 2.14-2.45 1.11-3.76-3.21-6.03-6.46-12.03-9.68-18.04-1.79.99-4.09 1.89-4.54 4.13-.51 1.41.24 3.13.24 4.33-.55.57-.7-.21-.95-.63l-2.79-5.18 20.11-10.81zm15.25-9.04c2.08 2.75 4.16 5.51 6.24 8.26 1.45-.92 2.66-2.56 2.22-4.35.17-1.4-1.83-2.99-1.14-3.97.45-.28.72.76 1.1 1.04l7.12 9.44c-.92 1.06-1.6-1.1-2.58-1.33-1.39-.99-3.33-1.48-4.82-.4-1.11.36-1.06.98-.3 1.66 1.67 2.15 3.22 4.41 5.01 6.47 1.09 1.05 2.45-.05 3.37-.79 2.39-1.63 4.49-4.17 4.36-7.21.16-1.33-.68-2.81-.67-3.94.54-.72.69.39 1 .75l3.36 6.08-17.55 13.23c-.76-.54-.01-.86.47-1.23 1.64-1.02 1.12-3.08-.09-4.22-3.75-4.94-7.43-9.93-11.22-14.82-.97-1.32-2.76-.62-3.75.3-.41.58-1.05-.58-.27-.66l16.54-12.48 4.53 6c-1.05 1.06-1.98-1.31-3.18-1.43-2.17-1.13-4.75-.22-6.55 1.21-1.07.76-2.11 1.57-3.17 2.36"/>
</svg>
