<svg xmlns="http://www.w3.org/2000/svg" xmlns:xlink="http://www.w3.org/1999/xlink" viewBox="0 0 640 480">
<path d="M0 0h640v480H0z" fill="#fff"/>
<path stroke="#010002" stroke-width="1.506" stroke-miterlimit="10" d="M204.35 314.93s-.518-3.508 6.144-6.08c6.66-2.573 7.18-12.162 5.847-18.554 0 0-3.48 6.08-7.7 8.107 0 0-6.88 3.586-7.19 10.436 0 0-.05 2.5-.57 4.45-.28 1.06-3.33-8.58 2.45-15.75 5.96-7.4 7.63-13.41 2.89-25.1 0 0-.44 7.09-5.1 11.14-4.66 4.05-5.25 4.36-5.18 14.03 0 0 .08 3.35-1.7 4.44 0 0-3.62-5.31-4.59-8.81-.96-3.51-1.4-4.99 2.74-9.05 0 0 13.28-8.58 3.7-27.36 0 0-.29 6.47-4.88 10.29-4.59 3.82-4.22 6.39-4.44 13.02-.22 6.62-.66 6.16-1.18 7.09 0 0-8.44-15.51-1.92-23.78 6.52-8.27 10.14-9.98 2.96-25.34 0 0 .32 7.87-5.43 11.77-5.74 3.9-4.41 13.02-4.41 13.02s.37 3.43-.81 5.92-8.13-15.86-.37-24.4c6.59-7.25 7.03-12.32 3.48-22.61 0 0-.44 4.75-4.07 7.33-3.62 2.57-6.51 5.14-5.84 15.04 0 0 .3 6.94-.59 8.88 0 0-3.4-6.31-4.36-10.44-.96-4.14-1.33-6.55 1.19-10.68 2.52-4.14 12.51-15.98.59-33.06 0 0-.37 5.53-3.4 10.52-3.03 4.99-1.63 10.91-.96 15.43.66 4.52-1.56 8.89-1.56 8.89s-5.18-9.51-4.07-20.43c1.11-10.92-3.33-19.88-13.4-26.35 0 0-7.33 16.99 2.67 25.64 0 0 8.51 8.42 10.66 18.63 0 0-6.44-.63-12.29-12.01-5.85-11.38-17.99-9.59-18.8-9.67 0 0 2 17.62 20.65 22.6 0 0 11.92 2.02 14.14 10.75 0 0 2 6 2.82 9.2 0 0-3.78-1.49-7.26-6.63-3.48-5.15-3.03-5.77-14.8-6.94 0 0-4.73-.55-7.25-3.9 0 0 4.96 18.63 17.69 18.47 0 0 11.62-1.25 18.14 14.03 0 0-1.26-.78-2.96-1.95s-6-3.35-14.51-2.34c-8.51 1.01-10.88-.39-13.03-1.09 0 0 8.59 15.74 20.73 11.07 12.14-4.68 18 12.37 18.13 12.7 0 0-1.63-1.25-3.77-3.35-2.15-2.11-6.6-4.7-15.02-2.03 0 0-6.07 2.34-12.21.47 0 0 5.92 11.46 19.76 9.51 13.84-1.95 17.32 10.21 17.32 10.21s-1.85-1.09-3.11-2.11c-1.26-1.01-5.922-3.66-15.92-.7-9.99 2.96-13.62-.47-13.62-.47s5.55 10.13 16.21 11.3 5.92-.08 8.44-1.01c2.52-.94 9.18-2.42 13.77 4.21 0 0-1.26.23-3.18-.63 0 0-7.11-2.57-12.51 1.95 0 0-4.81 4.91-11.62 3.98 0 0 8.81 8.58 22.8 1.33 0 0 4.737-3.43 8.21-.78 3.48 2.65 11.55-2.57 11.55-2.57z" fill="#369443"/>
<g stroke="#010002" stroke-width="10" stroke-miterlimit="10" fill="#f4c53d">
<path d="M282.205 103.676s-1.625-14.507 9.967-15.902c12.09-1.456 18.06 1.09 18.06 1.09l5.43 10.654-1.877 7.172-7.5 3.43s1.283-11.017-8.816-11.247c-2.56-.058-4.07.957-8.11.315-4.08-.646-6.25 3.827-7.16 4.488z" stroke-width="1.505"/>
<path stroke-width="1.506" d="M363.78 139.59c-1.727 2.234-8.635 3.014-8.635 3.014s7.106 5.457 10.165 13.252c3.06 7.795-82.357.052-82.357.052s3.702-2.65 6.22-7.64-3.776 1.404-7.55-2.338c0 0 2.81.935 6.512-4.677 0 0 5.478-7.017 9.327-8.888 0 0-1.778 1.092-6.07-1.247 0 0 7.4-.935 10.066-13.564 0 0 .444-2.805 3.256-6.858 2.813-4.054 2.22.78 7.402-5.457 0 0 2.37-4.42.296-7.12-2.072-2.71-4.293-1.72-8.635-4.32-4.343-2.6-6.267-4.06-4.787-8.06 1.48-4 5.33-3.38 5.872-3.38.543 0 .84-3.49 5.577-5.88s17.32-1.35 19.19-.32c1.87 1.04 9.47 3.27 13.91 14.5 4.44 11.22-1.19 15.43 10.9 32.37 0 0-4.84 1.04-7.95.1 0 0 6.26 11.12 17.27 16.42z"/>
<path stroke-width="1.506" d="M310.93 92.217c-9.845-.468-6.07-9.848-6.07-9.848" fill="none"/>
<path stroke-width="1.506" d="M328.03 93.503s-1.74-.818-3.21-2.767c-2.066-2.735-6.672-4.053-9.15-1.48 0 0-2.518 2.805-4.74 2.96 0 0 2.518.78 4.258 2.38 1.74 1.597 3.552 2.766 6.143 2.415 2.59-.35 3-1.71 4.22-2.53a6.312 6.312 0 0 1 2.48-.97z"/>
</g>
<path stroke="#010002" stroke-width="1.506" stroke-miterlimit="10" d="M202.81 336.46s-.222-6.314 7.772-6.782l23.537 32.74s-.89 2.103-11.55 1.87-1.13-.008-1.72 1.24c-.91 1.914-18.04-29.068-18.04-29.068z" fill="#369443"/>
<g id="a" stroke-width="10" stroke="#010002" fill="#f4c53d" transform="translate(3.597 26.17) scale(.15055)">
<path d="M1494.9 1807.9s-49.82 85.606-110.13 86.987-103.74-12.628-133.07 14.498c-20.454 18.916-41.3 34.52-49.82 82.846-8.523 48.33 16.387 58.69 22.287 60.76 0 0 4.59 34.52 38.676 25.55 0 0 1.967 35.9 62.276 18.64 60.31-17.26 85.22-11.73 97.02-71.8 11.8-60.06 22.69-59.08 33.43-66.27 14.42-9.66 41.51-18.8 61.62-30.37 18.06-10.4 87.18-45.56 110.79-48.32 23.6-2.76 18.35-82.15 18.35-82.15h-60.97l-29.5-43.49-60.97 53.16zm192-429.4s-60.965 49.707-112.1 0-20.65 24.853-61.948 17.604c-41.3-7.248-48.182-28.995-52.115-41.42 0 0-35.728 20.84-65.882 4.38-30.155-16.463-30.155-41.316-30.155-41.316s-52.443 10.338-79.32-25.207c-26.876-35.54-10.488-70.75 3.934-74.89 0 0-56.7 14.86-72.11-33.83-13.11-41.42 16.39-62.82 16.39-62.82s-119.47-.57-168.47-37.97-40.643-25.54-16.388-52.47c0 0-107.51-17.26-134.38-60.06 0 0-11.8-11.73-7.866-32.45 0 0 .656-11.73 12.455-12.43 0 0-122.6-18.93-157.98-59.37 0 0-17.044-18.64-8.522-43.49 0 0 1.803-6.56 4.753-10.96 0 0-111.6-23.56-166.67-73.26 0 0-31.787-28.32-15.4-66.29 0 0-186.5-51.07-143.24-133.23 0 0-87.185-28.3-59.653-107.01 0 0-72.11-36.59-40.643-94.58 30.114-55.5 122.58 9.66 232.08 39.96 0 0 296.28 93.28 442.19 118.11l414.57 617.22 241.89 93.2 24.58 172.59z"/>
<path d="M1689.9 923.87s-38.857-29.17-108.16 5.178-23.333 16.068-41.687-1.536c-15.336-14.71-16.775-41.83 4.322-57.49 51.623-38.316 70.798-153.26-7.866-200.9 0 0-114.06-67.656-532.32-174.1 0 0-35.05-9.717-53.73-5.057-20.57 5.13-34.75 22.782-37.65 37.886 0 0-18.72 53.19 44.2 83.62 0 0 28.41 13 57.68 21.41 0 0-32.16-6.95-45.89 24.86-13.11 30.38 5.9 61.44 64.9 81.47 0 0 15.96 6.21 38.67 11.74 0 0-50.48 14.5-26.22 55.23 0 0 21.63 42.8 98 50.4 0 0-57.03 6.22-16.72 60.41 0 0 17.7 29.69 73.42 40.73 0 0-42.28 1.38-20.98 39.35 21.3 37.98 71.44 59.38 120.78 62.83 0 0 26.72 1.38 45.4-2.76 0 0-46.87 23.48-19.34 62.83 0 0 20.32 27.96 71.12 26.58 0 0-13.19 43.95 24.09 60.58 29.01 12.95 53.1-7.76 53.1-7.76s-9.84 47.12 32.45 63.69 21.14 10.88 52.6 0c0 0 24.09 53.85 109.64 16.05 85.54-37.8 20.15-355.2 20.15-355.2zm5.1 489.43s-12.552 67.393-112.09 152.22-76.8 67.745-74.834 145.76c2.003 79.44-13.766 88.368-43.92 115.29 0 0 62.275 4.833 92.43-36.59 0 0-1.312 69.037-10.49 75.25 0 0 19.532 1.246 47.854-29.685 0 0 17.044-17.95 32.777-24.853 0 0-18.356 47.636-3.934 91.82 0 0 4.59-17.26 28.843-24.854 0 0 43.92-8.975 60.964-72.49 0 0 11.144-42.112 79.975-79.392 0 0 78.007-29.42 76.04-67.87-1.965-38.447-173.62-244.6-173.62-244.6z"/>
<path stroke-miterlimit="10" d="M2056.5 2282.2s-17.87 78.856-79.975 72.49-43.922-4.143-40.644-77.323c0 0-64.89 34.518-75.38-51.088 0 0-59 13.8-58.34-66.28 0 0-55.06 9.66-48.51-61.45 0 0-59.65 15.88-59.65-51.09 0 0-139.63-23.16 151.43-288.58l259.59 154.64-48.51 368.66z"/>
<path d="M2085.4 1928.3s-43.265 38.385-74.075-18.915-41.954-2.07-48.51-33.828c0 0-34.087-3.452-40.642-35.9 0 0-46.542-4.832-45.23-44.183 0 0-84.62-6.53-.028-102.33 84.59-95.802 228.15 158.94 228.15 158.94l-19.667 76.215zm48.2-23.8c41.94 0 89.463 262 77.13 419.84-4.48 57.328-35.19 104.15-77.13 104.15s-72.65-46.824-77.13-104.15c-12.333-157.85 35.19-419.84 77.13-419.84"/>
<ellipse cy="1902.5" cx="2133.6" rx="58.032" ry="85.951"/>
<path stroke-miterlimit="10" d="M1935.9 2277.3s6.555-138.76 126.82-337.59m-202.21 286.51s-18.683-80.083 150.77-316.88-19.666-56.612 40.643-92.856m-249.76 343.46s-5.243-86.642 160.61-284.43-14.65-51.088 45.445-91.82m-254.56 314.81s6.228-87.677 168.47-258.89-8.117-52.468 50.023-84.916M1694 2047.418s11.8-100.1 182.9-251.99-5.9-39.35 51.133-79.393" fill="none"/>
<path d="M372.26 431.98s134.38 77.806 552.9 155.61m-493.25-48.61s363.72 118.65 533.1 133.23m-389.86 0s213.37 66.98 463.24 109.25m-281.17 30.31s241.07 57.905 356.16 67.515m-194.41 46.31s203.91 42.526 255.57 47.64m-125.78 57.297s148.81 22.61 208.03 21.4m-23.17 69.038s60.166-2.826 89.08-7.626m-33.36 104.28s51.132-13.807 81.286-33.138m-5.9 133.24s39.333-15.188 58.343-56.61m37.69 93.545s30.48-27.27 32.45-57.64m81.61 81.47s-11.42-9.84-3.61-52.64m-11.15-62.82s-5.9-12.25-3.94-31.58m-211.08-581.29s68.83 27.62 91.77 65.59c22.94 37.97 7.83 74.88 0 96.05-3.94 10.64-52.45 104.16 4.59 171.82m-95.39 73.53s.33-.34 24.58-7.94m-169.78-91.47s41.02 8.26 81.28 8.63M1144.11 856.6s48.184 4.833 93.415 4.142m-165.19-109.77s69.486 13.807 106.85 14.5m-164.54-132.55s85.7 24.46 149.46 33.137m141.6 50.39s-61.62 57.3 12.455 110.46-30.81 48.32 30.81 98.72m-16.39 23.82s-9.17 92.15 103.57 92.16-21.63 82.15 87.19 79.39c0 0 12.458 65.58 91.12 52.46m-173.4 721.3s-17.84 3.97-56.54 0m-108.82 48.33s-54.41-8.28-51.79 109.77m84.57-82.84s-49.17-6.21-45.89 108.39m520.65-384.54s-23.6 4.83-39.99 23.47-47.853 15.19-47.853 15.19 17.048-13.81 22.948-48.33c5.9-34.52 24.91-44.87 24.91-44.87m-56.3-32.69s-23.6 4.83-39.987 23.47c-16.39 18.64-47.855 15.19-47.855 15.19s17.043-13.81 22.943-48.33c5.9-34.52 24.91-44.87 24.91-44.87m23.76 188.54s-20.606 4.22-34.915 20.49c-14.31 16.27-41.78 13.26-41.78 13.26s14.89-12.06 20.04-42.2c5.15-30.14 21.75-39.18 21.75-39.18" fill="none"/>
</g>
<use xlink:href="#a" transform="matrix(-1 0 0 1 647.2 0)" height="100%" width="100%" stroke="#010002" stroke-width="10"/>
<path d="M466.056 255.924l-14.32 61.816-5.907-4.244 13.93-59.222-9.72.178 23.07-42.248 1.53 48.71zm36.96 13.053L460.04 319.76l-4.654-5.21 42.816-50.14-8.66-4.648 39.204-25.896-20.358 43.77z" stroke="#010002" stroke-miterlimit="10" stroke-width="1.505" fill="#0081c6"/>
<path d="M492.614 242.044l-38.466 73.963-5.927-3.46 38.73-73.813-9.43-2.477 32.67-34.52-10.48 47.47z" stroke="#010002" stroke-miterlimit="10" stroke-width="1.505" fill="#0081c6"/>
<path stroke="#010002" stroke-width="1.506" stroke-miterlimit="10" d="M444.62 338.57l-2.88 11.78 7.887 7.86-11.15 47.092-9.915-13.32-14.694 6.858 11.15-47.093 10.336-2.88 2.682-11.76s3.127-1.225 6.583 1.464z" fill="#0081c6"/>
<path stroke="#010002" stroke-width="1.506" stroke-miterlimit="10" d="M447.27 330.8l-5.678 10.594 5.688 9.74-22.342 42.45-6.306-15.57-15.878 2.62 22.343-42.45 10.692.035 5.48-10.63s3.99-.01 6 3.21z" fill="#0081c6"/>
<path stroke="#010002" stroke-width="1.506" stroke-miterlimit="10" d="M448.22 333.88l-15.1 19.19 3.463 10.84-30.837 36.068-2.818-16.664-16.03-1.21 30.837-36.068 10.41 2.566 16.02-20.37s4.298 2.134 4.06 5.65zM65.52 288.9c3.6-1.47 6.193-2.888 6.182-6.73-.002-.916-.51-2.943-1.533-6.08L45.99 202.2c-1.432-4.39-2.514-7-3.017-7.962-1.087-2.08-3.22-2.928-6.094-4.125h30.73c-3.34 1.578-6.39 2.83-6.36 6.37.01 1.35.39 3.256 1.17 5.717l18.52 57.983L99.45 202.2c.785-2.46 1.19-4.366 1.177-5.718-.036-3.638-3.205-4.95-6.32-6.37h29.783c-2.723 1.092-4.942 1.947-6.082 4.126-.5.96-1.583 3.57-3.014 7.96l-24.175 73.89c-1.02 3.137-1.39 5.198-1.53 6.152 0 0-1.12 4.673 6.18 6.658H65.52zm515.24-7.6v-83.663c0-1.447-.238-2.556-.715-3.33-.477-.77-2.554-2.994-5.518-4.196h27.69c-2.964.99-5.04 3.37-5.518 4.17s-.72 1.92-.72 3.37v83.66c0 1.5.24 2.65.74 3.44.49.8 2.53 2.74 5.49 4.16h-27.7c2.96-1.35 5.04-3.42 5.52-4.19.47-.77.71-1.9.71-3.4z" fill="#0081c6"/>
<path stroke="#010002" stroke-width="1.506" d="M324.82 309.77s74.102-32.838 74.287-108.8h-148.57c.185 75.965 74.287 108.8 74.287 108.8z" fill="#fff"/>
<g stroke="#010002" stroke-width="10" fill="#a60032">
<path d="M261.956 200.96v48.536s5.676 11.257 11.428 18.317v-66.86h-11.428z" stroke-width="1.505"/>
<path stroke-width="1.506" d="M284.82 200.96v80.01s7.147 7.008 11.428 10.386v-90.4H284.82zm22.85 0v98.9s8.154 5.265 11.43 6.993v-105.89h-11.43zm80 0v48.537s-5.676 11.257-11.43 18.317v-66.86h11.43zm-22.85 0v80.01s-7.147 7.008-11.43 10.386v-90.4h11.43zm-22.86 0v98.9s-8.154 5.265-11.43 6.993v-105.89h11.43z"/>
</g>
<path stroke="#010002" stroke-width="1.506" stroke-miterlimit="10" d="M399.11 145.77s-36.36 19.02-74.287-1.56c-37.926 20.58-74.287 1.56-74.287 1.56v55.19h148.58v-55.19z" fill="#162667"/>
</svg>
