<svg xmlns="http://www.w3.org/2000/svg" version="1" xmlns:xlink="http://www.w3.org/1999/xlink" viewBox="0 0 640 480">
<path d="m0 0h640v480h-640z" fill="#fff"/>
<path stroke="#010002" stroke-width="1.506" stroke-miterlimit="10" d="m204.35 314.93s-0.518-3.508 6.144-6.08c6.66-2.573 7.18-12.162 5.847-18.554 0 0-3.48 6.08-7.7 8.107 0 0-6.883 3.586-7.198 10.436 0 0-0.055 2.506-0.573 4.454-0.284 1.067-3.332-8.574 2.442-15.746 5.958-7.4 7.624-13.408 2.886-25.1 0 0-0.444 7.093-5.107 11.146-4.662 4.054-5.255 4.366-5.18 14.032 0 0 0.074 3.352-1.703 4.443 0 0-3.627-5.302-4.59-8.81-0.96-3.507-1.405-4.99 2.74-9.042 0 0 13.28-8.58 3.7-27.362 0 0-0.295 6.47-4.884 10.29-4.59 3.82-4.22 6.392-4.442 13.018-0.22 6.626-0.665 6.16-1.183 7.094 0 0-8.438-15.513-1.924-23.776 6.513-8.263 10.14-9.978 2.96-25.335 0 0 0.32 7.874-5.43 11.77-5.747 3.9-4.414 13.02-4.414 13.02s0.37 3.43-0.815 5.924-8.13-15.858-0.37-24.398c6.587-7.25 7.032-12.317 3.48-22.607 0 0-0.446 4.755-4.072 7.328-3.627 2.572-6.514 5.145-5.848 15.045 0 0 0.296 6.937-0.592 8.886 0 0-3.405-6.314-4.367-10.445-0.962-4.133-1.333-6.55 1.184-10.68 2.517-4.132 12.51-15.98 0.592-33.053 0 0-0.37 5.535-3.405 10.524-3.035 4.99-1.628 10.914-0.962 15.435 0.666 4.522-1.554 8.887-1.554 8.887s-5.18-9.51-4.07-20.424c1.11-10.913-3.33-19.878-13.398-26.348 0 0-7.328 16.994 2.665 25.647 0 0 8.512 8.42 10.66 18.63 0 0-6.44-0.623-12.29-12.004-5.846-11.38-17.985-9.59-18.8-9.667 0 0 2 17.618 20.652 22.607 0 0 11.916 2.027 14.136 10.757 0 0 2 6.003 2.813 9.2 0 0-3.776-1.482-7.255-6.627-3.48-5.145-3.035-5.77-14.804-6.938 0 0-4.736-0.546-7.253-3.898 0 0 4.96 18.63 17.69 18.475 0 0 11.622-1.247 18.136 14.032 0 0-1.26-0.78-2.96-1.95-1.704-1.168-5.997-3.35-14.51-2.338-8.51 1.014-10.88-0.39-13.026-1.09 0 0 8.586 15.746 20.725 11.07 12.14-4.68 18.003 12.377 18.135 12.705 0 0-1.628-1.246-3.775-3.35-2.147-2.106-6.603-4.7-15.026-2.028 0 0-6.07 2.34-12.213 0.468 0 0 5.92 11.46 19.763 9.51 13.842-1.95 17.32 10.212 17.32 10.212s-1.85-1.09-3.108-2.105c-1.26-1.013-5.922-3.664-15.914-0.7-9.993 2.96-13.62-0.47-13.62-0.47s5.55 10.135 16.21 11.304 5.922-0.077 8.438-1.012c2.517-0.936 9.18-2.417 13.768 4.21 0 0-1.258 0.233-3.183-0.624 0 0-7.106-2.573-12.51 1.948 0 0-4.81 4.91-11.62 3.976 0 0 8.808 8.575 22.798 1.325 0 0 4.737-3.43 8.216-0.78 3.48 2.652 11.548-2.57 11.548-2.57z" fill="#369443"/>
<g stroke="#010002" stroke-width="10" stroke-miterlimit="10" fill="#f4c53d">
<path d="m1850.6 514.82s-10.794-96.36 66.208-105.63c80.303-9.665 119.96 7.25 119.96 7.25l36.055 70.762-12.455 47.636-49.82 22.783s8.52-73.18-58.56-74.702c-16.998-0.385-26.988 6.356-53.87 2.09-27.038-4.292-41.498 25.418-47.52 29.81z" transform="matrix(.15055 0 0 .15055 3.597 26.17)"/>
<path stroke-width="1.5055" d="m363.78 139.59c-1.727 2.234-8.635 3.014-8.635 3.014s7.106 5.457 10.165 13.252c3.06 7.795-82.357 0.052-82.357 0.052s3.702-2.65 6.22-7.64-3.776 1.404-7.55-2.338c0 0 2.81 0.935 6.512-4.677 0 0 5.478-7.017 9.327-8.888 0 0-1.778 1.092-6.07-1.247 0 0 7.4-0.935 10.066-13.564 0 0 0.444-2.805 3.256-6.858 2.813-4.054 2.22 0.78 7.402-5.457 0 0 2.37-4.417 0.296-7.12-2.072-2.702-4.293-1.714-8.635-4.313-4.343-2.598-6.267-4.053-4.787-8.055 1.48-4 5.33-3.378 5.872-3.378 0.543 0 0.84-3.483 5.577-5.873s17.32-1.35 19.195-0.312c1.875 1.04 9.474 3.274 13.915 14.5 4.44 11.224-1.184 15.434 10.906 32.375 0 0-4.836 1.04-7.945 0.104 0 0 6.266 11.12 17.27 16.422z"/>
<path stroke-width="1.5055" d="m310.93 92.217c-9.845-0.468-6.07-9.848-6.07-9.848" fill="none"/>
<path stroke-width="1.5055" d="m328.03 93.503s-1.74-0.818-3.21-2.767c-2.066-2.735-6.672-4.053-9.15-1.48 0 0-2.518 2.805-4.74 2.96 0 0 2.518 0.78 4.258 2.38 1.74 1.597 3.552 2.766 6.143 2.415 2.59-0.35 2.997-1.714 4.218-2.532 1.22-0.82 2.48-0.975 2.48-0.975z"/>
</g>
<path stroke="#010002" stroke-width="1.506" stroke-miterlimit="10" d="m202.81 336.46s-0.222-6.314 7.772-6.782l23.537 32.74s-0.888 2.103-11.547 1.87-1.128-0.008-1.72 1.24c-0.91 1.914-18.042-29.068-18.042-29.068z" fill="#369443"/>
<g id="a" stroke-width="10" stroke="#010002" fill="#f4c53d" transform="matrix(.15055 0 0 .15055 3.597 26.17)">
<path d="m1494.9 1807.9s-49.82 85.606-110.13 86.987-103.74-12.628-133.07 14.498c-20.454 18.916-41.3 34.52-49.82 82.846-8.523 48.326 16.387 58.682 22.287 60.753 0 0 4.59 34.518 38.676 25.543 0 0 1.967 35.9 62.276 18.64 60.31-17.26 85.22-11.736 97.02-71.8 11.8-60.06 22.693-59.078 33.43-66.275 14.423-9.665 41.518-18.8 61.62-30.376 18.062-10.4 87.187-45.565 110.79-48.326 23.6-2.76 18.355-82.154 18.355-82.154h-60.964l-29.498-43.493-60.964 53.156zm192-429.4s-60.965 49.707-112.1 0-20.65 24.853-61.948 17.604c-41.3-7.248-48.182-28.995-52.115-41.42 0 0-35.728 20.84-65.882 4.38-30.155-16.463-30.155-41.316-30.155-41.316s-52.443 10.338-79.32-25.207c-26.876-35.545-10.488-70.754 3.934-74.897 0 0-56.7 14.854-72.11-33.828-13.11-41.422 16.39-62.824 16.39-62.824s-119.47-0.574-168.47-37.97-40.643-25.544-16.388-52.468c0 0-107.51-17.26-134.38-60.062 0 0-11.8-11.736-7.866-32.448 0 0 0.656-11.736 12.455-12.427 0 0-122.6-18.937-157.98-59.372 0 0-17.044-18.64-8.522-43.492 0 0 1.803-6.56 4.753-10.96 0 0-111.6-23.56-166.67-73.266 0 0-31.787-28.32-15.4-66.29 0 0-186.5-51.073-143.24-133.23 0 0-87.185-28.305-59.653-107.01 0 0-72.11-36.59-40.643-94.58 30.114-55.5 122.58 9.664 232.08 39.96 0 0 296.28 93.28 442.19 118.11l414.57 617.22 241.89 93.2 24.58 172.59z"/>
<path d="m1689.9 923.87s-38.857-29.17-108.16 5.178-23.333 16.068-41.687-1.536c-15.336-14.71-16.775-41.83 4.322-57.49 51.623-38.316 70.798-153.26-7.866-200.9 0 0-114.06-67.656-532.32-174.1 0 0-35.044-9.717-53.727-5.057-20.572 5.13-34.743 22.782-37.65 37.886 0 0-18.715 53.188 44.206 83.62 0 0 28.408 13 57.687 21.402 0 0-32.16-6.952-45.887 24.853-13.11 30.375 5.9 61.442 64.898 81.463 0 0 15.958 6.21 38.677 11.736 0 0-50.476 14.497-26.22 55.23 0 0 21.632 42.802 98 50.396 0 0-57.03 6.213-16.715 60.408 0 0 17.7 29.686 73.42 40.732 0 0-42.282 1.38-20.977 39.35 21.305 37.972 71.44 59.373 120.78 62.825 0 0 26.72 1.382 45.403-2.76 0 0-46.87 23.473-19.338 62.824 0 0 20.32 27.96 71.125 26.58 0 0-13.187 43.944 24.09 60.58 29.008 12.943 53.1-7.768 53.1-7.768s-9.834 47.118 32.448 63.687 21.14 10.873 52.606 0c0 0 24.09 53.85 109.64 16.05 85.545-37.798 20.156-355.2 20.156-355.2zm5.1 489.43s-12.552 67.393-112.09 152.22-76.8 67.745-74.834 145.76c2.003 79.44-13.766 88.368-43.92 115.29 0 0 62.275 4.833 92.43-36.59 0 0-1.312 69.037-10.49 75.25 0 0 19.532 1.246 47.854-29.685 0 0 17.044-17.95 32.777-24.853 0 0-18.356 47.636-3.934 91.82 0 0 4.59-17.26 28.843-24.854 0 0 43.92-8.975 60.964-72.49 0 0 11.144-42.112 79.975-79.392 0 0 78.007-29.42 76.04-67.87-1.965-38.447-173.62-244.6-173.62-244.6z"/>
<path stroke-miterlimit="10" d="m2056.5 2282.2s-17.87 78.856-79.975 72.49-43.922-4.143-40.644-77.323c0 0-64.898 34.518-75.386-51.088 0 0-58.998 13.807-58.342-66.276 0 0-55.065 9.665-48.51-61.443 0 0-59.653 15.88-59.653-51.088 0 0-139.63-23.157 151.43-288.58l259.59 154.64-48.51 368.66z"/>
<path d="m2085.4 1928.3s-43.265 38.385-74.075-18.915-41.954-2.07-48.51-33.828c0 0-34.087-3.452-40.642-35.9 0 0-46.542-4.832-45.23-44.183 0 0-84.62-6.53-0.028-102.33 84.59-95.802 228.15 158.94 228.15 158.94l-19.667 76.215zm48.2-23.8c41.94 0 89.463 262 77.13 419.84-4.48 57.328-35.19 104.15-77.13 104.15s-72.65-46.824-77.13-104.15c-12.333-157.85 35.19-419.84 77.13-419.84"/>
<ellipse cy="1902.5" cx="2133.6" rx="58.032" ry="85.951"/>
<path stroke-miterlimit="10" d="m1935.9 2277.3s6.555-138.76 126.82-337.59m-202.21 286.51s-18.683-80.083 150.77-316.88-19.666-56.612 40.643-92.856m-249.76 343.46s-5.243-86.642 160.61-284.43-14.65-51.088 45.445-91.82m-254.56 314.81s6.228-87.677 168.47-258.89-8.117-52.468 50.023-84.916m-278.15 292.72s11.8-100.1 182.9-251.99-5.9-39.35 51.132-79.393" fill="none"/>
<path d="m372.26 431.98s134.38 77.806 552.9 155.61m-493.25-48.61s363.72 118.65 533.1 133.23m-389.86 0s213.37 66.98 463.24 109.25m-281.17 30.31s241.07 57.905 356.16 67.515m-194.41 46.31s203.91 42.526 255.57 47.64m-125.78 57.297s148.81 22.61 208.03 21.4m-23.17 69.038s60.166-2.826 89.08-7.626m-33.36 104.28s51.132-13.807 81.286-33.138m-5.9 133.24s39.333-15.188 58.343-56.61m37.693 93.545s30.48-27.27 32.448-57.647m81.614 81.464s-11.413-9.845-3.605-52.64m-11.145-62.825s-5.9-12.254-3.933-31.585m-211.08-581.29s68.83 27.615 91.775 65.585c22.944 37.97 7.833 74.873 0 96.047-3.936 10.64-52.443 104.16 4.59 171.82m-95.382 73.525s0.33-0.345 24.584-7.94m-169.78-91.473s41.026 8.26 81.286 8.63m-137.99-109.77s48.183 4.833 93.414 4.142m-165.19-109.77s69.486 13.808 106.85 14.5m-164.54-132.55s85.7 24.46 149.46 33.138m141.6 50.397s-61.62 57.3 12.455 110.46-30.81 48.325 30.81 98.722m-16.388 23.82s-9.177 92.154 103.57 92.16-21.633 82.157 87.186 79.396c0 0 12.455 65.585 91.12 52.468m-173.4 721.3s-17.84 3.97-56.54 0m-108.82 48.326s-54.41-8.286-51.787 109.77m84.565-82.845s-49.165-6.213-45.887 108.39m520.65-384.54s-23.6 4.833-39.988 23.473c-16.39 18.64-47.854 15.188-47.854 15.188s17.044-13.807 22.944-48.326c5.9-34.52 24.91-44.875 24.91-44.875m-56.3-32.688s-23.598 4.833-39.986 23.473c-16.388 18.64-47.854 15.188-47.854 15.188s17.044-13.807 22.944-48.326c5.9-34.52 24.91-44.874 24.91-44.874m23.76 188.54s-20.604 4.22-34.913 20.495c-14.31 16.275-41.783 13.26-41.783 13.26s14.882-12.055 20.033-42.194c5.15-30.14 21.75-39.18 21.75-39.18" fill="none"/>
</g>
<use xlink:href="#a" transform="matrix(-1 0 0 1 647.2 0)" height="100%" width="100%" stroke="#010002" stroke-width="10"/>
<path d="m3071.8 1526.1l-95.112 410.6-39.245-28.193 92.585-393.37-64.56 1.186 153.25-280.63 10.213 323.55zm245.5 86.7l-285.48 337.32-30.913-34.605 284.4-333.05-57.53-30.873 260.41-172.01-135.22 290.73z" transform="matrix(.15055 0 0 .15055 3.597 26.17)" stroke="#010002" stroke-miterlimit="10" stroke-width="10" fill="#0081c6"/>
<path d="m3248.2 1433.9l-255.5 491.29-39.372-22.983 257.22-490.29-62.65-16.452 217-229.3-69.652 315.31z" transform="matrix(.15055 0 0 .15055 3.597 26.17)" stroke="#010002" stroke-miterlimit="10" stroke-width="10" fill="#0081c6"/>
<path stroke="#010002" stroke-width="1.506" stroke-miterlimit="10" d="m444.62 338.57l-2.88 11.78 7.887 7.86-11.15 47.092-9.915-13.32-14.694 6.858 11.15-47.093 10.336-2.88 2.682-11.76s3.127-1.225 6.583 1.464z" fill="#0081c6"/>
<path stroke="#010002" stroke-width="1.506" stroke-miterlimit="10" d="m447.27 330.8l-5.678 10.594 5.688 9.74-22.342 42.45-6.306-15.57-15.878 2.62 22.343-42.45 10.692 0.035 5.483-10.627s3.988-0.008 5.998 3.21z" fill="#0081c6"/>
<path stroke="#010002" stroke-width="1.506" stroke-miterlimit="10" d="m448.22 333.88l-15.1 19.19 3.463 10.84-30.837 36.068-2.818-16.664-16.03-1.21 30.837-36.068 10.41 2.566 16.02-20.37s4.298 2.134 4.06 5.65zm-382.7-44.98c3.6-1.47 6.193-2.888 6.182-6.73-0.002-0.916-0.51-2.943-1.533-6.08l-24.177-73.89c-1.432-4.39-2.514-7-3.017-7.962-1.087-2.08-3.22-2.928-6.094-4.125h30.729c-3.338 1.578-6.382 2.83-6.353 6.37 0.01 1.35 0.39 3.256 1.175 5.717l18.52 57.983 18.504-57.983c0.785-2.46 1.19-4.366 1.177-5.718-0.036-3.638-3.205-4.95-6.32-6.37h29.783c-2.724 1.092-4.943 1.947-6.083 4.126-0.503 0.96-1.585 3.57-3.016 7.96l-24.175 73.89c-1.023 3.137-1.393 5.198-1.534 6.152 0 0-1.112 4.673 6.183 6.658h-29.95zm515.24-7.6v-83.663c0-1.447-0.238-2.556-0.715-3.33-0.477-0.77-2.554-2.994-5.518-4.196h27.689c-2.963 0.982-5.04 3.366-5.517 4.162s-0.715 1.918-0.715 3.366v83.66c0 1.497 0.247 2.643 0.74 3.44 0.494 0.795 2.53 2.738 5.493 4.16h-27.7c2.964-1.348 5.04-3.425 5.518-4.197 0.477-0.77 0.715-1.905 0.715-3.4z" fill="#0081c6"/>
<path stroke="#010002" stroke-width="1.506" d="m324.82 309.77s74.102-32.838 74.287-108.8h-148.57c0.185 75.965 74.287 108.8 74.287 108.8z" fill="#fff"/>
<g stroke="#010002" stroke-width="10" fill="#a60032">
<path d="m1716.1 1161v322.4s37.7 74.773 75.912 121.67v-444.1l-75.912-0.002z" transform="matrix(.15055 0 0 .15055 3.597 26.17)"/>
<path stroke-width="1.5055" d="m284.82 200.96v80.01s7.147 7.008 11.428 10.386v-90.4h-11.428zm22.85 0v98.9s8.154 5.265 11.43 6.993v-105.89h-11.43zm80 0v48.537s-5.676 11.257-11.43 18.317v-66.86h11.43zm-22.85 0v80.01s-7.147 7.008-11.43 10.386v-90.4h11.43zm-22.86 0v98.9s-8.154 5.265-11.43 6.993v-105.89h11.43z"/>
</g>
<path stroke="#010002" stroke-width="1.506" stroke-miterlimit="10" d="m399.11 145.77s-36.36 19.02-74.287-1.56c-37.926 20.58-74.287 1.56-74.287 1.56v55.19h148.58v-55.19z" fill="#162667"/>
</svg>
