<svg xmlns="http://www.w3.org/2000/svg" viewBox="0 0 950 570" xmlns:xlink="http://www.w3.org/1999/xlink">
<path fill="#d21034" d="M0 0h950v285H0z"/>
<path fill="#009543" d="M0 285h950v285H0z"/>
<path d="M0 0l552.81 285L0 570z"/>
<path d="M0 234h950v102H0z"/>
<path d="M0 40.502l474.25 244.5L0 529.502z" fill="#fdce12"/>
<path fill="#fdce12" d="M0 270h950v30H0z"/>
<path d="M0 74.255l408.78 210.74L0 495.735z"/>
<path d="M115.48 339.52V372c28.25 0 83.7-21.65 83.7-91.36 0-69.7-59.14-82.64-76.83-82.64S50 210.67 50 267.71c0 57.03 53.6 62.31 64.16 62.31s50.17-9.51 45.68-52.28c0 12.14-13.73 37.76-42.51 37.76-28.78 0-46.735-21.39-46.735-42.51 0-21.13 17.426-49.38 47.785-49.38 30.37 0 52.55 26.93 52.55 54.13s-21.39 61.78-55.45 61.78z" fill="#fdce12"/>
<g id="a" fill="#fdce12">
<path stroke="#fdce12" d="M90.728 297.24l1.683 1.09s13.37-30.49 49.31-52.18c-4.56 2.48-28.62 14.46-50.99 51.09z"/>
<path d="M94.193 292s-4.158-8.52-.495-12.28c3.664-3.76 1.98 10 1.98 10l1.585-2.28s-2.476-10.39.297-12.57c2.77-2.18 1.386 10 1.386 10l1.684-2.18s-1.783-10.1.89-11.98c2.67-1.88.99 9.51.99 9.51l1.98-2.28s-1.48-9.61 1.78-11.88c3.27-2.28.4 9.1.4 9.1l2.18-2.37s-.99-8.81 1.78-10.79.4 8.31.4 8.31l1.98-2.08s-.6-8.21 2.07-10.09c2.68-1.89.2 7.82.2 7.82l2.08-1.98s-.49-8.22 2.87-9.81c3.37-1.58-.59 7.73-.59 7.73l2.28-1.98s.69-9.61 3.56-10.5-1.28 8.52-1.28 8.52l2.07-1.69s1.09-8.21 4.26-9.21c3.17-.98-1.98 7.53-1.98 7.53l2.08-1.58s2.28-8.22 5.25-9.11-3.07 7.72-3.07 7.72l1.98-1.39s3.27-7.42 5.94-7.92c2.67-.49-2.97 6.14-2.97 6.14l2.48-1.48s4.25-7.73 5.74-5.35c1.48 2.38-5.94 5.84-5.94 5.84l-2.48 1.39s9.01-4.26 10.1-2.08-12.38 3.56-12.38 3.56l-2.17 1.49s9.01-2.48 7.92-.2-10 1.78-10 1.78l-2.08 1.49s9.01-2.18 7.82-.1-10 1.88-10 1.88l-2.18 1.78s8.81-2.28 7.53.4c-1.29 2.67-11.29 2.57-11.29 2.57l-2.48 2.28s9.31-3.17 8.52-.69c-.79 2.47-11.39 3.76-11.39 3.76l-2.38 2.37s10-3.36 7.04-.29c-2.98 3.07-10.2 3.86-10.2 3.86l-2.88 3.47s9.91-5.95 8.52-2.58-11.09 5.64-11.09 5.64l-1.98 2.38s8.91-5.15 8.02-2.28c-.89 2.88-10.4 5.94-10.4 5.94l-1.58 2.18s10.49-6.24 9.6-3.07-10.887 5.45-10.887 5.45l-1.287 1.98s9.704-5.54 9.804-2.87-11.39 5.35-11.39 5.35l-.197-2.28z"/>
</g>
<use xlink:href="#a" transform="matrix(-1 0 0 1 238.5 0)"/>
</svg>
