<svg viewBox="0 0 2100 1400" xmlns="http://www.w3.org/2000/svg">
<path fill="#198a00" d="M0 0h2100v1400H0z"/>
<path fill="#ef7d00" d="M1850 500h250v900h-250z"/>
<path d="M1600 500h250v900h-250z"/>
<path fill="#de2010" d="M1350 500h250v900h-250z"/>
<g stroke-linejoin="round" stroke="#000" stroke-width="2.25" stroke-linecap="round" fill="#ef7d00">
<path d="M1916.4 168.33s86-33.7 94.4-40.65c3.7 4.17-34.5 46.56-108.8 62.2 67.5-14.6 125.1-60.46 136.8-59.07 3.4.69 2.6 44.82-151.9 83.05 106.8-25.72 168.9-72.98 168.2-67.76.7 1.04-10.6 37.18-104.2 65.32 26.1-5.56 97-45.17 96.2-37.53 2.3 3.13-68.5 86.53-196.6 59.43 102.3 24.32 168.6-34.41 178.1-33.36 1.9.34-19 51.42-147.8 54.55 61.8-5.91 44-.35 44-.35s-36.4 26.06-80.4 8.34c34.5 8.69 38.3 9.04 39.1 11.82-2.3 3.47-30.7 8.69-58-4.87 22 8.34 41.7 9.73 42.1 12.86-.4 1.04-14.4 8.34-26.9 3.13-12.5-5.22-127.7-70.19-127.7-70.19l196.2-49.35zm-230.7 175.78c-17.2 0-17.7 14.08-17.7 14.08s-1.4 1.02-.5 7.84c2.9-4.64 4.3-6.1 4.3-6.1 1.9.29 9.8 2.47 22.3-6.53-11.4 10.89-4.6 14.96-4.6 14.96s-2.7 8.56 6 10.31c-2.7-3.49-1.1-6.54-1.1-6.54s12.2-1.16 11.4-14.81c.5 12.34 7.8 15.39 7.8 15.39s0 6.83 7.9 7.41c-4.3-3.49-3.3-8.86-3.3-8.86s10.3-6.83 1.6-18.44c5.2-2.76 9.5-10.46 9.5-10.46s-7.2-2.76-10.5-5.08c-1.6-3.05-.2-19.75-.2-19.75l-4.2-21.64-12.2 33.69c.5-4.79.8 14.53-16.5 14.53z"/>
<path d="M1770.9 295.51c.4.35 12.9 13.21 25 12.51 4.6-3.47-9.4-11.12-9.4-12.85 4.9 4.17 25.7 20.5 39 14.59 5.3-6.95-9.5-5.91-25.8-24.67 11.4 6.95 39.8 22.24 53.1 16.33 5.7-5.56-29.6-22.93-41.3-36.49l-30.3-14.24-41.3 30.93zm-46.6-105.63s14.1-7.65 70.1-3.82c6.1.69 38.3-10.08 48.5-13.21 16.3-2.78 68.2-13.2 82.2-22.93 9.9-1.04-2.6 16.68-15.1 20.85-13.3 5.56-61.4 20.85-78.4 18.76 20.4.35 9.1 15.64-25 8.34 16.2 8.34 10.2 9.73 10.2 9.73s-28.8 1.39-36.4-4.52c19.3 6.61 11.4 9.04 11.4 9.04s-19.7 1.74-28.8-2.09c14 3.83 6.8 6.26 6.8 6.26s-11.4 1.73-20.8-1.39c-9.5-3.13-23.9-25.02-24.7-25.02zm22.5 112.84l2.1 33.98s-1.1 1.74-2.1 2.76c-.9 1.01-26.3-3.63-22.8 14.08 0 7.26.2 9.15 5.6 13.22-1.5-4.79-1-8.13-1-8.13s7.1 3.92 14.1-6.83c-4.7 10.6-1.4 14.38-.3 14.67 1.1 1.89-1.9 10.45 7.6 10.31-3.6-3.2-1.9-7.84-1.9-7.84s10-1.45 6.5-18.01c3.6-3.34 5.1-.15 5.1-.15s1.1 9.88 9.8 7.85c3.9 2.03-.7 7.4-.7 7.4s6.4.15 8.3-4.79 4.1-13.8-6.4-17.43c-1.2-3.48 4.2-3.77 4.2-3.77s6.6 2.03 8.5 5.08 1.3-7.99-7-9.15c-10.1-.29-10.7-2.18-10.7-2.61 0-.44-1.8-24.69-2.6-31.66z"/>
<path d="M1782.1 331.67c.1-1.55-17.3-23.05-12.9-25.83 4.4.83 11.7 10.61 17.5 7.44-1.8-3.82-7-1.67-12.9-11.43-6-11.03-6.9-27.59-27.7-45.66 13.5 19.12 44.1 30.33 45.4 24.75 1.3-5.57-27-26.65-25.5-31.73 5.6 10.43 34 33.68 54.9 31.75 1.4-4.47-17.2-13.51-21.9-21.94-13.4-8.22-49.1-36.46-49.8-43.01-13-17.39-21.1-22.65-24.9-24.65-1.5-1.58-1.8-3.09-2.1-4.04-8.1-17.45 2.6-23.12 8.9-23.95 5.1-.53 6.6.18 10.3-1.47-4.4-1.57-8.8-3.04-13.1-4.62 5.7 3.85 20.3.46 17.1 11.54 6.4-2.23 20-17.1-15.4-20.45-11.6-12.15-59-19.13-70.9 33.88.9.75 1.4 1.36 4.4 3.42-14.9-6.66-55.4-11.8-69.9-13.96-39.4-10.41-80.3-35.52-84.2-32.43-5.3 2.14 23.8 26.92 22.3 27.47-25.2-13.47-48.2-23.01-69.6-31.69-15.1-5.16-30.2-17.18-31.8-14.89-5.6 10.53 24.1 36.99 29.6 40.11 5.6 2.97 49 21.45 48.3 21.68-65.4-27.23-76.3-32.17-79.6-35.3-5.8-1.2-19.8-18.59-23.7-17.47-2.2 1.93 2.1 29.41 33.3 41.75 5.1 3.4 66.9 23.73 66.3 25.33-.1.4-70.8-26.74-73.5-27.71-13.6-4.9-30.4-22.08-33.5-20.14-3 1.75 7.7 20.33 21.5 26.16 7.2 2.92 34.9 15.49 59.8 23.5 1.6.52-44.8-16.15-67.1-24.7-10.1-5.15-14.9-11.57-16.4-10.18-2.3 1.38 3.6 28.83 75.3 44.33 1.9.73 25.3-5.08 24.1-4.31-.3.2-23.2 4.77-25.4 4.61-2-.28-14.5 1.36-14.7 1.96-.8 1.86 4.5 11.69 41.5 9.64 4.8-.26 30.4-8.58 28.3-6.79-1.1.89-35 11-37.6 11.19-2.2.3-14.1 1.44-14.6 2.6-.5 1.58 8.8 8.58 28.7 9.7 17.6.86 51.1-9.86 50.4-9.17-.7.7-32.2 10.62-33.1 11.22-1.1.6-12.7 1.17-13.1 1.99-.9 2.02 16.7 17.13 68.8 1.01-5.2 6.48-30.5 10.92-30.4 12.09-.2.84 5.5 5.88 14.3 7.68 4.5.9 10.5.72 16-.08 9.9-1.82 20.4-5.42 33.7-16.68 1.6 3.53-33.2 19.67-31.6 21.21 7.6 6.41 32.6-.83 34.3-1.67 1.6-.84 48.2-24.93 48-27.72.7 3.57-60 33.86-59.4 35.1 3.9 5.71 24.7-.3 25.7-.82 1-.53 26.5-13.16 27.2-13.54.7-.37-30 16.47-27.3 19.03-1.3 10.93 47.9-7.54 51.8-9.85 1.9-1.15-23.7 10.32-23.7 15.76 8.2 12.77 34.6 8.72 38.6 5.91 2.1-1.4-2.4 9.49-.9 8.5.5-.2 5.7-5.89 7.7-10-.6 3.57-3.5 9.19-5.2 15.64s-2.2 13.73-4.5 21.46c-.5 3.39 16.3-6.64 13.8-30.63 1.5 12.48-5.3 35.81-3.5 37.02 3.5 2.43 13.3-11.62 14.2-21.12 2.9 4.8 9 14.82 14.2 17.12-.5-7.26.1-6.92-2.2-14.06 1.3-9.47 1.5-22.58 1.9-37.38 14.2 24.95 19.8 35.48 15.9 54.59 4.2 1.61 10.9-13.34 10.4-21.03 5.4 21.38 28.8 24.59 29.2 23.96z"/>
<path d="M1545.6 173.29s-9.7 6.69-21.7 6.3c3 11.03 27.9 2.56 27.9 2.56s-12 12.21-20.6 14.18c5.1 3.94 26.8 2.56 30.5.59 3.6-1.96 10.1-9.65 10.1-9.65s-22.4 23.64-25.6 23.44c-.4 2.76 23.4 1.78 28.4-2.36 4.9-4.14 17.4-10.24 17.4-10.24s-32.7 20.88-34.2 20.88c12.3 2.95 36.7-3.55 52.4-12.41-23.2 14.18-25.3 16.74-37.1 21.47 10.5 2.16 15.9 8.66 51.5-5.52 20.4-8.86 32-25.01 32-25.01-12.7 15.56-32.6 28.76-54.8 41.76-1.2 2.36 23.7 12.01 55.4-18.32m61 18.12s2.2 9.26 10.8 16.35 9.2 13.98 9.2 13.98m-24.3-90.61s3.1 8.28 11.9 13.59c9 5.32 22.5 22.07 23.6 25.02 1 3.58 6.2 29.35 5.8 32.11"/>
<path d="M1659.2 191.61c.6 3.15-12.7 19.1 5.6 37.82-16.6 18.51-16.6 20.88-16.6 20.88s9.3 4.72 25.8-8.28c27.3 30.73 18.2 44.79 18.2 44.79"/>
<path d="M1690 265.13s-2.5-3.3 2-15.63c4 4.46 8.5 5.41 10.5 7.22 1.9 1.8 22.5 4.53 23.8 17.16m-12.1-124.45c0-.93-4.1-9.09-19.6 1.12 8.3.46 16.5 4.82 19.6-1.12zm147.7 37.32c.7.35 46.2 9.38 61.3 4.87-19.3 23.63-57.9 7.64-57.9 7.64 18.9 5.21 19.7 4.87 25.7 9.73 1.9 4.52-34.8 2.43-46.9-3.82 33.7 9.73 34.4 9.03 35.6 12.85 1.5 5.22-55.3-1.39-60.3-8.33 15.2 10.77 23.5 12.85 31.9 17.72-10.3 4.17-29.2 8.34-64.1-14.25 45.9 38.22 87.2 35.79 93.6 42.74-15.9 21.55-77.7-12.86-106.1-30.23s62.2 42.05 70.5 41c-4.2 5.91-34.1.7-36-2.08m64.4-37.88c-5.3.7-21.2.7-23.5.35m-317.8-60.08s34.5 16.75 49.1 15.57c-3.8 3.34-9.6 4.72-9.6 4.72 3.6 1.38 13.7 6.31 29 3.15-3.7 3.35-8.4 7.1-8.4 7.1s13.1 4.53 27.9-2.56c-4.5 5.12-7.1 8.86-7.1 8.86l10.3.59"/>
</g>
</svg>
