<svg xmlns="http://www.w3.org/2000/svg" viewBox="0 0 252 126">
<path fill="#319208" d="M0 0h252v126H0z"/>
<path fill="#FFD200" d="M0 18h252v90H0z"/>
<path fill="#DE2010" d="M0 36h252v54H0z"/>
<path d="M0 54h252v18H0z"/>
<path d="M4.583 0l84 63-84 63H0V0h4.583z"/>
<path d="M0 0l84 63-84 63" fill="#FFF"/>
<path fill="#DE2010" d="M46.16 66.045L64.435 53.11l-21.03-3.054L34 31l-9.405 19.056-21.03 3.055L21.84 66.05l-4.004 19.2L34 76l16.164 9.248z"/>
<path d="M28.635 55.11c1.976 4.304 2.47 4.587 7.41 6.28 4.94 1.695 18.9 3.3 20.275 3.46-.9-.9-16.62-12.546-19.85-14.876-3.23-2.33-4.13-3.388-4.13-3.388s-2.91-5.24-3.916-6.776c-1.006-1.535-2.858-3.705-5.293-3.705s-3.91 1.43-4.62 3.97c-.39.106-2.47 1.376-2.4 2.682.6-.07 4.38-1.13 5.68 3.14s1.38 11.258.04 14.717-3.42 6.07-3.42 9.105c0 .42.28 1.27.99 1.27.25 1.34 2.23 10.9 2.23 10.9h28.16l4.47-17.29" fill="#FFC618"/>
<g stroke="#000" stroke-width=".212" fill="none">
<path d="M28.635 55.11c1.976 4.304 2.47 4.587 7.41 6.28 4.94 1.695 18.9 3.3 20.275 3.46-.9-.9-16.62-12.546-19.85-14.876-3.23-2.33-4.13-3.388-4.13-3.388s-2.91-5.24-3.916-6.776c-1.006-1.535-2.858-3.705-5.293-3.705s-3.91 1.43-4.62 3.97c-.39.106-2.47 1.376-2.4 2.682.6-.07 4.38-1.13 5.68 3.14s1.38 11.258.04 14.717-3.42 6.07-3.42 9.105c0 .42.28 1.27.99 1.27.25 1.34 2.23 10.9 2.23 10.9h28.16l4.47-17.29"/>
<path d="M19.39 70.99s6-.353 7.623-.353c1.623 0 16.734.02 25.165 1.968"/>
<path d="M21.508 70.87s-.6-.727-.213-2.174 4.623-5.188 4.623-10.48m-.776 12.42s-.494-2.363 4.905-4.375c1.518-.45 5.858-2.89 6-4.87m-6.574 5.1s13.243.06 23.724 2.18"/>
<path d="M32.793 64.905s4.55.156 5.292-.056 2.053-.77 2.575-2.32m-5.17 2.42s2.434-1.27 2.91-2.92M28.14 81.89s-1.04-7.216-1.252-11.257l2.717 2.594 2.875-2.51 2.472 2.637 2.858-2.425 2.47 2.78 2.83-2.41 2.253 2.62 2.822-2.04 3.355 3.19m-.59 2.27c-10.08-1.45-23.57-1.35-23.57-1.35m-4.686-24.94s8.2-3.92 9.647-4.47"/>
</g>
<g stroke="#000" transform="translate(16 36) scale(.21174)" fill="none">
<path d="M52.487 177.09l13.018 11.85 11.762-11.76 11.896 12.26 12.847-11.36 11.83 12.43 13.34-11.01 10.89 12.73 13.27-10.15 13.95 12.32"/>
<circle cy="154.58" cx="89.425" r="5.167"/>
<circle cy="156.05" cx="111.24" r="5.167"/>
<circle cy="16.5" cx="30.05" r="4"/>
</g>
</svg>
