<svg id="zimbabwe_flag" xmlns="http://www.w3.org/2000/svg" viewBox="0 0 252 126">
<rect width="252" height="126" fill="#319208"/>
<rect y="18" width="252" height="90" fill="#FFD200"/>
<rect y="36" width="252" height="54" fill="#DE2010"/>
<rect y="54" width="252" height="18"/>
<path d="m4.583 0l84 63-84 63h-4.583v-126h4.583z"/>
<path d="m0 0l84 63-84 63" fill="#FFF"/>
<polygon points="46.161 66.045 64.434 53.111 43.405 50.056 34 31 24.595 50.056 3.566 53.111 21.839 66.045 17.836 85.248 34 76 50.164 85.248" fill="#DE2010"/>
<path d="m28.635 55.109c1.976 4.305 2.47 4.588 7.411 6.282 4.94 1.694 18.898 3.3 20.274 3.458-0.9-0.9-16.621-12.545-19.85-14.875-3.229-2.329-4.129-3.388-4.129-3.388s-2.911-5.24-3.917-6.776c-1.006-1.535-2.858-3.705-5.293-3.705s-3.917 1.429-4.623 3.97c-0.388 0.106-2.47 1.376-2.4 2.682 0.6-0.071 4.376-1.129 5.682 3.141s1.376 11.257 0.035 14.716-3.423 6.07-3.423 9.105c0 0.423 0.282 1.27 0.988 1.27 0.247 1.341 2.223 10.904 2.223 10.904h28.161l4.473-17.292" fill="#FFC618"/>
<g stroke="#000" stroke-width=".2117" fill="none">
<path d="m28.635 55.109c1.976 4.305 2.47 4.588 7.411 6.282 4.94 1.694 18.898 3.3 20.274 3.458-0.9-0.9-16.621-12.545-19.85-14.875-3.229-2.329-4.129-3.388-4.129-3.388s-2.911-5.24-3.917-6.776c-1.006-1.535-2.858-3.705-5.293-3.705s-3.917 1.429-4.623 3.97c-0.388 0.106-2.47 1.376-2.4 2.682 0.6-0.071 4.376-1.129 5.682 3.141s1.376 11.257 0.035 14.716-3.423 6.07-3.423 9.105c0 0.423 0.282 1.27 0.988 1.27 0.247 1.341 2.223 10.904 2.223 10.904h28.161l4.473-17.292"/>
<path d="m19.39 70.99s5.999-0.353 7.623-0.353c1.623 0 16.734 0.019 25.165 1.968"/>
<path d="m21.508 70.871s-0.601-0.728-0.213-2.175 4.623-5.188 4.623-10.481"/>
<path d="m25.142 70.637s-0.494-2.364 4.905-4.376c1.518-0.459 5.858-2.894 5.999-4.87"/>
<path d="m29.473 66.485s13.243 0.058 23.724 2.175"/>
<path d="m32.793 64.905s4.551 0.156 5.292-0.056 2.053-0.762 2.575-2.313"/>
<path d="m35.49 64.959s2.434-1.265 2.911-2.911"/>
<path d="m28.141 81.894s-1.041-7.216-1.253-11.257l2.717 2.594 2.875-2.514 2.472 2.638 2.858-2.425 2.471 2.778 2.83-2.407 2.252 2.618 2.822-2.041 3.355 3.189"/>
<path d="m50.951 77.345c-10.081-1.444-23.57-1.35-23.57-1.35"/>
<path d="m22.694 51.052s8.2-3.918 9.647-4.465"/>
</g>
<g stroke="#000" transform="matrix(.21174 0 0 .21174 16 36)" fill="none">
<polyline points="52.487 177.09 65.505 188.94 77.267 177.18 89.163 189.44 102.01 178.08 113.84 190.51 127.18 179.5 138.07 192.23 151.34 182.08 165.29 194.4"/>
<circle cy="154.58" cx="89.425" r="5.167"/>
<circle cy="156.05" cx="111.24" r="5.167"/>
<circle cy="16.5" cx="30.05" r="4"/>
</g>
</svg>
