<svg xmlns="http://www.w3.org/2000/svg" viewBox="0 0 1600 960"><defs><clipPath id="a"><path d="M0 720h1200V0H0z"/></clipPath><clipPath id="b"><path d="M747.437 712.492h294.403V363.937H747.437z"/></clipPath><clipPath id="c"><path d="M0 720h1200V0H0z"/></clipPath><clipPath id="d"><path d="M146.824 352.288h294.405V3.733H146.824z"/></clipPath></defs><path d="M0 960h1600V0H0z" fill="#002395"/><path d="M853.11 310.148h34.187v73.036h-34.186zm131.557 0h34.186v73.036h-34.186zm131.554 0h34.187v73.036h-34.187zm131.556 0h34.187v73.036h-34.187zm131.556 0h34.187v73.036h-34.187zM918.888 203.481h34.187v73.036h-34.187zm131.556 0h34.187v73.036h-34.187zm131.556 0h34.187v73.036H1182zm131.555 0h34.186v73.036h-34.186zM853.11 96.815h34.187v73.036h-34.186zm131.557 0h34.186v73.036h-34.186zm131.554 0h34.187v73.036h-34.187zm131.556 0h34.187v73.036h-34.187zm131.556 0h34.187v73.036h-34.187zm-460.445-33.63h34.185V0h-34.185zm131.556 0h34.185V0h-34.185zm131.556 0h34.185V0H1182zm131.555 0h34.185V0h-34.185zM800 276.519h21.52V203.48H800zm0-213.334h21.52V0H800zm645.11 140.296h34.187v73.036h-34.186zM918.888 479.999h34.185v-63.184h-34.185zm131.556 0h34.185v-63.184h-34.185zm131.556 0h34.185v-63.184H1182zm131.555 0h34.185v-63.184h-34.185zm-513.555 0h21.52v-63.184H800zm645.11 0h34.186v-63.184h-34.185zm65.778-169.851h34.187v73.036h-34.187zm0-213.333h34.187v73.036h-34.187zm-65.778-33.63h34.186V0h-34.185zm131.557 213.334H1600V203.48h-23.333zm0-213.334H1600V0h-23.333zm0 416.814H1600v-63.184h-23.333z" fill="#ffd203"/><g clip-path="url(#a)" transform="matrix(1.33333 0 0 -1.33333 0 960)"><g clip-path="url(#b)"><path d="M978.507 486.944c4.51.19 9.382 5.18 17.124-3.492 1.61 3.246 1.448 7.433-2.125 9.946 5.259 3.411 10.903 12.22 12.489 17.507 2.067 6.888 3.373 14.94 8.84 16.933 2.9 1.057 5.616-1.027 5.366-4.59-.542-7.738-3.224-6.074-6.067-16.518-1.067-3.922 1.04-10.074 10.115-8.717-3.842 1.773-4.045 4.113-3.63 7.207.72 5.37 10.07 11.66 11.047 20.483 1.15 10.377-7.332 15.047-11.541 15.448-5.636.537-12.503-3.01-16.653-10.048-2.193 10.25 4.98 20.22 12.759 24.987 6.516 3.996 13.918 7.492 17.545 13.248 4.089 6.49 3.266 14.654-.928 18.677-.215-3.882-2.934-10.4-11.076-14.574-9.884-5.066-19.44-7.974-27.421-22.412-1.675 25.832 26.036 35.9 37.55 43.897 14.289 9.926 9.622 31.554 5.284 34.507.25-3.622.4-9.293-3.916-15.999-4.993-7.758-13.726-11.274-24.261-17.07-10.48-5.763-19.177-14.97-23.303-24.63-1.136 6.52 3.694 15.965 9.778 22.58 6.302 6.85 13.83 12.857 18.112 16.484 8.527 7.227 20.95 17.23 22.24 39.165.91 15.426-6.768 26.23-17.534 30.737-6.314 2.645-15.57 3.041-21.943 1.612-3.2-.717-6.386-1.82-9.38-3.618-2.107-1.266-5.743-.487-5.378 3.19.43 4.333 6.62 4.653 7.279 9.73.544 4.19-2.641 7.557-6.012 9.223.844-2.566-.071-5.543-1.84-8.513-2.305-3.87-7.526-3.458-8.206-10.78-.336-3.664 2.108-7.794 5.576-8.819.41-.25 1.1-.805.807-1.207-3.827-5.25-4.52-12.195-4.132-17.012.648-8.043 3.43-10.879 3.467-18.328.012-2.322.008-9.017-2.787-13.43-3.444-5.44-6.392-7.596-9.675-9.31 4.63-.29 9.582.783 13.047 2.128 6.405 2.484 11.84 10.394 12.922 15.638.72 3.492.558 6.756.099 9.936 3.134-1.06 8.594-1.21 12.414 1.318 3.923 2.597 6.094 8.21 3.21 13.102-.996-4.959-4.312-6.758-9.29-6.956-4.737-.187-8.522 2.77-8.936 7.912-.61 7.58 5.837 13.101 14.697 13.206 11.739.14 18.116-8.476 17.493-19.75-.624-11.3-6.223-19.62-14.14-26.346-6.8-5.779-13.957-11.392-21.034-18.415-5.52-5.477-16.394-17.088-16.758-32.483-.271-11.408 3.049-20.634 8.242-28.945 5.193-8.312 8.27-15.236 10.485-21.68 2.664-7.748 1.416-18.32-6.09-21.285-7.774-3.07-18.328 1.582-22.075 11.721-1.332-7.409-3.15-22.734 4.355-22.16 4.545-1.564 8.638-3.652 13.789-3.435" fill="#ffd203"/><path d="M978.507 486.944c4.51.19 9.382 5.18 17.124-3.492 1.61 3.246 1.448 7.433-2.125 9.946 5.259 3.411 10.903 12.22 12.489 17.507 2.067 6.888 3.373 14.94 8.84 16.933 2.9 1.057 5.616-1.027 5.366-4.59-.542-7.738-3.224-6.074-6.067-16.518-1.067-3.922 1.04-10.074 10.115-8.717-3.842 1.773-4.045 4.113-3.63 7.207.72 5.37 10.07 11.66 11.047 20.483 1.15 10.377-7.332 15.047-11.541 15.448-5.636.537-12.503-3.01-16.653-10.048-2.193 10.25 4.98 20.22 12.759 24.987 6.516 3.996 13.918 7.492 17.545 13.248 4.089 6.49 3.266 14.654-.928 18.677-.215-3.882-2.934-10.4-11.076-14.574-9.884-5.066-19.44-7.974-27.421-22.412-1.675 25.832 26.036 35.9 37.55 43.897 14.289 9.926 9.622 31.554 5.284 34.507.25-3.622.4-9.293-3.916-15.999-4.993-7.758-13.726-11.274-24.261-17.07-10.48-5.763-19.177-14.97-23.303-24.63-1.136 6.52 3.694 15.965 9.778 22.58 6.302 6.85 13.83 12.857 18.112 16.484 8.527 7.227 20.95 17.23 22.24 39.165.91 15.426-6.768 26.23-17.534 30.737-6.314 2.645-15.57 3.041-21.943 1.612-3.2-.717-6.386-1.82-9.38-3.618-2.107-1.266-5.743-.487-5.378 3.19.43 4.333 6.62 4.653 7.279 9.73.544 4.19-2.641 7.557-6.012 9.223.844-2.566-.071-5.543-1.84-8.513-2.305-3.87-7.526-3.458-8.206-10.78-.336-3.664 2.108-7.794 5.576-8.819.41-.25 1.1-.805.807-1.207-3.827-5.25-4.52-12.195-4.132-17.012.648-8.043 3.43-10.879 3.467-18.328.012-2.322.008-9.017-2.787-13.43-3.444-5.44-6.392-7.596-9.675-9.31 4.63-.29 9.582.783 13.047 2.128 6.405 2.484 11.84 10.394 12.922 15.638.72 3.492.558 6.756.099 9.936 3.134-1.06 8.594-1.21 12.414 1.318 3.923 2.597 6.094 8.21 3.21 13.102-.996-4.959-4.312-6.758-9.29-6.956-4.737-.187-8.522 2.77-8.936 7.912-.61 7.58 5.837 13.101 14.697 13.206 11.739.14 18.116-8.476 17.493-19.75-.624-11.3-6.223-19.62-14.14-26.346-6.8-5.779-13.957-11.392-21.034-18.415-5.52-5.477-16.394-17.088-16.758-32.483-.271-11.408 3.049-20.634 8.242-28.945 5.193-8.312 8.27-15.236 10.485-21.68 2.664-7.748 1.416-18.32-6.09-21.285-7.774-3.07-18.328 1.582-22.075 11.721-1.332-7.409-3.15-22.734 4.355-22.16 4.545-1.564 8.638-3.652 13.789-3.435z" fill="none" stroke="#000" stroke-width=".625"/><path d="M816.628 409.03c1.243-7.76-1.837-9.002-7.2-9.335 1.82-1.669 7.916-4.449 11.952-2.319 4.435 2.34 5.564 9.288 5.124 9.465zm-16.944 12.282s-6.042 2.484-10.458-.033c-4.762-2.714-4.395-9.099-3.492-11.292 4.047 5.92 9.34 4.781 13.293 2zm-9.53 19.138a10.07 10.07 0 0 1-2.794-.322c-6.895-1.837-6.795-7.086-6.893-8.832 7.635 3.711 10.44 0 14.862-3.667l3.714 9.598c-1.363.95-4.911 3.147-8.888 3.223m10.067 13.304c-4.495-.018-7.695-3.363-8.068-4.017 8.257-.54 8.649-3.789 10.868-9.569 3.148 2.287 5.927 4.247 7.747 5.3.16 1.333-1.831 5.27-6.507 7.38-1.431.646-2.781.91-4.04.906" fill="#ed2939"/><path d="M816.628 409.03c1.243-7.76-1.837-9.002-7.2-9.335 1.82-1.669 7.916-4.449 11.952-2.319 4.435 2.34 5.564 9.288 5.124 9.465zm-16.944 12.282s-6.042 2.484-10.458-.033c-4.762-2.714-4.395-9.099-3.492-11.292 4.047 5.92 9.34 4.781 13.293 2zm-9.53 19.138a10.07 10.07 0 0 1-2.794-.322c-6.895-1.837-6.795-7.086-6.893-8.832 7.635 3.711 10.44 0 14.862-3.667l3.714 9.598c-1.363.95-4.911 3.147-8.888 3.223zm10.068 13.304c-4.495-.018-7.695-3.363-8.068-4.017 8.257-.54 8.649-3.789 10.868-9.569 3.148 2.287 5.927 4.247 7.747 5.3.16 1.333-1.831 5.27-6.507 7.38-1.431.646-2.781.91-4.04.906z" fill="none" stroke="#000" stroke-width=".625"/><path d="M865.665 511.993c-14.108.006-22.854-9.411-24.661-19.917-.776-4.51-1.51-7.594-3.618-9.37-5.173-4.352-13.488-5.274-14.262-4.984 4.968-5.917 9.363-7.898 15.989-6.461-1.38-7.285 5.324-16.322 8.787-23.781 1.17-2.518-4.705-4.293-11.765-5.505-2.298-.394-6.805-3.223-9.013-3.838-2.287-.638-5.74-.415-7.066.404-1.371.848-6.318 6.42-10.075 7.655-3.497 1.148-7.874.49-8.687-2.357-1.295-4.543 4.746-6.36 5.552-7.966.779-1.553-.561-2.796-1.694-2.144-1.343.773-5.676 5.585-8.354 4.735-2.018-.64-3.679-2.45-4.187-7.46-.43-4.248 6.522-5.545 9.151-5.746 2.14-.163 1.861-2.281.572-2.684-1.388-.433-7.45 3.198-7.795.32-.345-2.878-.796-9.151 3.008-11.353 2.99-1.73 14.233 1.557 15.521 1.88 1.534.387 3.031.838 3.53.376 3.39-3.135-3.547-4.254-1.199-7.164 2.497-3.093 6.106-3.378 9.433-3.926 6.837-1.126 3.368 11.826 4.88 11.905 3.263.453 4.54.952 7.171-1.17 2.63-2.122 6.581-8.684 12.118-10.394-.482 5.016-.085 9.528 1.61 12.9 1.924-5.758 8.857-8.611 15.898-10.446-3.524 4.117-4.487 11.587-3.359 12.727 4.628-5.153 8.98-7.03 17.723-6.78-2.603 1.932-3.934 7.57-3.358 9.156.881 2.433 2.789-1.803 5.133 3.139 1.478 3.116-.907 6.872-1.894 8.813-4.531 8.906-5.217 29.525 15.713 34.394 11.383 2.648 28.584 9.26 30.073 11.132 11.866 14.918.911 27.524-5.212 34.756-15.489-7.388-37.858-1.095-55.663-.846" fill="#ffd203"/><path d="M865.665 511.993c-14.108.006-22.854-9.411-24.661-19.917-.776-4.51-1.51-7.594-3.618-9.37-5.173-4.352-13.488-5.274-14.262-4.984 4.968-5.917 9.363-7.898 15.989-6.461-1.38-7.285 5.324-16.322 8.787-23.781 1.17-2.518-4.705-4.293-11.765-5.505-2.298-.394-6.805-3.223-9.013-3.838-2.287-.638-5.74-.415-7.066.404-1.371.848-6.318 6.42-10.075 7.655-3.497 1.148-7.874.49-8.687-2.357-1.295-4.543 4.746-6.36 5.552-7.966.779-1.553-.561-2.796-1.694-2.144-1.343.773-5.676 5.585-8.354 4.735-2.018-.64-3.679-2.45-4.187-7.46-.43-4.248 6.522-5.545 9.151-5.746 2.14-.163 1.861-2.281.572-2.684-1.388-.433-7.45 3.198-7.795.32-.345-2.878-.796-9.151 3.008-11.353 2.99-1.73 14.233 1.557 15.521 1.88 1.534.387 3.031.838 3.53.376 3.39-3.135-3.547-4.254-1.199-7.164 2.497-3.093 6.106-3.378 9.433-3.926 6.837-1.126 3.368 11.826 4.88 11.905 3.263.453 4.54.952 7.171-1.17 2.63-2.122 6.581-8.684 12.118-10.394-.482 5.016-.085 9.528 1.61 12.9 1.924-5.758 8.857-8.611 15.898-10.446-3.524 4.117-4.487 11.587-3.359 12.727 4.628-5.153 8.98-7.03 17.723-6.78-2.603 1.932-3.934 7.57-3.358 9.156.881 2.433 2.789-1.803 5.133 3.139 1.478 3.116-.907 6.872-1.894 8.813-4.531 8.906-5.217 29.525 15.713 34.394 11.383 2.648 28.584 9.26 30.073 11.132 11.866 14.918.911 27.524-5.212 34.756-15.489-7.388-37.858-1.095-55.663-.846z" fill="none" stroke="#000" stroke-width=".625"/><path d="M870.055 439.432s3.803-5.3.916-10.883c-3.01-5.822-9.924-2.405-9.924-2.405" fill="#ffd203" stroke="#000" stroke-width=".625"/><path d="M780.706 639.884c-4.298-6.577-9.82-6.866-16.919-3.245 4.251-13.51 14.648-13.631 24.254-6.374zm-19.576 37.25c-3.787.21-8.39-2.114-10.488-11.33 10.053 7.2 9.913.019 14.733-4.9l6.952 11.185s-3.72 2.78-8.736 4.553a8.938 8.938 0 0 1-2.46.493m37.836 14.14c-2.132.095-4.238-.464-5.769-1.524 4.382-1.687 6.773-3.625 4.38-10.88l8.234-5.776c2.152 2.474 4.491 8.194.435 14.25-1.735 2.594-4.538 3.807-7.28 3.93m-23.783.869c-6.35.038-9.912-4.824-10.86-6.594 11.321 1.425 10.26-1.864 12.167-8.622l9.89 3.852c-.799 3.547-2.21 9.308-7.384 10.797a14.011 14.011 0 0 1-3.813.567" fill="#ed2939"/><path d="M780.706 639.884c-4.298-6.577-9.82-6.866-16.919-3.245 4.251-13.51 14.648-13.631 24.254-6.374zm-19.576 37.25c-3.787.21-8.39-2.114-10.488-11.33 10.053 7.2 9.913.019 14.733-4.9l6.952 11.185s-3.72 2.78-8.736 4.553a8.938 8.938 0 0 1-2.46.493zm37.837 14.14c-2.132.096-4.238-.463-5.769-1.523 4.382-1.687 6.773-3.625 4.38-10.88l8.234-5.776c2.152 2.474 4.491 8.194.435 14.25-1.735 2.594-4.538 3.807-7.28 3.93zm-23.783.87c-6.35.038-9.912-4.824-10.86-6.594 11.321 1.425 10.26-1.864 12.167-8.622l9.89 3.852c-.799 3.547-2.21 9.308-7.384 10.797a14.011 14.011 0 0 1-3.813.567z" fill="none" stroke="#000" stroke-width=".625"/><path d="M797.68 623.945c.33-3.77 2.77-9.216 1.722-13.729 2.717 2.568 5.214 5.815 5.522 9.317 4.11-7.228-1.125-17.313-.727-25.18 2.1 2.727 7.195 6.745 8.34 10.377 4.133-8.938-5.291-10.96-.395-28.632 1.703 6.381 6.027 11.657 7.847 16.031 1.395-12.144 13.068-20.163 19.645-18.15 15.082-19.66 33.244-12.006 32.366 9.378 0 0-14.256 31.525-17.943 34.245-4.003 2.953-9.096 5.62-14.904 9.326-6.556 4.183-11.936 7.541-17.02 12.242-5.084 4.701-7.531 8.92-10.861 12.22-4.688 4.647-7.801 9.807-7.901 12.203-.122 2.933 2.719 3.72 3.773 8.375 1.254 5.54-4.443 11.483-9.74 10.66-3.021-.47-3.345-6.089-4.976-7.219-.384-.267-.845-.359-1.435-.186-3.098.905-.55 9.904-5.553 10.26-5.005.356-8.994-1.166-11.7-6.072-2.174-3.945 5.363-6.635 5.646-8.952.064-.519-1.028-1.272-1.558-1.26-.348.01-5.736 5.815-9.951 4.411-3.285-1.095-6.847-4.944-5.723-10.282.97-4.616 7.085-4.946 10.02-5.259 3.48-.373 11.263-10.304 10.635-14.778-.192-3.607-5.555-2.187-6.683-6.323-1.446-5.303 2.704-11.247 7.373-10.54 3.493.528 7.245 5.075 8.834 5.223 3.85.022 4.982-3.519 5.347-7.706" fill="#ffd203"/><path d="M797.68 623.945c.33-3.77 2.77-9.216 1.722-13.729 2.717 2.568 5.214 5.815 5.522 9.317 4.11-7.228-1.125-17.313-.727-25.18 2.1 2.727 7.195 6.745 8.34 10.377 4.133-8.938-5.291-10.96-.395-28.632 1.703 6.381 6.027 11.657 7.847 16.031 1.395-12.144 13.068-20.163 19.645-18.15 15.082-19.66 33.244-12.006 32.366 9.378 0 0-14.256 31.525-17.943 34.245-4.003 2.953-9.096 5.62-14.904 9.326-6.556 4.183-11.936 7.541-17.02 12.242-5.084 4.701-7.531 8.92-10.861 12.22-4.688 4.647-7.801 9.807-7.901 12.203-.122 2.933 2.719 3.72 3.773 8.375 1.254 5.54-4.443 11.483-9.74 10.66-3.021-.47-3.345-6.089-4.976-7.219-.384-.267-.845-.359-1.435-.186-3.098.905-.55 9.904-5.553 10.26-5.005.356-8.994-1.166-11.7-6.072-2.174-3.945 5.363-6.635 5.646-8.952.064-.519-1.028-1.272-1.558-1.26-.348.01-5.736 5.815-9.951 4.411-3.285-1.095-6.847-4.944-5.723-10.282.97-4.616 7.085-4.946 10.02-5.259 3.48-.373 11.263-10.304 10.635-14.778-.192-3.607-5.555-2.187-6.683-6.323-1.446-5.303 2.704-11.247 7.373-10.54 3.493.528 7.245 5.075 8.834 5.223 3.85.022 4.982-3.519 5.347-7.706z" fill="none" stroke="#000" stroke-width=".625"/><path d="M890.473 519.085c9.192-3.452 16.99-11.963 17.998-18.08-5.297-10.554-1.803-15.273 5.768-14.01 6.178 1.028 6.188 5.958 4.56 11.647-1.451 5.075-3.66 8.504-8.363 12.134-6.143 4.74-17.322 8.773-19.963 8.309" fill="#ffd203"/><path d="M890.473 519.085c9.192-3.452 16.99-11.963 17.998-18.08-5.297-10.554-1.803-15.273 5.768-14.01 6.178 1.028 6.188 5.958 4.56 11.647-1.451 5.075-3.66 8.504-8.363 12.134-6.143 4.74-17.322 8.773-19.963 8.309z" fill="none" stroke="#000" stroke-width=".625"/><path d="M962.176 380.478c-1.275-1.265-4-3.271-3.022-8.606 1.05-5.738 6.484-7.726 8.7-7.618-2.86 5.078-1.531 9.38 1.615 12.377zm-14.683 6.158s-5.878-1.668-6.498-9.103c-.62-7.427 4.642-9.933 6-10.406-.674 5.529 1.339 10.538 7.666 13.015zm-8.645 14.27c-1.403-.15-2.95-.67-4.415-1.786-5.466-4.162-3.62-11.73-3.164-12.641 4.313 7.097 7.848 7.602 13.155 3.334l-.646 10.02c-.631.573-2.592 1.326-4.93 1.074m8.09 15.049a9.45 9.45 0 0 1-1.881-.445c-4.58-1.612-6.728-7.653-6.702-9.962 4.1 3.645 7.129 4.347 12.792.08 1.267 2.074 3.189 4.95 5.12 7.856-.736.67-4.925 3.068-9.33 2.47" fill="#ed2939"/><path d="M962.176 380.478c-1.275-1.265-4-3.271-3.022-8.606 1.05-5.738 6.484-7.726 8.7-7.618-2.86 5.078-1.531 9.38 1.615 12.377zm-14.683 6.158s-5.878-1.668-6.498-9.103c-.62-7.427 4.642-9.933 6-10.406-.674 5.529 1.339 10.538 7.666 13.015zm-8.645 14.27c-1.403-.15-2.95-.67-4.415-1.786-5.466-4.162-3.62-11.73-3.164-12.641 4.313 7.097 7.848 7.602 13.155 3.334l-.646 10.02c-.631.573-2.592 1.326-4.93 1.074zm8.09 15.05a9.45 9.45 0 0 1-1.881-.445c-4.58-1.612-6.728-7.653-6.702-9.962 4.1 3.645 7.129 4.347 12.792.08 1.267 2.074 3.189 4.95 5.12 7.856-.736.67-4.925 3.068-9.33 2.47z" fill="none" stroke="#000" stroke-width=".625"/><path d="M775.474 507.582c-1.335-2.585-3.774-6.463-2.28-11.105 1.822-5.654 8.926-7 10.929-7.139-3.46 5.9-2.358 10.015.433 15.722zm-10.962 12.103s-7.497-2.395-9.314-8.34c-1.938-6.342 2.106-11.337 3.97-12.32.827 4.437 1.805 10.795 10.519 12.547zm-2.16 17.218c-2.333-.012-6.004-.403-8.988-2.384-4.68-3.105-5.986-10.158-5.53-11.573 4.609 4.785 8.093 6.203 16.635 4.41l.196 9.431s-.913.124-2.312.116m12.898 19.844c-4.29-.039-8.24-4.21-9.155-6.696 4.633 1.84 7.805.983 10.492-1.83l6.872 4.83s-3.66 3.195-7.346 3.655a6.57 6.57 0 0 1-.863.041" fill="#ed2939"/><path d="M775.474 507.582c-1.335-2.585-3.774-6.463-2.28-11.105 1.822-5.654 8.926-7 10.929-7.139-3.46 5.9-2.358 10.015.433 15.722zm-10.962 12.103s-7.497-2.395-9.314-8.34c-1.938-6.342 2.106-11.337 3.97-12.32.827 4.437 1.805 10.795 10.519 12.547zm-2.16 17.218c-2.333-.012-6.004-.403-8.988-2.384-4.68-3.105-5.986-10.158-5.53-11.573 4.609 4.785 8.093 6.203 16.635 4.41l.196 9.431s-.913.124-2.312.116zm12.899 19.844c-4.29-.039-8.24-4.21-9.155-6.696 4.633 1.84 7.805.983 10.492-1.83l6.872 4.83s-3.66 3.195-7.346 3.655a6.57 6.57 0 0 1-.863.041z" fill="none" stroke="#000" stroke-width=".625"/><path d="M979.597 394.65c1.617 11.484 14.59 5.793 19.302 15.683-3.754-.342-8.614 1.651-10.485 5.446 9.74 1.233 13.64 4.957 17.956 9.97-3.9-.637-9.812-.568-11.515 4.937 4.653.826 14.422 2.402 18.487 11.562-9.23-3.07-14.336-.648-14.327 2.141.027 8.246 4.798 8.552-2.507 13.435-2.053 1.372-9.897 1.652-9.921 5.844-.012 2.223 5.669 7.101 8.469 9.276-1.997-.093-7.38 1.711-11.725-.27-4.343-1.983-8.305-3.185-16.201 2.814-5.855 5.158-11.227 5.998-4.155 14.98 4.494 6.158.306 15.658-2.557 22.723-2.787 7.537-5.253 15.151-10.7 23.042-4.182 6.062-15.327 16.421-15.926 24.535-.783 10.516-.981 21.742-.331 27.212 1.782 14.987 2.41 17.835-11.791 22.66-8.394 2.852-37.554 10.336-51.358-4.929-7.053-7.799-14.644-7.276-20.778-17.692-6.135-10.415-6.274-7.1-11.587-12.07-5.313-4.97-10.123-8.827-11.646-9.813-3.043-1.97-4.115-2.365-9.235-6.254-5.121-3.889-9.695-7.523-10.548-8.477-1.707-1.908-10.846-5.495-12.883-5.263-1.256.144-4.834 6.314-7.517 6.813-3.362.626-11.282-1.745-11.375-6.017-.05-2.288 6.103-4.46 5.13-7.027-.663-1.746-5.51-3.474-7.661-2.98-1.23.282-4.775 2.343-7.687 1.561-5.442-1.46-7.101-9.313-3.876-12.373 1.639-1.556 8.019.353 8.978-.204 1.086-.632 1.782-1.128 1.199-2.356-.631-1.332-8.53-.976-9.526-2.71-3.392-5.907 1.435-14.328 7.61-11.644 2.075.901 4.059 2.415 5.448 3.424 1.23.895 2.379-.229 2.504-.905.283-1.537-5.413-5.134-4.652-7.467 1.466-4.487 11.007-5.658 13.327-1.912 1.8 2.908 5.464 9.802 6.153 10.738.345.467.88 1.516 5.148 2.657 10.65 2.563 14.207-2.073 18.076-11.076 3.467 2.928 8.937 11.576 6.14 16.311 3.958-4.185 10.618-8.952 16.343-9.55-2.306 6.347.665 11.692 1.58 13.866 3.657-3.79 13.534-7.83 20.605-6.32-6.082 3.806-9.552 10.681-2.743 13.89 6.81 3.21 8.546 5.06 10.11 11.088 1.563 6.03 9.395 4.141 12.367-.117 2.97-4.258 4.163-5.83 7.61-9.71 3.71-4.174 8.7-8.28 11.964-10.804 3.686-2.852 7.118-5.976 10.217-10.485 3.969-5.777 5.839-12.314 5.63-20.262-.905-7.659-6.702-12.135-6.675-19.684-.24-2.906-3.393-7.553 1.397-14.153 4.79-6.6 8.149-21.258 4.062-27.276 12.837 2.677 16.485 14.643 12.89 24.032 5.598-3.417 9.135-4.007 13.708-6.98 1.732-1.127 9.624-6.502 11.555-7.582 4.042-2.872 3.474-2.349 9.547-5.725.509-.704 2.314-5.77 2.522-7.116.059-.39.762-3.467.219-7.212-.48-3.314-1.735-7.136-3.411-8.574-1.726-1.479-2.996 3.114-5.137 2.391-2.831-.955-8.07-6.246-6.838-8.928 1.198-2.609 7.822-.513 5.54-2.288l-2.918-2.269c-1.793-1.395-2.855 1.156-6.911-.138-4.985-1.589-5.364-8.108-2.037-11.083 2.19-1.958 5.893.077 5.893.077 4.205 1.692 5.948.36.669-1.93 0 0-5.077-2.322-3.752-6.427.903-2.8 5.356-5.208 7.464-4.502 2.796.936 5.727 3.26 6.406 5.043 1.274 3.342 3.016 1.727 2.164-.908-.483-1.497-1.226-4.648.984-5.838 2.696-1.452 8.31.501 9.839 2.527 2.34 3.103 1.272 7.31.405 8.424 4.354 2.132 6.337 5.36 7.275 8.198" fill="#ffd203"/><path d="M979.597 394.65c1.617 11.484 14.59 5.793 19.302 15.683-3.754-.342-8.614 1.651-10.485 5.446 9.74 1.233 13.64 4.957 17.956 9.97-3.9-.637-9.812-.568-11.515 4.937 4.653.826 14.422 2.402 18.487 11.562-9.23-3.07-14.336-.648-14.327 2.141.027 8.246 4.798 8.552-2.507 13.435-2.053 1.372-9.897 1.652-9.921 5.844-.012 2.223 5.669 7.101 8.469 9.276-1.997-.093-7.38 1.711-11.725-.27-4.343-1.983-8.305-3.185-16.201 2.814-5.855 5.158-11.227 5.998-4.155 14.98 4.494 6.158.306 15.658-2.557 22.723-2.787 7.537-5.253 15.151-10.7 23.042-4.182 6.062-15.327 16.421-15.926 24.535-.783 10.516-.981 21.742-.331 27.212 1.782 14.987 2.41 17.835-11.791 22.66-8.394 2.852-37.554 10.336-51.358-4.929-7.053-7.799-14.644-7.276-20.778-17.692-6.135-10.415-6.274-7.1-11.587-12.07-5.313-4.97-10.123-8.827-11.646-9.813-3.043-1.97-4.115-2.365-9.235-6.254-5.121-3.889-9.695-7.523-10.548-8.477-1.707-1.908-10.846-5.495-12.883-5.263-1.256.144-4.834 6.314-7.517 6.813-3.362.626-11.282-1.745-11.375-6.017-.05-2.288 6.103-4.46 5.13-7.027-.663-1.746-5.51-3.474-7.661-2.98-1.23.282-4.775 2.343-7.687 1.561-5.442-1.46-7.101-9.313-3.876-12.373 1.639-1.556 8.019.353 8.978-.204 1.086-.632 1.782-1.128 1.199-2.356-.631-1.332-8.53-.976-9.526-2.71-3.392-5.907 1.435-14.328 7.61-11.644 2.075.901 4.059 2.415 5.448 3.424 1.23.895 2.379-.229 2.504-.905.283-1.537-5.413-5.134-4.652-7.467 1.466-4.487 11.007-5.658 13.327-1.912 1.8 2.908 5.464 9.802 6.153 10.738.345.467.88 1.516 5.148 2.657 10.65 2.563 14.207-2.073 18.076-11.076 3.467 2.928 8.937 11.576 6.14 16.311 3.958-4.185 10.618-8.952 16.343-9.55-2.306 6.347.665 11.692 1.58 13.866 3.657-3.79 13.534-7.83 20.605-6.32-6.082 3.806-9.552 10.681-2.743 13.89 6.81 3.21 8.546 5.06 10.11 11.088 1.563 6.03 9.395 4.141 12.367-.117 2.97-4.258 4.163-5.83 7.61-9.71 3.71-4.174 8.7-8.28 11.964-10.804 3.686-2.852 7.118-5.976 10.217-10.485 3.969-5.777 5.839-12.314 5.63-20.262-.905-7.659-6.702-12.135-6.675-19.684-.24-2.906-3.393-7.553 1.397-14.153 4.79-6.6 8.149-21.258 4.062-27.276 12.837 2.677 16.485 14.643 12.89 24.032 5.598-3.417 9.135-4.007 13.708-6.98 1.732-1.127 9.624-6.502 11.555-7.582 4.042-2.872 3.474-2.349 9.547-5.725.509-.704 2.314-5.77 2.522-7.116.059-.39.762-3.467.219-7.212-.48-3.314-1.735-7.136-3.411-8.574-1.726-1.479-2.996 3.114-5.137 2.391-2.831-.955-8.07-6.246-6.838-8.928 1.198-2.609 7.822-.513 5.54-2.288l-2.918-2.269c-1.793-1.395-2.855 1.156-6.911-.138-4.985-1.589-5.364-8.108-2.037-11.083 2.19-1.958 5.893.077 5.893.077 4.205 1.692 5.948.36.669-1.93 0 0-5.077-2.322-3.752-6.427.903-2.8 5.356-5.208 7.464-4.502 2.796.936 5.727 3.26 6.406 5.043 1.274 3.342 3.016 1.727 2.164-.908-.483-1.497-1.226-4.648.984-5.838 2.696-1.452 8.31.501 9.839 2.527 2.34 3.103 1.272 7.31.405 8.424 4.354 2.132 6.337 5.36 7.275 8.198z" fill="none" stroke="#000" stroke-width=".625"/><path d="M807.997 525.098s37.495 11.985 61.331 37.237" fill="#ffd203" stroke="#000" stroke-width=".625"/><path d="M875.32 683.997c15.05 2.187 30.035 1.846 44.956-1.124.243 2.36 1.137 5.532 2.341 8.114a100.745 100.745 0 0 0 7.478 13.245c-1.984.134-4.635-1.425-6.635-4.646-.73 1.48-3.883 2.659-5.975.764 1.678-1.92 4.175-4.29 2.392-6.875-1.276-1.852-3.57-1.47-5.093-.484-1.366.884-2.6 2.879-2.983 5.797-1.972-3.17-4.17-4.598-6.122-4.6-3.256 0-4.84 1.129-4.797 2.917.078 3.14 3.666 4.23 6.118 4.933-.729 2.726-4.016 3.446-5.434 2.599.07 3.79-1.312 6.539-3.05 7.503-1.786-.876-3.3-3.552-3.423-7.341-1.374.917-4.693.362-5.556-2.325 2.412-.824 5.942-2.092 5.862-5.231-.045-1.79-1.684-2.837-4.935-2.673-1.949.097-4.074 1.634-5.886 4.899-.527-2.896-1.86-4.826-3.268-5.641-1.57-.91-3.88-1.176-5.063.737-1.65 2.672.962 4.913 2.733 6.747-1.994 1.997-5.202.977-6.006-.464-1.836 3.316-4.406 5.006-6.394 4.972a100.63 100.63 0 0 0 6.806-13.603c1.074-2.638 1.807-5.85 1.933-8.22" fill="#ffd203"/><path d="M875.32 683.997c15.05 2.187 30.035 1.846 44.956-1.124.243 2.36 1.137 5.532 2.341 8.114a100.745 100.745 0 0 0 7.478 13.245c-1.984.134-4.635-1.425-6.635-4.646-.73 1.48-3.883 2.659-5.975.764 1.678-1.92 4.175-4.29 2.392-6.875-1.276-1.852-3.57-1.47-5.093-.484-1.366.884-2.6 2.879-2.983 5.797-1.972-3.17-4.17-4.598-6.122-4.6-3.256 0-4.84 1.129-4.797 2.917.078 3.14 3.666 4.23 6.118 4.933-.729 2.726-4.016 3.446-5.434 2.599.07 3.79-1.312 6.539-3.05 7.503-1.786-.876-3.3-3.552-3.423-7.341-1.374.917-4.693.362-5.556-2.325 2.412-.824 5.942-2.092 5.862-5.231-.045-1.79-1.684-2.837-4.935-2.673-1.949.097-4.074 1.634-5.886 4.899-.527-2.896-1.86-4.826-3.268-5.641-1.57-.91-3.88-1.176-5.063.737-1.65 2.672.962 4.913 2.733 6.747-1.994 1.997-5.202.977-6.006-.464-1.836 3.316-4.406 5.006-6.394 4.972a100.63 100.63 0 0 0 6.806-13.603c1.074-2.638 1.807-5.85 1.933-8.22z" fill="none" stroke="#000" stroke-width=".625"/><path d="M912.66 630.126c-5 1.254-9.822 2.455-13.789 4.985-3.695 2.357-9.269 3.249-13.78 2.335-7.26-1.468-11.952-2.723-19.328-.789-6.21 1.629-8.064 5.702-6.886 12.59 1.295-4.012 3.486-5.949 5.581-6.553 2.694-.777 7.505-.784 11.266.551 19.47 6.911 32.208 1.089 36.935-13.119" fill="#ed2939"/><path d="M912.66 630.126c-5 1.254-9.822 2.455-13.789 4.985-3.695 2.357-9.269 3.249-13.78 2.335-7.26-1.468-11.952-2.723-19.328-.789-6.21 1.629-8.064 5.702-6.886 12.59 1.295-4.012 3.486-5.949 5.581-6.553 2.694-.777 7.505-.784 11.266.551 19.47 6.911 32.208 1.089 36.935-13.119z" fill="none" stroke="#000" stroke-width=".625"/><path d="M873.309 635.465c-.486-2.093.109-4.756 1.07-6.388l4.612 1.058c-2.35 1.288-4.44 3.196-5.682 5.33m-5.815 22.26c-.8-1.927-.666-7.924 3.164-9.83.606 3.405 2.26 7.349 3.49 9.36z" fill="#fff"/><path d="M873.309 635.465c-.486-2.093.109-4.756 1.07-6.388l4.612 1.058c-2.35 1.288-4.44 3.196-5.682 5.33zm-5.815 22.26c-.8-1.927-.666-7.924 3.164-9.83.606 3.405 2.26 7.349 3.49 9.36z" fill="none" stroke="#000" stroke-width=".625"/><path d="M934.612 549.158c-1.937 2.896-1.639 7.267-.51 10.87 1.538 4.914 5.117 8.924 6.276 14.377 1.348 6.38-1.87 7.92-1.368 11.065 2.662-4.737 10.336-5.099 12.646.857-3.415.483-6.5 2.75-7.6 5.947-1.982 5.756 2.907 7.746 3.697 13.322.933 6.578-2.966 9.443-3.215 12.228 3.271-.998 7.243.837 7.718 4.276-1.738-.644-3.518-.196-4.614 1.717-1.314 2.293-.26 5.312-.704 7.806-.819 4.63-4.358 5.198-4.812 8.081 3.45-1.745 8.044.765 8.128 5.191-1.279-.83-2.937-.94-4.314-.083-2.477 1.543-1.156 4.502-2.08 7.213-.669 1.964-4.626 4.23-4.847 6.374 2.982-.812 5.824.938 5.876 4.602-1.554-.692-5.07-.19-6.234 1.186-5.444 6.437-9.274 11.765-15.69 16.294-5.203 3.673-18.65 6.174-29.073 6.8-7.68.46-14.204-2.858-18.917-5.272-4.106-2.105-1.543-4.235-.475-6.245-3.51.432-6.51 1.034-9.83-.257-1.916-.745-4.414-2.369-4.212-3.447.117-.622 1.48-2.646 2.645-1.906-.075-2.414-.556-3.786-.484-6.29.095-3.296 1.98-6.314 4.663-6.998 7.115-1.812 13.644-1.44 20.198 1.061 8.874 3.386 11.668-1.635 12.376-7.05.714-5.46-1.083-12.226-5.997-16.458-2.55-2.197-7.23-4.365-11.782-4.162-2.555.113-5.02 1.385-7.26.403-1.142-.5-1.437-4.256-1.78-6.313-.27-1.605.965-2.486 2.67-2.9 3.953-.96 2.928-5.086 5.287-5.743.157 1.08 1.205 5.413 2.176 5.441 3.902.112 12.87 1.221 12.593-.253-.699-3.708-4.94-5.526-14.58-7.269-7.48-1.353-21.948 3-19.843 20.126-9.78-5.335-12.882-21.394-4.93-26.336-2.86.39-6.026.174-9.49-.394-5.15-.843-10.635 3.333-13.955 7.411-1.532-12.192.662-19.092 6.822-23.093 7.32-4.754 12.408-3.915 17.373-4.81-4.176-2.123-7.18-6.02-11.003-9.522-4.296-3.933-10.512-7.079-17.337-6.169 2.855-5.884 8.36-9.497 15.064-10.646 9.047-1.55 16.582.904 22.863 5.412-1.075-5.795-7.065-7.825-8.247-14.83-1.058-6.26 1.753-11.898 8.043-13.403-1.699 10.042 8.386 12.804 14.343 14.878 5.638 1.964 10.552 4.742 14.631 9.393.58-5.935-7.343-10.03-3.765-18.76 2.406-5.87 8.404-8.485 14.953-8.539-4.173 2.86-5.117 8.691-2.175 13.86 4.226 7.42 9.434 7.768 14.952 16.39 1.464 2.287 2.503 6.09 3.341 9.728 2.243-4.154.87-7.897.036-11.194-1.567-6.194 3.331-14.525 11.753-13.967" fill="#ffd203"/><path d="M934.612 549.158c-1.937 2.896-1.639 7.267-.51 10.87 1.538 4.914 5.117 8.924 6.276 14.377 1.348 6.38-1.87 7.92-1.368 11.065 2.662-4.737 10.336-5.099 12.646.857-3.415.483-6.5 2.75-7.6 5.947-1.982 5.756 2.907 7.746 3.697 13.322.933 6.578-2.966 9.443-3.215 12.228 3.271-.998 7.243.837 7.718 4.276-1.738-.644-3.518-.196-4.614 1.717-1.314 2.293-.26 5.312-.704 7.806-.819 4.63-4.358 5.198-4.812 8.081 3.45-1.745 8.044.765 8.128 5.191-1.279-.83-2.937-.94-4.314-.083-2.477 1.543-1.156 4.502-2.08 7.213-.669 1.964-4.626 4.23-4.847 6.374 2.982-.812 5.824.938 5.876 4.602-1.554-.692-5.07-.19-6.234 1.186-5.444 6.437-9.274 11.765-15.69 16.294-5.203 3.673-18.65 6.174-29.073 6.8-7.68.46-14.204-2.858-18.917-5.272-4.106-2.105-1.543-4.235-.475-6.245-3.51.432-6.51 1.034-9.83-.257-1.916-.745-4.414-2.369-4.212-3.447.117-.622 1.48-2.646 2.645-1.906-.075-2.414-.556-3.786-.484-6.29.095-3.296 1.98-6.314 4.663-6.998 7.115-1.812 13.644-1.44 20.198 1.061 8.874 3.386 11.668-1.635 12.376-7.05.714-5.46-1.083-12.226-5.997-16.458-2.55-2.197-7.23-4.365-11.782-4.162-2.555.113-5.02 1.385-7.26.403-1.142-.5-1.437-4.256-1.78-6.313-.27-1.605.965-2.486 2.67-2.9 3.953-.96 2.928-5.086 5.287-5.743.157 1.08 1.205 5.413 2.176 5.441 3.902.112 12.87 1.221 12.593-.253-.699-3.708-4.94-5.526-14.58-7.269-7.48-1.353-21.948 3-19.843 20.126-9.78-5.335-12.882-21.394-4.93-26.336-2.86.39-6.026.174-9.49-.394-5.15-.843-10.635 3.333-13.955 7.411-1.532-12.192.662-19.092 6.822-23.093 7.32-4.754 12.408-3.915 17.373-4.81-4.176-2.123-7.18-6.02-11.003-9.522-4.296-3.933-10.512-7.079-17.337-6.169 2.855-5.884 8.36-9.497 15.064-10.646 9.047-1.55 16.582.904 22.863 5.412-1.075-5.795-7.065-7.825-8.247-14.83-1.058-6.26 1.753-11.898 8.043-13.403-1.699 10.042 8.386 12.804 14.343 14.878 5.638 1.964 10.552 4.742 14.631 9.393.58-5.935-7.343-10.03-3.765-18.76 2.406-5.87 8.404-8.485 14.953-8.539-4.173 2.86-5.117 8.691-2.175 13.86 4.226 7.42 9.434 7.768 14.952 16.39 1.464 2.287 2.503 6.09 3.341 9.728 2.243-4.154.87-7.897.036-11.194-1.567-6.194 3.331-14.525 11.753-13.967z" fill="none" stroke="#000" stroke-width=".625"/><path d="M912.428 680.889c-.942 9.84 8.157 10.573 15.076 13.282-1.135-6.272-.856-14.498-5.161-16.39" fill="#ffd203" stroke="#000" stroke-width=".625"/><path d="M878.27 672.769c2.825-1.875 4.537-2.601 7.198-1.857 4.325 1.07 5.72 3.512 7.71 3.28-.108 1.727-.398 3.385-3.171 4.084-2.724-.47-4.286-1.13-5.561-1.891-.359-.214.576-2.43 1.368-4.291-.716.038-2.805 1.064-2.988 3.213-1.155-.811-2.41-1.683-4.557-2.538" fill="#fff"/><path d="M878.27 672.769c2.825-1.875 4.537-2.601 7.198-1.857 4.325 1.07 5.72 3.512 7.71 3.28-.108 1.727-.398 3.385-3.171 4.084-2.724-.47-4.286-1.13-5.561-1.891-.359-.214.576-2.43 1.368-4.291-.716.038-2.805 1.064-2.988 3.213-1.155-.811-2.41-1.683-4.557-2.538z" fill="none" stroke="#000" stroke-width=".625" stroke-linecap="round" stroke-linejoin="round"/><path d="M874.143 675.663c2.897-4.134 5.364-1.396 7.926-.165 6.692 6.862 10.826 1.474 15.498-1.34m-2.246-52.957c10.583-.67 15.413 12.03 15.413 12.03s4.788-6.255 2.021-11.354c5.94 4.173 9.203 12.51 3.628 23.743 3.455-.528 6.88-4.144 7.446-6.218 2.247 8.1.28 19.174-7.414 25.21m-52.835 6.263s1.066-2.522 2.813-1.067m60.339 17.867s-8.7 1.694-10.025-7.716" fill="none" stroke="#000" stroke-width=".625"/><path d="M981.953 454.243s6.08.523 9.424-5.2c3.488-5.967-2.412-10.363-2.412-10.363" fill="#ffd203" stroke="#000" stroke-width=".625"/></g></g><path d="M52.295 790.42H86.48v73.036H52.295zm131.555 0h34.186v73.036h-34.187zm131.555 0h34.187v73.036h-34.187zm131.556 0h34.187v73.036h-34.187zm131.555 0h34.188v73.036h-34.188zM118.072 683.753h34.187v73.036h-34.187zm131.556 0h34.187v73.036h-34.187zm131.555 0h34.186v73.036h-34.186zm131.556 0h34.186v73.036H512.74zM52.295 577.087H86.48v73.036H52.295zm131.555 0h34.186v73.036h-34.187zm131.555 0h34.187v73.036h-34.187zm131.556 0h34.187v73.036h-34.187zm131.555 0h34.188v73.036h-34.188zm-460.443-33.63h34.186v-63.185h-34.186zm131.555 0h34.185v-63.185h-34.185zm131.555 0h34.186v-63.185h-34.186zm131.556 0h34.185v-63.185h-34.185zM0 756.79h20.703v-73.037H0zm0-213.333h20.703v-63.185H0zm644.295 140.296h34.186v73.036h-34.186zM118.073 960h34.186v-62.912h-34.186zm131.555 0h34.185v-62.912h-34.185zm131.555 0h34.186v-62.912h-34.186zm131.556 0h34.185v-62.912h-34.185zM0 960h20.703v-62.912H0zm644.295 0h34.185v-62.912h-34.185zm65.777-169.58h34.187v73.036h-34.187zm0-213.333h34.187v73.036h-34.187zm-65.777-33.63h34.185v-63.185h-34.185zM775.85 756.79h23.334v-73.037h-23.333zm0-213.333h23.334v-63.185h-23.333zm0 416.543h23.334v-62.912h-23.333z" fill="#ffd203"/><g clip-path="url(#c)" transform="matrix(1.33333 0 0 -1.33333 0 960)"><g clip-path="url(#d)"><path d="M377.894 126.74c4.51.19 9.382 5.18 17.124-3.492 1.61 3.247 1.449 7.433-2.123 9.946 5.258 3.411 10.902 12.221 12.488 17.507 2.067 6.888 3.373 14.94 8.84 16.933 2.9 1.057 5.615-1.027 5.365-4.59-.542-7.738-3.224-6.074-6.067-16.518-1.068-3.922 1.04-10.074 10.115-8.717-3.842 1.773-4.045 4.114-3.63 7.206.72 5.371 10.07 11.662 11.047 20.484 1.151 10.378-7.332 15.047-11.54 15.448-5.636.537-12.503-3.01-16.653-10.048-2.194 10.25 4.98 20.22 12.758 24.987 6.516 3.996 13.918 7.493 17.545 13.248 4.09 6.49 3.266 14.654-.929 18.676-.213-3.88-2.932-10.4-11.074-14.573-9.884-5.066-19.44-7.974-27.421-22.412-1.675 25.831 26.036 35.9 37.549 43.896 14.289 9.926 9.623 31.555 5.285 34.508.25-3.622.4-9.293-3.916-15.999-4.994-7.758-13.726-11.274-24.262-17.069-10.478-5.764-19.176-14.97-23.302-24.632-1.137 6.521 3.694 15.966 9.778 22.58 6.3 6.852 13.83 12.858 18.112 16.485 8.527 7.227 20.95 17.23 22.24 39.165.91 15.426-6.768 26.23-17.534 30.738-6.314 2.643-15.57 3.04-21.943 1.611-3.198-.717-6.386-1.819-9.38-3.618-2.107-1.267-5.743-.487-5.378 3.19.43 4.333 6.62 4.653 7.28 9.73.543 4.19-2.642 7.557-6.013 9.223.844-2.566-.071-5.543-1.84-8.512-2.305-3.87-7.525-3.459-8.206-10.782-.336-3.663 2.108-7.792 5.575-8.818.41-.25 1.1-.804.808-1.207-3.827-5.25-4.52-12.195-4.132-17.012.648-8.043 3.43-10.878 3.467-18.328.01-2.322.008-9.017-2.787-13.43-3.444-5.44-6.392-7.596-9.675-9.31 4.63-.29 9.582.783 13.047 2.127 6.405 2.484 11.84 10.395 12.922 15.64.719 3.491.557 6.756.098 9.935 3.135-1.06 8.595-1.212 12.415 1.318 3.923 2.597 6.094 8.21 3.21 13.102-.996-4.96-4.313-6.759-9.29-6.956-4.736-.187-8.522 2.77-8.936 7.912-.61 7.58 5.837 13.101 14.697 13.206 11.739.14 18.116-8.476 17.493-19.75-.624-11.3-6.223-19.62-14.14-26.346-6.8-5.779-13.957-11.392-21.034-18.414-5.52-5.478-16.394-17.089-16.76-32.484-.27-11.408 3.05-20.634 8.244-28.945 5.193-8.312 8.27-15.236 10.485-21.68 2.664-7.748 1.416-18.32-6.09-21.285-7.774-3.07-18.328 1.582-22.075 11.721-1.332-7.409-3.15-22.734 4.355-22.159 4.544-1.565 8.638-3.654 13.789-3.436" fill="#ffd203"/><path d="M377.894 126.74c4.51.19 9.382 5.18 17.124-3.492 1.61 3.247 1.449 7.433-2.123 9.946 5.258 3.411 10.902 12.221 12.488 17.507 2.067 6.888 3.373 14.94 8.84 16.933 2.9 1.057 5.615-1.027 5.365-4.59-.542-7.738-3.224-6.074-6.067-16.518-1.068-3.922 1.04-10.074 10.115-8.717-3.842 1.773-4.045 4.114-3.63 7.206.72 5.371 10.07 11.662 11.047 20.484 1.151 10.378-7.332 15.047-11.54 15.448-5.636.537-12.503-3.01-16.653-10.048-2.194 10.25 4.98 20.22 12.758 24.987 6.516 3.996 13.918 7.493 17.545 13.248 4.09 6.49 3.266 14.654-.929 18.676-.213-3.88-2.932-10.4-11.074-14.573-9.884-5.066-19.44-7.974-27.421-22.412-1.675 25.831 26.036 35.9 37.549 43.896 14.289 9.926 9.623 31.555 5.285 34.508.25-3.622.4-9.293-3.916-15.999-4.994-7.758-13.726-11.274-24.262-17.069-10.478-5.764-19.176-14.97-23.302-24.632-1.137 6.521 3.694 15.966 9.778 22.58 6.3 6.852 13.83 12.858 18.112 16.485 8.527 7.227 20.95 17.23 22.24 39.165.91 15.426-6.768 26.23-17.534 30.738-6.314 2.643-15.57 3.04-21.943 1.611-3.198-.717-6.386-1.819-9.38-3.618-2.107-1.267-5.743-.487-5.378 3.19.43 4.333 6.62 4.653 7.28 9.73.543 4.19-2.642 7.557-6.013 9.223.844-2.566-.071-5.543-1.84-8.512-2.305-3.87-7.525-3.459-8.206-10.782-.336-3.663 2.108-7.792 5.575-8.818.41-.25 1.1-.804.808-1.207-3.827-5.25-4.52-12.195-4.132-17.012.648-8.043 3.43-10.878 3.467-18.328.01-2.322.008-9.017-2.787-13.43-3.444-5.44-6.392-7.596-9.675-9.31 4.63-.29 9.582.783 13.047 2.127 6.405 2.484 11.84 10.395 12.922 15.64.719 3.491.557 6.756.098 9.935 3.135-1.06 8.595-1.212 12.415 1.318 3.923 2.597 6.094 8.21 3.21 13.102-.996-4.96-4.313-6.759-9.29-6.956-4.736-.187-8.522 2.77-8.936 7.912-.61 7.58 5.837 13.101 14.697 13.206 11.739.14 18.116-8.476 17.493-19.75-.624-11.3-6.223-19.62-14.14-26.346-6.8-5.779-13.957-11.392-21.034-18.414-5.52-5.478-16.394-17.089-16.76-32.484-.27-11.408 3.05-20.634 8.244-28.945 5.193-8.312 8.27-15.236 10.485-21.68 2.664-7.748 1.416-18.32-6.09-21.285-7.774-3.07-18.328 1.582-22.075 11.721-1.332-7.409-3.15-22.734 4.355-22.159 4.544-1.565 8.638-3.654 13.789-3.436z" fill="none" stroke="#000" stroke-width=".625"/><path d="M216.016 48.825c1.243-7.76-1.836-9-7.2-9.334 1.82-1.669 7.916-4.449 11.952-2.319 4.435 2.34 5.564 9.288 5.123 9.465zM199.07 61.107s-6.041 2.485-10.458-.032c-4.761-2.714-4.394-9.099-3.491-11.292 4.047 5.92 9.34 4.781 13.293 2zm-9.528 19.14a10.07 10.07 0 0 1-2.795-.323c-6.895-1.837-6.795-7.086-6.893-8.832 7.635 3.711 10.44 0 14.863-3.667l3.713 9.597c-1.363.951-4.912 3.148-8.888 3.224M199.61 93.55c-4.495-.018-7.695-3.363-8.068-4.016 8.257-.54 8.649-3.79 10.868-9.57 3.148 2.287 5.927 4.247 7.747 5.3.159 1.332-1.831 5.27-6.507 7.38-1.43.646-2.781.91-4.04.906" fill="#ed2939"/><path d="M216.016 48.825c1.243-7.76-1.836-9-7.2-9.334 1.82-1.669 7.916-4.449 11.952-2.319 4.435 2.34 5.564 9.288 5.123 9.465zM199.07 61.107s-6.041 2.485-10.458-.032c-4.761-2.714-4.394-9.099-3.491-11.292 4.047 5.92 9.34 4.781 13.293 2zm-9.528 19.14a10.07 10.07 0 0 1-2.795-.323c-6.895-1.837-6.795-7.086-6.893-8.832 7.635 3.711 10.44 0 14.863-3.667l3.713 9.597c-1.363.951-4.912 3.148-8.888 3.224zM199.61 93.55c-4.495-.018-7.695-3.363-8.068-4.016 8.257-.54 8.649-3.79 10.868-9.57 3.148 2.287 5.927 4.247 7.747 5.3.159 1.332-1.831 5.27-6.507 7.38-1.43.646-2.781.91-4.04.906z" fill="none" stroke="#000" stroke-width=".625"/><path d="M265.053 151.788c-14.108.006-22.854-9.41-24.662-19.916-.775-4.509-1.51-7.595-3.617-9.369-5.173-4.354-13.488-5.276-14.262-4.986 4.968-5.917 9.363-7.898 15.99-6.46-1.381-7.286 5.323-16.322 8.786-23.782 1.17-2.518-4.705-4.293-11.765-5.505-2.298-.394-6.805-3.222-9.013-3.837-2.287-.638-5.74-.416-7.067.404-1.37.847-6.317 6.421-10.074 7.654-3.497 1.15-7.874.49-8.687-2.356-1.295-4.543 4.746-6.36 5.552-7.966.779-1.553-.561-2.796-1.693-2.145-1.344.774-5.677 5.585-8.355 4.736-2.018-.64-3.68-2.45-4.187-7.46-.43-4.248 6.522-5.545 9.15-5.746 2.14-.163 1.862-2.282.572-2.684-1.387-.434-7.45 3.197-7.794.32-.345-2.879-.796-9.15 3.007-11.353 2.99-1.73 14.234 1.556 15.522 1.881 1.533.385 3.03.836 3.529.375 3.39-3.135-3.547-4.254-1.198-7.164 2.497-3.093 6.105-3.378 9.433-3.926 6.837-1.126 3.368 11.825 4.88 11.904 3.263.453 4.54.952 7.17-1.17s6.582-8.683 12.119-10.393c-.483 5.015-.085 9.528 1.61 12.9 1.924-5.759 8.857-8.612 15.898-10.446-3.524 4.117-4.487 11.587-3.36 12.726 4.629-5.153 8.98-7.029 17.724-6.779-2.603 1.932-3.934 7.57-3.36 9.155.883 2.433 2.79-1.803 5.135 3.14 1.477 3.115-.906 6.871-1.895 8.813-4.531 8.905-5.216 29.525 15.713 34.394 11.383 2.648 28.585 9.26 30.074 11.131 11.866 14.92.91 27.524-5.211 34.757-15.49-7.389-37.86-1.095-55.664-.847" fill="#ffd203"/><path d="M265.053 151.788c-14.108.006-22.854-9.41-24.662-19.916-.775-4.509-1.51-7.595-3.617-9.369-5.173-4.354-13.488-5.276-14.262-4.986 4.968-5.917 9.363-7.898 15.99-6.46-1.381-7.286 5.323-16.322 8.786-23.782 1.17-2.518-4.705-4.293-11.765-5.505-2.298-.394-6.805-3.222-9.013-3.837-2.287-.638-5.74-.416-7.067.404-1.37.847-6.317 6.421-10.074 7.654-3.497 1.15-7.874.49-8.687-2.356-1.295-4.543 4.746-6.36 5.552-7.966.779-1.553-.561-2.796-1.693-2.145-1.344.774-5.677 5.585-8.355 4.736-2.018-.64-3.68-2.45-4.187-7.46-.43-4.248 6.522-5.545 9.15-5.746 2.14-.163 1.862-2.282.572-2.684-1.387-.434-7.45 3.197-7.794.32-.345-2.879-.796-9.15 3.007-11.353 2.99-1.73 14.234 1.556 15.522 1.881 1.533.385 3.03.836 3.529.375 3.39-3.135-3.547-4.254-1.198-7.164 2.497-3.093 6.105-3.378 9.433-3.926 6.837-1.126 3.368 11.825 4.88 11.904 3.263.453 4.54.952 7.17-1.17s6.582-8.683 12.119-10.393c-.483 5.015-.085 9.528 1.61 12.9 1.924-5.759 8.857-8.612 15.898-10.446-3.524 4.117-4.487 11.587-3.36 12.726 4.629-5.153 8.98-7.029 17.724-6.779-2.603 1.932-3.934 7.57-3.36 9.155.883 2.433 2.79-1.803 5.135 3.14 1.477 3.115-.906 6.871-1.895 8.813-4.531 8.905-5.216 29.525 15.713 34.394 11.383 2.648 28.585 9.26 30.074 11.131 11.866 14.92.91 27.524-5.211 34.757-15.49-7.389-37.86-1.095-55.664-.847z" fill="none" stroke="#000" stroke-width=".625"/><path d="M269.442 79.228s3.803-5.3.917-10.883c-3.01-5.822-9.925-2.405-9.925-2.405" fill="#ffd203" stroke="#000" stroke-width=".625"/><path d="M180.094 279.68c-4.298-6.577-9.82-6.866-16.92-3.245 4.252-13.511 14.649-13.632 24.254-6.374zm-19.576 37.25c-3.787.21-8.39-2.114-10.488-11.33 10.053 7.199 9.913.019 14.733-4.9l6.952 11.184s-3.721 2.78-8.737 4.554a8.931 8.931 0 0 1-2.46.493m37.837 14.14c-2.133.095-4.238-.464-5.77-1.524 4.383-1.687 6.773-3.625 4.38-10.88l8.235-5.776c2.152 2.474 4.49 8.194.436 14.25-1.736 2.594-4.54 3.807-7.281 3.93m-23.783.869c-6.351.038-9.912-4.823-10.861-6.595 11.322 1.426 10.259-1.863 12.168-8.621l9.889 3.852c-.8 3.547-2.21 9.308-7.383 10.797-1.37.395-2.637.56-3.813.567" fill="#ed2939"/><path d="M180.094 279.68c-4.298-6.577-9.82-6.866-16.92-3.245 4.252-13.511 14.649-13.632 24.254-6.374zm-19.576 37.25c-3.787.21-8.39-2.114-10.488-11.33 10.053 7.199 9.913.019 14.733-4.9l6.952 11.184s-3.721 2.78-8.737 4.554a8.931 8.931 0 0 1-2.46.493zm37.837 14.14c-2.133.096-4.238-.463-5.77-1.523 4.383-1.687 6.773-3.625 4.38-10.88l8.235-5.776c2.152 2.474 4.49 8.194.436 14.25-1.736 2.594-4.54 3.807-7.281 3.93zm-23.783.87c-6.351.038-9.912-4.823-10.861-6.595 11.322 1.426 10.259-1.863 12.168-8.621l9.889 3.852c-.8 3.547-2.21 9.308-7.383 10.797-1.37.395-2.637.56-3.813.567z" fill="none" stroke="#000" stroke-width=".625"/><path d="M197.067 263.741c.331-3.77 2.77-9.216 1.722-13.729 2.717 2.57 5.213 5.815 5.522 9.317 4.11-7.228-1.125-17.313-.727-25.182 2.101 2.73 7.194 6.747 8.34 10.378 4.133-8.937-5.29-10.96-.396-28.63 1.704 6.38 6.03 11.656 7.848 16.031 1.395-12.145 13.067-20.164 19.645-18.153 15.082-19.658 33.244-12.004 32.366 9.38 0 0-14.256 31.525-17.943 34.245-4.003 2.953-9.096 5.62-14.905 9.325-6.555 4.184-11.935 7.541-17.019 12.243-5.084 4.701-7.53 8.92-10.86 12.22-4.688 4.647-7.8 9.807-7.902 12.203-.122 2.933 2.72 3.718 3.773 8.375 1.254 5.54-4.443 11.483-9.74 10.66-3.02-.47-3.346-6.088-4.976-7.219-.384-.267-.845-.36-1.435-.187-3.098.906-.549 9.906-5.554 10.261-5.005.356-8.993-1.166-11.698-6.072-2.175-3.945 5.361-6.635 5.645-8.952.064-.519-1.028-1.273-1.558-1.259-.349.008-5.736 5.814-9.95 4.41-3.286-1.095-6.848-4.944-5.725-10.282.971-4.616 7.085-4.945 10.021-5.26 3.48-.37 11.262-10.303 10.634-14.777-.192-3.607-5.553-2.188-6.68-6.323-1.448-5.303 2.702-11.247 7.371-10.54 3.493.53 7.245 5.075 8.834 5.223 3.851.022 4.981-3.519 5.347-7.706" fill="#ffd203"/><path d="M197.067 263.741c.331-3.77 2.77-9.216 1.722-13.729 2.717 2.57 5.213 5.815 5.522 9.317 4.11-7.228-1.125-17.313-.727-25.182 2.101 2.73 7.194 6.747 8.34 10.378 4.133-8.937-5.29-10.96-.396-28.63 1.704 6.38 6.03 11.656 7.848 16.031 1.395-12.145 13.067-20.164 19.645-18.153 15.082-19.658 33.244-12.004 32.366 9.38 0 0-14.256 31.525-17.943 34.245-4.003 2.953-9.096 5.62-14.905 9.325-6.555 4.184-11.935 7.541-17.019 12.243-5.084 4.701-7.53 8.92-10.86 12.22-4.688 4.647-7.8 9.807-7.902 12.203-.122 2.933 2.72 3.718 3.773 8.375 1.254 5.54-4.443 11.483-9.74 10.66-3.02-.47-3.346-6.088-4.976-7.219-.384-.267-.845-.36-1.435-.187-3.098.906-.549 9.906-5.554 10.261-5.005.356-8.993-1.166-11.698-6.072-2.175-3.945 5.361-6.635 5.645-8.952.064-.519-1.028-1.273-1.558-1.259-.349.008-5.736 5.814-9.95 4.41-3.286-1.095-6.848-4.944-5.725-10.282.971-4.616 7.085-4.945 10.021-5.26 3.48-.37 11.262-10.303 10.634-14.777-.192-3.607-5.553-2.188-6.68-6.323-1.448-5.303 2.702-11.247 7.371-10.54 3.493.53 7.245 5.075 8.834 5.223 3.851.022 4.981-3.519 5.347-7.706z" fill="none" stroke="#000" stroke-width=".625"/><path d="M289.86 158.88c9.192-3.451 16.99-11.962 17.998-18.08-5.297-10.554-1.802-15.273 5.768-14.01 6.178 1.028 6.188 5.959 4.561 11.648-1.452 5.075-3.66 8.504-8.365 12.133-6.142 4.74-17.322 8.774-19.962 8.309" fill="#ffd203"/><path d="M289.86 158.88c9.192-3.451 16.99-11.962 17.998-18.08-5.297-10.554-1.802-15.273 5.768-14.01 6.178 1.028 6.188 5.959 4.561 11.648-1.452 5.075-3.66 8.504-8.365 12.133-6.142 4.74-17.322 8.774-19.962 8.309z" fill="none" stroke="#000" stroke-width=".625"/><path d="M361.563 20.273c-1.275-1.265-3.999-3.27-3.022-8.606 1.05-5.738 6.484-7.726 8.7-7.618-2.859 5.078-1.53 9.38 1.616 12.377zm-14.682 6.158s-5.878-1.668-6.499-9.103c-.62-7.427 4.643-9.933 6.001-10.406-.675 5.53 1.339 10.538 7.665 13.015zm-8.646 14.271c-1.403-.15-2.949-.67-4.415-1.787-5.466-4.162-3.619-11.729-3.164-12.64 4.314 7.096 7.849 7.601 13.156 3.333l-.647 10.021c-.631.572-2.592 1.325-4.93 1.073m8.09 15.05a9.36 9.36 0 0 1-1.88-.447c-4.581-1.61-6.728-7.652-6.703-9.96 4.101 3.644 7.129 4.346 12.792.08 1.267 2.073 3.189 4.95 5.12 7.855-.735.671-4.924 3.068-9.329 2.471" fill="#ed2939"/><path d="M361.563 20.273c-1.275-1.265-3.999-3.27-3.022-8.606 1.05-5.738 6.484-7.726 8.7-7.618-2.859 5.078-1.53 9.38 1.616 12.377zm-14.682 6.158s-5.878-1.668-6.499-9.103c-.62-7.427 4.643-9.933 6.001-10.406-.675 5.53 1.339 10.538 7.665 13.015zm-8.646 14.271c-1.403-.15-2.949-.67-4.415-1.787-5.466-4.162-3.619-11.729-3.164-12.64 4.314 7.096 7.849 7.601 13.156 3.333l-.647 10.021c-.631.572-2.592 1.325-4.93 1.073zm8.09 15.05a9.36 9.36 0 0 1-1.88-.447c-4.581-1.61-6.728-7.652-6.703-9.96 4.101 3.644 7.129 4.346 12.792.08 1.267 2.073 3.189 4.95 5.12 7.855-.735.671-4.924 3.068-9.329 2.471z" fill="none" stroke="#000" stroke-width=".625"/><path d="M174.861 147.378c-1.335-2.585-3.774-6.463-2.279-11.104 1.821-5.655 8.925-7.001 10.928-7.14-3.459 5.9-2.358 10.015.433 15.723zM163.9 159.482s-7.497-2.395-9.314-8.34c-1.938-6.342 2.106-11.338 3.97-12.321.827 4.437 1.805 10.795 10.518 12.547zm-2.16 17.218c-2.333-.012-6.003-.404-8.988-2.385-4.679-3.105-5.986-10.158-5.53-11.573 4.61 4.785 8.093 6.203 16.635 4.41l.196 9.43s-.913.125-2.313.118m12.9 19.843c-4.29-.04-8.24-4.21-9.156-6.695 4.633 1.839 7.805.982 10.493-1.832l6.871 4.83s-3.66 3.197-7.346 3.656a6.41 6.41 0 0 1-.863.04" fill="#ed2939"/><path d="M174.861 147.378c-1.335-2.585-3.774-6.463-2.279-11.104 1.821-5.655 8.925-7.001 10.928-7.14-3.459 5.9-2.358 10.015.433 15.723zM163.9 159.482s-7.497-2.395-9.314-8.34c-1.938-6.342 2.106-11.338 3.97-12.321.827 4.437 1.805 10.795 10.518 12.547zm-2.16 17.218c-2.333-.012-6.003-.404-8.988-2.385-4.679-3.105-5.986-10.158-5.53-11.573 4.61 4.785 8.093 6.203 16.635 4.41l.196 9.43s-.913.125-2.313.118zm12.9 19.843c-4.29-.04-8.24-4.21-9.156-6.695 4.633 1.839 7.805.982 10.493-1.832l6.871 4.83s-3.66 3.197-7.346 3.656a6.41 6.41 0 0 1-.863.04z" fill="none" stroke="#000" stroke-width=".625"/><path d="M378.984 34.446c1.617 11.484 14.59 5.793 19.302 15.683-3.755-.342-8.614 1.651-10.485 5.446 9.74 1.233 13.64 4.957 17.956 9.97-3.899-.637-9.812-.568-11.515 4.937 4.653.826 14.422 2.402 18.486 11.562-9.228-3.07-14.335-.648-14.326 2.141.026 8.246 4.798 8.552-2.507 13.435-2.053 1.372-9.898 1.651-9.92 5.844-.013 2.223 5.668 7.101 8.468 9.276-1.997-.093-7.38 1.712-11.725-.27-4.344-1.984-8.305-3.184-16.2 2.814-5.856 5.158-11.228 5.998-4.157 14.98 4.495 6.158.306 15.658-2.556 22.723-2.787 7.537-5.253 15.151-10.699 23.042-4.183 6.062-15.329 16.422-15.927 24.534-.783 10.517-.982 21.742-.33 27.212 1.781 14.988 2.41 17.835-11.792 22.66-8.395 2.853-37.554 10.337-51.358-4.927-7.053-7.8-14.644-7.278-20.779-17.693-6.135-10.415-6.273-7.1-11.586-12.07-5.313-4.97-10.124-8.826-11.645-9.813-3.044-1.97-4.116-2.365-9.237-6.254-5.12-3.888-9.694-7.523-10.548-8.477-1.707-1.908-10.845-5.495-12.882-5.263-1.256.144-4.833 6.314-7.517 6.813-3.362.626-11.282-1.745-11.375-6.017-.05-2.289 6.104-4.46 5.13-7.027-.663-1.746-5.51-3.475-7.66-2.98-1.23.282-4.777 2.343-7.689 1.562-5.44-1.46-7.1-9.314-3.875-12.374 1.64-1.556 8.02.353 8.978-.204 1.086-.63 1.782-1.128 1.2-2.356-.633-1.332-8.53-.976-9.527-2.71-3.392-5.907 1.435-14.328 7.61-11.644 2.075.901 4.06 2.415 5.447 3.424 1.232.895 2.38-.229 2.504-.905.283-1.538-5.413-5.135-4.65-7.468 1.465-4.486 11.006-5.657 13.326-1.91 1.8 2.907 5.464 9.801 6.153 10.737.345.467.88 1.516 5.148 2.658 10.651 2.561 14.207-2.073 18.076-11.076 3.467 2.927 8.937 11.576 6.14 16.31 3.958-4.185 10.618-8.952 16.343-9.552-2.306 6.35.664 11.694 1.58 13.868 3.657-3.79 13.534-7.829 20.605-6.32-6.082 3.806-9.553 10.682-2.743 13.891 6.811 3.208 8.546 5.06 10.11 11.087 1.563 6.03 9.395 4.141 12.367-.116 2.971-4.259 4.162-5.832 7.611-9.71 3.71-4.175 8.7-8.28 11.962-10.805 3.687-2.852 7.12-5.976 10.218-10.485 3.97-5.777 5.838-12.314 5.631-20.262-.906-7.659-6.703-12.135-6.677-19.684-.239-2.906-3.392-7.552 1.398-14.153 4.79-6.6 8.148-21.259 4.061-27.276 12.837 2.677 16.486 14.642 12.892 24.032 5.597-3.417 9.134-4.007 13.707-6.98 1.732-1.127 9.624-6.502 11.555-7.583 4.042-2.87 3.474-2.347 9.547-5.724.51-.704 2.314-5.77 2.521-7.116.06-.39.763-3.467.22-7.212-.48-3.314-1.735-7.136-3.412-8.574-1.725-1.479-2.995 3.114-5.136 2.391-2.83-.955-8.069-6.246-6.838-8.928 1.198-2.609 7.822-.513 5.54-2.288l-2.918-2.269c-1.794-1.395-2.855 1.156-6.912-.138-4.984-1.589-5.363-8.108-2.036-11.083 2.19-1.958 5.893.077 5.893.077 4.205 1.692 5.948.36.67-1.93 0 0-5.078-2.322-3.754-6.427.904-2.8 5.357-5.208 7.464-4.502 2.797.936 5.728 3.26 6.407 5.043 1.274 3.342 3.016 1.727 2.164-.908-.483-1.497-1.227-4.648.984-5.838 2.695-1.452 8.311.501 9.84 2.527 2.34 3.103 1.27 7.31.403 8.424 4.355 2.132 6.337 5.36 7.276 8.198" fill="#ffd203"/><path d="M378.984 34.446c1.617 11.484 14.59 5.793 19.302 15.683-3.755-.342-8.614 1.651-10.485 5.446 9.74 1.233 13.64 4.957 17.956 9.97-3.899-.637-9.812-.568-11.515 4.937 4.653.826 14.422 2.402 18.486 11.562-9.228-3.07-14.335-.648-14.326 2.141.026 8.246 4.798 8.552-2.507 13.435-2.053 1.372-9.898 1.651-9.92 5.844-.013 2.223 5.668 7.101 8.468 9.276-1.997-.093-7.38 1.712-11.725-.27-4.344-1.984-8.305-3.184-16.2 2.814-5.856 5.158-11.228 5.998-4.157 14.98 4.495 6.158.306 15.658-2.556 22.723-2.787 7.537-5.253 15.151-10.699 23.042-4.183 6.062-15.329 16.422-15.927 24.534-.783 10.517-.982 21.742-.33 27.212 1.781 14.988 2.41 17.835-11.792 22.66-8.395 2.853-37.554 10.337-51.358-4.927-7.053-7.8-14.644-7.278-20.779-17.693-6.135-10.415-6.273-7.1-11.586-12.07-5.313-4.97-10.124-8.826-11.645-9.813-3.044-1.97-4.116-2.365-9.237-6.254-5.12-3.888-9.694-7.523-10.548-8.477-1.707-1.908-10.845-5.495-12.882-5.263-1.256.144-4.833 6.314-7.517 6.813-3.362.626-11.282-1.745-11.375-6.017-.05-2.289 6.104-4.46 5.13-7.027-.663-1.746-5.51-3.475-7.66-2.98-1.23.282-4.777 2.343-7.689 1.562-5.44-1.46-7.1-9.314-3.875-12.374 1.64-1.556 8.02.353 8.978-.204 1.086-.63 1.782-1.128 1.2-2.356-.633-1.332-8.53-.976-9.527-2.71-3.392-5.907 1.435-14.328 7.61-11.644 2.075.901 4.06 2.415 5.447 3.424 1.232.895 2.38-.229 2.504-.905.283-1.538-5.413-5.135-4.65-7.468 1.465-4.486 11.006-5.657 13.326-1.91 1.8 2.907 5.464 9.801 6.153 10.737.345.467.88 1.516 5.148 2.658 10.651 2.561 14.207-2.073 18.076-11.076 3.467 2.927 8.937 11.576 6.14 16.31 3.958-4.185 10.618-8.952 16.343-9.552-2.306 6.35.664 11.694 1.58 13.868 3.657-3.79 13.534-7.829 20.605-6.32-6.082 3.806-9.553 10.682-2.743 13.891 6.811 3.208 8.546 5.06 10.11 11.087 1.563 6.03 9.395 4.141 12.367-.116 2.971-4.259 4.162-5.832 7.611-9.71 3.71-4.175 8.7-8.28 11.962-10.805 3.687-2.852 7.12-5.976 10.218-10.485 3.97-5.777 5.838-12.314 5.631-20.262-.906-7.659-6.703-12.135-6.677-19.684-.239-2.906-3.392-7.552 1.398-14.153 4.79-6.6 8.148-21.259 4.061-27.276 12.837 2.677 16.486 14.642 12.892 24.032 5.597-3.417 9.134-4.007 13.707-6.98 1.732-1.127 9.624-6.502 11.555-7.583 4.042-2.87 3.474-2.347 9.547-5.724.51-.704 2.314-5.77 2.521-7.116.06-.39.763-3.467.22-7.212-.48-3.314-1.735-7.136-3.412-8.574-1.725-1.479-2.995 3.114-5.136 2.391-2.83-.955-8.069-6.246-6.838-8.928 1.198-2.609 7.822-.513 5.54-2.288l-2.918-2.269c-1.794-1.395-2.855 1.156-6.912-.138-4.984-1.589-5.363-8.108-2.036-11.083 2.19-1.958 5.893.077 5.893.077 4.205 1.692 5.948.36.67-1.93 0 0-5.078-2.322-3.754-6.427.904-2.8 5.357-5.208 7.464-4.502 2.797.936 5.728 3.26 6.407 5.043 1.274 3.342 3.016 1.727 2.164-.908-.483-1.497-1.227-4.648.984-5.838 2.695-1.452 8.311.501 9.84 2.527 2.34 3.103 1.27 7.31.403 8.424 4.355 2.132 6.337 5.36 7.276 8.198z" fill="none" stroke="#000" stroke-width=".625"/><path d="M207.385 164.894s37.495 11.984 61.33 37.237" fill="#ffd203" stroke="#000" stroke-width=".625"/><path d="M274.707 323.792c15.049 2.188 30.036 1.846 44.957-1.123.244 2.36 1.137 5.531 2.34 8.113 2.1 4.504 4.773 9.226 7.479 13.246-1.984.133-4.635-1.425-6.635-4.647-.731 1.48-3.884 2.659-5.975.764 1.677-1.919 4.174-4.289 2.392-6.874-1.276-1.853-3.57-1.47-5.093-.485-1.367.885-2.601 2.879-2.983 5.798-1.973-3.171-4.172-4.599-6.122-4.6-3.257-.001-4.84 1.128-4.797 2.916.078 3.14 3.666 4.23 6.117 4.933-.728 2.727-4.015 3.446-5.432 2.6.068 3.791-1.313 6.538-3.052 7.503-1.784-.876-3.301-3.552-3.422-7.341-1.374.917-4.693.361-5.556-2.325 2.412-.825 5.942-2.092 5.862-5.232-.045-1.789-1.683-2.837-4.936-2.673-1.948.098-4.073 1.634-5.885 4.899-.527-2.896-1.859-4.826-3.268-5.641-1.571-.908-3.881-1.176-5.063.737-1.651 2.672.962 4.913 2.733 6.747-1.994 1.997-5.202.978-6.006-.464-1.836 3.317-4.406 5.006-6.394 4.972a100.916 100.916 0 0 0 6.807-13.602c1.073-2.639 1.806-5.851 1.932-8.221z" fill="#ffd203"/><path d="M274.707 323.792c15.049 2.188 30.036 1.846 44.957-1.123.244 2.36 1.137 5.531 2.34 8.113 2.1 4.504 4.773 9.226 7.479 13.246-1.984.133-4.635-1.425-6.635-4.647-.731 1.48-3.884 2.659-5.975.764 1.677-1.919 4.174-4.289 2.392-6.874-1.276-1.853-3.57-1.47-5.093-.485-1.367.885-2.601 2.879-2.983 5.798-1.973-3.171-4.172-4.599-6.122-4.6-3.257-.001-4.84 1.128-4.797 2.916.078 3.14 3.666 4.23 6.117 4.933-.728 2.727-4.015 3.446-5.432 2.6.068 3.791-1.313 6.538-3.052 7.503-1.784-.876-3.301-3.552-3.422-7.341-1.374.917-4.693.361-5.556-2.325 2.412-.825 5.942-2.092 5.862-5.232-.045-1.789-1.683-2.837-4.936-2.673-1.948.098-4.073 1.634-5.885 4.899-.527-2.896-1.859-4.826-3.268-5.641-1.571-.908-3.881-1.176-5.063.737-1.651 2.672.962 4.913 2.733 6.747-1.994 1.997-5.202.978-6.006-.464-1.836 3.317-4.406 5.006-6.394 4.972a100.916 100.916 0 0 0 6.807-13.602c1.073-2.639 1.806-5.851 1.932-8.221z" fill="none" stroke="#000" stroke-width=".625"/><path d="M312.047 269.922c-5 1.254-9.821 2.455-13.788 4.985-3.696 2.357-9.27 3.248-13.781 2.335-7.26-1.468-11.951-2.723-19.327-.79-6.211 1.63-8.064 5.703-6.886 12.59 1.295-4.011 3.486-5.948 5.58-6.552 2.696-.777 7.506-.784 11.267.55 19.47 6.912 32.208 1.09 36.935-13.118" fill="#ed2939"/><path d="M312.047 269.922c-5 1.254-9.821 2.455-13.788 4.985-3.696 2.357-9.27 3.248-13.781 2.335-7.26-1.468-11.951-2.723-19.327-.79-6.211 1.63-8.064 5.703-6.886 12.59 1.295-4.011 3.486-5.948 5.58-6.552 2.696-.777 7.506-.784 11.267.55 19.47 6.912 32.208 1.09 36.935-13.118z" fill="none" stroke="#000" stroke-width=".625"/><path d="M272.696 275.26c-.486-2.092.11-4.756 1.072-6.388l4.61 1.059c-2.35 1.288-4.44 3.196-5.682 5.33m-5.815 22.26c-.8-1.927-.666-7.924 3.164-9.83.607 3.405 2.262 7.349 3.492 9.36z" fill="#fff"/><path d="M272.696 275.26c-.486-2.092.11-4.756 1.072-6.388l4.61 1.059c-2.35 1.288-4.44 3.196-5.682 5.33zm-5.815 22.262c-.8-1.928-.666-7.925 3.164-9.83.607 3.404 2.262 7.348 3.492 9.36z" fill="none" stroke="#000" stroke-width=".625"/><path d="M334 188.954c-1.936 2.896-1.638 7.267-.51 10.87 1.538 4.914 5.118 8.924 6.276 14.377 1.348 6.38-1.87 7.92-1.367 11.066 2.662-4.738 10.336-5.1 12.645.856-3.415.483-6.5 2.75-7.6 5.946-1.983 5.757 2.906 7.747 3.696 13.323.933 6.578-2.966 9.444-3.215 12.228 3.271-.998 7.244.837 7.718 4.276-1.736-.644-3.517-.196-4.613 1.716-1.314 2.294-.261 5.314-.703 7.807-.82 4.63-4.36 5.197-4.813 8.081 3.45-1.745 8.045.765 8.128 5.191-1.28-.83-2.936-.94-4.314-.083-2.477 1.542-1.156 4.502-2.08 7.213-.67 1.964-4.626 4.23-4.847 6.374 2.982-.812 5.824.938 5.877 4.602-1.555-.692-5.072-.19-6.235 1.186-5.443 6.438-9.274 11.765-15.69 16.294-5.202 3.672-18.651 6.174-29.072 6.8-7.681.461-14.205-2.858-18.917-5.272-4.107-2.105-1.544-4.235-.476-6.245-3.511.432-6.51 1.035-9.83-.256-1.916-.746-4.414-2.37-4.212-3.448.117-.622 1.48-2.646 2.646-1.906-.076-2.415-.556-3.786-.485-6.292.095-3.295 1.98-6.312 4.664-6.996 7.115-1.812 13.643-1.44 20.198 1.062 8.873 3.385 11.668-1.636 12.376-7.052.713-5.46-1.083-12.225-5.997-16.457-2.551-2.198-7.231-4.365-11.783-4.162-2.554.114-5.021 1.384-7.26.403-1.142-.5-1.438-4.257-1.782-6.313-.269-1.605.966-2.486 2.671-2.9 3.953-.96 2.928-5.086 5.287-5.743.158 1.08 1.205 5.413 2.176 5.44 3.902.113 12.87 1.223 12.593-.252-.698-3.709-4.94-5.526-14.58-7.269-7.479-1.353-21.947 3-19.843 20.126-9.78-5.335-12.882-21.394-4.93-26.336-2.86.39-6.026.174-9.49-.394-5.149-.843-10.635 3.333-13.955 7.411-1.53-12.192.662-19.092 6.822-23.093 7.321-4.754 12.408-3.915 17.374-4.81-4.176-2.123-7.18-6.02-11.004-9.52-4.295-3.935-10.51-7.08-17.337-6.17 2.855-5.885 8.36-9.498 15.065-10.647 9.047-1.55 16.581.904 22.862 5.412-1.075-5.795-7.064-7.825-8.247-14.83-1.058-6.26 1.753-11.898 8.043-13.403-1.698 10.042 8.387 12.804 14.344 14.88 5.638 1.962 10.551 4.74 14.631 9.39.58-5.933-7.344-10.029-3.765-18.758 2.406-5.87 8.403-8.486 14.952-8.54-4.173 2.858-5.117 8.691-2.175 13.86 4.226 7.42 9.434 7.77 14.952 16.39 1.464 2.287 2.504 6.09 3.341 9.728 2.244-4.153.871-7.897.036-11.194-1.566-6.195 3.332-14.526 11.754-13.967" fill="#ffd203"/><path d="M334 188.954c-1.936 2.896-1.638 7.267-.51 10.87 1.538 4.914 5.118 8.924 6.276 14.377 1.348 6.38-1.87 7.92-1.367 11.066 2.662-4.738 10.336-5.1 12.645.856-3.415.483-6.5 2.75-7.6 5.946-1.983 5.757 2.906 7.747 3.696 13.323.933 6.578-2.966 9.444-3.215 12.228 3.271-.998 7.244.837 7.718 4.276-1.736-.644-3.517-.196-4.613 1.716-1.314 2.294-.261 5.314-.703 7.807-.82 4.63-4.36 5.197-4.813 8.081 3.45-1.745 8.045.765 8.128 5.191-1.28-.83-2.936-.94-4.314-.083-2.477 1.542-1.156 4.502-2.08 7.213-.67 1.964-4.626 4.23-4.847 6.374 2.982-.812 5.824.938 5.877 4.602-1.555-.692-5.072-.19-6.235 1.186-5.443 6.438-9.274 11.765-15.69 16.294-5.202 3.672-18.651 6.174-29.072 6.8-7.681.461-14.205-2.858-18.917-5.272-4.107-2.105-1.544-4.235-.476-6.245-3.511.432-6.51 1.035-9.83-.256-1.916-.746-4.414-2.37-4.212-3.448.117-.622 1.48-2.646 2.646-1.906-.076-2.415-.556-3.786-.485-6.292.095-3.295 1.98-6.312 4.664-6.996 7.115-1.812 13.643-1.44 20.198 1.062 8.873 3.385 11.668-1.636 12.376-7.052.713-5.46-1.083-12.225-5.997-16.457-2.551-2.198-7.231-4.365-11.783-4.162-2.554.114-5.021 1.384-7.26.403-1.142-.5-1.438-4.257-1.782-6.313-.269-1.605.966-2.486 2.671-2.9 3.953-.96 2.928-5.086 5.287-5.743.158 1.08 1.205 5.413 2.176 5.44 3.902.113 12.87 1.223 12.593-.252-.698-3.709-4.94-5.526-14.58-7.269-7.479-1.353-21.947 3-19.843 20.126-9.78-5.335-12.882-21.394-4.93-26.336-2.86.39-6.026.174-9.49-.394-5.149-.843-10.635 3.333-13.955 7.411-1.53-12.192.662-19.092 6.822-23.093 7.321-4.754 12.408-3.915 17.374-4.81-4.176-2.123-7.18-6.02-11.004-9.52-4.295-3.935-10.51-7.08-17.337-6.17 2.855-5.885 8.36-9.498 15.065-10.647 9.047-1.55 16.581.904 22.862 5.412-1.075-5.795-7.064-7.825-8.247-14.83-1.058-6.26 1.753-11.898 8.043-13.403-1.698 10.042 8.387 12.804 14.344 14.88 5.638 1.962 10.551 4.74 14.631 9.39.58-5.933-7.344-10.029-3.765-18.758 2.406-5.87 8.403-8.486 14.952-8.54-4.173 2.858-5.117 8.691-2.175 13.86 4.226 7.42 9.434 7.77 14.952 16.39 1.464 2.287 2.504 6.09 3.341 9.728 2.244-4.153.871-7.897.036-11.194-1.566-6.195 3.332-14.526 11.754-13.967z" fill="none" stroke="#000" stroke-width=".625"/><path d="M311.815 320.685c-.942 9.842 8.157 10.573 15.077 13.282-1.135-6.272-.857-14.498-5.161-16.39" fill="#ffd203" stroke="#000" stroke-width=".625"/><path d="M277.657 312.565c2.825-1.875 4.537-2.602 7.198-1.857 4.325 1.07 5.72 3.51 7.711 3.28-.109 1.726-.4 3.384-3.172 4.083-2.725-.47-4.286-1.129-5.56-1.89-.359-.215.576-2.43 1.368-4.292-.716.037-2.805 1.065-2.988 3.212-1.155-.809-2.41-1.682-4.557-2.537" fill="#fff"/><path d="M277.657 312.565c2.825-1.875 4.537-2.602 7.198-1.857 4.325 1.07 5.72 3.51 7.711 3.28-.109 1.726-.4 3.384-3.172 4.083-2.725-.47-4.286-1.129-5.56-1.89-.359-.215.576-2.43 1.368-4.292-.716.037-2.805 1.065-2.988 3.212-1.155-.809-2.41-1.682-4.557-2.537z" fill="none" stroke="#000" stroke-width=".625" stroke-linecap="round" stroke-linejoin="round"/><path d="M273.53 315.458c2.897-4.134 5.364-1.396 7.926-.164 6.692 6.861 10.826 1.474 15.498-1.34m-2.245-52.957c10.583-.67 15.413 12.03 15.413 12.03s4.789-6.255 2.02-11.354c5.94 4.173 9.204 12.51 3.63 23.743 3.455-.527 6.878-4.144 7.445-6.218 2.247 8.1.28 19.175-7.414 25.21m-52.837 6.262s1.068-2.521 2.814-1.066m60.34 17.866s-8.7 1.695-10.025-7.716" fill="none" stroke="#000" stroke-width=".625"/><path d="M381.341 94.04s6.08.521 9.423-5.2c3.488-5.968-2.412-10.364-2.412-10.364" fill="#ffd203" stroke="#000" stroke-width=".625"/></g><path d="M140.798 605.392c-.162 6.83-1.898 13.178-5.131 19.194-8.466 17.328-34.322 16.914-28.622-4.28 2.1-7.81 9.235-12.398 17.71-13.185-.611 2.057-3.976 9.332-1.26 10.755 4.345-.16 9.738-7.464 11.035-10.947.188-.5.135-1.078.344-1.57m16.692-.419c.162 6.83 1.898 13.178 5.13 19.194 8.467 17.328 34.323 16.914 28.623-4.28-2.1-7.808-9.235-12.398-17.711-13.185.612 2.058 3.977 9.332 1.26 10.755-4.344-.16-9.737-7.464-11.034-10.947-.187-.5-.135-1.078-.344-1.57" fill="#ffd203"/><path d="M146.682 671.112c8.918-9.354 14.907-20.17 12.325-32.855-1.424-6.999-4.876-13.48-7.31-20.223-1.524-4.23-1.913-8.649-1.733-13.094h-7.566c.362 4.48-.43 8.82-1.732 13.094-2.319 6.785-5.849 13.22-7.31 20.223-2.735 13.094 3.682 22.97 12.285 32.814l.526.652zm7.057-71.357c1.582-4.314 8.032-12.214 11.458-14.466.888-.584-4.248.337-6.547.827-3.016.643-6.936 3.77-6.844 2.666.009-5.053-1.452-13.485-5.258-17.359l-.361-.374-.372.374c-3.805 4.318-5.24 11.911-5.258 17.36.092 1.103-3.828-2.024-6.844-2.667-2.3-.49-7.435-1.41-6.547-.827 3.426 2.252 9.872 10.152 11.454 14.466z" fill="#ffd203"/><path d="M161.18 605.16h-30.053c-1.647 0-2.982-1.271-2.982-2.84 0-1.567 1.335-2.838 2.982-2.838h30.053c1.647 0 2.982 1.27 2.982 2.839 0 1.568-1.335 2.839-2.982 2.839m82.163.232c-.162 6.83-1.898 13.178-5.13 19.194-8.467 17.328-34.323 16.914-28.623-4.28 2.1-7.81 9.235-12.398 17.711-13.185-.612 2.057-3.977 9.332-1.26 10.755 4.344-.16 9.737-7.464 11.034-10.947.187-.5.135-1.078.344-1.57m16.692-.419c.162 6.83 1.898 13.178 5.131 19.194 8.466 17.328 34.322 16.914 28.622-4.28-2.1-7.808-9.235-12.398-17.71-13.185.611 2.058 3.976 9.332 1.26 10.755-4.345-.16-9.738-7.464-11.035-10.947-.187-.5-.135-1.078-.344-1.57" fill="#ffd203"/><path d="M249.227 671.112c8.918-9.354 14.907-20.17 12.325-32.855-1.424-6.999-4.876-13.48-7.31-20.223-1.523-4.23-1.912-8.649-1.732-13.094h-7.566c.362 4.48-.431 8.82-1.732 13.094-2.32 6.785-5.85 13.22-7.311 20.223-2.735 13.094 3.682 22.97 12.285 32.814l.526.652zm7.057-71.357c1.582-4.314 8.032-12.214 11.458-14.466.888-.584-4.248.337-6.547.827-3.016.643-6.936 3.77-6.844 2.666.008-5.053-1.452-13.485-5.258-17.359l-.36-.374-.373.374c-3.805 4.318-5.239 11.911-5.258 17.36.092 1.103-3.828-2.024-6.844-2.667-2.3-.49-7.435-1.41-6.547-.827 3.426 2.252 9.872 10.152 11.454 14.466z" fill="#ffd203"/><path d="M263.725 605.16h-30.053c-1.647 0-2.982-1.271-2.982-2.84 0-1.567 1.335-2.838 2.982-2.838h30.053c1.647 0 2.982 1.27 2.982 2.839 0 1.568-1.335 2.839-2.982 2.839m-174.2-81.204c-.162 6.83-1.898 13.178-5.132 19.194-8.465 17.328-34.32 16.914-28.62-4.278 2.1-7.81 9.233-12.4 17.71-13.187-.612 2.058-3.977 9.332-1.26 10.755 4.343-.16 9.737-7.464 11.034-10.947.187-.5.135-1.078.344-1.57m16.692-.419c.161 6.83 1.898 13.178 5.131 19.194 8.466 17.328 34.322 16.914 28.622-4.278-2.1-7.81-9.235-12.4-17.71-13.187.611 2.058 3.976 9.332 1.26 10.755-4.345-.16-9.739-7.463-11.035-10.947-.188-.5-.136-1.078-.345-1.57" fill="#ffd203"/><path d="M95.41 589.677c8.918-9.354 14.907-20.17 12.325-32.855-1.424-7-4.877-13.481-7.311-20.223-1.523-4.23-1.912-8.65-1.732-13.094h-7.566c.362 4.478-.432 8.818-1.732 13.094-2.32 6.784-5.85 13.219-7.311 20.223-2.734 13.094 3.683 22.969 12.286 32.813l.526.653zm7.056-71.357c1.582-4.314 8.032-12.215 11.458-14.467.888-.584-4.248.337-6.547.827-3.016.643-6.936 3.77-6.844 2.667.008-5.053-1.452-13.486-5.258-17.36l-.36-.374-.373.374c-3.805 4.318-5.239 11.911-5.258 17.36.092 1.103-3.828-2.024-6.844-2.667-2.3-.49-7.435-1.41-6.547-.827 3.426 2.252 9.872 10.153 11.454 14.466z" fill="#ffd203"/><path d="M109.907 523.724H79.853c-1.646 0-2.982-1.271-2.982-2.84 0-1.567 1.336-2.838 2.982-2.838h30.054c1.647 0 2.982 1.27 2.982 2.839 0 1.568-1.335 2.839-2.982 2.839m82.163.232c-.16 6.83-1.897 13.178-5.13 19.194-8.467 17.328-34.323 16.914-28.623-4.278 2.1-7.81 9.235-12.4 17.711-13.187-.61 2.058-3.977 9.332-1.26 10.755 4.344-.16 9.738-7.464 11.034-10.947.188-.5.136-1.078.345-1.57m16.692-.419c.16 6.83 1.897 13.178 5.13 19.194 8.467 17.328 34.323 16.914 28.623-4.278-2.1-7.81-9.235-12.4-17.711-13.187.61 2.058 3.977 9.332 1.26 10.755-4.344-.16-9.738-7.463-11.034-10.947-.188-.5-.136-1.078-.345-1.57" fill="#ffd203"/><path d="M197.955 589.677c8.918-9.354 14.906-20.17 12.325-32.855-1.424-7-4.877-13.481-7.31-20.223-1.524-4.23-1.913-8.65-1.733-13.094h-7.566c.362 4.478-.432 8.818-1.732 13.094-2.319 6.784-5.849 13.219-7.31 20.223-2.735 13.094 3.682 22.969 12.285 32.813l.526.653zm7.057-71.357c1.582-4.314 8.032-12.215 11.458-14.467.888-.584-4.248.337-6.547.827-3.016.643-6.936 3.77-6.845 2.667.009-5.053-1.451-13.486-5.257-17.36l-.361-.374-.372.374c-3.805 4.318-5.24 11.911-5.258 17.36.092 1.103-3.828-2.024-6.844-2.667-2.3-.49-7.436-1.41-6.547-.827 3.426 2.252 9.872 10.153 11.454 14.466z" fill="#ffd203"/><path d="M212.453 523.724h-30.054c-1.647 0-2.982-1.271-2.982-2.84 0-1.567 1.335-2.838 2.982-2.838h30.054c1.647 0 2.982 1.27 2.982 2.839 0 1.568-1.335 2.839-2.982 2.839m82.163.232c-.162 6.83-1.898 13.178-5.132 19.194-8.465 17.328-34.32 16.914-28.62-4.278 2.1-7.81 9.233-12.4 17.71-13.187-.612 2.058-3.977 9.332-1.26 10.755 4.343-.16 9.737-7.464 11.034-10.947.187-.5.135-1.078.344-1.57m16.692-.419c.162 6.83 1.898 13.178 5.132 19.194 8.465 17.328 34.32 16.914 28.62-4.278-2.1-7.81-9.233-12.4-17.71-13.187.612 2.058 3.977 9.332 1.26 10.755-4.343-.16-9.737-7.463-11.034-10.947-.187-.5-.135-1.078-.344-1.57" fill="#ffd203"/><path d="M300.5 589.677c8.918-9.354 14.907-20.17 12.325-32.855-1.424-7-4.877-13.481-7.31-20.223-1.523-4.23-1.912-8.65-1.732-13.094h-7.567c.362 4.478-.432 8.818-1.732 13.094-2.319 6.784-5.849 13.219-7.31 20.223-2.734 13.094 3.683 22.969 12.286 32.813l.526.653zm7.057-71.357c1.582-4.314 8.032-12.215 11.458-14.467.888-.584-4.248.337-6.547.827-3.016.643-6.936 3.77-6.845 2.667.01-5.053-1.45-13.486-5.257-17.36l-.36-.374-.373.374c-3.805 4.318-5.239 11.911-5.258 17.36.092 1.103-3.828-2.024-6.844-2.667-2.3-.49-7.435-1.41-6.547-.827 3.426 2.252 9.872 10.153 11.454 14.466z" fill="#ffd203"/><path d="M314.998 523.724h-30.054c-1.646 0-2.982-1.271-2.982-2.84 0-1.567 1.336-2.838 2.982-2.838h30.054c1.647 0 2.982 1.27 2.982 2.839 0 1.568-1.335 2.839-2.982 2.839m-174.2-81.204c-.162 6.83-1.898 13.178-5.131 19.194-8.466 17.328-34.322 16.915-28.622-4.278 2.1-7.81 9.235-12.4 17.71-13.187-.611 2.057-3.976 9.332-1.26 10.754 4.345-.159 9.738-7.463 11.035-10.947.188-.5.135-1.078.344-1.57m16.692-.418c.162 6.83 1.898 13.178 5.13 19.194 8.467 17.328 34.323 16.914 28.623-4.279-2.1-7.809-9.235-12.399-17.711-13.186.612 2.057 3.977 9.332 1.26 10.755-4.344-.16-9.737-7.464-11.034-10.947-.187-.5-.135-1.078-.344-1.57" fill="#ffd203"/><path d="M146.682 508.24c8.918-9.353 14.907-20.17 12.325-32.854-1.424-7-4.876-13.48-7.31-20.223-1.524-4.23-1.913-8.648-1.733-13.094h-7.566c.362 4.478-.43 8.819-1.732 13.094-2.319 6.785-5.849 13.219-7.31 20.223-2.735 13.094 3.682 22.97 12.285 32.814l.526.652zm7.057-71.356c1.582-4.314 8.032-12.214 11.458-14.466.888-.584-4.248.337-6.547.827-3.016.643-6.936 3.77-6.844 2.666.009-5.053-1.452-13.485-5.258-17.36l-.361-.373-.372.374c-3.805 4.318-5.24 11.91-5.258 17.359.092 1.104-3.828-2.023-6.844-2.666-2.3-.49-7.435-1.411-6.547-.827 3.426 2.252 9.872 10.152 11.454 14.466z" fill="#ffd203"/><path d="M161.18 442.288h-30.053c-1.647 0-2.982-1.27-2.982-2.839 0-1.568 1.335-2.839 2.982-2.839h30.053c1.647 0 2.982 1.271 2.982 2.84 0 1.567-1.335 2.838-2.982 2.838m82.163.232c-.162 6.83-1.898 13.178-5.13 19.194-8.467 17.328-34.323 16.915-28.623-4.278 2.1-7.81 9.235-12.4 17.711-13.187-.612 2.057-3.977 9.332-1.26 10.754 4.344-.159 9.737-7.463 11.034-10.947.187-.5.135-1.078.344-1.57m16.692-.418c.162 6.83 1.898 13.178 5.131 19.194 8.466 17.328 34.322 16.914 28.622-4.279-2.1-7.809-9.235-12.399-17.71-13.186.611 2.057 3.976 9.332 1.26 10.755-4.345-.16-9.738-7.464-11.035-10.947-.187-.5-.135-1.078-.344-1.57" fill="#ffd203"/><path d="M249.227 508.24c8.918-9.353 14.907-20.17 12.325-32.854-1.424-7-4.876-13.48-7.31-20.223-1.523-4.23-1.912-8.648-1.732-13.094h-7.566c.362 4.478-.431 8.819-1.732 13.094-2.32 6.785-5.85 13.219-7.311 20.223-2.735 13.094 3.682 22.97 12.285 32.814l.526.652zm7.057-71.356c1.582-4.314 8.032-12.214 11.458-14.466.888-.584-4.248.337-6.547.827-3.016.643-6.936 3.77-6.844 2.666.008-5.053-1.452-13.485-5.258-17.36l-.36-.373-.373.374c-3.805 4.318-5.239 11.91-5.258 17.359.092 1.104-3.828-2.023-6.844-2.666-2.3-.49-7.435-1.411-6.547-.827 3.426 2.252 9.872 10.152 11.454 14.466z" fill="#ffd203"/><path d="M263.725 442.288h-30.053c-1.647 0-2.982-1.27-2.982-2.839 0-1.568 1.335-2.839 2.982-2.839h30.053c1.647 0 2.982 1.271 2.982 2.84 0 1.567-1.335 2.838-2.982 2.838m82.164 163.104c-.162 6.83-1.898 13.178-5.131 19.194-8.466 17.328-34.322 16.914-28.622-4.28 2.1-7.81 9.234-12.398 17.71-13.185-.611 2.057-3.976 9.332-1.26 10.755 4.344-.16 9.738-7.464 11.035-10.947.187-.5.135-1.078.344-1.57m16.692-.419c.16 6.83 1.898 13.178 5.13 19.194 8.467 17.328 34.323 16.914 28.623-4.28-2.1-7.808-9.235-12.398-17.711-13.185.612 2.058 3.977 9.332 1.26 10.755-4.344-.16-9.738-7.464-11.034-10.947-.188-.5-.135-1.078-.345-1.57" fill="#ffd203"/><path d="M351.773 671.112c8.918-9.354 14.907-20.17 12.325-32.855-1.424-6.999-4.877-13.48-7.311-20.223-1.523-4.23-1.912-8.649-1.732-13.094h-7.566c.362 4.48-.431 8.82-1.732 13.094-2.32 6.785-5.85 13.22-7.311 20.223-2.734 13.094 3.683 22.97 12.286 32.814l.526.652zm7.057-71.357c1.582-4.314 8.032-12.214 11.458-14.466.888-.584-4.248.337-6.547.827-3.016.643-6.936 3.77-6.844 2.666.008-5.053-1.452-13.485-5.258-17.359l-.361-.374-.372.374c-3.805 4.318-5.24 11.911-5.258 17.36.092 1.103-3.828-2.024-6.844-2.667-2.3-.49-7.435-1.41-6.547-.827 3.426 2.252 9.872 10.152 11.454 14.466z" fill="#ffd203"/><path d="M366.27 605.16h-30.053c-1.646 0-2.981-1.271-2.981-2.84 0-1.567 1.335-2.838 2.98-2.838h30.055c1.647 0 2.982 1.27 2.982 2.839 0 1.568-1.335 2.839-2.982 2.839m82.163.232c-.161 6.83-1.897 13.178-5.131 19.194-8.466 17.328-34.322 16.914-28.622-4.28 2.1-7.81 9.235-12.398 17.71-13.185-.61 2.057-3.976 9.332-1.26 10.755 4.345-.16 9.739-7.464 11.035-10.947.188-.5.135-1.078.345-1.57m16.691-.419c.161 6.83 1.897 13.178 5.131 19.194 8.466 17.328 34.322 16.914 28.622-4.28-2.1-7.808-9.234-12.398-17.71-13.185.61 2.058 3.976 9.332 1.26 10.755-4.344-.16-9.739-7.464-11.035-10.947-.188-.5-.135-1.078-.344-1.57" fill="#ffd203"/><path d="M454.318 671.112c8.92-9.354 14.906-20.17 12.325-32.855-1.424-6.999-4.877-13.48-7.31-20.223-1.524-4.23-1.913-8.649-1.733-13.094h-7.566c.362 4.48-.432 8.82-1.732 13.094-2.32 6.785-5.849 13.22-7.31 20.223-2.735 13.094 3.681 22.97 12.285 32.814l.525.652zm7.057-71.357c1.582-4.314 8.032-12.214 11.458-14.466.889-.584-4.248.337-6.547.827-3.016.643-6.936 3.77-6.845 2.666.009-5.053-1.451-13.485-5.257-17.359l-.361-.374-.372.374c-3.805 4.318-5.239 11.911-5.258 17.36.092 1.103-3.828-2.024-6.844-2.667-2.3-.49-7.436-1.41-6.547-.827 3.426 2.252 9.872 10.152 11.454 14.466z" fill="#ffd203"/><path d="M468.816 605.16h-30.054c-1.647 0-2.982-1.271-2.982-2.84 0-1.567 1.335-2.838 2.982-2.838h30.054c1.646 0 2.981 1.27 2.981 2.839 0 1.568-1.335 2.839-2.98 2.839m-71.656-81.204c-.16 6.83-1.898 13.178-5.13 19.194-8.467 17.328-34.323 16.914-28.623-4.278 2.1-7.81 9.235-12.4 17.711-13.187-.612 2.058-3.977 9.332-1.26 10.755 4.344-.16 9.738-7.464 11.034-10.947.188-.5.135-1.078.345-1.57m16.692-.419c.16 6.83 1.897 13.178 5.13 19.194 8.467 17.328 34.323 16.914 28.623-4.278-2.101-7.81-9.235-12.4-17.711-13.187.61 2.058 3.977 9.332 1.26 10.755-4.344-.16-9.738-7.463-11.034-10.947-.188-.5-.135-1.078-.344-1.57" fill="#ffd203"/><path d="M403.046 589.677c8.918-9.354 14.906-20.17 12.325-32.855-1.425-7-4.877-13.481-7.311-20.223-1.523-4.23-1.912-8.65-1.732-13.094h-7.566c.36 4.478-.432 8.818-1.732 13.094-2.32 6.784-5.85 13.219-7.312 20.223-2.734 13.094 3.683 22.969 12.287 32.813l.525.653zm7.057-71.357c1.582-4.314 8.03-12.215 11.457-14.467.889-.584-4.247.337-6.546.827-3.016.643-6.936 3.77-6.845 2.667.009-5.053-1.451-13.486-5.257-17.36l-.361-.374-.373.374c-3.804 4.318-5.238 11.911-5.258 17.36.092 1.103-3.828-2.024-6.843-2.667-2.3-.49-7.436-1.41-6.547-.827 3.426 2.252 9.872 10.153 11.454 14.466z" fill="#ffd203"/><path d="M417.543 523.724H387.49c-1.647 0-2.982-1.271-2.982-2.84 0-1.567 1.335-2.838 2.982-2.838h30.053c1.647 0 2.982 1.27 2.982 2.839 0 1.568-1.335 2.839-2.982 2.839m-71.654-81.204c-.162 6.83-1.898 13.178-5.131 19.194-8.466 17.328-34.322 16.915-28.622-4.278 2.1-7.81 9.234-12.4 17.71-13.187-.611 2.057-3.976 9.332-1.26 10.754 4.344-.159 9.738-7.463 11.035-10.947.187-.5.135-1.078.344-1.57m16.692-.418c.16 6.83 1.898 13.178 5.13 19.194 8.467 17.328 34.323 16.914 28.623-4.279-2.1-7.809-9.235-12.399-17.711-13.186.612 2.057 3.977 9.332 1.26 10.755-4.344-.16-9.738-7.464-11.034-10.947-.188-.5-.135-1.078-.345-1.57" fill="#ffd203"/><path d="M351.773 508.24c8.918-9.353 14.907-20.17 12.325-32.854-1.424-7-4.877-13.48-7.311-20.223-1.523-4.23-1.912-8.648-1.732-13.094h-7.566c.362 4.478-.431 8.819-1.732 13.094-2.32 6.785-5.85 13.219-7.311 20.223-2.734 13.094 3.683 22.97 12.286 32.814l.526.652zm7.057-71.356c1.582-4.314 8.032-12.214 11.458-14.466.888-.584-4.248.337-6.547.827-3.016.643-6.936 3.77-6.844 2.666.008-5.053-1.452-13.485-5.258-17.36l-.361-.373-.372.374c-3.805 4.318-5.24 11.91-5.258 17.359.092 1.104-3.828-2.023-6.844-2.666-2.3-.49-7.435-1.411-6.547-.827 3.426 2.252 9.872 10.152 11.454 14.466z" fill="#ffd203"/><path d="M366.27 442.288h-30.053c-1.646 0-2.981-1.27-2.981-2.839 0-1.568 1.335-2.839 2.98-2.839h30.055c1.647 0 2.982 1.271 2.982 2.84 0 1.567-1.335 2.838-2.982 2.838m82.163.232c-.161 6.83-1.897 13.178-5.131 19.194-8.466 17.328-34.322 16.915-28.622-4.278 2.1-7.81 9.235-12.4 17.71-13.187-.61 2.057-3.976 9.332-1.26 10.754 4.345-.159 9.739-7.463 11.035-10.947.188-.5.135-1.078.345-1.57m16.691-.418c.161 6.83 1.897 13.178 5.131 19.194 8.466 17.328 34.322 16.914 28.622-4.279-2.1-7.809-9.234-12.399-17.71-13.186.61 2.057 3.976 9.332 1.26 10.755-4.344-.16-9.739-7.464-11.035-10.947-.188-.5-.135-1.078-.344-1.57" fill="#ffd203"/><path d="M454.318 508.24c8.92-9.353 14.906-20.17 12.325-32.854-1.424-7-4.877-13.48-7.31-20.223-1.524-4.23-1.913-8.648-1.733-13.094h-7.566c.362 4.478-.432 8.819-1.732 13.094-2.32 6.785-5.849 13.219-7.31 20.223-2.735 13.094 3.681 22.97 12.285 32.814l.525.652zm7.057-71.356c1.582-4.314 8.032-12.214 11.458-14.466.889-.584-4.248.337-6.547.827-3.016.643-6.936 3.77-6.845 2.666.009-5.053-1.451-13.485-5.257-17.36l-.361-.373-.372.374c-3.805 4.318-5.239 11.91-5.258 17.359.092 1.104-3.828-2.023-6.844-2.666-2.3-.49-7.436-1.411-6.547-.827 3.426 2.252 9.872 10.152 11.454 14.466z" fill="#ffd203"/><path d="M468.816 442.288h-30.054c-1.647 0-2.982-1.27-2.982-2.839 0-1.568 1.335-2.839 2.982-2.839h30.054c1.646 0 2.981 1.271 2.981 2.84 0 1.567-1.335 2.838-2.98 2.838M38.252 605.392c-.16 6.83-1.898 13.178-5.13 19.194-8.467 17.328-34.323 16.914-28.623-4.28 2.1-7.81 9.235-12.398 17.711-13.185-.612 2.057-3.977 9.332-1.26 10.755 4.344-.16 9.738-7.464 11.034-10.947.188-.5.135-1.078.345-1.57m16.691-.419c.162 6.83 1.898 13.178 5.131 19.194 8.466 17.328 34.322 16.914 28.622-4.28-2.1-7.808-9.233-12.398-17.71-13.185.611 2.058 3.976 9.332 1.26 10.755-4.343-.16-9.737-7.464-11.034-10.947-.188-.5-.136-1.078-.345-1.57" fill="#ffd203"/><path d="M44.137 671.112c8.919-9.354 14.907-20.17 12.325-32.855-1.424-6.999-4.876-13.48-7.311-20.223-1.523-4.23-1.912-8.649-1.732-13.094h-7.566c.362 4.48-.431 8.82-1.732 13.094-2.32 6.785-5.85 13.22-7.311 20.223-2.734 13.094 3.683 22.97 12.286 32.814l.526.652zm7.056-71.357c1.582-4.314 8.032-12.214 11.458-14.466.89-.584-4.248.337-6.547.827-3.016.643-6.936 3.77-6.844 2.666.01-5.053-1.452-13.485-5.258-17.359l-.36-.374-.373.374c-3.805 4.318-5.239 11.911-5.258 17.36.092 1.103-3.828-2.024-6.844-2.667-2.3-.49-7.435-1.41-6.547-.827 3.426 2.252 9.872 10.152 11.454 14.466z" fill="#ffd203"/><path d="M58.635 605.16H28.58c-1.647 0-2.982-1.271-2.982-2.84 0-1.567 1.335-2.838 2.982-2.838h30.054c1.646 0 2.982 1.27 2.982 2.839 0 1.568-1.336 2.839-2.982 2.839M38.252 442.52c-.16 6.83-1.898 13.178-5.13 19.194-8.467 17.328-34.323 16.915-28.623-4.278 2.1-7.81 9.235-12.4 17.711-13.187-.612 2.057-3.977 9.332-1.26 10.754 4.344-.159 9.738-7.463 11.034-10.947.188-.5.135-1.078.345-1.57m16.691-.418c.162 6.83 1.898 13.178 5.131 19.194 8.466 17.328 34.322 16.914 28.622-4.279-2.1-7.809-9.233-12.399-17.71-13.186.611 2.057 3.976 9.332 1.26 10.755-4.343-.16-9.737-7.464-11.034-10.947-.188-.5-.136-1.078-.345-1.57" fill="#ffd203"/><path d="M44.137 508.24c8.919-9.353 14.907-20.17 12.325-32.854-1.424-7-4.876-13.48-7.311-20.223-1.523-4.23-1.912-8.648-1.732-13.094h-7.566c.362 4.478-.431 8.819-1.732 13.094-2.32 6.785-5.85 13.219-7.311 20.223-2.734 13.094 3.683 22.97 12.286 32.814l.526.652zm7.056-71.356c1.582-4.314 8.032-12.214 11.458-14.466.89-.584-4.248.337-6.547.827-3.016.643-6.936 3.77-6.844 2.666.01-5.053-1.452-13.485-5.258-17.36l-.36-.373-.373.374c-3.805 4.318-5.239 11.91-5.258 17.359.092 1.104-3.828-2.023-6.844-2.666-2.3-.49-7.435-1.411-6.547-.827 3.426 2.252 9.872 10.152 11.454 14.466z" fill="#ffd203"/><path d="M58.635 442.288H28.58c-1.647 0-2.982-1.27-2.982-2.839 0-1.568 1.335-2.839 2.982-2.839h30.054c1.646 0 2.982 1.271 2.982 2.84 0 1.567-1.336 2.838-2.982 2.838M550.98 605.392c-.161 6.83-1.898 13.178-5.132 19.194-8.465 17.328-34.321 16.914-28.621-4.28 2.1-7.81 9.234-12.398 17.71-13.185-.611 2.057-3.977 9.332-1.26 10.755 4.344-.16 9.739-7.464 11.035-10.947.188-.5.135-1.078.344-1.57m16.691-.419c.162 6.83 1.898 13.178 5.132 19.194 8.465 17.328 34.321 16.914 28.622-4.28-2.1-7.808-9.235-12.398-17.712-13.185.612 2.058 3.978 9.332 1.261 10.755-4.344-.16-9.738-7.464-11.035-10.947-.187-.5-.135-1.078-.344-1.57" fill="#ffd203"/><path d="M556.863 671.112c8.92-9.354 14.907-20.17 12.326-32.855-1.425-6.999-4.877-13.48-7.312-20.223-1.522-4.23-1.91-8.649-1.73-13.094h-7.568c.362 4.48-.43 8.82-1.732 13.094-2.319 6.785-5.848 13.22-7.31 20.223-2.735 13.094 3.682 22.97 12.285 32.814l.526.652zm7.057-71.357c1.582-4.314 8.032-12.214 11.458-14.466.889-.584-4.247.337-6.547.827-3.015.643-6.935 3.77-6.844 2.666.009-5.053-1.452-13.485-5.257-17.359l-.361-.374-.373.374c-3.805 4.318-5.238 11.911-5.258 17.36.092 1.103-3.828-2.024-6.843-2.667-2.3-.49-7.436-1.41-6.547-.827 3.426 2.252 9.872 10.152 11.454 14.466z" fill="#ffd203"/><path d="M571.361 605.16h-30.054c-1.646 0-2.98-1.271-2.98-2.84 0-1.567 1.334-2.838 2.98-2.838h30.054c1.646 0 2.982 1.27 2.982 2.839 0 1.568-1.336 2.839-2.982 2.839m-71.654-81.204c-.162 6.83-1.898 13.178-5.132 19.194-8.466 17.328-34.321 16.914-28.622-4.278 2.101-7.81 9.235-12.4 17.712-13.187-.612 2.058-3.978 9.332-1.261 10.755 4.344-.16 9.738-7.464 11.035-10.947.187-.5.135-1.078.344-1.57m16.692-.419c.16 6.83 1.898 13.178 5.132 19.194 8.465 17.328 34.32 16.914 28.622-4.278-2.101-7.81-9.235-12.4-17.712-13.187.612 2.058 3.978 9.332 1.26 10.755-4.343-.16-9.738-7.463-11.034-10.947-.188-.5-.135-1.078-.344-1.57" fill="#ffd203"/><path d="M505.59 589.677c8.92-9.354 14.908-20.17 12.326-32.855-1.424-7-4.877-13.481-7.311-20.223-1.523-4.23-1.911-8.65-1.732-13.094h-7.566c.362 4.478-.432 8.818-1.732 13.094-2.32 6.784-5.848 13.219-7.311 20.223-2.734 13.094 3.683 22.969 12.286 32.813l.526.653zm7.058-71.357c1.582-4.314 8.032-12.215 11.458-14.467.889-.584-4.247.337-6.547.827-3.015.643-6.935 3.77-6.844 2.667.008-5.053-1.452-13.486-5.258-17.36l-.361-.374-.372.374c-3.805 4.318-5.24 11.911-5.258 17.36.092 1.103-3.828-2.024-6.844-2.667-2.3-.49-7.435-1.41-6.547-.827 3.427 2.252 9.873 10.153 11.455 14.466z" fill="#ffd203"/><path d="M520.089 523.724h-30.054c-1.646 0-2.982-1.271-2.982-2.84 0-1.567 1.336-2.838 2.982-2.838h30.054c1.646 0 2.98 1.27 2.98 2.839 0 1.568-1.334 2.839-2.98 2.839m30.891-81.204c-.161 6.83-1.898 13.178-5.132 19.194-8.465 17.328-34.321 16.915-28.621-4.278 2.1-7.81 9.234-12.4 17.71-13.187-.611 2.057-3.977 9.332-1.26 10.754 4.344-.159 9.739-7.463 11.035-10.947.188-.5.135-1.078.344-1.57m16.691-.418c.162 6.83 1.898 13.178 5.132 19.194 8.465 17.328 34.321 16.914 28.622-4.279-2.1-7.809-9.235-12.399-17.712-13.186.612 2.057 3.978 9.332 1.261 10.755-4.344-.16-9.738-7.464-11.035-10.947-.187-.5-.135-1.078-.344-1.57" fill="#ffd203"/><path d="M556.863 508.24c8.92-9.353 14.907-20.17 12.326-32.854-1.425-7-4.877-13.48-7.312-20.223-1.522-4.23-1.91-8.648-1.73-13.094h-7.568c.362 4.478-.43 8.819-1.732 13.094-2.319 6.785-5.848 13.219-7.31 20.223-2.735 13.094 3.682 22.97 12.285 32.814l.526.652zm7.057-71.356c1.582-4.314 8.032-12.214 11.458-14.466.889-.584-4.247.337-6.547.827-3.015.643-6.935 3.77-6.844 2.666.009-5.053-1.452-13.485-5.257-17.36l-.361-.373-.373.374c-3.805 4.318-5.238 11.91-5.258 17.359.092 1.104-3.828-2.023-6.843-2.666-2.3-.49-7.436-1.411-6.547-.827 3.426 2.252 9.872 10.152 11.454 14.466z" fill="#ffd203"/><path d="M571.361 442.288h-30.054c-1.646 0-2.98-1.27-2.98-2.839 0-1.568 1.334-2.839 2.98-2.839h30.054c1.646 0 2.982 1.271 2.982 2.84 0 1.567-1.336 2.838-2.982 2.838" fill="#ffd203"/></g><path d="M1291.96 560.126l242.18 115.859V560.126zM865.859 662.05v101.923l242.179 115.856h213.052zm0-101.923l668.282 319.702V777.906l-455.231-217.78z" fill="#ffd203"/><path d="M0 480h800V0H0zM85.33 85.33h629.337v309.337H85.33zM800 960h799.999V480H800zm85.33-394.67h629.335v309.337H885.331z" fill="#ed2939"/><path d="M642.667 0v85.33h72L799.997 0zM400 85.33h121.334V0H399.999zm-242.665 0h121.333V0H157.334zM0 0v169.33h85.33v-84L.001 0zm714.67 310.667H800V169.33h-85.33zm-714.67 0V480l85.331-85.333v-84zm642.667 84V480h157.334l-85.334-85.333zM400 480h121.334v-85.333H399.999zm-242.665 0h121.333v-85.333H157.334z" fill="#fff"/></svg>