<svg xmlns="http://www.w3.org/2000/svg" xmlns:xlink="http://www.w3.org/1999/xlink" viewBox="0 0 1350 900">
<g id="b">
<use xlink:href="#a" transform="rotate(-90 300 167.5)"/>
<path id="a" d="M300 167.5l-9-13.5 9-22.5 9 22.5z"/>
<use xlink:href="#a" transform="rotate(90 300 167.5)"/>
<path d="M300 167.5l40.5 99L309 253l-9 18-9-18-31.5 13.5z"/>
</g>
<path fill="#fff" d="M0 0h1350v900H0z"/>
<path d="M0 0h1350v100H0zM0 200h1350v100H0zM0 400h1350v100H0zM0 600h1350v100H0zM0 800h1350v100H0z"/>
<path fill="#fff" d="M-2 0h602v400H-2z"/>
<use xlink:href="#b" x="-225" y="-122.5"/>
<use xlink:href="#b" x="-75" y="-122.5"/>
<use xlink:href="#b" x="75" y="-122.5"/>
<use xlink:href="#b" x="225" y="-122.5"/>
<use xlink:href="#b" x="-150"/>
<use xlink:href="#b" x="150"/>
<use xlink:href="#b" x="-225" y="122.5"/>
<use xlink:href="#b" x="-75" y="122.5"/>
<use xlink:href="#b" x="75" y="122.5"/>
<use xlink:href="#b" x="225" y="122.5"/>
</svg>
