<svg xmlns="http://www.w3.org/2000/svg" viewBox="0 0 8192 5476.4"><style>.st0{fill:#ed3626}</style><path class="st0" d="M1315.2 2549.5c-14.9 5.9-38.9 13.1-38.9 12.2-2.7-6.3-2.3-12.2 1.4-17.7 4.5-11.8-10-28.1-4.5-23.5l7.2-236.7c1.8-11.3-8.6-19.5-3.6-27.6.5-8.6-7.7-8.6-6.8-14.5-4.1-17.2-28.5-16.7-25.8-20.4-12.7 3.2-59.3 77.8-59.7 80.1 2.7-2.7-86 124.9-84.2 124.5.5-1.4-14.9 36.7-14.9 33 1.4-5-18.6 18.6-20.8 19-7.2 28.5-122.7-104.1-120.8-102.3-23.1-30.8-57.9-43.9-90.5-81.5-43-13.6-45.3-41.6-48 9.5-1.8 8.1 6.3 57 6.3 57-2.7 19.9 31.2 127.6 40.7 141.7 14 20.8 48.9 105.5 45.3 104.1-8.6 10-38 9.5-50.7 5.9l-181.5-1.4-77.8 9.5c-15.4 2.7-9.5-3.6-24 14 2.3.9 66.1 48.4 56.1 41.2 19.9 16.7 151.6 86.9 152.1 86.9-4.1-3.6 13.1 5.9 7.7 5.4 5.9 6.8 29.9 18.6 46.2 32.6L608.9 3030c-20.4 7.7-33 48.4-22.6 50.7 11.8 9.5 33.5 5 53.4 2.7l223.1-51.1 86.4-25.3c6.3.5 7.2 6.8 7.7 7.2 0 .9-.9 4.1-1.8 7.7-7.2 33.9-13.6 277-12.7 280.2.5 2.7.5 5.9.5 9.5 0 11.8-1.4 26.3 7.2 29.9-1.8-4.5 8.6 10.9 8.6 10.9 42.5 18.1 146.6-226.8 148-237.6-.5 2.7 18.1-28.5 21.3-41.2 3.2.5 3.6-14 5.4-12.2-5.9-5 5-10.9 3.6-15.4 1.8-7.7 1.4-14.5 4.5-13.6 3.2-14.9 12.7-8.6 14.5-6.8 4.5 2.3 10.4-1.4 11.3 9.5-4.1 5.4 13.6 10.9 12.2 14-.5-2.7 86 99.6 110 119 82.4 78.8 116.3 111.8 131.3 112.7 2.3 0 4.5-3.6 2.7-17.7l-1.8-13.6-25.8-100.9-9.1-35.8c-9.5-37.6-54.8-132.2-56.6-148.9-14.9-26.7 0-33 19.5-33.9l193.3 6.8c16.3.5 31.2 1.8 46.2.9 5.9-.5 53.9-3.6 54.3-3.6 13.6-4.1 10.9-11.3 16.7-24.4-2.3 11.3 3.6-10.9-8.1-18.1l-96-60.6c-34.8-22.2-157.1-94.1-174.2-101.8 40.3-46.2 79.2-91.4 120.8-130.8 5.9-5.4 49.8-53 74.7-79.2 10-10.4 16.7-17.7 16.7-17.2 5.4-8.1 9.5-14 4.1-21.3 0-4.5-49.8-.9-55.7.5-76 21.3-160.2 41.6-228.6 67.4l1.3.9z"/><g id="_355772632"><path class="st0" d="M1944.8 2557.6h192.8v589.3h-192.8v-589.3zm28.5-63.8H1828l127.2-168.8h172.4l127.2 168.8h-145.3l-68.3-91-67.9 91z"/><path class="st0" d="M2231.8 2336.3H2425v810.6h-193.3v-810.6zm436.7 455.3h239.9c-3.6-66.1-50.2-120.4-114.5-120.4-67.9 0-113.6 48.9-124.9 120.4h-.5zm0 107.7c3.6 80.6 49.8 134 131.7 134 46.2 0 91.9-21.7 110-64.7h180.6c-35.3 136.2-161.6 195.5-292.8 195.5-191.9 0-322.2-115.9-322.2-313.2 0-180.6 144.4-310 317.7-310 211.4 0 316.8 158.9 307.8 358.9h-432.7v-.5zm686.1 191c102.3 0 141.7-87.8 141.7-174.7 0-91.4-41.2-175.2-145.7-175.2-103.6 0-138.9 88.3-138.9 178.8 0 86.9 44.8 170.6 143 170.6m214.9 56.7h-76V3084h-1.8c-24.9 50.7-84.2 73.3-147.5 73.3-142.6 0-213.2-113.1-213.2-243.5 0-130.8 69.7-240.8 211.4-240.8 47.1 0 115.4 17.7 149.4 72.4h1.8v-238.1h76v639.2zm128.1-275.2h265.7c-3.6-72.4-57.9-130.3-133.5-130.3-79.7-.1-127.2 59.7-132.2 130.3zm339 129c-20.4 101.8-94.1 157.5-197.8 157.5-148 0-217.7-101.8-222.2-243.5 0-138.9 91.4-240.8 217.7-240.8 163.8 0 214.1 153 209.6 265.2h-346.2c-2.7 80.6 43 152.1 143.9 152.1 62.9 0 106.4-30.8 119.9-90.5h75.1zm56.6 146.6v-810.6h597.4v168.8h-386.1v166.1h333.6v163.4h-333.6v312.3h-211.3zm635.9-589.3h187.4v103.2h2.3c28.5-75.1 94.1-114.5 177.4-114.5 14.5 0 30.3 1.4 45.3 5v175.6c-24.9-6.8-47.5-11.3-73.8-11.3-95 0-145.3 66.1-145.3 139.9v291.9h-192.8m-.1 0v-589.3 589.3z"/><path class="st0" d="M5390.9 3044.6c91.9 0 122.7-52 118.1-173.8-27.2 16.7-77.4 20.4-119 31.7-43 10-79.7 28.5-79.7 75.1 0 47.6 37.1 67 80.6 67M5141 2739.1c3.6-76.9 39.8-127.2 91.9-158 52-29.4 120.4-40.7 187.4-40.7 139.4 0 274.7 30.8 274.7 197.8v257.5c0 49.8 0 104.5 22.6 151.2h-194.2c-6.8-18.6-9.1-36.2-11.3-55.7-49.8 52-123.6 72.4-194.2 72.4-112.2 0-201-56.6-201-178.3 0-191.9 209.1-177 342.6-204.1 33-6.8 51.1-18.1 51.1-54.3 0-44.4-53-61.1-92.8-61.1-53.4 0-87.4 24-96.4 73.8H5141v-.5zm624.6-181.5H5953v80.6h2.3c35.3-60.2 114.5-97.8 184.7-97.8 196.4 0 212.3 143 212.3 228.1v377.9h-192.8v-285.1c0-80.6 9.1-162.5-96.9-162.5-72.4 0-104.5 61.1-104.5 125.8V3146h-193.3m-.1 0v-589.3V3146zM6808 2773.5c-1.4-49.8-45.7-85.1-94.1-85.1-107.7 0-124.9 91.9-124.9 173.8 0 76 33 154.3 114.5 154.3 66.5 0 100.9-38.5 110-100.9h187.4c-17.2 157.5-139.9 248.5-296.5 248.5-177 0-308.7-121.3-308.7-301.9 0-187.4 119.5-321.3 308.7-321.3 146.6 0 277.4 77.4 291 232.6m-.1 0H6808h187.3zm210 18.1h239.4c-3.2-66.1-49.8-120.4-114.5-120.4-68.3 0-113.5 48.9-124.9 120.4zm0 107.7c3.6 80.6 49.8 134 131.7 134 46.6 0 91.9-21.7 110-64.7h180.6c-35.3 136.2-161.6 195.5-293.3 195.5-191.9 0-322.2-115.9-322.2-313.2 0-180.6 144.4-310 317.7-310 211.4 0 316.8 158.9 307.8 358.9h-432.7l.4-.5z"/></g></svg>