<svg id="Calque_1" xmlns="http://www.w3.org/2000/svg" viewBox="0 0 900 600"><style>.st1{fill:#fedb00}.st2{fill:#fefbfb}</style><path d="M0 0h900v600H0V0z" fill="#c90000" stroke="#c90000"/><path class="st1" d="M184.5 290.9c-24.8-.7-48.4-6-70.2-18.2-1.2-.7-1.7-.4-2.3.7-5.5 9.7-12 18.6-20.3 26-.8.7-.7 1 0 1.7 8.4 7.5 14.9 16.5 20.4 26.2.6 1.1 1 1.2 2.1.6 14.5-8.2 30.1-13.2 46.5-16 10-1.7 20-2.6 30.2-2.3 1.1 0 1.6.3 1.6 1.5.3 23.9-4.2 46.8-14.2 68.5-1.3 2.8-2.7 5.5-4.2 8.1-.7 1.2-.4 1.7.7 2.3 9.9 5.8 18.9 12.8 26.6 21.3 4.4 4.8 8.1 10 11.3 15.6 2.6 4.6 1.9 10.4-1.6 14.5-3.4 3.9-9 5.3-13.9 3.6-5-1.8-8.3-6.5-8.3-11.8 0-2.8.8-5.4 2.4-7.6.6-.8.7-1.3-.1-2.1-8.1-9.3-17.8-16.5-28.6-22.2-.9-.5-1.2-.5-1.8.5-3.1 5.5-9.3 7.8-15.1 5.9-5.7-1.9-9.3-7.5-8.7-13.4.7-6.1 5.4-10.7 11.6-11.4 2.6-.3 5.1.3 7.3 1.7 1.2.8 1.7.4 2.3-.6 7-11.3 11.6-23.6 14.6-36.4 1.5-6.5 2.6-13.2 3.3-19.9.1-1 .4-2-1.4-1.8-20.1 2.2-39.2 7.3-56.7 17.9-1.2.8-1.4 1.3-.7 2.6 3.3 6.2.9 13.8-5.2 17.1-6.1 3.3-13.8 1.1-17.2-5-3.4-6.1-1.3-13.7 4.7-17.3.6-.4 1.6-.4.9-1.7-5.4-10.2-11.6-19.7-20.4-27.4-.2-.1-.3-.3-.5-.4-1-.8-1.9-1.8-3-2.2-1.3-.4-2 1.2-3 1.8-5.5 3.3-12.6 2.1-16.6-3-4-5-3.6-12.4 1-17 4.6-4.5 11.9-5 16.8-.9 1.3 1 2 .9 3.1 0 7.4-5.8 13.1-13.1 18-21 1.5-2.5 2.9-5.1 4.4-7.6.7-1.2.4-1.6-.7-2.3-6.3-3.7-8.2-11.7-4.3-17.8 3.9-6.1 12-7.7 18-3.6 5.4 3.7 7 10.8 3.8 16.7-.6 1-.4 1.4.5 2 12.4 7.7 26 12.5 40.2 15.5 5.6 1.2 11.2 2 16.9 2.6 1.1.1 1.4-.2 1.3-1.2-2.2-20.1-7.3-39.3-17.9-56.8-.7-1.1-1.1-1.4-2.4-.7-6.2 3.5-13.8 1.3-17.3-4.8-3.4-5.9-1.3-13.6 4.6-17.2 5.9-3.6 13.7-1.8 17.3 4.3.9 1.4 1.4 1.4 2.7.7 10.3-5.7 19.7-12.6 27.5-21.4 1-1.1 1.1-1.8.2-3.1-3.6-5.3-2.7-12.2 2.1-16.6 4.6-4.1 11.8-4.2 16.6-.2 4.8 4.1 5.8 11 2.6 16.4-8.4 14.2-20 25.2-33.8 34-1.3.9-2.7 1.7-4.1 2.5-.9.5-1.1.8-.6 1.8 7.3 12.8 12 26.6 15.1 41 2.5 11.9 3.7 24 3.5 36.2 0 1-.3 1.4-1.3 1.4-1.9-.4-4.1-.3-6.3-.3zm49.8 9.5v95c0 2.2-.3 4.1-1.7 5.9-2.1 2.7-5.6 3.8-8.8 2.8-3.3-1-5.6-3.9-5.7-7.4-.1-1.6 0-3.2 0-4.7V205c0-5.3 3.6-8.9 8.7-8.7 3.9.2 7.2 3.4 7.5 7.2.1.7 0 1.5 0 2.2v94.7zm35.5 0v81.2c0 4.4-2.2 7.5-6 8.6-5.3 1.5-10.2-2.4-10.2-8.1V218.6c0-4.7 3.5-8.3 8-8.4 4.4-.1 8 3.5 8.2 8v82.2z"/><path class="st2" d="M414.4 334.7c-11.4-.4-22.4-5.7-29.4-17.8-10.9-19.1-1.2-43 19.9-49.1 13.6-3.9 26.3-1.8 36.9 8 15.8 14.5 13.8 40.1-3.9 52.3-6.4 4.4-13.5 6.5-23.5 6.6zm2.2-9.8c13.6 0 24.7-11 24.8-24.6 0-13.7-10.9-24.5-24.7-24.5-13.7 0-24.9 11-24.9 24.4-.1 13.5 11.1 24.7 24.8 24.7z"/><path class="st1" d="M305.1 300.4v50.5c0 4.5-2.5 7.7-6.5 8.5-5.2 1-9.7-2.7-9.7-8.1V249.6c0-3.6 1.6-6.2 4.8-7.7 3-1.4 6-.9 8.6 1.2 1.9 1.6 2.8 3.7 2.8 6.3v51z"/><path class="st2" d="M679 327.6c-3.3 3.6-7 5.7-11.3 6.5-6.5 1.2-12.8.9-18.4-3.2-7.9-5.8-8.6-20.6 3.4-25.5 3.5-1.4 7.2-1.9 10.9-1.9 4.6 0 9.3-.1 13.9 0 1.3 0 1.6-.4 1.5-1.6-.2-6.7-3.9-10.4-11.2-10.9-5.7-.4-10.8 1.4-15.5 4.3-1 .7-1.5.7-2.1-.5-.9-1.8-2-3.4-3-5.1-.3-.5-.5-.9.2-1.4 9.6-5.7 19.7-7.6 30.5-4.5 6.9 2 11 7.6 11.4 14.8.3 6.8.1 13.6.1 20.3 0 4.6 0 9.3.1 13.9 0 1-.2 1.4-1.3 1.4-2.7-.1-5.3-.1-8 0-1 0-1.3-.2-1.2-1.2v-5.4zm-9.2-16.5h-6.4c-1.8 0-3.5.2-5.2.7-2.2.7-3.9 2-4.6 4.3-1 3.5.5 7 3.8 8.7 3.1 1.7 6.5 1.7 9.9 1.2 7.9-1.1 12-5.9 11.6-13.8 0-.9-.3-1.2-1.2-1.2-2.6.2-5.2.1-7.9.1zm139.1 1.4c1.7 9 9.7 14.7 18.7 13.5 4.4-.6 8.3-2.1 11.6-5.1.8-.7 1.2-.5 1.7.2 1.2 1.4 2.5 2.8 3.8 4.1.9.8.6 1.3-.1 2-5.7 5.3-12.6 7.5-20.3 7.5-7.7-.1-14.6-2.3-19.9-8.2-4.6-5.1-6.3-11.3-6.3-17.9 0-6.6 1.9-12.7 6.4-17.7 5.7-6.3 13-8.6 21.3-8.3 6.7.3 12.7 2.1 17.1 7.5 3.2 3.9 4.6 8.6 5.1 13.6.3 2.5.2 5 .2 7.4 0 1.2-.4 1.6-1.7 1.6-12-.1-24 0-35.9 0-.5-.2-1.1-.2-1.7-.2zm15-7.7h13.9c.6 0 1.4.2 1.2-1-.5-4.9-2.4-8.9-6.9-11.3-9.6-5.1-21 .2-23.2 10.8-.3 1.2.1 1.5 1.3 1.5h13.7zm-106.4-12.6c1.7-1.5 2.8-3.2 4.3-4.6 4.1-3.8 9.2-5.1 14.6-5.2 11.9-.1 19.3 6.8 19.6 18.7.2 10.6 0 21.2.1 31.8 0 1.1-.4 1.3-1.4 1.3-2.6-.1-5.2-.1-7.8 0-1.2 0-1.5-.4-1.5-1.5v-26.9c0-5-1.4-9.4-6.2-11.9-6.7-3.5-18.4-1.5-21.2 10-.4 1.5-.5 3-.5 4.5v24.2c0 1.2-.3 1.7-1.6 1.6-2.5-.1-5-.1-7.4 0-1.4.1-1.7-.4-1.7-1.7.1-12.3 0-24.5 0-36.8V284c0-1 .2-1.4 1.3-1.4 2.7.1 5.4.1 8.1 0 1 0 1.3.3 1.2 1.3 0 2.8.1 5.6.1 8.3zm-228.3-9.8c5.8.1 12.5 1.7 17.9 6.6 1.7 1.5 1.7 1.5.2 3.2-1.2 1.4-2.4 2.7-3.5 4.1-.7.9-1.1.8-1.9.1-4.9-4.2-10.6-5.6-16.9-4.5-4.6.8-8.2 3.2-10.4 7.4-3 5.7-3.2 11.6-.5 17.4 3 6.6 9.7 9.8 17.5 8.5 4.3-.7 8.2-2.2 11.3-5.3.5-.6.9-.5 1.3.1 1.3 1.4 2.6 2.8 4.1 4.1.9.8.9 1.4.1 2.3-3.9 4.3-8.9 6.7-14.5 7.6-7 1.2-13.9.7-20.1-3.1-8.9-5.3-12.2-13.7-12-23.6.3-14.8 11-25 27.4-24.9zm27.4 28.8c0-16 7.6-25.9 20.2-28.3 9.3-1.7 18.1-.2 25.5 6.2 1.2 1 1.2 1.7.1 2.8-1.3 1.3-2.5 2.8-3.6 4.3-.7.9-1.1 1-2.1.2-4.9-4.2-10.6-5.6-16.9-4.5-5.1.9-8.9 3.9-11 8.6-2.2 5.1-2.3 10.3-.2 15.5 2.8 6.9 9.7 10.5 17.7 9.3 4.3-.7 8.2-2.1 11.3-5.2.5-.5.8-.5 1.4 0 1.5 1.5 3 3.1 4.6 4.5.8.8.2 1.2-.2 1.6-3.9 4.4-8.9 6.8-14.6 7.8-7.2 1.2-14.2.6-20.6-3.3-8.2-5.1-11.5-12.9-11.6-19.5zm91.6-3v-14.3c0-1.1-.3-1.4-1.4-1.4-1.6.1-3.2 0-4.7 0-.9 0-1.1-.3-1.1-1.2.1-1.9.1-3.7 0-5.6 0-1 .4-1.1 1.2-1.1 1.5.1 2.9-.1 4.4 0 1.5.2 1.7-.4 1.7-1.8-.1-3.7 0-7.3-.1-11 0-1.3.4-1.6 1.6-1.6 2.5.1 5 .1 7.5 0 1.2 0 1.5.2 1.5 1.5-.1 3.7 0 7.3-.1 11 0 1.4.2 1.9 1.8 1.9 4.1-.1 8.1 0 12.2-.1 1.1 0 1.5.2 1.4 1.4-.1 1.7-.1 3.4 0 5.1.1 1.2-.4 1.4-1.4 1.4-4.1-.1-8.2 0-12.4-.1-1.2 0-1.6.2-1.6 1.5.1 7.7 0 15.5 0 23.2 0 .7.1 1.5.1 2.2.5 4.4 3 6.3 7.5 5.5 1.7-.3 3.4-.8 5-1.6.7-.3 1-.3 1.3.6.6 2.1 1.3 4.2 2 6.3.2.6.2.9-.4 1.2-5.4 2.9-11.1 4.3-17.1 2.4-5.2-1.6-8-5.5-8.7-10.8-.6-5.1 0-10.4-.2-14.6zm175.8.5v23.9c0 1.3-.3 1.7-1.7 1.7-2.5-.1-5.1-.1-7.6 0-.9 0-1.3-.2-1.3-1.2V284c0-1.1.5-1.2 1.3-1.2 2.6 0 5.2.1 7.8 0 1.3 0 1.5.4 1.5 1.5v24.4zm-196.9-.1v23.9c0 1.4-.4 1.8-1.8 1.7-2.4-.1-4.7-.1-7.1 0-1.3.1-1.7-.3-1.7-1.6.1-13 0-26.1 0-39.1 0-3.1.1-6.2 0-9.3 0-1.2.4-1.4 1.4-1.4 2.5.1 5 .1 7.5 0 1.3-.1 1.7.3 1.7 1.6v24.2z"/><path class="st1" d="M332.9 312.9c-7.1 0-12.6-5.7-12.6-12.8 0-7 5.7-12.7 12.7-12.7 7.1 0 12.8 5.8 12.7 12.9-.1 7.2-5.7 12.7-12.8 12.6z"/><path class="st2" d="M617.3 360.5c-2.6 5.2-5.2 10.4-7.6 15.6-.5 1-1 1.3-2 1.2-1 0-1.7-.1-2.3-1.2-2.3-4.8-4.6-9.5-7-14.3-.2-.4-.3-1-.8-1.3-.4.4-.2 1-.2 1.4v16.6c0 1.2-.3 1.5-1.5 1.5-3-.1-3 0-3-3v-22.7c0-1.3.3-1.7 1.7-1.8 3-.4 4.6.8 5.8 3.6 1.9 4.4 4.2 8.6 6.3 12.9.2.5.5 1 .9 1.7 2.5-5.1 5.1-9.8 7.3-14.8 1.1-2.6 2.6-3.6 5.4-3.3 1.5.2 1.9.5 1.9 2-.1 8-.1 16 0 24.1 0 1.3-.4 1.6-1.6 1.5-2.8-.1-2.9 0-2.9-2.8v-16.7c-.2-.2-.3-.2-.4-.2zm-159-111.3H453c-.7 0-.9-.5-1.2-1-1.2-2.1-2.5-4.1-3.7-6.2-.4-.7-.9-1-1.7-1-2 .1-4.5-.7-5.7.3-1.3 1-.3 3.7-.4 5.6-.1 2.7.4 2.4-2.5 2.4h-.5c-2.3-.1-2.3-.1-2.3-2.4 0-8 .1-16 0-24.1 0-1.2.2-1.7 1.5-1.6 4.4.3 8.9-.3 13.4.4 4.3.7 6.9 3.3 7.7 7.2.8 4.3-.7 8.3-4.2 10.4-.9.6-.8.9-.3 1.7 1.6 2.7 3.3 5.4 5.2 8.3zm-18.2-18.1v4.2c0 .7.2 1 1 1 2.2 0 4.4.1 6.6 0 3.3-.2 5.1-2.1 5.2-5.1 0-2.9-1.9-4.9-5.2-5.1-2.1-.1-4.3 0-6.4-.1-.9 0-1.2.2-1.2 1.1v4zm60.8 14.5c-3.9 3.9-10.6 2.9-13.4-.2-3.6-3.9-3.5-11.1 0-14.9 3-3.3 9.8-3.9 13.3-.3.1-.1.2-.1.2-.2.2-.7-.4-2 .4-2.1 1.4-.4 3-.3 4.5.1.5.1.2.7.2 1.1 0 6 0 12.1-.1 18.1-.1 5.4-3.6 9-9.2 9.6-3.5.4-6.7-.4-9.7-2.1-.9-.5-1.2-1-.5-1.9.6-.7.8-1.8 1.5-2.2.8-.4 1.5.7 2.3 1 1.5.7 3.1 1 4.7 1 4.1 0 6.3-2.6 5.8-7zm.1-7.5c0-3.6-2.3-6.2-5.7-6.2-3.3 0-5.8 2.7-5.8 6.2s2.4 6 5.7 6.1c3.4.1 5.8-2.5 5.8-6.1zm166.2 124.1v-9.9c0-1.1.4-1.4 1.4-1.4 3.2 0 3.2 0 3.2 3.1v24.5c0 1.2-.3 1.7-1.5 1.5h-.2c-2.9 0-2.9 0-3.1-3.1-1.9 2.5-4.4 3.4-7.3 3.4-2.9-.1-5.4-1-7.4-3.2-3.5-4-3.4-11.5.3-15.3 3.8-3.8 9.6-3.7 14.6.4zm0 7.4c0-3.9-2.6-6.7-6.3-6.7-3.7 0-6.4 2.8-6.4 6.8 0 3.9 2.6 6.6 6.4 6.6 3.7 0 6.3-2.7 6.3-6.7zm-285.8-3.4v-12.4c0-.6-.3-1.3.8-1.3 4.4.1 8.8-.4 13.2.3 5.1.8 7.9 4.1 8 9.1 0 5.2-3 8.8-8.1 9.6-2.4.4-4.8.3-7.3.2-1.4 0-2 .2-1.9 1.8.2 1.8 0 3.6.1 5.4 0 .8-.3 1-1.1 1-3.7.1-3.7.2-3.7-3.5v-10.2zm4.8-4.1h-.1v4.4c0 .6 0 1.1.9 1.1 2.3-.1 4.6.1 6.9-.1 3.2-.3 4.9-2.3 4.8-5.6-.1-2.8-1.8-4.6-5-4.9-.8-.1-1.6-.2-2.4-.1-1.7.1-4-.8-5 .3-.8.9-.1 3.2-.1 4.9zM474 240.6h-6.6c-1 0-1.1.3-.7 1.2 1.6 3.6 6.3 4.6 10 2.2.5-.4 1-1.5 1.7-.9.9.6 1.6 1.6 2.3 2.5.3.4-.3.6-.5.9-3.1 3.2-9.4 4-13.7 1.8-3.9-2-6.1-6.6-5.3-11.3 1.4-9.1 10.7-10.6 16.1-7.9 2.7 1.3 3.9 3.8 4.4 6.6.2.8.2 1.7.2 2.5 0 3.2.2 2.5-2.6 2.6h-1c-1.5-.2-2.9-.2-4.3-.2zm-7.8-3.8h10.1c.9 0 1-.3.8-1.1-.6-2.4-2.6-3.8-5.3-3.8-2.9 0-4.9 1.8-5.6 4.9zm-52.1 10.6c-2.2 1.6-4.5 2.1-6.9 2.1-4.2-.1-7.2-2.8-7.3-6.6 0-3.8 2.8-6.4 7.1-6.5 2-.1 4-.1 5.9 0 1.1 0 1.2-.4 1-1.3-.4-1.8-1.8-2.9-4.1-3-2.1-.1-4 .5-5.8 1.6-.8.5-1.1.5-1.6-.4-1.6-2.8-1.7-2.8 1.3-4.1 3.5-1.6 7.1-1.9 10.7-.7 2.8.9 4.4 3 4.5 5.9.2 4.6.1 9.1.2 13.7 0 1-.3 1.3-1.3 1.2-.6-.1-1.2 0-1.9 0-.9 0-2.2.1-1.8-1.9zm-3.5-7.3c-1.3-.1-2.7-.2-4 .2-1 .3-1.6.8-1.8 1.8-.2 1 .1 1.8.8 2.4 2.3 2 7.6.6 8.4-2.3.5-1.7.2-2.1-1.5-2.1h-1.9zm141.8-9.2c2.1-2.2 4.4-3.1 7.1-3.1 4.9 0 8 2.8 8.2 7.7.1 4.2.3 8.5-.1 12.7-.2 2.2-2.3.6-3.5 1-.6.2-1.6.4-1.5-1 .1-3.4.1-6.9.1-10.3 0-3.1-1.3-4.9-3.9-5.3-2.9-.4-5.5 1.2-6.2 4-.2.8-.3 1.7-.3 2.5v9.1c0 .7-.1 1.1-1 1.2-4.1.3-4.2.3-4.1-3.8 0-5.4.1-10.7.1-16.1 0-1.2.2-1.9 1.6-1.6h.8c2.7 0 2.7 0 2.7 3zm-20.5-3.1c6.6 0 11.1 4.3 11.2 10.7 0 6.5-4.5 11-11.1 10.9-6.6 0-11-4.4-11-10.9-.1-6.4 4.3-10.7 10.9-10.7zm-6 10.9c0 3.9 2.5 6.4 6.1 6.4 3.5 0 6.1-2.8 6-6.5 0-3.8-2.6-6.4-6.2-6.4-3.4 0-5.9 2.7-5.9 6.5zm113.5 132.7h-6.3c-1.6 0-1.8.2-1 1.7 1.9 3.5 6.7 4.4 10.3 2 .5-.3.9-1.2 1.5-.8.8.5 1.4 1.3 2 2.1.4.5-.3.8-.6 1.1-3.4 3.2-10.2 3.7-14.2.9-4-2.7-5.4-8.3-3.5-13.2 1.8-4.5 6.6-7 11.8-6.1 5.4.9 8.9 6.1 7.8 11.6-.2.9-.7.7-1.3.7h-6.5zm-2.2-3.4c1.5 0 3.1-.1 4.6 0 1.4.1 1.5-.5 1.2-1.6-.7-2.5-3.1-3.9-6.2-3.6-2.5.2-4.8 2.2-5.2 4.4-.2.9.4.8.9.8 1.6 0 3.2-.1 4.7 0zm180.4 3.4c-2.1 0-4.3.1-6.4 0-1.4-.1-1.4.4-.9 1.5 1.7 3.8 6.7 4.8 10.6 2.2.4-.3.8-1.1 1.4-.7.8.6 1.4 1.4 2.1 2.2.2.2-.2.5-.4.7-2.5 2.8-8.4 3.8-12.7 2.2-3.9-1.6-6.3-5.4-6.2-10 .1-4.8 2.7-8.5 6.9-9.8 2.4-.8 4.9-.8 7.3-.1 3.6 1 5.7 3.8 6.1 8.1.4 3.9.4 3.9-3.4 3.9-1.4-.2-2.9-.2-4.4-.2zm-2.2-3.4c1.6 0 3.2-.1 4.7 0 1.3.1 1.4-.5 1.1-1.5-.7-2.5-2.9-3.9-5.9-3.7-2.5.1-4.9 2.1-5.4 4.4-.2.7.1.9.7.9 1.6-.2 3.2-.2 4.8-.1zm-288.1 3.4h-6.6c-1.1 0-1.2.3-.8 1.3 1.7 3.9 6.8 5 10.7 2.4.4-.3.8-1.1 1.4-.7.8.6 1.4 1.4 2 2.2.2.3-.3.6-.5.8-3.7 3.1-7.9 3.6-12.4 2.1-3.9-1.4-6.1-4.8-6.3-9.2-.4-8.6 6.9-12.9 14.3-10.7 4.2 1.2 5.6 4.6 6 8.5.4 3.3.3 3.4-3 3.4-1.5-.1-3.2-.1-4.8-.1zm-2.1-3.4h4.7c1 0 1.3-.2 1-1.3-.7-2.6-2.8-4.1-5.9-4-2.6.1-4.9 2-5.4 4.3-.2.9.2.9.9.9 1.5 0 3.1 0 4.7.1zm-69.8 3.4c-2.1 0-4.3.1-6.4 0-1.5-.1-1.4.5-.9 1.6 1.8 3.7 6.7 4.7 10.5 2.1.4-.3.8-1.1 1.4-.7.8.6 1.4 1.4 2.1 2.2.3.3-.2.6-.4.8-3.7 3.9-12.1 3.8-15.9-.1-4-4.1-3.7-11.8.5-15.6 3.3-3 9.3-3.5 13.1-1.1 2.7 1.7 4.7 6.9 4 10.2-.2.9-.8.7-1.3.7-2.3-.1-4.5-.1-6.7-.1zm-2-3.5h4.7c1 0 1.1-.3.9-1.2-.5-2.6-2.8-4.1-5.8-4-2.6.1-5.1 2.1-5.5 4.4-.1.8.3.8.8.8h4.9zm387.2 3.5h-6.8c-.9 0-1 .3-.7 1.1 1.4 3.9 6.5 5.2 10.5 2.8.5-.3 1-1.3 1.7-.9.8.5 1.4 1.3 2 2 .4.5-.1.7-.4.9-3.2 3.3-10.1 3.9-14.2 1.2-4-2.5-5.6-8.2-3.8-13.1 1.7-4.6 6.6-7.2 11.8-6.4 4.6.7 7.3 3.6 7.8 8.3.1.8 0 1.7.1 2.5.1 1.2-.3 1.6-1.5 1.5-2.2 0-4.3.1-6.5.1zm-2.1-3.4h4.9c1 0 1.1-.4.9-1.2-.6-2.6-2.8-4.1-5.9-4-2.7.1-5.2 2.1-5.5 4.4-.1.8.3.8.8.8 1.6-.1 3.2-.1 4.8 0zm-122.6 3.4h-6.6c-1.2 0-1.3.4-.9 1.4 1.7 3.7 6.5 4.9 10.3 2.5.5-.3 1-1.3 1.6-.9.8.4 1.4 1.3 2 2 .4.4-.1.7-.3 1-2.6 2.8-8.4 3.8-12.5 2.1-3.8-1.5-6.1-5-6.2-9.2-.1-8 6.3-13 14.1-10.7 3.7 1.1 6 4.3 6.2 8.7.1 3.2.1 3.2-3.1 3.2h-2.9c-.5-.1-1.1-.1-1.7-.1zm-2-3.4h4.7c1 0 1.1-.3.9-1.2-.6-2.6-2.7-4.1-5.7-4-2.7 0-5.2 1.9-5.7 4.2-.2.7 0 1 .8 1 1.7-.1 3.3-.1 5 0zm-209.5 3.4h-6.8c-1 0-1.1.3-.8 1.2 1.6 3.9 6.7 5.1 10.5 2.6.5-.3.9-1.3 1.6-.8.8.5 1.3 1.4 1.9 2.1.3.4-.1.6-.4.8-3.6 3.1-7.7 3.6-12.1 2.3-4-1.3-6.2-4.3-6.6-8.4-.5-4.5.7-8.4 4.9-10.7 3.4-2 7.2-2.1 10.7-.4 3.4 1.6 4.5 4.8 4.7 8.4.1 2.9.1 2.9-2.7 2.9h-4.9zm-2.2-3.4c1.5 0 3.1-.1 4.6 0 1.1.1 1.5-.2 1.1-1.4-.8-2.5-2.7-3.8-5.5-3.8s-5.1 1.7-5.8 4.1c-.2.8-.1 1.2.8 1.1 1.6-.1 3.2 0 4.8 0zm268.6 9.9c-2.8 2.2-5.7 2.8-8.9 2.1-3.1-.7-5.2-3-5.2-6-.1-3.3 1.6-5.4 5-6.3 2.6-.6 5.3-.3 7.9-.3 1.3 0 1.4-.4 1.1-1.5-.5-1.9-1.7-3-4-3.3-2.1-.2-4 .4-5.8 1.4-.9.5-1.4.6-1.9-.4-1.2-2.5-1.8-1.9 1-3.3 3.1-1.6 6.5-1.9 9.9-1.1 3.2.7 5.3 3.1 5.4 6.3.1 4.5 0 8.9.1 13.4 0 .7-.2 1-1 1H773c-1.4.2-2.7.3-2.2-2zm-4-7c-1.1.1-2.2.1-3.4.1-.3 0-.5.1-.8.2-2 .7-2.4 3.1-.9 4.5 2.4 2.2 8 .6 8.8-2.6.5-1.9.3-2.2-1.6-2.2h-2.1zm-294.1-8.5c2.5-3.2 5.7-3.9 9.4-3.2 3.4.7 5.6 3.1 5.7 6.6.2 4.4.1 8.8.1 13.2 0 .7-.1 1-.9 1-3.6.2-3.6.3-3.6-3.4 0-2.6.1-5.2 0-7.8-.1-3.8-1.8-5.6-5.1-5.5-3.3 0-5.7 2.5-5.7 5.9 0 3.2-.1 6.3 0 9.5 0 1-.2 1.3-1.3 1.3-3.4 0-3.4.1-3.4-3.3v-15.9c0-1.3.3-1.8 1.7-1.7 2.6.1 2.6 0 3.1 3.3zm313.1.3c2-2.8 4.5-3.7 7.5-3.7 4.7 0 7.7 2.7 7.9 7.4.1 4.2 0 8.4 0 12.5 0 .8-.2 1-1.1 1.1-3.6.2-3.6.2-3.6-3.4v-8c0-2.8-1.2-4.6-3.4-5.2-2.5-.7-5.3.5-6.5 2.7-.6 1.1-.9 2.3-.9 3.6v8.8c0 1-.2 1.4-1.4 1.4-3.3 0-3.3 0-3.3-3.3 0-5.3.1-10.6 0-15.9 0-1.5.4-1.8 1.8-1.8 2.8.3 2.8.2 3 3.8zm-370 12.1c.7-1.9 1.3-3.5 1.9-5.1 1.1-2.9 2.2-5.7 3.1-8.6.5-1.7 1.3-2.1 3-2 2.4.2 2.4 0 1.6 2.2-2.9 7.3-5.8 14.5-8.8 21.8-1.8 4.3-6.2 6-10.1 4-1.1-.6-1.7-1.2-.7-2.4.3-.4.5-.9.7-1.3.3-.6.6-.7 1.3-.4 2.7 1.2 4.9 0 5.6-2.9.1-.6-.2-1.1-.4-1.6-2.5-5.9-4.9-11.8-7.5-17.7-.5-1.2-.5-1.6 1-1.6 3.1.1 3.2 0 4.3 2.9 1.6 4 3.3 8.1 5 12.7zm-35.1-139.6v-12.7c0-.9.2-1.4 1.2-1.2.8.1 1.7.2 2.5 0 1.5-.2 1.6.6 1.6 1.7-.1 6.7-.1 13.4-.2 20.1 0 1.1.4 1.3 1.4 1.3 2.9 0 5.9.1 8.8.1 1.2 0 1.8.2 1.7 1.6-.1 3.1 0 3.1-3.1 3.1h-12.7c-1.1 0-1.3-.3-1.3-1.3 0-4.2 0-8.4.1-12.7-.1 0-.1 0 0 0zM546.1 359c2.1-.1 4.1.5 6 1.3 1 .4 1.3 1 .7 1.9-.2.4-.5.8-.6 1.2-.3 1-.8.9-1.6.5-1.8-.9-3.7-1.5-5.7-1.3-1.1.1-2 .5-2.2 1.7-.2 1.2.6 1.8 1.6 2.1 1.9.7 3.9 1.2 5.7 2 2.9 1.3 4 3.4 3.6 6.5-.4 2.4-1.9 3.8-4.1 4.5-3.9 1.2-7.7.7-11.2-1.5-2.1-1.3-.1-2.3.2-3.3.4-1.4 1.1-.1 1.6.1 2 1.1 4.1 1.9 6.4 1.6 1.2-.1 2.4-.4 2.6-1.9.2-1.4-.8-2-1.9-2.4-1.4-.5-2.8-.9-4.2-1.4-3.7-1.3-5.2-3.4-4.8-6.6.4-2.9 2.9-4.9 6.4-5.2.6.2 1.1.2 1.5.2zm144.3 10.8c0-1.6-.1-3.3 0-4.9.1-1.1-.2-1.8-1.4-1.5-1.3.2-1.6-.3-1.6-1.6.1-1.1-.1-2.2 1.6-1.9 1.2.2 1.5-.3 1.4-1.4-.1-.4 0-.8 0-1.2 0-3.2.6-3.7 3.9-3.1.7.1.6.5.6.9v3.7c0 .8.3 1.1 1.1 1.1 1.2 0 2.4.1 3.6 0 1.6-.2 1.5.7 1.5 1.8 0 1 .1 1.9-1.4 1.7-1.2-.2-2.5 0-3.7 0-.7 0-1 .2-1 1 0 3.1-.1 6.1 0 9.2.1 2.4 1.4 3.1 4 2.2.6-.2 1.5-.9 1.6.4.1 1.1 1.9 2.3-.3 3.2-1.3.6-2.7 1-4.1 1-3.4 0-5.6-2.1-5.8-5.5 0-1.8.1-3.4 0-5.1.1 0 0 0 0 0zm42.6-6.9c1.5-2.4 3.5-3.5 6-3.8.8-.1 1.2.1 1.1.9v.3c0 .9.2 1.9-.1 2.7-.4.9-1.6.4-2.4.6-2.9.9-4.6 3-4.7 6.1v9.1c0 1-.3 1.2-1.2 1.2-3.4 0-3.4.1-3.4-3.3v-16.1c0-1.2.3-1.5 1.5-1.5 2.9.1 2.9 0 3.2 3.8zm-298.8-.2c1.6-2.3 3.5-3.4 5.9-3.7.8-.1 1.4 0 1.2 1v.7c.2 1.7 0 2.7-2.2 2.9-3.1.3-4.9 2.8-5 6.1 0 2.9-.1 5.9 0 8.8 0 1.1-.2 1.6-1.5 1.5-3.2-.1-3.2 0-3.2-3.2v-16.3c0-1.2.3-1.7 1.5-1.5 1 .1 2.3-.5 2.9.3.6.8.3 2 .4 3.4zm314.3 0c1.5-2.3 3.4-3.3 5.8-3.7.9-.1 1.5 0 1.3 1.1v.7c.1 1.6.2 2.7-2.1 2.8-3.1.2-5 2.8-5.1 6.1 0 3-.1 6 0 9 0 1-.3 1.3-1.3 1.3-3.3 0-3.3.1-3.3-3.2v-16.1c0-1.3.3-1.7 1.6-1.7 2.7.2 2.7.1 3.1 3.7zm24-95.1c0-3.8 2.6-6.6 6.2-6.5 3.6 0 6.3 2.9 6.3 6.6-.1 3.6-2.8 6.4-6.3 6.4s-6.2-2.8-6.2-6.5zM581.6 274c-3.6-.2-6.1-3-6-6.8.1-3.6 2.9-6.3 6.5-6.1 3.5.1 6.1 3.1 6 6.8-.1 3.6-2.9 6.3-6.5 6.1zm-69.8-35.4v-9.5c0-1 .3-1.3 1.3-1.3 3.7 0 3.7 0 3.7 3.6 0 5.5-.1 10.9-.1 16.4 0 1.1-.3 1.4-1.4 1.4-3.6 0-3.6 0-3.6-3.6v-7.1c0 .1 0 .1.1.1zm171.2 131c0 3-.1 6.1 0 9.1 0 1.1-.3 1.3-1.3 1.3-3.2 0-3.2 0-3.2-3.2v-16.3c0-1.2.3-1.5 1.5-1.5 3 0 3 0 3 3v7.6zM478.4 221.4c-3.1 2.2-5.4 5.4-9.7 3.8 1.3-1.9 2.7-3.8 4.1-5.7.3-.4.7-.3 1-.2 1.4.7 2.9 1.4 4.6 2.1zm93.7 145.1c1.3 0 2.6.1 3.9 0 1.4-.1.9 1 1 1.6 0 .7.4 1.6-1 1.6-2.5-.1-5.1-.1-7.6 0-1.5 0-1-1-1.1-1.7-.1-.8-.1-1.6 1.1-1.5 1.2.1 2.5 0 3.7 0zm-57.9-141.3c-1.7 0-2.9-1.2-2.9-2.8 0-1.7 1.2-3 2.9-3.1 1.7 0 2.9 1.3 2.9 3s-1.2 2.9-2.9 2.9zm307.5 127.2c-2.7 2.1-4.8 5-8.8 3.7 1.2-1.7 2.5-3.5 3.7-5.2.4-.5.8-.3 1.2-.1 1.3.5 2.5 1 3.9 1.6zm-187 3.7c1.2-1.6 2.3-3.2 3.3-4.7.5-.7.9-1 1.8-.5 1.1.6 2.3 1 3.6 1.6-2.6 1.9-4.7 4.9-8.7 3.6zm-175.2-3.7c-2.7 2-4.7 5.1-8.8 3.7 1.2-1.7 2.4-3.4 3.6-5 .4-.5.7-.6 1.3-.3 1.2.5 2.4 1 3.9 1.6zm40.1 3.6c1.2-1.7 2.4-3.2 3.5-4.8.4-.6.8-.8 1.5-.4 1.2.6 2.4 1 3.8 1.6-2.7 2-4.7 5-8.8 3.6zm183.8-2.8c0 1.6-1 2.7-2.5 2.8-1.6.1-2.8-1.1-2.8-2.7 0-1.7 1.1-2.8 2.7-2.8s2.6 1.1 2.6 2.7z"/></svg>