<svg id="fr-p" xmlns="http://www.w3.org/2000/svg" viewBox="0 0 1000 600"><style>.st1{fill:#390000;fill-opacity:.599}.st2,.st3{stroke:#000;stroke-width:3.444}.st2{stroke-opacity:.948;fill:#002e56}.st3{fill:#ffc103}.st3,.st4,.st5{stroke-opacity:.948}.st4{fill:#002e56;stroke:#000;stroke-width:3.626}.st5{stroke-width:3.444}.st5,.st6,.st7,.st8{fill:none;stroke:#000}.st6{stroke-opacity:.948;stroke-width:3.146}.st7,.st8{stroke-width:4.124}.st8{stroke-width:3.617}.st10,.st11,.st12,.st13,.st14,.st9{fill:none;stroke:#000;stroke-opacity:.948}.st9{stroke-linecap:round;stroke-width:3.444}.st10,.st11,.st12,.st13,.st14{stroke-width:2.922}.st11,.st12,.st13,.st14{stroke-width:3.42}.st12,.st13,.st14{stroke-width:3.278}.st13,.st14{stroke-width:3.727}.st14{stroke-width:4.289}.st15{stroke-width:6.687;stroke-linecap:round}.st15,.st16,.st17{fill:none;stroke:#000;stroke-opacity:.948}.st16{stroke-linecap:round;stroke-width:5.425}.st17{stroke-width:3.471}.st18,.st19,.st20,.st21,.st22,.st23,.st24{fill:none;stroke:#000;stroke-width:3.902;stroke-opacity:.948}.st19,.st20,.st21,.st22,.st23,.st24{stroke-width:3.17}.st20,.st21,.st22,.st23,.st24{stroke-width:3.625}.st21,.st22,.st23,.st24{stroke-width:4.002}.st22,.st23,.st24{stroke-width:3.61}.st23,.st24{stroke-width:3.985}.st24{stroke-width:3.133}.st25,.st26{stroke-linecap:round}.st25{fill:none;stroke:#000;stroke-opacity:.948;stroke-width:3.327}.st26{stroke-width:2.713}.st26,.st27,.st28,.st29{fill:none;stroke:#000;stroke-opacity:.948}.st27{stroke-linecap:round;stroke-width:3.002}.st28,.st29{stroke-width:3.484}.st29{fill:#002e56;stroke-width:1.166}</style><path d="M0 0h1000v600H0V0z" fill="#c80a0f"/><path class="st1" d="M328.3 201.5c-2 5.9-5.4 10.5-4.8 14.2l-3.1-1.4c2.5.8-2.8-9.6-4.1-7.6l2.9-2.1.7-1.1 1.5-.7 6.9-1.3z"/><path class="st2" d="M515.3 268c-2.3 3.6 3.9 19.3 13.6 18.9-6.3-9.8-5.6-21.1-5.6-21.1l-8 2.2zm-23.8-17.1c-3.5.5-11.8 21.3 1.5 28.7.4-12.9 6.7-20.5 6.7-20.5l-6.9-5.8-1.3-2.4z"/><path class="st2" d="M489.8 238.5c-3.4-3.4-17.9 6.5-17.3 21.4 8.9-9.9 19.5-9.2 19.5-9.2l-2.2-12.2zm16.9-12.1c-.2-4.7-12.9-10.1-19.5-.7 9.6 1.1 15 9.8 15 9.8l4.5-9.1zm255.2 43.5c-.2 4.3.9 5.8 3.1 8.2 2.2 2.4 4.6 9.5 4.6 9.5s6.9-18.8 5.2-21.3c-1.8-2.5-12.5 3.5-12.9 3.6zm-36.7-7.8c-3.5-.6-10 14.9-4.5 25.6 2.7-12.4 10.2-17.7 10.2-17.7l-5.7-7.9zm-16.8-4.7c-2.7-3-14.3 5.7-13.8 18.6 7.1-8.6 15.6-7.9 15.6-7.9l-1.8-10.7zm8.8-19.9c-1.9-4-14.9-.7-17.5 11.8 8.8-5.1 16.7-.9 16.7-.9l.8-10.9zm-433.8-8.8c1.3-4.4-8.5-16.5-17.5-11.8 8.3 6.4 10.5 17.4 10.5 17.4l7-5.6zM246 256c-3.3-3.9-16.9 7.3-16.1 24.2 8.3-11.2 18.4-10.2 18.4-10.2l-2.3-14zm1.2-24c-1.4-5.6-17.4-4.8-22.9 10.5 11.4-4.3 19.8 3.2 19.8 3.2l3.1-13.7zm16.3 45.4c-.9 4.1 0 5.9 1.8 8.8 1.8 2.9 3.1 10.6 3.1 10.6s9.6-16.5 8.3-19.5c-1.4-2.9-12.7.1-13.2.1zM223.8 87.5c0-5.9-15.3-12.1-24.2.1 11.8.8 18 11.6 18 11.6l6.2-11.7zM207.9 111c-3.3-3.9-16.9 7.3-16.1 24.2 8.3-11.2 18.4-10.2 18.4-10.2l-2.3-14zm55.7-25.5c1.5-5.6-11.4-18.3-22.8-10.9 10.9 6.1 14 19.1 14 19.1l8.8-8.2zm18.2 20.3c2.6-3.2-2.2-19.8-11.8-20.9 5.4 10.7 3.7 21.9 3.7 21.9l8.1-1z"/><path class="st3" d="M332.9 125.3c-9.6-10.9-.1-30.8 8.5-22.3-4.5-8.1 2.9-14.6 6.2-10.5-1.6-6.6 5.5-11 9-4.9-1.2-7.4 9.3-11.7 12-3.6.2-7.3 10.5-13 12.7-2.4 2-8.2 13.5-9.2 14.4 2.4 3.3-6.8 11.9-6.3 12.4 3.6 3.7-4.6 13.3 2.3 11.7 10.5 5.9-1.2 13.2 10.4 5.9 19 12.8-6.6 15.9 14.9 8.1 24.7 4 2.4 4.4.3 7.9 2.1 3.6 1.8 10 4.7 15.9 6 5.3 0 24.9-.6 28.9-1.2s9.5-2.6 16-4.8c6.8-2.2 16.7-2.2 25.8-4.4 7.2-.8 208 3.2 213.8 2.6 5.8-.6 14.2-6 13.8-12.6-.4-6.6-7.1-11.3-13.8-11.9-6.7-.6-40.9-.6-47.1.6-6.2 1.2-15.1 4.2-19.6 8.4-2.1 1.3-5.7 6.4-8.7 9.7-2.8 2.3-10.7 2.6-10.7-.4 0-2-.7.4-2.6 1.1-2.5 1.5-13.9 2-13.4 0 .9-2.2-.1-2.9-3.1-.6-2.2 1.8-17.9 2.5-20.8.7 1.7-2.8 1.7-2.6-3-.3-3 1.3-15.4 2.3-16.3-.2-.1-1.9-1.5-1-3.3-.4-14 3.6-15.4-.6-13.2-2.4 2.2-1.8 5.6-12.1 2-11.5-3.6.6-25.8 4.8-33.3 6-7.6 1.2-62.2 0-69.8-.6-7.6-.6-16-7.5-16.4-17.3-.8-15.8 12.4-19.7 20.4-22.1 8-2.4 28-6 36-6s30.8 2.8 37 .4c6.2-2.4 25.1-9.1 30.5-9.6 7.9-.7 30.4 1.9 41.2 14.4-5.6 2.5-8.2 3.9-1.9 1.7 5.8-1.2 30.6-6.2 36.4-7.5 20-.8 14.8 2.2 5 4.5-3.3 10.1-32.7 24.2-42 26-9.3 1.8-29.1.5-33.6-.3-4.4-.3-25.5-1.3-33.1-6.2-12.4-8.2-35.2-13.5-45.2-13.3-9.4.2-36.1 2.9-36 12-.1 15.9 24.9 16.7 35.6 16.1 10.7-.6 37.3-1.8 44.9-4.8 7.6-3 23.9-3.7 32.8-3.7 8.9 0 21.9 1.9 25.9 1.3 4-.6 13.3-.7 17.8-3.7 4.4-3 14.1-6.1 23.9-6.1 9.8 0 82.3-2.7 92.1-2.1 14.2-.1 24.2 14.9 24.3 27.7.1 6-2.9 14.8-5.5 16.2 4.4.4 15.4 1.6 19 2.3 6.8 1.3 17.8 8.6 19.1 15.2-5.2-3.1-13.5-7.7-21-8.2-1.5 0-159.9-.3-172.3-.2 33.8 3.9 59.7 29.2 66.2 43.7 5.8 9 20 5.4 25.3 4.2 5.3-1.2 11.6-6.6 16-10.8 4.4-4.2 11.4-5.2 14.5-4.2 6.9-.6 8.1 6.6 5.5 10.2-2.7 3.6.4 2.1 7.6 2.1 17.9-.2 14.1 9.2 14.1 9.2s12.4.7 8.9 14.7l.1.3c7.3.9 12.9 10.9 12.9 13.8-7.3.4-3.1-.8 0 2.2s7.6 16.2-3.6 16.7c-3.4 0-2.9.1-2.9.1.8 4.2-1.5 16-7.8 16-8.6 1.6-16.4-3-17.3-8.4-.9-5.4-.8 10.4-13 12.9-11.5 2.5-17.7-3.9-18.6-6.9-.9-3-.4-.6-4.9-1.2-4.4-.6-10-.6-12.4-7.8 0-4.2.9-9.7 8.8-10.4 3.6-.6 4.5-5.1 1.9-5.7-2.7-.6-.4-9.6 5.3-7.2 5.8 2.4 19.1 3 22.2 6 3.1 3 4-2.4-.9-7.2-4.9-4.8-34.7-14.4-42.7-10.8-18.6 9.1-50.1 7.4-55.9 7.4-6-.9-19.9 1.2-27.2-20.6-5.9-22.3-28.3-33.3-38.5-34.5-50.4-4.6-47.7-1.1-15 .4-.2 4.2-1.4 12.7 3.9 13.9 8.9-1.2 22.7-4.6 27.7-2 5.1 2.6 10.7 6.9 12.1 15.5 0 2.1.4 6-3.6 9.6-4 3.6-2.2 10.8 4 13.2 6.2 2.4 8.9 5.4 12.9 9 4 3.6-1.8 10.8-5.3 8.4-3.6-2.4-3.6-2.4-4 2.4-.4 4.8-4.9 13.8-12.4 14.5-1.6-.6-1.1-3.1-1-4.9.4-4.2-1.5 5.2-3.8 7.8-1.5 1.8-14.1 5.2-17.6 3.4 1.6-3.7.7-2.2-2.4-.4-3 1.2-19.4 3.4-12.1-4.2 1.9-2.8-2.6 3.5-5.1 4.5-2.1 1.3-11.8 2-11.8-1.5-3.1 2.6-10.4 2.6-11.6.6-2.2-2.4-2.4 1.8-6.4 2.4-4 .6-12.7-.6-13.1-5.4-.4-4.8.9-1.8-4-1.2-11.9 7.7-17.8-3-17.8-6.6 0-3.6-.4-7.8.9-10.2 1.3-2.4-8.3-3.1-5.3-7.8 3.3-5.8 6.8-10 13.3-8.9 3.1.6 2.7-1.2 1.3-3.6-1.3-2.4 3.6-3.6 9.3-1.2 5.8 2.4 9.8 8.4 11.6 13.8 1.8 5.4 15.6 1.2 21.3 1.8 5.8.6 6.2-9 2.7-12-3.6-3-13.3-13.8-17.3-17.3-4-3.6-1.3-16.1 2.2-19.1 20.7-13.6 9.3-17.9 1.8-16.7-7.6 1.2-27 8.7-33.2 15.3-6.2 6.6-54.6 38.8-59 42.4-4.4 3.6-10.9 4.5-13.6.3-2.7-4.2-4.4-1.2-4 4.8 3.5 22.6-17.3 29.8-21 29.5-2.5-.3-6.2-1.6-8.8-3.8-2.6 12.6-14.1 13.9-24.4 12.6-.2-1.5 1.9-4.3.8-3.2-3.4 4.3-14 3.9-23 3.2-.6-2.6 3.1-5.8 1.3-4-3 5.5-8.2 4.6-16.7 4-.1-1.2 3.9-5.1 2-2.7-3.7 3.9-11.4 2.7-17.4 2.8-.7-.9 3.1-7.1-.4-3-3.3 3.5-10.4 4.1-17.1 3.1-1.2-2.9 1.4-3 2.1-4.8 1.8-3-.9 0-3.1 0s-5.3.6-6.7-2.4c-1.3-3-.6 3-1.9 4.6-1.3 1.4-2.7 4.7-7.2 5.9-4.4 1.2-15.5-.5-17.8-3-2.4-2.5-3.6-7.8-1.8-10.8 1.8-3-8.5 5.8-12.9 6.6-13 2.4-14.7-17.3-8.9-19.1 5.8-1.8 4.9-4.8 1.8-7.2-3.1-2.4-4.9-12-.9-14.9 4-3 13.3-4.6 19.1-1.2 3.4 2.3 10.8 10.1 9.3 4.2-1-3.7 1.5-8.3 4.4-10.4 2.5-2.2 10-2.8 12.1 2 4.7 11 8 15.7 13.8 15.5 12.3-3.3 28.9-7 33.8-7 6.3-1.4 39.5-4.6 39.5-7.6-19.9 6.7-28-2-30.2-1.4-2.2.6-7.7-1.9-7.7-3.6 0-3.6 5-3.2-2.1-2-4.3-.3-8-.5-11.6-4.9-.6-2.2 4.7-9.8 6.6-16.2-4.6-1.2-14.7 6.8-18.1 13.9-2.3-2.7-3.3-.2-11.6 1.7-3.9 1.7-10.3 1.1-13.9-.7-3.6-1.8-17.5-12.1-10.7-13.4-1.8-.8-3.8-1.3-5.2-1.7-4.9-2-9-5.5-7.5-6.6 1.1-1.3.9-2.3-1.1-2.6-2.7-.6-9.2-5.3-7.5-7.1.5-.8-5.7-2.7-7.4-3.6-3.1-1.8-6.2-8-6.7-11-2.9.3-9-5-6.2-6.6-4.7-3.4-8.6-8.9-5.5-10.7-2.7-2.1-1.2-2.2-2.7-4.5-2.8-3.4-2-6.9.3-6.9 2.2 0 1.3-9.6-2.7-9.6s-10.4 3-15.1 0c-3.8-2.9-7.1-15.5-3.6-20.9 3.6-5.4 10.7-11.4 14.2-10.8 3.6.6 1.8 1.8.9-3.6s5-9.4 8.9-10.8c4.7-2.1 13.8-.6 16.4 1.8 2.7 2.4 3.6 2.4 3.6-1.8 0-2.9 3.4-4.5 6.5-5.2 5.1-1.2 9.1.2 10.8 2.3 2.8 3.8 4.4 8.4.9 12-3.6 3.6-.5.5 5.3-.6 3.7-1.2 10.4.3 11.6 4.2 1.5 4.2 2.7 11.4-1.3 14.9-4 3.6-9.8 12.6-6.7 15.5 3.1 3 12.9 16.1 15.1 17.9 2.2 1.8 4.9 6 8.4 5.4 3.6-.6 7.6-1.2 10.7-1.8 12.3-2.4 17.7-2.4 1.9-1.9 3.6-4.9 11.2-7.6 14.4-8.5-2.3-3.4 8.2-12.2 8.2-13.4z"/><path class="st4" d="M353.6 147.2c5.9 10.1 20.1 4 23.7 8.1 3.6 4-3.5 18-5.8 26.1-5.3 6.9-17 6.5-21.3 1.3 2.3-9.6 2.5-30.1 3-30.8l.4-4.7z"/><path class="st5" d="M778.8 256.4c-1.9-5.2-7.7-6.5-7.7-6.5"/><path class="st6" d="M409.9 165.9c4.4 8.3 5.7 22.3.7 29.1m-16.5-10.2c4.4 2.4 10.5 16.5 9.6 21.2l-.9 4.7m-10.5-20c2.6 7.1 6.1 17.7 5.3 21.2l-.9 3.5m-20.1-17.6c1.8 7.1.9 18.9-1.8 21.2l-2.6 2.4m0-22.5c-2.6 8.3-5.3 20.1-5.3 20.1m-36.8-42.5c-4.4 3.5-10.5 11.8-10.5 11.8m15.8 0c-7-4.7-14.9 3.5-14.9 3.5"/><path class="st7" d="M431.9 123.3c-4.6 2-3.9 12.7-3.9 12.7"/><path class="st8" d="M333.6 108.5c4.9 3.4 3 13.5 3 13.5"/><path class="st5" d="M219.4 99.9c9.6.9 14.4 8.3 16.5 14.8 2.1 6.5 3.4 10.1 3.4 10.1m24.7-29c-5.5 6.5-4.8 18.4-4.8 18.4m165 119.5c3.4-11.7 9.7-14.3 17.7-18.1 8.2-3.3 20.7-13.1 13-5.9-7.7 7.2-18.9 11.7-22.8 14.3-3.9 2.6-6.3 8.4-4.3 11.1"/><path class="st9" d="M407.9 189.4c7.3 11.7 2.8 28-6.4 32.6"/><path class="st5" d="M432.6 149.6c11.8 4.8 11.6 15.4 13.3 22.1-4.1-1.9-6.5-.8-9.6-2.2"/><path class="st10" d="M423 187.6c0 10.4-7.4 14.7-10.8 16"/><path class="st5" d="M247.3 88.4c1 5.9-.5 7.2-1.9 12.4s.5 14.3.5 14.3M740.8 200c-4.8-.7-12.1 2-12.1 2m34.5 7c-6.8 2.6-14.5 3.3-14.5 3.3m23.2 11.7c-5.8-.6-10.2-.6-10.2-.6m21.5 14.7c-5.8-.6-15 0-15 0m-46.4 30.4c1.5-7.8 11.1-14.1 16.4-14.1h5.3m-29.7-3.1c5.8-2 15-2.6 15-2.6M322.2 147.1c-16.1 8.3-18.9 15.6-16.4 33"/><path class="st11" d="M389.7 183.3c.9 9.3 1.5 35.2-8.4 41.9-9.9 6.6-22.2 7.4-31.9 4.2"/><path class="st5" d="M367.9 197.7c-1 9.1-10.4 31.9-28.8 28.8m317.2-91.6c2.4-7.2 13.5-13.7 13.5-13.7m-29.6 13.4c4.8-8.5 13.5-13.7 13.5-13.7m-37.1 14.4c7.3-4.3 9.4-6 11.8-8.2 2.6-2.5 7.7-7.2 7.7-7.2"/><path class="st12" d="M596.1 135.1c5.4-2.7 9.5-4.3 13.2-6.9 4.5-3.1 7.6-7.3 7.6-7.3"/><path class="st5" d="M600.5 112.5c-17.1-5.7-24.7-16.9-24.7-16.9m53.1-7.1c-11.3 4.6-34.3 2.6-35.3 2.6M337.7 220.6c5.8-4.6 10.4-13.9 10.4-13.9"/><path class="st13" d="M332.9 173.8c-8.5-1.3-30.1 16.8-23.1 39.4"/><path class="st14" d="M318.1 162.6c-11 2.9-15.4 22.4-9.6 32.9"/><path class="st6" d="M427.5 155.5c8 10.6 11 17.1 11.5 20.8.8 6.4 1.6 19-17.3 18.8 1.5-4.9 2.8-14.1-.2-19.1"/><path class="st15" d="M399.4 115.1l-.9 5.3"/><path class="st16" d="M363.4 105.4c-1 4-2.9 8.1-2.9 8.1"/><path class="st5" d="M377.1 96.2c1.4 12-4.1 18.4-7.5 18.4-3.4 0-7.3 4.5-5.2 11.7m27-32c-6.2 8.3-7.5 17.5-5.5 24.9 2.1 7.4.1 9.5.1 9.5m32.9 6.2h-7.5c-5.3 9.4-20.3 6.2-16.3 8"/><path class="st5" d="M378.5 126.4c11.7.3 9.4 9.4.7 8.5.7 11.1-13 9.7-11.8 1.2-8.2.2-11.6-11 .3-9.4m26.8 14c.5 12.4-22.9 22.1-22.4 3.2"/><path class="st17" d="M372.1 143.8c-.5 9.1-13.4 11.2-17.9 3.4-3.4-5.2-5.3-7.2-7.7-7.8-2.5-.6-2.2-8.2-2.7-9.3-.3-1.5-1.9-5.4-2.7-6.9"/><path class="st5" d="M408.4 106.8c-5.8 5.9-6.3 6.5-6.3 6.5m12.1 4.6c-7.7.7-8.2.3-8.2.3"/><path class="st18" d="M386.7 113.5c5.7-2 19-.3 18.8 4.4 0 5.8-5.2 6.2-19 .7l.1-4.3v-.8z"/><path class="st19" d="M368.6 114.1c.7-6.9-13.2-13.7-16.6-9.9-4.1 6.4 7.6 12.1 10.7 12.1 2.9 0 2.9 1 2.9 1"/><path class="st5" d="M406.4 140c-5.3 14.1-.9 27.1-.9 27.1m-61.4-23.6c-4.4 3.5-7.9 2.4-7.9 2.4"/><path class="st20" d="M352.6 145.2c-.5 12.9-6.6 20-6.6 20"/><path class="st21" d="M345.4 138.1c-3.7 14.1 1 25.3 1 25.3"/><path class="st22" d="M382.1 154.6c-.9 12.8 5.4 20.8 5.4 20.8"/><path class="st23" d="M390 149.9c2.1 14.4-2.8 23.6-2.8 23.6"/><path class="st5" d="M433.9 141.8c1.4.7 5.1.1 11.9 2.8-2.8 4-10 6.3-12.8 5.2m-205.4 2.6c4.1 1.8 11.7 0 11.7 0"/><path class="st24" d="M231.6 162.3c9.1 2.8 18.2-1.8 18.2-1.8"/><path class="st5" d="M273.9 203.2c9.6-2.8 16.2-9.2 16.2-9.2m-45.4 57.7c4.8-1.3 15 0 15 0m3 15.4c2.9-5.2 9.7-9.8 9.7-9.8M317 274c2.4-3.2 2.4-13.7 2.4-13.7m15.3 13.6c3.8-4.3 4.1-13.4 4.1-13.4m9.9 13.2c3.9-7.2 3.2-15.4 3.2-15.4m18.7 16.2c2.4-3.9 2.4-13 2.4-13m154.3-7.7c-8.7-2-14 9.8-14 9.8m25.5-11.7c-1 8.5-7.7 16.3-7.7 16.3m21.4-17c-.5 7.2-8.2 16.9-8.2 16.9m25.2-19.7c-1.3 9.5-8.2 16.7-8.2 16.7m20.8-20.1c.5 8.5-3.9 21.5-6.8 24.1m21.8-20.5c1.5 4.6 0 11.1 0 11.1m-94.6-28.8c5.8 1.3 9.2 7.8 9.2 7.8m-19.1 8.5c3-10.2 16.2-5.2 17.8-2.5"/><path class="st9" d="M450.7 227.8c-8.3 2.8-12.2 2.9-14.9.5"/><path class="st25" d="M460 221c-7.3 2.8-11.5 3.7-15.1 1.5"/><path class="st26" d="M472.3 212.7c-4.9 2.8-7.6 3.7-10 1.5"/><path class="st27" d="M480.9 206.3c-5.9 2.8-9.3 3.7-12.3 1.5"/><path class="st5" d="M246.6 88.4c1 5.9-.5 7.2-1.9 12.4s.5 14.5.5 14.5m19.7-19.5c-5.5 6.5-4.9 18.4-4.9 18.4"/><path class="st28" d="M220.1 98.6c9.8.9 14.7 8.3 16.8 14.8 2.1 6.5 3.6 10.9 3.6 10.9"/><path class="st1" d="M328.3 437.5c-2 5.9-5.4 10.5-4.8 14.2l-3.1-1.4c2.5.8-2.8-9.6-4.1-7.6l2.9-2.1.7-1.1 1.5-.7 6.9-1.3z"/><path class="st29" d="M515.3 504c-2.3 3.6 3.9 19.3 13.6 18.9-6.3-9.8-5.6-21.1-5.6-21.1l-8 2.2zm-23.8-17.1c-3.5.5-11.8 21.3 1.5 28.7.4-12.9 6.7-20.5 6.7-20.5l-6.9-5.8-1.3-2.4z"/><path class="st29" d="M489.8 474.5c-3.4-3.4-17.9 6.5-17.3 21.4 8.9-9.9 19.5-9.2 19.5-9.2l-2.2-12.2zm16.9-12c-.2-4.7-12.9-10.1-19.5-.7 9.6 1.1 15 9.8 15 9.8l4.5-9.1zM761.9 506c-.2 4.3.9 5.8 3.1 8.2 2.2 2.4 4.6 9.5 4.6 9.5s6.9-18.8 5.2-21.3c-1.8-2.6-12.5 3.4-12.9 3.6zm-36.7-7.8c-3.5-.6-10 14.9-4.5 25.6 2.7-12.4 10.2-17.7 10.2-17.7l-5.7-7.9zm-16.8-4.7c-2.7-3-14.3 5.7-13.8 18.6 7.1-8.6 15.6-7.9 15.6-7.9l-1.8-10.7zm8.8-20c-1.9-4-14.9-.7-17.5 11.8 8.8-5.1 16.7-.9 16.7-.9l.8-10.9zM283.4 464.8c1.3-4.4-8.5-16.5-17.5-11.8 8.3 6.4 10.5 17.4 10.5 17.4l7-5.6zM246 492.1c-3.3-3.9-16.9 7.3-16.1 24.2 8.3-11.2 18.4-10.2 18.4-10.2l-2.3-14zm1.2-24c-1.4-5.6-17.4-4.8-22.9 10.5 11.4-4.3 19.8 3.2 19.8 3.2l3.1-13.7zm16.3 45.3c-.9 4.1 0 5.9 1.8 8.8 1.8 2.9 3.1 10.6 3.1 10.6s9.6-16.5 8.3-19.5-12.7.1-13.2.1zM223.8 323.6c0-5.9-15.3-12.1-24.2.1 11.8.8 18 11.6 18 11.6l6.2-11.7zM207.9 347c-3.3-3.9-16.9 7.3-16.1 24.2 8.3-11.2 18.4-10.2 18.4-10.2l-2.3-14zm55.7-25.5c1.5-5.6-11.4-18.3-22.8-10.9 10.9 6.1 14 19.1 14 19.1l8.8-8.2zm18.2 20.3c2.6-3.2-2.2-19.8-11.8-20.9 5.4 10.7 3.7 21.9 3.7 21.9l8.1-1z"/><path class="st3" d="M332.9 361.3c-9.6-10.9-.1-30.8 8.5-22.3-4.5-8.1 2.9-14.6 6.2-10.5-1.6-6.6 5.5-11 9-4.9-1.2-7.4 9.3-11.7 12-3.6.2-7.3 10.5-13 12.7-2.4 2-8.2 13.5-9.2 14.4 2.4 3.3-6.8 11.9-6.3 12.4 3.6 3.7-4.6 13.3 2.3 11.7 10.5 5.9-1.2 13.2 10.4 5.9 19 12.8-6.6 15.9 14.9 8.1 24.7 4 2.4 4.4.3 7.9 2.1 3.6 1.8 10 4.7 15.9 6 5.3 0 24.9-.6 28.9-1.2s9.5-2.6 16-4.8c6.8-2.2 16.7-2.2 25.8-4.4 7.2-.8 208 3.2 213.8 2.6 5.8-.6 14.2-6 13.8-12.6-.4-6.6-7.1-11.3-13.8-11.9-6.7-.6-40.9-.6-47.1.6-6.2 1.2-15.1 4.2-19.6 8.4-2.1 1.3-5.7 6.4-8.7 9.7-2.8 2.3-10.7 2.6-10.7-.4 0-2-.7.4-2.6 1.1-2.5 1.5-13.9 2-13.4 0 .9-2.2-.1-2.9-3.1-.6-2.2 1.8-17.9 2.5-20.8.7 1.7-2.8 1.7-2.7-3-.3-3 1.3-15.4 2.3-16.3-.2-.1-1.9-1.5-1-3.3-.4-14 3.6-15.4-.6-13.2-2.4 2.2-1.8 5.6-12.1 2-11.5-3.6.6-25.8 4.8-33.3 6-7.6 1.2-62.2 0-69.8-.6-7.6-.6-16-7.5-16.4-17.3-.8-15.8 12.4-19.7 20.4-22.1 8-2.4 28-6 36-6s30.8 2.8 37 .4c6.2-2.4 25.1-9.1 30.5-9.6 7.9-.7 30.4 1.9 41.2 14.5-5.6 2.5-8.2 3.9-1.9 1.7 5.8-1.2 30.6-6.2 36.4-7.5 20-.8 14.8 2.2 5 4.5-3.3 10.1-32.7 24.2-42 26-9.3 1.8-29.1.5-33.6-.3-4.4-.3-25.5-1.3-33.1-6.2-12.4-8.2-35.2-13.5-45.2-13.3-9.4.2-36.1 2.9-36 12-.1 15.9 24.9 16.7 35.6 16.1 10.7-.6 37.3-1.8 44.9-4.8 7.6-3 23.9-3.7 32.8-3.7 8.9 0 21.9 1.9 25.9 1.3 4-.6 13.3-.7 17.8-3.7 4.4-3 14.1-6.1 23.9-6.1 9.8 0 82.3-2.7 92.1-2.1 14.2-.1 24.2 14.9 24.3 27.7.1 6-2.9 14.8-5.5 16.2 4.4.4 15.4 1.6 19 2.3 6.8 1.3 17.8 8.6 19.1 15.2-5.2-3.1-13.5-7.7-21-8.2-1.5 0-159.9-.3-172.3-.2 33.8 3.9 59.7 29.2 66.2 43.7 5.8 9 20 5.4 25.3 4.2 5.3-1.2 11.6-6.6 16-10.8 4.4-4.2 11.4-5.2 14.5-4.2 6.9-.6 8.1 6.6 5.5 10.2-2.7 3.6.4 2.1 7.6 2.1 17.9-.2 14.1 9.2 14.1 9.2s12.4.7 8.9 14.7l.1.3c7.3.9 12.9 10.9 12.9 13.8-7.3.4-3.1-.8 0 2.2s7.6 16.2-3.6 16.7c-3.4 0-2.9.1-2.9.1.8 4.2-1.5 16-7.8 16-8.6 1.6-16.4-3-17.3-8.4-.9-5.4-.8 10.4-13 12.9-11.5 2.5-17.7-3.9-18.6-6.9-.9-3-.4-.6-4.9-1.2-4.4-.6-10-.7-12.4-7.8 0-4.2.9-9.7 8.8-10.5 3.6-.6 4.5-5.1 1.9-5.7-2.7-.6-.4-9.6 5.3-7.2 5.8 2.4 19.1 3 22.2 6 3.1 3 4-2.4-.9-7.2-4.9-4.8-34.7-14.4-42.7-10.8-18.6 9.1-50.1 7.4-55.9 7.4-6-.9-19.9 1.2-27.2-20.6-5.9-22.3-28.3-33.3-38.5-34.5-50.4-4.6-47.7-1.1-15 .4-.2 4.2-1.4 12.7 3.9 13.9 8.9-1.2 22.7-4.6 27.7-2 5.1 2.6 10.7 6.9 12.1 15.5 0 2.1.4 6-3.6 9.6-4 3.6-2.2 10.8 4 13.2 6.2 2.4 8.9 5.4 12.9 9 4 3.6-1.8 10.8-5.3 8.4-3.6-2.4-3.6-2.4-4 2.4-.4 4.8-4.9 13.8-12.4 14.5-1.6-.6-1.1-3.1-1-4.9.4-4.2-1.5 5.2-3.8 7.8-1.5 1.8-14.1 5.2-17.6 3.4 1.6-3.7.7-2.2-2.4-.4-3 1.2-19.4 3.4-12.1-4.2 1.9-2.8-2.6 3.5-5.1 4.5-2.1 1.3-11.8 2-11.8-1.5-3.1 2.6-10.4 2.6-11.6.6-2.2-2.4-2.4 1.8-6.4 2.4-4 .6-12.7-.6-13.1-5.4-.4-4.8.9-1.8-4-1.2-11.9 7.7-17.8-3-17.8-6.6 0-3.6-.4-7.8.9-10.2 1.3-2.4-8.3-3.1-5.3-7.8 3.3-5.8 6.8-10 13.3-8.9 3.1.6 2.7-1.2 1.3-3.6-1.3-2.4 3.6-3.6 9.3-1.2 5.8 2.4 9.8 8.4 11.6 13.8 1.8 5.4 15.6 1.2 21.3 1.8 5.8.6 6.2-9 2.7-12-3.6-3-13.3-13.8-17.3-17.3-4-3.6-1.3-16.1 2.2-19.1 20.7-13.6 9.3-17.9 1.8-16.7-7.6 1.2-27 8.7-33.2 15.3-6.2 6.6-54.6 38.8-59 42.4-4.4 3.6-10.9 4.5-13.6.3-2.7-4.2-4.4-1.2-4 4.8 3.5 22.6-17.3 29.8-21 29.5-2.5-.3-6.2-1.6-8.8-3.8-2.6 12.6-14.1 13.9-24.4 12.6-.2-1.5 1.9-4.3.8-3.2-3.4 4.3-14 3.9-23 3.2-.6-2.6 3.1-5.8 1.3-4-3 5.6-8.2 4.6-16.7 4-.1-1.2 3.9-5.1 2-2.7-3.7 3.9-11.4 2.7-17.4 2.8-.7-.9 3.1-7.1-.4-3-3.3 3.5-10.4 4.1-17.1 3.1-1.2-2.9 1.4-3 2.1-4.8 1.8-3-.9 0-3.1 0s-5.3.6-6.7-2.4c-1.3-3-.6 3-1.9 4.6-1.3 1.4-2.7 4.7-7.2 5.9-4.4 1.2-15.5-.5-17.8-3-2.4-2.5-3.6-7.8-1.8-10.8 1.8-3-8.5 5.8-12.9 6.6-13 2.4-14.7-17.3-8.9-19.1 5.8-1.8 4.9-4.8 1.8-7.2-3.1-2.4-4.9-12-.9-14.9 4-3 13.3-4.6 19.1-1.2 3.4 2.3 10.8 10.1 9.3 4.2-1-3.7 1.5-8.3 4.4-10.4 2.5-2.2 10-2.8 12.1 2 4.7 11 8 15.7 13.8 15.5 12.3-3.3 28.9-7 33.8-7 6.3-1.4 39.5-4.6 39.5-7.6-19.9 6.7-28-2-30.2-1.4s-7.7-1.9-7.7-3.6c0-3.6 5-3.2-2.1-2-4.3-.3-8-.5-11.6-4.9-.6-2.2 4.7-9.8 6.6-16.2-4.6-1.2-14.7 6.8-18.1 13.9-2.3-2.7-3.3-.2-11.6 1.7-3.9 1.7-10.3 1.1-13.9-.7-3.6-1.8-17.5-12.1-10.7-13.4-1.8-.8-3.8-1.3-5.2-1.7-4.9-2-9-5.5-7.5-6.6 1.1-1.3.9-2.3-1.1-2.6-2.7-.6-9.2-5.3-7.5-7.1.5-.8-5.7-2.7-7.4-3.6-3.1-1.8-6.2-8-6.7-11-2.9.3-9-5-6.2-6.6-4.7-3.4-8.6-8.9-5.5-10.7-2.7-2.1-1.2-2.2-2.7-4.5-2.8-3.4-2-6.9.3-6.9 2.2 0 1.3-9.6-2.7-9.6s-10.4 3-15.1 0c-3.8-2.9-7.1-15.5-3.6-20.9 3.6-5.4 10.7-11.4 14.2-10.8 3.6.6 1.8 1.8.9-3.6s5-9.4 8.9-10.8c4.7-2.1 13.8-.6 16.4 1.8 2.7 2.4 3.6 2.4 3.6-1.8 0-2.9 3.4-4.5 6.5-5.2 5.1-1.2 9.1.2 10.8 2.3 2.8 3.8 4.4 8.4.9 12-3.6 3.6-.5.5 5.3-.6 3.7-1.2 10.4.3 11.6 4.2 1.5 4.2 2.7 11.4-1.3 14.9-4 3.6-9.8 12.6-6.7 15.5 3.1 3 12.9 16.1 15.1 17.9 2.2 1.8 4.9 6 8.4 5.4 3.6-.6 7.6-1.2 10.7-1.8 12.3-2.4 17.7-2.4 1.9-1.9 3.6-4.9 11.2-7.6 14.4-8.5-2.3-3.4 8.2-12.2 8.2-13.4z"/><path class="st4" d="M353.6 383.2c5.9 10.1 20.1 4 23.7 8.1 3.6 4-3.5 18-5.8 26.1-5.3 6.9-17 6.5-21.3 1.3 2.3-9.6 2.5-30.1 3-30.8l.4-4.7z"/><path class="st5" d="M778.8 492.5c-1.9-5.2-7.7-6.5-7.7-6.5"/><path class="st6" d="M409.9 402c4.4 8.3 5.7 22.3.7 29.1m-16.5-10.3c4.4 2.4 10.5 16.5 9.6 21.2l-.9 4.7m-10.5-20c2.6 7.1 6.1 17.7 5.3 21.2l-.9 3.5m-20.1-17.6c1.8 7.1.9 18.9-1.8 21.2l-2.6 2.4m0-22.4c-2.6 8.3-5.3 20.1-5.3 20.1m-36.8-42.5c-4.4 3.5-10.5 11.8-10.5 11.8m15.8 0c-7-4.7-14.9 3.5-14.9 3.5"/><path class="st7" d="M431.9 359.3c-4.6 2-3.9 12.7-3.9 12.7"/><path class="st8" d="M333.6 344.5c4.9 3.4 3 13.5 3 13.5"/><path class="st5" d="M219.4 335.9c9.6.9 14.4 8.3 16.5 14.8s3.4 10.1 3.4 10.1m24.7-29c-5.5 6.5-4.8 18.5-4.8 18.5m165 119.4c3.4-11.7 9.7-14.3 17.7-18.1 8.2-3.3 20.7-13.1 13-5.9-7.7 7.2-18.9 11.7-22.8 14.3-3.9 2.6-6.3 8.4-4.3 11.1"/><path class="st9" d="M407.9 425.5c7.3 11.7 2.8 28-6.4 32.6"/><path class="st5" d="M432.6 385.6c11.8 4.8 11.6 15.4 13.3 22.1-4.1-1.9-6.5-.8-9.6-2.2"/><path class="st10" d="M423 423.6c0 10.4-7.4 14.7-10.8 16"/><path class="st5" d="M247.3 324.5c1 5.9-.5 7.2-1.9 12.4s.5 14.3.5 14.3m494.9 84.9c-4.8-.7-12.1 2-12.1 2m34.5 6.9c-6.8 2.6-14.5 3.3-14.5 3.3m23.2 11.8c-5.8-.6-10.2-.6-10.2-.6m21.5 14.7c-5.8-.6-15 0-15 0m-46.4 30.4c1.5-7.8 11.1-14.1 16.4-14.1h5.3m-29.7-3.2c5.8-2 15-2.6 15-2.6M322.2 383.1c-16.1 8.3-18.9 15.6-16.4 33"/><path class="st11" d="M389.7 419.3c.9 9.3 1.5 35.2-8.4 41.9-9.9 6.6-22.2 7.4-31.9 4.2"/><path class="st5" d="M367.9 433.7c-1 9.1-10.4 31.9-28.8 28.8M656.3 371c2.4-7.2 13.5-13.7 13.5-13.7m-29.6 13.3c4.8-8.5 13.5-13.7 13.5-13.7m-37.1 14.5c7.3-4.3 9.4-6 11.8-8.2 2.6-2.5 7.7-7.2 7.7-7.2"/><path class="st12" d="M596.1 371.1c5.4-2.7 9.5-4.3 13.2-6.9 4.5-3.1 7.6-7.3 7.6-7.3"/><path class="st5" d="M600.5 348.5c-17.1-5.7-24.7-16.9-24.7-16.9m53.1-7c-11.3 4.6-34.3 2.6-35.3 2.6M337.7 456.6c5.8-4.6 10.4-13.9 10.4-13.9"/><path class="st13" d="M332.9 409.9c-8.5-1.3-30.1 16.8-23.1 39.4"/><path class="st14" d="M318.1 398.6c-11 2.9-15.4 22.4-9.6 32.9"/><path class="st6" d="M427.5 391.6c8 10.6 11 17.1 11.5 20.8.8 6.4 1.6 19-17.3 18.8 1.5-4.9 2.8-14.1-.2-19.1"/><path class="st15" d="M399.4 351.1l-.9 5.3"/><path class="st16" d="M363.4 341.5c-1 4-2.9 8.1-2.9 8.1"/><path class="st5" d="M377.1 332.2c1.4 12-4.1 18.5-7.5 18.5-3.4 0-7.3 4.5-5.2 11.7m27-32c-6.2 8.3-7.5 17.5-5.5 24.9 2.1 7.4.1 9.5.1 9.5m32.9 6.2h-7.5c-5.3 9.4-20.3 6.2-16.3 8"/><path class="st5" d="M378.5 362.5c11.7.3 9.4 9.4.7 8.5.7 11.1-13 9.7-11.8 1.2-8.2.2-11.6-11 .3-9.4m26.8 13.9c.5 12.4-22.9 22.1-22.4 3.2"/><path class="st17" d="M372.1 379.8c-.5 9.1-13.4 11.2-17.9 3.4-3.4-5.2-5.3-7.2-7.7-7.8-2.5-.6-2.2-8.2-2.7-9.3-.3-1.5-1.9-5.4-2.7-6.9"/><path class="st5" d="M408.4 342.9c-5.8 5.9-6.3 6.5-6.3 6.5m12.1 4.5c-7.7.6-8.2.3-8.2.3"/><path class="st18" d="M386.7 349.5c5.7-2 19-.3 18.8 4.4 0 5.8-5.2 6.2-19 .7l.1-4.3v-.8h.1z"/><path class="st19" d="M368.6 350.1c.7-6.9-13.2-13.7-16.6-9.9-4.1 6.4 7.6 12.1 10.7 12.1 2.9 0 2.9 1 2.9 1"/><path class="st5" d="M406.4 376c-5.3 14.1-.9 27.1-.9 27.1m-61.4-23.5c-4.4 3.5-7.9 2.4-7.9 2.4"/><path class="st20" d="M352.6 381.2c-.5 12.9-6.6 20-6.6 20"/><path class="st21" d="M345.4 374.2c-3.7 14.1 1 25.3 1 25.3"/><path class="st22" d="M382.1 390.7c-.9 12.8 5.4 20.8 5.4 20.8"/><path class="st23" d="M390 386c2.1 14.5-2.8 23.6-2.8 23.6"/><path class="st5" d="M433.9 377.8c1.4.7 5.1.1 11.9 2.8-2.8 4-10 6.3-12.8 5.2m-205.4 2.6c4.1 1.8 11.7 0 11.7 0"/><path class="st24" d="M231.6 398.4c9.1 2.8 18.2-1.8 18.2-1.8"/><path class="st5" d="M273.9 439.2c9.6-2.8 16.2-9.2 16.2-9.2m-45.4 57.7c4.8-1.3 15 0 15 0m3 15.4c2.9-5.2 9.7-9.8 9.7-9.8M317 510c2.4-3.2 2.4-13.7 2.4-13.7m15.3 13.7c3.8-4.3 4.1-13.4 4.1-13.4m9.9 13.1c3.9-7.2 3.2-15.4 3.2-15.4m18.7 16.2c2.4-3.9 2.4-13 2.4-13m154.3-7.6c-8.7-2-14 9.8-14 9.8m25.5-11.7c-1 8.5-7.7 16.3-7.7 16.3m21.4-17c-.5 7.2-8.2 16.9-8.2 16.9m25.2-19.8c-1.3 9.5-8.2 16.6-8.2 16.6m20.8-19.9c.5 8.5-3.9 21.5-6.8 24.1m21.8-20.5c1.5 4.6 0 11.1 0 11.1m-94.6-28.9c5.8 1.3 9.2 7.8 9.2 7.8m-19.1 8.6c3-10.2 16.2-5.2 17.8-2.5"/><path class="st9" d="M450.7 463.8c-8.3 2.8-12.2 3-14.9.5"/><path class="st25" d="M460 457.1c-7.3 2.8-11.5 3.7-15.1 1.5"/><path class="st26" d="M472.3 448.7c-4.9 2.8-7.6 3.7-10 1.5"/><path class="st27" d="M480.9 442.3c-5.9 2.8-9.3 3.7-12.3 1.5"/><path class="st5" d="M246.6 324.5c1 5.9-.5 7.2-1.9 12.4s.5 14.5.5 14.5m19.7-19.6c-5.5 6.5-4.9 18.4-4.9 18.4"/><path class="st28" d="M220.1 334.6c9.8.9 14.7 8.3 16.8 14.8 2.1 6.5 3.6 10.9 3.6 10.9"/></svg>