<svg xmlns="http://www.w3.org/2000/svg" viewBox="0 0 1125 750"><defs><clipPath id="a"><path d="M0 600h900V0H0v600z"/></clipPath></defs><path d="M689.786 750H1125V375H689.786v375z" fill="#fff"/><path d="M0 750h689.786V0H0v750zm689.786-375H1125V-.001H689.786V375z" fill="#ffd203"/><g clip-path="url(#a)" transform="matrix(1.25 0 0 -1.25 0 750)"><path d="M688.326 503.162c7.631-5.995 21.244-10.723 11.98-21.622 8.175-1.09 11.456 6.906 11.456 12.9 0 5.995-22.89 8.178-23.436 8.722" fill="#ed2939"/><path d="M688.326 503.162c7.631-5.995 21.244-10.723 11.98-21.622 8.175-1.09 11.456 6.906 11.456 12.9 0 5.995-22.89 8.178-23.436 8.722z" fill="none" stroke="#000" stroke-width=".625"/><path d="M697.746 376.2c91.022 30.63 58.757 136.264-19.376 126.263-6.04-.59-10.669-1.616-15-4.374-6.878-3.203-17.815-4.215-19.379-.626 1.133 2.34 7.168 4.56 6.875 8.126-5.154 2.462-13.529 5.478-11.876 15.001 14.9-2.683 19.38 8.751 18.753 15.003-.625 4.191-4.377 15.001 23.752 25.003 50.004 11.251 115.013-6.876 125.016-92.51 3.751-58.757-42.507-79.385-55.008-88.76-12.5-9.377-26.877-16.254-33.753-36.254-2.5 17.5-11.877 26.877-20.004 33.127" fill="#002395"/><path d="M697.746 376.2c91.022 30.63 58.757 136.264-19.376 126.263-6.04-.59-10.669-1.616-15-4.374-6.878-3.203-17.815-4.215-19.379-.626 1.133 2.34 7.168 4.56 6.875 8.126-5.154 2.462-13.529 5.478-11.876 15.001 14.9-2.683 19.38 8.751 18.753 15.003-.625 4.191-4.377 15.001 23.752 25.003 50.004 11.251 115.013-6.876 125.016-92.51 3.751-58.757-42.507-79.385-55.008-88.76-12.5-9.377-26.877-16.254-33.753-36.254-2.5 17.5-11.877 26.877-20.004 33.127z" fill="none" stroke="#000" stroke-width=".625"/><path d="M657.26 529.322c4.36-3.815 11.446-7.074 17.986 4.359 6.54 9.266 15.836.544 15.836.544m-9.292-9.68c8.719-15.27 28.426-15.192 49.789-13.076" fill="none" stroke="#000" stroke-width=".625"/><path d="M735.751 518.767c64.001-17.438 56-94.284 14.855-124.258" fill="none" stroke="#000" stroke-width="1.92"/><path d="M730.836 378.901c-26.705-6.539-53.41-2.18-73.575 33.246-7.084 13.081-23.526 12.114-24.466 3.461 10.874 9.391 16.14-7.59 14.908-13.997-12.948-.188-16.067-4.315-22.2-9.01 4.447-.055 12.325 3.538 22.494-9.885 11.897-14.858 28.34-15.925 33.79-15.925 6.539-.545 9.078-1.727 17.072 1.483-4.603-6.539-22.157-9.349-30.697-3.186-2.34-9.076 5.614-6.872 20.709-14.526 10.605-6.18 18.178-16.947 29.43-21.8 11.239-4.622 19.388-3.866 30.832 5.942-25.07-5.448-41.186 6.592-18.297 44.197" fill="#ed2939"/><path d="M730.836 378.901c-26.705-6.539-53.41-2.18-73.575 33.246-7.084 13.081-23.526 12.114-24.466 3.461 10.874 9.391 16.14-7.59 14.908-13.997-12.948-.188-16.067-4.315-22.2-9.01 4.447-.055 12.325 3.538 22.494-9.885 11.897-14.858 28.34-15.925 33.79-15.925 6.539-.545 9.078-1.727 17.072 1.483-4.603-6.539-22.157-9.349-30.697-3.186-2.34-9.076 5.614-6.872 20.709-14.526 10.605-6.18 18.178-16.947 29.43-21.8 11.239-4.622 19.388-3.866 30.832 5.942-25.07-5.448-41.186 6.592-18.297 44.197z" fill="none" stroke="#000" stroke-width=".625"/><path d="M790.24 412.147c-6.539-16.894-14.798-35.623-2.809-48.157-15.804-.547-27.175 15.624-27.175 21.619 5.995 3.816 23.445 16.727 29.984 26.538" fill="#ed2939"/><path d="M790.24 412.147c-6.539-16.894-14.798-35.623-2.809-48.157-15.804-.547-27.175 15.624-27.175 21.619 5.995 3.816 23.445 16.727 29.984 26.538z" fill="none" stroke="#000" stroke-width=".625"/><path d="M753.182 436.127c-7.63-20.164-15.826-24.523-32.176-24.523 8.719-4.36 13.1-5.452 10.376-16.35 10.9 9.262 21.8 26.703 21.8 40.872" fill="#ed2939"/><path d="M753.182 436.127c-7.63-20.164-15.826-24.523-32.176-24.523 8.719-4.36 13.1-5.452 10.376-16.35 10.9 9.262 21.8 26.703 21.8 40.872zm-9.81 105.729c3.813-2.724 4.904-6.54 4.36-13.625 5.994 9.81 13.078 10.357 18.53 4.362.543 6.539 7.63 7.083 12.533 3.268m-59.405-34.335c17.44-2.18 29.43-15.805 32.7-22.89" fill="none" stroke="#000" stroke-width=".625"/><path d="M749.367 556.572c10.898 1.088 24.177 1.833 34.334 10.355-2.18-8.175-10.71-11.625-13.438-16.528 3.271-.546 11.258-.913 13.438.178 5.45 1.089 12.534 4.904 19.62 7.628 7.083 2.727 13.091 5.085 18.54.725-11.446-1.09-22.533-10.366-15.815-20.89-8.719 1.636-18.155-4.012-17.61-16.002-4.903 10.899-31.44 32.899-38.525 33.988l-.544.546z" fill="#ed2939"/><path d="M749.367 556.572c10.898 1.088 24.177 1.833 34.334 10.355-2.18-8.175-10.71-11.625-13.438-16.528 3.271-.546 11.258-.913 13.438.178 5.45 1.089 12.534 4.904 19.62 7.628 7.083 2.727 13.091 5.085 18.54.725-11.446-1.09-22.533-10.366-15.815-20.89-8.719 1.636-18.155-4.012-17.61-16.002-4.903 10.899-31.44 32.899-38.525 33.988l-.544.546z" fill="none" stroke="#000" stroke-width=".625"/><path d="M800.595 495.532c7.63-10.9 20.168-25.071 24.526-26.704-11.444-2.182-14.706-9.644-6.542-25.07-5.994 5.45-8.718 7.629-12.533 3.815 3.27 8.718-5.995 48.503-5.451 47.959" fill="#ed2939"/><path d="M800.595 495.532c7.63-10.9 20.168-25.071 24.526-26.704-11.444-2.182-14.706-9.644-6.542-25.07-5.994 5.45-8.718 7.629-12.533 3.815 3.27 8.718-5.995 48.503-5.451 47.959z" fill="none" stroke="#000" stroke-width=".625"/><path d="M651.62 506.688c23.595 13.05 29.718-1.706-.099-2.852-.513.8-.19 1.823-.19 2.37l.29.482z" fill="#ffd203"/><path d="M651.62 506.688c23.595 13.05 29.718-1.706-.099-2.852-.513.8-.19 1.823-.19 2.37l.29.482z" fill="none" stroke="#000" stroke-width=".625"/><path d="M688.871 515.152c9.811-7.086 23.98-5.995 31.61-5.451 7.63.545-1.635-3.27-1.635-8.174s1.413-7.233 3.271-11.446c2.145-4.863 1.278-12.188-5.63-16.181 3.45 10.71-7.997 20.54-12.356 23.812-5.165 3.23-15.26 17.984-15.26 17.44" fill="#ed2939"/><path d="M688.871 515.152c9.811-7.086 23.98-5.995 31.61-5.451 7.63.545-1.635-3.27-1.635-8.174s1.413-7.233 3.271-11.446c2.145-4.863 1.278-12.188-5.63-16.181 3.45 10.71-7.997 20.54-12.356 23.812-5.165 3.23-15.26 17.984-15.26 17.44z" fill="none" stroke="#000" stroke-width=".625"/><path d="M683.58 527.958c0 2.074-1.78 3.752-3.975 3.752-2.194 0-3.97-1.678-3.97-3.752 0-2.072 1.776-3.753 3.97-3.753s3.975 1.681 3.975 3.753" fill="#fff"/><path d="M647.929 404.288c1.059-3.275 2.903-4.465 5.314-7.912-3.193.727-6.676 3.916-8.424 4.456m51.695-55.722c4.99 1.046 4.867 2.065 6.047 2.83-.228-1.724-3.37-2.576-1.936-6.523m-32.463 170.592c3.901 1.282 7.804-1.71 9.838-3.75 2.606-2.486 7.723-4.386 11.387-5.227" fill="none" stroke="#000" stroke-width=".625"/><path d="M712.894 562.977c8.721 4.362 13.403 7.987 15.036 11.255 1.636-3.815-1.089-7.63-1.089-10.9 6.54 0 16.895 4.905 19.074 7.085 4.907-3.815 1.957-12.147.706-14.651" fill="#002395" stroke="#000" stroke-width=".625"/><path d="M768.669 543.532c8.479-3.083 10.86-1.397 17.026.915-3.853-6.166-7.707-6.936-13.103-5.395" fill="none" stroke="#000" stroke-width=".75"/><path d="M122 0H61v600h61V0zm122 0h-61v600h61V0zm123.415 0h-61v600h61V0zm121.999 0h-61v600h61V0zm239.917 237.304c-5.535.506-11.069-.253-14.088-1.771-3.019-1.518-9.434-2.151-13.71-.632 2.766-4.807 8.301-6.073 14.59-3.29 3.455 1.598 8.43 3.416 10.566 2.91 5.661-1.14 3.523 2.53 2.642 2.783" fill="#ed2939"/><path d="M729.331 237.304c-5.535.506-11.069-.253-14.088-1.771-3.019-1.518-9.434-2.151-13.71-.632 2.766-4.807 8.301-6.073 14.59-3.29 3.455 1.598 8.43 3.416 10.566 2.91 5.661-1.14 3.523 2.53 2.642 2.783z" fill="none" stroke="#000" stroke-width=".625"/><path d="M812.74 23.866H640.302v28.62H812.74v-28.62z" fill="#002395" stroke="#fff" stroke-width=".625"/><path d="M645.137 53.02c3.558 6.978 6.937 9.304 8.184 13.775 1.245 4.474 4.09 7.336 9.072 11.452 8.894 7.871 18.267 12.154 27.217 5.545 5.103-3.767 1.6-12.343 7.827-15.385 6.227-3.041 10.14-16.46 9.429-21.29-8.005 6.62-15.833 8.945-23.66 3.22-6.048-4.114-12.452-5.545-19.213-.715-6.76 4.83-19.034 3.399-18.856 3.399"/><path d="M645.137 53.02c3.558 6.978 6.937 9.304 8.184 13.775 1.245 4.474 4.09 7.336 9.072 11.452 8.894 7.871 18.267 12.154 27.217 5.545 5.103-3.767 1.6-12.343 7.827-15.385 6.227-3.041 10.14-16.46 9.429-21.29-8.005 6.62-15.833 8.945-23.66 3.22-6.048-4.114-12.452-5.545-19.213-.715-6.76 4.83-19.034 3.399-18.856 3.399z" fill="none" stroke="#000" stroke-width="2.104"/><path d="M750.271 188.441c-2.134-13.418 2.846-25.404 8.718-23.258 1.067-4.83 5.514-8.766 9.071-8.408-.533-5.01 5.693-15.386 10.852-14.85 2.668-7.157 7.115-17.89 13.875-11.986 1.958-8.23 6.227-17.533 12.81-15.565 3.023.894-2.137 108.238-1.6 106.45L750.27 188.44z" fill="#ed2939"/><path d="M750.271 188.441c-2.134-13.418 2.846-25.404 8.718-23.258 1.067-4.83 5.514-8.766 9.071-8.408-.533-5.01 5.693-15.386 10.852-14.85 2.668-7.157 7.115-17.89 13.875-11.986 1.958-8.23 6.227-17.533 12.81-15.565 3.023.894-2.137 108.238-1.6 106.45L750.27 188.44z" fill="none" stroke="#000" stroke-width=".625"/><path d="M780.188 121.086c-11.255 3.325-11.594 7.958-14.439 13.683-2.847 5.725-2.932 13.852-11.386 17.89-6.705 3.204-7.324 7.62-8.035 11.913-.712 4.294 3.766 23.154 3.766 23.154s-2.127-.21-2.717.715c2.933.42 10.293-2.826 12.68.716 1.63-2.024 4.018-2.234 5.693-.716 1.422-2.53 7.662-2.234 8.538.716 3.393-1.858 9.588 1.597 8.539 4.294 4.988-1.352 8.877 2.776 7.827 6.44 7 .124 7.08 5.68 4.269 8.588 2.724.376 4.32 3.326 2.136 5.725 2.846 2.147 4.98-2.147 4.98-5.725 0-3.58 3.14-67.522 3.14-73.963 0-6.441 1.934-17.703 3.976-21.975 4.233-8.862 7.574-10.142 12.937-9.723-4.198 7.252-4.356 14.82-5.068 20.545-.71 5.725-3.646 82.528-4.053 82.513l-.005.014c2.692-.73 4.636.004 6.087 1.076-2.588.186-3.648 2.849-4.168 3.686-1.135 2.287-2.174 8.562-3.596 12.14-1.423 3.578-10.766 19.632-15.656 22.899-5.692 3.014-14.789 6.654-17.077 2.147-3.324-5.715 2.846-17.175 6.404-17.89 3.558-.716-4.269 2.863-3.558-1.432.713-4.293 2.847-9.302.713-12.165-2.136-2.863-4.982-4.293-7.828-4.293s-4.269 0-5.693-2.148c-1.423-2.146-4.98-3.578-7.827-1.431-2.847 2.147-7.115 2.863-9.25 2.863-2.134 0-7.072-.847-7.324-.087l.166 8.963c1.804-1.248 8.698.222 11.484 3.474-4.53.299-7.183 7.093-7.096 9.873 2.4-.4 4.92 1.133 7.013 2.649-3.125.097-6.963 4.145-8.033 8.898 2.688-.166 3.387 1.517 5.37 2.95-3.274-.207-9.166 4.286-10.665 8.368-2.135 2.146-16.531 2.605-20.801 2.605s-3.557-1.178-3.557-3.325c0-2.146 1.423-.716-3.558-3.578-7.371-1.977-7.958-9.928-4.144-12.798 1.422 1.43 1.828 2.78 3.01 4.207 1.005 1.07 3.234.568 4.093-.618.727-.876 2.46-2.18 3.723-2.211 1.285.097 2.507.917 4.203-.326 7.79-3.582 3.062-13.803-6.616-13.301 1.894-4.305 5.25-5.694 11.29-3.503-.845-2.448-3.436-6.546-4.976-7.867-10.68-6.04-17.872-18.916-13.264-36.83 2.845-5.01 8.809-20.064-.877-24.793-9.92-4.215-10.552-10.063-13.06-16.294-2.896-6.537-10.275-17.328-16.062-16.517 4.342-7.38 20.877 3.803 23.429 8.479 2.3-5.192 2.206-12.953 8.704-14.522-3.875 9.505-.624 13.954 7.716 20.684 4.399-5.813-4.49-32.63-15.435-35.337 5.038-2.485 12.475 1.394 15.192 2.022-1.057-2.406-13.191-9.918-18.97-10.005 8.31-6.92 18.383 3.38 22.78 7.884-.63-4.858-12.681-16.443-18.18-17.498.288-8.646 46.08-10.374 47.684-.724-5.693 1.554-14.71 9.33-17.47 17.439 7.203-7.265 13.188-12.57 22.828-7.596-9.596 2.443-15.043 7.029-17.136 9.743 4.79-1.41 7.083-2.19 12.776-1.474-7.892 4.004-18.148 26.356-16.169 36.212 9.875-6.686 11-12.27 8.212-21.307 8.398-.216 7.774 12.498 9.412 16.625 5.162-9.534 14.468-17.312 22.98-10.82" fill="#ed2939"/><path d="M780.188 121.086c-11.255 3.325-11.594 7.958-14.439 13.683-2.847 5.725-2.932 13.852-11.386 17.89-6.705 3.204-7.324 7.62-8.035 11.913-.712 4.294 3.766 23.154 3.766 23.154s-2.127-.21-2.717.715c2.933.42 10.293-2.826 12.68.716 1.63-2.024 4.018-2.234 5.693-.716 1.422-2.53 7.662-2.234 8.538.716 3.393-1.858 9.588 1.597 8.539 4.294 4.988-1.352 8.877 2.776 7.827 6.44 7 .124 7.08 5.68 4.269 8.588 2.724.376 4.32 3.326 2.136 5.725 2.846 2.147 4.98-2.147 4.98-5.725 0-3.58 3.14-67.522 3.14-73.963 0-6.441 1.934-17.703 3.976-21.975 4.233-8.862 7.574-10.142 12.937-9.723-4.198 7.252-4.356 14.82-5.068 20.545-.71 5.725-3.646 82.528-4.053 82.513l-.005.014c2.692-.73 4.636.004 6.087 1.076-2.588.186-3.648 2.849-4.168 3.686-1.135 2.287-2.174 8.562-3.596 12.14-1.423 3.578-10.766 19.632-15.656 22.899-5.692 3.014-14.789 6.654-17.077 2.147-3.324-5.715 2.846-17.175 6.404-17.89 3.558-.716-4.269 2.863-3.558-1.432.713-4.293 2.847-9.302.713-12.165-2.136-2.863-4.982-4.293-7.828-4.293s-4.269 0-5.693-2.148c-1.423-2.146-4.98-3.578-7.827-1.431-2.847 2.147-7.115 2.863-9.25 2.863-2.134 0-7.072-.847-7.324-.087l.166 8.963c1.804-1.248 8.698.222 11.484 3.474-4.53.299-7.183 7.093-7.096 9.873 2.4-.4 4.92 1.133 7.013 2.649-3.125.097-6.963 4.145-8.033 8.898 2.688-.166 3.387 1.517 5.37 2.95-3.274-.207-9.166 4.286-10.665 8.368-2.135 2.146-16.531 2.605-20.801 2.605s-3.557-1.178-3.557-3.325c0-2.146 1.423-.716-3.558-3.578-7.371-1.977-7.958-9.928-4.144-12.798 1.422 1.43 1.828 2.78 3.01 4.207 1.005 1.07 3.234.568 4.093-.618.727-.876 2.46-2.18 3.723-2.211 1.285.097 2.507.917 4.203-.326 7.79-3.582 3.062-13.803-6.616-13.301 1.894-4.305 5.25-5.694 11.29-3.503-.845-2.448-3.436-6.546-4.976-7.867-10.68-6.04-17.872-18.916-13.264-36.83 2.845-5.01 8.809-20.064-.877-24.793-9.92-4.215-10.552-10.063-13.06-16.294-2.896-6.537-10.275-17.328-16.062-16.517 4.342-7.38 20.877 3.803 23.429 8.479 2.3-5.192 2.206-12.953 8.704-14.522-3.875 9.505-.624 13.954 7.716 20.684 4.399-5.813-4.49-32.63-15.435-35.337 5.038-2.485 12.475 1.394 15.192 2.022-1.057-2.406-13.191-9.918-18.97-10.005 8.31-6.92 18.383 3.38 22.78 7.884-.63-4.858-12.681-16.443-18.18-17.498.288-8.646 46.08-10.374 47.684-.724-5.693 1.554-14.71 9.33-17.47 17.439 7.203-7.265 13.188-12.57 22.828-7.596-9.596 2.443-15.043 7.029-17.136 9.743 4.79-1.41 7.083-2.19 12.776-1.474-7.892 4.004-18.148 26.356-16.169 36.212 9.875-6.686 11-12.27 8.212-21.307 8.398-.216 7.774 12.498 9.412 16.625 5.162-9.534 14.468-17.312 22.98-10.82z" fill="none" stroke="#000" stroke-width=".625"/><path d="M710.877 187.547c3.024-8.945 1.424-21.827-6.937-22.721-1.601-3.936-5.159-6.62-9.429-7.872-1.78-8.051-6.404-15.923-10.495-13.597-1.957-8.23-9.962-20.574-13.698-12.524-1.779-11.27-11.564-19.142-15.477-14.491-3.202 3.757 4.456 99.477 4.456 99.477l51.58-28.272z" fill="#ed2939"/><path d="M710.877 187.547c3.024-8.945 1.424-21.827-6.937-22.721-1.601-3.936-5.159-6.62-9.429-7.872-1.78-8.051-6.404-15.923-10.495-13.597-1.957-8.23-9.962-20.574-13.698-12.524-1.779-11.27-11.564-19.142-15.477-14.491-3.202 3.757 4.456 99.477 4.456 99.477l51.58-28.272z" fill="none" stroke="#000" stroke-width=".625"/><path d="M719.513 211.393c-6.541 1.012-13.561-.358-16.076-2.383-2.516-2.023-8.701-2.826-10.21-.802-1.51 2.025-3.523 3.037-6.038 3.542-9.632 2.653-8.53 18.519-4.53 20.24 6.483 2.5 8.565 15.253-.533 15.299-9.561.228-16.456-.654-20.481-4.702-4.026-4.048-8.48-10.827-9.678-18.693-1.053-6.911-4.69-15.712-9.528-19.647 2.785-1.04 4.958-.375 5.859-.21-1.865-4.396-.02-85.8-7.4-98.552-1.51-5.06 9.057-4.048 12.579 4.049 3.522 8.095 8.05 97.662 8.555 102.216.502 4.554 2.068-1.344 4.528-3.16-1.276-5.571 1-8.965 4.528-9.706-.208-4.855 5-5.714 7.547-4.845-.3-3.246 3.345-4.56 7.045-3.542 1.92-3.813 7.76-4.467 9.266-2.203 2.57-3.103 5.772-.746 6.835 1.19 2.663-2.713 9.378-4.85 9.118-.53-.862 6.274 4.136 19.576 8.614 22.439" fill="#ed2939"/><path d="M719.513 211.393c-6.541 1.012-13.561-.358-16.076-2.383-2.516-2.023-8.701-2.826-10.21-.802-1.51 2.025-3.523 3.037-6.038 3.542-9.632 2.653-8.53 18.519-4.53 20.24 6.483 2.5 8.565 15.253-.533 15.299-9.561.228-16.456-.654-20.481-4.702-4.026-4.048-8.48-10.827-9.678-18.693-1.053-6.911-4.69-15.712-9.528-19.647 2.785-1.04 4.958-.375 5.859-.21-1.865-4.396-.02-85.8-7.4-98.552-1.51-5.06 9.057-4.048 12.579 4.049 3.522 8.095 8.05 97.662 8.555 102.216.502 4.554 2.068-1.344 4.528-3.16-1.276-5.571 1-8.965 4.528-9.706-.208-4.855 5-5.714 7.547-4.845-.3-3.246 3.345-4.56 7.045-3.542 1.92-3.813 7.76-4.467 9.266-2.203 2.57-3.103 5.772-.746 6.835 1.19 2.663-2.713 9.378-4.85 9.118-.53-.862 6.274 4.136 19.576 8.614 22.439z" fill="none" stroke="#000" stroke-width=".625"/><path d="M672.452 194.702c.178-10.733-.178-60.827-2.489-65.12m14.053 13.774c1.423 8.41.355 47.231.355 47.231m9.687-33.812c.71 7.156.533 31.308.533 31.308m8.895-23.078c.533 6.619-.535 22.899-.535 22.899m55.859-22.72c-2.134 5.546 0 23.079 0 23.079m9.25-31.488c-2.488 5.546-.71 30.414-.71 30.414m11.562-45.263c-2.49 8.588 0 47.23 0 47.23m13.875-58.68c-2.846 8.767-2.615 66.182-2.615 66.182" fill="#ed2939" stroke="#000" stroke-width=".625"/><path d="M671.287 81.108c0-2.3-1.53-4.565-2.863-6.312-.214-.282.634.306.962.438 1.458.594 2.934 1.066 4.358 1.876.598.34.82.222 1.142.837" fill="none" stroke="#000" stroke-width="2.104"/><path d="M686.052 74.49c2.229-.562 4.382-2.16 5.543-4.15" fill="red" stroke="#000" stroke-width="2.104"/><path d="M664.9 158.595c.875 12.352.7 37.894-.025 41.294m131.456 2.603c-.219-10.808-1.38-37.06 1.472-45.44" fill="#ed2939" stroke="#000" stroke-width=".625"/><path d="M767.537 121.26c6.142-9.484 9.431-16.982 11.185-22.056 1.755-5.073 5.702-7.72 11.405-9.263 4.97-1.154 7.817-5.414 6.21-8.853-11.808 8.127-25.422 6.839-29.237-.852-2.414 4.632.876 6.837 3.728 8.6 2.85 1.767 5.92 2.87 2.851 7.722-3.07 4.85-16.26 20.273-19.112 24.022-1.654 1.886 1.543 7.457 2.421 10.988 2.867-4.375 10.55-10.528 10.55-10.308" fill="#ed2939"/><path d="M767.537 121.26c6.142-9.484 9.431-16.982 11.185-22.056 1.755-5.073 5.702-7.72 11.405-9.263 4.97-1.154 7.817-5.414 6.21-8.853-11.808 8.127-25.422 6.839-29.237-.852-2.414 4.632.876 6.837 3.728 8.6 2.85 1.767 5.92 2.87 2.851 7.722-3.07 4.85-16.26 20.273-19.112 24.022-1.654 1.886 1.543 7.457 2.421 10.988 2.867-4.375 10.55-10.528 10.55-10.308z" fill="none" stroke="#000" stroke-width=".625"/><path d="M707.227 119.717c-7.677-7.06-16.888-20.292-18.203-22.938-1.317-2.648-1.535-4.853.877-6.838 2.413-1.985 6.914-6.632 5.162-9.493-10.912 9.604-18.102 8.389-28.848.89-2.193 3.088-.44 7.059 3.729 8.824 4.145 1.458 7.677.44 11.184 5.292 3.51 4.854 10.528 23.6 12.94 26.247 3.728 1.986 8.346 6.955 11.197 8.059 1.535-2.647 3.464-9.445 3.024-9.226l-1.062-.817z" fill="#ed2939"/><path d="M707.227 119.717c-7.677-7.06-16.888-20.292-18.203-22.938-1.317-2.648-1.535-4.853.877-6.838 2.413-1.985 6.914-6.632 5.162-9.493-10.912 9.604-18.102 8.389-28.848.89-2.193 3.088-.44 7.059 3.729 8.824 4.145 1.458 7.677.44 11.184 5.292 3.51 4.854 10.528 23.6 12.94 26.247 3.728 1.986 8.346 6.955 11.197 8.059 1.535-2.647 3.464-9.445 3.024-9.226l-1.062-.817z" fill="none" stroke="#000" stroke-width=".625"/><path d="M718.513 258.796c-.617 2.997-1.278 11.15-1.374 13.793.849.24 3.717-12.341 3.717-12.341l1.535 14.01 2.913-13.415 2.027 14.053 2.47-13.771 2.926 13.645 1.365-13.662 3.814 13.474.09-13.801 4.763 12.285-.182-13.373s4.125 10.979 4.628 10.5c-.44-2.362-2.337-11.237-3.656-13.256-5.482 1.544-25.036 1.859-25.036 1.859" fill="#ed2939"/><path d="M718.513 258.796c-.617 2.997-1.278 11.15-1.374 13.793.849.24 3.717-12.341 3.717-12.341l1.535 14.01 2.913-13.415 2.027 14.053 2.47-13.771 2.926 13.645 1.365-13.662 3.814 13.474.09-13.801 4.763 12.285-.182-13.373s4.125 10.979 4.628 10.5c-.44-2.362-2.337-11.237-3.656-13.256-5.482 1.544-25.036 1.859-25.036 1.859z" fill="none" stroke="#000" stroke-width=".625"/><path d="M718.411 253.436c1.974-6.176 8.334-3.75 8.992-.44.657 1.763-5.482.44-8.992.44" fill="#ed2939"/><path d="M718.411 253.436c1.974-6.176 8.334-3.75 8.992-.44.657 1.763-5.482.44-8.992.44z" fill="none" stroke="#000" stroke-width=".625"/><path d="M720.207 49.264c3.736 4.473 14.943 6.262 19.925 2.325 4.98-3.934 7.115-5.366 11.385-5.724 1.245 6.619 7.65 13.954 7.472 16.102-5.514 6.977-5.694 10.913-9.073 12.88-2.718 1.438-5.326 1.73-6.582 7.515-3.368 15.506-24.728 6.976-25.44 2.683-.833-3.862-.889-6.261-6.225-11.093-5.337-4.83-8.539-8.944-6.404-14.85 2.134-5.902-.712-14.311 6.582-14.132 4.98 1.073 8.36 4.294 8.36 4.294"/><path d="M720.207 49.264c3.736 4.473 14.943 6.262 19.925 2.325 4.98-3.934 7.115-5.366 11.385-5.724 1.245 6.619 7.65 13.954 7.472 16.102-5.514 6.977-5.694 10.913-9.073 12.88-2.718 1.438-5.326 1.73-6.582 7.515-3.368 15.506-24.728 6.976-25.44 2.683-.833-3.862-.889-6.261-6.225-11.093-5.337-4.83-8.539-8.944-6.404-14.85 2.134-5.902-.712-14.311 6.582-14.132 4.98 1.073 8.36 4.294 8.36 4.294z" fill="none" stroke="#000" stroke-width="2.104"/><path d="M808.976 55.346c-.533 7.872-4.44 15.258-10.14 16.639-3.75 1.059-4.625 6.62-7.47 10.198-2.847 3.578-18.68 5.367-20.637 1.073-1.956-4.294-2.313-6.44-4.624-8.588-2.314-2.146-3.38-4.83-6.048-13.06-11.386-15.922-10.04-19.828 0-11.807 2.946 2.355 18.5 3.936 21.346.716 3.736-4.831 12.808-7.156 16.723-2.327 2.49 2.327 7.649 4.294 10.85 7.156"/><path d="M808.976 55.346c-.533 7.872-4.44 15.258-10.14 16.639-3.75 1.059-4.625 6.62-7.47 10.198-2.847 3.578-18.68 5.367-20.637 1.073-1.956-4.294-2.313-6.44-4.624-8.588-2.314-2.146-3.38-4.83-6.048-13.06-11.386-15.922-10.04-19.828 0-11.807 2.946 2.355 18.5 3.936 21.346.716 3.736-4.831 12.808-7.156 16.723-2.327 2.49 2.327 7.649 4.294 10.85 7.156z" fill="none" stroke="#000" stroke-width="2.104"/><path d="M786.03 66.26c-.354-2.932-4.15-5.936-6.66-7.064-.215-.096-.434-.185-.65-.28m17.626 8.954c1.239-2.493 1.666-3.465 3.687-5.664 2.104-2.29 4.424-4.74 7.04-6.392.253-.159.404-.132.7-.108m-88.811 18.962c1.353-1.814 5.615-5.837 1.79-7.461-1.547-.658-2.64-1.121-4.348-1.126m9.319-5.367c1.425-2.866 4.086-4.444 6.425-6.45m-72.602 1.977c2.106 0 8.77 3.727 10.968 4.704.005.003-.297-.37-1.096-1.353-2.132-2.625-2.782-5.86-4.375-8.752" fill="none" stroke="#000" stroke-width="2.104"/><path d="M645.404 50.708c5.888 4.9 12.305 3.004 17.543-1.836m19.641.085c-6.3-6.521-12.597-6.602-19.662-.081m19.594.102c6.256 6.604 12.469 6.562 19.533.041m19.639.086c-6.299-6.52-12.597-6.601-19.66-.08m19.592.102c6.256 6.602 12.47 6.561 19.534.04m19.641.085c-6.3-6.521-12.598-6.602-19.662-.081m19.593.102c6.255 6.602 12.47 6.562 19.533.041m19.64.086c-6.299-6.522-12.597-6.604-19.66-.082m19.592.102c2.417 2.557 5.526 4.824 9.172 4.937" fill="none" stroke="#002395" stroke-width="7.75" stroke-linecap="square"/><path d="M743.827 211.872c-2.322-1.167-7.046-5.138-5.825-4.187m45.594-14.144c0-3.938.415.307-.908-6.245m-9.862.413c-1.699-3.416-.88-.684-.836-6.831 0 .219.005-.438.006-.656m-9.838 7.538c-.052-2.558-.104-9.556.156-10.382m-8.648 10.331c0-1.376-.207-7.386-.207-7.98m-75.281 14.646c1.657-5.655.725-22.748-.064-26.764m11.031 20.098c1.115-3.364.2-7.407.104-10.938m9.01 10.209c.726-2.292.104-5.834.104-9.063m8.181 8.959v-6.859" fill="#ed2939" stroke="#000" stroke-width=".625"/><path d="M640.712 38.129c6.19 4.9 12.938 3.005 18.446-1.835m20.652.085c-6.622-6.521-13.245-6.602-20.674-.081m20.602.102c6.578 6.604 13.111 6.562 20.54.041m20.651.086c-6.622-6.52-13.245-6.602-20.673-.08m20.601.101c6.578 6.603 13.112 6.562 20.54.04m20.652.086c-6.623-6.521-13.245-6.602-20.674-.081m20.602.102c6.578 6.602 13.11 6.562 20.54.041m20.651.085c-6.623-6.52-13.246-6.603-20.673-.082m20.601.103c2.542 2.557 5.812 4.823 9.645 4.937" fill="none" stroke="#fff" stroke-width="7.75" stroke-linecap="square"/><path d="M551.83 600V0m0 300H900" fill="none" stroke="#960" stroke-width="2"/></g></svg>