<svg xmlns="http://www.w3.org/2000/svg" version="1" viewBox="0 0 750 500">
<path fill="#fff" d="M0 0h750v500H0z"/>
<path fill="#da121a" d="M0 330h750v60H0zm0-220h750v60H0z"/>
<path d="M317.11 193.125v26.25h12.5v70h-12.5v17.5h115.78v-17.5h-12.5v-70h12.5v-26.25H402.5v27.5H390v-27.5h-30v27.5h-12.5v-27.5h-30.39zm46.64 68.75h22.5v27.5h-22.5v-27.5z"/>
<path d="M80.338 218.75l7.758 23.872 25.1.001-20.306 14.755 7.756 23.872-20.308-14.753-20.307 14.753 7.756-23.872-20.307-14.755 25.1-.001zm78.217 0l7.757 23.872 25.1.001-20.305 14.755 7.755 23.872-20.307-14.753-20.308 14.753 7.756-23.872-20.306-14.755 25.1-.001zm78.215 0l7.758 23.872 25.101.001-20.306 14.755 7.755 23.872-20.307-14.753-20.308 14.753 7.756-23.872-20.306-14.755 25.1-.001zm276.46 0l7.757 23.872 25.1.001-20.306 14.755 7.756 23.872-20.308-14.753-20.307 14.753 7.755-23.872-20.306-14.755 25.1-.001zm78.215 0l7.758 23.872 25.1.001-20.306 14.755 7.756 23.872-20.308-14.753-20.307 14.753 7.756-23.872-20.307-14.755 25.1-.001zm78.217 0l7.757 23.872 25.1.001-20.306 14.755 7.756 23.872-20.307-14.753-20.308 14.753 7.756-23.872-20.307-14.755 25.101-.001z" fill="#da121a"/>
</svg>
