<svg xmlns="http://www.w3.org/2000/svg" viewBox="0 0 600 400">
<path fill="#078930" d="M0 400V200h600v200H0z"/>
<path fill="#0F47AF" d="M0 200V0h599.999L600 200H0z"/>
<path fill="#FCDD09" d="M600 172c-2 0-220.006 1.025-245 .508C330 172 315 162 290 162s-40 10-65 10-40-10-65-10c-24.55 0-40 10-65 10s-40-10-65-10c-24.6 0-15 0-30 2.514v49.904C15 212 5 212 30 212s40 15 65 15 40-10 65-10 40 10 65 10 40-15 65-15 40 15 65 15h245v-55z"/>
<path d="M92 114c-1.918.094-3.455 1.759-5.32 6.406-3.122 7.782-3.098 12.243.093 18.562C88.214 141.823 90.021 145 92 145c2 0 3.825-3.177 5.281-6.031 3.224-6.319 3.249-10.78.094-18.562-1.885-4.648-3.437-6.313-5.375-6.407zm27.25 10.344c-.005-.007.004-.024 0-.031-.011-.017-.051-.046-.062-.062-.543-.681-2.867-1.219-5.281-1.219-3.58 0-5.308-1-8.25-4.688-2.644-3.312-4.684-4.836-6.156-4.594-.6.099-1.111.508-1.531 1.188-1.415 2.289 3.527 11.999 8.156 16.062 5.085 4.465 4.763 4.334 7.75 3.188 2.517-.966 6.132-7.495 5.469-9.625a1.623 1.623 0 0 0-.095-.219zm18.781-46.469c-3.003-5.807-11.638-9.632-18.625-9.406C111 68 97.25 91.333 97.25 93.625c0 3.267 4.053 2.658 8-.594 9.75-8.031 16.188-4.542 20.875-.188 2.7 2.51 5.301 4.574 5.969 4.781.005.002.026.03.031.031h.062c.536-.052 2.128-1.574 3.594-3.438 3.933-4.998 4.827-11.36 2.25-16.342zM92 97c3 0 8.521-13.684 11.688-19.031 9.679-16.344 11.61-24.066 8.25-32.906C110.117 40.276 95 20 92 20c-2.97 0-17.932 20.276-19.732 25.062-3.326 8.84-1.415 16.562 8.165 32.906C83.567 83.316 89.031 97 92 97zm-10.918 6.25c-1.007 1.612-.919 2.78.34 4.312 1.242 1.512 4.791 2.452 10.578 2.438 5.847.015 9.433-.926 10.688-2.438 1.271-1.532 1.36-2.7.344-4.312C101.93 101.504 99.747 101 92 101c-7.668 0-9.828.504-10.918 2.25zm5.011 11.687c-.416-.68-.923-1.089-1.516-1.188-1.458-.242-3.478 1.281-6.093 4.594-2.912 3.688-4.622 4.688-8.165 4.688-2.39 0-4.689.538-5.228 1.219-.012.017-.052.046-.062.062-.004.007.004.024 0 .031a1.55 1.55 0 0 0-.093.219c-.656 2.13 2.921 8.659 5.412 9.625 2.956 1.146 2.638 1.277 7.671-3.188 4.583-4.063 9.473-13.773 8.074-16.062zm-7.207-21.906c3.907 3.252 7.918 3.86 7.918.594 0-2.292-13.608-25.625-21.928-25.156-6.916-.226-15.462 3.6-18.434 9.406-2.55 4.982-1.665 11.345 2.227 16.344 1.45 1.863 3.026 3.386 3.557 3.438h.062c.005-.001.025-.029.03-.031.661-.207 3.235-2.271 5.907-4.781 4.64-4.356 11.012-7.845 20.661.186z" fill="#FFF"/>
</svg>
