<svg xmlns="http://www.w3.org/2000/svg" viewBox="0 0 1000 666">
<path fill="#fdfd00" d="M0 0h1000v666H0z"/>
<path d="M430.437 69.125c1.044-.072 1.853.545 2.532 1.813 2.475 4.624-.217 15.844-5.625 23.406-3.109 4.346-3.335 5.017-2 6.5 2.857 3.174 5.656 12.12 5.656 18.094 0 5.694.084 5.862 3.469 7.468 4.605 2.186 8.294 7.18 9.125 12.375.659 4.123-.71 6.002-1.969 2.719-.854-2.226-4.284-1.82-6.063.719-2.997 4.28-1.579 18.558 2.375 23.906 2.488 3.365 2.547 3.875.47 3.875-2.9 0-7.157 3.906-8.845 8.125-2.004 5.01-1.374 8.693 2.125 12.469 2.014 2.172 2.332 3.117 1.47 4.344-1.067 1.515-1.653 2.736-6.813 13.78-2.867 6.137-7.061 9.941-11.875 10.845-3.12.585-3.469 1-3.469 3.937 0 4.429-2.186 9.354-6.406 14.406-1.936 2.317-4.53 5.987-5.75 8.156-2.496 4.441-3.82 5.016-3.875 1.688-.02-1.238-1.611-4.05-3.532-6.25l-3.5-4-2.468 3c-4.372 5.31-6.469 11.027-6.469 17.594 0 7.54 2.174 11.032 7.906 12.75 3.934 1.178 5.647.822 12.344-2.625 1.293-.666.828 7.677-.625 11.156-1.73 4.142-5.87 7.16-11.938 8.688-2.573.648-4.687 1.536-4.687 1.968 0 .433 2.007 4.04 4.469 8.031 5.16 8.369 8.422 16.704 11.531 29.438 2.713 11.113 6.388 17.34 17.625 29.938 6.545 7.337 9.04 9.474 10.437 9.03 2.657-.842 8.952 2.707 20.688 11.626 11.306 8.592 15.835 10.417 23.875 9.594 12.354-1.266 20.505-11.516 19.031-24-1.448-12.27-10.356-22.8-29.531-34.875-14.785-9.312-25.198-19.44-30.656-29.813-3.932-7.472-3.97-7.543-3.969-19 0-9.207.362-12.178 1.812-14.844 1.687-3.1 1.71-3.624.25-7.906-3.35-9.834-.791-20.394 7.72-31.75 9.615-12.83 10.204-14.112 10.124-22.5-.046-4.937-.651-8.58-1.75-10.688-2.092-4.013-2.054-4.312.188-4.312 1.872 0 11.122 5.66 11.187 6.844.02.36 1.12 1.982 2.438 3.594 1.989 2.433 2.656 2.724 3.906 1.687.828-.687 1.792-2.623 2.156-4.281.568-2.586 1.02-2.927 3.094-2.406 3.52.883 12.706-2.093 15.437-5 1.822-1.94 2.421-3.905 2.72-8.72.35-5.671.13-6.599-2.688-10.468-1.7-2.333-3.094-4.47-3.094-4.75 0-1.382 7.092-.202 11.687 1.938 4.735 2.204 7.889 5.42 11.875 12.125.782 1.314 2.382 1.818 6.094 1.875 5.935.09 9.979-1.806 11.938-5.594 1.62-3.134 1.9-12.42.406-13.344-2.194-1.356-.97-3.5 2-3.5 4.868 0 12.321 7.97 14.469 15.469 1.577 5.507 1.578 6.455.125 12.344-1.829 7.409-6.653 14.57-12.594 18.687-3.992 2.767-4.035 2.857-3.406 7.594.988 7.452-.186 11.422-4.657 15.719l-3.968 3.812L515.53 234c4.811 4.52 6.936 12.117 4.5 15.969-.793 1.254-1.502 1.145-4.875-.75-8.899-5.002-18.59-2.051-31.187 9.469-10.697 9.78-13.63 11.76-20.969 14.28-5.377 1.848-7.789 2.127-13.906 1.626l-7.375-.594.625 6.625c.837 8.965 5.565 16.913 12.875 21.625 4.186 2.699 4.781 2.21 4.781-3.813 0-6.989 3.008-13.377 6.344-13.437.472-.008.595 1.124.25 2.5-.87 3.463 2.118 12.206 5.781 16.906 1.678 2.153 7.574 7.26 13.094 11.344 5.52 4.085 11.992 9.306 14.375 11.594 4.308 4.136 8.156 10.275 8.156 13 0 1.482 3.22 2.442 11 3.281 3.945.425 4.963.087 8.25-2.656 3.128-2.61 3.75-3.733 3.75-6.906 0-2.15-.659-4.365-1.5-5.063-.819-.68-1.271-1.592-1-2.031.844-1.366 6.621 1.377 9.125 4.344 4.348 5.151 2.75 15.283-3.406 21.593-1.16 1.189-.895 1.69 1.718 3.344 3.162 2.002 4.028 3.621 1.813 3.375-1.587-.176-1.898 1.088-1.188 4.875.311 1.656-.002 4.356-.687 6l-1.219 3-.437-2.5c-.677-4.132-4.068-7-8.313-7-4.511 0-6.906 2.091-6.906 6.063 0 2.6.34 2.937 3.062 2.937 6.022 0 9.589 3.823 8.438 9.063-.773 3.52-1.667 3.718-3 .687-1.678-3.814-4-3.2-7.781 2.063-2.765 3.847-4.64 5.305-8.657 6.75-3.95 1.42-4.959 2.217-4.406 3.406.989 2.124.786 6.53-.625 13-1.18 5.413-1.029 9.902.438 13.281 1.403 3.235-1.348 1.835-7.813-4-7.802-7.043-11.465-8.25-25.094-8.25-5.756 0-12.778-.49-15.593-1.094-2.815-.603-5.284-.935-5.5-.719-.217.217.216 1.581.968 3.032.753 1.45 1.676 3.973 2.032 5.594.894 4.073 5.67 9.18 8.625 9.218 2.372.032 2.374.063.406 1.594-1.515 1.179-3.636 1.438-8.75 1.094l-6.75-.438v3.844c0 3.725.124 3.875 3.375 3.875 8.264 0 16.466 5.208 19.312 12.25 1.61 3.98 2.575 4.354 6.875 2.719 1.483-.564 6.52-1.127 11.188-1.25l8.5-.219 3.719-4.344 3.75-4.375 1.125 3.188c.903 2.591.738 4.086-.844 8.25-1.064 2.8-3.147 6.363-4.625 7.906l-2.688 2.813 3.657 4.03c2.008 2.223 3.656 4.904 3.656 5.97 0 1.065.45 2.222 1 2.562.55.34 1 1.894 1 3.438 0 1.543.887 3.905 1.969 5.28 1.082 1.376 1.71 2.76 1.406 3.063-.304.304-2.99.308-5.969 0-6.014-.62-7.185.796-3.437 4.188 3.874 3.506 7.93 18.531 5 18.531-.57 0-2.097-.693-3.375-1.531-2.123-1.391-2.518-1.35-4.688.406-2.053 1.663-2.354 2.726-2.219 7.781.16 5.974 2.273 12.452 5.094 15.625 2.135 2.401.506 3.922-5 4.657-3.536.471-4.346.965-4.625 2.937-.613 4.336.906 9.132 4 12.656L499.22 555h-4.407c-3.367 0-5.421-.755-8.687-3.156-2.82-2.075-5.513-3.18-7.938-3.25-3.438-.1-3.683.098-3.687 2.906-.002 1.65-.367 3.559-.813 4.25-1.571 2.44-7.258 4.694-13.187 5.219l-6 .531.344 3.813c.937 10.76-9.073 17.13-20.844 13.28-5.028-1.644-9-1.008-9 1.438 0 1.554-1.744 1.1-2.406-.625-.334-.87-.594-2.616-.594-3.906 0-2.688-4.647-6.838-6.75-6.031-1.605.616-6.302-1.635-8.188-3.907-1.698-2.046-5.91-1.995-8.218.094-1.738 1.573-1.844 1.481-1.844-1.781 0-1.888.6-4.321 1.344-5.406.744-1.085 1.354-4.122 1.343-6.75-.013-3.319.627-5.64 2.094-7.625 2.486-3.363 2.063-4.094-2.437-4.094-1.834 0-3.344-.45-3.344-1 0-1.724 3.912-5 5.969-5 1.081 0 3.491-1.523 5.343-3.375 5.05-5.05 9.322-6.141 14.782-3.781 2.42 1.045 5.864 3.514 7.656 5.5 3.891 4.31 7.223 5.354 12.687 3.906 2.233-.591 5.268-.851 6.75-.563 2.322.453 3.155-.134 6-4.156 5.03-7.108 7.69-14.932 7.75-22.812.071-9.286-2.402-14.128-8.593-16.781-4.16-1.784-4.941-1.818-9.188-.532-2.556.774-7.806 2.84-11.656 4.594-5.816 2.65-7.932 3.102-12.531 2.781l-5.532-.375-2.625 4.188c-2.037 3.272-4.13 4.921-9.468 7.437-8.36 3.94-10.344 5.596-10.344 8.594 0 1.773-.409 2.163-1.75 1.688-4.967-1.762-9.182-9.057-9.219-15.938L382 500.25l-4.938-.469c-2.718-.261-6.054-1.208-7.406-2.094-3.186-2.087-6.123-9.685-5.187-13.406l.687-2.781 1.344 3.156c1.588 3.772 4.14 5.344 8.75 5.344 6.985 0 9.617-7.151 6.344-17.219-4.307-13.244-5.586-18.098-6.781-25.781-1.458-9.37-1.72-24.193-.563-30.625.663-3.69.492-4.311-1.656-5.719-1.325-.868-5.432-2.071-9.094-2.656-24.99-3.992-44.69 16.896-41.969 44.469.828 8.39 1.79 10.52 4.75 10.562 2.654.038 4.981 1.687 6.563 4.656 3.253 6.109.212 10.66-14.5 21.72-7.054 5.301-8.506 8.537-5.594 12.437 2.986 4 4.782 4.766 8.219 3.469 4.892-1.847 3.564.575-1.563 2.843-5.55 2.456-10.008 1.894-14.375-1.781-3.62-3.047-5.634-2.799-8.437.969-1.663 2.234-2.048 4.1-1.906 8.875.183 6.181-.597 6.591-3.063 1.687-.624-1.24-1.64-2.424-2.25-2.625-1.605-.529-4.417 4.244-6.938 11.719l-2.187 6.5-1.625-3.875c-.892-2.13-1.625-5-1.625-6.375 0-2.104-.243-2.293-1.5-1.25-.822.682-2.86 3.64-4.531 6.563-5.476 9.57-15.919 17.414-23.219 17.437-1.485.005-1.677.616-1.156 3.875.797 4.983-.748 7.75-5.406 9.781-2.037.888-4.58 3.013-5.688 4.719-2.813 4.333-5.5 4.704-5.5.75 0-2.529-.738-3.457-4.438-5.625-2.439-1.43-5.317-4.123-6.406-5.969-1.938-3.286-2.068-3.332-6.312-2.406-2.385.52-6.482 1.65-9.094 2.5-5.344 1.741-9.493 1.22-14.438-1.781-3.17-1.925-3.216-1.94-5.156 0-1.944 1.944-1.982 1.948-2.5-.031-.287-1.097-.005-4.438.625-7.438 1.135-5.41 1.13-5.471-1.812-7.875-3.254-2.66-6.423-3.17-8.281-1.312-1.817 1.816-1.5-5.189.343-7.625.808-1.068 1.469-2.903 1.469-4.063 0-1.16.387-2.54.875-3.063.488-.522 1.22-1.95 1.594-3.187.552-1.827.272-2.25-1.406-2.25-2.775 0-2.588-1.593.468-4.281a252.834 252.834 0 0 0 5.25-4.781c5.53-5.208 8.378-6.374 15.125-6.063 2.627.12 10.094 7.27 10.094 9.656 0 2.057 4.178 2.814 11.094 2.031 4.512-.51 8.034-.158 14.281 1.407 7.465 1.87 8.616 1.921 11.719.625 1.894-.792 4.181-2.242 5.094-3.25 2.6-2.875 5.495-10.44 6.28-16.406.84-6.372 3.076-14.328 5.095-18.094 3.064-5.718.377-6.466-6.813-1.906-4.703 2.982-10.632 5.08-14.25 5.03-1.837-.025-1.796-.211.5-2.03 1.375-1.09 3.187-2.508 4.031-3.188 1.666-1.342 5.349-6.79 4.813-7.125-.182-.113-2.594-.775-5.344-1.469-5.576-1.406-9.481-4.156-5.906-4.156 3.227 0 7.993-5.965 10.406-13 1.63-4.75 3.332-7.484 6.313-10.188l4.093-3.718-2.469-.938c-4.386-1.676-6.437-4.934-6.437-10.187 0-6.005 3.192-9.987 7.938-9.938l3.062.031-2.75 2.063c-5.088 3.796-2.244 12.875 4.031 12.875 2.097 0 9.219-6.155 9.219-7.969 0-.5 2.428-6.091 5.406-12.406 12.445-26.384 22.819-37.687 41.594-45.375 5.894-2.413 19.385-4.389 27.406-4 4.842.235 4.937.198 5.844-3.25.506-1.925 1.661-4.308 2.563-5.313 1.532-1.707 1.469-1.96-.844-3.78-1.361-1.072-6.15-3.72-10.656-5.876-8.905-4.26-13.377-8.85-21.094-21.75-2.05-3.428-4.317-6.24-5.031-6.25-.715-.01-2.61.637-4.22 1.469-3.088 1.597-14.968 3.26-14.968 2.094 0-.377.922-1.653 2.031-2.844 1.11-1.19 2.486-3.92 3.063-6.063 3.106-11.536-6.486.34-11.406 14.125-1.439 4.03-4.388 10.51-6.532 14.375-3.617 6.522-3.924 6.825-4.531 4.407-.853-3.399-2.828-3.307-4.375.187-.677 1.53-3.694 5.692-6.719 9.25-3.024 3.558-5.523 7.031-5.531 7.719-.008.688-.45 1.25-1 1.25s-1-2.22-1-4.938c0-2.717-.484-5.236-1.063-5.593-.578-.358-6.54 4.697-13.25 11.219-9.21 8.952-13.25 12.194-16.562 13.28-3.268 1.073-4.73 2.233-5.688 4.5-1.982 4.699-7.655 9.565-12.375 10.626-4.335.974-11.415-.218-12.593-2.125-.997-1.614-4.036-1.102-5.938 1-2.514 2.778-3.531 1.677-3.531-3.875 0-2.636-.49-6.206-1.094-7.938-.885-2.54-1.666-3.156-3.969-3.156-1.97 0-3.952-1.13-6.406-3.656-3.376-3.477-3.672-3.59-6.281-2.281-1.51.756-3.087 1.549-3.5 1.75-1.278.622-.82-3.177.75-6.188.822-1.575 1.5-4.586 1.5-6.688 0-5.012 1.401-8.478 4.594-11.437 3.063-2.84 2.439-4.5-1.656-4.5-4.376 0-3.56-1.591 1.812-3.563 2.612-.958 5.2-2.29 5.75-2.937 1.885-2.218 5.371-3.5 9.5-3.5 5.069 0 7.325 1.12 12.594 6.188 3.39 3.26 4.822 3.952 8.25 4 7.962.11 14.834-6.866 24.062-24.47 6.874-13.11 8.938-16.307 14.969-22.906 2.818-3.083 5.125-5.822 5.125-6.093 0-.271-.9-.713-2-1-2.208-.578-2.745-2.719-.688-2.719.714 0 2.89-1.688 4.844-3.75 2.905-3.066 3.84-5.195 5.219-11.688.927-4.367 2.162-8.484 2.719-9.156.692-.834.655-1.455-.125-1.937-.65-.401-2.95.997-5.313 3.25-8.016 7.642-15.923 10.669-21.687 8.281-2.893-1.198-4.054-3-1.938-3 .574 0 3.21-2.005 5.844-4.469 5.253-4.914 9.717-12.53 8.781-14.969-.327-.853-3.42-2.917-6.875-4.593-7.204-3.495-9.118-4.595-13.469-7.719-4.393-3.155-5.312-2.86-5.312 1.75 0 4.138-.336 4.93-5.625 13.188l-3.125 4.875-1.656-4.094c-.904-2.26-3.548-6.63-5.875-9.719l-4.219-5.625v-22.656l-4.813-4.125-4.812-4.094-3 2.875c-2.643 2.53-3.754 2.887-9.188 2.906-3.4.012-7.173.575-8.375 1.25-2.693 1.514-7.946 1.608-8.843.156-.365-.59.322-2.15 1.531-3.437l2.188-2.344-2.594-3.812c-1.658-2.44-2.594-5.155-2.594-7.563 0-2.599-.452-3.781-1.438-3.781-2.665 0-8.33-6.437-9.5-10.781-1.051-3.906-1.387-4.219-4.5-4.219-2.93 0-3.29-.265-2.812-2.094.314-1.2 2.172-2.808 4.344-3.75 4.145-1.796 9.13-7.919 10.312-12.656.411-1.646 1.49-3.827 2.406-4.844 1.572-1.743 1.515-1.989-1.125-4.094-2.194-1.75-2.523-2.455-1.5-3.25 2.61-2.024 4.997-2.273 8.344-.875 3 1.254 3.8 1.238 6.531-.125 2.093-1.044 4.396-1.327 7.032-.906 4.224.676 5.364-.95 2.406-3.406-.825-.685-1.5-1.642-1.5-2.125 0-1.594 5.696-.916 8.125.969 1.312 1.018 4.298 2.098 6.656 2.406 5.008.653 8.487 2.728 10.938 6.469 1.408 2.15 1.712 4.452 1.5 11.781-.256 8.846-.16 9.266 2.906 13.5 1.74 2.402 4.54 5.642 6.25 7.219 3.81 3.512 13.72 8.353 19.125 9.344 2.2.402 7.15 2.02 11 3.593 6.461 2.64 7.356 2.782 11.688 1.688 3.94-.996 5.343-.925 8.812.437l4.156 1.625 1.5-3.719c1.977-4.799 4.89-7.876 9.844-10.468 6.873-3.597 21.526-2.622 34 2.281 8.33 3.275 23.621 8 25.906 8 3.549 0 9.594-2.835 9.594-4.5 0-.7-3.142-3.169-7-5.5-5.973-3.61-7.94-4.274-13.25-4.5l-6.25-.281.219-4.344c.425-8.719 5.207-14.875 11.562-14.875 1.303 0 3.336-1.125 4.531-2.5 2.885-3.318 4.273-3.174 3.563.375-.856 4.28 1.046 4.58 4.063.625 1.464-1.92 3.073-3.5 3.562-3.5.489 0 1.017 1.674 1.188 3.719.565 6.773 8.154 8.332 13.062 2.687 2.418-2.78 5-10.202 4.063-11.719-.73-1.181-17.797-.281-21.313 1.125-7.46 2.985-18.598 5.317-25.469 5.344-9.098.036-15.287-2.572-19.969-8.469-2.582-3.253-3.016-4.667-3-9.5.03-8.723 4.469-14.579 11.938-15.718 4.837-.738 8.735.6 12.031 4.156 3.062 3.303 3.196 6.134.313 6.563-1.183.175-3.055 1.518-4.156 3-1.894 2.545-1.887 2.847-.313 5.25 2.939 4.485 6.161 4.369 29.625-1 4.125-.944 10.425-2.01 14-2.344 3.575-.335 6.436-.819 6.344-1.094-.093-.275-.493-1.76-.875-3.281-1.397-5.566-9.195-8.548-14.656-5.625-1.591.85-1.891 1.734-1.438 4 .338 1.69.156 2.906-.438 2.906-1.619 0-5.937-4.749-5.937-6.531 0-1.002-.667-1.488-1.75-1.281-1.208.23-1.905 1.557-2.25 4.312l-.5 4-2.75-2.719c-1.527-1.501-2.75-3.785-2.75-5.156 0-1.403-1.284-3.752-2.969-5.438l-2.969-2.968.625-10c.555-9.098.419-10.346-1.53-13.5-2.858-4.623-2.763-8.278.343-11.156 3.354-3.109 6.675-3.621 18.031-2.875l9.563.625 3.187-3.094c4.581-4.407 7.5-4.827 15.969-2.25 3.984 1.212 9.05 2.696 11.25 3.281 2.2.585 5.007 1.683 6.25 2.438 1.747 1.06 2.76 1.1 4.406.218 1.277-.683 4.007-.872 6.813-.5 7.022.932 10.868-.24 15.062-4.562 2.33-2.402 4.065-3.626 5.406-3.719z" fill="#f90000"/>
<path d="M422.607 579.418c-.334-.87-.607-2.637-.607-3.927 0-2.688-4.643-6.842-6.745-6.035-1.606.616-6.315-1.618-8.2-3.89-1.698-2.046-5.917-2-8.226.089-1.738 1.573-1.829 1.485-1.829-1.777 0-1.888.609-4.32 1.353-5.405s1.344-4.123 1.333-6.752c-.013-3.319.626-5.652 2.094-7.637 2.486-3.362 2.054-4.084-2.447-4.084-1.833 0-3.333-.45-3.333-1 0-1.724 3.91-5 5.967-5 1.081 0 3.482-1.516 5.334-3.368 5.05-5.05 9.34-6.147 14.8-3.788 2.42 1.046 5.866 3.526 7.658 5.512 3.891 4.311 7.217 5.329 12.682 3.881 2.232-.591 5.272-.839 6.755-.55 2.321.453 3.154-.123 6-4.145 5.03-7.108 7.693-14.952 7.752-22.832.071-9.285-2.408-14.121-8.6-16.775-4.16-1.783-4.954-1.83-9.2-.544-2.557.774-7.798 2.842-11.648 4.596-5.816 2.649-7.936 3.123-12.535 2.802l-5.536-.386-2.614 4.2c-2.038 3.272-4.128 4.912-9.465 7.429-8.359 3.94-10.35 5.593-10.35 8.592 0 1.773-.409 2.168-1.75 1.693-4.967-1.762-9.191-9.059-9.228-15.94l-.022-4.123-4.943-.475c-2.719-.26-6.05-1.2-7.402-2.085-3.186-2.088-6.127-9.68-5.19-13.4l.702-2.794 1.335 3.171c1.588 3.772 4.147 5.329 8.758 5.329 6.985 0 9.62-7.148 6.347-17.215-4.307-13.244-5.584-18.102-6.779-25.785-1.457-9.37-1.74-24.207-.584-30.639.664-3.69.483-4.31-1.665-5.717-1.325-.868-5.405-2.057-9.066-2.642-24.99-3.992-44.7 16.88-41.98 44.452.828 8.39 1.792 10.535 4.752 10.578 2.654.038 4.97 1.683 6.552 4.652 3.253 6.108.213 10.662-14.5 21.721-7.053 5.302-8.512 8.545-5.6 12.444 2.986 4 4.801 4.764 8.238 3.467 4.892-1.847 3.55.564-1.577 2.832-5.552 2.456-9.986 1.91-14.354-1.764-3.62-3.047-5.635-2.821-8.438.946-1.663 2.235-2.068 4.104-1.927 8.88.183 6.18-.579 6.607-3.045 1.703-.624-1.24-1.634-2.42-2.245-2.621-1.605-.529-4.434 4.233-6.955 11.708l-2.192 6.5-1.621-3.872c-.892-2.13-1.621-4.997-1.621-6.373 0-2.104-.237-2.304-1.494-1.26-.821.682-2.861 3.63-4.533 6.552-5.476 9.57-15.935 17.424-23.235 17.447-1.485.005-1.664.614-1.143 3.873.797 4.983-.734 7.763-5.393 9.795-2.036.887-4.608 3.01-5.715 4.715-2.813 4.333-5.487 4.692-5.487.738 0-2.528-.735-3.462-4.435-5.63-2.439-1.429-5.325-4.109-6.415-5.955-1.938-3.285-2.07-3.336-6.315-2.41-2.384.52-6.472 1.642-9.083 2.493-5.344 1.74-9.507 1.23-14.452-1.771-3.17-1.925-3.217-1.925-5.157.015-1.944 1.944-1.962 1.944-2.48-.036-.286-1.097-.007-4.449.623-7.449 1.135-5.41 1.12-5.473-1.821-7.877-3.254-2.66-6.407-3.153-8.265-1.295-1.816 1.816-1.511-5.205.332-7.641.807-1.068 1.468-2.89 1.468-4.05 0-1.16.4-2.537.888-3.059.488-.522 1.193-1.962 1.567-3.2.552-1.827.291-2.25-1.388-2.25-2.774 0-2.606-1.597.45-4.286a253.667 253.667 0 0 0 5.25-4.787c5.53-5.208 8.39-6.348 15.138-6.038 2.627.121 10.095 7.248 10.095 9.634 0 2.057 4.182 2.828 11.098 2.045 4.513-.51 8.023-.166 14.27 1.399 7.465 1.87 8.627 1.933 11.73.637 1.893-.791 4.189-2.264 5.1-3.271 2.602-2.875 5.491-10.417 6.277-16.383.839-6.371 3.084-14.338 5.103-18.104 3.064-5.718.378-6.472-6.812-1.912-4.703 2.982-10.648 5.077-14.266 5.027-1.837-.025-1.796-.19.5-2.008 1.375-1.09 3.19-2.537 4.034-3.217 1.666-1.342 5.332-6.781 4.796-7.115-.182-.113-2.58-.773-5.33-1.467-5.576-1.406-9.486-4.154-5.91-4.154 3.227 0 8.01-5.965 10.422-13 1.63-4.75 3.327-7.496 6.308-10.199l4.079-3.699-2.45-.936c-4.386-1.677-6.449-4.937-6.449-10.19 0-6.005 3.178-9.993 7.924-9.944l3.076.031-2.75 2.052c-5.088 3.796-2.244 12.885 4.031 12.885 2.097 0 9.219-6.161 9.219-7.975 0-.5 2.437-6.076 5.416-12.39C287.86 381.25 298.225 369.938 317 362.25c5.894-2.414 19.394-4.378 27.415-3.99 4.842.235 4.928.187 5.835-3.261.506-1.925 1.658-4.322 2.56-5.327 1.532-1.707 1.477-1.953-.836-3.775-1.36-1.071-6.16-3.712-10.666-5.868-8.905-4.26-13.363-8.863-21.08-21.763-2.05-3.427-4.313-6.24-5.028-6.25-.714-.01-2.616.664-4.225 1.496C307.887 315.11 296 316.767 296 315.6c0-.377.908-1.659 2.017-2.85 1.11-1.19 2.49-3.917 3.066-6.059 3.106-11.537-6.48.35-11.4 14.136-1.44 4.03-4.37 10.49-6.515 14.356-3.617 6.522-3.945 6.84-4.552 4.422-.853-3.398-2.812-3.32-4.359.175-.677 1.53-3.705 5.692-6.73 9.25-3.025 3.558-5.506 7.032-5.513 7.719-.008.688-.464 1.25-1.014 1.25s-1-2.223-1-4.941-.473-5.233-1.052-5.591c-.578-.357-6.54 4.685-13.25 11.207-9.21 8.952-13.272 12.209-16.585 13.296-3.267 1.072-4.714 2.216-5.672 4.484-1.982 4.698-7.669 9.584-12.388 10.644-4.335.975-11.391-.22-12.57-2.126-.997-1.614-4.06-1.098-5.962 1.003-2.514 2.778-3.521 1.667-3.521-3.886 0-2.635-.494-6.209-1.098-7.94-.885-2.541-1.65-3.15-3.952-3.15-1.97 0-3.953-1.132-6.407-3.658-3.376-3.477-3.69-3.59-6.298-2.282-1.51.757-3.082 1.54-3.495 1.741-1.278.623-.814-3.154.756-6.165.822-1.576 1.494-4.584 1.494-6.685 0-5.013 1.388-8.48 4.58-11.438 3.064-2.84 2.456-4.513-1.639-4.513-4.376 0-3.563-1.606 1.809-3.577 2.612-.959 5.2-2.273 5.75-2.92 1.885-2.217 5.371-3.503 9.5-3.503 5.069 0 7.331 1.11 12.6 6.177 3.389 3.26 4.818 3.954 8.245 4.001 7.963.11 14.823-6.87 24.052-24.473 6.873-13.111 8.948-16.28 14.98-22.879 2.817-3.084 5.123-5.828 5.123-6.1 0-.27-.9-.728-2-1.016-2.208-.577-2.76-2.71-.703-2.71.713 0 2.896-1.688 4.85-3.75 2.904-3.066 3.86-5.198 5.238-11.69.927-4.368 2.142-8.49 2.7-9.161.692-.835.65-1.444-.13-1.927-.649-.4-2.935 1.004-5.298 3.257-8.016 7.642-15.91 10.652-21.674 8.264-2.893-1.198-4.056-2.993-1.94-2.993.573 0 3.198-2.016 5.832-4.48 5.254-4.914 9.722-12.522 8.786-14.96-.327-.854-3.423-2.925-6.878-4.601-7.204-3.495-9.108-4.585-13.458-7.709-4.394-3.155-5.325-2.846-5.325 1.764 0 4.138-.337 4.927-5.626 13.184l-3.126 4.88-1.643-4.108c-.904-2.259-3.547-6.634-5.874-9.722l-4.231-5.614v-22.66l-4.81-4.116-4.81-4.117-3.008 2.88c-2.642 2.53-3.756 2.882-9.19 2.901-3.4.012-7.165.575-8.366 1.25-2.694 1.514-7.965 1.606-8.862.154-.365-.59.326-2.127 1.535-3.415l2.2-2.34-2.595-3.818c-1.658-2.44-2.594-5.177-2.594-7.585 0-2.6-.443-3.768-1.429-3.768-2.665 0-8.34-6.43-9.51-10.774-1.052-3.906-1.393-4.226-4.506-4.226-2.93 0-3.296-.273-2.818-2.102.314-1.2 2.18-2.809 4.352-3.75 4.145-1.796 9.137-7.918 10.32-12.656.41-1.645 1.497-3.824 2.414-4.841 1.57-1.743 1.506-1.977-1.134-4.082-2.194-1.75-2.517-2.451-1.494-3.245 2.609-2.025 4.986-2.275 8.333-.877 3 1.254 3.795 1.238 6.527-.124 2.093-1.044 4.392-1.347 7.028-.926 4.225.676 5.375-.942 2.417-3.397-.825-.685-1.5-1.64-1.5-2.122 0-1.594 5.686-.912 8.115.973 1.312 1.018 4.315 2.102 6.673 2.41 5.008.653 8.487 2.702 10.938 6.443 1.408 2.15 1.701 4.474 1.49 11.802-.257 8.847-.168 9.26 2.899 13.494 1.74 2.402 4.563 5.657 6.274 7.234 3.81 3.512 13.705 8.346 19.111 9.336 2.2.403 7.15 2.02 11 3.593 6.461 2.64 7.361 2.768 11.692 1.674 3.942-.996 5.354-.926 8.823.437l4.13 1.622 1.524-3.698c1.976-4.799 4.878-7.894 9.831-10.486 6.873-3.597 21.526-2.608 34 2.295 8.33 3.275 23.626 7.993 25.91 7.993 3.55 0 9.59-2.834 9.59-4.5 0-.698-3.157-3.178-7.015-5.509-5.973-3.61-7.94-4.278-13.25-4.503l-6.235-.265.213-4.362c.425-8.718 5.202-14.861 11.557-14.861 1.303 0 3.348-1.125 4.543-2.5 2.885-3.318 4.271-3.17 3.561.379-.856 4.28 1.049 4.566 4.066.611 1.464-1.92 3.062-3.49 3.55-3.49.49 0 1.029 1.673 1.2 3.719.565 6.773 8.162 8.341 13.07 2.697 2.418-2.78 4.98-10.218 4.043-11.734-.73-1.182-17.787-.276-21.303 1.13-7.46 2.985-18.604 5.327-25.475 5.354-9.098.036-15.276-2.592-19.957-8.488-2.583-3.253-3.032-4.668-3.016-9.5.03-8.724 4.479-14.575 11.948-15.714 4.837-.738 8.742.615 12.038 4.172 3.062 3.303 3.196 6.116.312 6.544-1.182.176-3.05 1.532-4.152 3.013-1.894 2.545-1.912 2.831-.338 5.234 2.939 4.485 6.176 4.377 29.64-.993 4.125-.944 10.425-1.99 14-2.325 3.575-.335 6.424-.834 6.332-1.109-.093-.275-.48-1.745-.863-3.266-1.397-5.566-9.18-8.565-14.641-5.642-1.59.851-1.913 1.734-1.46 4 .339 1.69.155 2.908-.438 2.908-1.62 0-5.93-4.745-5.93-6.528 0-1.002-.667-1.492-1.75-1.286-1.208.23-1.905 1.569-2.25 4.324l-.5 3.99-2.75-2.705c-1.527-1.501-2.75-3.802-2.75-5.173 0-1.403-1.28-3.748-2.965-5.433l-2.965-2.965.61-10.01c.554-9.098.414-10.325-1.535-13.48-2.857-4.623-2.736-8.281.37-11.16 3.353-3.108 6.666-3.64 18.022-2.894l9.55.627 3.207-3.084c4.58-4.407 7.495-4.816 15.963-2.24 3.984 1.212 9.043 2.683 11.243 3.268 2.2.586 5.017 1.682 6.26 2.437 1.747 1.06 2.744 1.113 4.39.232 1.277-.684 4.005-.892 6.812-.52 7.022.932 10.879-.234 15.073-4.555 4.143-4.27 6.379-4.809 7.93-1.91 2.475 4.624-.226 15.85-5.634 23.411-3.109 4.347-3.313 5.018-1.978 6.5 2.858 3.174 5.647 12.104 5.647 18.077 0 5.694.092 5.893 3.476 7.499 4.606 2.185 8.275 7.167 9.105 12.362.66 4.122-.683 5.999-1.943 2.716-.854-2.226-4.303-1.817-6.081.723-2.998 4.28-1.58 18.55 2.374 23.898 2.488 3.365 2.55 3.879.473 3.879-2.9 0-7.15 3.91-8.839 8.128-2.004 5.01-1.376 8.705 2.123 12.48 2.014 2.173 2.329 3.104 1.466 4.33-1.066 1.515-1.664 2.722-6.825 13.766-2.867 6.136-7.044 9.964-11.858 10.868-3.12.585-3.471.98-3.471 3.917 0 4.429-2.194 9.357-6.415 14.409-1.935 2.317-4.517 5.987-5.736 8.157-2.496 4.44-3.831 5.023-3.887 1.695-.02-1.237-1.608-4.05-3.528-6.25l-3.491-4-2.47 3C381.1 245.81 379 251.518 379 258.085c0 7.54 2.174 11.051 7.906 12.769 3.934 1.178 5.647.813 12.344-2.635 1.293-.665.817 7.686-.637 11.164-1.73 4.142-5.865 7.148-11.934 8.676-2.573.648-4.679 1.532-4.679 1.965 0 .433 2.014 4.053 4.475 8.045 5.16 8.368 8.423 16.697 11.532 29.431 2.713 11.113 6.371 17.331 17.608 29.928 6.546 7.338 9.037 9.5 10.435 9.056 2.656-.843 8.977 2.704 20.713 11.623 11.306 8.592 15.834 10.41 23.874 9.587 12.354-1.265 20.483-11.537 19.009-24.021-1.449-12.27-10.35-22.778-29.524-34.854-14.786-9.311-25.207-19.446-30.665-29.819-3.932-7.472-3.947-7.543-3.946-19 0-9.207.361-12.164 1.812-14.83 1.686-3.1 1.703-3.646.244-7.928-3.351-9.834-.782-20.386 7.729-31.742 9.615-12.83 10.191-14.112 10.112-22.5-.047-4.937-.641-8.593-1.74-10.7-2.092-4.014-2.082-4.3.16-4.3 1.873 0 11.143 5.661 11.208 6.844.02.36 1.114 1.974 2.43 3.586 1.99 2.433 2.65 2.718 3.9 1.68.828-.686 1.803-2.605 2.168-4.263.568-2.586 1.006-2.928 3.08-2.408 3.52.884 12.711-2.092 15.443-5 1.821-1.938 2.44-3.907 2.737-8.721.351-5.672.114-6.59-2.705-10.46-1.699-2.332-3.089-4.47-3.089-4.75 0-1.381 7.095-.211 11.69 1.928 4.735 2.204 7.884 5.421 11.87 12.127.782 1.314 2.384 1.803 6.096 1.86 5.935.09 9.97-1.8 11.93-5.588 1.62-3.134 1.909-12.411.414-13.335-2.194-1.356-.967-3.5 2.003-3.5 4.869 0 12.322 7.966 14.47 15.465 1.577 5.508 1.587 6.455.134 12.344-1.828 7.409-6.65 14.563-12.592 18.68-3.993 2.767-4.037 2.866-3.408 7.603.988 7.452-.193 11.436-4.664 15.732l-3.963 3.808 2.536 2.383c4.81 4.52 6.962 12.1 4.526 15.951-.793 1.254-1.498 1.146-4.87-.75-8.9-5.001-18.602-2.06-31.2 9.46-10.697 9.78-13.633 11.784-20.972 14.304-5.377 1.847-7.777 2.128-13.895 1.627l-7.394-.606.618 6.616c.837 8.965 5.576 16.921 12.886 21.633 4.186 2.699 4.785 2.223 4.785-3.8 0-6.989 3.022-13.375 6.358-13.435.473-.008.576 1.111.23 2.487-.868 3.463 2.126 12.212 5.789 16.912 1.678 2.152 7.567 7.255 13.087 11.34s11.986 9.299 14.369 11.587c4.308 4.136 8.167 10.281 8.167 13.006 0 1.482 3.22 2.443 11 3.281 3.945.425 4.963.1 8.25-2.644 3.128-2.61 3.75-3.76 3.75-6.934 0-2.15-.648-4.343-1.489-5.04-.819-.68-1.267-1.596-.996-2.035.844-1.365 6.596 1.385 9.1 4.352 4.347 5.152 2.751 15.262-3.406 21.572-1.159 1.189-.9 1.694 1.713 3.349 3.162 2.001 4.043 3.637 1.828 3.39-1.587-.175-1.893 1.085-1.182 4.872.31 1.656.005 4.356-.68 6l-1.245 2.99-.41-2.5c-.675-4.132-4.091-7-8.336-7-4.511 0-6.897 2.1-6.897 6.071 0 2.602.343 2.929 3.066 2.929 6.02 0 9.572 3.82 8.421 9.059-.773 3.52-1.667 3.727-3 .697-1.677-3.814-3.978-3.203-7.759 2.06-2.764 3.847-4.64 5.311-8.656 6.755-3.95 1.42-4.962 2.198-4.41 3.386.99 2.125.772 6.538-.639 13.008-1.18 5.413-1.035 9.906.432 13.285 1.403 3.235-1.321 1.835-7.785-4-7.803-7.043-11.476-8.25-25.105-8.25-5.757 0-12.77-.494-15.585-1.098-2.815-.603-5.295-.92-5.511-.704-.217.216.222 1.58.974 3.03.753 1.45 1.66 3.963 2.016 5.584.894 4.073 5.676 9.18 8.63 9.22 2.373.031 2.38.056.411 1.587-1.515 1.179-3.636 1.446-8.75 1.102l-6.75-.454v3.867c0 3.724.124 3.866 3.374 3.866 8.264 0 16.482 5.208 19.328 12.25 1.608 3.98 2.564 4.36 6.864 2.725 1.483-.564 6.516-1.127 11.183-1.25l8.487-.225 3.748-4.353 3.748-4.353 1.105 3.169c.904 2.591.752 4.096-.83 8.26-1.064 2.8-3.144 6.354-4.621 7.896l-2.687 2.805 3.65 4.04c2.008 2.223 3.651 4.914 3.651 5.98 0 1.066.45 2.216 1 2.556.55.34 1 1.88 1 3.424s.885 3.932 1.967 5.307c1.082 1.376 1.719 2.75 1.415 3.054-.304.304-2.99.301-5.968-.006-6.013-.62-7.183.81-3.435 4.202 3.874 3.506 7.916 18.519 4.986 18.519-.57 0-2.082-.686-3.36-1.523-2.123-1.392-2.532-1.357-4.702.4-2.053 1.663-2.354 2.719-2.219 7.774.16 5.974 2.27 12.449 5.092 15.623 2.135 2.4.5 3.921-5.006 4.656-3.537.472-4.328.979-4.607 2.951-.613 4.336.896 9.116 3.99 12.64l3.054 3.479h-4.406c-3.368 0-5.415-.741-8.68-3.143-2.821-2.074-5.523-3.179-7.947-3.25-3.439-.1-3.674.085-3.678 2.893-.002 1.65-.368 3.566-.813 4.257-1.572 2.44-7.254 4.687-13.183 5.212l-6 .531.332 3.817c.937 10.76-9.052 17.13-20.823 13.28-5.028-1.644-9.009-1.009-9.009 1.438 0 1.554-1.731 1.108-2.393-.617zm24.05-7.984c2.59-2.59 2.656-3.492.751-10.181-.547-1.92-.005-2.535 3.726-4.228 2.401-1.09 6.242-1.991 8.534-2.003 6-.032 7.184-.758 8.36-5.128.602-2.234 2.103-4.59 3.516-5.515 2.468-1.617 8.744-2.057 12.472-.874 1.77.562 1.984.163 1.988-3.688.004-4.286 2.986-10.817 4.94-10.817.605 0 .745-3.723.372-9.855-.521-8.554-.35-10.28 1.292-13.071 1.168-1.986 2.952-3.43 4.663-3.775 3.655-.735 4.101-1.682 2.365-5.02-1.816-3.49-5.422-6.894-8.515-8.038l-2.377-.88 3.12-3.554c1.733-1.974 4.458-3.821 6.129-4.156 2.645-.529 3.007-1.016 3.007-4.05 0-4.308-3.926-9.218-9.293-11.62l-3.875-1.736 4.584-3.292c2.521-1.81 4.584-3.666 4.584-4.123 0-.456-3.847-.83-8.55-.83-9.402 0-12.198.978-16.887 5.91-1.615 1.7-3.19 3.09-3.5 3.089-.31 0-.57-2.814-.578-6.253-.027-10.844-5.462-16.45-15.545-16.03-2.508.104-5.675.613-7.038 1.131l-2.478.942.002-10.644c0-5.855-.346-12.367-.772-14.472l-.773-3.826 3.792 2.576c2.085 1.418 4.137 2.577 4.56 2.577 5.644 0-16.627-34.724-36.24-56.5-14.968-16.621-20.107-25.434-21.629-37.098-.352-2.696-.976-5.352-1.386-5.902-.41-.55-1.077-2.545-1.482-4.433-1.858-8.68-13.724-26.78-20.108-30.674-1.9-1.16-4.527-3.114-5.836-4.345l-2.382-2.237-1.517 2.345c-.834 1.289-1.82 3.577-2.191 5.085-.37 1.508-2.314 4.565-4.318 6.794l-3.644 4.053-6-3.131c-3.3-1.723-6.759-3.812-7.687-4.642-2.11-1.89-3.384-1.15-4.151 2.414-.552 2.564-4.64 10.003-8.138 14.806-1.373 1.885-1.05 2.691 4.404 11 7.252 11.046 9.54 13.215 19.291 18.284 11.36 5.905 16.39 9.878 21.412 16.916 11.344 15.898 14.8 33.553 12.568 64.217-1.25 17.177-.045 32.162 3.39 42.163 5.795 16.868 6.48 25.987 2.343 31.245-2.536 3.224-1.134 4.071 2.63 1.59 1.616-1.065 4.15-1.94 5.63-1.943 1.48-.004 2.993-.496 3.362-1.094 1.321-2.137 2.55.686 1.5 3.446-.698 1.836-1.984 2.877-4.068 3.294-4.294.859-6.986 4.682-6.986 9.923 0 5.258 1.17 6.146 4.757 3.613 1.509-1.065 4.768-2.858 7.243-3.983 6.561-2.982 10.126-7.14 10.732-12.52l.504-4.466 3.522 2.39c5.835 3.96 11.778 2.893 26.563-4.771 2.86-1.483 12.858-1.132 16.23.57 3.932 1.983 6.72 5.035 9.475 10.373 1.935 3.75 2.156 5.428 1.772 13.5-.398 8.386-.81 9.95-4.562 17.336-2.269 4.464-5.466 9.458-7.104 11.097-2.754 2.754-3.679 3.024-12.228 3.578-10.56.684-15.86-.942-20.071-6.156-2.95-3.654-6.349-5.425-8.871-4.625-2.313.734-4.169 3.788-3.443 5.666.512 1.326 13.274 7.822 15.366 7.822 1.46 0 1.42 1.295-.085 2.8-1.83 1.83-6.255 1.439-11.265-.996-5.264-2.557-9.264-1.806-10.664 2.004-.672 1.826-.332 2.787 1.631 4.606 1.364 1.264 3.166 3.938 4.003 5.942 1.827 4.372 4.96 4.915 6.672 1.156 1.466-3.22 10.089-7.512 15.089-7.512 3.386 0 3.833.268 3.554 2.132-.24 1.593-1.813 2.668-6.224 4.25-9.205 3.302-10.074 7.589-1.827 9.012 2.052.355 5.081 1.759 6.731 3.12 3.897 3.217 7.89 3.188 11.157-.08zM240.454 552.26c.318-.83-.554-3.982-1.938-7.005-3.12-6.815-3.345-11.255-.57-11.255 1.137 0 2.49 1.142 3.257 2.75 1.075 2.254 2.065 2.805 5.488 3.054 7.286.531 13.667-4.75 21.288-17.622C273.44 512.956 281 506.803 281 511.583c0 2.549 2.284 1.084 5.316-3.41 1.549-2.295 3.436-4.173 4.193-4.173.758 0 1.966-.829 2.684-1.841 1.794-2.527 5.128-4.159 8.497-4.159 2.233 0 3.11-.678 4.206-3.25 1.857-4.36 5.275-7.922 13.38-13.944 7.777-5.777 9.21-7.758 7.406-10.227-.97-1.327-1.787-1.49-3.744-.746-2.327.885-2.64.627-4.47-3.69-1.654-3.902-1.968-6.958-1.966-19.143.002-13.805.137-14.782 2.8-20.388 5.211-10.969 16.646-20.705 28.769-24.495 4.29-1.342 15.39-1.476 17.748-.214.928.497 3.26 1.059 5.184 1.25 3.2.317 3.525.105 3.823-2.504.321-2.805.263-2.84-3.66-2.177-4.502.76-8.212-.726-12.039-4.822-2.216-2.373-2.326-3.032-1.671-10.023.584-6.238.382-8.202-1.215-11.805-3.053-6.886-4.048-7.323-16.645-7.312-12.14.01-19.144 1.817-29.096 7.503-13.483 7.702-19.649 16.49-35.936 51.212-2.449 5.22-5.745 8.963-8.864 10.066-.864.305-.694 1.304.607 3.567l1.806 3.142h-4.188c-3.508 0-4.737.58-7.557 3.571-1.852 1.964-3.368 4.232-3.368 5.04 0 .808-.9 3.233-2 5.389-2.827 5.542-2.626 6.208 1.637 5.408l3.637-.682-.68 3.626-.68 3.626 5.793-.584c6.205-.625 11.293.685 11.293 2.907 0 .743-1.169 2.441-2.597 3.775-4.78 4.462-6.866 9.951-9.468 24.924-1.817 10.454-6.604 18.192-13.331 21.548-3.8 1.895-10.965 1.825-16.604-.163-3.5-1.235-6.545-1.44-13.709-.929-10.701.765-12.221.22-15.467-5.555-3.037-5.405-6.876-7.462-10.603-5.684-3.559 1.698-4.325 6.298-1.213 7.285 1.168.371 3.605 1.976 5.416 3.566 1.812 1.59 5.044 3.463 7.185 4.162 2.877.94 3.979 1.893 4.228 3.656.325 2.296.148 2.367-4.726 1.899-4.205-.404-5.828-1.191-9.565-4.636-2.476-2.282-4.849-4.139-5.274-4.127-.424.012-1.805.817-3.068 1.789-1.97 1.516-2.203 2.344-1.644 5.84 1.037 6.485 1.715 7.065 5.915 5.062 4.398-2.097 5.817-2.13 9.502-.225 1.583.819 5.23 1.672 8.103 1.897 5.373.42 7.664 2.234 6.535 5.176-.84 2.188-8.242 1.785-14.445-.786-5.135-2.128-5.425-2.147-6.683-.426-1.11 1.517-.997 2.564.723 6.703 2.615 6.29 5.88 7.184 14.47 3.959 3.2-1.202 7.727-2.217 10.059-2.257 3.276-.054 4.581-.594 5.75-2.377.83-1.269 1.511-2.982 1.511-3.807 0-1.486 2.88-3.57 4.934-3.57 1.794 0 1.172 6.32-.934 9.5-2.142 3.235-2.572 6.528-1.05 8.05.523.523 3.87 1.01 7.438 1.084 4.949.103 6.624-.223 7.066-1.374zm260.282-150.558c.371-4.629.092-7.34-.976-9.48l-1.496-3 4.643-.615c4.902-.65 12.55-5.057 11.56-6.66-.322-.521-1.693-.947-3.046-.947h-2.462l2.02-3.96c1.112-2.178 2.021-5.718 2.021-7.865 0-4.814 2.791-8.621 7.448-10.158 2.553-.842 3.578-1.861 4.054-4.027.35-1.595 1.494-3.171 2.541-3.504 2.028-.643 6.298-5.478 5.524-6.253-.254-.253-2.173.6-4.264 1.897-3.917 2.43-3.349 2.384-20.48 1.625-3.36-.149-3.733-.462-4.327-3.627-.925-4.934-6.528-13.072-11.633-16.898-14.065-10.54-19.619-15.011-21.704-17.472-2.322-2.74-4.79-2.844-3.759-.157.935 2.437-4.642 1.618-11.157-1.637-7.205-3.6-12.493-9.132-16.104-16.844-2.152-4.595-2.637-7.102-2.663-13.75-.034-9.176-1.566-12.709-4.317-9.958-2.298 2.299-2.135 15.674.28 22.775 4.186 12.316 11.882 20.183 33.426 34.167 19.994 12.978 28.888 24.542 29.92 38.9.614 8.559-1.498 14.629-7.161 20.579-6.338 6.658-10.65 8.465-20.206 8.466-9.288.001-16.352-2.6-23.038-8.484-7.25-6.38-12.342-9.957-13.316-9.354-1.267.782 11.889 19.423 15.59 22.09 5.653 4.074 11.218 5.277 26.346 5.696 12.408.344 15.103.714 18.682 2.563 2.3 1.189 4.489 2.657 4.863 3.263 1.342 2.172 2.671-.898 3.19-7.37zm-127.2-11.381c2.636-2.636.522-13.355-4.803-24.355-4.55-9.4-9.155-14.69-11.265-12.94-2.244 1.863-1.79 4.479 2.032 11.68 1.925 3.627 3.5 7.283 3.5 8.124 0 .84.547 3.04 1.215 4.89.954 2.637.954 3.78 0 5.307-1.756 2.812-1.492 6.712.535 7.893 2.677 1.56 6.917 1.27 8.786-.6zm-159.573-11.197c2.767-2.005 5.853-6.79 5.964-9.246.049-1.089 1.34-1.825 3.928-2.239 4.585-.733 11.622-6.094 18.488-14.085 6.263-7.289 16.439-15.743 18.477-15.35.876.168 1.857 1.43 2.181 2.801.324 1.372 1.019 2.487 1.544 2.478 1.443-.026 7.37-10.436 8.532-14.983 1.85-7.243 1.868-7.26 4.288-4.25 1.215 1.512 2.67 2.75 3.23 2.75 1.21 0 3.936-6.071 4.938-11 1.03-5.074 3.718-9.935 9.419-17.038l5.026-6.262-2.15-3.6c-1.181-1.98-2.448-3.95-2.814-4.376-.366-.427-2.133 1.374-3.926 4.001-4.449 6.52-10.324 10.605-15.39 10.7-3.81.072-4.06-.117-5.383-4.035-.764-2.26-2.482-5.138-3.82-6.394l-2.43-2.283-3.521 2.686c-7.831 5.973-12.93 12.72-20.1 26.601-9.744 18.858-16.987 26.39-27.256 28.345-4.364.83-9.352-1.32-14.877-6.413-3.886-3.581-4.869-4.008-8.599-3.738-3.652.265-4.25.639-4.505 2.81-.234 2.005.758 3.303 4.966 6.5 7.266 5.521 8.93 6.42 11.97 6.46 2.593.035 4.419 2.318 3.301 4.126-.309.5-2.673.905-5.253.9-3.995-.01-5.578-.677-10.671-4.5-6.657-4.997-8.594-5.416-11.52-2.49-2.592 2.592-2.522 3.59.5 7.182 1.375 1.634 2.5 3.805 2.5 4.823 0 1.019.707 2.56 1.571 3.424 1.718 1.717 6.962 2.135 7.893.629.32-.518 2.71-1.222 5.31-1.563 2.599-.34 6.903-1.289 9.564-2.107 5.04-1.548 7.662-.8 7.662 2.188 0 1.965-8.61 5.424-13.505 5.424-7.41 0-8.676 4.644-2.024 7.423 1.956.818 3.838 2.22 4.182 3.116 1.418 3.695 7.613 3.99 12.31.585zm101.21-74.868c4.547-3.75 5.63-5.12 7.721-9.756 3.962-8.786 3.145-16.692-2.5-24.189-3.059-4.06-1.648-5.062 4.06-2.882 5.304 2.026 6.765 3.603 10.525 11.365 3.256 6.722 6.3 9.327 11.164 9.556 3.004.141 3.327-.197 5.584-5.85 2.391-5.99 2.744-14.202.805-18.75-1.155-2.71 1.248-2.127 4.126 1 1.391 1.512 3.95 4.974 5.686 7.693 4.193 6.567 10.055 9.766 18.156 9.907 4.302.076 6.778-.416 8.75-1.737 3.777-2.531 3.447-3.613-1.102-3.613-4.583 0-9.627-3.104-12.874-7.922-4.374-6.49-2.597-20.537 3.833-30.307 2.161-3.284 9.974-9.771 11.768-9.771.527 0 1.596 1.912 2.375 4.25.778 2.337 2.078 4.379 2.888 4.536.81.157 3.001-1.844 4.877-4.457 2.958-4.118 3.41-5.538 3.444-10.786.02-3.323-.367-6.882-.862-7.908-.793-1.645-.615-1.765 1.502-1.018 7.745 2.735 12.866-.677 18.453-12.292l3.477-7.229-2.01-3.298c-2.436-3.994-2.71-12.56-.539-16.76.814-1.573 2.674-3.8 4.132-4.948l2.653-2.086-1.633-5.818c-2.976-10.608-1.99-19.674 2.643-24.308 3.534-3.533 2.845-4.784-3.068-5.577l-4.035-.541.518-7.13c.417-5.742.101-8.231-1.624-12.789-3.024-7.99-4.119-8.668-9.584-5.94-6.12 3.057-9.89 3.229-10.285.468-.25-1.741.846-2.671 6-5.094 7.613-3.58 14.37-10.098 15.956-15.392.642-2.143.948-4.115.68-4.383-.267-.267-2.421.449-4.786 1.592-3.127 1.51-5.836 2.001-9.924 1.798-6.786-.338-9.814.562-10.64 3.161-.85 2.683-1.696 2.44-3.687-1.058-1.89-3.323-2.708-3.738-14.608-7.42-10.188-3.154-10.293-3.154-13.163-.1-2.55 2.714-2.356 2.904 4.05 3.962 3.85.635 6.82 3.368 11.305 10.403 1.52 2.386 4.08 5.086 5.686 6 1.607.914 2.924 2.224 2.928 2.912.01 1.9-4.18 1.451-6.994-.75-3.155-2.468-4.183-2.469-8.226-.004-3.958 2.413-5.51 2.481-9.637.422-3.156-1.574-6.137-5.894-6.137-8.893 0-.866-1.14-2.008-2.531-2.537-2.403-.914-2.453-1.083-.982-3.328l1.55-2.365L351.992 83c-6.8-.975-9.657-1.017-11.518-.17-3.09 1.409-3.087 2.24.026 7.171 2.724 4.316 3.11 8.644 1.42 15.973-1.282 5.567-.12 6.662 7.942 7.49 14.687 1.507 28.181 4.411 34.328 7.387 6.973 3.376 9.24 8.297 9.279 20.15.029 8.814-.193 9.895-3.073 14.973-2.161 3.81-4.441 6.242-7.5 8-3.946 2.268-5.471 2.525-14.896 2.506-8.709-.018-12.002-.5-19.307-2.828-8.252-2.63-8.96-2.706-11.25-1.206-4.028 2.64-3.134 4.918 2.453 6.245 2.693.64 8.62 3.326 13.17 5.97 7.272 4.225 8.968 4.807 14.021 4.807 5 0 6.28-.427 9.83-3.28l4.083-3.281v3.373c0 5.479-3.63 8.078-11.94 8.548-6.164.348-7.052.671-8.969 3.263-5.603 7.579-14.596 8.106-32.591 1.911-23.488-8.086-30.998-9.347-38.128-6.401-7.266 3.001-10.302 7.411-11.29 16.4l-.606 5.5-1.944-3.234c-2.069-3.441-6.856-6.266-10.617-6.266-2.321 0-8.998 2.95-12.148 5.366-1.628 1.249-1.582 1.643.75 6.477 1.366 2.83 2.483 5.534 2.483 6.006 0 .472 1.113 2.06 2.474 3.528l2.474 2.67 5.276-2.91c2.902-1.6 7.976-3.73 11.276-4.736 7.219-2.198 13.261-5.454 16.476-8.876 2.412-2.566 8.024-3.566 8.024-1.43 0 4.499-9.383 11.195-21.56 15.387-4.367 1.503-8.84 3.19-9.94 3.75-5.416 2.757-9.39 9.037-10.938 17.289-.408 2.174-2.06 6.612-3.673 9.861-1.612 3.25-2.689 6.152-2.392 6.448.297.297 2.238-1.118 4.314-3.145 3.345-3.266 4.35-3.685 8.846-3.685 3.634 0 5.828.594 7.733 2.092l2.66 2.092-4.041 3.658c-3.503 3.17-4.164 4.457-4.96 9.658-.504 3.3-1.06 6.9-1.233 8-.188 1.188.191 1.899.934 1.75.832-.166 1.25 1.076 1.25 3.715 0 2.913.751 4.837 2.831 7.25 1.557 1.807 3.118 4.073 3.469 5.035 2.516 6.908 15.165-8.55 17.186-21 .38-2.337 1.213-4.243 1.852-4.235 2.83.038 4.04 2.15 4.788 8.365.76 6.321 1.514 8.243 6.054 15.45 1.402 2.226 2.263 5.629 2.594 10.25.575 8.035 1.849 8.754 7.4 4.176zM464 265.938c3.428-1.49 9.197-5.7 15.311-11.175 13.068-11.701 15.987-13.16 26.439-13.218 4.537-.025 8.25-.36 8.25-.744 0-.385-1.652-1.96-3.671-3.5-3.278-2.5-4.488-2.801-11.275-2.801-8.05 0-12.236 1.328-21.165 6.717-5.126 3.094-7.112 3.424-8.748 1.453-2.501-3.014 12.746-12.222 22.14-13.371 5.444-.666 9.719-4.614 9.719-8.975 0-2.84-5.206-8.324-7.902-8.324-2.1 0-15.743 8.892-19.01 12.391-1.848 1.978-2.727 2.324-3.75 1.474-.736-.61-1.338-1.897-1.338-2.86 0-2.087 7.398-9.133 12.136-11.557 5.825-2.981 10.63-7.342 13.473-12.227 2.261-3.886 2.76-5.972 2.82-11.795.063-6.267-.249-7.495-2.73-10.75-1.54-2.022-3.115-3.676-3.5-3.676-.384 0-.73 2.86-.77 6.357-.125 11.18-6.634 18.504-18.101 20.365-2.31.375-4.35 1.819-6.813 4.825-3.094 3.776-3.524 4.988-3.591 10.121-.079 6.017-1.827 12.466-3.533 13.035-.535.178-1.755-.249-2.713-.95-1.487-1.087-1.575-1.751-.599-4.55 1.653-4.742.788-16.765-1.362-18.914-1.623-1.623-1.717-1.59-1.717.593 0 4.927-3.265 12.916-8.017 19.618-11.03 15.557-12.908 20.71-10.965 30.082 1.18 5.693 5.867 11.094 11.982 13.81 4.693 2.085 12.175 1.512 19-1.454zm-244.315-35.244c-.28-2.307-.823-5.418-1.207-6.915-.585-2.271-.291-2.907 1.774-3.848 2.175-.991 3.033-.7 7.106 2.408 7.256 5.54 20.837 12.863 24.142 13.02 2.491.117 3.057-.283 3.335-2.359.184-1.375.746-2.927 1.25-3.45 1.655-1.718.96-4.352-1.909-7.223-1.553-1.555-3.655-5.077-4.672-7.827s-3.121-6.935-4.677-9.3c-1.555-2.365-2.827-4.491-2.827-4.724 0-.234 1.35-1.123 3-1.976 5.29-2.736 3.71-4.072-8.5-7.186-12.148-3.097-22.183-9.776-28.707-19.105-3.161-4.52-3.295-5.097-3.345-14.412-.043-7.994-.379-10.063-1.905-11.75-1.971-2.177-6.458-2.732-8.18-1.01-1.207 1.207.54 12.044 2.545 15.792 1.566 2.925.76 5.171-1.854 5.171-2.85 0-5.086-3.965-5.99-10.625-.626-4.617-1.342-6.187-3.671-8.05-3.737-2.99-6.87-2.942-9.558.15-1.183 1.36-3.616 2.958-5.405 3.548-3.398 1.122-5.288 3.773-3.163 4.439.678.212 2.893.896 4.921 1.52 2.336.717 6.002 3.511 10 7.624 7.162 7.365 7.47 7.896 5.765 9.95-1.09 1.314-1.542 1.296-3.844-.154-1.435-.904-4.886-4.064-7.669-7.022-4.544-4.831-5.483-5.38-9.215-5.38-3.183 0-4.415.486-5.267 2.078-.612 1.143-.863 2.726-.56 3.518.304.792-.22 3.06-1.164 5.039l-1.716 3.6 3.453 2.882c3.976 3.32 5.165 3.495 8.564 1.268 2.276-1.49 2.662-1.486 5.024.062l2.56 1.676-4.218 3.742c-3.628 3.22-4.12 4.124-3.53 6.48.971 3.867 8.972 8.833 13.609 8.446 3.006-.251 3.998-1.075 7.278-6.041 3.694-5.594 5.67-6.715 8.584-4.869 1.123.712 1.123 1.214 0 3.075-1.256 2.082-.956 2.573 4.658 7.632l6 5.407-.29 11.563-.292 11.563 3.663 4.989c3.583 4.881 3.693 4.943 5.137 2.883.981-1.402 1.305-3.508.967-6.3zm294.029-7.572c2.988-3.539 3.056-10.232.144-14.321-1.765-2.479-1.897-3.163-.75-3.89.766-.484 1.918-.887 2.561-.896 2.04-.026 12.368-10.167 14.389-14.128 3.53-6.921 2.085-21.887-2.115-21.887-.519 0-.943 1.733-.943 3.852 0 8.03-8.446 15.022-18.25 15.107-2.612.022-4.75.183-4.75.357 0 3.558-2.76 12.904-4.61 15.61l-2.445 3.574 3.997 3.5c4.655 4.076 6.439 8.157 5.576 12.757-.338 1.802-.34 3.72-.006 4.263.83 1.343 4.412-.595 7.202-3.898zm-129.3-68.245c1.988-3.366 2.024-6.268.099-7.866-2.008-1.667-4.513-.553-4.513 2.006 0 1.144-.889 3.92-1.975 6.167-1.086 2.249-1.751 4.45-1.478 4.893.79 1.277 6.123-2.25 7.867-5.2zM322 143.655c0-.74-.853-2.117-1.895-3.06-3.717-3.364-3.031-10.922 1.318-14.531 2.139-1.775 1.053-3.064-2.58-3.064-3.879 0-8.843 5.026-8.843 8.952 0 4.328 2.844 8.915 6.832 11.022 4.419 2.334 5.168 2.433 5.168.681zm64.422-12.174c-1.057-1.967-2.934-4.24-4.172-5.051-2.123-1.393-2.25-1.338-2.25.982 0 3.96 1.8 7.576 4.235 8.51 3.502 1.343 4.36-.4 2.187-4.441zm-8.033-37.053c1.74-4.534-4.44-7.24-7.872-3.447-1.467 1.622-1.564 2.257-.533 3.5 1.688 2.034 7.62 1.996 8.405-.053z"/>
</svg>
