<svg xmlns="http://www.w3.org/2000/svg" version="1" viewBox="0 0 600 400">
<g fill-rule="evenodd">
<path fill="#193783" d="M600 400H0V0h600v400z"/>
<path d="M600 111.301s-15.79-8.36-84.522-8.36-124.457 21.363-217.336 21.363c-92.88 0-138.39-20.434-220.124-20.434C28.784 103.87 0 112.23 0 112.23V49.074s28.784-8.359 78.018-8.359c81.734 0 127.245 20.432 220.124 20.432 92.88 0 148.604-21.361 217.336-21.361 68.731 0 84.522 8.358 84.522 8.358v63.158zm0 117.956s-15.79-8.36-84.522-8.36S391.02 242.26 298.142 242.26c-92.88 0-138.39-20.434-220.124-20.434-49.234 0-78.018 8.36-78.018 8.36V167.03s28.784-8.36 78.018-8.36c81.734 0 127.245 20.434 220.124 20.434 92.88 0 148.604-21.364 217.336-21.364 68.731 0 84.522 8.36 84.522 8.36v63.157zm0 117.955s-15.79-8.357-84.522-8.357-124.457 21.36-217.336 21.36c-92.88 0-138.39-20.43-220.124-20.43C28.784 339.785 0 348.14 0 348.14v-63.156s28.784-8.36 78.018-8.36c81.734 0 127.245 20.434 220.124 20.434 92.88 0 148.604-21.363 217.336-21.363 68.731 0 84.522 8.36 84.522 8.36v63.156z" fill="#fff"/>
</g>
<path d="M224.53 146.807h149.033s1.852 89.329 1.852 115.248c0 25.918-19.903 74.98-74.054 74.98s-76.367-46.284-76.367-73.592c0-27.307-.463-116.636-.463-116.636z" fill="#fff" fill-rule="evenodd"/>
<path d="M375.708 252.379c-.303-33.455-1.797-105.528-1.797-105.528H224.876s.367 70.692.448 105.524c0 0 34.728-6.014 42.134-3.236 7.405 2.777 30.085 9.72 42.118 7.405 12.034-2.314 29.622-9.72 41.656-9.72 12.034 0 24.476 5.555 24.476 5.555z" fill="#fff500" fill-rule="evenodd" stroke="#1f1a17" stroke-width=".924"/>
<path d="M285.507 165.365c-.926 1.851-1.852 4.628 0 6.016 1.851 1.39 2.314 2.778 4.165 2.778h6.943c3.24 0 4.628-1.389 6.48.463 1.85 1.851 4.628 2.314 4.628 2.314s-6.48-1.389-9.256-.463c-2.777.926-4.63 2.314-9.258 2.777-4.628.463-10.645-2.314-11.108-6.48-.463-4.165.463-5.554 2.314-6.942 1.851-1.39 5.092-.463 5.092-.463zm-25.918-12.96s2.314 0 3.24 1.851c.926 1.852 1.388 6.018 1.388 6.018l-4.165-1.852s.987-2.075.463-3.703c-.402-1.247-.926-2.314-.926-2.314zm-14.348 5.091s3.45-1.312 4.839-.85c1.388.464 3.492 3.165 3.492 3.165l-2.777.926s-.814-1.302-2.309-2.098c-1.224-.654-3.245-1.143-3.245-1.143zm-6.942 15.737s1.388-4.165 3.24-5.091c1.85-.926 6.016-1.852 6.016-1.852l-.462 4.166s-1.01-.127-3.787.336c-2.776.463-5.007 2.44-5.007 2.44zm5.506 13.498s-.878-5.63.048-7.481c.925-1.851 2.314-3.24 2.314-3.24l2.777 3.703s-.756.442-2.45 2.137c-1.636 1.636-2.69 4.881-2.69 4.881zm12.339 28.356h4.166s-.807-5.113-2.658-6.038c-1.851-.926-5.674-1.367-5.674-1.367s1.695 2.007 3.084 3.858c1.388 1.852 1.082 3.547 1.082 3.547zm-3.96 2.579l-2.778 2.777s-1.388-.926-3.24-1.852c-1.85-.925-5.554-.462-5.554-.462s5.092-3.703 7.406-3.24c2.314.462 4.166 2.777 4.166 2.777zm-10.886 16.297s0-3.703 1.388-4.629c1.389-.926 3.703-.926 3.703-.926l1.388 2.777s-.862-.249-3.176.676c-2.314.926-3.303 2.102-3.303 2.102zm13.464-2.102s.334 2.268.797 4.582-1.061 4.827-1.061 4.827 4.15-1.677 4.15-3.529c0-1.851-.448-4.802-.448-4.802l-3.438-1.078z" fill="#193783" fill-rule="evenodd" stroke="#1f1a17" stroke-width=".924"/>
<path d="M353.084 241.733s0-4.166.926-5.554 2.777-1.388 3.703-3.703c.926-2.314.463-9.72-.926-11.57-1.388-1.852-2.777-3.703-1.388-5.092 1.388-1.388 3.703-1.388 3.703-1.388s2.313-3.703-.926-4.629c-3.24-.925-6.943 1.39-6.943 1.39s-.925-.464-1.851-2.778c-.926-2.314-3.24-6.48-4.629-9.72-1.388-3.24-3.24-10.645-1.851-13.422 1.388-2.777 4.166-6.48 5.554-5.554 1.389.925.926 3.24.463 6.017s-.463 8.331.926 9.72c1.388 1.388 6.016.925 6.48 3.24.462 2.313 1.85 4.628 1.85 7.867 0 3.24 2.315 6.017 4.166 6.017 1.852 0 0-3.702.926-6.48.633-1.898.832-3.583.452-5.195a7.793 7.793 0 0 0-.915-2.21c-1.389-2.314-2.314-5.09-2.314-5.09s3.703 10.182 5.091 10.644c1.389.463 2.777 2.314 2.777 5.554s3.703.926 2.777-2.314l-.926-3.24s-.463-2.777-2.776-5.554c-2.315-2.777-5.092-6.48-5.092-10.182 0-3.703-3.702-8.794-6.017-11.108-2.314-2.315-6.48-4.166-9.72-2.315-3.24 1.852-8.33 6.943-8.33 11.109 0 4.165 1.388 12.033 3.24 15.736 1.85 3.703 4.628 8.794 4.628 8.794s-2.777-1.851-5.091.926c-2.315 2.777-4.166 8.794-4.166 8.794l.926 3.24s1.851-3.703 3.703-4.629c1.85-.925 3.24 2.314 3.24 2.314v6.48c0 2.777 0 4.628 1.85 6.017 1.852 1.389 1.852 1.852 1.39 4.628-.464 2.777-2.315 6.943 0 6.943 2.314 0 5.09-3.703 5.09-3.703z" fill="#d93141" fill-rule="evenodd" stroke="#1f1a17" stroke-width=".924"/>
<path fill="#fff500" fill-rule="evenodd" stroke="#1f1a17" stroke-width=".924" d="M370.376 134.825H230.758l-7.63-10.671h155.498l-8.25 10.67zm-147.248-14.17H378.17s3.2-2.744 6.4-4.116c3.204-1.372 10.522-9.604 10.522-9.604s3.66-7.319 5.945-10.063c2.286-2.743 6.86-5.945 8.69-6.86 1.83-.915 3.659-.457 3.659-.457s-3.66-1.372-5.945-1.828c-2.289-.46-5.489-1.374-7.778 0-2.285 1.37-7.315 5.944-7.315 5.944s2.286-3.659-.459-5.488c-2.745-1.83-5.485-4.573-9.604-.915-4.115 3.659-4.574 7.318-6.404 8.689-1.83 1.374-2.285 4.119-.914 4.574 1.374.46-2.745 2.289-.915 5.489 1.83 3.2 7.318 3.66 7.318 3.66s-1.37.914-4.115 1.829c-2.744.915-1.374 3.658-2.744 5.03-1.374 1.372-5.03 1.372-6.404.457-1.37-.915-2.285-4.117-1.83-5.946.46-1.83-.455-5.945-1.83-3.658-1.37 2.287-1.37 4.574-4.114 6.861-2.745 2.286-5.034 3.2-8.234 1.828s-3.2-8.689-1.37-10.518c1.83-1.83.915-6.861.915-8.232 0-1.374 1.83-1.372 3.66 2.285 1.829 3.66 4.57 4.574 6.859 3.202 2.285-1.372 3.438-3.96 5.268-4.874 1.83-.915 1.233-2.834 1.233-7.406 0-4.572-.557-9.215-2.842-8.3-2.29.915-3.204 1.37-2.29-2.744.916-4.115-2.136-7.493-3.507-9.32-1.374-1.829-2.672-5.075-6.79-3.703-4.115 1.372-9.825 1.589-10.74 3.419-.914 1.83.46 8.688.46 8.688s-1.83-3.658-5.034-3.2c-3.2.456-3.2 2.745-5.03 5.945s-5.489 4.574-5.489 4.574 2.29-.457 3.204 3.2c.915 3.66 1.371 8.234 3.2 9.149 1.83.914 4.575 1.83 6.86.914 2.289-.914 3.203.458 1.374 1.83-1.83 1.37-5.489 1.828-5.489 1.828s2.744 1.832 2.744 4.117-.914 8.232-5.489 8.232c-4.574 0-7.774-5.03-7.774-7.317s-2.289-7.319-2.289-7.319-.915 3.204-2.285 5.947c-1.374 2.742-4.574 7.318-8.233 8.23-3.66.916-11.434-2.284-9.605-6.858 1.83-4.574 3.66-7.774 3.66-9.148 0-1.371-2.285-5.488-2.285-5.488s2.285 3.658 6.859 3.202c4.574-.459 5.03-2.288 6.86-5.49 1.83-3.199 3.659-5.029 3.659-5.029s-1.83-1.372-3.2-4.574c-1.374-3.202-3.204-7.774-6.404-7.319-3.204.46-6.404 3.203-6.404 3.203s3.66-4.117 3.2-6.862c-.455-2.743-1.37-4.572-4.115-5.03-2.744-.457-5.489 0-6.403-1.372-.915-1.372-1.37-1.372-2.744.458-1.372 1.83-2.743 1.83-5.03 2.744-2.287.915-3.202 4.574-2.745 6.404l.915 3.658s-1.371-4.573-4.573-4.573c-3.202 0-4.574 2.286-5.488 5.487-.915 3.202-2.745 4.573-3.66 5.947-.914 1.37.915 1.83 2.745 3.66 1.83 1.827.916 5.029 2.287 7.316s4.572 4.116 6.86 3.202c2.287-.915 4.574-4.575 4.574-4.575s-2.287 2.745-1.83 5.945c.457 3.202 3.659 2.744 3.659 5.49 0 2.744.458 4.573-1.83 6.859-2.286 2.288-2.743 5.031-5.488 5.031a8.986 8.986 0 0 1-7.775-4.572c-1.83-3.204-1.83-5.49-2.287-7.319-.457-1.83-3.658-3.66-3.658-.915s.457 6.404-.915 8.69c-1.372 2.287-6.403 3.659-7.775 1.829-1.372-1.83-3.2-5.03-2.744-7.317.456-2.287 2.743-5.487 1.372-6.86-1.372-1.372-5.946-5.488-5.946-5.488s3.201 1.828 6.403 1.828c3.202 0 5.488-2.744 5.945-5.945.458-3.2 2.288-6.404 2.288-6.404s-.001-1.37-1.83-4.115c-1.83-2.744-4.116-6.404-5.946-5.944-1.83.456-5.488 4.114-5.488 4.114s2.745-5.03.915-8.233c-1.83-3.2-5.947-1.827-9.147-2.743-3.202-.914-5.032-1.828-6.403.916-1.372 2.742-5.031.912-5.488 4.116-.458 3.2 5.03 8.232 5.03 8.232s-1.372-3.202-5.03-1.372c-3.659 1.83-4.574 3.201-5.488 8.233-.915 5.03-.457 4.574 2.744 6.402 3.201 1.828 3.66 5.947 5.946 6.861 2.286.915 3.66 1.37 5.945 0 2.287-1.374 3.201-3.204 3.201-3.204s0 2.287-1.372 4.574c-1.371 2.288-1.83 2.745.458 4.118 2.286 1.372 3.2 1.827 1.371 4.572-1.829 2.744-3.659 3.659-7.317 3.203-3.659-.459-5.49-2.746-6.86-4.574-1.372-1.83-.457-.914-1.83 2.286-1.372 3.202-3.659 6.403-7.774 4.574-4.116-1.83-3.659-4.115-4.116-5.489-.458-1.37-3.66-2.285-3.66-2.285s.459-1.373 3.202-3.202c2.744-1.83 2.745-4.573.458-10.52-2.287-5.946-1.829-8.69-6.403-9.146-4.574-.459-7.318 3.658-7.318 3.658s.914-2.743-5.032-4.117c-5.945-1.37-6.869-2.833-11.334-.81-5.327 2.412-6.427 4.676-6.427 4.676s5.06 1.258 9.343 2.863c4.936 1.852 12.992 10.193 13.45 13.396.458 3.202 1.372 3.66 5.488 6.861 4.116 3.2 8.233 8.231 8.233 8.231z"/>
<path d="M210.32 101.446a3.659 3.659 0 1 1-7.316.001 3.659 3.659 0 0 1 7.317-.001zm46.194-13.263a3.659 3.659 0 1 1-7.318 0 3.659 3.659 0 0 1 7.318 0z" fill="#d93141" fill-rule="evenodd" stroke="#1f1a17" stroke-width=".924"/>
<path d="M238.22 106.935a3.659 3.659 0 1 1-7.318 0 3.659 3.659 0 0 1 7.318 0z" fill="#fff" fill-rule="evenodd" stroke="#1f1a17" stroke-width=".924"/>
<path d="M237.762 128.887a3.659 3.659 0 1 1-7.317.001 3.659 3.659 0 0 1 7.317 0zm43.446 0a3.659 3.659 0 1 1-7.317.001 3.659 3.659 0 0 1 7.317 0zm43.448 0a3.658 3.658 0 0 1-7.315 0 3.658 3.658 0 1 1 7.315 0zm43.454 0a3.66 3.66 0 1 1-7.32 0 3.66 3.66 0 0 1 7.32 0z" fill="#009261" fill-rule="evenodd" stroke="#1f1a17" stroke-width=".924"/>
<path d="M278.464 102.818a3.658 3.658 0 1 1-7.316-.002 3.658 3.658 0 0 1 7.316.002zm48.936-2.287zm42.535 6.407a3.66 3.66 0 1 1-7.318 0 3.66 3.66 0 0 1 7.318 0z" fill="#fff" fill-rule="evenodd" stroke="#1f1a17" stroke-width=".924"/>
<path d="M302.704 84.982a3.659 3.659 0 1 1-7.317-.001 3.659 3.659 0 0 1 7.317.001zm49.856 4.573a3.658 3.658 0 0 1-3.66 3.657 3.658 3.658 0 1 1 3.66-3.657zm46.648 14.635a3.66 3.66 0 1 1-7.318 0 3.66 3.66 0 0 1 7.318 0z" fill="#d93141" fill-rule="evenodd" stroke="#1f1a17" stroke-width=".924"/>
<path fill="#fff500" fill-rule="evenodd" stroke="#1f1a17" stroke-width=".924" d="M378.626 124.313H223.128v-3.658h155.498v3.658z"/>
<path fill="#d93141" fill-rule="evenodd" stroke="#1f1a17" stroke-width=".924" d="M244.36 129.162l10.469-4.003 11.082 4.003-11.39 3.694-10.16-3.694zm44.642 0l10.47-4.003 11.083 4.003-11.393 3.694-10.16-3.694zm44.644 0l10.464-4.003 11.084 4.003-11.388 3.694-10.16-3.694zm-26.555 77.085s-2.607 3.088-5.847 4.013c-3.239.926-5.09 2.777-7.405 1.852-2.315-.926-7.869-1.389-9.257-1.389-1.389 0-3.703-.463-3.24-1.851.463-1.389 3.24-4.166 3.24-4.166s-5.554 4.629-7.406 6.017c-1.851 1.389-4.165 2.777-6.942 2.314-2.777-.463-4.629-2.777-4.629-2.777s3.703-.463 6.018-2.314c2.313-1.851 3.702-5.091 3.702-5.091s.926-4.629.926-6.943 0-3.24.925-4.628c.926-1.389 3.24-1.389 4.629-1.389 1.388 0 2.314-2.314 2.777-3.702.463-1.389 1.851-1.852 2.777 0 .926 1.85 2.777 1.85 5.554 2.776 2.778.926 3.24 1.852 5.555 1.852 2.314 0 5.553-3.703 6.479-5.091.926-1.389-2.314-.926-4.165-.463s-4.628-1.851-4.628-3.24c0-1.389 1.851-1.852 3.702-1.852 1.85 0 4.165.926 6.017.463 1.851-.463 1.388-2.314 1.851-3.702.463-1.389.926-5.092-.926-5.555-1.851-.462-4.628-.925-6.016-.462-1.388.462-3.703 1.388-3.703 0s.463-6.017.463-7.406c0-1.388 1.389-.926 3.24-1.388 1.85-.463 4.165-2.314 6.48-2.777 2.313-.463 6.016-1.852 7.868-1.852 1.851 0 4.628.463 6.48 0 1.85-.462 5.09-1.851 6.942-2.777 1.851-.925 3.703-1.85 4.628 0 .926 1.852.926 4.629-.462 5.555-1.39.925-4.166 2.776-4.166 2.776l-2.315.463s4.63-.926 4.63.463-.464 5.092.925 6.943c1.388 1.851 5.09 1.851 5.09 3.703 0 1.851-2.314 5.09-4.164 5.09-1.852 0-5.092-2.776-5.092-2.776s4.166 2.314 4.166 4.628.926 4.629 0 6.017c-.926 1.388-4.166 2.777-2.777 4.628 1.388 1.852 1.388 4.166 3.24 3.703 1.851-.462-1.852 2.777-4.166 2.314-2.314-.463-4.628-4.628-4.628-4.628s.925 2.314 0 4.165c-.926 1.852-2.315 2.778-2.778 5.555-.462 2.777 1.39 6.017.463 7.868-.925 1.851-1.388 4.165-4.165 2.777-2.777-1.389-4.629-1.389-6.017-3.703-1.389-2.314-3.873-4.013-3.873-4.013z"/>
<path d="M321.145 171.381s-1.851.463-2.777 2.315c-.925 1.851.463 2.314 1.389 4.166.925 1.85.463 3.702-.926 3.702-1.388 0 .463 2.314.463 2.314s-1.851.463-.926 2.778c.926 2.313 4.166 1.85 4.166 1.85s-.926 1.39 0 3.24l.926 1.852m-12.958-31.936s0 2.777 1.39 2.777h1.388m-.925 8.331s-1.851.926-1.851 2.314c0 1.389.462 4.629.462 4.629" fill="none" stroke="#1f1a17" stroke-width=".924"/>
<path class="fil5 str0" fill="none" stroke="#1f1a17" stroke-width=".924" d="M310.502 175.083h-2.314"/>
<path d="M292.911 193.135c1.389 0 3.704-1.851 3.704-1.851" fill="none" stroke="#1f1a17" stroke-width=".924"/>
<path class="fil5 str0" fill="none" stroke="#1f1a17" stroke-width=".924" d="M296.616 191.284l1.853-.462"/>
<path d="M308.97 206.619s2.922 5.493 4.773 5.955c1.852.463 4.628 1.852 5.554 3.703.926 1.852 5.092 10.183 6.017 14.348.925 4.166 5.554 10.183 5.554 10.183s4.628 1.388.463 4.165c-4.166 2.777-12.497 4.166-14.348 4.629-1.851.462-2.777.925-6.017-1.852s-6.943-4.165-10.645-7.405c-3.703-3.24-8.332-6.48-8.332-8.331 0-1.852-.886-3.555 2.354-4.018 3.241-.463 7.437-2.585 9.753-6.75 2.314-4.166 2.162-7.526 2.625-9.377.463-1.851 2.25-5.25 2.25-5.25z" fill="#d93141" fill-rule="evenodd" stroke="#1f1a17" stroke-width=".924"/>
<path d="M284.583 210.723c2.777-.463 5.09-.926 6.942-.463 1.852.463 4.63 2.314 7.87.463 3.239-1.851 4.721-4.675 6.573-5.6 1.851-.927 3.146.509 3.146 2.823s0 4.628-1.389 7.405c-1.388 2.778 0 7.406-4.628 9.257-4.628 1.852-8.332 3.703-10.183 3.703-1.852 0-4.628 1.851-7.405 1.851-2.778 0-6.017.463-6.48 2.314l-1.389 5.554s0-3.702-1.851-4.628c-1.852-.926-3.24-.463-3.703 1.389-.462 1.851-2.314 5.09-2.314 5.09s0-6.016-1.851-6.016c-1.852 0-1.852 3.702-1.852 3.702l-3.24-.925-1.109-2.22-.742-1.483s.926 3.24-.463 3.24c-1.388 0-3.703-1.388-3.703-1.388s-2.313-.926-2.776-2.315c-.463-1.388-1.389 0-2.778.463-1.388.463-3.703 1.389-4.165-.463-.463-1.851-2.314-3.702-1.851-6.016.463-2.315.925-2.778 2.776-2.315a48.82 48.82 0 0 1 3.24.926s-2.777-1.389-3.703-2.777c-.925-1.389-.925-3.703 1.39-4.628 2.313-.926 5.09-1.389 5.09 0 0 1.388-1.388-3.24.926-3.703 2.314-.463 2.777-1.389 5.091-.926 2.315.463 2.778 1.389 2.778 3.24 0 1.852-.463 6.943-.463 6.943s-1.389-2.315 1.388-2.315 5.554-1.85 7.869-2.776c2.313-.926 4.165-1.852 7.405-3.703 3.24-1.852 5.554-3.703 5.554-3.703zm-8.796-16.199s.463 2.777 0 5.554-4.628 4.628-6.016 5.554c-1.39.925-3.24.925-5.092 0-1.851-.926-3.702-2.314-3.702-4.166 0-1.851 1.388-2.314 3.24-1.388 1.85.925 2.776 2.314 4.628.925 1.851-1.388 3.24-4.628 5.09-5.553l1.852-.926z" fill="#d93141" fill-rule="evenodd" stroke="#1f1a17" stroke-width=".924"/>
<path d="M269.309 223.22h6.016" fill="none" stroke="#1f1a17" stroke-width=".924"/>
<path class="fil5 str0" fill="none" stroke="#1f1a17" stroke-width=".924" d="M275.325 223.217l3.238-.923"/>
<path d="M301.245 230.625c0 1.851-.462 4.166.926 4.629 1.388.463 3.24 0 3.24 1.851v3.24" fill="none" stroke="#1f1a17" stroke-width=".924"/>
<path d="M273.011 197.3s1.389.463 2.777-2.776c1.389-3.24 3.24-4.629 4.629-4.629 1.388 0 4.165-3.702 4.165-3.702s-.925-.463-5.09-1.852c-4.167-1.388-9.258-7.405-10.183-9.72-.926-2.314-2.777-7.868-2.777-10.182s-.926-2.777-2.315-4.165c-1.388-1.389-1.85-2.778-4.165-1.852-2.314.926-2.777 3.703-2.777 3.703s-.463-1.388-2.314-1.851c-1.852-.463-3.24-1.389-4.166.463-.926 1.85-.926 3.24 0 4.628s2.777 2.777 2.777 2.777-4.628-3.24-6.017-1.852c-1.388 1.389-3.24 1.852-1.851 4.166 1.389 2.314 3.702 4.166 3.702 4.166s-2.313-.926-3.24 1.388c-.925 2.314-2.313 3.24-.462 4.165 1.85.926 2.314 1.852 4.628 1.389 2.315-.463 3.24-1.851 5.092-.926 1.85.926 3.24-.463 3.24 1.852 0 2.314-.926 3.703.925 5.554 1.851 1.851.926 2.777 4.166 4.628 3.24 1.852 4.165 3.703 6.017 4.166 1.851.463 3.24.463 3.24.463z" fill="#d93141" fill-rule="evenodd" stroke="#1f1a17" stroke-width=".924"/>
<path d="M262.83 183.878l2.776 4.166m-11.108-10.182c0 1.388.926 2.776.926 2.776" fill="none" stroke="#1f1a17" stroke-width=".924"/>
<path d="M375.76 260.868c-7.9-2.546-17.396-4.787-26.38-4.787-20.828 0-33.787 10.646-48.598 10.646s-34.25-11.572-50.45-11.572c-9.108 0-18.508 3.806-24.993 7.137-.002-4.263-.013-9.818-.031-16.184 6.486-3.334 15.901-7.152 25.024-7.152 16.2 0 35.639 11.571 50.45 11.571s27.77-10.645 48.598-10.645c8.932 0 18.372 2.215 26.244 4.743.078 6.454.128 12.046.137 16.243zm-5.431 28.005c-6.629-1.807-13.945-3.17-20.95-3.17-20.827 0-33.787 10.645-48.597 10.645-14.812 0-34.251-11.57-50.45-11.57-6.813 0-13.788 2.13-19.585 4.596-1.94-4.838-3.337-9.659-4.226-14.255 6.415-3.172 15.242-6.54 23.81-6.54 16.2 0 35.64 11.57 50.45 11.57 14.811 0 27.77-10.645 48.599-10.645 8.544 0 17.554 2.027 25.211 4.415-.885 4.76-2.289 9.832-4.262 14.954zm-16.526 26.624a59.358 59.358 0 0 0-4.42-.172c-20.828 0-33.787 10.645-48.598 10.645s-34.25-11.571-50.45-11.571c-1.173 0-2.35.066-3.526.183-4.112-4.325-7.59-9.031-10.475-13.893 4.445-1.458 9.262-2.49 14-2.49 16.2 0 35.64 11.572 50.45 11.572 14.812 0 27.77-10.646 48.599-10.646 5.036 0 10.234.706 15.222 1.773-2.95 5.122-6.533 10.08-10.802 14.6z" fill="#193783" fill-rule="evenodd"/>
<path d="M340.589 222.294c0 2.777.926 5.091-.463 7.405-1.389 2.315 4.628-1.85 4.628-1.85s2.315.462 2.777-2.315c.463-2.777 2.778-9.72-.462-10.183-3.24-.463-6.48 6.943-6.48 6.943z" fill="#d93141" fill-rule="evenodd" stroke="#1f1a17" stroke-width=".924"/>
<path class="fil5 str0" fill="none" stroke="#1f1a17" stroke-width=".924" d="M224.53 146.807h149.032"/>
<path d="M373.562 146.807s1.851 89.329 1.851 115.248c0 25.918-19.902 74.98-74.054 74.98-54.15 0-76.367-46.284-76.367-73.592 0-27.307-.463-116.636-.463-116.636" fill="none" stroke="#1f1a17" stroke-width=".924"/>
<path d="M313.016 164.381s.347.156.427-.271c.08-.427.271-1.322-.31-1.244-.583.078-1.169 1.244-1.169 1.244l.586.04.698.193-.232.038z" fill="#1f1a17" fill-rule="evenodd" stroke="#1f1a17" stroke-width=".924"/>
<path d="M375.241 137.258a2.837 2.837 0 0 1-2.835 2.837H227.922a2.838 2.838 0 0 1 0-5.675h144.484a2.837 2.837 0 0 1 2.835 2.838z" fill="#fff500" fill-rule="evenodd" stroke="#1f1a17" stroke-width=".924"/>
</svg>
