<svg xmlns="http://www.w3.org/2000/svg" xmlns:xlink="http://www.w3.org/1999/xlink" version="1" viewBox="0 0 1000 500"><g transform="translate(-22.897 144.654) scale(.73645)"><path d="M31.092-196.42h1357.861v678.93H31.092z" fill="#002b7f"/><path d="M1049.488-7.828c83.584 0 150.873 67.29 150.873 150.874 0 83.583-67.29 150.873-150.873 150.873-83.584 0-150.874-67.29-150.874-150.873 0-83.584 67.29-150.874 150.874-150.874z" font-size="12" fill="#fff" fill-rule="evenodd"/><path d="M994.488 14.048l55 19.887 55-19.887-55 128.996zm0 258.266l55-19.887 55 19.887-55-129.269-55 129.27z" fill="#3d7de1" fill-rule="evenodd"/><path d="M1178.621 88.046l-19.887 55 19.887 55-128.997-55zm-258.266 0l19.887 55-19.887 55 129.269-55-129.27-55z" fill="#3d7de1" fill-rule="evenodd"/><g stroke="#000"><path d="M1045.031 112.508c-1.617.049-3.509.32-5.497.723-2.956.056-6.269.599-10.136 2.743-.018.01-.039.012-.057.022-2.117.68-3.928 1.313-5.136 1.75h-.01c-4.719-1.507-18.204-4.38-19.427 11.547-.008.098.031.26.113.463v.011c-.45 2.503.496 6.897.496 6.897.56.402.965 1.284 1.073 1.569v.023c.008.318-1.14 1.583-.937 2.11 0 .003.01.01.011.012.004.009.006.025.011.034l.012.01c.003.005.008.02.011.023l.011.012c.002.001.01.01.012.01.001.003.009.01.01.012.007.005.017.007.023.011.406.308.76 1.612 1.039 2.755.002.007-.002.015 0 .022v.012c-.087.437-.056.82.192 1.083.037.04.067.079.101.124.317 1.41 3.5 14.893 3.319 15.611-.18.721 1.08 1.626 2.224 1.987.133.042.453.086.948.124.016.006.03.006.045.011 6.753 2.385 12.555.807 25.081.26a1194.2 1194.2 0 0 0 10.464-.135h.136c.078-.002.158 0 .237 0 3.693.064 7.193.107 10.463.135 12.526.547 18.329 2.125 25.082-.26.015 0 .03-.01.045-.01.495-.04.815-.083.948-.125 1.144-.36 2.403-1.266 2.224-1.987-.181-.718.237-3.538.237-4.56 0-1.022.72-2.218 1.14-2.698.124-.142.271-.445.406-.824.59.218 1.349.624 1.592.644h.056l.012-.012v-.01c0-.003.01-.01.01-.012v-.011c0-.005-.009-.017-.01-.023-.002-.004.001-.018 0-.023l-.012-.01c-.06-.125-.269-.369-.688-.78l-.012-.011c-.508-.595.271-5.87.588-7.28.034-.046.064-.085.101-.125.248-.263.279-.646.192-1.083v-.012c-.002-.008.002-.013 0-.022.278-1.143.633-2.447 1.038-2.754.007-.005.017-.007.023-.012l.011-.011a.89.89 0 0 0 .012-.011c.001-.002.01-.01.01-.012.004-.003.01-.018.012-.022l.011-.011a.371.371 0 0 0 .023-.046c.202-.527-.945-1.792-.937-2.11 0-.008.009-.016.011-.023.108-.285.501-1.167 1.061-1.569 0 0 .947-4.394.497-6.897v-.011c.081-.203.12-.365.113-.463-1.224-15.926-14.709-13.054-19.426-11.547h-.012a152.871 152.871 0 0 0-5.136-1.75c-.016-.009-.029-.013-.045-.022-3.867-2.146-7.18-2.686-10.136-2.743-3.579-.723-6.85-1.025-8.76-.362a9.502 9.502 0 0 1-.936.271 9.493 9.493 0 0 1-.926-.27c-.848-.295-1.957-.4-3.25-.362z" font-size="12" fill="#ce1126" stroke-width=".098"/><g stroke-width=".272" fill-rule="evenodd"><path d="M1025.036 125.344c-.961.343-1.928 8.6-1.098 11.265.575 1.845 1.267 3.091 1.667 3.859-.828-1.277-2.701-3.72-4.82-3.53-2.662.238-1.956 8.806-1.823 9.349l.001.009.007.008h.007c.094-.215.737-3.84 3.371-4.076 1.734-.156 3.332 1.728 3.934 2.537.033.27.07.53.103.793-.291.84-.305 2.774-1.215 5.287-1.1 3.037-5.525 3.735-6.271 3.832l9.654-.866.03-.003.013-.001 9.684-.87c-.754.038-2.128-1.832-6.47-2.968-2.39-2.024-2.584-3.851-3.074-4.622-.03-.264-.058-.525-.091-.794.391-.898 1.495-3.025 3.23-3.18 2.633-.237 4.145 3.195 4.29 3.388h.006l.005-.01-.001-.01c-.002-.554-1.397-9.06-4.06-8.82-2.119.19-3.356 2.913-3.855 4.308.204-.822.536-2.52.627-4.064.166-2.798-2.81-10.913-3.802-10.826-.016.001-.033-.001-.049.004zm.6 15.175c.086.133.16.248.221.35.002.001.21.838.212.84.001.018.87 2.858.87 2.876-.064-.107-1.216-3.901-1.303-4.066zm2.607-.234c-.046.177-.29 4.096-.329 4.212-.002-.018.2-3.804.198-3.822l.018.85c.035-.11.061-1.094.113-1.24zm45.473-14.456c-1.012.135-3.674 8.012-3.417 10.791.179 1.924.597 3.287.828 4.12-.544-1.42-1.868-4.2-3.98-4.454-2.654-.32-3.744 8.206-3.727 8.766v.009l.004.01h.007c.136-.19 1.52-3.602 4.145-3.286 1.728.208 2.9 2.384 3.32 3.3-.024.27-.042.533-.063.797-.46.762-2.26 3.738-4.96 4.82-2.998 1.202-3.51 2.604-4.26 2.543l9.624 1.16.03.004.012.001.03.004c2.333.28 9.435 1.137 9.624 1.16-.745-.12-2.925-1.216-5.164-3.662-1.981-2.163-2.274-4.892-2.593-5.748.025-.264.052-.525.075-.795.57-.797 2.092-2.648 3.82-2.44 2.626.317 3.392 3.988 3.493 4.207h.006l.007-.008v-.008c.114-.544.518-9.154-2.137-9.473-2.111-.255-3.887 2.152-4.666 3.413.37-.761 1.048-2.353 1.458-3.845.744-2.702-.479-11.259-1.468-11.38-.015-.002-.032-.008-.049-.006zm-2.57 14.968c.057.149.107.277.145.388l.032.866c-.002.019.256 2.976.254 2.994-.041-.118-.379-4.068-.43-4.248zm2.6.313c-.082.164-1.136 3.947-1.197 4.052 0-.018.986-3.68.988-3.697l-.16.834c.058-.1.288-1.057.368-1.189z" fill="#f7d917" stroke-width=".098"/><g stroke-width=".098" fill="#f7d917"><path d="M1007.338 139.52l3.8-4.634s.354.459 0 0c-7.791-10.072-8.185-15.85-7.308-18.776.877-2.927 2.63-6.097 7.308-9.998 4.677-3.902 7.905-1.733 12.29-1.733 4.385 0 5.554.975 9.354 1.463 3.8.487 14.032.975 14.032.975v-2.682s.404.075 0 0c-4.517-.842-10.231 0-14.032-.976-3.8-.975-7.015-1.219-11.108-1.219-4.093 0-7.028-1.193-9.66.514-2.63 1.707-5.846 4.633-8.184 7.072-2.34 2.438-3.508 7.315-3.216 10.485.292 3.17 1.462 5.853 3.216 8.291 1.754 2.439 1.461 4.39 2.046 6.097.585 1.707 1.462 5.364 1.462 5.12zm84.3 0l-3.8-4.634s-.354.459 0 0c7.791-10.072 8.185-15.85 7.308-18.776-.877-2.927-2.63-6.097-7.308-9.998-4.677-3.902-7.905-1.733-12.29-1.733-4.385 0-5.554.975-9.355 1.463-3.8.487-14.032.975-14.032.975v-2.682s-.403.075 0 0c4.518-.842 10.232 0 14.032-.976 3.8-.975 7.016-1.219 11.109-1.219 4.092 0 7.028-1.193 9.659.514 2.63 1.707 5.847 4.633 8.185 7.072 2.339 2.438 3.508 7.315 3.216 10.485-.293 3.17-1.462 5.853-3.216 8.291-1.754 2.439-1.461 4.39-2.046 6.097-.585 1.707-1.462 5.364-1.462 5.12z"/><path d="M1043.123 101.925h13.556v27.804h-13.556zm1.62-24.513s1.46 1.188 2.58 2.715c1.119 1.527 1.9 3.393 1.9 3.393s-1.867-.78-3.394-1.9c-1.527-1.12-2.714-2.579-2.714-2.579v10.316s1.187-1.46 2.714-2.58c1.527-1.119 3.394-1.9 3.394-1.9s-.602 1.54-.99 3.394c-.35 1.667-3.21 5.516-3.21 5.516l8.355.56s-1.389-4.409-1.948-6.076c-.603-1.795-.85-3.393-.85-3.393s1.866.78 3.393 1.9c1.527 1.12 2.715 2.579 2.715 2.579V79.04s-1.188 1.46-2.715 2.58c-1.527 1.119-3.393 1.9-3.393 1.9s.78-1.867 1.9-3.394c1.12-1.527 2.579-2.715 2.579-2.715h-10.316z"/><path d="M1056.624 95.797a6.723 6.723 0 1 1-13.446 0 6.723 6.723 0 1 1 13.446 0z"/><path d="M1043.328 96.76h13.374s.194-2.586-.774-3.554h-4.155l-.07-3.878h-3.939l-.07 3.878s-2.795.14-4.083.14c-.584 1.585-.493 1.718-.493 1.718l.21 1.697zm-2.038 32.038s2.436 1.983 4.305 4.532c1.87 2.55 3.173 5.666 3.173 5.666s-3.116-1.303-5.666-3.173c-2.55-1.87-4.532-4.306-4.532-4.306v17.224s1.983-2.436 4.532-4.306c2.55-1.87 5.666-3.173 5.666-3.173s-1.303 3.116-3.173 5.666c-1.87 2.55-4.306 4.532-4.306 4.532h17.224s-2.436-1.983-4.306-4.532c-1.87-2.55-3.173-5.666-3.173-5.666s3.116 1.303 5.666 3.173c2.55 1.87 4.533 4.306 4.533 4.306v-17.224s-1.983 2.436-4.533 4.306c-2.55 1.87-5.666 3.173-5.666 3.173s1.303-3.116 3.173-5.666c1.87-2.55 4.306-4.532 4.306-4.532h-17.224zm-32.802 29.241l8.48-1.495s-2.743-1.53-5.027-3.716c-2.284-2.187-4.108-5.029-4.108-5.029s3.295.742 6.13 2.14c2.836 1.4 5.212 3.454 5.212 3.454l-2.991-16.962s-1.53 2.744-3.716 5.028c-2.186 2.284-5.029 4.108-5.029 4.108s.742-3.295 2.14-6.13c1.4-2.836 3.454-5.212 3.454-5.212l-8.48 1.496 3.935 22.318zm78.281-23.814s2.055 2.376 3.453 5.212c1.399 2.835 2.141 6.13 2.141 6.13s-2.842-1.824-5.029-4.108c-2.186-2.284-3.715-5.028-3.715-5.028l-2.991 16.962s2.376-2.055 5.211-3.453c2.836-1.399 6.13-2.141 6.13-2.141s-1.824 2.842-4.108 5.029c-2.284 2.186-5.027 3.716-5.027 3.716l8.48 1.495 3.936-22.318-8.481-1.496z"/></g><path d="M1008.575 157.158l.06 12.356s20.647-7.031 41.296-7.031c20.648 0 41.296 7.031 41.296 7.031v-12.356s-20.663-7.032-41.326-7.032-41.326 7.032-41.326 7.032z" fill="#f7d917" stroke-width=".098"/><g stroke-width=".098" fill="#fff"><path d="M1006.66 132.941a3.144 3.144 0 1 1-6.286 0 3.144 3.144 0 1 1 6.287 0zm-4.031-7.17a3.144 3.144 0 1 1-6.288 0 3.144 3.144 0 1 1 6.288 0zm-.841-8.404a3.144 3.144 0 1 1-6.287 0 3.144 3.144 0 1 1 6.287 0zm2.522-7.844a3.144 3.144 0 1 1-6.288 0 3.144 3.144 0 1 1 6.287 0zm5.322-6.443a3.144 3.144 0 1 1-6.287 0 3.144 3.144 0 1 1 6.287 0zm7.284-4.482a3.144 3.144 0 1 1-6.288 0 3.144 3.144 0 1 1 6.288 0zm8.124.56a3.144 3.144 0 1 1-6.288 0 3.144 3.144 0 1 1 6.288 0zm8.124 1.345a3.144 3.144 0 1 1-6.288 0 3.144 3.144 0 1 1 6.288 0zm8.124.84a3.144 3.144 0 1 1-6.288 0 3.144 3.144 0 1 1 6.288 0zm51.027 31.598a3.144 3.144 0 1 0 6.287 0 3.144 3.144 0 1 0-6.287 0zm4.032-7.17a3.144 3.144 0 1 0 6.287 0 3.144 3.144 0 1 0-6.287 0zm.841-8.404a3.144 3.144 0 1 0 6.287 0 3.144 3.144 0 1 0-6.287 0zm-2.522-7.844a3.144 3.144 0 1 0 6.287 0 3.144 3.144 0 1 0-6.287 0zm-5.322-6.443a3.144 3.144 0 1 0 6.287 0 3.144 3.144 0 1 0-6.287 0zm-7.284-4.482a3.144 3.144 0 1 0 6.287 0 3.144 3.144 0 1 0-6.287 0zm-8.124.56a3.144 3.144 0 1 0 6.287 0 3.144 3.144 0 1 0-6.287 0zm-8.124 1.345a3.144 3.144 0 1 0 6.287 0 3.144 3.144 0 1 0-6.287 0zm-8.124.84a3.144 3.144 0 1 0 6.287 0 3.144 3.144 0 1 0-6.287 0zm-4.643 24.539a3.144 3.144 0 1 1-6.287 0 3.144 3.144 0 1 1 6.287 0z"/><path d="M1053.045 120.28a3.144 3.144 0 1 1-6.287 0 3.144 3.144 0 1 1 6.287 0z"/><path d="M1053.045 115.799a3.144 3.144 0 1 1-6.287 0 3.144 3.144 0 1 1 6.287 0z"/><path d="M1053.045 111.709a3.144 3.144 0 1 1-6.287 0 3.144 3.144 0 1 1 6.287 0zm0-13.111a3.144 3.144 0 1 1-6.287 0 3.144 3.144 0 1 1 6.287 0z"/><path d="M1053.045 99.158a3.144 3.144 0 1 1-6.287 0 3.144 3.144 0 1 1 6.287 0z"/><path d="M1053.045 102.072a3.144 3.144 0 1 1-6.287 0 3.144 3.144 0 1 1 6.287 0z"/><path d="M1053.045 106.05a3.144 3.144 0 1 1-6.287 0 3.144 3.144 0 1 1 6.287 0z"/></g><path fill="#002b7f" d="M1043.994 153.203h12.557v5.473h-12.557z" stroke-width=".098"/><path d="M16.043 233.11a22.995 8.556 0 1 1-45.99 0 22.995 8.556 0 1 1 45.99 0z" transform="matrix(-.24496 -.02486 .0086 .34593 1065.914 77.014)" fill="#3e8225" stroke-width=".338"/><path d="M1008.649 160.134l-3.146 3.146 3.648 2.107 8.486-2.274-1.512-4.806-7.476 1.827zm83.247 0l3.146 3.146-3.649 2.107-8.486-2.274 1.513-4.806 7.476 1.827z" fill="#ce1126" stroke-width=".098"/><path d="M16.043 233.11a22.995 8.556 0 1 1-45.99 0 22.995 8.556 0 1 1 45.99 0z" transform="matrix(.24496 -.02486 -.0086 .34593 1034.63 77.014)" fill="#3e8225" stroke-width=".338"/><path d="M1041.279 153.612a1.545 1.545 0 1 1-3.091 0 1.545 1.545 0 1 1 3.09 0zm.482 4.925a1.545 1.545 0 1 1-3.09 0 1.545 1.545 0 1 1 3.09 0zm-19.798-1.449a1.545 1.545 0 1 1-3.091 0 1.545 1.545 0 1 1 3.09 0zm1.931 4.636a1.545 1.545 0 1 1-3.09 0 1.545 1.545 0 1 1 3.09 0zm35.3-8.112a1.545 1.545 0 1 0 3.09 0 1.545 1.545 0 1 0-3.09 0zm-.483 4.925a1.545 1.545 0 1 0 3.09 0 1.545 1.545 0 1 0-3.09 0zm19.799-1.449a1.545 1.545 0 1 0 3.09 0 1.545 1.545 0 1 0-3.09 0zm-1.932 4.636a1.545 1.545 0 1 0 3.091 0 1.545 1.545 0 1 0-3.09 0z" fill="#fff" stroke-width=".098"/><g stroke-width=".098"><path d="M1090.153 150.155l.982.47c-.367.486-2.597 5.928-10.611 4.242-8.094-1.703-8.673-9.493-8.673-9.493l1.502.547s.878 6.012 7.24 7.717c6.296 1.687 9.56-3.483 9.56-3.483z" fill="#f7d917"/><path d="M1071.987 145.443l-1.502.204s-1.55 5.662-9.663 4.508c-7.98-1.135-8.307-7.103-8.571-8.127-1.562.751-1.23 1.024-1.23 1.024s.922 7.241 9.493 8.264c8.503 1.022 11.405-3.62 11.473-5.873z" fill="#f7d917"/><path d="M1073.635 144.706s-.714-.6-1.494-.67c-.78-.07-1.624.39-1.624.39l-.174 1.412s.845-.46 1.624-.39c.78.07 1.494.67 1.494.67l.174-1.412z" fill="#f7d917"/><path d="M1088.053 146.782a4.062 4.062 0 1 0 8.124 0 4.062 4.062 0 1 0-8.124 0z" fill="#fff"/><path d="M1009.375 150.155l-.982.47c.367.486 2.597 5.928 10.611 4.242 8.094-1.703 8.673-9.493 8.673-9.493l-1.502.547s-.878 6.012-7.24 7.717c-6.296 1.687-9.56-3.483-9.56-3.483z" fill="#f7d917"/><path d="M1027.54 145.443l1.503.204s1.55 5.662 9.663 4.508c7.98-1.135 8.306-7.103 8.571-8.127 1.562.751 1.23 1.024 1.23 1.024s-.923 7.241-9.493 8.264c-8.503 1.022-11.405-3.62-11.473-5.873z" fill="#f7d917"/><path d="M1025.893 144.706s.714-.6 1.494-.67c.78-.07 1.624.39 1.624.39l.174 1.412s-.845-.46-1.625-.39-1.494.67-1.494.67l-.173-1.412z" fill="#f7d917"/><path d="M1011.475 146.782a4.062 4.062 0 1 1-8.124 0 4.062 4.062 0 1 1 8.124 0z" fill="#fff"/></g><path d="M1053.933 139.414a4.062 4.062 0 1 1-8.124 0 4.062 4.062 0 1 1 8.124 0z" fill="#fff" stroke-width=".098"/></g><g stroke-width=".098"><path d="M1014.271 170.388l35.593-6.386 37.075 6.386-17.203 7.153-31.736.51-23.729-7.663z" fill="#9d9d9d" fill-rule="evenodd"/><path d="M1081.468 178.67c1.18-.204 8.3-1.897 9.799-2.802-.967-1.744-2.703-3.109-1.352-2.535.727.308 1.302-2.095-.81-3.932-6.13 2.01-20.833 5.685-39.309 5.685-18.907 0-33.795-3.867-39.926-5.878-2.112 1.837-1.454 3.924-1.582 4.704 0 .006.002.984.387 1.762 2.078 2.258 8.81 3.371 9.991 3.576 5.546.963 11.091 2.42 31.118 2.42 18.526 0 26.14-2.036 31.684-3z" font-size="12" fill="#fff"/></g><g stroke-width=".25"><path d="M1018.05 165.952c-1.18.204-8.686 2.863-10.184 3.768 0 .006-.002.018 0 .024.127.78-1.303 4.413.808 6.25 6.131-2.01 23.346-8.003 41.821-8.003 18.908 0 34.568 5.992 40.7 8.003 2.11-1.837.68-5.47.808-6.25v-.024c-1.499-.905-9.004-3.564-10.185-3.768-5.545-.964-11.284-4.545-31.31-4.545-18.526 0-26.912 3.581-32.458 4.545z" font-size="12" fill="#fff" stroke-width=".098"/><g stroke-width=".188" fill-rule="evenodd"><path d="M115.508 301.56a1.872 1.872 0 1 1-3.743 0 1.872 1.872 0 1 1 3.743 0z" transform="matrix(.27126 -.02807 .03065 .2484 972.082 98.789)" stroke-width=".376"/><path d="M115.508 301.56a1.872 1.872 0 1 1-3.743 0 1.872 1.872 0 1 1 3.743 0z" transform="matrix(.27126 -.02807 .03065 .2484 971.504 100.06)" stroke-width=".376"/><path d="M115.508 301.56a1.872 1.872 0 1 1-3.743 0 1.872 1.872 0 1 1 3.743 0z" transform="matrix(.27126 -.02807 .03065 .2484 972.619 100.753)" stroke-width=".376"/><path d="M113.518 303.669l8.526-3.166-4.185 2.392 2.686-.083-2.492 1.168 4.001.275-8.536-.586z" transform="matrix(.54295 -.05618 .06135 .4972 931.951 26.954)"/></g><g stroke-width=".188" fill-rule="evenodd"><path d="M115.508 301.56a1.872 1.872 0 1 1-3.743 0 1.872 1.872 0 1 1 3.743 0z" transform="matrix(.27126 -.02807 .03065 .2484 988.396 94.12)" stroke-width=".376"/><path d="M115.508 301.56a1.872 1.872 0 1 1-3.743 0 1.872 1.872 0 1 1 3.743 0z" transform="matrix(.27126 -.02807 .03065 .2484 987.817 95.392)" stroke-width=".376"/><path d="M115.508 301.56a1.872 1.872 0 1 1-3.743 0 1.872 1.872 0 1 1 3.743 0z" transform="matrix(.27126 -.02807 .03065 .2484 988.932 96.084)" stroke-width=".376"/><path d="M113.518 303.669l8.526-3.166-4.185 2.392 2.686-.083-2.492 1.168 4.001.275-8.536-.586z" transform="matrix(.54295 -.05618 .06135 .4972 948.264 22.286)"/></g><g stroke-width=".188" fill-rule="evenodd"><path d="M115.508 301.56a1.872 1.872 0 1 1-3.743 0 1.872 1.872 0 1 1 3.743 0z" transform="matrix(.27009 .03769 -.02971 .24852 1026.978 84.304)" stroke-width=".376"/><path d="M115.508 301.56a1.872 1.872 0 1 1-3.743 0 1.872 1.872 0 1 1 3.743 0z" transform="matrix(.27009 .03769 -.02971 .24852 1026.113 85.4)" stroke-width=".376"/><path d="M115.508 301.56a1.872 1.872 0 1 1-3.743 0 1.872 1.872 0 1 1 3.743 0z" transform="matrix(.27009 .03769 -.02971 .24852 1027.029 86.34)" stroke-width=".376"/><path d="M113.518 303.669l8.526-3.166-4.185 2.392 2.686-.083-2.492 1.168 4.001.275-8.536-.586z" transform="matrix(.5406 .07544 -.05947 .49744 1005.211 4.95)"/></g><g stroke-width=".188" fill-rule="evenodd"><path d="M115.508 301.56a1.872 1.872 0 1 1-3.743 0 1.872 1.872 0 1 1 3.743 0z" transform="matrix(.27126 .02807 .03065 -.2484 1027.405 239.15)" stroke-width=".376"/><path d="M115.508 301.56a1.872 1.872 0 1 1-3.743 0 1.872 1.872 0 1 1 3.743 0z" transform="matrix(.27126 .02807 .03065 -.2484 1026.827 237.88)" stroke-width=".376"/><path d="M115.508 301.56a1.872 1.872 0 1 1-3.743 0 1.872 1.872 0 1 1 3.743 0z" transform="matrix(.27126 .02807 .03065 -.2484 1027.942 237.187)" stroke-width=".376"/><path d="M113.518 303.669l8.526-3.166-4.185 2.392 2.686-.083-2.492 1.168 4.001.275-8.536-.586z" transform="matrix(.54295 .05618 .06135 -.4972 987.274 310.985)"/></g><g stroke-width=".188" fill-rule="evenodd"><path d="M115.508 301.56a1.872 1.872 0 1 1-3.743 0 1.872 1.872 0 1 1 3.743 0z" transform="matrix(.27126 .02807 .03065 -.2484 1043.869 243.45)" stroke-width=".376"/><path d="M115.508 301.56a1.872 1.872 0 1 1-3.743 0 1.872 1.872 0 1 1 3.743 0z" transform="matrix(.27126 .02807 .03065 -.2484 1043.29 242.179)" stroke-width=".376"/><path d="M115.508 301.56a1.872 1.872 0 1 1-3.743 0 1.872 1.872 0 1 1 3.743 0z" transform="matrix(.27126 .02807 .03065 -.2484 1044.405 241.486)" stroke-width=".376"/><path d="M113.518 303.669l8.526-3.166-4.185 2.392 2.686-.083-2.492 1.168 4.001.275-8.536-.586z" transform="matrix(.54295 .05618 .06135 -.4972 1003.738 315.285)"/></g></g></g><path fill="#002b7f" d="M31.092-196.42h678.931v339.465H31.092z"/><g transform="translate(31.092 -196.42) scale(.45262)" id="b"><path id="a" fill="#fff" d="M625 228.647V0h50l75 325L0 300v-50h332.295L0 83.853V0h167.705z"/><use transform="matrix(-1 0 0 1 1500 0)" width="1000" height="500" xlink:href="#a"/><path d="M0 0l500 250H388.197L0 55.902V0zm1500 0l-500 250H888.197l500-250H1500z" fill="#ce1126"/></g><use transform="rotate(180 370.557 -26.687)" width="1000" height="500" xlink:href="#b"/><path d="M336.61-196.42h67.894v135.786h305.518V7.26H404.504v135.786H336.61V7.26H31.092v-67.893H336.61V-196.42z" fill="#ce1126"/></g></svg>