<svg xmlns="http://www.w3.org/2000/svg" viewBox="0 0 900 450"><path fill="#002b7f" d="M0 0h900v450H0z"/><svg width="450" height="225"><path d="M0 0l450 225m0-225L0 225" stroke="#fff" stroke-width="45"/><path d="M0 0l450 225m0-225L0 225" stroke="#cf142b" stroke-width="30"/><path d="M225 112.5V90L45 0H0zh45l180-90V0zV135l180 90h45zh-45l-180 90V225z" fill="#fff"/><path d="M225 0v225M0 112.5h450" stroke="#fff" stroke-width="75"/><path d="M225 0v225M0 112.5h450" stroke="#cf142b" stroke-width="45"/></svg><circle cx="675" cy="225" r="100" fill="#ffa300"/><path d="M631.957 278.1l-.517 4.32 84.08.041.864-4.36z" fill="#40721b"/><path d="M699.769 277.964l-1.884 4.867 7.928.314.864-5.18zm-56.464-.349l-1.884 4.867 7.928.314.864-5.181z" fill="#ce1126"/><path d="M647.638 171.933l-1.11 12.438-2.221 10.882 5.774 14.215 1.11 5.996c3.29 2.858 4.379 5.279 5.998 9.328l5.996.667 5.33-1.11c2.81-5.661 2.663-10.392 2.222-16.436 6.232 1.478 10.565 4.121 13.992 9.106l1.777 7.996c4.363.916 6.272.265 9.772-2l4.664-6.44 2.22-8.44c1.373-4.95 2.753-9.897 3.999-14.88l-1.333-7.774.888-10.883 19.99 19.767c3.038 37.95-5.21 38.435-37.757 52.637l-3.554 16.88 15.103 12.881-12.882 1.555 9.328 9.55-4.886 9.55c-15.186 3.996-23.814 2.814-38.2-2.443-1.501-2.905-2.001-5.308-1.778-8.44l8.662-8.439c-3.528-.896-7.067-.568-10.66-.444 1.872-3.974 5.465-6.452 8.661-9.328l5.775-1.777-1.333-9.995-4.22-14.658-24.43-14.88c-9.788-34.054-17.99-40.248 13.103-55.081z" fill="#fff"/><path d="M643.675 143.364c-2.093 1.118-3.493 3.693-3.954 6.092 1.161 5.63-.177 11.379-.231 17.125-1.454-2.64-1.746-5.743-2.554-8.678-1.454-3.106-2.03-7.8-5.8-8.677-2.5 3.696-.185 8.27-.247 12.431.47 2.337 3.024 4.4 1.4 7.031l-5.338-7.508c-1.8-1.995-3.954-4.985-6.509-4.923-.523 4.923 2.447 8.386 3.955 12.431.13.443.323.866.553 1.262h.093c.837 1.412 2.042 2.714 1.908 4.216-2.008-1.421-3.931-2.941-5.862-4.37h-.231c-3.241-2.344-6.531-4.372-10.4-5.092-.216 1.98.453 3.67 1.522 5.246h.123c1.76 2.503 4.465 4.708 6.016 7.278l-.461.461a66.994 66.994 0 0 1-9.063-4.923c-1.915-.412-3.784-2.344-5.815-.939 0 3.75 2.377 6.678 4.877 9.14-3.139.41-6.623-1.818-9.755 0 .64 2.81 4.008 4.52 4.878 7.277-2.962 1.584-6.9.572-9.986 1.861.762 2.229 2.962 3.812 4.185 5.862l-.707.708c-2.44 0-4.285 1.589-6.262 2.816.292 2.818 3.769 4.336 5.108 7.03-2.27 1.468-4.77 3.463-6.278 5.863 1.285 1.801 3.223 2.74 4.616 4.123h.123c.32.35.611.716.846 1.123-1.685 2.283-5.008 3.695-5.123 6.8 1.63 1.872 4.3 1.994 6.277 3.524-.992 1.817-2.908 3.45-2.323 5.616 2.608 1.413 5.931 1.232 8.831 1.877-.754 1.871-1.346 3.812-1.63 5.862 1.738 2.283 5.53 1.295 7.908 1.877-.17 1.879-1.454 3.918-1.631 6.093 2.262 1.46 5.108.184 7.662.246 1.516-.357 1.685 1.337 1.862 2.338.461 3.277 3.723.577 5.815 1.4l2.324 3.985c1.277.117 2.43-.11 3.477-.692 1.862-1.173 2.738.997 3.492 2.108 1.339 2.112 3.254 0 4.877 0 1.216.59 1.685 1.876 2.555 2.815 1.738.994 2.723-1.168 3.938-2.107 2.324-1.235 3.208 2.334 5.124 2.8 2.208-1.817 4.646-2.394 7.431-1.4 3.077-2.64 2.73-6.742 3.016-10.555.238-.644.469-1.708 1.4-1.646 1.106 4.63 3.78 9.71 1.892 14.34h-.046a10.2 10.2 0 0 1-1.154 1.938c-5.57 4.045-9.53 13.057-18.124 10.308-3.485 3.106-9.87-.526-12.54 3.985-.523 1.522-.177 3.29.923 4.462 2.093 1.289 5.585.925 7.447.692 1.277.761 2.485 1.48 4.17 1.185 1.454-2.283 3.023-.056 4.646.23 1.685.063 3.077-2.056 4.647-.938-1.57 2.578-3.362 4.98-3.94 7.97-.176 2.112 3.247 1.523 2.324 3.985.516 1.817 2.439 1.176 3.477 2.108.123 3.051 3.477 2.238 5.34 3.062.576 5.272 6.33-.716 7.43 4.215 1.224 0 2.154-.82 3.262-1.17 1.393.172 2.431 1.76 3.247 2.817 2.323 1.87 3.192-1.244 4.877-2.354l4.185 1.646 2.784-3.277c3.255 2.399 4.408-2.41 7.432-1.416 2.092.24 1.854-2.167 2.785-3.277 3.6.528 3.076-4.524 6.508-4.462.23-4.1-3.431-6.498-4.416-10.077 1.393-.816 2.508.408 3.493 1.169 2.146.706 3.254-1.118 4.877-1.646 2.962 4.628 5.923-1.751 9.754-.462 1.747-.59 3.362-2.412 3.016-4.462-.408-.94-.985-2.16-2.092-2.338-5.748.706-9.632-3.164-15.555-2.108l-9.755-9.386c-1.015-.698-1.754-1.515-2.262-2.4h-.077c-1.866-3.444-.478-7.927.477-11.524.116-.698.87-1.866 1.862-1.4 2.262 3.168.985 8.206 4.647 11.016 1.1.645 2.323.888 3.246-.23 1.515-1.406 3.139.411 3.954 1.646 1.216.17 1.97-.823 2.785-1.646 1.746-1.468 3.254.643 4.877.938.87-.706 1.57-1.884 2.323-2.815 1.393-.824 2.316.765 3.478 1.169 2.146.652 2.215-2.636 3.723-3.754 1.685-.055 2.908 1.055 4.646.938l1.862-3.277c1.854-2.166 4.185.18 6.508-.23l3.016-4.462 4.877-.231c1.277-1.406 1.223-3.397 1.17-5.385 2.438-1.584 5.853-.761 8.584-1.646.177-2.105-1.038-4.344-1.846-6.34 2.324-1.172 5.4-.576 7.893-1.4.815-2.935-2.208-5.163-2.785-7.508l7.2-3.508c-.115-2.64-3.423-3.519-4.415-5.63a20.754 20.754 0 0 1 1.692-1.108h.247c1.592-.925 3.238-1.683 4.8-2.724l.23-1.184c-2.207-2.4-5.053-4.096-7.892-5.385l-.23-.708 5.107-4.693v-1.17c-2.039-2.05-5.115-1.702-7.447-3.046 1.162-2.461 4.893-3.281 5.355-6.092-1.454-1.7-3.608-1.582-5.585-1.877-1.331 0-2.839.94-3.94 0 1.455-2.695 4.647-4.042 5.34-7.032-4.524-1.817-9.124 1.233-13.247 1.878 1.223-1.934 2.73-3.466 4.646-4.693 1.8-1.7 5.4-3.398 4.416-6.093-4.47 0-8.193 1.759-11.847 3.754-2.67.94-4.877 3.75-7.431 4.216 1.854-2.4 4.869-3.875 6.954-6.57 1.359-1.492 1.62-3.443 2.477-5.154h.092c.385-.722.885-1.387 1.631-1.954.177-1.351 1.685-2.65.462-4-3.847.97-7.429 3.149-10.586 5.831h-.169c-1.938 1.685-3.7 3.567-5.277 5.508l-.477-.462c1.083-1.582 1.769-3.297 2.708-4.923h.077c.615-1.04 1.33-2.03 2.338-2.908 1.393-3.051 4.185-6.739 2.093-10.077-5.953 1.795-9.097 8.236-12.57 12.816h-.123c-.108.14-.216.26-.323.4a1.865 1.865 0 0 1-.277-.385h-.062c-.31-.686-.26-1.495-.354-2.277 3.308-4.333 3.185-10.195 3.708-15.709.054-.931-.746-1.998-1.615-1.415-3.662 2.756-4.647 6.973-6.278 10.785l-.461-.461v-9.386c-.231-2.523-1.116-5.624-3.724-6.323-2.67 2.632-1.623 6.793-2.784 10.078-1.039 0-1.223-1.233-1.862-1.878-.346-.349-1.154-.344-1.385.247-.304 5.555-.318 10.96-.169 16.324.002.056-.002.113 0 .17.227 7.83.811 15.537 1.323 23.447-3.567 7.07-3.039 15.823-5.247 20.577-2.207 4.754-3.707 6.93-5.907 8.81-2.031 1.584-4.524-.052-6.955.476-1.338-1.646-1.223-3.928-1.861-5.862-.131-.357-.27-.696-.416-1.03h-.061c-3.583-8.009-12.642-10.268-19.74-13.124-.812-.086-1.858-.278-2.847-.293-.988-.014-1.911.152-2.492.77 2.554 1.289 5.231 2.752 6.97 5.385l-.462.477c-2.146-.761-4.646-1.426-6.97-1.185 1.393 3.929 6.031 4.402 8.355 7.508.023.194.054.398.077.6h.015c.301 2.642.36 5.616-2.185 7.216-1.915 1.289-2.777-1.284-4.4-1.4-1.63-.179-3.67 1.456-4.893-.477-.253-2.182-1.746-3.823-3.389-5.684-1.643-1.86-3.23-3.951-2.41-7.055-2.848-5.684-4.709-11.723-4.878-18.525.81-6.798 2.96-13.688 3.97-20.632h.03c.77-5.397.839-10.827-.985-16.263-1.738.117-1.969 2.234-3.477 2.816l-.461-.477c.115-3.75-.131-7.33-.708-10.785zm1.861 33.863c.116 3.518.924 7.034-.707 10.078.523-3.339-4.809-8.028.707-10.078zm62.25 2.8c1.34.063 1.224 1.594 1.863 2.355-.524 1.933-1.924 4.097-.939 6.092 1.277-.823 1.17-3.057 2.8-3.523-.238 2.524-1.17 5.288-2.8 7.508-1.739-3.572-1.616-8.448-.923-12.431zm-66.665 2.816c1.454 1.88 1.223 4.863 1.861 7.262-1.277-1.933-3.43-4.8-1.861-7.262zm72.943 4.924c-.292 2.228-2.215 4.343-3.723 6.339h-.23c.176-2.291 2.153-4.81 3.953-6.34zm-75.497.246c1.57.994 2.492 3.093 3.708 4.677-.931 4.628-1.685 9.025-.693 13.832-1.57.062-2.73-.87-3.954-1.631-.577-.823-.808-1.76-.692-2.816 1.162-.528 2.215 1.984 3.492.462-.292-2.29-3.2-3.05-3.954-5.154 1.685-1.18 3.316 2.461 4.416 0-.7-1.996-4.593-2.745-3.493-5.385l2.324 1.169c.115-1.933-1.739-3.337-1.154-5.154zm75.959 3.985c.754-.117 1.1.755.923 1.4-.47 2.29-3.308 3.87-5.108 5.4-.762-2.586 2.33-4.75 4.185-6.8zm1.154 5.862c1.046.411 0 1.103 0 1.63-1.047 1.647-3.193 1.58-4.878 2.108.577-1.584 2.962-3.21 4.878-3.738zm-2.324 4.677c.347 0 .993-.051.939.477.115 2.228-2.446 1.168-3.493 2.108-.638-1.351 1.57-2.12 2.554-2.585zm-47.618 2.585c2.323-.117 4.07 1.64 3.954 3.985-.523 1.172.285 3.337-1.631 3.508-1.623-.117-2.908-.985-4.185-1.862 1.57-.761 3.9 1.578 5.354-.246.293-2.4-2.1-3.685-3.492-5.385zm-17.878 2.815c1.67 2.338.892 5.977 2.446 8.57h.108a5.1 5.1 0 0 0 1.615 1.585c2.324 1.53 2.97 4.162 3.724 6.57.177 2.166-.985 4.043-2.785 5.154-.985.062-1.693-.637-1.631-1.631-.408-.761.877-1.404-.23-1.877-1.217.823-2.332 2.523-3.955 1.646-.577-1.646.938-2.994 1.4-4.462-1.854-.233-3.192 2.868-5.57 1.4-.523-1.988 1.154-3.04 2.077-4.446-1.854-1.056-3.246 1.048-5.108 0 .116-1.708 2.962-2.289 4.416-3.523-.238-.164-.508-.337-.785-.524h-.215c-1.135-.796-2.347-1.833-2.477-3.308 2.146-1.172 3.592 2.238 5.57.708.054-1.755-2.031-3.285-.924-4.923.816.35 1.393 1.232 2.093 1.877 1.454-.412.17-1.876.23-2.816zm56.911.231c.408 1.056-.87 1.993.231 2.816 1.277-.117 1.277-1.758 2.785-1.4 1.162 2.461-3.839 3.399-1.631 5.154 1.277-.466 2.785-1.935 4.185-.708-.043 1.283-1.152 1.72-2.031 2.323h-.215c-.347.272-.639.604-.77 1.046 2.031.117 3.947.87 5.108 2.57.354.94-.7 1.286-1.4 1.17-1.746.349-3.546-.7-4.877 0 1.046 1.816 3.785 2.114 3.493 4.692-2.385.94-3.9-1.582-6.047-1.877-.585 1.7 2.216 2.59 1.862 4.462-2.147.706-3.716-1.477-5.34-2.354-.407 1.118.34 2.29.924 3.292-1.685.823-3.37-.41-4.185-1.877-2.323-3.339 2.039-5.628 3.031-8.447.775-.767 1.342-1.62 1.8-2.523h.077c1.293-2.648 1.63-5.707 3-8.339zm-31.186 1.846c.29-.015.523.054.523.493.053.473-.062 1.233-.693.938h-.707v-1.4c.23.09.586-.015.877-.03zm6.554 4.247c1.13.512 2.015 1.307 2.677 2.246h.092c1.135 1.712 1.61 3.911 1.646 6.047-2.269 8.324-1.108 18.056 2.555 25.324l-.924 5.862c-3.077-.465-.877 3.272-1.861 4.678-.379 1.603-1.077 3.073-1.893 4.492h-.092c-.554.97-1.162 1.922-1.739 2.877l1.17.693c-1.393 4.457-3.193 8.97-7.2 12.2-4.586-2.818-6.332-8.086-7.663-12.893h1.616c-.116-.955-.477-1.914-.923-2.861h-.077c-.645-1.336-1.451-2.69-2.016-4.031-1.162-1.825 1.508-5.463-1.4-5.4l-.462.476c-4.531-8.324 3.37-15.474 2.785-24.155.639-1.522-1.508-4.218 1.4-3.985 4.062.116 7.608-2.052 9.755-5.631.665-1.03.7-2.432.954-3.677h.03c.224-.963.6-1.812 1.57-2.262zm4.185 52.465c1.685 1.988 4.185 1.86 6.277 2.8 2.2 1.817 4.462 3.825 6.262 6.108-4.824-.411-11.5 2.392-14.401-3.292zm-19.586 1.4c.94.058 1.584 1.024 1.692 3.754-2.493 5.273-9 4.573-14.17 4.216.292-1.7 2.846-3.22 4.416-4.447 2.475.604 5.992-3.65 8.062-3.523zm.77 8.447c-2.963 3.983-7.317 6.563-10.679 10.554h-.707c.346-3.284 4.47-4.878 6.739-7.277zm14.862 0h.707c4.762 4.69 8.3 9.254 12.309 14.293.061.761-.008 1.473-.708 1.877-4-5.622-8.823-10.308-12.308-16.17zm3.261 0c4.24 3.044 7.655 7.087 11.37 11.016v.708c-4.239-3.285-7.83-7.74-11.37-11.724zm-4.185 1.63l10.217 14.54c-.116.59.292 1.351-.462 1.646-2.793-5.396-8.824-10.09-9.755-16.185zm14.51.385c1.24-.015 2.442.24 3.138 1.031-.231.761-.339 1.58-1.154 2.108-2.208.877-3.716-1.412-5.339-2.585.842-.264 2.114-.538 3.354-.554zm19.37.031c.988-.015 1.861.15 2.354 1-.7 3.875-5.57 1.401-8.355 2.108.17-1.584 1.916-2.285 3.016-3.046.9.143 1.996-.046 2.985-.062zm-9.14.03c.661-.014 1.274.054 1.74.493.053 1.11-1.162 2.06-2.093 2.354-1.108.466-2.662.232-3.247-.708-.284-1.289.754-1.758 1.631-2.107.608.085 1.309-.017 1.97-.031zm-58.311.232c.698 0 1.404.086 1.985.261.638.994-.008 2.468-1.17 2.585-1.684-.17-2.792.416-4.185-.462.231-.823.708-1.533 1.4-2.123.581-.175 1.272-.261 1.97-.261zm9.878 0c.58 0 1.165.086 1.63.261-1.338.761-2.677 4.231-5.123 2.585-.17-1.173 1.046-1.995 1.862-2.585.465-.175 1.05-.261 1.63-.261zm10.446.03c-1.338 4.512-7.608 7.327-9.754 11.955h-.462c1.454-4.806 6.731-8.204 10.216-11.955zm2.785 0c-1.623 5.335-6.2 9.5-8.585 14.54-.408.178-.646-.229-.939-.462 2.616-4.93 5.693-10.094 9.524-14.078zm1.631 0c-.47 5.98-3.43 11.555-5.108 17.355-.7.645-1.57-.294-1.862-.938 1.277-5.917 4.647-10.966 6.97-16.417zm-35.818.123c1.714-.067 3.849.47 5.385.108l.477.477c.054 1.118-1.161 2.051-2.092 2.339-2.031.116-5.231 1.002-6.508-.939.333-1.512 1.405-1.932 2.738-1.985zm42.557.816h.462c1.977 4.977 5.861 9.205 6.97 14.54.23.822-.747 1.809-1.385 1.63-1.57-5.567-5.124-10.315-6.047-16.17zm-4.646 1.17c.053 5.046 2.5 12.2-3.016 15.477h-.708c-.284-5.8 2.039-10.726 3.724-15.478zm2.323 0h.692c1.977 4.814 2.916 10.311 2.8 15.708-6.854-2.935-2.623-10.662-3.492-15.709z" fill="#231f20"/></svg>