<svg xmlns="http://www.w3.org/2000/svg" viewBox="0 0 1200 600"><clipPath id="a"><path d="M0 0v150h700v150H600zm600 0H300v350H0v-50z"/></clipPath><path fill="#002b7f" d="M0 0h1200v600H0z"/><path d="M0 0l600 300m0-300L0 300" stroke="#fff" stroke-width="60"/><path d="M0 0l600 300m0-300L0 300" stroke="#ce1126" stroke-width="40" clip-path="url(#a)"/><path d="M300 0v350M0 150h700" stroke="#fff" stroke-width="100"/><path d="M300 0v350M0 150h700" stroke="#ce1126" stroke-width="60"/><path d="M0 300h600V0h200v400H0z" fill="#002b7f"/><circle cx="900" cy="300" r="128.572" fill="#fff"/><path d="M947.428 358.455c-2.056 1.327-4.145 2.799-3.958 5.513-2.142-2.204-2.752-5.362-1.555-8.199-2.673.359-3.993 2.678-4.524 5.09-.649-2.801-1.877-7.375 1.838-8.483-.494-2.393-2.828 1.234-2.982 2.51-1.129 4.591-1.031-.843-1.26-2.792-.173-1.855 1.045-3.48 2.545-4.241 1.824-3.62 6.53-2.365 9.755-2.12 2.344.287 5.73-.516 5.291-3.54.285-4.08.093-10.058-4.726-11.304-3.24-1.18-3.477 1.186-2.888 3.84.667 2.85-.575 1.912-2.342 1.532-1.684.08.498 2.979-1.371 4.035-.734 1.186-3.736-2.404-3.86-.501-.324 2.09-1.384 5.14-4.1 4.24-.848 1.708-1.082 3.782-2.403 5.373-2.295 3.428-6.149 5.19-9.754 6.644-3.23.134-3.982 3.833-3.817 6.503-1.325-2.61-3.694-6.23-1.13-8.765-2.443.656-3.792 3.212-2.868 5.658 1.099 3.47-1.94-1.172-2.646-2.407-1.518-1.298.613-4.973-.707-4.665-1.908 1.244-1.795 3.673-1.979 5.796-.847-2.529-2.983-6.233-.141-8.199.08-4.482 5.445-5.1 8.906-4.948 3.068.779 3.81-2.945 5.796-4.523 1.587-2.71 4.345-4.722 5.654-7.493.511-4.132-5.037-4.87-6.785-7.916-1.593-1.04-1.026-4.344-2.969-4.241-5.104-.115-10.153 1.24-14.843 2.969-3.211 1.361-6.953-.535-10.037.424 1.1 1.702-1.925 5.514-2.403 2.12-1.014-1.092-.88 5.112-2.545 2.262-2.248-.198.493 2.734-1.024 4.071-.258 2.136-2.994-2.498-3.5-.396.554 1.901-.614 5.714-2.403 2.828-2.56-1.528-.926 1.36-1.692 2.814-1.527 3.885-1.084.414-2.831-.977.712 1.137.097 5.19-1.273 3.535-2.32-.296-2.102.71-1.272 2.403.037 3.924-1.469.8-3.11 1.838 1.607 2.101-.501 3.535-2.262 2.12-3.362.566-5.16 4.242-5.513 7.492-2.278 3.355-6.725 5.034-10.602 3.676-1.737 1.516-1.58 4.691-4.241 5.372-3.062 1.653-1.719-.393-1.697-2.545.355-2.596-1.872-2.045-2.992-.4-1.51 1.268-2.14 5.116-2.94 1.262-.826-1.706-.005-3.663.419-5.103-.683-1.916-2.398 2.043-2.668 3.198-.463 1.865-1.53-3.385-1.149-4.47 1.69-2.848 2.48-7.389 6.362-8.34 3.585-.18 7.253.12 10.885 0 1.396-3.557 2.715-7.135 3.445-10.849.586-3.189 3.295-5.658 2.633-9.084-.09-1.814-3.08 2.937-2.12-1.555-.157-1.13-4.791 4.881-2.907.93.795-1.486.934-4.91-.463-1.856-1.832 2.41-4.997 2.845-7.798 3.188 2.129-1.222 5.197-3.158 4.948-5.514-1.284 1.202-4.111 5.292-3.885 1.27-.352-2.364-.96-5.455-1.346-7.348-2.568.736-5.177.194-7.775-.283 1.383-.667 3.65-3.866.848-3.817-2.594.843-3.343-1.138-5.638-.327-1.391-1.421-3.977-.812-5.954-.38.95-2.919-2.667-1.801-2.686.283-1.533 1.317-1.418 4.049-3.816 4.524-1.034.513-5.429 2.204-4.243.898 1.82-.76 2.635-5.14.185-4.02-1.79 1.393-2.537 3.271-2.162 5.525-2.023-1.935-3.867-4.973-2.12-7.634-1.924.841-3.264 2.398-4.242 4.241-.647-3.19-1.866-7.222.707-9.754-2.337.728-2.78 3.84-3.676 5.937-.021-3.253-1.481-8.124 1.98-10.037 2.078-.795 2.83-3.597 5.089-4.523 3.062-2.531 7.648-1.942 10.744.283 1.854.765 3.619.906 5.654.706 4.187-.206 8.578.218 12.44 1.98.267-1.374 3.684-3.717.99-3.817-3.097-.63.514-2.527.848-4.241 1.48-2.438-.3-4.96.283-7.493.777-2.598 4.206-2.906 5.513-5.089.903-2.415-2.217-.326-3.393-.424-1.98 1.187-5.124-.82-3.251-2.969.063-2.115-1.35-5.686-3.958-4.523-3.672.372-8.231-.444-9.33-4.524-.625-2.122 1.08-5.652 3.534-3.675 2.329 1.441 3.77 4.444 6.926 3.675 1.969-.116 3.875-.526 5.796-.99-1.47-1.445-3.239-3.012-5.371-1.837-3.286.798-5.447-2.622-4.524-5.514-.066-1.836.17-5.466 2.969-4.382 2.45-.276-2.614-1.153-2.404-2.686.503-2.747 4.369-1.842 6.22-3.251 3.588-1.617 6.28-5.77 10.744-5.23 2.22-2.15 5.805-2.084 8.765-2.263-.464-2.308.442-4.693 1.696-6.644 1.277 1.212 2.396 4.991 4.1 3.959 1.88-1.362-1.862-2.842 1.555-3.252 2.663-.721 4.56 2.013 4.665 4.382 1.827-.086 3.695 1.2 3.817 3.11 2.336-2.627 6.173-2 9.047-.706-.761.814-2.236 5.321-.565 2.968 1.182-1.82 5.68-1.29 4.523 1.273-.521 3.344 1.616-.761 3.38.702 2.878-.133-.76 1.848.579 3.256 1.795 1.151 1.88 3.915 4.24 4.665 1.904.786 4.295 1.416 1.556 3.251-2.102 1.235-3.089 1.425-.566 3.11 2.694 2.482.14 7.12 3.817 8.906 1.234 1.398 4.816 1.047 2.12 3.11-1.625 1.24-2.772 1.725-1.56 3.945.13 1.555 3.71 3.22 2.042 4.04-1.676.61-3.7 1.5-5.288.356-1.642 2.95 2.136 4.64 4.527 4.736 12.2-2.087 24.526-4.75 36.747-7.386 6.055-1.479 12.86-.313 17.448 4.193 3.19 2.834 8.32.153 8.37-3.947.898-4.946-4.553-7.949-8.872-7.45-10.026-.968-20.13-.885-30.088-2.445-5.925-1.245-11.184-5.835-11.96-12.016-1.323-6.501 1.72-14.171 8.425-16.257 6.601-2.662 14.144-2.089 20.498.99 4.368.727 8.265-1.674 12.158-3.252 4.412-1.504 9.275.517 11.733 4.383 2.503-1.546 5.639-.794 8.2.282-2.09.958-4.673 1.74-5.938 3.676 1.566 1.747 3.234 3.64-.283 3.393-2.06.434-4.437.719-5.796 2.544-5.934.057-12.603-.13-17.246-4.24-3.516.123-6.689-1.49-9.896-2.545-4.938-.755-12.113-.475-13.854 5.23-1.423 3.68-.507 8.292 3.252 10.178 7.442 3.658 16.104 2.66 24.173 3.252 7.613.497 16.325.775 22.194 6.361 4.34 4.24 3.891 11.412.063 15.83a26.116 26.116 0 0 1-6.99 5.94c1.801 4.93 5.461 9.892 3.535 15.268-.062 2.625-3.518 3.808-2.969 6.503-.26 3.797-1.799 7.772-5.09 9.895 3.135 1.564 1.65 1.972-.24 3.612-.806 1.172 3.085.948 3.711 2.566 2.992 2.06-1.005.915-2.198 2.021.81.311 2.952 5.387-.141 4.241-2.868-.15-.478 2.58-1.414 4.1-.898 2.985-3.954 5.335-3.958 8.765-.653 3.571-3.085 8.127-7.36 7.21-2.003-.522-3.539 2.07-5.787 1.837z"/><g fill="#ce1126"><path d="M968.491 292.296c14.136-8.34 12.864-20.78 1.13-25.022-8.764-2.827-17.387-2.12-26.152-2.827-11.733-.424-16.54-3.11-17.953-7.916-.848-10.461 5.796-12.865 16.116-11.451 2.685 1.555 5.654 2.403 9.047 2.545 2.969 2.686 7.775 4.382 16.681 4.1 1.838-2.121 4.806-2.263 7.492-2.687-.706-.848-1.272-1.696-1.979-2.544.566-1.273 2.262-2.404 4.948-3.676-3.11-1.13-4.948-.424-6.644.566-3.676-5.655-8.765-6.644-15.409-2.686-2.827 1.13-5.655 1.696-8.34 1.413-4.807-2.544-9.613-3.11-14.42-2.544-9.895 1.413-14.419 6.503-13.853 15.267.565 7.917 5.513 12.582 14.984 13.854 9.613.565 19.226 1.272 28.839 1.98 12.864 1.413 6.644 18.942-2.545 12.157-5.513-5.09-10.885-4.807-16.398-3.959-6.927 1.555-13.854 2.969-20.781 4.524-5.23.99-10.461 1.98-15.833 2.969-5.372-.566-7.21-2.686-5.23-6.362.99 1.131 2.827 1.131 5.23 0-2.403-2.403-3.251-4.806-2.686-7.21.848 1.414 1.838-.282 2.686-1.413-2.827-.848-4.524-2.545-5.23-4.948.424-4.1-1.273-6.644-5.23-7.775 2.544-.141 4.381-1.13 5.512-2.686-2.686-1.13-5.089-2.262-5.513-4.806-1.838-1.273-2.262-2.686-1.13-4.1-2.545-.848-3.535.141-3.11 2.969-.99-1.838-1.415-3.676-.99-5.513-2.262-1.555-3.959 0-5.372 2.827-.424-1.838-.142-3.676.848-5.513-4.807-2.12-6.927-.283-8.906 2.12.707-2.969-.424-4.382-3.534-4.382-.566-3.817-2.262-5.23-4.948-3.817 1.272 1.13.707 2.403-1.696 3.534-.99-1.414-1.98-2.827-3.11-4.1-1.273 1.98-1.273 3.959-.99 6.08-4.948 0-8.058.706-9.189 2.12-2.12 0-4.24.424-6.361 2.261-1.414 1.414-3.11 2.404-5.09 3.393l-4.664 1.273c-1.131.99-.142 1.696 2.968 3.11.566.848-.707 1.555-2.403 1.13-1.414-.565-1.555 1.697-1.696 3.817-.283 2.969.141 5.514 4.665 4.807 3.251-1.697 4.24 3.393 7.634 2.403-5.09 1.414-9.896 2.545-12.582 1.13-4.665-5.23-6.079-4.24-6.079-.565.848 3.11 2.969 5.372 10.885 4.241 1.98 1.838 2.828 3.817 2.404 5.796-.99 1.414-.566 2.12 1.696 2.12 1.414-.282 2.827-.706 4.1-.989 1.13 0 1.413.848.565 2.686-1.272.99-2.545 1.838-3.817 2.828-2.12.848-1.696 3.392-.848 6.078-.424 2.545-1.414 4.524-2.827 6.079 1.13.707 2.12.848 3.11.565-1.131 1.697-2.262 3.393-3.393 4.948-5.23-2.403-10.602-2.262-15.974-1.838-.99-.424-1.838-.848-2.828-1.13-5.372-3.393-9.471-1.414-13.005 2.685-1.131 1.555-1.131 2.97 0 4.524.141 1.98.283 4.1 4.1 4.665.282 1.838.989 3.393 5.089 1.98.282 1.696 1.555 2.261 3.816 1.696 1.273-1.131 2.12-2.404 2.545-3.959 2.403-.424 3.393 0 2.969 1.414 2.968-.565 4.665-.283 5.371.566 1.556-.566 2.545-.425 2.686.565 4.241-.565 4.1.141 4.807.565.424 1.131 0 2.12-1.414 3.252 2.545.565 4.807.707 6.927-.283.566 3.11 1.131 6.079 1.696 9.189 1.131-.99 2.404-2.12 3.535-4.1.424 3.393-.566 5.23-2.545 6.362 3.11-.424 4.948-2.686 6.22-5.938.283 1.98.566 3.817 0 5.372 1.131-.99 1.696-2.12 1.555-3.393.707 1.273 1.131 2.686 1.131 3.959 1.555-1.273 1.272-2.403 1.414-3.676.565 2.686 1.13 5.372.282 8.058-1.837 3.11-2.686 6.079-3.11 8.906-.848 2.545-1.837 5.09-2.686 7.775h-8.906c-3.534-.707-5.513 1.414-6.644 4.665-1.13 1.555-.565 2.545 1.98 2.827 0 .707.14 1.273.565 1.555.424 1.838 2.262 1.697 4.1 1.414 2.403 1.697 4.382 1.414 6.078-.848 4.241 1.272 7.634.141 10.32-3.251.707-3.535 1.696-5.655 2.968-6.08 1.697-2.261 3.393-1.978 5.09-1.13.424-.707.282-1.272-.566-1.98.99-1.696 1.98-1.837 2.969-.565.707-1.555.141-2.686-1.131-3.534 1.979-1.13 3.251-1.272 3.958-.565.566-.99.424-2.545-.283-4.524 1.273.424 2.404 1.131 2.686 2.827.99-1.555.99-2.968 0-4.1 1.414-.706 2.828-.282 4.241.99a4.793 4.793 0 0 0 0-4.382c1.555.141 2.969.283 3.817 1.414.848-1.838.283-3.11-.565-4.241 2.12-.283 3.11-.283 3.11 0 1.13-1.414 0-1.98-.566-2.686 1.98-.283 3.11.283 3.393 1.413 1.414-1.555 1.272-2.544-.565-3.392 1.696-.142 3.392-.142 5.23-.283 3.958.848 6.079.283 8.058-.566 4.524-1.696 9.33-2.827 14.985-2.403.565 2.828 2.12 5.23 4.947 7.21 4.665 2.686 5.23 5.513 1.98 8.482-2.687 3.251-5.231 6.503-7.776 9.754-6.502-.424-10.037.707-10.602 3.251-.424 1.555.424 2.404 2.544 2.545-.14 2.545 3.959 3.393 5.231 1.13.565 1.556 1.414 2.97 3.393 2.545 1.272.707 2.262 0 3.251-.848 3.817-.99 6.927-3.675 9.189-8.623-.141-2.12.707-2.827 2.686-2.262 1.696-1.13 1.838-3.251 1.979-5.23 1.696.565 3.11 1.13 3.958 1.696 1.272-1.696.707-2.827 0-3.958 1.98-.566 2.827-.283 3.534 0 0-1.838-.141-3.817-.282-5.796 5.654-.707 9.895 1.272 9.188 12.44 0 3.817-3.534 3.958-7.492 3.675-2.827-.565-5.655-.706-7.492 1.414-.142 1.272-.142 2.545 1.696 3.817 0 2.545.141 2.403 2.403 3.675 1.131 2.686 1.414 2.262 4.241 2.686 2.545-.141 3.958-1.13 5.23-2.12 7.21 1.979 7.634-5.09 8.907-9.754l2.968-4.665c.424-1.414.707-2.828-.282-4.241 1.13-1.131 2.261-1.555 3.392-1.131.424-2.262-.848-2.969-2.544-3.252 1.272-1.13 2.686-1.696 3.958-1.696-1.555-1.696-3.393-2.262-5.23-1.98.848-1.554 1.696-2.968 2.968-3.25-.99-1.131-1.979-1.414-3.251-1.131 5.23-2.686 6.644-7.21 6.644-12.44 2.827-2.686 4.1-6.22 2.969-11.168-1.273-2.969-2.545-5.938-3.817-8.765z"/><path d="M942.48 356.475c-.848 2.12-.707 4.1.565 5.796.142-1.272 1.414-2.545 3.393-3.817-1.979.141-3.393-.565-3.958-1.979zm-3.251-3.392c-1.838.565-2.262 2.403-1.696 5.372.424-1.414 1.555-2.545 3.534-3.11-1.697-.283-2.403-.99-1.838-2.262zm-1.697-4.383c-1.98.707-1.98 3.11-1.696 5.655.424-1.414 1.13-2.828 2.686-3.535-.849-.565-1.131-1.272-.99-2.12zm-21.063 5.938c-1.272.99-1.13 2.827.424 5.513 0-1.838.848-3.251 2.262-4.1-1.131-.14-2.12-.423-2.686-1.413zm-5.513-1.273c-.707 1.414-.141 3.251 1.555 5.23-.424-1.413 0-2.827 1.272-4.382-.99.283-1.837 0-2.827-.848zm-2.969-2.686c-1.13.848-1.13 2.403-.424 4.524.141-1.131.707-2.404 2.12-3.534-.565-.142-1.13 0-1.696-.99zm-60.504 8.482c.424 1.272.565 2.545 0 4.1 2.12-.425 3.251-1.838 3.817-3.817-1.272.424-2.545.565-3.817-.283zm-5.089-1.979c-.99 1.272-1.13 2.969-.141 5.09.424-1.132 1.413-2.263 2.827-3.394-1.414 0-2.403-.424-2.686-1.696zm-3.252-2.827c-.99.565-.848 2.262-.283 4.241.424-1.696 1.273-2.686 2.262-3.393-.565-.141-1.272-.283-1.979-.848zm-18.66-41.279c.99 1.13.141 2.403-.848 3.534 2.968-.707 4.523-1.696 4.806-2.969-1.272.425-2.544.283-3.958-.565zm-5.372-2.12c-1.414 1.696-1.13 3.675.565 5.796 0-1.272.849-2.686 2.545-4.241-1.414 0-2.545-.424-3.11-1.555zm-4.241-4.524c.565 1.555 1.272 2.969 3.393 3.817-1.838.848-3.11 1.979-3.958 3.251-.707-3.393-.849-5.937.565-7.068zm-1.131-4.665c-2.12.565-2.545 3.11-2.262 6.503.566-1.838 1.697-2.969 3.11-3.534-.707-.99-.848-1.98-.848-2.969z"/></g><path d="M869.394 263.033c2.12 2.969 3.393 5.937 3.817 8.906 0-4.241-1.272-7.21-3.817-8.906zm8.482-9.047c3.251 3.11 5.937 6.079 7.634 9.047-1.414-4.665-4.241-7.35-7.634-9.047zm-4.241 5.23c3.534 4.524 5.796 9.613 5.937 15.55 1.131-8.199-1.837-12.44-5.937-15.55z"/><path d="M871.656 262.044c3.675 4.524 5.372 9.471 4.382 14.843 1.555-7.35 0-12.299-4.382-14.843zm-15.735-16.047c-.668.049-1.1.252-1.816.49-.99 4.1 4.707 4.526 6.97 2.406.463-.42.733-.787.883-1.08.034-.072.08-.18.098-.245.008-.039.046-.112.049-.148.001-.035-.045-.114-.05-.147-.001-.01.003-.039 0-.049-.011-.041-.028-.11-.048-.147-.011-.018-.036-.081-.05-.098-.006-.008-.041-.041-.048-.05a1.624 1.624 0 0 0-.05-.049c-.034-.03-.106-.07-.147-.098-.01-.007-.038-.042-.049-.049-.034-.019-.11-.032-.147-.05-.859-.38-2.462-.415-3.288-.49-1.114-.185-1.787-.234-2.307-.196zm.196.49c1.117-.096 2.665.091 4.32.443-1.482.52-4.388 1.065-5.203 1.472-.025.014-.078.035-.098.049-.299-.298-.5-.558-.59-.785-.012-.037-.04-.112-.048-.148-.004-.023 0-.075 0-.098v-.098c.002-.02-.005-.078 0-.098.008-.03.035-.07.049-.098.01-.018.037-.081.049-.099.006-.008.042-.04.049-.049a1.17 1.17 0 0 1 .245-.196c.036-.019.109-.032.148-.049a3.87 3.87 0 0 1 1.08-.245zm5.35.835c-.141 1.414-1.545 2.136-5.644 1.57 2.12-.565 4.089-1.004 5.644-1.57zm81.72 107.881c.424-1.414 1.272-2.262 2.969-1.838 4.523.707 6.927-.424 7.35-3.393-.989 2.262-3.25 3.676-7.916 2.828-2.686-.424-2.686.99-2.403 2.403zm-2.686-4.099c.141-1.696 1.696-1.98 3.958-1.696 3.958.565 6.503-.283 8.058-1.555-.707 1.555-2.12 2.827-7.775 1.979-1.838-.142-3.251.141-4.241 1.272zm-23.891.989c.283-1.13 1.555-1.555 3.534-1.13 2.969 0 4.241-1.556 5.09-3.676-.849 2.12-2.404 3.534-5.655 3.251-1.98-.848-3.11-.283-2.969 1.555zm3.535-5.796c-.141 1.13-.565 1.98-3.11 1.696-2.827.424-5.09 1.273-5.796 3.252.141-2.686 1.555-3.676 3.958-3.252 2.262-.141 3.817-.706 4.948-1.696zm-67.008 10.461c-.565-2.403.707-3.393 2.827-3.675-2.262-.142-4.24.14-2.827 3.675zm-10.885-1.979c.565-1.696 1.555-2.827 3.11-3.393 3.11-.99 6.786-.99 10.461-.565-3.958-.99-7.492-1.131-10.602-.142-1.697.566-2.686 1.98-2.969 4.1z"/><path d="M856.106 352.234c-3.11-.141-6.22-.141-8.2 1.272-2.261.142-2.12 1.98-1.554 4.241 0-1.838.141-3.534 1.838-3.675 1.696-1.273 4.665-1.697 7.916-1.838zm90.474-107.013c4.806-.565 8.482-2.403 11.875-4.665-2.828 3.11-6.503 4.948-11.875 4.665zm14.702-1.838c-2.827-.283 4.948 1.838 4.948 1.838-.566-1.131-2.262-1.414-4.948-1.838zm-6.503 5.231c4.524 1.414 8.906 2.12 13.43.565-4.1 2.262-8.482 2.404-13.43-.565z"/><path d="M958.313 244.09c5.09 2.12 10.178 2.969 14.843.424-4.665 4.524-9.754 3.251-14.843-.424z"/><path d="M955.769 243.807c5.09-2.545 9.896-2.686 14.42.848-4.242-4.382-9.048-5.23-14.42-.848zm-2.121 1.555c5.372 2.686 11.45 3.534 18.095 2.12-6.503 2.262-12.582 1.414-18.095-2.12zm-54.425 72.662c-.707 2.969-1.98 3.817-3.251 4.382 2.544.142 4.1-.848 3.251-4.382zm38.309-1.696c-5.372 3.958-11.168 4.524-17.105 3.817 7.775 1.979 13.712 1.272 17.105-3.817zm3.676-7.351c-2.686 7.068-2.969 13.995 2.12 20.64-6.502-5.797-5.937-12.865-2.12-20.64zm-75.913-71.531c.99 2.403.565 4.665-.424 7.068 1.838-2.968 2.403-5.513.424-7.068zm-21.77 20.215c3.393 1.414 5.23 1.414 5.655 0-.283 1.696-.99 2.969-5.655 0zm3.251 5.938c3.958.848 8.2 1.696 6.361 3.11 3.817-1.555.283-2.403-6.361-3.11zm-35.059 40.713c3.251-3.534 7.21-4.524 11.592-3.958-5.372-1.838-9.33-.566-11.592 3.958zm3.959 4.241c2.403-3.675 5.937-5.372 9.754-6.079-4.665-.141-8.34.99-9.754 6.079zm4.382 2.403c1.414-3.251 4.1-5.09 7.775-5.655-4.1-1.13-6.503 1.131-7.775 5.655zm36.048-30.535c-3.675 4.524-6.361 9.33-8.765 14.278.849-5.513 2.404-10.885 8.765-14.278zm6.786-7.916c-1.13 2.686-1.555 5.23 0 7.916-1.98-2.685-1.555-5.23 0-7.916zm-3.252 1.837c0 1.414-.707 2.686-2.12 4.1 2.261-1.555 2.968-2.97 2.12-4.1zm-3.817-.565c.424 1.555.707 3.11-.141 4.665 1.837-1.555 1.13-3.11.141-4.665zm-2.544-.424c.424 1.838.141 3.675-.707 5.372 1.98-1.697 2.12-3.534.707-5.372zm-4.382-11.592c-5.09-1.98-7.492-1.696-7.068.565-.99-3.11.424-4.24 7.068-.565zm-4.524-7.917c2.403.848 3.675 1.838 4.948 3.11-.424-2.545-2.12-3.534-4.948-3.11zm-.99 15.975c4.382-.565 8.765-1.838 13.006-3.676-4.1 2.404-8.482 3.817-13.006 3.676z"/><path d="M853.562 260.488c6.786 3.11 10.037 7.068 5.372 12.864 7.068-6.361 4.24-10.46-5.372-12.864zm26.718-15.974c1.555-.99 3.675-1.696 6.22-1.838-3.251-1.13-5.23-.424-6.22 1.838zm-6.22 4.524c1.272 2.686 3.817 3.534 7.775 2.262-4.1 2.686-6.785 1.979-7.775-2.262zm7.775.989c-2.403-2.545-4.948-3.817-7.775-1.696 3.11-3.676 5.513-1.414 7.775 1.696z"/><path d="M872.222 247.483c3.534-3.393 7.634-2.969 12.016 1.272-4.241-4.665-8.2-6.361-12.016-1.272zm2.12-7.21c-.707 2.12-2.12 4.382-5.23 6.503 4.523-1.98 5.654-4.1 5.23-6.503zm-3.11-3.251c-.99 2.686-2.827 5.372-5.513 8.058 4.806-2.403 7.068-5.09 5.513-8.058zm19.509 17.388c2.545-2.545 5.372-.848 8.34 1.414-3.816-4.807-6.644-5.23-8.34-1.414zm0-6.644c-2.12 2.403-3.393 4.806-3.817 7.068-1.13-2.544.142-4.806 3.817-7.068zm-.707-1.414c-3.393 2.545-5.655 4.948-6.927 7.351.141-3.534 2.545-5.937 6.927-7.351zm0 11.168c3.534.707 6.927.141 10.461-.848-.99 1.696-10.602 2.968-10.461.848zm1.838 1.979c5.372 2.545 8.2 6.503 8.482 12.157-.141-7.916-2.969-12.016-8.482-12.157zm3.392 6.361c1.696 4.665 4.524 9.33 9.613 13.571-6.786-3.251-9.613-7.916-9.613-13.571zm-13.147 5.09c3.11 4.1 4.665 8.482 5.655 13.147.282-7.068-1.273-11.733-5.655-13.147zm-.565-3.676c2.686.848 4.665 2.827 5.655 6.22 0-4.806-1.838-6.927-5.655-6.22z"/><path d="M883.814 255.823c4.806 4.241 8.34 8.765 10.178 13.571-1.555-8.623-5.23-12.299-10.178-13.571zm-8.341 1.697c6.361 4.241 11.168 8.482 14.56 12.864-2.544-4.806-7.35-9.047-14.56-12.864zm-11.309 15.126c4.948 4.1 7.916 9.613 7.916 17.105 1.697-9.33-1.555-14.56-7.916-17.105zm30.393 35.624c2.403 4.948 2.545 9.754-2.403 14.42 7.21-4.1 6.644-9.048 2.403-14.42zm-35.341 6.503c.565 2.686-.99 4.1-2.969 5.513 2.686-.99 4.524-2.403 2.969-5.513zm-15.691-13.289c-.565 2.686-.141 5.513 2.262 8.2-3.817-1.839-3.958-4.807-2.262-8.2zm6.22.707c-1.555 3.958-1.98 7.916-1.696 11.875-1.131-4.948-.99-9.048 1.696-11.875zm8.906-1.272c-3.251 6.079-5.655 12.016-5.513 18.095-1.273-7.917 1.272-13.571 5.513-18.095zm1.272 11.875c1.838 4.382 3.534 8.765 9.613 9.189.283-3.11-1.272-6.22-3.252-9.33 3.252 2.544 5.796 5.513 5.09 11.592-7.634.282-10.603-4.524-11.451-11.451zm8.765-6.079c.848 3.675 1.98 7.21 5.372 10.461-5.372-3.534-5.513-6.927-5.372-10.461zm-7.634-20.781c-.99 7.21-4.1 12.582-8.623 16.823 5.796-2.97 9.33-7.917 8.623-16.823zm-4.241-4.241c-.565 3.393-2.262 6.927-5.372 10.461-1.838 1.98-1.838 5.796 0 11.45-.283-4.382-.424-8.481 1.838-10.743 3.534-4.665 4.665-8.34 3.534-11.168z"/><path d="M861.761 281.835c1.555 5.513 2.686 11.31.424 17.67-1.414 4.1-1.414 8.341 1.98 13.289-4.524-4.1-4.807-8.34-3.252-12.864 2.12-5.938 1.979-12.016.848-18.095zm12.581 14.843c-.707 3.675-2.12 7.634-.283 11.733-.424-3.958 2.545-6.927 5.23-9.754-1.837 4.524-3.816 8.906-5.654 13.288-2.686-4.665-1.838-9.895.707-15.267z"/><path d="M864.871 281.835c12.723 12.723 1.13 17.53-.141 30.11-2.686-11.167 10.037-15.408.141-30.11zm4.665-12.582c4.806 7.351 6.22 15.833 4.1 25.446 4.24-12.016 1.13-19.367-4.1-25.446zm22.477 1.697c4.1 4.948 6.503 10.037 6.644 14.985 1.131-5.655-1.838-10.603-6.644-14.985zm-2.827 1.13c1.838 7.492 4.806 13.571 9.754 15.974-5.654-1.272-8.482-7.492-9.754-15.974z"/><path d="M888.337 274.908c1.555 6.503 2.12 12.864-.141 19.367 4.806-6.503 3.392-12.864.141-19.367zm-11.733 1.979c2.12 3.393 3.393 6.786 3.817 10.178.848-3.675-.424-7.068-3.817-10.178zm-.283 11.026c3.393 5.372 5.372 11.168 6.079 16.964.848-7.068-1.273-12.864-6.079-16.964z"/><path d="M879.431 275.897c6.361 9.754 9.189 19.508 3.675 29.404 6.503-10.461 6.362-20.357-3.675-29.404z"/></svg>