<svg xmlns="http://www.w3.org/2000/svg" xmlns:xlink="http://www.w3.org/1999/xlink" version="1" viewBox="0 0 1500 750"><path fill="#002776" d="M0 0h1500v750H0z"/><g transform="scale(.5)"><path fill="#00247d" d="M0 0h1500v750H0z"/><g id="b"><path id="a" fill="#fff" d="M167.705 0L625 228.647V0h50l75 325L0 300v-50h332.295L0 83.853V0z"/><use transform="matrix(-1 0 0 1 1500 0)" width="1500" height="750" xlink:href="#a"/><path d="M0 0l500 250H388.197L0 55.902V0zm1500 0l-500 250H888.197l500-250H1500z" fill="#e00034"/></g><use transform="rotate(180 750 375)" width="1500" height="750" xlink:href="#b" fill="#e00034"/><path d="M675 0h150v300h675v150H825v300H675V450H0V300h675V0z" fill="#e00034"/></g><path font-size="12" fill="#fff" fill-rule="evenodd" d="M1138.907 375L1125 359.99 1111.093 375l2.77-20.511-20.113-1.795 17.361-10.568-11.171-17.247 18.88 7.334L1125 312.5l6.18 19.713 18.88-7.334-11.171 17.247 17.361 10.568-20.112 1.795z"/><path d="M1117.103 229.025c-8.238.105-16.476.28-24.65.839-6.032.489-12.908 1.048-18.778 1.956l-1.492.28c-3.697.768-4.216 5.52-2.27 8.105 3.957 5.345 27.406 9.502 55.104 9.502 27.665 0 51.115-4.157 55.071-9.502 1.946-2.585 1.427-7.337-2.27-8.105l-1.492-.28c-5.838-.908-12.746-1.467-18.779-1.956-8.173-.56-16.41-.734-24.649-.839h-7.881z" fill="#fff"/><path d="M1130.498 234.126a58.961 58.961 0 0 1-5.708-1.293 68.188 68.188 0 0 1-4.444-1.467c.422.734 1.038 1.467 2.53 2.026-1.2-.035-2.79.454-3.373.734.584.245 2.238.734 3.438.699-1.46.559-2.01 1.292-2.335 2.026a51.727 51.727 0 0 1 4.054-1.363 59.16 59.16 0 0 1 5.838-1.362zm-21.536.104a50.963 50.963 0 0 1-5.708-1.117 46.632 46.632 0 0 1-4.476-1.328c.39.734 1.038 1.433 2.562 1.957-1.232 0-2.789.559-3.34.838.584.245 2.238.664 3.438.594-1.427.594-1.979 1.363-2.303 2.096 1.265-.524 2.595-1.048 4.022-1.502 1.816-.594 3.73-1.083 5.805-1.537zm-21.373 1.119a56.827 56.827 0 0 1-5.806-.699c-1.589-.28-3.113-.594-4.54-.978.454.699 1.135 1.362 2.692 1.747-1.2.104-2.725.768-3.276 1.083.616.174 2.27.489 3.47.349-1.395.699-1.881 1.502-2.14 2.27 1.232-.628 2.53-1.257 3.924-1.816a46.173 46.173 0 0 1 5.676-1.956zm64.445-.769c-2.044.315-3.957.664-5.741 1.118a38.34 38.34 0 0 0-4.476 1.363c.422-.734 1.038-1.468 2.562-1.957-1.2-.035-2.789-.559-3.34-.838.584-.245 2.238-.664 3.438-.63-1.427-.593-1.979-1.327-2.27-2.095 1.264.559 2.594 1.048 4.021 1.537a55.334 55.334 0 0 0 5.806 1.502zm21.308 1.922c-2.043.14-3.956.349-5.773.663-1.589.28-3.113.63-4.573 1.014.487-.7 1.168-1.363 2.725-1.747-1.233-.105-2.757-.769-3.309-1.083.617-.21 2.27-.524 3.503-.35-1.394-.698-1.913-1.502-2.173-2.27a62.428 62.428 0 0 0 3.925 1.816 61.84 61.84 0 0 0 5.675 1.957z"/><path d="M1125.017 239.157c-33.017 0-53.029 2.06-51.375 3.633 11.58 5.206 34.38 6.882 51.375 6.917 16.962-.035 39.763-1.711 51.342-6.917 1.654-1.572-18.358-3.633-51.342-3.633z" fill="#ccc"/><path d="M1143.523 822.713c.32-.85-1.098-1.099-2.587-1.276-5.777-.744-12.192-1.24-17.898-1.666-8.931-.567-17.933-.744-26.935-.85h-17.26c-9.002.106-18.004.283-26.936.85-5.706.426-12.12.922-17.897 1.666-1.489.177-2.907.425-2.588 1.276" fill="none" stroke="#000" stroke-width=".616" transform="matrix(.91513 0 0 .98574 129.826 -568.086)"/><path d="M1078.843 808.643c-9.002.106-18.004.283-26.936.85-6.592.497-14.105 1.064-20.52 1.985l-1.63.284c-4.04.78-4.608 5.6-2.481 8.222 4.324 5.423 29.948 9.64 60.215 9.64 30.231 0 55.855-4.217 60.179-9.64 2.126-2.623 1.56-7.443-2.481-8.222l-1.63-.284c-6.38-.921-13.929-1.488-20.52-1.985-8.932-.567-17.934-.744-26.936-.85h-8.612z" fill="none" stroke="#000" stroke-width=".616" transform="matrix(.91513 0 0 .98574 129.826 -568.086)"/><g stroke-width="1.176"><g stroke-width="2.417"><path d="M1169.514 221.198l3.989-12.55 1.61-5.195 3.994-2.673 4.044-9.901 1.904-2.59.295-9.122s-2.794-6.47-7.118-8.795c-6.185-3.324-14.58-2.867-14.58-2.867s-1.94-5.524-5.496-7.674c-3.557-2.15-7.507-2.668-11.652-2.668-4.146 0-11.585 3.992-15.608 5.166-2.092.61-6.815 2.668-6.815 2.668s-4.724-2.058-6.815-2.668c-4.023-1.174-11.463-5.166-15.608-5.166-4.146 0-7.966.44-11.652 2.668-3.428 2.072-8.134 7.674-8.134 7.674s-5.388-.787-9.173 1.666c-4.721 3.06-8.048 9.496-8.048 9.496l.325 9.968.744 3.81 3.05 3.777 3.978 7.63 2.85 7.525 3.05 9.82h90.866z" fill="#cf142b" fill-rule="evenodd"/><path d="M1219.614 702.297l17.558-48.6 7.092-20.121 17.575-10.353 17.8-38.344 8.386-10.028 1.294-35.329s-12.298-25.06-31.33-34.06c-27.225-12.874-64.18-11.103-64.18-11.103s-8.536-21.396-24.192-29.722c-15.657-8.327-33.042-10.334-51.29-10.334-18.246 0-50.994 15.463-68.703 20.009-9.207 2.363-29.999 10.333-29.999 10.333s-20.791-7.97-29.998-10.333c-17.709-4.546-50.457-20.009-68.704-20.009-18.247 0-35.064 1.705-51.289 10.334-15.088 8.024-35.803 29.722-35.803 29.722s-23.717-3.051-40.378 6.45c-20.783 11.851-35.428 36.778-35.428 36.778l1.435 38.6 3.272 14.756 13.43 14.63 17.507 29.548 12.543 29.142 13.425 38.034h399.977z" fill="none" stroke="#000" transform="matrix(.22718 0 0 .25821 892.443 39.855)"/></g><g font-weight="400" color="#000" font-family="Bitstream Vera Sans"><path d="M1174.642 133.977c4.324 1.033 8.912 3.085 12.525 6.94 3.35 3.571 5.578 7.788 6.862 12.91 1.202 4.793 1.239 7.644.704 12.417-.687 6.142-4.195 12.307-4.195 12.307l-6.046-1.162s3.644-8.271 4.054-11.935c.492-4.402.477-5.814-.54-9.868-1.053-4.2-2.582-7.087-5.213-9.893-2.482-2.647-5.978-4.287-9.56-5.18-3.193-.798-6.801-1.139-9.603-.517-5.32 1.182-8.778 3.053-14.562 5.02-4.173 1.418-7.362 1.904-11.582 2.162-2.58.158-5.563-.536-8.36-1.178-2.796-.643-5.139-1.308-5.139-1.308l1.573-6.503s2.235.637 4.87 1.242c2.634.606 5.925 1.097 6.697 1.05 3.978-.244 6.313-.601 10.053-1.873 5.354-1.82 9.145-3.838 15.192-5.196 4.075-.916 8.254-.395 12.27.565z" style="text-indent:0;text-align:start;line-height:normal;text-transform:none;block-progression:tb;marker:none;-inkscape-font-specification:Bitstream Vera Sans" fill="#fed100" overflow="visible"/><path d="M358.406 213.625c-9.018 2-18.587 5.975-26.125 13.438-6.987 6.917-11.634 15.083-14.312 25-2.507 9.281-2.583 14.802-1.469 24.045 1.434 11.893 8.75 23.83 8.75 23.83l12.61-2.25s-7.598-16.016-8.454-23.111c-1.027-8.523-.995-11.257 1.125-19.108 2.197-8.133 5.386-13.722 10.875-19.156 5.177-5.126 12.47-8.301 19.938-10.032 6.661-1.543 14.188-2.204 20.031-1 11.099 2.288 18.31 5.912 30.375 9.719 8.703 2.746 15.356 3.688 24.156 4.188 5.383.305 11.605-1.038 17.438-2.282 5.832-1.244 10.719-2.531 10.719-2.531l-3.282-12.594s-4.661 1.235-10.156 2.406c-5.495 1.172-12.358 2.123-13.969 2.032-8.297-.471-13.167-1.164-20.969-3.625-11.168-3.525-19.074-7.432-31.687-10.063-8.5-1.773-17.217-.764-25.594 1.094z" style="text-indent:0;text-align:start;line-height:normal;text-transform:none;block-progression:tb;marker:none;-inkscape-font-specification:Bitstream Vera Sans" fill="none" stroke="#000" overflow="visible" transform="matrix(-.47943 0 0 .51643 1346.474 23.655)"/></g><path d="M2700.19 785.026a10.489 10.66 0 1 1-20.977 0 10.489 10.66 0 1 1 20.977 0z" transform="matrix(-.31906 0 0 .34368 2052.93 -98.446)" style="marker:none" fill="#fff" stroke="#000" overflow="visible" stroke-width="1.768"/><path d="M2700.19 785.026a10.489 10.66 0 1 1-20.977 0 10.489 10.66 0 1 1 20.977 0z" transform="matrix(-.31906 0 0 .34368 2054.542 -107.105)" style="marker:none" fill="#fff" stroke="#000" overflow="visible" stroke-width="1.768"/><path d="M2700.19 785.026a10.489 10.66 0 1 1-20.977 0 10.489 10.66 0 1 1 20.977 0z" transform="matrix(-.31906 0 0 .34368 2054.056 -116.264)" style="marker:none" fill="#fff" stroke="#000" overflow="visible" stroke-width="1.768"/><path d="M2700.19 785.026a10.489 10.66 0 1 1-20.977 0 10.489 10.66 0 1 1 20.977 0z" transform="matrix(-.31906 0 0 .34368 2050.785 -124.954)" style="marker:none" fill="#fff" stroke="#000" overflow="visible" stroke-width="1.768"/><path d="M2700.19 785.026a10.489 10.66 0 1 1-20.977 0 10.489 10.66 0 1 1 20.977 0z" transform="matrix(-.31906 0 0 .34368 2044.68 -131.765)" style="marker:none" fill="#fff" stroke="#000" overflow="visible" stroke-width="1.768"/><path d="M2700.19 785.026a10.489 10.66 0 1 1-20.977 0 10.489 10.66 0 1 1 20.977 0z" transform="matrix(-.31906 0 0 .34368 2037.049 -136.227)" style="marker:none" fill="#fff" stroke="#000" overflow="visible" stroke-width="1.768"/><path d="M2700.19 785.026a10.489 10.66 0 1 1-20.977 0 10.489 10.66 0 1 1 20.977 0z" transform="matrix(-.31906 0 0 .34368 2028.327 -138.576)" style="marker:none" fill="#fff" stroke="#000" overflow="visible" stroke-width="1.768"/><path d="M2700.19 785.026a10.489 10.66 0 1 1-20.977 0 10.489 10.66 0 1 1 20.977 0z" transform="matrix(-.31906 0 0 .34368 2019.388 -138.106)" style="marker:none" fill="#fff" stroke="#000" overflow="visible" stroke-width="1.768"/><path d="M2700.19 785.026a10.489 10.66 0 1 1-20.977 0 10.489 10.66 0 1 1 20.977 0z" transform="matrix(-.31906 0 0 .34368 1995.186 -131.295)" style="marker:none" fill="#fff" stroke="#000" overflow="visible" stroke-width="1.768"/><path d="M2700.19 785.026a10.489 10.66 0 1 1-20.977 0 10.489 10.66 0 1 1 20.977 0z" transform="matrix(-.31906 0 0 .34368 2010.885 -135.523)" style="marker:none" fill="#fff" stroke="#000" overflow="visible" stroke-width="1.768"/><path d="M2700.19 785.026a10.489 10.66 0 1 1-20.977 0 10.489 10.66 0 1 1 20.977 0z" transform="matrix(-.31906 0 0 .34368 2003.035 -132.94)" style="marker:none" fill="#fff" stroke="#000" overflow="visible" stroke-width="1.768"/><g font-weight="400" color="#000" font-family="Bitstream Vera Sans"><path d="M1075.358 133.977c-4.324 1.033-8.912 3.085-12.525 6.94-3.35 3.571-5.578 7.788-6.862 12.91-1.202 4.793-1.239 7.644-.704 12.417.687 6.142 4.195 12.307 4.195 12.307l6.046-1.162s-3.644-8.271-4.054-11.935c-.492-4.402-.477-5.814.54-9.868 1.053-4.2 2.582-7.087 5.213-9.893 2.482-2.647 5.978-4.287 9.56-5.18 3.193-.798 6.801-1.139 9.603-.517 5.32 1.182 8.778 3.053 14.562 5.02 4.173 1.418 7.362 1.904 11.582 2.162 2.58.158 5.563-.536 8.36-1.178 2.796-.643 5.139-1.308 5.139-1.308l-1.573-6.503s-2.235.637-4.87 1.242c-2.634.606-5.925 1.097-6.697 1.05-3.978-.244-6.313-.601-10.053-1.873-5.354-1.82-9.145-3.838-15.192-5.196-4.075-.916-8.254-.395-12.27.565z" style="text-indent:0;text-align:start;line-height:normal;text-transform:none;block-progression:tb;marker:none;-inkscape-font-specification:Bitstream Vera Sans" fill="#fed100" overflow="visible"/><path d="M358.406 213.625c-9.018 2-18.587 5.975-26.125 13.438-6.987 6.917-11.634 15.083-14.312 25-2.507 9.281-2.583 14.802-1.469 24.045 1.434 11.893 8.75 23.83 8.75 23.83l12.61-2.25s-7.598-16.016-8.454-23.111c-1.027-8.523-.995-11.257 1.125-19.108 2.197-8.133 5.386-13.722 10.875-19.156 5.177-5.126 12.47-8.301 19.938-10.032 6.661-1.543 14.188-2.204 20.031-1 11.099 2.288 18.31 5.912 30.375 9.719 8.703 2.746 15.356 3.688 24.156 4.188 5.383.305 11.605-1.038 17.438-2.282 5.832-1.244 10.719-2.531 10.719-2.531l-3.282-12.594s-4.661 1.235-10.156 2.406c-5.495 1.172-12.358 2.123-13.969 2.032-8.297-.471-13.167-1.164-20.969-3.625-11.168-3.525-19.074-7.432-31.687-10.063-8.5-1.773-17.217-.764-25.594 1.094z" style="text-indent:0;text-align:start;line-height:normal;text-transform:none;block-progression:tb;marker:none;-inkscape-font-specification:Bitstream Vera Sans" fill="none" stroke="#000" overflow="visible" transform="matrix(.47943 0 0 .51643 903.526 23.655)"/></g><path d="M2700.19 785.026a10.489 10.66 0 1 1-20.977 0 10.489 10.66 0 1 1 20.977 0z" transform="matrix(.31906 0 0 .34368 197.07 -98.446)" style="marker:none" fill="#fff" stroke="#000" overflow="visible" stroke-width="1.768"/><path d="M2700.19 785.026a10.489 10.66 0 1 1-20.977 0 10.489 10.66 0 1 1 20.977 0z" transform="matrix(.31906 0 0 .34368 195.458 -107.105)" style="marker:none" fill="#fff" stroke="#000" overflow="visible" stroke-width="1.768"/><path d="M2700.19 785.026a10.489 10.66 0 1 1-20.977 0 10.489 10.66 0 1 1 20.977 0z" transform="matrix(.31906 0 0 .34368 195.945 -116.264)" style="marker:none" fill="#fff" stroke="#000" overflow="visible" stroke-width="1.768"/><path d="M2700.19 785.026a10.489 10.66 0 1 1-20.977 0 10.489 10.66 0 1 1 20.977 0z" transform="matrix(.31906 0 0 .34368 199.215 -124.954)" style="marker:none" fill="#fff" stroke="#000" overflow="visible" stroke-width="1.768"/><path d="M2700.19 785.026a10.489 10.66 0 1 1-20.977 0 10.489 10.66 0 1 1 20.977 0z" transform="matrix(.31906 0 0 .34368 205.32 -131.765)" style="marker:none" fill="#fff" stroke="#000" overflow="visible" stroke-width="1.768"/><path d="M2700.19 785.026a10.489 10.66 0 1 1-20.977 0 10.489 10.66 0 1 1 20.977 0z" transform="matrix(.31906 0 0 .34368 212.951 -136.227)" style="marker:none" fill="#fff" stroke="#000" overflow="visible" stroke-width="1.768"/><path d="M2700.19 785.026a10.489 10.66 0 1 1-20.977 0 10.489 10.66 0 1 1 20.977 0z" transform="matrix(.31906 0 0 .34368 221.673 -138.576)" style="marker:none" fill="#fff" stroke="#000" overflow="visible" stroke-width="1.768"/><path d="M2700.19 785.026a10.489 10.66 0 1 1-20.977 0 10.489 10.66 0 1 1 20.977 0z" transform="matrix(.31906 0 0 .34368 230.612 -138.106)" style="marker:none" fill="#fff" stroke="#000" overflow="visible" stroke-width="1.768"/><path d="M2700.19 785.026a10.489 10.66 0 1 1-20.977 0 10.489 10.66 0 1 1 20.977 0z" transform="matrix(.31906 0 0 .34368 254.814 -131.295)" style="marker:none" fill="#fff" stroke="#000" overflow="visible" stroke-width="1.768"/><path d="M2700.19 785.026a10.489 10.66 0 1 1-20.977 0 10.489 10.66 0 1 1 20.977 0z" transform="matrix(.31906 0 0 .34368 239.116 -135.523)" style="marker:none" fill="#fff" stroke="#000" overflow="visible" stroke-width="1.768"/><path d="M2700.19 785.026a10.489 10.66 0 1 1-20.977 0 10.489 10.66 0 1 1 20.977 0z" transform="matrix(.31906 0 0 .34368 246.965 -132.94)" style="marker:none" fill="#fff" stroke="#000" overflow="visible" stroke-width="1.768"/><g stroke-width=".972" stroke="#000"><path d="M185.96 37.047c1.567-1.984 3.44-3.458 4.956-5.475 1.594-2.12 2.81-4.798 3.436-7.503-2.771.69-5.45 1.907-7.57 3.5-2.016 1.518-3.49 3.39-5.474 4.957V7.116c1.984 1.567 3.458 3.439 5.475 4.956 2.12 1.594 4.798 2.81 7.569 3.501-.625-2.705-1.842-5.383-3.436-7.503-1.517-2.017-3.389-3.49-4.956-5.475h28.151c-1.567 1.984-3.439 3.458-4.956 5.475-1.594 2.12-2.81 4.798-3.435 7.503 2.77-.69 5.45-1.907 7.569-3.501 2.017-1.517 3.49-3.39 5.474-4.956v25.41c-1.983-1.567-3.457-3.439-5.474-4.956-2.12-1.594-4.798-2.81-7.57-3.501.626 2.705 1.842 5.383 3.436 7.503 1.517 2.017 3.39 3.49 4.956 5.475H185.96z" fill="#fed100" transform="matrix(.58011 0 0 .62488 1008.957 98.671)"/><path d="M2700.19 785.026a10.489 10.66 0 1 1-20.977 0 10.489 10.66 0 1 1 20.977 0z" transform="matrix(.38606 0 0 .41585 86.601 -215.4)" style="marker:none" fill="#fff" overflow="visible" stroke-width="1.461"/></g><g stroke-width="1.247"><g stroke-width=".675"><path d="M1134.19 131.77a9.19 9.9 0 1 1-18.38 0 9.19 9.9 0 1 1 18.38 0z" style="marker:none" fill="#fed100" overflow="visible"/><path d="M2700.19 785.026a10.489 10.66 0 1 1-20.977 0 10.489 10.66 0 1 1 20.977 0z" transform="matrix(.87625 0 0 .92865 -1231.858 -597.244)" style="marker:none" fill="none" stroke="#000" stroke-width=".649" overflow="visible"/></g><path d="M1123.036 121.11v8.31h-7.715v4.231h19.358v-4.231h-7.73v-8.31h-3.913z" fill="#fed100"/><path d="M195.844 28.437V45.5H178.78v8.687h42.813V45.5H204.5V28.437h-8.656z" fill="none" stroke="#000" transform="matrix(.45216 0 0 .48705 1034.484 107.26)"/></g><g transform="matrix(.47943 0 0 .51643 1031.517 121.583)"><rect width="25.322" height="71.72" ry="6.386" x="182.326" y="34.934" style="marker:none" fill="#fed100" fill-rule="evenodd" overflow="visible"/><rect width="25.322" height="71.72" ry="6.386" x="182.326" y="34.934" style="marker:none" fill="none" stroke="#000" overflow="visible"/></g><g stroke-width="1.154"><g transform="matrix(.5499 0 0 .46826 994.822 -301.148)"><rect width="7.041" height="79.256" ry="3.8" x="221.335" y="941.218" style="marker:none" fill="#fed100" fill-rule="evenodd" overflow="visible"/><path d="M224.855 941.218c1.95 0 3.52 1.694 3.52 3.8v71.655c0 2.105-1.57 3.8-3.52 3.8s-3.52-1.695-3.52-3.8v-71.656c0-2.105 1.57-3.8 3.52-3.8z" style="marker:none" fill="none" stroke="#000" overflow="visible"/></g><g transform="matrix(.5499 0 0 .46826 997.343 -301.148)"><rect width="7.041" height="79.256" ry="3.8" x="240.494" y="941.218" style="marker:none" fill="#fed100" fill-rule="evenodd" overflow="visible"/><rect width="7.041" height="79.256" ry="3.8" x="240.494" y="941.218" style="marker:none" fill="none" stroke="#000" overflow="visible"/></g></g><g stroke-width="1.768" fill="#fff" stroke="#000"><path d="M2700.19 785.026a10.489 10.66 0 1 1-20.977 0 10.489 10.66 0 1 1 20.977 0z" transform="matrix(.31906 0 0 .34368 266.82 -129.386)" style="marker:none" overflow="visible"/><path d="M2700.19 785.026a10.489 10.66 0 1 1-20.977 0 10.489 10.66 0 1 1 20.977 0z" transform="matrix(.31906 0 0 .34368 266.82 -122.1)" style="marker:none" overflow="visible"/><path d="M2700.19 785.026a10.489 10.66 0 1 1-20.977 0 10.489 10.66 0 1 1 20.977 0z" transform="matrix(.31906 0 0 .34368 266.82 -114.805)" style="marker:none" overflow="visible"/><path d="M2700.19 785.026a10.489 10.66 0 1 1-20.977 0 10.489 10.66 0 1 1 20.977 0z" transform="matrix(.31906 0 0 .34368 266.82 -107.509)" style="marker:none" overflow="visible"/><path d="M2700.19 785.026a10.489 10.66 0 1 1-20.977 0 10.489 10.66 0 1 1 20.977 0z" transform="matrix(.31906 0 0 .34368 266.82 -100.213)" style="marker:none" overflow="visible"/></g><path d="M1185.099 192.744c-3.222 7.758-5.802 15.333-8.33 23.127h-103.857c-2.445-7.535-4.937-15.639-8.01-23.127 0 0 6.463 9.742 11.304 12.098 2.688 1.309 6.051 1.699 8.831.634 3.664-1.403 8.538-8.562 8.538-8.562s4.382 5.525 7.36 6.977c2.794 1.362 6.061 1.417 9.125 1.268 2.712-.132 5.715-.242 7.949-1.902 3.382-2.515 6.77-11.1 6.77-11.1s3.279 6.755 5.889 9.197c2.153 2.015 4.857 3.52 7.654 4.122 2.797.603 5.853.408 8.537-.634 3.638-1.413 9.42-7.293 9.42-7.293s3.98 5.317 6.771 6.659c2.702 1.299 5.952 1.681 8.832.951 3.048-.772 5.608-3.15 7.948-5.39 2.09-2 5.269-7.025 5.269-7.025z" fill="#fed100"/><path d="M-147.292 1086.949c-6.72 15.023-12.101 29.69-17.375 44.782h-216.625c-5.098-14.589-10.297-30.282-16.708-44.782 0 0 13.482 18.865 23.579 23.427 5.608 2.534 12.622 3.29 18.42 1.228 7.642-2.717 17.808-16.58 17.808-16.58s9.14 10.7 15.35 13.51c5.83 2.637 12.645 2.745 19.036 2.456 5.655-.256 11.92-.469 16.579-3.684 7.055-4.87 14.123-21.492 14.123-21.492s6.838 13.078 12.28 17.807c4.492 3.903 10.131 6.816 15.965 7.983 5.835 1.167 12.21.79 17.808-1.228 7.587-2.736 19.649-14.123 19.649-14.123s8.301 10.296 14.123 12.895c5.635 2.515 12.414 3.255 18.42 1.842 6.358-1.496 11.699-6.1 16.58-10.439 4.356-3.872 10.988-13.602 10.988-13.602z" fill="none" stroke="#000" transform="matrix(.47943 0 0 .51643 1255.715 -368.585)"/><path d="M1125 197.14s-2.368 3.926-3.824 5.267c-2.023 1.864-3.353 2.986-5.95 3.868-2.593.88-6.21 1.376-8.925 1.216-2.626-.155-5.328-.975-7.694-2.21-2.057-1.074-5.335-4.2-5.335-4.2-1.593 2.227-3.622 3.791-5.553 4.947-2.47 1.478-4.909 1.611-7.472 1.463-5.21-.303-10.07-3.809-13.97-10.917-2.527-6.44-5.435-12.962-9.066-19.8 4.185-1.596 9.062-2.446 14.472-2.722-2.2 6.678-4.483 13.183-3.675 18.558 4.545-3.666 6.015-8.658 7.58-13.61l5.284 20.044c-3.207-.606-1.501-1.32-9.923-3.039 1.687 3.427 5.55 7.66 9.81 8.076 2.864.28 4.943-.672 6.763-2.373 1.308-1.222 2.5-2.838 2.485-4.658l-.027-3.128c-.006-.67-.773-1.618-1.395-1.627-.593-.009-.756 1.027-.915 1.642-.316 1.23.32 2.601 0 3.831-.351 1.356-1.026 2.427-2.134 3.174-.922.623-3.15.767-3.15.767l.711-2.956c.502-2.085-1.377-3.703-1.829-5.801-.29-1.35-.451-2.861 0-4.16.489-1.404 1.477-2.772 2.744-3.393.463-.227 1.018-.258 1.524-.219.717.055 2.134.547 2.134.547s-.406-2.112-.304-3.393c.123-1.553 1.344-4.43 2.032-5.801 1.142-2.278 2.957-4.33 3.164-4.55.2.215 2.167 2.188 3.453 4.375.775 1.316 1.57 3.22 1.793 4.76.184 1.269.118 3.954.118 3.954s2.093-.926 2.805-1.034c.503-.077 1.058-.087 1.534.104 1.305.525 2.379 1.815 2.957 3.18.534 1.261.471 2.78.268 4.149-.315 2.127-1.475 3.773-.84 5.815l.9 2.895s-2.23.024-3.191-.528c-1.154-.663-1.896-1.68-2.334-3.007-.398-1.203-.167-2.676-.858-3.712-.305-.459-.732-.966-1.323-.913-.62.056-1.054 1.146-1.08 1.816l-.11 2.815c-.034.865.332 1.764.762 2.464 1.053 1.714 2.621 2.754 4.39 3.527 1.917.836 3.645 1.158 5.712 1.184 1.725.021 4.722-.283 6.356-.878 2.014-.732 3.198-1.663 4.755-3.22.878-.878 1.465-2.153 1.85-3.374.446-1.406.286-3.834.286-3.834-2.004.818-3.745 1.918-5.315 3.202-1.774 1.452-3.329 3.14-4.794 4.926l-.142-24.23c2.087 2.48 3.604 4.7 5.69 6.568 1.758 1.573 2.661 2.172 4.418 2.787-.502-1.95-.671-3.132-1.967-5.081-1.796-2.703-3.546-5.605-5.72-8.307 4.004-.719 8.007-.912 12.065-.912s8.06.193 12.066.912c-2.175 2.702-3.925 5.604-5.721 8.307-1.296 1.949-1.465 3.131-1.967 5.08 1.757-.614 2.66-1.213 4.417-2.786 2.087-1.867 3.604-4.088 5.691-6.568l-.142 24.23c-1.465-1.785-3.02-3.474-4.794-4.926-1.57-1.284-3.311-2.384-5.315-3.202 0 0-.16 2.428.285 3.834.386 1.221.973 2.496 1.85 3.374 1.558 1.557 2.742 2.488 4.756 3.22 1.634.595 4.631.9 6.356.878 2.067-.026 3.795-.348 5.712-1.184 1.769-.773 3.337-1.813 4.39-3.527.43-.7.796-1.6.762-2.464l-.11-2.815c-.025-.67-.46-1.76-1.08-1.816-.59-.053-1.018.454-1.323.913-.69 1.036-.46 2.509-.858 3.712-.438 1.326-1.18 2.344-2.333 3.007-.961.552-3.193.528-3.193.528l.901-2.895c.635-2.042-.525-3.688-.84-5.815-.203-1.37-.266-2.888.268-4.15.578-1.364 1.652-2.654 2.957-3.179.476-.191 1.031-.18 1.534-.104.712.108 2.805 1.034 2.805 1.034s-.066-2.685.118-3.955c.224-1.54 1.018-3.443 1.793-4.76 1.286-2.186 3.254-4.159 3.453-4.374.207.22 2.022 2.272 3.164 4.55.688 1.371 1.909 4.248 2.033 5.801.101 1.28-.305 3.393-.305 3.393s1.417-.492 2.134-.547c.506-.039 1.061-.008 1.524.219 1.267.621 2.255 1.989 2.744 3.393.451 1.299.29 2.81 0 4.16-.452 2.098-2.331 3.716-1.83 5.801l.712 2.956s-2.228-.144-3.15-.767c-1.108-.747-1.783-1.818-2.134-3.174-.32-1.23.316-2.6 0-3.831-.159-.615-.322-1.65-.915-1.642-.622.01-1.389.957-1.395 1.627l-.027 3.128c-.015 1.82 1.177 3.436 2.485 4.658 1.82 1.7 3.9 2.654 6.763 2.373 4.26-.416 8.123-4.649 9.81-8.076-8.422 1.72-6.716 2.433-9.923 3.04L1174.41 179c1.566 4.95 3.036 9.943 7.581 13.61.808-5.376-1.475-11.881-3.675-18.56 5.41.277 10.287 1.127 14.472 2.723-3.631 6.838-6.539 13.36-9.067 19.8-3.898 7.108-8.759 10.614-13.969 10.917-2.563.148-5.003.015-7.472-1.463-1.931-1.156-3.96-2.72-5.553-4.947 0 0-3.278 3.126-5.335 4.2-2.366 1.235-5.068 2.055-7.694 2.21-2.715.16-6.332-.335-8.925-1.216-2.597-.882-3.927-2.004-5.95-3.868-1.456-1.341-3.824-5.268-3.824-5.268z" fill="#fed100"/><path d="M1080.247 207.49c-5.21-.302-10.07-3.808-13.97-10.916-2.527-6.44-5.435-12.962-9.066-19.8 4.185-1.596 9.062-2.446 14.472-2.722-2.2 6.678-4.483 13.183-3.675 18.558 4.545-3.666 6.015-8.658 7.58-13.61l5.284 20.044c-3.207-.606-1.501-1.32-9.923-3.039 1.687 3.427 5.55 7.66 9.81 8.076l-.512 3.41zm88.994-3.409c4.26-.416 8.123-4.649 9.81-8.076-8.422 1.72-6.716 2.433-9.923 3.04L1174.41 179c1.566 4.95 3.036 9.943 7.581 13.61.808-5.376-1.475-11.881-3.675-18.56 5.41.277 10.287 1.127 14.472 2.723-3.631 6.838-6.539 13.36-9.067 19.8-3.898 7.108-8.759 10.614-13.969 10.917l-.1.198-.412-3.608z" fill="#fed100"/><path d="M1106.3 207.49c-2.625-.154-5.327-.974-7.693-2.21-2.057-1.073-5.335-4.199-5.335-4.199-1.593 2.227-3.622 3.791-5.553 4.947-2.47 1.478-4.909 1.611-7.472 1.463l-.09.967.602-4.377c2.864.28 4.943-.672 6.763-2.373 1.308-1.222 2.5-2.838 2.485-4.658l-.027-3.128c-.006-.67-.773-1.618-1.395-1.627-.593-.009-.756 1.027-.915 1.642-.316 1.23.32 2.601 0 3.831-.351 1.356-1.026 2.427-2.134 3.174-.922.623-3.15.767-3.15.767l.711-2.956c.502-2.085-1.377-3.703-1.829-5.801-.29-1.35-.451-2.861 0-4.16.489-1.404 1.477-2.772 2.744-3.393.463-.227 1.018-.258 1.524-.219.717.055 2.134.547 2.134.547s-.406-2.112-.304-3.393c.123-1.553 1.344-4.43 2.032-5.801 1.142-2.278 2.957-4.33 3.164-4.55.2.215 2.167 2.188 3.453 4.375.775 1.316 1.57 3.22 1.793 4.76.184 1.269.118 3.954.118 3.954s2.093-.926 2.805-1.034c.503-.077 1.058-.087 1.534.104 1.305.525 2.379 1.815 2.957 3.18.534 1.261.471 2.78.268 4.149-.315 2.127-1.475 3.773-.84 5.815l.9 2.895s-2.23.024-3.191-.528c-1.154-.663-1.896-1.68-2.334-3.007-.398-1.203-.167-2.676-.858-3.712-.305-.459-.732-.966-1.323-.913-.62.056-1.054 1.146-1.08 1.816l-.11 2.815c-.034.865.332 1.764.762 2.464 1.053 1.714 2.621 2.754 4.39 3.527 1.917.836 3.645 1.158 5.712 1.184l-1.217 3.664z" fill="#fed100"/><path d="M1157.984 196.976l-.06-.108c-.073-1.327.344-3.6.344-3.6.232-1.13 1.132-2.34 2.247-2.775.602-.234 1.331-.324 1.978.016.394.208.712.369.974.662.261.293.424.678.6 1.226.256.803.144 1.64.014 2.357-.214 1.182-.19 2.217.12 3.017.22.566.66.99 1.229 1.356-.106-.405-.182-.6-.24-1.049a4.007 4.007 0 0 1 .255-1.953c.411-1.047.979-1.873 1.363-2.792.366-.876.558-1.87.494-2.808-.052-.774-.264-1.574-.674-2.13-.444-.603-1.122-1.104-1.798-1.243-.601-.123-1.59.097-2.382.372-.793.274-1.393.58-1.393.58l-.704.356.12-.823c.411-2.769.775-4.174 0-6.762-.32-1.065-.852-2.239-1.753-3.6-.438-.66-.927-1.449-1.484-2.178-1.451 1.78-2.463 3.584-3.041 5.406-.633 1.996-.658 4.648-.51 6.778l.06.856-.674-.436s-.766-.506-1.693-.984c-.926-.479-2.055-.9-2.532-.856-.898.085-1.498.548-2.082 1.356-.496.686-.603 1.28-.704 2.227-.064.598.075 1.722.164 2.453.105.857.573 1.758.705 2.84.043.358.146.64.224.985.078.345.118.751.03 1.226-.06.329-.15.566-.27.969.23-.12.388-.18.51-.275.444-.344.625-.954.914-1.694.155-.399.19-.756.21-1.178.02-.422.039-.918.24-1.469.342-.94.745-2.057 1.632-2.743a2.77 2.77 0 0 1 2.547-.436c.504.167.865.502 1.124.887.26.386.433.807.614 1.227.232.537.37 1.341.48 2.05.109.708.165 1.307.165 1.307l.015.064-.015.08-.62 2.217-.789-.191.6-2.12a33.33 33.33 0 0 0-.165-1.21c-.105-.682-.264-1.497-.405-1.824-.185-.43-.352-.803-.54-1.081-.186-.278-.376-.456-.703-.565-.587-.194-1.348-.076-1.843.307-.629.485-1.01 1.425-1.349 2.356-.147.404-.16.768-.18 1.194-.02.426-.04.922-.254 1.469-.265.677-.484 1.512-1.199 2.065-.526.408-1.483.807-1.483.807l-.839.372.3-.92s.422-1.35.51-1.824c.06-.328.035-.565-.03-.855-.066-.29-.185-.627-.24-1.082-.105-.856-.573-1.757-.705-2.84-.086-.706-.254-1.821-.164-2.663.104-.981.257-1.834.869-2.679.669-.925 1.517-1.571 2.651-1.678.897-.085 2 .437 2.967.936.622.321.811.469 1.124.662-.102-2.045-.071-4.404.554-6.375.662-2.09 1.798-4.15 3.52-6.149l.3-.339.3.34c.8.928 1.348 1.947 1.843 2.694.943 1.424 1.527 2.687 1.873 3.841.74 2.473.469 4.16.12 6.44.272-.124.368-.193.838-.356.848-.293 1.88-.57 2.772-.387.911.188 1.733.789 2.292 1.55.556.754.794 1.719.854 2.614.075 1.11-.152 2.247-.569 3.244-.43 1.031-1 1.853-1.363 2.775-.183.465-.272 1.004-.21 1.485.093.72.45 1.888.45 1.888l.254.823-.779-.274c-1.244-.455-2.058-1.278-2.457-2.308-.4-1.03-.397-2.233-.165-3.518.122-.675.187-1.35.015-1.888-.16-.499-.275-.743-.42-.904-.143-.161-.365-.282-.748-.484-.355-.187-.902-.158-1.349.016-.74.289-1.627 1.357-1.708 2.114-.142 1.337-.494 2.697-1.093 3.544zm23.372-1.575l.21-.452-.45-.162c-3.346-1.141-6.436-.277-9.349 1.05a73.654 73.654 0 0 0 2.712-10.394c3.176 6.147 5.87 8.158 8.405 9.409l.464.226.105-.549c.756-4.197.815-9.789-2.382-18.107 3.582.2 7.145.663 10.682 2.356l.33-.807c-3.884-1.859-7.764-2.32-11.596-2.501l-.66-.032.27.645c3.283 8.21 3.284 13.552 2.622 17.672-2.435-1.277-4.9-3.204-8.045-9.667l-.555-1.13-.21 1.259c-.683 4.074-1.75 8.154-3.19 12.233l-.36 1 .899-.452c2.942-1.438 5.917-2.374 9.124-1.468l.079.053.895-.182zm-111.738.129c3.203-.9 6.17.032 9.11 1.468l.898.452-.344-1c-1.442-4.079-2.508-8.16-3.192-12.233l-.21-1.259-.554 1.13c-3.147 6.465-5.624 8.39-8.06 9.667-.662-4.12-.646-9.462 2.637-17.672l.254-.645-.644.032c-3.832.18-7.712.642-11.596 2.501l.33.807c3.542-1.695 7.095-2.156 10.682-2.356-3.197 8.319-3.138 13.91-2.382 18.107l.09.549.48-.226c2.531-1.25 5.231-3.256 8.404-9.393a73.709 73.709 0 0 0 2.712 10.377c-2.913-1.326-6.003-2.19-9.349-1.049l-.45.162.21.452-.087.047 1.061.082zm26.313 1.95l-.469-1.886c.009-.08.054-.532.15-1.161.105-.683.279-1.497.42-1.824.185-.43.352-.803.54-1.081.186-.279.376-.457.703-.565.587-.195 1.333-.076 1.828.306.629.486 1.025 1.426 1.364 2.357.147.404.16.768.18 1.194.02.426.04.921.254 1.468.265.678.484 1.513 1.199 2.066.527.408 1.483.807 1.483.807l.824.371-.285-.92s-.422-1.35-.51-1.823a1.943 1.943 0 0 1 .03-.856c.066-.29.17-.627.226-1.08.104-.858.572-1.758.704-2.841.086-.706.27-1.821.18-2.663-.105-.982-.258-1.834-.87-2.679-.669-.926-1.517-1.571-2.651-1.678-.897-.085-2 .436-2.967.936-.622.32-.811.468-1.124.661.102-2.045.071-4.403-.554-6.374-.662-2.09-1.797-4.15-3.52-6.15l-.3-.338-.3.339c-.8.928-1.363 1.948-1.858 2.695-.943 1.424-1.512 2.687-1.858 3.841-.74 2.473-.469 4.16-.12 6.44-.272-.125-.363-.191-.838-.356-.848-.293-1.88-.57-2.772-.387-.911.187-1.732.789-2.292 1.55-.556.754-.794 1.718-.854 2.613-.075 1.11.152 2.247.569 3.244.43 1.032 1 1.854 1.363 2.776a3.1 3.1 0 0 1 .195 1.485c-.093.72-.434 1.888-.434 1.888l-.255.823.779-.274c1.244-.455 2.058-1.278 2.457-2.308.4-1.03.398-2.233.165-3.518-.122-.675-.187-1.35-.015-1.888.16-.499.275-.743.42-.904.143-.161.35-.282.734-.484.354-.187.916-.158 1.363.016.74.289 1.549 1.368 1.708 2.114v.016c.004.021.386 2.328.33 3.373l.961.183c-.08-1.462-.497-3.733-.497-3.733-.232-1.131-1.117-2.341-2.232-2.776-.602-.235-1.346-.325-1.993.016-.394.208-.697.369-.959.661-.261.293-.439.678-.614 1.227-.257.802-.145 1.639-.015 2.356.214 1.183.19 2.217-.12 3.018-.22.565-.645.99-1.214 1.356.106-.405.182-.6.24-1.05a4.007 4.007 0 0 0-.255-1.952c-.411-1.047-.979-1.873-1.363-2.792-.366-.876-.573-1.87-.51-2.808.053-.774.265-1.574.675-2.13.444-.604 1.137-1.104 1.813-1.243.601-.124 1.574.097 2.367.371.793.275 1.408.581 1.408.581l.704.355-.134-.823c-.412-2.768-.761-4.173.015-6.762.319-1.064.836-2.238 1.737-3.599.438-.66.941-1.449 1.499-2.178 1.45 1.78 2.463 3.584 3.041 5.406.633 1.995.643 4.648.495 6.778l-.045.855.674-.435s.751-.507 1.678-.985c.926-.478 2.07-.9 2.547-.855.898.085 1.498.547 2.082 1.356.496.686.603 1.28.704 2.227.064.597-.09 1.722-.18 2.453-.104.856-.557 1.757-.688 2.84-.044.358-.147.639-.225.984a2.967 2.967 0 0 0-.045 1.227c.06.328.15.566.27.968-.23-.12-.388-.18-.51-.274-.444-.344-.625-.954-.914-1.695-.155-.398-.175-.756-.195-1.178-.02-.422-.039-.918-.24-1.468-.342-.94-.744-2.058-1.632-2.744a2.77 2.77 0 0 0-2.547-.436 2.22 2.22 0 0 0-1.139.888c-.26.386-.418.807-.6 1.227-.231.537-.37 1.34-.479 2.05-.109.707-.18 1.306-.18 1.306v.065l.015.08.484 1.935.238.028.556-.221zm31.01-7.147l.014-.548.495.129c2.28.615 4.022 1.447 5.468 2.372 1.835 1.173 3.19 2.49 4.615 3.76l.24-14.573c-1.215 1.444-2.355 2.991-4.03 4.229-1.37 1.01-3.937 2.338-6.338 2.63l-.57.065.12-.597c.338-1.643.328-2.783 1.094-4.729.726-1.846 2.257-4.522 5.304-9.005-2.635-.314-4.93-.662-8.36-.662-3.43 0-5.712.348-8.346.662 3.047 4.483 4.578 7.16 5.304 9.005.766 1.946.756 3.086 1.094 4.729l.12.597-.57-.065c-2.401-.292-4.968-1.62-6.337-2.63-1.67-1.233-2.821-2.773-4.03-4.213l.24 14.541c1.418-1.266 2.786-2.575 4.614-3.744 1.446-.925 3.174-1.757 5.453-2.372l.51-.13v.55l-.821.618c-1.925.584-3.464 1.288-4.723 2.093-2.015 1.288-3.47 2.793-5.184 4.26l-.644.549-.015-.888-.254-16.622-.03-1.098.719.775c1.581 1.718 2.766 3.59 4.614 4.954 1.14.842 3.374 1.966 5.424 2.357-.229-1.324-.33-2.36-.944-3.922-.72-1.83-2.203-4.514-5.588-9.44l-.42-.614.704-.08c2.918-.326 5.324-.76 9.11-.76v.001c3.785 0 6.192.433 9.109.758l.719.081-.42.613c-3.385 4.928-4.883 7.61-5.603 9.441-.617 1.569-.699 2.607-.929 3.938 2.05-.39 4.269-1.53 5.409-2.372 1.848-1.364 3.048-3.237 4.63-4.955l.703-.774-.015 1.097-.27 16.623v.887l-.658-.549c-1.713-1.467-3.154-2.972-5.17-4.26-1.258-.805-2.797-1.509-4.719-2.082l-.839-.63z" style="text-indent:0;text-align:start;line-height:normal;text-transform:none;block-progression:tb;marker:none;-inkscape-font-specification:Bitstream Vera Sans" font-weight="400" color="#000" overflow="visible" font-family="Bitstream Vera Sans"/><path d="M-272.646 1095.46s-4.94 7.603-7.977 10.201c-4.218 3.608-6.992 5.781-12.41 7.49-5.409 1.704-12.953 2.663-18.616 2.353-5.477-.3-11.112-1.888-16.048-4.28-4.29-2.078-11.127-8.13-11.127-8.13-3.323 4.311-7.555 7.34-11.582 9.578-5.15 2.862-10.24 3.12-15.586 2.832-10.867-.586-21.005-7.374-29.137-21.138-5.273-12.47-11.337-25.099-18.912-38.341 8.73-3.09 18.903-4.736 30.187-5.27-4.59 12.93-9.35 25.527-7.666 35.936 9.48-7.1 12.547-16.767 15.812-26.354l11.02 38.812c-6.689-1.173-3.131-2.555-20.698-5.885 3.52 6.637 11.578 14.832 20.462 15.639 5.974.542 10.31-1.303 14.107-4.597 2.728-2.366 5.215-5.495 5.182-9.02l-.056-6.055c-.012-1.297-1.613-3.133-2.91-3.151-1.235-.017-1.577 1.988-1.907 3.18-.66 2.382.665 5.036 0 7.418-.734 2.626-2.14 4.7-4.451 6.146-1.925 1.206-6.57 1.484-6.57 1.484l1.483-5.723c1.047-4.037-2.873-7.17-3.815-11.233-.607-2.616-.942-5.54 0-8.055 1.018-2.72 3.079-5.367 5.722-6.57.965-.44 2.123-.5 3.18-.424 1.495.106 4.45 1.06 4.45 1.06s-.847-4.091-.635-6.571c.258-3.008 2.805-8.578 4.24-11.234 2.38-4.41 6.168-8.383 6.6-8.81.414.417 4.519 4.237 7.202 8.471 1.615 2.55 3.272 6.234 3.738 9.216.385 2.459.247 7.659.247 7.659s4.366-1.793 5.85-2.003c1.05-.148 2.209-.17 3.201.202 2.721 1.016 4.961 3.514 6.167 6.156 1.114 2.443.983 5.384.56 8.035-.658 4.119-3.078 7.306-1.753 11.26l1.878 5.606s-4.654.046-6.658-1.023c-2.405-1.283-3.953-3.254-4.868-5.822-.829-2.33-.348-5.183-1.787-7.189-.637-.887-1.529-1.87-2.76-1.767-1.293.108-2.2 2.22-2.255 3.516l-.228 5.451c-.07 1.675.693 3.416 1.59 4.77 2.197 3.321 5.467 5.335 9.157 6.83 3.997 1.62 7.601 2.243 11.913 2.293 3.598.042 9.85-.547 13.258-1.698 4.2-1.419 6.67-3.221 9.918-6.236 1.83-1.7 3.054-4.169 3.86-6.533.928-2.724.594-7.424.594-7.424-4.178 1.583-7.811 3.713-11.086 6.2-3.7 2.812-6.943 6.081-9.998 9.538l-.297-46.919c4.353 4.802 7.518 9.103 11.87 12.719 3.665 3.045 5.549 4.206 9.214 5.396-1.047-3.775-1.4-6.064-4.103-9.839-3.747-5.233-7.396-10.852-11.933-16.085 8.354-1.391 16.702-1.766 25.167-1.766s16.813.375 25.167 1.766c-4.537 5.233-8.186 10.852-11.933 16.085-2.702 3.775-3.056 6.064-4.103 9.839 3.665-1.19 5.549-2.351 9.214-5.396 4.353-3.616 7.517-7.917 11.87-12.719l-.297 46.92c-3.055-3.458-6.297-6.727-9.998-9.539-3.274-2.487-6.907-4.617-11.086-6.2 0 0-.334 4.7.594 7.424.806 2.364 2.03 4.833 3.86 6.533 3.25 3.015 5.719 4.817 9.918 6.236 3.409 1.151 9.66 1.74 13.258 1.698 4.312-.05 7.917-.673 11.913-2.292 3.69-1.496 6.96-3.51 9.158-6.83.897-1.355 1.66-3.096 1.59-4.77l-.229-5.452c-.054-1.296-.962-3.408-2.254-3.516-1.232-.103-2.123.88-2.76 1.767-1.44 2.006-.959 4.86-1.788 7.189-.915 2.568-2.463 4.539-4.868 5.822-2.004 1.069-6.658 1.023-6.658 1.023l1.878-5.606c1.325-3.954-1.095-7.141-1.753-11.26-.423-2.651-.553-5.592.56-8.035 1.206-2.642 3.446-5.14 6.167-6.156.993-.371 2.152-.35 3.201-.202 1.484.21 5.85 2.003 5.85 2.003s-.137-5.2.247-7.659c.466-2.982 2.123-6.666 3.739-9.216 2.682-4.234 6.787-8.054 7.202-8.471.432.427 4.219 4.4 6.6 8.81 1.434 2.656 3.982 8.226 4.24 11.234.212 2.48-.637 6.57-.637 6.57s2.957-.953 4.452-1.06c1.057-.074 2.214-.014 3.179.425 2.643 1.203 4.704 3.85 5.723 6.57.941 2.514.607 5.44 0 8.055-.943 4.063-4.862 7.196-3.815 11.233l1.483 5.723s-4.646-.278-6.57-1.484c-2.31-1.447-3.718-3.52-4.452-6.146-.665-2.382.66-5.036 0-7.419-.33-1.19-.671-3.196-1.907-3.18-1.297.019-2.898 1.855-2.91 3.152l-.056 6.056c-.032 3.524 2.455 6.653 5.182 9.02 3.798 3.293 8.134 5.138 14.107 4.596 8.884-.807 16.942-9.003 20.462-15.64-17.566 3.33-14.009 4.713-20.698 5.886l11.02-38.812c3.266 9.587 6.332 19.253 15.813 26.354 1.684-10.409-3.077-23.006-7.667-35.937 11.284.535 21.457 2.181 30.187 5.27-7.574 13.243-13.639 25.872-18.912 38.342-8.132 13.764-18.27 20.552-29.137 21.138-5.346.288-10.435.03-15.585-2.832-4.028-2.238-8.26-5.267-11.583-9.579 0 0-6.836 6.053-11.127 8.132-4.936 2.391-10.57 3.979-16.048 4.28-5.662.31-13.207-.65-18.616-2.355-5.418-1.708-8.192-3.881-12.41-7.489-3.037-2.598-7.977-10.2-7.977-10.2z" fill="none" stroke="#000" transform="matrix(.47943 0 0 .51643 1255.715 -368.585)"/><g stroke-width="1.607" fill="#fff" stroke="#000"><path d="M2700.19 785.026a10.489 10.66 0 1 1-20.977 0 10.489 10.66 0 1 1 20.977 0z" transform="matrix(.35097 0 0 .37805 181.001 -107.784)" style="marker:none" overflow="visible"/><path d="M2700.19 785.026a10.489 10.66 0 1 1-20.977 0 10.489 10.66 0 1 1 20.977 0z" transform="matrix(.35097 0 0 .37805 122.758 -102.24)" style="marker:none" overflow="visible"/><path d="M2700.19 785.026a10.489 10.66 0 1 1-20.977 0 10.489 10.66 0 1 1 20.977 0z" transform="matrix(-.35097 0 0 .37805 2127.242 -102.24)" style="marker:none" overflow="visible"/></g><path d="M1089.548 194.95l8.092-.473 1.151 1.901-.953 2.024-8.092.473-1.395-1.887 1.197-2.038z" fill="#fed100"/><path d="M-346.459 1090.707h16.902l2.2 3.807-2.2 3.806h-16.902l-2.706-3.806 2.706-3.807z" fill="none" stroke="#000" transform="matrix(.47873 -.02798 .02598 .51567 1227.073 -377.187)"/><path d="M1160.452 194.95l-8.092-.473-1.151 1.901.954 2.024 8.091.473 1.395-1.887-1.197-2.038z" fill="#f6e078"/><path d="M-346.459 1090.707h16.902l2.2 3.807-2.2 3.806h-16.902l-2.706-3.806 2.706-3.807z" fill="#fed100" stroke="#000" transform="matrix(-.47873 -.02798 -.02598 .51567 1022.927 -377.187)"/><path d="M1073.903 228.794s5.78-.457 15.964-1.076c10.184-.62 21.095-.945 26.66-.945h16.967c5.39 0 16.558.325 26.66.945 10.102.619 15.848 1.138 15.848 1.138l3.542-17.045s-36.293-3.527-54.533-3.527c-18.24 0-54.534 3.527-54.534 3.527l3.426 16.983z" fill="#fed100" fill-rule="evenodd"/><path d="M496.5 341.725a1029.03 1029.03 0 0 1 113.864 6.235l-6.928 33.312c-37.64-3.379-68.45-4.283-106.509-4.58m.504-34.967a1029.03 1029.03 0 0 0-113.863 6.235l6.928 33.312c37.64-3.379 68.45-4.283 106.51-4.58" fill="none" stroke="#000" transform="matrix(.47943 0 0 .51643 886.739 31.994)"/><g stroke-width="1.33" font-weight="400" color="#000" font-family="Bitstream Vera Sans"><path d="M1089.697 208.884l-.015.012h-.015c-6.48.502-13.981 1.05-20.526 2.01-.925 1.192-1.002 2.279.682 3.148 6.283-.922 13.692-1.483 20.177-1.986a513.911 513.911 0 0 1 26.51-.986h16.965c5.292 0 16.466.347 26.51.999 9.997.648 20.207 1.973 20.207 1.973 1.742-.959 1.553-2.03.606-3.147 0 0-10.304-1.362-20.51-2.023-10.16-.66-21.321-1-26.813-1h-16.966c-8.95.03-17.887.484-26.812 1z" style="text-indent:0;text-align:start;line-height:normal;text-transform:none;block-progression:tb;marker:none;-inkscape-font-specification:Bitstream Vera Sans" fill="#fed100" overflow="visible"/><path d="M-644.322 561.769l-.031.03h-.032c-13.369 1.258-28.842 2.629-42.343 5.032-1.91 2.982-2.068 5.7 1.406 7.875 12.963-2.307 28.246-3.711 41.625-4.969 18.145-1.374 36.44-2.233 54.687-2.468h35c10.916 0 33.969.87 54.688 2.5 20.625 1.622 41.687 4.937 41.687 4.937 3.595-2.398 3.204-5.08 1.25-7.875 0 0-21.257-3.406-42.312-5.062-20.96-1.65-43.984-2.5-55.313-2.5h-35c-18.464.072-36.9 1.21-55.312 2.5z" style="text-indent:0;text-align:start;line-height:normal;text-transform:none;block-progression:tb;marker:none;-inkscape-font-specification:Bitstream Vera Sans" fill="none" stroke="#000" overflow="visible" transform="matrix(.48474 0 0 .39963 1402.026 -15.614)"/></g><g stroke-width="1.379" font-weight="400" color="#000" font-family="Bitstream Vera Sans"><path d="M1092.175 226.643l-.014.012h-.014c-6.026.502-13 1.05-19.086 2.01-.86 1.192-.931 2.279.634 3.148 5.843-.922 12.731-1.483 18.762-1.986a444.45 444.45 0 0 1 24.648-.987h15.776c4.92 0 15.31.348 24.648 1 9.296.648 18.79 1.973 18.79 1.973 1.62-.959 1.444-2.03.563-3.147 0 0-9.581-1.362-19.071-2.023-9.447-.66-19.825-1-24.93-1h-15.776c-8.322.03-16.632.484-24.93 1z" style="text-indent:0;text-align:start;line-height:normal;text-transform:none;block-progression:tb;marker:none;-inkscape-font-specification:Bitstream Vera Sans" fill="#fed100" overflow="visible"/><path d="M-644.322 561.769l-.031.03h-.032c-13.369 1.258-28.842 2.629-42.343 5.032-1.91 2.982-2.068 5.7 1.406 7.875 12.963-2.307 28.246-3.711 41.625-4.969 18.145-1.374 36.44-1.778 54.687-2.013h35c10.916 0 33.969.415 54.688 2.045 20.625 1.622 41.687 4.937 41.687 4.937 3.595-2.398 3.204-5.08 1.25-7.875 0 0-21.257-3.406-42.312-5.062-20.96-1.65-43.984-2.045-55.313-2.045h-35c-18.464.072-36.9.754-55.312 2.045z" style="text-indent:0;text-align:start;line-height:normal;text-transform:none;block-progression:tb;marker:none;-inkscape-font-specification:Bitstream Vera Sans" fill="none" stroke="#000" overflow="visible" transform="matrix(.45072 0 0 .39963 1382.584 2.145)"/></g><g stroke-width="2.66" transform="matrix(.24237 0 0 .19981 425.802 47.784)"><rect width="89.493" height="59.169" ry="3.006" x="2840.095" y="823.565" style="marker:none" fill="none" stroke="#000" overflow="visible"/><rect width="70.263" height="43.637" ry="5.177" x="2849.709" y="831.331" style="marker:none" fill="#00247d" fill-rule="evenodd" stroke="#a0892c" overflow="visible"/><path d="M2918.46 873.455a5.16 5.16 0 0 1-3.665 1.513h-59.908a5.16 5.16 0 0 1-3.665-1.513 5.161 5.161 0 0 1-1.513-3.664v-33.283a5.16 5.16 0 0 1 1.514-3.664c.935-.936 68.172 39.675 67.236 40.611z" style="marker:none" fill="#2b96f6" fill-rule="evenodd" stroke="#a0892c" overflow="visible"/><path d="M2918.46 873.455a5.16 5.16 0 0 1-3.665 1.513h-59.908a5.16 5.16 0 0 1-3.665-1.513 5.161 5.161 0 0 1-1.513-3.664v-33.283a5.16 5.16 0 0 1 1.514-3.664c.475-.475 18.04 9.759 35.096 20.073 16.54 10.001 32.6 20.077 32.14 20.538z" style="marker:none" fill="#00247d" fill-rule="evenodd" stroke="#000" overflow="visible"/><path d="M2918.46 832.844a5.161 5.161 0 0 1 1.512 3.664v33.283a5.161 5.161 0 0 1-1.513 3.664 5.16 5.16 0 0 1-3.664 1.513h-59.908a5.16 5.16 0 0 1-3.665-1.513c-.935-.936 66.301-41.547 67.237-40.61z" style="marker:none" fill="#00247d" fill-rule="evenodd" stroke="#000" overflow="visible"/><path d="M2918.46 873.455a5.16 5.16 0 0 1-3.665 1.513h-59.908a5.16 5.16 0 0 1-3.665-1.513c-.474-.475 16.6-11.163 33.661-21.457 0 0 34.512 20.521 33.576 21.457z" style="marker:none" fill="#00247d" fill-rule="evenodd" stroke="#000" overflow="visible"/><rect width="70.263" height="43.637" ry="5.177" x="2849.709" y="831.331" style="marker:none" fill="none" stroke="#000" overflow="visible"/><rect width="39.367" height="22.304" ry="0" x="2865.157" y="841.292" style="marker:none" fill="#00247d" fill-rule="evenodd" stroke="#000" overflow="visible"/></g><g transform="matrix(.41505 -.04393 .06519 .39777 861.156 101.564)" stroke-width="1.428"><rect width="35.829" height="22.674" ry="10.771" x="494.629" y="340.211" style="marker:none" fill="#fed100" fill-rule="evenodd" stroke="#000" overflow="visible"/><rect width="29.954" height="16.542" ry="8.271" x="497.566" y="343.276" style="marker:none" fill="#306947" fill-rule="evenodd" overflow="visible"/><rect width="29.954" height="16.542" ry="8.271" x="497.566" y="343.276" style="marker:none" fill="none" stroke="#000" overflow="visible"/></g><g stroke-width="1.361"><path d="M626.165 310.883l-23.7-12.77 23.7-12.082 2.882 13.146-2.882 11.706z" fill="#fed100" stroke="#000" transform="matrix(-.39224 .07376 .07415 .45756 1295.153 38.379)"/><path d="M1072.346 225.247l6.053-5.504-7.39-2.74-1.582 4.342 2.919 3.902z" fill="#cf142b"/><path d="M1072.346 225.247l6.053-5.504-8.902 1.589 2.849 3.915z" fill="#cf142b"/><path d="M452.404 250.56l22.954-.024" transform="matrix(-.39224 .07376 .07415 .45756 1237.283 71.695)" fill="none" stroke="#000"/><path d="M626.165 307.466l-17.182-9.259 17.182-8.759 5.837 8.399-5.837 9.619z" fill="none" stroke="#000" transform="matrix(-.39224 .07376 .07415 .45756 1295.153 38.379)"/></g><g stroke-width="1.452" fill="#fff" stroke="#000"><path d="M2700.19 785.026a10.489 10.66 0 1 1-20.977 0 10.489 10.66 0 1 1 20.977 0z" transform="matrix(.17475 0 0 .18824 638.888 67.424)" style="marker:none" overflow="visible" stroke-width="3.228"/><path d="M2700.19 785.026a10.489 10.66 0 1 1-20.977 0 10.489 10.66 0 1 1 20.977 0z" transform="matrix(.17475 0 0 .18824 639.263 73.719)" style="marker:none" stroke-width="3.226" overflow="visible"/><g stroke-width="3.228"><path d="M2700.19 785.026a10.489 10.66 0 1 1-20.977 0 10.489 10.66 0 1 1 20.977 0z" transform="matrix(.17475 0 0 .18824 614.228 68.877)" style="marker:none" overflow="visible"/><path d="M2700.19 785.026a10.489 10.66 0 1 1-20.977 0 10.489 10.66 0 1 1 20.977 0z" transform="matrix(.17475 0 0 .18824 614.603 75.171)" style="marker:none" overflow="visible"/></g></g><g transform="matrix(-.41505 -.04393 -.06519 .39777 1388.844 101.564)" stroke-width="1.428"><rect width="35.829" height="22.674" ry="10.771" x="494.629" y="340.211" style="marker:none" fill="#fed100" fill-rule="evenodd" stroke="#000" overflow="visible"/><rect width="29.954" height="16.542" ry="8.271" x="497.566" y="343.276" style="marker:none" fill="#306947" fill-rule="evenodd" overflow="visible"/><rect width="29.954" height="16.542" ry="8.271" x="497.566" y="343.276" style="marker:none" fill="none" stroke="#000" overflow="visible"/></g><g stroke-width="1.361"><path d="M626.165 310.883l-23.7-12.77 23.7-12.082 2.882 13.146-2.882 11.706z" fill="#fed100" stroke="#000" transform="matrix(.39224 .07376 -.07415 .45756 954.847 38.379)"/><path d="M1177.654 225.247l-6.053-5.504 7.39-2.74 1.582 4.342-2.919 3.902z" fill="#cf142b"/><path d="M1177.654 225.247l-6.053-5.504 8.902 1.589-2.849 3.915z" fill="#cf142b"/><path d="M452.404 250.56l22.954-.024" transform="matrix(.39224 .07376 -.07415 .45756 1012.717 71.695)" fill="none" stroke="#000"/><path d="M626.165 307.466l-17.182-9.259 17.182-8.759 5.837 8.399-5.837 9.619z" fill="none" stroke="#000" transform="matrix(.39224 .07376 -.07415 .45756 954.847 38.379)"/></g><g stroke-width="3.228" fill="#fff" stroke="#000"><path d="M2700.19 785.026a10.489 10.66 0 1 1-20.977 0 10.489 10.66 0 1 1 20.977 0z" transform="matrix(-.17475 0 0 .18824 1611.112 67.424)" style="marker:none" overflow="visible"/><path d="M2700.19 785.026a10.489 10.66 0 1 1-20.977 0 10.489 10.66 0 1 1 20.977 0z" transform="matrix(-.17475 0 0 .18824 1610.737 73.719)" style="marker:none" overflow="visible"/><path d="M2700.19 785.026a10.489 10.66 0 1 1-20.977 0 10.489 10.66 0 1 1 20.977 0z" transform="matrix(-.17475 0 0 .18824 1635.772 68.877)" style="marker:none" overflow="visible"/><path d="M2700.19 785.026a10.489 10.66 0 1 1-20.977 0 10.489 10.66 0 1 1 20.977 0z" transform="matrix(-.17475 0 0 .18824 1635.397 75.171)" style="marker:none" overflow="visible"/></g></g><path d="M1090.91 613.628l20.501-5.629-10.516-18.476 18.476 10.516 5.63-20.501 5.628 20.501 18.476-10.516-10.516 18.476 20.501 5.629-20.501 5.629 10.516 18.476-18.476-10.516-5.629 20.501-5.629-20.501-18.476 10.516 10.516-18.476-20.5-5.629zm168.013-162.798l-18.632-1.216-8.153 14.573-8.101-14.594-18.637 1.166 10.53-13.378-10.483-13.407 18.632 1.216 8.153-14.573 8.101 14.594 18.637-1.166-10.53 13.378z" fill="#fff"/><path font-size="12" fill="#fff" fill-rule="evenodd" d="M1010.157 414.63l6.18 19.713 18.88-7.334-11.171 17.248 17.361 10.568-20.112 1.794 2.77 20.512-13.908-15.01-13.907 15.01 2.77-20.512-20.113-1.794 17.361-10.568-11.171-17.248 18.88 7.334 6.18-19.712zm180.637 77.242l-10.417 9.253 3.256 13.923-11.589-7.557-11.589 7.557 3.256-13.923-10.417-9.253 13.6-1.048 5.15-13.276 5.15 13.276z"/></svg>