<svg xmlns="http://www.w3.org/2000/svg" xmlns:xlink="http://www.w3.org/1999/xlink" version="1" viewBox="0 0 1800 900"><path fill="#002664" d="M0 0h1800v900H0z"/><path d="M1550 450a200 200 0 1 1-400 0 200 200 0 1 1 400 0z" fill="#fed100"/><path fill="#002664" d="M0 0h900v450H0z"/><g transform="scale(.6)" id="b"><path id="a" fill="#fff" d="M167.705 0L625 228.647V0h50l75 325L0 300v-50h332.295L0 83.853V0z"/><use transform="matrix(-1 0 0 1 1500 0)" width="1000" height="500" xlink:href="#a"/><path d="M0 0l500 250H388.197L0 55.902V0zm1500 0l-500 250H888.197l500-250H1500z" fill="#ed2939"/></g><use transform="rotate(180 450 225)" width="1000" height="500" xlink:href="#b"/><path d="M405 0h90v180h405v90H495v180h-90V270H0v-90h405V0z" fill="#ed2939"/><path d="M1372.946 356.247c-1.523 2.971-7.207 12.19-8.414 13.66-4.823 5.905-6.02 7.13-8.76 10.826-1.506 2.02-4.715 6.24-6.696 9.835-4.33 7.875-4.33 10.738-4.33 10.738s-6.107 3.588-6.692 3.84c-.591.245-3.325 2.002-7.09 4.718-4.921 3.538-2.755 1.781-8.075 6.307-4.56 3.896-8.536 11.04-11.021 14.364-2.954 3.938-5.23 9.902-5.712 14.76-.588 5.915.2 7.392.2 12.313 0 3.79-.984 6.99-3.154 6.99-1.67 0-2.163.199-3.346-4.13-.686-2.524-.725-1.936-1.176-7.876-.102-1.28-.592-5.218 1.176-12.215 2.205-8.76 4.753-12.113 9.16-18.89 4.427-6.769 19.98-25.308 22.147-35.248 2.138-9.874 3.738-20.087-3.251-30.717-5.747-8.732-16.167-9.975-18.407-10.234-2.803-.329-6.45-.878-12.145.686-3.21.89-5.38 1.575-9.215 4.036-5.184 3.318-7.68 7.136-9.254 10.927-1.477 3.546-2.314 6.384-1.477 9.065.563 1.813 1.477 2.167 1.477 2.167s-3.014 12.012-1.967 14.374c1.081 2.408 3.36 2.566 4.427 2.755 1.155.203.172-7.21 6.56-11.788 0 0 3.604-.354 7.223-1.442 1.537-.47 5.054-2.625 5.768-3.283 1.932-1.768 4.998-5.401 7.224-4.946 1.257.252 2.373.609 3.644 1.87 2.632 3.02 1.991 6.621 1.673 10.818-.21 2.674-2.489 8.624-12.303 19.008-11.812 12.502-16.243 16.727-24.318 27.157-5.83 7.543-7.934 10.609-13.485 20.878-1.834 3.395-6.794 17.325-4.921 29.04 2.842 17.755 11.382 26.173 16.499 30.709 5.13 4.543 17.857 9.968 17.857 9.968s5.806 3.31 16.733 4.9c17.72 2.558 20.045 1.736 27.895.612 7.616-1.081 25.063-4.844 30.971-6.814 1.267-.43 2.03 2.954 8.267 6.594 5.905 3.444 6.598 3.815 14.57 3.643 8.957-.199 10.508-1.305 14.47-2.562 2.044-.65 3.251-1.081 5.12-1.473.92-.196 3.245-.396 4.53-.788 1.928-.605-.239-1.428-1.285-1.575-3.938-.591-5.19-2.068-5.607-2.66 0 0-.69-.588.392-.885 0 0 2.425 0 8.662-1.967a69.939 69.939 0 0 0 9.65-3.84c5.631-2.754 11.231-6.51 13.481-8.169 2.66-1.97 5.415-3.937 11.323-8.858 5.918-4.939 7.185-7.483 8.662-9.552.984-1.39 1.404-3.115.294-2.558-.591.297-1.477.69-2.26 1.081 0 0-1.677.088-.694-1.277.235-.336 1.257-1.106 1.873-1.505 0 0 4.144-3.752 7.087-7.162 3.238-3.762 5.215-6.496 6.692-8.956 0 0 .7-1.477-1.18-.494-2.068 1.085-2.46 1.677-2.46 1.677s-1.477.196-.493-2.954c1.12-3.556 1.18-2.755 2.166-4.823.945-1.992 3.248-5.712 4.921-7.973 1.775-2.401 3.444-4.333 5.513-8.071 2.054-3.72.16-2.74-2.167-1.785a48.317 48.317 0 0 1-4.133 1.49c-1.208.382-6.52 2.8-7.875 3.347-3.62 1.463-4.134 1.697-7.581 3.444-4.291 2.177-7.074 3.482-8.068 3.937-1.085.49-1.477 1.082-4.43 1.281-4.029.27-3.644.095-6.304.095-2.555 0-4.33.336-6.1 0-1.761-.333-2.969.406-.886-2.657 2.065-3.052 1.771-2.656 3.248-4.543.92-1.165 3.923-5.407 3.836-5.31-.5.568 4.333-5.991 4.039-6.68-.294-.69-2.265 1.182-4.529 1.08-1.379 0-3.248-.49-3.938-.59-.381-.053-.493-1.079 1.082-2.556 1.123-1.046.248-.276 2.66-2.166 1.463-1.141 2.863-2.576 3.84-3.546 1.966-1.967 2.656-2.558 4.822-5.316 3.224-4.103 4.428-5.916 4.428-5.916s1.393-1.925-.984-1.085c0 0-.392.298-4.035 2.17-1.687.861-4.456 1.337-6.006 1.376-1.537.024-1.106-.816-.094-1.575.994-.746.563-.763-.399-.788-1.561-.038-5.152.816-4.232-.591 1.047-1.607 4.099-2.23 3.346-2.653 0 0-4.13.392-6.002.588 0 0-1.281-.196-.788-1.477.172-.441 2.548-2.482 2.853-3.15 0 0 2.66-3.542 4.924-6.79 0 0 5.02-4.827 1.477-4.627-1.477.098-4.529 2.852-6.993 3.738-2.46.889-10.038 4.235-5.509-.686 0 0 .987-.886 1.771-2.069 0 0 3.346-4.224 4.036-5.404 0 0 .787-1.477-2.167-.2 0 0-4.858 2.199-5.708 1.775-.984-.493-.69-.01-.298-2.177.2-1.085 1.677-4.43 2.762-6.3 1.575-2.726 3.482-5.113 4.035-5.708.924-1.015 1.512-1.698-.689-1.183 0 0-4.48 3.003-7.581 4.039-2.362.784-3.542.885-5.019.983-1.221.08-4.627.196-4.627.196s-2.362.196-3.643.298c-1.673.13-.098-1.477 1.477-3.644 0 0 .567-1.123 2.264-3.829l6.3-10.633s1.992-2.608-.983-1.082c-.21.109-1.516 1.194-1.677 1.369-2.065 2.261-2.31 2.153-4.623 4.137 0 0-2.46 1.572-4.235 2.062 0 0-3.742 2.068-3.64.399.133-2.363.591-3.154.983-3.843.553-.973.392-.788 1.477-3.147 0 0 .788-2.363 1.376-5.614l.493-3.248s.392-3.752-1.575-.098c-1.956 3.615-4.256 6.1-6.3 7.675-1.144.879-1.77 1.383-5.806 2.86 0 0-3.374 1.649-5.712 2.065-1.67.298-.984-2.656-.494-4.925 0 0 .693-1.77 1.876-8.56 0 0 .392-3.347-1.676-.792 0 0-1.047 2.6-3.052 5.415-2.422 3.42-3.938 4.729-4.823 5.814 0 0-2.755 3.836-3.738 5.904-.175.343-.693-.094-.984.095-.815.528-.987-8.562-.987-8.562s-.49-1.085-1.379-.098c0 0-.987 1.772-1.571 3.15 0 0-1.085 3.158-1.876 3.749-.784.592-1.67-9.559-1.477-12.313 0 0-.294-2.856-1.13-1.246z" stroke="#000" stroke-width="3.15"/><path d="M1296.804 356.25c.248.448-1.561 3.78-3.836 5.583-2.78 2.205-6.006 3.084-7.088 1.9-.934-1.011 1.87-5.215 4.07-6.405 3.102-1.67 6.486-1.732 6.854-1.078z" fill="#fed100" stroke="#000" stroke-width="1.575"/><path d="M1288.243 359.008c.686.396 2.446 2.576 3.444 3.448.787.686.885.532.493-.392-.297-.693-1.085-2.86-1.575-5.12 0 0-3.052 1.672-2.362 2.064"/></svg>