<svg xmlns="http://www.w3.org/2000/svg" viewBox="0 0 1000 500">
<path fill="#0073cf" d="M0 0h1000v500H0z"/>
<path d="M532.6 177.648a32.601 32.601 0 0 1-65.203 0 32.601 32.601 0 1 1 65.202 0z" fill="#fecb00"/>
<path d="M447.297 56.274C392.3 57.306 335.677 189.49 467.83 256.507V443.73h16.849V252.55c-13.955-4.578-61.794-35.454-61.794-75.901 0-16.92 10.569-44.817 30.72-57.68 12.33-7.87 24.452-15.99 24.452-32.601 0-16.612-13.482-30.094-30.094-30.094-.216 0-.45-.004-.666 0zm103.76 0c-16.163.513-29.114 13.807-29.114 30.094 0 16.612 12.121 24.731 24.451 32.601 20.152 12.863 30.721 40.76 30.721 57.68 0 40.447-47.84 71.323-61.794 75.9V443.73h16.85V256.507c132.67-67.28 75.063-200.233 19.866-200.233-.324 0-.658-.01-.98 0zm-191.22 47.022c-14.701.632-24.725 11.403-24.725 28.212 0 31.196 54.102 113.244 109.638 133.776V443.73h16.81V257.76c-30.532-17.051-55.591-39.054-67.515-64.614-11.305-24.233-11.48-41.278-11.48-50.196 0-12.066 1.057-11.082 1.057-18.73 0-19.288-16.672-20.924-23.432-20.924-.117.004-.237-.005-.353 0zm278.798 0c-7.34.214-22.257 2.69-22.257 20.924 0 7.648 1.058 6.664 1.058 18.73 0 8.918-.176 25.963-11.481 50.196-11.924 25.56-36.983 47.563-67.515 64.615v185.97h16.81V265.283c55.536-20.532 109.638-102.58 109.638-133.776 0-16.941-10.187-27.736-25.078-28.213-.37 0-.75-.012-1.175 0zM321.906 150.63c-8.09.41-15.634 6.507-15.634 17.869 0 3.736-.263 8.946 9.835 21.394 28.65 35.318 91.544 78.555 105.524 81.66V443.73h16.85V266.538c-32.378-14.312-78.974-59.956-99.333-105.014-3.462-7.66-10.539-11.234-17.242-10.894zm354.463 0c-6.156.304-12.354 3.894-15.517 10.894-20.36 45.058-66.955 90.702-99.332 105.014V443.73h16.849V271.554c13.98-3.106 76.875-46.343 105.524-81.66 10.098-12.449 9.835-17.66 9.835-21.395 0-12.173-8.646-18.299-17.359-17.869zm-374.643 38.754c-8.03.559-13.636 9.11-13.636 14.224 0 18.148 83.18 72.901 107.758 75.47V443.73h19.513V272.808c-19.13-8.384-80.362-52.68-98.392-74.804-5.479-6.723-10.738-8.934-15.243-8.62zm394.902 0c-4.12.278-8.773 2.701-13.597 8.62-18.03 22.124-79.263 66.42-98.392 74.804V443.73h19.513V279.077c24.578-2.568 107.758-57.321 107.758-75.47 0-5.457-6.38-14.824-15.282-14.223zm-205.68 63.753V443.73h18.104V253.137h-18.104z" fill="#fff"/>
</svg>
