<svg xmlns="http://www.w3.org/2000/svg" viewBox="0 0 757 505" version="1">
<path fill="#fff" fill-rule="evenodd" stroke="#009" stroke-width="19.919" d="M9.959 9.959H747.04V495.04H9.959z"/>
<text style="text-align:start;line-height:125%" x="905.286" y="-252.652" transform="matrix(1.00559 0 0 .99444 -612.929 668.709)" font-size="47.54" font-weight="700" fill="#009" font-family="Times New Roman">
<tspan x="905.286" y="-252.652">C P L P</tspan>
</text>
<g fill="#009" fill-rule="evenodd">
<path d="M351.272 227.321c-4.21 0-6.25-16.786-6.25-27.321 0-10.536.536-65.179 28.75-65.179 28.215 0 37.983 31.09 37.983 31.09-7.937 5.801-14.962 10.892-21.375 17.303 0 0-9.534-12.321-13.929-12.321-15.213 0-12.27 56.428-25.179 56.428zm48.156 18.572a21.429 21.429 0 1 1-42.857 0 21.429 21.429 0 1 1 42.857 0zm5.358 18.577c4.21 0 6.25 16.785 6.25 27.321 0 10.536-.536 65.179-28.75 65.179s-37.982-31.09-37.982-31.09c7.936-5.801 14.962-10.892 21.375-17.303 0 0 9.533 12.321 13.928 12.321 15.214 0 12.27-56.428 25.179-56.428zm-45.331 8.182c0 4.21-16.786 6.25-27.321 6.25-10.536 0-65.18-.536-65.18-28.75s31.09-37.982 31.09-37.982c5.802 7.936 10.893 14.962 17.304 21.375 0 0-12.322 9.533-12.322 13.929 0 15.213 56.429 12.27 56.429 25.178z"/>
<path d="M410.083 240.11c2.977-2.978 16.289 7.45 23.739 14.9 7.45 7.45 45.709 46.466 25.758 66.417-19.95 19.95-48.84 4.874-48.84 4.874 1.51-9.715 2.877-18.282 2.879-27.35 0 0 15.453 1.971 18.561-1.137 10.758-10.757-31.225-48.577-22.097-57.704zm-26.268 37.84c2.978 2.977-7.45 16.288-14.9 23.738-7.45 7.45-46.467 45.71-66.417 25.759-19.95-19.95-4.874-48.841-4.874-48.841 9.714 1.51 18.282 2.877 27.35 2.879 0 0-1.972 15.453 1.136 18.561 10.758 10.758 48.577-31.225 57.705-22.097z"/>
<path d="M396.603 219.139c0-4.211 16.786-6.25 27.322-6.25 10.536 0 65.178.535 65.178 28.75 0 28.214-31.089 37.982-31.089 37.982-5.801-7.937-10.892-14.962-17.303-21.375 0 0 12.32-9.533 12.32-13.929 0-15.213-56.428-12.27-56.428-25.178z"/>
<path d="M372.243 213.842c-2.977-2.978 7.45-16.29 14.9-23.739 7.45-7.45 46.467-45.71 66.418-25.759 19.95 19.95 4.874 48.841 4.874 48.841-9.715-1.51-18.282-2.878-27.35-2.879 0 0 1.971-15.453-1.137-18.561-10.757-10.758-48.577 31.224-57.705 22.097zm-26.268 37.839c-2.977 2.978-16.288-7.45-23.738-14.9-7.45-7.45-45.71-46.466-25.76-66.417 19.951-19.95 48.842-4.874 48.842-4.874-1.51 9.714-2.878 18.282-2.88 27.35 0 0-15.453-1.972-18.56 1.136-10.758 10.758 31.224 48.578 22.096 57.705z"/>
</g>
</svg>
