<svg version="1" xmlns="http://www.w3.org/2000/svg" viewBox="0 0 900 600">
<path fill="#fff" d="M0 0h900v600H0z"/>
<path d="M638.915 224.883a221.648 221.648 0 0 0-7.577-19.597l-11.046 4.968a218.822 218.822 0 0 1 14.975 35.512l-39.754 13.037c12.762 60.583-10.267 123.222-61.996 161.156l29.821 41.438c75.1-55.07 104.457-149.524 75.577-236.514z" fill="#84006b"/>
<path d="M584.169 458.455a218.8 218.8 0 0 0 16.125-13.329l-8.095-9.068a216.326 216.326 0 0 1-28.835 25.348l-24.57-34.131c-53.142 30.971-119.282 28.222-171.012-9.712l-29.83 41.431c75.099 55.071 173.173 54.065 246.217-.54z" fill="red"/>
<path d="M347.161 478.081a218.136 218.136 0 0 0 17.542 11.36l6.044-10.573a215.321 215.321 0 0 1-32.796-19.845l24.57-34.132c-45.607-41.442-63.455-105.78-43.696-167.158L270.567 241.9c-28.685 89.106 2.57 182.938 76.594 236.18z" fill="#0094c6"/>
<path d="M255.428 256.64a222.069 222.069 0 0 0-5.283 20.349l11.83 2.534a219.446 219.446 0 0 1 8.565-37.614l39.755 13.037c24.956-56.584 80.066-93.598 144.007-93.598l.006-51.216c-92.828 0-171.585 58.997-198.88 146.507z" fill="#ffd600"/>
<path d="M435.741 100.154c-6.874.064-13.825.477-20.807 1.217l1.268 12.14a213.784 213.784 0 0 1 38.09-3.402v42.189c61.03 6.47 112.937 47.934 132.696 109.311l48.262-15.82c-28.686-89.108-108.615-146.477-199.51-145.636z" fill="#109c52"/>
</svg>
